0
SECTION
2
HEADER
9
$INSUNITS
70
4
9
$ACADVER
1
AC1014
9
$HANDSEED
5
FFFF
0
ENDSEC
0
SECTION
2
TABLES
0
TABLE
2
VPORT
5
8
100
AcDbSymbolTable
0
ENDTAB
0
TABLE
2
LTYPE
5
5
100
AcDbSymbolTable
0
LTYPE
5
14
100
AcDbSymbolTableRecord
100
AcDbLinetypeTableRecord
2
BYBLOCK
70
0
0
LTYPE
5
15
100
AcDbSymbolTableRecord
100
AcDbLinetypeTableRecord
2
BYLAYER
70
0
0
ENDTAB
0
TABLE
2
LAYER
5
2
100
AcDbSymbolTable
70
2
0
LAYER
5
50
100
AcDbSymbolTableRecord
100
AcDbLayerTableRecord
2
0
70
0
6
CONTINUOUS
0
ENDTAB
0
TABLE
2
STYLE
5
3
100
AcDbSymbolTable
70
1
0
STYLE
5
11
100
AcDbSymbolTableRecord
100
AcDbTextStyleTableRecord
2
STANDARD
70
0
0
ENDTAB
0
TABLE
2
VIEW
5
6
100
AcDbSymbolTable
70
0
0
ENDTAB
0
TABLE
2
UCS
5
7
100
AcDbSymbolTable
70
0
0
ENDTAB
0
TABLE
2
APPID
5
9
100
AcDbSymbolTable
70
2
0
APPID
5
12
100
AcDbSymbolTableRecord
100
AcDbRegAppTableRecord
2
ACAD
70
0
0
ENDTAB
0
TABLE
2
DIMSTYLE
5
A
100
AcDbSymbolTable
70
1
0
ENDTAB
0
TABLE
2
BLOCK_RECORD
5
1
100
AcDbSymbolTable
70
1
0
BLOCK_RECORD
5
1F
100
AcDbSymbolTableRecord
100
AcDbBlockTableRecord
2
*MODEL_SPACE
0
BLOCK_RECORD
5
1B
100
AcDbSymbolTableRecord
100
AcDbBlockTableRecord
2
*PAPER_SPACE
0
ENDTAB
0
ENDSEC
0
SECTION
2
BLOCKS
0
BLOCK
5
20
100
AcDbEntity
100
AcDbBlockBegin
2
*MODEL_SPACE
0
ENDBLK
5
21
100
AcDbEntity
100
AcDbBlockEnd
0
BLOCK
5
1C
100
AcDbEntity
100
AcDbBlockBegin
2
*PAPER_SPACE
0
ENDBLK
5
1D
100
AcDbEntity
100
AcDbBlockEnd
0
ENDSEC
0
SECTION
2
ENTITIES
0
SPLINE
5
100
100
AcDbEntity
8
0
100
AcDbSpline
70
4
71
5
72
16
73
10
74
0
42
0.000000001
43
0.0000000001
44
0.0000000001
40
0
40
0
40
0
40
0
40
0
40
0
40
0.20000000000000001
40
0.40000000000000002
40
0.60000000000000009
40
0.80000000000000004
40
1
40
1
40
1
40
1
40
1
40
1
41
1
41
1
41
1
41
1
41
1
41
1
41
1
41
1
41
1
41
1
10
0
20
0
30
0
10
0
20
0.080000000000033267
30
0
10
0
20
0.24000000000008476
30
0
10
0
20
0.48000000000011728
30
0
10
0
20
0.80000000000008786
30
0
10
0
20
1.2000000000000053
30
0
10
0
20
1.5199999999999583
30
0
10
0
20
1.7599999999999643
30
0
10
0
20
1.9199999999999853
30
0
10
0
20
2
30
0
0
SPLINE
5
101
100
AcDbEntity
8
0
100
AcDbSpline
70
4
71
5
72
16
73
10
74
0
42
0.000000001
43
0.0000000001
44
0.0000000001
40
0
40
0
40
0
40
0
40
0
40
0
40
0.20000000000000001
40
0.40000000000000002
40
0.60000000000000009
40
0.80000000000000004
40
1
40
1
40
1
40
1
40
1
40
1
41
1
41
1
41
1
41
1
41
1
41
1
41
1
41
1
41
1
41
1
10
10
20
0
30
0
10
9.9999999999997495
20
0.080000000000033267
30
0
10
9.9999999999993197
20
0.24000000000008476
30
0
10
9.9999999999989129
20
0.48000000000011728
30
0
10
9.9999999999987672
20
0.80000000000008786
30
0
10
9.9999999999990248
20
1.2000000000000053
30
0
10
9.9999999999993889
20
1.5199999999999583
30
0
10
9.9999999999996998
20
1.7599999999999643
30
0
10
9.9999999999999005
20
1.9199999999999853
30
0
10
10
20
2
30
0
0
SPLINE
5
102
100
AcDbEntity
8
0
100
AcDbSpline
70
4
71
5
72
16
73
10
74
0
42
0.000000001
43
0.0000000001
44
0.0000000001
40
0
40
0
40
0
40
0
40
0
40
0
40
0.20000000000000001
40
0.40000000000000002
40
0.60000000000000009
40
0.80000000000000004
40
1
40
1
40
1
40
1
40
1
40
1
41
1
41
1
41
1
41
1
41
1
41
1
41
1
41
1
41
1
41
1
10
0
20
1
30
0
10
0.40000000000047375
20
0.99999999999987343
30
0
10
1.2000000000012774
20
0.99999999999965183
30
0
10
2.4000000000020547
20
0.99999999999941747
30
0
10
4.0000000000023546
20
0.99999999999928091
30
0
10
6.0000000000019584
20
0.99999999999933376
30
0
10
7.6000000000012928
20
0.99999999999951594
30
0
10
8.800000000000697
20
0.99999999999972888
30
0
10
9.6000000000002395
20
0.99999999999990408
30
0
10
10
20
1
30
0
0
SPLINE
5
103
100
AcDbEntity
8
0
100
AcDbSpline
70
4
71
5
72
211
73
205
74
0
42
0.000000001
43
0.0000000001
44
0.0000000001
40
0
40
0
40
0
40
0
40
0
40
0
40
0.0050000000000000001
40
0.01
40
0.014999999999999999
40
0.02
40
0.025000000000000001
40
0.030000000000000002
40
0.035000000000000003
40
0.040000000000000001
40
0.044999999999999998
40
0.049999999999999996
40
0.054999999999999993
40
0.059999999999999991
40
0.064999999999999988
40
0.069999999999999993
40
0.074999999999999997
40
0.080000000000000002
40
0.085000000000000006
40
0.090000000000000011
40
0.095000000000000015
40
0.10000000000000002
40
0.10500000000000002
40
0.11000000000000003
40
0.11500000000000003
40
0.12000000000000004
40
0.12500000000000003
40
0.13000000000000003
40
0.13500000000000004
40
0.14000000000000004
40
0.14500000000000005
40
0.15000000000000005
40
0.15500000000000005
40
0.16000000000000006
40
0.16500000000000006
40
0.17000000000000007
40
0.17500000000000007
40
0.18000000000000008
40
0.18500000000000008
40
0.19000000000000009
40
0.19500000000000009
40
0.20000000000000009
40
0.2050000000000001
40
0.2100000000000001
40
0.21500000000000011
40
0.22000000000000011
40
0.22500000000000012
40
0.23000000000000012
40
0.23500000000000013
40
0.24000000000000013
40
0.24500000000000013
40
0.25000000000000011
40
0.25500000000000012
40
0.26000000000000012
40
0.26500000000000012
40
0.27000000000000013
40
0.27500000000000013
40
0.28000000000000014
40
0.28500000000000014
40
0.29000000000000015
40
0.29500000000000015
40
0.30000000000000016
40
0.30500000000000016
40
0.31000000000000016
40
0.31500000000000017
40
0.32000000000000017
40
0.32500000000000018
40
0.33000000000000018
40
0.33500000000000019
40
0.34000000000000019
40
0.3450000000000002
40
0.3500000000000002
40
0.3550000000000002
40
0.36000000000000021
40
0.36500000000000021
40
0.37000000000000022
40
0.37500000000000022
40
0.38000000000000023
40
0.38500000000000023
40
0.39000000000000024
40
0.39500000000000024
40
0.40000000000000024
40
0.40500000000000025
40
0.41000000000000025
40
0.41500000000000026
40
0.42000000000000026
40
0.42500000000000027
40
0.43000000000000027
40
0.43500000000000028
40
0.44000000000000028
40
0.44500000000000028
40
0.45000000000000029
40
0.45500000000000029
40
0.4600000000000003
40
0.4650000000000003
40
0.47000000000000031
40
0.47500000000000031
40
0.48000000000000032
40
0.48500000000000032
40
0.49000000000000032
40
0.49500000000000033
40
0.50000000000000033
40
0.50500000000000034
40
0.51000000000000034
40
0.51500000000000035
40
0.52000000000000035
40
0.52500000000000036
40
0.53000000000000036
40
0.53500000000000036
40
0.54000000000000037
40
0.54500000000000037
40
0.55000000000000038
40
0.55500000000000038
40
0.56000000000000039
40
0.56500000000000039
40
0.5700000000000004
40
0.5750000000000004
40
0.5800000000000004
40
0.58500000000000041
40
0.59000000000000041
40
0.59500000000000042
40
0.60000000000000042
40
0.60500000000000043
40
0.61000000000000043
40
0.61500000000000044
40
0.62000000000000044
40
0.62500000000000044
40
0.63000000000000045
40
0.63500000000000045
40
0.64000000000000046
40
0.64500000000000046
40
0.65000000000000047
40
0.65500000000000047
40
0.66000000000000048
40
0.66500000000000048
40
0.67000000000000048
40
0.67500000000000049
40
0.68000000000000049
40
0.6850000000000005
40
0.6900000000000005
40
0.69500000000000051
40
0.70000000000000051
40
0.70500000000000052
40
0.71000000000000052
40
0.71500000000000052
40
0.72000000000000053
40
0.72500000000000053
40
0.73000000000000054
40
0.73500000000000054
40
0.74000000000000055
40
0.74500000000000055
40
0.75000000000000056
40
0.75500000000000056
40
0.76000000000000056
40
0.76500000000000057
40
0.77000000000000057
40
0.77500000000000058
40
0.78000000000000058
40
0.78500000000000059
40
0.79000000000000059
40
0.7950000000000006
40
0.8000000000000006
40
0.8050000000000006
40
0.81000000000000061
40
0.81500000000000061
40
0.82000000000000062
40
0.82500000000000062
40
0.83000000000000063
40
0.83500000000000063
40
0.84000000000000064
40
0.84500000000000064
40
0.85000000000000064
40
0.85500000000000065
40
0.86000000000000065
40
0.86500000000000066
40
0.87000000000000066
40
0.87500000000000067
40
0.88000000000000067
40
0.88500000000000068
40
0.89000000000000068
40
0.89500000000000068
40
0.90000000000000069
40
0.90500000000000069
40
0.9100000000000007
40
0.9150000000000007
40
0.92000000000000071
40
0.92500000000000071
40
0.93000000000000071
40
0.93500000000000072
40
0.94000000000000072
40
0.94500000000000073
40
0.95000000000000073
40
0.95500000000000074
40
0.96000000000000074
40
0.96500000000000075
40
0.97000000000000075
40
0.97500000000000075
40
0.98000000000000076
40
0.98500000000000076
40
0.99000000000000077
40
0.99500000000000077
40
1
40
1
40
1
40
1
40
1
40
1
41
1
41
1
41
1
41
1
41
1
41
1
41
1
41
1
41
1
41
1
41
1
41
1
41
1
41
1
41
1
41
1
41
1
41
1
41
1
41
1
41
1
41
1
41
1
41
1
41
1
41
1
41
1
41
1
41
1
41
1
41
1
41
1
41
1
41
1
41
1
41
1
41
1
41
1
41
1
41
1
41
1
41
1
41
1
41
1
41
1
41
1
41
1
41
1
41
1
41
1
41
1
41
1
41
1
41
1
41
1
41
1
41
1
41
1
41
1
41
1
41
1
41
1
41
1
41
1
41
1
41
1
41
1
41
1
41
1
41
1
41
1
41
1
41
1
41
1
41
1
41
1
41
1
41
1
41
1
41
1
41
1
41
1
41
1
41
1
41
1
41
1
41
1
41
1
41
1
41
1
41
1
41
1
41
1
41
1
41
1
41
1
41
1
41
1
41
1
41
1
41
1
41
1
41
1
41
1
41
1
41
1
41
1
41
1
41
1
41
1
41
1
41
1
41
1
41
1
41
1
41
1
41
1
41
1
41
1
41
1
41
1
41
1
41
1
41
1
41
1
41
1
41
1
41
1
41
1
41
1
41
1
41
1
41
1
41
1
41
1
41
1
41
1
41
1
41
1
41
1
41
1
41
1
41
1
41
1
41
1
41
1
41
1
41
1
41
1
41
1
41
1
41
1
41
1
41
1
41
1
41
1
41
1
41
1
41
1
41
1
41
1
41
1
41
1
41
1
41
1
41
1
41
1
41
1
41
1
41
1
41
1
41
1
41
1
41
1
41
1
41
1
41
1
41
1
41
1
41
1
41
1
41
1
41
1
41
1
41
1
41
1
41
1
41
1
41
1
41
1
41
1
41
1
41
1
41
1
41
1
41
1
41
1
41
1
41
1
41
1
41
1
41
1
41
1
41
1
41
1
10
0
20
0
30
0
10
0.0095256653258203282
20
0.015061041686770072
30
0
10
0.028733427904439404
20
0.042980365207732983
30
0
10
0.058014375188766086
20
0.078250915771006041
30
0
10
0.097994217073717388
20
0.11206225433018753
30
0
10
0.1494893853509642
20
0.1329917104845845
30
0
10
0.20237150237426565
20
0.1346931358895716
30
0
10
0.25637560139732707
20
0.12134009317063681
30
0
10
0.31105503064288553
20
0.099989089568987888
30
0
10
0.36575355469865611
20
0.080946224210092871
30
0
10
0.4197411663486989
20
0.074934225908408661
30
0
10
0.4723402721077975
20
0.090388628467956825
30
0
10
0.52304371104783787
20
0.13105563361131545
30
0
10
0.57166476216228623
20
0.19261663572196214
30
0
10
0.61836755690917677
20
0.26286707634972345
30
0
10
0.66354784102756692
20
0.32631784203514475
30
0
10
0.70775173856014617
20
0.36768409391348394
30
0
10
0.75157955181363134
20
0.3757930149898342
30
0
10
0.79559493610237131
20
0.34739014080312441
30
0
10
0.84023468579114979
20
0.2907693257412437
30
0
10
0.88581791481670602
20
0.22116056249926572
30
0
10
0.93255182282778648
20
0.15651512105931975
30
0
10
0.9805382432475811
20
0.11290557867043456
30
0
10
1.0297809993098219
20
0.10062767104629722
30
0
10
1.080189991223899
20
0.11865143169672399
30
0
10
1.1316001225218977
20
0.15602236783788817
30
0
10
1.1837994438847703
20
0.19750858575579489
30
0
10
1.2365549158145197
20
0.22817357174039493
30
0
10
1.2896382401719009
20
0.23793738193480868
30
0
10
1.3428539890768709
20
0.227309885239462
30
0
10
1.3960518191201488
20
0.20504830934134047
30
0
10
1.449133692401716
20
0.18312213611884282
30
0
10
1.5020622914767432
20
0.1726219904592915
30
0
10
1.5548700332807996
20
0.17917303878742707
30
0
10
1.6076649450123233
20
0.1988371535970318
30
0
10
1.6605674954405698
20
0.22215149412739632
30
0
10
1.7136450626150785
20
0.23807846106254235
30
0
10
1.7668566049724863
20
0.2376819348834292
30
0
10
1.8199710214521256
20
0.21863865309110142
30
0
10
1.8725681218925549
20
0.18704075820186908
30
0
10
1.924214055371438
20
0.15322306766884844
30
0
10
1.9746132683376005
20
0.12865688844670572
30
0
10
2.0237446212912493
20
0.12272889893960184
30
0
10
2.0720654684796274
20
0.13881674052031603
30
0
10
2.1204528699972709
20
0.17355899256887558
30
0
10
2.1698691339436462
20
0.21967497695610574
30
0
10
2.2210816573400165
20
0.26790840587408105
30
0
10
2.2744017461505086
20
0.30917353079073595
30
0
10
2.3293151849857781
20
0.3369908411451325
30
0
10
2.3845348118860197
20
0.34837944432964629
30
0
10
2.4385431066217871
20
0.34283263382541418
30
0
10
2.4900274047410673
20
0.32178135279499226
30
0
10
2.5383154878067486
20
0.2878891684741603
30
0
10
2.5839224143945669
20
0.24434283074950774
30
0
10
2.6282441056419148
20
0.1946975547616496
30
0
10
2.6730339769883256
20
0.14288004776439131
30
0
10
2.7199300901324079
20
0.093161083637361586
30
0
10
2.7700136560035
20
0.050086275019196283
30
0
10
2.8232264017397286
20
0.018557481584108311
30
0
10
2.8783013701393312
20
0.0033841514765172546
30
0
10
2.933446421361964
20
0.008108230379406639
30
0
10
2.986870608644931
20
0.033918218363092105
30
0
10
3.037322512901055
20
0.078710881988294637
30
0
10
3.0847542497514331
20
0.13562287841793963
30
0
10
3.1301316307153004
20
0.19462073995997312
30
0
10
3.1749431594224173
20
0.24509643982422311
30
0
10
3.2207923272162513
20
0.2782695202110268
30
0
10
3.2689918708986818
20
0.28936210143992147
30
0
10
3.3200680432052487
20
0.28061904482430389
30
0
10
3.3736184072013842
20
0.26133516585022909
30
0
10
3.4287154418466015
20
0.24342451744639015
30
0
10
3.4841896339209373
20
0.23785960537166165
30
0
10
3.5389402346102639
20
0.25117028762924365
30
0
10
3.5922871646059291
20
0.28087852425642995
30
0
10
3.6439981032628825
20
0.31737379977621183
30
0
10
3.6941792311484258
20
0.3483246266724902
30
0
10
3.7432115976999167
20
0.36237295550610726
30
0
10
3.7916665218272163
20
0.35288040581441144
30
0
10
3.8402351726785127
20
0.32230338673311049
30
0
10
3.8896014896314792
20
0.27951868257539336
30
0
10
3.940311369640479
20
0.23607414957324863
30
0
10
3.9926375051866705
20
0.20273134188660671
30
0
10
4.0464585918939644
20
0.18608675354638723
30
0
10
4.1010988362971883
20
0.18462376298705696
30
0
10
4.1555720075111777
20
0.19111390525397262
30
0
10
4.2088910623607303
20
0.19599503653329275
30
0
10
4.2603384508568212
20
0.19027676079499395
30
0
10
4.3097903531885855
20
0.16893698504341997
30
0
10
4.3579052528763897
20
0.13322625914556691
30
0
10
4.4057374799961293
20
0.088449544386943205
30
0
10
4.4544266773045518
20
0.04236631271608908
30
0
10
4.5048670047201629
20
0.0033723900941248081
30
0
10
4.5573633436150605
20
-0.021275759036641119
30
0
10
4.6113549157256859
20
-0.0271068581533499
30
0
10
4.6657908723795609
20
-0.012342906696991417
30
0
10
4.7194642669917615
20
0.021998124909275989
30
0
10
4.7713342640023129
20
0.072160151386194721
30
0
10
4.8209194177498924
20
0.13143195380739156
30
0
10
4.8684259663672211
20
0.19077775493735352
30
0
10
4.9144752544973045
20
0.24069012872297302
30
0
10
4.959925231649903
20
0.27277846866215649
30
0
10
5.0056585306428545
20
0.2814065613370304
30
0
10
5.0523741674945661
20
0.26544552470342592
30
0
10
5.1004089115024778
20
0.2295803888540201
30
0
10
5.1498331427017181
20
0.18215965913165855
30
0
10
5.2005186534201737
20
0.13338642070711951
30
0
10
5.2522167844225107
20
0.093388612287061579
30
0
10
5.3046332040872004
20
0.07031735858174544
30
0
10
5.3575011270392956
20
0.068500679654022678
30
0
10
5.4105745261404339
20
0.088671172659516573
30
0
10
5.4636244689960067
20
0.12805610104919546
30
0
10
5.5164349708780307
20
0.18062141050451316
30
0
10
5.5687973881801769
20
0.23700837868095964
30
0
10
5.6205108604344298
20
0.28538042840225303
30
0
10
5.6713969569449443
20
0.3142129299540587
30
0
10
5.7213119381604685
20
0.31485067192059929
30
0
10
5.7701589756982798
20
0.28383017721056092
30
0
10
5.8179027992707288
20
0.22609282905232067
30
0
10
5.8645747377358095
20
0.15499695039028638
30
0
10
5.9102632703596996
20
0.087572487827806009
30
0
10
5.9551080837026511
20
0.040931324395992758
30
0
10
5.999292728721751
20
0.028191605862214333
30
0
10
6.0430378649197811
20
0.054654083465954649
30
0
10
6.0865943162330058
20
0.11374812312602317
30
0
10
6.1302310308621788
20
0.19104464720852554
30
0
10
6.1742228076024492
20
0.26831739933342169
30
0
10
6.2188383033055858
20
0.32772698937549261
30
0
10
6.2643274889052396
20
0.35563445837807689
30
0
10
6.3109103771236716
20
0.34734231309020658
30
0
10
6.3587618792456455
20
0.30891151947864032
30
0
10
6.4079894191354905
20
0.25253709909705724
30
0
10
6.4586105501312518
20
0.19316054075428177
30
0
10
6.5105336425013318
20
0.14474574182457509
30
0
10
6.56352996480594
20
0.11633072280322364
30
0
10
6.6172313523917392
20
0.1092953927156111
30
0
10
6.6712256205174292
20
0.11997044999781734
30
0
10
6.7251433011443424
20
0.14149359834983552
30
0
10
6.7787358263785826
20
0.16586219968968136
30
0
10
6.8319864913487427
20
0.18614011325119034
30
0
10
6.8850872984007143
20
0.19760627267934078
30
0
10
6.9383013302894012
20
0.1978889672299686
30
0
10
6.9918537877184708
20
0.18743197950766471
30
0
10
7.0458193270790668
20
0.16973166649776103
30
0
10
7.0999897738165432
20
0.15191849928047141
30
0
10
7.1539657610048319
20
0.14263283665531085
30
0
10
7.2072889154923647
20
0.14938913796297823
30
0
10
7.2595552373219157
20
0.17626924180810949
30
0
10
7.310546790203821
20
0.22112918029163622
30
0
10
7.3603244530137459
20
0.27405155829450611
30
0
10
7.4091425146122489
20
0.32168440935140907
30
0
10
7.457386258745629
20
0.35087254891299535
30
0
10
7.5055008975579787
20
0.35243524757459926
30
0
10
7.5539236611165528
20
0.32518110524927124
30
0
10
7.6030161783751353
20
0.27895637620354602
30
0
10
7.6530173159625896
20
0.22933631565654086
30
0
10
7.7039920652504446
20
0.19301589074489267
30
0
10
7.7557856455001906
20
0.18307310566998289
30
0
10
7.8079666983006444
20
0.20395917192273127
30
0
10
7.8598000983278133
20
0.24755086913030322
30
0
10
7.9104630265942131
20
0.2985765503062745
30
0
10
7.9592426082062007
20
0.33925480308639344
30
0
10
8.0057339360585402
20
0.35411398586632253
30
0
10
8.050053537756126
20
0.33501505219971928
30
0
10
8.0930008413020396
20
0.28527208108659852
30
0
10
8.1357535497734066
20
0.21547938690737525
30
0
10
8.1796123040881721
20
0.14017713446999774
30
0
10
8.225712181219091
20
0.074028946416126534
30
0
10
8.2747810400262694
20
0.028590269688490419
30
0
10
8.3267967665345282
20
0.0078765290360624813
30
0
10
8.3810121886755855
20
0.0082373202183845702
30
0
10
8.4363218740281845
20
0.02222033476653994
30
0
10
8.4915424821163477
20
0.041432308331918959
30
0
10
8.545711974937916
20
0.059606146497004533
30
0
10
8.5984238484924767
20
0.076112655471039931
30
0
10
8.6497377611997486
20
0.094229192567103576
30
0
10
8.7000108113181902
20
0.11842968663865791
30
0
10
8.7497566860989195
20
0.15201664721466046
30
0
10
8.7994933426545376
20
0.1946147637022913
30
0
10
8.8495950116236948
20
0.23970713902013668
30
0
10
8.9002768562259167
20
0.27763268261516821
30
0
10
8.951580420846204
20
0.29864727839395505
30
0
10
9.0033601350077781
20
0.29590590175065429
30
0
10
9.0552660325338259
20
0.26860474526808059
30
0
10
9.1067373996660415
20
0.22469843961814728
30
0
10
9.157164772758744
20
0.17708253888543402
30
0
10
9.2060441106987607
20
0.14011026605419313
30
0
10
9.2531311808344263
20
0.12602789794420466
30
0
10
9.2986022866747522
20
0.14134128476475705
30
0
10
9.3431940280099219
20
0.1835051128966671
30
0
10
9.3879409623206485
20
0.24391417996029602
30
0
10
9.4339393681494386
20
0.31052483389654156
30
0
10
9.482089110435691
20
0.37072138401973387
30
0
10
9.5328723792459815
20
0.41383598333991733
30
0
10
9.5860467875310444
20
0.43442983026449034
30
0
10
9.6407302840156017
20
0.43212988647684536
30
0
10
9.6956857928873532
20
0.40971242841677941
30
0
10
9.7495441284825475
20
0.37173028542533487
30
0
10
9.8010508823067823
20
0.32292424069129877
30
0
10
9.8493074278688582
20
0.2667014820166102
30
0
10
9.8937162952010418
20
0.20532613211001816
30
0
10
9.9339190289654447
20
0.14015978388106942
30
0
10
9.9625733988662049
20
0.085537795575264822
30
0
10
9.9820643680307004
20
0.043273571246714194
30
0
10
9.994169583477575
20
0.014520651248536222
30
0
10
10
20
0
30
0
0
SPLINE
5
104
100
AcDbEntity
8
0
100
AcDbSpline
70
4
71
5
72
211
73
205
74
0
42
0.000000001
43
0.0000000001
44
0.0000000001
40
0
40
0
40
0
40
0
40
0
40
0
40
0.0050000000000000001
40
0.01
40
0.014999999999999999
40
0.02
40
0.025000000000000001
40
0.030000000000000002
40
0.035000000000000003
40
0.040000000000000001
40
0.044999999999999998
40
0.049999999999999996
40
0.054999999999999993
40
0.059999999999999991
40
0.064999999999999988
40
0.069999999999999993
40
0.074999999999999997
40
0.080000000000000002
40
0.085000000000000006
40
0.090000000000000011
40
0.095000000000000015
40
0.10000000000000002
40
0.10500000000000002
40
0.11000000000000003
40
0.11500000000000003
40
0.12000000000000004
40
0.12500000000000003
40
0.13000000000000003
40
0.13500000000000004
40
0.14000000000000004
40
0.14500000000000005
40
0.15000000000000005
40
0.15500000000000005
40
0.16000000000000006
40
0.16500000000000006
40
0.17000000000000007
40
0.17500000000000007
40
0.18000000000000008
40
0.18500000000000008
40
0.19000000000000009
40
0.19500000000000009
40
0.20000000000000009
40
0.2050000000000001
40
0.2100000000000001
40
0.21500000000000011
40
0.22000000000000011
40
0.22500000000000012
40
0.23000000000000012
40
0.23500000000000013
40
0.24000000000000013
40
0.24500000000000013
40
0.25000000000000011
40
0.25500000000000012
40
0.26000000000000012
40
0.26500000000000012
40
0.27000000000000013
40
0.27500000000000013
40
0.28000000000000014
40
0.28500000000000014
40
0.29000000000000015
40
0.29500000000000015
40
0.30000000000000016
40
0.30500000000000016
40
0.31000000000000016
40
0.31500000000000017
40
0.32000000000000017
40
0.32500000000000018
40
0.33000000000000018
40
0.33500000000000019
40
0.34000000000000019
40
0.3450000000000002
40
0.3500000000000002
40
0.3550000000000002
40
0.36000000000000021
40
0.36500000000000021
40
0.37000000000000022
40
0.37500000000000022
40
0.38000000000000023
40
0.38500000000000023
40
0.39000000000000024
40
0.39500000000000024
40
0.40000000000000024
40
0.40500000000000025
40
0.41000000000000025
40
0.41500000000000026
40
0.42000000000000026
40
0.42500000000000027
40
0.43000000000000027
40
0.43500000000000028
40
0.44000000000000028
40
0.44500000000000028
40
0.45000000000000029
40
0.45500000000000029
40
0.4600000000000003
40
0.4650000000000003
40
0.47000000000000031
40
0.47500000000000031
40
0.48000000000000032
40
0.48500000000000032
40
0.49000000000000032
40
0.49500000000000033
40
0.50000000000000033
40
0.50500000000000034
40
0.51000000000000034
40
0.51500000000000035
40
0.52000000000000035
40
0.52500000000000036
40
0.53000000000000036
40
0.53500000000000036
40
0.54000000000000037
40
0.54500000000000037
40
0.55000000000000038
40
0.55500000000000038
40
0.56000000000000039
40
0.56500000000000039
40
0.5700000000000004
40
0.5750000000000004
40
0.5800000000000004
40
0.58500000000000041
40
0.59000000000000041
40
0.59500000000000042
40
0.60000000000000042
40
0.60500000000000043
40
0.61000000000000043
40
0.61500000000000044
40
0.62000000000000044
40
0.62500000000000044
40
0.63000000000000045
40
0.63500000000000045
40
0.64000000000000046
40
0.64500000000000046
40
0.65000000000000047
40
0.65500000000000047
40
0.66000000000000048
40
0.66500000000000048
40
0.67000000000000048
40
0.67500000000000049
40
0.68000000000000049
40
0.6850000000000005
40
0.6900000000000005
40
0.69500000000000051
40
0.70000000000000051
40
0.70500000000000052
40
0.71000000000000052
40
0.71500000000000052
40
0.72000000000000053
40
0.72500000000000053
40
0.73000000000000054
40
0.73500000000000054
40
0.74000000000000055
40
0.74500000000000055
40
0.75000000000000056
40
0.75500000000000056
40
0.76000000000000056
40
0.76500000000000057
40
0.77000000000000057
40
0.77500000000000058
40
0.78000000000000058
40
0.78500000000000059
40
0.79000000000000059
40
0.7950000000000006
40
0.8000000000000006
40
0.8050000000000006
40
0.81000000000000061
40
0.81500000000000061
40
0.82000000000000062
40
0.82500000000000062
40
0.83000000000000063
40
0.83500000000000063
40
0.84000000000000064
40
0.84500000000000064
40
0.85000000000000064
40
0.85500000000000065
40
0.86000000000000065
40
0.86500000000000066
40
0.87000000000000066
40
0.87500000000000067
40
0.88000000000000067
40
0.88500000000000068
40
0.89000000000000068
40
0.89500000000000068
40
0.90000000000000069
40
0.90500000000000069
40
0.9100000000000007
40
0.9150000000000007
40
0.92000000000000071
40
0.92500000000000071
40
0.93000000000000071
40
0.93500000000000072
40
0.94000000000000072
40
0.94500000000000073
40
0.95000000000000073
40
0.95500000000000074
40
0.96000000000000074
40
0.96500000000000075
40
0.97000000000000075
40
0.97500000000000075
40
0.98000000000000076
40
0.98500000000000076
40
0.99000000000000077
40
0.99500000000000077
40
1
40
1
40
1
40
1
40
1
40
1
41
1
41
1
41
1
41
1
41
1
41
1
41
1
41
1
41
1
41
1
41
1
41
1
41
1
41
1
41
1
41
1
41
1
41
1
41
1
41
1
41
1
41
1
41
1
41
1
41
1
41
1
41
1
41
1
41
1
41
1
41
1
41
1
41
1
41
1
41
1
41
1
41
1
41
1
41
1
41
1
41
1
41
1
41
1
41
1
41
1
41
1
41
1
41
1
41
1
41
1
41
1
41
1
41
1
41
1
41
1
41
1
41
1
41
1
41
1
41
1
41
1
41
1
41
1
41
1
41
1
41
1
41
1
41
1
41
1
41
1
41
1
41
1
41
1
41
1
41
1
41
1
41
1
41
1
41
1
41
1
41
1
41
1
41
1
41
1
41
1
41
1
41
1
41
1
41
1
41
1
41
1
41
1
41
1
41
1
41
1
41
1
41
1
41
1
41
1
41
1
41
1
41
1
41
1
41
1
41
1
41
1
41
1
41
1
41
1
41
1
41
1
41
1
41
1
41
1
41
1
41
1
41
1
41
1
41
1
41
1
41
1
41
1
41
1
41
1
41
1
41
1
41
1
41
1
41
1
41
1
41
1
41
1
41
1
41
1
41
1
41
1
41
1
41
1
41
1
41
1
41
1
41
1
41
1
41
1
41
1
41
1
41
1
41
1
41
1
41
1
41
1
41
1
41
1
41
1
41
1
41
1
41
1
41
1
41
1
41
1
41
1
41
1
41
1
41
1
41
1
41
1
41
1
41
1
41
1
41
1
41
1
41
1
41
1
41
1
41
1
41
1
41
1
41
1
41
1
41
1
41
1
41
1
41
1
41
1
41
1
41
1
41
1
41
1
41
1
41
1
41
1
41
1
41
1
41
1
41
1
41
1
41
1
41
1
41
1
41
1
41
1
41
1
41
1
41
1
41
1
10
0
20
2
30
0
10
0.0097680794232530149
20
1.9945013416409045
30
0
10
0.029322344616760872
20
1.9834555505223685
30
0
10
0.058708063027940051
20
1.9667414561225969
30
0
10
0.097997652868088855
20
1.9441650353748114
30
0
10
0.14730285132530965
20
1.9156033654936733
30
0
10
0.19683743670195039
20
1.8871295634206957
30
0
10
0.24667418055543933
20
1.8596061907356018
30
0
10
0.296933374753444
20
1.8344615042998991
30
0
10
0.347798160470698
20
1.8138646453621377
30
0
10
0.39944226339712013
20
1.8000574243903809
30
0
10
0.45195028077868987
20
1.7946183288308448
30
0
10
0.50524438822421458
20
1.7977794529911608
30
0
10
0.55899971618021294
20
1.8076553562511659
30
0
10
0.61258894510288409
20
1.8196961330990382
30
0
10
0.66528702794994143
20
1.8281772562669427
30
0
10
0.7164643197167363
20
1.8275766949696817
30
0
10
0.76576547595173916
20
1.8138932971112454
30
0
10
0.81333855769705921
20
1.7862307761911773
30
0
10
0.859898039396916
20
1.7474792568288535
30
0
10
0.90641051663132588
20
1.7029276549790131
30
0
10
0.953854332631069
20
1.6592926375499537
30
0
10
1.0029547618919676
20
1.6235866271096524
30
0
10
1.0539179232700877
20
1.6020434895522908
30
0
10
1.1061981189177397
20
1.5990523837443635
30
0
10
1.1588252651981163
20
1.6168039869379545
30
0
10
1.2107072474377143
20
1.6548547121499184
30
0
10
1.2609264435631082
20
1.7097945198794926
30
0
10
1.3090746394365844
20
1.7746998923657951
30
0
10
1.3554616070350543
20
1.8392014909454373
30
0
10
1.4008071992158222
20
1.892038111295701
30
0
10
1.4460150544825359
20
1.9231909528229243
30
0
10
1.4919064346972963
20
1.9262797577806521
30
0
10
1.5389895218874323
20
1.9006220595916146
30
0
10
1.587164993114238
20
1.8540298728434506
30
0
10
1.6358945815230184
20
1.7999910201982741
30
0
10
1.6844488117348968
20
1.7539042153756614
30
0
10
1.7321387250725433
20
1.7294585163794227
30
0
10
1.7785285003236651
20
1.7353679115796945
30
0
10
1.823720920540473
20
1.770912176422387
30
0
10
1.8683096333893636
20
1.8268523286094176
30
0
10
1.9131242141846463
20
1.8896775354727404
30
0
10
1.9590343609331011
20
1.944903911552587
30
0
10
2.0067376612740437
20
1.9806313119916252
30
0
10
2.0565354294212383
20
1.9913062668932182
30
0
10
2.1081693866368707
20
1.9804660488526635
30
0
10
2.161051401392919
20
1.9569250585286166
30
0
10
2.2144549478748567
20
1.9315972200019784
30
0
10
2.2677071494145205
20
1.9143142054661042
30
0
10
2.3204142416474078
20
1.910072856306142
30
0
10
2.3725611498937531
20
1.9174238897393816
30
0
10
2.4243451998994652
20
1.9313743056218802
30
0
10
2.476060049535854
20
1.9454440713374208
30
0
10
2.5279716678770283
20
1.9538406255136966
30
0
10
2.5801680776057094
20
1.9541215157390583
30
0
10
2.6325434064559667
20
1.9474139865106941
30
0
10
2.6848990103792998
20
1.9365218399269393
30
0
10
2.7370142161898725
20
1.9245642684630715
30
0
10
2.7887229309116037
20
1.9135507423254956
30
0
10
2.8400046380140247
20
1.9025885211193549
30
0
10
2.8909601165635372
20
1.8887854998400964
30
0
10
2.9417489300467281
20
1.8690170198345553
30
0
10
2.9925385355645151
20
1.841466398811481
30
0
10
3.0434512424118005
20
1.8071186934847339
30
0
10
3.0945049560058013
20
1.7716474619471994
30
0
10
3.1456297502867283
20
1.7433332063658724
30
0
10
3.1966970765509393
20
1.7303566495045666
30
0
10
3.2475445158812026
20
1.7382760242663056
30
0
10
3.2980023507902523
20
1.7675090000972431
30
0
10
3.3479195044451968
20
1.8105895883550513
30
0
10
3.3971835421038739
20
1.8554110226686786
30
0
10
3.4457396693029478
20
1.888712946427562
30
0
10
3.4936111782235217
20
1.8995806036306506
30
0
10
3.5409168632685732
20
1.8827063620480999
30
0
10
3.5878961561472633
20
1.8423681733418391
30
0
10
3.634863287960139
20
1.7895633418488042
30
0
10
3.6821524144015867
20
1.7382256721752802
30
0
10
3.7300632824405784
20
1.7015841388999084
30
0
10
3.7788126441405923
20
1.6888736922124405
30
0
10
3.8284682795547891
20
1.7008676788567807
30
0
10
3.8789577980397167
20
1.7305475795242398
30
0
10
3.9301267799951658
20
1.7671580026107172
30
0
10
3.9817842071829928
20
1.7994108179525981
30
0
10
4.0337487137444237
20
1.8186898005902865
30
0
10
4.0859055701449716
20
1.8231348781989953
30
0
10
4.1382032747444679
20
1.8169222455358698
30
0
10
4.1906180795197141
20
1.8070027620817244
30
0
10
4.2431276767375588
20
1.800570002416944
30
0
10
4.2956830779044157
20
1.8023746808415249
30
0
10
4.3481759897787642
20
1.811710518301449
30
0
10
4.4004684153850882
20
1.8240297405580446
30
0
10
4.452431793163953
20
1.8332575435328922
30
0
10
4.5039819369363299
20
1.8338209204916622
30
0
10
4.5551175964688806
20
1.8228812816898543
30
0
10
4.605952251029156
20
1.8022434581144862
30
0
10
4.6566655852310346
20
1.7766175758924809
30
0
10
4.7074591614637917
20
1.7520756174483085
30
0
10
4.7585119458283156
20
1.7344862121264595
30
0
10
4.8099325505187345
20
1.7278390558438905
30
0
10
4.8617228708862932
20
1.7329726287425893
30
0
10
4.9138048428052885
20
1.7485068454515049
30
0
10
4.9660387732272939
20
1.7715121834881868
30
0
10
5.0182459281432914
20
1.7982516302352773
30
0
10
5.070226929572681
20
1.8249606686469346
30
0
10
5.1217896262643929
20
1.8483774208063688
30
0
10
5.1727901872316107
20
1.8657478856981027
30
0
10
5.2231756292164224
20
1.8749445527068607
30
0
10
5.2730167440032734
20
1.8745442123680689
30
0
10
5.3225670273593515
20
1.8639123329376885
30
0
10
5.372228900525144
20
1.8433216023353167
30
0
10
5.4224163418045999
20
1.8140930474624415
30
0
10
5.4734358875141957
20
1.7787739483624621
30
0
10
5.5253783975457473
20
1.741207551494067
30
0
10
5.5779616687508158
20
1.7068770755454965
30
0
10
5.6305667097403518
20
1.6822550293778293
30
0
10
5.6824712821823633
20
1.6731901286529971
30
0
10
5.7330409088590981
20
1.6834465051698162
30
0
10
5.7819143351304678
20
1.7134110583657771
30
0
10
5.8292487700788653
20
1.7581515560148409
30
0
10
5.8756524434493675
20
1.8086276078215155
30
0
10
5.9219530232933772
20
1.8545029283017334
30
0
10
5.9690102798228342
20
1.8865849966087589
30
0
10
6.017526046518757
20
1.8991385641528216
30
0
10
6.0678175607659846
20
1.8929311306535244
30
0
10
6.1197356013269255
20
1.8756581784371567
30
0
10
6.1728452170439985
20
1.8577878539288952
30
0
10
6.2265522846674193
20
1.849227056047261
30
0
10
6.2802413075174783
20
1.8560987358515415
30
0
10
6.333434226091561
20
1.8763862485391158
30
0
10
6.3858290417744668
20
1.9007177091623804
30
0
10
6.4372420691854702
20
1.9170716281921441
30
0
10
6.4875766818390987
20
1.914518162661349
30
0
10
6.5367848613969768
20
1.8869702093024685
30
0
10
6.5848223983842082
20
1.8379196762959391
30
0
10
6.631666484656856
20
1.7784601361884738
30
0
10
6.6773538151151861
20
1.7231243519399788
30
0
10
6.7220145340428399
20
1.6863109547248192
30
0
10
6.7659018485810787
20
1.6787768725321124
30
0
10
6.809438243332476
20
1.7033468875256776
30
0
10
6.853204182741031
20
1.7535375090286021
30
0
10
6.8978193802609153
20
1.8176560305000926
30
0
10
6.9438495548087342
20
1.8816386679184494
30
0
10
6.9916994618595174
20
1.9324849975526317
30
0
10
7.0415198790024078
20
1.9612269791594716
30
0
10
7.093087163875623
20
1.9666539216743404
30
0
10
7.145898358604267
20
1.9534198870264672
30
0
10
7.1993043653937914
20
1.929167814738143
30
0
10
7.2526290643257365
20
1.9020205962971206
30
0
10
7.305296114772224
20
1.8778613310388705
30
0
10
7.3569474317741825
20
1.8578629528165516
30
0
10
7.4074256034428521
20
1.8401583887969104
30
0
10
7.4567619287100122
20
1.8213735629280345
30
0
10
7.5051612131415677
20
1.7981768474503501
30
0
10
7.552990724416393
20
1.7689008093340082
30
0
10
7.600759427825869
20
1.7349040368082571
30
0
10
7.6490090902020658
20
1.6994002706812106
30
0
10
7.6982129066805181
20
1.6665014165757022
30
0
10
7.7486707532952179
20
1.6401756206113243
30
0
10
7.8004070084544104
20
1.6232493972206121
30
0
10
7.8530639402217828
20
1.6163684103824489
30
0
10
7.9060557641899001
20
1.6186665371143127
30
0
10
7.9587310051249025
20
1.6284816270963578
30
0
10
8.0105246678172417
20
1.6440181054892997
30
0
10
8.0611313079722233
20
1.6641157287456851
30
0
10
8.110618928286577
20
1.6887197021174749
30
0
10
8.159293146524794
20
1.7181063816406714
30
0
10
8.2075960380984316
20
1.7522705878805154
30
0
10
8.2559938391251908
20
1.7902843608625689
30
0
10
8.3048639034492275
20
1.8295871728849142
30
0
10
8.3543980237026485
20
1.8655390939882066
30
0
10
8.4046487421514495
20
1.8929834932109744
30
0
10
8.4555615252763765
20
1.9076481785426074
30
0
10
8.5070118874556471
20
1.90753383192185
30
0
10
8.5588415084844538
20
1.894482774349624
30
0
10
8.6108914931907261
20
1.8751635000446458
30
0
10
8.663008590542109
20
1.8582320168644344
30
0
10
8.7150547131780538
20
1.8517742232873347
30
0
10
8.7669145740199657
20
1.8608963259965434
30
0
10
8.8185055664453156
20
1.8846446746549561
30
0
10
8.8697819277882459
20
1.9152100466156501
30
0
10
8.9207272179702652
20
1.9419514855349007
30
0
10
8.9713491458074675
20
1.9545978789915481
30
0
10
9.0216735675313569
20
1.9464040676758998
30
0
10
9.0717385928135883
20
1.9182282285087617
30
0
10
9.121589560186127
20
1.8789462167341984
30
0
10
9.1712755228811265
20
1.8409377959273634
30
0
10
9.2208453065110128
20
1.8166303713389009
30
0
10
9.2703438295021847
20
1.8149802573038256
30
0
10
9.3198080965474972
20
1.8370962674120834
30
0
10
9.3692641146886189
20
1.8753799048954995
30
0
10
9.4187252564904504
20
1.917880165452428
30
0
10
9.4681900776456231
20
1.9515058516975434
30
0
10
9.5176407773788831
20
1.9654384965539791
30
0
10
9.567040361830605
20
1.9550863420260747
30
0
10
9.6163338139237382
20
1.9236797404994528
30
0
10
9.6654565027794419
20
1.8793087871407821
30
0
10
9.7143411759187579
20
1.832924720414606
30
0
10
9.7629251515732332
20
1.7960545955869334
30
0
10
9.8111582983760588
20
1.7784020491462103
30
0
10
9.85900791437302
20
1.7862466786394595
30
0
10
9.9064541831456623
20
1.8234184795563202
30
0
10
9.944080698532856
20
1.8781268503589685
30
0
10
9.9721132120136833
20
1.9334904215892423
30
0
10
9.990718282684945
20
1.9767685989359935
30
0
10
10
20
2
30
0
0
ENDSEC
0
SECTION
2
OBJECTS
0
DICTIONARY
5
C
100
AcDbDictionary
3
ACAD_GROUP
350
D
3
ACAD_MLINESTYLE
350
17
0
DICTIONARY
5
D
100
AcDbDictionary
0
DICTIONARY
5
1A
330
C
100
AcDbDictionary
0
DICTIONARY
5
17
100
AcDbDictionary
0
ENDSEC
0
EOF
