0
SECTION
2
HEADER
9
$INSUNITS
70
4
9
$ACADVER
1
AC1014
9
$HANDSEED
5
FFFF
0
ENDSEC
0
SECTION
2
TABLES
0
TABLE
2
VPORT
5
8
100
AcDbSymbolTable
0
ENDTAB
0
TABLE
2
LTYPE
5
5
100
AcDbSymbolTable
0
LTYPE
5
14
100
AcDbSymbolTableRecord
100
AcDbLinetypeTableRecord
2
BYBLOCK
70
0
0
LTYPE
5
15
100
AcDbSymbolTableRecord
100
AcDbLinetypeTableRecord
2
BYLAYER
70
0
0
ENDTAB
0
TABLE
2
LAYER
5
2
100
AcDbSymbolTable
70
2
0
LAYER
5
50
100
AcDbSymbolTableRecord
100
AcDbLayerTableRecord
2
0
70
0
6
CONTINUOUS
0
ENDTAB
0
TABLE
2
STYLE
5
3
100
AcDbSymbolTable
70
1
0
STYLE
5
11
100
AcDbSymbolTableRecord
100
AcDbTextStyleTableRecord
2
STANDARD
70
0
0
ENDTAB
0
TABLE
2
VIEW
5
6
100
AcDbSymbolTable
70
0
0
ENDTAB
0
TABLE
2
UCS
5
7
100
AcDbSymbolTable
70
0
0
ENDTAB
0
TABLE
2
APPID
5
9
100
AcDbSymbolTable
70
2
0
APPID
5
12
100
AcDbSymbolTableRecord
100
AcDbRegAppTableRecord
2
ACAD
70
0
0
ENDTAB
0
TABLE
2
DIMSTYLE
5
A
100
AcDbSymbolTable
70
1
0
ENDTAB
0
TABLE
2
BLOCK_RECORD
5
1
100
AcDbSymbolTable
70
1
0
BLOCK_RECORD
5
1F
100
AcDbSymbolTableRecord
100
AcDbBlockTableRecord
2
*MODEL_SPACE
0
BLOCK_RECORD
5
1B
100
AcDbSymbolTableRecord
100
AcDbBlockTableRecord
2
*PAPER_SPACE
0
ENDTAB
0
ENDSEC
0
SECTION
2
BLOCKS
0
BLOCK
5
20
100
AcDbEntity
100
AcDbBlockBegin
2
*MODEL_SPACE
0
ENDBLK
5
21
100
AcDbEntity
100
AcDbBlockEnd
0
BLOCK
5
1C
100
AcDbEntity
100
AcDbBlockBegin
2
*PAPER_SPACE
0
ENDBLK
5
1D
100
AcDbEntity
100
AcDbBlockEnd
0
ENDSEC
0
SECTION
2
ENTITIES
0
SPLINE
5
100
100
AcDbEntity
8
0
100
AcDbSpline
70
4
71
5
72
16
73
10
74
0
42
0.000000001
43
0.0000000001
44
0.0000000001
40
0
40
0
40
0
40
0
40
0
40
0
40
0.20000000000000001
40
0.40000000000000002
40
0.60000000000000009
40
0.80000000000000004
40
1
40
1
40
1
40
1
40
1
40
1
41
1
41
1
41
1
41
1
41
1
41
1
41
1
41
1
41
1
41
1
10
0
20
0
30
0
10
0
20
0.080000000000033267
30
0
10
0
20
0.24000000000008476
30
0
10
0
20
0.48000000000011728
30
0
10
0
20
0.80000000000008786
30
0
10
0
20
1.2000000000000053
30
0
10
0
20
1.5199999999999583
30
0
10
0
20
1.7599999999999643
30
0
10
0
20
1.9199999999999853
30
0
10
0
20
2
30
0
0
SPLINE
5
101
100
AcDbEntity
8
0
100
AcDbSpline
70
4
71
5
72
16
73
10
74
0
42
0.000000001
43
0.0000000001
44
0.0000000001
40
0
40
0
40
0
40
0
40
0
40
0
40
0.20000000000000001
40
0.40000000000000002
40
0.60000000000000009
40
0.80000000000000004
40
1
40
1
40
1
40
1
40
1
40
1
41
1
41
1
41
1
41
1
41
1
41
1
41
1
41
1
41
1
41
1
10
10
20
0
30
0
10
9.9999999999997495
20
0.080000000000033267
30
0
10
9.9999999999993197
20
0.24000000000008476
30
0
10
9.9999999999989129
20
0.48000000000011728
30
0
10
9.9999999999987672
20
0.80000000000008786
30
0
10
9.9999999999990248
20
1.2000000000000053
30
0
10
9.9999999999993889
20
1.5199999999999583
30
0
10
9.9999999999996998
20
1.7599999999999643
30
0
10
9.9999999999999005
20
1.9199999999999853
30
0
10
10
20
2
30
0
0
SPLINE
5
102
100
AcDbEntity
8
0
100
AcDbSpline
70
4
71
5
72
16
73
10
74
0
42
0.000000001
43
0.0000000001
44
0.0000000001
40
0
40
0
40
0
40
0
40
0
40
0
40
0.20000000000000001
40
0.40000000000000002
40
0.60000000000000009
40
0.80000000000000004
40
1
40
1
40
1
40
1
40
1
40
1
41
1
41
1
41
1
41
1
41
1
41
1
41
1
41
1
41
1
41
1
10
0
20
1
30
0
10
0.40000000000047375
20
0.99999999999987343
30
0
10
1.2000000000012774
20
0.99999999999965183
30
0
10
2.4000000000020547
20
0.99999999999941747
30
0
10
4.0000000000023546
20
0.99999999999928091
30
0
10
6.0000000000019584
20
0.99999999999933376
30
0
10
7.6000000000012928
20
0.99999999999951594
30
0
10
8.800000000000697
20
0.99999999999972888
30
0
10
9.6000000000002395
20
0.99999999999990408
30
0
10
10
20
1
30
0
0
SPLINE
5
103
100
AcDbEntity
8
0
100
AcDbSpline
70
4
71
5
72
161
73
155
74
0
42
0.000000001
43
0.0000000001
44
0.0000000001
40
0
40
0
40
0
40
0
40
0
40
0
40
0.0066666666666666671
40
0.013333333333333334
40
0.02
40
0.026666666666666668
40
0.033333333333333333
40
0.040000000000000001
40
0.046666666666666669
40
0.053333333333333337
40
0.060000000000000005
40
0.066666666666666666
40
0.073333333333333334
40
0.080000000000000002
40
0.08666666666666667
40
0.093333333333333338
40
0.10000000000000001
40
0.10666666666666667
40
0.11333333333333334
40
0.12000000000000001
40
0.12666666666666668
40
0.13333333333333333
40
0.13999999999999999
40
0.14666666666666664
40
0.15333333333333329
40
0.15999999999999995
40
0.1666666666666666
40
0.17333333333333326
40
0.17999999999999991
40
0.18666666666666656
40
0.19333333333333322
40
0.19999999999999987
40
0.20666666666666653
40
0.21333333333333318
40
0.21999999999999983
40
0.22666666666666649
40
0.23333333333333314
40
0.2399999999999998
40
0.24666666666666645
40
0.25333333333333313
40
0.25999999999999979
40
0.26666666666666644
40
0.2733333333333331
40
0.27999999999999975
40
0.2866666666666664
40
0.29333333333333306
40
0.29999999999999971
40
0.30666666666666637
40
0.31333333333333302
40
0.31999999999999967
40
0.32666666666666633
40
0.33333333333333298
40
0.33999999999999964
40
0.34666666666666629
40
0.35333333333333294
40
0.3599999999999996
40
0.36666666666666625
40
0.37333333333333291
40
0.37999999999999956
40
0.38666666666666621
40
0.39333333333333287
40
0.39999999999999952
40
0.40666666666666618
40
0.41333333333333283
40
0.41999999999999948
40
0.42666666666666614
40
0.43333333333333279
40
0.43999999999999945
40
0.4466666666666661
40
0.45333333333333276
40
0.45999999999999941
40
0.46666666666666606
40
0.47333333333333272
40
0.47999999999999937
40
0.48666666666666603
40
0.49333333333333268
40
0.49999999999999933
40
0.50666666666666604
40
0.51333333333333275
40
0.51999999999999946
40
0.52666666666666617
40
0.53333333333333288
40
0.53999999999999959
40
0.5466666666666663
40
0.55333333333333301
40
0.55999999999999972
40
0.56666666666666643
40
0.57333333333333314
40
0.57999999999999985
40
0.58666666666666656
40
0.59333333333333327
40
0.59999999999999998
40
0.60666666666666669
40
0.6133333333333334
40
0.62000000000000011
40
0.62666666666666682
40
0.63333333333333353
40
0.64000000000000024
40
0.64666666666666694
40
0.65333333333333365
40
0.66000000000000036
40
0.66666666666666707
40
0.67333333333333378
40
0.68000000000000049
40
0.6866666666666672
40
0.69333333333333391
40
0.70000000000000062
40
0.70666666666666733
40
0.71333333333333404
40
0.72000000000000075
40
0.72666666666666746
40
0.73333333333333417
40
0.74000000000000088
40
0.74666666666666759
40
0.7533333333333343
40
0.76000000000000101
40
0.76666666666666772
40
0.77333333333333443
40
0.78000000000000114
40
0.78666666666666785
40
0.79333333333333456
40
0.80000000000000127
40
0.80666666666666798
40
0.81333333333333468
40
0.82000000000000139
40
0.8266666666666681
40
0.83333333333333481
40
0.84000000000000152
40
0.84666666666666823
40
0.85333333333333494
40
0.86000000000000165
40
0.86666666666666836
40
0.87333333333333507
40
0.88000000000000178
40
0.88666666666666849
40
0.8933333333333352
40
0.90000000000000191
40
0.90666666666666862
40
0.91333333333333533
40
0.92000000000000204
40
0.92666666666666875
40
0.93333333333333546
40
0.94000000000000217
40
0.94666666666666888
40
0.95333333333333559
40
0.9600000000000023
40
0.96666666666666901
40
0.97333333333333572
40
0.98000000000000242
40
0.98666666666666913
40
0.99333333333333584
40
1
40
1
40
1
40
1
40
1
40
1
41
1
41
1
41
1
41
1
41
1
41
1
41
1
41
1
41
1
41
1
41
1
41
1
41
1
41
1
41
1
41
1
41
1
41
1
41
1
41
1
41
1
41
1
41
1
41
1
41
1
41
1
41
1
41
1
41
1
41
1
41
1
41
1
41
1
41
1
41
1
41
1
41
1
41
1
41
1
41
1
41
1
41
1
41
1
41
1
41
1
41
1
41
1
41
1
41
1
41
1
41
1
41
1
41
1
41
1
41
1
41
1
41
1
41
1
41
1
41
1
41
1
41
1
41
1
41
1
41
1
41
1
41
1
41
1
41
1
41
1
41
1
41
1
41
1
41
1
41
1
41
1
41
1
41
1
41
1
41
1
41
1
41
1
41
1
41
1
41
1
41
1
41
1
41
1
41
1
41
1
41
1
41
1
41
1
41
1
41
1
41
1
41
1
41
1
41
1
41
1
41
1
41
1
41
1
41
1
41
1
41
1
41
1
41
1
41
1
41
1
41
1
41
1
41
1
41
1
41
1
41
1
41
1
41
1
41
1
41
1
41
1
41
1
41
1
41
1
41
1
41
1
41
1
41
1
41
1
41
1
41
1
41
1
41
1
41
1
41
1
41
1
41
1
41
1
41
1
41
1
41
1
41
1
41
1
41
1
41
1
41
1
41
1
41
1
41
1
41
1
41
1
41
1
41
1
41
1
41
1
10
0
20
0
30
0
10
0.015826027823544472
20
-0.0031391261415544824
30
0
10
0.047048668446764731
20
-0.008026714909391745
30
0
10
0.092594357933060298
20
-0.011186088085198064
30
0
10
0.15074544325964884
20
-0.0070541304150733928
30
0
10
0.21924110366321253
20
0.011827250879493087
30
0
10
0.2838526303117041
20
0.043842872320612868
30
0
10
0.34519210961375046
20
0.087829212091161249
30
0
10
0.40429765288204905
20
0.14183059110619514
30
0
10
0.46267544940774508
20
0.20294664304359086
30
0
10
0.52195445155973985
20
0.26742952746210957
30
0
10
0.5836023997050388
20
0.33076233826446966
30
0
10
0.64860028611625409
20
0.38771295203121747
30
0
10
0.71717512614715551
20
0.43247097486731212
30
0
10
0.7884026288057665
20
0.45856131536454581
30
0
10
0.86053743529376125
20
0.4600522519455566
30
0
10
0.93157871106015766
20
0.43317993381048658
30
0
10
0.99975980773977069
20
0.37784892790116659
30
0
10
1.0640648084874014
20
0.29915478197230222
30
0
10
1.1247468661036795
20
0.20898000941823813
30
0
10
1.1829494538646119
20
0.12266278245384619
30
0
10
1.2403173147096975
20
0.05568446168098664
30
0
10
1.2985976204627037
20
0.020146728063542521
30
0
10
1.3592769521793346
20
0.021800170008592308
30
0
10
1.423125616346999
20
0.055703931446084466
30
0
10
1.4900640479833842
20
0.10658154337222321
30
0
10
1.5594536961117433
20
0.15517821639794471
30
0
10
1.6302858689428783
20
0.18341535800130437
30
0
10
1.7014034905765669
20
0.17939945052375489
30
0
10
1.7717290360851337
20
0.14403767834135706
30
0
10
1.8404098135805713
20
0.090992166002439048
30
0
10
1.9068592082775058
20
0.039652875491097909
30
0
10
1.9708339600895208
20
0.0097096409008577862
30
0
10
2.032480234585134
20
0.015673296636243807
30
0
10
2.0924338287952313
20
0.05994130211296235
30
0
10
2.1517319438336964
20
0.13249295928669111
30
0
10
2.2115577758256837
20
0.21677859681653786
30
0
10
2.2730295579523938
20
0.29391008261456747
30
0
10
2.3369755897061948
20
0.34747246411385219
30
0
10
2.403705347811858
20
0.36824440253400414
30
0
10
2.4728098898939073
20
0.35846743339177872
30
0
10
2.5434441407090573
20
0.32748832454317744
30
0
10
2.6145896327157758
20
0.28777833858727714
30
0
10
2.6853090855229689
20
0.25105542416017429
30
0
10
2.7550408820736494
20
0.22378650232129818
30
0
10
2.8237619431807208
20
0.2047658983710883
30
0
10
2.8917624183432289
20
0.18881095772959761
30
0
10
2.9594815982892593
20
0.16951460291188811
30
0
10
3.0273357247005843
20
0.14207123778143291
30
0
10
3.0955108376298455
20
0.10678791801751011
30
0
10
3.1639060159218642
20
0.069777169569398917
30
0
10
3.2323055306198789
20
0.039380672329085875
30
0
10
3.3005057842481178
20
0.023444129045022126
30
0
10
3.3684396041243576
20
0.026618703251360398
30
0
10
3.436352803122757
20
0.04674465307152504
30
0
10
3.5047539766486535
20
0.075261456646690733
30
0
10
3.5741575088823359
20
0.10135817736630731
30
0
10
3.6448686424504833
20
0.11526417743004615
30
0
10
3.7167848300415955
20
0.11150020533436127
30
0
10
3.7891051348037745
20
0.093138692085665054
30
0
10
3.8605562642672711
20
0.070049055646866781
30
0
10
3.9298314218018895
20
0.054621112810495961
30
0
10
3.9959682033988781
20
0.058249580613418526
30
0
10
4.0587342061649458
20
0.087628790808945894
30
0
10
4.119056857027001
20
0.14078691224059559
30
0
10
4.1785865716566271
20
0.20945707700125107
30
0
10
4.2392074044294272
20
0.28189709196363089
30
0
10
4.3025384689974482
20
0.34565196959333294
30
0
10
4.3695037055968742
20
0.39009555059010109
30
0
10
4.4397123352193333
20
0.40967382776570721
30
0
10
4.5115902245457669
20
0.40429674733287763
30
0
10
4.583113599448037
20
0.37739394686798494
30
0
10
4.6523964428470279
20
0.33460104882291575
30
0
10
4.7182816921548163
20
0.28226887079614349
30
0
10
4.7810755894728283
20
0.22584023210113086
30
0
10
4.842203158418485
20
0.16975761533050723
30
0
10
4.9035755321808665
20
0.11781067338171183
30
0
10
4.9670251559652101
20
0.073360935926268148
30
0
10
5.0337799885009558
20
0.03955542666557281
30
0
10
5.1037548742982164
20
0.019698536257557943
30
0
10
5.1755847235512338
20
0.016946217383220226
30
0
10
5.2473568045126555
20
0.033379679936798648
30
0
10
5.3171747402304392
20
0.069191638263509436
30
0
10
5.3837376596876227
20
0.12195418302149558
30
0
10
5.4470501243361182
20
0.18552375652663372
30
0
10
5.5081883329572552
20
0.25120773710315547
30
0
10
5.5687674561317566
20
0.30961025877131476
30
0
10
5.6304888503858006
20
0.35233613640122519
30
0
10
5.6946994008729259
20
0.37356442815836383
30
0
10
5.7618346887216862
20
0.37214144692580353
30
0
10
5.8313198759761136
20
0.351750241432493
30
0
10
5.9020562288547271
20
0.31865382249716023
30
0
10
5.9727763042930038
20
0.27996806451123091
30
0
10
6.0424155787782743
20
0.24190163745868992
30
0
10
6.110568421578729
20
0.20755921555133017
30
0
10
6.1774855635729899
20
0.17701259097577188
30
0
10
6.2437747690097591
20
0.14881891321924687
30
0
10
6.3101821968505742
20
0.12116474913340121
30
0
10
6.3773612124729677
20
0.0930219892744579
30
0
10
6.4455943731545053
20
0.065657318893427977
30
0
10
6.5148022627331956
20
0.042163878652922461
30
0
10
6.5847020096591189
20
0.025991099491938036
30
0
10
6.6549215401486697
20
0.019740669053854919
30
0
10
6.7251254303315156
20
0.023962346132440356
30
0
10
6.7951534582218196
20
0.035659854451535147
30
0
10
6.8649922664862606
20
0.049575510300402303
30
0
10
6.9347131109778983
20
0.060028600626558126
30
0
10
7.0044221786262213
20
0.062528980920849006
30
0
10
7.0742041967734934
20
0.05555682749868382
30
0
10
7.1440729604751851
20
0.042072205030028079
30
0
10
7.2139959326276362
20
0.027478699151428178
30
0
10
7.2839158411387679
20
0.017697950125121854
30
0
10
7.3537721854236473
20
0.017348076250881677
30
0
10
7.4235255944067049
20
0.027535950859159844
30
0
10
7.4931718859019369
20
0.044912160010366325
30
0
10
7.5627294430585241
20
0.063877920231674282
30
0
10
7.63223169389983
20
0.078261593835685081
30
0
10
7.7017176482243261
20
0.083046886061898362
30
0
10
7.7712230741409725
20
0.076465278878354581
30
0
10
7.8407721840522804
20
0.060399630067701625
30
0
10
7.9103704654999527
20
0.039070421218390931
30
0
10
7.9799970006221743
20
0.018188869088814747
30
0
10
8.0495973600681072
20
0.0039296012630891412
30
0
10
8.1190752896143721
20
0.0019549389396961063
30
0
10
8.1882908010675077
20
0.01657967856137308
30
0
10
8.257061437193288
20
0.050043396249643483
30
0
10
8.3251612512198907
20
0.10170376902191176
30
0
10
8.3923235155672753
20
0.16735616167164166
30
0
10
8.4582345175086981
20
0.23825021754143588
30
0
10
8.5226119716930864
20
0.30308207484729943
30
0
10
8.5852904724660224
20
0.35031519497063063
30
0
10
8.6463120613512459
20
0.37049859670752328
30
0
10
8.7059975423663545
20
0.35832866425810067
30
0
10
8.7650693917343876
20
0.31547293865479997
30
0
10
8.8245327879133768
20
0.24974731433859138
30
0
10
8.8854378873370976
20
0.17245919697838513
30
0
10
8.9486723233141134
20
0.096284119024961423
30
0
10
9.0147565720813709
20
0.033014844232626378
30
0
10
9.0836011949157438
20
-0.0088574071520208606
30
0
10
9.1543936601489939
20
-0.025801463802058715
30
0
10
9.2259410575216982
20
-0.018049780860025927
30
0
10
9.2969515209514775
20
0.011144209209952686
30
0
10
9.3663141404281713
20
0.056405135908096156
30
0
10
9.4334412958351059
20
0.11111811284121302
30
0
10
9.4983490855009691
20
0.16812239183156721
30
0
10
9.5614372958758924
20
0.22013073839050784
30
0
10
9.6233450112854957
20
0.26023695974394068
30
0
10
9.6847832631204369
20
0.28235728584967318
30
0
10
9.7463589524337131
20
0.28177238025913381
30
0
10
9.8084627058547778
20
0.25539308062070631
30
0
10
9.8713336036877735
20
0.20135300173168419
30
0
10
9.9223380168292135
20
0.13525525481853196
30
0
10
9.9610072895752424
20
0.072682485291200749
30
0
10
9.9869716249926572
20
0.025190329908264301
30
0
10
10
20
0
30
0
0
SPLINE
5
104
100
AcDbEntity
8
0
100
AcDbSpline
70
4
71
5
72
161
73
155
74
0
42
0.000000001
43
0.0000000001
44
0.0000000001
40
0
40
0
40
0
40
0
40
0
40
0
40
0.0066666666666666671
40
0.013333333333333334
40
0.02
40
0.026666666666666668
40
0.033333333333333333
40
0.040000000000000001
40
0.046666666666666669
40
0.053333333333333337
40
0.060000000000000005
40
0.066666666666666666
40
0.073333333333333334
40
0.080000000000000002
40
0.08666666666666667
40
0.093333333333333338
40
0.10000000000000001
40
0.10666666666666667
40
0.11333333333333334
40
0.12000000000000001
40
0.12666666666666668
40
0.13333333333333333
40
0.13999999999999999
40
0.14666666666666664
40
0.15333333333333329
40
0.15999999999999995
40
0.1666666666666666
40
0.17333333333333326
40
0.17999999999999991
40
0.18666666666666656
40
0.19333333333333322
40
0.19999999999999987
40
0.20666666666666653
40
0.21333333333333318
40
0.21999999999999983
40
0.22666666666666649
40
0.23333333333333314
40
0.2399999999999998
40
0.24666666666666645
40
0.25333333333333313
40
0.25999999999999979
40
0.26666666666666644
40
0.2733333333333331
40
0.27999999999999975
40
0.2866666666666664
40
0.29333333333333306
40
0.29999999999999971
40
0.30666666666666637
40
0.31333333333333302
40
0.31999999999999967
40
0.32666666666666633
40
0.33333333333333298
40
0.33999999999999964
40
0.34666666666666629
40
0.35333333333333294
40
0.3599999999999996
40
0.36666666666666625
40
0.37333333333333291
40
0.37999999999999956
40
0.38666666666666621
40
0.39333333333333287
40
0.39999999999999952
40
0.40666666666666618
40
0.41333333333333283
40
0.41999999999999948
40
0.42666666666666614
40
0.43333333333333279
40
0.43999999999999945
40
0.4466666666666661
40
0.45333333333333276
40
0.45999999999999941
40
0.46666666666666606
40
0.47333333333333272
40
0.47999999999999937
40
0.48666666666666603
40
0.49333333333333268
40
0.49999999999999933
40
0.50666666666666604
40
0.51333333333333275
40
0.51999999999999946
40
0.52666666666666617
40
0.53333333333333288
40
0.53999999999999959
40
0.5466666666666663
40
0.55333333333333301
40
0.55999999999999972
40
0.56666666666666643
40
0.57333333333333314
40
0.57999999999999985
40
0.58666666666666656
40
0.59333333333333327
40
0.59999999999999998
40
0.60666666666666669
40
0.6133333333333334
40
0.62000000000000011
40
0.62666666666666682
40
0.63333333333333353
40
0.64000000000000024
40
0.64666666666666694
40
0.65333333333333365
40
0.66000000000000036
40
0.66666666666666707
40
0.67333333333333378
40
0.68000000000000049
40
0.6866666666666672
40
0.69333333333333391
40
0.70000000000000062
40
0.70666666666666733
40
0.71333333333333404
40
0.72000000000000075
40
0.72666666666666746
40
0.73333333333333417
40
0.74000000000000088
40
0.74666666666666759
40
0.7533333333333343
40
0.76000000000000101
40
0.76666666666666772
40
0.77333333333333443
40
0.78000000000000114
40
0.78666666666666785
40
0.79333333333333456
40
0.80000000000000127
40
0.80666666666666798
40
0.81333333333333468
40
0.82000000000000139
40
0.8266666666666681
40
0.83333333333333481
40
0.84000000000000152
40
0.84666666666666823
40
0.85333333333333494
40
0.86000000000000165
40
0.86666666666666836
40
0.87333333333333507
40
0.88000000000000178
40
0.88666666666666849
40
0.8933333333333352
40
0.90000000000000191
40
0.90666666666666862
40
0.91333333333333533
40
0.92000000000000204
40
0.92666666666666875
40
0.93333333333333546
40
0.94000000000000217
40
0.94666666666666888
40
0.95333333333333559
40
0.9600000000000023
40
0.96666666666666901
40
0.97333333333333572
40
0.98000000000000242
40
0.98666666666666913
40
0.99333333333333584
40
1
40
1
40
1
40
1
40
1
40
1
41
1
41
1
41
1
41
1
41
1
41
1
41
1
41
1
41
1
41
1
41
1
41
1
41
1
41
1
41
1
41
1
41
1
41
1
41
1
41
1
41
1
41
1
41
1
41
1
41
1
41
1
41
1
41
1
41
1
41
1
41
1
41
1
41
1
41
1
41
1
41
1
41
1
41
1
41
1
41
1
41
1
41
1
41
1
41
1
41
1
41
1
41
1
41
1
41
1
41
1
41
1
41
1
41
1
41
1
41
1
41
1
41
1
41
1
41
1
41
1
41
1
41
1
41
1
41
1
41
1
41
1
41
1
41
1
41
1
41
1
41
1
41
1
41
1
41
1
41
1
41
1
41
1
41
1
41
1
41
1
41
1
41
1
41
1
41
1
41
1
41
1
41
1
41
1
41
1
41
1
41
1
41
1
41
1
41
1
41
1
41
1
41
1
41
1
41
1
41
1
41
1
41
1
41
1
41
1
41
1
41
1
41
1
41
1
41
1
41
1
41
1
41
1
41
1
41
1
41
1
41
1
41
1
41
1
41
1
41
1
41
1
41
1
41
1
41
1
41
1
41
1
41
1
41
1
41
1
41
1
41
1
41
1
41
1
41
1
41
1
41
1
41
1
41
1
41
1
41
1
41
1
41
1
41
1
41
1
41
1
41
1
41
1
41
1
41
1
41
1
41
1
41
1
41
1
41
1
41
1
10
0
20
2
30
0
10
0.013197541378084513
20
1.9859403014172163
30
0
10
0.039623726876178218
20
1.9596797036824292
30
0
10
0.079356313403999276
20
1.92586520884954
30
0
10
0.13251972503004536
20
1.8919327962002417
30
0
10
0.19928045483079182
20
1.8677489261899587
30
0
10
0.2663337527988684
20
1.860715024155275
30
0
10
0.33365173588861291
20
1.8686624258983646
30
0
10
0.40118780174828672
20
1.8879686412516652
30
0
10
0.46887203786712134
20
1.9131995753858515
30
0
10
0.53662722761544912
20
1.9381795769264172
30
0
10
0.6043849824579679
20
1.957066012099302
30
0
10
0.67210137848032769
20
1.9653991371172208
30
0
10
0.73977384951954817
20
1.9612160376003784
30
0
10
0.80745460727378426
20
1.9459863334945007
30
0
10
0.87522241234737996
20
1.9233577664969481
30
0
10
0.94315636506829459
20
1.8980268284984994
30
0
10
1.0113103797103278
20
1.8746011150927262
30
0
10
1.0796839878626354
20
1.856374842741034
30
0
10
1.1482046692635399
20
1.8444100036988487
30
0
10
1.2167700744263974
20
1.8382871247821364
30
0
10
1.2852848092948186
20
1.8366655089150565
30
0
10
1.3536951763107012
20
1.8378796274624194
30
0
10
1.4220346089039717
20
1.8406084056023284
30
0
10
1.4904330432489634
20
1.8442283667951473
30
0
10
1.5590404612702382
20
1.8483705913938149
30
0
10
1.6279625040271359
20
1.8526081145789386
30
0
10
1.6972010582248287
20
1.8561452736831221
30
0
10
1.7665690991649299
20
1.8573762617165337
30
0
10
1.8357028813690233
20
1.8539743600509411
30
0
10
1.9041958995668864
20
1.8436485029661434
30
0
10
1.9717088263136187
20
1.8247738503727304
30
0
10
2.0380746119543143
20
1.7969807741659605
30
0
10
2.1034417272474739
20
1.7619911674393496
30
0
10
2.1682443366981135
20
1.7233533892067185
30
0
10
2.2330455338220121
20
1.6853783990196267
30
0
10
2.2984121523548118
20
1.6522638107180638
30
0
10
2.3647889875867913
20
1.6272420931475085
30
0
10
2.4323429410185482
20
1.6114703993065942
30
0
10
2.5009360602309778
20
1.6039761432762243
30
0
10
2.5702439190140365
20
1.6027612266529938
30
0
10
2.6398378254522266
20
1.6056517729041053
30
0
10
2.7092765870450148
20
1.6111376630738876
30
0
10
2.7782070106256009
20
1.6194994698421254
30
0
10
2.846400088192873
20
1.6324952870729272
30
0
10
2.9137434485173475
20
1.6521748296205283
30
0
10
2.9802488768466646
20
1.6798950096701994
30
0
10
3.0460499933967302
20
1.7153939212520037
30
0
10
3.1114133940528892
20
1.7554804074266737
30
0
10
3.1766928404757073
20
1.7948872134807576
30
0
10
3.2422623491482705
20
1.8279793007416907
30
0
10
3.3084532127280957
20
1.8502871862608332
30
0
10
3.3754956985379536
20
1.8598862052372933
30
0
10
3.4434428769528025
20
1.8594113677971285
30
0
10
3.5121788602863857
20
1.8550602394404001
30
0
10
3.5814753859902941
20
1.8539250901462636
30
0
10
3.6510340774954542
20
1.8617257331757551
30
0
10
3.7205333268182712
20
1.880628918628013
30
0
10
3.7896765032436228
20
1.9063789068916495
30
0
10
3.8582157620491957
20
1.9303189029373979
30
0
10
3.9259679797298022
20
1.9427402117350034
30
0
10
3.9928340697379157
20
1.9358598033862198
30
0
10
4.0588154109380046
20
1.9067764098499946
30
0
10
4.124035509425557
20
1.8609076062965166
30
0
10
4.1887082139173195
20
1.8091819751486407
30
0
10
4.2531002786714041
20
1.7645648978082913
30
0
10
4.3174952090638952
20
1.7386853855880253
30
0
10
4.3821582613788408
20
1.738734095362604
30
0
10
4.4472965951404495
20
1.7634362687720948
30
0
10
4.5130507234632278
20
1.8047564243009941
30
0
10
4.5794961552719329
20
1.8513083075728196
30
0
10
4.6466407672054935
20
1.8913116118051267
30
0
10
4.7144258327841477
20
1.915472648423532
30
0
10
4.7827206564369593
20
1.9205727943855311
30
0
10
4.8513472702789864
20
1.9088845661885396
30
0
10
4.92011626641996
20
1.8859061205487611
30
0
10
4.9888601638016965
20
1.8586040406545299
30
0
10
5.0574652580216126
20
1.8335333519343642
30
0
10
5.1259108076304418
20
1.8147782740819485
30
0
10
5.1942429349416113
20
1.8041352609620065
30
0
10
5.2625366777482494
20
1.8017273271366823
30
0
10
5.3308618958314904
20
1.8064681748995515
30
0
10
5.3992482241517816
20
1.8165845603024224
30
0
10
5.4676485936125392
20
1.8301259495480384
30
0
10
5.5359762313208201
20
1.8449780820916903
30
0
10
5.6041449253895355
20
1.8588495872476087
30
0
10
5.6721068553419896
20
1.8692776780597455
30
0
10
5.7398942890692428
20
1.8736051409730181
30
0
10
5.8076516635068423
20
1.8690270045194466
30
0
10
5.8755556108000579
20
1.8533973759843811
30
0
10
5.9437397091271773
20
1.82602227808655
30
0
10
6.0122225696079852
20
1.7883876492381254
30
0
10
6.0808224913203093
20
1.7450801027773024
30
0
10
6.1491136025612514
20
1.70413507804105
30
0
10
6.2165827630577644
20
1.6746495400756098
30
0
10
6.2827639382779408
20
1.6646885060782182
30
0
10
6.3473732120918793
20
1.6792139383436759
30
0
10
6.4104626650893142
20
1.7176819046402678
30
0
10
6.472507710614873
20
1.772766654957971
30
0
10
6.5342246212005879
20
1.8336404909749173
30
0
10
6.5964302333461227
20
1.8885311405882488
30
0
10
6.6598829686333776
20
1.9276219449019369
30
0
10
6.7251369516479116
20
1.9456659111541175
30
0
10
6.7923766900661136
20
1.9451005050025973
30
0
10
6.8614609321648103
20
1.9333987637157182
30
0
10
6.9319864486466845
20
1.9198348342689429
30
0
10
7.0033452447085596
20
1.9124964701573091
30
0
10
7.074783088901075
20
1.9151078981730485
30
0
10
7.1454611591481356
20
1.9241710302341088
30
0
10
7.214595286356805
20
1.9320478276895756
30
0
10
7.2815966151706322
20
1.9298775775074464
30
0
10
7.3462023717593894
20
1.9104196936750453
30
0
10
7.4086329306140986
20
1.8712450763114139
30
0
10
7.4696709628578457
20
1.816819468902541
30
0
10
7.53038790718192
20
1.7555375474188637
30
0
10
7.5919237305577481
20
1.6975021213542305
30
0
10
7.6552380960972313
20
1.6519407660072536
30
0
10
7.720891867277528
20
1.6249453659286943
30
0
10
7.7887676684721265
20
1.6166292935795759
30
0
10
7.8582510901336553
20
1.6225604749780467
30
0
10
7.9284970388712175
20
1.6359810991523553
30
0
10
7.998667479512295
20
1.6497613688874075
30
0
10
8.0681788957273675
20
1.6584479468987099
30
0
10
8.1369519680955005
20
1.660318096530943
30
0
10
8.2052339056439862
20
1.6564787113439874
30
0
10
8.2734082862754441
20
1.6498916633727956
30
0
10
8.341815577156602
20
1.6444396427909302
30
0
10
8.4105553259917603
20
1.6439469920566405
30
0
10
8.479336211960165
20
1.6513026712435575
30
0
10
8.5476739388152527
20
1.6683424142733905
30
0
10
8.6150603147401696
20
1.6956450898317215
30
0
10
8.6811332248194013
20
1.7323866261171947
30
0
10
8.7458700404796197
20
1.7761102070282311
30
0
10
8.8096981710245554
20
1.8227121850912424
30
0
10
8.8732768522374936
20
1.8672361085358167
30
0
10
8.9373285652574772
20
1.9045460555770946
30
0
10
9.0024528220271964
20
1.9300425506271615
30
0
10
9.0689433293170048
20
1.9403708996270481
30
0
10
9.136615154721909
20
1.9341036042019573
30
0
10
9.2049657765233626
20
1.9115401174440652
30
0
10
9.2733248253113292
20
1.874542508536311
30
0
10
9.3410050654755903
20
1.8263541287309948
30
0
10
9.4074597501350254
20
1.7714350398405665
30
0
10
9.4724172145832899
20
1.7152641012973842
30
0
10
9.5358060245653089
20
1.6638564045087236
30
0
10
9.5976990284071988
20
1.6233103377263725
30
0
10
9.6582492058209404
20
1.5993331643771755
30
0
10
9.7176313835756662
20
1.5967992531136919
30
0
10
9.7759752365766843
20
1.6192316829945228
30
0
10
9.8333659741590722
20
1.6689591400539892
30
0
10
9.8898554041725504
20
1.7473790297519662
30
0
10
9.9343465670974211
20
1.8336221869749889
30
0
10
9.9673249418821985
20
1.911629559646717
30
0
10
9.9891372011204425
20
1.9695562262592412
30
0
10
10
20
2
30
0
0
ENDSEC
0
SECTION
2
OBJECTS
0
DICTIONARY
5
C
100
AcDbDictionary
3
ACAD_GROUP
350
D
3
ACAD_MLINESTYLE
350
17
0
DICTIONARY
5
D
100
AcDbDictionary
0
DICTIONARY
5
1A
330
C
100
AcDbDictionary
0
DICTIONARY
5
17
100
AcDbDictionary
0
ENDSEC
0
EOF
