0
SECTION
2
HEADER
9
$INSUNITS
70
4
9
$ACADVER
1
AC1014
9
$HANDSEED
5
FFFF
0
ENDSEC
0
SECTION
2
TABLES
0
TABLE
2
VPORT
5
8
100
AcDbSymbolTable
0
ENDTAB
0
TABLE
2
LTYPE
5
5
100
AcDbSymbolTable
0
LTYPE
5
14
100
AcDbSymbolTableRecord
100
AcDbLinetypeTableRecord
2
BYBLOCK
70
0
0
LTYPE
5
15
100
AcDbSymbolTableRecord
100
AcDbLinetypeTableRecord
2
BYLAYER
70
0
0
ENDTAB
0
TABLE
2
LAYER
5
2
100
AcDbSymbolTable
70
2
0
LAYER
5
50
100
AcDbSymbolTableRecord
100
AcDbLayerTableRecord
2
0
70
0
6
CONTINUOUS
0
ENDTAB
0
TABLE
2
STYLE
5
3
100
AcDbSymbolTable
70
1
0
STYLE
5
11
100
AcDbSymbolTableRecord
100
AcDbTextStyleTableRecord
2
STANDARD
70
0
0
ENDTAB
0
TABLE
2
VIEW
5
6
100
AcDbSymbolTable
70
0
0
ENDTAB
0
TABLE
2
UCS
5
7
100
AcDbSymbolTable
70
0
0
ENDTAB
0
TABLE
2
APPID
5
9
100
AcDbSymbolTable
70
2
0
APPID
5
12
100
AcDbSymbolTableRecord
100
AcDbRegAppTableRecord
2
ACAD
70
0
0
ENDTAB
0
TABLE
2
DIMSTYLE
5
A
100
AcDbSymbolTable
70
1
0
ENDTAB
0
TABLE
2
BLOCK_RECORD
5
1
100
AcDbSymbolTable
70
1
0
BLOCK_RECORD
5
1F
100
AcDbSymbolTableRecord
100
AcDbBlockTableRecord
2
*MODEL_SPACE
0
BLOCK_RECORD
5
1B
100
AcDbSymbolTableRecord
100
AcDbBlockTableRecord
2
*PAPER_SPACE
0
ENDTAB
0
ENDSEC
0
SECTION
2
BLOCKS
0
BLOCK
5
20
100
AcDbEntity
100
AcDbBlockBegin
2
*MODEL_SPACE
0
ENDBLK
5
21
100
AcDbEntity
100
AcDbBlockEnd
0
BLOCK
5
1C
100
AcDbEntity
100
AcDbBlockBegin
2
*PAPER_SPACE
0
ENDBLK
5
1D
100
AcDbEntity
100
AcDbBlockEnd
0
ENDSEC
0
SECTION
2
ENTITIES
0
SPLINE
5
100
100
AcDbEntity
8
0
100
AcDbSpline
70
4
71
5
72
16
73
10
74
0
42
0.000000001
43
0.0000000001
44
0.0000000001
40
0
40
0
40
0
40
0
40
0
40
0
40
0.20000000000000001
40
0.40000000000000002
40
0.60000000000000009
40
0.80000000000000004
40
1
40
1
40
1
40
1
40
1
40
1
41
1
41
1
41
1
41
1
41
1
41
1
41
1
41
1
41
1
41
1
10
0
20
0
30
0
10
0
20
0.080000000000033267
30
0
10
0
20
0.24000000000008476
30
0
10
0
20
0.48000000000011728
30
0
10
0
20
0.80000000000008786
30
0
10
0
20
1.2000000000000053
30
0
10
0
20
1.5199999999999583
30
0
10
0
20
1.7599999999999643
30
0
10
0
20
1.9199999999999853
30
0
10
0
20
2
30
0
0
SPLINE
5
101
100
AcDbEntity
8
0
100
AcDbSpline
70
4
71
5
72
16
73
10
74
0
42
0.000000001
43
0.0000000001
44
0.0000000001
40
0
40
0
40
0
40
0
40
0
40
0
40
0.20000000000000001
40
0.40000000000000002
40
0.60000000000000009
40
0.80000000000000004
40
1
40
1
40
1
40
1
40
1
40
1
41
1
41
1
41
1
41
1
41
1
41
1
41
1
41
1
41
1
41
1
10
10
20
0
30
0
10
9.9999999999997495
20
0.080000000000033267
30
0
10
9.9999999999993197
20
0.24000000000008476
30
0
10
9.9999999999989129
20
0.48000000000011728
30
0
10
9.9999999999987672
20
0.80000000000008786
30
0
10
9.9999999999990248
20
1.2000000000000053
30
0
10
9.9999999999993889
20
1.5199999999999583
30
0
10
9.9999999999996998
20
1.7599999999999643
30
0
10
9.9999999999999005
20
1.9199999999999853
30
0
10
10
20
2
30
0
0
SPLINE
5
102
100
AcDbEntity
8
0
100
AcDbSpline
70
4
71
5
72
16
73
10
74
0
42
0.000000001
43
0.0000000001
44
0.0000000001
40
0
40
0
40
0
40
0
40
0
40
0
40
0.20000000000000001
40
0.40000000000000002
40
0.60000000000000009
40
0.80000000000000004
40
1
40
1
40
1
40
1
40
1
40
1
41
1
41
1
41
1
41
1
41
1
41
1
41
1
41
1
41
1
41
1
10
0
20
1
30
0
10
0.40000000000047375
20
0.99999999999987343
30
0
10
1.2000000000012774
20
0.99999999999965183
30
0
10
2.4000000000020547
20
0.99999999999941747
30
0
10
4.0000000000023546
20
0.99999999999928091
30
0
10
6.0000000000019584
20
0.99999999999933376
30
0
10
7.6000000000012928
20
0.99999999999951594
30
0
10
8.800000000000697
20
0.99999999999972888
30
0
10
9.6000000000002395
20
0.99999999999990408
30
0
10
10
20
1
30
0
0
SPLINE
5
103
100
AcDbEntity
8
0
100
AcDbSpline
70
4
71
5
72
61
73
55
74
0
42
0.000000001
43
0.0000000001
44
0.0000000001
40
0
40
0
40
0
40
0
40
0
40
0
40
0.02
40
0.040000000000000001
40
0.059999999999999998
40
0.080000000000000002
40
0.10000000000000001
40
0.12000000000000001
40
0.14000000000000001
40
0.16
40
0.17999999999999999
40
0.19999999999999998
40
0.21999999999999997
40
0.23999999999999996
40
0.25999999999999995
40
0.27999999999999997
40
0.29999999999999999
40
0.32000000000000001
40
0.34000000000000002
40
0.36000000000000004
40
0.38000000000000006
40
0.40000000000000008
40
0.4200000000000001
40
0.44000000000000011
40
0.46000000000000013
40
0.48000000000000015
40
0.50000000000000011
40
0.52000000000000013
40
0.54000000000000015
40
0.56000000000000016
40
0.58000000000000018
40
0.6000000000000002
40
0.62000000000000022
40
0.64000000000000024
40
0.66000000000000025
40
0.68000000000000027
40
0.70000000000000029
40
0.72000000000000031
40
0.74000000000000032
40
0.76000000000000034
40
0.78000000000000036
40
0.80000000000000038
40
0.8200000000000004
40
0.84000000000000041
40
0.86000000000000043
40
0.88000000000000045
40
0.90000000000000047
40
0.92000000000000048
40
0.9400000000000005
40
0.96000000000000052
40
0.98000000000000054
40
1
40
1
40
1
40
1
40
1
40
1
41
1
41
1
41
1
41
1
41
1
41
1
41
1
41
1
41
1
41
1
41
1
41
1
41
1
41
1
41
1
41
1
41
1
41
1
41
1
41
1
41
1
41
1
41
1
41
1
41
1
41
1
41
1
41
1
41
1
41
1
41
1
41
1
41
1
41
1
41
1
41
1
41
1
41
1
41
1
41
1
41
1
41
1
41
1
41
1
41
1
41
1
41
1
41
1
41
1
41
1
41
1
41
1
41
1
41
1
41
1
10
0
20
0
30
0
10
0.04122624766375281
20
-0.018743344153880414
30
0
10
0.12346515131475314
20
-0.052123238500809334
30
0
10
0.24618273066548663
20
-0.089872666220837089
30
0
10
0.40852379209344325
20
-0.1155486299138842
30
0
10
0.6093469200187166
20
-0.10746928492023307
30
0
10
0.80817778551569552
20
-0.062144250783427196
30
0
10
1.0052445090364541
20
0.014450655587324446
30
0
10
1.2009341934445923
20
0.11221288492952043
30
0
10
1.3958318385604058
20
0.21591843643842815
30
0
10
1.5906112546933002
20
0.30859303213195183
30
0
10
1.7859304785249033
20
0.37474376669608267
30
0
10
1.9823234333324642
20
0.40372441096686301
30
0
10
2.1800977809071433
20
0.39287205809335901
30
0
10
2.3792165026490824
20
0.35125354704295531
30
0
10
2.5793952412523908
20
0.29532141973265708
30
0
10
2.7802173222011173
20
0.24392012703176197
30
0
10
2.9812436928371384
20
0.21343807948225937
30
0
10
3.1821208765325211
20
0.21311909692030614
30
0
10
3.3827005007791406
20
0.23969072700346061
30
0
10
3.5829929230554884
20
0.28134491622958108
30
0
10
3.7831055279044334
20
0.32256052409650393
30
0
10
3.9831860791067997
20
0.34868645373235074
30
0
10
4.1833658551601811
20
0.35044877038525502
30
0
10
4.3836981802733703
20
0.32897290879300484
30
0
10
4.5841779819595487
20
0.29268455216152811
30
0
10
4.7847680743821037
20
0.25355334698598664
30
0
10
4.9854232903563753
20
0.2235393411074586
30
0
10
5.1861145822661072
20
0.21106462457484021
30
0
10
5.3868555648501717
20
0.21717691082274918
30
0
10
5.5876819430073379
20
0.23743295949492288
30
0
10
5.788627696753748
20
0.26418322752040169
30
0
10
5.9897020841550006
20
0.28871585951901946
30
0
10
6.1908670940540294
20
0.30341959805812602
30
0
10
6.3920122910861004
20
0.30403632874894015
30
0
10
6.592992088153661
20
0.28927103151385986
30
0
10
6.7936658954924898
20
0.2602714288770796
30
0
10
6.9939375323973483
20
0.22016425075385726
30
0
10
7.1937943024524786
20
0.17357036184408978
30
0
10
7.3933484592255416
20
0.12614326316563773
30
0
10
7.592789618273537
20
0.083715864716892227
30
0
10
7.7923349070181249
20
0.051442448368174867
30
0
10
7.9921796851531521
20
0.032932527291199706
30
0
10
8.1924488650054546
20
0.029403778445460715
30
0
10
8.3931454617615593
20
0.038767449346158611
30
0
10
8.5941830205229017
20
0.056604185983195443
30
0
10
8.7954209128224132
20
0.077202841856167506
30
0
10
8.9966984882081888
20
0.0945744881714497
30
0
10
9.1978694201187974
20
0.10346896296601016
30
0
10
9.3988365248610179
20
0.10040865521331505
30
0
10
9.5995421409881914
20
0.083337147319250293
30
0
10
9.7598747267627406
20
0.057666530132668023
30
0
10
9.8799896440548167
20
0.031514505265897053
30
0
10
9.9600065062177521
20
0.01101554678042958
30
0
10
10
20
0
30
0
0
SPLINE
5
104
100
AcDbEntity
8
0
100
AcDbSpline
70
4
71
5
72
61
73
55
74
0
42
0.000000001
43
0.0000000001
44
0.0000000001
40
0
40
0
40
0
40
0
40
0
40
0
40
0.02
40
0.040000000000000001
40
0.059999999999999998
40
0.080000000000000002
40
0.10000000000000001
40
0.12000000000000001
40
0.14000000000000001
40
0.16
40
0.17999999999999999
40
0.19999999999999998
40
0.21999999999999997
40
0.23999999999999996
40
0.25999999999999995
40
0.27999999999999997
40
0.29999999999999999
40
0.32000000000000001
40
0.34000000000000002
40
0.36000000000000004
40
0.38000000000000006
40
0.40000000000000008
40
0.4200000000000001
40
0.44000000000000011
40
0.46000000000000013
40
0.48000000000000015
40
0.50000000000000011
40
0.52000000000000013
40
0.54000000000000015
40
0.56000000000000016
40
0.58000000000000018
40
0.6000000000000002
40
0.62000000000000022
40
0.64000000000000024
40
0.66000000000000025
40
0.68000000000000027
40
0.70000000000000029
40
0.72000000000000031
40
0.74000000000000032
40
0.76000000000000034
40
0.78000000000000036
40
0.80000000000000038
40
0.8200000000000004
40
0.84000000000000041
40
0.86000000000000043
40
0.88000000000000045
40
0.90000000000000047
40
0.92000000000000048
40
0.9400000000000005
40
0.96000000000000052
40
0.98000000000000054
40
1
40
1
40
1
40
1
40
1
40
1
41
1
41
1
41
1
41
1
41
1
41
1
41
1
41
1
41
1
41
1
41
1
41
1
41
1
41
1
41
1
41
1
41
1
41
1
41
1
41
1
41
1
41
1
41
1
41
1
41
1
41
1
41
1
41
1
41
1
41
1
41
1
41
1
41
1
41
1
41
1
41
1
41
1
41
1
41
1
41
1
41
1
41
1
41
1
41
1
41
1
41
1
41
1
41
1
41
1
41
1
41
1
41
1
41
1
41
1
41
1
10
0
20
2
30
0
10
0.040258948525224984
20
2.0032280783129934
30
0
10
0.12074799830051552
20
2.007810954645183
30
0
10
0.2413950311428093
20
2.0090654165631698
30
0
10
0.40208454517024617
20
1.9994911042535111
30
0
10
0.60265890968809843
20
1.9693192070324794
30
0
10
0.80295028033044913
20
1.9226425464160615
30
0
10
1.0029685922253773
20
1.8629152298007903
30
0
10
1.2027311965238503
20
1.7959590230489169
30
0
10
1.4022648971792042
20
1.7305473076697042
30
0
10
1.6016081548129688
20
1.6764618608353978
30
0
10
1.8008133154838766
20
1.6425842969463569
30
0
10
1.999948872342765
20
1.6349731506153415
30
0
10
2.1991017581728727
20
1.6549407368497042
30
0
10
2.3983796831777928
20
1.6971166227203469
30
0
10
2.5978946091287334
20
1.7518347488073265
30
0
10
2.7977462435411744
20
1.8075101558128326
30
0
10
2.9980054653390633
20
1.8530161601287745
30
0
10
3.198697784133171
20
1.8800516892770849
30
0
10
3.39978644200463
20
1.8855432726590324
30
0
10
3.6011863487959412
20
1.8706069153617435
30
0
10
3.8027781754162069
20
1.8394888316112057
30
0
10
4.0044222867467161
20
1.7985241588870136
30
0
10
4.2059726481206585
20
1.7550941069399764
30
0
10
4.4072907622967685
20
1.7165911928531847
30
0
10
4.6082613218109909
20
1.6896392050378837
30
0
10
4.808808017216589
20
1.6793004640915443
30
0
10
5.0089091097869796
20
1.6882968829455669
30
0
10
5.2086138992762194
20
1.7161889630137086
30
0
10
5.4080571933192525
20
1.7586481610081208
30
0
10
5.607423196998722
20
1.8090675921770711
30
0
10
5.8069113107055612
20
1.8600859985566855
30
0
10
6.00670149039229
20
1.905128305454977
30
0
10
6.2069192810693163
20
1.9399690414369732
30
0
10
6.4076022206067629
20
1.9642102121988005
30
0
10
6.6087166472244077
20
1.9798193663350838
30
0
10
6.8101728439178189
20
1.9897492742712077
30
0
10
7.0118406387462677
20
1.9965527492377748
30
0
10
7.213564664438703
20
2.0009491629985434
30
0
10
7.4151797002104933
20
2.0005504736378454
30
0
10
7.6165257846078225
20
1.9914885869268479
30
0
10
7.8174635609464369
20
1.9699123007198369
30
0
10
8.0178892000326485
20
1.9334989259594479
30
0
10
8.2177504908110386
20
1.8830412522728825
30
0
10
8.4170600205340467
20
1.8237858393896602
30
0
10
8.6158749234276755
20
1.7638288441312624
30
0
10
8.8142790514755944
20
1.7127237515958635
30
0
10
9.0123645068945457
20
1.6800290842815886
30
0
10
9.2102130711623236
20
1.6738464739037608
30
0
10
9.4078788806190428
20
1.6994621672207493
30
0
10
9.6053947495926479
20
1.7599992224287764
30
0
10
9.7633007047687155
20
1.837565720651464
30
0
10
9.8816726919770836
20
1.9123341207487135
30
0
10
9.960561819109234
20
1.9695497051152824
30
0
10
10
20
2
30
0
0
ENDSEC
0
SECTION
2
OBJECTS
0
DICTIONARY
5
C
100
AcDbDictionary
3
ACAD_GROUP
350
D
3
ACAD_MLINESTYLE
350
17
0
DICTIONARY
5
D
100
AcDbDictionary
0
DICTIONARY
5
1A
330
C
100
AcDbDictionary
0
DICTIONARY
5
17
100
AcDbDictionary
0
ENDSEC
0
EOF
