0
SECTION
2
HEADER
9
$INSUNITS
70
4
9
$ACADVER
1
AC1014
9
$HANDSEED
5
FFFF
0
ENDSEC
0
SECTION
2
TABLES
0
TABLE
2
VPORT
5
8
100
AcDbSymbolTable
0
ENDTAB
0
TABLE
2
LTYPE
5
5
100
AcDbSymbolTable
0
LTYPE
5
14
100
AcDbSymbolTableRecord
100
AcDbLinetypeTableRecord
2
BYBLOCK
70
0
0
LTYPE
5
15
100
AcDbSymbolTableRecord
100
AcDbLinetypeTableRecord
2
BYLAYER
70
0
0
ENDTAB
0
TABLE
2
LAYER
5
2
100
AcDbSymbolTable
70
2
0
LAYER
5
50
100
AcDbSymbolTableRecord
100
AcDbLayerTableRecord
2
0
70
0
6
CONTINUOUS
0
ENDTAB
0
TABLE
2
STYLE
5
3
100
AcDbSymbolTable
70
1
0
STYLE
5
11
100
AcDbSymbolTableRecord
100
AcDbTextStyleTableRecord
2
STANDARD
70
0
0
ENDTAB
0
TABLE
2
VIEW
5
6
100
AcDbSymbolTable
70
0
0
ENDTAB
0
TABLE
2
UCS
5
7
100
AcDbSymbolTable
70
0
0
ENDTAB
0
TABLE
2
APPID
5
9
100
AcDbSymbolTable
70
2
0
APPID
5
12
100
AcDbSymbolTableRecord
100
AcDbRegAppTableRecord
2
ACAD
70
0
0
ENDTAB
0
TABLE
2
DIMSTYLE
5
A
100
AcDbSymbolTable
70
1
0
ENDTAB
0
TABLE
2
BLOCK_RECORD
5
1
100
AcDbSymbolTable
70
1
0
BLOCK_RECORD
5
1F
100
AcDbSymbolTableRecord
100
AcDbBlockTableRecord
2
*MODEL_SPACE
0
BLOCK_RECORD
5
1B
100
AcDbSymbolTableRecord
100
AcDbBlockTableRecord
2
*PAPER_SPACE
0
ENDTAB
0
ENDSEC
0
SECTION
2
BLOCKS
0
BLOCK
5
20
100
AcDbEntity
100
AcDbBlockBegin
2
*MODEL_SPACE
0
ENDBLK
5
21
100
AcDbEntity
100
AcDbBlockEnd
0
BLOCK
5
1C
100
AcDbEntity
100
AcDbBlockBegin
2
*PAPER_SPACE
0
ENDBLK
5
1D
100
AcDbEntity
100
AcDbBlockEnd
0
ENDSEC
0
SECTION
2
ENTITIES
0
SPLINE
5
100
100
AcDbEntity
8
0
100
AcDbSpline
70
4
71
5
72
16
73
10
74
0
42
0.000000001
43
0.0000000001
44
0.0000000001
40
0
40
0
40
0
40
0
40
0
40
0
40
0.20000000000000001
40
0.40000000000000002
40
0.60000000000000009
40
0.80000000000000004
40
1
40
1
40
1
40
1
40
1
40
1
41
1
41
1
41
1
41
1
41
1
41
1
41
1
41
1
41
1
41
1
10
0
20
0
30
0
10
0
20
0.080000000000033267
30
0
10
0
20
0.24000000000008476
30
0
10
0
20
0.48000000000011728
30
0
10
0
20
0.80000000000008786
30
0
10
0
20
1.2000000000000053
30
0
10
0
20
1.5199999999999583
30
0
10
0
20
1.7599999999999643
30
0
10
0
20
1.9199999999999853
30
0
10
0
20
2
30
0
0
SPLINE
5
101
100
AcDbEntity
8
0
100
AcDbSpline
70
4
71
5
72
16
73
10
74
0
42
0.000000001
43
0.0000000001
44
0.0000000001
40
0
40
0
40
0
40
0
40
0
40
0
40
0.20000000000000001
40
0.40000000000000002
40
0.60000000000000009
40
0.80000000000000004
40
1
40
1
40
1
40
1
40
1
40
1
41
1
41
1
41
1
41
1
41
1
41
1
41
1
41
1
41
1
41
1
10
10
20
0
30
0
10
9.9999999999997495
20
0.080000000000033267
30
0
10
9.9999999999993197
20
0.24000000000008476
30
0
10
9.9999999999989129
20
0.48000000000011728
30
0
10
9.9999999999987672
20
0.80000000000008786
30
0
10
9.9999999999990248
20
1.2000000000000053
30
0
10
9.9999999999993889
20
1.5199999999999583
30
0
10
9.9999999999996998
20
1.7599999999999643
30
0
10
9.9999999999999005
20
1.9199999999999853
30
0
10
10
20
2
30
0
0
SPLINE
5
102
100
AcDbEntity
8
0
100
AcDbSpline
70
4
71
5
72
16
73
10
74
0
42
0.000000001
43
0.0000000001
44
0.0000000001
40
0
40
0
40
0
40
0
40
0
40
0
40
0.20000000000000001
40
0.40000000000000002
40
0.60000000000000009
40
0.80000000000000004
40
1
40
1
40
1
40
1
40
1
40
1
41
1
41
1
41
1
41
1
41
1
41
1
41
1
41
1
41
1
41
1
10
0
20
1
30
0
10
0.40000000000047375
20
0.99999999999987343
30
0
10
1.2000000000012774
20
0.99999999999965183
30
0
10
2.4000000000020547
20
0.99999999999941747
30
0
10
4.0000000000023546
20
0.99999999999928091
30
0
10
6.0000000000019584
20
0.99999999999933376
30
0
10
7.6000000000012928
20
0.99999999999951594
30
0
10
8.800000000000697
20
0.99999999999972888
30
0
10
9.6000000000002395
20
0.99999999999990408
30
0
10
10
20
1
30
0
0
SPLINE
5
103
100
AcDbEntity
8
0
100
AcDbSpline
70
4
71
5
72
211
73
205
74
0
42
0.000000001
43
0.0000000001
44
0.0000000001
40
0
40
0
40
0
40
0
40
0
40
0
40
0.0050000000000000001
40
0.01
40
0.014999999999999999
40
0.02
40
0.025000000000000001
40
0.030000000000000002
40
0.035000000000000003
40
0.040000000000000001
40
0.044999999999999998
40
0.049999999999999996
40
0.054999999999999993
40
0.059999999999999991
40
0.064999999999999988
40
0.069999999999999993
40
0.074999999999999997
40
0.080000000000000002
40
0.085000000000000006
40
0.090000000000000011
40
0.095000000000000015
40
0.10000000000000002
40
0.10500000000000002
40
0.11000000000000003
40
0.11500000000000003
40
0.12000000000000004
40
0.12500000000000003
40
0.13000000000000003
40
0.13500000000000004
40
0.14000000000000004
40
0.14500000000000005
40
0.15000000000000005
40
0.15500000000000005
40
0.16000000000000006
40
0.16500000000000006
40
0.17000000000000007
40
0.17500000000000007
40
0.18000000000000008
40
0.18500000000000008
40
0.19000000000000009
40
0.19500000000000009
40
0.20000000000000009
40
0.2050000000000001
40
0.2100000000000001
40
0.21500000000000011
40
0.22000000000000011
40
0.22500000000000012
40
0.23000000000000012
40
0.23500000000000013
40
0.24000000000000013
40
0.24500000000000013
40
0.25000000000000011
40
0.25500000000000012
40
0.26000000000000012
40
0.26500000000000012
40
0.27000000000000013
40
0.27500000000000013
40
0.28000000000000014
40
0.28500000000000014
40
0.29000000000000015
40
0.29500000000000015
40
0.30000000000000016
40
0.30500000000000016
40
0.31000000000000016
40
0.31500000000000017
40
0.32000000000000017
40
0.32500000000000018
40
0.33000000000000018
40
0.33500000000000019
40
0.34000000000000019
40
0.3450000000000002
40
0.3500000000000002
40
0.3550000000000002
40
0.36000000000000021
40
0.36500000000000021
40
0.37000000000000022
40
0.37500000000000022
40
0.38000000000000023
40
0.38500000000000023
40
0.39000000000000024
40
0.39500000000000024
40
0.40000000000000024
40
0.40500000000000025
40
0.41000000000000025
40
0.41500000000000026
40
0.42000000000000026
40
0.42500000000000027
40
0.43000000000000027
40
0.43500000000000028
40
0.44000000000000028
40
0.44500000000000028
40
0.45000000000000029
40
0.45500000000000029
40
0.4600000000000003
40
0.4650000000000003
40
0.47000000000000031
40
0.47500000000000031
40
0.48000000000000032
40
0.48500000000000032
40
0.49000000000000032
40
0.49500000000000033
40
0.50000000000000033
40
0.50500000000000034
40
0.51000000000000034
40
0.51500000000000035
40
0.52000000000000035
40
0.52500000000000036
40
0.53000000000000036
40
0.53500000000000036
40
0.54000000000000037
40
0.54500000000000037
40
0.55000000000000038
40
0.55500000000000038
40
0.56000000000000039
40
0.56500000000000039
40
0.5700000000000004
40
0.5750000000000004
40
0.5800000000000004
40
0.58500000000000041
40
0.59000000000000041
40
0.59500000000000042
40
0.60000000000000042
40
0.60500000000000043
40
0.61000000000000043
40
0.61500000000000044
40
0.62000000000000044
40
0.62500000000000044
40
0.63000000000000045
40
0.63500000000000045
40
0.64000000000000046
40
0.64500000000000046
40
0.65000000000000047
40
0.65500000000000047
40
0.66000000000000048
40
0.66500000000000048
40
0.67000000000000048
40
0.67500000000000049
40
0.68000000000000049
40
0.6850000000000005
40
0.6900000000000005
40
0.69500000000000051
40
0.70000000000000051
40
0.70500000000000052
40
0.71000000000000052
40
0.71500000000000052
40
0.72000000000000053
40
0.72500000000000053
40
0.73000000000000054
40
0.73500000000000054
40
0.74000000000000055
40
0.74500000000000055
40
0.75000000000000056
40
0.75500000000000056
40
0.76000000000000056
40
0.76500000000000057
40
0.77000000000000057
40
0.77500000000000058
40
0.78000000000000058
40
0.78500000000000059
40
0.79000000000000059
40
0.7950000000000006
40
0.8000000000000006
40
0.8050000000000006
40
0.81000000000000061
40
0.81500000000000061
40
0.82000000000000062
40
0.82500000000000062
40
0.83000000000000063
40
0.83500000000000063
40
0.84000000000000064
40
0.84500000000000064
40
0.85000000000000064
40
0.85500000000000065
40
0.86000000000000065
40
0.86500000000000066
40
0.87000000000000066
40
0.87500000000000067
40
0.88000000000000067
40
0.88500000000000068
40
0.89000000000000068
40
0.89500000000000068
40
0.90000000000000069
40
0.90500000000000069
40
0.9100000000000007
40
0.9150000000000007
40
0.92000000000000071
40
0.92500000000000071
40
0.93000000000000071
40
0.93500000000000072
40
0.94000000000000072
40
0.94500000000000073
40
0.95000000000000073
40
0.95500000000000074
40
0.96000000000000074
40
0.96500000000000075
40
0.97000000000000075
40
0.97500000000000075
40
0.98000000000000076
40
0.98500000000000076
40
0.99000000000000077
40
0.99500000000000077
40
1
40
1
40
1
40
1
40
1
40
1
41
1
41
1
41
1
41
1
41
1
41
1
41
1
41
1
41
1
41
1
41
1
41
1
41
1
41
1
41
1
41
1
41
1
41
1
41
1
41
1
41
1
41
1
41
1
41
1
41
1
41
1
41
1
41
1
41
1
41
1
41
1
41
1
41
1
41
1
41
1
41
1
41
1
41
1
41
1
41
1
41
1
41
1
41
1
41
1
41
1
41
1
41
1
41
1
41
1
41
1
41
1
41
1
41
1
41
1
41
1
41
1
41
1
41
1
41
1
41
1
41
1
41
1
41
1
41
1
41
1
41
1
41
1
41
1
41
1
41
1
41
1
41
1
41
1
41
1
41
1
41
1
41
1
41
1
41
1
41
1
41
1
41
1
41
1
41
1
41
1
41
1
41
1
41
1
41
1
41
1
41
1
41
1
41
1
41
1
41
1
41
1
41
1
41
1
41
1
41
1
41
1
41
1
41
1
41
1
41
1
41
1
41
1
41
1
41
1
41
1
41
1
41
1
41
1
41
1
41
1
41
1
41
1
41
1
41
1
41
1
41
1
41
1
41
1
41
1
41
1
41
1
41
1
41
1
41
1
41
1
41
1
41
1
41
1
41
1
41
1
41
1
41
1
41
1
41
1
41
1
41
1
41
1
41
1
41
1
41
1
41
1
41
1
41
1
41
1
41
1
41
1
41
1
41
1
41
1
41
1
41
1
41
1
41
1
41
1
41
1
41
1
41
1
41
1
41
1
41
1
41
1
41
1
41
1
41
1
41
1
41
1
41
1
41
1
41
1
41
1
41
1
41
1
41
1
41
1
41
1
41
1
41
1
41
1
41
1
41
1
41
1
41
1
41
1
41
1
41
1
41
1
41
1
41
1
41
1
41
1
41
1
41
1
41
1
41
1
41
1
41
1
41
1
41
1
41
1
41
1
10
0
20
0
30
0
10
0.009953843902576507
20
0.007211866823045132
30
0
10
0.029905583087588488
20
0.021150486363740433
30
0
10
0.059965346703521619
20
0.040603052654937945
30
0
10
0.10030934589900586
20
0.063629142697751759
30
0
10
0.15117502236435354
20
0.087670164733508193
30
0
10
0.2024616157873875
20
0.10730269196635103
30
0
10
0.25413972115575345
20
0.12318796331809784
30
0
10
0.30615982226524457
20
0.13644172648372327
30
0
10
0.3584487939973196
20
0.14870218703461346
30
0
10
0.41092698167512648
20
0.16158308817183112
30
0
10
0.46352520069893266
20
0.17613105939468593
30
0
10
0.51619917119527303
20
0.19235501044670658
30
0
10
0.56895116530409484
20
0.20855085181740216
30
0
10
0.62182887638147544
20
0.22127591096818328
30
0
10
0.67487471515492548
20
0.22677381992250784
30
0
10
0.72808075087370205
20
0.22219283671187745
30
0
10
0.78135032300087282
20
0.20671300030854228
30
0
10
0.83443480520596558
20
0.18314017245877356
30
0
10
0.88697897613161225
20
0.15738692009653651
30
0
10
0.93863840795991682
20
0.13651383427901845
30
0
10
0.98918085369370479
20
0.12714188401601068
30
0
10
1.0385823391814792
20
0.13383772806662902
30
0
10
1.0871561845892559
20
0.15718557922324569
30
0
10
1.1354510979173607
20
0.19431721545997302
30
0
10
1.1840899251657686
20
0.24012234947681302
30
0
10
1.2336208417100172
20
0.28824154067248259
30
0
10
1.2843806261375879
20
0.33211820335481562
30
0
10
1.3363089226239231
20
0.36610586591650368
30
0
10
1.3890193853623671
20
0.38610912554611332
30
0
10
1.4419864805228695
20
0.38998115055762927
30
0
10
1.4946986647139746
20
0.3780279412622729
30
0
10
1.5468181102625285
20
0.35340554143629793
30
0
10
1.5983574593912933
20
0.32273177583130408
30
0
10
1.6495722010905842
20
0.29423679226056787
30
0
10
1.7008201985485609
20
0.27563473649859982
30
0
10
1.7524347902569068
20
0.27213040521039994
30
0
10
1.804588205587466
20
0.28428720559524495
30
0
10
1.8571700790363586
20
0.30617892525603529
30
0
10
1.9099151846458831
20
0.32859984520358332
30
0
10
1.9625266208554282
20
0.34219540882683896
30
0
10
2.0147895524675259
20
0.34036247712998136
30
0
10
2.0667151051351329
20
0.32285876431947352
30
0
10
2.1185884182353538
20
0.29716550603911962
30
0
10
2.1707715189132255
20
0.27403793544019756
30
0
10
2.2235400482784389
20
0.26393117039844916
30
0
10
2.2769318159265977
20
0.27352421529498172
30
0
10
2.330528867565135
20
0.30111936281636675
30
0
10
2.3835104310967679
20
0.33680532563793741
30
0
10
2.4349650926042217
20
0.36726343481264168
30
0
10
2.4841470395117846
20
0.37948534293961472
30
0
10
2.5307223927113691
20
0.36453453371185918
30
0
10
2.5751020874397512
20
0.32229600057608171
30
0
10
2.6183213512606325
20
0.26070482641225534
30
0
10
2.6616817491240896
20
0.19204493340192791
30
0
10
2.7064641853209088
20
0.13014127509030782
30
0
10
2.753620098915643
20
0.087239958117866209
30
0
10
2.8034539453913827
20
0.070884009324768793
30
0
10
2.8553607476697507
20
0.081185434046791446
30
0
10
2.9082230593574621
20
0.11325385552325053
30
0
10
2.9607695341127505
20
0.15928828698477188
30
0
10
3.0119281290364568
20
0.2107062187387897
30
0
10
3.0612284547659434
20
0.26046961170626937
30
0
10
3.1090385430971423
20
0.30466915950224915
30
0
10
3.1561958624669266
20
0.3413487621789551
30
0
10
3.2037330731781366
20
0.36976328886190912
30
0
10
3.2525708196552179
20
0.38948468674709463
30
0
10
3.3032148594672921
20
0.3995304815720081
30
0
10
3.3554785894961987
20
0.39760009384140044
30
0
10
3.4087351571593532
20
0.3814159595663108
30
0
10
3.4621477518598436
20
0.3500286259342843
30
0
10
3.5148955627137064
20
0.30498378276096949
30
0
10
3.5664311885911459
20
0.2519060442483857
30
0
10
3.6166300218745828
20
0.20076735608117482
30
0
10
3.6656437096010803
20
0.16268119903505346
30
0
10
3.7138068855182258
20
0.14724084767300577
30
0
10
3.7615266008703614
20
0.15985327040080383
30
0
10
3.8091702481365881
20
0.19857467197838385
30
0
10
3.8569819084540939
20
0.25271520102891332
30
0
10
3.9051081299321897
20
0.30746561349982815
30
0
10
3.9536049767409094
20
0.34754159700772724
30
0
10
4.0024526154010518
20
0.36116397885536161
30
0
10
4.051566294848401
20
0.34401376211964885
30
0
10
4.1008099376155283
20
0.30286615790559729
30
0
10
4.1500359516679195
20
0.25112576122312325
30
0
10
4.1991238627519669
20
0.20474583063227492
30
0
10
4.2480198972902548
20
0.17796654811395329
30
0
10
4.2967749796437706
20
0.17921384187111444
30
0
10
4.3455866611281868
20
0.2067006992720197
30
0
10
4.3947348152635666
20
0.25159871725485028
30
0
10
4.4445138220426896
20
0.30147382112097093
30
0
10
4.4951648442189089
20
0.34367482086059364
30
0
10
4.5468108004968002
20
0.36862739583720738
30
0
10
4.599382792071097
20
0.3734760994634907
30
0
10
4.6526691416126349
20
0.36064210279886655
30
0
10
4.7063763001041554
20
0.33589695679144616
30
0
10
4.7601840770204973
20
0.30665000695570233
30
0
10
4.8138064924301318
20
0.28005571673357715
30
0
10
4.8670404154743139
20
0.26147225787511141
30
0
10
4.9197602447687503
20
0.2544282288850031
30
0
10
4.9719211358493096
20
0.26034817522419657
30
0
10
5.0235563991647503
20
0.27844937891931854
30
0
10
5.0747834644718157
20
0.30537751500996979
30
0
10
5.1257837865841083
20
0.33565101121696039
30
0
10
5.1767543723331668
20
0.36301780989123356
30
0
10
5.2278634674415088
20
0.38163541143124197
30
0
10
5.279211239241719
20
0.3872004785331663
30
0
10
5.3307718207286623
20
0.37840199302240396
30
0
10
5.3824145947179396
20
0.35692202300147569
30
0
10
5.4339824259975211
20
0.32634083860237784
30
0
10
5.4853575845973923
20
0.29134974127579949
30
0
10
5.5365232229130177
20
0.25686542747380475
30
0
10
5.5876509299682562
20
0.22711518721150165
30
0
10
5.6390363416064249
20
0.20515958064797338
30
0
10
5.6909771348338021
20
0.19261649204872355
30
0
10
5.7436665216115497
20
0.18929577288822799
30
0
10
5.7970877179728921
20
0.19292172230527577
30
0
10
5.850888093468658
20
0.19868171759942724
30
0
10
5.9045183380643627
20
0.20062948799218275
30
0
10
5.9574085308348304
20
0.1933568171902432
30
0
10
6.0091235416564377
20
0.17348272577667631
30
0
10
6.0595444740657438
20
0.14142151223907204
30
0
10
6.1089874296489306
20
0.10243206362043664
30
0
10
6.1580151567916381
20
0.064115103500860998
30
0
10
6.2072849784722903
20
0.034313558754854069
30
0
10
6.2573879957031924
20
0.018954665103952259
30
0
10
6.3086795956512773
20
0.019687992809338577
30
0
10
6.3611502312493791
20
0.03228080913308462
30
0
10
6.4145512173741901
20
0.049545593671181998
30
0
10
6.4684937606230273
20
0.06388114771735437
30
0
10
6.5225523381543073
20
0.069678944296614087
30
0
10
6.5763805399855668
20
0.066466977608733602
30
0
10
6.6297699698116208
20
0.059308708491581298
30
0
10
6.682623262567561
20
0.055346564786700053
30
0
10
6.7349494609060825
20
0.061133883351771369
30
0
10
6.7868475421328309
20
0.079976540866630225
30
0
10
6.8385021360747809
20
0.10843921516433574
30
0
10
6.890133434337625
20
0.13800031727389525
30
0
10
6.9419316270148901
20
0.15874352295047658
30
0
10
6.9939941025265888
20
0.16246818295441656
30
0
10
7.0462663977267548
20
0.14585495367266574
30
0
10
7.0984684736230594
20
0.1141058663219422
30
0
10
7.1501940353065327
20
0.078021477331939357
30
0
10
7.2010307375506422
20
0.050266534025479231
30
0
10
7.2506727930722672
20
0.041930712183438107
30
0
10
7.2990371421133746
20
0.058954881029912781
30
0
10
7.3463771161209968
20
0.098643062135123014
30
0
10
7.3931668638176893
20
0.15240064845332352
30
0
10
7.4399887849525195
20
0.20840162202412751
30
0
10
7.4874164798506646
20
0.2543582029940793
30
0
10
7.5359073852201242
20
0.28007023065758996
30
0
10
7.5856712174188221
20
0.28052388739574569
30
0
10
7.6366772299599255
20
0.25583545917880501
30
0
10
7.6887071346465454
20
0.21015167204543711
30
0
10
7.7413924135140464
20
0.15091638561402088
30
0
10
7.7942591141739737
20
0.087940301780432009
30
0
10
7.8467668335775738
20
0.03267188526233724
30
0
10
7.8983736676885865
20
-0.0036815068139679726
30
0
10
7.9486044821665534
20
-0.012199954617194277
30
0
10
7.9971192941654943
20
0.011715132143567522
30
0
10
8.0437788548609159
20
0.066402821048389363
30
0
10
8.0887189085279747
20
0.14168991955208102
30
0
10
8.1322745987267666
20
0.22209181026293406
30
0
10
8.1748954504155549
20
0.29034494736010485
30
0
10
8.2170619342613485
20
0.33090942777847931
30
0
10
8.2592055585704873
20
0.33327953724268355
30
0
10
8.301617428594902
20
0.29586731112282294
30
0
10
8.3443926671649038
20
0.22812879778877004
30
0
10
8.3875133844378702
20
0.14592496053203996
30
0
10
8.4309084408871424
20
0.068008211591146839
30
0
10
8.4745259002484552
20
0.011907381571731546
30
0
10
8.5183917864039103
20
-0.0095607127184817366
30
0
10
8.5626949786006499
20
0.0070460736377650178
30
0
10
8.6077878181464733
20
0.054901464239095268
30
0
10
8.654070166840226
20
0.12123073423991376
30
0
10
8.7019014248402442
20
0.19037009709942751
30
0
10
8.7515022328235634
20
0.24731113883611661
30
0
10
8.8028582352564655
20
0.28109434509432746
30
0
10
8.855629413098697
20
0.28810957239748891
30
0
10
8.9092618414747076
20
0.27029905689027867
30
0
10
8.963094335898564
20
0.23352281084112941
30
0
10
9.0164631064391898
20
0.18590856172492412
30
0
10
9.0688164666083644
20
0.13610105652317916
30
0
10
9.1197950402872223
20
0.091907476160013546
30
0
10
9.1692268980711553
20
0.059936752826306186
30
0
10
9.2171420659474705
20
0.045015258711795507
30
0
10
9.263774140556464
20
0.049745325433689848
30
0
10
9.3095798599492205
20
0.073873772536221252
30
0
10
9.3552108594716312
20
0.11415727931835687
30
0
10
9.4013677900986892
20
0.16544195866957867
30
0
10
9.448677440671494
20
0.22150884106180174
30
0
10
9.4975594947423421
20
0.27601764320062638
30
0
10
9.5481005649199631
20
0.32339523223941408
30
0
10
9.5999171498869362
20
0.35978426037187838
30
0
10
9.6522934264638067
20
0.3827391658720633
30
0
10
9.704330420855495
20
0.39087534500164711
30
0
10
9.7550888392987662
20
0.38353922007977337
30
0
10
9.8037395582384192
20
0.36046089504051448
30
0
10
9.8496965101915492
20
0.32143942649678248
30
0
10
9.8925674488440816
20
0.26634583746650686
30
0
10
9.9321181499455395
20
0.19510301706009059
30
0
10
9.9610088515187361
20
0.12516013352579111
30
0
10
9.9811126982077596
20
0.065414390455440952
30
0
10
9.993820093952932
20
0.022344668345182221
30
0
10
10
20
0
30
0
0
SPLINE
5
104
100
AcDbEntity
8
0
100
AcDbSpline
70
4
71
5
72
211
73
205
74
0
42
0.000000001
43
0.0000000001
44
0.0000000001
40
0
40
0
40
0
40
0
40
0
40
0
40
0.0050000000000000001
40
0.01
40
0.014999999999999999
40
0.02
40
0.025000000000000001
40
0.030000000000000002
40
0.035000000000000003
40
0.040000000000000001
40
0.044999999999999998
40
0.049999999999999996
40
0.054999999999999993
40
0.059999999999999991
40
0.064999999999999988
40
0.069999999999999993
40
0.074999999999999997
40
0.080000000000000002
40
0.085000000000000006
40
0.090000000000000011
40
0.095000000000000015
40
0.10000000000000002
40
0.10500000000000002
40
0.11000000000000003
40
0.11500000000000003
40
0.12000000000000004
40
0.12500000000000003
40
0.13000000000000003
40
0.13500000000000004
40
0.14000000000000004
40
0.14500000000000005
40
0.15000000000000005
40
0.15500000000000005
40
0.16000000000000006
40
0.16500000000000006
40
0.17000000000000007
40
0.17500000000000007
40
0.18000000000000008
40
0.18500000000000008
40
0.19000000000000009
40
0.19500000000000009
40
0.20000000000000009
40
0.2050000000000001
40
0.2100000000000001
40
0.21500000000000011
40
0.22000000000000011
40
0.22500000000000012
40
0.23000000000000012
40
0.23500000000000013
40
0.24000000000000013
40
0.24500000000000013
40
0.25000000000000011
40
0.25500000000000012
40
0.26000000000000012
40
0.26500000000000012
40
0.27000000000000013
40
0.27500000000000013
40
0.28000000000000014
40
0.28500000000000014
40
0.29000000000000015
40
0.29500000000000015
40
0.30000000000000016
40
0.30500000000000016
40
0.31000000000000016
40
0.31500000000000017
40
0.32000000000000017
40
0.32500000000000018
40
0.33000000000000018
40
0.33500000000000019
40
0.34000000000000019
40
0.3450000000000002
40
0.3500000000000002
40
0.3550000000000002
40
0.36000000000000021
40
0.36500000000000021
40
0.37000000000000022
40
0.37500000000000022
40
0.38000000000000023
40
0.38500000000000023
40
0.39000000000000024
40
0.39500000000000024
40
0.40000000000000024
40
0.40500000000000025
40
0.41000000000000025
40
0.41500000000000026
40
0.42000000000000026
40
0.42500000000000027
40
0.43000000000000027
40
0.43500000000000028
40
0.44000000000000028
40
0.44500000000000028
40
0.45000000000000029
40
0.45500000000000029
40
0.4600000000000003
40
0.4650000000000003
40
0.47000000000000031
40
0.47500000000000031
40
0.48000000000000032
40
0.48500000000000032
40
0.49000000000000032
40
0.49500000000000033
40
0.50000000000000033
40
0.50500000000000034
40
0.51000000000000034
40
0.51500000000000035
40
0.52000000000000035
40
0.52500000000000036
40
0.53000000000000036
40
0.53500000000000036
40
0.54000000000000037
40
0.54500000000000037
40
0.55000000000000038
40
0.55500000000000038
40
0.56000000000000039
40
0.56500000000000039
40
0.5700000000000004
40
0.5750000000000004
40
0.5800000000000004
40
0.58500000000000041
40
0.59000000000000041
40
0.59500000000000042
40
0.60000000000000042
40
0.60500000000000043
40
0.61000000000000043
40
0.61500000000000044
40
0.62000000000000044
40
0.62500000000000044
40
0.63000000000000045
40
0.63500000000000045
40
0.64000000000000046
40
0.64500000000000046
40
0.65000000000000047
40
0.65500000000000047
40
0.66000000000000048
40
0.66500000000000048
40
0.67000000000000048
40
0.67500000000000049
40
0.68000000000000049
40
0.6850000000000005
40
0.6900000000000005
40
0.69500000000000051
40
0.70000000000000051
40
0.70500000000000052
40
0.71000000000000052
40
0.71500000000000052
40
0.72000000000000053
40
0.72500000000000053
40
0.73000000000000054
40
0.73500000000000054
40
0.74000000000000055
40
0.74500000000000055
40
0.75000000000000056
40
0.75500000000000056
40
0.76000000000000056
40
0.76500000000000057
40
0.77000000000000057
40
0.77500000000000058
40
0.78000000000000058
40
0.78500000000000059
40
0.79000000000000059
40
0.7950000000000006
40
0.8000000000000006
40
0.8050000000000006
40
0.81000000000000061
40
0.81500000000000061
40
0.82000000000000062
40
0.82500000000000062
40
0.83000000000000063
40
0.83500000000000063
40
0.84000000000000064
40
0.84500000000000064
40
0.85000000000000064
40
0.85500000000000065
40
0.86000000000000065
40
0.86500000000000066
40
0.87000000000000066
40
0.87500000000000067
40
0.88000000000000067
40
0.88500000000000068
40
0.89000000000000068
40
0.89500000000000068
40
0.90000000000000069
40
0.90500000000000069
40
0.9100000000000007
40
0.9150000000000007
40
0.92000000000000071
40
0.92500000000000071
40
0.93000000000000071
40
0.93500000000000072
40
0.94000000000000072
40
0.94500000000000073
40
0.95000000000000073
40
0.95500000000000074
40
0.96000000000000074
40
0.96500000000000075
40
0.97000000000000075
40
0.97500000000000075
40
0.98000000000000076
40
0.98500000000000076
40
0.99000000000000077
40
0.99500000000000077
40
1
40
1
40
1
40
1
40
1
40
1
41
1
41
1
41
1
41
1
41
1
41
1
41
1
41
1
41
1
41
1
41
1
41
1
41
1
41
1
41
1
41
1
41
1
41
1
41
1
41
1
41
1
41
1
41
1
41
1
41
1
41
1
41
1
41
1
41
1
41
1
41
1
41
1
41
1
41
1
41
1
41
1
41
1
41
1
41
1
41
1
41
1
41
1
41
1
41
1
41
1
41
1
41
1
41
1
41
1
41
1
41
1
41
1
41
1
41
1
41
1
41
1
41
1
41
1
41
1
41
1
41
1
41
1
41
1
41
1
41
1
41
1
41
1
41
1
41
1
41
1
41
1
41
1
41
1
41
1
41
1
41
1
41
1
41
1
41
1
41
1
41
1
41
1
41
1
41
1
41
1
41
1
41
1
41
1
41
1
41
1
41
1
41
1
41
1
41
1
41
1
41
1
41
1
41
1
41
1
41
1
41
1
41
1
41
1
41
1
41
1
41
1
41
1
41
1
41
1
41
1
41
1
41
1
41
1
41
1
41
1
41
1
41
1
41
1
41
1
41
1
41
1
41
1
41
1
41
1
41
1
41
1
41
1
41
1
41
1
41
1
41
1
41
1
41
1
41
1
41
1
41
1
41
1
41
1
41
1
41
1
41
1
41
1
41
1
41
1
41
1
41
1
41
1
41
1
41
1
41
1
41
1
41
1
41
1
41
1
41
1
41
1
41
1
41
1
41
1
41
1
41
1
41
1
41
1
41
1
41
1
41
1
41
1
41
1
41
1
41
1
41
1
41
1
41
1
41
1
41
1
41
1
41
1
41
1
41
1
41
1
41
1
41
1
41
1
41
1
41
1
41
1
41
1
41
1
41
1
41
1
41
1
41
1
41
1
41
1
41
1
41
1
41
1
41
1
41
1
41
1
41
1
41
1
41
1
41
1
41
1
10
0
20
2
30
0
10
0.0099909464163064413
20
1.9993079884557574
30
0
10
0.030017828856860142
20
1.9969541443322048
30
0
10
0.060193121241140901
20
1.9905138090331742
30
0
10
0.10069679372289878
20
1.9761082392405727
30
0
10
0.15177199075245901
20
1.9489049282272017
30
0
10
0.20327977278113876
20
1.9140280547574267
30
0
10
0.25519398441887092
20
1.8744950283507564
30
0
10
0.30747101787826031
20
1.8354025825012767
30
0
10
0.36004522459277777
20
1.8042079814324439
30
0
10
0.41282307881621655
20
1.7884201715137378
30
0
10
0.46567686098997141
20
1.7933593202821128
30
0
10
0.51843968622864844
20
1.8201763707209357
30
0
10
0.57089718229024777
20
1.8630824395693226
30
0
10
0.62278997761653099
20
1.9091912488879206
30
0
10
0.67383733232191545
20
1.9432463818267833
30
0
10
0.72375582648380288
20
1.9514966643708478
30
0
10
0.77228079940027272
20
1.9254711621807385
30
0
10
0.8191847352473538
20
1.8668686065345508
30
0
10
0.86430418820226074
20
1.7879504629884482
30
0
10
0.90757773958755783
20
1.7063112261198454
30
0
10
0.94907944605680628
20
1.6411823747967802
30
0
10
0.9890578483401119
20
1.6089302733064239
30
0
10
1.0279640239744272
20
1.6193230857159668
30
0
10
1.0665064520779919
20
1.6703786466524762
30
0
10
1.1055632937402804
20
1.7502569794472791
30
0
10
1.1460383074722862
20
1.8418520166460843
30
0
10
1.1887387007657999
20
1.9264163923930329
30
0
10
1.2342359063901773
20
1.9877856461338084
30
0
10
1.2827521005875273
20
2.0158869236904562
30
0
10
1.3339886325980697
20
2.011723524594196
30
0
10
1.3872343676872672
20
1.9853865728233817
30
0
10
1.4415966835899803
20
1.9510192289130945
30
0
10
1.496195996549128
20
1.9226932106003685
30
0
10
1.55036943453517
20
1.9100399354216417
30
0
10
1.6038868661628296
20
1.9136244548048795
30
0
10
1.656835007203207
20
1.9277264412065795
30
0
10
1.7094730720369944
20
1.9437690335224227
30
0
10
1.7621054066846942
20
1.9533468338244364
30
0
10
1.814931685101453
20
1.9518040578123161
30
0
10
1.8679536908242664
20
1.9404045351542556
30
0
10
1.9210700680008328
20
1.9237782040280085
30
0
10
1.9741453681394641
20
1.9080407034004001
30
0
10
2.0270801973677681
20
1.8988193390690198
30
0
10
2.0799026875578526
20
1.8989057688812518
30
0
10
2.1327639772761349
20
1.9077228943941102
30
0
10
2.1858416821647602
20
1.9225896683666532
30
0
10
2.2392650578348134
20
1.9394999511181588
30
0
10
2.2930394299340904
20
1.954074914536756
30
0
10
2.3469497831982955
20
1.9625060394825857
30
0
10
2.40064132319349
20
1.9620007442579799
30
0
10
2.4537444512858246
20
1.9511019444345234
30
0
10
2.5059810525528419
20
1.9300258551796872
30
0
10
2.5572864400837929
20
1.9010529730294381
30
0
10
2.6079021545852674
20
1.868723325800596
30
0
10
2.6582447091861217
20
1.8383555173575377
30
0
10
2.7087912489982675
20
1.8146642100337427
30
0
10
2.7599636160293688
20
1.8004412827442033
30
0
10
2.8120017670210222
20
1.7949723412479492
30
0
10
2.8648760179433364
20
1.7932785752654006
30
0
10
2.9183722411717898
20
1.7887796714130177
30
0
10
2.972153285041315
20
1.7756191625699878
30
0
10
3.0258275108308439
20
1.7508089006941021
30
0
10
3.0790194681041179
20
1.7172064949351931
30
0
10
3.1314193730600803
20
1.6832429861880676
30
0
10
3.1828050083671791
20
1.6591890294185405
30
0
10
3.2330737035681905
20
1.6541718314951885
30
0
10
3.2822644640818677
20
1.6732538003854893
30
0
10
3.3305987406342745
20
1.7135629242612482
30
0
10
3.3784407115645729
20
1.7654773792065424
30
0
10
3.4262184272851979
20
1.8163897103800921
30
0
10
3.4743541818565808
20
1.8538101720523223
30
0
10
3.5231976599801444
20
1.8684147352121543
30
0
10
3.5729417430992965
20
1.8579232803278529
30
0
10
3.623607589943616
20
1.8275345816702451
30
0
10
3.675106265481729
20
1.7865391574494225
30
0
10
3.7272818265162582
20
1.7458501168284568
30
0
10
3.7799581915236602
20
1.7153670551688383
30
0
10
3.8329936815348469
20
1.70089975404525
30
0
10
3.8862917498156491
20
1.7035142238140142
30
0
10
3.9397774815276456
20
1.7207788833864348
30
0
10
3.9933838627087423
20
1.7474421707118923
30
0
10
4.0470346810759654
20
1.7763661120081298
30
0
10
4.100627136892145
20
1.7992898498050915
30
0
10
4.154034966423195
20
1.8084810322196758
30
0
10
4.2071144514495282
20
1.7985514059849197
30
0
10
4.2597097675353508
20
1.7680804861006747
30
0
10
4.3116577103924127
20
1.7216335272717085
30
0
10
4.3627953536696786
20
1.6706770481518993
30
0
10
4.4129818041691422
20
1.629398815746266
30
0
10
4.4621187507187114
20
1.6111033192644986
30
0
10
4.5101700480355502
20
1.6245998067111489
30
0
10
4.5571851135530741
20
1.6700844382277011
30
0
10
4.6033103053686517
20
1.736795187838853
30
0
10
4.6487501023314328
20
1.8081651596473107
30
0
10
4.6937365268169282
20
1.8657674259517707
30
0
10
4.7384937538419996
20
1.8939173970765109
30
0
10
4.7832084573087199
20
1.8835674069109238
30
0
10
4.8279882142717012
20
1.8376068543743076
30
0
10
4.872884970673538
20
1.768562320479582
30
0
10
4.9179388395864532
20
1.6938652384245032
30
0
10
4.9632168437659665
20
1.6318399591885262
30
0
10
5.0088500436619734
20
1.5975804076189353
30
0
10
5.055080245998794
20
1.5984237170699047
30
0
10
5.1022757199219413
20
1.6309629445536833
30
0
10
5.150810810946453
20
1.6850589334182682
30
0
10
5.2009635699528358
20
1.7468685476149366
30
0
10
5.2528090591462808
20
1.8022234784252431
30
0
10
5.3061081633355576
20
1.8399350698458359
30
0
10
5.3602157794109262
20
1.8549167854099424
30
0
10
5.4143040697639799
20
1.8469209752335134
30
0
10
5.4675804979553497
20
1.8195154065501462
30
0
10
5.5194859148023756
20
1.7789582785503204
30
0
10
5.569953180765185
20
1.7331428212681765
30
0
10
5.6194617627514143
20
1.690429987619825
30
0
10
5.6687455537736877
20
1.6583922626299326
30
0
10
5.718567750585307
20
1.6424915630582293
30
0
10
5.7694931301598444
20
1.6449639772779605
30
0
10
5.821602935372729
20
1.663181694699116
30
0
10
5.8744371338833012
20
1.6897427991239857
30
0
10
5.9273070803907615
20
1.715284860395019
30
0
10
5.9795369791122379
20
1.7307860247994493
30
0
10
6.0307017701429446
20
1.7298188237354606
30
0
10
6.0809463876192851
20
1.7114522356972572
30
0
10
6.1309083948506817
20
1.6800197832751178
30
0
10
6.181381610250023
20
1.6428023997570125
30
0
10
6.2330415542967268
20
1.6082790006499537
30
0
10
6.2861805724055317
20
1.5842715030313452
30
0
10
6.3403497575356376
20
1.5758098442191193
30
0
10
6.3945250763223722
20
1.5848900587556616
30
0
10
6.4475092600104036
20
1.6111152314745303
30
0
10
6.4982619288058228
20
1.6520512779048222
30
0
10
6.5462509717578099
20
1.7037024236710074
30
0
10
6.5918180860630855
20
1.7609315965847292
30
0
10
6.6359098798316136
20
1.8179869922814116
30
0
10
6.6797824554424787
20
1.869019607315455
30
0
10
6.7247042839073057
20
1.9086113966179834
30
0
10
6.7716861304778266
20
1.9322836431615409
30
0
10
6.8211347852800266
20
1.9370517835425929
30
0
10
6.8727844719814044
20
1.9218104311378847
30
0
10
6.9259449625984528
20
1.8874824194185913
30
0
10
6.9796710043816192
20
1.8372874133978845
30
0
10
7.0329550410452217
20
1.7768365636986809
30
0
10
7.0849316074557525
20
1.7146142191679137
30
0
10
7.1349733153477981
20
1.6608377851613736
30
0
10
7.1827110944698491
20
1.6254049953857652
30
0
10
7.2280833761389083
20
1.6160093546350871
30
0
10
7.271361014551462
20
1.6364256136853139
30
0
10
7.3132128669845713
20
1.6841340992387674
30
0
10
7.3546357823210817
20
1.750523775854427
30
0
10
7.3967418195833554
20
1.8238676728541057
30
0
10
7.4405878234392917
20
1.8915078896718487
30
0
10
7.4869784478048684
20
1.9424648522068411
30
0
10
7.5363020633210631
20
1.9696283413190583
30
0
10
7.588296898060821
20
1.9727392474858483
30
0
10
7.6422050542804589
20
1.9571024498443301
30
0
10
7.6970528673830838
20
1.9309212301842527
30
0
10
7.7518875703560557
20
1.9031011135860023
30
0
10
7.8060362554821525
20
1.8808292885394648
30
0
10
7.8593441780845428
20
1.8673296979015839
30
0
10
7.9120048789660444
20
1.8627616979661343
30
0
10
7.9643949302650388
20
1.8650481335272164
30
0
10
8.0169175687671039
20
1.870725094912991
30
0
10
8.0698177986996846
20
1.8757906514262834
30
0
10
8.1230912298512248
20
1.876520727337557
30
0
10
8.17659481802343
20
1.8701316655387681
30
0
10
8.2301198859220523
20
1.8555512337142042
30
0
10
8.2834720364600738
20
1.8339840565341494
30
0
10
8.3365683353306714
20
1.809968725658651
30
0
10
8.3894300375988351
20
1.7902912055771023
30
0
10
8.4421126010176692
20
1.7816901730832329
30
0
10
8.4946534605331809
20
1.7888773325350322
30
0
10
8.5470160090094023
20
1.8125490059641622
30
0
10
8.5990256969313901
20
1.8470764353447742
30
0
10
8.650443141742878
20
1.882896204256499
30
0
10
8.7010526303112776
20
1.9094153701754
30
0
10
8.7507448322730745
20
1.9177251822543213
30
0
10
8.7996025275379992
20
1.9034101809324147
30
0
10
8.8479834930640884
20
1.8692764344306798
30
0
10
8.8963956973809051
20
1.8229942202353926
30
0
10
8.9453754502949572
20
1.7747991980898945
30
0
10
8.9953623146788519
20
1.7351441805777297
30
0
10
9.0465803439081398
20
1.7124375641899772
30
0
10
9.0989031951725767
20
1.7105682142883296
30
0
10
9.1519520120288931
20
1.7294403539218617
30
0
10
9.2052147903980774
20
1.765759941981548
30
0
10
9.2581550312067353
20
1.8137410298793362
30
0
10
9.3103317465133344
20
1.8658200829587588
30
0
10
9.3614944150079502
20
1.9134400790906705
30
0
10
9.4115360708306657
20
1.9483175914185678
30
0
10
9.4604621908030584
20
1.9636807659945585
30
0
10
9.5083541427894573
20
1.9554605874223483
30
0
10
9.5553334944788499
20
1.923639000634394
30
0
10
9.6015303439380641
20
1.8731211611354162
30
0
10
9.6470786599170246
20
1.8120818885726151
30
0
10
9.6921081903016173
20
1.7506548746443094
30
0
10
9.7367374261235735
20
1.6994449678522758
30
0
10
9.7810667661706319
20
1.6682181176133446
30
0
10
9.8251699297263997
20
1.6642542799793449
30
0
10
9.8690955389247836
20
1.6923210034676943
30
0
10
9.9128729815983512
20
1.7553062394680472
30
0
10
9.9477881023826171
20
1.8347718639611537
30
0
10
9.9739165612239731
20
1.910942114863744
30
0
10
9.9913098079795244
20
1.9690866363324468
30
0
10
10
20
2
30
0
0
ENDSEC
0
SECTION
2
OBJECTS
0
DICTIONARY
5
C
100
AcDbDictionary
3
ACAD_GROUP
350
D
3
ACAD_MLINESTYLE
350
17
0
DICTIONARY
5
D
100
AcDbDictionary
0
DICTIONARY
5
1A
330
C
100
AcDbDictionary
0
DICTIONARY
5
17
100
AcDbDictionary
0
ENDSEC
0
EOF
