0
SECTION
2
HEADER
9
$INSUNITS
70
4
9
$ACADVER
1
AC1014
9
$HANDSEED
5
FFFF
0
ENDSEC
0
SECTION
2
TABLES
0
TABLE
2
VPORT
5
8
100
AcDbSymbolTable
0
ENDTAB
0
TABLE
2
LTYPE
5
5
100
AcDbSymbolTable
0
LTYPE
5
14
100
AcDbSymbolTableRecord
100
AcDbLinetypeTableRecord
2
BYBLOCK
70
0
0
LTYPE
5
15
100
AcDbSymbolTableRecord
100
AcDbLinetypeTableRecord
2
BYLAYER
70
0
0
ENDTAB
0
TABLE
2
LAYER
5
2
100
AcDbSymbolTable
70
2
0
LAYER
5
50
100
AcDbSymbolTableRecord
100
AcDbLayerTableRecord
2
0
70
0
6
CONTINUOUS
0
ENDTAB
0
TABLE
2
STYLE
5
3
100
AcDbSymbolTable
70
1
0
STYLE
5
11
100
AcDbSymbolTableRecord
100
AcDbTextStyleTableRecord
2
STANDARD
70
0
0
ENDTAB
0
TABLE
2
VIEW
5
6
100
AcDbSymbolTable
70
0
0
ENDTAB
0
TABLE
2
UCS
5
7
100
AcDbSymbolTable
70
0
0
ENDTAB
0
TABLE
2
APPID
5
9
100
AcDbSymbolTable
70
2
0
APPID
5
12
100
AcDbSymbolTableRecord
100
AcDbRegAppTableRecord
2
ACAD
70
0
0
ENDTAB
0
TABLE
2
DIMSTYLE
5
A
100
AcDbSymbolTable
70
1
0
ENDTAB
0
TABLE
2
BLOCK_RECORD
5
1
100
AcDbSymbolTable
70
1
0
BLOCK_RECORD
5
1F
100
AcDbSymbolTableRecord
100
AcDbBlockTableRecord
2
*MODEL_SPACE
0
BLOCK_RECORD
5
1B
100
AcDbSymbolTableRecord
100
AcDbBlockTableRecord
2
*PAPER_SPACE
0
ENDTAB
0
ENDSEC
0
SECTION
2
BLOCKS
0
BLOCK
5
20
100
AcDbEntity
100
AcDbBlockBegin
2
*MODEL_SPACE
0
ENDBLK
5
21
100
AcDbEntity
100
AcDbBlockEnd
0
BLOCK
5
1C
100
AcDbEntity
100
AcDbBlockBegin
2
*PAPER_SPACE
0
ENDBLK
5
1D
100
AcDbEntity
100
AcDbBlockEnd
0
ENDSEC
0
SECTION
2
ENTITIES
0
SPLINE
5
100
100
AcDbEntity
8
0
100
AcDbSpline
70
4
71
5
72
16
73
10
74
0
42
0.000000001
43
0.0000000001
44
0.0000000001
40
0
40
0
40
0
40
0
40
0
40
0
40
0.20000000000000001
40
0.40000000000000002
40
0.60000000000000009
40
0.80000000000000004
40
1
40
1
40
1
40
1
40
1
40
1
41
1
41
1
41
1
41
1
41
1
41
1
41
1
41
1
41
1
41
1
10
0
20
0
30
0
10
0
20
0.080000000000033267
30
0
10
0
20
0.24000000000008476
30
0
10
0
20
0.48000000000011728
30
0
10
0
20
0.80000000000008786
30
0
10
0
20
1.2000000000000053
30
0
10
0
20
1.5199999999999583
30
0
10
0
20
1.7599999999999643
30
0
10
0
20
1.9199999999999853
30
0
10
0
20
2
30
0
0
SPLINE
5
101
100
AcDbEntity
8
0
100
AcDbSpline
70
4
71
5
72
16
73
10
74
0
42
0.000000001
43
0.0000000001
44
0.0000000001
40
0
40
0
40
0
40
0
40
0
40
0
40
0.20000000000000001
40
0.40000000000000002
40
0.60000000000000009
40
0.80000000000000004
40
1
40
1
40
1
40
1
40
1
40
1
41
1
41
1
41
1
41
1
41
1
41
1
41
1
41
1
41
1
41
1
10
10
20
0
30
0
10
9.9999999999997495
20
0.080000000000033267
30
0
10
9.9999999999993197
20
0.24000000000008476
30
0
10
9.9999999999989129
20
0.48000000000011728
30
0
10
9.9999999999987672
20
0.80000000000008786
30
0
10
9.9999999999990248
20
1.2000000000000053
30
0
10
9.9999999999993889
20
1.5199999999999583
30
0
10
9.9999999999996998
20
1.7599999999999643
30
0
10
9.9999999999999005
20
1.9199999999999853
30
0
10
10
20
2
30
0
0
SPLINE
5
102
100
AcDbEntity
8
0
100
AcDbSpline
70
4
71
5
72
16
73
10
74
0
42
0.000000001
43
0.0000000001
44
0.0000000001
40
0
40
0
40
0
40
0
40
0
40
0
40
0.20000000000000001
40
0.40000000000000002
40
0.60000000000000009
40
0.80000000000000004
40
1
40
1
40
1
40
1
40
1
40
1
41
1
41
1
41
1
41
1
41
1
41
1
41
1
41
1
41
1
41
1
10
0
20
1
30
0
10
0.40000000000047375
20
0.99999999999987343
30
0
10
1.2000000000012774
20
0.99999999999965183
30
0
10
2.4000000000020547
20
0.99999999999941747
30
0
10
4.0000000000023546
20
0.99999999999928091
30
0
10
6.0000000000019584
20
0.99999999999933376
30
0
10
7.6000000000012928
20
0.99999999999951594
30
0
10
8.800000000000697
20
0.99999999999972888
30
0
10
9.6000000000002395
20
0.99999999999990408
30
0
10
10
20
1
30
0
0
SPLINE
5
103
100
AcDbEntity
8
0
100
AcDbSpline
70
4
71
5
72
161
73
155
74
0
42
0.000000001
43
0.0000000001
44
0.0000000001
40
0
40
0
40
0
40
0
40
0
40
0
40
0.0066666666666666671
40
0.013333333333333334
40
0.02
40
0.026666666666666668
40
0.033333333333333333
40
0.040000000000000001
40
0.046666666666666669
40
0.053333333333333337
40
0.060000000000000005
40
0.066666666666666666
40
0.073333333333333334
40
0.080000000000000002
40
0.08666666666666667
40
0.093333333333333338
40
0.10000000000000001
40
0.10666666666666667
40
0.11333333333333334
40
0.12000000000000001
40
0.12666666666666668
40
0.13333333333333333
40
0.13999999999999999
40
0.14666666666666664
40
0.15333333333333329
40
0.15999999999999995
40
0.1666666666666666
40
0.17333333333333326
40
0.17999999999999991
40
0.18666666666666656
40
0.19333333333333322
40
0.19999999999999987
40
0.20666666666666653
40
0.21333333333333318
40
0.21999999999999983
40
0.22666666666666649
40
0.23333333333333314
40
0.2399999999999998
40
0.24666666666666645
40
0.25333333333333313
40
0.25999999999999979
40
0.26666666666666644
40
0.2733333333333331
40
0.27999999999999975
40
0.2866666666666664
40
0.29333333333333306
40
0.29999999999999971
40
0.30666666666666637
40
0.31333333333333302
40
0.31999999999999967
40
0.32666666666666633
40
0.33333333333333298
40
0.33999999999999964
40
0.34666666666666629
40
0.35333333333333294
40
0.3599999999999996
40
0.36666666666666625
40
0.37333333333333291
40
0.37999999999999956
40
0.38666666666666621
40
0.39333333333333287
40
0.39999999999999952
40
0.40666666666666618
40
0.41333333333333283
40
0.41999999999999948
40
0.42666666666666614
40
0.43333333333333279
40
0.43999999999999945
40
0.4466666666666661
40
0.45333333333333276
40
0.45999999999999941
40
0.46666666666666606
40
0.47333333333333272
40
0.47999999999999937
40
0.48666666666666603
40
0.49333333333333268
40
0.49999999999999933
40
0.50666666666666604
40
0.51333333333333275
40
0.51999999999999946
40
0.52666666666666617
40
0.53333333333333288
40
0.53999999999999959
40
0.5466666666666663
40
0.55333333333333301
40
0.55999999999999972
40
0.56666666666666643
40
0.57333333333333314
40
0.57999999999999985
40
0.58666666666666656
40
0.59333333333333327
40
0.59999999999999998
40
0.60666666666666669
40
0.6133333333333334
40
0.62000000000000011
40
0.62666666666666682
40
0.63333333333333353
40
0.64000000000000024
40
0.64666666666666694
40
0.65333333333333365
40
0.66000000000000036
40
0.66666666666666707
40
0.67333333333333378
40
0.68000000000000049
40
0.6866666666666672
40
0.69333333333333391
40
0.70000000000000062
40
0.70666666666666733
40
0.71333333333333404
40
0.72000000000000075
40
0.72666666666666746
40
0.73333333333333417
40
0.74000000000000088
40
0.74666666666666759
40
0.7533333333333343
40
0.76000000000000101
40
0.76666666666666772
40
0.77333333333333443
40
0.78000000000000114
40
0.78666666666666785
40
0.79333333333333456
40
0.80000000000000127
40
0.80666666666666798
40
0.81333333333333468
40
0.82000000000000139
40
0.8266666666666681
40
0.83333333333333481
40
0.84000000000000152
40
0.84666666666666823
40
0.85333333333333494
40
0.86000000000000165
40
0.86666666666666836
40
0.87333333333333507
40
0.88000000000000178
40
0.88666666666666849
40
0.8933333333333352
40
0.90000000000000191
40
0.90666666666666862
40
0.91333333333333533
40
0.92000000000000204
40
0.92666666666666875
40
0.93333333333333546
40
0.94000000000000217
40
0.94666666666666888
40
0.95333333333333559
40
0.9600000000000023
40
0.96666666666666901
40
0.97333333333333572
40
0.98000000000000242
40
0.98666666666666913
40
0.99333333333333584
40
1
40
1
40
1
40
1
40
1
40
1
41
1
41
1
41
1
41
1
41
1
41
1
41
1
41
1
41
1
41
1
41
1
41
1
41
1
41
1
41
1
41
1
41
1
41
1
41
1
41
1
41
1
41
1
41
1
41
1
41
1
41
1
41
1
41
1
41
1
41
1
41
1
41
1
41
1
41
1
41
1
41
1
41
1
41
1
41
1
41
1
41
1
41
1
41
1
41
1
41
1
41
1
41
1
41
1
41
1
41
1
41
1
41
1
41
1
41
1
41
1
41
1
41
1
41
1
41
1
41
1
41
1
41
1
41
1
41
1
41
1
41
1
41
1
41
1
41
1
41
1
41
1
41
1
41
1
41
1
41
1
41
1
41
1
41
1
41
1
41
1
41
1
41
1
41
1
41
1
41
1
41
1
41
1
41
1
41
1
41
1
41
1
41
1
41
1
41
1
41
1
41
1
41
1
41
1
41
1
41
1
41
1
41
1
41
1
41
1
41
1
41
1
41
1
41
1
41
1
41
1
41
1
41
1
41
1
41
1
41
1
41
1
41
1
41
1
41
1
41
1
41
1
41
1
41
1
41
1
41
1
41
1
41
1
41
1
41
1
41
1
41
1
41
1
41
1
41
1
41
1
41
1
41
1
41
1
41
1
41
1
41
1
41
1
41
1
41
1
41
1
41
1
41
1
41
1
41
1
41
1
41
1
41
1
41
1
41
1
41
1
10
0
20
0
30
0
10
0.01292178892305192
20
0.020922890538797482
30
0
10
0.038866828029358785
20
0.059651466997855222
30
0
10
0.078088771232663529
20
0.1083926838701566
30
0
10
0.13099350203199872
20
0.1546766182641196
30
0
10
0.19811307034607156
20
0.18214853968410769
30
0
10
0.26614265565586703
20
0.18162944501910344
30
0
10
0.33492485123612575
20
0.15790433354324271
30
0
10
0.40419650877226243
20
0.11897932121306845
30
0
10
0.47356388368468755
20
0.076816571706101566
30
0
10
0.54256541155698568
20
0.044560561936420252
30
0
10
0.61073316131268651
20
0.033775731794764258
30
0
10
0.67765360594572399
20
0.051807881638720202
30
0
10
0.74303141352292656
20
0.098793415033910245
30
0
10
0.80674397894432093
20
0.16570655102506091
30
0
10
0.86884569261168954
20
0.23836487484445767
30
0
10
0.92957653566596599
20
0.30066765309893517
30
0
10
0.98937266481480179
20
0.3382326532638088
30
0
10
1.0488678973532686
20
0.3416269080163436
30
0
10
1.1089208036631288
20
0.31039272851660882
30
0
10
1.1704519709210675
20
0.25143533214596359
30
0
10
1.2342505274852664
20
0.1763039823062047
30
0
10
1.3007763492549866
20
0.098798282411615923
30
0
10
1.3699975662366333
20
0.032569006465155211
30
0
10
1.4411298652010227
20
-0.011600578696864174
30
0
10
1.5127587116420858
20
-0.027035651954653048
30
0
10
1.5832840187004265
20
-0.011048523467314776
30
0
10
1.6512902158714684
20
0.034734255091056973
30
0
10
1.7159112919525545
20
0.10436465624857022
30
0
10
1.7772893517450346
20
0.18707727807523358
30
0
10
1.8363927506410906
20
0.26928633816946534
30
0
10
1.8946352411036258
20
0.33727878489722701
30
0
10
1.9535537608883295
20
0.37977334418103226
30
0
10
2.0144799589484848
20
0.39031945148970004
30
0
10
2.0781708542199393
20
0.37028374292557892
30
0
10
2.1445926999379155
20
0.32997656662116176
30
0
10
2.2132161566923574
20
0.2838339815196676
30
0
10
2.2832311296062708
20
0.24643688625755583
30
0
10
2.3537801106627603
20
0.22854405466957053
30
0
10
2.4242145037715925
20
0.23230521592814335
30
0
10
2.4942418218249371
20
0.24942862159175982
30
0
10
2.563780201743671
20
0.26687025186844804
30
0
10
2.6328641224977556
20
0.27133945580690144
30
0
10
2.7015407907558933
20
0.25373220515086153
30
0
10
2.7697438194450985
20
0.2149149357220736
30
0
10
2.8372824607060245
20
0.16570260134300793
30
0
10
2.9039453992316422
20
0.12120767257305443
30
0
10
2.9695779594082063
20
0.096507078772712349
30
0
10
3.034159305397961
20
0.10226842574747469
30
0
10
3.0979064585181608
20
0.13916902329787623
30
0
10
3.1612575970391745
20
0.19782765882181913
30
0
10
3.2247467665227565
20
0.26372698125714922
30
0
10
3.2889056241991401
20
0.32085981422137688
30
0
10
3.3541616824911298
20
0.35562183936646652
30
0
10
3.4207198534961849
20
0.36126161018915776
30
0
10
3.4885110479527546
20
0.33990882361483377
30
0
10
3.557291605633317
20
0.2991053205254452
30
0
10
3.6267134869835012
20
0.24939411416620755
30
0
10
3.6964019866964257
20
0.20165705402900391
30
0
10
3.7660401494426345
20
0.16414985147366712
30
0
10
3.8354141271686131
20
0.14115741834774392
30
0
10
3.9044002301091374
20
0.13401090025794998
30
0
10
3.9729678197085141
20
0.14151101384974571
30
0
10
4.0411730831046881
20
0.16059973318861362
30
0
10
4.1091634727576061
20
0.18690457120446177
30
0
10
4.177146949049698
20
0.21542557792526135
30
0
10
4.2453412333831713
20
0.24124463215323769
30
0
10
4.3139265579411203
20
0.26026611481112599
30
0
10
4.3830023867135735
20
0.26986573235897782
30
0
10
4.4525286227181331
20
0.26977997352102911
30
0
10
4.5223556280452728
20
0.26169537973908497
30
0
10
4.5922872226193245
20
0.24835924409273036
30
0
10
4.6621335740398075
20
0.2328382980734145
30
0
10
4.731766708515897
20
0.2177356695492616
30
0
10
4.8011792201227834
20
0.2043719959161116
30
0
10
4.8704485280939869
20
0.19314771302695016
30
0
10
4.9396941509780392
20
0.18399569673196792
30
0
10
5.0090385251071101
20
0.1767842904957134
30
0
10
5.0785640797926401
20
0.17177897337292558
30
0
10
5.148278486098655
20
0.16996975652490376
30
0
10
5.2181353498656522
20
0.17252382270318578
30
0
10
5.2880492866540649
20
0.18030068675707192
30
0
10
5.3579132433523444
20
0.19339490485394706
30
0
10
5.4276146119211752
20
0.21054432565111389
30
0
10
5.4970525339558911
20
0.22900892870309719
30
0
10
5.566154867005304
20
0.24534553869128711
30
0
10
5.6348972346756119
20
0.25600215201936494
30
0
10
5.7033170518927694
20
0.25795177232021771
30
0
10
5.7715399923978703
20
0.24938986117911985
30
0
10
5.8397590014788312
20
0.23006549544753421
30
0
10
5.908174506723963
20
0.20124647376132274
30
0
10
5.9769423792159504
20
0.1658357201180955
30
0
10
6.0461256892888393
20
0.12832309915105794
30
0
10
6.1156272550540969
20
0.09506673251051756
30
0
10
6.1852220179895898
20
0.073095844757096698
30
0
10
6.2546371920321029
20
0.068255360775984403
30
0
10
6.3236190661402727
20
0.083479279276317181
30
0
10
6.3920013550862
20
0.11718506246566986
30
0
10
6.4597834266155125
20
0.16115443904402554
30
0
10
6.5270951013453837
20
0.20338051554245512
30
0
10
6.5941433334255173
20
0.23165930247235011
30
0
10
6.6611648763932196
20
0.23699176378149239
30
0
10
6.7283774553093414
20
0.21690040087875329
30
0
10
6.7959288572174472
20
0.17923026619171278
30
0
10
6.8638943350424286
20
0.13793131653381602
30
0
10
6.9322781313697899
20
0.10816891121044032
30
0
10
7.0010135589296452
20
0.10170055821584767
30
0
10
7.069963491299502
20
0.12208750732761779
30
0
10
7.1389211336488483
20
0.16011645887827247
30
0
10
7.207644101126899
20
0.19951701041787162
30
0
10
7.2758884990679871
20
0.22265740296749406
30
0
10
7.3434419881596611
20
0.21602447982546519
30
0
10
7.4101596441010944
20
0.17631318087022088
30
0
10
7.4759916850136676
20
0.1147324190011009
30
0
10
7.5409603590370509
20
0.050173833617972598
30
0
10
7.6051425128794579
20
0.0036130352295294446
30
0
10
7.6686500623179104
20
-0.0079261875447407121
30
0
10
7.7316111945412427
20
0.022691102453615337
30
0
10
7.7941517626655523
20
0.086975238560237367
30
0
10
7.8564016093856024
20
0.16677093262512216
30
0
10
7.9184997683482976
20
0.23977053110663854
30
0
10
7.9806009203520727
20
0.28545201118074237
30
0
10
8.0428794288325349
20
0.29024542547469895
30
0
10
8.1055392214697299
20
0.25453498271422215
30
0
10
8.1687951238789278
20
0.19064201390555621
30
0
10
8.2328428441368278
20
0.11701995203631681
30
0
10
8.2978308402828578
20
0.053460127209893842
30
0
10
8.3638352771908693
20
0.016331411016684054
30
0
10
8.4308241521689098
20
0.012696390462187457
30
0
10
8.4986617007861724
20
0.039092914950878972
30
0
10
8.5671584308401414
20
0.085822092462071398
30
0
10
8.6361116463546033
20
0.13990095184227819
30
0
10
8.7053446951451523
20
0.18833585510420456
30
0
10
8.7747594298185856
20
0.22180526249466331
30
0
10
8.8443289952024813
20
0.23581650733458559
30
0
10
8.9140444540672323
20
0.22974580141347728
30
0
10
8.9838725883369932
20
0.20652267589462825
30
0
10
9.0537139487130514
20
0.17199197251962628
30
0
10
9.1233483180973014
20
0.13456414055534424
30
0
10
9.1924719611854471
20
0.1037163479043119
30
0
10
9.2607611629719475
20
0.088219382930109572
30
0
10
9.3279278270934523
20
0.0944209418909987
30
0
10
9.3937762508709497
20
0.124581396444707
30
0
10
9.4582651794111978
20
0.17498144080300193
30
0
10
9.5214739253420433
20
0.23743799737785642
30
0
10
9.5835605025229889
20
0.30108796319178915
30
0
10
9.6447214134672272
20
0.35413237745347881
30
0
10
9.7051536271172587
20
0.38546549329724245
30
0
10
9.7650083921257202
20
0.38668377502897766
30
0
10
9.8243839768478871
20
0.35231268386045056
30
0
10
9.8833403947335245
20
0.27902972209332766
30
0
10
9.9301939366160408
20
0.18796456230085537
30
0
10
9.9651633646051465
20
0.10117304114805947
30
0
10
9.9884004348540838
20
0.035094027549212925
30
0
10
10
20
0
30
0
0
SPLINE
5
104
100
AcDbEntity
8
0
100
AcDbSpline
70
4
71
5
72
161
73
155
74
0
42
0.000000001
43
0.0000000001
44
0.0000000001
40
0
40
0
40
0
40
0
40
0
40
0
40
0.0066666666666666671
40
0.013333333333333334
40
0.02
40
0.026666666666666668
40
0.033333333333333333
40
0.040000000000000001
40
0.046666666666666669
40
0.053333333333333337
40
0.060000000000000005
40
0.066666666666666666
40
0.073333333333333334
40
0.080000000000000002
40
0.08666666666666667
40
0.093333333333333338
40
0.10000000000000001
40
0.10666666666666667
40
0.11333333333333334
40
0.12000000000000001
40
0.12666666666666668
40
0.13333333333333333
40
0.13999999999999999
40
0.14666666666666664
40
0.15333333333333329
40
0.15999999999999995
40
0.1666666666666666
40
0.17333333333333326
40
0.17999999999999991
40
0.18666666666666656
40
0.19333333333333322
40
0.19999999999999987
40
0.20666666666666653
40
0.21333333333333318
40
0.21999999999999983
40
0.22666666666666649
40
0.23333333333333314
40
0.2399999999999998
40
0.24666666666666645
40
0.25333333333333313
40
0.25999999999999979
40
0.26666666666666644
40
0.2733333333333331
40
0.27999999999999975
40
0.2866666666666664
40
0.29333333333333306
40
0.29999999999999971
40
0.30666666666666637
40
0.31333333333333302
40
0.31999999999999967
40
0.32666666666666633
40
0.33333333333333298
40
0.33999999999999964
40
0.34666666666666629
40
0.35333333333333294
40
0.3599999999999996
40
0.36666666666666625
40
0.37333333333333291
40
0.37999999999999956
40
0.38666666666666621
40
0.39333333333333287
40
0.39999999999999952
40
0.40666666666666618
40
0.41333333333333283
40
0.41999999999999948
40
0.42666666666666614
40
0.43333333333333279
40
0.43999999999999945
40
0.4466666666666661
40
0.45333333333333276
40
0.45999999999999941
40
0.46666666666666606
40
0.47333333333333272
40
0.47999999999999937
40
0.48666666666666603
40
0.49333333333333268
40
0.49999999999999933
40
0.50666666666666604
40
0.51333333333333275
40
0.51999999999999946
40
0.52666666666666617
40
0.53333333333333288
40
0.53999999999999959
40
0.5466666666666663
40
0.55333333333333301
40
0.55999999999999972
40
0.56666666666666643
40
0.57333333333333314
40
0.57999999999999985
40
0.58666666666666656
40
0.59333333333333327
40
0.59999999999999998
40
0.60666666666666669
40
0.6133333333333334
40
0.62000000000000011
40
0.62666666666666682
40
0.63333333333333353
40
0.64000000000000024
40
0.64666666666666694
40
0.65333333333333365
40
0.66000000000000036
40
0.66666666666666707
40
0.67333333333333378
40
0.68000000000000049
40
0.6866666666666672
40
0.69333333333333391
40
0.70000000000000062
40
0.70666666666666733
40
0.71333333333333404
40
0.72000000000000075
40
0.72666666666666746
40
0.73333333333333417
40
0.74000000000000088
40
0.74666666666666759
40
0.7533333333333343
40
0.76000000000000101
40
0.76666666666666772
40
0.77333333333333443
40
0.78000000000000114
40
0.78666666666666785
40
0.79333333333333456
40
0.80000000000000127
40
0.80666666666666798
40
0.81333333333333468
40
0.82000000000000139
40
0.8266666666666681
40
0.83333333333333481
40
0.84000000000000152
40
0.84666666666666823
40
0.85333333333333494
40
0.86000000000000165
40
0.86666666666666836
40
0.87333333333333507
40
0.88000000000000178
40
0.88666666666666849
40
0.8933333333333352
40
0.90000000000000191
40
0.90666666666666862
40
0.91333333333333533
40
0.92000000000000204
40
0.92666666666666875
40
0.93333333333333546
40
0.94000000000000217
40
0.94666666666666888
40
0.95333333333333559
40
0.9600000000000023
40
0.96666666666666901
40
0.97333333333333572
40
0.98000000000000242
40
0.98666666666666913
40
0.99333333333333584
40
1
40
1
40
1
40
1
40
1
40
1
41
1
41
1
41
1
41
1
41
1
41
1
41
1
41
1
41
1
41
1
41
1
41
1
41
1
41
1
41
1
41
1
41
1
41
1
41
1
41
1
41
1
41
1
41
1
41
1
41
1
41
1
41
1
41
1
41
1
41
1
41
1
41
1
41
1
41
1
41
1
41
1
41
1
41
1
41
1
41
1
41
1
41
1
41
1
41
1
41
1
41
1
41
1
41
1
41
1
41
1
41
1
41
1
41
1
41
1
41
1
41
1
41
1
41
1
41
1
41
1
41
1
41
1
41
1
41
1
41
1
41
1
41
1
41
1
41
1
41
1
41
1
41
1
41
1
41
1
41
1
41
1
41
1
41
1
41
1
41
1
41
1
41
1
41
1
41
1
41
1
41
1
41
1
41
1
41
1
41
1
41
1
41
1
41
1
41
1
41
1
41
1
41
1
41
1
41
1
41
1
41
1
41
1
41
1
41
1
41
1
41
1
41
1
41
1
41
1
41
1
41
1
41
1
41
1
41
1
41
1
41
1
41
1
41
1
41
1
41
1
41
1
41
1
41
1
41
1
41
1
41
1
41
1
41
1
41
1
41
1
41
1
41
1
41
1
41
1
41
1
41
1
41
1
41
1
41
1
41
1
41
1
41
1
41
1
41
1
41
1
41
1
41
1
41
1
41
1
41
1
41
1
41
1
41
1
41
1
41
1
10
0
20
2
30
0
10
0.014364783283332338
20
2.0077294712380898
30
0
10
0.04297677763829913
20
2.0206663053464968
30
0
10
0.085542049394938938
20
2.0325050155161919
30
0
10
0.14159028170804996
20
2.0331576570017003
30
0
10
0.21048921871257514
20
2.0095540680611985
30
0
10
0.27827108012744123
20
1.9639804453515159
30
0
10
0.34502392101899032
20
1.9012828428563497
30
0
10
0.41089682993310006
20
1.8296817469130056
30
0
10
0.4761076949375081
20
1.7610974834448869
30
0
10
0.54090279767480209
20
1.7081700125118335
30
0
10
0.60552229706125749
20
1.6816792119211519
30
0
10
0.67016398828729329
20
1.6878546859482633
30
0
10
0.73494648712858146
20
1.7256262488794494
30
0
10
0.79987633112261225
20
1.7841965201056609
30
0
10
0.86490049359444288
20
1.8474999545966277
30
0
10
0.92995434739484961
20
1.89830115185322
30
0
10
0.9950123943364535
20
1.9225029803813105
30
0
10
1.0601353997205614
20
1.9131950804267497
30
0
10
1.1255256170897474
20
1.8752758721132841
30
0
10
1.191460036310493
20
1.8214342643063186
30
0
10
1.2582153830877487
20
1.7675325140214193
30
0
10
1.3259943669004459
20
1.7281134283258441
30
0
10
1.3948553436087878
20
1.7120673746527379
30
0
10
1.4646298771537638
20
1.7176608766239547
30
0
10
1.5349955299192715
20
1.7358968563055037
30
0
10
1.6055664173963597
20
1.7548357419656075
30
0
10
1.6759751967634116
20
1.7634451035178145
30
0
10
1.7459637091711422
20
1.7559395548227594
30
0
10
1.8154552120344916
20
1.7350645735725243
30
0
10
1.8845035766866347
20
1.7084736976469106
30
0
10
1.9532545508176267
20
1.6856849824196731
30
0
10
2.0219030279179648
20
1.6750490097523931
30
0
10
2.0906505992938906
20
1.6801607051898952
30
0
10
2.1596679411806559
20
1.6983162336200761
30
0
10
2.229073166815704
20
1.7235213409648806
30
0
10
2.2989035835725051
20
1.7486793186265237
30
0
10
2.369096951041505
20
1.7678672262274038
30
0
10
2.4394518758168986
20
1.7791559792681606
30
0
10
2.5096635365697626
20
1.7848797381603243
30
0
10
2.5794273309728926
20
1.7894104278636229
30
0
10
2.6485297449731524
20
1.7975529207515666
30
0
10
2.7169316935700438
20
1.8128362228906583
30
0
10
2.7848876412569519
20
1.8354671753712255
30
0
10
2.8528491980620716
20
1.8627905117826218
30
0
10
2.9212957494254987
20
1.8906454392089709
30
0
10
2.9905842163624357
20
1.9144466715811772
30
0
10
3.0608020461114687
20
1.9303294393353185
30
0
10
3.1315889477240506
20
1.9364020519068896
30
0
10
3.2023115556326562
20
1.9324270854801473
30
0
10
3.2722921795408251
20
1.9192624856877847
30
0
10
3.3410119454092375
20
1.8984003274581942
30
0
10
3.4083395077810912
20
1.8714376514518118
30
0
10
3.4747064449992426
20
1.8396539945139803
30
0
10
3.5408429300110047
20
1.8043755382801248
30
0
10
3.6075463604998914
20
1.7672876509677296
30
0
10
3.675446029861074
20
1.7307399953478642
30
0
10
3.7447494972917896
20
1.6981180574669719
30
0
10
3.8150547599884188
20
1.6740043129115481
30
0
10
3.8856270444310748
20
1.6629424260603689
30
0
10
3.9556367913876911
20
1.6682824685931419
30
0
10
4.0243933368348284
20
1.6911236076929079
30
0
10
4.0916260579178694
20
1.7289083858727277
30
0
10
4.1575913238623494
20
1.7751984589576777
30
0
10
4.2228451578396653
20
1.8216783748703891
30
0
10
4.288084159349685
20
1.8597172583755583
30
0
10
4.3539695911247716
20
1.8820126757197073
30
0
10
4.4209336747138641
20
1.8844259012279265
30
0
10
4.4890754258578891
20
1.8669901700745106
30
0
10
4.5582704088317962
20
1.8329304678538278
30
0
10
4.6282393846376673
20
1.7881181442138805
30
0
10
4.6986276047061484
20
1.7402919241142032
30
0
10
4.7690933285194124
20
1.6985265521612702
30
0
10
4.8393411292639792
20
1.6720582568070006
30
0
10
4.9090858242160502
20
1.6684749746802119
30
0
10
4.9780306177583498
20
1.6919365768875225
30
0
10
5.045847728979532
20
1.7416651209492839
30
0
10
5.1121372067389901
20
1.8096075939786214
30
0
10
5.1765031275703937
20
1.8821950732815949
30
0
10
5.2386803094756935
20
1.9439484286402746
30
0
10
5.298654466270925
20
1.9806347347863054
30
0
10
5.3567641095691778
20
1.9823060941083077
30
0
10
5.4138614371902536
20
1.9471283148304814
30
0
10
5.4712668660525043
20
1.8822561831819862
30
0
10
5.5304018710945027
20
1.8000832521561096
30
0
10
5.5925026946296512
20
1.7156171054242406
30
0
10
5.6582917074155334
20
1.6433489011746887
30
0
10
5.7276892988704899
20
1.5944613629962467
30
0
10
5.7994476584708963
20
1.5735640107307676
30
0
10
5.8716288807939847
20
1.5799555689264766
30
0
10
5.9421879939593918
20
1.6094026622537396
30
0
10
6.0095005644816961
20
1.6557014754341628
30
0
10
6.072955386164212
20
1.7124063884406262
30
0
10
6.1333974071731259
20
1.7742630103082919
30
0
10
6.1925156405974837
20
1.8367176728155765
30
0
10
6.2523485615983496
20
1.8956376658235086
30
0
10
6.3147208017399148
20
1.9469081954100089
30
0
10
6.3807636825668412
20
1.9861800489360129
30
0
10
6.4502595006653358
20
2.0083007650701439
30
0
10
6.5219120875093619
20
2.0084055036680137
30
0
10
6.5939454951176586
20
1.9835854864031146
30
0
10
6.6645991843648869
20
1.9343937271085034
30
0
10
6.7326569151854603
20
1.866360843148511
30
0
10
6.7979868044929823
20
1.7916652965061606
30
0
10
6.8612163799380008
20
1.725674475983582
30
0
10
6.923378415994117
20
1.6833798371650923
30
0
10
6.985555320239861
20
1.6756979753450234
30
0
10
7.0485527354826978
20
1.706223041325964
30
0
10
7.1124867437734496
20
1.7667619243273434
30
0
10
7.1769244614137575
20
1.8405157716126432
30
0
10
7.2411722715046123
20
1.9072613647780323
30
0
10
7.3045263913013292
20
1.9480857840818193
30
0
10
7.3665117690768955
20
1.9497949611755059
30
0
10
7.4271937560553418
20
1.9107309670777908
30
0
10
7.4871792344456134
20
1.8407568594147181
30
0
10
7.54734309891563
20
1.756105969934342
30
0
10
7.6086301568637813
20
1.6756458649292838
30
0
10
7.6718305737628665
20
1.616634682125665
30
0
10
7.7373561369081774
20
1.5905260435322046
30
0
10
7.8050460919992224
20
1.5992359515683028
30
0
10
7.8743622184405337
20
1.6377708498185042
30
0
10
7.9445577137539445
20
1.6963943319820047
30
0
10
8.0148499992471134
20
1.762932825521524
30
0
10
8.0846059233544292
20
1.8251053871768306
30
0
10
8.1534785952959847
20
1.8725816036314793
30
0
10
8.2213418492260857
20
1.8977077379676484
30
0
10
8.2882556107925307
20
1.8965170556084732
30
0
10
8.354418505587649
20
1.8694631444863279
30
0
10
8.4201276679859873
20
1.8226684724471418
30
0
10
8.4857300516760663
20
1.7676585423165099
30
0
10
8.5515633047593873
20
1.717861053014468
30
0
10
8.6178955933546426
20
1.685647046389251
30
0
10
8.6848720947116949
20
1.6793969733155392
30
0
10
8.7524437719117962
20
1.699983425172114
30
0
10
8.82035062399083
20
1.7393160296726853
30
0
10
8.8882514370740928
20
1.7846600685859921
30
0
10
8.9558324756372301
20
1.822023408795451
30
0
10
9.0229125559428915
20
1.8396440310128679
30
0
10
9.0895781873061878
20
1.8320732569288689
30
0
10
9.1562108496618162
20
1.8018703668680782
30
0
10
9.2233000185679863
20
1.756403008933155
30
0
10
9.2912950516894401
20
1.7056203204915663
30
0
10
9.3604564002204569
20
1.6596043293122609
30
0
10
9.4306712930945213
20
1.6258152876683731
30
0
10
9.5014099469967093
20
1.6078761108801047
30
0
10
9.5719051983634227
20
1.6069070161946877
30
0
10
9.6412844100339825
20
1.6222815232982855
30
0
10
9.7087097493132841
20
1.6525578646784989
30
0
10
9.7735418409260806
20
1.6964783798744334
30
0
10
9.8353654065850975
20
1.7532588995910978
30
0
10
9.8939280070215858
20
1.822405448092457
30
0
10
9.9380700185899773
20
1.8874230799403879
30
0
10
9.9696345841251919
20
1.9416044794069394
30
0
10
9.9899924004637839
20
1.9801334872345704
30
0
10
10
20
2
30
0
0
ENDSEC
0
SECTION
2
OBJECTS
0
DICTIONARY
5
C
100
AcDbDictionary
3
ACAD_GROUP
350
D
3
ACAD_MLINESTYLE
350
17
0
DICTIONARY
5
D
100
AcDbDictionary
0
DICTIONARY
5
1A
330
C
100
AcDbDictionary
0
DICTIONARY
5
17
100
AcDbDictionary
0
ENDSEC
0
EOF
