0
SECTION
2
HEADER
9
$INSUNITS
70
4
9
$ACADVER
1
AC1014
9
$HANDSEED
5
FFFF
0
ENDSEC
0
SECTION
2
TABLES
0
TABLE
2
VPORT
5
8
100
AcDbSymbolTable
0
ENDTAB
0
TABLE
2
LTYPE
5
5
100
AcDbSymbolTable
0
LTYPE
5
14
100
AcDbSymbolTableRecord
100
AcDbLinetypeTableRecord
2
BYBLOCK
70
0
0
LTYPE
5
15
100
AcDbSymbolTableRecord
100
AcDbLinetypeTableRecord
2
BYLAYER
70
0
0
ENDTAB
0
TABLE
2
LAYER
5
2
100
AcDbSymbolTable
70
2
0
LAYER
5
50
100
AcDbSymbolTableRecord
100
AcDbLayerTableRecord
2
0
70
0
6
CONTINUOUS
0
ENDTAB
0
TABLE
2
STYLE
5
3
100
AcDbSymbolTable
70
1
0
STYLE
5
11
100
AcDbSymbolTableRecord
100
AcDbTextStyleTableRecord
2
STANDARD
70
0
0
ENDTAB
0
TABLE
2
VIEW
5
6
100
AcDbSymbolTable
70
0
0
ENDTAB
0
TABLE
2
UCS
5
7
100
AcDbSymbolTable
70
0
0
ENDTAB
0
TABLE
2
APPID
5
9
100
AcDbSymbolTable
70
2
0
APPID
5
12
100
AcDbSymbolTableRecord
100
AcDbRegAppTableRecord
2
ACAD
70
0
0
ENDTAB
0
TABLE
2
DIMSTYLE
5
A
100
AcDbSymbolTable
70
1
0
ENDTAB
0
TABLE
2
BLOCK_RECORD
5
1
100
AcDbSymbolTable
70
1
0
BLOCK_RECORD
5
1F
100
AcDbSymbolTableRecord
100
AcDbBlockTableRecord
2
*MODEL_SPACE
0
BLOCK_RECORD
5
1B
100
AcDbSymbolTableRecord
100
AcDbBlockTableRecord
2
*PAPER_SPACE
0
ENDTAB
0
ENDSEC
0
SECTION
2
BLOCKS
0
BLOCK
5
20
100
AcDbEntity
100
AcDbBlockBegin
2
*MODEL_SPACE
0
ENDBLK
5
21
100
AcDbEntity
100
AcDbBlockEnd
0
BLOCK
5
1C
100
AcDbEntity
100
AcDbBlockBegin
2
*PAPER_SPACE
0
ENDBLK
5
1D
100
AcDbEntity
100
AcDbBlockEnd
0
ENDSEC
0
SECTION
2
ENTITIES
0
SPLINE
5
100
100
AcDbEntity
8
0
100
AcDbSpline
70
4
71
5
72
16
73
10
74
0
42
0.000000001
43
0.0000000001
44
0.0000000001
40
0
40
0
40
0
40
0
40
0
40
0
40
0.20000000000000001
40
0.40000000000000002
40
0.60000000000000009
40
0.80000000000000004
40
1
40
1
40
1
40
1
40
1
40
1
41
1
41
1
41
1
41
1
41
1
41
1
41
1
41
1
41
1
41
1
10
0
20
0
30
0
10
0
20
0.080000000000033267
30
0
10
0
20
0.24000000000008476
30
0
10
0
20
0.48000000000011728
30
0
10
0
20
0.80000000000008786
30
0
10
0
20
1.2000000000000053
30
0
10
0
20
1.5199999999999583
30
0
10
0
20
1.7599999999999643
30
0
10
0
20
1.9199999999999853
30
0
10
0
20
2
30
0
0
SPLINE
5
101
100
AcDbEntity
8
0
100
AcDbSpline
70
4
71
5
72
16
73
10
74
0
42
0.000000001
43
0.0000000001
44
0.0000000001
40
0
40
0
40
0
40
0
40
0
40
0
40
0.20000000000000001
40
0.40000000000000002
40
0.60000000000000009
40
0.80000000000000004
40
1
40
1
40
1
40
1
40
1
40
1
41
1
41
1
41
1
41
1
41
1
41
1
41
1
41
1
41
1
41
1
10
10
20
0
30
0
10
9.9999999999997495
20
0.080000000000033267
30
0
10
9.9999999999993197
20
0.24000000000008476
30
0
10
9.9999999999989129
20
0.48000000000011728
30
0
10
9.9999999999987672
20
0.80000000000008786
30
0
10
9.9999999999990248
20
1.2000000000000053
30
0
10
9.9999999999993889
20
1.5199999999999583
30
0
10
9.9999999999996998
20
1.7599999999999643
30
0
10
9.9999999999999005
20
1.9199999999999853
30
0
10
10
20
2
30
0
0
SPLINE
5
102
100
AcDbEntity
8
0
100
AcDbSpline
70
4
71
5
72
16
73
10
74
0
42
0.000000001
43
0.0000000001
44
0.0000000001
40
0
40
0
40
0
40
0
40
0
40
0
40
0.20000000000000001
40
0.40000000000000002
40
0.60000000000000009
40
0.80000000000000004
40
1
40
1
40
1
40
1
40
1
40
1
41
1
41
1
41
1
41
1
41
1
41
1
41
1
41
1
41
1
41
1
10
0
20
1
30
0
10
0.40000000000047375
20
0.99999999999987343
30
0
10
1.2000000000012774
20
0.99999999999965183
30
0
10
2.4000000000020547
20
0.99999999999941747
30
0
10
4.0000000000023546
20
0.99999999999928091
30
0
10
6.0000000000019584
20
0.99999999999933376
30
0
10
7.6000000000012928
20
0.99999999999951594
30
0
10
8.800000000000697
20
0.99999999999972888
30
0
10
9.6000000000002395
20
0.99999999999990408
30
0
10
10
20
1
30
0
0
SPLINE
5
103
100
AcDbEntity
8
0
100
AcDbSpline
70
4
71
5
72
211
73
205
74
0
42
0.000000001
43
0.0000000001
44
0.0000000001
40
0
40
0
40
0
40
0
40
0
40
0
40
0.0050000000000000001
40
0.01
40
0.014999999999999999
40
0.02
40
0.025000000000000001
40
0.030000000000000002
40
0.035000000000000003
40
0.040000000000000001
40
0.044999999999999998
40
0.049999999999999996
40
0.054999999999999993
40
0.059999999999999991
40
0.064999999999999988
40
0.069999999999999993
40
0.074999999999999997
40
0.080000000000000002
40
0.085000000000000006
40
0.090000000000000011
40
0.095000000000000015
40
0.10000000000000002
40
0.10500000000000002
40
0.11000000000000003
40
0.11500000000000003
40
0.12000000000000004
40
0.12500000000000003
40
0.13000000000000003
40
0.13500000000000004
40
0.14000000000000004
40
0.14500000000000005
40
0.15000000000000005
40
0.15500000000000005
40
0.16000000000000006
40
0.16500000000000006
40
0.17000000000000007
40
0.17500000000000007
40
0.18000000000000008
40
0.18500000000000008
40
0.19000000000000009
40
0.19500000000000009
40
0.20000000000000009
40
0.2050000000000001
40
0.2100000000000001
40
0.21500000000000011
40
0.22000000000000011
40
0.22500000000000012
40
0.23000000000000012
40
0.23500000000000013
40
0.24000000000000013
40
0.24500000000000013
40
0.25000000000000011
40
0.25500000000000012
40
0.26000000000000012
40
0.26500000000000012
40
0.27000000000000013
40
0.27500000000000013
40
0.28000000000000014
40
0.28500000000000014
40
0.29000000000000015
40
0.29500000000000015
40
0.30000000000000016
40
0.30500000000000016
40
0.31000000000000016
40
0.31500000000000017
40
0.32000000000000017
40
0.32500000000000018
40
0.33000000000000018
40
0.33500000000000019
40
0.34000000000000019
40
0.3450000000000002
40
0.3500000000000002
40
0.3550000000000002
40
0.36000000000000021
40
0.36500000000000021
40
0.37000000000000022
40
0.37500000000000022
40
0.38000000000000023
40
0.38500000000000023
40
0.39000000000000024
40
0.39500000000000024
40
0.40000000000000024
40
0.40500000000000025
40
0.41000000000000025
40
0.41500000000000026
40
0.42000000000000026
40
0.42500000000000027
40
0.43000000000000027
40
0.43500000000000028
40
0.44000000000000028
40
0.44500000000000028
40
0.45000000000000029
40
0.45500000000000029
40
0.4600000000000003
40
0.4650000000000003
40
0.47000000000000031
40
0.47500000000000031
40
0.48000000000000032
40
0.48500000000000032
40
0.49000000000000032
40
0.49500000000000033
40
0.50000000000000033
40
0.50500000000000034
40
0.51000000000000034
40
0.51500000000000035
40
0.52000000000000035
40
0.52500000000000036
40
0.53000000000000036
40
0.53500000000000036
40
0.54000000000000037
40
0.54500000000000037
40
0.55000000000000038
40
0.55500000000000038
40
0.56000000000000039
40
0.56500000000000039
40
0.5700000000000004
40
0.5750000000000004
40
0.5800000000000004
40
0.58500000000000041
40
0.59000000000000041
40
0.59500000000000042
40
0.60000000000000042
40
0.60500000000000043
40
0.61000000000000043
40
0.61500000000000044
40
0.62000000000000044
40
0.62500000000000044
40
0.63000000000000045
40
0.63500000000000045
40
0.64000000000000046
40
0.64500000000000046
40
0.65000000000000047
40
0.65500000000000047
40
0.66000000000000048
40
0.66500000000000048
40
0.67000000000000048
40
0.67500000000000049
40
0.68000000000000049
40
0.6850000000000005
40
0.6900000000000005
40
0.69500000000000051
40
0.70000000000000051
40
0.70500000000000052
40
0.71000000000000052
40
0.71500000000000052
40
0.72000000000000053
40
0.72500000000000053
40
0.73000000000000054
40
0.73500000000000054
40
0.74000000000000055
40
0.74500000000000055
40
0.75000000000000056
40
0.75500000000000056
40
0.76000000000000056
40
0.76500000000000057
40
0.77000000000000057
40
0.77500000000000058
40
0.78000000000000058
40
0.78500000000000059
40
0.79000000000000059
40
0.7950000000000006
40
0.8000000000000006
40
0.8050000000000006
40
0.81000000000000061
40
0.81500000000000061
40
0.82000000000000062
40
0.82500000000000062
40
0.83000000000000063
40
0.83500000000000063
40
0.84000000000000064
40
0.84500000000000064
40
0.85000000000000064
40
0.85500000000000065
40
0.86000000000000065
40
0.86500000000000066
40
0.87000000000000066
40
0.87500000000000067
40
0.88000000000000067
40
0.88500000000000068
40
0.89000000000000068
40
0.89500000000000068
40
0.90000000000000069
40
0.90500000000000069
40
0.9100000000000007
40
0.9150000000000007
40
0.92000000000000071
40
0.92500000000000071
40
0.93000000000000071
40
0.93500000000000072
40
0.94000000000000072
40
0.94500000000000073
40
0.95000000000000073
40
0.95500000000000074
40
0.96000000000000074
40
0.96500000000000075
40
0.97000000000000075
40
0.97500000000000075
40
0.98000000000000076
40
0.98500000000000076
40
0.99000000000000077
40
0.99500000000000077
40
1
40
1
40
1
40
1
40
1
40
1
41
1
41
1
41
1
41
1
41
1
41
1
41
1
41
1
41
1
41
1
41
1
41
1
41
1
41
1
41
1
41
1
41
1
41
1
41
1
41
1
41
1
41
1
41
1
41
1
41
1
41
1
41
1
41
1
41
1
41
1
41
1
41
1
41
1
41
1
41
1
41
1
41
1
41
1
41
1
41
1
41
1
41
1
41
1
41
1
41
1
41
1
41
1
41
1
41
1
41
1
41
1
41
1
41
1
41
1
41
1
41
1
41
1
41
1
41
1
41
1
41
1
41
1
41
1
41
1
41
1
41
1
41
1
41
1
41
1
41
1
41
1
41
1
41
1
41
1
41
1
41
1
41
1
41
1
41
1
41
1
41
1
41
1
41
1
41
1
41
1
41
1
41
1
41
1
41
1
41
1
41
1
41
1
41
1
41
1
41
1
41
1
41
1
41
1
41
1
41
1
41
1
41
1
41
1
41
1
41
1
41
1
41
1
41
1
41
1
41
1
41
1
41
1
41
1
41
1
41
1
41
1
41
1
41
1
41
1
41
1
41
1
41
1
41
1
41
1
41
1
41
1
41
1
41
1
41
1
41
1
41
1
41
1
41
1
41
1
41
1
41
1
41
1
41
1
41
1
41
1
41
1
41
1
41
1
41
1
41
1
41
1
41
1
41
1
41
1
41
1
41
1
41
1
41
1
41
1
41
1
41
1
41
1
41
1
41
1
41
1
41
1
41
1
41
1
41
1
41
1
41
1
41
1
41
1
41
1
41
1
41
1
41
1
41
1
41
1
41
1
41
1
41
1
41
1
41
1
41
1
41
1
41
1
41
1
41
1
41
1
41
1
41
1
41
1
41
1
41
1
41
1
41
1
41
1
41
1
41
1
41
1
41
1
41
1
41
1
41
1
41
1
41
1
41
1
41
1
41
1
10
0
20
0
30
0
10
0.0087226048831076514
20
0.03299686672562796
30
0
10
0.026212960795181935
20
0.094829678527102237
30
0
10
0.052583930012018477
20
0.17509628124228835
30
0
10
0.088016130805675816
20
0.25715087185564206
30
0
10
0.13274965224571442
20
0.3187194798239058
30
0
10
0.17790210050185573
20
0.34111331856740751
30
0
10
0.22342382680317724
20
0.3280324784159262
30
0
10
0.26923387127318543
20
0.28556035341290792
30
0
10
0.31520625199852892
20
0.22304585642776459
30
0
10
0.36118244439551056
20
0.15271518836482378
30
0
10
0.40702081835428866
20
0.087497347574949091
30
0
10
0.45263668206577151
20
0.039295471518506944
30
0
10
0.49804692228966108
20
0.017057631586771389
30
0
10
0.54341085682851031
20
0.024979837128910994
30
0
10
0.5890776654216564
20
0.060524663536605475
30
0
10
0.63548884231751845
20
0.1163745849530308
30
0
10
0.68307809440507861
20
0.18250137805547534
30
0
10
0.73216590209179166
20
0.24826693984900544
30
0
10
0.78287057570447394
20
0.30434229823058578
30
0
10
0.83497624156820804
20
0.34512955500447551
30
0
10
0.88800112186967328
20
0.3688147187194899
30
0
10
0.9413675087080926
20
0.3761991726216854
30
0
10
0.9945431120769368
20
0.36990267502864671
30
0
10
1.0471872662581596
20
0.3534355229614311
30
0
10
1.099313782123301
20
0.33026575944615782
30
0
10
1.1511878484845492
20
0.30374113258056051
30
0
10
1.2031911403270319
20
0.27712767515671866
30
0
10
1.2557012466079853
20
0.25359119671127484
30
0
10
1.3089584552927658
20
0.23623616079450621
30
0
10
1.3629569794477141
20
0.2280274423366731
30
0
10
1.4175250808826889
20
0.23097092471148839
30
0
10
1.4723909979328469
20
0.24526083750764438
30
0
10
1.5272498568039896
20
0.2686371438173637
30
0
10
1.5818408039858984
20
0.29517632916333081
30
0
10
1.6359779343279122
20
0.31618647602429972
30
0
10
1.6895327365985326
20
0.32317419601071473
30
0
10
1.7424296029930852
20
0.31035415887006035
30
0
10
1.7946362434345313
20
0.27712165518606918
30
0
10
1.8461556720866299
20
0.23112860484474551
30
0
10
1.8970237362556188
20
0.18516638486794829
30
0
10
1.9473080606017965
20
0.15305772076806407
30
0
10
1.9971065902706222
20
0.14584138705036154
30
0
10
2.046546027952211
20
0.16796185481826337
30
0
10
2.0957810755268826
20
0.21310962589437121
30
0
10
2.1449769392939051
20
0.26807313498225244
30
0
10
2.1942911867194224
20
0.31701976867113041
30
0
10
2.2438551725903926
20
0.34571798482096594
30
0
10
2.2937571676162101
20
0.34555952546881435
30
0
10
2.3440207082408202
20
0.31826541264217251
30
0
10
2.3946331497802054
20
0.27312331170607657
30
0
10
2.445580267520409
20
0.22327712936639554
30
0
10
2.4968794677631232
20
0.18232158442846502
30
0
10
2.5486118541394784
20
0.16084219513688142
30
0
10
2.6009596429760897
20
0.16277890533396144
30
0
10
2.6541064257378251
20
0.1866194702947912
30
0
10
2.7081234277304675
20
0.22688097921675981
30
0
10
2.7628726529373315
20
0.27548063969690806
30
0
10
2.8178753846461135
20
0.32316364053602076
30
0
10
2.8722798714724589
20
0.36086787145374249
30
0
10
2.9251483733537862
20
0.3808442243355441
30
0
10
2.9757072999459684
20
0.37790455464628159
30
0
10
3.0235799913662205
20
0.35043258267548161
30
0
10
3.0691042207438626
20
0.30195085672222827
30
0
10
3.113313772746201
20
0.24068757620780495
30
0
10
3.1575592448526644
20
0.17703387164109552
30
0
10
3.2032236237245595
20
0.12155163624205131
30
0
10
3.2514029422892188
20
0.082782966601121888
30
0
10
3.3025930867732951
20
0.065083220898212196
30
0
10
3.3563981205443802
20
0.066611885024038656
30
0
10
3.4118748327210406
20
0.081687969669561392
30
0
10
3.4678660775328614
20
0.10308227695358317
30
0
10
3.5233112107600868
20
0.12412242792206181
30
0
10
3.5776309510124147
20
0.14138028743263065
30
0
10
3.6308481330917024
20
0.15531012818922885
30
0
10
3.6833358732122932
20
0.16804348538952532
30
0
10
3.7356516045046453
20
0.18178063293668983
30
0
10
3.7883473624700232
20
0.19715090067156676
30
0
10
3.8417624323209347
20
0.21105159119152483
30
0
10
3.8959933621048473
20
0.21801109707568966
30
0
10
3.9509313515132587
20
0.21289925857369008
30
0
10
4.0062787466395076
20
0.19309691687239533
30
0
10
4.0615706607951081
20
0.16110940234828192
30
0
10
4.1162044744762003
20
0.12636852020474865
30
0
10
4.1695602803780698
20
0.1012318826036205
30
0
10
4.221118504138162
20
0.097300716295639134
30
0
10
4.2705666668475315
20
0.12200093344820626
30
0
10
4.3179394521880701
20
0.17413268514675923
30
0
10
4.3636421966759222
20
0.24314354513384748
30
0
10
4.40830237041886
20
0.31393084539639676
30
0
10
4.452662961076796
20
0.37028923478000364
30
0
10
4.4974580428678399
20
0.39894947351490634
30
0
10
4.5432980843782245
20
0.39326196528008972
30
0
10
4.5905453032283559
20
0.35731218930450814
30
0
10
4.6393503876583733
20
0.30240859491889088
30
0
10
4.6896961571011282
20
0.24327550085856878
30
0
10
4.7414390549140331
20
0.1942538701439202
30
0
10
4.7943507236012097
20
0.1657255549744609
30
0
10
4.8481616551896671
20
0.15984381088806388
30
0
10
4.9025833995781989
20
0.17234327730069426
30
0
10
4.9573267816987068
20
0.19546861000448237
30
0
10
5.0121217437852286
20
0.22041697795351214
30
0
10
5.066735992976473
20
0.24020392946252178
30
0
10
5.1209955065815471
20
0.25167353698000194
30
0
10
5.1748055967919839
20
0.25456003345195555
30
0
10
5.2281763742746996
20
0.25102683116360153
30
0
10
5.2812372326234982
20
0.24496307221020672
30
0
10
5.3342788302586186
20
0.24152250508173823
30
0
10
5.3876812435801149
20
0.24594076490504904
30
0
10
5.4417651916312257
20
0.26191206658782873
30
0
10
5.4966638584869187
20
0.29006309975547867
30
0
10
5.5521910641451555
20
0.3264562496305885
30
0
10
5.6076976174958482
20
0.36088716052619657
30
0
10
5.6622798083865113
20
0.38045009763474225
30
0
10
5.7150164527750675
20
0.37357214304449521
30
0
10
5.7651799928502818
20
0.3335498585980185
30
0
10
5.8124949088297093
20
0.26306289248147352
30
0
10
5.8572584171693309
20
0.17578904145097857
30
0
10
5.9001178875107598
20
0.090719523737465252
30
0
10
5.941917634334235
20
0.027998993377668605
30
0
10
5.98351108128234
20
0.0039063774793333898
30
0
10
6.0256041758659933
20
0.026788683457518538
30
0
10
6.0685440328721683
20
0.091111006264048985
30
0
10
6.1123243499948803
20
0.17920823670430291
30
0
10
6.1567246154689865
20
0.26783535310604967
30
0
10
6.2014081759339508
20
0.33321904962018556
30
0
10
6.2460391138568401
20
0.35684200010682632
30
0
10
6.2903867583976538
20
0.33064770256714665
30
0
10
6.3344470524987102
20
0.26320894988618521
30
0
10
6.3783772894968038
20
0.17442439043334726
30
0
10
6.4224157218919355
20
0.089287938617593654
30
0
10
6.4668042110397028
20
0.031806998500755648
30
0
10
6.5117149411727215
20
0.019272698675944704
30
0
10
6.5571625626333692
20
0.055383150154883633
30
0
10
6.6029632563206988
20
0.12701538289667602
30
0
10
6.6488352937527404
20
0.21197336919855991
30
0
10
6.6944728505895128
20
0.28466534394164555
30
0
10
6.7396337586978277
20
0.32285303017804556
30
0
10
6.7842134958968696
20
0.31335416148509715
30
0
10
6.8283453384793145
20
0.25972072955083542
30
0
10
6.872350689314203
20
0.17862928203525175
30
0
10
6.9166472975297824
20
0.093110167952206835
30
0
10
6.9616701707961424
20
0.026710816585768241
30
0
10
7.0077903711859779
20
-0.0024506899409653029
30
0
10
7.0552271340091828
20
0.011747031361623713
30
0
10
7.1039855233627067
20
0.05912262329542313
30
0
10
7.153928859381077
20
0.12068162600737281
30
0
10
7.2048344190483116
20
0.17468431425339701
30
0
10
7.2564540686845111
20
0.20304755497687374
30
0
10
7.3085764030051248
20
0.1981122989215264
30
0
10
7.3610777492575021
20
0.16778515651563886
30
0
10
7.4138837874970633
20
0.128313332711332
30
0
10
7.4669385339637468
20
0.097994715332828511
30
0
10
7.5201738359579426
20
0.091143455700025106
30
0
10
7.5734706865972923
20
0.11048242056166485
30
0
10
7.6266514524308482
20
0.14525577950154261
30
0
10
7.6795235072195265
20
0.17885801513543609
30
0
10
7.7319132369372232
20
0.19459965292940978
30
0
10
7.7836992225754482
20
0.18153074499806129
30
0
10
7.8348575033321932
20
0.14196729419340162
30
0
10
7.8854433025641679
20
0.089646162156013343
30
0
10
7.9355405509375956
20
0.042969318797972736
30
0
10
7.9852182474100175
20
0.019521379271006386
30
0
10
8.0344911837652759
20
0.030647437729759273
30
0
10
8.083260571205054
20
0.074512303218589759
30
0
10
8.1313644357460468
20
0.1381795580428358
30
0
10
8.1786701406551092
20
0.20340097292978526
30
0
10
8.2251601126904941
20
0.25141826099350983
30
0
10
8.2710052385219228
20
0.26769760140330878
30
0
10
8.3166806180286716
20
0.24786194376558993
30
0
10
8.362924819800245
20
0.19872968434378188
30
0
10
8.410515347842404
20
0.13339918676097209
30
0
10
8.4600839565647199
20
0.067787820692926576
30
0
10
8.5119319613537296
20
0.016762677103642626
30
0
10
8.5658070077162325
20
-0.0099880791095816896
30
0
10
8.6208151093913941
20
-0.010626024225269216
30
0
10
8.6757884818710522
20
0.011516818407867443
30
0
10
8.7295950260414958
20
0.049782820632810823
30
0
10
8.7814357526987035
20
0.096245454340441655
30
0
10
8.8312336619168832
20
0.14396187800444321
30
0
10
8.8795888990575378
20
0.18781904192723795
30
0
10
8.9274531537917685
20
0.22437581386399327
30
0
10
8.9758777479935699
20
0.25204305269648225
30
0
10
9.0257551352548866
20
0.27105079918354757
30
0
10
9.0775046090022613
20
0.28368736394187188
30
0
10
9.1310196384581648
20
0.29369529464717858
30
0
10
9.1858626532961729
20
0.30495441639226956
30
0
10
9.2413928185881424
20
0.32031729044194851
30
0
10
9.2969166690671958
20
0.34047862974968318
30
0
10
9.3518408733581104
20
0.36257692326144664
30
0
10
9.4057090547188942
20
0.3814060611716813
30
0
10
9.458216726426155
20
0.39111556716077517
30
0
10
9.5092320670343451
20
0.38667852973539757
30
0
10
9.5588189023432957
20
0.36559773319651606
30
0
10
9.6072448930625143
20
0.32909016169807692
30
0
10
9.6549075264197253
20
0.28081796768528205
30
0
10
9.7022709889505663
20
0.22593442682335374
30
0
10
9.7497988054054865
20
0.17000798137608941
30
0
10
9.7978883174771738
20
0.1179988039230179
30
0
10
9.8468042723373159
20
0.07321137729068046
30
0
10
9.8967054062115132
20
0.037627617950399157
30
0
10
9.9374778646858228
20
0.017315358024543169
30
0
10
9.9685480553117785
20
0.0068163105964354565
30
0
10
9.9894796609054239
20
0.0019213665791049854
30
0
10
10
20
0
30
0
0
SPLINE
5
104
100
AcDbEntity
8
0
100
AcDbSpline
70
4
71
5
72
211
73
205
74
0
42
0.000000001
43
0.0000000001
44
0.0000000001
40
0
40
0
40
0
40
0
40
0
40
0
40
0.0050000000000000001
40
0.01
40
0.014999999999999999
40
0.02
40
0.025000000000000001
40
0.030000000000000002
40
0.035000000000000003
40
0.040000000000000001
40
0.044999999999999998
40
0.049999999999999996
40
0.054999999999999993
40
0.059999999999999991
40
0.064999999999999988
40
0.069999999999999993
40
0.074999999999999997
40
0.080000000000000002
40
0.085000000000000006
40
0.090000000000000011
40
0.095000000000000015
40
0.10000000000000002
40
0.10500000000000002
40
0.11000000000000003
40
0.11500000000000003
40
0.12000000000000004
40
0.12500000000000003
40
0.13000000000000003
40
0.13500000000000004
40
0.14000000000000004
40
0.14500000000000005
40
0.15000000000000005
40
0.15500000000000005
40
0.16000000000000006
40
0.16500000000000006
40
0.17000000000000007
40
0.17500000000000007
40
0.18000000000000008
40
0.18500000000000008
40
0.19000000000000009
40
0.19500000000000009
40
0.20000000000000009
40
0.2050000000000001
40
0.2100000000000001
40
0.21500000000000011
40
0.22000000000000011
40
0.22500000000000012
40
0.23000000000000012
40
0.23500000000000013
40
0.24000000000000013
40
0.24500000000000013
40
0.25000000000000011
40
0.25500000000000012
40
0.26000000000000012
40
0.26500000000000012
40
0.27000000000000013
40
0.27500000000000013
40
0.28000000000000014
40
0.28500000000000014
40
0.29000000000000015
40
0.29500000000000015
40
0.30000000000000016
40
0.30500000000000016
40
0.31000000000000016
40
0.31500000000000017
40
0.32000000000000017
40
0.32500000000000018
40
0.33000000000000018
40
0.33500000000000019
40
0.34000000000000019
40
0.3450000000000002
40
0.3500000000000002
40
0.3550000000000002
40
0.36000000000000021
40
0.36500000000000021
40
0.37000000000000022
40
0.37500000000000022
40
0.38000000000000023
40
0.38500000000000023
40
0.39000000000000024
40
0.39500000000000024
40
0.40000000000000024
40
0.40500000000000025
40
0.41000000000000025
40
0.41500000000000026
40
0.42000000000000026
40
0.42500000000000027
40
0.43000000000000027
40
0.43500000000000028
40
0.44000000000000028
40
0.44500000000000028
40
0.45000000000000029
40
0.45500000000000029
40
0.4600000000000003
40
0.4650000000000003
40
0.47000000000000031
40
0.47500000000000031
40
0.48000000000000032
40
0.48500000000000032
40
0.49000000000000032
40
0.49500000000000033
40
0.50000000000000033
40
0.50500000000000034
40
0.51000000000000034
40
0.51500000000000035
40
0.52000000000000035
40
0.52500000000000036
40
0.53000000000000036
40
0.53500000000000036
40
0.54000000000000037
40
0.54500000000000037
40
0.55000000000000038
40
0.55500000000000038
40
0.56000000000000039
40
0.56500000000000039
40
0.5700000000000004
40
0.5750000000000004
40
0.5800000000000004
40
0.58500000000000041
40
0.59000000000000041
40
0.59500000000000042
40
0.60000000000000042
40
0.60500000000000043
40
0.61000000000000043
40
0.61500000000000044
40
0.62000000000000044
40
0.62500000000000044
40
0.63000000000000045
40
0.63500000000000045
40
0.64000000000000046
40
0.64500000000000046
40
0.65000000000000047
40
0.65500000000000047
40
0.66000000000000048
40
0.66500000000000048
40
0.67000000000000048
40
0.67500000000000049
40
0.68000000000000049
40
0.6850000000000005
40
0.6900000000000005
40
0.69500000000000051
40
0.70000000000000051
40
0.70500000000000052
40
0.71000000000000052
40
0.71500000000000052
40
0.72000000000000053
40
0.72500000000000053
40
0.73000000000000054
40
0.73500000000000054
40
0.74000000000000055
40
0.74500000000000055
40
0.75000000000000056
40
0.75500000000000056
40
0.76000000000000056
40
0.76500000000000057
40
0.77000000000000057
40
0.77500000000000058
40
0.78000000000000058
40
0.78500000000000059
40
0.79000000000000059
40
0.7950000000000006
40
0.8000000000000006
40
0.8050000000000006
40
0.81000000000000061
40
0.81500000000000061
40
0.82000000000000062
40
0.82500000000000062
40
0.83000000000000063
40
0.83500000000000063
40
0.84000000000000064
40
0.84500000000000064
40
0.85000000000000064
40
0.85500000000000065
40
0.86000000000000065
40
0.86500000000000066
40
0.87000000000000066
40
0.87500000000000067
40
0.88000000000000067
40
0.88500000000000068
40
0.89000000000000068
40
0.89500000000000068
40
0.90000000000000069
40
0.90500000000000069
40
0.9100000000000007
40
0.9150000000000007
40
0.92000000000000071
40
0.92500000000000071
40
0.93000000000000071
40
0.93500000000000072
40
0.94000000000000072
40
0.94500000000000073
40
0.95000000000000073
40
0.95500000000000074
40
0.96000000000000074
40
0.96500000000000075
40
0.97000000000000075
40
0.97500000000000075
40
0.98000000000000076
40
0.98500000000000076
40
0.99000000000000077
40
0.99500000000000077
40
1
40
1
40
1
40
1
40
1
40
1
41
1
41
1
41
1
41
1
41
1
41
1
41
1
41
1
41
1
41
1
41
1
41
1
41
1
41
1
41
1
41
1
41
1
41
1
41
1
41
1
41
1
41
1
41
1
41
1
41
1
41
1
41
1
41
1
41
1
41
1
41
1
41
1
41
1
41
1
41
1
41
1
41
1
41
1
41
1
41
1
41
1
41
1
41
1
41
1
41
1
41
1
41
1
41
1
41
1
41
1
41
1
41
1
41
1
41
1
41
1
41
1
41
1
41
1
41
1
41
1
41
1
41
1
41
1
41
1
41
1
41
1
41
1
41
1
41
1
41
1
41
1
41
1
41
1
41
1
41
1
41
1
41
1
41
1
41
1
41
1
41
1
41
1
41
1
41
1
41
1
41
1
41
1
41
1
41
1
41
1
41
1
41
1
41
1
41
1
41
1
41
1
41
1
41
1
41
1
41
1
41
1
41
1
41
1
41
1
41
1
41
1
41
1
41
1
41
1
41
1
41
1
41
1
41
1
41
1
41
1
41
1
41
1
41
1
41
1
41
1
41
1
41
1
41
1
41
1
41
1
41
1
41
1
41
1
41
1
41
1
41
1
41
1
41
1
41
1
41
1
41
1
41
1
41
1
41
1
41
1
41
1
41
1
41
1
41
1
41
1
41
1
41
1
41
1
41
1
41
1
41
1
41
1
41
1
41
1
41
1
41
1
41
1
41
1
41
1
41
1
41
1
41
1
41
1
41
1
41
1
41
1
41
1
41
1
41
1
41
1
41
1
41
1
41
1
41
1
41
1
41
1
41
1
41
1
41
1
41
1
41
1
41
1
41
1
41
1
41
1
41
1
41
1
41
1
41
1
41
1
41
1
41
1
41
1
41
1
41
1
41
1
41
1
41
1
41
1
41
1
41
1
41
1
41
1
41
1
41
1
10
0
20
2
30
0
10
0.010244462598466232
20
1.9998753226269197
30
0
10
0.030719861286566195
20
1.9987259359854923
30
0
10
0.061392376283833566
20
1.9943016904027331
30
0
10
0.10220792398876244
20
1.9830027515169546
30
0
10
0.15310481036091317
20
1.9602873015606832
30
0
10
0.2039177997449185
20
1.9302180140448519
30
0
10
0.25472322723316543
20
1.8952526917094175
30
0
10
0.30565052364262002
20
1.8595328540431004
30
0
10
0.35688763094579407
20
1.8291469221871117
30
0
10
0.40859359145742724
20
1.8104439707696618
30
0
10
0.46081304694368691
20
1.8084270111234033
30
0
10
0.51340023562914405
20
1.825251740768767
30
0
10
0.56591485759189153
20
1.8583605959534535
30
0
10
0.61760520355608772
20
1.8997734774378683
30
0
10
0.66765376726636072
20
1.9389116418038477
30
0
10
0.71538436114429993
20
1.9648637580084192
30
0
10
0.76046973711741228
20
1.9687556163218569
30
0
10
0.80317372841239543
20
1.9463500267541158
30
0
10
0.8444713181777963
20
1.899702602250565
30
0
10
0.88569701755101649
20
1.8351460359378955
30
0
10
0.92827533714243193
20
1.7618700296002385
30
0
10
0.9734031733407017
20
1.6902388895184315
30
0
10
1.0217891999570117
20
1.6302881902145983
30
0
10
1.0732790951665663
20
1.5899798784334211
30
0
10
1.1268652543972868
20
1.5741884658435459
30
0
10
1.1811392193515744
20
1.5845844508352505
30
0
10
1.2346457096095136
20
1.619210969237606
30
0
10
1.286242806521356
20
1.6723509827063952
30
0
10
1.3355449094388003
20
1.733850156531773
30
0
10
1.3828528150095765
20
1.7909872900152637
30
0
10
1.4288670056096453
20
1.8312990666218729
30
0
10
1.4744628853354254
20
1.8452619670285995
30
0
10
1.5204587609225331
20
1.8286697647851093
30
0
10
1.5673417672339496
20
1.7860303063389174
30
0
10
1.6151793796923231
20
1.7302411500463355
30
0
10
1.6637713607533589
20
1.6776521080069253
30
0
10
1.7127419021462409
20
1.644179732332161
30
0
10
1.7616525417357722
20
1.6412543432388045
30
0
10
1.8101144777535896
20
1.6712212241893982
30
0
10
1.8578753241792747
20
1.7248961002107901
30
0
10
1.904801656302888
20
1.7868218231238775
30
0
10
1.9508789518474134
20
1.8392156435993261
30
0
10
1.9962051790485555
20
1.8665048574105259
30
0
10
2.0409859731156317
20
1.8594403115708593
30
0
10
2.0855321931862698
20
1.8198517476760581
30
0
10
2.1302090249028875
20
1.7577350928550479
30
0
10
2.1753816912465811
20
1.6877451585828602
30
0
10
2.2213602461070439
20
1.6257942254167905
30
0
10
2.2683496193281703
20
1.5858495552250815
30
0
10
2.316385550524668
20
1.576054412850187
30
0
10
2.3653182064954059
20
1.597216340083476
30
0
10
2.414871135002806
20
1.6450494741302415
30
0
10
2.4646826098249552
20
1.711550374636611
30
0
10
2.5143539135979811
20
1.7866901480475188
30
0
10
2.563494988248292
20
1.8600480072110219
30
0
10
2.6117701210780426
20
1.9222216983918825
30
0
10
2.6589399221491994
20
1.9654659158657513
30
0
10
2.7049040030112357
20
1.9844816121101596
30
0
10
2.7497437051129427
20
1.9771501022759792
30
0
10
2.7937641092746186
20
1.9452804862620754
30
0
10
2.8375382922009109
20
1.8953802521753691
30
0
10
2.8817761663595753
20
1.8367598165243759
30
0
10
2.9271953948201999
20
1.7796622487585378
30
0
10
2.9743843039784048
20
1.7332827239186361
30
0
10
3.0236846282530601
20
1.7040648461172394
30
0
10
3.0750252404904606
20
1.6933117286304227
30
0
10
3.127933412971827
20
1.6972779803392466
30
0
10
3.1817306724495209
20
1.709827171015976
30
0
10
3.2356851137716798
20
1.7245048717638334
30
0
10
3.2891690288890176
20
1.7366320742373389
30
0
10
3.3418459008466113
20
1.7459442648075703
30
0
10
3.3936503184105273
20
1.7555974104623175
30
0
10
3.4446927839748689
20
1.7698834577277296
30
0
10
3.4951884277972423
20
1.7923262770979578
30
0
10
3.5453779991889922
20
1.823723678343923
30
0
10
3.59544619234532
20
1.859932231173189
30
0
10
3.6455294167013803
20
1.8938667574375243
30
0
10
3.6957332256715487
20
1.9179117607454734
30
0
10
3.7461466161691828
20
1.9262265840352188
30
0
10
3.7968567424224813
20
1.916998525208832
30
0
10
3.8479659075652211
20
1.8949812741077434
30
0
10
3.8995592748112795
20
1.8688743715707643
30
0
10
3.9516680012192129
20
1.8482809597709484
30
0
10
4.0042355316821121
20
1.8408844428283446
30
0
10
4.0570790818797793
20
1.8493807753974467
30
0
10
4.1098629006883369
20
1.868944230963232
30
0
10
4.1622012354127644
20
1.890612880240343
30
0
10
4.2137568629367435
20
1.9043907766524444
30
0
10
4.2643328719654221
20
1.902238662436637
30
0
10
4.3139871900188975
20
1.8816266165522324
30
0
10
4.3630740767262974
20
1.8472053622143683
30
0
10
4.4120915970731787
20
1.807427739340518
30
0
10
4.461561667231341
20
1.7720358115987467
30
0
10
4.5119047392984282
20
1.7493663991117139
30
0
10
4.5632989561835666
20
1.7433533013848628
30
0
10
4.6156011705674329
20
1.7518384869999251
30
0
10
4.6684802172483035
20
1.7693921833222783
30
0
10
4.721518919116499
20
1.7894941674661649
30
0
10
4.7743196657510358
20
1.8067253272874786
30
0
10
4.8266295216012107
20
1.8195368433679584
30
0
10
4.8783779530566793
20
1.8305949776878025
30
0
10
4.9296083038604248
20
1.84425204600142
30
0
10
4.9804348963247556
20
1.8646427613962888
30
0
10
5.0309940461166338
20
1.8937876205677873
30
0
10
5.0813869296819529
20
1.9290433546514496
30
0
10
5.1316759779675714
20
1.9638546820176197
30
0
10
5.1819150762121469
20
1.9905198265092556
30
0
10
5.2321718223763147
20
2.0024851095507832
30
0
10
5.28254776676307
20
1.9965213901946708
30
0
10
5.3332128213125909
20
1.9757366867019377
30
0
10
5.3843678090079381
20
1.9483226134219351
30
0
10
5.4361707047315946
20
1.9240698684860971
30
0
10
5.4886698981503663
20
1.9114489229892713
30
0
10
5.5417441029730687
20
1.9147475520420276
30
0
10
5.5950146187265908
20
1.9304295673940173
30
0
10
5.6479547287347964
20
1.9494643163453951
30
0
10
5.700049943884081
20
1.9612119212551073
30
0
10
5.7509404390051007
20
1.9567671770953323
30
0
10
5.8005720921268979
20
1.9325537452569772
30
0
10
5.8493407409416971
20
1.8937468280506462
30
0
10
5.8978920601416593
20
1.8506654027963303
30
0
10
5.9469259934214724
20
1.8152474143877695
30
0
10
5.9969970701917283
20
1.7974534528448105
30
0
10
6.0483221406358636
20
1.8017974663088054
30
0
10
6.100569347466724
20
1.8235577404846879
30
0
10
6.1530707215154035
20
1.8521877305131806
30
0
10
6.2050594721142494
20
1.8751428007319972
30
0
10
6.2558922543193596
20
1.881460143686313
30
0
10
6.3052916786460065
20
1.8656624975633653
30
0
10
6.3535399896920914
20
1.8308884492993762
30
0
10
6.4012577846345078
20
1.7854651985842311
30
0
10
6.4492193350281379
20
1.7400597799540798
30
0
10
6.4981529277660108
20
1.7045929347097055
30
0
10
6.5485499785342416
20
1.6852932977749364
30
0
10
6.6004637210215762
20
1.6815811572542638
30
0
10
6.6536239044522834
20
1.6884249504935847
30
0
10
6.7075614830760157
20
1.6989080724033712
30
0
10
6.7617263208193119
20
1.70659073861703
30
0
10
6.815615543947092
20
1.7082561080718826
30
0
10
6.8688735784022192
20
1.7055848173070522
30
0
10
6.9212828416173791
20
1.7028516249922567
30
0
10
6.9727732724989435
20
1.705140746398266
30
0
10
7.0234199509522446
20
1.7165407051808577
30
0
10
7.0734568347146958
20
1.7379081576493469
30
0
10
7.1232425523388727
20
1.7664658329969365
30
0
10
7.1731745416921289
20
1.7975911369522115
30
0
10
7.2236123001126282
20
1.8260963340101346
30
0
10
7.2748059333069905
20
1.8475833019920693
30
0
10
7.3268004655194972
20
1.8600889973052435
30
0
10
7.3794354927355741
20
1.8643570405720375
30
0
10
7.4324451166975969
20
1.8626159302529344
30
0
10
7.4855341268644189
20
1.8577230159522042
30
0
10
7.5384571230833544
20
1.8522375865514298
30
0
10
7.5911135329487864
20
1.8473250731671227
30
0
10
7.6435317141131263
20
1.8429427316745841
30
0
10
7.6958116475536062
20
1.8385084397459766
30
0
10
7.748081046897112
20
1.8334140758677555
30
0
10
7.8004464809026128
20
1.827593591860472
30
0
10
7.8529449677793934
20
1.822096446188225
30
0
10
7.9055593208178552
20
1.8183845596738644
30
0
10
7.9582363821770397
20
1.8175436255456512
30
0
10
8.0109037233719267
20
1.8195964454265789
30
0
10
8.0634880159337357
20
1.8226094488372997
30
0
10
8.1159295289028712
20
1.8223796413259103
30
0
10
8.1681808299957144
20
1.8143188299572766
30
0
10
8.2202084716632644
20
1.795133949089891
30
0
10
8.2719921170172501
20
1.7643381486339877
30
0
10
8.3235281072955853
20
1.7264321177700155
30
0
10
8.3748192869939224
20
1.6906515145595429
30
0
10
8.4258484692678852
20
1.6674526527650273
30
0
10
8.4765529064570391
20
1.6656220152379864
30
0
10
8.526804819775208
20
1.6895203401641785
30
0
10
8.5763734656773103
20
1.7353185585436968
30
0
10
8.6249600037170122
20
1.7915681266840513
30
0
10
8.6722937509730276
20
1.8435625677237617
30
0
10
8.7182151509166879
20
1.8767450470294729
30
0
10
8.7627555602651022
20
1.8802572415550454
30
0
10
8.8062391035937111
20
1.8510258002890165
30
0
10
8.8493084684375596
20
1.795696676449219
30
0
10
8.8927404902419447
20
1.7265407141156828
30
0
10
8.937305471071511
20
1.6585624306143676
30
0
10
8.9836001798984704
20
1.6059915184981246
30
0
10
9.0319128031624825
20
1.5793625001004341
30
0
10
9.0820215966161104
20
1.5815185686416144
30
0
10
9.1332945672097878
20
1.608359259349192
30
0
10
9.184928442063816
20
1.651805164312997
30
0
10
9.2361528149521934
20
1.7021462006598198
30
0
10
9.2864285634943915
20
1.7504641481359642
30
0
10
9.33570015747806
20
1.7914852959175351
30
0
10
9.3843183231058109
20
1.8234840628812776
30
0
10
9.4328425589849303
20
1.8470730296425117
30
0
10
9.481876073826891
20
1.8643313682360227
30
0
10
9.5319030332446317
20
1.877856481155618
30
0
10
9.5830850588806165
20
1.889687413420166
30
0
10
9.6352715372787987
20
1.9010815685160867
30
0
10
9.688128270750644
20
1.9127833322718679
30
0
10
9.7412315450988487
20
1.9251415637726148
30
0
10
9.7941715920895405
20
1.9382840137509694
30
0
10
9.846664909408716
20
1.9522822561173623
30
0
10
9.8985445644125676
20
1.9671832810552949
30
0
10
9.9394897066722372
20
1.9798437905278277
30
0
10
9.9698719029112528
20
1.9897587572701727
30
0
10
9.9899815001057117
20
1.9965551774617187
30
0
10
10
20
2
30
0
0
ENDSEC
0
SECTION
2
OBJECTS
0
DICTIONARY
5
C
100
AcDbDictionary
3
ACAD_GROUP
350
D
3
ACAD_MLINESTYLE
350
17
0
DICTIONARY
5
D
100
AcDbDictionary
0
DICTIONARY
5
1A
330
C
100
AcDbDictionary
0
DICTIONARY
5
17
100
AcDbDictionary
0
ENDSEC
0
EOF
