0
SECTION
2
HEADER
9
$INSUNITS
70
4
9
$ACADVER
1
AC1014
9
$HANDSEED
5
FFFF
0
ENDSEC
0
SECTION
2
TABLES
0
TABLE
2
VPORT
5
8
100
AcDbSymbolTable
0
ENDTAB
0
TABLE
2
LTYPE
5
5
100
AcDbSymbolTable
0
LTYPE
5
14
100
AcDbSymbolTableRecord
100
AcDbLinetypeTableRecord
2
BYBLOCK
70
0
0
LTYPE
5
15
100
AcDbSymbolTableRecord
100
AcDbLinetypeTableRecord
2
BYLAYER
70
0
0
ENDTAB
0
TABLE
2
LAYER
5
2
100
AcDbSymbolTable
70
2
0
LAYER
5
50
100
AcDbSymbolTableRecord
100
AcDbLayerTableRecord
2
0
70
0
6
CONTINUOUS
0
ENDTAB
0
TABLE
2
STYLE
5
3
100
AcDbSymbolTable
70
1
0
STYLE
5
11
100
AcDbSymbolTableRecord
100
AcDbTextStyleTableRecord
2
STANDARD
70
0
0
ENDTAB
0
TABLE
2
VIEW
5
6
100
AcDbSymbolTable
70
0
0
ENDTAB
0
TABLE
2
UCS
5
7
100
AcDbSymbolTable
70
0
0
ENDTAB
0
TABLE
2
APPID
5
9
100
AcDbSymbolTable
70
2
0
APPID
5
12
100
AcDbSymbolTableRecord
100
AcDbRegAppTableRecord
2
ACAD
70
0
0
ENDTAB
0
TABLE
2
DIMSTYLE
5
A
100
AcDbSymbolTable
70
1
0
ENDTAB
0
TABLE
2
BLOCK_RECORD
5
1
100
AcDbSymbolTable
70
1
0
BLOCK_RECORD
5
1F
100
AcDbSymbolTableRecord
100
AcDbBlockTableRecord
2
*MODEL_SPACE
0
BLOCK_RECORD
5
1B
100
AcDbSymbolTableRecord
100
AcDbBlockTableRecord
2
*PAPER_SPACE
0
ENDTAB
0
ENDSEC
0
SECTION
2
BLOCKS
0
BLOCK
5
20
100
AcDbEntity
100
AcDbBlockBegin
2
*MODEL_SPACE
0
ENDBLK
5
21
100
AcDbEntity
100
AcDbBlockEnd
0
BLOCK
5
1C
100
AcDbEntity
100
AcDbBlockBegin
2
*PAPER_SPACE
0
ENDBLK
5
1D
100
AcDbEntity
100
AcDbBlockEnd
0
ENDSEC
0
SECTION
2
ENTITIES
0
SPLINE
5
100
100
AcDbEntity
8
0
100
AcDbSpline
70
4
71
5
72
16
73
10
74
0
42
0.000000001
43
0.0000000001
44
0.0000000001
40
0
40
0
40
0
40
0
40
0
40
0
40
0.20000000000000001
40
0.40000000000000002
40
0.60000000000000009
40
0.80000000000000004
40
1
40
1
40
1
40
1
40
1
40
1
41
1
41
1
41
1
41
1
41
1
41
1
41
1
41
1
41
1
41
1
10
0
20
0
30
0
10
0
20
0.080000000000033267
30
0
10
0
20
0.24000000000008476
30
0
10
0
20
0.48000000000011728
30
0
10
0
20
0.80000000000008786
30
0
10
0
20
1.2000000000000053
30
0
10
0
20
1.5199999999999583
30
0
10
0
20
1.7599999999999643
30
0
10
0
20
1.9199999999999853
30
0
10
0
20
2
30
0
0
SPLINE
5
101
100
AcDbEntity
8
0
100
AcDbSpline
70
4
71
5
72
16
73
10
74
0
42
0.000000001
43
0.0000000001
44
0.0000000001
40
0
40
0
40
0
40
0
40
0
40
0
40
0.20000000000000001
40
0.40000000000000002
40
0.60000000000000009
40
0.80000000000000004
40
1
40
1
40
1
40
1
40
1
40
1
41
1
41
1
41
1
41
1
41
1
41
1
41
1
41
1
41
1
41
1
10
10
20
0
30
0
10
9.9999999999997495
20
0.080000000000033267
30
0
10
9.9999999999993197
20
0.24000000000008476
30
0
10
9.9999999999989129
20
0.48000000000011728
30
0
10
9.9999999999987672
20
0.80000000000008786
30
0
10
9.9999999999990248
20
1.2000000000000053
30
0
10
9.9999999999993889
20
1.5199999999999583
30
0
10
9.9999999999996998
20
1.7599999999999643
30
0
10
9.9999999999999005
20
1.9199999999999853
30
0
10
10
20
2
30
0
0
SPLINE
5
102
100
AcDbEntity
8
0
100
AcDbSpline
70
4
71
5
72
16
73
10
74
0
42
0.000000001
43
0.0000000001
44
0.0000000001
40
0
40
0
40
0
40
0
40
0
40
0
40
0.20000000000000001
40
0.40000000000000002
40
0.60000000000000009
40
0.80000000000000004
40
1
40
1
40
1
40
1
40
1
40
1
41
1
41
1
41
1
41
1
41
1
41
1
41
1
41
1
41
1
41
1
10
0
20
1
30
0
10
0.40000000000047375
20
0.99999999999987343
30
0
10
1.2000000000012774
20
0.99999999999965183
30
0
10
2.4000000000020547
20
0.99999999999941747
30
0
10
4.0000000000023546
20
0.99999999999928091
30
0
10
6.0000000000019584
20
0.99999999999933376
30
0
10
7.6000000000012928
20
0.99999999999951594
30
0
10
8.800000000000697
20
0.99999999999972888
30
0
10
9.6000000000002395
20
0.99999999999990408
30
0
10
10
20
1
30
0
0
SPLINE
5
103
100
AcDbEntity
8
0
100
AcDbSpline
70
4
71
5
72
211
73
205
74
0
42
0.000000001
43
0.0000000001
44
0.0000000001
40
0
40
0
40
0
40
0
40
0
40
0
40
0.0050000000000000001
40
0.01
40
0.014999999999999999
40
0.02
40
0.025000000000000001
40
0.030000000000000002
40
0.035000000000000003
40
0.040000000000000001
40
0.044999999999999998
40
0.049999999999999996
40
0.054999999999999993
40
0.059999999999999991
40
0.064999999999999988
40
0.069999999999999993
40
0.074999999999999997
40
0.080000000000000002
40
0.085000000000000006
40
0.090000000000000011
40
0.095000000000000015
40
0.10000000000000002
40
0.10500000000000002
40
0.11000000000000003
40
0.11500000000000003
40
0.12000000000000004
40
0.12500000000000003
40
0.13000000000000003
40
0.13500000000000004
40
0.14000000000000004
40
0.14500000000000005
40
0.15000000000000005
40
0.15500000000000005
40
0.16000000000000006
40
0.16500000000000006
40
0.17000000000000007
40
0.17500000000000007
40
0.18000000000000008
40
0.18500000000000008
40
0.19000000000000009
40
0.19500000000000009
40
0.20000000000000009
40
0.2050000000000001
40
0.2100000000000001
40
0.21500000000000011
40
0.22000000000000011
40
0.22500000000000012
40
0.23000000000000012
40
0.23500000000000013
40
0.24000000000000013
40
0.24500000000000013
40
0.25000000000000011
40
0.25500000000000012
40
0.26000000000000012
40
0.26500000000000012
40
0.27000000000000013
40
0.27500000000000013
40
0.28000000000000014
40
0.28500000000000014
40
0.29000000000000015
40
0.29500000000000015
40
0.30000000000000016
40
0.30500000000000016
40
0.31000000000000016
40
0.31500000000000017
40
0.32000000000000017
40
0.32500000000000018
40
0.33000000000000018
40
0.33500000000000019
40
0.34000000000000019
40
0.3450000000000002
40
0.3500000000000002
40
0.3550000000000002
40
0.36000000000000021
40
0.36500000000000021
40
0.37000000000000022
40
0.37500000000000022
40
0.38000000000000023
40
0.38500000000000023
40
0.39000000000000024
40
0.39500000000000024
40
0.40000000000000024
40
0.40500000000000025
40
0.41000000000000025
40
0.41500000000000026
40
0.42000000000000026
40
0.42500000000000027
40
0.43000000000000027
40
0.43500000000000028
40
0.44000000000000028
40
0.44500000000000028
40
0.45000000000000029
40
0.45500000000000029
40
0.4600000000000003
40
0.4650000000000003
40
0.47000000000000031
40
0.47500000000000031
40
0.48000000000000032
40
0.48500000000000032
40
0.49000000000000032
40
0.49500000000000033
40
0.50000000000000033
40
0.50500000000000034
40
0.51000000000000034
40
0.51500000000000035
40
0.52000000000000035
40
0.52500000000000036
40
0.53000000000000036
40
0.53500000000000036
40
0.54000000000000037
40
0.54500000000000037
40
0.55000000000000038
40
0.55500000000000038
40
0.56000000000000039
40
0.56500000000000039
40
0.5700000000000004
40
0.5750000000000004
40
0.5800000000000004
40
0.58500000000000041
40
0.59000000000000041
40
0.59500000000000042
40
0.60000000000000042
40
0.60500000000000043
40
0.61000000000000043
40
0.61500000000000044
40
0.62000000000000044
40
0.62500000000000044
40
0.63000000000000045
40
0.63500000000000045
40
0.64000000000000046
40
0.64500000000000046
40
0.65000000000000047
40
0.65500000000000047
40
0.66000000000000048
40
0.66500000000000048
40
0.67000000000000048
40
0.67500000000000049
40
0.68000000000000049
40
0.6850000000000005
40
0.6900000000000005
40
0.69500000000000051
40
0.70000000000000051
40
0.70500000000000052
40
0.71000000000000052
40
0.71500000000000052
40
0.72000000000000053
40
0.72500000000000053
40
0.73000000000000054
40
0.73500000000000054
40
0.74000000000000055
40
0.74500000000000055
40
0.75000000000000056
40
0.75500000000000056
40
0.76000000000000056
40
0.76500000000000057
40
0.77000000000000057
40
0.77500000000000058
40
0.78000000000000058
40
0.78500000000000059
40
0.79000000000000059
40
0.7950000000000006
40
0.8000000000000006
40
0.8050000000000006
40
0.81000000000000061
40
0.81500000000000061
40
0.82000000000000062
40
0.82500000000000062
40
0.83000000000000063
40
0.83500000000000063
40
0.84000000000000064
40
0.84500000000000064
40
0.85000000000000064
40
0.85500000000000065
40
0.86000000000000065
40
0.86500000000000066
40
0.87000000000000066
40
0.87500000000000067
40
0.88000000000000067
40
0.88500000000000068
40
0.89000000000000068
40
0.89500000000000068
40
0.90000000000000069
40
0.90500000000000069
40
0.9100000000000007
40
0.9150000000000007
40
0.92000000000000071
40
0.92500000000000071
40
0.93000000000000071
40
0.93500000000000072
40
0.94000000000000072
40
0.94500000000000073
40
0.95000000000000073
40
0.95500000000000074
40
0.96000000000000074
40
0.96500000000000075
40
0.97000000000000075
40
0.97500000000000075
40
0.98000000000000076
40
0.98500000000000076
40
0.99000000000000077
40
0.99500000000000077
40
1
40
1
40
1
40
1
40
1
40
1
41
1
41
1
41
1
41
1
41
1
41
1
41
1
41
1
41
1
41
1
41
1
41
1
41
1
41
1
41
1
41
1
41
1
41
1
41
1
41
1
41
1
41
1
41
1
41
1
41
1
41
1
41
1
41
1
41
1
41
1
41
1
41
1
41
1
41
1
41
1
41
1
41
1
41
1
41
1
41
1
41
1
41
1
41
1
41
1
41
1
41
1
41
1
41
1
41
1
41
1
41
1
41
1
41
1
41
1
41
1
41
1
41
1
41
1
41
1
41
1
41
1
41
1
41
1
41
1
41
1
41
1
41
1
41
1
41
1
41
1
41
1
41
1
41
1
41
1
41
1
41
1
41
1
41
1
41
1
41
1
41
1
41
1
41
1
41
1
41
1
41
1
41
1
41
1
41
1
41
1
41
1
41
1
41
1
41
1
41
1
41
1
41
1
41
1
41
1
41
1
41
1
41
1
41
1
41
1
41
1
41
1
41
1
41
1
41
1
41
1
41
1
41
1
41
1
41
1
41
1
41
1
41
1
41
1
41
1
41
1
41
1
41
1
41
1
41
1
41
1
41
1
41
1
41
1
41
1
41
1
41
1
41
1
41
1
41
1
41
1
41
1
41
1
41
1
41
1
41
1
41
1
41
1
41
1
41
1
41
1
41
1
41
1
41
1
41
1
41
1
41
1
41
1
41
1
41
1
41
1
41
1
41
1
41
1
41
1
41
1
41
1
41
1
41
1
41
1
41
1
41
1
41
1
41
1
41
1
41
1
41
1
41
1
41
1
41
1
41
1
41
1
41
1
41
1
41
1
41
1
41
1
41
1
41
1
41
1
41
1
41
1
41
1
41
1
41
1
41
1
41
1
41
1
41
1
41
1
41
1
41
1
41
1
41
1
41
1
41
1
41
1
41
1
41
1
41
1
41
1
10
0
20
0
30
0
10
0.011090940527277439
20
-0.0013251323060759065
30
0
10
0.033138426982480082
20
-0.0029476583630926321
30
0
10
0.065806462228374121
20
-0.0022981364177409062
30
0
10
0.108557513101792
20
0.0047339390680882758
30
0
10
0.16068495019302359
20
0.023512001857053565
30
0
10
0.21160057937419879
20
0.051393756478237865
30
0
10
0.26150076826949248
20
0.086635801266881834
30
0
10
0.31071974209234565
20
0.12627049110329133
30
0
10
0.35973755091653392
20
0.16603756634830366
30
0
10
0.40907332039028632
20
0.2013467283177717
30
0
10
0.4591938314884243
20
0.22810050496016709
30
0
10
0.51042220430016816
20
0.24352100626313475
30
0
10
0.56283211636323371
20
0.24709512922909904
30
0
10
0.61619181363853748
20
0.24110496615951477
30
0
10
0.67010807329299749
20
0.22946258881302845
30
0
10
0.72414696182295724
20
0.21676328979262688
30
0
10
0.77795005781897564
20
0.20732408870230271
30
0
10
0.83138567741754221
20
0.20405690608223276
30
0
10
0.88455180615683049
20
0.20810769913842497
30
0
10
0.93764180629787219
20
0.21923140756483009
30
0
10
0.9908442529485616
20
0.23595691508229832
30
0
10
1.04423760258473
20
0.25584875259264916
30
0
10
1.0976640568590681
20
0.2756986765236018
30
0
10
1.1508202503857088
20
0.29200732038672622
30
0
10
1.2033936572491453
20
0.30151743090704008
30
0
10
1.2551791240147325
20
0.30172003980429302
30
0
10
1.3062127115089492
20
0.29139443772869111
30
0
10
1.3568726915142242
20
0.27106930340957314
30
0
10
1.4076914787933208
20
0.24269413121214817
30
0
10
1.4591837259599116
20
0.20938060565080635
30
0
10
1.5116803524107945
20
0.17510024614001365
30
0
10
1.5651317485480398
20
0.14444128983130047
30
0
10
1.6190107900922368
20
0.12221877339734748
30
0
10
1.6725720750770972
20
0.11264316190465803
30
0
10
1.7250655381998914
20
0.11849478836754512
30
0
10
1.7759453910885998
20
0.14042779408694006
30
0
10
1.8251358878935373
20
0.1758981528174699
30
0
10
1.873055148773084
20
0.21951880061764004
30
0
10
1.9203998125444819
20
0.26476613922183939
30
0
10
1.967991439114847
20
0.30538717551080563
30
0
10
2.0166059981101281
20
0.33677693592665281
30
0
10
2.066790587505293
20
0.35773397849069771
30
0
10
2.1187533745875493
20
0.37083312157998449
30
0
10
2.172412321072934
20
0.3801386121994631
30
0
10
2.2274048268594311
20
0.38936629413835511
30
0
10
2.2831224453419261
20
0.40013476944116055
30
0
10
2.33871149972979
20
0.40951383991667412
30
0
10
2.3931937273171182
20
0.41088562145870144
30
0
10
2.4456612329288379
20
0.39701755933565669
30
0
10
2.4954540468656825
20
0.36254155781667674
30
0
10
2.5423346467960335
20
0.30652722665290011
30
0
10
2.5866909885634923
20
0.23541623906030118
30
0
10
2.6293696535991034
20
0.1605418879855825
30
0
10
2.6714680445703118
20
0.095049033995785348
30
0
10
2.7141378625690709
20
0.050953144971953246
30
0
10
2.7583915440941027
20
0.036313228512877833
30
0
10
2.8048890419957289
20
0.051943523063271865
30
0
10
2.8537888448300688
20
0.089569443066361415
30
0
10
2.9048813640854649
20
0.13616949813189455
30
0
10
2.9576820212972366
20
0.17752761144067358
30
0
10
3.0115396609982743
20
0.20189587294281836
30
0
10
3.0657392238872054
20
0.20407437659827682
30
0
10
3.1196039260205883
20
0.187895986927125
30
0
10
3.1725734343925001
20
0.1624227529244138
30
0
10
3.22429401525023
20
0.13899740088977802
30
0
10
3.2746874709660609
20
0.12819346123349495
30
0
10
3.3240691867885741
20
0.13624365247874362
30
0
10
3.3730909444289203
20
0.16388910282946864
30
0
10
3.4225070138402982
20
0.20790280549907381
30
0
10
3.4729761397927468
20
0.26187441057319344
30
0
10
3.5248734152070278
20
0.31733822297477088
30
0
10
3.5780380294729279
20
0.36465156038033986
30
0
10
3.6317790461450814
20
0.3943625528160824
30
0
10
3.6851586204528304
20
0.39894156813628079
30
0
10
3.7372093912682698
20
0.37453567227371615
30
0
10
3.7871609555830221
20
0.32246165079477129
30
0
10
3.8347077299895593
20
0.25145442564565823
30
0
10
3.87997537115498
20
0.17557717302821474
30
0
10
3.923381293837279
20
0.1106904673859723
30
0
10
3.9655292068577297
20
0.071333065049993205
30
0
10
4.007092250338701
20
0.067575416605227284
30
0
10
4.0486944211393983
20
0.1015400219145442
30
0
10
4.0908125509286801
20
0.16509741858234533
30
0
10
4.1338005940303031
20
0.24400150406262361
30
0
10
4.1778981090656053
20
0.32113195326126986
30
0
10
4.2232447941461722
20
0.38023137976173521
30
0
10
4.2698925964068257
20
0.40909069768446044
30
0
10
4.3178184310135519
20
0.40380583442725337
30
0
10
4.3669381274930235
20
0.36954230153023415
30
0
10
4.4171227325843967
20
0.31671645055256709
30
0
10
4.46821439511129
20
0.2582213135550544
30
0
10
4.5200419604868411
20
0.20642319877789192
30
0
10
4.572437789667875
20
0.16979070980300495
30
0
10
4.6252500852048399
20
0.15131174208255471
30
0
10
4.6783468715875953
20
0.14997951322975828
30
0
10
4.7316231658908778
20
0.16154078367438418
30
0
10
4.7850041875008538
20
0.1795779126960983
30
0
10
4.8384569687462555
20
0.19635574531604383
30
0
10
4.89196420498505
20
0.20423653951719992
30
0
10
4.9454792774146066
20
0.19732600851492355
30
0
10
4.9988867648942374
20
0.17306250778446924
30
0
10
5.0519615483727058
20
0.13380198953888253
30
0
10
5.1043260628387443
20
0.08848334909202317
30
0
10
5.1555651752563634
20
0.04934010884522929
30
0
10
5.2053458123595604
20
0.028476056395232551
30
0
10
5.2535323828848028
20
0.034550922398180813
30
0
10
5.3003096816609236
20
0.06928105115940221
30
0
10
5.3462863800067941
20
0.12441350815886403
30
0
10
5.3922913865769564
20
0.18613857540886028
30
0
10
5.4391915548744985
20
0.23899336598964707
30
0
10
5.4876928524048694
20
0.2701470100037543
30
0
10
5.5381679970563757
20
0.27308890164915006
30
0
10
5.5904223928888594
20
0.25269855828807469
30
0
10
5.6438287276467491
20
0.22206976853455709
30
0
10
5.6975704305320685
20
0.19689785223510409
30
0
10
5.7508481489393812
20
0.19069903473078201
30
0
10
5.803102799570742
20
0.20964637509597345
30
0
10
5.8542284801086719
20
0.24766495297398733
30
0
10
5.9044459592552805
20
0.2914864720764907
30
0
10
5.954177907087197
20
0.32568477386439842
30
0
10
6.0039246207421781
20
0.33760757921758466
30
0
10
6.0541371628199894
20
0.32260386556274229
30
0
10
6.1050985550319243
20
0.28841322921624013
30
0
10
6.1569151497630212
20
0.2495301352717047
30
0
10
6.2094976750002306
20
0.22207479458222934
30
0
10
6.2625521748141821
20
0.21878972942879754
30
0
10
6.3155526241468651
20
0.24323794368760743
30
0
10
6.3677647481970929
20
0.28664739711115444
30
0
10
6.4184345305561319
20
0.33378045755799479
30
0
10
6.4669565758121337
20
0.36746044292908953
30
0
10
6.513036274707094
20
0.37333029178897459
30
0
10
6.5568881391042035
20
0.34521207842898716
30
0
10
6.599311552199314
20
0.2879737118000103
30
0
10
6.6414175465352931
20
0.21312332864021738
30
0
10
6.6844250292380911
20
0.13581758571790567
30
0
10
6.729418719937037
20
0.071169596329984292
30
0
10
6.7771483440339217
20
0.031180645275792968
30
0
10
6.8277478389095423
20
0.020592991499243218
30
0
10
6.8807626657375129
20
0.036775613126381786
30
0
10
6.935395430598172
20
0.072462280602386325
30
0
10
6.9906914567415521
20
0.11768580357352919
30
0
10
7.0457405043157539
20
0.16197578832133264
30
0
10
7.0998938680120887
20
0.19661772316557974
30
0
10
7.1527747895319642
20
0.21533034166522125
30
0
10
7.2042466990969558
20
0.21461476693196985
30
0
10
7.2543955233590696
20
0.19419461624693807
30
0
10
7.3035079033278301
20
0.15747704139356816
30
0
10
7.3520460933302632
20
0.11183772412082618
30
0
10
7.400549030311514
20
0.066513968997966522
30
0
10
7.4495388826971851
20
0.030664585684820281
30
0
10
7.4994254362918022
20
0.011365186535808312
30
0
10
7.5504115254799276
20
0.011633396299961032
30
0
10
7.6023975130986434
20
0.028431074665003497
30
0
10
7.6550872430083672
20
0.055069647847915688
30
0
10
7.7080979224413859
20
0.083705905366389721
30
0
10
7.7610628084531106
20
0.10766902142725569
30
0
10
7.8137502809725055
20
0.1241740202443934
30
0
10
7.8661355266355928
20
0.13591533729485805
30
0
10
7.9182887891614007
20
0.14828236472736772
30
0
10
7.9702846949217641
20
0.16711294379330441
30
0
10
8.0221160812415633
20
0.19646842841088016
30
0
10
8.0735753255202631
20
0.23584301942670666
30
0
10
8.1242596861288909
20
0.279627140936763
30
0
10
8.1737433862485105
20
0.31968852136064252
30
0
10
8.2217168936731966
20
0.34724673293737934
30
0
10
8.2681213461136238
20
0.35489279549066244
30
0
10
8.3133288343473009
20
0.33888659579668995
30
0
10
8.3581502482401593
20
0.3001485848737922
30
0
10
8.4035570551554351
20
0.24301352523232486
30
0
10
8.4504695302846464
20
0.17450913243981292
30
0
10
8.4995184764418656
20
0.10342163659114789
30
0
10
8.5508176279434682
20
0.039457161582130737
30
0
10
8.6037328996655802
20
-0.0076480916622234619
30
0
10
8.6571728872412166
20
-0.029620190706437871
30
0
10
8.7098838631668869
20
-0.021208863865528942
30
0
10
8.7607310445700222
20
0.018399141327472317
30
0
10
8.8090138467751746
20
0.083817546171339741
30
0
10
8.8546808392169556
20
0.16271972173921884
30
0
10
8.8981215564198273
20
0.23947178277246989
30
0
10
8.9400226112282297
20
0.29804681093761271
30
0
10
8.9811931526027831
20
0.32539003034827257
30
0
10
9.0224163172040441
20
0.31420042344449983
30
0
10
9.064257466595766
20
0.26693723252872303
30
0
10
9.107025780752128
20
0.19520342004114277
30
0
10
9.1508611035233169
20
0.11528797148808495
30
0
10
9.1957843972595192
20
0.044853099770459842
30
0
10
9.2417650241169103
20
-0.00096464809852508276
30
0
10
9.288776347309998
20
-0.012931013478501494
30
0
10
9.3368680505572801
20
0.00797133444303081
30
0
10
9.3861279214987388
20
0.052951279351945976
30
0
10
9.4366243657967264
20
0.10903768487335667
30
0
10
9.4883530831270821
20
0.16238700582687118
30
0
10
9.5411875944700277
20
0.20149493910319835
30
0
10
9.5948135623676141
20
0.22104635089818814
30
0
10
9.648777000386259
20
0.22111004360994119
30
0
10
9.702563406973745
20
0.20507623849342282
30
0
10
9.7556650611385063
20
0.17804969643507457
30
0
10
9.8076563049100294
20
0.14498905234347026
30
0
10
9.8582566947777295
20
0.10913699063799182
30
0
10
9.9072971061954931
20
0.072459471513624349
30
0
10
9.9452142483747341
20
0.04323706891391034
30
0
10
9.9728997052987971
20
0.021535120033287506
30
0
10
9.991022298435869
20
0.0071624795820652738
30
0
10
10
20
0
30
0
0
SPLINE
5
104
100
AcDbEntity
8
0
100
AcDbSpline
70
4
71
5
72
211
73
205
74
0
42
0.000000001
43
0.0000000001
44
0.0000000001
40
0
40
0
40
0
40
0
40
0
40
0
40
0.0050000000000000001
40
0.01
40
0.014999999999999999
40
0.02
40
0.025000000000000001
40
0.030000000000000002
40
0.035000000000000003
40
0.040000000000000001
40
0.044999999999999998
40
0.049999999999999996
40
0.054999999999999993
40
0.059999999999999991
40
0.064999999999999988
40
0.069999999999999993
40
0.074999999999999997
40
0.080000000000000002
40
0.085000000000000006
40
0.090000000000000011
40
0.095000000000000015
40
0.10000000000000002
40
0.10500000000000002
40
0.11000000000000003
40
0.11500000000000003
40
0.12000000000000004
40
0.12500000000000003
40
0.13000000000000003
40
0.13500000000000004
40
0.14000000000000004
40
0.14500000000000005
40
0.15000000000000005
40
0.15500000000000005
40
0.16000000000000006
40
0.16500000000000006
40
0.17000000000000007
40
0.17500000000000007
40
0.18000000000000008
40
0.18500000000000008
40
0.19000000000000009
40
0.19500000000000009
40
0.20000000000000009
40
0.2050000000000001
40
0.2100000000000001
40
0.21500000000000011
40
0.22000000000000011
40
0.22500000000000012
40
0.23000000000000012
40
0.23500000000000013
40
0.24000000000000013
40
0.24500000000000013
40
0.25000000000000011
40
0.25500000000000012
40
0.26000000000000012
40
0.26500000000000012
40
0.27000000000000013
40
0.27500000000000013
40
0.28000000000000014
40
0.28500000000000014
40
0.29000000000000015
40
0.29500000000000015
40
0.30000000000000016
40
0.30500000000000016
40
0.31000000000000016
40
0.31500000000000017
40
0.32000000000000017
40
0.32500000000000018
40
0.33000000000000018
40
0.33500000000000019
40
0.34000000000000019
40
0.3450000000000002
40
0.3500000000000002
40
0.3550000000000002
40
0.36000000000000021
40
0.36500000000000021
40
0.37000000000000022
40
0.37500000000000022
40
0.38000000000000023
40
0.38500000000000023
40
0.39000000000000024
40
0.39500000000000024
40
0.40000000000000024
40
0.40500000000000025
40
0.41000000000000025
40
0.41500000000000026
40
0.42000000000000026
40
0.42500000000000027
40
0.43000000000000027
40
0.43500000000000028
40
0.44000000000000028
40
0.44500000000000028
40
0.45000000000000029
40
0.45500000000000029
40
0.4600000000000003
40
0.4650000000000003
40
0.47000000000000031
40
0.47500000000000031
40
0.48000000000000032
40
0.48500000000000032
40
0.49000000000000032
40
0.49500000000000033
40
0.50000000000000033
40
0.50500000000000034
40
0.51000000000000034
40
0.51500000000000035
40
0.52000000000000035
40
0.52500000000000036
40
0.53000000000000036
40
0.53500000000000036
40
0.54000000000000037
40
0.54500000000000037
40
0.55000000000000038
40
0.55500000000000038
40
0.56000000000000039
40
0.56500000000000039
40
0.5700000000000004
40
0.5750000000000004
40
0.5800000000000004
40
0.58500000000000041
40
0.59000000000000041
40
0.59500000000000042
40
0.60000000000000042
40
0.60500000000000043
40
0.61000000000000043
40
0.61500000000000044
40
0.62000000000000044
40
0.62500000000000044
40
0.63000000000000045
40
0.63500000000000045
40
0.64000000000000046
40
0.64500000000000046
40
0.65000000000000047
40
0.65500000000000047
40
0.66000000000000048
40
0.66500000000000048
40
0.67000000000000048
40
0.67500000000000049
40
0.68000000000000049
40
0.6850000000000005
40
0.6900000000000005
40
0.69500000000000051
40
0.70000000000000051
40
0.70500000000000052
40
0.71000000000000052
40
0.71500000000000052
40
0.72000000000000053
40
0.72500000000000053
40
0.73000000000000054
40
0.73500000000000054
40
0.74000000000000055
40
0.74500000000000055
40
0.75000000000000056
40
0.75500000000000056
40
0.76000000000000056
40
0.76500000000000057
40
0.77000000000000057
40
0.77500000000000058
40
0.78000000000000058
40
0.78500000000000059
40
0.79000000000000059
40
0.7950000000000006
40
0.8000000000000006
40
0.8050000000000006
40
0.81000000000000061
40
0.81500000000000061
40
0.82000000000000062
40
0.82500000000000062
40
0.83000000000000063
40
0.83500000000000063
40
0.84000000000000064
40
0.84500000000000064
40
0.85000000000000064
40
0.85500000000000065
40
0.86000000000000065
40
0.86500000000000066
40
0.87000000000000066
40
0.87500000000000067
40
0.88000000000000067
40
0.88500000000000068
40
0.89000000000000068
40
0.89500000000000068
40
0.90000000000000069
40
0.90500000000000069
40
0.9100000000000007
40
0.9150000000000007
40
0.92000000000000071
40
0.92500000000000071
40
0.93000000000000071
40
0.93500000000000072
40
0.94000000000000072
40
0.94500000000000073
40
0.95000000000000073
40
0.95500000000000074
40
0.96000000000000074
40
0.96500000000000075
40
0.97000000000000075
40
0.97500000000000075
40
0.98000000000000076
40
0.98500000000000076
40
0.99000000000000077
40
0.99500000000000077
40
1
40
1
40
1
40
1
40
1
40
1
41
1
41
1
41
1
41
1
41
1
41
1
41
1
41
1
41
1
41
1
41
1
41
1
41
1
41
1
41
1
41
1
41
1
41
1
41
1
41
1
41
1
41
1
41
1
41
1
41
1
41
1
41
1
41
1
41
1
41
1
41
1
41
1
41
1
41
1
41
1
41
1
41
1
41
1
41
1
41
1
41
1
41
1
41
1
41
1
41
1
41
1
41
1
41
1
41
1
41
1
41
1
41
1
41
1
41
1
41
1
41
1
41
1
41
1
41
1
41
1
41
1
41
1
41
1
41
1
41
1
41
1
41
1
41
1
41
1
41
1
41
1
41
1
41
1
41
1
41
1
41
1
41
1
41
1
41
1
41
1
41
1
41
1
41
1
41
1
41
1
41
1
41
1
41
1
41
1
41
1
41
1
41
1
41
1
41
1
41
1
41
1
41
1
41
1
41
1
41
1
41
1
41
1
41
1
41
1
41
1
41
1
41
1
41
1
41
1
41
1
41
1
41
1
41
1
41
1
41
1
41
1
41
1
41
1
41
1
41
1
41
1
41
1
41
1
41
1
41
1
41
1
41
1
41
1
41
1
41
1
41
1
41
1
41
1
41
1
41
1
41
1
41
1
41
1
41
1
41
1
41
1
41
1
41
1
41
1
41
1
41
1
41
1
41
1
41
1
41
1
41
1
41
1
41
1
41
1
41
1
41
1
41
1
41
1
41
1
41
1
41
1
41
1
41
1
41
1
41
1
41
1
41
1
41
1
41
1
41
1
41
1
41
1
41
1
41
1
41
1
41
1
41
1
41
1
41
1
41
1
41
1
41
1
41
1
41
1
41
1
41
1
41
1
41
1
41
1
41
1
41
1
41
1
41
1
41
1
41
1
41
1
41
1
41
1
41
1
41
1
41
1
41
1
41
1
41
1
41
1
10
0
20
2
30
0
10
0.0096859320288106461
20
1.9785900178180147
30
0
10
0.029035044754956774
20
1.9385215971425016
30
0
10
0.057990462292748207
20
1.8866735137843607
30
0
10
0.096461155832442913
20
1.8340532264449059
30
0
10
0.14433237138696239
20
1.7953690083898382
30
0
10
0.19201729297520589
20
1.7825036008139195
30
0
10
0.23957837415497402
20
1.7928834733563725
30
0
10
0.28711825828389242
20
1.8222655085448278
30
0
10
0.33479480489318114
20
1.8641486370562195
30
0
10
0.38279537917556239
20
1.9105898454062062
30
0
10
0.43130150196898498
20
1.9533695647929785
30
0
10
0.48045470137387269
20
1.9850792944514348
30
0
10
0.53032648600889698
20
2.0001507317644025
30
0
10
0.58087497292896062
20
1.9961384182996289
30
0
10
0.63196088216672863
20
1.973822822671885
30
0
10
0.6833996174134026
20
1.9365461743246768
30
0
10
0.73500457079143888
20
1.8898115705813727
30
0
10
0.78662931456238938
20
1.8407054001588883
30
0
10
0.83822230593775693
20
1.7975685395283882
30
0
10
0.8898066322240239
20
1.7685786590195458
30
0
10
0.94143020818937084
20
1.7599650345713567
30
0
10
0.99312464998293182
20
1.7742637518331046
30
0
10
1.0448626862562791
20
1.8087305456512215
30
0
10
1.0965104897922504
20
1.8532233694174896
30
0
10
1.1478459161990708
20
1.8934415148605821
30
0
10
1.1985866096774358
20
1.9149101375707522
30
0
10
1.2484144235097721
20
1.9067388681847226
30
0
10
1.2970017657438246
20
1.8653901467406977
30
0
10
1.3440361300368606
20
1.798676266659351
30
0
10
1.3892712644489866
20
1.7218273128009789
30
0
10
1.4325773564065869
20
1.653338853794621
30
0
10
1.4739951400819602
20
1.6107520768541448
30
0
10
1.5137803589175569
20
1.6068010865531348
30
0
10
1.5524717874918226
20
1.6445830252429183
30
0
10
1.5908838836841135
20
1.7159026486648834
30
0
10
1.6299480965199202
20
1.8059792302062407
30
0
10
1.6705883833642763
20
1.8967483368238793
30
0
10
1.7135791100316808
20
1.9708187323305901
30
0
10
1.7594195010163005
20
2.0149340825460986
30
0
10
1.8081792828461598
20
2.0241634151445678
30
0
10
1.8594228301690074
20
2.0042035513277461
30
0
10
1.9124229887542656
20
1.9667765029786324
30
0
10
1.9663373833907065
20
1.9259319033484921
30
0
10
2.0203855907516157
20
1.8942973030944894
30
0
10
2.0740588786473917
20
1.8786309230048828
30
0
10
2.1272024029296075
20
1.8781556606413679
30
0
10
2.1798771945076107
20
1.8877094219293953
30
0
10
2.2322689728750094
20
1.8998693067132759
30
0
10
2.2845859433012725
20
1.9073208561679627
30
0
10
2.3369417767122052
20
1.9055417619441077
30
0
10
2.3893457132049694
20
1.8931847832725794
30
0
10
2.4417490361373453
20
1.8712398527316279
30
0
10
2.4940741523256404
20
1.8425876862864388
30
0
10
2.5462497662058787
20
1.8113827830585807
30
0
10
2.5982464430112722
20
1.7825318032915534
30
0
10
2.6500736928130557
20
1.7608321741782049
30
0
10
2.7017717729046025
20
1.7500741248743445
30
0
10
2.7534053228889492
20
1.7521779851105188
30
0
10
2.8050564482318601
20
1.7662628741895503
30
0
10
2.856817450785456
20
1.7878939552623507
30
0
10
2.9087750030584392
20
1.810868737162822
30
0
10
2.9609940931649614
20
1.8289254236744847
30
0
10
3.0135035613066035
20
1.8373574207795629
30
0
10
3.0662774072629437
20
1.8349571167940368
30
0
10
3.1192290053574778
20
1.8249133000704496
30
0
10
3.1722431507393023
20
1.8126098859386559
30
0
10
3.2252027143531707
20
1.8038766787701883
30
0
10
3.2780148431747103
20
1.803252767651315
30
0
10
3.3306436556626751
20
1.8117787175417885
30
0
10
3.383114269256748
20
1.8268992084628199
30
0
10
3.4354909508762788
20
1.8442484716369685
30
0
10
3.4878625203370324
20
1.8589486907724524
30
0
10
3.5403248532212572
20
1.8670131702810551
30
0
10
3.5929644517410719
20
1.8669485507255907
30
0
10
3.6458426462595357
20
1.8595757045825851
30
0
10
3.6989801440719376
20
1.8473159370879231
30
0
10
3.7523418290351933
20
1.8336575361029228
30
0
10
3.8058205502693636
20
1.8225500591083832
30
0
10
3.8592237916300287
20
1.8178224009173198
30
0
10
3.9123205640662162
20
1.8225780712923019
30
0
10
3.9648878598141963
20
1.8385550864731728
30
0
10
4.0167535823449363
20
1.8655814727639992
30
0
10
4.0678496816992489
20
1.9007944420008824
30
0
10
4.118232336611884
20
1.9386018235051463
30
0
10
4.1680307775889238
20
1.9722322389542966
30
0
10
4.2174092546900637
20
1.9950050608487426
30
0
10
4.2665268918559942
20
2.0016169584036536
30
0
10
4.3154909926445324
20
1.9896487099121587
30
0
10
4.3643379790288082
20
1.9602194712775507
30
0
10
4.4130726138590051
20
1.9168463555498607
30
0
10
4.4616957719054442
20
1.8646774448049923
30
0
10
4.5102347694788554
20
1.8095924497577132
30
0
10
4.5587773829242506
20
1.7573205546952497
30
0
10
4.6074897077849721
20
1.7126723617203798
30
0
10
4.6565667496794996
20
1.6793605602716242
30
0
10
4.7061924422705834
20
1.6597190842798459
30
0
10
4.7564975647470655
20
1.6544821194409152
30
0
10
4.8075148250558497
20
1.6624901145960813
30
0
10
4.8591459818582363
20
1.6805637378347575
30
0
10
4.9112171517240117
20
1.7044619767491767
30
0
10
4.9635266103035507
20
1.7297636391668245
30
0
10
5.0158922215948252
20
1.752710675753538
30
0
10
5.0682067247704534
20
1.7712273538620871
30
0
10
5.1204646761027259
20
1.7853478473911615
30
0
10
5.1727208362684243
20
1.7962483593042871
30
0
10
5.2250610682908984
20
1.8055125219627062
30
0
10
5.2775704658091609
20
1.8143930271088906
30
0
10
5.3302972843219045
20
1.8228577692441608
30
0
10
5.3832407244172051
20
1.8296107647589719
30
0
10
5.4363618199380959
20
1.8329924208314698
30
0
10
5.4895872898587941
20
1.8316677850194765
30
0
10
5.5428174288823593
20
1.8253258959981937
30
0
10
5.5959292513986085
20
1.8155713732090517
30
0
10
5.648806309296547
20
1.8051494851645198
30
0
10
5.7013750589527135
20
1.7967613050830655
30
0
10
5.7536376135704668
20
1.7920500373810586
30
0
10
5.8057091991151157
20
1.7904470966708483
30
0
10
5.8578448063818014
20
1.7882676301383347
30
0
10
5.9103300779471093
20
1.7807595496452342
30
0
10
5.9633740878932677
20
1.7641009670050898
30
0
10
6.0170130260464312
20
1.7371902321155799
30
0
10
6.070981783047678
20
1.7040595924078448
30
0
10
6.1246889865848031
20
1.6742749082235908
30
0
10
6.1774159171513121
20
1.6590082415130745
30
0
10
6.2284780337617143
20
1.667795321894656
30
0
10
6.2773840166059189
20
1.7054361344143454
30
0
10
6.324038579714597
20
1.7678116863549751
30
0
10
6.3687446939868577
20
1.8425204737244507
30
0
10
6.4120416183316911
20
1.9134469267235741
30
0
10
6.4545910150662733
20
1.9641705048616194
30
0
10
6.4970417528703761
20
1.9819086265653176
30
0
10
6.5399074987890184
20
1.9610973806386609
30
0
10
6.5834289396386403
20
1.9074902014878927
30
0
10
6.6276448229631555
20
1.8346453402859764
30
0
10
6.672474402904129
20
1.7599966442416934
30
0
10
6.7177986172203905
20
1.7009551342588034
30
0
10
6.7635353652039987
20
1.671268832700961
30
0
10
6.8097327764084081
20
1.676618977630532
30
0
10
6.8566046693703031
20
1.7126585808167338
30
0
10
6.9044236096007143
20
1.7690788342633079
30
0
10
6.9534406144290015
20
1.8325301349601277
30
0
10
7.0037963708875663
20
1.8899446087225811
30
0
10
7.0554311558849827
20
1.9318106580653296
30
0
10
7.1080091876711382
20
1.9551172208475711
30
0
10
7.1610383776271362
20
1.9612523742087093
30
0
10
7.2139803818778798
20
1.9541935502506433
30
0
10
7.2663571904308828
20
1.9386993846311729
30
0
10
7.3178760742388027
20
1.9182353594247044
30
0
10
7.3684915796426074
20
1.8938802816874798
30
0
10
7.4183208809947985
20
1.8655346227363085
30
0
10
7.4675869946342299
20
1.8327008647838747
30
0
10
7.5165541541467764
20
1.7953620617530655
30
0
10
7.565458817236915
20
1.7549908554969871
30
0
10
7.6144683687599031
20
1.7149269904103039
30
0
10
7.6637009353427379
20
1.6794026599767218
30
0
10
7.7132324011787183
20
1.6528448743370041
30
0
10
7.7631077987088881
20
1.6390937969419888
30
0
10
7.8133525931608574
20
1.6405930962500324
30
0
10
7.8639784761732763
20
1.6577963825185216
30
0
10
7.9149710493826984
20
1.6893169012010623
30
0
10
7.9662796811521694
20
1.7319055647457442
30
0
10
8.0178088997836756
20
1.7805740567517159
30
0
10
8.0694033855833638
20
1.8284711704579968
30
0
10
8.1208548613058955
20
1.8674771057274586
30
0
10
8.1719503772614352
20
1.8900689407470594
30
0
10
8.2225138701107827
20
1.8910360392749253
30
0
10
8.2724457190832119
20
1.8689947034962684
30
0
10
8.3217745460346535
20
1.8286207132538368
30
0
10
8.3706616127015057
20
1.7802430448186657
30
0
10
8.4193458188019061
20
1.7362242416605125
30
0
10
8.4681028267538636
20
1.708013540805509
30
0
10
8.5172006696344287
20
1.7032409413601806
30
0
10
8.5668515482413063
20
1.7220393781367944
30
0
10
8.6171832655128799
20
1.7562347072260256
30
0
10
8.668250663279327
20
1.7939549405176658
30
0
10
8.7200381878748932
20
1.8232549401668752
30
0
10
8.7724661109002504
20
1.8357067986125264
30
0
10
8.8253949133560639
20
1.8310408013738422
30
0
10
8.8786315141919161
20
1.8175831957939248
30
0
10
8.9319376791130303
20
1.8070415641438471
30
0
10
8.9850368152115028
20
1.8104877355382212
30
0
10
9.0376238334891461
20
1.8343105016269505
30
0
10
9.0893675793841791
20
1.8750289260553283
30
0
10
9.1399514678616587
20
1.9213060023934745
30
0
10
9.189126867508449
20
1.9587075010815997
30
0
10
9.236765602380741
20
1.9737426336762829
30
0
10
9.2829055475767497
20
1.9577994952760105
30
0
10
9.3278177611387552
20
1.9121562049255436
30
0
10
9.3719572426332096
20
1.8465763961775725
30
0
10
9.4158680914133388
20
1.7753389690119121
30
0
10
9.4601025197411754
20
1.7140662667375546
30
0
10
9.5051362545418279
20
1.6763041346646721
30
0
10
9.5512803671954156
20
1.670008240374842
30
0
10
9.5986095258806685
20
1.6946532765619087
30
0
10
9.6470324653340214
20
1.743915059895329
30
0
10
9.6963487148693126
20
1.8078114036192106
30
0
10
9.7463111793069963
20
1.8750736400796808
30
0
10
9.7966848316317083
20
1.9353654025980063
30
0
10
9.8473108232378888
20
1.9817137198119619
30
0
10
9.8980945059551075
20
2.0099631015434554
30
0
10
9.9388095392282967
20
2.0164149967584826
30
0
10
9.9693882657027881
20
2.0118605111433712
30
0
10
9.9897929447962959
20
2.0046493090543316
30
0
10
10
20
2
30
0
0
ENDSEC
0
SECTION
2
OBJECTS
0
DICTIONARY
5
C
100
AcDbDictionary
3
ACAD_GROUP
350
D
3
ACAD_MLINESTYLE
350
17
0
DICTIONARY
5
D
100
AcDbDictionary
0
DICTIONARY
5
1A
330
C
100
AcDbDictionary
0
DICTIONARY
5
17
100
AcDbDictionary
0
ENDSEC
0
EOF
