0
SECTION
2
HEADER
9
$INSUNITS
70
4
9
$ACADVER
1
AC1014
9
$HANDSEED
5
FFFF
0
ENDSEC
0
SECTION
2
TABLES
0
TABLE
2
VPORT
5
8
100
AcDbSymbolTable
0
ENDTAB
0
TABLE
2
LTYPE
5
5
100
AcDbSymbolTable
0
LTYPE
5
14
100
AcDbSymbolTableRecord
100
AcDbLinetypeTableRecord
2
BYBLOCK
70
0
0
LTYPE
5
15
100
AcDbSymbolTableRecord
100
AcDbLinetypeTableRecord
2
BYLAYER
70
0
0
ENDTAB
0
TABLE
2
LAYER
5
2
100
AcDbSymbolTable
70
2
0
LAYER
5
50
100
AcDbSymbolTableRecord
100
AcDbLayerTableRecord
2
0
70
0
6
CONTINUOUS
0
ENDTAB
0
TABLE
2
STYLE
5
3
100
AcDbSymbolTable
70
1
0
STYLE
5
11
100
AcDbSymbolTableRecord
100
AcDbTextStyleTableRecord
2
STANDARD
70
0
0
ENDTAB
0
TABLE
2
VIEW
5
6
100
AcDbSymbolTable
70
0
0
ENDTAB
0
TABLE
2
UCS
5
7
100
AcDbSymbolTable
70
0
0
ENDTAB
0
TABLE
2
APPID
5
9
100
AcDbSymbolTable
70
2
0
APPID
5
12
100
AcDbSymbolTableRecord
100
AcDbRegAppTableRecord
2
ACAD
70
0
0
ENDTAB
0
TABLE
2
DIMSTYLE
5
A
100
AcDbSymbolTable
70
1
0
ENDTAB
0
TABLE
2
BLOCK_RECORD
5
1
100
AcDbSymbolTable
70
1
0
BLOCK_RECORD
5
1F
100
AcDbSymbolTableRecord
100
AcDbBlockTableRecord
2
*MODEL_SPACE
0
BLOCK_RECORD
5
1B
100
AcDbSymbolTableRecord
100
AcDbBlockTableRecord
2
*PAPER_SPACE
0
ENDTAB
0
ENDSEC
0
SECTION
2
BLOCKS
0
BLOCK
5
20
100
AcDbEntity
100
AcDbBlockBegin
2
*MODEL_SPACE
0
ENDBLK
5
21
100
AcDbEntity
100
AcDbBlockEnd
0
BLOCK
5
1C
100
AcDbEntity
100
AcDbBlockBegin
2
*PAPER_SPACE
0
ENDBLK
5
1D
100
AcDbEntity
100
AcDbBlockEnd
0
ENDSEC
0
SECTION
2
ENTITIES
0
SPLINE
5
100
100
AcDbEntity
8
0
100
AcDbSpline
70
4
71
5
72
16
73
10
74
0
42
0.000000001
43
0.0000000001
44
0.0000000001
40
0
40
0
40
0
40
0
40
0
40
0
40
0.20000000000000001
40
0.40000000000000002
40
0.60000000000000009
40
0.80000000000000004
40
1
40
1
40
1
40
1
40
1
40
1
41
1
41
1
41
1
41
1
41
1
41
1
41
1
41
1
41
1
41
1
10
0
20
0
30
0
10
0
20
0.080000000000033267
30
0
10
0
20
0.24000000000008476
30
0
10
0
20
0.48000000000011728
30
0
10
0
20
0.80000000000008786
30
0
10
0
20
1.2000000000000053
30
0
10
0
20
1.5199999999999583
30
0
10
0
20
1.7599999999999643
30
0
10
0
20
1.9199999999999853
30
0
10
0
20
2
30
0
0
SPLINE
5
101
100
AcDbEntity
8
0
100
AcDbSpline
70
4
71
5
72
16
73
10
74
0
42
0.000000001
43
0.0000000001
44
0.0000000001
40
0
40
0
40
0
40
0
40
0
40
0
40
0.20000000000000001
40
0.40000000000000002
40
0.60000000000000009
40
0.80000000000000004
40
1
40
1
40
1
40
1
40
1
40
1
41
1
41
1
41
1
41
1
41
1
41
1
41
1
41
1
41
1
41
1
10
10
20
0
30
0
10
9.9999999999997495
20
0.080000000000033267
30
0
10
9.9999999999993197
20
0.24000000000008476
30
0
10
9.9999999999989129
20
0.48000000000011728
30
0
10
9.9999999999987672
20
0.80000000000008786
30
0
10
9.9999999999990248
20
1.2000000000000053
30
0
10
9.9999999999993889
20
1.5199999999999583
30
0
10
9.9999999999996998
20
1.7599999999999643
30
0
10
9.9999999999999005
20
1.9199999999999853
30
0
10
10
20
2
30
0
0
SPLINE
5
102
100
AcDbEntity
8
0
100
AcDbSpline
70
4
71
5
72
16
73
10
74
0
42
0.000000001
43
0.0000000001
44
0.0000000001
40
0
40
0
40
0
40
0
40
0
40
0
40
0.20000000000000001
40
0.40000000000000002
40
0.60000000000000009
40
0.80000000000000004
40
1
40
1
40
1
40
1
40
1
40
1
41
1
41
1
41
1
41
1
41
1
41
1
41
1
41
1
41
1
41
1
10
0
20
1
30
0
10
0.40000000000047375
20
0.99999999999987343
30
0
10
1.2000000000012774
20
0.99999999999965183
30
0
10
2.4000000000020547
20
0.99999999999941747
30
0
10
4.0000000000023546
20
0.99999999999928091
30
0
10
6.0000000000019584
20
0.99999999999933376
30
0
10
7.6000000000012928
20
0.99999999999951594
30
0
10
8.800000000000697
20
0.99999999999972888
30
0
10
9.6000000000002395
20
0.99999999999990408
30
0
10
10
20
1
30
0
0
SPLINE
5
103
100
AcDbEntity
8
0
100
AcDbSpline
70
4
71
5
72
161
73
155
74
0
42
0.000000001
43
0.0000000001
44
0.0000000001
40
0
40
0
40
0
40
0
40
0
40
0
40
0.0066666666666666671
40
0.013333333333333334
40
0.02
40
0.026666666666666668
40
0.033333333333333333
40
0.040000000000000001
40
0.046666666666666669
40
0.053333333333333337
40
0.060000000000000005
40
0.066666666666666666
40
0.073333333333333334
40
0.080000000000000002
40
0.08666666666666667
40
0.093333333333333338
40
0.10000000000000001
40
0.10666666666666667
40
0.11333333333333334
40
0.12000000000000001
40
0.12666666666666668
40
0.13333333333333333
40
0.13999999999999999
40
0.14666666666666664
40
0.15333333333333329
40
0.15999999999999995
40
0.1666666666666666
40
0.17333333333333326
40
0.17999999999999991
40
0.18666666666666656
40
0.19333333333333322
40
0.19999999999999987
40
0.20666666666666653
40
0.21333333333333318
40
0.21999999999999983
40
0.22666666666666649
40
0.23333333333333314
40
0.2399999999999998
40
0.24666666666666645
40
0.25333333333333313
40
0.25999999999999979
40
0.26666666666666644
40
0.2733333333333331
40
0.27999999999999975
40
0.2866666666666664
40
0.29333333333333306
40
0.29999999999999971
40
0.30666666666666637
40
0.31333333333333302
40
0.31999999999999967
40
0.32666666666666633
40
0.33333333333333298
40
0.33999999999999964
40
0.34666666666666629
40
0.35333333333333294
40
0.3599999999999996
40
0.36666666666666625
40
0.37333333333333291
40
0.37999999999999956
40
0.38666666666666621
40
0.39333333333333287
40
0.39999999999999952
40
0.40666666666666618
40
0.41333333333333283
40
0.41999999999999948
40
0.42666666666666614
40
0.43333333333333279
40
0.43999999999999945
40
0.4466666666666661
40
0.45333333333333276
40
0.45999999999999941
40
0.46666666666666606
40
0.47333333333333272
40
0.47999999999999937
40
0.48666666666666603
40
0.49333333333333268
40
0.49999999999999933
40
0.50666666666666604
40
0.51333333333333275
40
0.51999999999999946
40
0.52666666666666617
40
0.53333333333333288
40
0.53999999999999959
40
0.5466666666666663
40
0.55333333333333301
40
0.55999999999999972
40
0.56666666666666643
40
0.57333333333333314
40
0.57999999999999985
40
0.58666666666666656
40
0.59333333333333327
40
0.59999999999999998
40
0.60666666666666669
40
0.6133333333333334
40
0.62000000000000011
40
0.62666666666666682
40
0.63333333333333353
40
0.64000000000000024
40
0.64666666666666694
40
0.65333333333333365
40
0.66000000000000036
40
0.66666666666666707
40
0.67333333333333378
40
0.68000000000000049
40
0.6866666666666672
40
0.69333333333333391
40
0.70000000000000062
40
0.70666666666666733
40
0.71333333333333404
40
0.72000000000000075
40
0.72666666666666746
40
0.73333333333333417
40
0.74000000000000088
40
0.74666666666666759
40
0.7533333333333343
40
0.76000000000000101
40
0.76666666666666772
40
0.77333333333333443
40
0.78000000000000114
40
0.78666666666666785
40
0.79333333333333456
40
0.80000000000000127
40
0.80666666666666798
40
0.81333333333333468
40
0.82000000000000139
40
0.8266666666666681
40
0.83333333333333481
40
0.84000000000000152
40
0.84666666666666823
40
0.85333333333333494
40
0.86000000000000165
40
0.86666666666666836
40
0.87333333333333507
40
0.88000000000000178
40
0.88666666666666849
40
0.8933333333333352
40
0.90000000000000191
40
0.90666666666666862
40
0.91333333333333533
40
0.92000000000000204
40
0.92666666666666875
40
0.93333333333333546
40
0.94000000000000217
40
0.94666666666666888
40
0.95333333333333559
40
0.9600000000000023
40
0.96666666666666901
40
0.97333333333333572
40
0.98000000000000242
40
0.98666666666666913
40
0.99333333333333584
40
1
40
1
40
1
40
1
40
1
40
1
41
1
41
1
41
1
41
1
41
1
41
1
41
1
41
1
41
1
41
1
41
1
41
1
41
1
41
1
41
1
41
1
41
1
41
1
41
1
41
1
41
1
41
1
41
1
41
1
41
1
41
1
41
1
41
1
41
1
41
1
41
1
41
1
41
1
41
1
41
1
41
1
41
1
41
1
41
1
41
1
41
1
41
1
41
1
41
1
41
1
41
1
41
1
41
1
41
1
41
1
41
1
41
1
41
1
41
1
41
1
41
1
41
1
41
1
41
1
41
1
41
1
41
1
41
1
41
1
41
1
41
1
41
1
41
1
41
1
41
1
41
1
41
1
41
1
41
1
41
1
41
1
41
1
41
1
41
1
41
1
41
1
41
1
41
1
41
1
41
1
41
1
41
1
41
1
41
1
41
1
41
1
41
1
41
1
41
1
41
1
41
1
41
1
41
1
41
1
41
1
41
1
41
1
41
1
41
1
41
1
41
1
41
1
41
1
41
1
41
1
41
1
41
1
41
1
41
1
41
1
41
1
41
1
41
1
41
1
41
1
41
1
41
1
41
1
41
1
41
1
41
1
41
1
41
1
41
1
41
1
41
1
41
1
41
1
41
1
41
1
41
1
41
1
41
1
41
1
41
1
41
1
41
1
41
1
41
1
41
1
41
1
41
1
41
1
41
1
41
1
41
1
41
1
41
1
41
1
41
1
10
0
20
0
30
0
10
0.014092624392369857
20
-0.0015318480353731898
30
0
10
0.042113246428488252
20
-0.0030295632533855902
30
0
10
0.083650299725111121
20
-0.00057820481060162545
30
0
10
0.13804520222618277
20
0.01208691355196503
30
0
10
0.2044240638622975
20
0.043148278432222423
30
0
10
0.26928367873121428
20
0.088141236555784166
30
0
10
0.33281578245502402
20
0.14446044859387097
30
0
10
0.39534015840515141
20
0.20776540746750832
30
0
10
0.45733782927691036
20
0.27152200830012035
30
0
10
0.51937829040426997
20
0.32843101400060259
30
0
10
0.58204660115036366
20
0.37182517183789343
30
0
10
0.64586855768787843
20
0.39717952259011152
30
0
10
0.711241185576445
20
0.40334280735040923
30
0
10
0.77834941551395276
20
0.39447697442341734
30
0
10
0.84715202171448722
20
0.37850942729251247
30
0
10
0.91739960835084744
20
0.36410454803099579
30
0
10
0.98863991811255336
20
0.35800425068724895
30
0
10
1.0602336810785711
20
0.3624486240783123
30
0
10
1.131351908951695
20
0.37194748243000209
30
0
10
1.2011148812132619
20
0.37620620548254236
30
0
10
1.2687552901626762
20
0.36414584939942701
30
0
10
1.3337732805347917
20
0.32754646735945847
30
0
10
1.3960943393485372
20
0.26483394666150067
30
0
10
1.4562276837853863
20
0.18484637144992638
30
0
10
1.5150644465671714
20
0.10260068785787671
30
0
10
1.5736786482617795
20
0.035139434839418081
30
0
10
1.6331191077301912
20
-0.0028801502220931292
30
0
10
1.6942236471896779
20
-0.0029663881495828361
30
0
10
1.7573784929642344
20
0.031876469656194797
30
0
10
1.8224701134371597
20
0.087245105702631887
30
0
10
1.8890676292112563
20
0.14382947957676648
30
0
10
1.9565490560684662
20
0.18249572424148713
30
0
10
2.0242437366705905
20
0.18944016442243808
30
0
10
2.0915836057624198
20
0.16251813295262293
30
0
10
2.1581968147819381
20
0.11298765895293769
30
0
10
2.223883422156069
20
0.058658769360075372
30
0
10
2.2886190111577664
20
0.018756941162289618
30
0
10
2.3525439005144082
20
0.0085062351319212925
30
0
10
2.4159662765780849
20
0.032862007287151808
30
0
10
2.479334445962651
20
0.083749800693016685
30
0
10
2.5431405472364812
20
0.14620345814676775
30
0
10
2.6078361054412103
20
0.20281895194929977
30
0
10
2.673745663165858
20
0.2387414043604463
30
0
10
2.7409746975772049
20
0.24674278019178097
30
0
10
2.8093386858196876
20
0.23134540980349427
30
0
10
2.8784781553121213
20
0.20380890266627874
30
0
10
2.9479599879463207
20
0.17780667038046008
30
0
10
3.0173782457311003
20
0.1651134822337105
30
0
10
3.086468630486765
20
0.17064218690071115
30
0
10
3.1551752005708957
20
0.18977257662946218
30
0
10
3.2235648552165932
20
0.21296137893137002
30
0
10
3.2917652583498285
20
0.2292642854058233
30
0
10
3.3598991772066817
20
0.22994743844193111
30
0
10
3.4280068657737095
20
0.21287254110158862
30
0
10
3.496020611631887
20
0.18372203113536312
30
0
10
3.5638249364806689
20
0.1520910136804339
30
0
10
3.6312987704606359
20
0.12864798192662297
30
0
10
3.6983603950206856
20
0.1221558448027773
30
0
10
3.7650221446384586
20
0.13584567657669999
30
0
10
3.8313992768947043
20
0.16675557786345205
30
0
10
3.8976654390930312
20
0.20848536466022735
30
0
10
3.9640215064996251
20
0.2531356366963689
30
0
10
4.0306606029660461
20
0.29338999324535547
30
0
10
4.0977307995869277
20
0.32499494134457063
30
0
10
4.1653138901923672
20
0.34734688259769475
30
0
10
4.2334260181694452
20
0.36178906362412439
30
0
10
4.3020109515764737
20
0.37043332955299724
30
0
10
4.3709398254339469
20
0.3749258089504765
30
0
10
4.4399995096227656
20
0.37484981967678938
30
0
10
4.5089215379635945
20
0.36789896513786552
30
0
10
4.5774419254755268
20
0.35150478342212021
30
0
10
4.6453552353187249
20
0.32413846418248626
30
0
10
4.7125643797541112
20
0.28654636429110208
30
0
10
4.7791490160178309
20
0.24351928072237686
30
0
10
4.8453359109244527
20
0.20273250555937711
30
0
10
4.9114257676797104
20
0.17231583525837282
30
0
10
4.9777319114859617
20
0.15869848579386836
30
0
10
5.0445186714291621
20
0.16463270474832464
30
0
10
5.1119282192078197
20
0.18640032922139918
30
0
10
5.1799736902075431
20
0.2152184298359886
30
0
10
5.2485657020542469
20
0.24061945866077916
30
0
10
5.3175273889061003
20
0.25333216056552921
30
0
10
5.3866161045229894
20
0.24808858379507498
30
0
10
5.4555373073144544
20
0.22718864350896767
30
0
10
5.5239956072120009
20
0.19867534883618868
30
0
10
5.5917543617731642
20
0.17300138501230602
30
0
10
5.6586947474764369
20
0.16014156348794342
30
0
10
5.7248698641709606
20
0.16666569797635133
30
0
10
5.7905748048479371
20
0.19243803285030459
30
0
10
5.8562476627228026
20
0.23212148225161724
30
0
10
5.9223506288715013
20
0.27730907881582334
30
0
10
5.9892542968070304
20
0.31846054816894243
30
0
10
6.0571294084975325
20
0.34685273475097633
30
0
10
6.1258121786313335
20
0.3567025442154787
30
0
10
6.1949055140245335
20
0.34548177744803865
30
0
10
6.2639208330768135
20
0.31390796987023434
30
0
10
6.3324061364427813
20
0.26605565544256604
30
0
10
6.4000787415746343
20
0.20940504417217007
30
0
10
6.4669591165086224
20
0.15495385590771327
30
0
10
6.5332602539130038
20
0.11457512788105652
30
0
10
6.5992731706279129
20
0.098347326911084582
30
0
10
6.6652533085041332
20
0.11187439636835987
30
0
10
6.7313079055929936
20
0.15365420044232342
30
0
10
6.7972792419145147
20
0.2123019981424199
30
0
10
6.8628497724668236
20
0.27095318042596744
30
0
10
6.9276501627506377
20
0.31173478050786008
30
0
10
6.9913690609503245
20
0.32034870358604572
30
0
10
7.0538556599147109
20
0.29029315164020497
30
0
10
7.1152425055627999
20
0.22807231084658786
30
0
10
7.1758810559761379
20
0.14936733265441901
30
0
10
7.2362498357445784
20
0.073934430654021485
30
0
10
7.2968697302647003
20
0.020738716004711902
30
0
10
7.3582220188362122
20
0.003469595748199304
30
0
10
7.4206513040408959
20
0.024722395174736872
30
0
10
7.4843245490413874
20
0.07490718136678029
30
0
10
7.5492746026677171
20
0.1381284976472914
30
0
10
7.6154234619807104
20
0.19651582289953035
30
0
10
7.6826135068821628
20
0.23490843091186667
30
0
10
7.7506357260473893
20
0.24603103688029301
30
0
10
7.8192578256281209
20
0.23346868290385853
30
0
10
7.8882451357677841
20
0.20695222450558814
30
0
10
7.9573838730455613
20
0.17878678565660494
30
0
10
8.0265013942574122
20
0.16013095416775952
30
0
10
8.0954927147254168
20
0.15662204822551498
30
0
10
8.1643271161518296
20
0.16677075258153279
30
0
10
8.2330226893803786
20
0.18504420254343368
30
0
10
8.3016275960481636
20
0.20394470383735647
30
0
10
8.3702000790809024
20
0.21631063887523455
30
0
10
8.4387854773980582
20
0.21796823723097186
30
0
10
8.5074091688756024
20
0.20837991823072236
30
0
10
8.5760835595720621
20
0.18947954486303706
30
0
10
8.6448114535719256
20
0.16502332865808769
30
0
10
8.7135900627723792
20
0.13973389008866191
30
0
10
8.7824168641802416
20
0.11852184454048011
30
0
10
8.8512833382734772
20
0.1057453473095184
30
0
10
8.9201634858273611
20
0.10454361080208643
30
0
10
8.9890031997318758
20
0.11610664660919764
30
0
10
9.0577111095421827
20
0.13905622891412403
30
0
10
9.1261439772481339
20
0.16855556709674291
30
0
10
9.1941394563420911
20
0.19762761212517024
30
0
10
9.261556964128383
20
0.21885178576420167
30
0
10
9.328316478629727
20
0.22595422185416497
30
0
10
9.3944365095247644
20
0.21538475317549144
30
0
10
9.460077047787415
20
0.18805654813946432
30
0
10
9.5254981438656223
20
0.14821168998988438
30
0
10
9.5910123604657187
20
0.10207287978718345
30
0
10
9.6569385038106486
20
0.056547933138919079
30
0
10
9.7235570066006378
20
0.017970233023081403
30
0
10
9.7910588228093403
20
-0.0093292734270456791
30
0
10
9.8595570708490623
20
-0.022788349430260139
30
0
10
9.9151982970937205
20
-0.021450417537250206
30
0
10
9.9574115715468565
20
-0.013447315929111553
30
0
10
9.9857681285477931
20
-0.0050009267939276842
30
0
10
10
20
0
30
0
0
SPLINE
5
104
100
AcDbEntity
8
0
100
AcDbSpline
70
4
71
5
72
161
73
155
74
0
42
0.000000001
43
0.0000000001
44
0.0000000001
40
0
40
0
40
0
40
0
40
0
40
0
40
0.0066666666666666671
40
0.013333333333333334
40
0.02
40
0.026666666666666668
40
0.033333333333333333
40
0.040000000000000001
40
0.046666666666666669
40
0.053333333333333337
40
0.060000000000000005
40
0.066666666666666666
40
0.073333333333333334
40
0.080000000000000002
40
0.08666666666666667
40
0.093333333333333338
40
0.10000000000000001
40
0.10666666666666667
40
0.11333333333333334
40
0.12000000000000001
40
0.12666666666666668
40
0.13333333333333333
40
0.13999999999999999
40
0.14666666666666664
40
0.15333333333333329
40
0.15999999999999995
40
0.1666666666666666
40
0.17333333333333326
40
0.17999999999999991
40
0.18666666666666656
40
0.19333333333333322
40
0.19999999999999987
40
0.20666666666666653
40
0.21333333333333318
40
0.21999999999999983
40
0.22666666666666649
40
0.23333333333333314
40
0.2399999999999998
40
0.24666666666666645
40
0.25333333333333313
40
0.25999999999999979
40
0.26666666666666644
40
0.2733333333333331
40
0.27999999999999975
40
0.2866666666666664
40
0.29333333333333306
40
0.29999999999999971
40
0.30666666666666637
40
0.31333333333333302
40
0.31999999999999967
40
0.32666666666666633
40
0.33333333333333298
40
0.33999999999999964
40
0.34666666666666629
40
0.35333333333333294
40
0.3599999999999996
40
0.36666666666666625
40
0.37333333333333291
40
0.37999999999999956
40
0.38666666666666621
40
0.39333333333333287
40
0.39999999999999952
40
0.40666666666666618
40
0.41333333333333283
40
0.41999999999999948
40
0.42666666666666614
40
0.43333333333333279
40
0.43999999999999945
40
0.4466666666666661
40
0.45333333333333276
40
0.45999999999999941
40
0.46666666666666606
40
0.47333333333333272
40
0.47999999999999937
40
0.48666666666666603
40
0.49333333333333268
40
0.49999999999999933
40
0.50666666666666604
40
0.51333333333333275
40
0.51999999999999946
40
0.52666666666666617
40
0.53333333333333288
40
0.53999999999999959
40
0.5466666666666663
40
0.55333333333333301
40
0.55999999999999972
40
0.56666666666666643
40
0.57333333333333314
40
0.57999999999999985
40
0.58666666666666656
40
0.59333333333333327
40
0.59999999999999998
40
0.60666666666666669
40
0.6133333333333334
40
0.62000000000000011
40
0.62666666666666682
40
0.63333333333333353
40
0.64000000000000024
40
0.64666666666666694
40
0.65333333333333365
40
0.66000000000000036
40
0.66666666666666707
40
0.67333333333333378
40
0.68000000000000049
40
0.6866666666666672
40
0.69333333333333391
40
0.70000000000000062
40
0.70666666666666733
40
0.71333333333333404
40
0.72000000000000075
40
0.72666666666666746
40
0.73333333333333417
40
0.74000000000000088
40
0.74666666666666759
40
0.7533333333333343
40
0.76000000000000101
40
0.76666666666666772
40
0.77333333333333443
40
0.78000000000000114
40
0.78666666666666785
40
0.79333333333333456
40
0.80000000000000127
40
0.80666666666666798
40
0.81333333333333468
40
0.82000000000000139
40
0.8266666666666681
40
0.83333333333333481
40
0.84000000000000152
40
0.84666666666666823
40
0.85333333333333494
40
0.86000000000000165
40
0.86666666666666836
40
0.87333333333333507
40
0.88000000000000178
40
0.88666666666666849
40
0.8933333333333352
40
0.90000000000000191
40
0.90666666666666862
40
0.91333333333333533
40
0.92000000000000204
40
0.92666666666666875
40
0.93333333333333546
40
0.94000000000000217
40
0.94666666666666888
40
0.95333333333333559
40
0.9600000000000023
40
0.96666666666666901
40
0.97333333333333572
40
0.98000000000000242
40
0.98666666666666913
40
0.99333333333333584
40
1
40
1
40
1
40
1
40
1
40
1
41
1
41
1
41
1
41
1
41
1
41
1
41
1
41
1
41
1
41
1
41
1
41
1
41
1
41
1
41
1
41
1
41
1
41
1
41
1
41
1
41
1
41
1
41
1
41
1
41
1
41
1
41
1
41
1
41
1
41
1
41
1
41
1
41
1
41
1
41
1
41
1
41
1
41
1
41
1
41
1
41
1
41
1
41
1
41
1
41
1
41
1
41
1
41
1
41
1
41
1
41
1
41
1
41
1
41
1
41
1
41
1
41
1
41
1
41
1
41
1
41
1
41
1
41
1
41
1
41
1
41
1
41
1
41
1
41
1
41
1
41
1
41
1
41
1
41
1
41
1
41
1
41
1
41
1
41
1
41
1
41
1
41
1
41
1
41
1
41
1
41
1
41
1
41
1
41
1
41
1
41
1
41
1
41
1
41
1
41
1
41
1
41
1
41
1
41
1
41
1
41
1
41
1
41
1
41
1
41
1
41
1
41
1
41
1
41
1
41
1
41
1
41
1
41
1
41
1
41
1
41
1
41
1
41
1
41
1
41
1
41
1
41
1
41
1
41
1
41
1
41
1
41
1
41
1
41
1
41
1
41
1
41
1
41
1
41
1
41
1
41
1
41
1
41
1
41
1
41
1
41
1
41
1
41
1
41
1
41
1
41
1
41
1
41
1
41
1
41
1
41
1
41
1
41
1
41
1
41
1
10
0
20
2
30
0
10
0.012391710819989831
20
1.9940828607134855
30
0
10
0.037333802331770458
20
1.9816639453751579
30
0
10
0.075222945323602908
20
1.9612816894359466
30
0
10
0.12669391673276931
20
1.9305970910729811
30
0
10
0.19257960129564788
20
1.8867086224246195
30
0
10
0.25989252727521112
20
1.8382287444218055
30
0
10
0.32839158840101251
20
1.7870499622156231
30
0
10
0.39767681753537926
20
1.7363117629406433
30
0
10
0.46714114854706068
20
1.6907719702332911
30
0
10
0.536112972828092
20
1.6558470076366163
30
0
10
0.60401296260198478
20
1.6365558973876304
30
0
10
0.67050313068006806
20
1.6365111447797562
30
0
10
0.73564524769456652
20
1.6568616810193464
30
0
10
0.80003835011441971
20
1.6953341313959012
30
0
10
0.86455976071179563
20
1.747088541332348
30
0
10
0.93012467853617387
20
1.8054924105681804
30
0
10
0.9974371835930228
20
1.86292584128501
30
0
10
1.0667486189080335
20
1.9115708471730428
30
0
10
1.1376021239052136
20
1.9442114425145056
30
0
10
1.2091090388656813
20
1.9553286433219434
30
0
10
1.2802483955217181
20
1.9422815300217409
30
0
10
1.350141678277502
20
1.9063096172479101
30
0
10
1.4183758886863922
20
1.8539566364339108
30
0
10
1.4851888848593746
20
1.7972531594394268
30
0
10
1.5511958810523652
20
1.7498443505084513
30
0
10
1.6171861071628646
20
1.723638704942136
30
0
10
1.6839024768490667
20
1.7255520762556862
30
0
10
1.7518036716779128
20
1.7535001484050561
30
0
10
1.8209121932079237
20
1.7949368071808491
30
0
10
1.8909376874149861
20
1.8328526561591558
30
0
10
1.961350135981395
20
1.8507163330429472
30
0
10
2.0314747633418357
20
1.8372788138868894
30
0
10
2.1005728904441763
20
1.7927749586939954
30
0
10
2.1679454953432504
20
1.7295811696823686
30
0
10
2.2330527589114197
20
1.6659302927053874
30
0
10
2.2956384702519035
20
1.6212138053743907
30
0
10
2.3558339065039373
20
1.6110383680259821
30
0
10
2.4143153986339532
20
1.6414279273028254
30
0
10
2.472284600366919
20
1.7066905402031749
30
0
10
2.5311338007911131
20
1.7940227008516485
30
0
10
2.5921864445022691
20
1.8865538822473362
30
0
10
2.6563983301753873
20
1.9670819580018508
30
0
10
2.7240967070348705
20
2.0213615551281028
30
0
10
2.794646728197943
20
2.0419857322676958
30
0
10
2.866745135925064
20
2.0278105078723114
30
0
10
2.9388138265592874
20
1.9827289985629994
30
0
10
3.0093494242647085
20
1.9146629232388359
30
0
10
3.0773117296190318
20
1.8344896980374585
30
0
10
3.1424362150838547
20
1.7549223171994259
30
0
10
3.2050213222392498
20
1.6886435146156142
30
0
10
3.2657672976143344
20
1.6465487474623499
30
0
10
3.3255936121778373
20
1.6358860203009957
30
0
10
3.3854697978321791
20
1.6585784692860697
30
0
10
3.4462292757691677
20
1.7090968882805564
30
0
10
3.5085229091312096
20
1.7766851097191696
30
0
10
3.5727933254849464
20
1.8481197600669943
30
0
10
3.6392372255968723
20
1.9103925241170292
30
0
10
3.7077832197296869
20
1.9531710803128872
30
0
10
3.7780365674897869
20
1.9719901883096638
30
0
10
3.8493592026435985
20
1.9682027667532735
30
0
10
3.9210342711822661
20
1.9468407399748768
30
0
10
3.9924084056461635
20
1.9150880145345186
30
0
10
4.0630362825936777
20
1.8805399084535688
30
0
10
4.1328426333403288
20
1.8494524091668554
30
0
10
4.2020319324505104
20
1.8263222325164623
30
0
10
4.2709676271282291
20
1.8136274341933543
30
0
10
4.3400638240511045
20
1.8115394937207696
30
0
10
4.4096683254305864
20
1.8175761430895057
30
0
10
4.4799593003735572
20
1.8264775855502644
30
0
10
4.550962573364675
20
1.8321419269263826
30
0
10
4.6225572791116836
20
1.8295144458687331
30
0
10
4.6944905868402218
20
1.8162541458945156
30
0
10
4.7663773587540241
20
1.795068340035374
30
0
10
4.8377446202015504
20
1.773777560636959
30
0
10
4.9081417343081988
20
1.7618110113104586
30
0
10
4.9772423676775892
20
1.7673654385725364
30
0
10
5.04493480641713
20
1.7946524989257704
30
0
10
5.1114547667698922
20
1.840217194908587
30
0
10
5.1773085302453827
20
1.8942177537503215
30
0
10
5.2430963893106197
20
1.9441329829418199
30
0
10
5.3093584680271091
20
1.9778565697516062
30
0
10
5.3764313288299928
20
1.9867047058303351
30
0
10
5.444249537412257
20
1.9693178259769661
30
0
10
5.5124198983976171
20
1.9309334089707253
30
0
10
5.5804381277980495
20
1.8801876674771443
30
0
10
5.6478714770178744
20
1.8265718151644776
30
0
10
5.7145325821856225
20
1.777875338895333
30
0
10
5.7807153532806161
20
1.7369785068260195
30
0
10
5.8470630129414394
20
1.7027721969726
30
0
10
5.9143004775332333
20
1.6726217412613273
30
0
10
5.9830000289285357
20
1.6444403042028877
30
0
10
6.0533580418197257
20
1.6186645573976302
30
0
10
6.1249025834854525
20
1.6009439976101594
30
0
10
6.1966679688880921
20
1.5999546494127534
30
0
10
6.2675112429155009
20
1.6237218023260089
30
0
10
6.3363789553506074
20
1.6764753808737014
30
0
10
6.4025991697928797
20
1.7552097833971141
30
0
10
6.4661502569947613
20
1.8465732699355324
30
0
10
6.5274681981756375
20
1.9317966526171837
30
0
10
6.5872700742919834
20
1.9912580050683544
30
0
10
6.6463648391507499
20
2.009444330210767
30
0
10
6.7054851518119722
20
1.9791469181551671
30
0
10
6.7650706701039649
20
1.9075010756484923
30
0
10
6.8252741223980626
20
1.813507153845388
30
0
10
6.8860788316531227
20
1.7213115502231329
30
0
10
6.9473827996188042
20
1.6547124566187326
30
0
10
7.0090933424093684
20
1.6313881144465794
30
0
10
7.0712250036486113
20
1.6566963099538468
30
0
10
7.1339729611737166
20
1.7192729446205559
30
0
10
7.1976167716075024
20
1.7984716786909474
30
0
10
7.2624442166399117
20
1.8704070939001145
30
0
10
7.328666222648641
20
1.914625531553712
30
0
10
7.3963382474550095
20
1.9203016357417166
30
0
10
7.4652715572423523
20
1.8932059110655444
30
0
10
7.5351100132799633
20
1.8497471117258613
30
0
10
7.6054178896828928
20
1.8101136035054903
30
0
10
7.6757618203190168
20
1.7919566522917934
30
0
10
7.7457995120273102
20
1.8033486215060157
30
0
10
7.8153530352360221
20
1.8374886115240532
30
0
10
7.8843740427661952
20
1.8793897149315242
30
0
10
7.9529198057474559
20
1.9116017699778476
30
0
10
8.0211249274871861
20
1.9198451419374298
30
0
10
8.0891754108571252
20
1.8997651674129283
30
0
10
8.1572802644074134
20
1.8596881012869053
30
0
10
8.2256412330834578
20
1.8141106032553354
30
0
10
8.2944209179502213
20
1.7787843528937732
30
0
10
8.3637155742688467
20
1.765719739386745
30
0
10
8.4335161378900008
20
1.7768870925621272
30
0
10
8.5037099478344267
20
1.8033674679832976
30
0
10
8.5741333207470127
20
1.831586988717697
30
0
10
8.6446137065283093
20
1.8480168777396719
30
0
10
8.7150109317536746
20
1.8439406156347378
30
0
10
8.7852717643535669
20
1.8215924537374473
30
0
10
8.8554082097632314
20
1.7920662770611369
30
0
10
8.9254419386639015
20
1.7695318052308546
30
0
10
8.9953587384811691
20
1.7665661031263529
30
0
10
9.0650607116530999
20
1.7891847182803466
30
0
10
9.1343142245105753
20
1.8315577978561557
30
0
10
9.2028085482624853
20
1.8801176761822789
30
0
10
9.270222478478896
20
1.9183482357949315
30
0
10
9.3362875088465884
20
1.9312885418669923
30
0
10
9.4008536756753553
20
1.9102374861286522
30
0
10
9.4639508868158071
20
1.8571474321349228
30
0
10
9.5257385223694584
20
1.7816175436208204
30
0
10
9.5864595281841574
20
1.6981775233753751
30
0
10
9.646391355321386
20
1.6233752523069431
30
0
10
9.7058016875405944
20
1.573152590660615
30
0
10
9.764893429157647
20
1.5595814055980439
30
0
10
9.8237988588251426
20
1.5905218363778713
30
0
10
9.8825984766732553
20
1.6707475994157348
30
0
10
9.9295853697041547
20
1.776237817704158
30
0
10
9.9648018891855479
20
1.8789459547641751
30
0
10
9.98826904930322
20
1.9579014045139287
30
0
10
10
20
2
30
0
0
ENDSEC
0
SECTION
2
OBJECTS
0
DICTIONARY
5
C
100
AcDbDictionary
3
ACAD_GROUP
350
D
3
ACAD_MLINESTYLE
350
17
0
DICTIONARY
5
D
100
AcDbDictionary
0
DICTIONARY
5
1A
330
C
100
AcDbDictionary
0
DICTIONARY
5
17
100
AcDbDictionary
0
ENDSEC
0
EOF
