0
SECTION
2
HEADER
9
$INSUNITS
70
4
9
$ACADVER
1
AC1014
9
$HANDSEED
5
FFFF
0
ENDSEC
0
SECTION
2
TABLES
0
TABLE
2
VPORT
5
8
100
AcDbSymbolTable
0
ENDTAB
0
TABLE
2
LTYPE
5
5
100
AcDbSymbolTable
0
LTYPE
5
14
100
AcDbSymbolTableRecord
100
AcDbLinetypeTableRecord
2
BYBLOCK
70
0
0
LTYPE
5
15
100
AcDbSymbolTableRecord
100
AcDbLinetypeTableRecord
2
BYLAYER
70
0
0
ENDTAB
0
TABLE
2
LAYER
5
2
100
AcDbSymbolTable
70
2
0
LAYER
5
50
100
AcDbSymbolTableRecord
100
AcDbLayerTableRecord
2
0
70
0
6
CONTINUOUS
0
ENDTAB
0
TABLE
2
STYLE
5
3
100
AcDbSymbolTable
70
1
0
STYLE
5
11
100
AcDbSymbolTableRecord
100
AcDbTextStyleTableRecord
2
STANDARD
70
0
0
ENDTAB
0
TABLE
2
VIEW
5
6
100
AcDbSymbolTable
70
0
0
ENDTAB
0
TABLE
2
UCS
5
7
100
AcDbSymbolTable
70
0
0
ENDTAB
0
TABLE
2
APPID
5
9
100
AcDbSymbolTable
70
2
0
APPID
5
12
100
AcDbSymbolTableRecord
100
AcDbRegAppTableRecord
2
ACAD
70
0
0
ENDTAB
0
TABLE
2
DIMSTYLE
5
A
100
AcDbSymbolTable
70
1
0
ENDTAB
0
TABLE
2
BLOCK_RECORD
5
1
100
AcDbSymbolTable
70
1
0
BLOCK_RECORD
5
1F
100
AcDbSymbolTableRecord
100
AcDbBlockTableRecord
2
*MODEL_SPACE
0
BLOCK_RECORD
5
1B
100
AcDbSymbolTableRecord
100
AcDbBlockTableRecord
2
*PAPER_SPACE
0
ENDTAB
0
ENDSEC
0
SECTION
2
BLOCKS
0
BLOCK
5
20
100
AcDbEntity
100
AcDbBlockBegin
2
*MODEL_SPACE
0
ENDBLK
5
21
100
AcDbEntity
100
AcDbBlockEnd
0
BLOCK
5
1C
100
AcDbEntity
100
AcDbBlockBegin
2
*PAPER_SPACE
0
ENDBLK
5
1D
100
AcDbEntity
100
AcDbBlockEnd
0
ENDSEC
0
SECTION
2
ENTITIES
0
SPLINE
5
100
100
AcDbEntity
8
0
100
AcDbSpline
70
4
71
5
72
16
73
10
74
0
42
0.000000001
43
0.0000000001
44
0.0000000001
40
0
40
0
40
0
40
0
40
0
40
0
40
0.20000000000000001
40
0.40000000000000002
40
0.60000000000000009
40
0.80000000000000004
40
1
40
1
40
1
40
1
40
1
40
1
41
1
41
1
41
1
41
1
41
1
41
1
41
1
41
1
41
1
41
1
10
0
20
0
30
0
10
0
20
0.080000000000033267
30
0
10
0
20
0.24000000000008476
30
0
10
0
20
0.48000000000011728
30
0
10
0
20
0.80000000000008786
30
0
10
0
20
1.2000000000000053
30
0
10
0
20
1.5199999999999583
30
0
10
0
20
1.7599999999999643
30
0
10
0
20
1.9199999999999853
30
0
10
0
20
2
30
0
0
SPLINE
5
101
100
AcDbEntity
8
0
100
AcDbSpline
70
4
71
5
72
16
73
10
74
0
42
0.000000001
43
0.0000000001
44
0.0000000001
40
0
40
0
40
0
40
0
40
0
40
0
40
0.20000000000000001
40
0.40000000000000002
40
0.60000000000000009
40
0.80000000000000004
40
1
40
1
40
1
40
1
40
1
40
1
41
1
41
1
41
1
41
1
41
1
41
1
41
1
41
1
41
1
41
1
10
10
20
0
30
0
10
9.9999999999997495
20
0.080000000000033267
30
0
10
9.9999999999993197
20
0.24000000000008476
30
0
10
9.9999999999989129
20
0.48000000000011728
30
0
10
9.9999999999987672
20
0.80000000000008786
30
0
10
9.9999999999990248
20
1.2000000000000053
30
0
10
9.9999999999993889
20
1.5199999999999583
30
0
10
9.9999999999996998
20
1.7599999999999643
30
0
10
9.9999999999999005
20
1.9199999999999853
30
0
10
10
20
2
30
0
0
SPLINE
5
102
100
AcDbEntity
8
0
100
AcDbSpline
70
4
71
5
72
16
73
10
74
0
42
0.000000001
43
0.0000000001
44
0.0000000001
40
0
40
0
40
0
40
0
40
0
40
0
40
0.20000000000000001
40
0.40000000000000002
40
0.60000000000000009
40
0.80000000000000004
40
1
40
1
40
1
40
1
40
1
40
1
41
1
41
1
41
1
41
1
41
1
41
1
41
1
41
1
41
1
41
1
10
0
20
1
30
0
10
0.40000000000047375
20
0.99999999999987343
30
0
10
1.2000000000012774
20
0.99999999999965183
30
0
10
2.4000000000020547
20
0.99999999999941747
30
0
10
4.0000000000023546
20
0.99999999999928091
30
0
10
6.0000000000019584
20
0.99999999999933376
30
0
10
7.6000000000012928
20
0.99999999999951594
30
0
10
8.800000000000697
20
0.99999999999972888
30
0
10
9.6000000000002395
20
0.99999999999990408
30
0
10
10
20
1
30
0
0
SPLINE
5
103
100
AcDbEntity
8
0
100
AcDbSpline
70
4
71
5
72
111
73
105
74
0
42
0.000000001
43
0.0000000001
44
0.0000000001
40
0
40
0
40
0
40
0
40
0
40
0
40
0.01
40
0.02
40
0.029999999999999999
40
0.040000000000000001
40
0.050000000000000003
40
0.060000000000000005
40
0.070000000000000007
40
0.080000000000000002
40
0.089999999999999997
40
0.099999999999999992
40
0.10999999999999999
40
0.11999999999999998
40
0.12999999999999998
40
0.13999999999999999
40
0.14999999999999999
40
0.16
40
0.17000000000000001
40
0.18000000000000002
40
0.19000000000000003
40
0.20000000000000004
40
0.21000000000000005
40
0.22000000000000006
40
0.23000000000000007
40
0.24000000000000007
40
0.25000000000000006
40
0.26000000000000006
40
0.27000000000000007
40
0.28000000000000008
40
0.29000000000000009
40
0.3000000000000001
40
0.31000000000000011
40
0.32000000000000012
40
0.33000000000000013
40
0.34000000000000014
40
0.35000000000000014
40
0.36000000000000015
40
0.37000000000000016
40
0.38000000000000017
40
0.39000000000000018
40
0.40000000000000019
40
0.4100000000000002
40
0.42000000000000021
40
0.43000000000000022
40
0.44000000000000022
40
0.45000000000000023
40
0.46000000000000024
40
0.47000000000000025
40
0.48000000000000026
40
0.49000000000000027
40
0.50000000000000022
40
0.51000000000000023
40
0.52000000000000024
40
0.53000000000000025
40
0.54000000000000026
40
0.55000000000000027
40
0.56000000000000028
40
0.57000000000000028
40
0.58000000000000029
40
0.5900000000000003
40
0.60000000000000031
40
0.61000000000000032
40
0.62000000000000033
40
0.63000000000000034
40
0.64000000000000035
40
0.65000000000000036
40
0.66000000000000036
40
0.67000000000000037
40
0.68000000000000038
40
0.69000000000000039
40
0.7000000000000004
40
0.71000000000000041
40
0.72000000000000042
40
0.73000000000000043
40
0.74000000000000044
40
0.75000000000000044
40
0.76000000000000045
40
0.77000000000000046
40
0.78000000000000047
40
0.79000000000000048
40
0.80000000000000049
40
0.8100000000000005
40
0.82000000000000051
40
0.83000000000000052
40
0.84000000000000052
40
0.85000000000000053
40
0.86000000000000054
40
0.87000000000000055
40
0.88000000000000056
40
0.89000000000000057
40
0.90000000000000058
40
0.91000000000000059
40
0.9200000000000006
40
0.9300000000000006
40
0.94000000000000061
40
0.95000000000000062
40
0.96000000000000063
40
0.97000000000000064
40
0.98000000000000065
40
0.99000000000000066
40
1
40
1
40
1
40
1
40
1
40
1
41
1
41
1
41
1
41
1
41
1
41
1
41
1
41
1
41
1
41
1
41
1
41
1
41
1
41
1
41
1
41
1
41
1
41
1
41
1
41
1
41
1
41
1
41
1
41
1
41
1
41
1
41
1
41
1
41
1
41
1
41
1
41
1
41
1
41
1
41
1
41
1
41
1
41
1
41
1
41
1
41
1
41
1
41
1
41
1
41
1
41
1
41
1
41
1
41
1
41
1
41
1
41
1
41
1
41
1
41
1
41
1
41
1
41
1
41
1
41
1
41
1
41
1
41
1
41
1
41
1
41
1
41
1
41
1
41
1
41
1
41
1
41
1
41
1
41
1
41
1
41
1
41
1
41
1
41
1
41
1
41
1
41
1
41
1
41
1
41
1
41
1
41
1
41
1
41
1
41
1
41
1
41
1
41
1
41
1
41
1
41
1
41
1
41
1
41
1
41
1
41
1
41
1
41
1
41
1
41
1
10
0
20
0
30
0
10
0.019097167956198594
20
0.0088309936809459651
30
0
10
0.057419875185430735
20
0.026271235647116264
30
0
10
0.11528904737098961
20
0.051766347942187277
30
0
10
0.19321831434197367
20
0.084429238777251323
30
0
10
0.29188702563579788
20
0.12290189178654501
30
0
10
0.39173154613717831
20
0.15860810227448033
30
0
10
0.49258751497205017
20
0.19072422625611665
30
0
10
0.59418167095234886
20
0.21788743161849766
30
0
10
0.6960987903228637
20
0.23802973629489663
30
0
10
0.79786898014007235
20
0.24888030215271723
30
0
10
0.89906328455997564
20
0.24851406537324505
30
0
10
0.99938654261275151
20
0.23588489514810543
30
0
10
1.0987709142776352
20
0.21136319428771896
30
0
10
1.1974707991775431
20
0.17727965858521152
30
0
10
1.2959338966569953
20
0.13736050318466694
30
0
10
1.3946713161198208
20
0.096155068420714501
30
0
10
1.4941265818617857
20
0.05846536464807036
30
0
10
1.5945485997750781
20
0.028778717126812119
30
0
10
1.6958532816869185
20
0.010689180759688371
30
0
10
1.7977249326277742
20
0.0065602178183938511
30
0
10
1.899730736516267
20
0.017198761430946265
30
0
10
2.0014301441979789
20
0.041526605294054414
30
0
10
2.1024869231953236
20
0.07624596684969108
30
0
10
2.2027786267805984
20
0.11552183899266255
30
0
10
2.3023524391699683
20
0.15229765377578819
30
0
10
2.4013826585681968
20
0.17959216783987905
30
0
10
2.5001276757733621
20
0.1918028148072275
30
0
10
2.5988872310824278
20
0.1860078156181702
30
0
10
2.69795959794331
20
0.16326823430876425
30
0
10
2.7975986770879806
20
0.12770154414978285
30
0
10
2.897971102532094
20
0.0855597826932602
30
0
10
2.9991131892393263
20
0.044307288689436695
30
0
10
3.100888104453257
20
0.011700386624270864
30
0
10
3.2029421498452262
20
-0.0051349158166196802
30
0
10
3.3048052507112144
20
-0.00075900789508500689
30
0
10
3.405993009030289
20
0.027508177174665083
30
0
10
3.5061068278741363
20
0.078548532691446404
30
0
10
3.6049379478274997
20
0.14632097158714102
30
0
10
3.7025612548034688
20
0.21896708200172282
30
0
10
3.7992449469836749
20
0.28218971759187628
30
0
10
3.895369877424816
20
0.32238373455948455
30
0
10
3.991344184129384
20
0.32993499318919012
30
0
10
4.0875226220010887
20
0.30227767394817251
30
0
10
4.1841167160171047
20
0.24752043455637415
30
0
10
4.2812216037079862
20
0.18066591672936058
30
0
10
4.3788526915372836
20
0.1192585346935955
30
0
10
4.476979749512763
20
0.079067433707178281
30
0
10
4.5755597376627
20
0.070146528106262512
30
0
10
4.6745761186823032
20
0.091717733094761084
30
0
10
4.7740343755094479
20
0.13449886979832323
30
0
10
4.8739450797556056
20
0.18509390190058514
30
0
10
4.97431056349006
20
0.22984096495578304
30
0
10
5.0751114203652179
20
0.25853788808316819
30
0
10
5.1762896241281817
20
0.26911541967105351
30
0
10
5.2777552300863722
20
0.26617940467050294
30
0
10
5.3794008945848475
20
0.25758117834789324
30
0
10
5.4811138932854284
20
0.25154910085730486
30
0
10
5.5827889046390684
20
0.2538076031216111
30
0
10
5.6843411876288155
20
0.26412423928143325
30
0
10
5.7857133535915288
20
0.27787523858365332
30
0
10
5.8868803583306741
20
0.28868261183114519
30
0
10
5.9878556590703411
20
0.29074146058234102
30
0
10
6.0886957202985901
20
0.28113524175083687
30
0
10
6.1895084019818576
20
0.2625344945207792
30
0
10
6.2904219962398811
20
0.24118555112861889
30
0
10
6.3915496575689996
20
0.22430889563030079
30
0
10
6.4929547933793517
20
0.21766687399350895
30
0
10
6.5946175470222821
20
0.22315557788626733
30
0
10
6.6963966468908795
20
0.23612491708514149
30
0
10
6.7980771039126804
20
0.24810094660503373
30
0
10
6.8994237430994332
20
0.24987972782266826
30
0
10
7.0002325909054992
20
0.23448510481336449
30
0
10
7.1003831920042
20
0.20018504610885365
30
0
10
7.1998905399972664
20
0.15348508638558855
30
0
10
7.2988710127882896
20
0.1056503727490961
30
0
10
7.3975084045945652
20
0.069246471684691085
30
0
10
7.4960198534558433
20
0.054641889503731771
30
0
10
7.5946221317864149
20
0.066602109027646794
30
0
10
7.6934970000842
20
0.1006342862514539
30
0
10
7.7927843094206519
20
0.1463530488415255
30
0
10
7.892576245942724
20
0.19108326507633391
30
0
10
7.9929109192676373
20
0.22342621222289419
30
0
10
8.0937666658348686
20
0.23672152308794883
30
0
10
8.1950547227101289
20
0.23287999950787369
30
0
10
8.2966385442126587
20
0.21949775961308488
30
0
10
8.3983548912645016
20
0.20651249902259827
30
0
10
8.500034259515866
20
0.20302806728031503
30
0
10
8.6015215741803779
20
0.21406762918856101
30
0
10
8.7026967847644556
20
0.23735612835836128
30
0
10
8.8034775531797393
20
0.26588699415113709
30
0
10
8.9038219824679778
20
0.29050209907744196
30
0
10
9.0037312696002108
20
0.30244635462208713
30
0
10
9.1032526268320648
20
0.29597481762401434
30
0
10
9.2024815415452217
20
0.27082107909024616
30
0
10
9.3015440466502177
20
0.23059766799763026
30
0
10
9.4005796387731628
20
0.18132645040821205
30
0
10
9.4997239595685166
20
0.12992172185370277
30
0
10
9.5990915937642676
20
0.082695492952504196
30
0
10
9.6987587637316945
20
0.04384989050838408
30
0
10
9.7987710351751556
20
0.015900170641627284
30
0
10
9.8790750467053368
20
0.0032593436330874866
30
0
10
9.9394718799837314
20
-0.00056833720423752482
30
0
10
9.9798114564970835
20
-0.00060811405435655136
30
0
10
10
20
0
30
0
0
SPLINE
5
104
100
AcDbEntity
8
0
100
AcDbSpline
70
4
71
5
72
111
73
105
74
0
42
0.000000001
43
0.0000000001
44
0.0000000001
40
0
40
0
40
0
40
0
40
0
40
0
40
0.01
40
0.02
40
0.029999999999999999
40
0.040000000000000001
40
0.050000000000000003
40
0.060000000000000005
40
0.070000000000000007
40
0.080000000000000002
40
0.089999999999999997
40
0.099999999999999992
40
0.10999999999999999
40
0.11999999999999998
40
0.12999999999999998
40
0.13999999999999999
40
0.14999999999999999
40
0.16
40
0.17000000000000001
40
0.18000000000000002
40
0.19000000000000003
40
0.20000000000000004
40
0.21000000000000005
40
0.22000000000000006
40
0.23000000000000007
40
0.24000000000000007
40
0.25000000000000006
40
0.26000000000000006
40
0.27000000000000007
40
0.28000000000000008
40
0.29000000000000009
40
0.3000000000000001
40
0.31000000000000011
40
0.32000000000000012
40
0.33000000000000013
40
0.34000000000000014
40
0.35000000000000014
40
0.36000000000000015
40
0.37000000000000016
40
0.38000000000000017
40
0.39000000000000018
40
0.40000000000000019
40
0.4100000000000002
40
0.42000000000000021
40
0.43000000000000022
40
0.44000000000000022
40
0.45000000000000023
40
0.46000000000000024
40
0.47000000000000025
40
0.48000000000000026
40
0.49000000000000027
40
0.50000000000000022
40
0.51000000000000023
40
0.52000000000000024
40
0.53000000000000025
40
0.54000000000000026
40
0.55000000000000027
40
0.56000000000000028
40
0.57000000000000028
40
0.58000000000000029
40
0.5900000000000003
40
0.60000000000000031
40
0.61000000000000032
40
0.62000000000000033
40
0.63000000000000034
40
0.64000000000000035
40
0.65000000000000036
40
0.66000000000000036
40
0.67000000000000037
40
0.68000000000000038
40
0.69000000000000039
40
0.7000000000000004
40
0.71000000000000041
40
0.72000000000000042
40
0.73000000000000043
40
0.74000000000000044
40
0.75000000000000044
40
0.76000000000000045
40
0.77000000000000046
40
0.78000000000000047
40
0.79000000000000048
40
0.80000000000000049
40
0.8100000000000005
40
0.82000000000000051
40
0.83000000000000052
40
0.84000000000000052
40
0.85000000000000053
40
0.86000000000000054
40
0.87000000000000055
40
0.88000000000000056
40
0.89000000000000057
40
0.90000000000000058
40
0.91000000000000059
40
0.9200000000000006
40
0.9300000000000006
40
0.94000000000000061
40
0.95000000000000062
40
0.96000000000000063
40
0.97000000000000064
40
0.98000000000000065
40
0.99000000000000066
40
1
40
1
40
1
40
1
40
1
40
1
41
1
41
1
41
1
41
1
41
1
41
1
41
1
41
1
41
1
41
1
41
1
41
1
41
1
41
1
41
1
41
1
41
1
41
1
41
1
41
1
41
1
41
1
41
1
41
1
41
1
41
1
41
1
41
1
41
1
41
1
41
1
41
1
41
1
41
1
41
1
41
1
41
1
41
1
41
1
41
1
41
1
41
1
41
1
41
1
41
1
41
1
41
1
41
1
41
1
41
1
41
1
41
1
41
1
41
1
41
1
41
1
41
1
41
1
41
1
41
1
41
1
41
1
41
1
41
1
41
1
41
1
41
1
41
1
41
1
41
1
41
1
41
1
41
1
41
1
41
1
41
1
41
1
41
1
41
1
41
1
41
1
41
1
41
1
41
1
41
1
41
1
41
1
41
1
41
1
41
1
41
1
41
1
41
1
41
1
41
1
41
1
41
1
41
1
41
1
41
1
41
1
41
1
41
1
41
1
41
1
10
0
20
2
30
0
10
0.018182084316440101
20
1.9716063324453832
30
0
10
0.054716297496128233
20
1.9180352315279414
30
0
10
0.11002774618063212
20
1.847327160782408
30
0
10
0.18479680933726997
20
1.7723510937113334
30
0
10
0.27994007943324761
20
1.7103046022045798
30
0
10
0.37670788013767731
20
1.6784336679745113
30
0
10
0.47498277163133418
20
1.6736832462989786
30
0
10
0.57457072441186041
20
1.6910132360226937
30
0
10
0.67517215308620526
20
1.7226501760765731
30
0
10
0.77642452795145644
20
1.7591900220736865
30
0
10
0.8779660777200422
20
1.7912519971716681
30
0
10
0.97949503042993524
20
1.8110053377707938
30
0
10
1.0808249667929561
20
1.8136226102768258
30
0
10
1.1819569011509534
20
1.7990967531412383
30
0
10
1.2830288891052222
20
1.7713499186750317
30
0
10
1.3842370809663391
20
1.7366944795439125
30
0
10
1.4857646451766984
20
1.7025020572017449
30
0
10
1.5877118131909354
20
1.6758215416739355
30
0
10
1.6900137393159056
20
1.6619259340751127
30
0
10
1.7924883650028516
20
1.6638939966680477
30
0
10
1.8949039550560549
20
1.682360770492811
30
0
10
1.997040010029173
20
1.7151976037128458
30
0
10
2.0987501173496579
20
1.7572402681553598
30
0
10
2.2000263224588084
20
1.7999387237655422
30
0
10
2.3009580497956765
20
1.8336058101943655
30
0
10
2.401687768322466
20
1.8497458678536594
30
0
10
2.50236807799351
20
1.8433361591837336
30
0
10
2.6031178256605871
20
1.8151724983866293
30
0
10
2.7039796983710893
20
1.7740740768588814
30
0
10
2.8049361567255531
20
1.7330671134350273
30
0
10
2.9059241293182985
20
1.70566070714532
30
0
10
3.006850208484908
20
1.7021561914637808
30
0
10
3.1076054375870581
20
1.7257860831279972
30
0
10
3.208080734587905
20
1.7693603016178692
30
0
10
3.3081895858203421
20
1.8196497941282683
30
0
10
3.4078907267349683
20
1.8613638489075313
30
0
10
3.5072101130316842
20
1.881213977553041
30
0
10
3.6062649536233247
20
1.8720923042548674
30
0
10
3.7052820408537031
20
1.8367757262470694
30
0
10
3.8045358709770536
20
1.7845128871906035
30
0
10
3.9042912224601474
20
1.7280312384065337
30
0
10
4.0047447506358083
20
1.6804118962765677
30
0
10
4.1059653423225271
20
1.6519655677853944
30
0
10
4.2078394809521367
20
1.6472647253212953
30
0
10
4.3101299582063373
20
1.6662091136004844
30
0
10
4.4125302178535621
20
1.7049106548486361
30
0
10
4.5147193625757742
20
1.7566547217686768
30
0
10
4.6164190136152117
20
1.8128015159411701
30
0
10
4.7174430194506343
20
1.8637841890871323
30
0
10
4.8176976307345694
20
1.9005819238051043
30
0
10
4.9171878489888003
20
1.9161851857037673
30
0
10
5.0160201117790724
20
1.9069789048386132
30
0
10
5.1144097644208397
20
1.8743640835806721
30
0
10
5.212677200192033
20
1.8256831989775357
30
0
10
5.3111839407965586
20
1.7712871430347474
30
0
10
5.4102752492424289
20
1.7220336349603962
30
0
10
5.5102216414647494
20
1.6866947958196186
30
0
10
5.6111575067442487
20
1.6692270285817046
30
0
10
5.7130304585714775
20
1.6666006912566793
30
0
10
5.8156552328023263
20
1.671991199504729
30
0
10
5.9187592116114986
20
1.6776070715582994
30
0
10
6.0220301386069828
20
1.6774745368185426
30
0
10
6.1251650733782981
20
1.6706656318440685
30
0
10
6.2279119736006114
20
1.6630480340122151
30
0
10
6.3300780092517055
20
1.6633014903238863
30
0
10
6.431544430038322
20
1.6796475125401191
30
0
10
6.5322759722356105
20
1.716629941357555
30
0
10
6.6323396343801182
20
1.7710887019450516
30
0
10
6.7318966815605785
20
1.8310445936867605
30
0
10
6.8311390226118736
20
1.8810289221966983
30
0
10
6.9302340489247261
20
1.9062624968382558
30
0
10
7.0292721626675236
20
1.8969300920506382
30
0
10
7.1281986876816035
20
1.8532808560908873
30
0
10
7.2267989053484687
20
1.7875895593200157
30
0
10
7.3248147978913885
20
1.718124564250644
30
0
10
7.4220392791935694
20
1.6645659926121226
30
0
10
7.5184130383038452
20
1.6430719554851267
30
0
10
7.6141353154930567
20
1.6609689258050517
30
0
10
7.7097236572783974
20
1.7131835216744822
30
0
10
7.8058326405118938
20
1.7871598890502596
30
0
10
7.9031056301050109
20
1.8665976407896254
30
0
10
8.0020147878863348
20
1.9356262118075793
30
0
10
8.1027034397758673
20
1.9828396205331686
30
0
10
8.2048342887395727
20
2.0052634088852779
30
0
10
8.3077814798726362
20
2.0057828617690867
30
0
10
8.4108175708778905
20
1.99069859306067
30
0
10
8.5132966548755107
20
1.9672981311437667
30
0
10
8.6148523012721121
20
1.941278732980567
30
0
10
8.7155509339517199
20
1.9146509789874122
30
0
10
8.8157173465433445
20
1.8872253231869571
30
0
10
8.9157904989597085
20
1.8577608140110029
30
0
10
9.0161729488708708
20
1.8251996559506047
30
0
10
9.1170709352865238
20
1.7899656977497871
30
0
10
9.2183741662818708
20
1.7549378601174483
30
0
10
9.3197674771377415
20
1.7244898221195322
30
0
10
9.4208155214571718
20
1.7037540454883708
30
0
10
9.5210546069219308
20
1.6978287539274814
30
0
10
9.6200889910711069
20
1.710940478015988
30
0
10
9.7176622714892904
20
1.7458354096470834
30
0
10
9.8136190328837376
20
1.8041720401640291
30
0
10
9.8890302929063481
20
1.8702442422160113
30
0
10
9.9448157057799342
20
1.930832081040821
30
0
10
9.9816624852532279
20
1.9761268710779021
30
0
10
10
20
2
30
0
0
ENDSEC
0
SECTION
2
OBJECTS
0
DICTIONARY
5
C
100
AcDbDictionary
3
ACAD_GROUP
350
D
3
ACAD_MLINESTYLE
350
17
0
DICTIONARY
5
D
100
AcDbDictionary
0
DICTIONARY
5
1A
330
C
100
AcDbDictionary
0
DICTIONARY
5
17
100
AcDbDictionary
0
ENDSEC
0
EOF
