0
SECTION
2
HEADER
9
$INSUNITS
70
4
9
$ACADVER
1
AC1014
9
$HANDSEED
5
FFFF
0
ENDSEC
0
SECTION
2
TABLES
0
TABLE
2
VPORT
5
8
100
AcDbSymbolTable
0
ENDTAB
0
TABLE
2
LTYPE
5
5
100
AcDbSymbolTable
0
LTYPE
5
14
100
AcDbSymbolTableRecord
100
AcDbLinetypeTableRecord
2
BYBLOCK
70
0
0
LTYPE
5
15
100
AcDbSymbolTableRecord
100
AcDbLinetypeTableRecord
2
BYLAYER
70
0
0
ENDTAB
0
TABLE
2
LAYER
5
2
100
AcDbSymbolTable
70
2
0
LAYER
5
50
100
AcDbSymbolTableRecord
100
AcDbLayerTableRecord
2
0
70
0
6
CONTINUOUS
0
ENDTAB
0
TABLE
2
STYLE
5
3
100
AcDbSymbolTable
70
1
0
STYLE
5
11
100
AcDbSymbolTableRecord
100
AcDbTextStyleTableRecord
2
STANDARD
70
0
0
ENDTAB
0
TABLE
2
VIEW
5
6
100
AcDbSymbolTable
70
0
0
ENDTAB
0
TABLE
2
UCS
5
7
100
AcDbSymbolTable
70
0
0
ENDTAB
0
TABLE
2
APPID
5
9
100
AcDbSymbolTable
70
2
0
APPID
5
12
100
AcDbSymbolTableRecord
100
AcDbRegAppTableRecord
2
ACAD
70
0
0
ENDTAB
0
TABLE
2
DIMSTYLE
5
A
100
AcDbSymbolTable
70
1
0
ENDTAB
0
TABLE
2
BLOCK_RECORD
5
1
100
AcDbSymbolTable
70
1
0
BLOCK_RECORD
5
1F
100
AcDbSymbolTableRecord
100
AcDbBlockTableRecord
2
*MODEL_SPACE
0
BLOCK_RECORD
5
1B
100
AcDbSymbolTableRecord
100
AcDbBlockTableRecord
2
*PAPER_SPACE
0
ENDTAB
0
ENDSEC
0
SECTION
2
BLOCKS
0
BLOCK
5
20
100
AcDbEntity
100
AcDbBlockBegin
2
*MODEL_SPACE
0
ENDBLK
5
21
100
AcDbEntity
100
AcDbBlockEnd
0
BLOCK
5
1C
100
AcDbEntity
100
AcDbBlockBegin
2
*PAPER_SPACE
0
ENDBLK
5
1D
100
AcDbEntity
100
AcDbBlockEnd
0
ENDSEC
0
SECTION
2
ENTITIES
0
SPLINE
5
100
100
AcDbEntity
8
0
100
AcDbSpline
70
4
71
5
72
16
73
10
74
0
42
0.000000001
43
0.0000000001
44
0.0000000001
40
0
40
0
40
0
40
0
40
0
40
0
40
0.20000000000000001
40
0.40000000000000002
40
0.60000000000000009
40
0.80000000000000004
40
1
40
1
40
1
40
1
40
1
40
1
41
1
41
1
41
1
41
1
41
1
41
1
41
1
41
1
41
1
41
1
10
0
20
0
30
0
10
0
20
0.080000000000033267
30
0
10
0
20
0.24000000000008476
30
0
10
0
20
0.48000000000011728
30
0
10
0
20
0.80000000000008786
30
0
10
0
20
1.2000000000000053
30
0
10
0
20
1.5199999999999583
30
0
10
0
20
1.7599999999999643
30
0
10
0
20
1.9199999999999853
30
0
10
0
20
2
30
0
0
SPLINE
5
101
100
AcDbEntity
8
0
100
AcDbSpline
70
4
71
5
72
16
73
10
74
0
42
0.000000001
43
0.0000000001
44
0.0000000001
40
0
40
0
40
0
40
0
40
0
40
0
40
0.20000000000000001
40
0.40000000000000002
40
0.60000000000000009
40
0.80000000000000004
40
1
40
1
40
1
40
1
40
1
40
1
41
1
41
1
41
1
41
1
41
1
41
1
41
1
41
1
41
1
41
1
10
10
20
0
30
0
10
9.9999999999997495
20
0.080000000000033267
30
0
10
9.9999999999993197
20
0.24000000000008476
30
0
10
9.9999999999989129
20
0.48000000000011728
30
0
10
9.9999999999987672
20
0.80000000000008786
30
0
10
9.9999999999990248
20
1.2000000000000053
30
0
10
9.9999999999993889
20
1.5199999999999583
30
0
10
9.9999999999996998
20
1.7599999999999643
30
0
10
9.9999999999999005
20
1.9199999999999853
30
0
10
10
20
2
30
0
0
SPLINE
5
102
100
AcDbEntity
8
0
100
AcDbSpline
70
4
71
5
72
16
73
10
74
0
42
0.000000001
43
0.0000000001
44
0.0000000001
40
0
40
0
40
0
40
0
40
0
40
0
40
0.20000000000000001
40
0.40000000000000002
40
0.60000000000000009
40
0.80000000000000004
40
1
40
1
40
1
40
1
40
1
40
1
41
1
41
1
41
1
41
1
41
1
41
1
41
1
41
1
41
1
41
1
10
0
20
1
30
0
10
0.40000000000047375
20
0.99999999999987343
30
0
10
1.2000000000012774
20
0.99999999999965183
30
0
10
2.4000000000020547
20
0.99999999999941747
30
0
10
4.0000000000023546
20
0.99999999999928091
30
0
10
6.0000000000019584
20
0.99999999999933376
30
0
10
7.6000000000012928
20
0.99999999999951594
30
0
10
8.800000000000697
20
0.99999999999972888
30
0
10
9.6000000000002395
20
0.99999999999990408
30
0
10
10
20
1
30
0
0
SPLINE
5
103
100
AcDbEntity
8
0
100
AcDbSpline
70
4
71
5
72
61
73
55
74
0
42
0.000000001
43
0.0000000001
44
0.0000000001
40
0
40
0
40
0
40
0
40
0
40
0
40
0.02
40
0.040000000000000001
40
0.059999999999999998
40
0.080000000000000002
40
0.10000000000000001
40
0.12000000000000001
40
0.14000000000000001
40
0.16
40
0.17999999999999999
40
0.19999999999999998
40
0.21999999999999997
40
0.23999999999999996
40
0.25999999999999995
40
0.27999999999999997
40
0.29999999999999999
40
0.32000000000000001
40
0.34000000000000002
40
0.36000000000000004
40
0.38000000000000006
40
0.40000000000000008
40
0.4200000000000001
40
0.44000000000000011
40
0.46000000000000013
40
0.48000000000000015
40
0.50000000000000011
40
0.52000000000000013
40
0.54000000000000015
40
0.56000000000000016
40
0.58000000000000018
40
0.6000000000000002
40
0.62000000000000022
40
0.64000000000000024
40
0.66000000000000025
40
0.68000000000000027
40
0.70000000000000029
40
0.72000000000000031
40
0.74000000000000032
40
0.76000000000000034
40
0.78000000000000036
40
0.80000000000000038
40
0.8200000000000004
40
0.84000000000000041
40
0.86000000000000043
40
0.88000000000000045
40
0.90000000000000047
40
0.92000000000000048
40
0.9400000000000005
40
0.96000000000000052
40
0.98000000000000054
40
1
40
1
40
1
40
1
40
1
40
1
41
1
41
1
41
1
41
1
41
1
41
1
41
1
41
1
41
1
41
1
41
1
41
1
41
1
41
1
41
1
41
1
41
1
41
1
41
1
41
1
41
1
41
1
41
1
41
1
41
1
41
1
41
1
41
1
41
1
41
1
41
1
41
1
41
1
41
1
41
1
41
1
41
1
41
1
41
1
41
1
41
1
41
1
41
1
41
1
41
1
41
1
41
1
41
1
41
1
41
1
41
1
41
1
41
1
41
1
41
1
10
0
20
0
30
0
10
0.039304724939551672
20
0.011011208132947901
30
0
10
0.11800404366268392
20
0.0328232189607328
30
0
10
0.23632262766791159
20
0.064910000726597236
30
0
10
0.39462030812344928
20
0.1064292445996609
30
0
10
0.59337798010267373
20
0.15591808517083411
30
0
10
0.79297663286658382
20
0.20209234351047506
30
0
10
0.99332415569601917
20
0.24314260586584135
30
0
10
1.1942647981674104
20
0.27606614766122145
30
0
10
1.3955612485762872
20
0.2963259294445425
30
0
10
1.5969352230556635
20
0.29928296116607306
30
0
10
1.7981097270268798
20
0.28168090444220106
30
0
10
1.9988507277681211
20
0.24311832343961806
30
0
10
2.1990090370376985
20
0.18752483290668104
30
0
10
2.398562665504429
20
0.12467039423274338
30
0
10
2.5975882527794152
20
0.067209526458443775
30
0
10
2.7962322868084897
20
0.027715128894658693
30
0
10
2.9946825809900908
20
0.01569731460935013
30
0
10
3.1931398937079116
20
0.034669839299442742
30
0
10
3.3917892728173724
20
0.079051042118291726
30
0
10
3.5907866372213535
20
0.13753944031978912
30
0
10
3.7902458185105763
20
0.19662110221751278
30
0
10
3.9902250610181738
20
0.24405577132160328
30
0
10
4.1907141946485407
20
0.27228967689441319
30
0
10
4.3916196989054539
20
0.28213518751565514
30
0
10
4.5927965628869378
20
0.2799584505130705
30
0
10
4.7940821067433923
20
0.27458438596338552
30
0
10
4.9953291763249643
20
0.27429846679994407
30
0
10
5.19643922861425
20
0.28384444692577065
30
0
10
5.3973966278873045
20
0.3013184822600975
30
0
10
5.5982418093291972
20
0.32073010483471898
30
0
10
5.7990432012821245
20
0.3346818422135947
30
0
10
5.9998697019789855
20
0.33699936288482846
30
0
10
6.2007629521013206
20
0.32538346859070377
30
0
10
6.4017096277519521
20
0.30406293001566603
30
0
10
6.602660791113399
20
0.28107493161933994
30
0
10
6.8035512559896061
20
0.26554188336356066
30
0
10
7.0043187996615828
20
0.26496844905356043
30
0
10
7.2049236391814828
20
0.28249579543423503
30
0
10
7.4053672713837866
20
0.31425241129865916
30
0
10
7.6056773223239968
20
0.35195337426490586
30
0
10
7.8058930433808049
20
0.3853997967756525
30
0
10
8.0060507012105493
20
0.40499333382091163
30
0
10
8.2061688127399073
20
0.40427859249871073
30
0
10
8.4062339891002651
20
0.38238367375945159
30
0
10
8.606210909992507
20
0.34241374057617907
30
0
10
8.8060516362092507
20
0.28995705608583244
30
0
10
9.0057050880494405
20
0.23156375940692292
30
0
10
9.2051265412454164
20
0.17322524875599971
30
0
10
9.4042868478713331
20
0.11889597379691481
30
0
10
9.6031689609882331
20
0.070939391068385357
30
0
10
9.7620456404442031
20
0.038605332363048667
30
0
10
9.8810732886864336
20
0.017917941584184104
30
0
10
9.9603673759477793
20
0.0057088884363499046
30
0
10
10
20
0
30
0
0
SPLINE
5
104
100
AcDbEntity
8
0
100
AcDbSpline
70
4
71
5
72
61
73
55
74
0
42
0.000000001
43
0.0000000001
44
0.0000000001
40
0
40
0
40
0
40
0
40
0
40
0
40
0.02
40
0.040000000000000001
40
0.059999999999999998
40
0.080000000000000002
40
0.10000000000000001
40
0.12000000000000001
40
0.14000000000000001
40
0.16
40
0.17999999999999999
40
0.19999999999999998
40
0.21999999999999997
40
0.23999999999999996
40
0.25999999999999995
40
0.27999999999999997
40
0.29999999999999999
40
0.32000000000000001
40
0.34000000000000002
40
0.36000000000000004
40
0.38000000000000006
40
0.40000000000000008
40
0.4200000000000001
40
0.44000000000000011
40
0.46000000000000013
40
0.48000000000000015
40
0.50000000000000011
40
0.52000000000000013
40
0.54000000000000015
40
0.56000000000000016
40
0.58000000000000018
40
0.6000000000000002
40
0.62000000000000022
40
0.64000000000000024
40
0.66000000000000025
40
0.68000000000000027
40
0.70000000000000029
40
0.72000000000000031
40
0.74000000000000032
40
0.76000000000000034
40
0.78000000000000036
40
0.80000000000000038
40
0.8200000000000004
40
0.84000000000000041
40
0.86000000000000043
40
0.88000000000000045
40
0.90000000000000047
40
0.92000000000000048
40
0.9400000000000005
40
0.96000000000000052
40
0.98000000000000054
40
1
40
1
40
1
40
1
40
1
40
1
41
1
41
1
41
1
41
1
41
1
41
1
41
1
41
1
41
1
41
1
41
1
41
1
41
1
41
1
41
1
41
1
41
1
41
1
41
1
41
1
41
1
41
1
41
1
41
1
41
1
41
1
41
1
41
1
41
1
41
1
41
1
41
1
41
1
41
1
41
1
41
1
41
1
41
1
41
1
41
1
41
1
41
1
41
1
41
1
41
1
41
1
41
1
41
1
41
1
41
1
41
1
41
1
41
1
41
1
41
1
10
0
20
2
30
0
10
0.03976755665211823
20
1.9713409463252609
30
0
10
0.11927896139573681
20
1.9177423046781128
30
0
10
0.23847494355495477
20
1.8485027069229365
30
0
10
0.39726057083704908
20
1.7785147930181466
30
0
10
0.59551634576147372
20
1.7277164258096951
30
0
10
0.79357966529978785
20
1.7118643121319739
30
0
10
0.99151911319759334
20
1.7273548597378283
30
0
10
1.1894493324620157
20
1.7680944667432639
30
0
10
1.3875443840260924
20
1.8247795400364151
30
0
10
1.5859991839447998
20
1.8864974714819562
30
0
10
1.7849893088881716
20
1.9424052588852216
30
0
10
1.9846305057562756
20
1.9834046274577088
30
0
10
2.1849401525462229
20
2.0037623501123112
30
0
10
2.3857923184994596
20
2.0029234840941972
30
0
10
2.5869726970147755
20
1.9842753279397347
30
0
10
2.788240525560699
20
1.9536917426245548
30
0
10
2.9893886263514786
20
1.9181572424247544
30
0
10
3.1903025179783953
20
1.8843797478438298
30
0
10
3.3910249083920436
20
1.8573605925084591
30
0
10
3.5916948350088154
20
1.8402460156751113
30
0
10
3.7924807504691902
20
1.834246462207159
30
0
10
3.9935154274936591
20
1.8385202343021498
30
0
10
4.1948312398406093
20
1.8500787760158222
30
0
10
4.3962917931876593
20
1.8636424466411294
30
0
10
4.597663048498501
20
1.8729526302931339
30
0
10
4.7986884650722788
20
1.8721236165347441
30
0
10
4.9991626405832994
20
1.8569819346016998
30
0
10
5.1990054701211879
20
1.826410533756371
30
0
10
5.3983369482514476
20
1.7837105350145848
30
0
10
5.5974068078288024
20
1.7349479344411542
30
0
10
5.7965238356849937
20
1.6872953766860121
30
0
10
5.9959852989505391
20
1.6473733448432428
30
0
10
6.1960068812528029
20
1.6196071253677282
30
0
10
6.3966507709324443
20
1.6045290653449205
30
0
10
6.5978545937518938
20
1.600079184381531
30
0
10
6.7994619043591431
20
1.6029553591338883
30
0
10
7.0012518196159279
20
1.6099387430386862
30
0
10
7.2029687869576744
20
1.6192329461029678
30
0
10
7.4043521961984515
20
1.6317879631028485
30
0
10
7.6051688254550234
20
1.6501315810231854
30
0
10
7.8052454218779497
20
1.6772140521725973
30
0
10
8.0045011634985048
20
1.715255202873901
30
0
10
8.2029809302530676
20
1.7645765271714831
30
0
10
8.4008871492388231
20
1.822470531132222
30
0
10
8.5985263419143472
20
1.8841862428529912
30
0
10
8.7962576336217637
20
1.9438679145861057
30
0
10
8.9944404867380854
20
1.9955115648760811
30
0
10
9.1933833422332754
20
2.033903208840532
30
0
10
9.393290297604425
20
2.0555927152186624
30
0
10
9.5942815539411175
20
2.058549019091791
30
0
10
9.7559887287751614
20
2.0451383324949188
30
0
10
9.8777913872331382
20
2.026070665893779
30
0
10
9.9592251334894559
20
2.0093571732073321
30
0
10
10
20
2
30
0
0
ENDSEC
0
SECTION
2
OBJECTS
0
DICTIONARY
5
C
100
AcDbDictionary
3
ACAD_GROUP
350
D
3
ACAD_MLINESTYLE
350
17
0
DICTIONARY
5
D
100
AcDbDictionary
0
DICTIONARY
5
1A
330
C
100
AcDbDictionary
0
DICTIONARY
5
17
100
AcDbDictionary
0
ENDSEC
0
EOF
