0
SECTION
2
HEADER
9
$INSUNITS
70
4
9
$ACADVER
1
AC1014
9
$HANDSEED
5
FFFF
0
ENDSEC
0
SECTION
2
TABLES
0
TABLE
2
VPORT
5
8
100
AcDbSymbolTable
0
ENDTAB
0
TABLE
2
LTYPE
5
5
100
AcDbSymbolTable
0
LTYPE
5
14
100
AcDbSymbolTableRecord
100
AcDbLinetypeTableRecord
2
BYBLOCK
70
0
0
LTYPE
5
15
100
AcDbSymbolTableRecord
100
AcDbLinetypeTableRecord
2
BYLAYER
70
0
0
ENDTAB
0
TABLE
2
LAYER
5
2
100
AcDbSymbolTable
70
2
0
LAYER
5
50
100
AcDbSymbolTableRecord
100
AcDbLayerTableRecord
2
0
70
0
6
CONTINUOUS
0
ENDTAB
0
TABLE
2
STYLE
5
3
100
AcDbSymbolTable
70
1
0
STYLE
5
11
100
AcDbSymbolTableRecord
100
AcDbTextStyleTableRecord
2
STANDARD
70
0
0
ENDTAB
0
TABLE
2
VIEW
5
6
100
AcDbSymbolTable
70
0
0
ENDTAB
0
TABLE
2
UCS
5
7
100
AcDbSymbolTable
70
0
0
ENDTAB
0
TABLE
2
APPID
5
9
100
AcDbSymbolTable
70
2
0
APPID
5
12
100
AcDbSymbolTableRecord
100
AcDbRegAppTableRecord
2
ACAD
70
0
0
ENDTAB
0
TABLE
2
DIMSTYLE
5
A
100
AcDbSymbolTable
70
1
0
ENDTAB
0
TABLE
2
BLOCK_RECORD
5
1
100
AcDbSymbolTable
70
1
0
BLOCK_RECORD
5
1F
100
AcDbSymbolTableRecord
100
AcDbBlockTableRecord
2
*MODEL_SPACE
0
BLOCK_RECORD
5
1B
100
AcDbSymbolTableRecord
100
AcDbBlockTableRecord
2
*PAPER_SPACE
0
ENDTAB
0
ENDSEC
0
SECTION
2
BLOCKS
0
BLOCK
5
20
100
AcDbEntity
100
AcDbBlockBegin
2
*MODEL_SPACE
0
ENDBLK
5
21
100
AcDbEntity
100
AcDbBlockEnd
0
BLOCK
5
1C
100
AcDbEntity
100
AcDbBlockBegin
2
*PAPER_SPACE
0
ENDBLK
5
1D
100
AcDbEntity
100
AcDbBlockEnd
0
ENDSEC
0
SECTION
2
ENTITIES
0
SPLINE
5
100
100
AcDbEntity
8
0
100
AcDbSpline
70
4
71
5
72
16
73
10
74
0
42
0.000000001
43
0.0000000001
44
0.0000000001
40
0
40
0
40
0
40
0
40
0
40
0
40
0.20000000000000001
40
0.40000000000000002
40
0.60000000000000009
40
0.80000000000000004
40
1
40
1
40
1
40
1
40
1
40
1
41
1
41
1
41
1
41
1
41
1
41
1
41
1
41
1
41
1
41
1
10
0
20
0
30
0
10
0
20
0.080000000000033267
30
0
10
0
20
0.24000000000008476
30
0
10
0
20
0.48000000000011728
30
0
10
0
20
0.80000000000008786
30
0
10
0
20
1.2000000000000053
30
0
10
0
20
1.5199999999999583
30
0
10
0
20
1.7599999999999643
30
0
10
0
20
1.9199999999999853
30
0
10
0
20
2
30
0
0
SPLINE
5
101
100
AcDbEntity
8
0
100
AcDbSpline
70
4
71
5
72
16
73
10
74
0
42
0.000000001
43
0.0000000001
44
0.0000000001
40
0
40
0
40
0
40
0
40
0
40
0
40
0.20000000000000001
40
0.40000000000000002
40
0.60000000000000009
40
0.80000000000000004
40
1
40
1
40
1
40
1
40
1
40
1
41
1
41
1
41
1
41
1
41
1
41
1
41
1
41
1
41
1
41
1
10
10
20
0
30
0
10
9.9999999999997495
20
0.080000000000033267
30
0
10
9.9999999999993197
20
0.24000000000008476
30
0
10
9.9999999999989129
20
0.48000000000011728
30
0
10
9.9999999999987672
20
0.80000000000008786
30
0
10
9.9999999999990248
20
1.2000000000000053
30
0
10
9.9999999999993889
20
1.5199999999999583
30
0
10
9.9999999999996998
20
1.7599999999999643
30
0
10
9.9999999999999005
20
1.9199999999999853
30
0
10
10
20
2
30
0
0
SPLINE
5
102
100
AcDbEntity
8
0
100
AcDbSpline
70
4
71
5
72
16
73
10
74
0
42
0.000000001
43
0.0000000001
44
0.0000000001
40
0
40
0
40
0
40
0
40
0
40
0
40
0.20000000000000001
40
0.40000000000000002
40
0.60000000000000009
40
0.80000000000000004
40
1
40
1
40
1
40
1
40
1
40
1
41
1
41
1
41
1
41
1
41
1
41
1
41
1
41
1
41
1
41
1
10
0
20
1
30
0
10
0.40000000000047375
20
0.99999999999987343
30
0
10
1.2000000000012774
20
0.99999999999965183
30
0
10
2.4000000000020547
20
0.99999999999941747
30
0
10
4.0000000000023546
20
0.99999999999928091
30
0
10
6.0000000000019584
20
0.99999999999933376
30
0
10
7.6000000000012928
20
0.99999999999951594
30
0
10
8.800000000000697
20
0.99999999999972888
30
0
10
9.6000000000002395
20
0.99999999999990408
30
0
10
10
20
1
30
0
0
SPLINE
5
103
100
AcDbEntity
8
0
100
AcDbSpline
70
4
71
5
72
111
73
105
74
0
42
0.000000001
43
0.0000000001
44
0.0000000001
40
0
40
0
40
0
40
0
40
0
40
0
40
0.01
40
0.02
40
0.029999999999999999
40
0.040000000000000001
40
0.050000000000000003
40
0.060000000000000005
40
0.070000000000000007
40
0.080000000000000002
40
0.089999999999999997
40
0.099999999999999992
40
0.10999999999999999
40
0.11999999999999998
40
0.12999999999999998
40
0.13999999999999999
40
0.14999999999999999
40
0.16
40
0.17000000000000001
40
0.18000000000000002
40
0.19000000000000003
40
0.20000000000000004
40
0.21000000000000005
40
0.22000000000000006
40
0.23000000000000007
40
0.24000000000000007
40
0.25000000000000006
40
0.26000000000000006
40
0.27000000000000007
40
0.28000000000000008
40
0.29000000000000009
40
0.3000000000000001
40
0.31000000000000011
40
0.32000000000000012
40
0.33000000000000013
40
0.34000000000000014
40
0.35000000000000014
40
0.36000000000000015
40
0.37000000000000016
40
0.38000000000000017
40
0.39000000000000018
40
0.40000000000000019
40
0.4100000000000002
40
0.42000000000000021
40
0.43000000000000022
40
0.44000000000000022
40
0.45000000000000023
40
0.46000000000000024
40
0.47000000000000025
40
0.48000000000000026
40
0.49000000000000027
40
0.50000000000000022
40
0.51000000000000023
40
0.52000000000000024
40
0.53000000000000025
40
0.54000000000000026
40
0.55000000000000027
40
0.56000000000000028
40
0.57000000000000028
40
0.58000000000000029
40
0.5900000000000003
40
0.60000000000000031
40
0.61000000000000032
40
0.62000000000000033
40
0.63000000000000034
40
0.64000000000000035
40
0.65000000000000036
40
0.66000000000000036
40
0.67000000000000037
40
0.68000000000000038
40
0.69000000000000039
40
0.7000000000000004
40
0.71000000000000041
40
0.72000000000000042
40
0.73000000000000043
40
0.74000000000000044
40
0.75000000000000044
40
0.76000000000000045
40
0.77000000000000046
40
0.78000000000000047
40
0.79000000000000048
40
0.80000000000000049
40
0.8100000000000005
40
0.82000000000000051
40
0.83000000000000052
40
0.84000000000000052
40
0.85000000000000053
40
0.86000000000000054
40
0.87000000000000055
40
0.88000000000000056
40
0.89000000000000057
40
0.90000000000000058
40
0.91000000000000059
40
0.9200000000000006
40
0.9300000000000006
40
0.94000000000000061
40
0.95000000000000062
40
0.96000000000000063
40
0.97000000000000064
40
0.98000000000000065
40
0.99000000000000066
40
1
40
1
40
1
40
1
40
1
40
1
41
1
41
1
41
1
41
1
41
1
41
1
41
1
41
1
41
1
41
1
41
1
41
1
41
1
41
1
41
1
41
1
41
1
41
1
41
1
41
1
41
1
41
1
41
1
41
1
41
1
41
1
41
1
41
1
41
1
41
1
41
1
41
1
41
1
41
1
41
1
41
1
41
1
41
1
41
1
41
1
41
1
41
1
41
1
41
1
41
1
41
1
41
1
41
1
41
1
41
1
41
1
41
1
41
1
41
1
41
1
41
1
41
1
41
1
41
1
41
1
41
1
41
1
41
1
41
1
41
1
41
1
41
1
41
1
41
1
41
1
41
1
41
1
41
1
41
1
41
1
41
1
41
1
41
1
41
1
41
1
41
1
41
1
41
1
41
1
41
1
41
1
41
1
41
1
41
1
41
1
41
1
41
1
41
1
41
1
41
1
41
1
41
1
41
1
41
1
41
1
41
1
41
1
41
1
41
1
41
1
10
0
20
0
30
0
10
0.020438493565984615
20
0.0034993712315243798
30
0
10
0.061208654877248636
20
0.011076907587332169
30
0
10
0.12204342022856549
20
0.024179591602214182
30
0
10
0.20251537574320128
20
0.045123180485021265
30
0
10
0.3020670216685693
20
0.076953857209843421
30
0
10
0.40067172146792485
20
0.11401720450951981
30
0
10
0.49851325005456404
20
0.15547109950375387
30
0
10
0.59589817859767014
20
0.19990910699632464
30
0
10
0.6932886216585844
20
0.24521339323327335
30
0
10
0.79119427294325728
20
0.28881668001339839
30
0
10
0.89006387034374224
20
0.32796923124139388
30
0
10
0.99017388713700749
20
0.36000557556890056
30
0
10
1.0915250935004688
20
0.38260731407784343
30
0
10
1.1937173707736934
20
0.39407863399918386
30
0
10
1.2961092660226605
20
0.39345134823383299
30
0
10
1.3980044325346843
20
0.38057330194677075
30
0
10
1.4988290328158791
20
0.35620429043392654
30
0
10
1.5983114648306733
20
0.32210716161746428
30
0
10
1.6966654491472664
20
0.28114788860661444
30
0
10
1.7944188367252734
20
0.23687043598767638
30
0
10
1.892238886448331
20
0.19306728874355461
30
0
10
1.9907560112934688
20
0.15334724780448067
30
0
10
2.090395018473548
20
0.12071483534359857
30
0
10
2.1911846941753268
20
0.097116215643371778
30
0
10
2.2928655257346087
20
0.083446014081570583
30
0
10
2.3950242776376403
20
0.079596897791029603
30
0
10
2.4972194235923335
20
0.084491147340804554
30
0
10
2.5991089474677063
20
0.096123621278698959
30
0
10
2.7005811217178404
20
0.11158674308234809
30
0
10
2.8016915866359309
20
0.12773570015154528
30
0
10
2.9025949113148801
20
0.14187447069541453
30
0
10
3.0034786601793102
20
0.15242514665521759
30
0
10
3.1044955620323007
20
0.15962627342312075
30
0
10
3.2056989289762203
20
0.16616086492177426
30
0
10
3.3070664233166691
20
0.17577423733132855
30
0
10
3.4085212258097961
20
0.19193099094948388
30
0
10
3.5099540710183845
20
0.21650014888872648
30
0
10
3.6112450319470852
20
0.24832838427630563
30
0
10
3.7122849652462575
20
0.28214347408616514
30
0
10
3.8129905099104837
20
0.31073832150100827
30
0
10
3.9133201647216236
20
0.32693106469098099
30
0
10
4.0132889066558741
20
0.32553850389965455
30
0
10
4.1129859642188764
20
0.30551196171327666
30
0
10
4.2125840066080382
20
0.27151782055923568
30
0
10
4.312289273558493
20
0.23149779534258746
30
0
10
4.4122969021190297
20
0.19461611067524776
30
0
10
4.5127460066861991
20
0.16911768864795299
30
0
10
4.6136707540351178
20
0.16008723297844904
30
0
10
4.7149649542395249
20
0.16764786928737768
30
0
10
4.8164471238313329
20
0.18859748600179604
30
0
10
4.9179169520808328
20
0.21771841085688243
30
0
10
5.0192120413501842
20
0.24916930131030673
30
0
10
5.120271584032297
20
0.27793925302714584
30
0
10
5.2211759771918054
20
0.30097995038940467
30
0
10
5.3220758690554426
20
0.31674875181701473
30
0
10
5.4231343605114946
20
0.32497198921883885
30
0
10
5.5244686182351499
20
0.32632816364982137
30
0
10
5.6260810763472193
20
0.32215455982339491
30
0
10
5.7278279821639853
20
0.31417974578171703
30
0
10
5.8295106833024137
20
0.30439422295380913
30
0
10
5.9309506157129928
20
0.29490149839570301
30
0
10
6.0320617200502804
20
0.2877665024603222
30
0
10
6.1329453582337674
20
0.28489016682861168
30
0
10
6.2339060408385762
20
0.28779315371078346
30
0
10
6.3352937061633874
20
0.29722865894250305
30
0
10
6.4373727409472403
20
0.3127892679551828
30
0
10
6.5401984945551686
20
0.33260088131544097
30
0
10
6.6434468067804007
20
0.35277343978836856
30
0
10
6.7464155336736562
20
0.36766788712004039
30
0
10
6.8482940922425204
20
0.37140750555065544
30
0
10
6.9483831711104358
20
0.35917020955008028
30
0
10
7.0463064966525728
20
0.32841480110338805
30
0
10
7.1422943940579975
20
0.28051304372050356
30
0
10
7.2371779089287704
20
0.22077955975967362
30
0
10
7.3320539041497383
20
0.15667371442238412
30
0
10
7.4280277956035858
20
0.096451599848481451
30
0
10
7.5259440945242133
20
0.04770276407974508
30
0
10
7.6260758682793774
20
0.015775694941589667
30
0
10
7.7279775917584619
20
0.0027601300011658144
30
0
10
7.8308167657870573
20
0.0081940468627672812
30
0
10
7.9336283520032502
20
0.029443271589024485
30
0
10
8.0355787983307092
20
0.062233464548809715
30
0
10
8.1362756842150752
20
0.10105781854233094
30
0
10
8.2358909547394941
20
0.1398282129113084
30
0
10
8.3349130286806012
20
0.1728932788182182
30
0
10
8.433973901120698
20
0.19603877892288452
30
0
10
8.5336589081682561
20
0.20736963146226312
30
0
10
8.6342938033540548
20
0.20854530202205651
30
0
10
8.7358420611156333
20
0.20486255560825201
30
0
10
8.8380367129356046
20
0.20307133738488015
30
0
10
8.940464400555868
20
0.20959078370335435
30
0
10
9.0426626998160256
20
0.2287410417208133
30
0
10
9.1442255878517926
20
0.26054367228532194
30
0
10
9.2448555885632455
20
0.30022333448840099
30
0
10
9.3443333626451537
20
0.34016088771641784
30
0
10
9.4425074560826481
20
0.37129275977369269
30
0
10
9.5392764744384682
20
0.38463246360554004
30
0
10
9.6345732218523956
20
0.37298257770523591
30
0
10
9.7283527004122501
20
0.33170307624200029
30
0
10
9.8205888511029364
20
0.25797231616235194
30
0
10
9.8931330475717854
20
0.17192459744157537
30
0
10
9.9468394012585755
20
0.091960766715395034
30
0
10
9.9823317769978512
20
0.031796167842112366
30
0
10
10
20
0
30
0
0
SPLINE
5
104
100
AcDbEntity
8
0
100
AcDbSpline
70
4
71
5
72
111
73
105
74
0
42
0.000000001
43
0.0000000001
44
0.0000000001
40
0
40
0
40
0
40
0
40
0
40
0
40
0.01
40
0.02
40
0.029999999999999999
40
0.040000000000000001
40
0.050000000000000003
40
0.060000000000000005
40
0.070000000000000007
40
0.080000000000000002
40
0.089999999999999997
40
0.099999999999999992
40
0.10999999999999999
40
0.11999999999999998
40
0.12999999999999998
40
0.13999999999999999
40
0.14999999999999999
40
0.16
40
0.17000000000000001
40
0.18000000000000002
40
0.19000000000000003
40
0.20000000000000004
40
0.21000000000000005
40
0.22000000000000006
40
0.23000000000000007
40
0.24000000000000007
40
0.25000000000000006
40
0.26000000000000006
40
0.27000000000000007
40
0.28000000000000008
40
0.29000000000000009
40
0.3000000000000001
40
0.31000000000000011
40
0.32000000000000012
40
0.33000000000000013
40
0.34000000000000014
40
0.35000000000000014
40
0.36000000000000015
40
0.37000000000000016
40
0.38000000000000017
40
0.39000000000000018
40
0.40000000000000019
40
0.4100000000000002
40
0.42000000000000021
40
0.43000000000000022
40
0.44000000000000022
40
0.45000000000000023
40
0.46000000000000024
40
0.47000000000000025
40
0.48000000000000026
40
0.49000000000000027
40
0.50000000000000022
40
0.51000000000000023
40
0.52000000000000024
40
0.53000000000000025
40
0.54000000000000026
40
0.55000000000000027
40
0.56000000000000028
40
0.57000000000000028
40
0.58000000000000029
40
0.5900000000000003
40
0.60000000000000031
40
0.61000000000000032
40
0.62000000000000033
40
0.63000000000000034
40
0.64000000000000035
40
0.65000000000000036
40
0.66000000000000036
40
0.67000000000000037
40
0.68000000000000038
40
0.69000000000000039
40
0.7000000000000004
40
0.71000000000000041
40
0.72000000000000042
40
0.73000000000000043
40
0.74000000000000044
40
0.75000000000000044
40
0.76000000000000045
40
0.77000000000000046
40
0.78000000000000047
40
0.79000000000000048
40
0.80000000000000049
40
0.8100000000000005
40
0.82000000000000051
40
0.83000000000000052
40
0.84000000000000052
40
0.85000000000000053
40
0.86000000000000054
40
0.87000000000000055
40
0.88000000000000056
40
0.89000000000000057
40
0.90000000000000058
40
0.91000000000000059
40
0.9200000000000006
40
0.9300000000000006
40
0.94000000000000061
40
0.95000000000000062
40
0.96000000000000063
40
0.97000000000000064
40
0.98000000000000065
40
0.99000000000000066
40
1
40
1
40
1
40
1
40
1
40
1
41
1
41
1
41
1
41
1
41
1
41
1
41
1
41
1
41
1
41
1
41
1
41
1
41
1
41
1
41
1
41
1
41
1
41
1
41
1
41
1
41
1
41
1
41
1
41
1
41
1
41
1
41
1
41
1
41
1
41
1
41
1
41
1
41
1
41
1
41
1
41
1
41
1
41
1
41
1
41
1
41
1
41
1
41
1
41
1
41
1
41
1
41
1
41
1
41
1
41
1
41
1
41
1
41
1
41
1
41
1
41
1
41
1
41
1
41
1
41
1
41
1
41
1
41
1
41
1
41
1
41
1
41
1
41
1
41
1
41
1
41
1
41
1
41
1
41
1
41
1
41
1
41
1
41
1
41
1
41
1
41
1
41
1
41
1
41
1
41
1
41
1
41
1
41
1
41
1
41
1
41
1
41
1
41
1
41
1
41
1
41
1
41
1
41
1
41
1
41
1
41
1
41
1
41
1
41
1
41
1
10
0
20
2
30
0
10
0.021095304557435898
20
2.0028430199880765
30
0
10
0.06311736032267308
20
2.0072294686718348
30
0
10
0.12564478066157589
20
2.0099103512731813
30
0
10
0.20800321141802178
20
2.0056861543621225
30
0
10
0.30929933394340958
20
1.9876467887895777
30
0
10
0.40904729989173461
20
1.9575799831006988
30
0
10
0.50745499079203737
20
1.9169543017544823
30
0
10
0.6048721192705343
20
1.8682369461525392
30
0
10
0.70181856676172405
20
1.8151081969196545
30
0
10
0.79888167281174594
20
1.7620216418496191
30
0
10
0.89662199056805814
20
1.7138039318839167
30
0
10
0.99547489380703325
20
1.675241118530713
30
0
10
1.095656053980377
20
1.6506679096794974
30
0
10
1.1970591773938501
20
1.6435634615005548
30
0
10
1.2993520326592802
20
1.6558279703658139
30
0
10
1.4020806232180438
20
1.6870330119139709
30
0
10
1.5047694547926651
20
1.7337034917862679
30
0
10
1.6070253362051876
20
1.7885303051584245
30
0
10
1.7086343133226631
20
1.839760297638676
30
0
10
1.8095133867849902
20
1.8744682745247001
30
0
10
1.9096674745755218
20
1.8817252049830211
30
0
10
2.0091452166257446
20
1.8557121681374897
30
0
10
2.1079935962242482
20
1.7990784585585609
30
0
10
2.206218001438037
20
1.7255732426124286
30
0
10
2.3038061079769832
20
1.6545286967485928
30
0
10
2.4007469777008024
20
1.6059666340666525
30
0
10
2.4970520496579423
20
1.5954270095294025
30
0
10
2.5927751743795318
20
1.6290100652661392
30
0
10
2.688033561293079
20
1.6980574581259176
30
0
10
2.7830029232251259
20
1.7843970501360107
30
0
10
2.877911026289715
20
1.8657760774718437
30
0
10
2.9730336146879193
20
1.9214495331775945
30
0
10
3.0686853616295506
20
1.9371841179869431
30
0
10
3.1652231665408985
20
1.9118416996308207
30
0
10
3.2629855034876543
20
1.8554423987230637
30
0
10
3.3622120627616709
20
1.7841329566797497
30
0
10
3.4629625450132959
20
1.7160081122835615
30
0
10
3.5650518638783755
20
1.6669424388248131
30
0
10
3.6679376250302149
20
1.6455031321775864
30
0
10
3.7708258035318072
20
1.652754070059439
30
0
10
3.8728906800555318
20
1.6848000921469297
30
0
10
3.9734696480327072
20
1.7345203808658542
30
0
10
4.07224573675414
20
1.7935396039446185
30
0
10
4.1694936285498887
20
1.8543406281853896
30
0
10
4.2659468581742317
20
1.9108134741260692
30
0
10
4.3625349501193407
20
1.9581895838137244
30
0
10
4.4601520605624101
20
1.9931954310230875
30
0
10
4.5594382472383304
20
2.01408492810407
30
0
10
4.6604909524556
20
2.0208009383929486
30
0
10
4.7629001438407323
20
2.0147355103558935
30
0
10
4.8659931069451465
20
1.9982548872795889
30
0
10
4.9690234538244962
20
1.9742808080218937
30
0
10
5.0713667138627319
20
1.9458800248785839
30
0
10
5.1727546241786531
20
1.9157723190578344
30
0
10
5.2732605790162985
20
1.8863065698724
30
0
10
5.3731773782680659
20
1.8596246633460631
30
0
10
5.4729288742410267
20
1.8377864384292064
30
0
10
5.572970175450866
20
1.8228618256929243
30
0
10
5.6736861864170587
20
1.8171616828353248
30
0
10
5.7753327796207223
20
1.8226590949906682
30
0
10
5.8779976528677196
20
1.8401521735463169
30
0
10
5.9815500502427668
20
1.8684569134232263
30
0
10
6.0856049822015246
20
1.9037087833310475
30
0
10
6.1894550198931686
20
1.9382964521161279
30
0
10
6.2922400661283362
20
1.9627064649126738
30
0
10
6.3931618062348337
20
1.9679260215593521
30
0
10
6.4916877318978141
20
1.9477071990257904
30
0
10
6.5877483308628628
20
1.9007664741268506
30
0
10
6.6819677408243683
20
1.8333462899562742
30
0
10
6.7754223624190315
20
1.756609702971168
30
0
10
6.8693621606733268
20
1.6836260847589495
30
0
10
6.9649323371513123
20
1.6263602472807546
30
0
10
7.0629248198560592
20
1.5929902434576531
30
0
10
7.1634412355842052
20
1.5842503333036158
30
0
10
7.2659695136289928
20
1.5943275352423587
30
0
10
7.3696768019251504
20
1.614135004125631
30
0
10
7.4736436649926734
20
1.6339479844637317
30
0
10
7.5771030518764917
20
1.6460722263388818
30
0
10
7.6797271093337995
20
1.6480902148795589
30
0
10
7.7815748919874785
20
1.6420844265011403
30
0
10
7.8829272787180269
20
1.6325296458395597
30
0
10
7.9841564580260442
20
1.6245859830431286
30
0
10
8.0855883248607796
20
1.6223265832569815
30
0
10
8.1873488048743202
20
1.626726628590033
30
0
10
8.2894019447768379
20
1.6363307184217968
30
0
10
8.3916223085285253
20
1.6483953554850799
30
0
10
8.4938559363785266
20
1.6598735793993116
30
0
10
8.595984447320566
20
1.6684420397578525
30
0
10
8.6979922398414402
20
1.6735739560641649
30
0
10
8.7999294862000284
20
1.6761165100962856
30
0
10
8.9018683907296037
20
1.6777732232617595
30
0
10
9.0038623048616824
20
1.6806247285110898
30
0
10
9.1059028005309415
20
1.6866271286294385
30
0
10
9.20787989829347
20
1.6971382927597225
30
0
10
9.3096167853777718
20
1.7130426906651872
30
0
10
9.4109024706737596
20
1.7348582406226911
30
0
10
9.5115245273554798
20
1.7628480994532481
30
0
10
9.6113033072034444
20
1.797133543792224
30
0
10
9.710121145300926
20
1.8377964077014255
30
0
10
9.8079073489979116
20
1.8848820059231515
30
0
10
9.8852832177115069
20
1.9277052791602958
30
0
10
9.9428301670761687
20
1.9627243923750686
30
0
10
9.9809793050167599
20
1.9873598935479877
30
0
10
10
20
2
30
0
0
ENDSEC
0
SECTION
2
OBJECTS
0
DICTIONARY
5
C
100
AcDbDictionary
3
ACAD_GROUP
350
D
3
ACAD_MLINESTYLE
350
17
0
DICTIONARY
5
D
100
AcDbDictionary
0
DICTIONARY
5
1A
330
C
100
AcDbDictionary
0
DICTIONARY
5
17
100
AcDbDictionary
0
ENDSEC
0
EOF
