0
SECTION
2
HEADER
9
$INSUNITS
70
4
9
$ACADVER
1
AC1014
9
$HANDSEED
5
FFFF
0
ENDSEC
0
SECTION
2
TABLES
0
TABLE
2
VPORT
5
8
100
AcDbSymbolTable
0
ENDTAB
0
TABLE
2
LTYPE
5
5
100
AcDbSymbolTable
0
LTYPE
5
14
100
AcDbSymbolTableRecord
100
AcDbLinetypeTableRecord
2
BYBLOCK
70
0
0
LTYPE
5
15
100
AcDbSymbolTableRecord
100
AcDbLinetypeTableRecord
2
BYLAYER
70
0
0
ENDTAB
0
TABLE
2
LAYER
5
2
100
AcDbSymbolTable
70
2
0
LAYER
5
50
100
AcDbSymbolTableRecord
100
AcDbLayerTableRecord
2
0
70
0
6
CONTINUOUS
0
ENDTAB
0
TABLE
2
STYLE
5
3
100
AcDbSymbolTable
70
1
0
STYLE
5
11
100
AcDbSymbolTableRecord
100
AcDbTextStyleTableRecord
2
STANDARD
70
0
0
ENDTAB
0
TABLE
2
VIEW
5
6
100
AcDbSymbolTable
70
0
0
ENDTAB
0
TABLE
2
UCS
5
7
100
AcDbSymbolTable
70
0
0
ENDTAB
0
TABLE
2
APPID
5
9
100
AcDbSymbolTable
70
2
0
APPID
5
12
100
AcDbSymbolTableRecord
100
AcDbRegAppTableRecord
2
ACAD
70
0
0
ENDTAB
0
TABLE
2
DIMSTYLE
5
A
100
AcDbSymbolTable
70
1
0
ENDTAB
0
TABLE
2
BLOCK_RECORD
5
1
100
AcDbSymbolTable
70
1
0
BLOCK_RECORD
5
1F
100
AcDbSymbolTableRecord
100
AcDbBlockTableRecord
2
*MODEL_SPACE
0
BLOCK_RECORD
5
1B
100
AcDbSymbolTableRecord
100
AcDbBlockTableRecord
2
*PAPER_SPACE
0
ENDTAB
0
ENDSEC
0
SECTION
2
BLOCKS
0
BLOCK
5
20
100
AcDbEntity
100
AcDbBlockBegin
2
*MODEL_SPACE
0
ENDBLK
5
21
100
AcDbEntity
100
AcDbBlockEnd
0
BLOCK
5
1C
100
AcDbEntity
100
AcDbBlockBegin
2
*PAPER_SPACE
0
ENDBLK
5
1D
100
AcDbEntity
100
AcDbBlockEnd
0
ENDSEC
0
SECTION
2
ENTITIES
0
SPLINE
5
100
100
AcDbEntity
8
0
100
AcDbSpline
70
4
71
5
72
16
73
10
74
0
42
0.000000001
43
0.0000000001
44
0.0000000001
40
0
40
0
40
0
40
0
40
0
40
0
40
0.20000000000000001
40
0.40000000000000002
40
0.60000000000000009
40
0.80000000000000004
40
1
40
1
40
1
40
1
40
1
40
1
41
1
41
1
41
1
41
1
41
1
41
1
41
1
41
1
41
1
41
1
10
0
20
0
30
0
10
0
20
0.080000000000033267
30
0
10
0
20
0.24000000000008476
30
0
10
0
20
0.48000000000011728
30
0
10
0
20
0.80000000000008786
30
0
10
0
20
1.2000000000000053
30
0
10
0
20
1.5199999999999583
30
0
10
0
20
1.7599999999999643
30
0
10
0
20
1.9199999999999853
30
0
10
0
20
2
30
0
0
SPLINE
5
101
100
AcDbEntity
8
0
100
AcDbSpline
70
4
71
5
72
16
73
10
74
0
42
0.000000001
43
0.0000000001
44
0.0000000001
40
0
40
0
40
0
40
0
40
0
40
0
40
0.20000000000000001
40
0.40000000000000002
40
0.60000000000000009
40
0.80000000000000004
40
1
40
1
40
1
40
1
40
1
40
1
41
1
41
1
41
1
41
1
41
1
41
1
41
1
41
1
41
1
41
1
10
10
20
0
30
0
10
9.9999999999997495
20
0.080000000000033267
30
0
10
9.9999999999993197
20
0.24000000000008476
30
0
10
9.9999999999989129
20
0.48000000000011728
30
0
10
9.9999999999987672
20
0.80000000000008786
30
0
10
9.9999999999990248
20
1.2000000000000053
30
0
10
9.9999999999993889
20
1.5199999999999583
30
0
10
9.9999999999996998
20
1.7599999999999643
30
0
10
9.9999999999999005
20
1.9199999999999853
30
0
10
10
20
2
30
0
0
SPLINE
5
102
100
AcDbEntity
8
0
100
AcDbSpline
70
4
71
5
72
16
73
10
74
0
42
0.000000001
43
0.0000000001
44
0.0000000001
40
0
40
0
40
0
40
0
40
0
40
0
40
0.20000000000000001
40
0.40000000000000002
40
0.60000000000000009
40
0.80000000000000004
40
1
40
1
40
1
40
1
40
1
40
1
41
1
41
1
41
1
41
1
41
1
41
1
41
1
41
1
41
1
41
1
10
0
20
1
30
0
10
0.40000000000047375
20
0.99999999999987343
30
0
10
1.2000000000012774
20
0.99999999999965183
30
0
10
2.4000000000020547
20
0.99999999999941747
30
0
10
4.0000000000023546
20
0.99999999999928091
30
0
10
6.0000000000019584
20
0.99999999999933376
30
0
10
7.6000000000012928
20
0.99999999999951594
30
0
10
8.800000000000697
20
0.99999999999972888
30
0
10
9.6000000000002395
20
0.99999999999990408
30
0
10
10
20
1
30
0
0
SPLINE
5
103
100
AcDbEntity
8
0
100
AcDbSpline
70
4
71
5
72
211
73
205
74
0
42
0.000000001
43
0.0000000001
44
0.0000000001
40
0
40
0
40
0
40
0
40
0
40
0
40
0.0050000000000000001
40
0.01
40
0.014999999999999999
40
0.02
40
0.025000000000000001
40
0.030000000000000002
40
0.035000000000000003
40
0.040000000000000001
40
0.044999999999999998
40
0.049999999999999996
40
0.054999999999999993
40
0.059999999999999991
40
0.064999999999999988
40
0.069999999999999993
40
0.074999999999999997
40
0.080000000000000002
40
0.085000000000000006
40
0.090000000000000011
40
0.095000000000000015
40
0.10000000000000002
40
0.10500000000000002
40
0.11000000000000003
40
0.11500000000000003
40
0.12000000000000004
40
0.12500000000000003
40
0.13000000000000003
40
0.13500000000000004
40
0.14000000000000004
40
0.14500000000000005
40
0.15000000000000005
40
0.15500000000000005
40
0.16000000000000006
40
0.16500000000000006
40
0.17000000000000007
40
0.17500000000000007
40
0.18000000000000008
40
0.18500000000000008
40
0.19000000000000009
40
0.19500000000000009
40
0.20000000000000009
40
0.2050000000000001
40
0.2100000000000001
40
0.21500000000000011
40
0.22000000000000011
40
0.22500000000000012
40
0.23000000000000012
40
0.23500000000000013
40
0.24000000000000013
40
0.24500000000000013
40
0.25000000000000011
40
0.25500000000000012
40
0.26000000000000012
40
0.26500000000000012
40
0.27000000000000013
40
0.27500000000000013
40
0.28000000000000014
40
0.28500000000000014
40
0.29000000000000015
40
0.29500000000000015
40
0.30000000000000016
40
0.30500000000000016
40
0.31000000000000016
40
0.31500000000000017
40
0.32000000000000017
40
0.32500000000000018
40
0.33000000000000018
40
0.33500000000000019
40
0.34000000000000019
40
0.3450000000000002
40
0.3500000000000002
40
0.3550000000000002
40
0.36000000000000021
40
0.36500000000000021
40
0.37000000000000022
40
0.37500000000000022
40
0.38000000000000023
40
0.38500000000000023
40
0.39000000000000024
40
0.39500000000000024
40
0.40000000000000024
40
0.40500000000000025
40
0.41000000000000025
40
0.41500000000000026
40
0.42000000000000026
40
0.42500000000000027
40
0.43000000000000027
40
0.43500000000000028
40
0.44000000000000028
40
0.44500000000000028
40
0.45000000000000029
40
0.45500000000000029
40
0.4600000000000003
40
0.4650000000000003
40
0.47000000000000031
40
0.47500000000000031
40
0.48000000000000032
40
0.48500000000000032
40
0.49000000000000032
40
0.49500000000000033
40
0.50000000000000033
40
0.50500000000000034
40
0.51000000000000034
40
0.51500000000000035
40
0.52000000000000035
40
0.52500000000000036
40
0.53000000000000036
40
0.53500000000000036
40
0.54000000000000037
40
0.54500000000000037
40
0.55000000000000038
40
0.55500000000000038
40
0.56000000000000039
40
0.56500000000000039
40
0.5700000000000004
40
0.5750000000000004
40
0.5800000000000004
40
0.58500000000000041
40
0.59000000000000041
40
0.59500000000000042
40
0.60000000000000042
40
0.60500000000000043
40
0.61000000000000043
40
0.61500000000000044
40
0.62000000000000044
40
0.62500000000000044
40
0.63000000000000045
40
0.63500000000000045
40
0.64000000000000046
40
0.64500000000000046
40
0.65000000000000047
40
0.65500000000000047
40
0.66000000000000048
40
0.66500000000000048
40
0.67000000000000048
40
0.67500000000000049
40
0.68000000000000049
40
0.6850000000000005
40
0.6900000000000005
40
0.69500000000000051
40
0.70000000000000051
40
0.70500000000000052
40
0.71000000000000052
40
0.71500000000000052
40
0.72000000000000053
40
0.72500000000000053
40
0.73000000000000054
40
0.73500000000000054
40
0.74000000000000055
40
0.74500000000000055
40
0.75000000000000056
40
0.75500000000000056
40
0.76000000000000056
40
0.76500000000000057
40
0.77000000000000057
40
0.77500000000000058
40
0.78000000000000058
40
0.78500000000000059
40
0.79000000000000059
40
0.7950000000000006
40
0.8000000000000006
40
0.8050000000000006
40
0.81000000000000061
40
0.81500000000000061
40
0.82000000000000062
40
0.82500000000000062
40
0.83000000000000063
40
0.83500000000000063
40
0.84000000000000064
40
0.84500000000000064
40
0.85000000000000064
40
0.85500000000000065
40
0.86000000000000065
40
0.86500000000000066
40
0.87000000000000066
40
0.87500000000000067
40
0.88000000000000067
40
0.88500000000000068
40
0.89000000000000068
40
0.89500000000000068
40
0.90000000000000069
40
0.90500000000000069
40
0.9100000000000007
40
0.9150000000000007
40
0.92000000000000071
40
0.92500000000000071
40
0.93000000000000071
40
0.93500000000000072
40
0.94000000000000072
40
0.94500000000000073
40
0.95000000000000073
40
0.95500000000000074
40
0.96000000000000074
40
0.96500000000000075
40
0.97000000000000075
40
0.97500000000000075
40
0.98000000000000076
40
0.98500000000000076
40
0.99000000000000077
40
0.99500000000000077
40
1
40
1
40
1
40
1
40
1
40
1
41
1
41
1
41
1
41
1
41
1
41
1
41
1
41
1
41
1
41
1
41
1
41
1
41
1
41
1
41
1
41
1
41
1
41
1
41
1
41
1
41
1
41
1
41
1
41
1
41
1
41
1
41
1
41
1
41
1
41
1
41
1
41
1
41
1
41
1
41
1
41
1
41
1
41
1
41
1
41
1
41
1
41
1
41
1
41
1
41
1
41
1
41
1
41
1
41
1
41
1
41
1
41
1
41
1
41
1
41
1
41
1
41
1
41
1
41
1
41
1
41
1
41
1
41
1
41
1
41
1
41
1
41
1
41
1
41
1
41
1
41
1
41
1
41
1
41
1
41
1
41
1
41
1
41
1
41
1
41
1
41
1
41
1
41
1
41
1
41
1
41
1
41
1
41
1
41
1
41
1
41
1
41
1
41
1
41
1
41
1
41
1
41
1
41
1
41
1
41
1
41
1
41
1
41
1
41
1
41
1
41
1
41
1
41
1
41
1
41
1
41
1
41
1
41
1
41
1
41
1
41
1
41
1
41
1
41
1
41
1
41
1
41
1
41
1
41
1
41
1
41
1
41
1
41
1
41
1
41
1
41
1
41
1
41
1
41
1
41
1
41
1
41
1
41
1
41
1
41
1
41
1
41
1
41
1
41
1
41
1
41
1
41
1
41
1
41
1
41
1
41
1
41
1
41
1
41
1
41
1
41
1
41
1
41
1
41
1
41
1
41
1
41
1
41
1
41
1
41
1
41
1
41
1
41
1
41
1
41
1
41
1
41
1
41
1
41
1
41
1
41
1
41
1
41
1
41
1
41
1
41
1
41
1
41
1
41
1
41
1
41
1
41
1
41
1
41
1
41
1
41
1
41
1
41
1
41
1
41
1
41
1
41
1
41
1
41
1
41
1
41
1
41
1
41
1
41
1
41
1
10
0
20
0
30
0
10
0.008651728686564903
20
0.011983819966002687
30
0
10
0.026136595470739536
20
0.035111455633029941
30
0
10
0.052908117855656384
20
0.067282886791466892
30
0
10
0.089692021989374468
20
0.10513796134588754
30
0
10
0.13745865627735238
20
0.14405441625297299
30
0
10
0.18693012881017318
20
0.17456574626798693
30
0
10
0.23794055566285238
20
0.19666530780432251
30
0
10
0.29021682475503136
20
0.21034922930245187
30
0
10
0.34333943645089599
20
0.21559788166966909
30
0
10
0.39680361636275319
20
0.21251769389226249
30
0
10
0.45010874025493136
20
0.20153007612880358
30
0
10
0.50283735215491587
20
0.18353991952372939
30
0
10
0.55474051320084894
20
0.16012315955706552
30
0
10
0.60581492670863291
20
0.13367729154455585
30
0
10
0.65624349289097594
20
0.10690864904661682
30
0
10
0.70634177387506114
20
0.082336359719704155
30
0
10
0.75650160042556736
20
0.061812334626344015
30
0
10
0.80713746557025801
20
0.045982580457429839
30
0
10
0.85862750651250797
20
0.033923466450232587
30
0
10
0.91123363103159771
20
0.023973455781901198
30
0
10
0.96501554837783787
20
0.014480230982094491
30
0
10
1.0197637022064396
20
0.0045044744287598484
30
0
10
1.0748847014853087
20
-0.0052774683566691512
30
0
10
1.1294402708441045
20
-0.012369100243170179
30
0
10
1.1824498616800398
20
-0.013504596182259186
30
0
10
1.2331519101780632
20
-0.0054526889786891113
30
0
10
1.2812448536368237
20
0.014150267279062562
30
0
10
1.3272287072846325
20
0.04580513553844863
30
0
10
1.3722501759132184
20
0.088092441744562058
30
0
10
1.4176846148571298
20
0.13814525998879776
30
0
10
1.4647846401744431
20
0.19195007615389181
30
0
10
1.5143345694355304
20
0.24473290827288369
30
0
10
1.5662220984259314
20
0.29127503560954771
30
0
10
1.6193038082337694
20
0.32636530751211973
30
0
10
1.6719934055587957
20
0.34551341854761436
30
0
10
1.7227339621313615
20
0.34565611358489989
30
0
10
1.7704647181415503
20
0.32577768591208112
30
0
10
1.8152144307176559
20
0.28778103008424127
30
0
10
1.8581918708714613
20
0.23647977013548405
30
0
10
1.9011494411774279
20
0.1783478035946986
30
0
10
1.9459310431422083
20
0.12058076732097275
30
0
10
1.9939331881404423
20
0.070014999514082576
30
0
10
2.0456316021854448
20
0.032145792168807877
30
0
10
2.1000030959743876
20
0.0099999185889967958
30
0
10
2.155087061756511
20
0.0045264999683342277
30
0
10
2.2086781402432645
20
0.015151508219416427
30
0
10
2.2589463898347257
20
0.040258178123828994
30
0
10
2.3051475986267964
20
0.077734691731597999
30
0
10
2.3481174928858723
20
0.12538398814134977
30
0
10
2.389604718851758
20
0.18059829818380987
30
0
10
2.4317591996429568
20
0.24014810013152271
30
0
10
2.476531174530006
20
0.29987371537480495
30
0
10
2.5251754937881206
20
0.35453978857849555
30
0
10
2.5775441515440982
20
0.39731896392832311
30
0
10
2.6321495039469078
20
0.4206542179176686
30
0
10
2.6868950823457878
20
0.41827790160828171
30
0
10
2.7396404956466123
20
0.38700987615119919
30
0
10
2.788789527326994
20
0.32842270998530648
30
0
10
2.8339835772691906
20
0.25114110080398733
30
0
10
2.8759236274866984
20
0.16872911976834939
30
0
10
2.9159450220241485
20
0.096350371709074123
30
0
10
2.955678432554254
20
0.047869092296649471
30
0
10
2.9966703082275368
20
0.032710599091892681
30
0
10
3.040031185133421
20
0.052955465542414065
30
0
10
3.0860437244934031
20
0.099979706170756716
30
0
10
3.1343820943093776
20
0.1585525142517622
30
0
10
3.1843635165617727
20
0.21128138075755143
30
0
10
3.235197950766826
20
0.24315585216992219
30
0
10
3.2862162665178465
20
0.2455385764485693
30
0
10
3.3371644298321312
20
0.22169783452389233
30
0
10
3.3881406125820392
20
0.18414175892814649
30
0
10
3.4393952935115095
20
0.14883773553254975
30
0
10
3.4911700844811904
20
0.13027315139540319
30
0
10
3.5435335477365615
20
0.13655059283354265
30
0
10
3.596183912296123
20
0.16345903424451658
30
0
10
3.6485803561441315
20
0.19820746738917469
30
0
10
3.700137774526512
20
0.22501167806672942
30
0
10
3.7503994262098264
20
0.23003494822434065
30
0
10
3.79921872015843
20
0.20659725760641962
30
0
10
3.8469374915974166
20
0.16027669396457053
30
0
10
3.8941878576087174
20
0.1042676154631777
30
0
10
3.9416977457500812
20
0.054811436738668763
30
0
10
3.9900871428798297
20
0.026434930619231488
30
0
10
4.0396865398058504
20
0.027653383561709845
30
0
10
4.0902982329381041
20
0.055474735313213133
30
0
10
4.1413581522250782
20
0.098333447813459013
30
0
10
4.1921846445901272
20
0.1408835146255937
30
0
10
4.242205827779193
20
0.16827795963202485
30
0
10
4.2911769588780082
20
0.17038247861450304
30
0
10
4.3394518081088362
20
0.14675464151210507
30
0
10
4.3877742732762872
20
0.10447292299319832
30
0
10
4.4369884902395249
20
0.054690463009214277
30
0
10
4.4877644639632344
20
0.0095367301724025317
30
0
10
4.5403465148892437
20
-0.02090342481904435
30
0
10
4.5942159717972171
20
-0.032221486366022477
30
0
10
4.6483272504797029
20
-0.024979112145892612
30
0
10
4.7015073816676809
20
-0.0027624387626850782
30
0
10
4.7527964591345482
20
0.029331732507565256
30
0
10
4.8018216662212749
20
0.066418062684568166
30
0
10
4.8491320611751165
20
0.10537706322753172
30
0
10
4.8958162755094721
20
0.14419223213720689
30
0
10
4.9431512486457434
20
0.18137231272069451
30
0
10
4.9922288801363646
20
0.21531612989275498
30
0
10
5.0436163222324133
20
0.24376226779128182
30
0
10
5.0969374071146376
20
0.26304158287086121
30
0
10
5.1511682220749364
20
0.26913400188323511
30
0
10
5.2050490603675081
20
0.2590374690986097
30
0
10
5.2574438958574934
20
0.23196470111797537
30
0
10
5.3077485544019973
20
0.19075706897672878
30
0
10
5.3562001943437485
20
0.14278347841429337
30
0
10
5.40355361431721
20
0.097393666369559206
30
0
10
5.4508226252997805
20
0.063729457294325983
30
0
10
5.4989959546683682
20
0.048393223408256886
30
0
10
5.5487653143563556
20
0.053189367174304732
30
0
10
5.6002444872917607
20
0.072796542242497708
30
0
10
5.6531304172051549
20
0.097803000547692906
30
0
10
5.7068709280815373
20
0.11788315092211232
30
0
10
5.7608250937776937
20
0.124755394928465
30
0
10
5.814438122877446
20
0.11562056062199377
30
0
10
5.8673752784357367
20
0.095224916099986762
30
0
10
5.9194810488913525
20
0.072258098165371168
30
0
10
5.9707645618647014
20
0.056427808037592869
30
0
10
6.0213724026334825
20
0.055554480900342026
30
0
10
6.0715725537788749
20
0.071976533758948677
30
0
10
6.1217132674886896
20
0.10169868238706356
30
0
10
6.1721531611650562
20
0.13740772006254209
30
0
10
6.2231943245285866
20
0.17063149526182878
30
0
10
6.2750225882846369
20
0.19404172769214406
30
0
10
6.3276243049413132
20
0.20418969602079309
30
0
10
6.3807919313511814
20
0.20214187008103585
30
0
10
6.4342228039451737
20
0.19178037207185405
30
0
10
6.4875963468787408
20
0.17871385648716046
30
0
10
6.5406528720561576
20
0.16897582134825517
30
0
10
6.5932901650054472
20
0.16772075650320628
30
0
10
6.6455258361667466
20
0.17856430828125064
30
0
10
6.6974195510433967
20
0.20314835173263099
30
0
10
6.7490083535208525
20
0.24062175109182238
30
0
10
6.8002375431821989
20
0.28717103835536084
30
0
10
6.8508906386132882
20
0.33548880592166364
30
0
10
6.9006885563568146
20
0.37667538169460674
30
0
10
6.9493914005657578
20
0.40216662309272422
30
0
10
6.9969015010786295
20
0.40568796121558803
30
0
10
7.0433608182976357
20
0.38511567923541262
30
0
10
7.0892645105319332
20
0.34459820450981055
30
0
10
7.1353107786512515
20
0.29240860659592566
30
0
10
7.182237143646887
20
0.23855962776685141
30
0
10
7.2306520443289273
20
0.1923842872556234
30
0
10
7.2808901938223674
20
0.16040507299023476
30
0
10
7.3328030482720798
20
0.14339166900328212
30
0
10
7.385835735795486
20
0.13702239633489358
30
0
10
7.4392722435322725
20
0.13467570046639915
30
0
10
7.4924357922495872
20
0.12963537578092529
30
0
10
7.5448934338042575
20
0.11739897980517627
30
0
10
7.5966965142145559
20
0.098308348068641915
30
0
10
7.6482192290305715
20
0.076289846944875214
30
0
10
7.6999290824171265
20
0.05693458697094609
30
0
10
7.7521842290321086
20
0.045828711903249462
30
0
10
7.8050130023562216
20
0.046740706018784037
30
0
10
7.8579190083524706
20
0.059975020600462545
30
0
10
7.9101537786697769
20
0.083542869926432062
30
0
10
7.9609801163503509
20
0.1142598326148232
30
0
10
8.0099236490193846
20
0.14881764607177797
30
0
10
8.0570650118018321
20
0.18498982772776179
30
0
10
8.1032067368286977
20
0.22240713206987045
30
0
10
8.1494865836025028
20
0.26141858782072436
30
0
10
8.1970714716628592
20
0.3022323041716713
30
0
10
8.2468159942672621
20
0.34393178971025623
30
0
10
8.2989453118041574
20
0.38358099335586199
30
0
10
8.3527018694421269
20
0.41519191658241716
30
0
10
8.4067365031970169
20
0.43165864813340199
30
0
10
8.4595441091422856
20
0.42689296683019895
30
0
10
8.5098650017277127
20
0.39777000672361668
30
0
10
8.5571428402573506
20
0.34642607420146831
30
0
10
8.6018315059354471
20
0.28158548353916718
30
0
10
8.6449974012724322
20
0.21528464592505647
30
0
10
8.68802429342335
20
0.16029821845767347
30
0
10
8.7322634218835287
20
0.12713015605212447
30
0
10
8.7787412705241135
20
0.12156296291426258
30
0
10
8.8277561993050178
20
0.14102878088009532
30
0
10
8.8789353939077724
20
0.1759587112114408
30
0
10
8.9315512885688761
20
0.2139199033599973
30
0
10
8.9847698478028448
20
0.24307095275074569
30
0
10
9.0379025023084267
20
0.25552285357324422
30
0
10
9.0907188548674345
20
0.25169824813650327
30
0
10
9.1433682478747293
20
0.23865547044867591
30
0
10
9.1961457628347798
20
0.2260357069546072
30
0
10
9.249308742238
20
0.22278017077972737
30
0
10
9.3028731380312806
20
0.23354158287278737
30
0
10
9.3564158673577484
20
0.25518199790992641
30
0
10
9.4092714991910675
20
0.27962340020800053
30
0
10
9.4607393890652194
20
0.29685058811550791
30
0
10
9.5102776013587
20
0.29773513562289211
30
0
10
9.5577239721941183
20
0.27721635557160001
30
0
10
9.6034401343152354
20
0.23647495652349332
30
0
10
9.6481277145638611
20
0.18083254791674963
30
0
10
9.6926938680781554
20
0.11828910550672878
30
0
10
9.7380931981437389
20
0.05776512360333777
30
0
10
9.7851899329233305
20
0.0075783245618305127
30
0
10
9.8345851262432831
20
-0.026460344840525438
30
0
10
9.8866322135647628
20
-0.040939885969342303
30
0
10
9.9305346191104498
20
-0.035491547464049762
30
0
10
9.9647616442603457
20
-0.021570666628011114
30
0
10
9.9881575659494217
20
-0.0079187548776045759
30
0
10
10
20
0
30
0
0
SPLINE
5
104
100
AcDbEntity
8
0
100
AcDbSpline
70
4
71
5
72
211
73
205
74
0
42
0.000000001
43
0.0000000001
44
0.0000000001
40
0
40
0
40
0
40
0
40
0
40
0
40
0.0050000000000000001
40
0.01
40
0.014999999999999999
40
0.02
40
0.025000000000000001
40
0.030000000000000002
40
0.035000000000000003
40
0.040000000000000001
40
0.044999999999999998
40
0.049999999999999996
40
0.054999999999999993
40
0.059999999999999991
40
0.064999999999999988
40
0.069999999999999993
40
0.074999999999999997
40
0.080000000000000002
40
0.085000000000000006
40
0.090000000000000011
40
0.095000000000000015
40
0.10000000000000002
40
0.10500000000000002
40
0.11000000000000003
40
0.11500000000000003
40
0.12000000000000004
40
0.12500000000000003
40
0.13000000000000003
40
0.13500000000000004
40
0.14000000000000004
40
0.14500000000000005
40
0.15000000000000005
40
0.15500000000000005
40
0.16000000000000006
40
0.16500000000000006
40
0.17000000000000007
40
0.17500000000000007
40
0.18000000000000008
40
0.18500000000000008
40
0.19000000000000009
40
0.19500000000000009
40
0.20000000000000009
40
0.2050000000000001
40
0.2100000000000001
40
0.21500000000000011
40
0.22000000000000011
40
0.22500000000000012
40
0.23000000000000012
40
0.23500000000000013
40
0.24000000000000013
40
0.24500000000000013
40
0.25000000000000011
40
0.25500000000000012
40
0.26000000000000012
40
0.26500000000000012
40
0.27000000000000013
40
0.27500000000000013
40
0.28000000000000014
40
0.28500000000000014
40
0.29000000000000015
40
0.29500000000000015
40
0.30000000000000016
40
0.30500000000000016
40
0.31000000000000016
40
0.31500000000000017
40
0.32000000000000017
40
0.32500000000000018
40
0.33000000000000018
40
0.33500000000000019
40
0.34000000000000019
40
0.3450000000000002
40
0.3500000000000002
40
0.3550000000000002
40
0.36000000000000021
40
0.36500000000000021
40
0.37000000000000022
40
0.37500000000000022
40
0.38000000000000023
40
0.38500000000000023
40
0.39000000000000024
40
0.39500000000000024
40
0.40000000000000024
40
0.40500000000000025
40
0.41000000000000025
40
0.41500000000000026
40
0.42000000000000026
40
0.42500000000000027
40
0.43000000000000027
40
0.43500000000000028
40
0.44000000000000028
40
0.44500000000000028
40
0.45000000000000029
40
0.45500000000000029
40
0.4600000000000003
40
0.4650000000000003
40
0.47000000000000031
40
0.47500000000000031
40
0.48000000000000032
40
0.48500000000000032
40
0.49000000000000032
40
0.49500000000000033
40
0.50000000000000033
40
0.50500000000000034
40
0.51000000000000034
40
0.51500000000000035
40
0.52000000000000035
40
0.52500000000000036
40
0.53000000000000036
40
0.53500000000000036
40
0.54000000000000037
40
0.54500000000000037
40
0.55000000000000038
40
0.55500000000000038
40
0.56000000000000039
40
0.56500000000000039
40
0.5700000000000004
40
0.5750000000000004
40
0.5800000000000004
40
0.58500000000000041
40
0.59000000000000041
40
0.59500000000000042
40
0.60000000000000042
40
0.60500000000000043
40
0.61000000000000043
40
0.61500000000000044
40
0.62000000000000044
40
0.62500000000000044
40
0.63000000000000045
40
0.63500000000000045
40
0.64000000000000046
40
0.64500000000000046
40
0.65000000000000047
40
0.65500000000000047
40
0.66000000000000048
40
0.66500000000000048
40
0.67000000000000048
40
0.67500000000000049
40
0.68000000000000049
40
0.6850000000000005
40
0.6900000000000005
40
0.69500000000000051
40
0.70000000000000051
40
0.70500000000000052
40
0.71000000000000052
40
0.71500000000000052
40
0.72000000000000053
40
0.72500000000000053
40
0.73000000000000054
40
0.73500000000000054
40
0.74000000000000055
40
0.74500000000000055
40
0.75000000000000056
40
0.75500000000000056
40
0.76000000000000056
40
0.76500000000000057
40
0.77000000000000057
40
0.77500000000000058
40
0.78000000000000058
40
0.78500000000000059
40
0.79000000000000059
40
0.7950000000000006
40
0.8000000000000006
40
0.8050000000000006
40
0.81000000000000061
40
0.81500000000000061
40
0.82000000000000062
40
0.82500000000000062
40
0.83000000000000063
40
0.83500000000000063
40
0.84000000000000064
40
0.84500000000000064
40
0.85000000000000064
40
0.85500000000000065
40
0.86000000000000065
40
0.86500000000000066
40
0.87000000000000066
40
0.87500000000000067
40
0.88000000000000067
40
0.88500000000000068
40
0.89000000000000068
40
0.89500000000000068
40
0.90000000000000069
40
0.90500000000000069
40
0.9100000000000007
40
0.9150000000000007
40
0.92000000000000071
40
0.92500000000000071
40
0.93000000000000071
40
0.93500000000000072
40
0.94000000000000072
40
0.94500000000000073
40
0.95000000000000073
40
0.95500000000000074
40
0.96000000000000074
40
0.96500000000000075
40
0.97000000000000075
40
0.97500000000000075
40
0.98000000000000076
40
0.98500000000000076
40
0.99000000000000077
40
0.99500000000000077
40
1
40
1
40
1
40
1
40
1
40
1
41
1
41
1
41
1
41
1
41
1
41
1
41
1
41
1
41
1
41
1
41
1
41
1
41
1
41
1
41
1
41
1
41
1
41
1
41
1
41
1
41
1
41
1
41
1
41
1
41
1
41
1
41
1
41
1
41
1
41
1
41
1
41
1
41
1
41
1
41
1
41
1
41
1
41
1
41
1
41
1
41
1
41
1
41
1
41
1
41
1
41
1
41
1
41
1
41
1
41
1
41
1
41
1
41
1
41
1
41
1
41
1
41
1
41
1
41
1
41
1
41
1
41
1
41
1
41
1
41
1
41
1
41
1
41
1
41
1
41
1
41
1
41
1
41
1
41
1
41
1
41
1
41
1
41
1
41
1
41
1
41
1
41
1
41
1
41
1
41
1
41
1
41
1
41
1
41
1
41
1
41
1
41
1
41
1
41
1
41
1
41
1
41
1
41
1
41
1
41
1
41
1
41
1
41
1
41
1
41
1
41
1
41
1
41
1
41
1
41
1
41
1
41
1
41
1
41
1
41
1
41
1
41
1
41
1
41
1
41
1
41
1
41
1
41
1
41
1
41
1
41
1
41
1
41
1
41
1
41
1
41
1
41
1
41
1
41
1
41
1
41
1
41
1
41
1
41
1
41
1
41
1
41
1
41
1
41
1
41
1
41
1
41
1
41
1
41
1
41
1
41
1
41
1
41
1
41
1
41
1
41
1
41
1
41
1
41
1
41
1
41
1
41
1
41
1
41
1
41
1
41
1
41
1
41
1
41
1
41
1
41
1
41
1
41
1
41
1
41
1
41
1
41
1
41
1
41
1
41
1
41
1
41
1
41
1
41
1
41
1
41
1
41
1
41
1
41
1
41
1
41
1
41
1
41
1
41
1
41
1
41
1
41
1
41
1
41
1
41
1
41
1
41
1
41
1
41
1
41
1
10
0
20
2
30
0
10
0.0095444671103258605
20
1.9960304281361561
30
0
10
0.02872670887784283
20
1.9875574602152157
30
0
10
0.057779993869637808
20
1.973246525787651
30
0
10
0.09707757725857552
20
1.9509622707020409
30
0
10
0.14712479316625188
20
1.9181922525674575
30
0
10
0.1980734250265121
20
1.8817814481118362
30
0
10
0.24987557246282807
20
1.8442759932826949
30
0
10
0.30245142307651585
20
1.8099266610588289
30
0
10
0.35568070040013589
20
1.7850973820664922
30
0
10
0.40937778255713425
20
1.7763215435924729
30
0
10
0.46326309457935305
20
1.7882467188706488
30
0
10
0.51694319542239375
20
1.8218447800352753
30
0
10
0.56986992994379593
20
1.8719814439071119
30
0
10
0.62136461513252761
20
1.9269817242922225
30
0
10
0.6707842795707526
20
1.9726262469688161
30
0
10
0.71766524332490134
20
1.9953613142577733
30
0
10
0.76186318471669801
20
1.9855971821904304
30
0
10
0.80372456308375928
20
1.9415027381421051
30
0
10
0.84415026268203019
20
1.8709000103392741
30
0
10
0.88432497850648639
20
1.7871929447977823
30
0
10
0.92551032891186624
20
1.7064130707493228
30
0
10
0.96880308514024249
20
1.6436999250433668
30
0
10
1.014930625508105
20
1.6103087169890462
30
0
10
1.0639762693424921
20
1.6096990227319143
30
0
10
1.1153139489219019
20
1.6363139077673821
30
0
10
1.1679605693548711
20
1.6797337788905464
30
0
10
1.2208551728699113
20
1.727855481841527
30
0
10
1.2731371744788764
20
1.7701441431872702
30
0
10
1.3244978040700515
20
1.8016175885391794
30
0
10
1.375233419029358
20
1.8237149796506114
30
0
10
1.4259158778693233
20
1.8411102527721566
30
0
10
1.4771447197106049
20
1.8594306769203777
30
0
10
1.5292986967943454
20
1.8828712954452786
30
0
10
1.5822073365774079
20
1.9112049962939222
30
0
10
1.6352015001018463
20
1.9398459534336998
30
0
10
1.6874532694932891
20
1.9622938097306597
30
0
10
1.7382451668896963
20
1.9719503303542822
30
0
10
1.7872384318216163
20
1.9640462740456162
30
0
10
1.8348186038159624
20
1.9379008142970569
30
0
10
1.8819047849901942
20
1.8965276729638771
30
0
10
1.9295987928816838
20
1.8453890620706952
30
0
10
1.9788697712660128
20
1.791424566523121
30
0
10
2.0302648892323547
20
1.7419921340220645
30
0
10
2.0835067822872189
20
1.7037796421745213
30
0
10
2.1376010935058933
20
1.6820403594319879
30
0
10
2.1912843549777774
20
1.6800920978957632
30
0
10
2.2433807334841509
20
1.6987017938053304
30
0
10
2.2931731184966266
20
1.735593684712057
30
0
10
2.3408291996024193
20
1.7847033019969714
30
0
10
2.3871690515652002
20
1.8376046843762837
30
0
10
2.4333350809543779
20
1.8852227190714907
30
0
10
2.4804822514087093
20
1.9195271961067648
30
0
10
2.5294922566914879
20
1.9350495651169231
30
0
10
2.580596167562927
20
1.9309390340433219
30
0
10
2.6334125036373117
20
1.9106418840793977
30
0
10
2.6872475344725348
20
1.8800822245320918
30
0
10
2.7413230509938109
20
1.8462670957761413
30
0
10
2.7950193691003991
20
1.8157779415745394
30
0
10
2.8481503739606522
20
1.7931500962390403
30
0
10
2.9008627043479009
20
1.7807922342207165
30
0
10
2.9534605488181676
20
1.7791989519868032
30
0
10
3.0062610439417554
20
1.7870736470015749
30
0
10
3.0594265851323805
20
1.8014570154878906
30
0
10
3.1128364700578564
20
1.817943462577178
30
0
10
3.1662209098058058
20
1.8316681412839617
30
0
10
3.219276948343857
20
1.8382637125312877
30
0
10
3.2717792630279385
20
1.8347376045218855
30
0
10
3.3237218343194734
20
1.8206016778356222
30
0
10
3.3753442476301885
20
1.798112647331874
30
0
10
3.4269928470066882
20
1.7712242510593139
30
0
10
3.4790161143011904
20
1.7448443073862374
30
0
10
3.53165884437158
20
1.7239843551918206
30
0
10
3.584925496211917
20
1.7129163279397865
30
0
10
3.6386008556145528
20
1.7145100337887356
30
0
10
3.6923743045245576
20
1.7297279088244539
30
0
10
3.7459346121345054
20
1.7570460875371563
30
0
10
3.7990729123123588
20
1.7919611781052076
30
0
10
3.8517929660210797
20
1.8263092650546022
30
0
10
3.904215684949448
20
1.8505412794209546
30
0
10
3.9564631634021912
20
1.8562927606422499
30
0
10
4.0085564527615354
20
1.8387209161163351
30
0
10
4.0602929990257044
20
1.799233675402915
30
0
10
4.1111758359345743
20
1.7471813097636719
30
0
10
4.1606182522747979
20
1.6959646100228476
30
0
10
4.2081166833367121
20
1.6597975958901325
30
0
10
4.2534325075616009
20
1.6502674150722665
30
0
10
4.2967779874268981
20
1.6728636684361393
30
0
10
4.3389778327321578
20
1.7238530600450881
30
0
10
4.381194251928779
20
1.7934244746050723
30
0
10
4.424683131035704
20
1.8684281915894116
30
0
10
4.4705252653937739
20
1.9353705957261789
30
0
10
4.5193982148680458
20
1.9830669834338186
30
0
10
4.5712574956640237
20
2.0060096226185755
30
0
10
4.6253154107813375
20
2.0054106541087364
30
0
10
4.6804520002436956
20
1.9867997888561297
30
0
10
4.7355387653731142
20
1.9584199334861245
30
0
10
4.7897633166343931
20
1.9293525787135932
30
0
10
4.8430407640697108
20
1.9076288915560955
30
0
10
4.8958503142988077
20
1.8991384544612224
30
0
10
4.9488611920253431
20
1.9068469948723208
30
0
10
5.0026328623784577
20
1.9299421701766619
30
0
10
5.057273758846037
20
1.9629347078177539
30
0
10
5.1121467622444872
20
1.994981268467332
30
0
10
5.1662024713493615
20
2.0133330224851904
30
0
10
5.2182983481564174
20
2.0067592567279386
30
0
10
5.2674995975099108
20
1.9686582092538207
30
0
10
5.3134433147368574
20
1.9010651597345685
30
0
10
5.3564884627119325
20
1.8156976069663642
30
0
10
5.3974426930273065
20
1.7291332455745334
30
0
10
5.437384170149004
20
1.6593495281251918
30
0
10
5.4774379271029128
20
1.6215181418307187
30
0
10
5.5185888988167804
20
1.6245789955067489
30
0
10
5.5614368765926834
20
1.6663454530623629
30
0
10
5.6061351328325317
20
1.7334916007591237
30
0
10
5.6525453585782248
20
1.8073530818041186
30
0
10
5.7003371078224738
20
1.8682294273273794
30
0
10
5.7491100070979844
20
1.9003118088843431
30
0
10
5.7985055970050245
20
1.8963040466078021
30
0
10
5.848325304769773
20
1.86228575269619
30
0
10
5.8984967694327288
20
1.8126575089513257
30
0
10
5.9490389305637423
20
1.7649680245691781
30
0
10
6.0000274758109811
20
1.7347929608092882
30
0
10
6.0515603010725769
20
1.730572177966772
30
0
10
6.1037226240509677
20
1.7485134077402906
30
0
10
6.1565574819197444
20
1.7774148548907085
30
0
10
6.2100338591399407
20
1.8036273230891411
30
0
10
6.2640203165185628
20
1.8156355138121745
30
0
10
6.3182454312225751
20
1.8095695328753771
30
0
10
6.3722977139066481
20
1.7919082505432538
30
0
10
6.425736928207483
20
1.7740582601145012
30
0
10
6.4781917046282906
20
1.7681266928879675
30
0
10
6.5294501465894683
20
1.7827219961258289
30
0
10
6.5795839472888336
20
1.8175180342988126
30
0
10
6.6289255271137879
20
1.8636719274426325
30
0
10
6.6779379957496579
20
1.9085619380480834
30
0
10
6.7271117329976047
20
1.9394528930325237
30
0
10
6.776860490899038
20
1.9471744547307581
30
0
10
6.8273918742804938
20
1.9308511309906937
30
0
10
6.8786964125818155
20
1.897780957765882
30
0
10
6.9306374672339652
20
1.8592108351458942
30
0
10
6.9830150714267916
20
1.8271415808521827
30
0
10
7.035634564403539
20
1.8110181705856259
30
0
10
7.0883880462456119
20
1.8136924762103448
30
0
10
7.1412505924875891
20
1.8318603523735524
30
0
10
7.1942356153296689
20
1.8586231720070743
30
0
10
7.2473629962625541
20
1.8853813281616436
30
0
10
7.3006226384211566
20
1.903978182437154
30
0
10
7.353937969121688
20
1.9088088328184951
30
0
10
7.4071899246963921
20
1.8970993934250668
30
0
10
7.4602452450473757
20
1.8691258833172326
30
0
10
7.5129812437103327
20
1.8283607851177339
30
0
10
7.5653165458770122
20
1.7818750756253396
30
0
10
7.6172254456664703
20
1.739939968484105
30
0
10
7.6687026282105712
20
1.7131753747537906
30
0
10
7.7197337822167
20
1.7099562049725472
30
0
10
7.7702689826864866
20
1.734042209031061
30
0
10
7.820182691171075
20
1.7813315551417865
30
0
10
7.8692823576126276
20
1.8397373437670337
30
0
10
7.917390648674588
20
1.8938284492906647
30
0
10
7.9644128458186927
20
1.9284462485472329
30
0
10
8.0104045836316224
20
1.9325069187993531
30
0
10
8.0556528800979521
20
1.9032646474790382
30
0
10
8.100710015651595
20
1.8487099532696223
30
0
10
8.1462462626550103
20
1.7826849030205552
30
0
10
8.1929331321593963
20
1.7212152219357324
30
0
10
8.2413106296391874
20
1.6782323954562037
30
0
10
8.2916706297088947
20
1.6618635578143035
30
0
10
8.3439087458557211
20
1.6696650749850386
30
0
10
8.3976171167084441
20
1.6918625506690308
30
0
10
8.4522227281893372
20
1.7161350356401122
30
0
10
8.5071071437408605
20
1.7317080775077658
30
0
10
8.5617403662232903
20
1.7340926046972938
30
0
10
8.6157901950067632
20
1.7285213147358056
30
0
10
8.6690748022910942
20
1.7250284341762356
30
0
10
8.7215301016517994
20
1.7341079161426387
30
0
10
8.7731724831201774
20
1.762647040605273
30
0
10
8.8240611245005809
20
1.8085506031163736
30
0
10
8.8742695689882556
20
1.8603206282028992
30
0
10
8.9238717463686115
20
1.9027633642999844
30
0
10
8.9729228312194191
20
1.9213691388799354
30
0
10
9.0214452711259661
20
1.906729741627629
30
0
10
9.0694051510284073
20
1.8601564206510532
30
0
10
9.1167200968080468
20
1.794305506432643
30
0
10
9.163306843887117
20
1.7272183177021903
30
0
10
9.2091194043846141
20
1.677980756084011
30
0
10
9.25418986324431
20
1.6618251545678002
30
0
10
9.2986708584434901
20
1.6852363017392349
30
0
10
9.3428692535801812
20
1.7417304964870111
30
0
10
9.387170091618362
20
1.8166920876620596
30
0
10
9.4319704021388127
20
1.8914359428539973
30
0
10
9.4776058271223551
20
1.9477490355812104
30
0
10
9.5242881329470013
20
1.9718068435428295
30
0
10
9.5720186336211359
20
1.959401225655121
30
0
10
9.6205907654460869
20
1.9163669833784645
30
0
10
9.6696719909390136
20
1.8547339345051626
30
0
10
9.7188654806280645
20
1.7899857550293792
30
0
10
9.7677760563786471
20
1.7380434493732764
30
0
10
9.8160839579407888
20
1.7119401766676607
30
0
10
9.8635822754430169
20
1.7200869055625134
30
0
10
9.9101447499763058
20
1.7676243721817364
30
0
10
9.9465963210549724
20
1.8391892416511428
30
0
10
9.9734764594425478
20
1.9121104334720913
30
0
10
9.991192782092849
20
1.9692778925345484
30
0
10
10
20
2
30
0
0
ENDSEC
0
SECTION
2
OBJECTS
0
DICTIONARY
5
C
100
AcDbDictionary
3
ACAD_GROUP
350
D
3
ACAD_MLINESTYLE
350
17
0
DICTIONARY
5
D
100
AcDbDictionary
0
DICTIONARY
5
1A
330
C
100
AcDbDictionary
0
DICTIONARY
5
17
100
AcDbDictionary
0
ENDSEC
0
EOF
