0
SECTION
2
HEADER
9
$INSUNITS
70
4
9
$ACADVER
1
AC1014
9
$HANDSEED
5
FFFF
0
ENDSEC
0
SECTION
2
TABLES
0
TABLE
2
VPORT
5
8
100
AcDbSymbolTable
0
ENDTAB
0
TABLE
2
LTYPE
5
5
100
AcDbSymbolTable
0
LTYPE
5
14
100
AcDbSymbolTableRecord
100
AcDbLinetypeTableRecord
2
BYBLOCK
70
0
0
LTYPE
5
15
100
AcDbSymbolTableRecord
100
AcDbLinetypeTableRecord
2
BYLAYER
70
0
0
ENDTAB
0
TABLE
2
LAYER
5
2
100
AcDbSymbolTable
70
2
0
LAYER
5
50
100
AcDbSymbolTableRecord
100
AcDbLayerTableRecord
2
0
70
0
6
CONTINUOUS
0
ENDTAB
0
TABLE
2
STYLE
5
3
100
AcDbSymbolTable
70
1
0
STYLE
5
11
100
AcDbSymbolTableRecord
100
AcDbTextStyleTableRecord
2
STANDARD
70
0
0
ENDTAB
0
TABLE
2
VIEW
5
6
100
AcDbSymbolTable
70
0
0
ENDTAB
0
TABLE
2
UCS
5
7
100
AcDbSymbolTable
70
0
0
ENDTAB
0
TABLE
2
APPID
5
9
100
AcDbSymbolTable
70
2
0
APPID
5
12
100
AcDbSymbolTableRecord
100
AcDbRegAppTableRecord
2
ACAD
70
0
0
ENDTAB
0
TABLE
2
DIMSTYLE
5
A
100
AcDbSymbolTable
70
1
0
ENDTAB
0
TABLE
2
BLOCK_RECORD
5
1
100
AcDbSymbolTable
70
1
0
BLOCK_RECORD
5
1F
100
AcDbSymbolTableRecord
100
AcDbBlockTableRecord
2
*MODEL_SPACE
0
BLOCK_RECORD
5
1B
100
AcDbSymbolTableRecord
100
AcDbBlockTableRecord
2
*PAPER_SPACE
0
ENDTAB
0
ENDSEC
0
SECTION
2
BLOCKS
0
BLOCK
5
20
100
AcDbEntity
100
AcDbBlockBegin
2
*MODEL_SPACE
0
ENDBLK
5
21
100
AcDbEntity
100
AcDbBlockEnd
0
BLOCK
5
1C
100
AcDbEntity
100
AcDbBlockBegin
2
*PAPER_SPACE
0
ENDBLK
5
1D
100
AcDbEntity
100
AcDbBlockEnd
0
ENDSEC
0
SECTION
2
ENTITIES
0
SPLINE
5
100
100
AcDbEntity
8
0
100
AcDbSpline
70
4
71
5
72
16
73
10
74
0
42
0.000000001
43
0.0000000001
44
0.0000000001
40
0
40
0
40
0
40
0
40
0
40
0
40
0.20000000000000001
40
0.40000000000000002
40
0.60000000000000009
40
0.80000000000000004
40
1
40
1
40
1
40
1
40
1
40
1
41
1
41
1
41
1
41
1
41
1
41
1
41
1
41
1
41
1
41
1
10
0
20
0
30
0
10
0
20
0.080000000000033267
30
0
10
0
20
0.24000000000008476
30
0
10
0
20
0.48000000000011728
30
0
10
0
20
0.80000000000008786
30
0
10
0
20
1.2000000000000053
30
0
10
0
20
1.5199999999999583
30
0
10
0
20
1.7599999999999643
30
0
10
0
20
1.9199999999999853
30
0
10
0
20
2
30
0
0
SPLINE
5
101
100
AcDbEntity
8
0
100
AcDbSpline
70
4
71
5
72
16
73
10
74
0
42
0.000000001
43
0.0000000001
44
0.0000000001
40
0
40
0
40
0
40
0
40
0
40
0
40
0.20000000000000001
40
0.40000000000000002
40
0.60000000000000009
40
0.80000000000000004
40
1
40
1
40
1
40
1
40
1
40
1
41
1
41
1
41
1
41
1
41
1
41
1
41
1
41
1
41
1
41
1
10
10
20
0
30
0
10
9.9999999999997495
20
0.080000000000033267
30
0
10
9.9999999999993197
20
0.24000000000008476
30
0
10
9.9999999999989129
20
0.48000000000011728
30
0
10
9.9999999999987672
20
0.80000000000008786
30
0
10
9.9999999999990248
20
1.2000000000000053
30
0
10
9.9999999999993889
20
1.5199999999999583
30
0
10
9.9999999999996998
20
1.7599999999999643
30
0
10
9.9999999999999005
20
1.9199999999999853
30
0
10
10
20
2
30
0
0
SPLINE
5
102
100
AcDbEntity
8
0
100
AcDbSpline
70
4
71
5
72
16
73
10
74
0
42
0.000000001
43
0.0000000001
44
0.0000000001
40
0
40
0
40
0
40
0
40
0
40
0
40
0.20000000000000001
40
0.40000000000000002
40
0.60000000000000009
40
0.80000000000000004
40
1
40
1
40
1
40
1
40
1
40
1
41
1
41
1
41
1
41
1
41
1
41
1
41
1
41
1
41
1
41
1
10
0
20
1
30
0
10
0.40000000000047375
20
0.99999999999987343
30
0
10
1.2000000000012774
20
0.99999999999965183
30
0
10
2.4000000000020547
20
0.99999999999941747
30
0
10
4.0000000000023546
20
0.99999999999928091
30
0
10
6.0000000000019584
20
0.99999999999933376
30
0
10
7.6000000000012928
20
0.99999999999951594
30
0
10
8.800000000000697
20
0.99999999999972888
30
0
10
9.6000000000002395
20
0.99999999999990408
30
0
10
10
20
1
30
0
0
SPLINE
5
103
100
AcDbEntity
8
0
100
AcDbSpline
70
4
71
5
72
111
73
105
74
0
42
0.000000001
43
0.0000000001
44
0.0000000001
40
0
40
0
40
0
40
0
40
0
40
0
40
0.01
40
0.02
40
0.029999999999999999
40
0.040000000000000001
40
0.050000000000000003
40
0.060000000000000005
40
0.070000000000000007
40
0.080000000000000002
40
0.089999999999999997
40
0.099999999999999992
40
0.10999999999999999
40
0.11999999999999998
40
0.12999999999999998
40
0.13999999999999999
40
0.14999999999999999
40
0.16
40
0.17000000000000001
40
0.18000000000000002
40
0.19000000000000003
40
0.20000000000000004
40
0.21000000000000005
40
0.22000000000000006
40
0.23000000000000007
40
0.24000000000000007
40
0.25000000000000006
40
0.26000000000000006
40
0.27000000000000007
40
0.28000000000000008
40
0.29000000000000009
40
0.3000000000000001
40
0.31000000000000011
40
0.32000000000000012
40
0.33000000000000013
40
0.34000000000000014
40
0.35000000000000014
40
0.36000000000000015
40
0.37000000000000016
40
0.38000000000000017
40
0.39000000000000018
40
0.40000000000000019
40
0.4100000000000002
40
0.42000000000000021
40
0.43000000000000022
40
0.44000000000000022
40
0.45000000000000023
40
0.46000000000000024
40
0.47000000000000025
40
0.48000000000000026
40
0.49000000000000027
40
0.50000000000000022
40
0.51000000000000023
40
0.52000000000000024
40
0.53000000000000025
40
0.54000000000000026
40
0.55000000000000027
40
0.56000000000000028
40
0.57000000000000028
40
0.58000000000000029
40
0.5900000000000003
40
0.60000000000000031
40
0.61000000000000032
40
0.62000000000000033
40
0.63000000000000034
40
0.64000000000000035
40
0.65000000000000036
40
0.66000000000000036
40
0.67000000000000037
40
0.68000000000000038
40
0.69000000000000039
40
0.7000000000000004
40
0.71000000000000041
40
0.72000000000000042
40
0.73000000000000043
40
0.74000000000000044
40
0.75000000000000044
40
0.76000000000000045
40
0.77000000000000046
40
0.78000000000000047
40
0.79000000000000048
40
0.80000000000000049
40
0.8100000000000005
40
0.82000000000000051
40
0.83000000000000052
40
0.84000000000000052
40
0.85000000000000053
40
0.86000000000000054
40
0.87000000000000055
40
0.88000000000000056
40
0.89000000000000057
40
0.90000000000000058
40
0.91000000000000059
40
0.9200000000000006
40
0.9300000000000006
40
0.94000000000000061
40
0.95000000000000062
40
0.96000000000000063
40
0.97000000000000064
40
0.98000000000000065
40
0.99000000000000066
40
1
40
1
40
1
40
1
40
1
40
1
41
1
41
1
41
1
41
1
41
1
41
1
41
1
41
1
41
1
41
1
41
1
41
1
41
1
41
1
41
1
41
1
41
1
41
1
41
1
41
1
41
1
41
1
41
1
41
1
41
1
41
1
41
1
41
1
41
1
41
1
41
1
41
1
41
1
41
1
41
1
41
1
41
1
41
1
41
1
41
1
41
1
41
1
41
1
41
1
41
1
41
1
41
1
41
1
41
1
41
1
41
1
41
1
41
1
41
1
41
1
41
1
41
1
41
1
41
1
41
1
41
1
41
1
41
1
41
1
41
1
41
1
41
1
41
1
41
1
41
1
41
1
41
1
41
1
41
1
41
1
41
1
41
1
41
1
41
1
41
1
41
1
41
1
41
1
41
1
41
1
41
1
41
1
41
1
41
1
41
1
41
1
41
1
41
1
41
1
41
1
41
1
41
1
41
1
41
1
41
1
41
1
41
1
41
1
41
1
41
1
10
0
20
0
30
0
10
0.019809471311229985
20
0.0076202966617553072
30
0
10
0.059457160050749774
20
0.022370811494982365
30
0
10
0.11901493149571736
20
0.043026349354209063
30
0
10
0.19859779830689619
20
0.067626109598982992
30
0
10
0.29836205989923953
20
0.093538992426309628
30
0
10
0.39840622978301127
20
0.114814041098703
30
0
10
0.4987185498982869
20
0.1318532283435549
30
0
10
0.59927923808503658
20
0.14532927240011889
30
0
10
0.70005840593559199
20
0.15625658019131311
30
0
10
0.80101757009223462
20
0.16576010161058433
30
0
10
0.90211118121590428
20
0.17483969764187704
30
0
10
1.0032881756967391
20
0.18413844806938515
30
0
10
1.1044934338055055
20
0.19370374214937486
30
0
10
1.2056694914691455
20
0.20276599833093079
30
0
10
1.3067655251960251
20
0.21008027723607792
30
0
10
1.4077463155478531
20
0.21425428098253149
30
0
10
1.5086008700111186
20
0.21407641260303725
30
0
10
1.6093520336895815
20
0.20885517910382898
30
0
10
1.7100633435803994
20
0.19872161453213369
30
0
10
1.8108144017957153
20
0.18447884846744231
30
0
10
1.9116780021844639
20
0.16748490950576422
30
0
10
2.012697473352647
20
0.14952064773602092
30
0
10
2.1138618586750462
20
0.13267046867826396
30
0
10
2.215087966366565
20
0.11918011249565089
30
0
10
2.3162541925461371
20
0.11117236777435163
30
0
10
2.4172297998842911
20
0.11036914868353948
30
0
10
2.5179047627004616
20
0.11782552439475613
30
0
10
2.6182221108863875
20
0.133624069812528
30
0
10
2.7182010526144715
20
0.15668784773135616
30
0
10
2.8179126364905742
20
0.18518147188885342
30
0
10
2.9174614668559551
20
0.21684003923137735
30
0
10
3.0169655379323048
20
0.24931506206360934
30
0
10
3.1165358407596644
20
0.28053796597400393
30
0
10
3.2162591808188354
20
0.30900186724940654
30
0
10
3.3162001932073899
20
0.33359442073875084
30
0
10
3.4164008702647202
20
0.3534833124729545
30
0
10
3.5168810179386694
20
0.36799195862430745
30
0
10
3.6176383544153481
20
0.37645509077000816
30
0
10
3.7186486076832672
20
0.37815511637388644
30
0
10
3.81986534681374
20
0.37268208936761438
30
0
10
3.9212193841884768
20
0.36025802797208079
30
0
10
4.0226192977262425
20
0.34203899532138726
30
0
10
4.1239491802716151
20
0.32051297855381811
30
0
10
4.2250744882013738
20
0.29959486828433651
30
0
10
4.3258755959627839
20
0.28362003948390563
30
0
10
4.4262788768943562
20
0.27648332584970742
30
0
10
4.5262849209831897
20
0.28077852648497725
30
0
10
4.626007136979446
20
0.29680054415216156
30
0
10
4.7256773470345772
20
0.32203608181828663
30
0
10
4.8255563924852067
20
0.35213687047335485
30
0
10
4.9258582187433735
20
0.38163119301723863
30
0
10
5.026675721231145
20
0.404731203463916
30
0
10
5.1278889579734823
20
0.41611493127167354
30
0
10
5.2291337973717011
20
0.41166591141809439
30
0
10
5.3299458528863468
20
0.38897459766928716
30
0
10
5.4298773718306235
20
0.34793397834843631
30
0
10
5.5286155223096243
20
0.29119733901808753
30
0
10
5.626122183443826
20
0.2249387871895675
30
0
10
5.7226938543875896
20
0.15870912914315766
30
0
10
5.8188098436860534
20
0.10299919998189856
30
0
10
5.9150193310925836
20
0.067201403160549081
30
0
10
6.0118164105735463
20
0.057489660021479469
30
0
10
6.1095124183532157
20
0.074552515907186243
30
0
10
6.2081321577773565
20
0.11190993300247346
30
0
10
6.3075159951494184
20
0.15892966838653291
30
0
10
6.4074021799667005
20
0.20340219897587059
30
0
10
6.5075153905218279
20
0.23424413629914001
30
0
10
6.6076556211459261
20
0.24423909926022583
30
0
10
6.7077783621388223
20
0.23250277899909469
30
0
10
6.8079385379871589
20
0.20277975346275939
30
0
10
6.9082427961084818
20
0.16200269012315402
30
0
10
7.0087993957717476
20
0.11876094456684276
30
0
10
7.109667423926723
20
0.081793632246008399
30
0
10
7.210811170627224
20
0.058518368174664409
30
0
10
7.3121205841851955
20
0.054265331007922649
30
0
10
7.4134266090757013
20
0.071421932568532673
30
0
10
7.5145189446440286
20
0.10868013880186821
30
0
10
7.6151615476945897
20
0.16007372994267746
30
0
10
7.7151125670133114
20
0.21458372838080833
30
0
10
7.8141693458975015
20
0.25933685745205109
30
0
10
7.9122115336028864
20
0.28244920852046185
30
0
10
8.0092433870093966
20
0.27592953246325608
30
0
10
8.1054401900885313
20
0.23873914392696644
30
0
10
8.2011823639031789
20
0.17927049242951199
30
0
10
8.2969545623583905
20
0.11126907667237942
30
0
10
8.3932559478109354
20
0.05029233418872267
30
0
10
8.4905044111950225
20
0.0098950297521686152
30
0
10
8.5889475357616636
20
-0.0019065897166449821
30
0
10
8.6885592914874579
20
0.013269476335698296
30
0
10
8.7891135929608915
20
0.046934239907489586
30
0
10
8.8902738787988671
20
0.087110226880899436
30
0
10
8.9916779840866106
20
0.12153450429317844
30
0
10
9.0930224053658755
20
0.14083362875999275
30
0
10
9.1941537157976008
20
0.14198839193321869
30
0
10
9.2950386788568782
20
0.12691740587946965
30
0
10
9.3957243067710365
20
0.10065731476936844
30
0
10
9.4963014291247028
20
0.069682194776471279
30
0
10
9.5968672446643666
20
0.040186316490744015
30
0
10
9.6974871569094816
20
0.016326153627683006
30
0
10
9.79820013086856
20
0.00058052372314661973
30
0
10
9.8788605733481738
20
-0.0045327443999237695
30
0
10
9.9394094612723052
20
-0.0039745918787017038
30
0
10
9.9797991870701726
20
-0.0016502364591259395
30
0
10
10
20
0
30
0
0
SPLINE
5
104
100
AcDbEntity
8
0
100
AcDbSpline
70
4
71
5
72
111
73
105
74
0
42
0.000000001
43
0.0000000001
44
0.0000000001
40
0
40
0
40
0
40
0
40
0
40
0
40
0.01
40
0.02
40
0.029999999999999999
40
0.040000000000000001
40
0.050000000000000003
40
0.060000000000000005
40
0.070000000000000007
40
0.080000000000000002
40
0.089999999999999997
40
0.099999999999999992
40
0.10999999999999999
40
0.11999999999999998
40
0.12999999999999998
40
0.13999999999999999
40
0.14999999999999999
40
0.16
40
0.17000000000000001
40
0.18000000000000002
40
0.19000000000000003
40
0.20000000000000004
40
0.21000000000000005
40
0.22000000000000006
40
0.23000000000000007
40
0.24000000000000007
40
0.25000000000000006
40
0.26000000000000006
40
0.27000000000000007
40
0.28000000000000008
40
0.29000000000000009
40
0.3000000000000001
40
0.31000000000000011
40
0.32000000000000012
40
0.33000000000000013
40
0.34000000000000014
40
0.35000000000000014
40
0.36000000000000015
40
0.37000000000000016
40
0.38000000000000017
40
0.39000000000000018
40
0.40000000000000019
40
0.4100000000000002
40
0.42000000000000021
40
0.43000000000000022
40
0.44000000000000022
40
0.45000000000000023
40
0.46000000000000024
40
0.47000000000000025
40
0.48000000000000026
40
0.49000000000000027
40
0.50000000000000022
40
0.51000000000000023
40
0.52000000000000024
40
0.53000000000000025
40
0.54000000000000026
40
0.55000000000000027
40
0.56000000000000028
40
0.57000000000000028
40
0.58000000000000029
40
0.5900000000000003
40
0.60000000000000031
40
0.61000000000000032
40
0.62000000000000033
40
0.63000000000000034
40
0.64000000000000035
40
0.65000000000000036
40
0.66000000000000036
40
0.67000000000000037
40
0.68000000000000038
40
0.69000000000000039
40
0.7000000000000004
40
0.71000000000000041
40
0.72000000000000042
40
0.73000000000000043
40
0.74000000000000044
40
0.75000000000000044
40
0.76000000000000045
40
0.77000000000000046
40
0.78000000000000047
40
0.79000000000000048
40
0.80000000000000049
40
0.8100000000000005
40
0.82000000000000051
40
0.83000000000000052
40
0.84000000000000052
40
0.85000000000000053
40
0.86000000000000054
40
0.87000000000000055
40
0.88000000000000056
40
0.89000000000000057
40
0.90000000000000058
40
0.91000000000000059
40
0.9200000000000006
40
0.9300000000000006
40
0.94000000000000061
40
0.95000000000000062
40
0.96000000000000063
40
0.97000000000000064
40
0.98000000000000065
40
0.99000000000000066
40
1
40
1
40
1
40
1
40
1
40
1
41
1
41
1
41
1
41
1
41
1
41
1
41
1
41
1
41
1
41
1
41
1
41
1
41
1
41
1
41
1
41
1
41
1
41
1
41
1
41
1
41
1
41
1
41
1
41
1
41
1
41
1
41
1
41
1
41
1
41
1
41
1
41
1
41
1
41
1
41
1
41
1
41
1
41
1
41
1
41
1
41
1
41
1
41
1
41
1
41
1
41
1
41
1
41
1
41
1
41
1
41
1
41
1
41
1
41
1
41
1
41
1
41
1
41
1
41
1
41
1
41
1
41
1
41
1
41
1
41
1
41
1
41
1
41
1
41
1
41
1
41
1
41
1
41
1
41
1
41
1
41
1
41
1
41
1
41
1
41
1
41
1
41
1
41
1
41
1
41
1
41
1
41
1
41
1
41
1
41
1
41
1
41
1
41
1
41
1
41
1
41
1
41
1
41
1
41
1
41
1
41
1
41
1
41
1
41
1
41
1
10
0
20
2
30
0
10
0.017945154733799977
20
1.9625400658953311
30
0
10
0.054022023937125983
20
1.8924168349187098
30
0
10
0.10869699764849224
20
1.8016216479846157
30
0
10
0.18271656530900227
20
1.7093475903493789
30
0
10
0.27707660694548325
20
1.6411135220994546
30
0
10
0.37318062555177584
20
1.6173758911821272
30
0
10
0.47084135614713135
20
1.6328024874159353
30
0
10
0.56975102962942903
20
1.6786255254492664
30
0
10
0.66943235003152934
20
1.7412703968412
30
0
10
0.76931302085243125
20
1.804340899633273
30
0
10
0.86884522622988047
20
1.8518386290516959
30
0
10
0.96761760993858259
20
1.8711521272596108
30
0
10
1.0654546543404317
20
1.8557639176444007
30
0
10
1.1625614202263841
20
1.8090398008295685
30
0
10
1.2594421773735993
20
1.74257177879828
30
0
10
1.3567145829789597
20
1.671968087589766
30
0
10
1.4549480844403386
20
1.6132956300016956
30
0
10
1.5545120264059529
20
1.5796035774191126
30
0
10
1.6553706431637918
20
1.5765427369124265
30
0
10
1.757106064483869
20
1.6020296245660168
30
0
10
1.8591245587007341
20
1.6492261909288701
30
0
10
1.9608182547121529
20
1.7086420536112803
30
0
10
2.061727310504653
20
1.770426679051966
30
0
10
2.1617463030672885
20
1.8269990955229354
30
0
10
2.2611054534769059
20
1.8735763082885692
30
0
10
2.3602106057441872
20
1.9073324982386133
30
0
10
2.4595208083551872
20
1.9269494354561214
30
0
10
2.5594223578860227
20
1.9320671721515092
30
0
10
2.6600745972962407
20
1.9226266931538918
30
0
10
2.7614028165575304
20
1.8989398817794434
30
0
10
2.8631914685907494
20
1.8622414857512339
30
0
10
2.9651491763920488
20
1.8151555731007809
30
0
10
3.0669809287466459
20
1.7620667785244362
30
0
10
3.1684682451629484
20
1.7098634077699479
30
0
10
3.2694890227994051
20
1.6668538529970447
30
0
10
3.3700043258474031
20
1.6408165949122586
30
0
10
3.4700564970400376
20
1.6372126559746185
30
0
10
3.5697608498959883
20
1.657573037707939
30
0
10
3.6693046469208195
20
1.6971911857861735
30
0
10
3.768918090355986
20
1.7465713570369972
30
0
10
3.8688353843651808
20
1.7943781822265783
30
0
10
3.9692573438287102
20
1.83001539174407
30
0
10
4.0703169804973802
20
1.8460999851029092
30
0
10
4.1720345479139063
20
1.8416400259615142
30
0
10
4.2743287720171441
20
1.8212352197710588
30
0
10
4.3770515945252484
20
1.7926104767661564
30
0
10
4.4800156054714115
20
1.7646422880637556
30
0
10
4.5830237709674462
20
1.7452886333222222
30
0
10
4.6859000293770112
20
1.7392802357731807
30
0
10
4.7885042979209231
20
1.7481653532253774
30
0
10
4.8907433160931166
20
1.7709157141218868
30
0
10
4.9925834532605755
20
1.8043316807700709
30
0
10
5.0940616292228471
20
1.8435413459172163
30
0
10
5.1953000541188556
20
1.8824278572739905
30
0
10
5.2964629891244508
20
1.9146589562474468
30
0
10
5.3977093958871496
20
1.9347516867770906
30
0
10
5.4991469816341514
20
1.9391274007540773
30
0
10
5.6007858406956164
20
1.9271669579472035
30
0
10
5.7024915996280878
20
1.9022819651801157
30
0
10
5.8040652060152995
20
1.8701827612899227
30
0
10
5.905324609361263
20
1.837110601194222
30
0
10
6.0061838618404648
20
1.8081156459311289
30
0
10
6.106737686936377
20
1.7852415785081979
30
0
10
6.2073316880354303
20
1.7659549820597449
30
0
10
6.3084014925569862
20
1.7455440631787014
30
0
10
6.4103201550073727
20
1.7193647523223075
30
0
10
6.51324945487581
20
1.6850442060777528
30
0
10
6.6169730902234765
20
1.6449355571366104
30
0
10
6.7207848474423475
20
1.6077940751180717
30
0
10
6.8237657582619242
20
1.5849429391488432
30
0
10
6.9250297019803249
20
1.5868779244832569
30
0
10
7.0239650038956807
20
1.6199482724101428
30
0
10
7.1205157702929807
20
1.6824270184860808
30
0
10
7.21532866715045
20
1.7626294293395852
30
0
10
7.3094354164716524
20
1.844085680553694
30
0
10
7.4040121447742244
20
1.9095480200469974
30
0
10
7.5001090651607862
20
1.9454461117874775
30
0
10
7.5983918310741601
20
1.946173343668903
30
0
10
7.6988802385857742
20
1.918395355359509
30
0
10
7.8011477177567592
20
1.876076486766117
30
0
10
7.9045184319738748
20
1.8355286471970182
30
0
10
8.0082619833700655
20
1.8105556303005697
30
0
10
8.1117963042582399
20
1.807320016918319
30
0
10
8.2148664940672411
20
1.8199946732725294
30
0
10
8.3174230224893559
20
1.8360999418305537
30
0
10
8.4195166341626066
20
1.8413353218006248
30
0
10
8.5211930104403564
20
1.8243429727229845
30
0
10
8.6223734966098924
20
1.7821047195504187
30
0
10
8.7227845136547106
20
1.7232348484197979
30
0
10
8.8220876054402861
20
1.6626362102346472
30
0
10
8.9199818316056056
20
1.6173685093117449
30
0
10
9.0163123006837615
20
1.6022018995347223
30
0
10
9.1111871517381218
20
1.624935832395181
30
0
10
9.2050582708432884
20
1.682913756781494
30
0
10
9.2985933245038996
20
1.7665269647770623
30
0
10
9.3925750473816763
20
1.8618117522265674
30
0
10
9.4877880978823264
20
1.953442945444164
30
0
10
9.5849157564169776
20
2.0274461633239143
30
0
10
9.6844203017386246
20
2.0743264273125268
30
0
10
9.7865754853760158
20
2.0884615882700426
30
0
10
9.870529517332761
20
2.0713182381619082
30
0
10
9.9347692845449345
20
2.0420430961019091
30
0
10
9.9781620527720776
20
2.0152303460774199
30
0
10
10
20
2
30
0
0
ENDSEC
0
SECTION
2
OBJECTS
0
DICTIONARY
5
C
100
AcDbDictionary
3
ACAD_GROUP
350
D
3
ACAD_MLINESTYLE
350
17
0
DICTIONARY
5
D
100
AcDbDictionary
0
DICTIONARY
5
1A
330
C
100
AcDbDictionary
0
DICTIONARY
5
17
100
AcDbDictionary
0
ENDSEC
0
EOF
