0
SECTION
2
HEADER
9
$INSUNITS
70
4
9
$ACADVER
1
AC1014
9
$HANDSEED
5
FFFF
0
ENDSEC
0
SECTION
2
TABLES
0
TABLE
2
VPORT
5
8
100
AcDbSymbolTable
0
ENDTAB
0
TABLE
2
LTYPE
5
5
100
AcDbSymbolTable
0
LTYPE
5
14
100
AcDbSymbolTableRecord
100
AcDbLinetypeTableRecord
2
BYBLOCK
70
0
0
LTYPE
5
15
100
AcDbSymbolTableRecord
100
AcDbLinetypeTableRecord
2
BYLAYER
70
0
0
ENDTAB
0
TABLE
2
LAYER
5
2
100
AcDbSymbolTable
70
2
0
LAYER
5
50
100
AcDbSymbolTableRecord
100
AcDbLayerTableRecord
2
0
70
0
6
CONTINUOUS
0
ENDTAB
0
TABLE
2
STYLE
5
3
100
AcDbSymbolTable
70
1
0
STYLE
5
11
100
AcDbSymbolTableRecord
100
AcDbTextStyleTableRecord
2
STANDARD
70
0
0
ENDTAB
0
TABLE
2
VIEW
5
6
100
AcDbSymbolTable
70
0
0
ENDTAB
0
TABLE
2
UCS
5
7
100
AcDbSymbolTable
70
0
0
ENDTAB
0
TABLE
2
APPID
5
9
100
AcDbSymbolTable
70
2
0
APPID
5
12
100
AcDbSymbolTableRecord
100
AcDbRegAppTableRecord
2
ACAD
70
0
0
ENDTAB
0
TABLE
2
DIMSTYLE
5
A
100
AcDbSymbolTable
70
1
0
ENDTAB
0
TABLE
2
BLOCK_RECORD
5
1
100
AcDbSymbolTable
70
1
0
BLOCK_RECORD
5
1F
100
AcDbSymbolTableRecord
100
AcDbBlockTableRecord
2
*MODEL_SPACE
0
BLOCK_RECORD
5
1B
100
AcDbSymbolTableRecord
100
AcDbBlockTableRecord
2
*PAPER_SPACE
0
ENDTAB
0
ENDSEC
0
SECTION
2
BLOCKS
0
BLOCK
5
20
100
AcDbEntity
100
AcDbBlockBegin
2
*MODEL_SPACE
0
ENDBLK
5
21
100
AcDbEntity
100
AcDbBlockEnd
0
BLOCK
5
1C
100
AcDbEntity
100
AcDbBlockBegin
2
*PAPER_SPACE
0
ENDBLK
5
1D
100
AcDbEntity
100
AcDbBlockEnd
0
ENDSEC
0
SECTION
2
ENTITIES
0
SPLINE
5
100
100
AcDbEntity
8
0
100
AcDbSpline
70
4
71
5
72
16
73
10
74
0
42
0.000000001
43
0.0000000001
44
0.0000000001
40
0
40
0
40
0
40
0
40
0
40
0
40
0.20000000000000001
40
0.40000000000000002
40
0.60000000000000009
40
0.80000000000000004
40
1
40
1
40
1
40
1
40
1
40
1
41
1
41
1
41
1
41
1
41
1
41
1
41
1
41
1
41
1
41
1
10
0
20
0
30
0
10
0
20
0.080000000000033267
30
0
10
0
20
0.24000000000008476
30
0
10
0
20
0.48000000000011728
30
0
10
0
20
0.80000000000008786
30
0
10
0
20
1.2000000000000053
30
0
10
0
20
1.5199999999999583
30
0
10
0
20
1.7599999999999643
30
0
10
0
20
1.9199999999999853
30
0
10
0
20
2
30
0
0
SPLINE
5
101
100
AcDbEntity
8
0
100
AcDbSpline
70
4
71
5
72
16
73
10
74
0
42
0.000000001
43
0.0000000001
44
0.0000000001
40
0
40
0
40
0
40
0
40
0
40
0
40
0.20000000000000001
40
0.40000000000000002
40
0.60000000000000009
40
0.80000000000000004
40
1
40
1
40
1
40
1
40
1
40
1
41
1
41
1
41
1
41
1
41
1
41
1
41
1
41
1
41
1
41
1
10
10
20
0
30
0
10
9.9999999999997495
20
0.080000000000033267
30
0
10
9.9999999999993197
20
0.24000000000008476
30
0
10
9.9999999999989129
20
0.48000000000011728
30
0
10
9.9999999999987672
20
0.80000000000008786
30
0
10
9.9999999999990248
20
1.2000000000000053
30
0
10
9.9999999999993889
20
1.5199999999999583
30
0
10
9.9999999999996998
20
1.7599999999999643
30
0
10
9.9999999999999005
20
1.9199999999999853
30
0
10
10
20
2
30
0
0
SPLINE
5
102
100
AcDbEntity
8
0
100
AcDbSpline
70
4
71
5
72
16
73
10
74
0
42
0.000000001
43
0.0000000001
44
0.0000000001
40
0
40
0
40
0
40
0
40
0
40
0
40
0.20000000000000001
40
0.40000000000000002
40
0.60000000000000009
40
0.80000000000000004
40
1
40
1
40
1
40
1
40
1
40
1
41
1
41
1
41
1
41
1
41
1
41
1
41
1
41
1
41
1
41
1
10
0
20
1
30
0
10
0.40000000000047375
20
0.99999999999987343
30
0
10
1.2000000000012774
20
0.99999999999965183
30
0
10
2.4000000000020547
20
0.99999999999941747
30
0
10
4.0000000000023546
20
0.99999999999928091
30
0
10
6.0000000000019584
20
0.99999999999933376
30
0
10
7.6000000000012928
20
0.99999999999951594
30
0
10
8.800000000000697
20
0.99999999999972888
30
0
10
9.6000000000002395
20
0.99999999999990408
30
0
10
10
20
1
30
0
0
SPLINE
5
103
100
AcDbEntity
8
0
100
AcDbSpline
70
4
71
5
72
161
73
155
74
0
42
0.000000001
43
0.0000000001
44
0.0000000001
40
0
40
0
40
0
40
0
40
0
40
0
40
0.0066666666666666671
40
0.013333333333333334
40
0.02
40
0.026666666666666668
40
0.033333333333333333
40
0.040000000000000001
40
0.046666666666666669
40
0.053333333333333337
40
0.060000000000000005
40
0.066666666666666666
40
0.073333333333333334
40
0.080000000000000002
40
0.08666666666666667
40
0.093333333333333338
40
0.10000000000000001
40
0.10666666666666667
40
0.11333333333333334
40
0.12000000000000001
40
0.12666666666666668
40
0.13333333333333333
40
0.13999999999999999
40
0.14666666666666664
40
0.15333333333333329
40
0.15999999999999995
40
0.1666666666666666
40
0.17333333333333326
40
0.17999999999999991
40
0.18666666666666656
40
0.19333333333333322
40
0.19999999999999987
40
0.20666666666666653
40
0.21333333333333318
40
0.21999999999999983
40
0.22666666666666649
40
0.23333333333333314
40
0.2399999999999998
40
0.24666666666666645
40
0.25333333333333313
40
0.25999999999999979
40
0.26666666666666644
40
0.2733333333333331
40
0.27999999999999975
40
0.2866666666666664
40
0.29333333333333306
40
0.29999999999999971
40
0.30666666666666637
40
0.31333333333333302
40
0.31999999999999967
40
0.32666666666666633
40
0.33333333333333298
40
0.33999999999999964
40
0.34666666666666629
40
0.35333333333333294
40
0.3599999999999996
40
0.36666666666666625
40
0.37333333333333291
40
0.37999999999999956
40
0.38666666666666621
40
0.39333333333333287
40
0.39999999999999952
40
0.40666666666666618
40
0.41333333333333283
40
0.41999999999999948
40
0.42666666666666614
40
0.43333333333333279
40
0.43999999999999945
40
0.4466666666666661
40
0.45333333333333276
40
0.45999999999999941
40
0.46666666666666606
40
0.47333333333333272
40
0.47999999999999937
40
0.48666666666666603
40
0.49333333333333268
40
0.49999999999999933
40
0.50666666666666604
40
0.51333333333333275
40
0.51999999999999946
40
0.52666666666666617
40
0.53333333333333288
40
0.53999999999999959
40
0.5466666666666663
40
0.55333333333333301
40
0.55999999999999972
40
0.56666666666666643
40
0.57333333333333314
40
0.57999999999999985
40
0.58666666666666656
40
0.59333333333333327
40
0.59999999999999998
40
0.60666666666666669
40
0.6133333333333334
40
0.62000000000000011
40
0.62666666666666682
40
0.63333333333333353
40
0.64000000000000024
40
0.64666666666666694
40
0.65333333333333365
40
0.66000000000000036
40
0.66666666666666707
40
0.67333333333333378
40
0.68000000000000049
40
0.6866666666666672
40
0.69333333333333391
40
0.70000000000000062
40
0.70666666666666733
40
0.71333333333333404
40
0.72000000000000075
40
0.72666666666666746
40
0.73333333333333417
40
0.74000000000000088
40
0.74666666666666759
40
0.7533333333333343
40
0.76000000000000101
40
0.76666666666666772
40
0.77333333333333443
40
0.78000000000000114
40
0.78666666666666785
40
0.79333333333333456
40
0.80000000000000127
40
0.80666666666666798
40
0.81333333333333468
40
0.82000000000000139
40
0.8266666666666681
40
0.83333333333333481
40
0.84000000000000152
40
0.84666666666666823
40
0.85333333333333494
40
0.86000000000000165
40
0.86666666666666836
40
0.87333333333333507
40
0.88000000000000178
40
0.88666666666666849
40
0.8933333333333352
40
0.90000000000000191
40
0.90666666666666862
40
0.91333333333333533
40
0.92000000000000204
40
0.92666666666666875
40
0.93333333333333546
40
0.94000000000000217
40
0.94666666666666888
40
0.95333333333333559
40
0.9600000000000023
40
0.96666666666666901
40
0.97333333333333572
40
0.98000000000000242
40
0.98666666666666913
40
0.99333333333333584
40
1
40
1
40
1
40
1
40
1
40
1
41
1
41
1
41
1
41
1
41
1
41
1
41
1
41
1
41
1
41
1
41
1
41
1
41
1
41
1
41
1
41
1
41
1
41
1
41
1
41
1
41
1
41
1
41
1
41
1
41
1
41
1
41
1
41
1
41
1
41
1
41
1
41
1
41
1
41
1
41
1
41
1
41
1
41
1
41
1
41
1
41
1
41
1
41
1
41
1
41
1
41
1
41
1
41
1
41
1
41
1
41
1
41
1
41
1
41
1
41
1
41
1
41
1
41
1
41
1
41
1
41
1
41
1
41
1
41
1
41
1
41
1
41
1
41
1
41
1
41
1
41
1
41
1
41
1
41
1
41
1
41
1
41
1
41
1
41
1
41
1
41
1
41
1
41
1
41
1
41
1
41
1
41
1
41
1
41
1
41
1
41
1
41
1
41
1
41
1
41
1
41
1
41
1
41
1
41
1
41
1
41
1
41
1
41
1
41
1
41
1
41
1
41
1
41
1
41
1
41
1
41
1
41
1
41
1
41
1
41
1
41
1
41
1
41
1
41
1
41
1
41
1
41
1
41
1
41
1
41
1
41
1
41
1
41
1
41
1
41
1
41
1
41
1
41
1
41
1
41
1
41
1
41
1
41
1
41
1
41
1
41
1
41
1
41
1
41
1
41
1
41
1
41
1
41
1
41
1
41
1
41
1
41
1
41
1
41
1
41
1
10
0
20
0
30
0
10
0.012662278225045577
20
0.024624354277048011
30
0
10
0.038110352156551293
20
0.070254337208134399
30
0
10
0.076653013855610672
20
0.12784317308057663
30
0
10
0.12878439893732457
20
0.18291410673838487
30
0
10
0.19514828161126829
20
0.21641719761127051
30
0
10
0.26260464320594978
20
0.21715859804808477
30
0
10
0.33093824631924501
20
0.19030933041380976
30
0
10
0.3997909649254402
20
0.14447585696116536
30
0
10
0.46862234817580783
20
0.092646096374746231
30
0
10
0.5368340893212088
20
0.049307454210910817
30
0
10
0.6039002557392863
20
0.027430120691670681
30
0
10
0.6694940822153328
20
0.035531170319652354
30
0
10
0.73361934972022191
20
0.074630398975028808
30
0
10
0.7967311653604876
20
0.13545793491730068
30
0
10
0.85955478498789728
20
0.20298144690426509
30
0
10
0.92291674755426423
20
0.26061072917498285
30
0
10
0.9875666076549432
20
0.29468759141005529
30
0
10
1.0540137343316496
20
0.29847623843365412
30
0
10
1.122328570119751
20
0.27736182449909769
30
0
10
1.1922048437536816
20
0.24512253384188598
30
0
10
1.2630760692817162
20
0.21833450703041435
30
0
10
1.3342132627083079
20
0.21143480260028291
30
0
10
1.4048304519308696
20
0.2314780623612675
30
0
10
1.4741868797025746
20
0.2731047838082441
30
0
10
1.5416822420136225
20
0.32313738001420844
30
0
10
1.6069522884621747
20
0.36512514986474842
30
0
10
1.6699626636094187
20
0.38386566976365433
30
0
10
1.7311075791780346
20
0.37002861456547853
30
0
10
1.7912950879584357
20
0.32447582906319339
30
0
10
1.8516902525273986
20
0.25529169801847301
30
0
10
1.9134780817736821
20
0.17513390707174156
30
0
10
1.977606377594793
20
0.098396754471799366
30
0
10
2.0445660593858701
20
0.038611666061321125
30
0
10
2.114081770919487
20
0.0053479495465285215
30
0
10
2.1852287608643932
20
0.003437492222375358
30
0
10
2.2567489022520997
20
0.033306916421407311
30
0
10
2.3273070514125833
20
0.090930954518838897
30
0
10
2.3957644534167151
20
0.16800360940182751
30
0
10
2.4614654471266935
20
0.25185139674585516
30
0
10
2.5242038964875024
20
0.32779327572911565
30
0
10
2.5841552944188591
20
0.3816455040525969
30
0
10
2.6418235975838411
20
0.40231750597026683
30
0
10
2.6979770675317432
20
0.38404808641157201
30
0
10
2.7536010445403436
20
0.32959686764244939
30
0
10
2.8097914457518476
20
0.24961179615207019
30
0
10
2.8676008772609318
20
0.15893836049396443
30
0
10
2.9279006323519727
20
0.073839068387648879
30
0
10
2.9912310110087175
20
0.0087735008524316913
30
0
10
3.0576684872890891
20
-0.026479731711097697
30
0
10
3.1266536528258797
20
-0.030259302998104868
30
0
10
3.1972206801328298
20
-0.0073034874427452684
30
0
10
3.2682814282315831
20
0.033627943130529345
30
0
10
3.3388847583123162
20
0.081880237747817497
30
0
10
3.4084986589555939
20
0.12717473965103879
30
0
10
3.4772478540809986
20
0.16170422336830356
30
0
10
3.5456293650920006
20
0.18034045167096885
30
0
10
3.6142512438169661
20
0.1809931141278501
30
0
10
3.6835805258549001
20
0.16483317614691112
30
0
10
3.753645216625765
20
0.13676128789107794
30
0
10
3.8238864145507616
20
0.10519504391924078
30
0
10
3.893489336549238
20
0.079786644178058017
30
0
10
3.961646914313226
20
0.069391549845793155
30
0
10
4.027821532231858
20
0.08014160132056429
30
0
10
4.0920758494928187
20
0.11298430918789792
30
0
10
4.1551295404890327
20
0.16320314703790634
30
0
10
4.2180200623888435
20
0.22278344014181883
30
0
10
4.2818534071068726
20
0.28211317493575344
30
0
10
4.3475330484279819
20
0.33188947448880157
30
0
10
4.4154636484680223
20
0.36508596094753459
30
0
10
4.4853714349284548
20
0.37843351897596805
30
0
10
4.5565789028909549
20
0.37182858124839213
30
0
10
4.6282158171708492
20
0.34811105384343505
30
0
10
4.6994383871366274
20
0.31261513141546465
30
0
10
4.7696853997646125
20
0.27301731089223835
30
0
10
4.838766622460458
20
0.23832110400715614
30
0
10
4.9067442802524068
20
0.21694764404390884
30
0
10
4.9738670121443658
20
0.21492536546733662
30
0
10
5.0404853581151308
20
0.23432026432649536
30
0
10
5.1069681438937566
20
0.27086396569338861
30
0
10
5.1736516729181297
20
0.31513887377942629
30
0
10
5.2408156464940987
20
0.35593673271344722
30
0
10
5.3086481837263166
20
0.38312043361744497
30
0
10
5.3772211205866514
20
0.3903389522575802
30
0
10
5.4464463717719198
20
0.37868890149688245
30
0
10
5.516111824326857
20
0.35561174222191294
30
0
10
5.5859584618142177
20
0.3312083028658675
30
0
10
5.6557470059552788
20
0.31526491079233382
30
0
10
5.7253238504893291
20
0.3141883166414049
30
0
10
5.7947005685940365
20
0.32744465727002181
30
0
10
5.8639998088668923
20
0.34935708144711353
30
0
10
5.9333768173132109
20
0.37188719483485044
30
0
10
6.0029504494577681
20
0.38704572784460012
30
0
10
6.07272805494227
20
0.38951460923065201
30
0
10
6.1425388460762136
20
0.37902454475835856
30
0
10
6.2121225800017275
20
0.35853696560903814
30
0
10
6.2812157166164484
20
0.33251971463153784
30
0
10
6.3496326246412549
20
0.30529013914972714
30
0
10
6.4173626650085014
20
0.27909228863694269
30
0
10
6.484617995867282
20
0.2530212098851648
30
0
10
6.551716523237098
20
0.22479433380475866
30
0
10
6.6189880939876931
20
0.19212009981790173
30
0
10
6.6866795578955429
20
0.15408905115022939
30
0
10
6.754841340105056
20
0.11287747700772711
30
0
10
6.8232829976792697
20
0.074282036660016801
30
0
10
6.8917005211121634
20
0.045367456112176865
30
0
10
6.9597747910026575
20
0.032572188077359857
30
0
10
7.0272717476860871
20
0.039852350172121208
30
0
10
7.0941652581447627
20
0.066279253201360341
30
0
10
7.160667532108028
20
0.10573684634640949
30
0
10
7.2271172890843358
20
0.14977761184921634
30
0
10
7.2938991221501217
20
0.18984492694724775
30
0
10
7.3613564610174596
20
0.21948932728258536
30
0
10
7.4296923324295232
20
0.23721959117678704
30
0
10
7.4989290317379993
20
0.2468263076908592
30
0
10
7.5689561885412191
20
0.2541401416931961
30
0
10
7.6395572491909194
20
0.26448782965088435
30
0
10
7.7104443581992204
20
0.28024163412658315
30
0
10
7.7812903893637984
20
0.29739427445817429
30
0
10
7.851758409210488
20
0.30694975342804842
30
0
10
7.9215274424754378
20
0.29920694941141746
30
0
10
7.9903202155387065
20
0.26729494800652953
30
0
10
8.0579283879797146
20
0.21071920890375903
30
0
10
8.1242433344753717
20
0.13968903113571138
30
0
10
8.1892396959309526
20
0.071228742263179393
30
0
10
8.2529520934137732
20
0.024066819849068562
30
0
10
8.3154530848920079
20
0.013719356829644137
30
0
10
8.3768332658574014
20
0.048028642720239149
30
0
10
8.4371737028399547
20
0.121135143533231
30
0
10
8.4965604261329233
20
0.21598855376587459
30
0
10
8.5551156543834601
20
0.31027670038651872
30
0
10
8.6130239965076818
20
0.3812799277732738
30
0
10
8.6705598829888295
20
0.41109280953879274
30
0
10
8.7281165800707114
20
0.39187828239500655
30
0
10
8.7862285307162562
20
0.33056833538457686
30
0
10
8.8454777097165795
20
0.24349574169175492
30
0
10
8.9064091813654187
20
0.15172159814078215
30
0
10
8.9694379946723117
20
0.075875291746941284
30
0
10
9.0347715374882327
20
0.031716625694182418
30
0
10
9.1022959302363127
20
0.024111328421057704
30
0
10
9.1715988095507921
20
0.046964601846382868
30
0
10
9.2421061816070793
20
0.088148813473991922
30
0
10
9.31319098697222
20
0.13315959785721065
30
0
10
9.3842846423715098
20
0.16899071704358654
30
0
10
9.4550091676718502
20
0.18868207214534988
30
0
10
9.5251713260448518
20
0.19104745937573131
30
0
10
9.5947027059153331
20
0.17849734568189282
30
0
10
9.6636173063865733
20
0.15547770318726722
30
0
10
9.7319624626180641
20
0.12667743991110755
30
0
10
9.7997709717186403
20
0.095267508927769931
30
0
10
9.8670622156853245
20
0.063135119306090018
30
0
10
9.9204893337795035
20
0.037610584333276582
30
0
10
9.9603328620059255
20
0.018710555102716724
30
0
10
9.9867944198367979
20
0.0062188104135450419
30
0
10
10
20
0
30
0
0
SPLINE
5
104
100
AcDbEntity
8
0
100
AcDbSpline
70
4
71
5
72
161
73
155
74
0
42
0.000000001
43
0.0000000001
44
0.0000000001
40
0
40
0
40
0
40
0
40
0
40
0
40
0.0066666666666666671
40
0.013333333333333334
40
0.02
40
0.026666666666666668
40
0.033333333333333333
40
0.040000000000000001
40
0.046666666666666669
40
0.053333333333333337
40
0.060000000000000005
40
0.066666666666666666
40
0.073333333333333334
40
0.080000000000000002
40
0.08666666666666667
40
0.093333333333333338
40
0.10000000000000001
40
0.10666666666666667
40
0.11333333333333334
40
0.12000000000000001
40
0.12666666666666668
40
0.13333333333333333
40
0.13999999999999999
40
0.14666666666666664
40
0.15333333333333329
40
0.15999999999999995
40
0.1666666666666666
40
0.17333333333333326
40
0.17999999999999991
40
0.18666666666666656
40
0.19333333333333322
40
0.19999999999999987
40
0.20666666666666653
40
0.21333333333333318
40
0.21999999999999983
40
0.22666666666666649
40
0.23333333333333314
40
0.2399999999999998
40
0.24666666666666645
40
0.25333333333333313
40
0.25999999999999979
40
0.26666666666666644
40
0.2733333333333331
40
0.27999999999999975
40
0.2866666666666664
40
0.29333333333333306
40
0.29999999999999971
40
0.30666666666666637
40
0.31333333333333302
40
0.31999999999999967
40
0.32666666666666633
40
0.33333333333333298
40
0.33999999999999964
40
0.34666666666666629
40
0.35333333333333294
40
0.3599999999999996
40
0.36666666666666625
40
0.37333333333333291
40
0.37999999999999956
40
0.38666666666666621
40
0.39333333333333287
40
0.39999999999999952
40
0.40666666666666618
40
0.41333333333333283
40
0.41999999999999948
40
0.42666666666666614
40
0.43333333333333279
40
0.43999999999999945
40
0.4466666666666661
40
0.45333333333333276
40
0.45999999999999941
40
0.46666666666666606
40
0.47333333333333272
40
0.47999999999999937
40
0.48666666666666603
40
0.49333333333333268
40
0.49999999999999933
40
0.50666666666666604
40
0.51333333333333275
40
0.51999999999999946
40
0.52666666666666617
40
0.53333333333333288
40
0.53999999999999959
40
0.5466666666666663
40
0.55333333333333301
40
0.55999999999999972
40
0.56666666666666643
40
0.57333333333333314
40
0.57999999999999985
40
0.58666666666666656
40
0.59333333333333327
40
0.59999999999999998
40
0.60666666666666669
40
0.6133333333333334
40
0.62000000000000011
40
0.62666666666666682
40
0.63333333333333353
40
0.64000000000000024
40
0.64666666666666694
40
0.65333333333333365
40
0.66000000000000036
40
0.66666666666666707
40
0.67333333333333378
40
0.68000000000000049
40
0.6866666666666672
40
0.69333333333333391
40
0.70000000000000062
40
0.70666666666666733
40
0.71333333333333404
40
0.72000000000000075
40
0.72666666666666746
40
0.73333333333333417
40
0.74000000000000088
40
0.74666666666666759
40
0.7533333333333343
40
0.76000000000000101
40
0.76666666666666772
40
0.77333333333333443
40
0.78000000000000114
40
0.78666666666666785
40
0.79333333333333456
40
0.80000000000000127
40
0.80666666666666798
40
0.81333333333333468
40
0.82000000000000139
40
0.8266666666666681
40
0.83333333333333481
40
0.84000000000000152
40
0.84666666666666823
40
0.85333333333333494
40
0.86000000000000165
40
0.86666666666666836
40
0.87333333333333507
40
0.88000000000000178
40
0.88666666666666849
40
0.8933333333333352
40
0.90000000000000191
40
0.90666666666666862
40
0.91333333333333533
40
0.92000000000000204
40
0.92666666666666875
40
0.93333333333333546
40
0.94000000000000217
40
0.94666666666666888
40
0.95333333333333559
40
0.9600000000000023
40
0.96666666666666901
40
0.97333333333333572
40
0.98000000000000242
40
0.98666666666666913
40
0.99333333333333584
40
1
40
1
40
1
40
1
40
1
40
1
41
1
41
1
41
1
41
1
41
1
41
1
41
1
41
1
41
1
41
1
41
1
41
1
41
1
41
1
41
1
41
1
41
1
41
1
41
1
41
1
41
1
41
1
41
1
41
1
41
1
41
1
41
1
41
1
41
1
41
1
41
1
41
1
41
1
41
1
41
1
41
1
41
1
41
1
41
1
41
1
41
1
41
1
41
1
41
1
41
1
41
1
41
1
41
1
41
1
41
1
41
1
41
1
41
1
41
1
41
1
41
1
41
1
41
1
41
1
41
1
41
1
41
1
41
1
41
1
41
1
41
1
41
1
41
1
41
1
41
1
41
1
41
1
41
1
41
1
41
1
41
1
41
1
41
1
41
1
41
1
41
1
41
1
41
1
41
1
41
1
41
1
41
1
41
1
41
1
41
1
41
1
41
1
41
1
41
1
41
1
41
1
41
1
41
1
41
1
41
1
41
1
41
1
41
1
41
1
41
1
41
1
41
1
41
1
41
1
41
1
41
1
41
1
41
1
41
1
41
1
41
1
41
1
41
1
41
1
41
1
41
1
41
1
41
1
41
1
41
1
41
1
41
1
41
1
41
1
41
1
41
1
41
1
41
1
41
1
41
1
41
1
41
1
41
1
41
1
41
1
41
1
41
1
41
1
41
1
41
1
41
1
41
1
41
1
41
1
41
1
41
1
41
1
41
1
41
1
41
1
10
0
20
2
30
0
10
0.010157574247640997
20
1.9715895088247593
30
0
10
0.030770791569804768
20
1.9175473689822677
30
0
10
0.062584815295149171
20
1.8448206056861005
30
0
10
0.10679211424796588
20
1.7645263900652051
30
0
10
0.16499843417526255
20
1.6916399062000913
30
0
10
0.22605064494903332
20
1.6453055068250748
30
0
10
0.28974266465080872
20
1.6236325488107926
30
0
10
0.35573538593747378
20
1.6235103896855412
30
0
10
0.42350681955397151
20
1.6401494180209528
30
0
10
0.49237035033506771
20
1.6672536183483579
30
0
10
0.56161969523115118
20
1.698365279473927
30
0
10
0.63065548186698306
20
1.7280428536571639
30
0
10
0.69910053078493128
20
1.7529262779124619
30
0
10
0.76696531228723563
20
1.7732863001017591
30
0
10
0.83462031175578821
20
1.7927174882744592
30
0
10
0.90255801144879089
20
1.815813915467646
30
0
10
0.97119729293019819
20
1.8462454697961275
30
0
10
1.0406987415035753
20
1.8849542928997782
30
0
10
1.1107054448857774
20
1.9275974848226602
30
0
10
1.180426486838525
20
1.9654381741846434
30
0
10
1.2489535539764391
20
1.9885820379046635
30
0
10
1.3155218359674292
20
1.9886504036605921
30
0
10
1.379763954717532
20
1.9613911656180667
30
0
10
1.4420431365556934
20
1.9100667410870134
30
0
10
1.5033043350419018
20
1.8440926332165519
30
0
10
1.5647469769943902
20
1.7759018474208554
30
0
10
1.6275433272310189
20
1.7182916829902937
30
0
10
1.6925666069300358
20
1.6817923024340597
30
0
10
1.7600450655130648
20
1.6714849618960863
30
0
10
1.8294942272534516
20
1.6859714228503502
30
0
10
1.9000673452945342
20
1.7196572171352442
30
0
10
1.9708198031652515
20
1.7642728699257459
30
0
10
2.0409782139478811
20
1.8106345559513981
30
0
10
2.1102816492158292
20
1.8504689374751511
30
0
10
2.1789634534801769
20
1.8774567736074208
30
0
10
2.2474778918690248
20
1.8876205468791287
30
0
10
2.316292586526989
20
1.879970545496177
30
0
10
2.385675824566003
20
1.8569100566496584
30
0
10
2.4554296632911399
20
1.8250906217246405
30
0
10
2.525019417903922
20
1.7937892241893429
30
0
10
2.5938264256144574
20
1.7725587781168954
30
0
10
2.6613641646987634
20
1.7690797906296782
30
0
10
2.727498916922138
20
1.787020245318405
30
0
10
2.7926974678679417
20
1.8236428585143882
30
0
10
2.8577859579872689
20
1.8716501927101206
30
0
10
2.9236698122921974
20
1.9213784591756373
30
0
10
2.9910600045074283
20
1.9629013342415227
30
0
10
3.0602144535382596
20
1.9880871513482758
30
0
10
3.1306253644524511
20
1.992900397322614
30
0
10
3.2012954157106881
20
1.976950265729688
30
0
10
3.2710953240872187
20
1.9426722169102617
30
0
10
3.3390862349785921
20
1.8946404048934116
30
0
10
3.4048713187176212
20
1.8388264781816543
30
0
10
3.4688939723497314
20
1.7818793692701278
30
0
10
3.532103569528509
20
1.7303328177936697
30
0
10
3.5956634201698789
20
1.6898293877759685
30
0
10
3.6606379104206006
20
1.6643214723232669
30
0
10
3.7276999094920953
20
1.6553192833257886
30
0
10
3.7967985303443053
20
1.6610164660165232
30
0
10
3.867378694162384
20
1.6772171055791585
30
0
10
3.9386503226082858
20
1.6984215711266482
30
0
10
4.0098314471814849
20
1.7188373059926068
30
0
10
4.0804211413434759
20
1.7334613547428903
30
0
10
4.1504049048699896
20
1.7390133956897911
30
0
10
4.2200374035787407
20
1.7338823289170708
30
0
10
4.2896601805097827
20
1.7181974656378041
30
0
10
4.3595245304715808
20
1.693807705193269
30
0
10
4.4295679915834052
20
1.6644068240366665
30
0
10
4.4993622592117131
20
1.6352312521581067
30
0
10
4.5683510386307482
20
1.6120646890580501
30
0
10
4.6360330940591057
20
1.6003733851651343
30
0
10
4.7021429609777403
20
1.6044454326942139
30
0
10
4.7668924503864911
20
1.6263892135768812
30
0
10
4.8309404918905399
20
1.6657725160452694
30
0
10
4.89512729681178
20
1.7198665243122848
30
0
10
4.9602656217143588
20
1.783667802597007
30
0
10
5.0269294743009514
20
1.8501211851006349
30
0
10
5.0951933622227719
20
1.9099891006565226
30
0
10
5.1645720587213448
20
1.9528080745064567
30
0
10
5.2342635518188887
20
1.9693076042192426
30
0
10
5.3033244463024198
20
1.9536432086205937
30
0
10
5.3708606770341678
20
1.9053542139462514
30
0
10
5.4362410431850332
20
1.8323042528130062
30
0
10
5.4991760480788994
20
1.7495436682619503
30
0
10
5.5596809856096616
20
1.674908122519865
30
0
10
5.6180741128147025
20
1.6254931948754379
30
0
10
5.6749571875892162
20
1.6139035873412586
30
0
10
5.73121144750057
20
1.6442792376061413
30
0
10
5.7879636989495982
20
1.7093582400129486
30
0
10
5.846363390995081
20
1.794839814341618
30
0
10
5.9073882826186956
20
1.8828542937485313
30
0
10
5.9716223345293296
20
1.9559426177924546
30
0
10
6.0390836928309168
20
2.0004377160539208
30
0
10
6.1089352361513249
20
2.0110552602674687
30
0
10
6.1796702643480224
20
1.9907241521547641
30
0
10
6.2496149494665678
20
1.9471817827609852
30
0
10
6.3173590833150488
20
1.8904349468315362
30
0
10
6.3821680236559004
20
1.8300636245973947
30
0
10
6.4445265163462331
20
1.7720840516278589
30
0
10
6.5058360515741196
20
1.7192620969459269
30
0
10
6.5678498213664191
20
1.6725545493046496
30
0
10
6.6321670306235827
20
1.6322426287618677
30
0
10
6.6997655173649431
20
1.5990363377843191
30
0
10
6.7703628156717865
20
1.5755782094087669
30
0
10
6.842456843241723
20
1.5662653943232301
30
0
10
6.9140518394974162
20
1.5753757775243369
30
0
10
6.9832244728178328
20
1.6055648389397412
30
0
10
7.0486993119468231
20
1.6564044169986849
30
0
10
7.1105627852639213
20
1.7224095448616668
30
0
10
7.1700346177712539
20
1.7943349673883704
30
0
10
7.2289138304401952
20
1.8615720883047138
30
0
10
7.2891172725880962
20
1.9142661989680123
30
0
10
7.3522143806262683
20
1.9453604659862407
30
0
10
7.4188798295316341
20
1.95312875408992
30
0
10
7.488653644229939
20
1.9420162285325295
30
0
10
7.560431932698358
20
1.9195562563283946
30
0
10
7.632827549365814
20
1.8939307840653432
30
0
10
7.7045489824555862
20
1.8715675368971221
30
0
10
7.7748531788758601
20
1.8540068499866313
30
0
10
7.8436331646552802
20
1.837985318401218
30
0
10
7.9111684681494898
20
1.81838285972168
30
0
10
7.9779647470226491
20
1.7905024215592211
30
0
10
8.0445693765922162
20
1.7523251712958894
30
0
10
8.1113659676127057
20
1.7075261094931835
30
0
10
8.1785429444184139
20
1.6642562059254364
30
0
10
8.2461517979469257
20
1.6319285564559949
30
0
10
8.3141368216401137
20
1.6184971187014234
30
0
10
8.3823762274000728
20
1.6278457685948142
30
0
10
8.4507195218560067
20
1.6563262291870844
30
0
10
8.5190190975930609
20
1.6944175600680003
30
0
10
8.5871569983579406
20
1.7302825921437068
30
0
10
8.6550749031401537
20
1.752797735273145
30
0
10
8.7227993238773109
20
1.7545867203724452
30
0
10
8.7904779037907677
20
1.7356175723618623
30
0
10
8.8583308937693381
20
1.70153997515199
30
0
10
8.9265867287573677
20
1.6609883078595191
30
0
10
8.9954222971193083
20
1.6232201120042731
30
0
10
9.0649030995921986
20
1.5956731256075996
30
0
10
9.1349183498308069
20
1.5813966603300607
30
0
10
9.205231857045348
20
1.5800963870102993
30
0
10
9.2755412165513658
20
1.58943624863248
30
0
10
9.3455322226044331
20
1.6062098523517956
30
0
10
9.4149392963124043
20
1.6276494858416732
30
0
10
9.4835913931637279
20
1.6524289639119072
30
0
10
9.5513867722392458
20
1.6801974820976562
30
0
10
9.6182765021444627
20
1.7112930921053435
30
0
10
9.6842452408051152
20
1.7463999398225143
30
0
10
9.7492916761200661
20
1.7861987379975572
30
0
10
9.8134139039278558
20
1.8311177710032185
30
0
10
9.8766113671481222
20
1.8814216600276241
30
0
10
9.9264292921902832
20
1.926075082081111
30
0
10
9.9633765048728211
20
1.9620653634921301
30
0
10
9.9878229984238178
20
1.9871699422334868
30
0
10
10
20
2
30
0
0
ENDSEC
0
SECTION
2
OBJECTS
0
DICTIONARY
5
C
100
AcDbDictionary
3
ACAD_GROUP
350
D
3
ACAD_MLINESTYLE
350
17
0
DICTIONARY
5
D
100
AcDbDictionary
0
DICTIONARY
5
1A
330
C
100
AcDbDictionary
0
DICTIONARY
5
17
100
AcDbDictionary
0
ENDSEC
0
EOF
