0
SECTION
2
HEADER
9
$INSUNITS
70
4
9
$ACADVER
1
AC1014
9
$HANDSEED
5
FFFF
0
ENDSEC
0
SECTION
2
TABLES
0
TABLE
2
VPORT
5
8
100
AcDbSymbolTable
0
ENDTAB
0
TABLE
2
LTYPE
5
5
100
AcDbSymbolTable
0
LTYPE
5
14
100
AcDbSymbolTableRecord
100
AcDbLinetypeTableRecord
2
BYBLOCK
70
0
0
LTYPE
5
15
100
AcDbSymbolTableRecord
100
AcDbLinetypeTableRecord
2
BYLAYER
70
0
0
ENDTAB
0
TABLE
2
LAYER
5
2
100
AcDbSymbolTable
70
2
0
LAYER
5
50
100
AcDbSymbolTableRecord
100
AcDbLayerTableRecord
2
0
70
0
6
CONTINUOUS
0
ENDTAB
0
TABLE
2
STYLE
5
3
100
AcDbSymbolTable
70
1
0
STYLE
5
11
100
AcDbSymbolTableRecord
100
AcDbTextStyleTableRecord
2
STANDARD
70
0
0
ENDTAB
0
TABLE
2
VIEW
5
6
100
AcDbSymbolTable
70
0
0
ENDTAB
0
TABLE
2
UCS
5
7
100
AcDbSymbolTable
70
0
0
ENDTAB
0
TABLE
2
APPID
5
9
100
AcDbSymbolTable
70
2
0
APPID
5
12
100
AcDbSymbolTableRecord
100
AcDbRegAppTableRecord
2
ACAD
70
0
0
ENDTAB
0
TABLE
2
DIMSTYLE
5
A
100
AcDbSymbolTable
70
1
0
ENDTAB
0
TABLE
2
BLOCK_RECORD
5
1
100
AcDbSymbolTable
70
1
0
BLOCK_RECORD
5
1F
100
AcDbSymbolTableRecord
100
AcDbBlockTableRecord
2
*MODEL_SPACE
0
BLOCK_RECORD
5
1B
100
AcDbSymbolTableRecord
100
AcDbBlockTableRecord
2
*PAPER_SPACE
0
ENDTAB
0
ENDSEC
0
SECTION
2
BLOCKS
0
BLOCK
5
20
100
AcDbEntity
100
AcDbBlockBegin
2
*MODEL_SPACE
0
ENDBLK
5
21
100
AcDbEntity
100
AcDbBlockEnd
0
BLOCK
5
1C
100
AcDbEntity
100
AcDbBlockBegin
2
*PAPER_SPACE
0
ENDBLK
5
1D
100
AcDbEntity
100
AcDbBlockEnd
0
ENDSEC
0
SECTION
2
ENTITIES
0
SPLINE
5
100
100
AcDbEntity
8
0
100
AcDbSpline
70
4
71
5
72
16
73
10
74
0
42
0.000000001
43
0.0000000001
44
0.0000000001
40
0
40
0
40
0
40
0
40
0
40
0
40
0.20000000000000001
40
0.40000000000000002
40
0.60000000000000009
40
0.80000000000000004
40
1
40
1
40
1
40
1
40
1
40
1
41
1
41
1
41
1
41
1
41
1
41
1
41
1
41
1
41
1
41
1
10
0
20
0
30
0
10
0
20
0.080000000000033267
30
0
10
0
20
0.24000000000008476
30
0
10
0
20
0.48000000000011728
30
0
10
0
20
0.80000000000008786
30
0
10
0
20
1.2000000000000053
30
0
10
0
20
1.5199999999999583
30
0
10
0
20
1.7599999999999643
30
0
10
0
20
1.9199999999999853
30
0
10
0
20
2
30
0
0
SPLINE
5
101
100
AcDbEntity
8
0
100
AcDbSpline
70
4
71
5
72
16
73
10
74
0
42
0.000000001
43
0.0000000001
44
0.0000000001
40
0
40
0
40
0
40
0
40
0
40
0
40
0.20000000000000001
40
0.40000000000000002
40
0.60000000000000009
40
0.80000000000000004
40
1
40
1
40
1
40
1
40
1
40
1
41
1
41
1
41
1
41
1
41
1
41
1
41
1
41
1
41
1
41
1
10
10
20
0
30
0
10
9.9999999999997495
20
0.080000000000033267
30
0
10
9.9999999999993197
20
0.24000000000008476
30
0
10
9.9999999999989129
20
0.48000000000011728
30
0
10
9.9999999999987672
20
0.80000000000008786
30
0
10
9.9999999999990248
20
1.2000000000000053
30
0
10
9.9999999999993889
20
1.5199999999999583
30
0
10
9.9999999999996998
20
1.7599999999999643
30
0
10
9.9999999999999005
20
1.9199999999999853
30
0
10
10
20
2
30
0
0
SPLINE
5
102
100
AcDbEntity
8
0
100
AcDbSpline
70
4
71
5
72
16
73
10
74
0
42
0.000000001
43
0.0000000001
44
0.0000000001
40
0
40
0
40
0
40
0
40
0
40
0
40
0.20000000000000001
40
0.40000000000000002
40
0.60000000000000009
40
0.80000000000000004
40
1
40
1
40
1
40
1
40
1
40
1
41
1
41
1
41
1
41
1
41
1
41
1
41
1
41
1
41
1
41
1
10
0
20
1
30
0
10
0.40000000000047375
20
0.99999999999987343
30
0
10
1.2000000000012774
20
0.99999999999965183
30
0
10
2.4000000000020547
20
0.99999999999941747
30
0
10
4.0000000000023546
20
0.99999999999928091
30
0
10
6.0000000000019584
20
0.99999999999933376
30
0
10
7.6000000000012928
20
0.99999999999951594
30
0
10
8.800000000000697
20
0.99999999999972888
30
0
10
9.6000000000002395
20
0.99999999999990408
30
0
10
10
20
1
30
0
0
SPLINE
5
103
100
AcDbEntity
8
0
100
AcDbSpline
70
4
71
5
72
61
73
55
74
0
42
0.000000001
43
0.0000000001
44
0.0000000001
40
0
40
0
40
0
40
0
40
0
40
0
40
0.02
40
0.040000000000000001
40
0.059999999999999998
40
0.080000000000000002
40
0.10000000000000001
40
0.12000000000000001
40
0.14000000000000001
40
0.16
40
0.17999999999999999
40
0.19999999999999998
40
0.21999999999999997
40
0.23999999999999996
40
0.25999999999999995
40
0.27999999999999997
40
0.29999999999999999
40
0.32000000000000001
40
0.34000000000000002
40
0.36000000000000004
40
0.38000000000000006
40
0.40000000000000008
40
0.4200000000000001
40
0.44000000000000011
40
0.46000000000000013
40
0.48000000000000015
40
0.50000000000000011
40
0.52000000000000013
40
0.54000000000000015
40
0.56000000000000016
40
0.58000000000000018
40
0.6000000000000002
40
0.62000000000000022
40
0.64000000000000024
40
0.66000000000000025
40
0.68000000000000027
40
0.70000000000000029
40
0.72000000000000031
40
0.74000000000000032
40
0.76000000000000034
40
0.78000000000000036
40
0.80000000000000038
40
0.8200000000000004
40
0.84000000000000041
40
0.86000000000000043
40
0.88000000000000045
40
0.90000000000000047
40
0.92000000000000048
40
0.9400000000000005
40
0.96000000000000052
40
0.98000000000000054
40
1
40
1
40
1
40
1
40
1
40
1
41
1
41
1
41
1
41
1
41
1
41
1
41
1
41
1
41
1
41
1
41
1
41
1
41
1
41
1
41
1
41
1
41
1
41
1
41
1
41
1
41
1
41
1
41
1
41
1
41
1
41
1
41
1
41
1
41
1
41
1
41
1
41
1
41
1
41
1
41
1
41
1
41
1
41
1
41
1
41
1
41
1
41
1
41
1
41
1
41
1
41
1
41
1
41
1
41
1
41
1
41
1
41
1
41
1
41
1
41
1
10
0
20
0
30
0
10
0.039919397847191257
20
-0.00029887575617919249
30
0
10
0.11975714642310065
20
0.00084019126579261145
30
0
10
0.23951062790539845
20
0.0077592355619147966
30
0
10
0.39917564992362153
20
0.027412409736093039
30
0
10
0.59874583740682041
20
0.068749036308216591
30
0
10
0.79830314207380981
20
0.12495980292382114
30
0
10
0.99784399853772943
20
0.19219403106939598
30
0
10
1.1973625010451296
20
0.26398634807170729
30
0
10
1.3968497590423758
20
0.33055915851377599
30
0
10
1.5963000292216987
20
0.38125454289866273
30
0
10
1.7957168833365431
20
0.40698528520267474
30
0
10
1.9951194579232028
20
0.40270142967376965
30
0
10
2.194548538882616
20
0.36981451684810696
30
0
10
2.3940732352459784
20
0.3187811304907332
30
0
10
2.5937725406206384
20
0.26492089659217555
30
0
10
2.7937164135037196
20
0.22410756382081304
30
0
10
2.9939468791519745
20
0.20847793177472343
30
0
10
3.1944593773802268
20
0.22220338594060404
30
0
10
3.3951829986961188
20
0.25700431704807908
30
0
10
3.5960010509494102
20
0.29725454969747567
30
0
10
3.7967726560727471
20
0.32533180284820196
30
0
10
3.9973539079657328
20
0.32688624683529433
30
0
10
4.1976191371453613
20
0.29610741400889495
30
0
10
4.3974823155922831
20
0.24112475480691006
30
0
10
4.5969026232171846
20
0.17856302100310467
30
0
10
4.7958898097705687
20
0.12799388826161839
30
0
10
4.9945099483017454
20
0.10640380450614981
30
0
10
5.1928907912236602
20
0.12273140403918936
30
0
10
5.3912285480212034
20
0.17214040400481856
30
0
10
5.589744939590596
20
0.24063997825038369
30
0
10
5.7886433822391563
20
0.30993149947750909
30
0
10
5.9880647457783613
20
0.36220881592279991
30
0
10
6.188044808582255
20
0.38485522941404054
30
0
10
6.3884662179429688
20
0.37552091646945068
30
0
10
6.5891171116975293
20
0.33944297578058047
30
0
10
6.7897553316377905
20
0.28634382864743874
30
0
10
6.9901711543633454
20
0.22747492251756363
30
0
10
7.190249117647598
20
0.17265901521583854
30
0
10
7.3900347011687195
20
0.12718865634177709
30
0
10
7.5896819799176605
20
0.092751180184100362
30
0
10
7.7893960368790927
20
0.068540157500938309
30
0
10
7.9893769333448805
20
0.052297828372474438
30
0
10
8.1897642898373473
20
0.041365403805511756
30
0
10
8.3905781213408357
20
0.033771542045625387
30
0
10
8.5917490202223625
20
0.028153365828612879
30
0
10
8.7931526916795004
20
0.023617002506103772
30
0
10
8.9946428510385967
20
0.019621283679095727
30
0
10
9.1960844138353099
20
0.015853396259169549
30
0
10
9.3973873922063262
20
0.012106759649113098
30
0
10
9.5984983734225118
20
0.0082574396648057366
30
0
10
9.7592124406974641
20
0.0050466665544529922
30
0
10
9.8796458982490467
20
0.0025555869749894714
30
0
10
9.9598895237407685
20
0.00085800600076129307
30
0
10
10
20
0
30
0
0
SPLINE
5
104
100
AcDbEntity
8
0
100
AcDbSpline
70
4
71
5
72
61
73
55
74
0
42
0.000000001
43
0.0000000001
44
0.0000000001
40
0
40
0
40
0
40
0
40
0
40
0
40
0.02
40
0.040000000000000001
40
0.059999999999999998
40
0.080000000000000002
40
0.10000000000000001
40
0.12000000000000001
40
0.14000000000000001
40
0.16
40
0.17999999999999999
40
0.19999999999999998
40
0.21999999999999997
40
0.23999999999999996
40
0.25999999999999995
40
0.27999999999999997
40
0.29999999999999999
40
0.32000000000000001
40
0.34000000000000002
40
0.36000000000000004
40
0.38000000000000006
40
0.40000000000000008
40
0.4200000000000001
40
0.44000000000000011
40
0.46000000000000013
40
0.48000000000000015
40
0.50000000000000011
40
0.52000000000000013
40
0.54000000000000015
40
0.56000000000000016
40
0.58000000000000018
40
0.6000000000000002
40
0.62000000000000022
40
0.64000000000000024
40
0.66000000000000025
40
0.68000000000000027
40
0.70000000000000029
40
0.72000000000000031
40
0.74000000000000032
40
0.76000000000000034
40
0.78000000000000036
40
0.80000000000000038
40
0.8200000000000004
40
0.84000000000000041
40
0.86000000000000043
40
0.88000000000000045
40
0.90000000000000047
40
0.92000000000000048
40
0.9400000000000005
40
0.96000000000000052
40
0.98000000000000054
40
1
40
1
40
1
40
1
40
1
40
1
41
1
41
1
41
1
41
1
41
1
41
1
41
1
41
1
41
1
41
1
41
1
41
1
41
1
41
1
41
1
41
1
41
1
41
1
41
1
41
1
41
1
41
1
41
1
41
1
41
1
41
1
41
1
41
1
41
1
41
1
41
1
41
1
41
1
41
1
41
1
41
1
41
1
41
1
41
1
41
1
41
1
41
1
41
1
41
1
41
1
41
1
41
1
41
1
41
1
41
1
41
1
41
1
41
1
41
1
41
1
10
0
20
2
30
0
10
0.038613766857090913
20
1.9697931586605055
30
0
10
0.11596391756552399
20
1.9125325198049328
30
0
10
0.23235699423354966
20
1.8361006339710184
30
0
10
0.38828394684156747
20
1.753122434529766
30
0
10
0.58441426567848986
20
1.6805428824016264
30
0
10
0.78174540603053533
20
1.6377659345259699
30
0
10
0.98023196585695271
20
1.6219973960454082
30
0
10
1.179795118691763
20
1.6285259005801203
30
0
10
1.3803127126411701
20
1.6500959826778705
30
0
10
1.5816221048935679
20
1.6782682520723986
30
0
10
1.7835243743528011
20
1.7049617287980188
30
0
10
1.9857875535876928
20
1.7239573850991665
30
0
10
2.1881509966532056
20
1.732360751385569
30
0
10
2.3903269195123231
20
1.732255216038411
30
0
10
2.5920471033780847
20
1.7290002923802985
30
0
10
2.7931123967965368
20
1.7293077830862109
30
0
10
2.9934420194330835
20
1.7393918515835911
30
0
10
3.1931217549475517
20
1.7631147896277735
30
0
10
3.3924571427967765
20
1.8000562162058245
30
0
10
3.5918634354576753
20
1.8465582199882884
30
0
10
3.7917511656717191
20
1.8968595610728312
30
0
10
3.9924122616157467
20
1.9441931880211314
30
0
10
4.1939082894375819
20
1.9818888771030221
30
0
10
4.3959501080189503
20
2.0044909209736601
30
0
10
4.5980441760142048
20
2.0082077148801321
30
0
10
4.7996477590086943
20
1.9913403424169471
30
0
10
5.0003206317344473
20
1.9547247971529391
30
0
10
5.1998784194931824
20
1.9021754288028374
30
0
10
5.3985458639388062
20
1.8409368814529181
30
0
10
5.5968028411133908
20
1.7799448494589147
30
0
10
5.7952312946053341
20
1.728096673942032
30
0
10
5.994361366878679
20
1.6925086139019667
30
0
10
6.1945198506646211
20
1.6768000836884667
30
0
10
6.3956717161117416
20
1.6792890776403537
30
0
10
6.5975387573857098
20
1.694653892557062
30
0
10
6.7997248362387914
20
1.7156758612423015
30
0
10
7.0018380402703606
20
1.7349431482157862
30
0
10
7.2036145866226171
20
1.7465745497526439
30
0
10
7.4050407399154983
20
1.7479217612940539
30
0
10
7.6062612090211861
20
1.73893245752898
30
0
10
7.8074890094027065
20
1.721534755937522
30
0
10
8.0089158834729979
20
1.6990219076033313
30
0
10
8.2106205544238531
20
1.6754366257588198
30
0
10
8.4124831288302353
20
1.6549719666567335
30
0
10
8.6142499566296458
20
1.6417639207612917
30
0
10
8.8155928756706707
20
1.6396666282816164
30
0
10
9.016169509699445
20
1.6520375474585678
30
0
10
9.2156849274830517
20
1.681507237017692
30
0
10
9.4139474258997407
20
1.7297811593304564
30
0
10
9.6108437120461012
20
1.7978522185841723
30
0
10
9.7672244261519729
20
1.868518226290613
30
0
10
9.8838634613689607
20
1.9306932166737152
30
0
10
9.9613356774622392
20
1.9762185195558915
30
0
10
10
20
2
30
0
0
ENDSEC
0
SECTION
2
OBJECTS
0
DICTIONARY
5
C
100
AcDbDictionary
3
ACAD_GROUP
350
D
3
ACAD_MLINESTYLE
350
17
0
DICTIONARY
5
D
100
AcDbDictionary
0
DICTIONARY
5
1A
330
C
100
AcDbDictionary
0
DICTIONARY
5
17
100
AcDbDictionary
0
ENDSEC
0
EOF
