0
SECTION
2
HEADER
9
$INSUNITS
70
4
9
$ACADVER
1
AC1014
9
$HANDSEED
5
FFFF
0
ENDSEC
0
SECTION
2
TABLES
0
TABLE
2
VPORT
5
8
100
AcDbSymbolTable
0
ENDTAB
0
TABLE
2
LTYPE
5
5
100
AcDbSymbolTable
0
LTYPE
5
14
100
AcDbSymbolTableRecord
100
AcDbLinetypeTableRecord
2
BYBLOCK
70
0
0
LTYPE
5
15
100
AcDbSymbolTableRecord
100
AcDbLinetypeTableRecord
2
BYLAYER
70
0
0
ENDTAB
0
TABLE
2
LAYER
5
2
100
AcDbSymbolTable
70
2
0
LAYER
5
50
100
AcDbSymbolTableRecord
100
AcDbLayerTableRecord
2
0
70
0
6
CONTINUOUS
0
ENDTAB
0
TABLE
2
STYLE
5
3
100
AcDbSymbolTable
70
1
0
STYLE
5
11
100
AcDbSymbolTableRecord
100
AcDbTextStyleTableRecord
2
STANDARD
70
0
0
ENDTAB
0
TABLE
2
VIEW
5
6
100
AcDbSymbolTable
70
0
0
ENDTAB
0
TABLE
2
UCS
5
7
100
AcDbSymbolTable
70
0
0
ENDTAB
0
TABLE
2
APPID
5
9
100
AcDbSymbolTable
70
2
0
APPID
5
12
100
AcDbSymbolTableRecord
100
AcDbRegAppTableRecord
2
ACAD
70
0
0
ENDTAB
0
TABLE
2
DIMSTYLE
5
A
100
AcDbSymbolTable
70
1
0
ENDTAB
0
TABLE
2
BLOCK_RECORD
5
1
100
AcDbSymbolTable
70
1
0
BLOCK_RECORD
5
1F
100
AcDbSymbolTableRecord
100
AcDbBlockTableRecord
2
*MODEL_SPACE
0
BLOCK_RECORD
5
1B
100
AcDbSymbolTableRecord
100
AcDbBlockTableRecord
2
*PAPER_SPACE
0
ENDTAB
0
ENDSEC
0
SECTION
2
BLOCKS
0
BLOCK
5
20
100
AcDbEntity
100
AcDbBlockBegin
2
*MODEL_SPACE
0
ENDBLK
5
21
100
AcDbEntity
100
AcDbBlockEnd
0
BLOCK
5
1C
100
AcDbEntity
100
AcDbBlockBegin
2
*PAPER_SPACE
0
ENDBLK
5
1D
100
AcDbEntity
100
AcDbBlockEnd
0
ENDSEC
0
SECTION
2
ENTITIES
0
SPLINE
5
100
100
AcDbEntity
8
0
100
AcDbSpline
70
4
71
5
72
16
73
10
74
0
42
0.000000001
43
0.0000000001
44
0.0000000001
40
0
40
0
40
0
40
0
40
0
40
0
40
0.20000000000000001
40
0.40000000000000002
40
0.60000000000000009
40
0.80000000000000004
40
1
40
1
40
1
40
1
40
1
40
1
41
1
41
1
41
1
41
1
41
1
41
1
41
1
41
1
41
1
41
1
10
0
20
0
30
0
10
0
20
0.080000000000033267
30
0
10
0
20
0.24000000000008476
30
0
10
0
20
0.48000000000011728
30
0
10
0
20
0.80000000000008786
30
0
10
0
20
1.2000000000000053
30
0
10
0
20
1.5199999999999583
30
0
10
0
20
1.7599999999999643
30
0
10
0
20
1.9199999999999853
30
0
10
0
20
2
30
0
0
SPLINE
5
101
100
AcDbEntity
8
0
100
AcDbSpline
70
4
71
5
72
16
73
10
74
0
42
0.000000001
43
0.0000000001
44
0.0000000001
40
0
40
0
40
0
40
0
40
0
40
0
40
0.20000000000000001
40
0.40000000000000002
40
0.60000000000000009
40
0.80000000000000004
40
1
40
1
40
1
40
1
40
1
40
1
41
1
41
1
41
1
41
1
41
1
41
1
41
1
41
1
41
1
41
1
10
10
20
0
30
0
10
9.9999999999997495
20
0.080000000000033267
30
0
10
9.9999999999993197
20
0.24000000000008476
30
0
10
9.9999999999989129
20
0.48000000000011728
30
0
10
9.9999999999987672
20
0.80000000000008786
30
0
10
9.9999999999990248
20
1.2000000000000053
30
0
10
9.9999999999993889
20
1.5199999999999583
30
0
10
9.9999999999996998
20
1.7599999999999643
30
0
10
9.9999999999999005
20
1.9199999999999853
30
0
10
10
20
2
30
0
0
SPLINE
5
102
100
AcDbEntity
8
0
100
AcDbSpline
70
4
71
5
72
16
73
10
74
0
42
0.000000001
43
0.0000000001
44
0.0000000001
40
0
40
0
40
0
40
0
40
0
40
0
40
0.20000000000000001
40
0.40000000000000002
40
0.60000000000000009
40
0.80000000000000004
40
1
40
1
40
1
40
1
40
1
40
1
41
1
41
1
41
1
41
1
41
1
41
1
41
1
41
1
41
1
41
1
10
0
20
1
30
0
10
0.40000000000047375
20
0.99999999999987343
30
0
10
1.2000000000012774
20
0.99999999999965183
30
0
10
2.4000000000020547
20
0.99999999999941747
30
0
10
4.0000000000023546
20
0.99999999999928091
30
0
10
6.0000000000019584
20
0.99999999999933376
30
0
10
7.6000000000012928
20
0.99999999999951594
30
0
10
8.800000000000697
20
0.99999999999972888
30
0
10
9.6000000000002395
20
0.99999999999990408
30
0
10
10
20
1
30
0
0
SPLINE
5
103
100
AcDbEntity
8
0
100
AcDbSpline
70
4
71
5
72
61
73
55
74
0
42
0.000000001
43
0.0000000001
44
0.0000000001
40
0
40
0
40
0
40
0
40
0
40
0
40
0.02
40
0.040000000000000001
40
0.059999999999999998
40
0.080000000000000002
40
0.10000000000000001
40
0.12000000000000001
40
0.14000000000000001
40
0.16
40
0.17999999999999999
40
0.19999999999999998
40
0.21999999999999997
40
0.23999999999999996
40
0.25999999999999995
40
0.27999999999999997
40
0.29999999999999999
40
0.32000000000000001
40
0.34000000000000002
40
0.36000000000000004
40
0.38000000000000006
40
0.40000000000000008
40
0.4200000000000001
40
0.44000000000000011
40
0.46000000000000013
40
0.48000000000000015
40
0.50000000000000011
40
0.52000000000000013
40
0.54000000000000015
40
0.56000000000000016
40
0.58000000000000018
40
0.6000000000000002
40
0.62000000000000022
40
0.64000000000000024
40
0.66000000000000025
40
0.68000000000000027
40
0.70000000000000029
40
0.72000000000000031
40
0.74000000000000032
40
0.76000000000000034
40
0.78000000000000036
40
0.80000000000000038
40
0.8200000000000004
40
0.84000000000000041
40
0.86000000000000043
40
0.88000000000000045
40
0.90000000000000047
40
0.92000000000000048
40
0.9400000000000005
40
0.96000000000000052
40
0.98000000000000054
40
1
40
1
40
1
40
1
40
1
40
1
41
1
41
1
41
1
41
1
41
1
41
1
41
1
41
1
41
1
41
1
41
1
41
1
41
1
41
1
41
1
41
1
41
1
41
1
41
1
41
1
41
1
41
1
41
1
41
1
41
1
41
1
41
1
41
1
41
1
41
1
41
1
41
1
41
1
41
1
41
1
41
1
41
1
41
1
41
1
41
1
41
1
41
1
41
1
41
1
41
1
41
1
41
1
41
1
41
1
41
1
41
1
41
1
41
1
41
1
41
1
10
0
20
0
30
0
10
0.03869090368361297
20
0.034194427579800422
30
0
10
0.1161774097086432
20
0.098776847854738212
30
0
10
0.23272126405836263
20
0.18423123237110306
30
0
10
0.38874167541879118
20
0.27531653164994768
30
0
10
0.58481019346081076
20
0.35153346760396226
30
0
10
0.78190367878772449
20
0.39160215020566835
30
0
10
0.97998272625892491
20
0.39863808028504338
30
0
10
1.1789791720649792
20
0.37790652335931474
30
0
10
1.3787868732029125
20
0.33751113197975519
30
0
10
1.579274115999554
20
0.28713618376760974
30
0
10
1.7802980557269383
20
0.23660622336315101
30
0
10
1.9817185864780631
20
0.1944887486656558
30
0
10
2.1834119383623878
20
0.16673127600886267
30
0
10
2.3852857327493164
20
0.15513051660234911
30
0
10
2.587272712546866
20
0.15818193273974879
30
0
10
2.7893225879590409
20
0.17214183507337863
30
0
10
2.9913945081580575
20
0.19200874953345828
30
0
10
3.1934495273448311
20
0.21252770192430051
30
0
10
3.3954424615697465
20
0.22920062370694261
30
0
10
3.5973341145708786
20
0.23872851517202598
30
0
10
3.7991043895959127
20
0.23943085232029734
30
0
10
4.0007650759908584
20
0.23167615343376985
30
0
10
4.2023729547367719
20
0.21831684236824009
30
0
10
4.4040426240945614
20
0.20511999214147394
30
0
10
4.6058970277392444
20
0.19886717219570088
30
0
10
4.808017642521957
20
0.20544806440767452
30
0
10
5.0103958017993291
20
0.22798736068605513
30
0
10
5.2128808103174249
20
0.26487692596285467
30
0
10
5.415136107031449
20
0.30804490864858886
30
0
10
5.6167575482463157
20
0.34608415692004668
30
0
10
5.8173859678064064
20
0.36719134987886842
30
0
10
6.0168189721832803
20
0.36211459774579241
30
0
10
6.2151303201297949
20
0.32724074016461335
30
0
10
6.4127670696852572
20
0.26724137296406558
30
0
10
6.6103696009328772
20
0.1921320767070768
30
0
10
6.8086101199886784
20
0.11471661386765176
30
0
10
7.0080260701285297
20
0.047912334744536392
30
0
10
7.2088514810845421
20
0.002087963366101129
30
0
10
7.4108596007520475
20
-0.017494365240863806
30
0
10
7.6135309282270676
20
-0.0098087185452700558
30
0
10
7.8162101283394572
20
0.022668576180961925
30
0
10
8.018263844501309
20
0.074733256463476574
30
0
10
8.2192445180671534
20
0.13920236839034203
30
0
10
8.4190335033454105
20
0.2076644737628516
30
0
10
8.6177423564213722
20
0.27117130693566444
30
0
10
8.8156318565859682
20
0.32093844258629356
30
0
10
9.0130256322214954
20
0.34903294181804478
30
0
10
9.2102243500633865
20
0.34909070885714677
30
0
10
9.4074253678486457
20
0.31696277585691651
30
0
10
9.6047474347051907
20
0.250212339588893
30
0
10
9.7627488960505122
20
0.16818572682185295
30
0
10
9.8813396205704436
20
0.090410271874893061
30
0
10
9.9604399061806745
20
0.031340075431625522
30
0
10
10
20
0
30
0
0
SPLINE
5
104
100
AcDbEntity
8
0
100
AcDbSpline
70
4
71
5
72
61
73
55
74
0
42
0.000000001
43
0.0000000001
44
0.0000000001
40
0
40
0
40
0
40
0
40
0
40
0
40
0.02
40
0.040000000000000001
40
0.059999999999999998
40
0.080000000000000002
40
0.10000000000000001
40
0.12000000000000001
40
0.14000000000000001
40
0.16
40
0.17999999999999999
40
0.19999999999999998
40
0.21999999999999997
40
0.23999999999999996
40
0.25999999999999995
40
0.27999999999999997
40
0.29999999999999999
40
0.32000000000000001
40
0.34000000000000002
40
0.36000000000000004
40
0.38000000000000006
40
0.40000000000000008
40
0.4200000000000001
40
0.44000000000000011
40
0.46000000000000013
40
0.48000000000000015
40
0.50000000000000011
40
0.52000000000000013
40
0.54000000000000015
40
0.56000000000000016
40
0.58000000000000018
40
0.6000000000000002
40
0.62000000000000022
40
0.64000000000000024
40
0.66000000000000025
40
0.68000000000000027
40
0.70000000000000029
40
0.72000000000000031
40
0.74000000000000032
40
0.76000000000000034
40
0.78000000000000036
40
0.80000000000000038
40
0.8200000000000004
40
0.84000000000000041
40
0.86000000000000043
40
0.88000000000000045
40
0.90000000000000047
40
0.92000000000000048
40
0.9400000000000005
40
0.96000000000000052
40
0.98000000000000054
40
1
40
1
40
1
40
1
40
1
40
1
41
1
41
1
41
1
41
1
41
1
41
1
41
1
41
1
41
1
41
1
41
1
41
1
41
1
41
1
41
1
41
1
41
1
41
1
41
1
41
1
41
1
41
1
41
1
41
1
41
1
41
1
41
1
41
1
41
1
41
1
41
1
41
1
41
1
41
1
41
1
41
1
41
1
41
1
41
1
41
1
41
1
41
1
41
1
41
1
41
1
41
1
41
1
41
1
41
1
41
1
41
1
41
1
41
1
41
1
41
1
10
0
20
2
30
0
10
0.039864744177875208
20
2.0055234585450621
30
0
10
0.11962627946803743
20
2.0140050079299305
30
0
10
0.23936472319924229
20
2.0190312293143577
30
0
10
0.39920838852600726
20
2.0103306177672757
30
0
10
0.59931491318573382
20
1.9746025883054905
30
0
10
0.7996658789850396
20
1.9165791246895587
30
0
10
1.0001452162284128
20
1.8414551795778811
30
0
10
1.200558370561803
20
1.7579687540571243
30
0
10
1.4006122298983346
20
1.6793129589062636
30
0
10
1.5999914940099444
20
1.6200225749419159
30
0
10
1.7984346618664082
20
1.5928768134792768
30
0
10
1.995810829055074
20
1.6057711849756031
30
0
10
2.1921951705869205
20
1.6586412697739628
30
0
10
2.3879490402426011
20
1.7402062826127254
30
0
10
2.5836015599175575
20
1.8324820719240196
30
0
10
2.7797288527002051
20
1.9153874175628824
30
0
10
2.9768315489977786
20
1.9714139922631149
30
0
10
3.1752193497801864
20
1.9900269146023666
30
0
10
3.374874967320066
20
1.972851103313479
30
0
10
3.5755411772944705
20
1.9303419520906
30
0
10
3.7768333878493059
20
1.8774800821461244
30
0
10
3.9783446398376343
20
1.8297565983279085
30
0
10
4.1797491845294807
20
1.7992057543642361
30
0
10
4.3809186381570218
20
1.7899720350333583
30
0
10
4.5818744193493792
20
1.7999551255223185
30
0
10
4.7827223065549793
20
1.8231234199680295
30
0
10
4.9835927773519968
20
1.8515979778354654
30
0
10
5.1845810685672342
20
1.8777750956563477
30
0
10
5.3856818366030454
20
1.896568011130682
30
0
10
5.5868206332657877
20
1.9052179879014184
30
0
10
5.7878931762968611
20
1.9029014213408855
30
0
10
5.9888021160531828
20
1.8904179346437779
30
0
10
6.1894938688075172
20
1.8698464813146296
30
0
10
6.3899981719903698
20
1.8442269598975796
30
0
10
6.5904013246651258
20
1.8170545571032393
30
0
10
6.7908159500591481
20
1.7917703776595699
30
0
10
6.9913519016839327
20
1.7712484097234416
30
0
10
7.1920872139714609
20
1.7572946354019847
30
0
10
7.3930375757428433
20
1.7501062578753852
30
0
10
7.5941707114228159
20
1.7487638226470321
30
0
10
7.7954225291212262
20
1.7517624734871371
30
0
10
7.9967125516676054
20
1.7575283264571153
30
0
10
8.1979595129305576
20
1.7649368715556784
30
0
10
8.3990970747976021
20
1.7738408815816384
30
0
10
8.60007247989126
20
1.7848067712655336
30
0
10
8.8008449520038443
20
1.7988397128634861
30
0
10
9.0013842280065486
20
1.8171145204227983
30
0
10
9.2016690702460302
20
1.8407040732493489
30
0
10
9.4016858190578212
20
1.8703103779805785
30
0
10
9.6014267371022477
20
1.9063436484244967
30
0
10
9.7609960478103091
20
1.9404677563076775
30
0
10
9.8805470028657698
20
1.9690659758352738
30
0
10
9.9601916636149994
20
1.9894662009541377
30
0
10
10
20
2
30
0
0
ENDSEC
0
SECTION
2
OBJECTS
0
DICTIONARY
5
C
100
AcDbDictionary
3
ACAD_GROUP
350
D
3
ACAD_MLINESTYLE
350
17
0
DICTIONARY
5
D
100
AcDbDictionary
0
DICTIONARY
5
1A
330
C
100
AcDbDictionary
0
DICTIONARY
5
17
100
AcDbDictionary
0
ENDSEC
0
EOF
