0
SECTION
2
HEADER
9
$INSUNITS
70
4
9
$ACADVER
1
AC1014
9
$HANDSEED
5
FFFF
0
ENDSEC
0
SECTION
2
TABLES
0
TABLE
2
VPORT
5
8
100
AcDbSymbolTable
0
ENDTAB
0
TABLE
2
LTYPE
5
5
100
AcDbSymbolTable
0
LTYPE
5
14
100
AcDbSymbolTableRecord
100
AcDbLinetypeTableRecord
2
BYBLOCK
70
0
0
LTYPE
5
15
100
AcDbSymbolTableRecord
100
AcDbLinetypeTableRecord
2
BYLAYER
70
0
0
ENDTAB
0
TABLE
2
LAYER
5
2
100
AcDbSymbolTable
70
2
0
LAYER
5
50
100
AcDbSymbolTableRecord
100
AcDbLayerTableRecord
2
0
70
0
6
CONTINUOUS
0
ENDTAB
0
TABLE
2
STYLE
5
3
100
AcDbSymbolTable
70
1
0
STYLE
5
11
100
AcDbSymbolTableRecord
100
AcDbTextStyleTableRecord
2
STANDARD
70
0
0
ENDTAB
0
TABLE
2
VIEW
5
6
100
AcDbSymbolTable
70
0
0
ENDTAB
0
TABLE
2
UCS
5
7
100
AcDbSymbolTable
70
0
0
ENDTAB
0
TABLE
2
APPID
5
9
100
AcDbSymbolTable
70
2
0
APPID
5
12
100
AcDbSymbolTableRecord
100
AcDbRegAppTableRecord
2
ACAD
70
0
0
ENDTAB
0
TABLE
2
DIMSTYLE
5
A
100
AcDbSymbolTable
70
1
0
ENDTAB
0
TABLE
2
BLOCK_RECORD
5
1
100
AcDbSymbolTable
70
1
0
BLOCK_RECORD
5
1F
100
AcDbSymbolTableRecord
100
AcDbBlockTableRecord
2
*MODEL_SPACE
0
BLOCK_RECORD
5
1B
100
AcDbSymbolTableRecord
100
AcDbBlockTableRecord
2
*PAPER_SPACE
0
ENDTAB
0
ENDSEC
0
SECTION
2
BLOCKS
0
BLOCK
5
20
100
AcDbEntity
100
AcDbBlockBegin
2
*MODEL_SPACE
0
ENDBLK
5
21
100
AcDbEntity
100
AcDbBlockEnd
0
BLOCK
5
1C
100
AcDbEntity
100
AcDbBlockBegin
2
*PAPER_SPACE
0
ENDBLK
5
1D
100
AcDbEntity
100
AcDbBlockEnd
0
ENDSEC
0
SECTION
2
ENTITIES
0
SPLINE
5
100
100
AcDbEntity
8
0
100
AcDbSpline
70
4
71
5
72
16
73
10
74
0
42
0.000000001
43
0.0000000001
44
0.0000000001
40
0
40
0
40
0
40
0
40
0
40
0
40
0.20000000000000001
40
0.40000000000000002
40
0.60000000000000009
40
0.80000000000000004
40
1
40
1
40
1
40
1
40
1
40
1
41
1
41
1
41
1
41
1
41
1
41
1
41
1
41
1
41
1
41
1
10
0
20
0
30
0
10
0
20
0.080000000000033267
30
0
10
0
20
0.24000000000008476
30
0
10
0
20
0.48000000000011728
30
0
10
0
20
0.80000000000008786
30
0
10
0
20
1.2000000000000053
30
0
10
0
20
1.5199999999999583
30
0
10
0
20
1.7599999999999643
30
0
10
0
20
1.9199999999999853
30
0
10
0
20
2
30
0
0
SPLINE
5
101
100
AcDbEntity
8
0
100
AcDbSpline
70
4
71
5
72
16
73
10
74
0
42
0.000000001
43
0.0000000001
44
0.0000000001
40
0
40
0
40
0
40
0
40
0
40
0
40
0.20000000000000001
40
0.40000000000000002
40
0.60000000000000009
40
0.80000000000000004
40
1
40
1
40
1
40
1
40
1
40
1
41
1
41
1
41
1
41
1
41
1
41
1
41
1
41
1
41
1
41
1
10
10
20
0
30
0
10
9.9999999999997495
20
0.080000000000033267
30
0
10
9.9999999999993197
20
0.24000000000008476
30
0
10
9.9999999999989129
20
0.48000000000011728
30
0
10
9.9999999999987672
20
0.80000000000008786
30
0
10
9.9999999999990248
20
1.2000000000000053
30
0
10
9.9999999999993889
20
1.5199999999999583
30
0
10
9.9999999999996998
20
1.7599999999999643
30
0
10
9.9999999999999005
20
1.9199999999999853
30
0
10
10
20
2
30
0
0
SPLINE
5
102
100
AcDbEntity
8
0
100
AcDbSpline
70
4
71
5
72
16
73
10
74
0
42
0.000000001
43
0.0000000001
44
0.0000000001
40
0
40
0
40
0
40
0
40
0
40
0
40
0.20000000000000001
40
0.40000000000000002
40
0.60000000000000009
40
0.80000000000000004
40
1
40
1
40
1
40
1
40
1
40
1
41
1
41
1
41
1
41
1
41
1
41
1
41
1
41
1
41
1
41
1
10
0
20
1
30
0
10
0.40000000000047375
20
0.99999999999987343
30
0
10
1.2000000000012774
20
0.99999999999965183
30
0
10
2.4000000000020547
20
0.99999999999941747
30
0
10
4.0000000000023546
20
0.99999999999928091
30
0
10
6.0000000000019584
20
0.99999999999933376
30
0
10
7.6000000000012928
20
0.99999999999951594
30
0
10
8.800000000000697
20
0.99999999999972888
30
0
10
9.6000000000002395
20
0.99999999999990408
30
0
10
10
20
1
30
0
0
SPLINE
5
103
100
AcDbEntity
8
0
100
AcDbSpline
70
4
71
5
72
61
73
55
74
0
42
0.000000001
43
0.0000000001
44
0.0000000001
40
0
40
0
40
0
40
0
40
0
40
0
40
0.02
40
0.040000000000000001
40
0.059999999999999998
40
0.080000000000000002
40
0.10000000000000001
40
0.12000000000000001
40
0.14000000000000001
40
0.16
40
0.17999999999999999
40
0.19999999999999998
40
0.21999999999999997
40
0.23999999999999996
40
0.25999999999999995
40
0.27999999999999997
40
0.29999999999999999
40
0.32000000000000001
40
0.34000000000000002
40
0.36000000000000004
40
0.38000000000000006
40
0.40000000000000008
40
0.4200000000000001
40
0.44000000000000011
40
0.46000000000000013
40
0.48000000000000015
40
0.50000000000000011
40
0.52000000000000013
40
0.54000000000000015
40
0.56000000000000016
40
0.58000000000000018
40
0.6000000000000002
40
0.62000000000000022
40
0.64000000000000024
40
0.66000000000000025
40
0.68000000000000027
40
0.70000000000000029
40
0.72000000000000031
40
0.74000000000000032
40
0.76000000000000034
40
0.78000000000000036
40
0.80000000000000038
40
0.8200000000000004
40
0.84000000000000041
40
0.86000000000000043
40
0.88000000000000045
40
0.90000000000000047
40
0.92000000000000048
40
0.9400000000000005
40
0.96000000000000052
40
0.98000000000000054
40
1
40
1
40
1
40
1
40
1
40
1
41
1
41
1
41
1
41
1
41
1
41
1
41
1
41
1
41
1
41
1
41
1
41
1
41
1
41
1
41
1
41
1
41
1
41
1
41
1
41
1
41
1
41
1
41
1
41
1
41
1
41
1
41
1
41
1
41
1
41
1
41
1
41
1
41
1
41
1
41
1
41
1
41
1
41
1
41
1
41
1
41
1
41
1
41
1
41
1
41
1
41
1
41
1
41
1
41
1
41
1
41
1
41
1
41
1
41
1
41
1
10
0
20
0
30
0
10
0.038848051709894638
20
0.024068720776351249
30
0
10
0.11666891867500473
20
0.07007617899680052
30
0
10
0.23377450908049549
20
0.1326974530031742
30
0
10
0.39066436972967472
20
0.20340401429617455
30
0
10
0.58801621534057391
20
0.2707703464260437
30
0
10
0.7865759579008923
20
0.31808998501022279
30
0
10
0.98627639249171961
20
0.3473788427913938
30
0
10
1.1870024353796078
20
0.36203570536895979
30
0
10
1.3885768981244841
20
0.36728218864023804
30
0
10
1.5907784203863162
20
0.36884114679180074
30
0
10
1.7933614104881912
20
0.37150518812004102
30
0
10
1.9960751929325218
20
0.37773372700810193
30
0
10
2.1986833761575304
20
0.38625551688420479
30
0
10
2.4009833400097405
20
0.39059653752055079
30
0
10
2.6028125068180352
20
0.38207252611350578
30
0
10
2.8040544603486732
20
0.35287031674544156
30
0
10
3.0046451961406935
20
0.29907501448608725
30
0
10
3.2045796029280171
20
0.22377909306525234
30
0
10
3.4039176572368475
20
0.14003408114073526
30
0
10
3.6027698248901463
20
0.065783037234101435
30
0
10
3.8012829878531784
20
0.018961254352998138
30
0
10
3.9996262955984863
20
0.012534511973107322
30
0
10
4.1979771355806959
20
0.049560699992351895
30
0
10
4.3965070861886897
20
0.11819749956255286
30
0
10
4.5953729860586936
20
0.19801247971667391
30
0
10
4.7947079743325158
20
0.26627229004867492
30
0
10
4.9946124771130043
20
0.30426844273393838
30
0
10
5.1951451209115875
20
0.30354188875075178
30
0
10
5.39631355607548
20
0.27242683858055888
30
0
10
5.5980643507703922
20
0.22940332663981836
30
0
10
5.8002726433734528
20
0.19613701204737188
30
0
10
6.0027318584761389
20
0.19067107576448497
30
0
10
6.2051427630894604
20
0.22049588185680408
30
0
10
6.4071036470537699
20
0.27579427212144858
30
0
10
6.608199994883539
20
0.33652536189698701
30
0
10
6.8080933970497455
20
0.37935197175836466
30
0
10
7.006610031242273
20
0.38456140239251679
30
0
10
7.2038317575517707
20
0.34311029060092707
30
0
10
7.4001811017656998
20
0.26331378450477677
30
0
10
7.5962764732358607
20
0.1643236419828672
30
0
10
7.7927948158937621
20
0.070023295812453354
30
0
10
7.9903304298569031
20
0.002729291993734458
30
0
10
8.1892583274449073
20
-0.022896938938345785
30
0
10
8.3895868843330419
20
-0.0063905589240295848
30
0
10
8.5910544046176511
20
0.042231939462838056
30
0
10
8.7932358436826821
20
0.10661625182647029
30
0
10
8.9956456289819737
20
0.16805034234412861
30
0
10
9.1978410660016898
20
0.20947266087802921
30
0
10
9.3995276749990602
20
0.21955317989659842
30
0
10
9.6005306487668847
20
0.19158514728275886
30
0
10
9.7607170966979435
20
0.13613763276066465
30
0
10
9.8804980322689744
20
0.075480698104429034
30
0
10
9.960192579026403
20
0.026572015988174595
30
0
10
10
20
0
30
0
0
SPLINE
5
104
100
AcDbEntity
8
0
100
AcDbSpline
70
4
71
5
72
61
73
55
74
0
42
0.000000001
43
0.0000000001
44
0.0000000001
40
0
40
0
40
0
40
0
40
0
40
0
40
0.02
40
0.040000000000000001
40
0.059999999999999998
40
0.080000000000000002
40
0.10000000000000001
40
0.12000000000000001
40
0.14000000000000001
40
0.16
40
0.17999999999999999
40
0.19999999999999998
40
0.21999999999999997
40
0.23999999999999996
40
0.25999999999999995
40
0.27999999999999997
40
0.29999999999999999
40
0.32000000000000001
40
0.34000000000000002
40
0.36000000000000004
40
0.38000000000000006
40
0.40000000000000008
40
0.4200000000000001
40
0.44000000000000011
40
0.46000000000000013
40
0.48000000000000015
40
0.50000000000000011
40
0.52000000000000013
40
0.54000000000000015
40
0.56000000000000016
40
0.58000000000000018
40
0.6000000000000002
40
0.62000000000000022
40
0.64000000000000024
40
0.66000000000000025
40
0.68000000000000027
40
0.70000000000000029
40
0.72000000000000031
40
0.74000000000000032
40
0.76000000000000034
40
0.78000000000000036
40
0.80000000000000038
40
0.8200000000000004
40
0.84000000000000041
40
0.86000000000000043
40
0.88000000000000045
40
0.90000000000000047
40
0.92000000000000048
40
0.9400000000000005
40
0.96000000000000052
40
0.98000000000000054
40
1
40
1
40
1
40
1
40
1
40
1
41
1
41
1
41
1
41
1
41
1
41
1
41
1
41
1
41
1
41
1
41
1
41
1
41
1
41
1
41
1
41
1
41
1
41
1
41
1
41
1
41
1
41
1
41
1
41
1
41
1
41
1
41
1
41
1
41
1
41
1
41
1
41
1
41
1
41
1
41
1
41
1
41
1
41
1
41
1
41
1
41
1
41
1
41
1
41
1
41
1
41
1
41
1
41
1
41
1
41
1
41
1
41
1
41
1
41
1
41
1
10
0
20
2
30
0
10
0.039915172110291074
20
1.9844311642319008
30
0
10
0.11973579469821613
20
1.9550727956212619
30
0
10
0.23943756389750856
20
1.9163731486542437
30
0
10
0.39898155355752629
20
1.8754564105220104
30
0
10
0.59832147312435224
20
1.8419545633726129
30
0
10
0.79759333064710125
20
1.8255452232195344
30
0
10
0.99684152990059449
20
1.8250705362331754
30
0
10
1.1961403005144864
20
1.8385522513114334
30
0
10
1.3956017789727997
20
1.8629684949603476
30
0
10
1.59534320204141
20
1.8945439985853196
30
0
10
1.7954536347955028
20
1.9290462406108446
30
0
10
1.9959605783132628
20
1.9620774695289709
30
0
10
2.1967970131853991
20
1.9893682961258918
30
0
10
2.3977665340478236
20
2.0070689759394451
30
0
10
2.5986087267324787
20
2.0121560758613981
30
0
10
2.7990661939640384
20
2.0028423357515139
30
0
10
2.9989510477384105
20
1.9789898350176118
30
0
10
3.1982115149050276
20
1.9425237518440175
30
0
10
3.3969995400636743
20
1.8978588808827566
30
0
10
3.5955922888993461
20
1.8508497425155988
30
0
10
3.7943133553457438
20
1.8077385849351586
30
0
10
3.9934537396231513
20
1.7741001955751365
30
0
10
4.1931941123763687
20
1.7538005367398888
30
0
10
4.3935229560906564
20
1.7479083888495326
30
0
10
4.5942957593098201
20
1.7551853556520216
30
0
10
4.7952980852304368
20
1.7726191035903147
30
0
10
4.9963071921450561
20
1.7959345916852265
30
0
10
5.1971536825830409
20
1.8201119016612197
30
0
10
5.3977846118513924
20
1.8398943463901198
30
0
10
5.5982271432269446
20
1.8505904415948997
30
0
10
5.7985506297514897
20
1.8488805299690871
30
0
10
5.9988293767714573
20
1.8336268784487135
30
0
10
6.1991052738175343
20
1.8066837477080009
30
0
10
6.399350124782357
20
1.7737272576410956
30
0
10
6.5994952620392127
20
1.7424696421950578
30
0
10
6.7994614435641187
20
1.720864681808759
30
0
10
6.9991886295232808
20
1.7153164154413381
30
0
10
7.1986657669399037
20
1.7288878941399979
30
0
10
7.397960897335631
20
1.7594894782360919
30
0
10
7.5971912297983515
20
1.8016000827050995
30
0
10
7.7964931311984653
20
1.8479923732494234
30
0
10
7.9959921071797799
20
1.8914564438778749
30
0
10
8.1957730470374255
20
1.9265085054413547
30
0
10
8.3958495321807423
20
1.9511480214437191
30
0
10
8.5961828486232097
20
1.9659846360409889
30
0
10
8.7967017805532688
20
1.9733231836503653
30
0
10
8.9973220467990238
20
1.9762678675173737
30
0
10
9.1979657404703747
20
1.9778255063999284
30
0
10
9.3985810120953133
20
1.9799988345480801
30
0
10
9.5991369611690285
20
1.9839819246618073
30
0
10
9.7595219960639916
20
1.989090857391498
30
0
10
9.8797749284651211
20
1.9940912290694734
30
0
10
9.9599276295602781
20
1.9979438959514688
30
0
10
10
20
2
30
0
0
ENDSEC
0
SECTION
2
OBJECTS
0
DICTIONARY
5
C
100
AcDbDictionary
3
ACAD_GROUP
350
D
3
ACAD_MLINESTYLE
350
17
0
DICTIONARY
5
D
100
AcDbDictionary
0
DICTIONARY
5
1A
330
C
100
AcDbDictionary
0
DICTIONARY
5
17
100
AcDbDictionary
0
ENDSEC
0
EOF
