0
SECTION
2
HEADER
9
$INSUNITS
70
4
9
$ACADVER
1
AC1014
9
$HANDSEED
5
FFFF
0
ENDSEC
0
SECTION
2
TABLES
0
TABLE
2
VPORT
5
8
100
AcDbSymbolTable
0
ENDTAB
0
TABLE
2
LTYPE
5
5
100
AcDbSymbolTable
0
LTYPE
5
14
100
AcDbSymbolTableRecord
100
AcDbLinetypeTableRecord
2
BYBLOCK
70
0
0
LTYPE
5
15
100
AcDbSymbolTableRecord
100
AcDbLinetypeTableRecord
2
BYLAYER
70
0
0
ENDTAB
0
TABLE
2
LAYER
5
2
100
AcDbSymbolTable
70
2
0
LAYER
5
50
100
AcDbSymbolTableRecord
100
AcDbLayerTableRecord
2
0
70
0
6
CONTINUOUS
0
ENDTAB
0
TABLE
2
STYLE
5
3
100
AcDbSymbolTable
70
1
0
STYLE
5
11
100
AcDbSymbolTableRecord
100
AcDbTextStyleTableRecord
2
STANDARD
70
0
0
ENDTAB
0
TABLE
2
VIEW
5
6
100
AcDbSymbolTable
70
0
0
ENDTAB
0
TABLE
2
UCS
5
7
100
AcDbSymbolTable
70
0
0
ENDTAB
0
TABLE
2
APPID
5
9
100
AcDbSymbolTable
70
2
0
APPID
5
12
100
AcDbSymbolTableRecord
100
AcDbRegAppTableRecord
2
ACAD
70
0
0
ENDTAB
0
TABLE
2
DIMSTYLE
5
A
100
AcDbSymbolTable
70
1
0
ENDTAB
0
TABLE
2
BLOCK_RECORD
5
1
100
AcDbSymbolTable
70
1
0
BLOCK_RECORD
5
1F
100
AcDbSymbolTableRecord
100
AcDbBlockTableRecord
2
*MODEL_SPACE
0
BLOCK_RECORD
5
1B
100
AcDbSymbolTableRecord
100
AcDbBlockTableRecord
2
*PAPER_SPACE
0
ENDTAB
0
ENDSEC
0
SECTION
2
BLOCKS
0
BLOCK
5
20
100
AcDbEntity
100
AcDbBlockBegin
2
*MODEL_SPACE
0
ENDBLK
5
21
100
AcDbEntity
100
AcDbBlockEnd
0
BLOCK
5
1C
100
AcDbEntity
100
AcDbBlockBegin
2
*PAPER_SPACE
0
ENDBLK
5
1D
100
AcDbEntity
100
AcDbBlockEnd
0
ENDSEC
0
SECTION
2
ENTITIES
0
SPLINE
5
100
100
AcDbEntity
8
0
100
AcDbSpline
70
4
71
5
72
16
73
10
74
0
42
0.000000001
43
0.0000000001
44
0.0000000001
40
0
40
0
40
0
40
0
40
0
40
0
40
0.20000000000000001
40
0.40000000000000002
40
0.60000000000000009
40
0.80000000000000004
40
1
40
1
40
1
40
1
40
1
40
1
41
1
41
1
41
1
41
1
41
1
41
1
41
1
41
1
41
1
41
1
10
0
20
0
30
0
10
0
20
0.080000000000033267
30
0
10
0
20
0.24000000000008476
30
0
10
0
20
0.48000000000011728
30
0
10
0
20
0.80000000000008786
30
0
10
0
20
1.2000000000000053
30
0
10
0
20
1.5199999999999583
30
0
10
0
20
1.7599999999999643
30
0
10
0
20
1.9199999999999853
30
0
10
0
20
2
30
0
0
SPLINE
5
101
100
AcDbEntity
8
0
100
AcDbSpline
70
4
71
5
72
16
73
10
74
0
42
0.000000001
43
0.0000000001
44
0.0000000001
40
0
40
0
40
0
40
0
40
0
40
0
40
0.20000000000000001
40
0.40000000000000002
40
0.60000000000000009
40
0.80000000000000004
40
1
40
1
40
1
40
1
40
1
40
1
41
1
41
1
41
1
41
1
41
1
41
1
41
1
41
1
41
1
41
1
10
10
20
0
30
0
10
9.9999999999997495
20
0.080000000000033267
30
0
10
9.9999999999993197
20
0.24000000000008476
30
0
10
9.9999999999989129
20
0.48000000000011728
30
0
10
9.9999999999987672
20
0.80000000000008786
30
0
10
9.9999999999990248
20
1.2000000000000053
30
0
10
9.9999999999993889
20
1.5199999999999583
30
0
10
9.9999999999996998
20
1.7599999999999643
30
0
10
9.9999999999999005
20
1.9199999999999853
30
0
10
10
20
2
30
0
0
SPLINE
5
102
100
AcDbEntity
8
0
100
AcDbSpline
70
4
71
5
72
16
73
10
74
0
42
0.000000001
43
0.0000000001
44
0.0000000001
40
0
40
0
40
0
40
0
40
0
40
0
40
0.20000000000000001
40
0.40000000000000002
40
0.60000000000000009
40
0.80000000000000004
40
1
40
1
40
1
40
1
40
1
40
1
41
1
41
1
41
1
41
1
41
1
41
1
41
1
41
1
41
1
41
1
10
0
20
1
30
0
10
0.40000000000047375
20
0.99999999999987343
30
0
10
1.2000000000012774
20
0.99999999999965183
30
0
10
2.4000000000020547
20
0.99999999999941747
30
0
10
4.0000000000023546
20
0.99999999999928091
30
0
10
6.0000000000019584
20
0.99999999999933376
30
0
10
7.6000000000012928
20
0.99999999999951594
30
0
10
8.800000000000697
20
0.99999999999972888
30
0
10
9.6000000000002395
20
0.99999999999990408
30
0
10
10
20
1
30
0
0
SPLINE
5
103
100
AcDbEntity
8
0
100
AcDbSpline
70
4
71
5
72
161
73
155
74
0
42
0.000000001
43
0.0000000001
44
0.0000000001
40
0
40
0
40
0
40
0
40
0
40
0
40
0.0066666666666666671
40
0.013333333333333334
40
0.02
40
0.026666666666666668
40
0.033333333333333333
40
0.040000000000000001
40
0.046666666666666669
40
0.053333333333333337
40
0.060000000000000005
40
0.066666666666666666
40
0.073333333333333334
40
0.080000000000000002
40
0.08666666666666667
40
0.093333333333333338
40
0.10000000000000001
40
0.10666666666666667
40
0.11333333333333334
40
0.12000000000000001
40
0.12666666666666668
40
0.13333333333333333
40
0.13999999999999999
40
0.14666666666666664
40
0.15333333333333329
40
0.15999999999999995
40
0.1666666666666666
40
0.17333333333333326
40
0.17999999999999991
40
0.18666666666666656
40
0.19333333333333322
40
0.19999999999999987
40
0.20666666666666653
40
0.21333333333333318
40
0.21999999999999983
40
0.22666666666666649
40
0.23333333333333314
40
0.2399999999999998
40
0.24666666666666645
40
0.25333333333333313
40
0.25999999999999979
40
0.26666666666666644
40
0.2733333333333331
40
0.27999999999999975
40
0.2866666666666664
40
0.29333333333333306
40
0.29999999999999971
40
0.30666666666666637
40
0.31333333333333302
40
0.31999999999999967
40
0.32666666666666633
40
0.33333333333333298
40
0.33999999999999964
40
0.34666666666666629
40
0.35333333333333294
40
0.3599999999999996
40
0.36666666666666625
40
0.37333333333333291
40
0.37999999999999956
40
0.38666666666666621
40
0.39333333333333287
40
0.39999999999999952
40
0.40666666666666618
40
0.41333333333333283
40
0.41999999999999948
40
0.42666666666666614
40
0.43333333333333279
40
0.43999999999999945
40
0.4466666666666661
40
0.45333333333333276
40
0.45999999999999941
40
0.46666666666666606
40
0.47333333333333272
40
0.47999999999999937
40
0.48666666666666603
40
0.49333333333333268
40
0.49999999999999933
40
0.50666666666666604
40
0.51333333333333275
40
0.51999999999999946
40
0.52666666666666617
40
0.53333333333333288
40
0.53999999999999959
40
0.5466666666666663
40
0.55333333333333301
40
0.55999999999999972
40
0.56666666666666643
40
0.57333333333333314
40
0.57999999999999985
40
0.58666666666666656
40
0.59333333333333327
40
0.59999999999999998
40
0.60666666666666669
40
0.6133333333333334
40
0.62000000000000011
40
0.62666666666666682
40
0.63333333333333353
40
0.64000000000000024
40
0.64666666666666694
40
0.65333333333333365
40
0.66000000000000036
40
0.66666666666666707
40
0.67333333333333378
40
0.68000000000000049
40
0.6866666666666672
40
0.69333333333333391
40
0.70000000000000062
40
0.70666666666666733
40
0.71333333333333404
40
0.72000000000000075
40
0.72666666666666746
40
0.73333333333333417
40
0.74000000000000088
40
0.74666666666666759
40
0.7533333333333343
40
0.76000000000000101
40
0.76666666666666772
40
0.77333333333333443
40
0.78000000000000114
40
0.78666666666666785
40
0.79333333333333456
40
0.80000000000000127
40
0.80666666666666798
40
0.81333333333333468
40
0.82000000000000139
40
0.8266666666666681
40
0.83333333333333481
40
0.84000000000000152
40
0.84666666666666823
40
0.85333333333333494
40
0.86000000000000165
40
0.86666666666666836
40
0.87333333333333507
40
0.88000000000000178
40
0.88666666666666849
40
0.8933333333333352
40
0.90000000000000191
40
0.90666666666666862
40
0.91333333333333533
40
0.92000000000000204
40
0.92666666666666875
40
0.93333333333333546
40
0.94000000000000217
40
0.94666666666666888
40
0.95333333333333559
40
0.9600000000000023
40
0.96666666666666901
40
0.97333333333333572
40
0.98000000000000242
40
0.98666666666666913
40
0.99333333333333584
40
1
40
1
40
1
40
1
40
1
40
1
41
1
41
1
41
1
41
1
41
1
41
1
41
1
41
1
41
1
41
1
41
1
41
1
41
1
41
1
41
1
41
1
41
1
41
1
41
1
41
1
41
1
41
1
41
1
41
1
41
1
41
1
41
1
41
1
41
1
41
1
41
1
41
1
41
1
41
1
41
1
41
1
41
1
41
1
41
1
41
1
41
1
41
1
41
1
41
1
41
1
41
1
41
1
41
1
41
1
41
1
41
1
41
1
41
1
41
1
41
1
41
1
41
1
41
1
41
1
41
1
41
1
41
1
41
1
41
1
41
1
41
1
41
1
41
1
41
1
41
1
41
1
41
1
41
1
41
1
41
1
41
1
41
1
41
1
41
1
41
1
41
1
41
1
41
1
41
1
41
1
41
1
41
1
41
1
41
1
41
1
41
1
41
1
41
1
41
1
41
1
41
1
41
1
41
1
41
1
41
1
41
1
41
1
41
1
41
1
41
1
41
1
41
1
41
1
41
1
41
1
41
1
41
1
41
1
41
1
41
1
41
1
41
1
41
1
41
1
41
1
41
1
41
1
41
1
41
1
41
1
41
1
41
1
41
1
41
1
41
1
41
1
41
1
41
1
41
1
41
1
41
1
41
1
41
1
41
1
41
1
41
1
41
1
41
1
41
1
41
1
41
1
41
1
41
1
41
1
41
1
41
1
41
1
41
1
41
1
41
1
10
0
20
0
30
0
10
0.015396998774397843
20
-0.013074978018639563
30
0
10
0.045888429367011763
20
-0.035819842538325937
30
0
10
0.090717859726653485
20
-0.059721542779556741
30
0
10
0.14867499823216257
20
-0.071160596487542138
30
0
10
0.21814614061120058
20
-0.052357422280437597
30
0
10
0.28479703005435197
20
-0.0033626936646433455
30
0
10
0.34893456837522879
20
0.070082653512495097
30
0
10
0.41108047080116777
20
0.15819571206203653
30
0
10
0.47198794265164012
20
0.24695737996783823
30
0
10
0.53250000473521364
20
0.3214182461848677
30
0
10
0.59343601108636357
20
0.36836554001910904
30
0
10
0.65546270031199927
20
0.37937189116382303
30
0
10
0.71898196151272598
20
0.35338086468088103
30
0
10
0.78398472292767818
20
0.30028357976585329
30
0
10
0.85015385126724408
20
0.23715078719786661
30
0
10
0.91701238613458225
20
0.1831663066228848
30
0
10
0.98406068389831303
20
0.15479594334804972
30
0
10
1.0509076790383689
20
0.16134330499183666
30
0
10
1.1174317900323603
20
0.19908673282830319
30
0
10
1.183746077526751
20
0.25442383115888229
30
0
10
1.2501050155736433
20
0.30960309882292425
30
0
10
1.3168295074478871
20
0.34779980888268736
30
0
10
1.3842274523918197
20
0.35798550617414515
30
0
10
1.4525080900604734
20
0.3411233014060655
30
0
10
1.5217536111260626
20
0.30756019245848443
30
0
10
1.591909843972509
20
0.27171133433572031
30
0
10
1.6627695884952134
20
0.24760494131603633
30
0
10
1.7339609769714626
20
0.24417671979761746
30
0
10
1.8049281037679099
20
0.26037334544574053
30
0
10
1.8750743926957583
20
0.28816942677006135
30
0
10
1.9439191060299064
20
0.31607684231913064
30
0
10
2.0112395759631028
20
0.33237540717242597
30
0
10
2.0772416184924385
20
0.32868388254738656
30
0
10
2.1426526631137803
20
0.30272315308592485
30
0
10
2.2084045482360324
20
0.25681477559022353
30
0
10
2.2753592590970766
20
0.19690120128546926
30
0
10
2.3440326598410803
20
0.13135751636773585
30
0
10
2.4142848231684679
20
0.069911430854306511
30
0
10
2.4851253797982515
20
0.022465233169360641
30
0
10
2.5551652293431149
20
-0.0022981864507910471
30
0
10
2.6230052391611198
20
0.0016367179603260084
30
0
10
2.6876183209214166
20
0.036343850973118853
30
0
10
2.7488079073860252
20
0.098242731464727062
30
0
10
2.8073916708711182
20
0.17777027486822444
30
0
10
2.8647489075388819
20
0.26219538600657283
30
0
10
2.922504676080373
20
0.337753022206779
30
0
10
2.9821445527462376
20
0.39213869219760994
30
0
10
3.0446936101610884
20
0.41664166816751691
30
0
10
3.1102790537251335
20
0.4089663854123165
30
0
10
3.1782718073342071
20
0.37257407151920224
30
0
10
3.2476330010621268
20
0.31477022277352223
30
0
10
3.3172027794265517
20
0.24517983577071109
30
0
10
3.3859922436921241
20
0.1741129076922823
30
0
10
3.45352775001437
20
0.11084530291015424
30
0
10
3.5198070723819614
20
0.062854903395335671
30
0
10
3.5851393872706625
20
0.035388507672245391
30
0
10
3.6500219188819405
20
0.030867070775718739
30
0
10
3.7150071731844942
20
0.048467721092466831
30
0
10
3.7805591580356941
20
0.083347550979549517
30
0
10
3.8470118442608414
20
0.12780725742438606
30
0
10
3.9145647368613181
20
0.17304939578741643
30
0
10
3.9832635582779337
20
0.21079729617461151
30
0
10
4.0529925388092805
20
0.23484199004440343
30
0
10
4.1234477031777654
20
0.24295581607669706
30
0
10
4.1942135592414571
20
0.2363682401120426
30
0
10
4.2648701403708458
20
0.21850762726802847
30
0
10
4.3350890888290943
20
0.19399392919804401
30
0
10
4.4047361953749
20
0.16751863260253577
30
0
10
4.4739662184786901
20
0.14279579968392042
30
0
10
4.5430852612623092
20
0.12269763499509781
30
0
10
4.6124125954098885
20
0.10937915950545501
30
0
10
4.6821525337010454
20
0.10439552725072351
30
0
10
4.7522391094233054
20
0.10884731971561565
30
0
10
4.8222622972636406
20
0.12343781096768039
30
0
10
4.8916837410633267
20
0.14822812460252166
30
0
10
4.9600177560460832
20
0.18241740104178725
30
0
10
5.0270038007823974
20
0.22415913438534871
30
0
10
5.0928356854579357
20
0.27025102172437471
30
0
10
5.1581800242424416
20
0.31626839712941895
30
0
10
5.2238768413420944
20
0.35736216027642875
30
0
10
5.2907030551959586
20
0.38892294099429636
30
0
10
5.3591380442853795
20
0.40724735805980211
30
0
10
5.4290622331934912
20
0.41032845996629885
30
0
10
5.4997120482686155
20
0.39816060581596557
30
0
10
5.5700615060162342
20
0.37221480103314708
30
0
10
5.6391225268332086
20
0.33509663532876732
30
0
10
5.706241414407569
20
0.29015007129141662
30
0
10
5.771487303073128
20
0.24103781359161541
30
0
10
5.8355992910134713
20
0.19153841939748234
30
0
10
5.8996271401506917
20
0.14549726851595365
30
0
10
5.9646500115770982
20
0.1067510176769043
30
0
10
6.0314918275431477
20
0.079019532132664549
30
0
10
6.1003676915901517
20
0.065917693279845035
30
0
10
6.1708287561458945
20
0.070517769562330079
30
0
10
6.2420460017059929
20
0.09445956216241741
30
0
10
6.3130096527659907
20
0.13710494507586585
30
0
10
6.3827511790997171
20
0.19483603625362086
30
0
10
6.4505853970899549
20
0.25988084674439987
30
0
10
6.5161711860377736
20
0.32166941591110354
30
0
10
6.5794901987624677
20
0.36914594085677704
30
0
10
6.6408591483363688
20
0.39287947219644592
30
0
10
6.7009134292874819
20
0.38701600119681928
30
0
10
6.7606396920834078
20
0.35190194332114649
30
0
10
6.8212301265935507
20
0.29380381117789345
30
0
10
6.8838132716645886
20
0.22244957099582682
30
0
10
6.9492086504286696
20
0.14916459807938698
30
0
10
7.0176977591786285
20
0.084854607977974228
30
0
10
7.0887253519469606
20
0.037836550353900503
30
0
10
7.1608269583311044
20
0.012423293154232512
30
0
10
7.2321976004434338
20
0.0098631121059851515
30
0
10
7.3011740324608354
20
0.028864555579448108
30
0
10
7.3666922988030468
20
0.066262644384124769
30
0
10
7.428899066789036
20
0.11767730524189848
30
0
10
7.4891314063945735
20
0.17796483701889737
30
0
10
7.549267670446155
20
0.24142647151185398
30
0
10
7.6112392436232748
20
0.30207704102266664
30
0
10
7.6765001086544853
20
0.35390591210563127
30
0
10
7.7454587235990937
20
0.39110099143793564
30
0
10
7.8170903261140712
20
0.40840439116720229
30
0
10
7.8895995798899978
20
0.40210097672814515
30
0
10
7.9609794695388842
20
0.37101749759536617
30
0
10
8.0295594868655567
20
0.31733938494313946
30
0
10
8.0946803812882688
20
0.24793546091984464
30
0
10
8.1568733329950138
20
0.1739134418568142
30
0
10
8.2173449236899874
20
0.10775950277458279
30
0
10
8.2776299134436861
20
0.061041109956378931
30
0
10
8.3391844776685957
20
0.041950252481311429
30
0
10
8.4029853890277391
20
0.052752938112709501
30
0
10
8.4691828541426251
20
0.087741688416796207
30
0
10
8.5373847280407205
20
0.13634967021568986
30
0
10
8.606890751284487
20
0.18587274184687311
30
0
10
8.6769384245824615
20
0.22426460050327277
30
0
10
8.746961222471425
20
0.24307815769503616
30
0
10
8.8167906691358446
20
0.23982193681336419
30
0
10
8.8864912655648496
20
0.21645582524113388
30
0
10
8.956231353938378
20
0.17832097905577629
30
0
10
9.0261516059034115
20
0.13290709441518239
30
0
10
9.0962071972651337
20
0.088680167190977321
30
0
10
9.1661151515625967
20
0.05392325219026748
30
0
10
9.2354846059103384
20
0.035723663255103455
30
0
10
9.303909813254112
20
0.038853309375194836
30
0
10
9.3710684489169669
20
0.064843081044056922
30
0
10
9.4368414741601025
20
0.11060067813600089
30
0
10
9.5013218549714615
20
0.1688164371042693
30
0
10
9.564734106812228
20
0.22972973748475342
30
0
10
9.6273781179959279
20
0.28254549310236454
30
0
10
9.6895666714177882
20
0.31689952452072617
30
0
10
9.7515568363013543
20
0.32453103852419612
30
0
10
9.8135143459815719
20
0.30008338841306126
30
0
10
9.8755406310197653
20
0.24029784184043584
30
0
10
9.9252565981536982
20
0.1629167215765881
30
0
10
9.9626045869525033
20
0.088016075044824435
30
0
10
9.9875303451924147
20
0.030587793625859394
30
0
10
10
20
0
30
0
0
SPLINE
5
104
100
AcDbEntity
8
0
100
AcDbSpline
70
4
71
5
72
161
73
155
74
0
42
0.000000001
43
0.0000000001
44
0.0000000001
40
0
40
0
40
0
40
0
40
0
40
0
40
0.0066666666666666671
40
0.013333333333333334
40
0.02
40
0.026666666666666668
40
0.033333333333333333
40
0.040000000000000001
40
0.046666666666666669
40
0.053333333333333337
40
0.060000000000000005
40
0.066666666666666666
40
0.073333333333333334
40
0.080000000000000002
40
0.08666666666666667
40
0.093333333333333338
40
0.10000000000000001
40
0.10666666666666667
40
0.11333333333333334
40
0.12000000000000001
40
0.12666666666666668
40
0.13333333333333333
40
0.13999999999999999
40
0.14666666666666664
40
0.15333333333333329
40
0.15999999999999995
40
0.1666666666666666
40
0.17333333333333326
40
0.17999999999999991
40
0.18666666666666656
40
0.19333333333333322
40
0.19999999999999987
40
0.20666666666666653
40
0.21333333333333318
40
0.21999999999999983
40
0.22666666666666649
40
0.23333333333333314
40
0.2399999999999998
40
0.24666666666666645
40
0.25333333333333313
40
0.25999999999999979
40
0.26666666666666644
40
0.2733333333333331
40
0.27999999999999975
40
0.2866666666666664
40
0.29333333333333306
40
0.29999999999999971
40
0.30666666666666637
40
0.31333333333333302
40
0.31999999999999967
40
0.32666666666666633
40
0.33333333333333298
40
0.33999999999999964
40
0.34666666666666629
40
0.35333333333333294
40
0.3599999999999996
40
0.36666666666666625
40
0.37333333333333291
40
0.37999999999999956
40
0.38666666666666621
40
0.39333333333333287
40
0.39999999999999952
40
0.40666666666666618
40
0.41333333333333283
40
0.41999999999999948
40
0.42666666666666614
40
0.43333333333333279
40
0.43999999999999945
40
0.4466666666666661
40
0.45333333333333276
40
0.45999999999999941
40
0.46666666666666606
40
0.47333333333333272
40
0.47999999999999937
40
0.48666666666666603
40
0.49333333333333268
40
0.49999999999999933
40
0.50666666666666604
40
0.51333333333333275
40
0.51999999999999946
40
0.52666666666666617
40
0.53333333333333288
40
0.53999999999999959
40
0.5466666666666663
40
0.55333333333333301
40
0.55999999999999972
40
0.56666666666666643
40
0.57333333333333314
40
0.57999999999999985
40
0.58666666666666656
40
0.59333333333333327
40
0.59999999999999998
40
0.60666666666666669
40
0.6133333333333334
40
0.62000000000000011
40
0.62666666666666682
40
0.63333333333333353
40
0.64000000000000024
40
0.64666666666666694
40
0.65333333333333365
40
0.66000000000000036
40
0.66666666666666707
40
0.67333333333333378
40
0.68000000000000049
40
0.6866666666666672
40
0.69333333333333391
40
0.70000000000000062
40
0.70666666666666733
40
0.71333333333333404
40
0.72000000000000075
40
0.72666666666666746
40
0.73333333333333417
40
0.74000000000000088
40
0.74666666666666759
40
0.7533333333333343
40
0.76000000000000101
40
0.76666666666666772
40
0.77333333333333443
40
0.78000000000000114
40
0.78666666666666785
40
0.79333333333333456
40
0.80000000000000127
40
0.80666666666666798
40
0.81333333333333468
40
0.82000000000000139
40
0.8266666666666681
40
0.83333333333333481
40
0.84000000000000152
40
0.84666666666666823
40
0.85333333333333494
40
0.86000000000000165
40
0.86666666666666836
40
0.87333333333333507
40
0.88000000000000178
40
0.88666666666666849
40
0.8933333333333352
40
0.90000000000000191
40
0.90666666666666862
40
0.91333333333333533
40
0.92000000000000204
40
0.92666666666666875
40
0.93333333333333546
40
0.94000000000000217
40
0.94666666666666888
40
0.95333333333333559
40
0.9600000000000023
40
0.96666666666666901
40
0.97333333333333572
40
0.98000000000000242
40
0.98666666666666913
40
0.99333333333333584
40
1
40
1
40
1
40
1
40
1
40
1
41
1
41
1
41
1
41
1
41
1
41
1
41
1
41
1
41
1
41
1
41
1
41
1
41
1
41
1
41
1
41
1
41
1
41
1
41
1
41
1
41
1
41
1
41
1
41
1
41
1
41
1
41
1
41
1
41
1
41
1
41
1
41
1
41
1
41
1
41
1
41
1
41
1
41
1
41
1
41
1
41
1
41
1
41
1
41
1
41
1
41
1
41
1
41
1
41
1
41
1
41
1
41
1
41
1
41
1
41
1
41
1
41
1
41
1
41
1
41
1
41
1
41
1
41
1
41
1
41
1
41
1
41
1
41
1
41
1
41
1
41
1
41
1
41
1
41
1
41
1
41
1
41
1
41
1
41
1
41
1
41
1
41
1
41
1
41
1
41
1
41
1
41
1
41
1
41
1
41
1
41
1
41
1
41
1
41
1
41
1
41
1
41
1
41
1
41
1
41
1
41
1
41
1
41
1
41
1
41
1
41
1
41
1
41
1
41
1
41
1
41
1
41
1
41
1
41
1
41
1
41
1
41
1
41
1
41
1
41
1
41
1
41
1
41
1
41
1
41
1
41
1
41
1
41
1
41
1
41
1
41
1
41
1
41
1
41
1
41
1
41
1
41
1
41
1
41
1
41
1
41
1
41
1
41
1
41
1
41
1
41
1
41
1
41
1
41
1
41
1
41
1
41
1
41
1
41
1
41
1
10
0
20
2
30
0
10
0.010782698488514982
20
1.9853977046195539
30
0
10
0.032688959237614737
20
1.9568898520117273
30
0
10
0.066570920976403214
20
1.9162183102163266
30
0
10
0.113792338677768
20
1.8661701679757734
30
0
10
0.17616325703633839
20
1.8106501458424271
30
0
10
0.24168526528049114
20
1.7623811758674766
30
0
10
0.30996522464597492
20
1.7217892532978598
30
0
10
0.38035941579946464
20
1.6895686614715775
30
0
10
0.45186955489148856
20
1.6667937497671439
30
0
10
0.52329432937630194
20
1.6547494394609039
30
0
10
0.59349817198617993
20
1.6546291391631873
30
0
10
0.66164847349249445
20
1.667274411323032
30
0
10
0.72745357364495122
20
1.6928976594772216
30
0
10
0.79143363058902794
20
1.7308100950483827
30
0
10
0.85463119462487414
20
1.7792324969297915
30
0
10
0.91828053278211441
20
1.8351396960703363
30
0
10
0.98347853961205312
20
1.8940443812959162
30
0
10
1.0508855261185677
20
1.9499154646601586
30
0
10
1.1203342715154982
20
1.9947563607767702
30
0
10
1.1910095954448514
20
2.0202229934135323
30
0
10
1.2617986364683242
20
2.0198384248407883
30
0
10
1.3315857132726623
20
1.9910330924628892
30
0
10
1.3995661103646611
20
1.9372028370388885
30
0
10
1.4655633027843475
20
1.8699120945645484
30
0
10
1.5298670408243651
20
1.8050619387367386
30
0
10
1.5930571618721447
20
1.7589486657826483
30
0
10
1.6558290174713384
20
1.744214241088401
30
0
10
1.7188270477032783
20
1.7661825827706121
30
0
10
1.782451831977347
20
1.8181365725343674
30
0
10
1.8468836406586426
20
1.8849014599914726
30
0
10
1.9121473804917291
20
1.9479105074156444
30
0
10
1.9781644060470329
20
1.9899831865047823
30
0
10
2.0448069083024949
20
1.999709295695147
30
0
10
2.1119585354262869
20
1.9773055287805681
30
0
10
2.1795330089103357
20
1.9329572150190932
30
0
10
2.2474715378894081
20
1.8817000050424515
30
0
10
2.3157479079678893
20
1.839245306163295
30
0
10
2.3843683919667722
20
1.817763120328165
30
0
10
2.4533789962250752
20
1.8207879371086086
30
0
10
2.5228369886940016
20
1.8442369351755494
30
0
10
2.5927714964314257
20
1.8794797622918293
30
0
10
2.6631470953383336
20
1.9157374926532376
30
0
10
2.7338275062664978
20
1.9427279056657802
30
0
10
2.8045354261125466
20
1.9532941605487599
30
0
10
2.8749316167044059
20
1.9436959885153597
30
0
10
2.9447024623700502
20
1.9138121852036751
30
0
10
3.0136391009525103
20
1.8672910096228559
30
0
10
3.0817325257435253
20
1.8119256340794707
30
0
10
3.149224625661712
20
1.7593300425183283
30
0
10
3.2164740592496783
20
1.7216950392175421
30
0
10
3.2838439274020725
20
1.7088178405653847
30
0
10
3.3515899636036917
20
1.7253146606646108
30
0
10
3.4197272165144801
20
1.7670684513569632
30
0
10
3.4879731612875502
20
1.820167714824668
30
0
10
3.55590765397376
20
1.8667581818645411
30
0
10
3.6230987239539876
20
1.8898642605950524
30
0
10
3.6892307201187253
20
1.8781457799907388
30
0
10
3.754258071512993
20
1.831809532049685
30
0
10
3.8184592309261993
20
1.7642672495335194
30
0
10
3.8822842668249935
20
1.6951033803482032
30
0
10
3.9462444211221825
20
1.644775065881491
30
0
10
4.0107894734620233
20
1.6288804595287938
30
0
10
4.0761795270756416
20
1.6519960850695226
30
0
10
4.1423913076841048
20
1.7035274167251193
30
0
10
4.2092225396839584
20
1.7647463172665079
30
0
10
4.2763720323733976
20
1.8145108351104631
30
0
10
4.3435269172119364
20
1.835270742400724
30
0
10
4.4104520958325333
20
1.8194778418610034
30
0
10
4.4770631760380013
20
1.7742732611875367
30
0
10
4.5433881005295476
20
1.7152483542567891
30
0
10
4.6095417753980392
20
1.6613911302645419
30
0
10
4.6756957253830711
20
1.6297415462098852
30
0
10
4.7420498138353953
20
1.6297833041364431
30
0
10
4.8088033429146009
20
1.6590806174977293
30
0
10
4.8761303369111424
20
1.7078809648217579
30
0
10
4.9441532406177355
20
1.7628381486300562
30
0
10
5.0129192775287965
20
1.8109118759723943
30
0
10
5.0823708416412199
20
1.8435697000435152
30
0
10
5.1523328159947601
20
1.8597248364257721
30
0
10
5.2225729977106923
20
1.8627234198764584
30
0
10
5.2928552971471357
20
1.8580524649209542
30
0
10
5.3629898398909628
20
1.8509925425898521
30
0
10
5.4328985609831149
20
1.8437545903179369
30
0
10
5.5026232976811276
20
1.8347777158875114
30
0
10
5.5722552325601189
20
1.8210549575993049
30
0
10
5.6418804046261819
20
1.7998171311595466
30
0
10
5.7115258070526034
20
1.7702490092164971
30
0
10
5.7810875163636819
20
1.7357604967498761
30
0
10
5.8503543959764297
20
1.7032030919478849
30
0
10
5.9190834480828789
20
1.6804393249373395
30
0
10
5.9870608067548847
20
1.6743490757849981
30
0
10
6.054164797398176
20
1.6888265959067497
30
0
10
6.1204382668010657
20
1.7223345695769687
30
0
10
6.1860749269784643
20
1.7691859399372289
30
0
10
6.2513841378729076
20
1.8216582280793969
30
0
10
6.316765305142729
20
1.8718960386958858
30
0
10
6.3826734385305341
20
1.9137312163341471
30
0
10
6.4496009041451021
20
1.9449780977651898
30
0
10
6.5179728872518181
20
1.9666647625850735
30
0
10
6.5880186400314367
20
1.9812943379553392
30
0
10
6.659645939268982
20
1.9913997887279016
30
0
10
6.7323249076375333
20
1.9980455834586222
30
0
10
6.8049386757392707
20
1.9991655293684971
30
0
10
6.8761056973962091
20
1.9908684716814213
30
0
10
6.9445546297204235
20
1.9690654405125394
30
0
10
7.0094663604554528
20
1.9309311192854892
30
0
10
7.070862319844303
20
1.8765496893231901
30
0
10
7.1298780160384032
20
1.8101472985209721
30
0
10
7.1882463774751724
20
1.7385936945994263
30
0
10
7.2478754312803204
20
1.670202053403258
30
0
10
7.3103651752798466
20
1.6133838217987879
30
0
10
7.3766068110930272
20
1.5754365725261252
30
0
10
7.4462033599187336
20
1.5610940502555459
30
0
10
7.5177031339130203
20
1.5721166300586877
30
0
10
7.5892269732524822
20
1.607409111993203
30
0
10
7.6589845700849848
20
1.6629415520313031
30
0
10
7.7258082719313403
20
1.7318202475260498
30
0
10
7.7897548914653134
20
1.8041119057498229
30
0
10
7.8517931768297569
20
1.8688129605293029
30
0
10
7.9133756234420662
20
1.9160028925176453
30
0
10
7.9760354342993907
20
1.9390980686935235
30
0
10
8.0410098607641949
20
1.9366903204783652
30
0
10
8.1087593117239933
20
1.9155042280955707
30
0
10
8.1789861746802739
20
1.8882931731794956
30
0
10
8.2509326890799901
20
1.8689982006790502
30
0
10
8.323596209398179
20
1.8686124683223835
30
0
10
8.3959702918391752
20
1.8910632526185758
30
0
10
8.4672966157259566
20
1.928265225867851
30
0
10
8.5370718281517828
20
1.9645668327090409
30
0
10
8.6050150962497653
20
1.9826410258716995
30
0
10
8.6710496300542452
20
1.9687842502236523
30
0
10
8.7352787675537957
20
1.918647798504014
30
0
10
8.7979633302657696
20
1.842265455061471
30
0
10
8.8594731210095681
20
1.7581304206057826
30
0
10
8.9202407456603829
20
1.6879445386104086
30
0
10
8.9807134171943339
20
1.6508546748766018
30
0
10
9.0413082323404605
20
1.6585047719339716
30
0
10
9.102359327697032
20
1.7082170012718954
30
0
10
9.164104568839873
20
1.7851689910378878
30
0
10
9.2266902987847139
20
1.8684948216127268
30
0
10
9.2901696916414309
20
1.9363035624926273
30
0
10
9.3545051008419993
20
1.970770826914088
30
0
10
9.4195653848317473
20
1.9641056801127457
30
0
10
9.4851362353080155
20
1.9211326439412746
30
0
10
9.550956053445244
20
1.8545968410756972
30
0
10
9.6167471950922163
20
1.7819320413052573
30
0
10
9.6822476258352843
20
1.7215890438028434
30
0
10
9.747245788234947
20
1.6892129617642775
30
0
10
9.8116035753965107
20
1.6949407815426429
30
0
10
9.8752373033244965
20
1.7449445272531845
30
0
10
9.92553196982103
20
1.8227997668281415
30
0
10
9.9629023288932554
20
1.9029423686233349
30
0
10
9.9876600801651669
20
1.9660364752168566
30
0
10
10
20
2
30
0
0
ENDSEC
0
SECTION
2
OBJECTS
0
DICTIONARY
5
C
100
AcDbDictionary
3
ACAD_GROUP
350
D
3
ACAD_MLINESTYLE
350
17
0
DICTIONARY
5
D
100
AcDbDictionary
0
DICTIONARY
5
1A
330
C
100
AcDbDictionary
0
DICTIONARY
5
17
100
AcDbDictionary
0
ENDSEC
0
EOF
