0
SECTION
2
HEADER
9
$INSUNITS
70
4
9
$ACADVER
1
AC1014
9
$HANDSEED
5
FFFF
0
ENDSEC
0
SECTION
2
TABLES
0
TABLE
2
VPORT
5
8
100
AcDbSymbolTable
0
ENDTAB
0
TABLE
2
LTYPE
5
5
100
AcDbSymbolTable
0
LTYPE
5
14
100
AcDbSymbolTableRecord
100
AcDbLinetypeTableRecord
2
BYBLOCK
70
0
0
LTYPE
5
15
100
AcDbSymbolTableRecord
100
AcDbLinetypeTableRecord
2
BYLAYER
70
0
0
ENDTAB
0
TABLE
2
LAYER
5
2
100
AcDbSymbolTable
70
2
0
LAYER
5
50
100
AcDbSymbolTableRecord
100
AcDbLayerTableRecord
2
0
70
0
6
CONTINUOUS
0
ENDTAB
0
TABLE
2
STYLE
5
3
100
AcDbSymbolTable
70
1
0
STYLE
5
11
100
AcDbSymbolTableRecord
100
AcDbTextStyleTableRecord
2
STANDARD
70
0
0
ENDTAB
0
TABLE
2
VIEW
5
6
100
AcDbSymbolTable
70
0
0
ENDTAB
0
TABLE
2
UCS
5
7
100
AcDbSymbolTable
70
0
0
ENDTAB
0
TABLE
2
APPID
5
9
100
AcDbSymbolTable
70
2
0
APPID
5
12
100
AcDbSymbolTableRecord
100
AcDbRegAppTableRecord
2
ACAD
70
0
0
ENDTAB
0
TABLE
2
DIMSTYLE
5
A
100
AcDbSymbolTable
70
1
0
ENDTAB
0
TABLE
2
BLOCK_RECORD
5
1
100
AcDbSymbolTable
70
1
0
BLOCK_RECORD
5
1F
100
AcDbSymbolTableRecord
100
AcDbBlockTableRecord
2
*MODEL_SPACE
0
BLOCK_RECORD
5
1B
100
AcDbSymbolTableRecord
100
AcDbBlockTableRecord
2
*PAPER_SPACE
0
ENDTAB
0
ENDSEC
0
SECTION
2
BLOCKS
0
BLOCK
5
20
100
AcDbEntity
100
AcDbBlockBegin
2
*MODEL_SPACE
0
ENDBLK
5
21
100
AcDbEntity
100
AcDbBlockEnd
0
BLOCK
5
1C
100
AcDbEntity
100
AcDbBlockBegin
2
*PAPER_SPACE
0
ENDBLK
5
1D
100
AcDbEntity
100
AcDbBlockEnd
0
ENDSEC
0
SECTION
2
ENTITIES
0
SPLINE
5
100
100
AcDbEntity
8
0
100
AcDbSpline
70
4
71
5
72
16
73
10
74
0
42
0.000000001
43
0.0000000001
44
0.0000000001
40
0
40
0
40
0
40
0
40
0
40
0
40
0.20000000000000001
40
0.40000000000000002
40
0.60000000000000009
40
0.80000000000000004
40
1
40
1
40
1
40
1
40
1
40
1
41
1
41
1
41
1
41
1
41
1
41
1
41
1
41
1
41
1
41
1
10
0
20
0
30
0
10
0
20
0.080000000000033267
30
0
10
0
20
0.24000000000008476
30
0
10
0
20
0.48000000000011728
30
0
10
0
20
0.80000000000008786
30
0
10
0
20
1.2000000000000053
30
0
10
0
20
1.5199999999999583
30
0
10
0
20
1.7599999999999643
30
0
10
0
20
1.9199999999999853
30
0
10
0
20
2
30
0
0
SPLINE
5
101
100
AcDbEntity
8
0
100
AcDbSpline
70
4
71
5
72
16
73
10
74
0
42
0.000000001
43
0.0000000001
44
0.0000000001
40
0
40
0
40
0
40
0
40
0
40
0
40
0.20000000000000001
40
0.40000000000000002
40
0.60000000000000009
40
0.80000000000000004
40
1
40
1
40
1
40
1
40
1
40
1
41
1
41
1
41
1
41
1
41
1
41
1
41
1
41
1
41
1
41
1
10
10
20
0
30
0
10
9.9999999999997495
20
0.080000000000033267
30
0
10
9.9999999999993197
20
0.24000000000008476
30
0
10
9.9999999999989129
20
0.48000000000011728
30
0
10
9.9999999999987672
20
0.80000000000008786
30
0
10
9.9999999999990248
20
1.2000000000000053
30
0
10
9.9999999999993889
20
1.5199999999999583
30
0
10
9.9999999999996998
20
1.7599999999999643
30
0
10
9.9999999999999005
20
1.9199999999999853
30
0
10
10
20
2
30
0
0
SPLINE
5
102
100
AcDbEntity
8
0
100
AcDbSpline
70
4
71
5
72
16
73
10
74
0
42
0.000000001
43
0.0000000001
44
0.0000000001
40
0
40
0
40
0
40
0
40
0
40
0
40
0.20000000000000001
40
0.40000000000000002
40
0.60000000000000009
40
0.80000000000000004
40
1
40
1
40
1
40
1
40
1
40
1
41
1
41
1
41
1
41
1
41
1
41
1
41
1
41
1
41
1
41
1
10
0
20
1
30
0
10
0.40000000000047375
20
0.99999999999987343
30
0
10
1.2000000000012774
20
0.99999999999965183
30
0
10
2.4000000000020547
20
0.99999999999941747
30
0
10
4.0000000000023546
20
0.99999999999928091
30
0
10
6.0000000000019584
20
0.99999999999933376
30
0
10
7.6000000000012928
20
0.99999999999951594
30
0
10
8.800000000000697
20
0.99999999999972888
30
0
10
9.6000000000002395
20
0.99999999999990408
30
0
10
10
20
1
30
0
0
SPLINE
5
103
100
AcDbEntity
8
0
100
AcDbSpline
70
4
71
5
72
111
73
105
74
0
42
0.000000001
43
0.0000000001
44
0.0000000001
40
0
40
0
40
0
40
0
40
0
40
0
40
0.01
40
0.02
40
0.029999999999999999
40
0.040000000000000001
40
0.050000000000000003
40
0.060000000000000005
40
0.070000000000000007
40
0.080000000000000002
40
0.089999999999999997
40
0.099999999999999992
40
0.10999999999999999
40
0.11999999999999998
40
0.12999999999999998
40
0.13999999999999999
40
0.14999999999999999
40
0.16
40
0.17000000000000001
40
0.18000000000000002
40
0.19000000000000003
40
0.20000000000000004
40
0.21000000000000005
40
0.22000000000000006
40
0.23000000000000007
40
0.24000000000000007
40
0.25000000000000006
40
0.26000000000000006
40
0.27000000000000007
40
0.28000000000000008
40
0.29000000000000009
40
0.3000000000000001
40
0.31000000000000011
40
0.32000000000000012
40
0.33000000000000013
40
0.34000000000000014
40
0.35000000000000014
40
0.36000000000000015
40
0.37000000000000016
40
0.38000000000000017
40
0.39000000000000018
40
0.40000000000000019
40
0.4100000000000002
40
0.42000000000000021
40
0.43000000000000022
40
0.44000000000000022
40
0.45000000000000023
40
0.46000000000000024
40
0.47000000000000025
40
0.48000000000000026
40
0.49000000000000027
40
0.50000000000000022
40
0.51000000000000023
40
0.52000000000000024
40
0.53000000000000025
40
0.54000000000000026
40
0.55000000000000027
40
0.56000000000000028
40
0.57000000000000028
40
0.58000000000000029
40
0.5900000000000003
40
0.60000000000000031
40
0.61000000000000032
40
0.62000000000000033
40
0.63000000000000034
40
0.64000000000000035
40
0.65000000000000036
40
0.66000000000000036
40
0.67000000000000037
40
0.68000000000000038
40
0.69000000000000039
40
0.7000000000000004
40
0.71000000000000041
40
0.72000000000000042
40
0.73000000000000043
40
0.74000000000000044
40
0.75000000000000044
40
0.76000000000000045
40
0.77000000000000046
40
0.78000000000000047
40
0.79000000000000048
40
0.80000000000000049
40
0.8100000000000005
40
0.82000000000000051
40
0.83000000000000052
40
0.84000000000000052
40
0.85000000000000053
40
0.86000000000000054
40
0.87000000000000055
40
0.88000000000000056
40
0.89000000000000057
40
0.90000000000000058
40
0.91000000000000059
40
0.9200000000000006
40
0.9300000000000006
40
0.94000000000000061
40
0.95000000000000062
40
0.96000000000000063
40
0.97000000000000064
40
0.98000000000000065
40
0.99000000000000066
40
1
40
1
40
1
40
1
40
1
40
1
41
1
41
1
41
1
41
1
41
1
41
1
41
1
41
1
41
1
41
1
41
1
41
1
41
1
41
1
41
1
41
1
41
1
41
1
41
1
41
1
41
1
41
1
41
1
41
1
41
1
41
1
41
1
41
1
41
1
41
1
41
1
41
1
41
1
41
1
41
1
41
1
41
1
41
1
41
1
41
1
41
1
41
1
41
1
41
1
41
1
41
1
41
1
41
1
41
1
41
1
41
1
41
1
41
1
41
1
41
1
41
1
41
1
41
1
41
1
41
1
41
1
41
1
41
1
41
1
41
1
41
1
41
1
41
1
41
1
41
1
41
1
41
1
41
1
41
1
41
1
41
1
41
1
41
1
41
1
41
1
41
1
41
1
41
1
41
1
41
1
41
1
41
1
41
1
41
1
41
1
41
1
41
1
41
1
41
1
41
1
41
1
41
1
41
1
41
1
41
1
41
1
41
1
41
1
41
1
41
1
10
0
20
0
30
0
10
0.018668725191138803
20
0.017991508905209553
30
0
10
0.056150286233254583
20
0.052519724547047841
30
0
10
0.11280495727490807
20
0.099947624057972778
30
0
10
0.18920934008149976
20
0.15445470587621438
30
0
10
0.28614014509728775
20
0.20804808104572464
30
0
10
0.38444713542511755
20
0.24714718947080783
30
0
10
0.4840302355340893
20
0.27185021376131985
30
0
10
0.58472318506911225
20
0.28234106579647122
30
0
10
0.68627156230124076
20
0.27887662899675725
30
0
10
0.78836716253943528
20
0.26215876849170622
30
0
10
0.89069184014928093
20
0.23376394158638406
30
0
10
0.99295851910745203
20
0.19657011451771997
30
0
10
1.0949522971365804
20
0.15514720358811557
30
0
10
1.1965745426964884
20
0.11626791354362827
30
0
10
1.2978254625698407
20
0.087280748313017728
30
0
10
1.3987823779258866
20
0.074336883899685915
30
0
10
1.4995796063992486
20
0.080667906026274161
30
0
10
1.6003877332642513
20
0.10484403257486405
30
0
10
1.7013931346674087
20
0.13902685601946785
30
0
10
1.8027497660954892
20
0.17207379783814977
30
0
10
1.904530036282142
20
0.19268925925005326
30
0
10
2.0066776274512548
20
0.1925023320515673
30
0
10
2.1089555846550407
20
0.16930494198362453
30
0
10
2.2109070953664838
20
0.12986311274310078
30
0
10
2.3120072540162946
20
0.086180861335325903
30
0
10
2.4118066760835934
20
0.052088487386534793
30
0
10
2.5100735586575427
20
0.039782646894561374
30
0
10
2.6069473497394675
20
0.056218090306224697
30
0
10
2.7030564253681106
20
0.10004555268848273
30
0
10
2.7992707869054789
20
0.16419995926597239
30
0
10
2.896485238739924
20
0.23802548342653013
30
0
10
2.9953887876947487
20
0.30958500883675572
30
0
10
3.0962449099432638
20
0.3678656140604657
30
0
10
3.1986529246175497
20
0.40509473328642431
30
0
10
3.3017872771451278
20
0.41686343682116389
30
0
10
3.4046564974965028
20
0.4021792439898359
30
0
10
3.5063518116880048
20
0.36353236375144399
30
0
10
3.6063070959555299
20
0.30699163441559668
30
0
10
3.704534437399063
20
0.24219673208316836
30
0
10
3.8014480247139177
20
0.18035570173719701
30
0
10
3.897708925130392
20
0.13235547528879027
30
0
10
3.994061052889565
20
0.10680415740696625
30
0
10
4.0911735996176315
20
0.10816031575586679
30
0
10
4.1894735265270162
20
0.1346621018087116
30
0
10
4.2891512456917713
20
0.18005821293639815
30
0
10
4.3901764426166823
20
0.23554351388457131
30
0
10
4.4923090045075735
20
0.29163926850894722
30
0
10
4.5951143281816815
20
0.34004791681852503
30
0
10
4.6979699670667259
20
0.37564852842770385
30
0
10
4.8002033172178846
20
0.39595284219906129
30
0
10
4.9012387012518399
20
0.40037507728294508
30
0
10
5.0007410119801499
20
0.38957083070924958
30
0
10
5.0987611610853936
20
0.36474738630727799
30
0
10
5.1958803116383088
20
0.32698840993245859
30
0
10
5.2929536189102153
20
0.27775253315627974
30
0
10
5.3908584641553308
20
0.21935824176075383
30
0
10
5.4902350115340504
20
0.15549802059048967
30
0
10
5.5912438562877798
20
0.091686341198893226
30
0
10
5.6932787112299854
20
0.035883304769754626
30
0
10
5.7952658394956664
20
-0.0031643715783579184
30
0
10
5.8960161918991751
20
-0.017781099143699568
30
0
10
5.9945635109116626
20
-0.0031817314478359156
30
0
10
6.0904970051549618
20
0.040765318723969581
30
0
10
6.1843273929081217
20
0.1075491435546502
30
0
10
6.2771786045618105
20
0.18637002846826473
30
0
10
6.3704461274460487
20
0.26469727347538896
30
0
10
6.4654519912842616
20
0.3308689731180548
30
0
10
6.5631369808978723
20
0.37640640363059641
30
0
10
6.6636464388559933
20
0.39912768532871118
30
0
10
6.766414919235368
20
0.40252646074828846
30
0
10
6.870506263938335
20
0.39323421902979294
30
0
10
6.9748836833970298
20
0.37901680189499826
30
0
10
7.0786866466405565
20
0.36669659420510764
30
0
10
7.1815616452707989
20
0.35973127564122742
30
0
10
7.2835921620193664
20
0.35844311503102411
30
0
10
7.385104251065755
20
0.36108491375903307
30
0
10
7.4865104509103588
20
0.36462935957001186
30
0
10
7.5881460234434268
20
0.36565875584258489
30
0
10
7.6900865851086913
20
0.36124928424927727
30
0
10
7.7922180848563629
20
0.34942514956879006
30
0
10
7.8943437811405932
20
0.32953507532647752
30
0
10
7.9962788527504607
20
0.30266663350481959
30
0
10
8.0979482113535948
20
0.27202545940513478
30
0
10
8.1994884729369826
20
0.24338666459722152
30
0
10
8.3011419678619731
20
0.22338829724043163
30
0
10
8.4031419934958897
20
0.21773394205770052
30
0
10
8.5056033030865379
20
0.22946016165727415
30
0
10
8.608405741465976
20
0.25710139593929587
30
0
10
8.7110935270339791
20
0.29310271089324358
30
0
10
8.8130494518309082
20
0.3266624447455162
30
0
10
8.9136586536724067
20
0.34640418913971993
30
0
10
9.0124714750211723
20
0.34303806260257463
30
0
10
9.1093779789076574
20
0.31219974857709226
30
0
10
9.2047450351130014
20
0.25671357689075097
30
0
10
9.2992530382951557
20
0.1842322539010236
30
0
10
9.3937627656918981
20
0.10533900679604952
30
0
10
9.4891685905851322
20
0.031443595726436672
30
0
10
9.5862627005638394
20
-0.027161203343802641
30
0
10
9.6855807919095191
20
-0.063504180719766448
30
0
10
9.7874404198878242
20
-0.07345265706573359
30
0
10
9.8710883477079321
20
-0.058640411450569918
30
0
10
9.9350626512264189
20
-0.034418869262298382
30
0
10
9.9782624991613176
20
-0.012444120945783146
30
0
10
10
20
0
30
0
0
SPLINE
5
104
100
AcDbEntity
8
0
100
AcDbSpline
70
4
71
5
72
111
73
105
74
0
42
0.000000001
43
0.0000000001
44
0.0000000001
40
0
40
0
40
0
40
0
40
0
40
0
40
0.01
40
0.02
40
0.029999999999999999
40
0.040000000000000001
40
0.050000000000000003
40
0.060000000000000005
40
0.070000000000000007
40
0.080000000000000002
40
0.089999999999999997
40
0.099999999999999992
40
0.10999999999999999
40
0.11999999999999998
40
0.12999999999999998
40
0.13999999999999999
40
0.14999999999999999
40
0.16
40
0.17000000000000001
40
0.18000000000000002
40
0.19000000000000003
40
0.20000000000000004
40
0.21000000000000005
40
0.22000000000000006
40
0.23000000000000007
40
0.24000000000000007
40
0.25000000000000006
40
0.26000000000000006
40
0.27000000000000007
40
0.28000000000000008
40
0.29000000000000009
40
0.3000000000000001
40
0.31000000000000011
40
0.32000000000000012
40
0.33000000000000013
40
0.34000000000000014
40
0.35000000000000014
40
0.36000000000000015
40
0.37000000000000016
40
0.38000000000000017
40
0.39000000000000018
40
0.40000000000000019
40
0.4100000000000002
40
0.42000000000000021
40
0.43000000000000022
40
0.44000000000000022
40
0.45000000000000023
40
0.46000000000000024
40
0.47000000000000025
40
0.48000000000000026
40
0.49000000000000027
40
0.50000000000000022
40
0.51000000000000023
40
0.52000000000000024
40
0.53000000000000025
40
0.54000000000000026
40
0.55000000000000027
40
0.56000000000000028
40
0.57000000000000028
40
0.58000000000000029
40
0.5900000000000003
40
0.60000000000000031
40
0.61000000000000032
40
0.62000000000000033
40
0.63000000000000034
40
0.64000000000000035
40
0.65000000000000036
40
0.66000000000000036
40
0.67000000000000037
40
0.68000000000000038
40
0.69000000000000039
40
0.7000000000000004
40
0.71000000000000041
40
0.72000000000000042
40
0.73000000000000043
40
0.74000000000000044
40
0.75000000000000044
40
0.76000000000000045
40
0.77000000000000046
40
0.78000000000000047
40
0.79000000000000048
40
0.80000000000000049
40
0.8100000000000005
40
0.82000000000000051
40
0.83000000000000052
40
0.84000000000000052
40
0.85000000000000053
40
0.86000000000000054
40
0.87000000000000055
40
0.88000000000000056
40
0.89000000000000057
40
0.90000000000000058
40
0.91000000000000059
40
0.9200000000000006
40
0.9300000000000006
40
0.94000000000000061
40
0.95000000000000062
40
0.96000000000000063
40
0.97000000000000064
40
0.98000000000000065
40
0.99000000000000066
40
1
40
1
40
1
40
1
40
1
40
1
41
1
41
1
41
1
41
1
41
1
41
1
41
1
41
1
41
1
41
1
41
1
41
1
41
1
41
1
41
1
41
1
41
1
41
1
41
1
41
1
41
1
41
1
41
1
41
1
41
1
41
1
41
1
41
1
41
1
41
1
41
1
41
1
41
1
41
1
41
1
41
1
41
1
41
1
41
1
41
1
41
1
41
1
41
1
41
1
41
1
41
1
41
1
41
1
41
1
41
1
41
1
41
1
41
1
41
1
41
1
41
1
41
1
41
1
41
1
41
1
41
1
41
1
41
1
41
1
41
1
41
1
41
1
41
1
41
1
41
1
41
1
41
1
41
1
41
1
41
1
41
1
41
1
41
1
41
1
41
1
41
1
41
1
41
1
41
1
41
1
41
1
41
1
41
1
41
1
41
1
41
1
41
1
41
1
41
1
41
1
41
1
41
1
41
1
41
1
41
1
41
1
41
1
41
1
41
1
41
1
10
0
20
2
30
0
10
0.019747169139251591
20
1.9997776811260273
30
0
10
0.059315380666021711
20
1.9977992475797022
30
0
10
0.11888931857921439
20
1.9902301864079572
30
0
10
0.19876454161705237
20
1.9709339875072616
30
0
10
0.29932373584897376
20
1.9320882030887423
30
0
10
0.4005261866605887
20
1.8803799548650919
30
0
10
0.5022277476908853
20
1.8195409081071834
30
0
10
0.60418707059307486
20
1.7558170561655864
30
0
10
0.70604304598096967
20
1.6985501965469334
30
0
10
0.80740094737017432
20
1.6578636789833032
30
0
10
0.90791734977809035
20
1.6423800208698582
30
0
10
1.0073836804930181
20
1.6569765621543453
30
0
10
1.1058146984364048
20
1.7004057882823091
30
0
10
1.2035228314161146
20
1.7633032560044906
30
0
10
1.3009886876979815
20
1.831779877645431
30
0
10
1.3987441513219898
20
1.8906696485045162
30
0
10
1.4972501042240904
20
1.9269242882446291
30
0
10
1.5967779439328695
20
1.9329048230776704
30
0
10
1.6972851391508921
20
1.9098343401164519
30
0
10
1.7985210228499122
20
1.8650550885864747
30
0
10
1.9001379415630624
20
1.8091427464929644
30
0
10
2.0017999165940532
20
1.7530856822737344
30
0
10
2.1032933605338395
20
1.7054145366519224
30
0
10
2.2046341743091151
20
1.6694155868239757
30
0
10
2.3059793282957202
20
1.6448208198617873
30
0
10
2.4075403438318812
20
1.6294511693696223
30
0
10
2.5094982799878167
20
1.6208328066804496
30
0
10
2.6119130841900828
20
1.6179231164647847
30
0
10
2.7146495344704746
20
1.6225091832410348
30
0
10
2.8174723484549307
20
1.6373109388326734
30
0
10
2.9201313600047967
20
1.6642579152323913
30
0
10
3.0224444362964471
20
1.7028559487487229
30
0
10
3.1243954811971224
20
1.748148166082435
30
0
10
3.2261830636564
20
1.78996195613051
30
0
10
3.3280852297195413
20
1.8168684434003626
30
0
10
3.430347142934389
20
1.8196019911593013
30
0
10
3.533071586503072
20
1.7942975619033896
30
0
10
3.6360801146071426
20
1.7467460837465683
30
0
10
3.738878790934193
20
1.6931439151628072
30
0
10
3.840850609369924
20
1.6533365530037993
30
0
10
3.9414084919258485
20
1.645307192478451
30
0
10
4.0401484036081339
20
1.679809859325655
30
0
10
4.1370400737990671
20
1.7533933078996573
30
0
10
4.2324686625868342
20
1.8475738695404202
30
0
10
4.3270476471537025
20
1.9373506816621564
30
0
10
4.4214841432878824
20
1.9976369762056703
30
0
10
4.5164285661443149
20
2.0101954994713465
30
0
10
4.6123181495136985
20
1.9711562736213786
30
0
10
4.7092614300309066
20
1.8959131300376302
30
0
10
4.807151783831916
20
1.8099084015787428
30
0
10
4.9057511942596124
20
1.7412183067573732
30
0
10
5.0047846084902234
20
1.7125386459601446
30
0
10
5.1040317977742067
20
1.7331981302369506
30
0
10
5.2034145041112048
20
1.7917877570821452
30
0
10
5.3029362283385248
20
1.8648679724477084
30
0
10
5.4026283301002316
20
1.9250049936074307
30
0
10
5.5024941630055233
20
1.9490080962932805
30
0
10
5.6024531058702598
20
1.9261948934644861
30
0
10
5.7022871954095775
20
1.8663382376942039
30
0
10
5.8017217939473547
20
1.7915523392394763
30
0
10
5.9005029915273166
20
1.728563990063434
30
0
10
5.9984766417039648
20
1.7008106051680969
30
0
10
6.0956658176746492
20
1.7206878648923465
30
0
10
6.1923516016471547
20
1.78151885746954
30
0
10
6.2889741133691599
20
1.8643219069432668
30
0
10
6.386032142216802
20
1.9447021563663114
30
0
10
6.4839806338071613
20
1.9998972114828084
30
0
10
6.5831352892168349
20
2.0152897287711067
30
0
10
6.6835576890463964
20
1.9923821630453142
30
0
10
6.7851037369948939
20
1.944518737958731
30
0
10
6.887500564972612
20
1.8904995046119413
30
0
10
6.9904140918365361
20
1.8488295533863472
30
0
10
7.0935189063430055
20
1.8319405585212176
30
0
10
7.1965712785252398
20
1.8397824502677578
30
0
10
7.2994174737523831
20
1.8636033506804781
30
0
10
7.4019959361898424
20
1.8907359135518644
30
0
10
7.5043411745213593
20
1.9089723815371953
30
0
10
7.6065883272257722
20
1.9112157721915655
30
0
10
7.7089738780148291
20
1.8997283794755142
30
0
10
7.8117460382888435
20
1.8823377301031843
30
0
10
7.9150750065074451
20
1.8688413810701237
30
0
10
8.0189701097047354
20
1.8675057477184598
30
0
10
8.1231779020388544
20
1.8811375117715123
30
0
10
8.2271360529257684
20
1.9044945484380431
30
0
10
8.3301823212011232
20
1.9280328412788037
30
0
10
8.431737939378074
20
1.9409049173776158
30
0
10
8.5314830677850555
20
1.934030381203907
30
0
10
8.6295782304962607
20
1.9036522995792273
30
0
10
8.7267275006472591
20
1.8529989269842162
30
0
10
8.823880251737922
20
1.7895022586050959
30
0
10
8.9219997172946712
20
1.7228770789630574
30
0
10
9.0218182320382923
20
1.662946631102356
30
0
10
9.1235667460633145
20
1.6173697622572833
30
0
10
9.2268112007662921
20
1.5900466069926082
30
0
10
9.3307020758362409
20
1.5822975730772935
30
0
10
9.4341643751706901
20
1.5936214866768412
30
0
10
9.5360989310517095
20
1.6225747135473818
30
0
10
9.6356071133998942
20
1.667700223255471
30
0
10
9.7321098994712507
20
1.7280886197919472
30
0
10
9.8252547721317196
20
1.8031644172645831
30
0
10
9.89694648291802
20
1.8747482267970883
30
0
10
9.9491009027513329
20
1.934871640579656
30
0
10
9.9831531905130522
20
1.977813891743706
30
0
10
10
20
2
30
0
0
ENDSEC
0
SECTION
2
OBJECTS
0
DICTIONARY
5
C
100
AcDbDictionary
3
ACAD_GROUP
350
D
3
ACAD_MLINESTYLE
350
17
0
DICTIONARY
5
D
100
AcDbDictionary
0
DICTIONARY
5
1A
330
C
100
AcDbDictionary
0
DICTIONARY
5
17
100
AcDbDictionary
0
ENDSEC
0
EOF
