0
SECTION
2
HEADER
9
$INSUNITS
70
4
9
$ACADVER
1
AC1014
9
$HANDSEED
5
FFFF
0
ENDSEC
0
SECTION
2
TABLES
0
TABLE
2
VPORT
5
8
100
AcDbSymbolTable
0
ENDTAB
0
TABLE
2
LTYPE
5
5
100
AcDbSymbolTable
0
LTYPE
5
14
100
AcDbSymbolTableRecord
100
AcDbLinetypeTableRecord
2
BYBLOCK
70
0
0
LTYPE
5
15
100
AcDbSymbolTableRecord
100
AcDbLinetypeTableRecord
2
BYLAYER
70
0
0
ENDTAB
0
TABLE
2
LAYER
5
2
100
AcDbSymbolTable
70
2
0
LAYER
5
50
100
AcDbSymbolTableRecord
100
AcDbLayerTableRecord
2
0
70
0
6
CONTINUOUS
0
ENDTAB
0
TABLE
2
STYLE
5
3
100
AcDbSymbolTable
70
1
0
STYLE
5
11
100
AcDbSymbolTableRecord
100
AcDbTextStyleTableRecord
2
STANDARD
70
0
0
ENDTAB
0
TABLE
2
VIEW
5
6
100
AcDbSymbolTable
70
0
0
ENDTAB
0
TABLE
2
UCS
5
7
100
AcDbSymbolTable
70
0
0
ENDTAB
0
TABLE
2
APPID
5
9
100
AcDbSymbolTable
70
2
0
APPID
5
12
100
AcDbSymbolTableRecord
100
AcDbRegAppTableRecord
2
ACAD
70
0
0
ENDTAB
0
TABLE
2
DIMSTYLE
5
A
100
AcDbSymbolTable
70
1
0
ENDTAB
0
TABLE
2
BLOCK_RECORD
5
1
100
AcDbSymbolTable
70
1
0
BLOCK_RECORD
5
1F
100
AcDbSymbolTableRecord
100
AcDbBlockTableRecord
2
*MODEL_SPACE
0
BLOCK_RECORD
5
1B
100
AcDbSymbolTableRecord
100
AcDbBlockTableRecord
2
*PAPER_SPACE
0
ENDTAB
0
ENDSEC
0
SECTION
2
BLOCKS
0
BLOCK
5
20
100
AcDbEntity
100
AcDbBlockBegin
2
*MODEL_SPACE
0
ENDBLK
5
21
100
AcDbEntity
100
AcDbBlockEnd
0
BLOCK
5
1C
100
AcDbEntity
100
AcDbBlockBegin
2
*PAPER_SPACE
0
ENDBLK
5
1D
100
AcDbEntity
100
AcDbBlockEnd
0
ENDSEC
0
SECTION
2
ENTITIES
0
SPLINE
5
100
100
AcDbEntity
8
0
100
AcDbSpline
70
4
71
5
72
16
73
10
74
0
42
0.000000001
43
0.0000000001
44
0.0000000001
40
0
40
0
40
0
40
0
40
0
40
0
40
0.20000000000000001
40
0.40000000000000002
40
0.60000000000000009
40
0.80000000000000004
40
1
40
1
40
1
40
1
40
1
40
1
41
1
41
1
41
1
41
1
41
1
41
1
41
1
41
1
41
1
41
1
10
0
20
0
30
0
10
0
20
0.080000000000033267
30
0
10
0
20
0.24000000000008476
30
0
10
0
20
0.48000000000011728
30
0
10
0
20
0.80000000000008786
30
0
10
0
20
1.2000000000000053
30
0
10
0
20
1.5199999999999583
30
0
10
0
20
1.7599999999999643
30
0
10
0
20
1.9199999999999853
30
0
10
0
20
2
30
0
0
SPLINE
5
101
100
AcDbEntity
8
0
100
AcDbSpline
70
4
71
5
72
16
73
10
74
0
42
0.000000001
43
0.0000000001
44
0.0000000001
40
0
40
0
40
0
40
0
40
0
40
0
40
0.20000000000000001
40
0.40000000000000002
40
0.60000000000000009
40
0.80000000000000004
40
1
40
1
40
1
40
1
40
1
40
1
41
1
41
1
41
1
41
1
41
1
41
1
41
1
41
1
41
1
41
1
10
10
20
0
30
0
10
9.9999999999997495
20
0.080000000000033267
30
0
10
9.9999999999993197
20
0.24000000000008476
30
0
10
9.9999999999989129
20
0.48000000000011728
30
0
10
9.9999999999987672
20
0.80000000000008786
30
0
10
9.9999999999990248
20
1.2000000000000053
30
0
10
9.9999999999993889
20
1.5199999999999583
30
0
10
9.9999999999996998
20
1.7599999999999643
30
0
10
9.9999999999999005
20
1.9199999999999853
30
0
10
10
20
2
30
0
0
SPLINE
5
102
100
AcDbEntity
8
0
100
AcDbSpline
70
4
71
5
72
16
73
10
74
0
42
0.000000001
43
0.0000000001
44
0.0000000001
40
0
40
0
40
0
40
0
40
0
40
0
40
0.20000000000000001
40
0.40000000000000002
40
0.60000000000000009
40
0.80000000000000004
40
1
40
1
40
1
40
1
40
1
40
1
41
1
41
1
41
1
41
1
41
1
41
1
41
1
41
1
41
1
41
1
10
0
20
1
30
0
10
0.40000000000047375
20
0.99999999999987343
30
0
10
1.2000000000012774
20
0.99999999999965183
30
0
10
2.4000000000020547
20
0.99999999999941747
30
0
10
4.0000000000023546
20
0.99999999999928091
30
0
10
6.0000000000019584
20
0.99999999999933376
30
0
10
7.6000000000012928
20
0.99999999999951594
30
0
10
8.800000000000697
20
0.99999999999972888
30
0
10
9.6000000000002395
20
0.99999999999990408
30
0
10
10
20
1
30
0
0
SPLINE
5
103
100
AcDbEntity
8
0
100
AcDbSpline
70
4
71
5
72
111
73
105
74
0
42
0.000000001
43
0.0000000001
44
0.0000000001
40
0
40
0
40
0
40
0
40
0
40
0
40
0.01
40
0.02
40
0.029999999999999999
40
0.040000000000000001
40
0.050000000000000003
40
0.060000000000000005
40
0.070000000000000007
40
0.080000000000000002
40
0.089999999999999997
40
0.099999999999999992
40
0.10999999999999999
40
0.11999999999999998
40
0.12999999999999998
40
0.13999999999999999
40
0.14999999999999999
40
0.16
40
0.17000000000000001
40
0.18000000000000002
40
0.19000000000000003
40
0.20000000000000004
40
0.21000000000000005
40
0.22000000000000006
40
0.23000000000000007
40
0.24000000000000007
40
0.25000000000000006
40
0.26000000000000006
40
0.27000000000000007
40
0.28000000000000008
40
0.29000000000000009
40
0.3000000000000001
40
0.31000000000000011
40
0.32000000000000012
40
0.33000000000000013
40
0.34000000000000014
40
0.35000000000000014
40
0.36000000000000015
40
0.37000000000000016
40
0.38000000000000017
40
0.39000000000000018
40
0.40000000000000019
40
0.4100000000000002
40
0.42000000000000021
40
0.43000000000000022
40
0.44000000000000022
40
0.45000000000000023
40
0.46000000000000024
40
0.47000000000000025
40
0.48000000000000026
40
0.49000000000000027
40
0.50000000000000022
40
0.51000000000000023
40
0.52000000000000024
40
0.53000000000000025
40
0.54000000000000026
40
0.55000000000000027
40
0.56000000000000028
40
0.57000000000000028
40
0.58000000000000029
40
0.5900000000000003
40
0.60000000000000031
40
0.61000000000000032
40
0.62000000000000033
40
0.63000000000000034
40
0.64000000000000035
40
0.65000000000000036
40
0.66000000000000036
40
0.67000000000000037
40
0.68000000000000038
40
0.69000000000000039
40
0.7000000000000004
40
0.71000000000000041
40
0.72000000000000042
40
0.73000000000000043
40
0.74000000000000044
40
0.75000000000000044
40
0.76000000000000045
40
0.77000000000000046
40
0.78000000000000047
40
0.79000000000000048
40
0.80000000000000049
40
0.8100000000000005
40
0.82000000000000051
40
0.83000000000000052
40
0.84000000000000052
40
0.85000000000000053
40
0.86000000000000054
40
0.87000000000000055
40
0.88000000000000056
40
0.89000000000000057
40
0.90000000000000058
40
0.91000000000000059
40
0.9200000000000006
40
0.9300000000000006
40
0.94000000000000061
40
0.95000000000000062
40
0.96000000000000063
40
0.97000000000000064
40
0.98000000000000065
40
0.99000000000000066
40
1
40
1
40
1
40
1
40
1
40
1
41
1
41
1
41
1
41
1
41
1
41
1
41
1
41
1
41
1
41
1
41
1
41
1
41
1
41
1
41
1
41
1
41
1
41
1
41
1
41
1
41
1
41
1
41
1
41
1
41
1
41
1
41
1
41
1
41
1
41
1
41
1
41
1
41
1
41
1
41
1
41
1
41
1
41
1
41
1
41
1
41
1
41
1
41
1
41
1
41
1
41
1
41
1
41
1
41
1
41
1
41
1
41
1
41
1
41
1
41
1
41
1
41
1
41
1
41
1
41
1
41
1
41
1
41
1
41
1
41
1
41
1
41
1
41
1
41
1
41
1
41
1
41
1
41
1
41
1
41
1
41
1
41
1
41
1
41
1
41
1
41
1
41
1
41
1
41
1
41
1
41
1
41
1
41
1
41
1
41
1
41
1
41
1
41
1
41
1
41
1
41
1
41
1
41
1
41
1
41
1
41
1
41
1
41
1
41
1
41
1
10
0
20
0
30
0
10
0.018551224181784478
20
0.023690065370248835
30
0
10
0.055772886167207637
20
0.068584001439197323
30
0
10
0.1119630207897858
20
0.1284663925636611
30
0
10
0.1875985932614716
20
0.19338951011444228
30
0
10
0.28333188905580908
20
0.25001171977240094
30
0
10
0.38024224709444437
20
0.28312054489400174
30
0
10
0.47830547059371537
20
0.29479152127379904
30
0
10
0.57747996150031566
20
0.28845791948756266
30
0
10
0.67770377579660135
20
0.26939920193513478
30
0
10
0.77887922469402526
20
0.24402196227322015
30
0
10
0.88085539629673193
20
0.21884240624015963
30
0
10
0.98340922161078204
20
0.19954018434003923
30
0
10
1.0862319064053123
20
0.19004979489788115
30
0
10
1.188900431197758
20
0.19145692824734967
30
0
10
1.2909720949683801
20
0.20264626357292342
30
0
10
1.3920992680041289
20
0.22125839974120021
30
0
10
1.4921405483723373
20
0.2445531911768882
30
0
10
1.5912658117838343
20
0.27027695384567563
30
0
10
1.6900848037904765
20
0.2976220390296882
30
0
10
1.7894102116289239
20
0.32652940889194004
30
0
10
1.889993762819079
20
0.35686280476023952
30
0
10
1.9922666407892866
20
0.38761068420581302
30
0
10
2.0960903178002903
20
0.41611910515951434
30
0
10
2.2004690790569645
20
0.43719395921979565
30
0
10
2.3039404857122459
20
0.44455956135541252
30
0
10
2.4050145088673895
20
0.43248760299333899
30
0
10
2.5025934112954769
20
0.39735832162947876
30
0
10
2.5964034794013164
20
0.3392656323332145
30
0
10
2.6874119407474737
20
0.26356541740351558
30
0
10
2.7773312477441885
20
0.17909214217886046
30
0
10
2.8681502571700062
20
0.09645537902164715
30
0
10
2.9616299339064263
20
0.026250990175437885
30
0
10
3.0588727704296197
20
-0.022560719028261334
30
0
10
3.1597130668175994
20
-0.044676511436729086
30
0
10
3.2628672455924228
20
-0.038769029526032277
30
0
10
3.366543790043143
20
-0.0067323317650377513
30
0
10
3.4689367382654064
20
0.046726133698554842
30
0
10
3.568716908518117
20
0.11467969077256333
30
0
10
3.6656513472686458
20
0.18838188439128201
30
0
10
3.7604790086232738
20
0.25834732560949747
30
0
10
3.8544569182730637
20
0.3156666056488639
30
0
10
3.9489967433699924
20
0.35332610796594399
30
0
10
4.0452989260697372
20
0.36735266058148719
30
0
10
4.1439021419367679
20
0.3584609146991164
30
0
10
4.2445953898428774
20
0.33186802600725934
30
0
10
4.3467422526232911
20
0.29510274802927272
30
0
10
4.4495056689301906
20
0.25626292065498463
30
0
10
4.5520922853432619
20
0.22226500924808423
30
0
10
4.6540392965611304
20
0.19667091473585729
30
0
10
4.7552806007046264
20
0.17938731023930818
30
0
10
4.8559898173369369
20
0.16820681786683434
30
0
10
4.9564814970049174
20
0.15988571644509603
30
0
10
5.0570962745035768
20
0.15131423553608481
30
0
10
5.1580740060915344
20
0.14088476818869466
30
0
10
5.2595145257049687
20
0.1287427120158943
30
0
10
5.3614103303527347
20
0.11615637566368175
30
0
10
5.4636570503792861
20
0.10514048866946756
30
0
10
5.5660751056432325
20
0.09798813181741961
30
0
10
5.6684212803114411
20
0.096811075085190407
30
0
10
5.7704300643466135
20
0.10323630992231213
30
0
10
5.8718673581687133
20
0.11821767641266506
30
0
10
5.9725836889790873
20
0.14178924108223401
30
0
10
6.0725604340442807
20
0.17288922158043299
30
0
10
6.1719775570272173
20
0.20903351192352171
30
0
10
6.2711616843970752
20
0.24676572771489866
30
0
10
6.3704925952662386
20
0.28236672528568613
30
0
10
6.4703198404413822
20
0.3125135890417603
30
0
10
6.5708831143194804
20
0.33488215529674897
30
0
10
6.672210657318538
20
0.34897162248172597
30
0
10
6.7741434135266996
20
0.35571034071324126
30
0
10
6.8764096049255912
20
0.35659211431926285
30
0
10
6.9786840211569352
20
0.35292619441674988
30
0
10
7.0806509889469122
20
0.3451277370738815
30
0
10
7.1820726104953287
20
0.33176352175762802
30
0
10
7.2828026911789916
20
0.31038893515831012
30
0
10
7.3827856860960894
20
0.2788076804571934
30
0
10
7.4820618829084573
20
0.23624628276336851
30
0
10
7.5807677091745473
20
0.18443160513883475
30
0
10
7.6791442462228874
20
0.12905893703583737
30
0
10
7.7774922627991918
20
0.078204166454765273
30
0
10
7.8761176188997943
20
0.040145721892789907
30
0
10
7.9752776156356342
20
0.021287787811203052
30
0
10
8.0751322879698666
20
0.024273261950872125
30
0
10
8.1756797390073253
20
0.045414039056197855
30
0
10
8.2767886992723021
20
0.076336898994499455
30
0
10
8.3782604981280269
20
0.10689669367924626
30
0
10
8.4798828671944175
20
0.12775938450642088
30
0
10
8.5814833019477632
20
0.13290999571106621
30
0
10
8.6829925946337312
20
0.12274825079833551
30
0
10
8.7844255799352293
20
0.10258039177822864
30
0
10
8.8858425473628024
20
0.080048328208701003
30
0
10
8.9873166565793845
20
0.062876938151911685
30
0
10
9.0889003871493355
20
0.056598848719425512
30
0
10
9.1905883180664318
20
0.061995044643666508
30
0
10
9.2923295250676698
20
0.076106336646991818
30
0
10
9.3940467329980333
20
0.093725515990909336
30
0
10
9.4956531517377698
20
0.10872533361357153
30
0
10
9.5970700192375737
20
0.1154347883372146
30
0
10
9.6982445489079474
20
0.1100490453940273
30
0
10
9.7991453293580832
20
0.090302462421764623
30
0
10
9.8796344381736176
20
0.06211199876586268
30
0
10
9.9398687478803396
20
0.033831405273283363
30
0
10
9.9799660642671757
20
0.011805781190641575
30
0
10
10
20
0
30
0
0
SPLINE
5
104
100
AcDbEntity
8
0
100
AcDbSpline
70
4
71
5
72
111
73
105
74
0
42
0.000000001
43
0.0000000001
44
0.0000000001
40
0
40
0
40
0
40
0
40
0
40
0
40
0.01
40
0.02
40
0.029999999999999999
40
0.040000000000000001
40
0.050000000000000003
40
0.060000000000000005
40
0.070000000000000007
40
0.080000000000000002
40
0.089999999999999997
40
0.099999999999999992
40
0.10999999999999999
40
0.11999999999999998
40
0.12999999999999998
40
0.13999999999999999
40
0.14999999999999999
40
0.16
40
0.17000000000000001
40
0.18000000000000002
40
0.19000000000000003
40
0.20000000000000004
40
0.21000000000000005
40
0.22000000000000006
40
0.23000000000000007
40
0.24000000000000007
40
0.25000000000000006
40
0.26000000000000006
40
0.27000000000000007
40
0.28000000000000008
40
0.29000000000000009
40
0.3000000000000001
40
0.31000000000000011
40
0.32000000000000012
40
0.33000000000000013
40
0.34000000000000014
40
0.35000000000000014
40
0.36000000000000015
40
0.37000000000000016
40
0.38000000000000017
40
0.39000000000000018
40
0.40000000000000019
40
0.4100000000000002
40
0.42000000000000021
40
0.43000000000000022
40
0.44000000000000022
40
0.45000000000000023
40
0.46000000000000024
40
0.47000000000000025
40
0.48000000000000026
40
0.49000000000000027
40
0.50000000000000022
40
0.51000000000000023
40
0.52000000000000024
40
0.53000000000000025
40
0.54000000000000026
40
0.55000000000000027
40
0.56000000000000028
40
0.57000000000000028
40
0.58000000000000029
40
0.5900000000000003
40
0.60000000000000031
40
0.61000000000000032
40
0.62000000000000033
40
0.63000000000000034
40
0.64000000000000035
40
0.65000000000000036
40
0.66000000000000036
40
0.67000000000000037
40
0.68000000000000038
40
0.69000000000000039
40
0.7000000000000004
40
0.71000000000000041
40
0.72000000000000042
40
0.73000000000000043
40
0.74000000000000044
40
0.75000000000000044
40
0.76000000000000045
40
0.77000000000000046
40
0.78000000000000047
40
0.79000000000000048
40
0.80000000000000049
40
0.8100000000000005
40
0.82000000000000051
40
0.83000000000000052
40
0.84000000000000052
40
0.85000000000000053
40
0.86000000000000054
40
0.87000000000000055
40
0.88000000000000056
40
0.89000000000000057
40
0.90000000000000058
40
0.91000000000000059
40
0.9200000000000006
40
0.9300000000000006
40
0.94000000000000061
40
0.95000000000000062
40
0.96000000000000063
40
0.97000000000000064
40
0.98000000000000065
40
0.99000000000000066
40
1
40
1
40
1
40
1
40
1
40
1
41
1
41
1
41
1
41
1
41
1
41
1
41
1
41
1
41
1
41
1
41
1
41
1
41
1
41
1
41
1
41
1
41
1
41
1
41
1
41
1
41
1
41
1
41
1
41
1
41
1
41
1
41
1
41
1
41
1
41
1
41
1
41
1
41
1
41
1
41
1
41
1
41
1
41
1
41
1
41
1
41
1
41
1
41
1
41
1
41
1
41
1
41
1
41
1
41
1
41
1
41
1
41
1
41
1
41
1
41
1
41
1
41
1
41
1
41
1
41
1
41
1
41
1
41
1
41
1
41
1
41
1
41
1
41
1
41
1
41
1
41
1
41
1
41
1
41
1
41
1
41
1
41
1
41
1
41
1
41
1
41
1
41
1
41
1
41
1
41
1
41
1
41
1
41
1
41
1
41
1
41
1
41
1
41
1
41
1
41
1
41
1
41
1
41
1
41
1
41
1
41
1
41
1
41
1
41
1
41
1
10
0
20
2
30
0
10
0.020427137910548138
20
1.9976537800965848
30
0
10
0.061278948381473297
20
1.9934349903120223
30
0
10
0.12254926911279537
20
1.9885278313687076
30
0
10
0.20422822841544994
20
1.9848268113616583
30
0
10
0.3062960914054364
20
1.9845808205692124
30
0
10
0.40831446559783391
20
1.9876296442613177
30
0
10
0.51024636034791926
20
1.9918198387702593
30
0
10
0.61202945291100308
20
1.9935110654945847
30
0
10
0.7135721887045845
20
1.98737517660539
30
0
10
0.81477818169401484
20
1.968195197991617
30
0
10
0.91556917285601735
20
1.932559338692911
30
0
10
1.015906869516682
20
1.8804840601818695
30
0
10
1.1158191984596766
20
1.8173305229837857
30
0
10
1.2154131636228696
20
1.7548268528200548
30
0
10
1.314812286374238
20
1.706997064149808
30
0
10
1.4141014664369416
20
1.6866268861831397
30
0
10
1.5132721425947204
20
1.7016651089349519
30
0
10
1.6121598284116931
20
1.7513147322723632
30
0
10
1.7104066659772088
20
1.8232341633230806
30
0
10
1.807605775559008
20
1.8988951800386409
30
0
10
1.9034261466669091
20
1.9580773115174033
30
0
10
1.9977463232376627
20
1.9837221827613474
30
0
10
2.0907815106715528
20
1.9665672859852892
30
0
10
2.183221654805485
20
1.910065135425407
30
0
10
2.2760175587376099
20
1.8265387442272676
30
0
10
2.3701646012830411
20
1.7332037220154581
30
0
10
2.466475360669182
20
1.648098166190282
30
0
10
2.5653842428449165
20
1.5863822063486541
30
0
10
2.6666689019022978
20
1.5556448297091312
30
0
10
2.7695655760271198
20
1.5559673249231705
30
0
10
2.8730709085986983
20
1.5823015347781
30
0
10
2.9761946844252818
20
1.626133289963569
30
0
10
3.0782109484200304
20
1.6773998874811618
30
0
10
3.1789664078294626
20
1.7264009909771041
30
0
10
3.2787791782613143
20
1.7649700078720854
30
0
10
3.3782183379223785
20
1.787342384390048
30
0
10
3.4779180237099308
20
1.7912138716850754
30
0
10
3.5783903009844513
20
1.7785309816461961
30
0
10
3.6798044935241316
20
1.7568907746929412
30
0
10
3.7820281668133005
20
1.7371400268060602
30
0
10
3.8847386689734087
20
1.7300340424944227
30
0
10
3.9875116260787715
20
1.7431120493854466
30
0
10
4.0899164886205499
20
1.7777109666237114
30
0
10
4.1916157196966015
20
1.8253055271083065
30
0
10
4.2923817662742101
20
1.8713656358855273
30
0
10
4.3921020225715424
20
1.9001412055344933
30
0
10
4.4907888740971806
20
1.8992226782060728
30
0
10
4.5885861194178288
20
1.8639540432665391
30
0
10
4.6857812135161447
20
1.8025621857669314
30
0
10
4.782753719911959
20
1.7315121842958683
30
0
10
4.8799183096754009
20
1.6700200936376486
30
0
10
4.9776686673110468
20
1.6346382837639566
30
0
10
5.0763234466673621
20
1.634339083598157
30
0
10
5.1760649839370751
20
1.6640116801215252
30
0
10
5.2769268534488987
20
1.7082931836885396
30
0
10
5.3787961569254268
20
1.7481276050172725
30
0
10
5.4814084669526491
20
1.7666163387568785
30
0
10
5.5843508616533111
20
1.7546770101417311
30
0
10
5.6870480514413648
20
1.7180632993641476
30
0
10
5.7888678355532184
20
1.6729762236772268
30
0
10
5.8892486272953111
20
1.6393757145290664
30
0
10
5.9878234853516075
20
1.6349262160833657
30
0
10
6.0845364595486355
20
1.6690526287005487
30
0
10
6.1797868780885068
20
1.7359491126247253
30
0
10
6.2742881339043191
20
1.8191794325211861
30
0
10
6.3688908150056447
20
1.8977504279150526
30
0
10
6.4644112137748699
20
1.9519521377323357
30
0
10
6.5614742407978781
20
1.9686322855181078
30
0
10
6.6603081873067591
20
1.948384182624038
30
0
10
6.7607645169569821
20
1.9037997014945311
30
0
10
6.8624620183670384
20
1.8528624921166887
30
0
10
6.9648959922410372
20
1.8135720647603146
30
0
10
7.0675538830012306
20
1.7986650303679494
30
0
10
7.1700480844687329
20
1.8087681915593823
30
0
10
7.2721388806437757
20
1.834002669658727
30
0
10
7.3736994417025548
20
1.8598244855710306
30
0
10
7.4746991196253276
20
1.8717293888727515
30
0
10
7.5751794034826228
20
1.8599789655099337
30
0
10
7.6752325767679421
20
1.8254709348992426
30
0
10
7.7749827107692324
20
1.7777164881316543
30
0
10
7.8745688321207759
20
1.7302919788437319
30
0
10
7.9741266967426405
20
1.6969849900417446
30
0
10
8.0737725550350188
20
1.6879934566362744
30
0
10
8.173582458337064
20
1.7052231229669712
30
0
10
8.2735961408472178
20
1.7435021847151693
30
0
10
8.3738288540803705
20
1.7937680007230732
30
0
10
8.4742808985820766
20
1.8456859620086794
30
0
10
8.5749473318530409
20
1.8903008785265072
30
0
10
8.6758295752875778
20
1.9231962973954433
30
0
10
8.7769335496605478
20
1.9440965464907491
30
0
10
8.8782633955024721
20
1.9552894053071177
30
0
10
8.9798164356192061
20
1.9604126224103195
30
0
10
9.08157813293092
20
1.9631603290414654
30
0
10
9.1835156950034875
20
1.9658400148355593
30
0
10
9.2855828574516721
20
1.9694470006787987
30
0
10
9.3877272760688371
20
1.9741087190711677
30
0
10
9.489897122016167
20
1.9794048848822443
30
0
10
9.5920477707240543
20
1.9847296788010214
30
0
10
9.6941490942394442
20
1.9896615069350299
30
0
10
9.7961831822418688
20
1.9939535012477991
30
0
10
9.8777494856429957
20
1.9967750039195948
30
0
10
9.9388885935129263
20
1.9985285284787375
30
0
10
9.9796321693648373
20
1.9995363702292841
30
0
10
10
20
2
30
0
0
ENDSEC
0
SECTION
2
OBJECTS
0
DICTIONARY
5
C
100
AcDbDictionary
3
ACAD_GROUP
350
D
3
ACAD_MLINESTYLE
350
17
0
DICTIONARY
5
D
100
AcDbDictionary
0
DICTIONARY
5
1A
330
C
100
AcDbDictionary
0
DICTIONARY
5
17
100
AcDbDictionary
0
ENDSEC
0
EOF
