0
SECTION
2
HEADER
9
$INSUNITS
70
4
9
$ACADVER
1
AC1014
9
$HANDSEED
5
FFFF
0
ENDSEC
0
SECTION
2
TABLES
0
TABLE
2
VPORT
5
8
100
AcDbSymbolTable
0
ENDTAB
0
TABLE
2
LTYPE
5
5
100
AcDbSymbolTable
0
LTYPE
5
14
100
AcDbSymbolTableRecord
100
AcDbLinetypeTableRecord
2
BYBLOCK
70
0
0
LTYPE
5
15
100
AcDbSymbolTableRecord
100
AcDbLinetypeTableRecord
2
BYLAYER
70
0
0
ENDTAB
0
TABLE
2
LAYER
5
2
100
AcDbSymbolTable
70
2
0
LAYER
5
50
100
AcDbSymbolTableRecord
100
AcDbLayerTableRecord
2
0
70
0
6
CONTINUOUS
0
ENDTAB
0
TABLE
2
STYLE
5
3
100
AcDbSymbolTable
70
1
0
STYLE
5
11
100
AcDbSymbolTableRecord
100
AcDbTextStyleTableRecord
2
STANDARD
70
0
0
ENDTAB
0
TABLE
2
VIEW
5
6
100
AcDbSymbolTable
70
0
0
ENDTAB
0
TABLE
2
UCS
5
7
100
AcDbSymbolTable
70
0
0
ENDTAB
0
TABLE
2
APPID
5
9
100
AcDbSymbolTable
70
2
0
APPID
5
12
100
AcDbSymbolTableRecord
100
AcDbRegAppTableRecord
2
ACAD
70
0
0
ENDTAB
0
TABLE
2
DIMSTYLE
5
A
100
AcDbSymbolTable
70
1
0
ENDTAB
0
TABLE
2
BLOCK_RECORD
5
1
100
AcDbSymbolTable
70
1
0
BLOCK_RECORD
5
1F
100
AcDbSymbolTableRecord
100
AcDbBlockTableRecord
2
*MODEL_SPACE
0
BLOCK_RECORD
5
1B
100
AcDbSymbolTableRecord
100
AcDbBlockTableRecord
2
*PAPER_SPACE
0
ENDTAB
0
ENDSEC
0
SECTION
2
BLOCKS
0
BLOCK
5
20
100
AcDbEntity
100
AcDbBlockBegin
2
*MODEL_SPACE
0
ENDBLK
5
21
100
AcDbEntity
100
AcDbBlockEnd
0
BLOCK
5
1C
100
AcDbEntity
100
AcDbBlockBegin
2
*PAPER_SPACE
0
ENDBLK
5
1D
100
AcDbEntity
100
AcDbBlockEnd
0
ENDSEC
0
SECTION
2
ENTITIES
0
SPLINE
5
100
100
AcDbEntity
8
0
100
AcDbSpline
70
4
71
5
72
16
73
10
74
0
42
0.000000001
43
0.0000000001
44
0.0000000001
40
0
40
0
40
0
40
0
40
0
40
0
40
0.20000000000000001
40
0.40000000000000002
40
0.60000000000000009
40
0.80000000000000004
40
1
40
1
40
1
40
1
40
1
40
1
41
1
41
1
41
1
41
1
41
1
41
1
41
1
41
1
41
1
41
1
10
0
20
0
30
0
10
0
20
0.12000000000003158
30
0
10
0
20
0.36000000000007704
30
0
10
0
20
0.72000000000009301
30
0
10
0
20
1.2000000000000313
30
0
10
0
20
1.7999999999999146
30
0
10
0
20
2.2799999999998684
30
0
10
0
20
2.6399999999999042
30
0
10
0
20
2.8799999999999617
30
0
10
0
20
3
30
0
0
SPLINE
5
101
100
AcDbEntity
8
0
100
AcDbSpline
70
4
71
5
72
16
73
10
74
0
42
0.000000001
43
0.0000000001
44
0.0000000001
40
0
40
0
40
0
40
0
40
0
40
0
40
0.20000000000000001
40
0.40000000000000002
40
0.60000000000000009
40
0.80000000000000004
40
1
40
1
40
1
40
1
40
1
40
1
41
1
41
1
41
1
41
1
41
1
41
1
41
1
41
1
41
1
41
1
10
10
20
0
30
0
10
9.9999999999997495
20
0.12000000000003158
30
0
10
9.9999999999993197
20
0.36000000000007704
30
0
10
9.9999999999989129
20
0.72000000000009301
30
0
10
9.9999999999987672
20
1.2000000000000313
30
0
10
9.9999999999990248
20
1.7999999999999146
30
0
10
9.9999999999993889
20
2.2799999999998684
30
0
10
9.9999999999996998
20
2.6399999999999042
30
0
10
9.9999999999999005
20
2.8799999999999617
30
0
10
10
20
3
30
0
0
SPLINE
5
102
100
AcDbEntity
8
0
100
AcDbSpline
70
4
71
5
72
16
73
10
74
0
42
0.000000001
43
0.0000000001
44
0.0000000001
40
0
40
0
40
0
40
0
40
0
40
0
40
0.20000000000000001
40
0.40000000000000002
40
0.60000000000000009
40
0.80000000000000004
40
1
40
1
40
1
40
1
40
1
40
1
41
1
41
1
41
1
41
1
41
1
41
1
41
1
41
1
41
1
41
1
10
0
20
1.5
30
0
10
0.40000000000047375
20
1.499999999999694
30
0
10
1.2000000000012774
20
1.4999999999991638
30
0
10
2.4000000000020547
20
1.4999999999986278
30
0
10
4.0000000000023546
20
1.4999999999983737
30
0
10
6.0000000000019584
20
1.4999999999985913
30
0
10
7.6000000000012928
20
1.4999999999990359
30
0
10
8.800000000000697
20
1.4999999999994786
30
0
10
9.6000000000002395
20
1.4999999999998188
30
0
10
10
20
1.5
30
0
0
SPLINE
5
103
100
AcDbEntity
8
0
100
AcDbSpline
70
4
71
5
72
61
73
55
74
0
42
0.000000001
43
0.0000000001
44
0.0000000001
40
0
40
0
40
0
40
0
40
0
40
0
40
0.02
40
0.040000000000000001
40
0.059999999999999998
40
0.080000000000000002
40
0.10000000000000001
40
0.12000000000000001
40
0.14000000000000001
40
0.16
40
0.17999999999999999
40
0.19999999999999998
40
0.21999999999999997
40
0.23999999999999996
40
0.25999999999999995
40
0.27999999999999997
40
0.29999999999999999
40
0.32000000000000001
40
0.34000000000000002
40
0.36000000000000004
40
0.38000000000000006
40
0.40000000000000008
40
0.4200000000000001
40
0.44000000000000011
40
0.46000000000000013
40
0.48000000000000015
40
0.50000000000000011
40
0.52000000000000013
40
0.54000000000000015
40
0.56000000000000016
40
0.58000000000000018
40
0.6000000000000002
40
0.62000000000000022
40
0.64000000000000024
40
0.66000000000000025
40
0.68000000000000027
40
0.70000000000000029
40
0.72000000000000031
40
0.74000000000000032
40
0.76000000000000034
40
0.78000000000000036
40
0.80000000000000038
40
0.8200000000000004
40
0.84000000000000041
40
0.86000000000000043
40
0.88000000000000045
40
0.90000000000000047
40
0.92000000000000048
40
0.9400000000000005
40
0.96000000000000052
40
0.98000000000000054
40
1
40
1
40
1
40
1
40
1
40
1
41
1
41
1
41
1
41
1
41
1
41
1
41
1
41
1
41
1
41
1
41
1
41
1
41
1
41
1
41
1
41
1
41
1
41
1
41
1
41
1
41
1
41
1
41
1
41
1
41
1
41
1
41
1
41
1
41
1
41
1
41
1
41
1
41
1
41
1
41
1
41
1
41
1
41
1
41
1
41
1
41
1
41
1
41
1
41
1
41
1
41
1
41
1
41
1
41
1
41
1
41
1
41
1
41
1
41
1
41
1
10
0
20
0
30
0
10
0.039939841053875165
20
0.022522067289358957
30
0
10
0.11980242022201666
20
0.064622421348738121
30
0
10
0.2395449803764586
20
0.11894162155742671
30
0
10
0.39909904124743845
20
0.17369296013268962
30
0
10
0.59837810839965966
20
0.21310260846633239
30
0
10
0.79751722166153338
20
0.2248803579679664
30
0
10
0.99656410779725069
20
0.21191463895325446
30
0
10
1.1955987365296319
20
0.17909812265118827
30
0
10
1.3947420632698608
20
0.13387409754424939
30
0
10
1.5941267968673967
20
0.084967560032600128
30
0
10
1.7938677245924888
20
0.041094100489279056
30
0
10
1.9940318960194956
20
0.0096704183351704956
30
0
10
2.1946093752626532
20
-0.0044609352988255746
30
0
10
2.3954818377102898
20
-0.00036726019662956046
30
0
10
2.5964704600663402
20
0.019868901244501962
30
0
10
2.7973858006016243
20
0.052099233770878328
30
0
10
2.9980770059108779
20
0.091033079063528588
30
0
10
3.1984810794336309
20
0.13116580655690957
30
0
10
3.3986731311057365
20
0.16770832461446666
30
0
10
3.5988099545317764
20
0.19686384801941961
30
0
10
3.799072782190299
20
0.21609989777721045
30
0
10
3.9996104388827716
20
0.22442563218271508
30
0
10
4.200482319246289
20
0.2226708404652683
30
0
10
4.4016011219979543
20
0.21377048307931676
30
0
10
4.6027959855989824
20
0.2019315149251506
30
0
10
4.8038758420646301
20
0.1917995153678316
30
0
10
5.0046921754036431
20
0.18762997390752051
30
0
10
5.2052030467494115
20
0.19245095783360269
30
0
10
5.405534199613161
20
0.20724412756339017
30
0
10
5.6058979468740846
20
0.23112803457658024
30
0
10
5.8065146670893455
20
0.26151391136779822
30
0
10
6.0075342684909163
20
0.29427345030115798
30
0
10
6.2089555394330915
20
0.32388150512409397
30
0
10
6.4105516021911191
20
0.3436080042049553
30
0
10
6.61197493068725
20
0.34702107543849731
30
0
10
6.8128570189405124
20
0.32946587205828098
30
0
10
7.01290833915807
20
0.28952174648898843
30
0
10
7.2120220095394938
20
0.23055758889235506
30
0
10
7.4103658760347901
20
0.1620292935917686
30
0
10
7.6082760104881588
20
0.09644322053607858
30
0
10
7.8061609608188789
20
0.046549350092626465
30
0
10
8.0044026607944669
20
0.022465393728355466
30
0
10
8.2032577429538627
20
0.028790274259013676
30
0
10
8.4027612678584784
20
0.061805156007391233
30
0
10
8.6027898830203444
20
0.11204081508221761
30
0
10
8.8031213945526137
20
0.16672562495004042
30
0
10
9.003495203322716
20
0.2122602505521694
30
0
10
9.2036725739903282
20
0.23669225590761081
30
0
10
9.4034959619609655
20
0.23214938001036806
30
0
10
9.6028716152255615
20
0.19396611822292589
30
0
10
9.761977139143406
20
0.13468842585915969
30
0
10
9.8810774865738189
20
0.073749238656962174
30
0
10
9.9603760988053551
20
0.025803086278181894
30
0
10
10
20
0
30
0
0
SPLINE
5
104
100
AcDbEntity
8
0
100
AcDbSpline
70
4
71
5
72
61
73
55
74
0
42
0.000000001
43
0.0000000001
44
0.0000000001
40
0
40
0
40
0
40
0
40
0
40
0
40
0.02
40
0.040000000000000001
40
0.059999999999999998
40
0.080000000000000002
40
0.10000000000000001
40
0.12000000000000001
40
0.14000000000000001
40
0.16
40
0.17999999999999999
40
0.19999999999999998
40
0.21999999999999997
40
0.23999999999999996
40
0.25999999999999995
40
0.27999999999999997
40
0.29999999999999999
40
0.32000000000000001
40
0.34000000000000002
40
0.36000000000000004
40
0.38000000000000006
40
0.40000000000000008
40
0.4200000000000001
40
0.44000000000000011
40
0.46000000000000013
40
0.48000000000000015
40
0.50000000000000011
40
0.52000000000000013
40
0.54000000000000015
40
0.56000000000000016
40
0.58000000000000018
40
0.6000000000000002
40
0.62000000000000022
40
0.64000000000000024
40
0.66000000000000025
40
0.68000000000000027
40
0.70000000000000029
40
0.72000000000000031
40
0.74000000000000032
40
0.76000000000000034
40
0.78000000000000036
40
0.80000000000000038
40
0.8200000000000004
40
0.84000000000000041
40
0.86000000000000043
40
0.88000000000000045
40
0.90000000000000047
40
0.92000000000000048
40
0.9400000000000005
40
0.96000000000000052
40
0.98000000000000054
40
1
40
1
40
1
40
1
40
1
40
1
41
1
41
1
41
1
41
1
41
1
41
1
41
1
41
1
41
1
41
1
41
1
41
1
41
1
41
1
41
1
41
1
41
1
41
1
41
1
41
1
41
1
41
1
41
1
41
1
41
1
41
1
41
1
41
1
41
1
41
1
41
1
41
1
41
1
41
1
41
1
41
1
41
1
41
1
41
1
41
1
41
1
41
1
41
1
41
1
41
1
41
1
41
1
41
1
41
1
41
1
41
1
41
1
41
1
41
1
41
1
10
0
20
3
30
0
10
0.039858007830173195
20
2.9758500176201768
30
0
10
0.11960768003663698
20
2.931142371870648
30
0
10
0.23933315801133709
20
2.8748578633474464
30
0
10
0.39916919932805778
20
2.8213797899554387
30
0
10
0.59929304587549559
20
2.7896685706551057
30
0
10
0.79972037497096149
20
2.7905197847270968
30
0
10
1.0003995206185687
20
2.8186747260692027
30
0
10
1.2012433423251136
20
2.8652593055233435
30
0
10
1.4021201152589975
20
2.9168555176148865
30
0
10
1.6028815891380621
20
2.9586684482045698
30
0
10
1.8033910059911786
20
2.9776911382355866
30
0
10
2.0035510162448205
20
2.9658555988823792
30
0
10
2.2033320287495801
20
2.9232412167833073
30
0
10
2.4027997185731245
20
2.8611684794327301
30
0
10
2.602080737446248
20
2.7970473134129579
30
0
10
2.8013294854429422
20
2.7493615778672682
30
0
10
3.0006946144626734
20
2.7326143995261343
30
0
10
3.2002856067175474
20
2.7522716703659573
30
0
10
3.4001393833123341
20
2.7997156574756894
30
0
10
3.6002378761256542
20
2.857935817859798
30
0
10
3.8005253052972328
20
2.9071677188452627
30
0
10
4.0009254392808451
20
2.9305331721830132
30
0
10
4.20135880197817
20
2.9196977382353517
30
0
10
4.4017598289053517
20
2.8805006500032047
30
0
10
4.6020803966051176
20
2.8276337375400811
30
0
10
4.8022934578884877
20
2.7793777227653971
30
0
10
5.0023966706987384
20
2.7523448824005166
30
0
10
5.2024161500570933
20
2.7561869369180809
30
0
10
5.4024101023202711
20
2.7883905436414231
30
0
10
5.6024567652295234
20
2.8385959836590025
30
0
10
5.8026425496429859
20
2.8928059271990412
30
0
10
6.0030501431749128
20
2.9376071916268058
30
0
10
6.2037466092523816
20
2.9644184988645463
30
0
10
6.4047715001295691
20
2.9736442616475989
30
0
10
6.6061308877833866
20
2.9713528102719073
30
0
10
6.8077911082945644
20
2.9660517059896825
30
0
10
7.0096727581387421
20
2.9654730843567148
30
0
10
7.2116438616225143
20
2.973269864100847
30
0
10
7.4135148995701332
20
2.9859816440615186
30
0
10
7.6150748564837754
20
2.9960794570352989
30
0
10
7.8161259090846569
20
2.9947785645074179
30
0
10
8.0165179262987785
20
2.9748811443186236
30
0
10
8.2161848268415625
20
2.933729124609052
30
0
10
8.415175618788286
20
2.8757762329479868
30
0
10
8.61361716135095
20
2.8101948907753895
30
0
10
8.8116815555815471
20
2.7488194594552704
30
0
10
9.0095522043102996
20
2.7039878092916951
30
0
10
9.207389894985841
20
2.6863894758680251
30
0
10
9.4053005757530013
20
2.7030199135156656
30
0
10
9.603347701996551
20
2.7580218262090788
30
0
10
9.7619196274010474
20
2.8343222520770976
30
0
10
9.8809286816996664
20
2.9099927731319202
30
0
10
9.9603036305959698
20
2.9686321861758334
30
0
10
10
20
3
30
0
0
ENDSEC
0
SECTION
2
OBJECTS
0
DICTIONARY
5
C
100
AcDbDictionary
3
ACAD_GROUP
350
D
3
ACAD_MLINESTYLE
350
17
0
DICTIONARY
5
D
100
AcDbDictionary
0
DICTIONARY
5
1A
330
C
100
AcDbDictionary
0
DICTIONARY
5
17
100
AcDbDictionary
0
ENDSEC
0
EOF
