0
SECTION
2
HEADER
9
$INSUNITS
70
4
9
$ACADVER
1
AC1014
9
$HANDSEED
5
FFFF
0
ENDSEC
0
SECTION
2
TABLES
0
TABLE
2
VPORT
5
8
100
AcDbSymbolTable
0
ENDTAB
0
TABLE
2
LTYPE
5
5
100
AcDbSymbolTable
0
LTYPE
5
14
100
AcDbSymbolTableRecord
100
AcDbLinetypeTableRecord
2
BYBLOCK
70
0
0
LTYPE
5
15
100
AcDbSymbolTableRecord
100
AcDbLinetypeTableRecord
2
BYLAYER
70
0
0
ENDTAB
0
TABLE
2
LAYER
5
2
100
AcDbSymbolTable
70
2
0
LAYER
5
50
100
AcDbSymbolTableRecord
100
AcDbLayerTableRecord
2
0
70
0
6
CONTINUOUS
0
ENDTAB
0
TABLE
2
STYLE
5
3
100
AcDbSymbolTable
70
1
0
STYLE
5
11
100
AcDbSymbolTableRecord
100
AcDbTextStyleTableRecord
2
STANDARD
70
0
0
ENDTAB
0
TABLE
2
VIEW
5
6
100
AcDbSymbolTable
70
0
0
ENDTAB
0
TABLE
2
UCS
5
7
100
AcDbSymbolTable
70
0
0
ENDTAB
0
TABLE
2
APPID
5
9
100
AcDbSymbolTable
70
2
0
APPID
5
12
100
AcDbSymbolTableRecord
100
AcDbRegAppTableRecord
2
ACAD
70
0
0
ENDTAB
0
TABLE
2
DIMSTYLE
5
A
100
AcDbSymbolTable
70
1
0
ENDTAB
0
TABLE
2
BLOCK_RECORD
5
1
100
AcDbSymbolTable
70
1
0
BLOCK_RECORD
5
1F
100
AcDbSymbolTableRecord
100
AcDbBlockTableRecord
2
*MODEL_SPACE
0
BLOCK_RECORD
5
1B
100
AcDbSymbolTableRecord
100
AcDbBlockTableRecord
2
*PAPER_SPACE
0
ENDTAB
0
ENDSEC
0
SECTION
2
BLOCKS
0
BLOCK
5
20
100
AcDbEntity
100
AcDbBlockBegin
2
*MODEL_SPACE
0
ENDBLK
5
21
100
AcDbEntity
100
AcDbBlockEnd
0
BLOCK
5
1C
100
AcDbEntity
100
AcDbBlockBegin
2
*PAPER_SPACE
0
ENDBLK
5
1D
100
AcDbEntity
100
AcDbBlockEnd
0
ENDSEC
0
SECTION
2
ENTITIES
0
SPLINE
5
100
100
AcDbEntity
8
0
100
AcDbSpline
70
4
71
5
72
16
73
10
74
0
42
0.000000001
43
0.0000000001
44
0.0000000001
40
0
40
0
40
0
40
0
40
0
40
0
40
0.20000000000000001
40
0.40000000000000002
40
0.60000000000000009
40
0.80000000000000004
40
1
40
1
40
1
40
1
40
1
40
1
41
1
41
1
41
1
41
1
41
1
41
1
41
1
41
1
41
1
41
1
10
0
20
0
30
0
10
0
20
0.12000000000003158
30
0
10
0
20
0.36000000000007704
30
0
10
0
20
0.72000000000009301
30
0
10
0
20
1.2000000000000313
30
0
10
0
20
1.7999999999999146
30
0
10
0
20
2.2799999999998684
30
0
10
0
20
2.6399999999999042
30
0
10
0
20
2.8799999999999617
30
0
10
0
20
3
30
0
0
SPLINE
5
101
100
AcDbEntity
8
0
100
AcDbSpline
70
4
71
5
72
16
73
10
74
0
42
0.000000001
43
0.0000000001
44
0.0000000001
40
0
40
0
40
0
40
0
40
0
40
0
40
0.20000000000000001
40
0.40000000000000002
40
0.60000000000000009
40
0.80000000000000004
40
1
40
1
40
1
40
1
40
1
40
1
41
1
41
1
41
1
41
1
41
1
41
1
41
1
41
1
41
1
41
1
10
10
20
0
30
0
10
9.9999999999997495
20
0.12000000000003158
30
0
10
9.9999999999993197
20
0.36000000000007704
30
0
10
9.9999999999989129
20
0.72000000000009301
30
0
10
9.9999999999987672
20
1.2000000000000313
30
0
10
9.9999999999990248
20
1.7999999999999146
30
0
10
9.9999999999993889
20
2.2799999999998684
30
0
10
9.9999999999996998
20
2.6399999999999042
30
0
10
9.9999999999999005
20
2.8799999999999617
30
0
10
10
20
3
30
0
0
SPLINE
5
102
100
AcDbEntity
8
0
100
AcDbSpline
70
4
71
5
72
16
73
10
74
0
42
0.000000001
43
0.0000000001
44
0.0000000001
40
0
40
0
40
0
40
0
40
0
40
0
40
0.20000000000000001
40
0.40000000000000002
40
0.60000000000000009
40
0.80000000000000004
40
1
40
1
40
1
40
1
40
1
40
1
41
1
41
1
41
1
41
1
41
1
41
1
41
1
41
1
41
1
41
1
10
0
20
1.5
30
0
10
0.40000000000047375
20
1.499999999999694
30
0
10
1.2000000000012774
20
1.4999999999991638
30
0
10
2.4000000000020547
20
1.4999999999986278
30
0
10
4.0000000000023546
20
1.4999999999983737
30
0
10
6.0000000000019584
20
1.4999999999985913
30
0
10
7.6000000000012928
20
1.4999999999990359
30
0
10
8.800000000000697
20
1.4999999999994786
30
0
10
9.6000000000002395
20
1.4999999999998188
30
0
10
10
20
1.5
30
0
0
SPLINE
5
103
100
AcDbEntity
8
0
100
AcDbSpline
70
4
71
5
72
61
73
55
74
0
42
0.000000001
43
0.0000000001
44
0.0000000001
40
0
40
0
40
0
40
0
40
0
40
0
40
0.02
40
0.040000000000000001
40
0.059999999999999998
40
0.080000000000000002
40
0.10000000000000001
40
0.12000000000000001
40
0.14000000000000001
40
0.16
40
0.17999999999999999
40
0.19999999999999998
40
0.21999999999999997
40
0.23999999999999996
40
0.25999999999999995
40
0.27999999999999997
40
0.29999999999999999
40
0.32000000000000001
40
0.34000000000000002
40
0.36000000000000004
40
0.38000000000000006
40
0.40000000000000008
40
0.4200000000000001
40
0.44000000000000011
40
0.46000000000000013
40
0.48000000000000015
40
0.50000000000000011
40
0.52000000000000013
40
0.54000000000000015
40
0.56000000000000016
40
0.58000000000000018
40
0.6000000000000002
40
0.62000000000000022
40
0.64000000000000024
40
0.66000000000000025
40
0.68000000000000027
40
0.70000000000000029
40
0.72000000000000031
40
0.74000000000000032
40
0.76000000000000034
40
0.78000000000000036
40
0.80000000000000038
40
0.8200000000000004
40
0.84000000000000041
40
0.86000000000000043
40
0.88000000000000045
40
0.90000000000000047
40
0.92000000000000048
40
0.9400000000000005
40
0.96000000000000052
40
0.98000000000000054
40
1
40
1
40
1
40
1
40
1
40
1
41
1
41
1
41
1
41
1
41
1
41
1
41
1
41
1
41
1
41
1
41
1
41
1
41
1
41
1
41
1
41
1
41
1
41
1
41
1
41
1
41
1
41
1
41
1
41
1
41
1
41
1
41
1
41
1
41
1
41
1
41
1
41
1
41
1
41
1
41
1
41
1
41
1
41
1
41
1
41
1
41
1
41
1
41
1
41
1
41
1
41
1
41
1
41
1
41
1
41
1
41
1
41
1
41
1
41
1
41
1
10
0
20
0
30
0
10
0.039968349480338332
20
0.010825874079095079
30
0
10
0.1199260164052223
20
0.031432649077468733
30
0
10
0.23992542068811346
20
0.059207888358981935
30
0
10
0.40005051611717768
20
0.089967641427319819
30
0
10
0.60041546027678228
20
0.1181784692117275
30
0
10
0.80098442773467293
20
0.13684546756932225
30
0
10
1.0017476846498756
20
0.14739003092507164
30
0
10
1.2026884224370371
20
0.15221454638979354
30
0
10
1.4037808650914458
20
0.15494839071270239
30
0
10
1.6049909663566155
20
0.15951904033934342
30
0
10
1.8062770475525272
20
0.16922706784568739
30
0
10
2.0075904710667878
20
0.18583067703798167
30
0
10
2.2088761887632509
20
0.20859483600671302
30
0
10
2.4100735679585767
20
0.23342658041350167
30
0
10
2.6111249504111198
20
0.25451183803754812
30
0
10
2.8119840372084277
20
0.26588070287235543
30
0
10
3.0126242294773449
20
0.26297160499318134
30
0
10
3.213047358779606
20
0.24425997066760929
30
0
10
3.4132914258684712
20
0.21269380582192135
30
0
10
3.6134208134768193
20
0.17383505989976694
30
0
10
3.8135175032710631
20
0.13416469377759072
30
0
10
4.013671923644802
20
0.099361183897316588
30
0
10
4.2139740960279157
20
0.072516955241825304
30
0
10
4.414504359145937
20
0.052581092202202563
30
0
10
4.6153198089668939
20
0.036335093848027494
30
0
10
4.8164406105465094
20
0.020187959526788757
30
0
10
5.0178368823585053
20
0.0019832647771911445
30
0
10
5.2194137620664662
20
-0.017071116698340695
30
0
10
5.4210011794978552
20
-0.030875317069041883
30
0
10
5.6223962280552486
20
-0.031489374473760399
30
0
10
5.8234022752740655
20
-0.011904890203239416
30
0
10
6.0238680888032334
20
0.031188321004641788
30
0
10
6.2237298896785509
20
0.094363285860621801
30
0
10
6.4230441547136508
20
0.16527547835094872
30
0
10
6.6219431747525572
20
0.22756663070941091
30
0
10
6.8205976608133838
20
0.26515576277660163
30
0
10
7.0191775103622431
20
0.26664346413027501
30
0
10
7.2178117237496453
20
0.22995564417146216
30
0
10
7.4165534145618928
20
0.16610952978749544
30
0
10
7.6154024097940116
20
0.093483649955588208
30
0
10
7.8143232783296632
20
0.032812880854199207
30
0
10
8.013264795697415
20
0.0019916456573405754
30
0
10
8.212179197064982
20
0.010782300551202984
30
0
10
8.4110402045042125
20
0.056035128774988667
30
0
10
8.6098372220961039
20
0.12576374498070872
30
0
10
8.8085709269859152
20
0.20271217020797033
30
0
10
9.0072483884293817
20
0.26807543538314887
30
0
10
9.2058783566398326
20
0.30519713777547408
30
0
10
9.4044666413932028
20
0.30314004075591289
30
0
10
9.6030168059786352
20
0.25540878099595032
30
0
10
9.7618279001171153
20
0.17815454770990194
30
0
10
9.880920183039521
20
0.097791330739598753
30
0
10
9.960307914907947
20
0.034256936165715575
30
0
10
10
20
0
30
0
0
SPLINE
5
104
100
AcDbEntity
8
0
100
AcDbSpline
70
4
71
5
72
61
73
55
74
0
42
0.000000001
43
0.0000000001
44
0.0000000001
40
0
40
0
40
0
40
0
40
0
40
0
40
0.02
40
0.040000000000000001
40
0.059999999999999998
40
0.080000000000000002
40
0.10000000000000001
40
0.12000000000000001
40
0.14000000000000001
40
0.16
40
0.17999999999999999
40
0.19999999999999998
40
0.21999999999999997
40
0.23999999999999996
40
0.25999999999999995
40
0.27999999999999997
40
0.29999999999999999
40
0.32000000000000001
40
0.34000000000000002
40
0.36000000000000004
40
0.38000000000000006
40
0.40000000000000008
40
0.4200000000000001
40
0.44000000000000011
40
0.46000000000000013
40
0.48000000000000015
40
0.50000000000000011
40
0.52000000000000013
40
0.54000000000000015
40
0.56000000000000016
40
0.58000000000000018
40
0.6000000000000002
40
0.62000000000000022
40
0.64000000000000024
40
0.66000000000000025
40
0.68000000000000027
40
0.70000000000000029
40
0.72000000000000031
40
0.74000000000000032
40
0.76000000000000034
40
0.78000000000000036
40
0.80000000000000038
40
0.8200000000000004
40
0.84000000000000041
40
0.86000000000000043
40
0.88000000000000045
40
0.90000000000000047
40
0.92000000000000048
40
0.9400000000000005
40
0.96000000000000052
40
0.98000000000000054
40
1
40
1
40
1
40
1
40
1
40
1
41
1
41
1
41
1
41
1
41
1
41
1
41
1
41
1
41
1
41
1
41
1
41
1
41
1
41
1
41
1
41
1
41
1
41
1
41
1
41
1
41
1
41
1
41
1
41
1
41
1
41
1
41
1
41
1
41
1
41
1
41
1
41
1
41
1
41
1
41
1
41
1
41
1
41
1
41
1
41
1
41
1
41
1
41
1
41
1
41
1
41
1
41
1
41
1
41
1
41
1
41
1
41
1
41
1
41
1
41
1
10
0
20
3
30
0
10
0.039282947513282082
20
2.9854928461576034
30
0
10
0.11792806687185836
20
2.9574314769352084
30
0
10
0.23613341823584352
20
2.9181982413846228
30
0
10
0.39421621353018244
20
2.8716085961813391
30
0
10
0.59260240793197716
20
2.8229249752516958
30
0
10
0.79173807533473672
20
2.7838105050393605
30
0
10
0.99155415341770281
20
2.7542691717058632
30
0
10
1.1919336764961319
20
2.7342802671007309
30
0
10
1.3926977801521812
20
2.723793543516738
30
0
10
1.5936419670734845
20
2.7224977005439293
30
0
10
1.7945741576012229
20
2.7295809864631821
30
0
10
1.9953523551856494
20
2.7434899591550233
30
0
10
2.1959219662160718
20
2.7616945165977471
30
0
10
2.3963551675548218
20
2.7804267209928026
30
0
10
2.5967934673609543
20
2.7956117476363955
30
0
10
2.7973883452265551
20
2.8038229214244375
30
0
10
2.9982425328258184
20
2.8032315466339739
30
0
10
3.1993512502398391
20
2.794556891858444
30
0
10
3.400542328287202
20
2.7820388762377095
30
0
10
3.6015565397936489
20
2.7718176307469995
30
0
10
3.8021289659022317
20
2.7702948211781999
30
0
10
4.0020697031661392
20
2.7825071165832083
30
0
10
4.2013454721026253
20
2.8104837601675485
30
0
10
4.4001599140824288
20
2.851626155378828
30
0
10
4.5988516711819676
20
2.9001943452727978
30
0
10
4.797794435606864
20
2.9487595500701476
30
0
10
4.9972961390454973
20
2.9896659183831908
30
0
10
5.1974990962321934
20
3.0164808805868653
30
0
10
5.398277438822058
20
3.0254681325680903
30
0
10
5.5993364244369754
20
3.0154425039486914
30
0
10
5.8003137619666614
20
2.9876119804416801
30
0
10
6.0008798566010135
20
2.9454309843564301
30
0
10
6.2008386897911771
20
2.8944568715577206
30
0
10
6.4002282491394258
20
2.8422083196319519
30
0
10
6.5992441837987457
20
2.796725141903678
30
0
10
6.7981644236005767
20
2.7651364843945903
30
0
10
6.9972735533964663
20
2.7522188491575186
30
0
10
7.1967877804345921
20
2.758965476001904
30
0
10
7.3967784068093234
20
2.781106030092682
30
0
10
7.5972076410663805
20
2.8111552057025975
30
0
10
7.7979655217206654
20
2.840496133786639
30
0
10
7.9989062264243671
20
2.8614483943158082
30
0
10
8.1998844387664214
20
2.8693382257908775
30
0
10
8.4007918276826761
20
2.8645888868956249
30
0
10
8.6015511240887701
20
2.8512725974281015
30
0
10
8.8021100328290274
20
2.8356506759112099
30
0
10
9.0024352872970166
20
2.8247279325554517
30
0
10
9.202506692498849
20
2.8247982043018212
30
0
10
9.4023112600040175
20
2.8400100589001749
30
0
10
9.601841657908464
20
2.8728213324923546
30
0
10
9.7612440392392834
20
2.9141084954484304
30
0
10
9.8806706623988489
20
2.95370132713236
30
0
10
9.9602328194231848
20
2.98392845680574
30
0
10
10
20
3
30
0
0
ENDSEC
0
SECTION
2
OBJECTS
0
DICTIONARY
5
C
100
AcDbDictionary
3
ACAD_GROUP
350
D
3
ACAD_MLINESTYLE
350
17
0
DICTIONARY
5
D
100
AcDbDictionary
0
DICTIONARY
5
1A
330
C
100
AcDbDictionary
0
DICTIONARY
5
17
100
AcDbDictionary
0
ENDSEC
0
EOF
