0
SECTION
2
HEADER
9
$INSUNITS
70
4
9
$ACADVER
1
AC1014
9
$HANDSEED
5
FFFF
0
ENDSEC
0
SECTION
2
TABLES
0
TABLE
2
VPORT
5
8
100
AcDbSymbolTable
0
ENDTAB
0
TABLE
2
LTYPE
5
5
100
AcDbSymbolTable
0
LTYPE
5
14
100
AcDbSymbolTableRecord
100
AcDbLinetypeTableRecord
2
BYBLOCK
70
0
0
LTYPE
5
15
100
AcDbSymbolTableRecord
100
AcDbLinetypeTableRecord
2
BYLAYER
70
0
0
ENDTAB
0
TABLE
2
LAYER
5
2
100
AcDbSymbolTable
70
2
0
LAYER
5
50
100
AcDbSymbolTableRecord
100
AcDbLayerTableRecord
2
0
70
0
6
CONTINUOUS
0
ENDTAB
0
TABLE
2
STYLE
5
3
100
AcDbSymbolTable
70
1
0
STYLE
5
11
100
AcDbSymbolTableRecord
100
AcDbTextStyleTableRecord
2
STANDARD
70
0
0
ENDTAB
0
TABLE
2
VIEW
5
6
100
AcDbSymbolTable
70
0
0
ENDTAB
0
TABLE
2
UCS
5
7
100
AcDbSymbolTable
70
0
0
ENDTAB
0
TABLE
2
APPID
5
9
100
AcDbSymbolTable
70
2
0
APPID
5
12
100
AcDbSymbolTableRecord
100
AcDbRegAppTableRecord
2
ACAD
70
0
0
ENDTAB
0
TABLE
2
DIMSTYLE
5
A
100
AcDbSymbolTable
70
1
0
ENDTAB
0
TABLE
2
BLOCK_RECORD
5
1
100
AcDbSymbolTable
70
1
0
BLOCK_RECORD
5
1F
100
AcDbSymbolTableRecord
100
AcDbBlockTableRecord
2
*MODEL_SPACE
0
BLOCK_RECORD
5
1B
100
AcDbSymbolTableRecord
100
AcDbBlockTableRecord
2
*PAPER_SPACE
0
ENDTAB
0
ENDSEC
0
SECTION
2
BLOCKS
0
BLOCK
5
20
100
AcDbEntity
100
AcDbBlockBegin
2
*MODEL_SPACE
0
ENDBLK
5
21
100
AcDbEntity
100
AcDbBlockEnd
0
BLOCK
5
1C
100
AcDbEntity
100
AcDbBlockBegin
2
*PAPER_SPACE
0
ENDBLK
5
1D
100
AcDbEntity
100
AcDbBlockEnd
0
ENDSEC
0
SECTION
2
ENTITIES
0
SPLINE
5
100
100
AcDbEntity
8
0
100
AcDbSpline
70
4
71
5
72
16
73
10
74
0
42
0.000000001
43
0.0000000001
44
0.0000000001
40
0
40
0
40
0
40
0
40
0
40
0
40
0.20000000000000001
40
0.40000000000000002
40
0.60000000000000009
40
0.80000000000000004
40
1
40
1
40
1
40
1
40
1
40
1
41
1
41
1
41
1
41
1
41
1
41
1
41
1
41
1
41
1
41
1
10
0
20
0
30
0
10
0
20
0.12000000000003158
30
0
10
0
20
0.36000000000007704
30
0
10
0
20
0.72000000000009301
30
0
10
0
20
1.2000000000000313
30
0
10
0
20
1.7999999999999146
30
0
10
0
20
2.2799999999998684
30
0
10
0
20
2.6399999999999042
30
0
10
0
20
2.8799999999999617
30
0
10
0
20
3
30
0
0
SPLINE
5
101
100
AcDbEntity
8
0
100
AcDbSpline
70
4
71
5
72
16
73
10
74
0
42
0.000000001
43
0.0000000001
44
0.0000000001
40
0
40
0
40
0
40
0
40
0
40
0
40
0.20000000000000001
40
0.40000000000000002
40
0.60000000000000009
40
0.80000000000000004
40
1
40
1
40
1
40
1
40
1
40
1
41
1
41
1
41
1
41
1
41
1
41
1
41
1
41
1
41
1
41
1
10
10
20
0
30
0
10
9.9999999999997495
20
0.12000000000003158
30
0
10
9.9999999999993197
20
0.36000000000007704
30
0
10
9.9999999999989129
20
0.72000000000009301
30
0
10
9.9999999999987672
20
1.2000000000000313
30
0
10
9.9999999999990248
20
1.7999999999999146
30
0
10
9.9999999999993889
20
2.2799999999998684
30
0
10
9.9999999999996998
20
2.6399999999999042
30
0
10
9.9999999999999005
20
2.8799999999999617
30
0
10
10
20
3
30
0
0
SPLINE
5
102
100
AcDbEntity
8
0
100
AcDbSpline
70
4
71
5
72
16
73
10
74
0
42
0.000000001
43
0.0000000001
44
0.0000000001
40
0
40
0
40
0
40
0
40
0
40
0
40
0.20000000000000001
40
0.40000000000000002
40
0.60000000000000009
40
0.80000000000000004
40
1
40
1
40
1
40
1
40
1
40
1
41
1
41
1
41
1
41
1
41
1
41
1
41
1
41
1
41
1
41
1
10
0
20
1.5
30
0
10
0.40000000000047375
20
1.499999999999694
30
0
10
1.2000000000012774
20
1.4999999999991638
30
0
10
2.4000000000020547
20
1.4999999999986278
30
0
10
4.0000000000023546
20
1.4999999999983737
30
0
10
6.0000000000019584
20
1.4999999999985913
30
0
10
7.6000000000012928
20
1.4999999999990359
30
0
10
8.800000000000697
20
1.4999999999994786
30
0
10
9.6000000000002395
20
1.4999999999998188
30
0
10
10
20
1.5
30
0
0
SPLINE
5
103
100
AcDbEntity
8
0
100
AcDbSpline
70
4
71
5
72
61
73
55
74
0
42
0.000000001
43
0.0000000001
44
0.0000000001
40
0
40
0
40
0
40
0
40
0
40
0
40
0.02
40
0.040000000000000001
40
0.059999999999999998
40
0.080000000000000002
40
0.10000000000000001
40
0.12000000000000001
40
0.14000000000000001
40
0.16
40
0.17999999999999999
40
0.19999999999999998
40
0.21999999999999997
40
0.23999999999999996
40
0.25999999999999995
40
0.27999999999999997
40
0.29999999999999999
40
0.32000000000000001
40
0.34000000000000002
40
0.36000000000000004
40
0.38000000000000006
40
0.40000000000000008
40
0.4200000000000001
40
0.44000000000000011
40
0.46000000000000013
40
0.48000000000000015
40
0.50000000000000011
40
0.52000000000000013
40
0.54000000000000015
40
0.56000000000000016
40
0.58000000000000018
40
0.6000000000000002
40
0.62000000000000022
40
0.64000000000000024
40
0.66000000000000025
40
0.68000000000000027
40
0.70000000000000029
40
0.72000000000000031
40
0.74000000000000032
40
0.76000000000000034
40
0.78000000000000036
40
0.80000000000000038
40
0.8200000000000004
40
0.84000000000000041
40
0.86000000000000043
40
0.88000000000000045
40
0.90000000000000047
40
0.92000000000000048
40
0.9400000000000005
40
0.96000000000000052
40
0.98000000000000054
40
1
40
1
40
1
40
1
40
1
40
1
41
1
41
1
41
1
41
1
41
1
41
1
41
1
41
1
41
1
41
1
41
1
41
1
41
1
41
1
41
1
41
1
41
1
41
1
41
1
41
1
41
1
41
1
41
1
41
1
41
1
41
1
41
1
41
1
41
1
41
1
41
1
41
1
41
1
41
1
41
1
41
1
41
1
41
1
41
1
41
1
41
1
41
1
41
1
41
1
41
1
41
1
41
1
41
1
41
1
41
1
41
1
41
1
41
1
41
1
41
1
10
0
20
0
30
0
10
0.039756135152151643
20
0.0047914890209064228
30
0
10
0.1193047456436873
20
0.014861720918325097
30
0
10
0.23873668185963981
20
0.031428825567245175
30
0
10
0.3981974472164293
20
0.05644375966025774
30
0
10
0.5978812974830563
20
0.092265838326933552
30
0
10
0.79790437625501254
20
0.13165523237788093
30
0
10
0.99822821423548469
20
0.17262200203165107
30
0
10
1.1987876893846183
20
0.21183518163777199
30
0
10
1.3994839010261952
20
0.24426969854837205
30
0
10
1.6002062771470111
20
0.26462342783186216
30
0
10
1.8008549110575003
20
0.26874939533312481
30
0
10
2.0013627699345853
20
0.25508119419691772
30
0
10
2.201718156457066
20
0.2260758160627595
30
0
10
2.4019868586883644
20
0.18963717335188393
30
0
10
2.6022700199644664
20
0.15630079792273921
30
0
10
2.8026623418286833
20
0.13644257477046012
30
0
10
3.0032104064926091
20
0.13749248197748748
30
0
10
3.2038703177326502
20
0.16111159390040405
30
0
10
3.4044668801519684
20
0.2004495093227755
30
0
10
3.6047677920001782
20
0.24363644926357564
30
0
10
3.804556274030622
20
0.27718233656668956
30
0
10
4.0037038896822281
20
0.28939045731769536
30
0
10
4.2022443747792773
20
0.27379746516889314
30
0
10
4.4004449502177412
20
0.2325301238459625
30
0
10
4.598695562482467
20
0.17355198827650042
30
0
10
4.7974014730581125
20
0.1080229538800801
30
0
10
4.9968743202416608
20
0.047621375421196627
30
0
10
5.1972245683831053
20
0.0019005546373245406
30
0
10
5.398250340572166
20
-0.024413362283497966
30
0
10
5.599560184057216
20
-0.030429683128261234
30
0
10
5.800698612313564
20
-0.018061001462930423
30
0
10
6.0012702075565283
20
0.0089847601163684891
30
0
10
6.2010647329902167
20
0.046217537265634587
30
0
10
6.4001813026677432
20
0.089368879715403304
30
0
10
6.5989187425853064
20
0.13449785712547177
30
0
10
6.7976676181791476
20
0.17810107127086669
30
0
10
6.9968016584020649
20
0.21722253600226743
30
0
10
7.1965702255286521
20
0.24956424776686972
30
0
10
7.3969880249621047
20
0.27360052104913157
30
0
10
7.5979047880710704
20
0.2884987514712325
30
0
10
7.7990771319619059
20
0.29403892915929569
30
0
10
8.0002392908440747
20
0.29053554119886826
30
0
10
8.2011742210217982
20
0.27876030259207896
30
0
10
8.401784548867143
20
0.25986606008881075
30
0
10
8.6020626791285899
20
0.2352331477233448
30
0
10
8.8020611196851775
20
0.20631629989508074
30
0
10
9.001862957710113
20
0.17449208629091159
30
0
10
9.2015523002904018
20
0.14090558493306451
30
0
10
9.4011850111370059
20
0.10631858118767669
30
0
10
9.6007946049547872
20
0.071188190608600169
30
0
10
9.7604771684231633
20
0.042832042925384686
30
0
10
9.8802387262420606
20
0.021457698198932514
30
0
10
9.9600796024576095
20
0.007160504428340193
30
0
10
10
20
0
30
0
0
SPLINE
5
104
100
AcDbEntity
8
0
100
AcDbSpline
70
4
71
5
72
61
73
55
74
0
42
0.000000001
43
0.0000000001
44
0.0000000001
40
0
40
0
40
0
40
0
40
0
40
0
40
0.02
40
0.040000000000000001
40
0.059999999999999998
40
0.080000000000000002
40
0.10000000000000001
40
0.12000000000000001
40
0.14000000000000001
40
0.16
40
0.17999999999999999
40
0.19999999999999998
40
0.21999999999999997
40
0.23999999999999996
40
0.25999999999999995
40
0.27999999999999997
40
0.29999999999999999
40
0.32000000000000001
40
0.34000000000000002
40
0.36000000000000004
40
0.38000000000000006
40
0.40000000000000008
40
0.4200000000000001
40
0.44000000000000011
40
0.46000000000000013
40
0.48000000000000015
40
0.50000000000000011
40
0.52000000000000013
40
0.54000000000000015
40
0.56000000000000016
40
0.58000000000000018
40
0.6000000000000002
40
0.62000000000000022
40
0.64000000000000024
40
0.66000000000000025
40
0.68000000000000027
40
0.70000000000000029
40
0.72000000000000031
40
0.74000000000000032
40
0.76000000000000034
40
0.78000000000000036
40
0.80000000000000038
40
0.8200000000000004
40
0.84000000000000041
40
0.86000000000000043
40
0.88000000000000045
40
0.90000000000000047
40
0.92000000000000048
40
0.9400000000000005
40
0.96000000000000052
40
0.98000000000000054
40
1
40
1
40
1
40
1
40
1
40
1
41
1
41
1
41
1
41
1
41
1
41
1
41
1
41
1
41
1
41
1
41
1
41
1
41
1
41
1
41
1
41
1
41
1
41
1
41
1
41
1
41
1
41
1
41
1
41
1
41
1
41
1
41
1
41
1
41
1
41
1
41
1
41
1
41
1
41
1
41
1
41
1
41
1
41
1
41
1
41
1
41
1
41
1
41
1
41
1
41
1
41
1
41
1
41
1
41
1
41
1
41
1
41
1
41
1
41
1
41
1
10
0
20
3
30
0
10
0.040772240109392066
20
3.0144680708767173
30
0
10
0.12221286097028611
20
3.0400772741278774
30
0
10
0.24406221347640544
20
3.0685102172736833
30
0
10
0.40590445942366504
20
3.0864464780062173
30
0
10
0.60718338765563951
20
3.0764125232261104
30
0
10
0.80748881595129929
20
3.0365730474192727
30
0
10
1.0069244830757604
20
2.9723163974751765
30
0
10
1.2056667377399073
20
2.8927526289355669
30
0
10
1.4039818832931803
20
2.8115706376418732
30
0
10
1.6021788641150536
20
2.743733160615673
30
0
10
1.8005639567809206
20
2.7022977609583503
30
0
10
1.9993947205002227
20
2.6951854061213147
30
0
10
2.1988342113669712
20
2.7219641001853425
30
0
10
2.3989047102212195
20
2.7705903645864027
30
0
10
2.5995205764754488
20
2.8228094394577479
30
0
10
2.800521023770739
20
2.8595654927504084
30
0
10
3.0017026710009471
20
2.8663893059162806
30
0
10
3.2028520655088637
20
2.8388331345496702
30
0
10
3.4037780578699648
20
2.7878292879604949
30
0
10
3.6043270916509162
20
2.733004919198994
30
0
10
3.8043987761175475
20
2.6960886394611001
30
0
10
4.0039613416449846
20
2.6943258633119793
30
0
10
4.2030676869274375
20
2.7338088389520641
30
0
10
4.4018704280816916
20
2.8030240148162862
30
0
10
4.6005710127127397
20
2.8802789196998284
30
0
10
4.7993701147276848
20
2.9408638732103554
30
0
10
4.9984174798247487
20
2.9643126399130191
30
0
10
5.1977621565327414
20
2.9415956874741713
30
0
10
5.3973016228914901
20
2.8824553995784181
30
0
10
5.5968470017096061
20
2.8081903537204997
30
0
10
5.7961886853289961
20
2.744386441529763
30
0
10
5.9951621002683062
20
2.7136445046742983
30
0
10
6.193712579656995
20
2.728399597808421
30
0
10
6.3919633560831199
20
2.7834254040375028
30
0
10
6.5901514361178197
20
2.8618280577575783
30
0
10
6.7885610307928088
20
2.9412920884512781
30
0
10
6.9874572993534123
20
3.0002866059297917
30
0
10
7.1870217096251761
20
3.0241182524113217
30
0
10
7.3872817782616949
20
3.0115155386748222
30
0
10
7.5881487179513378
20
2.9709358791980285
30
0
10
7.7894612875843086
20
2.9162809283255147
30
0
10
7.9910274162078228
20
2.8628150383556465
30
0
10
8.1926660185187519
20
2.8230748067802898
30
0
10
8.3942503886417725
20
2.8025899765455149
30
0
10
8.5956993145185656
20
2.8014865632857786
30
0
10
8.7969659866699743
20
2.8163352419996803
30
0
10
8.9980278090011101
20
2.8419008865800839
30
0
10
9.1988759345087026
20
2.8729211496460074
30
0
10
9.399504899737348
20
2.9058867469528114
30
0
10
9.5999117726567356
20
2.9387003513896786
30
0
10
9.7600586955626625
20
2.9639924192290703
30
0
10
9.8800684005736539
20
2.9822663699813723
30
0
10
9.9600302388227586
20
2.9941402483219228
30
0
10
10
20
3
30
0
0
ENDSEC
0
SECTION
2
OBJECTS
0
DICTIONARY
5
C
100
AcDbDictionary
3
ACAD_GROUP
350
D
3
ACAD_MLINESTYLE
350
17
0
DICTIONARY
5
D
100
AcDbDictionary
0
DICTIONARY
5
1A
330
C
100
AcDbDictionary
0
DICTIONARY
5
17
100
AcDbDictionary
0
ENDSEC
0
EOF
