0
SECTION
2
HEADER
9
$INSUNITS
70
4
9
$ACADVER
1
AC1014
9
$HANDSEED
5
FFFF
0
ENDSEC
0
SECTION
2
TABLES
0
TABLE
2
VPORT
5
8
100
AcDbSymbolTable
0
ENDTAB
0
TABLE
2
LTYPE
5
5
100
AcDbSymbolTable
0
LTYPE
5
14
100
AcDbSymbolTableRecord
100
AcDbLinetypeTableRecord
2
BYBLOCK
70
0
0
LTYPE
5
15
100
AcDbSymbolTableRecord
100
AcDbLinetypeTableRecord
2
BYLAYER
70
0
0
ENDTAB
0
TABLE
2
LAYER
5
2
100
AcDbSymbolTable
70
2
0
LAYER
5
50
100
AcDbSymbolTableRecord
100
AcDbLayerTableRecord
2
0
70
0
6
CONTINUOUS
0
ENDTAB
0
TABLE
2
STYLE
5
3
100
AcDbSymbolTable
70
1
0
STYLE
5
11
100
AcDbSymbolTableRecord
100
AcDbTextStyleTableRecord
2
STANDARD
70
0
0
ENDTAB
0
TABLE
2
VIEW
5
6
100
AcDbSymbolTable
70
0
0
ENDTAB
0
TABLE
2
UCS
5
7
100
AcDbSymbolTable
70
0
0
ENDTAB
0
TABLE
2
APPID
5
9
100
AcDbSymbolTable
70
2
0
APPID
5
12
100
AcDbSymbolTableRecord
100
AcDbRegAppTableRecord
2
ACAD
70
0
0
ENDTAB
0
TABLE
2
DIMSTYLE
5
A
100
AcDbSymbolTable
70
1
0
ENDTAB
0
TABLE
2
BLOCK_RECORD
5
1
100
AcDbSymbolTable
70
1
0
BLOCK_RECORD
5
1F
100
AcDbSymbolTableRecord
100
AcDbBlockTableRecord
2
*MODEL_SPACE
0
BLOCK_RECORD
5
1B
100
AcDbSymbolTableRecord
100
AcDbBlockTableRecord
2
*PAPER_SPACE
0
ENDTAB
0
ENDSEC
0
SECTION
2
BLOCKS
0
BLOCK
5
20
100
AcDbEntity
100
AcDbBlockBegin
2
*MODEL_SPACE
0
ENDBLK
5
21
100
AcDbEntity
100
AcDbBlockEnd
0
BLOCK
5
1C
100
AcDbEntity
100
AcDbBlockBegin
2
*PAPER_SPACE
0
ENDBLK
5
1D
100
AcDbEntity
100
AcDbBlockEnd
0
ENDSEC
0
SECTION
2
ENTITIES
0
SPLINE
5
100
100
AcDbEntity
8
0
100
AcDbSpline
70
4
71
5
72
16
73
10
74
0
42
0.000000001
43
0.0000000001
44
0.0000000001
40
0
40
0
40
0
40
0
40
0
40
0
40
0.20000000000000001
40
0.40000000000000002
40
0.60000000000000009
40
0.80000000000000004
40
1
40
1
40
1
40
1
40
1
40
1
41
1
41
1
41
1
41
1
41
1
41
1
41
1
41
1
41
1
41
1
10
0
20
0
30
0
10
0
20
0.12000000000003158
30
0
10
0
20
0.36000000000007704
30
0
10
0
20
0.72000000000009301
30
0
10
0
20
1.2000000000000313
30
0
10
0
20
1.7999999999999146
30
0
10
0
20
2.2799999999998684
30
0
10
0
20
2.6399999999999042
30
0
10
0
20
2.8799999999999617
30
0
10
0
20
3
30
0
0
SPLINE
5
101
100
AcDbEntity
8
0
100
AcDbSpline
70
4
71
5
72
16
73
10
74
0
42
0.000000001
43
0.0000000001
44
0.0000000001
40
0
40
0
40
0
40
0
40
0
40
0
40
0.20000000000000001
40
0.40000000000000002
40
0.60000000000000009
40
0.80000000000000004
40
1
40
1
40
1
40
1
40
1
40
1
41
1
41
1
41
1
41
1
41
1
41
1
41
1
41
1
41
1
41
1
10
10
20
0
30
0
10
9.9999999999997495
20
0.12000000000003158
30
0
10
9.9999999999993197
20
0.36000000000007704
30
0
10
9.9999999999989129
20
0.72000000000009301
30
0
10
9.9999999999987672
20
1.2000000000000313
30
0
10
9.9999999999990248
20
1.7999999999999146
30
0
10
9.9999999999993889
20
2.2799999999998684
30
0
10
9.9999999999996998
20
2.6399999999999042
30
0
10
9.9999999999999005
20
2.8799999999999617
30
0
10
10
20
3
30
0
0
SPLINE
5
102
100
AcDbEntity
8
0
100
AcDbSpline
70
4
71
5
72
16
73
10
74
0
42
0.000000001
43
0.0000000001
44
0.0000000001
40
0
40
0
40
0
40
0
40
0
40
0
40
0.20000000000000001
40
0.40000000000000002
40
0.60000000000000009
40
0.80000000000000004
40
1
40
1
40
1
40
1
40
1
40
1
41
1
41
1
41
1
41
1
41
1
41
1
41
1
41
1
41
1
41
1
10
0
20
1.5
30
0
10
0.40000000000047375
20
1.499999999999694
30
0
10
1.2000000000012774
20
1.4999999999991638
30
0
10
2.4000000000020547
20
1.4999999999986278
30
0
10
4.0000000000023546
20
1.4999999999983737
30
0
10
6.0000000000019584
20
1.4999999999985913
30
0
10
7.6000000000012928
20
1.4999999999990359
30
0
10
8.800000000000697
20
1.4999999999994786
30
0
10
9.6000000000002395
20
1.4999999999998188
30
0
10
10
20
1.5
30
0
0
SPLINE
5
103
100
AcDbEntity
8
0
100
AcDbSpline
70
4
71
5
72
61
73
55
74
0
42
0.000000001
43
0.0000000001
44
0.0000000001
40
0
40
0
40
0
40
0
40
0
40
0
40
0.02
40
0.040000000000000001
40
0.059999999999999998
40
0.080000000000000002
40
0.10000000000000001
40
0.12000000000000001
40
0.14000000000000001
40
0.16
40
0.17999999999999999
40
0.19999999999999998
40
0.21999999999999997
40
0.23999999999999996
40
0.25999999999999995
40
0.27999999999999997
40
0.29999999999999999
40
0.32000000000000001
40
0.34000000000000002
40
0.36000000000000004
40
0.38000000000000006
40
0.40000000000000008
40
0.4200000000000001
40
0.44000000000000011
40
0.46000000000000013
40
0.48000000000000015
40
0.50000000000000011
40
0.52000000000000013
40
0.54000000000000015
40
0.56000000000000016
40
0.58000000000000018
40
0.6000000000000002
40
0.62000000000000022
40
0.64000000000000024
40
0.66000000000000025
40
0.68000000000000027
40
0.70000000000000029
40
0.72000000000000031
40
0.74000000000000032
40
0.76000000000000034
40
0.78000000000000036
40
0.80000000000000038
40
0.8200000000000004
40
0.84000000000000041
40
0.86000000000000043
40
0.88000000000000045
40
0.90000000000000047
40
0.92000000000000048
40
0.9400000000000005
40
0.96000000000000052
40
0.98000000000000054
40
1
40
1
40
1
40
1
40
1
40
1
41
1
41
1
41
1
41
1
41
1
41
1
41
1
41
1
41
1
41
1
41
1
41
1
41
1
41
1
41
1
41
1
41
1
41
1
41
1
41
1
41
1
41
1
41
1
41
1
41
1
41
1
41
1
41
1
41
1
41
1
41
1
41
1
41
1
41
1
41
1
41
1
41
1
41
1
41
1
41
1
41
1
41
1
41
1
41
1
41
1
41
1
41
1
41
1
41
1
41
1
41
1
41
1
41
1
41
1
41
1
10
0
20
0
30
0
10
0.039983952268614911
20
-0.0040391357055247845
30
0
10
0.11995726444992272
20
-0.010207156235773455
30
0
10
0.23993345565719829
20
-0.013728434201252927
30
0
10
0.39993417760914202
20
-0.0069544979251700842
30
0
10
0.59998431325774815
20
0.019997644340436119
30
0
10
0.80006882400789792
20
0.063467415121810394
30
0
10
1.0001578049270408
20
0.11946011497489474
30
0
10
1.2002012032889315
20
0.18125795489432509
30
0
10
1.400123688895768
20
0.23872034735197947
30
0
10
1.5998418520999587
20
0.28078074983201384
30
0
10
1.7992813545130044
20
0.29793589407429244
30
0
10
1.9983941505821066
20
0.28474779821837831
30
0
10
2.1971756612019671
20
0.24233356204838405
30
0
10
2.3956823141262378
20
0.18092265670127947
30
0
10
2.5940139440375711
20
0.11586524553120729
30
0
10
2.7922960490325632
20
0.063623006162840778
30
0
10
2.9906621140598046
20
0.037728351896535312
30
0
10
3.1892361131404239
20
0.044853444934679271
30
0
10
3.3881144623587938
20
0.080540445612568234
30
0
10
3.5873620720469486
20
0.13302906999171568
30
0
10
3.7870090726894516
20
0.1874051261737544
30
0
10
3.9870469916587843
20
0.22967251349972104
30
0
10
4.1874255127577413
20
0.25073618694157074
30
0
10
4.388047605256415
20
0.25075903794049037
30
0
10
4.5887920504487472
20
0.23635633873292561
30
0
10
4.7895374758142593
20
0.21736269832791547
30
0
10
4.9901861189485288
20
0.20373704722469829
30
0
10
5.1906870687549143
20
0.20247789773635008
30
0
10
5.3910616924751409
20
0.21435072146022899
30
0
10
5.5913769397365662
20
0.23564561270361703
30
0
10
5.7917163925851698
20
0.2601626544138872
30
0
10
5.9921519485070309
20
0.28111795649841359
30
0
10
6.1927158168257934
20
0.2930514852236098
30
0
10
6.3933706849359115
20
0.29381370965785725
30
0
10
6.5940363858128919
20
0.28381833728327355
30
0
10
6.7946185167880042
20
0.26519741819153375
30
0
10
6.9950364412641886
20
0.24099531267661375
30
0
10
7.1952512049663087
20
0.21435549316161037
30
0
10
7.3952945789887483
20
0.18769562015229302
30
0
10
7.5952447125963918
20
0.1627471428699637
30
0
10
7.7952006667027103
20
0.14061517815221969
30
0
10
7.9952573262812106
20
0.12182881802630587
30
0
10
8.1954804182327248
20
0.1063944397129814
30
0
10
8.3958807199823795
20
0.093844330709133533
30
0
10
8.5964285964466196
20
0.0833879321563228
30
0
10
8.7970693375428404
20
0.074064220030732236
30
0
10
8.9977381437603494
20
0.064893339693188876
30
0
10
9.198375158158278
20
0.055027688767927435
30
0
10
9.3989406409001734
20
0.043905252930818664
30
0
10
9.5994109835820076
20
0.031192441906057852
30
0
10
9.7597018342134039
20
0.019618643259477816
30
0
10
9.8798702435902683
20
0.010125287057311524
30
0
10
9.9599604290913728
20
0.0034352795044262645
30
0
10
10
20
0
30
0
0
SPLINE
5
104
100
AcDbEntity
8
0
100
AcDbSpline
70
4
71
5
72
61
73
55
74
0
42
0.000000001
43
0.0000000001
44
0.0000000001
40
0
40
0
40
0
40
0
40
0
40
0
40
0.02
40
0.040000000000000001
40
0.059999999999999998
40
0.080000000000000002
40
0.10000000000000001
40
0.12000000000000001
40
0.14000000000000001
40
0.16
40
0.17999999999999999
40
0.19999999999999998
40
0.21999999999999997
40
0.23999999999999996
40
0.25999999999999995
40
0.27999999999999997
40
0.29999999999999999
40
0.32000000000000001
40
0.34000000000000002
40
0.36000000000000004
40
0.38000000000000006
40
0.40000000000000008
40
0.4200000000000001
40
0.44000000000000011
40
0.46000000000000013
40
0.48000000000000015
40
0.50000000000000011
40
0.52000000000000013
40
0.54000000000000015
40
0.56000000000000016
40
0.58000000000000018
40
0.6000000000000002
40
0.62000000000000022
40
0.64000000000000024
40
0.66000000000000025
40
0.68000000000000027
40
0.70000000000000029
40
0.72000000000000031
40
0.74000000000000032
40
0.76000000000000034
40
0.78000000000000036
40
0.80000000000000038
40
0.8200000000000004
40
0.84000000000000041
40
0.86000000000000043
40
0.88000000000000045
40
0.90000000000000047
40
0.92000000000000048
40
0.9400000000000005
40
0.96000000000000052
40
0.98000000000000054
40
1
40
1
40
1
40
1
40
1
40
1
41
1
41
1
41
1
41
1
41
1
41
1
41
1
41
1
41
1
41
1
41
1
41
1
41
1
41
1
41
1
41
1
41
1
41
1
41
1
41
1
41
1
41
1
41
1
41
1
41
1
41
1
41
1
41
1
41
1
41
1
41
1
41
1
41
1
41
1
41
1
41
1
41
1
41
1
41
1
41
1
41
1
41
1
41
1
41
1
41
1
41
1
41
1
41
1
41
1
41
1
41
1
41
1
41
1
41
1
41
1
10
0
20
3
30
0
10
0.039538524444270071
20
2.9737070857349619
30
0
10
0.11864427257609436
20
2.9245301333265639
30
0
10
0.23738899225887533
20
2.8609913021569735
30
0
10
0.39588759444130484
20
2.7967396492973196
30
0
10
0.59429494461030785
20
2.7499984950053298
30
0
10
0.79297604292914081
20
2.7350869146676642
30
0
10
0.99190924884449083
20
2.7484038167876275
30
0
10
1.1910578287596238
20
2.7838672102021889
30
0
10
1.390365457395023
20
2.8322011278963282
30
0
10
1.5897700336912803
20
2.8825842500182581
30
0
10
1.7892180357484335
20
2.9243751822235553
30
0
10
1.9886789727871812
20
2.9488291154348527
30
0
10
2.188159193743739
20
2.9507755649471252
30
0
10
2.3877178245707933
20
2.9304479108255861
30
0
10
2.587439696016486
20
2.8921884812763765
30
0
10
2.7874062146363214
20
2.8429925590927723
30
0
10
2.9876664772224135
20
2.7911127708513273
30
0
10
3.1882093849110675
20
2.7446587243807814
30
0
10
3.3889320043399356
20
2.7101567796589467
30
0
10
3.5896806391868119
20
2.6921208788346682
30
0
10
3.7902958796937627
20
2.692689228919428
30
0
10
3.9906567075329891
20
2.7112165244765492
30
0
10
4.1907238112687581
20
2.743908985631303
30
0
10
4.3905868583717638
20
2.7833456327204424
30
0
10
4.5904116421522048
20
2.8205076780493723
30
0
10
4.7903831430691906
20
2.8469022343019184
30
0
10
4.9906495513544682
20
2.8566793777271853
30
0
10
5.1912672623048728
20
2.8486940018914719
30
0
10
5.3921413323977054
20
2.8287764917780525
30
0
10
5.5930828443527139
20
2.8068222240086174
30
0
10
5.7938711082633709
20
2.7936701471914076
30
0
10
5.9943143494917939
20
2.7980415348093834
30
0
10
6.1943101793714073
20
2.8234997334166243
30
0
10
6.3939087945592501
20
2.8652523918635198
30
0
10
6.5932631038533565
20
2.9132784492469401
30
0
10
6.7925761269726372
20
2.9556048756624294
30
0
10
6.9920492050449941
20
2.9815474043539747
30
0
10
7.1918307653750961
20
2.984905572678584
30
0
10
7.3919624067509595
20
2.9673561128444854
30
0
10
7.5924064025413376
20
2.9359773805908977
30
0
10
7.7930760562263757
20
2.9005704330203042
30
0
10
7.9938649870031249
20
2.8710499445184938
30
0
10
8.1946764672032479
20
2.854841070337006
30
0
10
8.3954535960660177
20
2.8541792104796206
30
0
10
8.5961710217656773
20
2.8674146378736594
30
0
10
8.796825593985286
20
2.8904253204262802
30
0
10
8.9974274636164413
20
2.9179844809155098
30
0
10
9.1979910739076267
20
2.9451368017726178
30
0
10
9.3985261238241264
20
2.9685868686973915
30
0
10
9.5990384378103784
20
2.986373989139735
30
0
10
9.7594324554715648
20
2.9952971790089382
30
0
10
9.8797195135868172
20
2.9988635078267176
30
0
10
9.959907130409885
20
2.999852581555035
30
0
10
10
20
3
30
0
0
ENDSEC
0
SECTION
2
OBJECTS
0
DICTIONARY
5
C
100
AcDbDictionary
3
ACAD_GROUP
350
D
3
ACAD_MLINESTYLE
350
17
0
DICTIONARY
5
D
100
AcDbDictionary
0
DICTIONARY
5
1A
330
C
100
AcDbDictionary
0
DICTIONARY
5
17
100
AcDbDictionary
0
ENDSEC
0
EOF
