0
SECTION
2
HEADER
9
$INSUNITS
70
4
9
$ACADVER
1
AC1014
9
$HANDSEED
5
FFFF
0
ENDSEC
0
SECTION
2
TABLES
0
TABLE
2
VPORT
5
8
100
AcDbSymbolTable
0
ENDTAB
0
TABLE
2
LTYPE
5
5
100
AcDbSymbolTable
0
LTYPE
5
14
100
AcDbSymbolTableRecord
100
AcDbLinetypeTableRecord
2
BYBLOCK
70
0
0
LTYPE
5
15
100
AcDbSymbolTableRecord
100
AcDbLinetypeTableRecord
2
BYLAYER
70
0
0
ENDTAB
0
TABLE
2
LAYER
5
2
100
AcDbSymbolTable
70
2
0
LAYER
5
50
100
AcDbSymbolTableRecord
100
AcDbLayerTableRecord
2
0
70
0
6
CONTINUOUS
0
ENDTAB
0
TABLE
2
STYLE
5
3
100
AcDbSymbolTable
70
1
0
STYLE
5
11
100
AcDbSymbolTableRecord
100
AcDbTextStyleTableRecord
2
STANDARD
70
0
0
ENDTAB
0
TABLE
2
VIEW
5
6
100
AcDbSymbolTable
70
0
0
ENDTAB
0
TABLE
2
UCS
5
7
100
AcDbSymbolTable
70
0
0
ENDTAB
0
TABLE
2
APPID
5
9
100
AcDbSymbolTable
70
2
0
APPID
5
12
100
AcDbSymbolTableRecord
100
AcDbRegAppTableRecord
2
ACAD
70
0
0
ENDTAB
0
TABLE
2
DIMSTYLE
5
A
100
AcDbSymbolTable
70
1
0
ENDTAB
0
TABLE
2
BLOCK_RECORD
5
1
100
AcDbSymbolTable
70
1
0
BLOCK_RECORD
5
1F
100
AcDbSymbolTableRecord
100
AcDbBlockTableRecord
2
*MODEL_SPACE
0
BLOCK_RECORD
5
1B
100
AcDbSymbolTableRecord
100
AcDbBlockTableRecord
2
*PAPER_SPACE
0
ENDTAB
0
ENDSEC
0
SECTION
2
BLOCKS
0
BLOCK
5
20
100
AcDbEntity
100
AcDbBlockBegin
2
*MODEL_SPACE
0
ENDBLK
5
21
100
AcDbEntity
100
AcDbBlockEnd
0
BLOCK
5
1C
100
AcDbEntity
100
AcDbBlockBegin
2
*PAPER_SPACE
0
ENDBLK
5
1D
100
AcDbEntity
100
AcDbBlockEnd
0
ENDSEC
0
SECTION
2
ENTITIES
0
SPLINE
5
100
100
AcDbEntity
8
0
100
AcDbSpline
70
4
71
5
72
16
73
10
74
0
42
0.000000001
43
0.0000000001
44
0.0000000001
40
0
40
0
40
0
40
0
40
0
40
0
40
0.20000000000000001
40
0.40000000000000002
40
0.60000000000000009
40
0.80000000000000004
40
1
40
1
40
1
40
1
40
1
40
1
41
1
41
1
41
1
41
1
41
1
41
1
41
1
41
1
41
1
41
1
10
0
20
0
30
0
10
0
20
0.12000000000003158
30
0
10
0
20
0.36000000000007704
30
0
10
0
20
0.72000000000009301
30
0
10
0
20
1.2000000000000313
30
0
10
0
20
1.7999999999999146
30
0
10
0
20
2.2799999999998684
30
0
10
0
20
2.6399999999999042
30
0
10
0
20
2.8799999999999617
30
0
10
0
20
3
30
0
0
SPLINE
5
101
100
AcDbEntity
8
0
100
AcDbSpline
70
4
71
5
72
16
73
10
74
0
42
0.000000001
43
0.0000000001
44
0.0000000001
40
0
40
0
40
0
40
0
40
0
40
0
40
0.20000000000000001
40
0.40000000000000002
40
0.60000000000000009
40
0.80000000000000004
40
1
40
1
40
1
40
1
40
1
40
1
41
1
41
1
41
1
41
1
41
1
41
1
41
1
41
1
41
1
41
1
10
10
20
0
30
0
10
9.9999999999997495
20
0.12000000000003158
30
0
10
9.9999999999993197
20
0.36000000000007704
30
0
10
9.9999999999989129
20
0.72000000000009301
30
0
10
9.9999999999987672
20
1.2000000000000313
30
0
10
9.9999999999990248
20
1.7999999999999146
30
0
10
9.9999999999993889
20
2.2799999999998684
30
0
10
9.9999999999996998
20
2.6399999999999042
30
0
10
9.9999999999999005
20
2.8799999999999617
30
0
10
10
20
3
30
0
0
SPLINE
5
102
100
AcDbEntity
8
0
100
AcDbSpline
70
4
71
5
72
16
73
10
74
0
42
0.000000001
43
0.0000000001
44
0.0000000001
40
0
40
0
40
0
40
0
40
0
40
0
40
0.20000000000000001
40
0.40000000000000002
40
0.60000000000000009
40
0.80000000000000004
40
1
40
1
40
1
40
1
40
1
40
1
41
1
41
1
41
1
41
1
41
1
41
1
41
1
41
1
41
1
41
1
10
0
20
1.5
30
0
10
0.40000000000047375
20
1.499999999999694
30
0
10
1.2000000000012774
20
1.4999999999991638
30
0
10
2.4000000000020547
20
1.4999999999986278
30
0
10
4.0000000000023546
20
1.4999999999983737
30
0
10
6.0000000000019584
20
1.4999999999985913
30
0
10
7.6000000000012928
20
1.4999999999990359
30
0
10
8.800000000000697
20
1.4999999999994786
30
0
10
9.6000000000002395
20
1.4999999999998188
30
0
10
10
20
1.5
30
0
0
SPLINE
5
103
100
AcDbEntity
8
0
100
AcDbSpline
70
4
71
5
72
61
73
55
74
0
42
0.000000001
43
0.0000000001
44
0.0000000001
40
0
40
0
40
0
40
0
40
0
40
0
40
0.02
40
0.040000000000000001
40
0.059999999999999998
40
0.080000000000000002
40
0.10000000000000001
40
0.12000000000000001
40
0.14000000000000001
40
0.16
40
0.17999999999999999
40
0.19999999999999998
40
0.21999999999999997
40
0.23999999999999996
40
0.25999999999999995
40
0.27999999999999997
40
0.29999999999999999
40
0.32000000000000001
40
0.34000000000000002
40
0.36000000000000004
40
0.38000000000000006
40
0.40000000000000008
40
0.4200000000000001
40
0.44000000000000011
40
0.46000000000000013
40
0.48000000000000015
40
0.50000000000000011
40
0.52000000000000013
40
0.54000000000000015
40
0.56000000000000016
40
0.58000000000000018
40
0.6000000000000002
40
0.62000000000000022
40
0.64000000000000024
40
0.66000000000000025
40
0.68000000000000027
40
0.70000000000000029
40
0.72000000000000031
40
0.74000000000000032
40
0.76000000000000034
40
0.78000000000000036
40
0.80000000000000038
40
0.8200000000000004
40
0.84000000000000041
40
0.86000000000000043
40
0.88000000000000045
40
0.90000000000000047
40
0.92000000000000048
40
0.9400000000000005
40
0.96000000000000052
40
0.98000000000000054
40
1
40
1
40
1
40
1
40
1
40
1
41
1
41
1
41
1
41
1
41
1
41
1
41
1
41
1
41
1
41
1
41
1
41
1
41
1
41
1
41
1
41
1
41
1
41
1
41
1
41
1
41
1
41
1
41
1
41
1
41
1
41
1
41
1
41
1
41
1
41
1
41
1
41
1
41
1
41
1
41
1
41
1
41
1
41
1
41
1
41
1
41
1
41
1
41
1
41
1
41
1
41
1
41
1
41
1
41
1
41
1
41
1
41
1
41
1
41
1
41
1
10
0
20
0
30
0
10
0.040326039578802167
20
0.0073766145800158991
30
0
10
0.12100034598266947
20
0.020769915578409962
30
0
10
0.24207848820376077
20
0.036780033030757574
30
0
10
0.40364945571551231
20
0.049962300181075281
30
0
10
0.60582742579605009
20
0.053292699836171784
30
0
10
0.80819418418248001
20
0.044918534294833494
30
0
10
1.0106983254233857
20
0.027754657434589193
30
0
10
1.2132529247639379
20
0.0067325707257020716
30
0
10
1.4157283653313213
20
-0.01079146265099876
30
0
10
1.6179902915654187
20
-0.01719059501466939
30
0
10
1.819936394570608
20
-0.0066530121812169822
30
0
10
2.0215319876083844
20
0.022795942832683498
30
0
10
2.2228502384141442
20
0.067019692576345491
30
0
10
2.4240992584115908
20
0.11420772807087566
30
0
10
2.6255308034396134
20
0.14971387825048266
30
0
10
2.8273571977719376
20
0.16045566560126545
30
0
10
3.0296689819329057
20
0.13925735004019738
30
0
10
3.2323428432739028
20
0.089755521276218719
30
0
10
3.4349800300497058
20
0.029548751467124476
30
0
10
3.6370384914023344
20
-0.017670207462041867
30
0
10
3.8379449478995706
20
-0.028913219685200192
30
0
10
4.0372104157368529
20
0.011268827896661497
30
0
10
4.2345541186024445
20
0.10307429042241698
30
0
10
4.4299951289199484
20
0.22671582993409378
30
0
10
4.6237830047127932
20
0.35216847232744325
30
0
10
4.8163509989600843
20
0.44696308514234401
30
0
10
5.0082609690466438
20
0.48464546498105254
30
0
10
5.2001524802709369
20
0.45315369798690708
30
0
10
5.3926897388141892
20
0.36272409219172569
30
0
10
5.5864841736308062
20
0.23771948222177877
30
0
10
5.7820188007771574
20
0.10917317130293537
30
0
10
5.9795691059813763
20
0.0069495894660687781
30
0
10
6.1791306177111736
20
-0.04761226202029379
30
0
10
6.3803274161634036
20
-0.050127104093467614
30
0
10
6.5825474022253641
20
-0.0090608141650588177
30
0
10
6.7850993392170809
20
0.059599784598379765
30
0
10
6.9873637936795872
20
0.13726331525422
30
0
10
7.1889420538541113
20
0.20769926231008068
30
0
10
7.3898189784826958
20
0.26229041323403862
30
0
10
7.5902456857517997
20
0.29845807258802282
30
0
10
7.7906056127119747
20
0.31766459615218351
30
0
10
7.9912860857610033
20
0.3235719344664148
30
0
10
8.192549978057734
20
0.32016754190264107
30
0
10
8.3944008378466037
20
0.30983854590191123
30
0
10
8.5966511197754532
20
0.29367316428420304
30
0
10
8.7989985357602869
20
0.27185601282310629
30
0
10
9.0010989977154505
20
0.24402599283966778
30
0
10
9.2026409456904261
20
0.20964890829384158
30
0
10
9.403418767601595
20
0.16838164988582577
30
0
10
9.603310760317914
20
0.12003008384974172
30
0
10
9.7624682133367422
20
0.075612359389609918
30
0
10
9.8814026424018131
20
0.039063597751383683
30
0
10
9.9604996495227649
20
0.013260707473352645
30
0
10
10
20
0
30
0
0
SPLINE
5
104
100
AcDbEntity
8
0
100
AcDbSpline
70
4
71
5
72
61
73
55
74
0
42
0.000000001
43
0.0000000001
44
0.0000000001
40
0
40
0
40
0
40
0
40
0
40
0
40
0.02
40
0.040000000000000001
40
0.059999999999999998
40
0.080000000000000002
40
0.10000000000000001
40
0.12000000000000001
40
0.14000000000000001
40
0.16
40
0.17999999999999999
40
0.19999999999999998
40
0.21999999999999997
40
0.23999999999999996
40
0.25999999999999995
40
0.27999999999999997
40
0.29999999999999999
40
0.32000000000000001
40
0.34000000000000002
40
0.36000000000000004
40
0.38000000000000006
40
0.40000000000000008
40
0.4200000000000001
40
0.44000000000000011
40
0.46000000000000013
40
0.48000000000000015
40
0.50000000000000011
40
0.52000000000000013
40
0.54000000000000015
40
0.56000000000000016
40
0.58000000000000018
40
0.6000000000000002
40
0.62000000000000022
40
0.64000000000000024
40
0.66000000000000025
40
0.68000000000000027
40
0.70000000000000029
40
0.72000000000000031
40
0.74000000000000032
40
0.76000000000000034
40
0.78000000000000036
40
0.80000000000000038
40
0.8200000000000004
40
0.84000000000000041
40
0.86000000000000043
40
0.88000000000000045
40
0.90000000000000047
40
0.92000000000000048
40
0.9400000000000005
40
0.96000000000000052
40
0.98000000000000054
40
1
40
1
40
1
40
1
40
1
40
1
41
1
41
1
41
1
41
1
41
1
41
1
41
1
41
1
41
1
41
1
41
1
41
1
41
1
41
1
41
1
41
1
41
1
41
1
41
1
41
1
41
1
41
1
41
1
41
1
41
1
41
1
41
1
41
1
41
1
41
1
41
1
41
1
41
1
41
1
41
1
41
1
41
1
41
1
41
1
41
1
41
1
41
1
41
1
41
1
41
1
41
1
41
1
41
1
41
1
41
1
41
1
41
1
41
1
41
1
41
1
10
0
20
3
30
0
10
0.041315374991940837
20
3.0062777198447987
30
0
10
0.12372957959819589
20
3.0174099560595775
30
0
10
0.24670124783718311
20
3.0298387052084506
30
0
10
0.40936337024215297
20
3.0378655527290617
30
0
10
0.61056918938614924
20
3.0336739768524259
30
0
10
0.80979719738387446
20
3.0153611105070706
30
0
10
1.0073414299140189
20
2.9831786009024333
30
0
10
1.2036999622035762
20
2.9375813378569049
30
0
10
1.3996220276802132
20
2.8792981597893421
30
0
10
1.5959321581649857
20
2.8098758959907135
30
0
10
1.7933623281703155
20
2.7322040951523969
30
0
10
1.9923790939725206
20
2.6510635246835683
30
0
10
2.1930165591999069
20
2.573639695671917
30
0
10
2.3946939458019361
20
2.5101393461920791
30
0
10
2.596478713746345
20
2.4713460571602193
30
0
10
2.7973633493108325
20
2.4660820016618308
30
0
10
2.9965381419178412
20
2.4986819579813027
30
0
10
3.1936627928687713
20
2.5664923940535243
30
0
10
3.3891483526649759
20
2.65722921339971
30
0
10
3.5838851698167611
20
2.7532773610558818
30
0
10
3.7789646535962778
20
2.8360465716512699
30
0
10
3.9753976932937825
20
2.8904223683211434
30
0
10
4.1738491534146451
20
2.9089034655379757
30
0
10
4.3743257893445282
20
2.8966339180128067
30
0
10
4.5763483524621238
20
2.8672281994111093
30
0
10
4.7791834329716689
20
2.8374778846721398
30
0
10
4.9820566448570851
20
2.8223689504610965
30
0
10
5.1843655884011008
20
2.8301921986296756
30
0
10
5.3859140001005992
20
2.8569971975256814
30
0
10
5.5868066098329265
20
2.8908498852170283
30
0
10
5.7873138628124732
20
2.9169400855289269
30
0
10
5.9877466145917113
20
2.922438846946978
30
0
10
6.1883301781620705
20
2.9013083540048727
30
0
10
6.3890695105952586
20
2.8595652740567763
30
0
10
6.589822389976784
20
2.8109082043893485
30
0
10
6.7903846338254494
20
2.7718022579363999
30
0
10
6.9905715360321015
20
2.7567229275825698
30
0
10
7.1902989619274589
20
2.77344474202549
30
0
10
7.3896700505348552
20
2.8179865695184199
30
0
10
7.5889103949578232
20
2.8784932926938245
30
0
10
7.7882967727507957
20
2.9394945694182493
30
0
10
7.9880876603169151
20
2.9860572311792777
30
0
10
8.18845476597836
20
3.0078777736396218
30
0
10
8.3894091444108305
20
3.0036886403856733
30
0
10
8.5908420930066303
20
2.9789902962201524
30
0
10
8.7925723619695031
20
2.9434153639531009
30
0
10
8.9943910150928978
20
2.9082296648622048
30
0
10
9.1961067216536776
20
2.8838066736199526
30
0
10
9.3975920688030321
20
2.8770466127297354
30
0
10
9.5987714885589757
20
2.8920334020744103
30
0
10
9.7594404413129556
20
2.9230269497379875
30
0
10
9.8797823343747186
20
2.9572478385637706
30
0
10
9.959939275921819
20
2.9849367803753051
30
0
10
10
20
3
30
0
0
ENDSEC
0
SECTION
2
OBJECTS
0
DICTIONARY
5
C
100
AcDbDictionary
3
ACAD_GROUP
350
D
3
ACAD_MLINESTYLE
350
17
0
DICTIONARY
5
D
100
AcDbDictionary
0
DICTIONARY
5
1A
330
C
100
AcDbDictionary
0
DICTIONARY
5
17
100
AcDbDictionary
0
ENDSEC
0
EOF
