0
SECTION
2
HEADER
9
$INSUNITS
70
4
9
$ACADVER
1
AC1014
9
$HANDSEED
5
FFFF
0
ENDSEC
0
SECTION
2
TABLES
0
TABLE
2
VPORT
5
8
100
AcDbSymbolTable
0
ENDTAB
0
TABLE
2
LTYPE
5
5
100
AcDbSymbolTable
0
LTYPE
5
14
100
AcDbSymbolTableRecord
100
AcDbLinetypeTableRecord
2
BYBLOCK
70
0
0
LTYPE
5
15
100
AcDbSymbolTableRecord
100
AcDbLinetypeTableRecord
2
BYLAYER
70
0
0
ENDTAB
0
TABLE
2
LAYER
5
2
100
AcDbSymbolTable
70
2
0
LAYER
5
50
100
AcDbSymbolTableRecord
100
AcDbLayerTableRecord
2
0
70
0
6
CONTINUOUS
0
ENDTAB
0
TABLE
2
STYLE
5
3
100
AcDbSymbolTable
70
1
0
STYLE
5
11
100
AcDbSymbolTableRecord
100
AcDbTextStyleTableRecord
2
STANDARD
70
0
0
ENDTAB
0
TABLE
2
VIEW
5
6
100
AcDbSymbolTable
70
0
0
ENDTAB
0
TABLE
2
UCS
5
7
100
AcDbSymbolTable
70
0
0
ENDTAB
0
TABLE
2
APPID
5
9
100
AcDbSymbolTable
70
2
0
APPID
5
12
100
AcDbSymbolTableRecord
100
AcDbRegAppTableRecord
2
ACAD
70
0
0
ENDTAB
0
TABLE
2
DIMSTYLE
5
A
100
AcDbSymbolTable
70
1
0
ENDTAB
0
TABLE
2
BLOCK_RECORD
5
1
100
AcDbSymbolTable
70
1
0
BLOCK_RECORD
5
1F
100
AcDbSymbolTableRecord
100
AcDbBlockTableRecord
2
*MODEL_SPACE
0
BLOCK_RECORD
5
1B
100
AcDbSymbolTableRecord
100
AcDbBlockTableRecord
2
*PAPER_SPACE
0
ENDTAB
0
ENDSEC
0
SECTION
2
BLOCKS
0
BLOCK
5
20
100
AcDbEntity
100
AcDbBlockBegin
2
*MODEL_SPACE
0
ENDBLK
5
21
100
AcDbEntity
100
AcDbBlockEnd
0
BLOCK
5
1C
100
AcDbEntity
100
AcDbBlockBegin
2
*PAPER_SPACE
0
ENDBLK
5
1D
100
AcDbEntity
100
AcDbBlockEnd
0
ENDSEC
0
SECTION
2
ENTITIES
0
SPLINE
5
100
100
AcDbEntity
8
0
100
AcDbSpline
70
4
71
5
72
16
73
10
74
0
42
0.000000001
43
0.0000000001
44
0.0000000001
40
0
40
0
40
0
40
0
40
0
40
0
40
0.20000000000000001
40
0.40000000000000002
40
0.60000000000000009
40
0.80000000000000004
40
1
40
1
40
1
40
1
40
1
40
1
41
1
41
1
41
1
41
1
41
1
41
1
41
1
41
1
41
1
41
1
10
0
20
0
30
0
10
0
20
0.12000000000003158
30
0
10
0
20
0.36000000000007704
30
0
10
0
20
0.72000000000009301
30
0
10
0
20
1.2000000000000313
30
0
10
0
20
1.7999999999999146
30
0
10
0
20
2.2799999999998684
30
0
10
0
20
2.6399999999999042
30
0
10
0
20
2.8799999999999617
30
0
10
0
20
3
30
0
0
SPLINE
5
101
100
AcDbEntity
8
0
100
AcDbSpline
70
4
71
5
72
16
73
10
74
0
42
0.000000001
43
0.0000000001
44
0.0000000001
40
0
40
0
40
0
40
0
40
0
40
0
40
0.20000000000000001
40
0.40000000000000002
40
0.60000000000000009
40
0.80000000000000004
40
1
40
1
40
1
40
1
40
1
40
1
41
1
41
1
41
1
41
1
41
1
41
1
41
1
41
1
41
1
41
1
10
10
20
0
30
0
10
9.9999999999997495
20
0.12000000000003158
30
0
10
9.9999999999993197
20
0.36000000000007704
30
0
10
9.9999999999989129
20
0.72000000000009301
30
0
10
9.9999999999987672
20
1.2000000000000313
30
0
10
9.9999999999990248
20
1.7999999999999146
30
0
10
9.9999999999993889
20
2.2799999999998684
30
0
10
9.9999999999996998
20
2.6399999999999042
30
0
10
9.9999999999999005
20
2.8799999999999617
30
0
10
10
20
3
30
0
0
SPLINE
5
102
100
AcDbEntity
8
0
100
AcDbSpline
70
4
71
5
72
16
73
10
74
0
42
0.000000001
43
0.0000000001
44
0.0000000001
40
0
40
0
40
0
40
0
40
0
40
0
40
0.20000000000000001
40
0.40000000000000002
40
0.60000000000000009
40
0.80000000000000004
40
1
40
1
40
1
40
1
40
1
40
1
41
1
41
1
41
1
41
1
41
1
41
1
41
1
41
1
41
1
41
1
10
0
20
1.5
30
0
10
0.40000000000047375
20
1.499999999999694
30
0
10
1.2000000000012774
20
1.4999999999991638
30
0
10
2.4000000000020547
20
1.4999999999986278
30
0
10
4.0000000000023546
20
1.4999999999983737
30
0
10
6.0000000000019584
20
1.4999999999985913
30
0
10
7.6000000000012928
20
1.4999999999990359
30
0
10
8.800000000000697
20
1.4999999999994786
30
0
10
9.6000000000002395
20
1.4999999999998188
30
0
10
10
20
1.5
30
0
0
SPLINE
5
103
100
AcDbEntity
8
0
100
AcDbSpline
70
4
71
5
72
61
73
55
74
0
42
0.000000001
43
0.0000000001
44
0.0000000001
40
0
40
0
40
0
40
0
40
0
40
0
40
0.02
40
0.040000000000000001
40
0.059999999999999998
40
0.080000000000000002
40
0.10000000000000001
40
0.12000000000000001
40
0.14000000000000001
40
0.16
40
0.17999999999999999
40
0.19999999999999998
40
0.21999999999999997
40
0.23999999999999996
40
0.25999999999999995
40
0.27999999999999997
40
0.29999999999999999
40
0.32000000000000001
40
0.34000000000000002
40
0.36000000000000004
40
0.38000000000000006
40
0.40000000000000008
40
0.4200000000000001
40
0.44000000000000011
40
0.46000000000000013
40
0.48000000000000015
40
0.50000000000000011
40
0.52000000000000013
40
0.54000000000000015
40
0.56000000000000016
40
0.58000000000000018
40
0.6000000000000002
40
0.62000000000000022
40
0.64000000000000024
40
0.66000000000000025
40
0.68000000000000027
40
0.70000000000000029
40
0.72000000000000031
40
0.74000000000000032
40
0.76000000000000034
40
0.78000000000000036
40
0.80000000000000038
40
0.8200000000000004
40
0.84000000000000041
40
0.86000000000000043
40
0.88000000000000045
40
0.90000000000000047
40
0.92000000000000048
40
0.9400000000000005
40
0.96000000000000052
40
0.98000000000000054
40
1
40
1
40
1
40
1
40
1
40
1
41
1
41
1
41
1
41
1
41
1
41
1
41
1
41
1
41
1
41
1
41
1
41
1
41
1
41
1
41
1
41
1
41
1
41
1
41
1
41
1
41
1
41
1
41
1
41
1
41
1
41
1
41
1
41
1
41
1
41
1
41
1
41
1
41
1
41
1
41
1
41
1
41
1
41
1
41
1
41
1
41
1
41
1
41
1
41
1
41
1
41
1
41
1
41
1
41
1
41
1
41
1
41
1
41
1
41
1
41
1
10
0
20
0
30
0
10
0.039152682370270461
20
0.010087178907907337
30
0
10
0.1175466963274584
20
0.030458190473259143
30
0
10
0.23540366388494621
20
0.061604641655119266
30
0
10
0.39307853598560211
20
0.10431411914692487
30
0
10
0.59104648019666817
20
0.15935552671437109
30
0
10
0.78984725187937399
20
0.21510688098511399
30
0
10
0.98939479220231119
20
0.2696634823284117
30
0
10
1.1895437388231072
20
0.31985834239032029
30
0
10
1.3900717288628375
20
0.36088221848523511
30
0
10
1.5907235244281217
20
0.3875613141395074
30
0
10
1.7912579043129571
20
0.39570782586915682
30
0
10
1.991494078478053
20
0.38346532877106321
30
0
10
2.1913572163626602
20
0.35261783093343374
30
0
10
2.3909279290627712
20
0.31004437461947248
30
0
10
2.5903862313539512
20
0.26535930827117343
30
0
10
2.7899516455817679
20
0.22841749722036062
30
0
10
2.9898242880173105
20
0.20683962610781229
30
0
10
3.1901268685451756
20
0.20359781746603192
30
0
10
3.3908424995641733
20
0.21436577382493574
30
0
10
3.5918530501540822
20
0.23034795417451612
30
0
10
3.7929821366229746
20
0.24135595071818974
30
0
10
3.9940363787814515
20
0.23880945006380047
30
0
10
4.1948469508118453
20
0.21872314174015112
30
0
10
4.3953120060593607
20
0.18484125147279562
30
0
10
4.5953947142554981
20
0.14586050404149575
30
0
10
4.7951200449398392
20
0.1125016379647034
30
0
10
4.9945723405454334
20
0.094628870500895412
30
0
10
5.1938923917701132
20
0.098384707488044856
30
0
10
5.3932758203150666
20
0.12321219612840827
30
0
10
5.5929271704274122
20
0.16370050557357707
30
0
10
5.7930131554289161
20
0.2115421322391931
30
0
10
5.9936156504656379
20
0.25744705647517085
30
0
10
6.1946857107671089
20
0.29305287019727805
30
0
10
6.3959937354662415
20
0.31288590021940976
30
0
10
6.5972136454426655
20
0.31420361165925126
30
0
10
6.7980106856387046
20
0.29677829316283927
30
0
10
6.9981280425237316
20
0.26271104043427407
30
0
10
7.1974735843694901
20
0.21623705782784847
30
0
10
7.3962084088184898
20
0.16354942813041307
30
0
10
7.5946544583686624
20
0.11167180285605086
30
0
10
7.7932010558636335
20
0.067329772173624888
30
0
10
7.9922114212371884
20
0.035812787605964014
30
0
10
8.1919307606732126
20
0.019859719995350911
30
0
10
8.3923891672827917
20
0.018465524953807891
30
0
10
8.5934577824781027
20
0.027929368603094761
30
0
10
8.7949101112341648
20
0.042976773876638397
30
0
10
8.996481286614852
20
0.057852370057833516
30
0
10
9.1979276689590854
20
0.067415696130162781
30
0
10
9.3990873061065301
20
0.06825550477585185
30
0
10
9.5998640390753618
20
0.058350246474749713
30
0
10
9.7601411517965655
20
0.041035467679388891
30
0
10
9.8801484950742982
20
0.022625622007416177
30
0
10
9.9600643400618036
20
0.0079433756880912688
30
0
10
10
20
0
30
0
0
SPLINE
5
104
100
AcDbEntity
8
0
100
AcDbSpline
70
4
71
5
72
61
73
55
74
0
42
0.000000001
43
0.0000000001
44
0.0000000001
40
0
40
0
40
0
40
0
40
0
40
0
40
0.02
40
0.040000000000000001
40
0.059999999999999998
40
0.080000000000000002
40
0.10000000000000001
40
0.12000000000000001
40
0.14000000000000001
40
0.16
40
0.17999999999999999
40
0.19999999999999998
40
0.21999999999999997
40
0.23999999999999996
40
0.25999999999999995
40
0.27999999999999997
40
0.29999999999999999
40
0.32000000000000001
40
0.34000000000000002
40
0.36000000000000004
40
0.38000000000000006
40
0.40000000000000008
40
0.4200000000000001
40
0.44000000000000011
40
0.46000000000000013
40
0.48000000000000015
40
0.50000000000000011
40
0.52000000000000013
40
0.54000000000000015
40
0.56000000000000016
40
0.58000000000000018
40
0.6000000000000002
40
0.62000000000000022
40
0.64000000000000024
40
0.66000000000000025
40
0.68000000000000027
40
0.70000000000000029
40
0.72000000000000031
40
0.74000000000000032
40
0.76000000000000034
40
0.78000000000000036
40
0.80000000000000038
40
0.8200000000000004
40
0.84000000000000041
40
0.86000000000000043
40
0.88000000000000045
40
0.90000000000000047
40
0.92000000000000048
40
0.9400000000000005
40
0.96000000000000052
40
0.98000000000000054
40
1
40
1
40
1
40
1
40
1
40
1
41
1
41
1
41
1
41
1
41
1
41
1
41
1
41
1
41
1
41
1
41
1
41
1
41
1
41
1
41
1
41
1
41
1
41
1
41
1
41
1
41
1
41
1
41
1
41
1
41
1
41
1
41
1
41
1
41
1
41
1
41
1
41
1
41
1
41
1
41
1
41
1
41
1
41
1
41
1
41
1
41
1
41
1
41
1
41
1
41
1
41
1
41
1
41
1
41
1
41
1
41
1
41
1
41
1
41
1
41
1
10
0
20
3
30
0
10
0.040719372886292744
20
3.0166344630803987
30
0
10
0.12206009626101981
20
3.045854121595764
30
0
10
0.2437771141284453
20
3.0775357616701955
30
0
10
0.40547795380499524
20
3.0954668095053197
30
0
10
0.60662590672111405
20
3.0783927208389161
30
0
10
0.80680792129371415
20
3.0250912371233403
30
0
10
1.0060512484009363
20
2.9421972511547101
30
0
10
1.2044039961157906
20
2.8409195767762019
30
0
10
1.4019409150665614
20
2.7381204824774894
30
0
10
1.5987688378958287
20
2.6524948793444851
30
0
10
1.795032071013277
20
2.600903692231944
30
0
10
1.9909181916613072
20
2.5945970582880831
30
0
10
2.1866631830647401
20
2.6355858927937548
30
0
10
2.3825586748604994
20
2.7126149135230539
30
0
10
2.5789113920668871
20
2.8061773036568987
30
0
10
2.7760011302245555
20
2.8938442316185715
30
0
10
2.9740380110196245
20
2.9556005130944034
30
0
10
3.1731226220458937
20
2.9788755383875518
30
0
10
3.37319731788789
20
2.9645283636504667
30
0
10
3.5740839015721333
20
2.9233080180324782
30
0
10
3.7755327182798801
20
2.8710582177943755
30
0
10
3.9772680349411749
20
2.8242984423135047
30
0
10
4.1790335662083775
20
2.7958466184390303
30
0
10
4.3806413825216701
20
2.7899007647612679
30
0
10
4.5819746953376228
20
2.8039851913458165
30
0
10
4.7829849689696537
20
2.8316909767601208
30
0
10
4.9836916560428532
20
2.8651542070149567
30
0
10
5.1841801007771426
20
2.8975596474225669
30
0
10
5.3846028932779593
20
2.9258452115230527
30
0
10
5.585137986156461
20
2.9496775110304756
30
0
10
5.7859438635775486
20
2.9701262859635675
30
0
10
5.9871148871798923
20
2.9884349594268937
30
0
10
6.1886383838663273
20
3.0047929883385223
30
0
10
6.3903454127351997
20
3.0169954146229276
30
0
10
6.5919794207895546
20
3.021551531587674
30
0
10
6.7932718001828221
20
3.0149425710623259
30
0
10
6.994015418637602
20
2.9948338552703562
30
0
10
7.1941378287508675
20
2.9612868476622212
30
0
10
7.3937784745599515
20
2.9180370699065556
30
0
10
7.593210235333979
20
2.8711372122267518
30
0
10
7.7927569710102915
20
2.8275322592375844
30
0
10
7.9927121730896786
20
2.7936536248255814
30
0
10
8.1932584395627455
20
2.7740269988152071
30
0
10
8.3943827711178081
20
2.7698097351918194
30
0
10
8.5959295804108926
20
2.7796477607374532
30
0
10
8.7976580870360639
20
2.800606067540055
30
0
10
8.999297855510406
20
2.8290674438411663
30
0
10
9.2006049053081522
20
2.8616404501360688
30
0
10
9.401417818294906
20
2.8960664064536457
30
0
10
9.601640954275048
20
2.9309931623895178
30
0
10
9.7613101829547642
20
2.9587951382985969
30
0
10
9.880769001861335
20
2.9794672736958998
30
0
10
9.9602780311595858
20
2.993169034780057
30
0
10
10
20
3
30
0
0
ENDSEC
0
SECTION
2
OBJECTS
0
DICTIONARY
5
C
100
AcDbDictionary
3
ACAD_GROUP
350
D
3
ACAD_MLINESTYLE
350
17
0
DICTIONARY
5
D
100
AcDbDictionary
0
DICTIONARY
5
1A
330
C
100
AcDbDictionary
0
DICTIONARY
5
17
100
AcDbDictionary
0
ENDSEC
0
EOF
