0
SECTION
2
HEADER
9
$INSUNITS
70
4
9
$ACADVER
1
AC1014
9
$HANDSEED
5
FFFF
0
ENDSEC
0
SECTION
2
TABLES
0
TABLE
2
VPORT
5
8
100
AcDbSymbolTable
0
ENDTAB
0
TABLE
2
LTYPE
5
5
100
AcDbSymbolTable
0
LTYPE
5
14
100
AcDbSymbolTableRecord
100
AcDbLinetypeTableRecord
2
BYBLOCK
70
0
0
LTYPE
5
15
100
AcDbSymbolTableRecord
100
AcDbLinetypeTableRecord
2
BYLAYER
70
0
0
ENDTAB
0
TABLE
2
LAYER
5
2
100
AcDbSymbolTable
70
2
0
LAYER
5
50
100
AcDbSymbolTableRecord
100
AcDbLayerTableRecord
2
0
70
0
6
CONTINUOUS
0
ENDTAB
0
TABLE
2
STYLE
5
3
100
AcDbSymbolTable
70
1
0
STYLE
5
11
100
AcDbSymbolTableRecord
100
AcDbTextStyleTableRecord
2
STANDARD
70
0
0
ENDTAB
0
TABLE
2
VIEW
5
6
100
AcDbSymbolTable
70
0
0
ENDTAB
0
TABLE
2
UCS
5
7
100
AcDbSymbolTable
70
0
0
ENDTAB
0
TABLE
2
APPID
5
9
100
AcDbSymbolTable
70
2
0
APPID
5
12
100
AcDbSymbolTableRecord
100
AcDbRegAppTableRecord
2
ACAD
70
0
0
ENDTAB
0
TABLE
2
DIMSTYLE
5
A
100
AcDbSymbolTable
70
1
0
ENDTAB
0
TABLE
2
BLOCK_RECORD
5
1
100
AcDbSymbolTable
70
1
0
BLOCK_RECORD
5
1F
100
AcDbSymbolTableRecord
100
AcDbBlockTableRecord
2
*MODEL_SPACE
0
BLOCK_RECORD
5
1B
100
AcDbSymbolTableRecord
100
AcDbBlockTableRecord
2
*PAPER_SPACE
0
ENDTAB
0
ENDSEC
0
SECTION
2
BLOCKS
0
BLOCK
5
20
100
AcDbEntity
100
AcDbBlockBegin
2
*MODEL_SPACE
0
ENDBLK
5
21
100
AcDbEntity
100
AcDbBlockEnd
0
BLOCK
5
1C
100
AcDbEntity
100
AcDbBlockBegin
2
*PAPER_SPACE
0
ENDBLK
5
1D
100
AcDbEntity
100
AcDbBlockEnd
0
ENDSEC
0
SECTION
2
ENTITIES
0
SPLINE
5
100
100
AcDbEntity
8
0
100
AcDbSpline
70
4
71
5
72
16
73
10
74
0
42
0.000000001
43
0.0000000001
44
0.0000000001
40
0
40
0
40
0
40
0
40
0
40
0
40
0.20000000000000001
40
0.40000000000000002
40
0.60000000000000009
40
0.80000000000000004
40
1
40
1
40
1
40
1
40
1
40
1
41
1
41
1
41
1
41
1
41
1
41
1
41
1
41
1
41
1
41
1
10
0
20
0
30
0
10
0
20
0.12000000000003158
30
0
10
0
20
0.36000000000007704
30
0
10
0
20
0.72000000000009301
30
0
10
0
20
1.2000000000000313
30
0
10
0
20
1.7999999999999146
30
0
10
0
20
2.2799999999998684
30
0
10
0
20
2.6399999999999042
30
0
10
0
20
2.8799999999999617
30
0
10
0
20
3
30
0
0
SPLINE
5
101
100
AcDbEntity
8
0
100
AcDbSpline
70
4
71
5
72
16
73
10
74
0
42
0.000000001
43
0.0000000001
44
0.0000000001
40
0
40
0
40
0
40
0
40
0
40
0
40
0.20000000000000001
40
0.40000000000000002
40
0.60000000000000009
40
0.80000000000000004
40
1
40
1
40
1
40
1
40
1
40
1
41
1
41
1
41
1
41
1
41
1
41
1
41
1
41
1
41
1
41
1
10
10
20
0
30
0
10
9.9999999999997495
20
0.12000000000003158
30
0
10
9.9999999999993197
20
0.36000000000007704
30
0
10
9.9999999999989129
20
0.72000000000009301
30
0
10
9.9999999999987672
20
1.2000000000000313
30
0
10
9.9999999999990248
20
1.7999999999999146
30
0
10
9.9999999999993889
20
2.2799999999998684
30
0
10
9.9999999999996998
20
2.6399999999999042
30
0
10
9.9999999999999005
20
2.8799999999999617
30
0
10
10
20
3
30
0
0
SPLINE
5
102
100
AcDbEntity
8
0
100
AcDbSpline
70
4
71
5
72
16
73
10
74
0
42
0.000000001
43
0.0000000001
44
0.0000000001
40
0
40
0
40
0
40
0
40
0
40
0
40
0.20000000000000001
40
0.40000000000000002
40
0.60000000000000009
40
0.80000000000000004
40
1
40
1
40
1
40
1
40
1
40
1
41
1
41
1
41
1
41
1
41
1
41
1
41
1
41
1
41
1
41
1
10
0
20
1.5
30
0
10
0.40000000000047375
20
1.499999999999694
30
0
10
1.2000000000012774
20
1.4999999999991638
30
0
10
2.4000000000020547
20
1.4999999999986278
30
0
10
4.0000000000023546
20
1.4999999999983737
30
0
10
6.0000000000019584
20
1.4999999999985913
30
0
10
7.6000000000012928
20
1.4999999999990359
30
0
10
8.800000000000697
20
1.4999999999994786
30
0
10
9.6000000000002395
20
1.4999999999998188
30
0
10
10
20
1.5
30
0
0
SPLINE
5
103
100
AcDbEntity
8
0
100
AcDbSpline
70
4
71
5
72
61
73
55
74
0
42
0.000000001
43
0.0000000001
44
0.0000000001
40
0
40
0
40
0
40
0
40
0
40
0
40
0.02
40
0.040000000000000001
40
0.059999999999999998
40
0.080000000000000002
40
0.10000000000000001
40
0.12000000000000001
40
0.14000000000000001
40
0.16
40
0.17999999999999999
40
0.19999999999999998
40
0.21999999999999997
40
0.23999999999999996
40
0.25999999999999995
40
0.27999999999999997
40
0.29999999999999999
40
0.32000000000000001
40
0.34000000000000002
40
0.36000000000000004
40
0.38000000000000006
40
0.40000000000000008
40
0.4200000000000001
40
0.44000000000000011
40
0.46000000000000013
40
0.48000000000000015
40
0.50000000000000011
40
0.52000000000000013
40
0.54000000000000015
40
0.56000000000000016
40
0.58000000000000018
40
0.6000000000000002
40
0.62000000000000022
40
0.64000000000000024
40
0.66000000000000025
40
0.68000000000000027
40
0.70000000000000029
40
0.72000000000000031
40
0.74000000000000032
40
0.76000000000000034
40
0.78000000000000036
40
0.80000000000000038
40
0.8200000000000004
40
0.84000000000000041
40
0.86000000000000043
40
0.88000000000000045
40
0.90000000000000047
40
0.92000000000000048
40
0.9400000000000005
40
0.96000000000000052
40
0.98000000000000054
40
1
40
1
40
1
40
1
40
1
40
1
41
1
41
1
41
1
41
1
41
1
41
1
41
1
41
1
41
1
41
1
41
1
41
1
41
1
41
1
41
1
41
1
41
1
41
1
41
1
41
1
41
1
41
1
41
1
41
1
41
1
41
1
41
1
41
1
41
1
41
1
41
1
41
1
41
1
41
1
41
1
41
1
41
1
41
1
41
1
41
1
41
1
41
1
41
1
41
1
41
1
41
1
41
1
41
1
41
1
41
1
41
1
41
1
41
1
41
1
41
1
10
0
20
0
30
0
10
0.040107161304378115
20
0.020429220643968099
30
0
10
0.12038860318448497
20
0.058000599435718461
30
0
10
0.24101212499050928
20
0.10449637310145266
30
0
10
0.40224645763822864
20
0.14675622396272311
30
0
10
0.60444264060760544
20
0.16773828864133231
30
0
10
0.80723417604348069
20
0.1601705470028926
30
0
10
1.0105034614356678
20
0.13071250542731944
30
0
10
1.2140517129241311
20
0.090632057609884423
30
0
10
1.4175806691683632
20
0.056752959350502466
30
0
10
1.6207396650932238
20
0.046769038076479974
30
0
10
1.8231701260112652
20
0.07470661287326584
30
0
10
2.0245501755862367
20
0.14652642842694596
30
0
10
2.2246411634216772
20
0.2551763970209579
30
0
10
2.423328095142931
20
0.37721271389123467
30
0
10
2.6206088040629956
20
0.48197226476764438
30
0
10
2.8165884522654094
20
0.539604607301302
30
0
10
3.0114719451536294
20
0.52940548963110057
30
0
10
3.2055584276140232
20
0.44834874998795565
30
0
10
3.3992326857224491
20
0.31870432583221708
30
0
10
3.5929007480045727
20
0.17682620154522893
30
0
10
3.7869290998392087
20
0.063012217707353768
30
0
10
3.9815807060900905
20
0.010759487677327078
30
0
10
4.1769562293433831
20
0.036767768569102861
30
0
10
4.3729217060147123
20
0.12924034665408735
30
0
10
4.5692037573614188
20
0.25704311569631361
30
0
10
4.7654979811448515
20
0.38060509001571485
30
0
10
4.9615770280139557
20
0.46251919037437295
30
0
10
5.157388514462915
20
0.47745826090668458
30
0
10
5.3531847858396722
20
0.42451359652755649
30
0
10
5.5494269196621495
20
0.32195336056097362
30
0
10
5.7466402549993436
20
0.19810247798607844
30
0
10
5.9452806501794697
20
0.083282903543890785
30
0
10
6.145609999665651
20
0.0020077084575583753
30
0
10
6.3475318689798241
20
-0.036696476684471589
30
0
10
6.5506587669783105
20
-0.037522545793515438
30
0
10
6.7544604074026697
20
-0.013044974597758508
30
0
10
6.9583888669511049
20
0.020885780723674491
30
0
10
7.1620041092430329
20
0.049947624434019809
30
0
10
7.3651231476986325
20
0.066849516307262005
30
0
10
7.5677787127992344
20
0.070536313336393042
30
0
10
7.7701314878491985
20
0.063825915077105486
30
0
10
7.9723971831419576
20
0.051561584585400763
30
0
10
8.1747709676403151
20
0.038636151765205566
30
0
10
8.3773441648856828
20
0.027860051342749471
30
0
10
8.5801207441799363
20
0.020214552387641475
30
0
10
8.7830488673063698
20
0.015473204382407867
30
0
10
8.9860471713850547
20
0.012693070313358047
30
0
10
9.1890325742117813
20
0.010747779630263254
30
0
10
9.3919489802938045
20
0.0088701983782293083
30
0
10
9.5947632911972391
20
0.0066076381607271077
30
0
10
9.7569198872740799
20
0.0043077150803920872
30
0
10
9.8784816043687744
20
0.0022739254166171084
30
0
10
9.9594979938953223
20
0.00078084369508304335
30
0
10
10
20
0
30
0
0
SPLINE
5
104
100
AcDbEntity
8
0
100
AcDbSpline
70
4
71
5
72
61
73
55
74
0
42
0.000000001
43
0.0000000001
44
0.0000000001
40
0
40
0
40
0
40
0
40
0
40
0
40
0.02
40
0.040000000000000001
40
0.059999999999999998
40
0.080000000000000002
40
0.10000000000000001
40
0.12000000000000001
40
0.14000000000000001
40
0.16
40
0.17999999999999999
40
0.19999999999999998
40
0.21999999999999997
40
0.23999999999999996
40
0.25999999999999995
40
0.27999999999999997
40
0.29999999999999999
40
0.32000000000000001
40
0.34000000000000002
40
0.36000000000000004
40
0.38000000000000006
40
0.40000000000000008
40
0.4200000000000001
40
0.44000000000000011
40
0.46000000000000013
40
0.48000000000000015
40
0.50000000000000011
40
0.52000000000000013
40
0.54000000000000015
40
0.56000000000000016
40
0.58000000000000018
40
0.6000000000000002
40
0.62000000000000022
40
0.64000000000000024
40
0.66000000000000025
40
0.68000000000000027
40
0.70000000000000029
40
0.72000000000000031
40
0.74000000000000032
40
0.76000000000000034
40
0.78000000000000036
40
0.80000000000000038
40
0.8200000000000004
40
0.84000000000000041
40
0.86000000000000043
40
0.88000000000000045
40
0.90000000000000047
40
0.92000000000000048
40
0.9400000000000005
40
0.96000000000000052
40
0.98000000000000054
40
1
40
1
40
1
40
1
40
1
40
1
41
1
41
1
41
1
41
1
41
1
41
1
41
1
41
1
41
1
41
1
41
1
41
1
41
1
41
1
41
1
41
1
41
1
41
1
41
1
41
1
41
1
41
1
41
1
41
1
41
1
41
1
41
1
41
1
41
1
41
1
41
1
41
1
41
1
41
1
41
1
41
1
41
1
41
1
41
1
41
1
41
1
41
1
41
1
41
1
41
1
41
1
41
1
41
1
41
1
41
1
41
1
41
1
41
1
41
1
41
1
10
0
20
3
30
0
10
0.039594700284314097
20
3.0059008152364863
30
0
10
0.11886941282457802
20
3.0143273245418079
30
0
10
0.23803741716223628
20
3.0168417331554114
30
0
10
0.39744029772501022
20
2.9999302993781214
30
0
10
0.59750275548283105
20
2.9460780564100957
30
0
10
0.79823622075326917
20
2.862827400224802
30
0
10
0.99936208187118736
20
2.7569164190217776
30
0
10
1.2004133362023786
20
2.6396752962778907
30
0
10
1.40068558211655
20
2.5282249110001791
30
0
10
1.5994224677665667
20
2.441623491313675
30
0
10
1.7960000826900815
20
2.3970324799313301
30
0
10
1.990115240767468
20
2.4058130753892852
30
0
10
2.1819654608298755
20
2.4697745482225115
30
0
10
2.3724538408330473
20
2.5769653516317357
30
0
10
2.5628981859729176
20
2.7066341837006362
30
0
10
2.7547223388552426
20
2.834541980313606
30
0
10
2.9491405188421775
20
2.9383446375082043
30
0
10
3.1468761147686957
20
3.0024629357850623
30
0
10
3.347782698197495
20
3.0244302399846235
30
0
10
3.5510279461223311
20
3.0126764471562932
30
0
10
3.7554540506305099
20
2.9815972055675131
30
0
10
3.9598891907935063
20
2.9474302728439539
30
0
10
4.1634548222071333
20
2.9240598511287907
30
0
10
4.3659384008946329
20
2.9181832479316547
30
0
10
4.5676432543111218
20
2.9299980502011937
30
0
10
4.7691185840435928
20
2.955200404505729
30
0
10
4.9709248658367056
20
2.9865290199132981
30
0
10
5.1733996910845566
20
3.0154655677351352
30
0
10
5.3763832938476872
20
3.0339276386281617
30
0
10
5.579372837864689
20
3.0352663717848167
30
0
10
5.7817425118036869
20
3.0151210615002659
30
0
10
5.9829437416219156
20
2.972363084383943
30
0
10
6.1827051262575701
20
2.909938092339468
30
0
10
6.3812564391263784
20
2.8359578249237671
30
0
10
6.5791657435591517
20
2.7615666369059708
30
0
10
6.7771445842492959
20
2.6985628212277568
30
0
10
6.9758610237082479
20
2.6570560381664277
30
0
10
7.1757590565398912
20
2.6432330714437446
30
0
10
7.3768491598884198
20
2.6567314512702671
30
0
10
7.5788228096227854
20
2.692262966523733
30
0
10
7.7812066098651353
20
2.741753049224541
30
0
10
7.9835037714125097
20
2.7963128510225959
30
0
10
8.1853361491295367
20
2.848219352022145
30
0
10
8.3865985364165834
20
2.8930494964485916
30
0
10
8.5873969278380891
20
2.9290673065234984
30
0
10
8.7879691497839474
20
2.956385540355297
30
0
10
8.9886116944965782
20
2.9762091569765574
30
0
10
9.1896055417377305
20
2.9900608940241833
30
0
10
9.3911387044262504
20
2.9989816877284543
30
0
10
9.5933219923697113
20
3.0035949285663275
30
0
10
9.7556323596792787
20
3.0040952108659731
30
0
10
9.8776899432670415
20
3.0027256450653668
30
0
10
9.9592059362053682
20
3.0010377004562567
30
0
10
10
20
3
30
0
0
ENDSEC
0
SECTION
2
OBJECTS
0
DICTIONARY
5
C
100
AcDbDictionary
3
ACAD_GROUP
350
D
3
ACAD_MLINESTYLE
350
17
0
DICTIONARY
5
D
100
AcDbDictionary
0
DICTIONARY
5
1A
330
C
100
AcDbDictionary
0
DICTIONARY
5
17
100
AcDbDictionary
0
ENDSEC
0
EOF
