0
SECTION
2
HEADER
9
$INSUNITS
70
4
9
$ACADVER
1
AC1014
9
$HANDSEED
5
FFFF
0
ENDSEC
0
SECTION
2
TABLES
0
TABLE
2
VPORT
5
8
100
AcDbSymbolTable
0
ENDTAB
0
TABLE
2
LTYPE
5
5
100
AcDbSymbolTable
0
LTYPE
5
14
100
AcDbSymbolTableRecord
100
AcDbLinetypeTableRecord
2
BYBLOCK
70
0
0
LTYPE
5
15
100
AcDbSymbolTableRecord
100
AcDbLinetypeTableRecord
2
BYLAYER
70
0
0
ENDTAB
0
TABLE
2
LAYER
5
2
100
AcDbSymbolTable
70
2
0
LAYER
5
50
100
AcDbSymbolTableRecord
100
AcDbLayerTableRecord
2
0
70
0
6
CONTINUOUS
0
ENDTAB
0
TABLE
2
STYLE
5
3
100
AcDbSymbolTable
70
1
0
STYLE
5
11
100
AcDbSymbolTableRecord
100
AcDbTextStyleTableRecord
2
STANDARD
70
0
0
ENDTAB
0
TABLE
2
VIEW
5
6
100
AcDbSymbolTable
70
0
0
ENDTAB
0
TABLE
2
UCS
5
7
100
AcDbSymbolTable
70
0
0
ENDTAB
0
TABLE
2
APPID
5
9
100
AcDbSymbolTable
70
2
0
APPID
5
12
100
AcDbSymbolTableRecord
100
AcDbRegAppTableRecord
2
ACAD
70
0
0
ENDTAB
0
TABLE
2
DIMSTYLE
5
A
100
AcDbSymbolTable
70
1
0
ENDTAB
0
TABLE
2
BLOCK_RECORD
5
1
100
AcDbSymbolTable
70
1
0
BLOCK_RECORD
5
1F
100
AcDbSymbolTableRecord
100
AcDbBlockTableRecord
2
*MODEL_SPACE
0
BLOCK_RECORD
5
1B
100
AcDbSymbolTableRecord
100
AcDbBlockTableRecord
2
*PAPER_SPACE
0
ENDTAB
0
ENDSEC
0
SECTION
2
BLOCKS
0
BLOCK
5
20
100
AcDbEntity
100
AcDbBlockBegin
2
*MODEL_SPACE
0
ENDBLK
5
21
100
AcDbEntity
100
AcDbBlockEnd
0
BLOCK
5
1C
100
AcDbEntity
100
AcDbBlockBegin
2
*PAPER_SPACE
0
ENDBLK
5
1D
100
AcDbEntity
100
AcDbBlockEnd
0
ENDSEC
0
SECTION
2
ENTITIES
0
SPLINE
5
100
100
AcDbEntity
8
0
100
AcDbSpline
70
4
71
5
72
16
73
10
74
0
42
0.000000001
43
0.0000000001
44
0.0000000001
40
0
40
0
40
0
40
0
40
0
40
0
40
0.20000000000000001
40
0.40000000000000002
40
0.60000000000000009
40
0.80000000000000004
40
1
40
1
40
1
40
1
40
1
40
1
41
1
41
1
41
1
41
1
41
1
41
1
41
1
41
1
41
1
41
1
10
0
20
0
30
0
10
0
20
0.12000000000003158
30
0
10
0
20
0.36000000000007704
30
0
10
0
20
0.72000000000009301
30
0
10
0
20
1.2000000000000313
30
0
10
0
20
1.7999999999999146
30
0
10
0
20
2.2799999999998684
30
0
10
0
20
2.6399999999999042
30
0
10
0
20
2.8799999999999617
30
0
10
0
20
3
30
0
0
SPLINE
5
101
100
AcDbEntity
8
0
100
AcDbSpline
70
4
71
5
72
16
73
10
74
0
42
0.000000001
43
0.0000000001
44
0.0000000001
40
0
40
0
40
0
40
0
40
0
40
0
40
0.20000000000000001
40
0.40000000000000002
40
0.60000000000000009
40
0.80000000000000004
40
1
40
1
40
1
40
1
40
1
40
1
41
1
41
1
41
1
41
1
41
1
41
1
41
1
41
1
41
1
41
1
10
10
20
0
30
0
10
9.9999999999997495
20
0.12000000000003158
30
0
10
9.9999999999993197
20
0.36000000000007704
30
0
10
9.9999999999989129
20
0.72000000000009301
30
0
10
9.9999999999987672
20
1.2000000000000313
30
0
10
9.9999999999990248
20
1.7999999999999146
30
0
10
9.9999999999993889
20
2.2799999999998684
30
0
10
9.9999999999996998
20
2.6399999999999042
30
0
10
9.9999999999999005
20
2.8799999999999617
30
0
10
10
20
3
30
0
0
SPLINE
5
102
100
AcDbEntity
8
0
100
AcDbSpline
70
4
71
5
72
16
73
10
74
0
42
0.000000001
43
0.0000000001
44
0.0000000001
40
0
40
0
40
0
40
0
40
0
40
0
40
0.20000000000000001
40
0.40000000000000002
40
0.60000000000000009
40
0.80000000000000004
40
1
40
1
40
1
40
1
40
1
40
1
41
1
41
1
41
1
41
1
41
1
41
1
41
1
41
1
41
1
41
1
10
0
20
1.5
30
0
10
0.40000000000047375
20
1.499999999999694
30
0
10
1.2000000000012774
20
1.4999999999991638
30
0
10
2.4000000000020547
20
1.4999999999986278
30
0
10
4.0000000000023546
20
1.4999999999983737
30
0
10
6.0000000000019584
20
1.4999999999985913
30
0
10
7.6000000000012928
20
1.4999999999990359
30
0
10
8.800000000000697
20
1.4999999999994786
30
0
10
9.6000000000002395
20
1.4999999999998188
30
0
10
10
20
1.5
30
0
0
SPLINE
5
103
100
AcDbEntity
8
0
100
AcDbSpline
70
4
71
5
72
61
73
55
74
0
42
0.000000001
43
0.0000000001
44
0.0000000001
40
0
40
0
40
0
40
0
40
0
40
0
40
0.02
40
0.040000000000000001
40
0.059999999999999998
40
0.080000000000000002
40
0.10000000000000001
40
0.12000000000000001
40
0.14000000000000001
40
0.16
40
0.17999999999999999
40
0.19999999999999998
40
0.21999999999999997
40
0.23999999999999996
40
0.25999999999999995
40
0.27999999999999997
40
0.29999999999999999
40
0.32000000000000001
40
0.34000000000000002
40
0.36000000000000004
40
0.38000000000000006
40
0.40000000000000008
40
0.4200000000000001
40
0.44000000000000011
40
0.46000000000000013
40
0.48000000000000015
40
0.50000000000000011
40
0.52000000000000013
40
0.54000000000000015
40
0.56000000000000016
40
0.58000000000000018
40
0.6000000000000002
40
0.62000000000000022
40
0.64000000000000024
40
0.66000000000000025
40
0.68000000000000027
40
0.70000000000000029
40
0.72000000000000031
40
0.74000000000000032
40
0.76000000000000034
40
0.78000000000000036
40
0.80000000000000038
40
0.8200000000000004
40
0.84000000000000041
40
0.86000000000000043
40
0.88000000000000045
40
0.90000000000000047
40
0.92000000000000048
40
0.9400000000000005
40
0.96000000000000052
40
0.98000000000000054
40
1
40
1
40
1
40
1
40
1
40
1
41
1
41
1
41
1
41
1
41
1
41
1
41
1
41
1
41
1
41
1
41
1
41
1
41
1
41
1
41
1
41
1
41
1
41
1
41
1
41
1
41
1
41
1
41
1
41
1
41
1
41
1
41
1
41
1
41
1
41
1
41
1
41
1
41
1
41
1
41
1
41
1
41
1
41
1
41
1
41
1
41
1
41
1
41
1
41
1
41
1
41
1
41
1
41
1
41
1
41
1
41
1
41
1
41
1
41
1
41
1
10
0
20
0
30
0
10
0.039267666546817091
20
0.021413778723681741
30
0
10
0.11786173141621673
20
0.062231777323745872
30
0
10
0.23592902398920687
20
0.11743009672789537
30
0
10
0.39370470133862623
20
0.1789626619115639
30
0
10
0.59151024826567467
20
0.23583151110580833
30
0
10
0.78989418921969368
20
0.27291837711784567
30
0
10
0.98883963639070371
20
0.29081264427113224
30
0
10
1.1883168668543902
20
0.29055301747107487
30
0
10
1.3882796436211882
20
0.27374757579329156
30
0
10
1.5886646836971372
20
0.24280275857906722
30
0
10
1.7893913155211552
20
0.20115384761085064
30
0
10
1.9903608904675778
20
0.15350963153722461
30
0
10
2.1914565113277775
20
0.10606781362050025
30
0
10
2.392541827366947
20
0.066820086073682117
30
0
10
2.5934810651908413
20
0.043762105879419373
30
0
10
2.7941599302517033
20
0.043017427014838072
30
0
10
2.99450642794804
20
0.066969566839072528
30
0
10
3.194511385323151
20
0.11242532863523916
30
0
10
3.3942504677726792
20
0.16862980779104406
30
0
10
3.5938486710259316
20
0.2210302517630319
30
0
10
3.7934435646369553
20
0.25516461552940373
30
0
10
3.9931487501196674
20
0.2605375155753793
30
0
10
4.1930179035725574
20
0.23442745523287001
30
0
10
4.3930064928585679
20
0.1859668275004015
30
0
10
4.5930104622134262
20
0.13132621375035677
30
0
10
4.7929071103238261
20
0.088648469414366965
30
0
10
4.9925954255862228
20
0.073039304789197013
30
0
10
5.1920358937364908
20
0.091631639558113889
30
0
10
5.3912928150988648
20
0.13832168259377289
30
0
10
5.5904986667449288
20
0.19859325677797815
30
0
10
5.7898159867978807
20
0.25465595082558234
30
0
10
5.9893999396479405
20
0.29051265438429158
30
0
10
6.1893613771162936
20
0.29692609173869949
30
0
10
6.3897274839465563
20
0.27680067019642773
30
0
10
6.5904584993785607
20
0.24109515150171432
30
0
10
6.7914671616882751
20
0.20428403592398253
30
0
10
6.9926370463893122
20
0.17996349642148562
30
0
10
7.1938411801935773
20
0.17647365022411429
30
0
10
7.3949607248796649
20
0.19229509799454142
30
0
10
7.5958945803195732
20
0.21922901081951501
30
0
10
7.7965686452843848
20
0.24583375052440748
30
0
10
7.9969453279561256
20
0.26076549671987631
30
0
10
8.1970329304687972
20
0.25613440516877284
30
0
10
8.3968955460700094
20
0.23092295698667525
30
0
10
8.5966349848509918
20
0.18913653404572153
30
0
10
8.7963724090878816
20
0.13788782998108987
30
0
10
8.9962300883533501
20
0.085510749002280242
30
0
10
9.1963132520914552
20
0.039679236384550495
30
0
10
9.3966915116094327
20
0.005490471843301082
30
0
10
9.5974059409420658
20
-0.014033401227568722
30
0
10
9.7582624215139191
20
-0.016730932683014791
30
0
10
9.8790678401471528
20
-0.01127294057118413
30
0
10
9.9596772094712751
20
-0.0043114500544023252
30
0
10
10
20
0
30
0
0
SPLINE
5
104
100
AcDbEntity
8
0
100
AcDbSpline
70
4
71
5
72
61
73
55
74
0
42
0.000000001
43
0.0000000001
44
0.0000000001
40
0
40
0
40
0
40
0
40
0
40
0
40
0.02
40
0.040000000000000001
40
0.059999999999999998
40
0.080000000000000002
40
0.10000000000000001
40
0.12000000000000001
40
0.14000000000000001
40
0.16
40
0.17999999999999999
40
0.19999999999999998
40
0.21999999999999997
40
0.23999999999999996
40
0.25999999999999995
40
0.27999999999999997
40
0.29999999999999999
40
0.32000000000000001
40
0.34000000000000002
40
0.36000000000000004
40
0.38000000000000006
40
0.40000000000000008
40
0.4200000000000001
40
0.44000000000000011
40
0.46000000000000013
40
0.48000000000000015
40
0.50000000000000011
40
0.52000000000000013
40
0.54000000000000015
40
0.56000000000000016
40
0.58000000000000018
40
0.6000000000000002
40
0.62000000000000022
40
0.64000000000000024
40
0.66000000000000025
40
0.68000000000000027
40
0.70000000000000029
40
0.72000000000000031
40
0.74000000000000032
40
0.76000000000000034
40
0.78000000000000036
40
0.80000000000000038
40
0.8200000000000004
40
0.84000000000000041
40
0.86000000000000043
40
0.88000000000000045
40
0.90000000000000047
40
0.92000000000000048
40
0.9400000000000005
40
0.96000000000000052
40
0.98000000000000054
40
1
40
1
40
1
40
1
40
1
40
1
41
1
41
1
41
1
41
1
41
1
41
1
41
1
41
1
41
1
41
1
41
1
41
1
41
1
41
1
41
1
41
1
41
1
41
1
41
1
41
1
41
1
41
1
41
1
41
1
41
1
41
1
41
1
41
1
41
1
41
1
41
1
41
1
41
1
41
1
41
1
41
1
41
1
41
1
41
1
41
1
41
1
41
1
41
1
41
1
41
1
41
1
41
1
41
1
41
1
41
1
41
1
41
1
41
1
41
1
41
1
10
0
20
3
30
0
10
0.040078575336128582
20
2.9904738135048516
30
0
10
0.1202497410899591
20
2.9727831125215904
30
0
10
0.24054853503406015
20
2.9503320876155383
30
0
10
0.40103107178390041
20
2.9285726731738122
30
0
10
0.60177132379486475
20
2.9146603984255504
30
0
10
0.80263860749739002
20
2.9129637494327683
30
0
10
1.0036124078317945
20
2.9213004612407851
30
0
10
1.2046580704386078
20
2.935985686697411
30
0
10
1.4057232971647859
20
2.9514671968591806
30
0
10
1.6067464052348073
20
2.9616606454635197
30
0
10
1.8076643930841456
20
2.9612652761521363
30
0
10
2.0084210432376666
20
2.9470711519088688
30
0
10
2.2089750850558527
20
2.9193142469178306
30
0
10
2.409308195861291
20
2.8829097596881037
30
0
10
2.6094272469277362
20
2.8454400938821163
30
0
10
2.8093669221634827
20
2.8152553592854601
30
0
10
3.0091920585721006
20
2.7995541004289133
30
0
10
3.209000693164366
20
2.8024268403027426
30
0
10
3.4089255011929582
20
2.8230314099177685
30
0
10
3.6090990674192152
20
2.8570732449938636
30
0
10
3.8096202204443461
20
2.898152196680619
30
0
10
4.0105205964673898
20
2.9391427229325799
30
0
10
4.2117293169675349
20
2.9735792498832927
30
0
10
4.4130427590294481
20
2.9969756923062207
30
0
10
4.6141975079603545
20
3.00663756363529
30
0
10
4.8149393107630702
20
3.001547783851513
30
0
10
5.0150920224413644
20
2.9822274530304642
30
0
10
5.2146301790375293
20
2.9506170190626806
30
0
10
5.4137405670402661
20
2.9099389450786122
30
0
10
5.6127286029254613
20
2.8643332654776992
30
0
10
5.811933997913493
20
2.8185100691496294
30
0
10
6.0116442586158865
20
2.777394487280604
30
0
10
6.2120062581443012
20
2.7457829324848415
30
0
10
6.4129461309515516
20
2.7279746989043092
30
0
10
6.6142488839654332
20
2.7270540176953935
30
0
10
6.8156302892061307
20
2.7441706078516672
30
0
10
7.0168102146428346
20
2.7778475275567875
30
0
10
7.217588141688295
20
2.8231963851561419
30
0
10
7.4179097626889989
20
2.8713732647745327
30
0
10
7.6178186235685459
20
2.9119554950991509
30
0
10
7.8174155602599011
20
2.9351399718096145
30
0
10
8.0168160072753505
20
2.9339617394124722
30
0
10
8.2161068091662788
20
2.9066211312131203
30
0
10
8.4153074603698883
20
2.8584609749471612
30
0
10
8.6143908825616737
20
2.7995432716603141
30
0
10
8.8133000105581463
20
2.7425298962622904
30
0
10
9.0119657204794521
20
2.7004788029166971
30
0
10
9.2103245254061097
20
2.6846277419578901
30
0
10
9.4083352970954142
20
2.702325264934065
30
0
10
9.605973853284139
20
2.7579302931556953
30
0
10
9.7637777702697122
20
2.8344275492783888
30
0
10
9.8819565630358746
20
2.9101014911392626
30
0
10
9.9606650787485034
20
2.9686791043336513
30
0
10
10
20
3
30
0
0
ENDSEC
0
SECTION
2
OBJECTS
0
DICTIONARY
5
C
100
AcDbDictionary
3
ACAD_GROUP
350
D
3
ACAD_MLINESTYLE
350
17
0
DICTIONARY
5
D
100
AcDbDictionary
0
DICTIONARY
5
1A
330
C
100
AcDbDictionary
0
DICTIONARY
5
17
100
AcDbDictionary
0
ENDSEC
0
EOF
