0
SECTION
2
HEADER
9
$INSUNITS
70
4
9
$ACADVER
1
AC1014
9
$HANDSEED
5
FFFF
0
ENDSEC
0
SECTION
2
TABLES
0
TABLE
2
VPORT
5
8
100
AcDbSymbolTable
0
ENDTAB
0
TABLE
2
LTYPE
5
5
100
AcDbSymbolTable
0
LTYPE
5
14
100
AcDbSymbolTableRecord
100
AcDbLinetypeTableRecord
2
BYBLOCK
70
0
0
LTYPE
5
15
100
AcDbSymbolTableRecord
100
AcDbLinetypeTableRecord
2
BYLAYER
70
0
0
ENDTAB
0
TABLE
2
LAYER
5
2
100
AcDbSymbolTable
70
2
0
LAYER
5
50
100
AcDbSymbolTableRecord
100
AcDbLayerTableRecord
2
0
70
0
6
CONTINUOUS
0
ENDTAB
0
TABLE
2
STYLE
5
3
100
AcDbSymbolTable
70
1
0
STYLE
5
11
100
AcDbSymbolTableRecord
100
AcDbTextStyleTableRecord
2
STANDARD
70
0
0
ENDTAB
0
TABLE
2
VIEW
5
6
100
AcDbSymbolTable
70
0
0
ENDTAB
0
TABLE
2
UCS
5
7
100
AcDbSymbolTable
70
0
0
ENDTAB
0
TABLE
2
APPID
5
9
100
AcDbSymbolTable
70
2
0
APPID
5
12
100
AcDbSymbolTableRecord
100
AcDbRegAppTableRecord
2
ACAD
70
0
0
ENDTAB
0
TABLE
2
DIMSTYLE
5
A
100
AcDbSymbolTable
70
1
0
ENDTAB
0
TABLE
2
BLOCK_RECORD
5
1
100
AcDbSymbolTable
70
1
0
BLOCK_RECORD
5
1F
100
AcDbSymbolTableRecord
100
AcDbBlockTableRecord
2
*MODEL_SPACE
0
BLOCK_RECORD
5
1B
100
AcDbSymbolTableRecord
100
AcDbBlockTableRecord
2
*PAPER_SPACE
0
ENDTAB
0
ENDSEC
0
SECTION
2
BLOCKS
0
BLOCK
5
20
100
AcDbEntity
100
AcDbBlockBegin
2
*MODEL_SPACE
0
ENDBLK
5
21
100
AcDbEntity
100
AcDbBlockEnd
0
BLOCK
5
1C
100
AcDbEntity
100
AcDbBlockBegin
2
*PAPER_SPACE
0
ENDBLK
5
1D
100
AcDbEntity
100
AcDbBlockEnd
0
ENDSEC
0
SECTION
2
ENTITIES
0
SPLINE
5
100
100
AcDbEntity
8
0
100
AcDbSpline
70
4
71
5
72
16
73
10
74
0
42
0.000000001
43
0.0000000001
44
0.0000000001
40
0
40
0
40
0
40
0
40
0
40
0
40
0.20000000000000001
40
0.40000000000000002
40
0.60000000000000009
40
0.80000000000000004
40
1
40
1
40
1
40
1
40
1
40
1
41
1
41
1
41
1
41
1
41
1
41
1
41
1
41
1
41
1
41
1
10
0
20
0
30
0
10
0
20
0.12000000000003158
30
0
10
0
20
0.36000000000007704
30
0
10
0
20
0.72000000000009301
30
0
10
0
20
1.2000000000000313
30
0
10
0
20
1.7999999999999146
30
0
10
0
20
2.2799999999998684
30
0
10
0
20
2.6399999999999042
30
0
10
0
20
2.8799999999999617
30
0
10
0
20
3
30
0
0
SPLINE
5
101
100
AcDbEntity
8
0
100
AcDbSpline
70
4
71
5
72
16
73
10
74
0
42
0.000000001
43
0.0000000001
44
0.0000000001
40
0
40
0
40
0
40
0
40
0
40
0
40
0.20000000000000001
40
0.40000000000000002
40
0.60000000000000009
40
0.80000000000000004
40
1
40
1
40
1
40
1
40
1
40
1
41
1
41
1
41
1
41
1
41
1
41
1
41
1
41
1
41
1
41
1
10
10
20
0
30
0
10
9.9999999999997495
20
0.12000000000003158
30
0
10
9.9999999999993197
20
0.36000000000007704
30
0
10
9.9999999999989129
20
0.72000000000009301
30
0
10
9.9999999999987672
20
1.2000000000000313
30
0
10
9.9999999999990248
20
1.7999999999999146
30
0
10
9.9999999999993889
20
2.2799999999998684
30
0
10
9.9999999999996998
20
2.6399999999999042
30
0
10
9.9999999999999005
20
2.8799999999999617
30
0
10
10
20
3
30
0
0
SPLINE
5
102
100
AcDbEntity
8
0
100
AcDbSpline
70
4
71
5
72
16
73
10
74
0
42
0.000000001
43
0.0000000001
44
0.0000000001
40
0
40
0
40
0
40
0
40
0
40
0
40
0.20000000000000001
40
0.40000000000000002
40
0.60000000000000009
40
0.80000000000000004
40
1
40
1
40
1
40
1
40
1
40
1
41
1
41
1
41
1
41
1
41
1
41
1
41
1
41
1
41
1
41
1
10
0
20
1.5
30
0
10
0.40000000000047375
20
1.499999999999694
30
0
10
1.2000000000012774
20
1.4999999999991638
30
0
10
2.4000000000020547
20
1.4999999999986278
30
0
10
4.0000000000023546
20
1.4999999999983737
30
0
10
6.0000000000019584
20
1.4999999999985913
30
0
10
7.6000000000012928
20
1.4999999999990359
30
0
10
8.800000000000697
20
1.4999999999994786
30
0
10
9.6000000000002395
20
1.4999999999998188
30
0
10
10
20
1.5
30
0
0
SPLINE
5
103
100
AcDbEntity
8
0
100
AcDbSpline
70
4
71
5
72
61
73
55
74
0
42
0.000000001
43
0.0000000001
44
0.0000000001
40
0
40
0
40
0
40
0
40
0
40
0
40
0.02
40
0.040000000000000001
40
0.059999999999999998
40
0.080000000000000002
40
0.10000000000000001
40
0.12000000000000001
40
0.14000000000000001
40
0.16
40
0.17999999999999999
40
0.19999999999999998
40
0.21999999999999997
40
0.23999999999999996
40
0.25999999999999995
40
0.27999999999999997
40
0.29999999999999999
40
0.32000000000000001
40
0.34000000000000002
40
0.36000000000000004
40
0.38000000000000006
40
0.40000000000000008
40
0.4200000000000001
40
0.44000000000000011
40
0.46000000000000013
40
0.48000000000000015
40
0.50000000000000011
40
0.52000000000000013
40
0.54000000000000015
40
0.56000000000000016
40
0.58000000000000018
40
0.6000000000000002
40
0.62000000000000022
40
0.64000000000000024
40
0.66000000000000025
40
0.68000000000000027
40
0.70000000000000029
40
0.72000000000000031
40
0.74000000000000032
40
0.76000000000000034
40
0.78000000000000036
40
0.80000000000000038
40
0.8200000000000004
40
0.84000000000000041
40
0.86000000000000043
40
0.88000000000000045
40
0.90000000000000047
40
0.92000000000000048
40
0.9400000000000005
40
0.96000000000000052
40
0.98000000000000054
40
1
40
1
40
1
40
1
40
1
40
1
41
1
41
1
41
1
41
1
41
1
41
1
41
1
41
1
41
1
41
1
41
1
41
1
41
1
41
1
41
1
41
1
41
1
41
1
41
1
41
1
41
1
41
1
41
1
41
1
41
1
41
1
41
1
41
1
41
1
41
1
41
1
41
1
41
1
41
1
41
1
41
1
41
1
41
1
41
1
41
1
41
1
41
1
41
1
41
1
41
1
41
1
41
1
41
1
41
1
41
1
41
1
41
1
41
1
41
1
41
1
10
0
20
0
30
0
10
0.039805736338837938
20
0.0069080221544824552
30
0
10
0.11946537216385145
20
0.020868993955143328
30
0
10
0.23909931541135898
20
0.042245236406827202
30
0
10
0.39890040645179065
20
0.071617010651242194
30
0
10
0.5991254822807266
20
0.10955267734340188
30
0
10
0.79979765131070857
20
0.14801503709676234
30
0
10
1.0008622130110125
20
0.18561056512257779
30
0
10
1.2022265480691035
20
0.22000844594193489
30
0
10
1.4037504030954753
20
0.24770693774018107
30
0
10
1.605276492344617
20
0.26498184382203371
30
0
10
1.8066610743953211
20
0.26883624383811955
30
0
10
2.0078041966429452
20
0.25793848757730897
30
0
10
2.2086809975803621
20
0.23359886592169174
30
0
10
2.4093704597014263
20
0.20065430151647462
30
0
10
2.6100114053902819
20
0.16574460569640731
30
0
10
2.8107607336897407
20
0.1356657693697059
30
0
10
3.0117514895344937
20
0.11572254578730762
30
0
10
3.2130496019118233
20
0.10801726315457355
30
0
10
3.4146148980855049
20
0.10993072076149854
30
0
10
3.61634098219234
20
0.11610035486722256
30
0
10
3.8180914021734349
20
0.1202412113410963
30
0
10
4.0197363956233474
20
0.1169773562378916
30
0
10
4.2211910248734501
20
0.10377415834355767
30
0
10
4.4224480656509781
20
0.082534609478387533
30
0
10
4.6235547195567763
20
0.05771776328665966
30
0
10
4.8245938590865194
20
0.034708268012705906
30
0
10
5.0256637367615129
20
0.018153360332170923
30
0
10
5.2268582235911705
20
0.010174653316850741
30
0
10
5.428247394240663
20
0.009030009391633325
30
0
10
5.6298643782575386
20
0.011176261726997384
30
0
10
5.831690792514741
20
0.013039475837715874
30
0
10
6.0336439510454305
20
0.012790138339552264
30
0
10
6.2355599547406273
20
0.012367350291097364
30
0
10
6.4371878009089203
20
0.018670341892413924
30
0
10
6.6382416205624057
20
0.040245984712409054
30
0
10
6.8384465263336436
20
0.084457655367667986
30
0
10
7.0375851013489656
20
0.15463997491318587
30
0
10
7.2355480803231149
20
0.24684215541602314
30
0
10
7.4323704839564169
20
0.3479584316768653
30
0
10
7.6281973701963999
20
0.44045385652497726
30
0
10
7.8232594849519117
20
0.50621332899407701
30
0
10
8.0178454725776476
20
0.53064280398337438
30
0
10
8.2122754434146099
20
0.50686806241756077
30
0
10
8.4068749911349094
20
0.43934161928821319
30
0
10
8.6019610122546677
20
0.34015935933899211
30
0
10
8.7978265693590654
20
0.22595076133757622
30
0
10
8.9947259731716027
20
0.11455306744248618
30
0
10
9.1928598584740033
20
0.021813351434666443
30
0
10
9.3923595438505476
20
-0.041747751689950027
30
0
10
9.5933012417693515
20
-0.069901418318913999
30
0
10
9.7552369272437662
20
-0.06165237550217241
30
0
10
9.8773582490247982
20
-0.037722043205739859
30
0
10
9.9590698516785068
20
-0.013887507587955933
30
0
10
10
20
0
30
0
0
SPLINE
5
104
100
AcDbEntity
8
0
100
AcDbSpline
70
4
71
5
72
61
73
55
74
0
42
0.000000001
43
0.0000000001
44
0.0000000001
40
0
40
0
40
0
40
0
40
0
40
0
40
0.02
40
0.040000000000000001
40
0.059999999999999998
40
0.080000000000000002
40
0.10000000000000001
40
0.12000000000000001
40
0.14000000000000001
40
0.16
40
0.17999999999999999
40
0.19999999999999998
40
0.21999999999999997
40
0.23999999999999996
40
0.25999999999999995
40
0.27999999999999997
40
0.29999999999999999
40
0.32000000000000001
40
0.34000000000000002
40
0.36000000000000004
40
0.38000000000000006
40
0.40000000000000008
40
0.4200000000000001
40
0.44000000000000011
40
0.46000000000000013
40
0.48000000000000015
40
0.50000000000000011
40
0.52000000000000013
40
0.54000000000000015
40
0.56000000000000016
40
0.58000000000000018
40
0.6000000000000002
40
0.62000000000000022
40
0.64000000000000024
40
0.66000000000000025
40
0.68000000000000027
40
0.70000000000000029
40
0.72000000000000031
40
0.74000000000000032
40
0.76000000000000034
40
0.78000000000000036
40
0.80000000000000038
40
0.8200000000000004
40
0.84000000000000041
40
0.86000000000000043
40
0.88000000000000045
40
0.90000000000000047
40
0.92000000000000048
40
0.9400000000000005
40
0.96000000000000052
40
0.98000000000000054
40
1
40
1
40
1
40
1
40
1
40
1
41
1
41
1
41
1
41
1
41
1
41
1
41
1
41
1
41
1
41
1
41
1
41
1
41
1
41
1
41
1
41
1
41
1
41
1
41
1
41
1
41
1
41
1
41
1
41
1
41
1
41
1
41
1
41
1
41
1
41
1
41
1
41
1
41
1
41
1
41
1
41
1
41
1
41
1
41
1
41
1
41
1
41
1
41
1
41
1
41
1
41
1
41
1
41
1
41
1
41
1
41
1
41
1
41
1
41
1
41
1
10
0
20
3
30
0
10
0.039791915768098485
20
2.9803689994358185
30
0
10
0.11951559458244075
20
2.9447637610071031
30
0
10
0.23952065853901996
20
2.902326309747818
30
0
10
0.40036701498722149
20
2.8676971273851608
30
0
10
0.60277528296773819
20
2.859804625321515
30
0
10
0.80638059201707979
20
2.8835523306100668
30
0
10
1.0108730360180369
20
2.9313504064110245
30
0
10
1.2157292708788663
20
2.9903614857745127
30
0
10
1.4201664165186798
20
3.0414153047808883
30
0
10
1.6233029602226765
20
3.0640646274252186
30
0
10
1.8243121175678785
20
3.0414497530660305
30
0
10
2.0225740475865943
20
2.9650637485819358
30
0
10
2.2178384667796678
20
2.8399940722953958
30
0
10
2.410356482674235
20
2.6887919952082755
30
0
10
2.6007317592953996
20
2.5428208861366302
30
0
10
2.7897979029126359
20
2.4348253347435795
30
0
10
2.9784852483498585
20
2.3908435617369981
30
0
10
3.1676956782469463
20
2.4228454088256921
30
0
10
3.3581657276793511
20
2.5198037211468787
30
0
10
3.5504436464866105
20
2.6548089371175783
30
0
10
3.7448805986649387
20
2.7938348409348217
30
0
10
3.9416135159911736
20
2.9042525594755819
30
0
10
4.1405571322490857
20
2.9626288100407185
30
0
10
4.3413753604562713
20
2.9649355917596836
30
0
10
4.5435525630300813
20
2.9237719914468507
30
0
10
4.7465015664130981
20
2.8605607163815683
30
0
10
4.9496633438051427
20
2.7991797644436396
30
0
10
5.1526014927258101
20
2.759514611013647
30
0
10
5.3551213795102148
20
2.7497404646904759
30
0
10
5.5572342210901571
20
2.7676244580635996
30
0
10
5.7590732001995022
20
2.8046917584357169
30
0
10
5.9608239770248241
20
2.8494975245048741
30
0
10
6.1626538978007206
20
2.891070604954646
30
0
10
6.3646300559151223
20
2.9227781770909234
30
0
10
6.5667357815667202
20
2.9420331350380184
30
0
10
6.7689096369344721
20
2.9490265339707564
30
0
10
6.9710773409732143
20
2.9457899112306052
30
0
10
7.1731846922295928
20
2.9351609282401276
30
0
10
7.3752351170208899
20
2.9196998361515063
30
0
10
7.5772731176464125
20
2.9016100458590675
30
0
10
7.7793592405298693
20
2.8828292560478319
30
0
10
7.9815477038004046
20
2.8650597501039581
30
0
10
8.1838638165001569
20
2.8498221810885473
30
0
10
8.3862789815253933
20
2.8385027703162331
30
0
10
8.5887248536237824
20
2.8323392243573253
30
0
10
8.7911111111053977
20
2.8323983305690348
30
0
10
8.9933419390706621
20
2.8395558330446864
30
0
10
9.1953328267911392
20
2.8544753109109338
30
0
10
9.3970278028747725
20
2.8775849324016605
30
0
10
9.5983939877104127
20
2.9091272292654189
30
0
10
9.759211148000885
20
2.941194049699734
30
0
10
9.8796667101708184
20
2.969098925416084
30
0
10
9.9599005483498502
20
2.9894142896017479
30
0
10
10
20
3
30
0
0
ENDSEC
0
SECTION
2
OBJECTS
0
DICTIONARY
5
C
100
AcDbDictionary
3
ACAD_GROUP
350
D
3
ACAD_MLINESTYLE
350
17
0
DICTIONARY
5
D
100
AcDbDictionary
0
DICTIONARY
5
1A
330
C
100
AcDbDictionary
0
DICTIONARY
5
17
100
AcDbDictionary
0
ENDSEC
0
EOF
