0
SECTION
2
HEADER
9
$INSUNITS
70
4
9
$ACADVER
1
AC1014
9
$HANDSEED
5
FFFF
0
ENDSEC
0
SECTION
2
TABLES
0
TABLE
2
VPORT
5
8
100
AcDbSymbolTable
0
ENDTAB
0
TABLE
2
LTYPE
5
5
100
AcDbSymbolTable
0
LTYPE
5
14
100
AcDbSymbolTableRecord
100
AcDbLinetypeTableRecord
2
BYBLOCK
70
0
0
LTYPE
5
15
100
AcDbSymbolTableRecord
100
AcDbLinetypeTableRecord
2
BYLAYER
70
0
0
ENDTAB
0
TABLE
2
LAYER
5
2
100
AcDbSymbolTable
70
2
0
LAYER
5
50
100
AcDbSymbolTableRecord
100
AcDbLayerTableRecord
2
0
70
0
6
CONTINUOUS
0
ENDTAB
0
TABLE
2
STYLE
5
3
100
AcDbSymbolTable
70
1
0
STYLE
5
11
100
AcDbSymbolTableRecord
100
AcDbTextStyleTableRecord
2
STANDARD
70
0
0
ENDTAB
0
TABLE
2
VIEW
5
6
100
AcDbSymbolTable
70
0
0
ENDTAB
0
TABLE
2
UCS
5
7
100
AcDbSymbolTable
70
0
0
ENDTAB
0
TABLE
2
APPID
5
9
100
AcDbSymbolTable
70
2
0
APPID
5
12
100
AcDbSymbolTableRecord
100
AcDbRegAppTableRecord
2
ACAD
70
0
0
ENDTAB
0
TABLE
2
DIMSTYLE
5
A
100
AcDbSymbolTable
70
1
0
ENDTAB
0
TABLE
2
BLOCK_RECORD
5
1
100
AcDbSymbolTable
70
1
0
BLOCK_RECORD
5
1F
100
AcDbSymbolTableRecord
100
AcDbBlockTableRecord
2
*MODEL_SPACE
0
BLOCK_RECORD
5
1B
100
AcDbSymbolTableRecord
100
AcDbBlockTableRecord
2
*PAPER_SPACE
0
ENDTAB
0
ENDSEC
0
SECTION
2
BLOCKS
0
BLOCK
5
20
100
AcDbEntity
100
AcDbBlockBegin
2
*MODEL_SPACE
0
ENDBLK
5
21
100
AcDbEntity
100
AcDbBlockEnd
0
BLOCK
5
1C
100
AcDbEntity
100
AcDbBlockBegin
2
*PAPER_SPACE
0
ENDBLK
5
1D
100
AcDbEntity
100
AcDbBlockEnd
0
ENDSEC
0
SECTION
2
ENTITIES
0
SPLINE
5
100
100
AcDbEntity
8
0
100
AcDbSpline
70
4
71
5
72
16
73
10
74
0
42
0.000000001
43
0.0000000001
44
0.0000000001
40
0
40
0
40
0
40
0
40
0
40
0
40
0.20000000000000001
40
0.40000000000000002
40
0.60000000000000009
40
0.80000000000000004
40
1
40
1
40
1
40
1
40
1
40
1
41
1
41
1
41
1
41
1
41
1
41
1
41
1
41
1
41
1
41
1
10
0
20
0
30
0
10
0
20
0.12000000000003158
30
0
10
0
20
0.36000000000007704
30
0
10
0
20
0.72000000000009301
30
0
10
0
20
1.2000000000000313
30
0
10
0
20
1.7999999999999146
30
0
10
0
20
2.2799999999998684
30
0
10
0
20
2.6399999999999042
30
0
10
0
20
2.8799999999999617
30
0
10
0
20
3
30
0
0
SPLINE
5
101
100
AcDbEntity
8
0
100
AcDbSpline
70
4
71
5
72
16
73
10
74
0
42
0.000000001
43
0.0000000001
44
0.0000000001
40
0
40
0
40
0
40
0
40
0
40
0
40
0.20000000000000001
40
0.40000000000000002
40
0.60000000000000009
40
0.80000000000000004
40
1
40
1
40
1
40
1
40
1
40
1
41
1
41
1
41
1
41
1
41
1
41
1
41
1
41
1
41
1
41
1
10
10
20
0
30
0
10
9.9999999999997495
20
0.12000000000003158
30
0
10
9.9999999999993197
20
0.36000000000007704
30
0
10
9.9999999999989129
20
0.72000000000009301
30
0
10
9.9999999999987672
20
1.2000000000000313
30
0
10
9.9999999999990248
20
1.7999999999999146
30
0
10
9.9999999999993889
20
2.2799999999998684
30
0
10
9.9999999999996998
20
2.6399999999999042
30
0
10
9.9999999999999005
20
2.8799999999999617
30
0
10
10
20
3
30
0
0
SPLINE
5
102
100
AcDbEntity
8
0
100
AcDbSpline
70
4
71
5
72
16
73
10
74
0
42
0.000000001
43
0.0000000001
44
0.0000000001
40
0
40
0
40
0
40
0
40
0
40
0
40
0.20000000000000001
40
0.40000000000000002
40
0.60000000000000009
40
0.80000000000000004
40
1
40
1
40
1
40
1
40
1
40
1
41
1
41
1
41
1
41
1
41
1
41
1
41
1
41
1
41
1
41
1
10
0
20
1.5
30
0
10
0.40000000000047375
20
1.499999999999694
30
0
10
1.2000000000012774
20
1.4999999999991638
30
0
10
2.4000000000020547
20
1.4999999999986278
30
0
10
4.0000000000023546
20
1.4999999999983737
30
0
10
6.0000000000019584
20
1.4999999999985913
30
0
10
7.6000000000012928
20
1.4999999999990359
30
0
10
8.800000000000697
20
1.4999999999994786
30
0
10
9.6000000000002395
20
1.4999999999998188
30
0
10
10
20
1.5
30
0
0
SPLINE
5
103
100
AcDbEntity
8
0
100
AcDbSpline
70
4
71
5
72
61
73
55
74
0
42
0.000000001
43
0.0000000001
44
0.0000000001
40
0
40
0
40
0
40
0
40
0
40
0
40
0.02
40
0.040000000000000001
40
0.059999999999999998
40
0.080000000000000002
40
0.10000000000000001
40
0.12000000000000001
40
0.14000000000000001
40
0.16
40
0.17999999999999999
40
0.19999999999999998
40
0.21999999999999997
40
0.23999999999999996
40
0.25999999999999995
40
0.27999999999999997
40
0.29999999999999999
40
0.32000000000000001
40
0.34000000000000002
40
0.36000000000000004
40
0.38000000000000006
40
0.40000000000000008
40
0.4200000000000001
40
0.44000000000000011
40
0.46000000000000013
40
0.48000000000000015
40
0.50000000000000011
40
0.52000000000000013
40
0.54000000000000015
40
0.56000000000000016
40
0.58000000000000018
40
0.6000000000000002
40
0.62000000000000022
40
0.64000000000000024
40
0.66000000000000025
40
0.68000000000000027
40
0.70000000000000029
40
0.72000000000000031
40
0.74000000000000032
40
0.76000000000000034
40
0.78000000000000036
40
0.80000000000000038
40
0.8200000000000004
40
0.84000000000000041
40
0.86000000000000043
40
0.88000000000000045
40
0.90000000000000047
40
0.92000000000000048
40
0.9400000000000005
40
0.96000000000000052
40
0.98000000000000054
40
1
40
1
40
1
40
1
40
1
40
1
41
1
41
1
41
1
41
1
41
1
41
1
41
1
41
1
41
1
41
1
41
1
41
1
41
1
41
1
41
1
41
1
41
1
41
1
41
1
41
1
41
1
41
1
41
1
41
1
41
1
41
1
41
1
41
1
41
1
41
1
41
1
41
1
41
1
41
1
41
1
41
1
41
1
41
1
41
1
41
1
41
1
41
1
41
1
41
1
41
1
41
1
41
1
41
1
41
1
41
1
41
1
41
1
41
1
41
1
41
1
10
0
20
0
30
0
10
0.040362913839176146
20
-0.0016359615413810257
30
0
10
0.12107062663077348
20
-0.0037853104281154355
30
0
10
0.24207785103616916
20
-0.0036415923185369025
30
0
10
0.40331205758815791
20
0.003289740527042779
30
0
10
0.60467638853372119
20
0.022857796644506274
30
0
10
0.80587154479921252
20
0.052295030388476452
30
0
10
1.0069165529028716
20
0.089502018903289834
30
0
10
1.2078437260738344
20
0.13093343464422733
30
0
10
1.4087018535593756
20
0.17126748612838522
30
0
10
1.6095486545899145
20
0.20466491682725962
30
0
10
1.8104435439869069
20
0.22599104898173403
30
0
10
2.0114403435625077
20
0.23203059587870545
30
0
10
2.212579885793283
20
0.22276155011866267
30
0
10
2.4138829750844613
20
0.2024673357579842
30
0
10
2.6153510887673779
20
0.17782475456361169
30
0
10
2.81696655640053
20
0.15612321069827556
30
0
10
3.0186930854929663
20
0.14347707991110328
30
0
10
3.2204756070619096
20
0.14294742120743467
30
0
10
3.4222417097583717
20
0.15295848128726283
30
0
10
3.6239189678035642
20
0.1689843571510205
30
0
10
3.8254515285452162
20
0.1849973518886337
30
0
10
4.0268161133962641
20
0.19497190316636309
30
0
10
4.2280404505850102
20
0.19443330921041518
30
0
10
4.4292146751312709
20
0.18178541982470511
30
0
10
4.6304535940252798
20
0.15790424276242374
30
0
10
4.8318632317400914
20
0.12593729096802156
30
0
10
5.0335074417288164
20
0.090990694134458094
30
0
10
5.2353703941608467
20
0.05996253913607226
30
0
10
5.4373325173676577
20
0.041046937171026296
30
0
10
5.639219767394775
20
0.041660759574584934
30
0
10
5.8408446981676896
20
0.066474572209702362
30
0
10
6.0420484516086503
20
0.11557761977250612
30
0
10
6.2427475554420671
20
0.18214943744289239
30
0
10
6.4429631579071209
20
0.25161426892612382
30
0
10
6.642777215037019
20
0.30669832075802389
30
0
10
6.8422989640433842
20
0.33173783888572195
30
0
10
7.0416291583397861
20
0.31699701814860493
30
0
10
7.2408213326794604
20
0.2636643654735048
30
0
10
7.4398562602351959
20
0.18654746032157477
30
0
10
7.638672680875132
20
0.10730395801004219
30
0
10
7.8371899015034039
20
0.048991606212490872
30
0
10
8.035332614592809
20
0.030346106789654125
30
0
10
8.2330568846241352
20
0.059614293438100048
30
0
10
8.4303693793125607
20
0.13021087535201531
30
0
10
8.6273099122141144
20
0.22594724541578354
30
0
10
8.8239388418203362
20
0.32500660801113024
30
0
10
9.0203228875644399
20
0.4043132147999739
30
0
10
9.2165211190055132
20
0.44389987424805216
30
0
10
9.4125724283631129
20
0.43078033852084868
30
0
10
9.6085004968410797
20
0.35721258530150712
30
0
10
9.7651538864578775
20
0.24700369778047676
30
0
10
9.8825956913407769
20
0.13493282487914332
30
0
10
9.9608688014631195
20
0.047154953976811236
30
0
10
10
20
0
30
0
0
SPLINE
5
104
100
AcDbEntity
8
0
100
AcDbSpline
70
4
71
5
72
61
73
55
74
0
42
0.000000001
43
0.0000000001
44
0.0000000001
40
0
40
0
40
0
40
0
40
0
40
0
40
0.02
40
0.040000000000000001
40
0.059999999999999998
40
0.080000000000000002
40
0.10000000000000001
40
0.12000000000000001
40
0.14000000000000001
40
0.16
40
0.17999999999999999
40
0.19999999999999998
40
0.21999999999999997
40
0.23999999999999996
40
0.25999999999999995
40
0.27999999999999997
40
0.29999999999999999
40
0.32000000000000001
40
0.34000000000000002
40
0.36000000000000004
40
0.38000000000000006
40
0.40000000000000008
40
0.4200000000000001
40
0.44000000000000011
40
0.46000000000000013
40
0.48000000000000015
40
0.50000000000000011
40
0.52000000000000013
40
0.54000000000000015
40
0.56000000000000016
40
0.58000000000000018
40
0.6000000000000002
40
0.62000000000000022
40
0.64000000000000024
40
0.66000000000000025
40
0.68000000000000027
40
0.70000000000000029
40
0.72000000000000031
40
0.74000000000000032
40
0.76000000000000034
40
0.78000000000000036
40
0.80000000000000038
40
0.8200000000000004
40
0.84000000000000041
40
0.86000000000000043
40
0.88000000000000045
40
0.90000000000000047
40
0.92000000000000048
40
0.9400000000000005
40
0.96000000000000052
40
0.98000000000000054
40
1
40
1
40
1
40
1
40
1
40
1
41
1
41
1
41
1
41
1
41
1
41
1
41
1
41
1
41
1
41
1
41
1
41
1
41
1
41
1
41
1
41
1
41
1
41
1
41
1
41
1
41
1
41
1
41
1
41
1
41
1
41
1
41
1
41
1
41
1
41
1
41
1
41
1
41
1
41
1
41
1
41
1
41
1
41
1
41
1
41
1
41
1
41
1
41
1
41
1
41
1
41
1
41
1
41
1
41
1
41
1
41
1
41
1
41
1
41
1
41
1
10
0
20
3
30
0
10
0.038735619026054935
20
2.980645125872103
30
0
10
0.11635752644886588
20
2.9432844197388235
30
0
10
0.23324239333169086
20
2.8912904931390098
30
0
10
0.38999350348169198
20
2.8300647407461414
30
0
10
0.5874164488967305
20
2.7670772025542751
30
0
10
0.78624693001801249
20
2.7177168795166455
30
0
10
0.98632660792177518
20
2.6821107691696362
30
0
10
1.1873886548279498
20
2.6604307643046363
30
0
10
1.3890244228056097
20
2.652911533472277
30
0
10
1.5907636725665251
20
2.6595595879246536
30
0
10
1.7921616975722472
20
2.6798438200939758
30
0
10
1.9928847799002549
20
2.7123865239246654
30
0
10
2.1927946930812898
20
2.7546623440641005
30
0
10
2.3920392751037154
20
2.8026616644097886
30
0
10
2.5909511650242227
20
2.8516187254847871
30
0
10
2.7899407683484627
20
2.8967707588731701
30
0
10
2.9893905361809718
20
2.9341136111301513
30
0
10
3.1895512253076315
20
2.961140990886987
30
0
10
3.3904301660165475
20
2.9776471523626298
30
0
10
3.5918631259233158
20
2.9851183320811487
30
0
10
3.7935949769818538
20
2.9860572999194037
30
0
10
3.9953571692407324
20
2.983333564013944
30
0
10
4.1969456758443959
20
2.979529495098769
30
0
10
4.3983009501428469
20
2.9762743691221285
30
0
10
4.5994651147882077
20
2.9743752886115966
30
0
10
4.800536547696777
20
2.9739644568407964
30
0
10
5.0016256981718241
20
2.9746386957246695
30
0
10
5.2028102781800989
20
2.97560003062845
30
0
10
5.404091155366455
20
2.9757960658774847
30
0
10
5.6054218070452775
20
2.9742226194472514
30
0
10
5.8067373367240158
20
2.9702282186676703
30
0
10
6.0079832583529225
20
2.9638124683849325
30
0
10
6.2091451246734044
20
2.9559429702345486
30
0
10
6.4102758144024659
20
2.9488269517471895
30
0
10
6.6114592816129178
20
2.9449871044976743
30
0
10
6.8127761790665833
20
2.9463665476049492
30
0
10
7.0142695041578387
20
2.9534461513169057
30
0
10
7.2159085109436596
20
2.9642969944162472
30
0
10
7.4175578488917102
20
2.9738135291801489
30
0
10
7.6190240975368342
20
2.9755653136966576
30
0
10
7.8200980836725611
20
2.9635142642654171
30
0
10
8.0205977629387508
20
2.9337371421155072
30
0
10
8.2204131486157195
20
2.8862566450427032
30
0
10
8.4195440905035586
20
2.8265302932642449
30
0
10
8.6180656944952769
20
2.7635188747897548
30
0
10
8.8160997069328086
20
2.7080332547502022
30
0
10
9.0137841165213608
20
2.6710018909502429
30
0
10
9.2112428293543207
20
2.6617258072891135
30
0
10
9.4085574989505965
20
2.6862716192254061
30
0
10
9.6057774597543055
20
2.7482299571394506
30
0
10
9.7634973548693367
20
2.8291085795158271
30
0
10
9.8817594814977401
20
2.9076173467931792
30
0
10
9.9605885516702468
20
2.9678844548595427
30
0
10
10
20
3
30
0
0
ENDSEC
0
SECTION
2
OBJECTS
0
DICTIONARY
5
C
100
AcDbDictionary
3
ACAD_GROUP
350
D
3
ACAD_MLINESTYLE
350
17
0
DICTIONARY
5
D
100
AcDbDictionary
0
DICTIONARY
5
1A
330
C
100
AcDbDictionary
0
DICTIONARY
5
17
100
AcDbDictionary
0
ENDSEC
0
EOF
