0
SECTION
2
HEADER
9
$INSUNITS
70
4
9
$ACADVER
1
AC1014
9
$HANDSEED
5
FFFF
0
ENDSEC
0
SECTION
2
TABLES
0
TABLE
2
VPORT
5
8
100
AcDbSymbolTable
0
ENDTAB
0
TABLE
2
LTYPE
5
5
100
AcDbSymbolTable
0
LTYPE
5
14
100
AcDbSymbolTableRecord
100
AcDbLinetypeTableRecord
2
BYBLOCK
70
0
0
LTYPE
5
15
100
AcDbSymbolTableRecord
100
AcDbLinetypeTableRecord
2
BYLAYER
70
0
0
ENDTAB
0
TABLE
2
LAYER
5
2
100
AcDbSymbolTable
70
2
0
LAYER
5
50
100
AcDbSymbolTableRecord
100
AcDbLayerTableRecord
2
0
70
0
6
CONTINUOUS
0
ENDTAB
0
TABLE
2
STYLE
5
3
100
AcDbSymbolTable
70
1
0
STYLE
5
11
100
AcDbSymbolTableRecord
100
AcDbTextStyleTableRecord
2
STANDARD
70
0
0
ENDTAB
0
TABLE
2
VIEW
5
6
100
AcDbSymbolTable
70
0
0
ENDTAB
0
TABLE
2
UCS
5
7
100
AcDbSymbolTable
70
0
0
ENDTAB
0
TABLE
2
APPID
5
9
100
AcDbSymbolTable
70
2
0
APPID
5
12
100
AcDbSymbolTableRecord
100
AcDbRegAppTableRecord
2
ACAD
70
0
0
ENDTAB
0
TABLE
2
DIMSTYLE
5
A
100
AcDbSymbolTable
70
1
0
ENDTAB
0
TABLE
2
BLOCK_RECORD
5
1
100
AcDbSymbolTable
70
1
0
BLOCK_RECORD
5
1F
100
AcDbSymbolTableRecord
100
AcDbBlockTableRecord
2
*MODEL_SPACE
0
BLOCK_RECORD
5
1B
100
AcDbSymbolTableRecord
100
AcDbBlockTableRecord
2
*PAPER_SPACE
0
ENDTAB
0
ENDSEC
0
SECTION
2
BLOCKS
0
BLOCK
5
20
100
AcDbEntity
100
AcDbBlockBegin
2
*MODEL_SPACE
0
ENDBLK
5
21
100
AcDbEntity
100
AcDbBlockEnd
0
BLOCK
5
1C
100
AcDbEntity
100
AcDbBlockBegin
2
*PAPER_SPACE
0
ENDBLK
5
1D
100
AcDbEntity
100
AcDbBlockEnd
0
ENDSEC
0
SECTION
2
ENTITIES
0
SPLINE
5
100
100
AcDbEntity
8
0
100
AcDbSpline
70
4
71
5
72
16
73
10
74
0
42
0.000000001
43
0.0000000001
44
0.0000000001
40
0
40
0
40
0
40
0
40
0
40
0
40
0.20000000000000001
40
0.40000000000000002
40
0.60000000000000009
40
0.80000000000000004
40
1
40
1
40
1
40
1
40
1
40
1
41
1
41
1
41
1
41
1
41
1
41
1
41
1
41
1
41
1
41
1
10
0
20
0
30
0
10
0
20
0.12000000000003158
30
0
10
0
20
0.36000000000007704
30
0
10
0
20
0.72000000000009301
30
0
10
0
20
1.2000000000000313
30
0
10
0
20
1.7999999999999146
30
0
10
0
20
2.2799999999998684
30
0
10
0
20
2.6399999999999042
30
0
10
0
20
2.8799999999999617
30
0
10
0
20
3
30
0
0
SPLINE
5
101
100
AcDbEntity
8
0
100
AcDbSpline
70
4
71
5
72
16
73
10
74
0
42
0.000000001
43
0.0000000001
44
0.0000000001
40
0
40
0
40
0
40
0
40
0
40
0
40
0.20000000000000001
40
0.40000000000000002
40
0.60000000000000009
40
0.80000000000000004
40
1
40
1
40
1
40
1
40
1
40
1
41
1
41
1
41
1
41
1
41
1
41
1
41
1
41
1
41
1
41
1
10
10
20
0
30
0
10
9.9999999999997495
20
0.12000000000003158
30
0
10
9.9999999999993197
20
0.36000000000007704
30
0
10
9.9999999999989129
20
0.72000000000009301
30
0
10
9.9999999999987672
20
1.2000000000000313
30
0
10
9.9999999999990248
20
1.7999999999999146
30
0
10
9.9999999999993889
20
2.2799999999998684
30
0
10
9.9999999999996998
20
2.6399999999999042
30
0
10
9.9999999999999005
20
2.8799999999999617
30
0
10
10
20
3
30
0
0
SPLINE
5
102
100
AcDbEntity
8
0
100
AcDbSpline
70
4
71
5
72
16
73
10
74
0
42
0.000000001
43
0.0000000001
44
0.0000000001
40
0
40
0
40
0
40
0
40
0
40
0
40
0.20000000000000001
40
0.40000000000000002
40
0.60000000000000009
40
0.80000000000000004
40
1
40
1
40
1
40
1
40
1
40
1
41
1
41
1
41
1
41
1
41
1
41
1
41
1
41
1
41
1
41
1
10
0
20
1.5
30
0
10
0.40000000000047375
20
1.499999999999694
30
0
10
1.2000000000012774
20
1.4999999999991638
30
0
10
2.4000000000020547
20
1.4999999999986278
30
0
10
4.0000000000023546
20
1.4999999999983737
30
0
10
6.0000000000019584
20
1.4999999999985913
30
0
10
7.6000000000012928
20
1.4999999999990359
30
0
10
8.800000000000697
20
1.4999999999994786
30
0
10
9.6000000000002395
20
1.4999999999998188
30
0
10
10
20
1.5
30
0
0
SPLINE
5
103
100
AcDbEntity
8
0
100
AcDbSpline
70
4
71
5
72
61
73
55
74
0
42
0.000000001
43
0.0000000001
44
0.0000000001
40
0
40
0
40
0
40
0
40
0
40
0
40
0.02
40
0.040000000000000001
40
0.059999999999999998
40
0.080000000000000002
40
0.10000000000000001
40
0.12000000000000001
40
0.14000000000000001
40
0.16
40
0.17999999999999999
40
0.19999999999999998
40
0.21999999999999997
40
0.23999999999999996
40
0.25999999999999995
40
0.27999999999999997
40
0.29999999999999999
40
0.32000000000000001
40
0.34000000000000002
40
0.36000000000000004
40
0.38000000000000006
40
0.40000000000000008
40
0.4200000000000001
40
0.44000000000000011
40
0.46000000000000013
40
0.48000000000000015
40
0.50000000000000011
40
0.52000000000000013
40
0.54000000000000015
40
0.56000000000000016
40
0.58000000000000018
40
0.6000000000000002
40
0.62000000000000022
40
0.64000000000000024
40
0.66000000000000025
40
0.68000000000000027
40
0.70000000000000029
40
0.72000000000000031
40
0.74000000000000032
40
0.76000000000000034
40
0.78000000000000036
40
0.80000000000000038
40
0.8200000000000004
40
0.84000000000000041
40
0.86000000000000043
40
0.88000000000000045
40
0.90000000000000047
40
0.92000000000000048
40
0.9400000000000005
40
0.96000000000000052
40
0.98000000000000054
40
1
40
1
40
1
40
1
40
1
40
1
41
1
41
1
41
1
41
1
41
1
41
1
41
1
41
1
41
1
41
1
41
1
41
1
41
1
41
1
41
1
41
1
41
1
41
1
41
1
41
1
41
1
41
1
41
1
41
1
41
1
41
1
41
1
41
1
41
1
41
1
41
1
41
1
41
1
41
1
41
1
41
1
41
1
41
1
41
1
41
1
41
1
41
1
41
1
41
1
41
1
41
1
41
1
41
1
41
1
41
1
41
1
41
1
41
1
41
1
41
1
10
0
20
0
30
0
10
0.03882631723343969
20
0.048291071863515805
30
0
10
0.11642198241855049
20
0.13934744265976237
30
0
10
0.23264458142030803
20
0.25935476238542632
30
0
10
0.38726594769949113
20
0.38618773690851843
30
0
10
0.58000847396338084
20
0.48991853991649748
30
0
10
0.77232561487877727
20
0.54049659150513485
30
0
10
0.96443944169488327
20
0.54142791535702883
30
0
10
1.1567165330957898
20
0.4986613397999291
30
0
10
1.3497235094737254
20
0.42140571937020244
30
0
10
1.5441096165795301
20
0.32134735061938691
30
0
10
1.7404576417929551
20
0.21152971082519001
30
0
10
1.9391365738586688
20
0.10535804982310208
30
0
10
2.140173447631958
20
0.015545860297860665
30
0
10
2.3430641353049526
20
-0.046895494538213789
30
0
10
2.5469000763915699
20
-0.073770098815974988
30
0
10
2.7506213265781128
20
-0.060783444530824286
30
0
10
2.9532365561983176
20
-0.00876138865646367
30
0
10
3.1540382487346275
20
0.075426074304133311
30
0
10
3.3528683771955188
20
0.17714498481464599
30
0
10
3.5500365611700833
20
0.27701370641033751
30
0
10
3.7461382652013664
20
0.35517102733055983
30
0
10
3.9419031454037201
20
0.39532619573593297
30
0
10
4.1380413054979943
20
0.38844348944091456
30
0
10
4.3350650861749882
20
0.33778005008670031
30
0
10
4.5332668527728073
20
0.25667394915490604
30
0
10
4.7327620152191932
20
0.16349507797084212
30
0
10
4.9335096449562368
20
0.077354371383239945
30
0
10
5.1353434334545049
20
0.013901140366942575
30
0
10
5.3379940715103702
20
-0.019928513258898523
30
0
10
5.5411341558088365
20
-0.025436657336862914
30
0
10
5.7444308013672627
20
-0.008965071926902584
30
0
10
5.9475982474493119
20
0.020495048987445259
30
0
10
6.150445158708937
20
0.053857362455419541
30
0
10
6.3529381943731877
20
0.084836552749205901
30
0
10
6.5551719412032607
20
0.11006625003796537
30
0
10
6.7573086520222967
20
0.1282514332014468
30
0
10
6.9595266285667421
20
0.13964121196664006
30
0
10
7.1619686421792323
20
0.14539094451761889
30
0
10
7.364681040849554
20
0.14692707785515521
30
0
10
7.5676289266599301
20
0.1456914659218374
30
0
10
7.7707293129086521
20
0.14299439707993136
30
0
10
7.9738784666653224
20
0.13982406534719072
30
0
10
8.1769804333868503
20
0.13668559317230566
30
0
10
8.3799781566876845
20
0.13339465693686098
30
0
10
8.5828479458430245
20
0.12924933339100708
30
0
10
8.7855887463738451
20
0.12325021190829305
30
0
10
8.9882132654424804
20
0.11430446807765748
30
0
10
9.1907385218746835
20
0.10143209258539729
30
0
10
9.3931762401165599
20
0.083982812677647137
30
0
10
9.5955334809681521
20
0.061577408024079711
30
0
10
9.757357829249651
20
0.039542160557269765
30
0
10
9.8786921172592628
20
0.020679164790844525
30
0
10
9.9595665538960958
20
0.0070660228710905061
30
0
10
10
20
0
30
0
0
SPLINE
5
104
100
AcDbEntity
8
0
100
AcDbSpline
70
4
71
5
72
61
73
55
74
0
42
0.000000001
43
0.0000000001
44
0.0000000001
40
0
40
0
40
0
40
0
40
0
40
0
40
0.02
40
0.040000000000000001
40
0.059999999999999998
40
0.080000000000000002
40
0.10000000000000001
40
0.12000000000000001
40
0.14000000000000001
40
0.16
40
0.17999999999999999
40
0.19999999999999998
40
0.21999999999999997
40
0.23999999999999996
40
0.25999999999999995
40
0.27999999999999997
40
0.29999999999999999
40
0.32000000000000001
40
0.34000000000000002
40
0.36000000000000004
40
0.38000000000000006
40
0.40000000000000008
40
0.4200000000000001
40
0.44000000000000011
40
0.46000000000000013
40
0.48000000000000015
40
0.50000000000000011
40
0.52000000000000013
40
0.54000000000000015
40
0.56000000000000016
40
0.58000000000000018
40
0.6000000000000002
40
0.62000000000000022
40
0.64000000000000024
40
0.66000000000000025
40
0.68000000000000027
40
0.70000000000000029
40
0.72000000000000031
40
0.74000000000000032
40
0.76000000000000034
40
0.78000000000000036
40
0.80000000000000038
40
0.8200000000000004
40
0.84000000000000041
40
0.86000000000000043
40
0.88000000000000045
40
0.90000000000000047
40
0.92000000000000048
40
0.9400000000000005
40
0.96000000000000052
40
0.98000000000000054
40
1
40
1
40
1
40
1
40
1
40
1
41
1
41
1
41
1
41
1
41
1
41
1
41
1
41
1
41
1
41
1
41
1
41
1
41
1
41
1
41
1
41
1
41
1
41
1
41
1
41
1
41
1
41
1
41
1
41
1
41
1
41
1
41
1
41
1
41
1
41
1
41
1
41
1
41
1
41
1
41
1
41
1
41
1
41
1
41
1
41
1
41
1
41
1
41
1
41
1
41
1
41
1
41
1
41
1
41
1
41
1
41
1
41
1
41
1
41
1
41
1
10
0
20
3
30
0
10
0.041083097673465095
20
3.0016021105433195
30
0
10
0.12309227316978845
20
3.0042940540569014
30
0
10
0.24563497432998205
20
3.0067951591850566
30
0
10
0.40808252646666826
20
3.0070541494088543
30
0
10
0.6096039678884837
20
3.0020270717835835
30
0
10
0.80969364436922431
20
2.990991879980212
30
0
10
1.0085681738461796
20
2.9726543220316923
30
0
10
1.2065948342516257
20
2.9448542996832696
30
0
10
1.4043248777341319
20
2.9043995245868053
30
0
10
1.6023458818170315
20
2.8484920508498277
30
0
10
1.8011405856812901
20
2.7760998250230919
30
0
10
2.0009433713735381
20
2.6893500243049857
30
0
10
2.2015965521486454
20
2.5949281441250323
30
0
10
2.4024074396566646
20
2.5054671343693147
30
0
10
2.6024225236493099
20
2.4361344781811982
30
0
10
2.8006980565981348
20
2.4012598691678861
30
0
10
2.9965734662323533
20
2.4109276679633891
30
0
10
3.1899403953465044
20
2.4676201151013952
30
0
10
3.3815251870610998
20
2.5626956841988506
30
0
10
3.5725671754304256
20
2.6802783878800431
30
0
10
3.7644926074452698
20
2.8012092647572766
30
0
10
3.9585789191811829
20
2.9070892061683273
30
0
10
4.1556503842574912
20
2.9839925021061364
30
0
10
4.3556879811287628
20
3.0270825010856899
30
0
10
4.5580122170087787
20
3.0391762239532949
30
0
10
4.7616023669556595
20
3.0278522270849662
30
0
10
4.9653758379530757
20
3.0030183772147776
30
0
10
5.1684662631722409
20
2.9744124722241336
30
0
10
5.3705483877523683
20
2.9488287986801005
30
0
10
5.5717352935374986
20
2.9301841923766299
30
0
10
5.7723933012465221
20
2.9201511244824703
30
0
10
5.9729829878824425
20
2.9185878955458113
30
0
10
6.1738973100775629
20
2.924044783497628
30
0
10
6.3752806327630838
20
2.9342432831289766
30
0
10
6.5770790811127036
20
2.9464499592927145
30
0
10
6.7791245098257367
20
2.9578230076422463
30
0
10
6.9812073059752997
20
2.9657729617009316
30
0
10
7.1831511240021655
20
2.9683073500514197
30
0
10
7.3848937489462418
20
2.9644117352989676
30
0
10
7.5864593438865038
20
2.9539856511008655
30
0
10
7.7879202539308583
20
2.9377380342043544
30
0
10
7.9893624303016058
20
2.9171006084401139
30
0
10
8.1908501154189448
20
2.8941335408119135
30
0
10
8.3923888630927852
20
2.8714428883133643
30
0
10
8.5939402696835749
20
2.8519256725748807
30
0
10
8.7954393716635586
20
2.8385077011493709
30
0
10
8.9968110206318013
20
2.8338833916316903
30
0
10
9.1979865564530847
20
2.8402560169014341
30
0
10
9.3989206169569375
20
2.8590713279214275
30
0
10
9.5995865234298012
20
2.8911727121764583
30
0
10
9.7598943882857139
20
2.9278035699592886
30
0
10
9.8799970369594305
20
2.9614878934868969
30
0
10
9.9600085061778962
20
2.9867028425027313
30
0
10
10
20
3
30
0
0
ENDSEC
0
SECTION
2
OBJECTS
0
DICTIONARY
5
C
100
AcDbDictionary
3
ACAD_GROUP
350
D
3
ACAD_MLINESTYLE
350
17
0
DICTIONARY
5
D
100
AcDbDictionary
0
DICTIONARY
5
1A
330
C
100
AcDbDictionary
0
DICTIONARY
5
17
100
AcDbDictionary
0
ENDSEC
0
EOF
