0
SECTION
2
HEADER
9
$INSUNITS
70
4
9
$ACADVER
1
AC1014
9
$HANDSEED
5
FFFF
0
ENDSEC
0
SECTION
2
TABLES
0
TABLE
2
VPORT
5
8
100
AcDbSymbolTable
0
ENDTAB
0
TABLE
2
LTYPE
5
5
100
AcDbSymbolTable
0
LTYPE
5
14
100
AcDbSymbolTableRecord
100
AcDbLinetypeTableRecord
2
BYBLOCK
70
0
0
LTYPE
5
15
100
AcDbSymbolTableRecord
100
AcDbLinetypeTableRecord
2
BYLAYER
70
0
0
ENDTAB
0
TABLE
2
LAYER
5
2
100
AcDbSymbolTable
70
2
0
LAYER
5
50
100
AcDbSymbolTableRecord
100
AcDbLayerTableRecord
2
0
70
0
6
CONTINUOUS
0
ENDTAB
0
TABLE
2
STYLE
5
3
100
AcDbSymbolTable
70
1
0
STYLE
5
11
100
AcDbSymbolTableRecord
100
AcDbTextStyleTableRecord
2
STANDARD
70
0
0
ENDTAB
0
TABLE
2
VIEW
5
6
100
AcDbSymbolTable
70
0
0
ENDTAB
0
TABLE
2
UCS
5
7
100
AcDbSymbolTable
70
0
0
ENDTAB
0
TABLE
2
APPID
5
9
100
AcDbSymbolTable
70
2
0
APPID
5
12
100
AcDbSymbolTableRecord
100
AcDbRegAppTableRecord
2
ACAD
70
0
0
ENDTAB
0
TABLE
2
DIMSTYLE
5
A
100
AcDbSymbolTable
70
1
0
ENDTAB
0
TABLE
2
BLOCK_RECORD
5
1
100
AcDbSymbolTable
70
1
0
BLOCK_RECORD
5
1F
100
AcDbSymbolTableRecord
100
AcDbBlockTableRecord
2
*MODEL_SPACE
0
BLOCK_RECORD
5
1B
100
AcDbSymbolTableRecord
100
AcDbBlockTableRecord
2
*PAPER_SPACE
0
ENDTAB
0
ENDSEC
0
SECTION
2
BLOCKS
0
BLOCK
5
20
100
AcDbEntity
100
AcDbBlockBegin
2
*MODEL_SPACE
0
ENDBLK
5
21
100
AcDbEntity
100
AcDbBlockEnd
0
BLOCK
5
1C
100
AcDbEntity
100
AcDbBlockBegin
2
*PAPER_SPACE
0
ENDBLK
5
1D
100
AcDbEntity
100
AcDbBlockEnd
0
ENDSEC
0
SECTION
2
ENTITIES
0
SPLINE
5
100
100
AcDbEntity
8
0
100
AcDbSpline
70
4
71
5
72
16
73
10
74
0
42
0.000000001
43
0.0000000001
44
0.0000000001
40
0
40
0
40
0
40
0
40
0
40
0
40
0.20000000000000001
40
0.40000000000000002
40
0.60000000000000009
40
0.80000000000000004
40
1
40
1
40
1
40
1
40
1
40
1
41
1
41
1
41
1
41
1
41
1
41
1
41
1
41
1
41
1
41
1
10
0
20
0
30
0
10
0
20
0.12000000000003158
30
0
10
0
20
0.36000000000007704
30
0
10
0
20
0.72000000000009301
30
0
10
0
20
1.2000000000000313
30
0
10
0
20
1.7999999999999146
30
0
10
0
20
2.2799999999998684
30
0
10
0
20
2.6399999999999042
30
0
10
0
20
2.8799999999999617
30
0
10
0
20
3
30
0
0
SPLINE
5
101
100
AcDbEntity
8
0
100
AcDbSpline
70
4
71
5
72
16
73
10
74
0
42
0.000000001
43
0.0000000001
44
0.0000000001
40
0
40
0
40
0
40
0
40
0
40
0
40
0.20000000000000001
40
0.40000000000000002
40
0.60000000000000009
40
0.80000000000000004
40
1
40
1
40
1
40
1
40
1
40
1
41
1
41
1
41
1
41
1
41
1
41
1
41
1
41
1
41
1
41
1
10
10
20
0
30
0
10
9.9999999999997495
20
0.12000000000003158
30
0
10
9.9999999999993197
20
0.36000000000007704
30
0
10
9.9999999999989129
20
0.72000000000009301
30
0
10
9.9999999999987672
20
1.2000000000000313
30
0
10
9.9999999999990248
20
1.7999999999999146
30
0
10
9.9999999999993889
20
2.2799999999998684
30
0
10
9.9999999999996998
20
2.6399999999999042
30
0
10
9.9999999999999005
20
2.8799999999999617
30
0
10
10
20
3
30
0
0
SPLINE
5
102
100
AcDbEntity
8
0
100
AcDbSpline
70
4
71
5
72
16
73
10
74
0
42
0.000000001
43
0.0000000001
44
0.0000000001
40
0
40
0
40
0
40
0
40
0
40
0
40
0.20000000000000001
40
0.40000000000000002
40
0.60000000000000009
40
0.80000000000000004
40
1
40
1
40
1
40
1
40
1
40
1
41
1
41
1
41
1
41
1
41
1
41
1
41
1
41
1
41
1
41
1
10
0
20
1.5
30
0
10
0.40000000000047375
20
1.499999999999694
30
0
10
1.2000000000012774
20
1.4999999999991638
30
0
10
2.4000000000020547
20
1.4999999999986278
30
0
10
4.0000000000023546
20
1.4999999999983737
30
0
10
6.0000000000019584
20
1.4999999999985913
30
0
10
7.6000000000012928
20
1.4999999999990359
30
0
10
8.800000000000697
20
1.4999999999994786
30
0
10
9.6000000000002395
20
1.4999999999998188
30
0
10
10
20
1.5
30
0
0
SPLINE
5
103
100
AcDbEntity
8
0
100
AcDbSpline
70
4
71
5
72
61
73
55
74
0
42
0.000000001
43
0.0000000001
44
0.0000000001
40
0
40
0
40
0
40
0
40
0
40
0
40
0.02
40
0.040000000000000001
40
0.059999999999999998
40
0.080000000000000002
40
0.10000000000000001
40
0.12000000000000001
40
0.14000000000000001
40
0.16
40
0.17999999999999999
40
0.19999999999999998
40
0.21999999999999997
40
0.23999999999999996
40
0.25999999999999995
40
0.27999999999999997
40
0.29999999999999999
40
0.32000000000000001
40
0.34000000000000002
40
0.36000000000000004
40
0.38000000000000006
40
0.40000000000000008
40
0.4200000000000001
40
0.44000000000000011
40
0.46000000000000013
40
0.48000000000000015
40
0.50000000000000011
40
0.52000000000000013
40
0.54000000000000015
40
0.56000000000000016
40
0.58000000000000018
40
0.6000000000000002
40
0.62000000000000022
40
0.64000000000000024
40
0.66000000000000025
40
0.68000000000000027
40
0.70000000000000029
40
0.72000000000000031
40
0.74000000000000032
40
0.76000000000000034
40
0.78000000000000036
40
0.80000000000000038
40
0.8200000000000004
40
0.84000000000000041
40
0.86000000000000043
40
0.88000000000000045
40
0.90000000000000047
40
0.92000000000000048
40
0.9400000000000005
40
0.96000000000000052
40
0.98000000000000054
40
1
40
1
40
1
40
1
40
1
40
1
41
1
41
1
41
1
41
1
41
1
41
1
41
1
41
1
41
1
41
1
41
1
41
1
41
1
41
1
41
1
41
1
41
1
41
1
41
1
41
1
41
1
41
1
41
1
41
1
41
1
41
1
41
1
41
1
41
1
41
1
41
1
41
1
41
1
41
1
41
1
41
1
41
1
41
1
41
1
41
1
41
1
41
1
41
1
41
1
41
1
41
1
41
1
41
1
41
1
41
1
41
1
41
1
41
1
41
1
41
1
10
0
20
0
30
0
10
0.039173980058941058
20
0.012226458595595629
30
0
10
0.11763055316780738
20
0.036229762381053437
30
0
10
0.23564125062867136
20
0.070885865324027769
30
0
10
0.39364095762946727
20
0.11439464976513465
30
0
10
0.59220734173382117
20
0.16408589865620349
30
0
10
0.79177605410695528
20
0.20851431016430014
30
0
10
0.99221456560763477
20
0.24655235841467793
30
0
10
1.1932995192743161
20
0.27633819813440519
30
0
10
1.394690603010855
20
0.29506461139807572
30
0
10
1.596001342828157
20
0.29981824118518874
30
0
10
1.7968731104975175
20
0.28845424456686547
30
0
10
1.9970483022007648
20
0.26046414890844788
30
0
10
2.1964433466425479
20
0.21784077938740676
30
0
10
2.3952242784830418
20
0.16597869041253724
30
0
10
2.5937131132374143
20
0.1122934877546166
30
0
10
2.7922924804595657
20
0.064816849511385624
30
0
10
2.9913102983394286
20
0.030793459858985156
30
0
10
3.1909863537791123
20
0.015298606709137975
30
0
10
3.3913124984679008
20
0.019780087946313647
30
0
10
3.5921231423562827
20
0.042603739950476061
30
0
10
3.7931721667739673
20
0.079676051021430605
30
0
10
3.9942076408176703
20
0.12502836888003394
30
0
10
4.1950463813793819
20
0.17141742473300181
30
0
10
4.3956514366453154
20
0.21089766497860807
30
0
10
4.5960822339804697
20
0.23615907341322501
30
0
10
4.7964414729934992
20
0.24188181464465425
30
0
10
4.9968231776724119
20
0.22609770112040362
30
0
10
5.1972607393316874
20
0.19153846583709588
30
0
10
5.3976735775031965
20
0.14705431701322222
30
0
10
5.5979196099711093
20
0.10467825932720042
30
0
10
5.7978490801184321
20
0.076638769824077593
30
0
10
5.9973580257049406
20
0.072383779011868279
30
0
10
6.1964415294978696
20
0.095618346736402862
30
0
10
6.3952485659508218
20
0.14125652937010094
30
0
10
6.5940184489781517
20
0.19858639343770806
30
0
10
6.7930162147376629
20
0.25449096664126553
30
0
10
6.9924679928537632
20
0.29666261982669634
30
0
10
7.1924975275254983
20
0.31676628530254591
30
0
10
7.3930586795359723
20
0.31377914526406309
30
0
10
7.5939896611770674
20
0.29191782073056105
30
0
10
7.7950712037788561
20
0.25838978609097868
30
0
10
7.9960832823421848
20
0.22121210261059676
30
0
10
8.1968619260103281
20
0.18702272776474491
30
0
10
8.3973573880282792
20
0.1588476065394242
30
0
10
8.5976048993507046
20
0.13696322282071929
30
0
10
8.7976939667195158
20
0.11981194067411055
30
0
10
8.9977383341024257
20
0.1048934551282827
30
0
10
9.1978458754306018
20
0.089659593351368527
30
0
10
9.3980882116343967
20
0.072415706786268921
30
0
10
9.5985078777079167
20
0.052153761740133586
30
0
10
9.7590022449872258
20
0.033130827891040708
30
0
10
9.8794652704915098
20
0.017208619203096628
30
0
10
9.959814927891335
20
0.005858721292017777
30
0
10
10
20
0
30
0
0
SPLINE
5
104
100
AcDbEntity
8
0
100
AcDbSpline
70
4
71
5
72
61
73
55
74
0
42
0.000000001
43
0.0000000001
44
0.0000000001
40
0
40
0
40
0
40
0
40
0
40
0
40
0.02
40
0.040000000000000001
40
0.059999999999999998
40
0.080000000000000002
40
0.10000000000000001
40
0.12000000000000001
40
0.14000000000000001
40
0.16
40
0.17999999999999999
40
0.19999999999999998
40
0.21999999999999997
40
0.23999999999999996
40
0.25999999999999995
40
0.27999999999999997
40
0.29999999999999999
40
0.32000000000000001
40
0.34000000000000002
40
0.36000000000000004
40
0.38000000000000006
40
0.40000000000000008
40
0.4200000000000001
40
0.44000000000000011
40
0.46000000000000013
40
0.48000000000000015
40
0.50000000000000011
40
0.52000000000000013
40
0.54000000000000015
40
0.56000000000000016
40
0.58000000000000018
40
0.6000000000000002
40
0.62000000000000022
40
0.64000000000000024
40
0.66000000000000025
40
0.68000000000000027
40
0.70000000000000029
40
0.72000000000000031
40
0.74000000000000032
40
0.76000000000000034
40
0.78000000000000036
40
0.80000000000000038
40
0.8200000000000004
40
0.84000000000000041
40
0.86000000000000043
40
0.88000000000000045
40
0.90000000000000047
40
0.92000000000000048
40
0.9400000000000005
40
0.96000000000000052
40
0.98000000000000054
40
1
40
1
40
1
40
1
40
1
40
1
41
1
41
1
41
1
41
1
41
1
41
1
41
1
41
1
41
1
41
1
41
1
41
1
41
1
41
1
41
1
41
1
41
1
41
1
41
1
41
1
41
1
41
1
41
1
41
1
41
1
41
1
41
1
41
1
41
1
41
1
41
1
41
1
41
1
41
1
41
1
41
1
41
1
41
1
41
1
41
1
41
1
41
1
41
1
41
1
41
1
41
1
41
1
41
1
41
1
41
1
41
1
41
1
41
1
41
1
41
1
10
0
20
3
30
0
10
0.040015456659586821
20
2.9984924178970211
30
0
10
0.12004864067523602
20
2.995312040574559
30
0
10
0.24010522879520854
20
2.9900458350659758
30
0
10
0.40019431263335209
20
2.9820323041658581
30
0
10
0.60032748390280344
20
2.9704173083348664
30
0
10
0.80047966378716984
20
2.9573762352819837
30
0
10
1.0006451656711244
20
2.9432582870211519
30
0
10
1.2008144343693936
20
2.928650758315841
30
0
10
1.4009730688517106
20
2.9144398656808868
30
0
10
1.6011072623113431
20
2.901680484839944
30
0
10
1.8012092341039934
20
2.8914667818027247
30
0
10
2.0012826592986577
20
2.8848026543867129
30
0
10
2.2013481692043531
20
2.8824721032128844
30
0
10
2.4014487502665909
20
2.8849089024418486
30
0
10
2.6016328323292361
20
2.8920612637743393
30
0
10
2.8019374770651369
20
2.9032547429332265
30
0
10
3.0023715844037451
20
2.9170555393675022
30
0
10
3.2028988502138156
20
2.9311282055640135
30
0
10
3.4034211950483599
20
2.9421023865516043
30
0
10
3.6038129165971275
20
2.9463903823953697
30
0
10
3.8039543352327145
20
2.9409966700207302
30
0
10
4.0037654481991822
20
2.9243267638702344
30
0
10
4.203240070974763
20
2.8970109186881077
30
0
10
4.4024788356951552
20
2.8626964209655528
30
0
10
4.6016441322619031
20
2.8266895616591374
30
0
10
4.8009164404287485
20
2.7946357445590939
30
0
10
5.0004502542771458
20
2.7711882017918281
30
0
10
5.200330077955428
20
2.758677798505822
30
0
10
5.4005264030654718
20
2.7557823584509151
30
0
10
5.6009360886904505
20
2.7588524507217098
30
0
10
5.8014224102135774
20
2.7632267621209632
30
0
10
6.0018550266190545
20
2.7645450758114003
30
0
10
6.2021501479169263
20
2.760067551222865
30
0
10
6.402310203582104
20
2.7499792178669469
30
0
10
6.6023913932974683
20
2.7364824718635927
30
0
10
6.8024718845243264
20
2.7229107599954578
30
0
10
7.0026199533863664
20
2.7128400466424245
30
0
10
7.2028619196790169
20
2.7091983094743179
30
0
10
7.403150714657718
20
2.7133868269304844
30
0
10
7.6033961843867912
20
2.7255862043644519
30
0
10
7.8034946281159758
20
2.7450459122348296
30
0
10
8.0033584608314499
20
2.7703766613476635
30
0
10
8.2029460861869747
20
2.7998402520286367
30
0
10
8.4022911220439038
20
2.8316365955085794
30
0
10
8.6014793620915881
20
2.8639921651610818
30
0
10
8.80062661753343
20
2.8952515097378639
30
0
10
8.9998563299301075
20
2.9239678470834192
30
0
10
9.1992773271220312
20
2.9489945453985591
30
0
10
9.3989614826021715
20
2.9695771111106453
30
0
10
9.5989513314917314
20
2.9852717224115235
30
0
10
9.7592043674964923
20
2.9937458226593172
30
0
10
9.8795439600803867
20
2.997776463670915
30
0
10
9.959836896470609
20
2.9994309264344245
30
0
10
10
20
3
30
0
0
ENDSEC
0
SECTION
2
OBJECTS
0
DICTIONARY
5
C
100
AcDbDictionary
3
ACAD_GROUP
350
D
3
ACAD_MLINESTYLE
350
17
0
DICTIONARY
5
D
100
AcDbDictionary
0
DICTIONARY
5
1A
330
C
100
AcDbDictionary
0
DICTIONARY
5
17
100
AcDbDictionary
0
ENDSEC
0
EOF
