0
SECTION
2
HEADER
9
$INSUNITS
70
4
9
$ACADVER
1
AC1014
9
$HANDSEED
5
FFFF
0
ENDSEC
0
SECTION
2
TABLES
0
TABLE
2
VPORT
5
8
100
AcDbSymbolTable
0
ENDTAB
0
TABLE
2
LTYPE
5
5
100
AcDbSymbolTable
0
LTYPE
5
14
100
AcDbSymbolTableRecord
100
AcDbLinetypeTableRecord
2
BYBLOCK
70
0
0
LTYPE
5
15
100
AcDbSymbolTableRecord
100
AcDbLinetypeTableRecord
2
BYLAYER
70
0
0
ENDTAB
0
TABLE
2
LAYER
5
2
100
AcDbSymbolTable
70
2
0
LAYER
5
50
100
AcDbSymbolTableRecord
100
AcDbLayerTableRecord
2
0
70
0
6
CONTINUOUS
0
ENDTAB
0
TABLE
2
STYLE
5
3
100
AcDbSymbolTable
70
1
0
STYLE
5
11
100
AcDbSymbolTableRecord
100
AcDbTextStyleTableRecord
2
STANDARD
70
0
0
ENDTAB
0
TABLE
2
VIEW
5
6
100
AcDbSymbolTable
70
0
0
ENDTAB
0
TABLE
2
UCS
5
7
100
AcDbSymbolTable
70
0
0
ENDTAB
0
TABLE
2
APPID
5
9
100
AcDbSymbolTable
70
2
0
APPID
5
12
100
AcDbSymbolTableRecord
100
AcDbRegAppTableRecord
2
ACAD
70
0
0
ENDTAB
0
TABLE
2
DIMSTYLE
5
A
100
AcDbSymbolTable
70
1
0
ENDTAB
0
TABLE
2
BLOCK_RECORD
5
1
100
AcDbSymbolTable
70
1
0
BLOCK_RECORD
5
1F
100
AcDbSymbolTableRecord
100
AcDbBlockTableRecord
2
*MODEL_SPACE
0
BLOCK_RECORD
5
1B
100
AcDbSymbolTableRecord
100
AcDbBlockTableRecord
2
*PAPER_SPACE
0
ENDTAB
0
ENDSEC
0
SECTION
2
BLOCKS
0
BLOCK
5
20
100
AcDbEntity
100
AcDbBlockBegin
2
*MODEL_SPACE
0
ENDBLK
5
21
100
AcDbEntity
100
AcDbBlockEnd
0
BLOCK
5
1C
100
AcDbEntity
100
AcDbBlockBegin
2
*PAPER_SPACE
0
ENDBLK
5
1D
100
AcDbEntity
100
AcDbBlockEnd
0
ENDSEC
0
SECTION
2
ENTITIES
0
SPLINE
5
100
100
AcDbEntity
8
0
100
AcDbSpline
70
4
71
5
72
16
73
10
74
0
42
0.000000001
43
0.0000000001
44
0.0000000001
40
0
40
0
40
0
40
0
40
0
40
0
40
0.20000000000000001
40
0.40000000000000002
40
0.60000000000000009
40
0.80000000000000004
40
1
40
1
40
1
40
1
40
1
40
1
41
1
41
1
41
1
41
1
41
1
41
1
41
1
41
1
41
1
41
1
10
0
20
0
30
0
10
0
20
0.12000000000003158
30
0
10
0
20
0.36000000000007704
30
0
10
0
20
0.72000000000009301
30
0
10
0
20
1.2000000000000313
30
0
10
0
20
1.7999999999999146
30
0
10
0
20
2.2799999999998684
30
0
10
0
20
2.6399999999999042
30
0
10
0
20
2.8799999999999617
30
0
10
0
20
3
30
0
0
SPLINE
5
101
100
AcDbEntity
8
0
100
AcDbSpline
70
4
71
5
72
16
73
10
74
0
42
0.000000001
43
0.0000000001
44
0.0000000001
40
0
40
0
40
0
40
0
40
0
40
0
40
0.20000000000000001
40
0.40000000000000002
40
0.60000000000000009
40
0.80000000000000004
40
1
40
1
40
1
40
1
40
1
40
1
41
1
41
1
41
1
41
1
41
1
41
1
41
1
41
1
41
1
41
1
10
10
20
0
30
0
10
9.9999999999997495
20
0.12000000000003158
30
0
10
9.9999999999993197
20
0.36000000000007704
30
0
10
9.9999999999989129
20
0.72000000000009301
30
0
10
9.9999999999987672
20
1.2000000000000313
30
0
10
9.9999999999990248
20
1.7999999999999146
30
0
10
9.9999999999993889
20
2.2799999999998684
30
0
10
9.9999999999996998
20
2.6399999999999042
30
0
10
9.9999999999999005
20
2.8799999999999617
30
0
10
10
20
3
30
0
0
SPLINE
5
102
100
AcDbEntity
8
0
100
AcDbSpline
70
4
71
5
72
16
73
10
74
0
42
0.000000001
43
0.0000000001
44
0.0000000001
40
0
40
0
40
0
40
0
40
0
40
0
40
0.20000000000000001
40
0.40000000000000002
40
0.60000000000000009
40
0.80000000000000004
40
1
40
1
40
1
40
1
40
1
40
1
41
1
41
1
41
1
41
1
41
1
41
1
41
1
41
1
41
1
41
1
10
0
20
1.5
30
0
10
0.40000000000047375
20
1.499999999999694
30
0
10
1.2000000000012774
20
1.4999999999991638
30
0
10
2.4000000000020547
20
1.4999999999986278
30
0
10
4.0000000000023546
20
1.4999999999983737
30
0
10
6.0000000000019584
20
1.4999999999985913
30
0
10
7.6000000000012928
20
1.4999999999990359
30
0
10
8.800000000000697
20
1.4999999999994786
30
0
10
9.6000000000002395
20
1.4999999999998188
30
0
10
10
20
1.5
30
0
0
SPLINE
5
103
100
AcDbEntity
8
0
100
AcDbSpline
70
4
71
5
72
61
73
55
74
0
42
0.000000001
43
0.0000000001
44
0.0000000001
40
0
40
0
40
0
40
0
40
0
40
0
40
0.02
40
0.040000000000000001
40
0.059999999999999998
40
0.080000000000000002
40
0.10000000000000001
40
0.12000000000000001
40
0.14000000000000001
40
0.16
40
0.17999999999999999
40
0.19999999999999998
40
0.21999999999999997
40
0.23999999999999996
40
0.25999999999999995
40
0.27999999999999997
40
0.29999999999999999
40
0.32000000000000001
40
0.34000000000000002
40
0.36000000000000004
40
0.38000000000000006
40
0.40000000000000008
40
0.4200000000000001
40
0.44000000000000011
40
0.46000000000000013
40
0.48000000000000015
40
0.50000000000000011
40
0.52000000000000013
40
0.54000000000000015
40
0.56000000000000016
40
0.58000000000000018
40
0.6000000000000002
40
0.62000000000000022
40
0.64000000000000024
40
0.66000000000000025
40
0.68000000000000027
40
0.70000000000000029
40
0.72000000000000031
40
0.74000000000000032
40
0.76000000000000034
40
0.78000000000000036
40
0.80000000000000038
40
0.8200000000000004
40
0.84000000000000041
40
0.86000000000000043
40
0.88000000000000045
40
0.90000000000000047
40
0.92000000000000048
40
0.9400000000000005
40
0.96000000000000052
40
0.98000000000000054
40
1
40
1
40
1
40
1
40
1
40
1
41
1
41
1
41
1
41
1
41
1
41
1
41
1
41
1
41
1
41
1
41
1
41
1
41
1
41
1
41
1
41
1
41
1
41
1
41
1
41
1
41
1
41
1
41
1
41
1
41
1
41
1
41
1
41
1
41
1
41
1
41
1
41
1
41
1
41
1
41
1
41
1
41
1
41
1
41
1
41
1
41
1
41
1
41
1
41
1
41
1
41
1
41
1
41
1
41
1
41
1
41
1
41
1
41
1
41
1
41
1
10
0
20
0
30
0
10
0.040430018269646428
20
-0.0085215295392809393
30
0
10
0.12123741538833793
20
-0.023297302314086232
30
0
10
0.24229059275701489
20
-0.03865908621363761
30
0
10
0.40337878730026694
20
-0.045528991726639947
30
0
10
0.60421559126099944
20
-0.031965642820600312
30
0
10
0.80454093260554638
20
0.002045400653280979
30
0
10
1.0043803375330909
20
0.053032060840957629
30
0
10
1.2037778467497386
20
0.11512912248705545
30
0
10
1.4028008704838273
20
0.17949631950248121
30
0
10
1.6015373180706602
20
0.23613153580359419
30
0
10
1.8000929118767186
20
0.27563496149423206
30
0
10
1.9985885089939055
20
0.29099518547059389
30
0
10
2.1971574277073662
20
0.27936424352316741
30
0
10
2.3959429251841051
20
0.24386821572112641
30
0
10
2.5950770500469438
20
0.19173766264945585
30
0
10
2.7946594492324146
20
0.13242728583634655
30
0
10
2.9947359156543882
20
0.075740325689863774
30
0
10
3.1952773536836632
20
0.029969908559568732
30
0
10
3.3961571236679156
20
-1.3776155961673794e-05
30
0
10
3.5971935326093969
20
-0.012337076764923398
30
0
10
3.7981937436236288
20
-0.0076462207975461858
30
0
10
3.9989971517703666
20
0.011343078022247651
30
0
10
4.1995189126450647
20
0.040301078758683891
30
0
10
4.3997939325570306
20
0.07373044403500259
30
0
10
4.5999345512959486
20
0.10580044849184903
30
0
10
4.8000879332797002
20
0.1311818516508047
30
0
10
5.0003937177453119
20
0.14588184870622917
30
0
10
5.2009415243827632
20
0.14808318791645436
30
0
10
5.4017285493192349
20
0.13898427587608658
30
0
10
5.6026894851600071
20
0.12199153632832659
30
0
10
5.8037262514016783
20
0.10191935297470796
30
0
10
6.004737522234123
20
0.084192450255510115
30
0
10
6.2056486686006318
20
0.074048179276310619
30
0
10
6.406440559226942
20
0.075743471438731044
30
0
10
6.6071245238328995
20
0.092061200810506033
30
0
10
6.8077183261687981
20
0.12380091222850739
30
0
10
7.0082221182899564
20
0.16928245221208188
30
0
10
7.2085936357943119
20
0.22380860619389992
30
0
10
7.4087256992240045
20
0.27921710391815624
30
0
10
7.6084864556179959
20
0.3258455470105136
30
0
10
7.8077575184400336
20
0.35441594200874327
30
0
10
8.0064726003896176
20
0.35793473210293331
30
0
10
8.2046567887566386
20
0.33362495942747844
30
0
10
8.4024637479870705
20
0.28476158257034029
30
0
10
8.6001319612812956
20
0.21877457064077718
30
0
10
8.797943486998582
20
0.14546803877994824
30
0
10
8.9961817972656242
20
0.075198816831355444
30
0
10
9.1950903369249097
20
0.017087695951243917
30
0
10
9.3948298788889275
20
-0.022818654744637231
30
0
10
9.5954950567946931
20
-0.040940732977173655
30
0
10
9.7568043931808575
20
-0.03660757584766304
30
0
10
9.8782298525405583
20
-0.022516933223773631
30
0
10
9.9593771234401487
20
-0.0083081469615718506
30
0
10
10
20
0
30
0
0
SPLINE
5
104
100
AcDbEntity
8
0
100
AcDbSpline
70
4
71
5
72
61
73
55
74
0
42
0.000000001
43
0.0000000001
44
0.0000000001
40
0
40
0
40
0
40
0
40
0
40
0
40
0.02
40
0.040000000000000001
40
0.059999999999999998
40
0.080000000000000002
40
0.10000000000000001
40
0.12000000000000001
40
0.14000000000000001
40
0.16
40
0.17999999999999999
40
0.19999999999999998
40
0.21999999999999997
40
0.23999999999999996
40
0.25999999999999995
40
0.27999999999999997
40
0.29999999999999999
40
0.32000000000000001
40
0.34000000000000002
40
0.36000000000000004
40
0.38000000000000006
40
0.40000000000000008
40
0.4200000000000001
40
0.44000000000000011
40
0.46000000000000013
40
0.48000000000000015
40
0.50000000000000011
40
0.52000000000000013
40
0.54000000000000015
40
0.56000000000000016
40
0.58000000000000018
40
0.6000000000000002
40
0.62000000000000022
40
0.64000000000000024
40
0.66000000000000025
40
0.68000000000000027
40
0.70000000000000029
40
0.72000000000000031
40
0.74000000000000032
40
0.76000000000000034
40
0.78000000000000036
40
0.80000000000000038
40
0.8200000000000004
40
0.84000000000000041
40
0.86000000000000043
40
0.88000000000000045
40
0.90000000000000047
40
0.92000000000000048
40
0.9400000000000005
40
0.96000000000000052
40
0.98000000000000054
40
1
40
1
40
1
40
1
40
1
40
1
41
1
41
1
41
1
41
1
41
1
41
1
41
1
41
1
41
1
41
1
41
1
41
1
41
1
41
1
41
1
41
1
41
1
41
1
41
1
41
1
41
1
41
1
41
1
41
1
41
1
41
1
41
1
41
1
41
1
41
1
41
1
41
1
41
1
41
1
41
1
41
1
41
1
41
1
41
1
41
1
41
1
41
1
41
1
41
1
41
1
41
1
41
1
41
1
41
1
41
1
41
1
41
1
41
1
41
1
41
1
10
0
20
3
30
0
10
0.040146781245199499
20
2.9972064436294636
30
0
10
0.12045666214963764
20
2.9908535130817908
30
0
10
0.24097043889227893
20
2.9790266429434369
30
0
10
0.40175344786111578
20
2.9586597200540181
30
0
10
0.60289343457008537
20
2.9259023584156396
30
0
10
0.80418778761752518
20
2.8869731844772151
30
0
10
1.0056223315915123
20
2.8441449936154566
30
0
10
1.2071728836885436
20
2.8012441046012739
30
0
10
1.4088029467079752
20
2.7640024460335728
30
0
10
1.610475199739922
20
2.7383598314999498
30
0
10
1.8121628724420917
20
2.728792050163702
30
0
10
2.01386073813334
20
2.7366749927710323
30
0
10
2.2155973433442941
20
2.7585132804570018
30
0
10
2.4174439094398528
20
2.7845315701945421
30
0
10
2.6194755769309785
20
2.802574598216693
30
0
10
2.8217344947290623
20
2.8017752196268919
30
0
10
3.0241939241274638
20
2.7761570187372699
30
0
10
3.2267176092415424
20
2.7286339464772351
30
0
10
3.4290328673484014
20
2.673825376960643
30
0
10
3.6308129048261311
20
2.6314225250454077
30
0
10
3.8317503211161963
20
2.6203123156151991
30
0
10
4.031630800314943
20
2.6527034771462117
30
0
10
4.2304144186803168
20
2.7275583918580004
30
0
10
4.4282919849695563
20
2.8262989962157592
30
0
10
4.6255927948286244
20
2.9219245588803955
30
0
10
4.8227097056687427
20
2.9866237739296113
30
0
10
5.020019181527557
20
2.9997359364686034
30
0
10
5.2178001893318946
20
2.9561027940810631
30
0
10
5.4161629628219803
20
2.8727770117628006
30
0
10
5.6150863830158055
20
2.7787983838200532
30
0
10
5.814445982039004
20
2.7063139685867417
30
0
10
6.014045302390052
20
2.6813629362620168
30
0
10
6.2136453993895771
20
2.7144159389008364
30
0
10
6.4129955227510997
20
2.7920582185901051
30
0
10
6.6118717820254824
20
2.8869382733809235
30
0
10
6.8101157721779328
20
2.9666430948599491
30
0
10
7.0076728312331475
20
3.002882609029021
30
0
10
7.2046319689263916
20
2.9807252066541139
30
0
10
7.4012619713015919
20
2.907340381436454
30
0
10
7.5979311690612708
20
2.8040855417977388
30
0
10
7.795031521845722
20
2.6992066611754426
30
0
10
7.9929006525833941
20
2.6202855139004266
30
0
10
8.1917459282176583
20
2.5869080836886309
30
0
10
8.3915638705537479
20
2.6029238879249341
30
0
10
8.5921970410915822
20
2.6605025019354271
30
0
10
8.7933949118321166
20
2.7445342531637511
30
0
10
8.994873192984512
20
2.836897694980566
30
0
10
9.1963731249288028
20
2.9207334500039361
30
0
10
9.3977222413540371
20
2.9848167539789632
30
0
10
9.5988179574019021
20
3.0224882815737066
30
0
10
9.7594511208549797
20
3.0288660679936426
30
0
10
9.8797816565138472
20
3.0198111780064356
30
0
10
9.9599379037434286
20
3.007628129897491
30
0
10
10
20
3
30
0
0
ENDSEC
0
SECTION
2
OBJECTS
0
DICTIONARY
5
C
100
AcDbDictionary
3
ACAD_GROUP
350
D
3
ACAD_MLINESTYLE
350
17
0
DICTIONARY
5
D
100
AcDbDictionary
0
DICTIONARY
5
1A
330
C
100
AcDbDictionary
0
DICTIONARY
5
17
100
AcDbDictionary
0
ENDSEC
0
EOF
