0
SECTION
2
HEADER
9
$INSUNITS
70
4
9
$ACADVER
1
AC1014
9
$HANDSEED
5
FFFF
0
ENDSEC
0
SECTION
2
TABLES
0
TABLE
2
VPORT
5
8
100
AcDbSymbolTable
0
ENDTAB
0
TABLE
2
LTYPE
5
5
100
AcDbSymbolTable
0
LTYPE
5
14
100
AcDbSymbolTableRecord
100
AcDbLinetypeTableRecord
2
BYBLOCK
70
0
0
LTYPE
5
15
100
AcDbSymbolTableRecord
100
AcDbLinetypeTableRecord
2
BYLAYER
70
0
0
ENDTAB
0
TABLE
2
LAYER
5
2
100
AcDbSymbolTable
70
2
0
LAYER
5
50
100
AcDbSymbolTableRecord
100
AcDbLayerTableRecord
2
0
70
0
6
CONTINUOUS
0
ENDTAB
0
TABLE
2
STYLE
5
3
100
AcDbSymbolTable
70
1
0
STYLE
5
11
100
AcDbSymbolTableRecord
100
AcDbTextStyleTableRecord
2
STANDARD
70
0
0
ENDTAB
0
TABLE
2
VIEW
5
6
100
AcDbSymbolTable
70
0
0
ENDTAB
0
TABLE
2
UCS
5
7
100
AcDbSymbolTable
70
0
0
ENDTAB
0
TABLE
2
APPID
5
9
100
AcDbSymbolTable
70
2
0
APPID
5
12
100
AcDbSymbolTableRecord
100
AcDbRegAppTableRecord
2
ACAD
70
0
0
ENDTAB
0
TABLE
2
DIMSTYLE
5
A
100
AcDbSymbolTable
70
1
0
ENDTAB
0
TABLE
2
BLOCK_RECORD
5
1
100
AcDbSymbolTable
70
1
0
BLOCK_RECORD
5
1F
100
AcDbSymbolTableRecord
100
AcDbBlockTableRecord
2
*MODEL_SPACE
0
BLOCK_RECORD
5
1B
100
AcDbSymbolTableRecord
100
AcDbBlockTableRecord
2
*PAPER_SPACE
0
ENDTAB
0
ENDSEC
0
SECTION
2
BLOCKS
0
BLOCK
5
20
100
AcDbEntity
100
AcDbBlockBegin
2
*MODEL_SPACE
0
ENDBLK
5
21
100
AcDbEntity
100
AcDbBlockEnd
0
BLOCK
5
1C
100
AcDbEntity
100
AcDbBlockBegin
2
*PAPER_SPACE
0
ENDBLK
5
1D
100
AcDbEntity
100
AcDbBlockEnd
0
ENDSEC
0
SECTION
2
ENTITIES
0
SPLINE
5
100
100
AcDbEntity
8
0
100
AcDbSpline
70
4
71
5
72
16
73
10
74
0
42
0.000000001
43
0.0000000001
44
0.0000000001
40
0
40
0
40
0
40
0
40
0
40
0
40
0.20000000000000001
40
0.40000000000000002
40
0.60000000000000009
40
0.80000000000000004
40
1
40
1
40
1
40
1
40
1
40
1
41
1
41
1
41
1
41
1
41
1
41
1
41
1
41
1
41
1
41
1
10
0
20
0
30
0
10
0
20
0.12000000000003158
30
0
10
0
20
0.36000000000007704
30
0
10
0
20
0.72000000000009301
30
0
10
0
20
1.2000000000000313
30
0
10
0
20
1.7999999999999146
30
0
10
0
20
2.2799999999998684
30
0
10
0
20
2.6399999999999042
30
0
10
0
20
2.8799999999999617
30
0
10
0
20
3
30
0
0
SPLINE
5
101
100
AcDbEntity
8
0
100
AcDbSpline
70
4
71
5
72
16
73
10
74
0
42
0.000000001
43
0.0000000001
44
0.0000000001
40
0
40
0
40
0
40
0
40
0
40
0
40
0.20000000000000001
40
0.40000000000000002
40
0.60000000000000009
40
0.80000000000000004
40
1
40
1
40
1
40
1
40
1
40
1
41
1
41
1
41
1
41
1
41
1
41
1
41
1
41
1
41
1
41
1
10
10
20
0
30
0
10
9.9999999999997495
20
0.12000000000003158
30
0
10
9.9999999999993197
20
0.36000000000007704
30
0
10
9.9999999999989129
20
0.72000000000009301
30
0
10
9.9999999999987672
20
1.2000000000000313
30
0
10
9.9999999999990248
20
1.7999999999999146
30
0
10
9.9999999999993889
20
2.2799999999998684
30
0
10
9.9999999999996998
20
2.6399999999999042
30
0
10
9.9999999999999005
20
2.8799999999999617
30
0
10
10
20
3
30
0
0
SPLINE
5
102
100
AcDbEntity
8
0
100
AcDbSpline
70
4
71
5
72
16
73
10
74
0
42
0.000000001
43
0.0000000001
44
0.0000000001
40
0
40
0
40
0
40
0
40
0
40
0
40
0.20000000000000001
40
0.40000000000000002
40
0.60000000000000009
40
0.80000000000000004
40
1
40
1
40
1
40
1
40
1
40
1
41
1
41
1
41
1
41
1
41
1
41
1
41
1
41
1
41
1
41
1
10
0
20
1.5
30
0
10
0.40000000000047375
20
1.499999999999694
30
0
10
1.2000000000012774
20
1.4999999999991638
30
0
10
2.4000000000020547
20
1.4999999999986278
30
0
10
4.0000000000023546
20
1.4999999999983737
30
0
10
6.0000000000019584
20
1.4999999999985913
30
0
10
7.6000000000012928
20
1.4999999999990359
30
0
10
8.800000000000697
20
1.4999999999994786
30
0
10
9.6000000000002395
20
1.4999999999998188
30
0
10
10
20
1.5
30
0
0
SPLINE
5
103
100
AcDbEntity
8
0
100
AcDbSpline
70
4
71
5
72
61
73
55
74
0
42
0.000000001
43
0.0000000001
44
0.0000000001
40
0
40
0
40
0
40
0
40
0
40
0
40
0.02
40
0.040000000000000001
40
0.059999999999999998
40
0.080000000000000002
40
0.10000000000000001
40
0.12000000000000001
40
0.14000000000000001
40
0.16
40
0.17999999999999999
40
0.19999999999999998
40
0.21999999999999997
40
0.23999999999999996
40
0.25999999999999995
40
0.27999999999999997
40
0.29999999999999999
40
0.32000000000000001
40
0.34000000000000002
40
0.36000000000000004
40
0.38000000000000006
40
0.40000000000000008
40
0.4200000000000001
40
0.44000000000000011
40
0.46000000000000013
40
0.48000000000000015
40
0.50000000000000011
40
0.52000000000000013
40
0.54000000000000015
40
0.56000000000000016
40
0.58000000000000018
40
0.6000000000000002
40
0.62000000000000022
40
0.64000000000000024
40
0.66000000000000025
40
0.68000000000000027
40
0.70000000000000029
40
0.72000000000000031
40
0.74000000000000032
40
0.76000000000000034
40
0.78000000000000036
40
0.80000000000000038
40
0.8200000000000004
40
0.84000000000000041
40
0.86000000000000043
40
0.88000000000000045
40
0.90000000000000047
40
0.92000000000000048
40
0.9400000000000005
40
0.96000000000000052
40
0.98000000000000054
40
1
40
1
40
1
40
1
40
1
40
1
41
1
41
1
41
1
41
1
41
1
41
1
41
1
41
1
41
1
41
1
41
1
41
1
41
1
41
1
41
1
41
1
41
1
41
1
41
1
41
1
41
1
41
1
41
1
41
1
41
1
41
1
41
1
41
1
41
1
41
1
41
1
41
1
41
1
41
1
41
1
41
1
41
1
41
1
41
1
41
1
41
1
41
1
41
1
41
1
41
1
41
1
41
1
41
1
41
1
41
1
41
1
41
1
41
1
41
1
41
1
10
0
20
0
30
0
10
0.04062106384090159
20
-0.01001037811911497
30
0
10
0.12182906990274944
20
-0.027736628110617795
30
0
10
0.24353871328831003
20
-0.047442412722983496
30
0
10
0.40561338033592687
20
-0.059941261018790284
30
0
10
0.60787264134488117
20
-0.053276657549808856
30
0
10
0.80982139177164503
20
-0.026440181723140999
30
0
10
1.0115075744751187
20
0.016283675671509956
30
0
10
1.2130126374413355
20
0.067638968895509077
30
0
10
1.4144583105661281
20
0.1167933114931226
30
0
10
1.6159721270503509
20
0.15223887519472498
30
0
10
1.8176542670435771
20
0.16457547467841308
30
0
10
2.0195451839569758
20
0.14923949211128831
30
0
10
2.2215896677749476
20
0.10950537492746588
30
0
10
2.4236110180320933
20
0.058709982487568639
30
0
10
2.6253866750275496
20
0.014612349356355952
30
0
10
2.8267175083069778
20
-0.0057334182819232873
30
0
10
3.0274961250714663
20
0.0089269135320997599
30
0
10
3.2277837611161537
20
0.05840025087039033
30
0
10
3.4278606708603752
20
0.1271455024569412
30
0
10
3.6280943817482725
20
0.19243984811050474
30
0
10
3.8288248210653393
20
0.23141538596653405
30
0
10
4.0302481494404807
20
0.22819703995796697
30
0
10
4.2322886987297945
20
0.18177750158730571
30
0
10
4.4345111092603853
20
0.11135655702889383
30
0
10
4.6362835422728441
20
0.045951331550292303
30
0
10
4.8369138513962042
20
0.015625406891151838
30
0
10
5.0357912806833198
20
0.042538506740877814
30
0
10
5.2325368713870315
20
0.1310342628155623
30
0
10
5.4271179182732601
20
0.2611670370343267
30
0
10
5.6197725227225757
20
0.39999496658676442
30
0
10
5.8109599404435786
20
0.51050140827611112
30
0
10
6.0013016232312104
20
0.56140910686891266
30
0
10
6.1915266962485482
20
0.53664759151716745
30
0
10
6.3824160466791167
20
0.44493211684686174
30
0
10
6.5747121388592173
20
0.31114058116443344
30
0
10
6.7690307166858847
20
0.16798640945967278
30
0
10
6.965767407669782
20
0.047367125923031175
30
0
10
7.1650153113303583
20
-0.027592417360009534
30
0
10
7.3664523599146712
20
-0.052260241291871276
30
0
10
7.5694614383355479
20
-0.036513462722593287
30
0
10
7.7732928647721273
20
0.0017786094103088854
30
0
10
7.9772145863962223
20
0.042469524862487659
30
0
10
8.1806608007009789
20
0.068940523541240459
30
0
10
8.3833992239489277
20
0.074497649702479782
30
0
10
8.5854632369131405
20
0.060444954871028425
30
0
10
8.7870567051407669
20
0.033170650085535637
30
0
10
8.9884684005743267
20
0.0015816995968338016
30
0
10
9.1899842897359676
20
-0.025550762113929513
30
0
10
9.391796492306316
20
-0.042336457861953739
30
0
10
9.5940185362067911
20
-0.045296684128705592
30
0
10
9.756169087414861
20
-0.035225785780374205
30
0
10
9.8779998675534344
20
-0.02042841203762058
30
0
10
9.9593171606031419
20
-0.0073457536079618501
30
0
10
10
20
0
30
0
0
SPLINE
5
104
100
AcDbEntity
8
0
100
AcDbSpline
70
4
71
5
72
61
73
55
74
0
42
0.000000001
43
0.0000000001
44
0.0000000001
40
0
40
0
40
0
40
0
40
0
40
0
40
0.02
40
0.040000000000000001
40
0.059999999999999998
40
0.080000000000000002
40
0.10000000000000001
40
0.12000000000000001
40
0.14000000000000001
40
0.16
40
0.17999999999999999
40
0.19999999999999998
40
0.21999999999999997
40
0.23999999999999996
40
0.25999999999999995
40
0.27999999999999997
40
0.29999999999999999
40
0.32000000000000001
40
0.34000000000000002
40
0.36000000000000004
40
0.38000000000000006
40
0.40000000000000008
40
0.4200000000000001
40
0.44000000000000011
40
0.46000000000000013
40
0.48000000000000015
40
0.50000000000000011
40
0.52000000000000013
40
0.54000000000000015
40
0.56000000000000016
40
0.58000000000000018
40
0.6000000000000002
40
0.62000000000000022
40
0.64000000000000024
40
0.66000000000000025
40
0.68000000000000027
40
0.70000000000000029
40
0.72000000000000031
40
0.74000000000000032
40
0.76000000000000034
40
0.78000000000000036
40
0.80000000000000038
40
0.8200000000000004
40
0.84000000000000041
40
0.86000000000000043
40
0.88000000000000045
40
0.90000000000000047
40
0.92000000000000048
40
0.9400000000000005
40
0.96000000000000052
40
0.98000000000000054
40
1
40
1
40
1
40
1
40
1
40
1
41
1
41
1
41
1
41
1
41
1
41
1
41
1
41
1
41
1
41
1
41
1
41
1
41
1
41
1
41
1
41
1
41
1
41
1
41
1
41
1
41
1
41
1
41
1
41
1
41
1
41
1
41
1
41
1
41
1
41
1
41
1
41
1
41
1
41
1
41
1
41
1
41
1
41
1
41
1
41
1
41
1
41
1
41
1
41
1
41
1
41
1
41
1
41
1
41
1
41
1
41
1
41
1
41
1
41
1
41
1
10
0
20
3
30
0
10
0.040230751157473023
20
2.9966853729138343
30
0
10
0.12072437428817831
20
2.9900029817440394
30
0
10
0.24156117233022581
20
2.9798199650548756
30
0
10
0.40286974754787658
20
2.9659237053329535
30
0
10
0.60481705925050755
20
2.9481503622948271
30
0
10
0.80704509152746384
20
2.9303648667159403
30
0
10
1.0094913414462636
20
2.9133459090514364
30
0
10
1.2120500857768637
20
2.8984061015422204
30
0
10
1.4145632449048766
20
2.8874860070915007
30
0
10
1.61686306032143
20
2.8821941192004341
30
0
10
1.818813676899119
20
2.8828611720651631
30
0
10
2.0203512090728957
20
2.8876401547726922
30
0
10
2.2215292347911251
20
2.8914563110761469
30
0
10
2.4225490810893606
20
2.8853711376041073
30
0
10
2.6236454183990503
20
2.8598747303837602
30
0
10
2.8249808256383919
20
2.8079359590772817
30
0
10
3.02654246019436
20
2.7279961505334045
30
0
10
3.228024275464958
20
2.6273584814927862
30
0
10
3.4287530828469319
20
2.5243845702606298
30
0
10
3.6279308766677172
20
2.4420600938759187
30
0
10
3.8248475416265131
20
2.4023799493320523
30
0
10
4.0190989718208616
20
2.420569003452917
30
0
10
4.2108178062316473
20
2.4990093189753142
30
0
10
4.4008591515679392
20
2.6222667318696695
30
0
10
4.5904801007299225
20
2.7645204773077521
30
0
10
4.7810631951661096
20
2.8959238455674434
30
0
10
4.9738162840585192
20
2.9895180041476981
30
0
10
5.1694992276144234
20
3.0275405511002127
30
0
10
5.3680927759420953
20
3.0090026133930694
30
0
10
5.5689977712967877
20
2.9456723514835454
30
0
10
5.7713039148633705
20
2.8565308416992332
30
0
10
5.9740381903368274
20
2.7626919809355082
30
0
10
6.1764094638420408
20
2.6823624883838009
30
0
10
6.3780866842530459
20
2.6251865780109016
30
0
10
6.5791015255762524
20
2.5936428798251705
30
0
10
6.7797002807826399
20
2.5854042163057418
30
0
10
6.9802123114212229
20
2.5953671191619865
30
0
10
7.1809167432856311
20
2.6177499500519561
30
0
10
7.3818968833466556
20
2.6483190882092589
30
0
10
7.5830890313547661
20
2.6841999493278088
30
0
10
7.7843509130353432
20
2.7234352864537796
30
0
10
7.9855235640057955
20
2.7646333785130377
30
0
10
8.1864940919932998
20
2.8065891527973061
30
0
10
8.3872629499681892
20
2.847893059409814
30
0
10
8.5879161738790835
20
2.8870233712795073
30
0
10
8.7885908526193273
20
2.9224757528850316
30
0
10
8.9894429718138689
20
2.9528803462234183
30
0
10
9.1906149152446339
20
2.9771217467030375
30
0
10
9.3922015207776752
20
2.9944659719602424
30
0
10
9.5942585165198846
20
3.0044867367048651
30
0
10
9.7563021830314351
20
3.0064828113650472
30
0
10
9.8780626072474913
20
3.0045675593522865
30
0
10
9.9593373483434995
20
3.0017751201365424
30
0
10
10
20
3
30
0
0
ENDSEC
0
SECTION
2
OBJECTS
0
DICTIONARY
5
C
100
AcDbDictionary
3
ACAD_GROUP
350
D
3
ACAD_MLINESTYLE
350
17
0
DICTIONARY
5
D
100
AcDbDictionary
0
DICTIONARY
5
1A
330
C
100
AcDbDictionary
0
DICTIONARY
5
17
100
AcDbDictionary
0
ENDSEC
0
EOF
