0
SECTION
2
HEADER
9
$INSUNITS
70
4
9
$ACADVER
1
AC1014
9
$HANDSEED
5
FFFF
0
ENDSEC
0
SECTION
2
TABLES
0
TABLE
2
VPORT
5
8
100
AcDbSymbolTable
0
ENDTAB
0
TABLE
2
LTYPE
5
5
100
AcDbSymbolTable
0
LTYPE
5
14
100
AcDbSymbolTableRecord
100
AcDbLinetypeTableRecord
2
BYBLOCK
70
0
0
LTYPE
5
15
100
AcDbSymbolTableRecord
100
AcDbLinetypeTableRecord
2
BYLAYER
70
0
0
ENDTAB
0
TABLE
2
LAYER
5
2
100
AcDbSymbolTable
70
2
0
LAYER
5
50
100
AcDbSymbolTableRecord
100
AcDbLayerTableRecord
2
0
70
0
6
CONTINUOUS
0
ENDTAB
0
TABLE
2
STYLE
5
3
100
AcDbSymbolTable
70
1
0
STYLE
5
11
100
AcDbSymbolTableRecord
100
AcDbTextStyleTableRecord
2
STANDARD
70
0
0
ENDTAB
0
TABLE
2
VIEW
5
6
100
AcDbSymbolTable
70
0
0
ENDTAB
0
TABLE
2
UCS
5
7
100
AcDbSymbolTable
70
0
0
ENDTAB
0
TABLE
2
APPID
5
9
100
AcDbSymbolTable
70
2
0
APPID
5
12
100
AcDbSymbolTableRecord
100
AcDbRegAppTableRecord
2
ACAD
70
0
0
ENDTAB
0
TABLE
2
DIMSTYLE
5
A
100
AcDbSymbolTable
70
1
0
ENDTAB
0
TABLE
2
BLOCK_RECORD
5
1
100
AcDbSymbolTable
70
1
0
BLOCK_RECORD
5
1F
100
AcDbSymbolTableRecord
100
AcDbBlockTableRecord
2
*MODEL_SPACE
0
BLOCK_RECORD
5
1B
100
AcDbSymbolTableRecord
100
AcDbBlockTableRecord
2
*PAPER_SPACE
0
ENDTAB
0
ENDSEC
0
SECTION
2
BLOCKS
0
BLOCK
5
20
100
AcDbEntity
100
AcDbBlockBegin
2
*MODEL_SPACE
0
ENDBLK
5
21
100
AcDbEntity
100
AcDbBlockEnd
0
BLOCK
5
1C
100
AcDbEntity
100
AcDbBlockBegin
2
*PAPER_SPACE
0
ENDBLK
5
1D
100
AcDbEntity
100
AcDbBlockEnd
0
ENDSEC
0
SECTION
2
ENTITIES
0
SPLINE
5
100
100
AcDbEntity
8
0
100
AcDbSpline
70
4
71
5
72
16
73
10
74
0
42
0.000000001
43
0.0000000001
44
0.0000000001
40
0
40
0
40
0
40
0
40
0
40
0
40
0.20000000000000001
40
0.40000000000000002
40
0.60000000000000009
40
0.80000000000000004
40
1
40
1
40
1
40
1
40
1
40
1
41
1
41
1
41
1
41
1
41
1
41
1
41
1
41
1
41
1
41
1
10
0
20
0
30
0
10
0
20
0.12000000000003158
30
0
10
0
20
0.36000000000007704
30
0
10
0
20
0.72000000000009301
30
0
10
0
20
1.2000000000000313
30
0
10
0
20
1.7999999999999146
30
0
10
0
20
2.2799999999998684
30
0
10
0
20
2.6399999999999042
30
0
10
0
20
2.8799999999999617
30
0
10
0
20
3
30
0
0
SPLINE
5
101
100
AcDbEntity
8
0
100
AcDbSpline
70
4
71
5
72
16
73
10
74
0
42
0.000000001
43
0.0000000001
44
0.0000000001
40
0
40
0
40
0
40
0
40
0
40
0
40
0.20000000000000001
40
0.40000000000000002
40
0.60000000000000009
40
0.80000000000000004
40
1
40
1
40
1
40
1
40
1
40
1
41
1
41
1
41
1
41
1
41
1
41
1
41
1
41
1
41
1
41
1
10
10
20
0
30
0
10
9.9999999999997495
20
0.12000000000003158
30
0
10
9.9999999999993197
20
0.36000000000007704
30
0
10
9.9999999999989129
20
0.72000000000009301
30
0
10
9.9999999999987672
20
1.2000000000000313
30
0
10
9.9999999999990248
20
1.7999999999999146
30
0
10
9.9999999999993889
20
2.2799999999998684
30
0
10
9.9999999999996998
20
2.6399999999999042
30
0
10
9.9999999999999005
20
2.8799999999999617
30
0
10
10
20
3
30
0
0
SPLINE
5
102
100
AcDbEntity
8
0
100
AcDbSpline
70
4
71
5
72
16
73
10
74
0
42
0.000000001
43
0.0000000001
44
0.0000000001
40
0
40
0
40
0
40
0
40
0
40
0
40
0.20000000000000001
40
0.40000000000000002
40
0.60000000000000009
40
0.80000000000000004
40
1
40
1
40
1
40
1
40
1
40
1
41
1
41
1
41
1
41
1
41
1
41
1
41
1
41
1
41
1
41
1
10
0
20
1.5
30
0
10
0.40000000000047375
20
1.499999999999694
30
0
10
1.2000000000012774
20
1.4999999999991638
30
0
10
2.4000000000020547
20
1.4999999999986278
30
0
10
4.0000000000023546
20
1.4999999999983737
30
0
10
6.0000000000019584
20
1.4999999999985913
30
0
10
7.6000000000012928
20
1.4999999999990359
30
0
10
8.800000000000697
20
1.4999999999994786
30
0
10
9.6000000000002395
20
1.4999999999998188
30
0
10
10
20
1.5
30
0
0
SPLINE
5
103
100
AcDbEntity
8
0
100
AcDbSpline
70
4
71
5
72
61
73
55
74
0
42
0.000000001
43
0.0000000001
44
0.0000000001
40
0
40
0
40
0
40
0
40
0
40
0
40
0.02
40
0.040000000000000001
40
0.059999999999999998
40
0.080000000000000002
40
0.10000000000000001
40
0.12000000000000001
40
0.14000000000000001
40
0.16
40
0.17999999999999999
40
0.19999999999999998
40
0.21999999999999997
40
0.23999999999999996
40
0.25999999999999995
40
0.27999999999999997
40
0.29999999999999999
40
0.32000000000000001
40
0.34000000000000002
40
0.36000000000000004
40
0.38000000000000006
40
0.40000000000000008
40
0.4200000000000001
40
0.44000000000000011
40
0.46000000000000013
40
0.48000000000000015
40
0.50000000000000011
40
0.52000000000000013
40
0.54000000000000015
40
0.56000000000000016
40
0.58000000000000018
40
0.6000000000000002
40
0.62000000000000022
40
0.64000000000000024
40
0.66000000000000025
40
0.68000000000000027
40
0.70000000000000029
40
0.72000000000000031
40
0.74000000000000032
40
0.76000000000000034
40
0.78000000000000036
40
0.80000000000000038
40
0.8200000000000004
40
0.84000000000000041
40
0.86000000000000043
40
0.88000000000000045
40
0.90000000000000047
40
0.92000000000000048
40
0.9400000000000005
40
0.96000000000000052
40
0.98000000000000054
40
1
40
1
40
1
40
1
40
1
40
1
41
1
41
1
41
1
41
1
41
1
41
1
41
1
41
1
41
1
41
1
41
1
41
1
41
1
41
1
41
1
41
1
41
1
41
1
41
1
41
1
41
1
41
1
41
1
41
1
41
1
41
1
41
1
41
1
41
1
41
1
41
1
41
1
41
1
41
1
41
1
41
1
41
1
41
1
41
1
41
1
41
1
41
1
41
1
41
1
41
1
41
1
41
1
41
1
41
1
41
1
41
1
41
1
41
1
41
1
41
1
10
0
20
0
30
0
10
0.040022812124305931
20
-0.0001822531906590369
30
0
10
0.12005858433290899
20
0.00062225576716757106
30
0
10
0.2400826865270429
20
0.0053360628351017351
30
0
10
0.40005567202586717
20
0.018639817991885105
30
0
10
0.59992464980702054
20
0.046583004679997403
30
0
10
0.7997007549084213
20
0.084640424548945978
30
0
10
0.99939305162587289
20
0.13037582484439028
30
0
10
1.1990169301898381
20
0.17969365431844825
30
0
10
1.3985957640918971
20
0.22640720196789438
30
0
10
1.5981613372504064
20
0.26376530968735562
30
0
10
1.7977542671799669
20
0.28598027598038506
30
0
10
1.9974244883286416
20
0.28976334541992643
30
0
10
2.1972316548946482
20
0.27584841978859148
30
0
10
2.3972458227718825
20
0.25057143419397809
30
0
10
2.5975254489866013
20
0.2232609365967223
30
0
10
2.7980951274778465
20
0.20358769449053601
30
0
10
2.998923289148296
20
0.19892887369921958
30
0
10
3.1998998908739869
20
0.21172979062428521
30
0
10
3.4008135714065753
20
0.23683250867169586
30
0
10
3.6014138719088651
20
0.26451830891401995
30
0
10
3.8014738096590057
20
0.28356943659748962
30
0
10
4.0008522926046792
20
0.2843152428145137
30
0
10
4.1995569231685899
20
0.26169165992858806
30
0
10
4.3978066691049236
20
0.21829220678445366
30
0
10
4.5959424493736147
20
0.16185966694235024
30
0
10
4.7943387661903873
20
0.10281193022588977
30
0
10
4.9933144644683454
20
0.051751465518326621
30
0
10
5.1930452580339734
20
0.017014539555203011
30
0
10
5.3934711108005455
20
0.0021167662759128134
30
0
10
5.5943729931000385
20
0.0066546816475547338
30
0
10
5.7954543515101289
20
0.027304627257444217
30
0
10
5.9964208472720522
20
0.058777425069406967
30
0
10
6.1970601248698456
20
0.094783882195175667
30
0
10
6.3973234719719176
20
0.12899488964437275
30
0
10
6.5972796368616482
20
0.1557446097000845
30
0
10
6.7970667293106555
20
0.17072720769343755
30
0
10
6.9968449410571392
20
0.1717034673802923
30
0
10
7.1967492996862212
20
0.15919916587059837
30
0
10
7.3968416258032512
20
0.13724057139499052
30
0
10
7.5971269658115039
20
0.1118728569820952
30
0
10
7.7975708542181001
20
0.089652381726174457
30
0
10
7.9981161650523616
20
0.076148226391127741
30
0
10
8.1987000098957932
20
0.074445100495374658
30
0
10
8.3992707084433871
20
0.083620975880255022
30
0
10
8.5997868147638492
20
0.09990272978905898
30
0
10
8.800215999206296
20
0.11783943865711742
30
0
10
9.0005340106495346
20
0.13146312036161042
30
0
10
9.2007236303588744
20
0.13545335297687258
30
0
10
9.4007736524003143
20
0.12629823205672447
30
0
10
9.6006776015782904
20
0.1019194249160924
30
0
10
9.7604814932004373
20
0.069426691771699536
30
0
10
9.8802669605884521
20
0.0376082483277521
30
0
10
9.960093980003748
20
0.013087492893957017
30
0
10
10
20
0
30
0
0
SPLINE
5
104
100
AcDbEntity
8
0
100
AcDbSpline
70
4
71
5
72
61
73
55
74
0
42
0.000000001
43
0.0000000001
44
0.0000000001
40
0
40
0
40
0
40
0
40
0
40
0
40
0.02
40
0.040000000000000001
40
0.059999999999999998
40
0.080000000000000002
40
0.10000000000000001
40
0.12000000000000001
40
0.14000000000000001
40
0.16
40
0.17999999999999999
40
0.19999999999999998
40
0.21999999999999997
40
0.23999999999999996
40
0.25999999999999995
40
0.27999999999999997
40
0.29999999999999999
40
0.32000000000000001
40
0.34000000000000002
40
0.36000000000000004
40
0.38000000000000006
40
0.40000000000000008
40
0.4200000000000001
40
0.44000000000000011
40
0.46000000000000013
40
0.48000000000000015
40
0.50000000000000011
40
0.52000000000000013
40
0.54000000000000015
40
0.56000000000000016
40
0.58000000000000018
40
0.6000000000000002
40
0.62000000000000022
40
0.64000000000000024
40
0.66000000000000025
40
0.68000000000000027
40
0.70000000000000029
40
0.72000000000000031
40
0.74000000000000032
40
0.76000000000000034
40
0.78000000000000036
40
0.80000000000000038
40
0.8200000000000004
40
0.84000000000000041
40
0.86000000000000043
40
0.88000000000000045
40
0.90000000000000047
40
0.92000000000000048
40
0.9400000000000005
40
0.96000000000000052
40
0.98000000000000054
40
1
40
1
40
1
40
1
40
1
40
1
41
1
41
1
41
1
41
1
41
1
41
1
41
1
41
1
41
1
41
1
41
1
41
1
41
1
41
1
41
1
41
1
41
1
41
1
41
1
41
1
41
1
41
1
41
1
41
1
41
1
41
1
41
1
41
1
41
1
41
1
41
1
41
1
41
1
41
1
41
1
41
1
41
1
41
1
41
1
41
1
41
1
41
1
41
1
41
1
41
1
41
1
41
1
41
1
41
1
41
1
41
1
41
1
41
1
41
1
41
1
10
0
20
3
30
0
10
0.040264643333591685
20
3.00662056694933
30
0
10
0.12077071002207004
20
3.0176774206572157
30
0
10
0.24146015019753869
20
3.0277098434307126
30
0
10
0.4022399926316691
20
3.027972300477761
30
0
10
0.60298065877264972
20
3.0070536048156491
30
0
10
0.80348273004504478
20
2.9668082557586049
30
0
10
1.0037379937378084
20
2.9111401994769865
30
0
10
1.203733318878508
20
2.8466336579756342
30
0
10
1.4034497006764381
20
2.7832056771547222
30
0
10
1.6028737751204729
20
2.7318557945885664
30
0
10
1.8020091567179977
20
2.7024636712664045
30
0
10
2.0008878705491191
20
2.7015696019081941
30
0
10
2.1995818607378506
20
2.73014875152277
30
0
10
2.3982144663683238
20
2.7813892277772783
30
0
10
2.5969350029694471
20
2.8436014696214262
30
0
10
2.7958936017597957
20
2.9030913469324449
30
0
10
2.9952158508856215
20
2.9470508073139534
30
0
10
3.1949777470615008
20
2.9664137904134509
30
0
10
3.3951796222760784
20
2.9588103554088563
30
0
10
3.5957641642392013
20
2.9271898613117515
30
0
10
3.7966352586484442
20
2.8783612435743269
30
0
10
3.9976764300523371
20
2.8215755165977048
30
0
10
4.198769305809857
20
2.7670995369728231
30
0
10
4.3998122256541503
20
2.7247961755608214
30
0
10
4.6007175472732769
20
2.7028554279486441
30
0
10
4.8014087346041148
20
2.7065223820346525
30
0
10
5.0018175816410686
20
2.7368235438235455
30
0
10
5.2018813643313475
20
2.7892716535365918
30
0
10
5.4015401758104193
20
2.8525949767967358
30
0
10
5.6007547387693348
20
2.9121570386732536
30
0
10
5.7995240604345319
20
2.9533282460237169
30
0
10
5.9979033461668738
20
2.9648826131251842
30
0
10
6.196021730140755
20
2.9423686775802711
30
0
10
6.3941009046593376
20
2.891569013065014
30
0
10
6.5924037384980396
20
2.8248456469147607
30
0
10
6.7911825829836312
20
2.7574453508777399
30
0
10
6.9906271116407552
20
2.7037978961065989
30
0
10
7.1908135631682066
20
2.6738934300354247
30
0
10
7.391649426318442
20
2.6694118043780812
30
0
10
7.5929286955255293
20
2.6860312792250332
30
0
10
7.7943916443779413
20
2.7159929323430818
30
0
10
7.9957829770468658
20
2.7505688834784614
30
0
10
8.1969101014727812
20
2.7825458163527719
30
0
10
8.3977029044247615
20
2.8087592579620502
30
0
10
8.598183105148177
20
2.8291206281783987
30
0
10
8.7984319683287087
20
2.8455783853816263
30
0
10
8.998558782150516
20
2.8611089346671008
30
0
10
9.1986692002621062
20
2.8787011545283523
30
0
10
9.3988334511723473
20
2.9003379525240911
30
0
10
9.5990933833721002
20
2.9271967591169146
30
0
10
9.7593944624112847
20
2.9533251821027577
30
0
10
9.8796756924774947
20
2.9756155710992371
30
0
10
9.9598877948870363
20
2.9916724249613131
30
0
10
10
20
3
30
0
0
ENDSEC
0
SECTION
2
OBJECTS
0
DICTIONARY
5
C
100
AcDbDictionary
3
ACAD_GROUP
350
D
3
ACAD_MLINESTYLE
350
17
0
DICTIONARY
5
D
100
AcDbDictionary
0
DICTIONARY
5
1A
330
C
100
AcDbDictionary
0
DICTIONARY
5
17
100
AcDbDictionary
0
ENDSEC
0
EOF
