0
SECTION
2
HEADER
9
$INSUNITS
70
4
9
$ACADVER
1
AC1014
9
$HANDSEED
5
FFFF
0
ENDSEC
0
SECTION
2
TABLES
0
TABLE
2
VPORT
5
8
100
AcDbSymbolTable
0
ENDTAB
0
TABLE
2
LTYPE
5
5
100
AcDbSymbolTable
0
LTYPE
5
14
100
AcDbSymbolTableRecord
100
AcDbLinetypeTableRecord
2
BYBLOCK
70
0
0
LTYPE
5
15
100
AcDbSymbolTableRecord
100
AcDbLinetypeTableRecord
2
BYLAYER
70
0
0
ENDTAB
0
TABLE
2
LAYER
5
2
100
AcDbSymbolTable
70
2
0
LAYER
5
50
100
AcDbSymbolTableRecord
100
AcDbLayerTableRecord
2
0
70
0
6
CONTINUOUS
0
ENDTAB
0
TABLE
2
STYLE
5
3
100
AcDbSymbolTable
70
1
0
STYLE
5
11
100
AcDbSymbolTableRecord
100
AcDbTextStyleTableRecord
2
STANDARD
70
0
0
ENDTAB
0
TABLE
2
VIEW
5
6
100
AcDbSymbolTable
70
0
0
ENDTAB
0
TABLE
2
UCS
5
7
100
AcDbSymbolTable
70
0
0
ENDTAB
0
TABLE
2
APPID
5
9
100
AcDbSymbolTable
70
2
0
APPID
5
12
100
AcDbSymbolTableRecord
100
AcDbRegAppTableRecord
2
ACAD
70
0
0
ENDTAB
0
TABLE
2
DIMSTYLE
5
A
100
AcDbSymbolTable
70
1
0
ENDTAB
0
TABLE
2
BLOCK_RECORD
5
1
100
AcDbSymbolTable
70
1
0
BLOCK_RECORD
5
1F
100
AcDbSymbolTableRecord
100
AcDbBlockTableRecord
2
*MODEL_SPACE
0
BLOCK_RECORD
5
1B
100
AcDbSymbolTableRecord
100
AcDbBlockTableRecord
2
*PAPER_SPACE
0
ENDTAB
0
ENDSEC
0
SECTION
2
BLOCKS
0
BLOCK
5
20
100
AcDbEntity
100
AcDbBlockBegin
2
*MODEL_SPACE
0
ENDBLK
5
21
100
AcDbEntity
100
AcDbBlockEnd
0
BLOCK
5
1C
100
AcDbEntity
100
AcDbBlockBegin
2
*PAPER_SPACE
0
ENDBLK
5
1D
100
AcDbEntity
100
AcDbBlockEnd
0
ENDSEC
0
SECTION
2
ENTITIES
0
SPLINE
5
100
100
AcDbEntity
8
0
100
AcDbSpline
70
4
71
5
72
16
73
10
74
0
42
0.000000001
43
0.0000000001
44
0.0000000001
40
0
40
0
40
0
40
0
40
0
40
0
40
0.20000000000000001
40
0.40000000000000002
40
0.60000000000000009
40
0.80000000000000004
40
1
40
1
40
1
40
1
40
1
40
1
41
1
41
1
41
1
41
1
41
1
41
1
41
1
41
1
41
1
41
1
10
0
20
0
30
0
10
0
20
0.12000000000003158
30
0
10
0
20
0.36000000000007704
30
0
10
0
20
0.72000000000009301
30
0
10
0
20
1.2000000000000313
30
0
10
0
20
1.7999999999999146
30
0
10
0
20
2.2799999999998684
30
0
10
0
20
2.6399999999999042
30
0
10
0
20
2.8799999999999617
30
0
10
0
20
3
30
0
0
SPLINE
5
101
100
AcDbEntity
8
0
100
AcDbSpline
70
4
71
5
72
16
73
10
74
0
42
0.000000001
43
0.0000000001
44
0.0000000001
40
0
40
0
40
0
40
0
40
0
40
0
40
0.20000000000000001
40
0.40000000000000002
40
0.60000000000000009
40
0.80000000000000004
40
1
40
1
40
1
40
1
40
1
40
1
41
1
41
1
41
1
41
1
41
1
41
1
41
1
41
1
41
1
41
1
10
10
20
0
30
0
10
9.9999999999997495
20
0.12000000000003158
30
0
10
9.9999999999993197
20
0.36000000000007704
30
0
10
9.9999999999989129
20
0.72000000000009301
30
0
10
9.9999999999987672
20
1.2000000000000313
30
0
10
9.9999999999990248
20
1.7999999999999146
30
0
10
9.9999999999993889
20
2.2799999999998684
30
0
10
9.9999999999996998
20
2.6399999999999042
30
0
10
9.9999999999999005
20
2.8799999999999617
30
0
10
10
20
3
30
0
0
SPLINE
5
102
100
AcDbEntity
8
0
100
AcDbSpline
70
4
71
5
72
16
73
10
74
0
42
0.000000001
43
0.0000000001
44
0.0000000001
40
0
40
0
40
0
40
0
40
0
40
0
40
0.20000000000000001
40
0.40000000000000002
40
0.60000000000000009
40
0.80000000000000004
40
1
40
1
40
1
40
1
40
1
40
1
41
1
41
1
41
1
41
1
41
1
41
1
41
1
41
1
41
1
41
1
10
0
20
1.5
30
0
10
0.40000000000047375
20
1.499999999999694
30
0
10
1.2000000000012774
20
1.4999999999991638
30
0
10
2.4000000000020547
20
1.4999999999986278
30
0
10
4.0000000000023546
20
1.4999999999983737
30
0
10
6.0000000000019584
20
1.4999999999985913
30
0
10
7.6000000000012928
20
1.4999999999990359
30
0
10
8.800000000000697
20
1.4999999999994786
30
0
10
9.6000000000002395
20
1.4999999999998188
30
0
10
10
20
1.5
30
0
0
SPLINE
5
103
100
AcDbEntity
8
0
100
AcDbSpline
70
4
71
5
72
61
73
55
74
0
42
0.000000001
43
0.0000000001
44
0.0000000001
40
0
40
0
40
0
40
0
40
0
40
0
40
0.02
40
0.040000000000000001
40
0.059999999999999998
40
0.080000000000000002
40
0.10000000000000001
40
0.12000000000000001
40
0.14000000000000001
40
0.16
40
0.17999999999999999
40
0.19999999999999998
40
0.21999999999999997
40
0.23999999999999996
40
0.25999999999999995
40
0.27999999999999997
40
0.29999999999999999
40
0.32000000000000001
40
0.34000000000000002
40
0.36000000000000004
40
0.38000000000000006
40
0.40000000000000008
40
0.4200000000000001
40
0.44000000000000011
40
0.46000000000000013
40
0.48000000000000015
40
0.50000000000000011
40
0.52000000000000013
40
0.54000000000000015
40
0.56000000000000016
40
0.58000000000000018
40
0.6000000000000002
40
0.62000000000000022
40
0.64000000000000024
40
0.66000000000000025
40
0.68000000000000027
40
0.70000000000000029
40
0.72000000000000031
40
0.74000000000000032
40
0.76000000000000034
40
0.78000000000000036
40
0.80000000000000038
40
0.8200000000000004
40
0.84000000000000041
40
0.86000000000000043
40
0.88000000000000045
40
0.90000000000000047
40
0.92000000000000048
40
0.9400000000000005
40
0.96000000000000052
40
0.98000000000000054
40
1
40
1
40
1
40
1
40
1
40
1
41
1
41
1
41
1
41
1
41
1
41
1
41
1
41
1
41
1
41
1
41
1
41
1
41
1
41
1
41
1
41
1
41
1
41
1
41
1
41
1
41
1
41
1
41
1
41
1
41
1
41
1
41
1
41
1
41
1
41
1
41
1
41
1
41
1
41
1
41
1
41
1
41
1
41
1
41
1
41
1
41
1
41
1
41
1
41
1
41
1
41
1
41
1
41
1
41
1
41
1
41
1
41
1
41
1
41
1
41
1
10
0
20
0
30
0
10
0.038971044507387829
20
0.023139359250032784
30
0
10
0.11700449437638327
20
0.067089321637473831
30
0
10
0.23432875101628362
20
0.12602802812953076
30
0
10
0.39130962026833749
20
0.19063112218389977
30
0
10
0.58844244026425629
20
0.24836167069559142
30
0
10
0.78645606801956469
20
0.28399527375687711
30
0
10
0.98529568233114051
20
0.2994645153669041
30
0
10
1.1848677914422743
20
0.29803780449388467
30
0
10
1.3850284139933668
20
0.28473652360510948
30
0
10
1.5856031753211104
20
0.2653792093594558
30
0
10
1.7864095108721025
20
0.24553787870394805
30
0
10
1.9872782955336208
20
0.22950860836203857
30
0
10
2.1880751830820677
20
0.21931417912545637
30
0
10
2.3887236151153406
20
0.21357753968538504
30
0
10
2.5891949881979737
20
0.20883228310383239
30
0
10
2.7894968704756673
20
0.20097211594505257
30
0
10
2.9896619936624962
20
0.18666485005793432
30
0
10
3.1897371000897765
20
0.16474164170661992
30
0
10
3.3897716355126999
20
0.13771231643166329
30
0
10
3.5898137750176535
20
0.11032245735026674
30
0
10
3.7899068571705774
20
0.087974951427111162
30
0
10
3.9900856239824343
20
0.075185745730141557
30
0
10
4.1903725982395086
20
0.074065586817736853
30
0
10
4.3907741592130884
20
0.082671764815633458
30
0
10
4.5912825811090849
20
0.096536751423732942
30
0
10
4.7918783277107506
20
0.11033670118036479
30
0
10
4.9925322025294747
20
0.11951979336820807
30
0
10
5.1932075640415434
20
0.12191882625898072
30
0
10
5.3938623928161809
20
0.11946716125549232
30
0
10
5.5944548170961781
20
0.11656177527509204
30
0
10
5.7949487385818319
20
0.11831647096322367
30
0
10
5.9953194700274288
20
0.12884883549070916
30
0
10
6.1955593157578139
20
0.14957397135698436
30
0
10
6.3956834459827423
20
0.17742747452041016
30
0
10
6.5957230167179945
20
0.20659447790716295
30
0
10
6.7957180537105479
20
0.23030707046870835
30
0
10
6.9957104333587701
20
0.24262081661913459
30
0
10
7.1957368838950071
20
0.240182063161964
30
0
10
7.3958218359955863
20
0.22405720970022108
30
0
10
7.5959787216735597
20
0.19830298101151667
30
0
10
7.7962114225932089
20
0.16847956777124531
30
0
10
7.9965156329509721
20
0.14018563404307793
30
0
10
8.1968802367394957
20
0.11759611774385889
30
0
10
8.3972886451500592
20
0.10196706500439941
30
0
10
8.5977210018171029
20
0.092387179023702221
30
0
10
8.7981563911191643
20
0.086561254776020904
30
0
10
8.9985750431365901
20
0.081578197824875701
30
0
10
9.1989605345144909
20
0.074681220425484862
30
0
10
9.3993020170753923
20
0.064042024464052702
30
0
10
9.5995930805151772
20
0.048574798299493793
30
0
10
9.7597830981862224
20
0.031910988325195233
30
0
10
9.8799010820905551
20
0.016923182501877763
30
0
10
9.9599688431718807
20
0.0058253821996160334
30
0
10
10
20
0
30
0
0
SPLINE
5
104
100
AcDbEntity
8
0
100
AcDbSpline
70
4
71
5
72
61
73
55
74
0
42
0.000000001
43
0.0000000001
44
0.0000000001
40
0
40
0
40
0
40
0
40
0
40
0
40
0.02
40
0.040000000000000001
40
0.059999999999999998
40
0.080000000000000002
40
0.10000000000000001
40
0.12000000000000001
40
0.14000000000000001
40
0.16
40
0.17999999999999999
40
0.19999999999999998
40
0.21999999999999997
40
0.23999999999999996
40
0.25999999999999995
40
0.27999999999999997
40
0.29999999999999999
40
0.32000000000000001
40
0.34000000000000002
40
0.36000000000000004
40
0.38000000000000006
40
0.40000000000000008
40
0.4200000000000001
40
0.44000000000000011
40
0.46000000000000013
40
0.48000000000000015
40
0.50000000000000011
40
0.52000000000000013
40
0.54000000000000015
40
0.56000000000000016
40
0.58000000000000018
40
0.6000000000000002
40
0.62000000000000022
40
0.64000000000000024
40
0.66000000000000025
40
0.68000000000000027
40
0.70000000000000029
40
0.72000000000000031
40
0.74000000000000032
40
0.76000000000000034
40
0.78000000000000036
40
0.80000000000000038
40
0.8200000000000004
40
0.84000000000000041
40
0.86000000000000043
40
0.88000000000000045
40
0.90000000000000047
40
0.92000000000000048
40
0.9400000000000005
40
0.96000000000000052
40
0.98000000000000054
40
1
40
1
40
1
40
1
40
1
40
1
41
1
41
1
41
1
41
1
41
1
41
1
41
1
41
1
41
1
41
1
41
1
41
1
41
1
41
1
41
1
41
1
41
1
41
1
41
1
41
1
41
1
41
1
41
1
41
1
41
1
41
1
41
1
41
1
41
1
41
1
41
1
41
1
41
1
41
1
41
1
41
1
41
1
41
1
41
1
41
1
41
1
41
1
41
1
41
1
41
1
41
1
41
1
41
1
41
1
41
1
41
1
41
1
41
1
41
1
41
1
10
0
20
3
30
0
10
0.04006154332292302
20
2.9990817786297579
30
0
10
0.12017716130340481
20
2.9968066888040967
30
0
10
0.24032818226840741
20
2.9920781120913809
30
0
10
0.40048470242541129
20
2.9831397502498476
30
0
10
0.60060765530570781
20
2.9677160975519392
30
0
10
0.80066432385327091
20
2.9484752465961184
30
0
10
1.0006677656057248
20
2.9262978695979829
30
0
10
1.2006399775248948
20
2.9026658585681164
30
0
10
1.400614179729508
20
2.8798154426822902
30
0
10
1.6006274453525269
20
2.8601891824293331
30
0
10
1.8007133615485651
20
2.8458900076167581
30
0
10
2.0008946843601865
20
2.8381347774423582
30
0
10
2.2011759468628957
20
2.8367039122858584
30
0
10
2.4015361048692934
20
2.8393944466707937
30
0
10
2.6019389378488444
20
2.8429625165474928
30
0
10
2.8023433626629268
20
2.8440592588200171
30
0
10
3.0027137224126932
20
2.8401647585723726
30
0
10
3.2030301734989974
20
2.8305322154073376
30
0
10
3.4032988411863654
20
2.8171103425623123
30
0
10
3.603540802155603
20
2.8034189965871663
30
0
10
3.8037813172510297
20
2.7934501011141073
30
0
10
4.004039059415498
20
2.7905661234278827
30
0
10
4.2043151766408418
20
2.7963874244691862
30
0
10
4.4045828231080533
20
2.8097116016875585
30
0
10
4.6048037461126414
20
2.8274140357590549
30
0
10
4.804944445783212
20
2.845310140017268
30
0
10
5.0049923393709612
20
2.859025927092675
30
0
10
5.2049723324077943
20
2.8648692517744614
30
0
10
5.4049623032823577
20
2.8606866086157146
30
0
10
5.6050584124435687
20
2.8459053521860218
30
0
10
5.8053413711523918
20
2.8216002744854798
30
0
10
6.0058426797392954
20
2.7905500971206059
30
0
10
6.2065099636435512
20
2.757316162629901
30
0
10
6.4071747187186272
20
2.7282807370170765
30
0
10
6.6076147070130133
20
2.7101843957624521
30
0
10
6.8076140984222686
20
2.7086943236258554
30
0
10
7.0070238704284513
20
2.7269745515591599
30
0
10
7.2058235471248384
20
2.7642131971706267
30
0
10
7.4041790359259689
20
2.8142585987254631
30
0
10
7.6023670640553034
20
2.8679397559610926
30
0
10
7.8007038754291251
20
2.915269443352309
30
0
10
7.9994724671104649
20
2.9476882171365992
30
0
10
8.1988504753505396
20
2.9602912346732522
30
0
10
8.3988373624276438
20
2.9540768115379468
30
0
10
8.5993046525595638
20
2.9342419998195721
30
0
10
8.8000460777403084
20
2.9084809464640093
30
0
10
9.0008274717686305
20
2.885291485012742
30
0
10
9.2014367116460445
20
2.8722797289517743
30
0
10
9.4017334638718317
20
2.8744710425971638
30
0
10
9.6016343275586475
20
2.8948455938766156
30
0
10
9.7612055232828414
20
2.9268585448086668
30
0
10
9.8806814489303534
20
2.9599138430204897
30
0
10
9.9602421377067554
20
2.9859683417854015
30
0
10
10
20
3
30
0
0
ENDSEC
0
SECTION
2
OBJECTS
0
DICTIONARY
5
C
100
AcDbDictionary
3
ACAD_GROUP
350
D
3
ACAD_MLINESTYLE
350
17
0
DICTIONARY
5
D
100
AcDbDictionary
0
DICTIONARY
5
1A
330
C
100
AcDbDictionary
0
DICTIONARY
5
17
100
AcDbDictionary
0
ENDSEC
0
EOF
