0
SECTION
2
HEADER
9
$INSUNITS
70
4
9
$ACADVER
1
AC1014
9
$HANDSEED
5
FFFF
0
ENDSEC
0
SECTION
2
TABLES
0
TABLE
2
VPORT
5
8
100
AcDbSymbolTable
0
ENDTAB
0
TABLE
2
LTYPE
5
5
100
AcDbSymbolTable
0
LTYPE
5
14
100
AcDbSymbolTableRecord
100
AcDbLinetypeTableRecord
2
BYBLOCK
70
0
0
LTYPE
5
15
100
AcDbSymbolTableRecord
100
AcDbLinetypeTableRecord
2
BYLAYER
70
0
0
ENDTAB
0
TABLE
2
LAYER
5
2
100
AcDbSymbolTable
70
2
0
LAYER
5
50
100
AcDbSymbolTableRecord
100
AcDbLayerTableRecord
2
0
70
0
6
CONTINUOUS
0
ENDTAB
0
TABLE
2
STYLE
5
3
100
AcDbSymbolTable
70
1
0
STYLE
5
11
100
AcDbSymbolTableRecord
100
AcDbTextStyleTableRecord
2
STANDARD
70
0
0
ENDTAB
0
TABLE
2
VIEW
5
6
100
AcDbSymbolTable
70
0
0
ENDTAB
0
TABLE
2
UCS
5
7
100
AcDbSymbolTable
70
0
0
ENDTAB
0
TABLE
2
APPID
5
9
100
AcDbSymbolTable
70
2
0
APPID
5
12
100
AcDbSymbolTableRecord
100
AcDbRegAppTableRecord
2
ACAD
70
0
0
ENDTAB
0
TABLE
2
DIMSTYLE
5
A
100
AcDbSymbolTable
70
1
0
ENDTAB
0
TABLE
2
BLOCK_RECORD
5
1
100
AcDbSymbolTable
70
1
0
BLOCK_RECORD
5
1F
100
AcDbSymbolTableRecord
100
AcDbBlockTableRecord
2
*MODEL_SPACE
0
BLOCK_RECORD
5
1B
100
AcDbSymbolTableRecord
100
AcDbBlockTableRecord
2
*PAPER_SPACE
0
ENDTAB
0
ENDSEC
0
SECTION
2
BLOCKS
0
BLOCK
5
20
100
AcDbEntity
100
AcDbBlockBegin
2
*MODEL_SPACE
0
ENDBLK
5
21
100
AcDbEntity
100
AcDbBlockEnd
0
BLOCK
5
1C
100
AcDbEntity
100
AcDbBlockBegin
2
*PAPER_SPACE
0
ENDBLK
5
1D
100
AcDbEntity
100
AcDbBlockEnd
0
ENDSEC
0
SECTION
2
ENTITIES
0
SPLINE
5
100
100
AcDbEntity
8
0
100
AcDbSpline
70
4
71
5
72
16
73
10
74
0
42
0.000000001
43
0.0000000001
44
0.0000000001
40
0
40
0
40
0
40
0
40
0
40
0
40
0.20000000000000001
40
0.40000000000000002
40
0.60000000000000009
40
0.80000000000000004
40
1
40
1
40
1
40
1
40
1
40
1
41
1
41
1
41
1
41
1
41
1
41
1
41
1
41
1
41
1
41
1
10
0
20
0
30
0
10
0
20
0.12000000000003158
30
0
10
0
20
0.36000000000007704
30
0
10
0
20
0.72000000000009301
30
0
10
0
20
1.2000000000000313
30
0
10
0
20
1.7999999999999146
30
0
10
0
20
2.2799999999998684
30
0
10
0
20
2.6399999999999042
30
0
10
0
20
2.8799999999999617
30
0
10
0
20
3
30
0
0
SPLINE
5
101
100
AcDbEntity
8
0
100
AcDbSpline
70
4
71
5
72
16
73
10
74
0
42
0.000000001
43
0.0000000001
44
0.0000000001
40
0
40
0
40
0
40
0
40
0
40
0
40
0.20000000000000001
40
0.40000000000000002
40
0.60000000000000009
40
0.80000000000000004
40
1
40
1
40
1
40
1
40
1
40
1
41
1
41
1
41
1
41
1
41
1
41
1
41
1
41
1
41
1
41
1
10
10
20
0
30
0
10
9.9999999999997495
20
0.12000000000003158
30
0
10
9.9999999999993197
20
0.36000000000007704
30
0
10
9.9999999999989129
20
0.72000000000009301
30
0
10
9.9999999999987672
20
1.2000000000000313
30
0
10
9.9999999999990248
20
1.7999999999999146
30
0
10
9.9999999999993889
20
2.2799999999998684
30
0
10
9.9999999999996998
20
2.6399999999999042
30
0
10
9.9999999999999005
20
2.8799999999999617
30
0
10
10
20
3
30
0
0
SPLINE
5
102
100
AcDbEntity
8
0
100
AcDbSpline
70
4
71
5
72
16
73
10
74
0
42
0.000000001
43
0.0000000001
44
0.0000000001
40
0
40
0
40
0
40
0
40
0
40
0
40
0.20000000000000001
40
0.40000000000000002
40
0.60000000000000009
40
0.80000000000000004
40
1
40
1
40
1
40
1
40
1
40
1
41
1
41
1
41
1
41
1
41
1
41
1
41
1
41
1
41
1
41
1
10
0
20
1.5
30
0
10
0.40000000000047375
20
1.499999999999694
30
0
10
1.2000000000012774
20
1.4999999999991638
30
0
10
2.4000000000020547
20
1.4999999999986278
30
0
10
4.0000000000023546
20
1.4999999999983737
30
0
10
6.0000000000019584
20
1.4999999999985913
30
0
10
7.6000000000012928
20
1.4999999999990359
30
0
10
8.800000000000697
20
1.4999999999994786
30
0
10
9.6000000000002395
20
1.4999999999998188
30
0
10
10
20
1.5
30
0
0
SPLINE
5
103
100
AcDbEntity
8
0
100
AcDbSpline
70
4
71
5
72
61
73
55
74
0
42
0.000000001
43
0.0000000001
44
0.0000000001
40
0
40
0
40
0
40
0
40
0
40
0
40
0.02
40
0.040000000000000001
40
0.059999999999999998
40
0.080000000000000002
40
0.10000000000000001
40
0.12000000000000001
40
0.14000000000000001
40
0.16
40
0.17999999999999999
40
0.19999999999999998
40
0.21999999999999997
40
0.23999999999999996
40
0.25999999999999995
40
0.27999999999999997
40
0.29999999999999999
40
0.32000000000000001
40
0.34000000000000002
40
0.36000000000000004
40
0.38000000000000006
40
0.40000000000000008
40
0.4200000000000001
40
0.44000000000000011
40
0.46000000000000013
40
0.48000000000000015
40
0.50000000000000011
40
0.52000000000000013
40
0.54000000000000015
40
0.56000000000000016
40
0.58000000000000018
40
0.6000000000000002
40
0.62000000000000022
40
0.64000000000000024
40
0.66000000000000025
40
0.68000000000000027
40
0.70000000000000029
40
0.72000000000000031
40
0.74000000000000032
40
0.76000000000000034
40
0.78000000000000036
40
0.80000000000000038
40
0.8200000000000004
40
0.84000000000000041
40
0.86000000000000043
40
0.88000000000000045
40
0.90000000000000047
40
0.92000000000000048
40
0.9400000000000005
40
0.96000000000000052
40
0.98000000000000054
40
1
40
1
40
1
40
1
40
1
40
1
41
1
41
1
41
1
41
1
41
1
41
1
41
1
41
1
41
1
41
1
41
1
41
1
41
1
41
1
41
1
41
1
41
1
41
1
41
1
41
1
41
1
41
1
41
1
41
1
41
1
41
1
41
1
41
1
41
1
41
1
41
1
41
1
41
1
41
1
41
1
41
1
41
1
41
1
41
1
41
1
41
1
41
1
41
1
41
1
41
1
41
1
41
1
41
1
41
1
41
1
41
1
41
1
41
1
41
1
41
1
10
0
20
0
30
0
10
0.03808981078900614
20
0.050771869260072697
30
0
10
0.11430872033691589
20
0.1465067105214613
30
0
10
0.2287549532760404
20
0.27268242025301526
30
0
10
0.38158578037831298
20
0.40603967952196313
30
0
10
0.57303477401427461
20
0.51519820139253569
30
0
10
0.76494408554337778
20
0.56879668755962653
30
0
10
0.95741369815863964
20
0.5710071589024287
30
0
10
1.1506065359623405
20
0.52886255906430157
30
0
10
1.3447737880786923
20
0.45329601542950793
30
0
10
1.5402022513739544
20
0.35785444029875058
30
0
10
1.7371435661056622
20
0.25683261647735217
30
0
10
1.9357448252931631
20
0.1635439209806949
30
0
10
2.1359888524615407
20
0.088675069334456541
30
0
10
2.337603284992575
20
0.038238310226876751
30
0
10
2.5401245121672336
20
0.01363374556157327
30
0
10
2.7430285856380361
20
0.012686536394763276
30
0
10
2.9458464520830145
20
0.030346832180167101
30
0
10
3.1482725067441231
20
0.059555741977214166
30
0
10
3.3503101664873314
20
0.091944641933853752
30
0
10
3.5521951391413924
20
0.11912413239581907
30
0
10
3.7542436075534287
20
0.13411211123304459
30
0
10
3.9567193176937252
20
0.13280460622500978
30
0
10
4.1597066637282918
20
0.11524547699932856
30
0
10
4.3629447812948552
20
0.087485171658221034
30
0
10
4.5659432232253643
20
0.059573330034955331
30
0
10
4.7681670727306198
20
0.042613352110925366
30
0
10
4.9692043329019464
20
0.046058479884594009
30
0
10
5.16892702027436
20
0.075089432110174173
30
0
10
5.3676922299015342
20
0.12746018235469414
30
0
10
5.5661758855216519
20
0.19525615683355318
30
0
10
5.7651469818066285
20
0.26747359890528632
30
0
10
5.9652555153933582
20
0.33235101041532328
30
0
10
6.1668316841567297
20
0.37968674402204827
30
0
10
6.3696345176991862
20
0.4034635682596811
30
0
10
6.5730207067489141
20
0.40167670188625026
30
0
10
6.7761922641251591
20
0.37561031183759241
30
0
10
6.9784211762367772
20
0.32932344573236016
30
0
10
7.1792724155951841
20
0.26903967274191798
30
0
10
7.3788584143721909
20
0.2026302709939517
30
0
10
7.5776827948246916
20
0.13848840713091293
30
0
10
7.7764393549966044
20
0.08436046426326399
30
0
10
7.9758239193715008
20
0.046159752040928481
30
0
10
8.1763496426494537
20
0.026855164605245715
30
0
10
8.37813732273972
20
0.025129249668926761
30
0
10
8.5809987275743076
20
0.036455199956680215
30
0
10
8.7845563766084798
20
0.054466463845410158
30
0
10
8.9883506429057469
20
0.072227542682959223
30
0
10
9.191949773489279
20
0.083517806152252225
30
0
10
9.3950642849056702
20
0.084180320698811734
30
0
10
9.597523015181789
20
0.071760610251435819
30
0
10
9.7588975588954128
20
0.050391684633525752
30
0
10
9.8795830339589656
20
0.027762060948815941
30
0
10
9.9598865833325299
20
0.0097428205570523792
30
0
10
10
20
0
30
0
0
SPLINE
5
104
100
AcDbEntity
8
0
100
AcDbSpline
70
4
71
5
72
61
73
55
74
0
42
0.000000001
43
0.0000000001
44
0.0000000001
40
0
40
0
40
0
40
0
40
0
40
0
40
0.02
40
0.040000000000000001
40
0.059999999999999998
40
0.080000000000000002
40
0.10000000000000001
40
0.12000000000000001
40
0.14000000000000001
40
0.16
40
0.17999999999999999
40
0.19999999999999998
40
0.21999999999999997
40
0.23999999999999996
40
0.25999999999999995
40
0.27999999999999997
40
0.29999999999999999
40
0.32000000000000001
40
0.34000000000000002
40
0.36000000000000004
40
0.38000000000000006
40
0.40000000000000008
40
0.4200000000000001
40
0.44000000000000011
40
0.46000000000000013
40
0.48000000000000015
40
0.50000000000000011
40
0.52000000000000013
40
0.54000000000000015
40
0.56000000000000016
40
0.58000000000000018
40
0.6000000000000002
40
0.62000000000000022
40
0.64000000000000024
40
0.66000000000000025
40
0.68000000000000027
40
0.70000000000000029
40
0.72000000000000031
40
0.74000000000000032
40
0.76000000000000034
40
0.78000000000000036
40
0.80000000000000038
40
0.8200000000000004
40
0.84000000000000041
40
0.86000000000000043
40
0.88000000000000045
40
0.90000000000000047
40
0.92000000000000048
40
0.9400000000000005
40
0.96000000000000052
40
0.98000000000000054
40
1
40
1
40
1
40
1
40
1
40
1
41
1
41
1
41
1
41
1
41
1
41
1
41
1
41
1
41
1
41
1
41
1
41
1
41
1
41
1
41
1
41
1
41
1
41
1
41
1
41
1
41
1
41
1
41
1
41
1
41
1
41
1
41
1
41
1
41
1
41
1
41
1
41
1
41
1
41
1
41
1
41
1
41
1
41
1
41
1
41
1
41
1
41
1
41
1
41
1
41
1
41
1
41
1
41
1
41
1
41
1
41
1
41
1
41
1
41
1
41
1
10
0
20
3
30
0
10
0.040174436034502783
20
2.9881832096929379
30
0
10
0.12054435010499559
20
2.9658746955241289
30
0
10
0.24116234739874304
20
2.9363871340341241
30
0
10
0.40211267682739477
20
2.9050258941921783
30
0
10
0.60350835155497018
20
2.8788996017411668
30
0
10
0.80510255015380805
20
2.8652426345123634
30
0
10
1.0068762037568357
20
2.8628055603880354
30
0
10
1.2087968118812997
20
2.8694613031432676
30
0
10
1.4108153337011553
20
2.8819989202164087
30
0
10
1.6128780145842043
20
2.8967877693269473
30
0
10
1.8149379594617552
20
2.9104235528785702
30
0
10
2.0169664112154972
20
2.9203640731824305
30
0
10
2.2189651164944904
20
2.9256108752062913
30
0
10
2.4209756889711911
20
2.9272623114582834
30
0
10
2.6230541136415235
20
2.9275368351938917
30
0
10
2.8252469848122215
20
2.9288838381224966
30
0
10
3.0275684653058939
20
2.9331028336383191
30
0
10
3.2299736325782935
20
2.9403642635889722
30
0
10
3.4323426268186061
20
2.9485416384091385
30
0
10
3.6345367804121209
20
2.9546514698319841
30
0
10
3.8364491774460632
20
2.9561189931600023
30
0
10
4.0380532223146268
20
2.9520091374902471
30
0
10
4.2394620483785665
20
2.9445147585540172
30
0
10
4.4409542505355661
20
2.9396274555861002
30
0
10
4.6428474256914933
20
2.9441304009998559
30
0
10
4.8453884225545627
20
2.9629741803267393
30
0
10
5.0486459529158942
20
2.996760264089275
30
0
10
5.2523806020075039
20
3.0385558576985043
30
0
10
5.455989417753667
20
3.0728706104559427
30
0
10
5.6587014065700743
20
3.0817683655525148
30
0
10
5.8597358206598491
20
3.0500227042323043
30
0
10
6.0584646982475565
20
2.9701608880335839
30
0
10
6.2545982550501344
20
2.8487403565705574
30
0
10
6.4482827693544431
20
2.7083707652065896
30
0
10
6.6399680238824974
20
2.578790591486027
30
0
10
6.83031960610188
20
2.4899734664194844
30
0
10
7.020114920831217
20
2.4646347986318506
30
0
10
7.2101446830085338
20
2.510509736442414
30
0
10
7.4011177165529105
20
2.6140538309179835
30
0
10
7.5936253966575915
20
2.7489633671403677
30
0
10
7.7881008518547592
20
2.8833398808312936
30
0
10
7.9847786603717523
20
2.9874551381568377
30
0
10
8.1836563083799057
20
3.0410227667051917
30
0
10
8.3844473444185912
20
3.0413428434645793
30
0
10
8.5866669261712296
20
2.9989854487776042
30
0
10
8.7897265051707372
20
2.9326179111361039
30
0
10
8.993025336784207
20
2.8641411902076017
30
0
10
9.1960420094616317
20
2.8137680174718471
30
0
10
9.3984293284753164
20
2.7949662427059847
30
0
10
9.5999813632954041
20
2.815705894312666
30
0
10
9.7604734498826353
20
2.8670713506481897
30
0
10
9.8804062692146601
20
2.925715944017977
30
0
10
9.9601677170748815
20
2.9737491826860558
30
0
10
10
20
3
30
0
0
ENDSEC
0
SECTION
2
OBJECTS
0
DICTIONARY
5
C
100
AcDbDictionary
3
ACAD_GROUP
350
D
3
ACAD_MLINESTYLE
350
17
0
DICTIONARY
5
D
100
AcDbDictionary
0
DICTIONARY
5
1A
330
C
100
AcDbDictionary
0
DICTIONARY
5
17
100
AcDbDictionary
0
ENDSEC
0
EOF
