0
SECTION
2
HEADER
9
$INSUNITS
70
4
9
$ACADVER
1
AC1014
9
$HANDSEED
5
FFFF
0
ENDSEC
0
SECTION
2
TABLES
0
TABLE
2
VPORT
5
8
100
AcDbSymbolTable
0
ENDTAB
0
TABLE
2
LTYPE
5
5
100
AcDbSymbolTable
0
LTYPE
5
14
100
AcDbSymbolTableRecord
100
AcDbLinetypeTableRecord
2
BYBLOCK
70
0
0
LTYPE
5
15
100
AcDbSymbolTableRecord
100
AcDbLinetypeTableRecord
2
BYLAYER
70
0
0
ENDTAB
0
TABLE
2
LAYER
5
2
100
AcDbSymbolTable
70
2
0
LAYER
5
50
100
AcDbSymbolTableRecord
100
AcDbLayerTableRecord
2
0
70
0
6
CONTINUOUS
0
ENDTAB
0
TABLE
2
STYLE
5
3
100
AcDbSymbolTable
70
1
0
STYLE
5
11
100
AcDbSymbolTableRecord
100
AcDbTextStyleTableRecord
2
STANDARD
70
0
0
ENDTAB
0
TABLE
2
VIEW
5
6
100
AcDbSymbolTable
70
0
0
ENDTAB
0
TABLE
2
UCS
5
7
100
AcDbSymbolTable
70
0
0
ENDTAB
0
TABLE
2
APPID
5
9
100
AcDbSymbolTable
70
2
0
APPID
5
12
100
AcDbSymbolTableRecord
100
AcDbRegAppTableRecord
2
ACAD
70
0
0
ENDTAB
0
TABLE
2
DIMSTYLE
5
A
100
AcDbSymbolTable
70
1
0
ENDTAB
0
TABLE
2
BLOCK_RECORD
5
1
100
AcDbSymbolTable
70
1
0
BLOCK_RECORD
5
1F
100
AcDbSymbolTableRecord
100
AcDbBlockTableRecord
2
*MODEL_SPACE
0
BLOCK_RECORD
5
1B
100
AcDbSymbolTableRecord
100
AcDbBlockTableRecord
2
*PAPER_SPACE
0
ENDTAB
0
ENDSEC
0
SECTION
2
BLOCKS
0
BLOCK
5
20
100
AcDbEntity
100
AcDbBlockBegin
2
*MODEL_SPACE
0
ENDBLK
5
21
100
AcDbEntity
100
AcDbBlockEnd
0
BLOCK
5
1C
100
AcDbEntity
100
AcDbBlockBegin
2
*PAPER_SPACE
0
ENDBLK
5
1D
100
AcDbEntity
100
AcDbBlockEnd
0
ENDSEC
0
SECTION
2
ENTITIES
0
SPLINE
5
100
100
AcDbEntity
8
0
100
AcDbSpline
70
4
71
5
72
16
73
10
74
0
42
0.000000001
43
0.0000000001
44
0.0000000001
40
0
40
0
40
0
40
0
40
0
40
0
40
0.20000000000000001
40
0.40000000000000002
40
0.60000000000000009
40
0.80000000000000004
40
1
40
1
40
1
40
1
40
1
40
1
41
1
41
1
41
1
41
1
41
1
41
1
41
1
41
1
41
1
41
1
10
0
20
0
30
0
10
0
20
0.12000000000003158
30
0
10
0
20
0.36000000000007704
30
0
10
0
20
0.72000000000009301
30
0
10
0
20
1.2000000000000313
30
0
10
0
20
1.7999999999999146
30
0
10
0
20
2.2799999999998684
30
0
10
0
20
2.6399999999999042
30
0
10
0
20
2.8799999999999617
30
0
10
0
20
3
30
0
0
SPLINE
5
101
100
AcDbEntity
8
0
100
AcDbSpline
70
4
71
5
72
16
73
10
74
0
42
0.000000001
43
0.0000000001
44
0.0000000001
40
0
40
0
40
0
40
0
40
0
40
0
40
0.20000000000000001
40
0.40000000000000002
40
0.60000000000000009
40
0.80000000000000004
40
1
40
1
40
1
40
1
40
1
40
1
41
1
41
1
41
1
41
1
41
1
41
1
41
1
41
1
41
1
41
1
10
10
20
0
30
0
10
9.9999999999997495
20
0.12000000000003158
30
0
10
9.9999999999993197
20
0.36000000000007704
30
0
10
9.9999999999989129
20
0.72000000000009301
30
0
10
9.9999999999987672
20
1.2000000000000313
30
0
10
9.9999999999990248
20
1.7999999999999146
30
0
10
9.9999999999993889
20
2.2799999999998684
30
0
10
9.9999999999996998
20
2.6399999999999042
30
0
10
9.9999999999999005
20
2.8799999999999617
30
0
10
10
20
3
30
0
0
SPLINE
5
102
100
AcDbEntity
8
0
100
AcDbSpline
70
4
71
5
72
16
73
10
74
0
42
0.000000001
43
0.0000000001
44
0.0000000001
40
0
40
0
40
0
40
0
40
0
40
0
40
0.20000000000000001
40
0.40000000000000002
40
0.60000000000000009
40
0.80000000000000004
40
1
40
1
40
1
40
1
40
1
40
1
41
1
41
1
41
1
41
1
41
1
41
1
41
1
41
1
41
1
41
1
10
0
20
1.5
30
0
10
0.40000000000047375
20
1.499999999999694
30
0
10
1.2000000000012774
20
1.4999999999991638
30
0
10
2.4000000000020547
20
1.4999999999986278
30
0
10
4.0000000000023546
20
1.4999999999983737
30
0
10
6.0000000000019584
20
1.4999999999985913
30
0
10
7.6000000000012928
20
1.4999999999990359
30
0
10
8.800000000000697
20
1.4999999999994786
30
0
10
9.6000000000002395
20
1.4999999999998188
30
0
10
10
20
1.5
30
0
0
SPLINE
5
103
100
AcDbEntity
8
0
100
AcDbSpline
70
4
71
5
72
61
73
55
74
0
42
0.000000001
43
0.0000000001
44
0.0000000001
40
0
40
0
40
0
40
0
40
0
40
0
40
0.02
40
0.040000000000000001
40
0.059999999999999998
40
0.080000000000000002
40
0.10000000000000001
40
0.12000000000000001
40
0.14000000000000001
40
0.16
40
0.17999999999999999
40
0.19999999999999998
40
0.21999999999999997
40
0.23999999999999996
40
0.25999999999999995
40
0.27999999999999997
40
0.29999999999999999
40
0.32000000000000001
40
0.34000000000000002
40
0.36000000000000004
40
0.38000000000000006
40
0.40000000000000008
40
0.4200000000000001
40
0.44000000000000011
40
0.46000000000000013
40
0.48000000000000015
40
0.50000000000000011
40
0.52000000000000013
40
0.54000000000000015
40
0.56000000000000016
40
0.58000000000000018
40
0.6000000000000002
40
0.62000000000000022
40
0.64000000000000024
40
0.66000000000000025
40
0.68000000000000027
40
0.70000000000000029
40
0.72000000000000031
40
0.74000000000000032
40
0.76000000000000034
40
0.78000000000000036
40
0.80000000000000038
40
0.8200000000000004
40
0.84000000000000041
40
0.86000000000000043
40
0.88000000000000045
40
0.90000000000000047
40
0.92000000000000048
40
0.9400000000000005
40
0.96000000000000052
40
0.98000000000000054
40
1
40
1
40
1
40
1
40
1
40
1
41
1
41
1
41
1
41
1
41
1
41
1
41
1
41
1
41
1
41
1
41
1
41
1
41
1
41
1
41
1
41
1
41
1
41
1
41
1
41
1
41
1
41
1
41
1
41
1
41
1
41
1
41
1
41
1
41
1
41
1
41
1
41
1
41
1
41
1
41
1
41
1
41
1
41
1
41
1
41
1
41
1
41
1
41
1
41
1
41
1
41
1
41
1
41
1
41
1
41
1
41
1
41
1
41
1
41
1
41
1
10
0
20
0
30
0
10
0.039882951338581073
20
0.01390935394645366
30
0
10
0.11975423747083534
20
0.03895226739402486
30
0
10
0.23987731961631176
20
0.068189175601247556
30
0
10
0.40067412474620173
20
0.090506623439708403
30
0
10
0.60268696942325484
20
0.091575130172935809
30
0
10
0.80559905378493579
20
0.068779630672029468
30
0
10
1.0091725554511721
20
0.028114588437608709
30
0
10
1.2130061672944996
20
-0.020293224618917315
30
0
10
1.4164988638630933
20
-0.061297537352466673
30
0
10
1.6189767474895997
20
-0.0787195283405457
30
0
10
1.8198148172435538
20
-0.059202057760337982
30
0
10
2.0185579641609848
20
0.0039963378165124228
30
0
10
2.2150490792175277
20
0.10689798751896509
30
0
10
2.409536585111685
20
0.23157800087160335
30
0
10
2.602546291357362
20
0.35292841444760054
30
0
10
2.7947717703069981
20
0.44462018943030768
30
0
10
2.986957363537091
20
0.48545792309576286
30
0
10
3.1797866592673056
20
0.46535754805001384
30
0
10
3.3737629308091481
20
0.39210527379947302
30
0
10
3.5692117344400316
20
0.28568179576805502
30
0
10
3.7662914528648135
20
0.17189565232064474
30
0
10
3.9649994368065453
20
0.076115192235772303
30
0
10
4.1651819012291389
20
0.017355808634191269
30
0
10
4.3665354817597057
20
0.0011737012904010542
30
0
10
4.5686662676413832
20
0.022095040818117407
30
0
10
4.7711588711686597
20
0.0678832785954393
30
0
10
4.9736436839910123
20
0.12320494574903845
30
0
10
5.1758609099979456
20
0.17340490234666373
30
0
10
5.3777369218593662
20
0.20857967356307405
30
0
10
5.5793353857076529
20
0.22359241105425048
30
0
10
5.7807915512144703
20
0.21749303491554245
30
0
10
5.982251733044567
20
0.19317940704872033
30
0
10
6.1838129853411541
20
0.15692909106716313
30
0
10
6.3854564608936482
20
0.11810217732407201
30
0
10
6.5870824702356057
20
0.087108821034199674
30
0
10
6.788554446939969
20
0.073249815338069513
30
0
10
6.9897399635043733
20
0.082569471593202493
30
0
10
7.1905520690320266
20
0.11576715221782277
30
0
10
7.3909930404197146
20
0.16587623155906478
30
0
10
7.5911318431199941
20
0.22116327176931377
30
0
10
7.7910784017157342
20
0.26826394711080792
30
0
10
7.9909590147359992
20
0.2952534446746658
30
0
10
8.1908917278823026
20
0.29468277014221672
30
0
10
8.3909607186030168
20
0.26681233421203687
30
0
10
8.59122161883122
20
0.21756810182492403
30
0
10
8.79170814659666
20
0.15628466289124535
30
0
10
8.9924382123005397
20
0.093525287057315026
30
0
10
9.1934201388691115
20
0.038903362845004327
30
0
10
9.3946589397683908
20
-0.0011746827320472787
30
0
10
9.5961572295302595
20
-0.022916846694005656
30
0
10
9.7575641796266428
20
-0.02414708412395121
30
0
10
9.8787365559725053
20
-0.015710841144507957
30
0
10
9.9595701788708872
20
-0.0059297624573109243
30
0
10
10
20
0
30
0
0
SPLINE
5
104
100
AcDbEntity
8
0
100
AcDbSpline
70
4
71
5
72
61
73
55
74
0
42
0.000000001
43
0.0000000001
44
0.0000000001
40
0
40
0
40
0
40
0
40
0
40
0
40
0.02
40
0.040000000000000001
40
0.059999999999999998
40
0.080000000000000002
40
0.10000000000000001
40
0.12000000000000001
40
0.14000000000000001
40
0.16
40
0.17999999999999999
40
0.19999999999999998
40
0.21999999999999997
40
0.23999999999999996
40
0.25999999999999995
40
0.27999999999999997
40
0.29999999999999999
40
0.32000000000000001
40
0.34000000000000002
40
0.36000000000000004
40
0.38000000000000006
40
0.40000000000000008
40
0.4200000000000001
40
0.44000000000000011
40
0.46000000000000013
40
0.48000000000000015
40
0.50000000000000011
40
0.52000000000000013
40
0.54000000000000015
40
0.56000000000000016
40
0.58000000000000018
40
0.6000000000000002
40
0.62000000000000022
40
0.64000000000000024
40
0.66000000000000025
40
0.68000000000000027
40
0.70000000000000029
40
0.72000000000000031
40
0.74000000000000032
40
0.76000000000000034
40
0.78000000000000036
40
0.80000000000000038
40
0.8200000000000004
40
0.84000000000000041
40
0.86000000000000043
40
0.88000000000000045
40
0.90000000000000047
40
0.92000000000000048
40
0.9400000000000005
40
0.96000000000000052
40
0.98000000000000054
40
1
40
1
40
1
40
1
40
1
40
1
41
1
41
1
41
1
41
1
41
1
41
1
41
1
41
1
41
1
41
1
41
1
41
1
41
1
41
1
41
1
41
1
41
1
41
1
41
1
41
1
41
1
41
1
41
1
41
1
41
1
41
1
41
1
41
1
41
1
41
1
41
1
41
1
41
1
41
1
41
1
41
1
41
1
41
1
41
1
41
1
41
1
41
1
41
1
41
1
41
1
41
1
41
1
41
1
41
1
41
1
41
1
41
1
41
1
41
1
41
1
10
0
20
3
30
0
10
0.040539799873446324
20
2.998777470011853
30
0
10
0.12163343104704033
20
2.9961221437409833
30
0
10
0.24331597267224778
20
2.9915083211529652
30
0
10
0.40564360103049191
20
2.9840943659478691
30
0
10
0.60868914698184273
20
2.9728796242902451
30
0
10
0.81185688243343956
20
2.9602007664616754
30
0
10
1.0151188879244382
20
2.9470215949907548
30
0
10
1.218427832298975
20
2.9349773866482343
30
0
10
1.4217132911290251
20
2.9264697464052869
30
0
10
1.624898934635099
20
2.9235808211705905
30
0
10
1.8279190005278736
20
2.9270138394563405
30
0
10
2.03073389552199
20
2.93511177228104
30
0
10
2.2333489337290722
20
2.9426246319630596
30
0
10
2.4358239247634557
20
2.9401967423001638
30
0
10
2.638229248777856
20
2.9180268646133518
30
0
10
2.8406064918227831
20
2.8691907051728958
30
0
10
3.0429305832635221
20
2.7928077992971456
30
0
10
3.2450633730854159
20
2.6979743221951038
30
0
10
3.4467342568799451
20
2.6053097144614004
30
0
10
3.6476270595713212
20
2.5391960634653725
30
0
10
3.8474530756315053
20
2.521188513380813
30
0
10
4.0460247490384322
20
2.5634718818205489
30
0
10
4.2433406786035786
20
2.6610793918663478
30
0
10
4.4396311606422802
20
2.7882945132923433
30
0
10
4.6352605034946777
20
2.9100649285479148
30
0
10
4.8306517876042303
20
2.9911417306649217
30
0
10
5.026205263714381
20
3.0057402823497492
30
0
10
5.2222142860009804
20
2.9478508454554002
30
0
10
5.4187972905879542
20
2.8388199561189369
30
0
10
5.6159541615027493
20
2.7146065563698247
30
0
10
5.8136094818145754
20
2.6151237166929047
30
0
10
6.0116599911060442
20
2.5729616354141269
30
0
10
6.2100215125519167
20
2.6019784141338267
30
0
10
6.4086721773411242
20
2.686989938221708
30
0
10
6.607614926574473
20
2.7957457425245114
30
0
10
6.8068440240940999
20
2.8897745175375849
30
0
10
7.0063104474012388
20
2.9355522833021648
30
0
10
7.2058867139061258
20
2.9157223234175031
30
0
10
7.4053343884702061
20
2.8398141063966031
30
0
10
7.6043767412369698
20
2.7343928535164883
30
0
10
7.8027683801095558
20
2.6338250936075669
30
0
10
8.0003660592303731
20
2.5708421594368502
30
0
10
8.1971992342490445
20
2.5671913122985011
30
0
10
8.3935411447468304
20
2.6242307436591679
30
0
10
8.5898294690188326
20
2.7285957621631942
30
0
10
8.7865879583133051
20
2.8577834676421743
30
0
10
8.9843470474336211
20
2.9858000267713618
30
0
10
9.1835671558385137
20
3.0886241923437692
30
0
10
9.3845548014179467
20
3.1501328975451055
30
0
10
9.5874892672831749
20
3.1608270227648774
30
0
10
9.7514638264586004
20
3.1249807137097196
30
0
10
9.875371670230173
20
3.0724555908428579
30
0
10
9.9583886059722975
20
3.0260499853360177
30
0
10
10
20
3
30
0
0
ENDSEC
0
SECTION
2
OBJECTS
0
DICTIONARY
5
C
100
AcDbDictionary
3
ACAD_GROUP
350
D
3
ACAD_MLINESTYLE
350
17
0
DICTIONARY
5
D
100
AcDbDictionary
0
DICTIONARY
5
1A
330
C
100
AcDbDictionary
0
DICTIONARY
5
17
100
AcDbDictionary
0
ENDSEC
0
EOF
