0
SECTION
2
HEADER
9
$INSUNITS
70
4
9
$ACADVER
1
AC1014
9
$HANDSEED
5
FFFF
0
ENDSEC
0
SECTION
2
TABLES
0
TABLE
2
VPORT
5
8
100
AcDbSymbolTable
0
ENDTAB
0
TABLE
2
LTYPE
5
5
100
AcDbSymbolTable
0
LTYPE
5
14
100
AcDbSymbolTableRecord
100
AcDbLinetypeTableRecord
2
BYBLOCK
70
0
0
LTYPE
5
15
100
AcDbSymbolTableRecord
100
AcDbLinetypeTableRecord
2
BYLAYER
70
0
0
ENDTAB
0
TABLE
2
LAYER
5
2
100
AcDbSymbolTable
70
2
0
LAYER
5
50
100
AcDbSymbolTableRecord
100
AcDbLayerTableRecord
2
0
70
0
6
CONTINUOUS
0
ENDTAB
0
TABLE
2
STYLE
5
3
100
AcDbSymbolTable
70
1
0
STYLE
5
11
100
AcDbSymbolTableRecord
100
AcDbTextStyleTableRecord
2
STANDARD
70
0
0
ENDTAB
0
TABLE
2
VIEW
5
6
100
AcDbSymbolTable
70
0
0
ENDTAB
0
TABLE
2
UCS
5
7
100
AcDbSymbolTable
70
0
0
ENDTAB
0
TABLE
2
APPID
5
9
100
AcDbSymbolTable
70
2
0
APPID
5
12
100
AcDbSymbolTableRecord
100
AcDbRegAppTableRecord
2
ACAD
70
0
0
ENDTAB
0
TABLE
2
DIMSTYLE
5
A
100
AcDbSymbolTable
70
1
0
ENDTAB
0
TABLE
2
BLOCK_RECORD
5
1
100
AcDbSymbolTable
70
1
0
BLOCK_RECORD
5
1F
100
AcDbSymbolTableRecord
100
AcDbBlockTableRecord
2
*MODEL_SPACE
0
BLOCK_RECORD
5
1B
100
AcDbSymbolTableRecord
100
AcDbBlockTableRecord
2
*PAPER_SPACE
0
ENDTAB
0
ENDSEC
0
SECTION
2
BLOCKS
0
BLOCK
5
20
100
AcDbEntity
100
AcDbBlockBegin
2
*MODEL_SPACE
0
ENDBLK
5
21
100
AcDbEntity
100
AcDbBlockEnd
0
BLOCK
5
1C
100
AcDbEntity
100
AcDbBlockBegin
2
*PAPER_SPACE
0
ENDBLK
5
1D
100
AcDbEntity
100
AcDbBlockEnd
0
ENDSEC
0
SECTION
2
ENTITIES
0
SPLINE
5
100
100
AcDbEntity
8
0
100
AcDbSpline
70
4
71
5
72
16
73
10
74
0
42
0.000000001
43
0.0000000001
44
0.0000000001
40
0
40
0
40
0
40
0
40
0
40
0
40
0.20000000000000001
40
0.40000000000000002
40
0.60000000000000009
40
0.80000000000000004
40
1
40
1
40
1
40
1
40
1
40
1
41
1
41
1
41
1
41
1
41
1
41
1
41
1
41
1
41
1
41
1
10
0
20
0
30
0
10
0
20
0.12000000000003158
30
0
10
0
20
0.36000000000007704
30
0
10
0
20
0.72000000000009301
30
0
10
0
20
1.2000000000000313
30
0
10
0
20
1.7999999999999146
30
0
10
0
20
2.2799999999998684
30
0
10
0
20
2.6399999999999042
30
0
10
0
20
2.8799999999999617
30
0
10
0
20
3
30
0
0
SPLINE
5
101
100
AcDbEntity
8
0
100
AcDbSpline
70
4
71
5
72
16
73
10
74
0
42
0.000000001
43
0.0000000001
44
0.0000000001
40
0
40
0
40
0
40
0
40
0
40
0
40
0.20000000000000001
40
0.40000000000000002
40
0.60000000000000009
40
0.80000000000000004
40
1
40
1
40
1
40
1
40
1
40
1
41
1
41
1
41
1
41
1
41
1
41
1
41
1
41
1
41
1
41
1
10
10
20
0
30
0
10
9.9999999999997495
20
0.12000000000003158
30
0
10
9.9999999999993197
20
0.36000000000007704
30
0
10
9.9999999999989129
20
0.72000000000009301
30
0
10
9.9999999999987672
20
1.2000000000000313
30
0
10
9.9999999999990248
20
1.7999999999999146
30
0
10
9.9999999999993889
20
2.2799999999998684
30
0
10
9.9999999999996998
20
2.6399999999999042
30
0
10
9.9999999999999005
20
2.8799999999999617
30
0
10
10
20
3
30
0
0
SPLINE
5
102
100
AcDbEntity
8
0
100
AcDbSpline
70
4
71
5
72
16
73
10
74
0
42
0.000000001
43
0.0000000001
44
0.0000000001
40
0
40
0
40
0
40
0
40
0
40
0
40
0.20000000000000001
40
0.40000000000000002
40
0.60000000000000009
40
0.80000000000000004
40
1
40
1
40
1
40
1
40
1
40
1
41
1
41
1
41
1
41
1
41
1
41
1
41
1
41
1
41
1
41
1
10
0
20
1.5
30
0
10
0.40000000000047375
20
1.499999999999694
30
0
10
1.2000000000012774
20
1.4999999999991638
30
0
10
2.4000000000020547
20
1.4999999999986278
30
0
10
4.0000000000023546
20
1.4999999999983737
30
0
10
6.0000000000019584
20
1.4999999999985913
30
0
10
7.6000000000012928
20
1.4999999999990359
30
0
10
8.800000000000697
20
1.4999999999994786
30
0
10
9.6000000000002395
20
1.4999999999998188
30
0
10
10
20
1.5
30
0
0
SPLINE
5
103
100
AcDbEntity
8
0
100
AcDbSpline
70
4
71
5
72
61
73
55
74
0
42
0.000000001
43
0.0000000001
44
0.0000000001
40
0
40
0
40
0
40
0
40
0
40
0
40
0.02
40
0.040000000000000001
40
0.059999999999999998
40
0.080000000000000002
40
0.10000000000000001
40
0.12000000000000001
40
0.14000000000000001
40
0.16
40
0.17999999999999999
40
0.19999999999999998
40
0.21999999999999997
40
0.23999999999999996
40
0.25999999999999995
40
0.27999999999999997
40
0.29999999999999999
40
0.32000000000000001
40
0.34000000000000002
40
0.36000000000000004
40
0.38000000000000006
40
0.40000000000000008
40
0.4200000000000001
40
0.44000000000000011
40
0.46000000000000013
40
0.48000000000000015
40
0.50000000000000011
40
0.52000000000000013
40
0.54000000000000015
40
0.56000000000000016
40
0.58000000000000018
40
0.6000000000000002
40
0.62000000000000022
40
0.64000000000000024
40
0.66000000000000025
40
0.68000000000000027
40
0.70000000000000029
40
0.72000000000000031
40
0.74000000000000032
40
0.76000000000000034
40
0.78000000000000036
40
0.80000000000000038
40
0.8200000000000004
40
0.84000000000000041
40
0.86000000000000043
40
0.88000000000000045
40
0.90000000000000047
40
0.92000000000000048
40
0.9400000000000005
40
0.96000000000000052
40
0.98000000000000054
40
1
40
1
40
1
40
1
40
1
40
1
41
1
41
1
41
1
41
1
41
1
41
1
41
1
41
1
41
1
41
1
41
1
41
1
41
1
41
1
41
1
41
1
41
1
41
1
41
1
41
1
41
1
41
1
41
1
41
1
41
1
41
1
41
1
41
1
41
1
41
1
41
1
41
1
41
1
41
1
41
1
41
1
41
1
41
1
41
1
41
1
41
1
41
1
41
1
41
1
41
1
41
1
41
1
41
1
41
1
41
1
41
1
41
1
41
1
41
1
41
1
10
0
20
0
30
0
10
0.039935192036539835
20
0.013366922666277155
30
0
10
0.11982703135366798
20
0.038424493679973609
30
0
10
0.23972915605809555
20
0.070982022822684662
30
0
10
0.399727471011599
20
0.10432789138823623
30
0
10
0.599938303992542
20
0.12967200066436366
30
0
10
0.80035597065426289
20
0.14005154882119294
30
0
10
1.0009676097809379
20
0.1382650700424376
30
0
10
1.2017511846120192
20
0.12903049827284638
30
0
10
1.4026730415444431
20
0.11947096808107628
30
0
10
1.6036871976232161
20
0.11721832854029185
30
0
10
1.8047345531471337
20
0.12851851648619791
30
0
10
2.0057421732774392
20
0.15635326777573841
30
0
10
2.2066223199865762
20
0.1985020733499783
30
0
10
2.4072720534105709
20
0.24574162555520054
30
0
10
2.6075943742093037
20
0.28551332923741796
30
0
10
2.8075189781010272
20
0.30546619249714768
30
0
10
3.0070229638098849
20
0.29700921699126465
30
0
10
3.2061522781621314
20
0.25894903401221681
30
0
10
3.4050413729321627
20
0.20088164049385254
30
0
10
3.6038731026317352
20
0.13837058223957416
30
0
10
3.8028404782925191
20
0.08837966758851723
30
0
10
4.0021078843633848
20
0.064630627459099602
30
0
10
4.2017722414629537
20
0.072957099267551437
30
0
10
4.4018246721390417
20
0.10672479583932401
30
0
10
4.6021865156785084
20
0.15187674221598646
30
0
10
4.8027445145913745
20
0.19187600552109191
30
0
10
5.0033860406406507
20
0.21265517100810477
30
0
10
5.2040345991712398
20
0.20761397637321688
30
0
10
5.4046843716545725
20
0.18247975955105633
30
0
10
5.6053672828057479
20
0.15021874918640982
30
0
10
5.8061209814596157
20
0.12608985486423541
30
0
10
6.0069568690402173
20
0.12269876852567052
30
0
10
6.2078272501015537
20
0.14494822122292961
30
0
10
6.4085949794220687
20
0.18529535800623079
30
0
10
6.609083556001309
20
0.22904338059357388
30
0
10
6.8091249989094962
20
0.25934159265502416
30
0
10
7.0086079842978686
20
0.26223364319034226
30
0
10
7.2075273062290171
20
0.2318085309894716
30
0
10
7.4060293699422264
20
0.17499162495345238
30
0
10
7.6043502613924101
20
0.10652890779055298
30
0
10
7.8027579014052462
20
0.044344601581160603
30
0
10
8.0014928958163569
20
0.0047784317751833061
30
0
10
8.2007096886080593
20
-0.0021442394062595902
30
0
10
8.400418004896899
20
0.022578526039324684
30
0
10
8.6005237699185564
20
0.070115523243946473
30
0
10
8.8008690623142201
20
0.12691634915085906
30
0
10
9.0012721798073176
20
0.17783539976443605
30
0
10
9.2015676376288251
20
0.20925115394266169
30
0
10
9.4016459610356495
20
0.21216990445685074
30
0
10
9.6014420300758996
20
0.18125892481293415
30
0
10
9.7610274567249746
20
0.1273805481270367
30
0
10
9.8805704850732461
20
0.07020601907303968
30
0
10
9.9602009725037259
20
0.024643101500052743
30
0
10
10
20
0
30
0
0
SPLINE
5
104
100
AcDbEntity
8
0
100
AcDbSpline
70
4
71
5
72
61
73
55
74
0
42
0.000000001
43
0.0000000001
44
0.0000000001
40
0
40
0
40
0
40
0
40
0
40
0
40
0.02
40
0.040000000000000001
40
0.059999999999999998
40
0.080000000000000002
40
0.10000000000000001
40
0.12000000000000001
40
0.14000000000000001
40
0.16
40
0.17999999999999999
40
0.19999999999999998
40
0.21999999999999997
40
0.23999999999999996
40
0.25999999999999995
40
0.27999999999999997
40
0.29999999999999999
40
0.32000000000000001
40
0.34000000000000002
40
0.36000000000000004
40
0.38000000000000006
40
0.40000000000000008
40
0.4200000000000001
40
0.44000000000000011
40
0.46000000000000013
40
0.48000000000000015
40
0.50000000000000011
40
0.52000000000000013
40
0.54000000000000015
40
0.56000000000000016
40
0.58000000000000018
40
0.6000000000000002
40
0.62000000000000022
40
0.64000000000000024
40
0.66000000000000025
40
0.68000000000000027
40
0.70000000000000029
40
0.72000000000000031
40
0.74000000000000032
40
0.76000000000000034
40
0.78000000000000036
40
0.80000000000000038
40
0.8200000000000004
40
0.84000000000000041
40
0.86000000000000043
40
0.88000000000000045
40
0.90000000000000047
40
0.92000000000000048
40
0.9400000000000005
40
0.96000000000000052
40
0.98000000000000054
40
1
40
1
40
1
40
1
40
1
40
1
41
1
41
1
41
1
41
1
41
1
41
1
41
1
41
1
41
1
41
1
41
1
41
1
41
1
41
1
41
1
41
1
41
1
41
1
41
1
41
1
41
1
41
1
41
1
41
1
41
1
41
1
41
1
41
1
41
1
41
1
41
1
41
1
41
1
41
1
41
1
41
1
41
1
41
1
41
1
41
1
41
1
41
1
41
1
41
1
41
1
41
1
41
1
41
1
41
1
41
1
41
1
41
1
41
1
41
1
41
1
10
0
20
3
30
0
10
0.040605173750076259
20
3.0117553111096291
30
0
10
0.12172188772903147
20
3.0325376162527267
30
0
10
0.24311605777392511
20
3.0555261045230737
30
0
10
0.4044127864185062
20
3.0697969745944009
30
0
10
0.60511105813327681
20
3.0609717475374603
30
0
10
0.80493336601739651
20
3.0275049931180478
30
0
10
1.0039758298757804
20
2.9735210747798018
30
0
10
1.202401591505077
20
2.9059872847108084
30
0
10
1.4004574798731773
20
2.8354078171166042
30
0
10
1.5984299246237477
20
2.7734559701489725
30
0
10
1.7966020997352674
20
2.7306688946090691
30
0
10
1.9952104125063546
20
2.7141013517542762
30
0
10
2.1944016863504814
20
2.725025871675407
30
0
10
2.3941884148525356
20
2.7564963048462654
30
0
10
2.5944851378215379
20
2.7967471782967976
30
0
10
2.7951463056240344
20
2.8327004810164591
30
0
10
2.9960035008694987
20
2.8534432829800997
30
0
10
3.1969025823165991
20
2.8536825466924687
30
0
10
3.3977415331828102
20
2.8373279206670707
30
0
10
3.5984628377172321
20
2.8139464534442276
30
0
10
3.7990450901336104
20
2.795097528368669
30
0
10
3.9994949924850571
20
2.7907179974895602
30
0
10
4.199839276950291
20
2.8054896361314636
30
0
10
4.4001167252422615
20
2.835188045404812
30
0
10
4.6003707007747217
20
2.8701918165109013
30
0
10
4.8006416976460073
20
2.8990016228876159
30
0
10
5.0009598918831291
20
2.9117436677619524
30
0
10
5.2013376450587501
20
2.9036908802329671
30
0
10
5.4017620500884842
20
2.8787623389378587
30
0
10
5.6022047698488366
20
2.8462290180261949
30
0
10
5.8026317837292938
20
2.8174544952736462
30
0
10
6.003013115780961
20
2.8026415479213425
30
0
10
6.2033326423262594
20
2.8075512244448744
30
0
10
6.4035977070595687
20
2.8302916966707197
30
0
10
6.6038323444957516
20
2.863914092458054
30
0
10
6.8040707536837868
20
2.8989256257826486
30
0
10
7.0043507160965852
20
2.9258145827143691
30
0
10
7.2047070423869961
20
2.9375910497665316
30
0
10
7.4051650331924055
20
2.9322618378290017
30
0
10
7.6057360700012815
20
2.9115622975186612
30
0
10
7.8064130938468317
20
2.8797657171762703
30
0
10
8.0071661540437447
20
2.8424774742382612
30
0
10
8.207937686110709
20
2.805427619393424
30
0
10
8.4086383281085766
20
2.7733023627728648
30
0
10
8.6091599317734939
20
2.7498715108843976
30
0
10
8.8093880610512016
20
2.7380730482728408
30
0
10
9.0092145533365713
20
2.7401114924007914
30
0
10
9.2085503170981138
20
2.7575475929009596
30
0
10
9.4073373814746635
20
2.7913905915402877
30
0
10
9.6055418743674323
20
2.8422175989791638
30
0
10
9.7636266229516728
20
2.8966764508281697
30
0
10
9.8819187859264357
20
2.945310708124417
30
0
10
9.9606596857071033
20
2.9811935660385602
30
0
10
10
20
3
30
0
0
ENDSEC
0
SECTION
2
OBJECTS
0
DICTIONARY
5
C
100
AcDbDictionary
3
ACAD_GROUP
350
D
3
ACAD_MLINESTYLE
350
17
0
DICTIONARY
5
D
100
AcDbDictionary
0
DICTIONARY
5
1A
330
C
100
AcDbDictionary
0
DICTIONARY
5
17
100
AcDbDictionary
0
ENDSEC
0
EOF
