0
SECTION
2
HEADER
9
$INSUNITS
70
4
9
$ACADVER
1
AC1014
9
$HANDSEED
5
FFFF
0
ENDSEC
0
SECTION
2
TABLES
0
TABLE
2
VPORT
5
8
100
AcDbSymbolTable
0
ENDTAB
0
TABLE
2
LTYPE
5
5
100
AcDbSymbolTable
0
LTYPE
5
14
100
AcDbSymbolTableRecord
100
AcDbLinetypeTableRecord
2
BYBLOCK
70
0
0
LTYPE
5
15
100
AcDbSymbolTableRecord
100
AcDbLinetypeTableRecord
2
BYLAYER
70
0
0
ENDTAB
0
TABLE
2
LAYER
5
2
100
AcDbSymbolTable
70
2
0
LAYER
5
50
100
AcDbSymbolTableRecord
100
AcDbLayerTableRecord
2
0
70
0
6
CONTINUOUS
0
ENDTAB
0
TABLE
2
STYLE
5
3
100
AcDbSymbolTable
70
1
0
STYLE
5
11
100
AcDbSymbolTableRecord
100
AcDbTextStyleTableRecord
2
STANDARD
70
0
0
ENDTAB
0
TABLE
2
VIEW
5
6
100
AcDbSymbolTable
70
0
0
ENDTAB
0
TABLE
2
UCS
5
7
100
AcDbSymbolTable
70
0
0
ENDTAB
0
TABLE
2
APPID
5
9
100
AcDbSymbolTable
70
2
0
APPID
5
12
100
AcDbSymbolTableRecord
100
AcDbRegAppTableRecord
2
ACAD
70
0
0
ENDTAB
0
TABLE
2
DIMSTYLE
5
A
100
AcDbSymbolTable
70
1
0
ENDTAB
0
TABLE
2
BLOCK_RECORD
5
1
100
AcDbSymbolTable
70
1
0
BLOCK_RECORD
5
1F
100
AcDbSymbolTableRecord
100
AcDbBlockTableRecord
2
*MODEL_SPACE
0
BLOCK_RECORD
5
1B
100
AcDbSymbolTableRecord
100
AcDbBlockTableRecord
2
*PAPER_SPACE
0
ENDTAB
0
ENDSEC
0
SECTION
2
BLOCKS
0
BLOCK
5
20
100
AcDbEntity
100
AcDbBlockBegin
2
*MODEL_SPACE
0
ENDBLK
5
21
100
AcDbEntity
100
AcDbBlockEnd
0
BLOCK
5
1C
100
AcDbEntity
100
AcDbBlockBegin
2
*PAPER_SPACE
0
ENDBLK
5
1D
100
AcDbEntity
100
AcDbBlockEnd
0
ENDSEC
0
SECTION
2
ENTITIES
0
SPLINE
5
100
100
AcDbEntity
8
0
100
AcDbSpline
70
4
71
5
72
16
73
10
74
0
42
0.000000001
43
0.0000000001
44
0.0000000001
40
0
40
0
40
0
40
0
40
0
40
0
40
0.20000000000000001
40
0.40000000000000002
40
0.60000000000000009
40
0.80000000000000004
40
1
40
1
40
1
40
1
40
1
40
1
41
1
41
1
41
1
41
1
41
1
41
1
41
1
41
1
41
1
41
1
10
0
20
0
30
0
10
0
20
0.12000000000003158
30
0
10
0
20
0.36000000000007704
30
0
10
0
20
0.72000000000009301
30
0
10
0
20
1.2000000000000313
30
0
10
0
20
1.7999999999999146
30
0
10
0
20
2.2799999999998684
30
0
10
0
20
2.6399999999999042
30
0
10
0
20
2.8799999999999617
30
0
10
0
20
3
30
0
0
SPLINE
5
101
100
AcDbEntity
8
0
100
AcDbSpline
70
4
71
5
72
16
73
10
74
0
42
0.000000001
43
0.0000000001
44
0.0000000001
40
0
40
0
40
0
40
0
40
0
40
0
40
0.20000000000000001
40
0.40000000000000002
40
0.60000000000000009
40
0.80000000000000004
40
1
40
1
40
1
40
1
40
1
40
1
41
1
41
1
41
1
41
1
41
1
41
1
41
1
41
1
41
1
41
1
10
10
20
0
30
0
10
9.9999999999997495
20
0.12000000000003158
30
0
10
9.9999999999993197
20
0.36000000000007704
30
0
10
9.9999999999989129
20
0.72000000000009301
30
0
10
9.9999999999987672
20
1.2000000000000313
30
0
10
9.9999999999990248
20
1.7999999999999146
30
0
10
9.9999999999993889
20
2.2799999999998684
30
0
10
9.9999999999996998
20
2.6399999999999042
30
0
10
9.9999999999999005
20
2.8799999999999617
30
0
10
10
20
3
30
0
0
SPLINE
5
102
100
AcDbEntity
8
0
100
AcDbSpline
70
4
71
5
72
16
73
10
74
0
42
0.000000001
43
0.0000000001
44
0.0000000001
40
0
40
0
40
0
40
0
40
0
40
0
40
0.20000000000000001
40
0.40000000000000002
40
0.60000000000000009
40
0.80000000000000004
40
1
40
1
40
1
40
1
40
1
40
1
41
1
41
1
41
1
41
1
41
1
41
1
41
1
41
1
41
1
41
1
10
0
20
1.5
30
0
10
0.40000000000047375
20
1.499999999999694
30
0
10
1.2000000000012774
20
1.4999999999991638
30
0
10
2.4000000000020547
20
1.4999999999986278
30
0
10
4.0000000000023546
20
1.4999999999983737
30
0
10
6.0000000000019584
20
1.4999999999985913
30
0
10
7.6000000000012928
20
1.4999999999990359
30
0
10
8.800000000000697
20
1.4999999999994786
30
0
10
9.6000000000002395
20
1.4999999999998188
30
0
10
10
20
1.5
30
0
0
SPLINE
5
103
100
AcDbEntity
8
0
100
AcDbSpline
70
4
71
5
72
61
73
55
74
0
42
0.000000001
43
0.0000000001
44
0.0000000001
40
0
40
0
40
0
40
0
40
0
40
0
40
0.02
40
0.040000000000000001
40
0.059999999999999998
40
0.080000000000000002
40
0.10000000000000001
40
0.12000000000000001
40
0.14000000000000001
40
0.16
40
0.17999999999999999
40
0.19999999999999998
40
0.21999999999999997
40
0.23999999999999996
40
0.25999999999999995
40
0.27999999999999997
40
0.29999999999999999
40
0.32000000000000001
40
0.34000000000000002
40
0.36000000000000004
40
0.38000000000000006
40
0.40000000000000008
40
0.4200000000000001
40
0.44000000000000011
40
0.46000000000000013
40
0.48000000000000015
40
0.50000000000000011
40
0.52000000000000013
40
0.54000000000000015
40
0.56000000000000016
40
0.58000000000000018
40
0.6000000000000002
40
0.62000000000000022
40
0.64000000000000024
40
0.66000000000000025
40
0.68000000000000027
40
0.70000000000000029
40
0.72000000000000031
40
0.74000000000000032
40
0.76000000000000034
40
0.78000000000000036
40
0.80000000000000038
40
0.8200000000000004
40
0.84000000000000041
40
0.86000000000000043
40
0.88000000000000045
40
0.90000000000000047
40
0.92000000000000048
40
0.9400000000000005
40
0.96000000000000052
40
0.98000000000000054
40
1
40
1
40
1
40
1
40
1
40
1
41
1
41
1
41
1
41
1
41
1
41
1
41
1
41
1
41
1
41
1
41
1
41
1
41
1
41
1
41
1
41
1
41
1
41
1
41
1
41
1
41
1
41
1
41
1
41
1
41
1
41
1
41
1
41
1
41
1
41
1
41
1
41
1
41
1
41
1
41
1
41
1
41
1
41
1
41
1
41
1
41
1
41
1
41
1
41
1
41
1
41
1
41
1
41
1
41
1
41
1
41
1
41
1
41
1
41
1
41
1
10
0
20
0
30
0
10
0.039112705334073468
20
0.018153735268531444
30
0
10
0.11742958093678976
20
0.053031742167683971
30
0
10
0.2351792883791371
20
0.10106036044181724
30
0
10
0.39272805053186871
20
0.15651615739339103
30
0
10
0.59056960755442522
20
0.21155747076174275
30
0
10
0.78928432813013372
20
0.25245331735237414
30
0
10
0.9888043338794873
20
0.27951200704665047
30
0
10
1.1890143648576994
20
0.29328713033331627
30
0
10
1.3897376561943333
20
0.29464454807335166
30
0
10
1.5907656650456197
20
0.28490053355671952
30
0
10
1.7918899368822452
20
0.26596214235211901
30
0
10
1.9929334047109635
20
0.24047361058726516
30
0
10
2.1937814262277442
20
0.21195081820977274
30
0
10
2.3944146055596147
20
0.18495491189898644
30
0
10
2.5948826871169111
20
0.1640643979482152
30
0
10
2.7952766223866181
20
0.15281157985407595
30
0
10
2.9957013795236902
20
0.15262128785343754
30
0
10
3.1962486477923759
20
0.16176321220214152
30
0
10
3.3969691755339388
20
0.17423589377993587
30
0
10
3.5978702717607938
20
0.18209536824512432
30
0
10
3.7989137416078811
20
0.17784833644751891
30
0
10
4.000013535807855
20
0.1568211170368862
30
0
10
4.2010333858245028
20
0.11954496593270325
30
0
10
4.4017843048351839
20
0.074147449253108955
30
0
10
4.6020707978717006
20
0.032836089714866769
30
0
10
4.8017370745752057
20
0.0083882471273914773
30
0
10
5.0007133135310911
20
0.010644756473054543
30
0
10
5.199062195330896
20
0.042991764723674865
30
0
10
5.3970254558980058
20
0.098845073538942702
30
0
10
5.5949459772189041
20
0.1655532317475209
30
0
10
5.7931907278423989
20
0.22825266931889884
30
0
10
5.9920728725825256
20
0.27376424673287902
30
0
10
6.1917756139881828
20
0.29439843525011344
30
0
10
6.3922709670815339
20
0.29201733256644669
30
0
10
6.5933809694087655
20
0.27481396451478429
30
0
10
6.7948437071237358
20
0.25384400291922121
30
0
10
6.9963774805110166
20
0.23964604235870227
30
0
10
7.1977451985867456
20
0.23885492095979105
30
0
10
7.3988199430982071
20
0.25073040745692332
30
0
10
7.5995617022652064
20
0.26956255089444853
30
0
10
7.7999927231001411
20
0.28716915239823027
30
0
10
8.0001735712755107
20
0.29535018230993854
30
0
10
8.2001790223099942
20
0.28835896106351722
30
0
10
8.4000741041220852
20
0.26536933662115453
30
0
10
8.5999142290328319
20
0.22912004599916905
30
0
10
8.7997453142099609
20
0.18456761552864495
30
0
10
8.9996038812464327
20
0.1375430627410632
30
0
10
9.1995171401081706
20
0.093411711563823385
30
0
10
9.3995030505528661
20
0.055729096424843173
30
0
10
9.5995722299172002
20
0.026609486641943209
30
0
10
9.759698324540194
20
0.010997403546548164
30
0
10
9.8798334149640681
20
0.0037606147860731274
30
0
10
9.959941472167813
20
0.0009224741605988586
30
0
10
10
20
0
30
0
0
SPLINE
5
104
100
AcDbEntity
8
0
100
AcDbSpline
70
4
71
5
72
61
73
55
74
0
42
0.000000001
43
0.0000000001
44
0.0000000001
40
0
40
0
40
0
40
0
40
0
40
0
40
0.02
40
0.040000000000000001
40
0.059999999999999998
40
0.080000000000000002
40
0.10000000000000001
40
0.12000000000000001
40
0.14000000000000001
40
0.16
40
0.17999999999999999
40
0.19999999999999998
40
0.21999999999999997
40
0.23999999999999996
40
0.25999999999999995
40
0.27999999999999997
40
0.29999999999999999
40
0.32000000000000001
40
0.34000000000000002
40
0.36000000000000004
40
0.38000000000000006
40
0.40000000000000008
40
0.4200000000000001
40
0.44000000000000011
40
0.46000000000000013
40
0.48000000000000015
40
0.50000000000000011
40
0.52000000000000013
40
0.54000000000000015
40
0.56000000000000016
40
0.58000000000000018
40
0.6000000000000002
40
0.62000000000000022
40
0.64000000000000024
40
0.66000000000000025
40
0.68000000000000027
40
0.70000000000000029
40
0.72000000000000031
40
0.74000000000000032
40
0.76000000000000034
40
0.78000000000000036
40
0.80000000000000038
40
0.8200000000000004
40
0.84000000000000041
40
0.86000000000000043
40
0.88000000000000045
40
0.90000000000000047
40
0.92000000000000048
40
0.9400000000000005
40
0.96000000000000052
40
0.98000000000000054
40
1
40
1
40
1
40
1
40
1
40
1
41
1
41
1
41
1
41
1
41
1
41
1
41
1
41
1
41
1
41
1
41
1
41
1
41
1
41
1
41
1
41
1
41
1
41
1
41
1
41
1
41
1
41
1
41
1
41
1
41
1
41
1
41
1
41
1
41
1
41
1
41
1
41
1
41
1
41
1
41
1
41
1
41
1
41
1
41
1
41
1
41
1
41
1
41
1
41
1
41
1
41
1
41
1
41
1
41
1
41
1
41
1
41
1
41
1
41
1
41
1
10
0
20
3
30
0
10
0.0394589319831316
20
2.9920831720142531
30
0
10
0.11844976661402758
20
2.9760473150823774
30
0
10
0.23715493016341185
20
2.9513869435673694
30
0
10
0.39586659340996977
20
2.9172923379165723
30
0
10
0.59497464208293926
20
2.8730381204448086
30
0
10
0.79476318023076076
20
2.8283166121862271
30
0
10
0.99515389549894184
20
2.7854782019290356
30
0
10
1.1960143819533917
20
2.7484403280441354
30
0
10
1.3971432007574802
20
2.7231224843526829
30
0
10
1.5983059738541683
20
2.7156361086630412
30
0
10
1.7992725180132925
20
2.730426177089087
30
0
10
1.9998535912452196
20
2.7684257662442189
30
0
10
2.1999378600150385
20
2.8251991501122009
30
0
10
2.3995290490711838
20
2.8890682014757685
30
0
10
2.5987124015304222
20
2.944987799406956
30
0
10
2.7976212633988098
20
2.9784116269823722
30
0
10
2.9964036823885518
20
2.979180376682363
30
0
10
3.1951893195078842
20
2.9453633942366517
30
0
10
3.3940555467974134
20
2.8872679788772642
30
0
10
3.5930417751816037
20
2.8222944941299333
30
0
10
3.7921644232320655
20
2.769680884049055
30
0
10
3.9914317465630553
20
2.7452428703731324
30
0
10
4.1908582925308169
20
2.7562348597667685
30
0
10
4.3904805883787441
20
2.7958012843311799
30
0
10
4.5903387899265802
20
2.8482506580595257
30
0
10
4.7904571127426028
20
2.8947247833374172
30
0
10
4.9908243390820655
20
2.9187677081741263
30
0
10
5.1913749720929907
20
2.9118078987849167
30
0
10
5.3919678845014882
20
2.8790520100573769
30
0
10
5.5924277520670227
20
2.8345769475882627
30
0
10
5.792588930061803
20
2.7959866973432201
30
0
10
5.992338893138963
20
2.7791982029289128
30
0
10
6.191660924345106
20
2.7932728051308517
30
0
10
6.3906802331200936
20
2.8349394445806269
30
0
10
6.5896101376977008
20
2.8926915775144479
30
0
10
6.7886950503442485
20
2.9512015193215047
30
0
10
6.9881540946899037
20
2.9956529818602524
30
0
10
7.1881259607160484
20
3.0159944918550274
30
0
10
7.3886088983658595
20
3.0115383151426678
30
0
10
7.5895001337952781
20
2.9883219271455115
30
0
10
7.7906406457884287
20
2.9560760967109996
30
0
10
7.9918580881311456
20
2.9253287568074864
30
0
10
8.1930097497930134
20
2.9045022493948252
30
0
10
8.3940273528115075
20
2.8968852226581432
30
0
10
8.5949002442383886
20
2.9018486810192536
30
0
10
8.7956562812142742
20
2.9162211709390684
30
0
10
8.9963436376079002
20
2.9356008089259005
30
0
10
9.1970124030487224
20
2.9556812593724868
30
0
10
9.3976959993402982
20
2.9735926211125236
30
0
10
9.598414324388866
20
2.9876270736732917
30
0
10
9.7590246782267513
20
2.9950753857776795
30
0
10
9.8795039720492177
20
2.9984120004848318
30
0
10
9.9598330636367667
20
2.9996372006109215
30
0
10
10
20
3
30
0
0
ENDSEC
0
SECTION
2
OBJECTS
0
DICTIONARY
5
C
100
AcDbDictionary
3
ACAD_GROUP
350
D
3
ACAD_MLINESTYLE
350
17
0
DICTIONARY
5
D
100
AcDbDictionary
0
DICTIONARY
5
1A
330
C
100
AcDbDictionary
0
DICTIONARY
5
17
100
AcDbDictionary
0
ENDSEC
0
EOF
