0
SECTION
2
HEADER
9
$INSUNITS
70
4
9
$ACADVER
1
AC1014
9
$HANDSEED
5
FFFF
0
ENDSEC
0
SECTION
2
TABLES
0
TABLE
2
VPORT
5
8
100
AcDbSymbolTable
0
ENDTAB
0
TABLE
2
LTYPE
5
5
100
AcDbSymbolTable
0
LTYPE
5
14
100
AcDbSymbolTableRecord
100
AcDbLinetypeTableRecord
2
BYBLOCK
70
0
0
LTYPE
5
15
100
AcDbSymbolTableRecord
100
AcDbLinetypeTableRecord
2
BYLAYER
70
0
0
ENDTAB
0
TABLE
2
LAYER
5
2
100
AcDbSymbolTable
70
2
0
LAYER
5
50
100
AcDbSymbolTableRecord
100
AcDbLayerTableRecord
2
0
70
0
6
CONTINUOUS
0
ENDTAB
0
TABLE
2
STYLE
5
3
100
AcDbSymbolTable
70
1
0
STYLE
5
11
100
AcDbSymbolTableRecord
100
AcDbTextStyleTableRecord
2
STANDARD
70
0
0
ENDTAB
0
TABLE
2
VIEW
5
6
100
AcDbSymbolTable
70
0
0
ENDTAB
0
TABLE
2
UCS
5
7
100
AcDbSymbolTable
70
0
0
ENDTAB
0
TABLE
2
APPID
5
9
100
AcDbSymbolTable
70
2
0
APPID
5
12
100
AcDbSymbolTableRecord
100
AcDbRegAppTableRecord
2
ACAD
70
0
0
ENDTAB
0
TABLE
2
DIMSTYLE
5
A
100
AcDbSymbolTable
70
1
0
ENDTAB
0
TABLE
2
BLOCK_RECORD
5
1
100
AcDbSymbolTable
70
1
0
BLOCK_RECORD
5
1F
100
AcDbSymbolTableRecord
100
AcDbBlockTableRecord
2
*MODEL_SPACE
0
BLOCK_RECORD
5
1B
100
AcDbSymbolTableRecord
100
AcDbBlockTableRecord
2
*PAPER_SPACE
0
ENDTAB
0
ENDSEC
0
SECTION
2
BLOCKS
0
BLOCK
5
20
100
AcDbEntity
100
AcDbBlockBegin
2
*MODEL_SPACE
0
ENDBLK
5
21
100
AcDbEntity
100
AcDbBlockEnd
0
BLOCK
5
1C
100
AcDbEntity
100
AcDbBlockBegin
2
*PAPER_SPACE
0
ENDBLK
5
1D
100
AcDbEntity
100
AcDbBlockEnd
0
ENDSEC
0
SECTION
2
ENTITIES
0
SPLINE
5
100
100
AcDbEntity
8
0
100
AcDbSpline
70
4
71
5
72
16
73
10
74
0
42
0.000000001
43
0.0000000001
44
0.0000000001
40
0
40
0
40
0
40
0
40
0
40
0
40
0.20000000000000001
40
0.40000000000000002
40
0.60000000000000009
40
0.80000000000000004
40
1
40
1
40
1
40
1
40
1
40
1
41
1
41
1
41
1
41
1
41
1
41
1
41
1
41
1
41
1
41
1
10
0
20
0
30
0
10
0
20
0.12000000000003158
30
0
10
0
20
0.36000000000007704
30
0
10
0
20
0.72000000000009301
30
0
10
0
20
1.2000000000000313
30
0
10
0
20
1.7999999999999146
30
0
10
0
20
2.2799999999998684
30
0
10
0
20
2.6399999999999042
30
0
10
0
20
2.8799999999999617
30
0
10
0
20
3
30
0
0
SPLINE
5
101
100
AcDbEntity
8
0
100
AcDbSpline
70
4
71
5
72
16
73
10
74
0
42
0.000000001
43
0.0000000001
44
0.0000000001
40
0
40
0
40
0
40
0
40
0
40
0
40
0.20000000000000001
40
0.40000000000000002
40
0.60000000000000009
40
0.80000000000000004
40
1
40
1
40
1
40
1
40
1
40
1
41
1
41
1
41
1
41
1
41
1
41
1
41
1
41
1
41
1
41
1
10
10
20
0
30
0
10
9.9999999999997495
20
0.12000000000003158
30
0
10
9.9999999999993197
20
0.36000000000007704
30
0
10
9.9999999999989129
20
0.72000000000009301
30
0
10
9.9999999999987672
20
1.2000000000000313
30
0
10
9.9999999999990248
20
1.7999999999999146
30
0
10
9.9999999999993889
20
2.2799999999998684
30
0
10
9.9999999999996998
20
2.6399999999999042
30
0
10
9.9999999999999005
20
2.8799999999999617
30
0
10
10
20
3
30
0
0
SPLINE
5
102
100
AcDbEntity
8
0
100
AcDbSpline
70
4
71
5
72
16
73
10
74
0
42
0.000000001
43
0.0000000001
44
0.0000000001
40
0
40
0
40
0
40
0
40
0
40
0
40
0.20000000000000001
40
0.40000000000000002
40
0.60000000000000009
40
0.80000000000000004
40
1
40
1
40
1
40
1
40
1
40
1
41
1
41
1
41
1
41
1
41
1
41
1
41
1
41
1
41
1
41
1
10
0
20
1.5
30
0
10
0.40000000000047375
20
1.499999999999694
30
0
10
1.2000000000012774
20
1.4999999999991638
30
0
10
2.4000000000020547
20
1.4999999999986278
30
0
10
4.0000000000023546
20
1.4999999999983737
30
0
10
6.0000000000019584
20
1.4999999999985913
30
0
10
7.6000000000012928
20
1.4999999999990359
30
0
10
8.800000000000697
20
1.4999999999994786
30
0
10
9.6000000000002395
20
1.4999999999998188
30
0
10
10
20
1.5
30
0
0
SPLINE
5
103
100
AcDbEntity
8
0
100
AcDbSpline
70
4
71
5
72
61
73
55
74
0
42
0.000000001
43
0.0000000001
44
0.0000000001
40
0
40
0
40
0
40
0
40
0
40
0
40
0.02
40
0.040000000000000001
40
0.059999999999999998
40
0.080000000000000002
40
0.10000000000000001
40
0.12000000000000001
40
0.14000000000000001
40
0.16
40
0.17999999999999999
40
0.19999999999999998
40
0.21999999999999997
40
0.23999999999999996
40
0.25999999999999995
40
0.27999999999999997
40
0.29999999999999999
40
0.32000000000000001
40
0.34000000000000002
40
0.36000000000000004
40
0.38000000000000006
40
0.40000000000000008
40
0.4200000000000001
40
0.44000000000000011
40
0.46000000000000013
40
0.48000000000000015
40
0.50000000000000011
40
0.52000000000000013
40
0.54000000000000015
40
0.56000000000000016
40
0.58000000000000018
40
0.6000000000000002
40
0.62000000000000022
40
0.64000000000000024
40
0.66000000000000025
40
0.68000000000000027
40
0.70000000000000029
40
0.72000000000000031
40
0.74000000000000032
40
0.76000000000000034
40
0.78000000000000036
40
0.80000000000000038
40
0.8200000000000004
40
0.84000000000000041
40
0.86000000000000043
40
0.88000000000000045
40
0.90000000000000047
40
0.92000000000000048
40
0.9400000000000005
40
0.96000000000000052
40
0.98000000000000054
40
1
40
1
40
1
40
1
40
1
40
1
41
1
41
1
41
1
41
1
41
1
41
1
41
1
41
1
41
1
41
1
41
1
41
1
41
1
41
1
41
1
41
1
41
1
41
1
41
1
41
1
41
1
41
1
41
1
41
1
41
1
41
1
41
1
41
1
41
1
41
1
41
1
41
1
41
1
41
1
41
1
41
1
41
1
41
1
41
1
41
1
41
1
41
1
41
1
41
1
41
1
41
1
41
1
41
1
41
1
41
1
41
1
41
1
41
1
41
1
41
1
10
0
20
0
30
0
10
0.041446505486527105
20
-0.003716914742671659
30
0
10
0.12407912878549443
20
-0.0094672273064553523
30
0
10
0.24724689837454458
20
-0.013042141712186033
30
0
10
0.40990726270443323
20
-0.0077010365617833729
30
0
10
0.61068553447315832
20
0.015618252140431877
30
0
10
0.80910244672815768
20
0.054903676063174846
30
0
10
1.005537078422267
20
0.10875142185114567
30
0
10
1.2006304792143927
20
0.17477133704569819
30
0
10
1.3953481337678539
20
0.24933630724420094
30
0
10
1.5907514972833083
20
0.32772450969081435
30
0
10
1.7877785723661208
20
0.40425574705364348
30
0
10
1.9870168188420259
20
0.47241622335462152
30
0
10
2.1884879403533648
20
0.52501102510200559
30
0
10
2.3914005626895163
20
0.55423483721047462
30
0
10
2.5944854943771785
20
0.55327664865834658
30
0
10
2.7963640628231761
20
0.518010019217368
30
0
10
2.9959060452713575
20
0.44867739881325369
30
0
10
3.1925874651141246
20
0.35154651245108781
30
0
10
3.3868633083677846
20
0.24070837612218543
30
0
10
3.5798302334149916
20
0.13415493318681745
30
0
10
3.7728791397049251
20
0.049811842392163533
30
0
10
3.9673428704157865
20
0.0014406466363305192
30
0
10
4.1641682990656772
20
-0.0050696904816787264
30
0
10
4.3635188672411438
20
0.023502633519073168
30
0
10
4.564943457613432
20
0.071628407959783855
30
0
10
4.7676452187928184
20
0.12044529896323353
30
0
10
4.9707196810946659
20
0.15278487312519529
30
0
10
5.1733933527846423
20
0.15803545785944631
30
0
10
5.3752936049456714
20
0.13795623944937307
30
0
10
5.5763829042696997
20
0.10321925221264601
30
0
10
5.7768399148414087
20
0.068533086269463889
30
0
10
5.9769585008457815
20
0.048182695866500092
30
0
10
6.1770430646732963
20
0.051618712715421657
30
0
10
6.3772964085557229
20
0.078425487334021979
30
0
10
6.5778269291543161
20
0.1209649002465899
30
0
10
6.7786707775687018
20
0.16792260112101814
30
0
10
6.9798085151436755
20
0.20757659193883887
30
0
10
7.1811837375622067
20
0.23104857165995168
30
0
10
7.3827212029194875
20
0.23591592435324371
30
0
10
7.5843380920223105
20
0.2246882685898027
30
0
10
7.7859542494316036
20
0.20276315187680358
30
0
10
7.9875029433399272
20
0.17655988546806611
30
0
10
8.1889411052355303
20
0.15162527529969347
30
0
10
8.3902607390771742
20
0.1306362699301207
30
0
10
8.5914800831872427
20
0.11400446954439493
30
0
10
8.7926336331952317
20
0.10063968864563766
30
0
10
8.9937625864028004
20
0.088653777082960294
30
0
10
9.194905238336645
20
0.076079760378708478
30
0
10
9.3960871232397629
20
0.06160278798588395
30
0
10
9.5973233900945161
20
0.044443623595178922
30
0
10
9.7583619014840153
20
0.028261849988213107
30
0
10
9.8791697093858772
20
0.014689166367370934
30
0
10
9.9597210952637543
20
0.0050027195706427328
30
0
10
10
20
0
30
0
0
SPLINE
5
104
100
AcDbEntity
8
0
100
AcDbSpline
70
4
71
5
72
61
73
55
74
0
42
0.000000001
43
0.0000000001
44
0.0000000001
40
0
40
0
40
0
40
0
40
0
40
0
40
0.02
40
0.040000000000000001
40
0.059999999999999998
40
0.080000000000000002
40
0.10000000000000001
40
0.12000000000000001
40
0.14000000000000001
40
0.16
40
0.17999999999999999
40
0.19999999999999998
40
0.21999999999999997
40
0.23999999999999996
40
0.25999999999999995
40
0.27999999999999997
40
0.29999999999999999
40
0.32000000000000001
40
0.34000000000000002
40
0.36000000000000004
40
0.38000000000000006
40
0.40000000000000008
40
0.4200000000000001
40
0.44000000000000011
40
0.46000000000000013
40
0.48000000000000015
40
0.50000000000000011
40
0.52000000000000013
40
0.54000000000000015
40
0.56000000000000016
40
0.58000000000000018
40
0.6000000000000002
40
0.62000000000000022
40
0.64000000000000024
40
0.66000000000000025
40
0.68000000000000027
40
0.70000000000000029
40
0.72000000000000031
40
0.74000000000000032
40
0.76000000000000034
40
0.78000000000000036
40
0.80000000000000038
40
0.8200000000000004
40
0.84000000000000041
40
0.86000000000000043
40
0.88000000000000045
40
0.90000000000000047
40
0.92000000000000048
40
0.9400000000000005
40
0.96000000000000052
40
0.98000000000000054
40
1
40
1
40
1
40
1
40
1
40
1
41
1
41
1
41
1
41
1
41
1
41
1
41
1
41
1
41
1
41
1
41
1
41
1
41
1
41
1
41
1
41
1
41
1
41
1
41
1
41
1
41
1
41
1
41
1
41
1
41
1
41
1
41
1
41
1
41
1
41
1
41
1
41
1
41
1
41
1
41
1
41
1
41
1
41
1
41
1
41
1
41
1
41
1
41
1
41
1
41
1
41
1
41
1
41
1
41
1
41
1
41
1
41
1
41
1
41
1
41
1
10
0
20
3
30
0
10
0.039820923459849292
20
2.9931463716483608
30
0
10
0.11952597326201067
20
2.9794501843018235
30
0
10
0.2392731570137244
20
2.9589391074000941
30
0
10
0.39931553040269319
20
2.9316574895030567
30
0
10
0.59998590952090636
20
2.8978404143553043
30
0
10
0.80122604962698563
20
2.8648312470923716
30
0
10
1.0029387920246249
20
2.8336754786175615
30
0
10
1.204960053568499
20
2.8061199779862651
30
0
10
1.4070424067650102
20
2.784782142586351
30
0
10
1.6089139655236115
20
2.7725532716021837
30
0
10
1.8103367594237116
20
2.7720098261600774
30
0
10
2.01116429663369
20
2.7848263748589082
30
0
10
2.2114021235592416
20
2.8111733096120077
30
0
10
2.4112606281592446
20
2.8491517299600195
30
0
10
2.6110572329166191
20
2.89503091727495
30
0
10
2.8111251796423176
20
2.9434366546509292
30
0
10
3.0117212124252073
20
2.9875688419036979
30
0
10
3.2129306484649218
20
3.019366415912148
30
0
10
3.4145814654730007
20
3.0297917765533051
30
0
10
3.6163286780235726
20
3.0110379133500342
30
0
10
3.8177301486399919
20
2.958685261447616
30
0
10
4.0183246399867967
20
2.8738020833866318
30
0
10
4.2177103645631959
20
2.7652774636591544
30
0
10
4.4156189644229666
20
2.6515179512847764
30
0
10
4.6119314189892711
20
2.5549119688090811
30
0
10
4.8066985888627691
20
2.4968340843163221
30
0
10
5.0001605492576173
20
2.492441481219632
30
0
10
5.1927668263143465
20
2.54555190131203
30
0
10
5.3851972415855878
20
2.643441051833308
30
0
10
5.5782281409453862
20
2.7632229599601836
30
0
10
5.7726010782398776
20
2.8781114080844592
30
0
10
5.9688859867137412
20
2.9638935263508568
30
0
10
6.1673568198747706
20
3.0048951099279413
30
0
10
6.3678333601157231
20
3.0012892213097455
30
0
10
6.5698048289250064
20
2.9651426117305659
30
0
10
6.7725992570626872
20
2.9146196543547176
30
0
10
6.9755395387797634
20
2.8687420185270796
30
0
10
7.1780975115036085
20
2.8421696637424732
30
0
10
7.3800688012722286
20
2.8393074711605748
30
0
10
7.5815024183369681
20
2.856613186246137
30
0
10
7.7825994098715432
20
2.8859454116825347
30
0
10
7.9836218644236858
20
2.9175650204512009
30
0
10
8.184800433219646
20
2.9431864202535123
30
0
10
8.3862354302522455
20
2.9592477105475963
30
0
10
8.5879232749509793
20
2.9659347765737323
30
0
10
8.7897932593898496
20
2.9658564090575377
30
0
10
8.9917405514565338
20
2.9628466573221566
30
0
10
9.1936602161045542
20
2.9607341462282175
30
0
10
9.3954819785483465
20
2.9620828043531562
30
0
10
9.5971642230644303
20
2.9684112288959765
30
0
10
9.7583819024555876
20
2.9780600514974869
30
0
10
9.8792201176357732
20
2.9879851371559152
30
0
10
9.9597455946598377
20
2.9957960214239221
30
0
10
10
20
3
30
0
0
ENDSEC
0
SECTION
2
OBJECTS
0
DICTIONARY
5
C
100
AcDbDictionary
3
ACAD_GROUP
350
D
3
ACAD_MLINESTYLE
350
17
0
DICTIONARY
5
D
100
AcDbDictionary
0
DICTIONARY
5
1A
330
C
100
AcDbDictionary
0
DICTIONARY
5
17
100
AcDbDictionary
0
ENDSEC
0
EOF
