0
SECTION
2
HEADER
9
$INSUNITS
70
4
9
$ACADVER
1
AC1014
9
$HANDSEED
5
FFFF
0
ENDSEC
0
SECTION
2
TABLES
0
TABLE
2
VPORT
5
8
100
AcDbSymbolTable
0
ENDTAB
0
TABLE
2
LTYPE
5
5
100
AcDbSymbolTable
0
LTYPE
5
14
100
AcDbSymbolTableRecord
100
AcDbLinetypeTableRecord
2
BYBLOCK
70
0
0
LTYPE
5
15
100
AcDbSymbolTableRecord
100
AcDbLinetypeTableRecord
2
BYLAYER
70
0
0
ENDTAB
0
TABLE
2
LAYER
5
2
100
AcDbSymbolTable
70
2
0
LAYER
5
50
100
AcDbSymbolTableRecord
100
AcDbLayerTableRecord
2
0
70
0
6
CONTINUOUS
0
ENDTAB
0
TABLE
2
STYLE
5
3
100
AcDbSymbolTable
70
1
0
STYLE
5
11
100
AcDbSymbolTableRecord
100
AcDbTextStyleTableRecord
2
STANDARD
70
0
0
ENDTAB
0
TABLE
2
VIEW
5
6
100
AcDbSymbolTable
70
0
0
ENDTAB
0
TABLE
2
UCS
5
7
100
AcDbSymbolTable
70
0
0
ENDTAB
0
TABLE
2
APPID
5
9
100
AcDbSymbolTable
70
2
0
APPID
5
12
100
AcDbSymbolTableRecord
100
AcDbRegAppTableRecord
2
ACAD
70
0
0
ENDTAB
0
TABLE
2
DIMSTYLE
5
A
100
AcDbSymbolTable
70
1
0
ENDTAB
0
TABLE
2
BLOCK_RECORD
5
1
100
AcDbSymbolTable
70
1
0
BLOCK_RECORD
5
1F
100
AcDbSymbolTableRecord
100
AcDbBlockTableRecord
2
*MODEL_SPACE
0
BLOCK_RECORD
5
1B
100
AcDbSymbolTableRecord
100
AcDbBlockTableRecord
2
*PAPER_SPACE
0
ENDTAB
0
ENDSEC
0
SECTION
2
BLOCKS
0
BLOCK
5
20
100
AcDbEntity
100
AcDbBlockBegin
2
*MODEL_SPACE
0
ENDBLK
5
21
100
AcDbEntity
100
AcDbBlockEnd
0
BLOCK
5
1C
100
AcDbEntity
100
AcDbBlockBegin
2
*PAPER_SPACE
0
ENDBLK
5
1D
100
AcDbEntity
100
AcDbBlockEnd
0
ENDSEC
0
SECTION
2
ENTITIES
0
SPLINE
5
100
100
AcDbEntity
8
0
100
AcDbSpline
70
4
71
5
72
16
73
10
74
0
42
0.000000001
43
0.0000000001
44
0.0000000001
40
0
40
0
40
0
40
0
40
0
40
0
40
0.20000000000000001
40
0.40000000000000002
40
0.60000000000000009
40
0.80000000000000004
40
1
40
1
40
1
40
1
40
1
40
1
41
1
41
1
41
1
41
1
41
1
41
1
41
1
41
1
41
1
41
1
10
0
20
0
30
0
10
0
20
0.12000000000003158
30
0
10
0
20
0.36000000000007704
30
0
10
0
20
0.72000000000009301
30
0
10
0
20
1.2000000000000313
30
0
10
0
20
1.7999999999999146
30
0
10
0
20
2.2799999999998684
30
0
10
0
20
2.6399999999999042
30
0
10
0
20
2.8799999999999617
30
0
10
0
20
3
30
0
0
SPLINE
5
101
100
AcDbEntity
8
0
100
AcDbSpline
70
4
71
5
72
16
73
10
74
0
42
0.000000001
43
0.0000000001
44
0.0000000001
40
0
40
0
40
0
40
0
40
0
40
0
40
0.20000000000000001
40
0.40000000000000002
40
0.60000000000000009
40
0.80000000000000004
40
1
40
1
40
1
40
1
40
1
40
1
41
1
41
1
41
1
41
1
41
1
41
1
41
1
41
1
41
1
41
1
10
10
20
0
30
0
10
9.9999999999997495
20
0.12000000000003158
30
0
10
9.9999999999993197
20
0.36000000000007704
30
0
10
9.9999999999989129
20
0.72000000000009301
30
0
10
9.9999999999987672
20
1.2000000000000313
30
0
10
9.9999999999990248
20
1.7999999999999146
30
0
10
9.9999999999993889
20
2.2799999999998684
30
0
10
9.9999999999996998
20
2.6399999999999042
30
0
10
9.9999999999999005
20
2.8799999999999617
30
0
10
10
20
3
30
0
0
SPLINE
5
102
100
AcDbEntity
8
0
100
AcDbSpline
70
4
71
5
72
16
73
10
74
0
42
0.000000001
43
0.0000000001
44
0.0000000001
40
0
40
0
40
0
40
0
40
0
40
0
40
0.20000000000000001
40
0.40000000000000002
40
0.60000000000000009
40
0.80000000000000004
40
1
40
1
40
1
40
1
40
1
40
1
41
1
41
1
41
1
41
1
41
1
41
1
41
1
41
1
41
1
41
1
10
0
20
1.5
30
0
10
0.40000000000047375
20
1.499999999999694
30
0
10
1.2000000000012774
20
1.4999999999991638
30
0
10
2.4000000000020547
20
1.4999999999986278
30
0
10
4.0000000000023546
20
1.4999999999983737
30
0
10
6.0000000000019584
20
1.4999999999985913
30
0
10
7.6000000000012928
20
1.4999999999990359
30
0
10
8.800000000000697
20
1.4999999999994786
30
0
10
9.6000000000002395
20
1.4999999999998188
30
0
10
10
20
1.5
30
0
0
SPLINE
5
103
100
AcDbEntity
8
0
100
AcDbSpline
70
4
71
5
72
61
73
55
74
0
42
0.000000001
43
0.0000000001
44
0.0000000001
40
0
40
0
40
0
40
0
40
0
40
0
40
0.02
40
0.040000000000000001
40
0.059999999999999998
40
0.080000000000000002
40
0.10000000000000001
40
0.12000000000000001
40
0.14000000000000001
40
0.16
40
0.17999999999999999
40
0.19999999999999998
40
0.21999999999999997
40
0.23999999999999996
40
0.25999999999999995
40
0.27999999999999997
40
0.29999999999999999
40
0.32000000000000001
40
0.34000000000000002
40
0.36000000000000004
40
0.38000000000000006
40
0.40000000000000008
40
0.4200000000000001
40
0.44000000000000011
40
0.46000000000000013
40
0.48000000000000015
40
0.50000000000000011
40
0.52000000000000013
40
0.54000000000000015
40
0.56000000000000016
40
0.58000000000000018
40
0.6000000000000002
40
0.62000000000000022
40
0.64000000000000024
40
0.66000000000000025
40
0.68000000000000027
40
0.70000000000000029
40
0.72000000000000031
40
0.74000000000000032
40
0.76000000000000034
40
0.78000000000000036
40
0.80000000000000038
40
0.8200000000000004
40
0.84000000000000041
40
0.86000000000000043
40
0.88000000000000045
40
0.90000000000000047
40
0.92000000000000048
40
0.9400000000000005
40
0.96000000000000052
40
0.98000000000000054
40
1
40
1
40
1
40
1
40
1
40
1
41
1
41
1
41
1
41
1
41
1
41
1
41
1
41
1
41
1
41
1
41
1
41
1
41
1
41
1
41
1
41
1
41
1
41
1
41
1
41
1
41
1
41
1
41
1
41
1
41
1
41
1
41
1
41
1
41
1
41
1
41
1
41
1
41
1
41
1
41
1
41
1
41
1
41
1
41
1
41
1
41
1
41
1
41
1
41
1
41
1
41
1
41
1
41
1
41
1
41
1
41
1
41
1
41
1
41
1
41
1
10
0
20
0
30
0
10
0.039217948166130126
20
0.012499960185246501
30
0
10
0.11775926185528952
20
0.037009286047714023
30
0
10
0.23588748347035288
20
0.072301479136378799
30
0
10
0.39402470180071347
20
0.11641233477817092
30
0
10
0.59273234641556338
20
0.16644192680385109
30
0
10
0.79241584067596205
20
0.21078349226212928
30
0
10
0.99295111133028202
20
0.24828890983854857
30
0
10
1.1941288840555284
20
0.27706285927302893
30
0
10
1.3956303968324921
20
0.29424937573535048
30
0
10
1.5970934176284093
20
0.29695231251652399
30
0
10
1.7981810096575692
20
0.28319106142170458
30
0
10
1.9986494524599623
20
0.25284829320814711
30
0
10
2.198416394783131
20
0.20861945995441583
30
0
10
2.3976302358587138
20
0.15698666868799299
30
0
10
2.596584895122422
20
0.10629124603640625
30
0
10
2.7956339742915643
20
0.064795812193408908
30
0
10
2.9951049801522296
20
0.038739288068251686
30
0
10
3.1952144331795855
20
0.030418754695658998
30
0
10
3.3959798455224934
20
0.036173060057882657
30
0
10
3.5972748298814796
20
0.04877315234908404
30
0
10
3.7988870914227051
20
0.059903419485467027
30
0
10
4.0005750515361935
20
0.062602769614824832
30
0
10
4.2021249593269125
20
0.053728709568545245
30
0
10
4.403407686694857
20
0.036408831548494024
30
0
10
4.6043677728418171
20
0.017489631540126442
30
0
10
4.8050127766066808
20
0.0049948988986419536
30
0
10
5.00540263813755
20
0.0056030704841139277
30
0
10
5.2056393458716501
20
0.022074742168809287
30
0
10
5.405856203689102
20
0.050803877492319183
30
0
10
5.6061893726503129
20
0.084561241787591987
30
0
10
5.806749652332746
20
0.11512251164088871
30
0
10
6.007594479829411
20
0.13590751916040189
30
0
10
6.2086988819465461
20
0.14468000606237308
30
0
10
6.4099289656421519
20
0.14605597863278846
30
0
10
6.6110894866239125
20
0.14836213910062199
30
0
10
6.8119691586323805
20
0.16066499974040041
30
0
10
7.012386129929105
20
0.18978751325104998
30
0
10
7.2122348386839583
20
0.23721729013392437
30
0
10
7.4115285004734401
20
0.29635909102619196
30
0
10
7.6103631690530547
20
0.35591995861524806
30
0
10
7.8088859362692284
20
0.40297974925576374
30
0
10
8.0072619273478143
20
0.42614979735733111
30
0
10
8.2056414664089381
20
0.41875158815549041
30
0
10
8.4041283629549319
20
0.38184216257765713
30
0
10
8.60278961506401
20
0.32188802994821519
30
0
10
8.8016636818939951
20
0.24862273750432903
30
0
10
9.0007692045972902
20
0.17284779334485076
30
0
10
9.2001134777558384
20
0.10425963203427523
30
0
10
9.3997009583465694
20
0.049273269412531726
30
0
10
9.5995339162619047
20
0.011702650958638264
30
0
10
9.7595972811895813
20
-0.0029213144796707501
30
0
10
9.8797555867622684
20
-0.0049390330918503986
30
0
10
9.9599103281920982
20
-0.0023088926235249356
30
0
10
10
20
0
30
0
0
SPLINE
5
104
100
AcDbEntity
8
0
100
AcDbSpline
70
4
71
5
72
61
73
55
74
0
42
0.000000001
43
0.0000000001
44
0.0000000001
40
0
40
0
40
0
40
0
40
0
40
0
40
0.02
40
0.040000000000000001
40
0.059999999999999998
40
0.080000000000000002
40
0.10000000000000001
40
0.12000000000000001
40
0.14000000000000001
40
0.16
40
0.17999999999999999
40
0.19999999999999998
40
0.21999999999999997
40
0.23999999999999996
40
0.25999999999999995
40
0.27999999999999997
40
0.29999999999999999
40
0.32000000000000001
40
0.34000000000000002
40
0.36000000000000004
40
0.38000000000000006
40
0.40000000000000008
40
0.4200000000000001
40
0.44000000000000011
40
0.46000000000000013
40
0.48000000000000015
40
0.50000000000000011
40
0.52000000000000013
40
0.54000000000000015
40
0.56000000000000016
40
0.58000000000000018
40
0.6000000000000002
40
0.62000000000000022
40
0.64000000000000024
40
0.66000000000000025
40
0.68000000000000027
40
0.70000000000000029
40
0.72000000000000031
40
0.74000000000000032
40
0.76000000000000034
40
0.78000000000000036
40
0.80000000000000038
40
0.8200000000000004
40
0.84000000000000041
40
0.86000000000000043
40
0.88000000000000045
40
0.90000000000000047
40
0.92000000000000048
40
0.9400000000000005
40
0.96000000000000052
40
0.98000000000000054
40
1
40
1
40
1
40
1
40
1
40
1
41
1
41
1
41
1
41
1
41
1
41
1
41
1
41
1
41
1
41
1
41
1
41
1
41
1
41
1
41
1
41
1
41
1
41
1
41
1
41
1
41
1
41
1
41
1
41
1
41
1
41
1
41
1
41
1
41
1
41
1
41
1
41
1
41
1
41
1
41
1
41
1
41
1
41
1
41
1
41
1
41
1
41
1
41
1
41
1
41
1
41
1
41
1
41
1
41
1
41
1
41
1
41
1
41
1
41
1
41
1
10
0
20
3
30
0
10
0.039861799787124855
20
2.9927689733561196
30
0
10
0.11964223409188324
20
2.9783893114673727
30
0
10
0.23948339008564062
20
2.957066985549738
30
0
10
0.39961282635229978
20
2.9291319352251333
30
0
10
0.60033130426106296
20
2.8952533166167309
30
0
10
0.80156805650079166
20
2.8630602430302297
30
0
10
1.0032446019224395
20
2.8338401609509618
30
0
10
1.2052282320539591
20
2.8097438502255341
30
0
10
1.4073187231404907
20
2.7939881862973643
30
0
10
1.6092942014931073
20
2.7898751884839483
30
0
10
1.8109565387820667
20
2.7998170943697338
30
0
10
2.0121760954512231
20
2.824379288329133
30
0
10
2.2129388866503992
20
2.8612599439497863
30
0
10
2.4133874033239842
20
2.9044329036636629
30
0
10
2.6137501198838722
20
2.9461262907463972
30
0
10
2.8142761601090642
20
2.9786763357914885
30
0
10
3.0151694096402446
20
2.9963832075440116
30
0
10
3.216519809408374
20
2.9974720736622644
30
0
10
3.4182440503279214
20
2.9857297156088576
30
0
10
3.620156081170518
20
2.9677484438107897
30
0
10
3.8220302428039172
20
2.9504034100832794
30
0
10
4.0236649566130671
20
2.9383433009081674
30
0
10
4.2249510358498945
20
2.9312409458964499
30
0
10
4.4259242084779444
20
2.9218010356352875
30
0
10
4.6266860230919491
20
2.9000041765539719
30
0
10
4.8273353992030525
20
2.856856522756722
30
0
10
5.0278996063167209
20
2.7881496629975477
30
0
10
5.2282572790567041
20
2.6986455357056367
30
0
10
5.428088130479364
20
2.6048747570274324
30
0
10
5.6270053535417333
20
2.5284408970991907
30
0
10
5.8246701413876121
20
2.4902677054039501
30
0
10
6.0209093521000279
20
2.5046627232823102
30
0
10
6.2158411157819113
20
2.5730308691836461
30
0
10
6.4099720801671589
20
2.6789029509371036
30
0
10
6.6040136599263235
20
2.7960512777727775
30
0
10
6.7987229843673811
20
2.8954547510074145
30
0
10
6.994733719215259
20
2.9527315230469036
30
0
10
7.1923931376498906
20
2.9552852441305277
30
0
10
7.3915899016070741
20
2.9098611743754748
30
0
10
7.5919038930580172
20
2.8359948286953598
30
0
10
7.7927620099987651
20
2.75919899495576
30
0
10
7.9935921429178833
20
2.7042270217505902
30
0
10
8.1939756897903848
20
2.6884013242694365
30
0
10
8.3938066871189996
20
2.71464265558649
30
0
10
8.5932123981966573
20
2.7752095756819219
30
0
10
8.7924672479828754
20
2.8557351974220326
30
0
10
8.9919091823460189
20
2.939156273382558
30
0
10
9.1918563730814107
20
3.0096232666904514
30
0
10
9.3925207347612361
20
3.0565633488011947
30
0
10
9.5940272380074472
20
3.0737206490438336
30
0
10
9.7559551622047174
20
3.0611527572106652
30
0
10
9.8778162410573085
20
3.0364958498995387
30
0
10
9.9592413490518581
20
3.013292795153224
30
0
10
10
20
3
30
0
0
ENDSEC
0
SECTION
2
OBJECTS
0
DICTIONARY
5
C
100
AcDbDictionary
3
ACAD_GROUP
350
D
3
ACAD_MLINESTYLE
350
17
0
DICTIONARY
5
D
100
AcDbDictionary
0
DICTIONARY
5
1A
330
C
100
AcDbDictionary
0
DICTIONARY
5
17
100
AcDbDictionary
0
ENDSEC
0
EOF
