0
SECTION
2
HEADER
9
$INSUNITS
70
4
9
$ACADVER
1
AC1014
9
$HANDSEED
5
FFFF
0
ENDSEC
0
SECTION
2
TABLES
0
TABLE
2
VPORT
5
8
100
AcDbSymbolTable
0
ENDTAB
0
TABLE
2
LTYPE
5
5
100
AcDbSymbolTable
0
LTYPE
5
14
100
AcDbSymbolTableRecord
100
AcDbLinetypeTableRecord
2
BYBLOCK
70
0
0
LTYPE
5
15
100
AcDbSymbolTableRecord
100
AcDbLinetypeTableRecord
2
BYLAYER
70
0
0
ENDTAB
0
TABLE
2
LAYER
5
2
100
AcDbSymbolTable
70
2
0
LAYER
5
50
100
AcDbSymbolTableRecord
100
AcDbLayerTableRecord
2
0
70
0
6
CONTINUOUS
0
ENDTAB
0
TABLE
2
STYLE
5
3
100
AcDbSymbolTable
70
1
0
STYLE
5
11
100
AcDbSymbolTableRecord
100
AcDbTextStyleTableRecord
2
STANDARD
70
0
0
ENDTAB
0
TABLE
2
VIEW
5
6
100
AcDbSymbolTable
70
0
0
ENDTAB
0
TABLE
2
UCS
5
7
100
AcDbSymbolTable
70
0
0
ENDTAB
0
TABLE
2
APPID
5
9
100
AcDbSymbolTable
70
2
0
APPID
5
12
100
AcDbSymbolTableRecord
100
AcDbRegAppTableRecord
2
ACAD
70
0
0
ENDTAB
0
TABLE
2
DIMSTYLE
5
A
100
AcDbSymbolTable
70
1
0
ENDTAB
0
TABLE
2
BLOCK_RECORD
5
1
100
AcDbSymbolTable
70
1
0
BLOCK_RECORD
5
1F
100
AcDbSymbolTableRecord
100
AcDbBlockTableRecord
2
*MODEL_SPACE
0
BLOCK_RECORD
5
1B
100
AcDbSymbolTableRecord
100
AcDbBlockTableRecord
2
*PAPER_SPACE
0
ENDTAB
0
ENDSEC
0
SECTION
2
BLOCKS
0
BLOCK
5
20
100
AcDbEntity
100
AcDbBlockBegin
2
*MODEL_SPACE
0
ENDBLK
5
21
100
AcDbEntity
100
AcDbBlockEnd
0
BLOCK
5
1C
100
AcDbEntity
100
AcDbBlockBegin
2
*PAPER_SPACE
0
ENDBLK
5
1D
100
AcDbEntity
100
AcDbBlockEnd
0
ENDSEC
0
SECTION
2
ENTITIES
0
SPLINE
5
100
100
AcDbEntity
8
0
100
AcDbSpline
70
4
71
5
72
16
73
10
74
0
42
0.000000001
43
0.0000000001
44
0.0000000001
40
0
40
0
40
0
40
0
40
0
40
0
40
0.20000000000000001
40
0.40000000000000002
40
0.60000000000000009
40
0.80000000000000004
40
1
40
1
40
1
40
1
40
1
40
1
41
1
41
1
41
1
41
1
41
1
41
1
41
1
41
1
41
1
41
1
10
0
20
0
30
0
10
0
20
0.12000000000003158
30
0
10
0
20
0.36000000000007704
30
0
10
0
20
0.72000000000009301
30
0
10
0
20
1.2000000000000313
30
0
10
0
20
1.7999999999999146
30
0
10
0
20
2.2799999999998684
30
0
10
0
20
2.6399999999999042
30
0
10
0
20
2.8799999999999617
30
0
10
0
20
3
30
0
0
SPLINE
5
101
100
AcDbEntity
8
0
100
AcDbSpline
70
4
71
5
72
16
73
10
74
0
42
0.000000001
43
0.0000000001
44
0.0000000001
40
0
40
0
40
0
40
0
40
0
40
0
40
0.20000000000000001
40
0.40000000000000002
40
0.60000000000000009
40
0.80000000000000004
40
1
40
1
40
1
40
1
40
1
40
1
41
1
41
1
41
1
41
1
41
1
41
1
41
1
41
1
41
1
41
1
10
10
20
0
30
0
10
9.9999999999997495
20
0.12000000000003158
30
0
10
9.9999999999993197
20
0.36000000000007704
30
0
10
9.9999999999989129
20
0.72000000000009301
30
0
10
9.9999999999987672
20
1.2000000000000313
30
0
10
9.9999999999990248
20
1.7999999999999146
30
0
10
9.9999999999993889
20
2.2799999999998684
30
0
10
9.9999999999996998
20
2.6399999999999042
30
0
10
9.9999999999999005
20
2.8799999999999617
30
0
10
10
20
3
30
0
0
SPLINE
5
102
100
AcDbEntity
8
0
100
AcDbSpline
70
4
71
5
72
16
73
10
74
0
42
0.000000001
43
0.0000000001
44
0.0000000001
40
0
40
0
40
0
40
0
40
0
40
0
40
0.20000000000000001
40
0.40000000000000002
40
0.60000000000000009
40
0.80000000000000004
40
1
40
1
40
1
40
1
40
1
40
1
41
1
41
1
41
1
41
1
41
1
41
1
41
1
41
1
41
1
41
1
10
0
20
1.5
30
0
10
0.40000000000047375
20
1.499999999999694
30
0
10
1.2000000000012774
20
1.4999999999991638
30
0
10
2.4000000000020547
20
1.4999999999986278
30
0
10
4.0000000000023546
20
1.4999999999983737
30
0
10
6.0000000000019584
20
1.4999999999985913
30
0
10
7.6000000000012928
20
1.4999999999990359
30
0
10
8.800000000000697
20
1.4999999999994786
30
0
10
9.6000000000002395
20
1.4999999999998188
30
0
10
10
20
1.5
30
0
0
SPLINE
5
103
100
AcDbEntity
8
0
100
AcDbSpline
70
4
71
5
72
61
73
55
74
0
42
0.000000001
43
0.0000000001
44
0.0000000001
40
0
40
0
40
0
40
0
40
0
40
0
40
0.02
40
0.040000000000000001
40
0.059999999999999998
40
0.080000000000000002
40
0.10000000000000001
40
0.12000000000000001
40
0.14000000000000001
40
0.16
40
0.17999999999999999
40
0.19999999999999998
40
0.21999999999999997
40
0.23999999999999996
40
0.25999999999999995
40
0.27999999999999997
40
0.29999999999999999
40
0.32000000000000001
40
0.34000000000000002
40
0.36000000000000004
40
0.38000000000000006
40
0.40000000000000008
40
0.4200000000000001
40
0.44000000000000011
40
0.46000000000000013
40
0.48000000000000015
40
0.50000000000000011
40
0.52000000000000013
40
0.54000000000000015
40
0.56000000000000016
40
0.58000000000000018
40
0.6000000000000002
40
0.62000000000000022
40
0.64000000000000024
40
0.66000000000000025
40
0.68000000000000027
40
0.70000000000000029
40
0.72000000000000031
40
0.74000000000000032
40
0.76000000000000034
40
0.78000000000000036
40
0.80000000000000038
40
0.8200000000000004
40
0.84000000000000041
40
0.86000000000000043
40
0.88000000000000045
40
0.90000000000000047
40
0.92000000000000048
40
0.9400000000000005
40
0.96000000000000052
40
0.98000000000000054
40
1
40
1
40
1
40
1
40
1
40
1
41
1
41
1
41
1
41
1
41
1
41
1
41
1
41
1
41
1
41
1
41
1
41
1
41
1
41
1
41
1
41
1
41
1
41
1
41
1
41
1
41
1
41
1
41
1
41
1
41
1
41
1
41
1
41
1
41
1
41
1
41
1
41
1
41
1
41
1
41
1
41
1
41
1
41
1
41
1
41
1
41
1
41
1
41
1
41
1
41
1
41
1
41
1
41
1
41
1
41
1
41
1
41
1
41
1
41
1
41
1
10
0
20
0
30
0
10
0.039954100422269274
20
0.014758186604966254
30
0
10
0.11999592000189357
20
0.041176305301594419
30
0
10
0.2404595108359967
20
0.071508568270613415
30
0
10
0.40187983178820663
20
0.093350953550151494
30
0
10
0.60494366534653266
20
0.090793257784251083
30
0
10
0.8091440294270702
20
0.061944575187261354
30
0
10
1.0141743509321357
20
0.014000187377419631
30
0
10
1.2195161699861943
20
-0.040855281515509607
30
0
10
1.4243965949602044
20
-0.084507444600222456
30
0
10
1.6279567134163366
20
-0.097921473257816138
30
0
10
1.8294105805254053
20
-0.065923717191431003
30
0
10
2.0282020422666838
20
0.018157639261975396
30
0
10
2.2241766386137805
20
0.14722452783076834
30
0
10
2.4177081139862349
20
0.29698243682093961
30
0
10
2.6095111554809924
20
0.43518418967271599
30
0
10
2.8004890763329957
20
0.5294516491596577
30
0
10
2.9915677118085888
20
0.55573298972302787
30
0
10
3.1835377451806108
20
0.50628887741927819
30
0
10
3.3768868096459719
20
0.39851075959051763
30
0
10
3.5718393820186178
20
0.26536306576623769
30
0
10
3.7684042910032121
20
0.1452987730697442
30
0
10
3.9664185153037277
20
0.072057611021844881
30
0
10
4.1655926882870329
20
0.065266300072542693
30
0
10
4.3655536309455991
20
0.118677835067535
30
0
10
4.5659029792240426
20
0.20727601862699255
30
0
10
4.7662772776485394
20
0.2977500130833593
30
0
10
4.9664101526673319
20
0.35806356720868038
30
0
10
5.1661880614946938
20
0.3667290053676458
30
0
10
5.3657242632802449
20
0.3239866773216552
30
0
10
5.5652901373240118
20
0.24641030134838654
30
0
10
5.7652210898648555
20
0.15846622503748489
30
0
10
5.9658289600683378
20
0.08493277718363508
30
0
10
6.1673174966496616
20
0.043483619678663175
30
0
10
6.3696810706652043
20
0.035830461766381487
30
0
10
6.5727471799712252
20
0.051666026667926926
30
0
10
6.7762459677235469
20
0.075010989514318879
30
0
10
6.9798708510618743
20
0.089813450444459153
30
0
10
7.1833408176239306
20
0.085607354473659983
30
0
10
7.3864671034346383
20
0.063824538663418709
30
0
10
7.5891443139918726
20
0.034174077787763622
30
0
10
7.7913336593377824
20
0.010010236066034957
30
0
10
7.9930492157995374
20
0.0040483134597262306
30
0
10
8.1943431235415947
20
0.024002416547761338
30
0
10
8.3952912576993235
20
0.068063189813945157
30
0
10
8.5959833680961886
20
0.12751221510855892
30
0
10
8.796513517148572
20
0.1895681275612715
30
0
10
8.996970401903285
20
0.2401401995642147
30
0
10
9.1974277843577781
20
0.26660000896031927
30
0
10
9.3979346783284416
20
0.26058856145915382
30
0
10
9.5985202711468744
20
0.21716904974862777
30
0
10
9.7590632599653997
20
0.15058016488928042
30
0
10
9.879514521936084
20
0.082384344744495408
30
0
10
9.9598349153098162
20
0.028812734516933395
30
0
10
10
20
0
30
0
0
SPLINE
5
104
100
AcDbEntity
8
0
100
AcDbSpline
70
4
71
5
72
61
73
55
74
0
42
0.000000001
43
0.0000000001
44
0.0000000001
40
0
40
0
40
0
40
0
40
0
40
0
40
0.02
40
0.040000000000000001
40
0.059999999999999998
40
0.080000000000000002
40
0.10000000000000001
40
0.12000000000000001
40
0.14000000000000001
40
0.16
40
0.17999999999999999
40
0.19999999999999998
40
0.21999999999999997
40
0.23999999999999996
40
0.25999999999999995
40
0.27999999999999997
40
0.29999999999999999
40
0.32000000000000001
40
0.34000000000000002
40
0.36000000000000004
40
0.38000000000000006
40
0.40000000000000008
40
0.4200000000000001
40
0.44000000000000011
40
0.46000000000000013
40
0.48000000000000015
40
0.50000000000000011
40
0.52000000000000013
40
0.54000000000000015
40
0.56000000000000016
40
0.58000000000000018
40
0.6000000000000002
40
0.62000000000000022
40
0.64000000000000024
40
0.66000000000000025
40
0.68000000000000027
40
0.70000000000000029
40
0.72000000000000031
40
0.74000000000000032
40
0.76000000000000034
40
0.78000000000000036
40
0.80000000000000038
40
0.8200000000000004
40
0.84000000000000041
40
0.86000000000000043
40
0.88000000000000045
40
0.90000000000000047
40
0.92000000000000048
40
0.9400000000000005
40
0.96000000000000052
40
0.98000000000000054
40
1
40
1
40
1
40
1
40
1
40
1
41
1
41
1
41
1
41
1
41
1
41
1
41
1
41
1
41
1
41
1
41
1
41
1
41
1
41
1
41
1
41
1
41
1
41
1
41
1
41
1
41
1
41
1
41
1
41
1
41
1
41
1
41
1
41
1
41
1
41
1
41
1
41
1
41
1
41
1
41
1
41
1
41
1
41
1
41
1
41
1
41
1
41
1
41
1
41
1
41
1
41
1
41
1
41
1
41
1
41
1
41
1
41
1
41
1
41
1
41
1
10
0
20
3
30
0
10
0.041778425249245202
20
3.0227728391331943
30
0
10
0.12504098401654934
20
3.0633253112446428
30
0
10
0.24905194486671256
20
3.1091743357307644
30
0
10
0.41263300596947206
20
3.1403280455563443
30
0
10
0.6142019711612372
20
3.1303753579581119
30
0
10
0.81298791352559152
20
3.0749439954008828
30
0
10
1.0092478924896835
20
2.981002660406276
30
0
10
1.2034200986960815
20
2.8603553237678909
30
0
10
1.3961664834755896
20
2.7307439127774238
30
0
10
1.5882643799062925
20
2.6122324233449499
30
0
10
1.7805054466931414
20
2.5238305022363177
30
0
10
1.9735894436192063
20
2.4799190670785816
30
0
10
2.168025901653214
20
2.4869962349980708
30
0
10
2.3640164106764656
20
2.5396124108256628
30
0
10
2.5615145929201861
20
2.6237428230133202
30
0
10
2.7603102021447894
20
2.7211463309675361
30
0
10
2.9601059651031796
20
2.8134882915823738
30
0
10
3.1605931062570516
20
2.8862709108641842
30
0
10
3.361537793274441
20
2.933601618229071
30
0
10
3.5627804373077638
20
2.9567465959571204
30
0
10
3.7642145479121272
20
2.9612644935790753
30
0
10
3.9657724041982014
20
2.9545770479936961
30
0
10
4.1674087696480901
20
2.9435084334119721
30
0
10
4.3690834488560473
20
2.9314611294877762
30
0
10
4.5707628401799454
20
2.9191256385552715
30
0
10
4.7724252751250917
20
2.9058656382278563
30
0
10
4.9740654072665063
20
2.8908987169917992
30
0
10
5.1756982355416277
20
2.8744805202808932
30
0
10
5.3773654712983445
20
2.8593041224320341
30
0
10
5.5791169352216894
20
2.8493696623583293
30
0
10
5.7809888362332753
20
2.8485167052880032
30
0
10
5.9829824831712566
20
2.8590444322428081
30
0
10
6.1850442132676076
20
2.8803655236992824
30
0
10
6.3870406885493498
20
2.90743974892297
30
0
10
6.5888023381024983
20
2.9326218462991722
30
0
10
6.7901722097333215
20
2.9477866137802149
30
0
10
6.9910534951335421
20
2.9463722993114771
30
0
10
7.1914563355150936
20
2.9254129528046189
30
0
10
7.3915490544749742
20
2.8877157230994808
30
0
10
7.5915921048206068
20
2.8400203872573142
30
0
10
7.7918673404752532
20
2.79099613202404
30
0
10
7.992608581372024
20
2.7492924071586566
30
0
10
8.1939327658067427
20
2.7215971941479919
30
0
10
8.3957672557528724
20
2.7106099887912789
30
0
10
8.5979038364299356
20
2.7159981914514129
30
0
10
8.8000568615530472
20
2.7354517576971835
30
0
10
9.001919537931748
20
2.7656939349361047
30
0
10
9.2032210742166836
20
2.8035096542298699
30
0
10
9.4037830039702861
20
2.8467569692574934
30
0
10
9.6034997755361964
20
2.8941460276124698
30
0
10
9.7625559919918796
20
2.9348516789222705
30
0
10
9.8814375651152826
20
2.966853524297282
30
0
10
9.9605095825092089
20
2.9888421626288793
30
0
10
10
20
3
30
0
0
ENDSEC
0
SECTION
2
OBJECTS
0
DICTIONARY
5
C
100
AcDbDictionary
3
ACAD_GROUP
350
D
3
ACAD_MLINESTYLE
350
17
0
DICTIONARY
5
D
100
AcDbDictionary
0
DICTIONARY
5
1A
330
C
100
AcDbDictionary
0
DICTIONARY
5
17
100
AcDbDictionary
0
ENDSEC
0
EOF
