0
SECTION
2
HEADER
9
$INSUNITS
70
4
9
$ACADVER
1
AC1014
9
$HANDSEED
5
FFFF
0
ENDSEC
0
SECTION
2
TABLES
0
TABLE
2
VPORT
5
8
100
AcDbSymbolTable
0
ENDTAB
0
TABLE
2
LTYPE
5
5
100
AcDbSymbolTable
0
LTYPE
5
14
100
AcDbSymbolTableRecord
100
AcDbLinetypeTableRecord
2
BYBLOCK
70
0
0
LTYPE
5
15
100
AcDbSymbolTableRecord
100
AcDbLinetypeTableRecord
2
BYLAYER
70
0
0
ENDTAB
0
TABLE
2
LAYER
5
2
100
AcDbSymbolTable
70
2
0
LAYER
5
50
100
AcDbSymbolTableRecord
100
AcDbLayerTableRecord
2
0
70
0
6
CONTINUOUS
0
ENDTAB
0
TABLE
2
STYLE
5
3
100
AcDbSymbolTable
70
1
0
STYLE
5
11
100
AcDbSymbolTableRecord
100
AcDbTextStyleTableRecord
2
STANDARD
70
0
0
ENDTAB
0
TABLE
2
VIEW
5
6
100
AcDbSymbolTable
70
0
0
ENDTAB
0
TABLE
2
UCS
5
7
100
AcDbSymbolTable
70
0
0
ENDTAB
0
TABLE
2
APPID
5
9
100
AcDbSymbolTable
70
2
0
APPID
5
12
100
AcDbSymbolTableRecord
100
AcDbRegAppTableRecord
2
ACAD
70
0
0
ENDTAB
0
TABLE
2
DIMSTYLE
5
A
100
AcDbSymbolTable
70
1
0
ENDTAB
0
TABLE
2
BLOCK_RECORD
5
1
100
AcDbSymbolTable
70
1
0
BLOCK_RECORD
5
1F
100
AcDbSymbolTableRecord
100
AcDbBlockTableRecord
2
*MODEL_SPACE
0
BLOCK_RECORD
5
1B
100
AcDbSymbolTableRecord
100
AcDbBlockTableRecord
2
*PAPER_SPACE
0
ENDTAB
0
ENDSEC
0
SECTION
2
BLOCKS
0
BLOCK
5
20
100
AcDbEntity
100
AcDbBlockBegin
2
*MODEL_SPACE
0
ENDBLK
5
21
100
AcDbEntity
100
AcDbBlockEnd
0
BLOCK
5
1C
100
AcDbEntity
100
AcDbBlockBegin
2
*PAPER_SPACE
0
ENDBLK
5
1D
100
AcDbEntity
100
AcDbBlockEnd
0
ENDSEC
0
SECTION
2
ENTITIES
0
SPLINE
5
100
100
AcDbEntity
8
0
100
AcDbSpline
70
4
71
5
72
16
73
10
74
0
42
0.000000001
43
0.0000000001
44
0.0000000001
40
0
40
0
40
0
40
0
40
0
40
0
40
0.20000000000000001
40
0.40000000000000002
40
0.60000000000000009
40
0.80000000000000004
40
1
40
1
40
1
40
1
40
1
40
1
41
1
41
1
41
1
41
1
41
1
41
1
41
1
41
1
41
1
41
1
10
0
20
0
30
0
10
0
20
0.12000000000003158
30
0
10
0
20
0.36000000000007704
30
0
10
0
20
0.72000000000009301
30
0
10
0
20
1.2000000000000313
30
0
10
0
20
1.7999999999999146
30
0
10
0
20
2.2799999999998684
30
0
10
0
20
2.6399999999999042
30
0
10
0
20
2.8799999999999617
30
0
10
0
20
3
30
0
0
SPLINE
5
101
100
AcDbEntity
8
0
100
AcDbSpline
70
4
71
5
72
16
73
10
74
0
42
0.000000001
43
0.0000000001
44
0.0000000001
40
0
40
0
40
0
40
0
40
0
40
0
40
0.20000000000000001
40
0.40000000000000002
40
0.60000000000000009
40
0.80000000000000004
40
1
40
1
40
1
40
1
40
1
40
1
41
1
41
1
41
1
41
1
41
1
41
1
41
1
41
1
41
1
41
1
10
10
20
0
30
0
10
9.9999999999997495
20
0.12000000000003158
30
0
10
9.9999999999993197
20
0.36000000000007704
30
0
10
9.9999999999989129
20
0.72000000000009301
30
0
10
9.9999999999987672
20
1.2000000000000313
30
0
10
9.9999999999990248
20
1.7999999999999146
30
0
10
9.9999999999993889
20
2.2799999999998684
30
0
10
9.9999999999996998
20
2.6399999999999042
30
0
10
9.9999999999999005
20
2.8799999999999617
30
0
10
10
20
3
30
0
0
SPLINE
5
102
100
AcDbEntity
8
0
100
AcDbSpline
70
4
71
5
72
16
73
10
74
0
42
0.000000001
43
0.0000000001
44
0.0000000001
40
0
40
0
40
0
40
0
40
0
40
0
40
0.20000000000000001
40
0.40000000000000002
40
0.60000000000000009
40
0.80000000000000004
40
1
40
1
40
1
40
1
40
1
40
1
41
1
41
1
41
1
41
1
41
1
41
1
41
1
41
1
41
1
41
1
10
0
20
1.5
30
0
10
0.40000000000047375
20
1.499999999999694
30
0
10
1.2000000000012774
20
1.4999999999991638
30
0
10
2.4000000000020547
20
1.4999999999986278
30
0
10
4.0000000000023546
20
1.4999999999983737
30
0
10
6.0000000000019584
20
1.4999999999985913
30
0
10
7.6000000000012928
20
1.4999999999990359
30
0
10
8.800000000000697
20
1.4999999999994786
30
0
10
9.6000000000002395
20
1.4999999999998188
30
0
10
10
20
1.5
30
0
0
SPLINE
5
103
100
AcDbEntity
8
0
100
AcDbSpline
70
4
71
5
72
61
73
55
74
0
42
0.000000001
43
0.0000000001
44
0.0000000001
40
0
40
0
40
0
40
0
40
0
40
0
40
0.02
40
0.040000000000000001
40
0.059999999999999998
40
0.080000000000000002
40
0.10000000000000001
40
0.12000000000000001
40
0.14000000000000001
40
0.16
40
0.17999999999999999
40
0.19999999999999998
40
0.21999999999999997
40
0.23999999999999996
40
0.25999999999999995
40
0.27999999999999997
40
0.29999999999999999
40
0.32000000000000001
40
0.34000000000000002
40
0.36000000000000004
40
0.38000000000000006
40
0.40000000000000008
40
0.4200000000000001
40
0.44000000000000011
40
0.46000000000000013
40
0.48000000000000015
40
0.50000000000000011
40
0.52000000000000013
40
0.54000000000000015
40
0.56000000000000016
40
0.58000000000000018
40
0.6000000000000002
40
0.62000000000000022
40
0.64000000000000024
40
0.66000000000000025
40
0.68000000000000027
40
0.70000000000000029
40
0.72000000000000031
40
0.74000000000000032
40
0.76000000000000034
40
0.78000000000000036
40
0.80000000000000038
40
0.8200000000000004
40
0.84000000000000041
40
0.86000000000000043
40
0.88000000000000045
40
0.90000000000000047
40
0.92000000000000048
40
0.9400000000000005
40
0.96000000000000052
40
0.98000000000000054
40
1
40
1
40
1
40
1
40
1
40
1
41
1
41
1
41
1
41
1
41
1
41
1
41
1
41
1
41
1
41
1
41
1
41
1
41
1
41
1
41
1
41
1
41
1
41
1
41
1
41
1
41
1
41
1
41
1
41
1
41
1
41
1
41
1
41
1
41
1
41
1
41
1
41
1
41
1
41
1
41
1
41
1
41
1
41
1
41
1
41
1
41
1
41
1
41
1
41
1
41
1
41
1
41
1
41
1
41
1
41
1
41
1
41
1
41
1
41
1
41
1
10
0
20
0
30
0
10
0.040367251551985589
20
0.020165174022698809
30
0
10
0.12112437242691326
20
0.057693954988057579
30
0
10
0.24232790798889886
20
0.10558236654065502
30
0
10
0.40406841088061929
20
0.15261361840127341
30
0
10
0.60646436288752981
20
0.18390639675312664
30
0
10
0.80906161182087499
20
0.18943455969264997
30
0
10
1.0118216621589398
20
0.17273135281837257
30
0
10
1.2146790859699417
20
0.13980459485431618
30
0
10
1.4175366516645922
20
0.099647570456597861
30
0
10
1.6203023109535064
20
0.062006622436163693
30
0
10
1.8229254077658832
20
0.035231314442232181
30
0
10
2.0254307384257557
20
0.024198820576121577
30
0
10
2.2279595825390701
20
0.027948810665116695
30
0
10
2.4307910782464246
20
0.038150208089363896
30
0
10
2.6342214616735444
20
0.043667627114803369
30
0
10
2.8384529151556808
20
0.034683350186385992
30
0
10
3.0434874062593185
20
0.0066646969482069846
30
0
10
3.2489971274191074
20
-0.034827361320367102
30
0
10
3.4542673940409752
20
-0.071986428836466387
30
0
10
3.6584217330334057
20
-0.082886463538945743
30
0
10
3.8606109103279511
20
-0.048367031181295463
30
0
10
4.0602014276113003
20
0.041269228638100251
30
0
10
4.2569993494613083
20
0.17785410177539046
30
0
10
4.451347869170645
20
0.33283022208249385
30
0
10
4.6439096462258487
20
0.46922991851192003
30
0
10
4.8355095535520771
20
0.55097942715535231
30
0
10
5.0269586892781017
20
0.55286710006902551
30
0
10
5.2188755646135281
20
0.4711791812936284
30
0
10
5.4115404150002755
20
0.33136872885867874
30
0
10
5.605000158932234
20
0.17453841229028455
30
0
10
5.7991449117456035
20
0.04632367412176952
30
0
10
5.9937953523407419
20
-0.015216799738179639
30
0
10
6.1887843415111341
20
0.0089040093551441962
30
0
10
6.3840432695768357
20
0.10624416740669945
30
0
10
6.5795863824426357
20
0.24383472896571221
30
0
10
6.7754925697652606
20
0.37954217941282775
30
0
10
6.9718883943754859
20
0.47352144037484489
30
0
10
7.1689303787097627
20
0.49896024033165942
30
0
10
7.3667886229511286
20
0.45491588036320452
30
0
10
7.5656208697928937
20
0.35994188740339383
30
0
10
7.7655457326597723
20
0.24289678712790211
30
0
10
7.9666149350914859
20
0.1345652037811586
30
0
10
8.1687884317440744
20
0.059435296433771122
30
0
10
8.3719010549637112
20
0.026125630073893118
30
0
10
8.5756967774198998
20
0.030129534800226475
30
0
10
8.7798749514925305
20
0.05882002875286195
30
0
10
8.9841327471977319
20
0.095687694928815861
30
0
10
9.1882079152162426
20
0.12477660522886168
30
0
10
9.3919247595620661
20
0.13532709500304746
30
0
10
9.5951794789090545
20
0.12099709665634795
30
0
10
9.7573725103310185
20
0.087110808826591932
30
0
10
9.8787789027191391
20
0.048632693374534706
30
0
10
9.959610614564955
20
0.017177985380861752
30
0
10
10
20
0
30
0
0
SPLINE
5
104
100
AcDbEntity
8
0
100
AcDbSpline
70
4
71
5
72
61
73
55
74
0
42
0.000000001
43
0.0000000001
44
0.0000000001
40
0
40
0
40
0
40
0
40
0
40
0
40
0.02
40
0.040000000000000001
40
0.059999999999999998
40
0.080000000000000002
40
0.10000000000000001
40
0.12000000000000001
40
0.14000000000000001
40
0.16
40
0.17999999999999999
40
0.19999999999999998
40
0.21999999999999997
40
0.23999999999999996
40
0.25999999999999995
40
0.27999999999999997
40
0.29999999999999999
40
0.32000000000000001
40
0.34000000000000002
40
0.36000000000000004
40
0.38000000000000006
40
0.40000000000000008
40
0.4200000000000001
40
0.44000000000000011
40
0.46000000000000013
40
0.48000000000000015
40
0.50000000000000011
40
0.52000000000000013
40
0.54000000000000015
40
0.56000000000000016
40
0.58000000000000018
40
0.6000000000000002
40
0.62000000000000022
40
0.64000000000000024
40
0.66000000000000025
40
0.68000000000000027
40
0.70000000000000029
40
0.72000000000000031
40
0.74000000000000032
40
0.76000000000000034
40
0.78000000000000036
40
0.80000000000000038
40
0.8200000000000004
40
0.84000000000000041
40
0.86000000000000043
40
0.88000000000000045
40
0.90000000000000047
40
0.92000000000000048
40
0.9400000000000005
40
0.96000000000000052
40
0.98000000000000054
40
1
40
1
40
1
40
1
40
1
40
1
41
1
41
1
41
1
41
1
41
1
41
1
41
1
41
1
41
1
41
1
41
1
41
1
41
1
41
1
41
1
41
1
41
1
41
1
41
1
41
1
41
1
41
1
41
1
41
1
41
1
41
1
41
1
41
1
41
1
41
1
41
1
41
1
41
1
41
1
41
1
41
1
41
1
41
1
41
1
41
1
41
1
41
1
41
1
41
1
41
1
41
1
41
1
41
1
41
1
41
1
41
1
41
1
41
1
41
1
41
1
10
0
20
3
30
0
10
0.040407960675970141
20
3.0098152023949614
30
0
10
0.12119893877703403
20
3.0270883868353442
30
0
10
0.24231057624763486
20
3.0459264653344404
30
0
10
0.40364300207993054
20
3.0568916124361412
30
0
10
0.60505859416986874
20
3.0476418991178718
30
0
10
0.80622418159144738
20
3.0174289900049835
30
0
10
1.0071403963255987
20
2.9703021297496317
30
0
10
1.2078089182770695
20
2.9131049723029379
30
0
10
1.4082330245442298
20
2.8561135961752422
30
0
10
1.6084234876619252
20
2.8105865883879551
30
0
10
1.8084043971562056
20
2.7863956821375462
30
0
10
2.0082189164419626
20
2.7896548165575616
30
0
10
2.2079354250879892
20
2.8202696260578328
30
0
10
2.4076527169419339
20
2.8697046569663005
30
0
10
2.6074799221509544
20
2.9247409772879922
30
0
10
2.8075172270485331
20
2.9710292416772215
30
0
10
3.007836512005198
20
2.996679060313939
30
0
10
3.2084614256631072
20
2.9959170304976523
30
0
10
3.4093490586537638
20
2.9725056974656021
30
0
10
3.6104174935798792
20
2.9361703430099171
30
0
10
3.8115719227235774
20
2.899255305419576
30
0
10
4.0127308075525594
20
2.8733493217924826
30
0
10
4.2138530434690882
20
2.8658198003789033
30
0
10
4.4149619266686102
20
2.8766741385877403
30
0
10
4.6161154002398082
20
2.9010490481735216
30
0
10
4.8173789157190408
20
2.9314105064793545
30
0
10
5.0187979761817072
20
2.9598111548251675
30
0
10
5.2203693148315722
20
2.980219350221712
30
0
10
5.4220167421492125
20
2.9905363911856488
30
0
10
5.6236187003548288
20
2.9911207990928323
30
0
10
5.8250320368938677
20
2.9835614370780821
30
0
10
6.0261166367278243
20
2.9694074761836244
30
0
10
6.226760862713018
20
2.9488078175407373
30
0
10
6.426903261509568
20
2.9195073830774199
30
0
10
6.6265246268854057
20
2.878536177021541
30
0
10
6.8256432196015702
20
2.8236538271572638
30
0
10
7.0243088125672672
20
2.7548282388366157
30
0
10
7.2225975273474337
20
2.6758476032329046
30
0
10
7.4206058870968805
20
2.5954702292270775
30
0
10
7.6184402420191191
20
2.5248055461164327
30
0
10
7.8162065600572657
20
2.4750436813054444
30
0
10
8.0140002428879562
20
2.45509183829357
30
0
10
8.2118955614041109
20
2.4691550873125974
30
0
10
8.4099362047261206
20
2.5145861063509676
30
0
10
8.6081427188422825
20
2.5840800412850995
30
0
10
8.806518908253345
20
2.6676037031749891
30
0
10
9.0050585540285795
20
2.7544078456333549
30
0
10
9.2037520104503816
20
2.8350190232235919
30
0
10
9.4025926911379614
20
2.9031888387616211
30
0
10
9.6015764022248646
20
2.955194435671685
30
0
10
9.7608759606380762
20
2.9824044939169991
30
0
10
9.8804135334317209
20
2.9944514232268316
30
0
10
9.9601331879330672
20
2.9987693673194382
30
0
10
10
20
3
30
0
0
ENDSEC
0
SECTION
2
OBJECTS
0
DICTIONARY
5
C
100
AcDbDictionary
3
ACAD_GROUP
350
D
3
ACAD_MLINESTYLE
350
17
0
DICTIONARY
5
D
100
AcDbDictionary
0
DICTIONARY
5
1A
330
C
100
AcDbDictionary
0
DICTIONARY
5
17
100
AcDbDictionary
0
ENDSEC
0
EOF
