0
SECTION
2
HEADER
9
$INSUNITS
70
4
9
$ACADVER
1
AC1014
9
$HANDSEED
5
FFFF
0
ENDSEC
0
SECTION
2
TABLES
0
TABLE
2
VPORT
5
8
100
AcDbSymbolTable
0
ENDTAB
0
TABLE
2
LTYPE
5
5
100
AcDbSymbolTable
0
LTYPE
5
14
100
AcDbSymbolTableRecord
100
AcDbLinetypeTableRecord
2
BYBLOCK
70
0
0
LTYPE
5
15
100
AcDbSymbolTableRecord
100
AcDbLinetypeTableRecord
2
BYLAYER
70
0
0
ENDTAB
0
TABLE
2
LAYER
5
2
100
AcDbSymbolTable
70
2
0
LAYER
5
50
100
AcDbSymbolTableRecord
100
AcDbLayerTableRecord
2
0
70
0
6
CONTINUOUS
0
ENDTAB
0
TABLE
2
STYLE
5
3
100
AcDbSymbolTable
70
1
0
STYLE
5
11
100
AcDbSymbolTableRecord
100
AcDbTextStyleTableRecord
2
STANDARD
70
0
0
ENDTAB
0
TABLE
2
VIEW
5
6
100
AcDbSymbolTable
70
0
0
ENDTAB
0
TABLE
2
UCS
5
7
100
AcDbSymbolTable
70
0
0
ENDTAB
0
TABLE
2
APPID
5
9
100
AcDbSymbolTable
70
2
0
APPID
5
12
100
AcDbSymbolTableRecord
100
AcDbRegAppTableRecord
2
ACAD
70
0
0
ENDTAB
0
TABLE
2
DIMSTYLE
5
A
100
AcDbSymbolTable
70
1
0
ENDTAB
0
TABLE
2
BLOCK_RECORD
5
1
100
AcDbSymbolTable
70
1
0
BLOCK_RECORD
5
1F
100
AcDbSymbolTableRecord
100
AcDbBlockTableRecord
2
*MODEL_SPACE
0
BLOCK_RECORD
5
1B
100
AcDbSymbolTableRecord
100
AcDbBlockTableRecord
2
*PAPER_SPACE
0
ENDTAB
0
ENDSEC
0
SECTION
2
BLOCKS
0
BLOCK
5
20
100
AcDbEntity
100
AcDbBlockBegin
2
*MODEL_SPACE
0
ENDBLK
5
21
100
AcDbEntity
100
AcDbBlockEnd
0
BLOCK
5
1C
100
AcDbEntity
100
AcDbBlockBegin
2
*PAPER_SPACE
0
ENDBLK
5
1D
100
AcDbEntity
100
AcDbBlockEnd
0
ENDSEC
0
SECTION
2
ENTITIES
0
SPLINE
5
100
100
AcDbEntity
8
0
100
AcDbSpline
70
4
71
5
72
16
73
10
74
0
42
0.000000001
43
0.0000000001
44
0.0000000001
40
0
40
0
40
0
40
0
40
0
40
0
40
0.20000000000000001
40
0.40000000000000002
40
0.60000000000000009
40
0.80000000000000004
40
1
40
1
40
1
40
1
40
1
40
1
41
1
41
1
41
1
41
1
41
1
41
1
41
1
41
1
41
1
41
1
10
0
20
0
30
0
10
0
20
0.12000000000003158
30
0
10
0
20
0.36000000000007704
30
0
10
0
20
0.72000000000009301
30
0
10
0
20
1.2000000000000313
30
0
10
0
20
1.7999999999999146
30
0
10
0
20
2.2799999999998684
30
0
10
0
20
2.6399999999999042
30
0
10
0
20
2.8799999999999617
30
0
10
0
20
3
30
0
0
SPLINE
5
101
100
AcDbEntity
8
0
100
AcDbSpline
70
4
71
5
72
16
73
10
74
0
42
0.000000001
43
0.0000000001
44
0.0000000001
40
0
40
0
40
0
40
0
40
0
40
0
40
0.20000000000000001
40
0.40000000000000002
40
0.60000000000000009
40
0.80000000000000004
40
1
40
1
40
1
40
1
40
1
40
1
41
1
41
1
41
1
41
1
41
1
41
1
41
1
41
1
41
1
41
1
10
10
20
0
30
0
10
9.9999999999997495
20
0.12000000000003158
30
0
10
9.9999999999993197
20
0.36000000000007704
30
0
10
9.9999999999989129
20
0.72000000000009301
30
0
10
9.9999999999987672
20
1.2000000000000313
30
0
10
9.9999999999990248
20
1.7999999999999146
30
0
10
9.9999999999993889
20
2.2799999999998684
30
0
10
9.9999999999996998
20
2.6399999999999042
30
0
10
9.9999999999999005
20
2.8799999999999617
30
0
10
10
20
3
30
0
0
SPLINE
5
102
100
AcDbEntity
8
0
100
AcDbSpline
70
4
71
5
72
16
73
10
74
0
42
0.000000001
43
0.0000000001
44
0.0000000001
40
0
40
0
40
0
40
0
40
0
40
0
40
0.20000000000000001
40
0.40000000000000002
40
0.60000000000000009
40
0.80000000000000004
40
1
40
1
40
1
40
1
40
1
40
1
41
1
41
1
41
1
41
1
41
1
41
1
41
1
41
1
41
1
41
1
10
0
20
1.5
30
0
10
0.40000000000047375
20
1.499999999999694
30
0
10
1.2000000000012774
20
1.4999999999991638
30
0
10
2.4000000000020547
20
1.4999999999986278
30
0
10
4.0000000000023546
20
1.4999999999983737
30
0
10
6.0000000000019584
20
1.4999999999985913
30
0
10
7.6000000000012928
20
1.4999999999990359
30
0
10
8.800000000000697
20
1.4999999999994786
30
0
10
9.6000000000002395
20
1.4999999999998188
30
0
10
10
20
1.5
30
0
0
SPLINE
5
103
100
AcDbEntity
8
0
100
AcDbSpline
70
4
71
5
72
61
73
55
74
0
42
0.000000001
43
0.0000000001
44
0.0000000001
40
0
40
0
40
0
40
0
40
0
40
0
40
0.02
40
0.040000000000000001
40
0.059999999999999998
40
0.080000000000000002
40
0.10000000000000001
40
0.12000000000000001
40
0.14000000000000001
40
0.16
40
0.17999999999999999
40
0.19999999999999998
40
0.21999999999999997
40
0.23999999999999996
40
0.25999999999999995
40
0.27999999999999997
40
0.29999999999999999
40
0.32000000000000001
40
0.34000000000000002
40
0.36000000000000004
40
0.38000000000000006
40
0.40000000000000008
40
0.4200000000000001
40
0.44000000000000011
40
0.46000000000000013
40
0.48000000000000015
40
0.50000000000000011
40
0.52000000000000013
40
0.54000000000000015
40
0.56000000000000016
40
0.58000000000000018
40
0.6000000000000002
40
0.62000000000000022
40
0.64000000000000024
40
0.66000000000000025
40
0.68000000000000027
40
0.70000000000000029
40
0.72000000000000031
40
0.74000000000000032
40
0.76000000000000034
40
0.78000000000000036
40
0.80000000000000038
40
0.8200000000000004
40
0.84000000000000041
40
0.86000000000000043
40
0.88000000000000045
40
0.90000000000000047
40
0.92000000000000048
40
0.9400000000000005
40
0.96000000000000052
40
0.98000000000000054
40
1
40
1
40
1
40
1
40
1
40
1
41
1
41
1
41
1
41
1
41
1
41
1
41
1
41
1
41
1
41
1
41
1
41
1
41
1
41
1
41
1
41
1
41
1
41
1
41
1
41
1
41
1
41
1
41
1
41
1
41
1
41
1
41
1
41
1
41
1
41
1
41
1
41
1
41
1
41
1
41
1
41
1
41
1
41
1
41
1
41
1
41
1
41
1
41
1
41
1
41
1
41
1
41
1
41
1
41
1
41
1
41
1
41
1
41
1
41
1
41
1
10
0
20
0
30
0
10
0.040249195534373006
20
0.0036109842527653384
30
0
10
0.1207711084822633
20
0.010536158233180347
30
0
10
0.2416245441624052
20
0.020033538893137165
30
0
10
0.40290367751206713
20
0.03091476412989641
30
0
10
0.60473022117775077
20
0.041568988894973916
30
0
10
0.80676013667839397
20
0.049354921547810057
30
0
10
1.0089443443263979
20
0.054440486259502971
30
0
10
1.211199924089974
20
0.057111875939033226
30
0
10
1.413402792230706
20
0.05781199557879025
30
0
10
1.6154194803296251
20
0.057336221493730508
30
0
10
1.8171379303555506
20
0.057033422227658344
30
0
10
2.0184976730013777
20
0.058985597275082624
30
0
10
2.2195227706091001
20
0.06624662094752401
30
0
10
2.4203470005270242
20
0.082921492764868432
30
0
10
2.6211546288051339
20
0.11260756123886627
30
0
10
2.8221266810574184
20
0.15691298733801062
30
0
10
3.0233869368692918
20
0.21402782021450828
30
0
10
3.2249437751060848
20
0.27706258423100377
30
0
10
3.426645533429626
20
0.333054466506707
30
0
10
3.628250148289589
20
0.36738646832635147
30
0
10
3.8294850626740966
20
0.36781047203862649
30
0
10
4.030108690198781
20
0.32841267016034231
30
0
10
4.2299760409603335
20
0.25411646279808298
30
0
10
4.429088693243088
20
0.16351655146073288
30
0
10
4.6275439768112046
20
0.081338327159017551
30
0
10
4.825495415844796
20
0.031985562680205339
30
0
10
5.023110042364757
20
0.032891531164077198
30
0
10
5.2205247502610792
20
0.087426669737379739
30
0
10
5.4178099352688349
20
0.17944997479065142
30
0
10
5.6149998539440293
20
0.28215698085012114
30
0
10
5.8121168195860831
20
0.36562027123656216
30
0
10
6.0091973934481295
20
0.4047312593395016
30
0
10
6.2063184997779084
20
0.38717687365550246
30
0
10
6.4036215457071419
20
0.32087215505332234
30
0
10
6.6012799540310718
20
0.2264879884742787
30
0
10
6.7994691071784956
20
0.1306202947522683
30
0
10
6.9983353580257557
20
0.058729151916987535
30
0
10
7.1979654633988677
20
0.028201289844637566
30
0
10
7.3983554147768764
20
0.041279486163719327
30
0
10
7.5994262817264175
20
0.089415792621022727
30
0
10
7.8010401816616639
20
0.15767726703051421
30
0
10
8.0030160130757615
20
0.22910053554524124
30
0
10
8.2051451471596248
20
0.28908334207872743
30
0
10
8.4072070111448767
20
0.32969280181323246
30
0
10
8.6089815146717861
20
0.3480518219484483
30
0
10
8.8102615947757759
20
0.34480864383021459
30
0
10
9.0108655959995207
20
0.3225980249803474
30
0
10
9.2106501465080957
20
0.28448699509356423
30
0
10
9.40952193704058
20
0.23250475882670185
30
0
10
9.6074265168891593
20
0.16789666111407556
30
0
10
9.764955883679928
20
0.10661786914760948
30
0
10
9.8826528498542761
20
0.055365975581738808
30
0
10
9.9609175991343299
20
0.018847139823048972
30
0
10
10
20
0
30
0
0
SPLINE
5
104
100
AcDbEntity
8
0
100
AcDbSpline
70
4
71
5
72
61
73
55
74
0
42
0.000000001
43
0.0000000001
44
0.0000000001
40
0
40
0
40
0
40
0
40
0
40
0
40
0.02
40
0.040000000000000001
40
0.059999999999999998
40
0.080000000000000002
40
0.10000000000000001
40
0.12000000000000001
40
0.14000000000000001
40
0.16
40
0.17999999999999999
40
0.19999999999999998
40
0.21999999999999997
40
0.23999999999999996
40
0.25999999999999995
40
0.27999999999999997
40
0.29999999999999999
40
0.32000000000000001
40
0.34000000000000002
40
0.36000000000000004
40
0.38000000000000006
40
0.40000000000000008
40
0.4200000000000001
40
0.44000000000000011
40
0.46000000000000013
40
0.48000000000000015
40
0.50000000000000011
40
0.52000000000000013
40
0.54000000000000015
40
0.56000000000000016
40
0.58000000000000018
40
0.6000000000000002
40
0.62000000000000022
40
0.64000000000000024
40
0.66000000000000025
40
0.68000000000000027
40
0.70000000000000029
40
0.72000000000000031
40
0.74000000000000032
40
0.76000000000000034
40
0.78000000000000036
40
0.80000000000000038
40
0.8200000000000004
40
0.84000000000000041
40
0.86000000000000043
40
0.88000000000000045
40
0.90000000000000047
40
0.92000000000000048
40
0.9400000000000005
40
0.96000000000000052
40
0.98000000000000054
40
1
40
1
40
1
40
1
40
1
40
1
41
1
41
1
41
1
41
1
41
1
41
1
41
1
41
1
41
1
41
1
41
1
41
1
41
1
41
1
41
1
41
1
41
1
41
1
41
1
41
1
41
1
41
1
41
1
41
1
41
1
41
1
41
1
41
1
41
1
41
1
41
1
41
1
41
1
41
1
41
1
41
1
41
1
41
1
41
1
41
1
41
1
41
1
41
1
41
1
41
1
41
1
41
1
41
1
41
1
41
1
41
1
41
1
41
1
41
1
41
1
10
0
20
3
30
0
10
0.040164485633560121
20
3.0000234512334698
30
0
10
0.12050822510831521
20
2.999362138246334
30
0
10
0.2410681393016563
20
2.9962455130093923
30
0
10
0.40190335617200501
20
2.9878380133756943
30
0
10
0.60308880454680647
20
2.9704697124237658
30
0
10
0.80439598790081845
20
2.9469555190068841
30
0
10
1.0057851464372156
20
2.9187412541618625
30
0
10
1.207189310858783
20
2.8882645381043641
30
0
10
1.4085081161719706
20
2.8591890489541605
30
0
10
1.6096368838465112
20
2.8356709212451747
30
0
10
1.8104951247022218
20
2.821646652454322
30
0
10
2.0110546918961498
20
2.8201200870607956
30
0
10
2.2113696331624562
20
2.832430634401133
30
0
10
2.411601530066307
20
2.8575731553614347
30
0
10
2.6119578192187642
20
2.8926089963263317
30
0
10
2.8126336445773741
20
2.9330168776666277
30
0
10
3.0137535966301696
20
2.9730718198467736
30
0
10
3.2153105412170135
20
3.0061848123085557
30
0
10
3.4171133043001491
20
3.0253222289490229
30
0
10
3.6188701433515558
20
3.0244652241848016
30
0
10
3.8202651321954018
20
3.0000464955980783
30
0
10
4.0210352218586065
20
2.9523335898298386
30
0
10
4.2210514838813245
20
2.8870030658255246
30
0
10
4.4203862533821372
20
2.816192607373349
30
0
10
4.6192420084811436
20
2.7546417002716508
30
0
10
4.8178916351815122
20
2.7162018493659952
30
0
10
5.0166155353586408
20
2.7102961895453874
30
0
10
5.2156379628275822
20
2.7381805811660258
30
0
10
5.4150698619444713
20
2.7898689043135776
30
0
10
5.6149396398237474
20
2.8493553338629041
30
0
10
5.8152178128557459
20
2.8993009417695044
30
0
10
6.0158433860981564
20
2.9258148306722358
30
0
10
6.2167503375819111
20
2.9234370038532704
30
0
10
6.4178912751996355
20
2.8993827540039989
30
0
10
6.6192208858194519
20
2.8679185679242321
30
0
10
6.8206817093155685
20
2.8453293683333931
30
0
10
7.0221897182145812
20
2.8448159740631587
30
0
10
7.2236182423362481
20
2.871079690299184
30
0
10
7.4247873150599446
20
2.9159979018665676
30
0
10
7.6255016962581603
20
2.9642608696805657
30
0
10
7.8255851614017944
20
2.9981843865545543
30
0
10
8.02491510225863
20
3.0026910847363721
30
0
10
8.2234598217510726
20
2.9705417125769924
30
0
10
8.4213070781173442
20
2.9065497525555752
30
0
10
8.6186226813792466
20
2.823491901846368
30
0
10
8.8156159086060608
20
2.7388324186944359
30
0
10
9.0125028474088058
20
2.6711869129307573
30
0
10
9.2094697814388873
20
2.6368186789568919
30
0
10
9.4066390619559996
20
2.6463571325247131
30
0
10
9.6040838494790073
20
2.7061192001647498
30
0
10
9.7622888258094989
20
2.7965570571256171
30
0
10
9.8810879217919876
20
2.8887930818531555
30
0
10
9.960351880291487
20
2.9611242665725839
30
0
10
10
20
3
30
0
0
ENDSEC
0
SECTION
2
OBJECTS
0
DICTIONARY
5
C
100
AcDbDictionary
3
ACAD_GROUP
350
D
3
ACAD_MLINESTYLE
350
17
0
DICTIONARY
5
D
100
AcDbDictionary
0
DICTIONARY
5
1A
330
C
100
AcDbDictionary
0
DICTIONARY
5
17
100
AcDbDictionary
0
ENDSEC
0
EOF
