0
SECTION
2
HEADER
9
$INSUNITS
70
4
9
$ACADVER
1
AC1014
9
$HANDSEED
5
FFFF
0
ENDSEC
0
SECTION
2
TABLES
0
TABLE
2
VPORT
5
8
100
AcDbSymbolTable
0
ENDTAB
0
TABLE
2
LTYPE
5
5
100
AcDbSymbolTable
0
LTYPE
5
14
100
AcDbSymbolTableRecord
100
AcDbLinetypeTableRecord
2
BYBLOCK
70
0
0
LTYPE
5
15
100
AcDbSymbolTableRecord
100
AcDbLinetypeTableRecord
2
BYLAYER
70
0
0
ENDTAB
0
TABLE
2
LAYER
5
2
100
AcDbSymbolTable
70
2
0
LAYER
5
50
100
AcDbSymbolTableRecord
100
AcDbLayerTableRecord
2
0
70
0
6
CONTINUOUS
0
ENDTAB
0
TABLE
2
STYLE
5
3
100
AcDbSymbolTable
70
1
0
STYLE
5
11
100
AcDbSymbolTableRecord
100
AcDbTextStyleTableRecord
2
STANDARD
70
0
0
ENDTAB
0
TABLE
2
VIEW
5
6
100
AcDbSymbolTable
70
0
0
ENDTAB
0
TABLE
2
UCS
5
7
100
AcDbSymbolTable
70
0
0
ENDTAB
0
TABLE
2
APPID
5
9
100
AcDbSymbolTable
70
2
0
APPID
5
12
100
AcDbSymbolTableRecord
100
AcDbRegAppTableRecord
2
ACAD
70
0
0
ENDTAB
0
TABLE
2
DIMSTYLE
5
A
100
AcDbSymbolTable
70
1
0
ENDTAB
0
TABLE
2
BLOCK_RECORD
5
1
100
AcDbSymbolTable
70
1
0
BLOCK_RECORD
5
1F
100
AcDbSymbolTableRecord
100
AcDbBlockTableRecord
2
*MODEL_SPACE
0
BLOCK_RECORD
5
1B
100
AcDbSymbolTableRecord
100
AcDbBlockTableRecord
2
*PAPER_SPACE
0
ENDTAB
0
ENDSEC
0
SECTION
2
BLOCKS
0
BLOCK
5
20
100
AcDbEntity
100
AcDbBlockBegin
2
*MODEL_SPACE
0
ENDBLK
5
21
100
AcDbEntity
100
AcDbBlockEnd
0
BLOCK
5
1C
100
AcDbEntity
100
AcDbBlockBegin
2
*PAPER_SPACE
0
ENDBLK
5
1D
100
AcDbEntity
100
AcDbBlockEnd
0
ENDSEC
0
SECTION
2
ENTITIES
0
SPLINE
5
100
100
AcDbEntity
8
0
100
AcDbSpline
70
4
71
5
72
16
73
10
74
0
42
0.000000001
43
0.0000000001
44
0.0000000001
40
0
40
0
40
0
40
0
40
0
40
0
40
0.20000000000000001
40
0.40000000000000002
40
0.60000000000000009
40
0.80000000000000004
40
1
40
1
40
1
40
1
40
1
40
1
41
1
41
1
41
1
41
1
41
1
41
1
41
1
41
1
41
1
41
1
10
0
20
0
30
0
10
0
20
0.12000000000003158
30
0
10
0
20
0.36000000000007704
30
0
10
0
20
0.72000000000009301
30
0
10
0
20
1.2000000000000313
30
0
10
0
20
1.7999999999999146
30
0
10
0
20
2.2799999999998684
30
0
10
0
20
2.6399999999999042
30
0
10
0
20
2.8799999999999617
30
0
10
0
20
3
30
0
0
SPLINE
5
101
100
AcDbEntity
8
0
100
AcDbSpline
70
4
71
5
72
16
73
10
74
0
42
0.000000001
43
0.0000000001
44
0.0000000001
40
0
40
0
40
0
40
0
40
0
40
0
40
0.20000000000000001
40
0.40000000000000002
40
0.60000000000000009
40
0.80000000000000004
40
1
40
1
40
1
40
1
40
1
40
1
41
1
41
1
41
1
41
1
41
1
41
1
41
1
41
1
41
1
41
1
10
10
20
0
30
0
10
9.9999999999997495
20
0.12000000000003158
30
0
10
9.9999999999993197
20
0.36000000000007704
30
0
10
9.9999999999989129
20
0.72000000000009301
30
0
10
9.9999999999987672
20
1.2000000000000313
30
0
10
9.9999999999990248
20
1.7999999999999146
30
0
10
9.9999999999993889
20
2.2799999999998684
30
0
10
9.9999999999996998
20
2.6399999999999042
30
0
10
9.9999999999999005
20
2.8799999999999617
30
0
10
10
20
3
30
0
0
SPLINE
5
102
100
AcDbEntity
8
0
100
AcDbSpline
70
4
71
5
72
16
73
10
74
0
42
0.000000001
43
0.0000000001
44
0.0000000001
40
0
40
0
40
0
40
0
40
0
40
0
40
0.20000000000000001
40
0.40000000000000002
40
0.60000000000000009
40
0.80000000000000004
40
1
40
1
40
1
40
1
40
1
40
1
41
1
41
1
41
1
41
1
41
1
41
1
41
1
41
1
41
1
41
1
10
0
20
1.5
30
0
10
0.40000000000047375
20
1.499999999999694
30
0
10
1.2000000000012774
20
1.4999999999991638
30
0
10
2.4000000000020547
20
1.4999999999986278
30
0
10
4.0000000000023546
20
1.4999999999983737
30
0
10
6.0000000000019584
20
1.4999999999985913
30
0
10
7.6000000000012928
20
1.4999999999990359
30
0
10
8.800000000000697
20
1.4999999999994786
30
0
10
9.6000000000002395
20
1.4999999999998188
30
0
10
10
20
1.5
30
0
0
SPLINE
5
103
100
AcDbEntity
8
0
100
AcDbSpline
70
4
71
5
72
61
73
55
74
0
42
0.000000001
43
0.0000000001
44
0.0000000001
40
0
40
0
40
0
40
0
40
0
40
0
40
0.02
40
0.040000000000000001
40
0.059999999999999998
40
0.080000000000000002
40
0.10000000000000001
40
0.12000000000000001
40
0.14000000000000001
40
0.16
40
0.17999999999999999
40
0.19999999999999998
40
0.21999999999999997
40
0.23999999999999996
40
0.25999999999999995
40
0.27999999999999997
40
0.29999999999999999
40
0.32000000000000001
40
0.34000000000000002
40
0.36000000000000004
40
0.38000000000000006
40
0.40000000000000008
40
0.4200000000000001
40
0.44000000000000011
40
0.46000000000000013
40
0.48000000000000015
40
0.50000000000000011
40
0.52000000000000013
40
0.54000000000000015
40
0.56000000000000016
40
0.58000000000000018
40
0.6000000000000002
40
0.62000000000000022
40
0.64000000000000024
40
0.66000000000000025
40
0.68000000000000027
40
0.70000000000000029
40
0.72000000000000031
40
0.74000000000000032
40
0.76000000000000034
40
0.78000000000000036
40
0.80000000000000038
40
0.8200000000000004
40
0.84000000000000041
40
0.86000000000000043
40
0.88000000000000045
40
0.90000000000000047
40
0.92000000000000048
40
0.9400000000000005
40
0.96000000000000052
40
0.98000000000000054
40
1
40
1
40
1
40
1
40
1
40
1
41
1
41
1
41
1
41
1
41
1
41
1
41
1
41
1
41
1
41
1
41
1
41
1
41
1
41
1
41
1
41
1
41
1
41
1
41
1
41
1
41
1
41
1
41
1
41
1
41
1
41
1
41
1
41
1
41
1
41
1
41
1
41
1
41
1
41
1
41
1
41
1
41
1
41
1
41
1
41
1
41
1
41
1
41
1
41
1
41
1
41
1
41
1
41
1
41
1
41
1
41
1
41
1
41
1
41
1
41
1
10
0
20
0
30
0
10
0.040723035507752407
20
-0.0094025337489853419
30
0
10
0.12213698379904939
20
-0.025456092865449479
30
0
10
0.24416153824374123
20
-0.041281809898745629
30
0
10
0.40666808108996855
20
-0.045863600924142725
30
0
10
0.60947866341901935
20
-0.024859971506721638
30
0
10
0.81196440828905603
20
0.02034593379319715
30
0
10
1.0141218340197478
20
0.084637716839199462
30
0
10
1.2159458806289798
20
0.15934338921205149
30
0
10
1.4174300805054454
20
0.23153757907683348
30
0
10
1.618574010392724
20
0.287225505413368
30
0
10
1.8193903756296308
20
0.31435165574751506
30
0
10
2.0199122066390811
20
0.30577624111555435
30
0
10
2.2202002228311071
20
0.26251380053430518
30
0
10
2.4203497320386562
20
0.1962016059477813
30
0
10
2.6204905575740298
20
0.12383018786763661
30
0
10
2.820788266284882
20
0.063027493878573648
30
0
10
3.0214436536378981
20
0.027290770114140123
30
0
10
3.2226961854741227
20
0.020876222487548675
30
0
10
3.4248169561946384
20
0.03483904802729515
30
0
10
3.6280151742429387
20
0.053629048136757736
30
0
10
3.8323481337803402
20
0.060927621581987744
30
0
10
4.0376370757574298
20
0.045435743918639727
30
0
10
4.2433621757785929
20
0.0074697133795478925
30
0
10
4.4486186941560879
20
-0.037089796061173415
30
0
10
4.6523589460511481
20
-0.065444588916854105
30
0
10
4.8536021185479674
20
-0.055066231690292781
30
0
10
5.0516428699566536
20
0.009086215574469491
30
0
10
5.2462936297426257
20
0.12608740029580728
30
0
10
5.4380112737055262
20
0.27503342721829421
30
0
10
5.6276636856891304
20
0.42496503871606695
30
0
10
5.8163603306536462
20
0.54233805316870598
30
0
10
6.0052591707133587
20
0.59939671211021184
30
0
10
6.1953822381990324
20
0.58229369887779647
30
0
10
6.3874322033564148
20
0.49900871490179521
30
0
10
6.5818216494999842
20
0.37186770892831345
30
0
10
6.7786959030896483
20
0.23058028824535559
30
0
10
6.9779567196497752
20
0.10498248258428616
30
0
10
7.1792866972350344
20
0.018199275059867712
30
0
10
7.3821677226926159
20
-0.021154313349742604
30
0
10
7.5859677280659508
20
-0.016040918305068735
30
0
10
7.7900346112433452
20
0.023086453447721287
30
0
10
7.9937880346447194
20
0.081952574094401737
30
0
10
8.1968108868817495
20
0.14625294184123411
30
0
10
8.3989449384517787
20
0.20549088945890931
30
0
10
8.6002269527254516
20
0.25241111915162251
30
0
10
8.8008203671117808
20
0.2822946427919818
30
0
10
9.0009490583950811
20
0.29231330188981614
30
0
10
9.2008303705774868
20
0.28086461954617886
30
0
10
9.4006087861106362
20
0.24692139411157413
30
0
10
9.6003708509502932
20
0.18990555176703633
30
0
10
9.7602019477635427
20
0.12563154747850303
30
0
10
9.8800937804525972
20
0.066904731166216494
30
0
10
9.9600298899652167
20
0.023080426123502647
30
0
10
10
20
0
30
0
0
SPLINE
5
104
100
AcDbEntity
8
0
100
AcDbSpline
70
4
71
5
72
61
73
55
74
0
42
0.000000001
43
0.0000000001
44
0.0000000001
40
0
40
0
40
0
40
0
40
0
40
0
40
0.02
40
0.040000000000000001
40
0.059999999999999998
40
0.080000000000000002
40
0.10000000000000001
40
0.12000000000000001
40
0.14000000000000001
40
0.16
40
0.17999999999999999
40
0.19999999999999998
40
0.21999999999999997
40
0.23999999999999996
40
0.25999999999999995
40
0.27999999999999997
40
0.29999999999999999
40
0.32000000000000001
40
0.34000000000000002
40
0.36000000000000004
40
0.38000000000000006
40
0.40000000000000008
40
0.4200000000000001
40
0.44000000000000011
40
0.46000000000000013
40
0.48000000000000015
40
0.50000000000000011
40
0.52000000000000013
40
0.54000000000000015
40
0.56000000000000016
40
0.58000000000000018
40
0.6000000000000002
40
0.62000000000000022
40
0.64000000000000024
40
0.66000000000000025
40
0.68000000000000027
40
0.70000000000000029
40
0.72000000000000031
40
0.74000000000000032
40
0.76000000000000034
40
0.78000000000000036
40
0.80000000000000038
40
0.8200000000000004
40
0.84000000000000041
40
0.86000000000000043
40
0.88000000000000045
40
0.90000000000000047
40
0.92000000000000048
40
0.9400000000000005
40
0.96000000000000052
40
0.98000000000000054
40
1
40
1
40
1
40
1
40
1
40
1
41
1
41
1
41
1
41
1
41
1
41
1
41
1
41
1
41
1
41
1
41
1
41
1
41
1
41
1
41
1
41
1
41
1
41
1
41
1
41
1
41
1
41
1
41
1
41
1
41
1
41
1
41
1
41
1
41
1
41
1
41
1
41
1
41
1
41
1
41
1
41
1
41
1
41
1
41
1
41
1
41
1
41
1
41
1
41
1
41
1
41
1
41
1
41
1
41
1
41
1
41
1
41
1
41
1
41
1
41
1
10
0
20
3
30
0
10
0.042195815445880441
20
3.030515364898545
30
0
10
0.12624906319380988
20
3.0848013419479905
30
0
10
0.2513137813675691
20
3.1459958732921378
30
0
10
0.41603514415767917
20
3.1870948692398549
30
0
10
0.61859190004123354
20
3.1726271201162697
30
0
10
0.81794087750383049
20
3.0975588832975931
30
0
10
1.0143655889641663
20
2.9725326505611456
30
0
10
1.2083507429134668
20
2.8155992161355625
30
0
10
1.4006257470264116
20
2.6537254192591919
30
0
10
1.5920330697410483
20
2.5165888434150125
30
0
10
1.7834088670335198
20
2.4309282798265901
30
0
10
1.9754555556770192
20
2.4144815285415646
30
0
10
2.1686256321803117
20
2.4705330819305917
30
0
10
2.3629786407828619
20
2.5809555059895035
30
0
10
2.5582948419140323
20
2.713688567585602
30
0
10
2.7542192578927915
20
2.8319095213901968
30
0
10
2.9504004952818748
20
2.9029660319125465
30
0
10
3.1466180315062209
20
2.90655052190403
30
0
10
3.3429496262929828
20
2.8454437540933282
30
0
10
3.5396982486559452
20
2.740975075896297
30
0
10
3.7372452121239035
20
2.6237413971707775
30
0
10
3.9359211395627791
20
2.5256000857183829
30
0
10
4.1358851506817658
20
2.471890791866584
30
0
10
4.3369603416548133
20
2.4716474886893018
30
0
10
4.5387003550392437
20
2.5188537679748157
30
0
10
4.7405580034456687
20
2.5986960445341563
30
0
10
4.9420278348968001
20
2.6923587800215643
30
0
10
5.1427841005637909
20
2.7820372820292794
30
0
10
5.3428603021439693
20
2.8568041547528118
30
0
10
5.5425848698462135
20
2.9126098633821473
30
0
10
5.7424232175777279
20
2.9499295656452222
30
0
10
5.9428451219046146
20
2.9721449598081922
30
0
10
6.1441943589127979
20
2.9837389140836743
30
0
10
6.346524775001793
20
2.9882961196160487
30
0
10
6.5496407468601161
20
2.9882385260004387
30
0
10
6.7532148079538405
20
2.9852591441088325
30
0
10
6.95688263174711
20
2.9805314333911639
30
0
10
7.1603403828601984
20
2.9749928197213693
30
0
10
7.3634589536386468
20
2.9696424081052628
30
0
10
7.5662587327346547
20
2.9654846644161625
30
0
10
7.7688484013468484
20
2.9633735222867768
30
0
10
7.9713752609785384
20
2.9638860615585521
30
0
10
8.1739732484438026
20
2.9671935455986125
30
0
10
8.3767057012779187
20
2.9729048067954338
30
0
10
8.5795761991782182
20
2.9802114778832904
30
0
10
8.7825501748315489
20
2.9880791709234074
30
0
10
8.9855727671040064
20
2.9954236021255292
30
0
10
9.1885877711637338
20
3.001288263606245
30
0
10
9.3915572071938342
20
3.0050337362116224
30
0
10
9.5944586727796182
20
3.0062835524559119
30
0
10
9.7567165463952481
20
3.0051389875993806
30
0
10
9.8783727374237973
20
3.0030483796301439
30
0
10
9.9594603341746542
20
3.0011073423052799
30
0
10
10
20
3
30
0
0
ENDSEC
0
SECTION
2
OBJECTS
0
DICTIONARY
5
C
100
AcDbDictionary
3
ACAD_GROUP
350
D
3
ACAD_MLINESTYLE
350
17
0
DICTIONARY
5
D
100
AcDbDictionary
0
DICTIONARY
5
1A
330
C
100
AcDbDictionary
0
DICTIONARY
5
17
100
AcDbDictionary
0
ENDSEC
0
EOF
