0
SECTION
2
HEADER
9
$INSUNITS
70
4
9
$ACADVER
1
AC1014
9
$HANDSEED
5
FFFF
0
ENDSEC
0
SECTION
2
TABLES
0
TABLE
2
VPORT
5
8
100
AcDbSymbolTable
0
ENDTAB
0
TABLE
2
LTYPE
5
5
100
AcDbSymbolTable
0
LTYPE
5
14
100
AcDbSymbolTableRecord
100
AcDbLinetypeTableRecord
2
BYBLOCK
70
0
0
LTYPE
5
15
100
AcDbSymbolTableRecord
100
AcDbLinetypeTableRecord
2
BYLAYER
70
0
0
ENDTAB
0
TABLE
2
LAYER
5
2
100
AcDbSymbolTable
70
2
0
LAYER
5
50
100
AcDbSymbolTableRecord
100
AcDbLayerTableRecord
2
0
70
0
6
CONTINUOUS
0
ENDTAB
0
TABLE
2
STYLE
5
3
100
AcDbSymbolTable
70
1
0
STYLE
5
11
100
AcDbSymbolTableRecord
100
AcDbTextStyleTableRecord
2
STANDARD
70
0
0
ENDTAB
0
TABLE
2
VIEW
5
6
100
AcDbSymbolTable
70
0
0
ENDTAB
0
TABLE
2
UCS
5
7
100
AcDbSymbolTable
70
0
0
ENDTAB
0
TABLE
2
APPID
5
9
100
AcDbSymbolTable
70
2
0
APPID
5
12
100
AcDbSymbolTableRecord
100
AcDbRegAppTableRecord
2
ACAD
70
0
0
ENDTAB
0
TABLE
2
DIMSTYLE
5
A
100
AcDbSymbolTable
70
1
0
ENDTAB
0
TABLE
2
BLOCK_RECORD
5
1
100
AcDbSymbolTable
70
1
0
BLOCK_RECORD
5
1F
100
AcDbSymbolTableRecord
100
AcDbBlockTableRecord
2
*MODEL_SPACE
0
BLOCK_RECORD
5
1B
100
AcDbSymbolTableRecord
100
AcDbBlockTableRecord
2
*PAPER_SPACE
0
ENDTAB
0
ENDSEC
0
SECTION
2
BLOCKS
0
BLOCK
5
20
100
AcDbEntity
100
AcDbBlockBegin
2
*MODEL_SPACE
0
ENDBLK
5
21
100
AcDbEntity
100
AcDbBlockEnd
0
BLOCK
5
1C
100
AcDbEntity
100
AcDbBlockBegin
2
*PAPER_SPACE
0
ENDBLK
5
1D
100
AcDbEntity
100
AcDbBlockEnd
0
ENDSEC
0
SECTION
2
ENTITIES
0
SPLINE
5
100
100
AcDbEntity
8
0
100
AcDbSpline
70
4
71
5
72
16
73
10
74
0
42
0.000000001
43
0.0000000001
44
0.0000000001
40
0
40
0
40
0
40
0
40
0
40
0
40
0.20000000000000001
40
0.40000000000000002
40
0.60000000000000009
40
0.80000000000000004
40
1
40
1
40
1
40
1
40
1
40
1
41
1
41
1
41
1
41
1
41
1
41
1
41
1
41
1
41
1
41
1
10
0
20
0
30
0
10
0
20
0.12000000000003158
30
0
10
0
20
0.36000000000007704
30
0
10
0
20
0.72000000000009301
30
0
10
0
20
1.2000000000000313
30
0
10
0
20
1.7999999999999146
30
0
10
0
20
2.2799999999998684
30
0
10
0
20
2.6399999999999042
30
0
10
0
20
2.8799999999999617
30
0
10
0
20
3
30
0
0
SPLINE
5
101
100
AcDbEntity
8
0
100
AcDbSpline
70
4
71
5
72
16
73
10
74
0
42
0.000000001
43
0.0000000001
44
0.0000000001
40
0
40
0
40
0
40
0
40
0
40
0
40
0.20000000000000001
40
0.40000000000000002
40
0.60000000000000009
40
0.80000000000000004
40
1
40
1
40
1
40
1
40
1
40
1
41
1
41
1
41
1
41
1
41
1
41
1
41
1
41
1
41
1
41
1
10
10
20
0
30
0
10
9.9999999999997495
20
0.12000000000003158
30
0
10
9.9999999999993197
20
0.36000000000007704
30
0
10
9.9999999999989129
20
0.72000000000009301
30
0
10
9.9999999999987672
20
1.2000000000000313
30
0
10
9.9999999999990248
20
1.7999999999999146
30
0
10
9.9999999999993889
20
2.2799999999998684
30
0
10
9.9999999999996998
20
2.6399999999999042
30
0
10
9.9999999999999005
20
2.8799999999999617
30
0
10
10
20
3
30
0
0
SPLINE
5
102
100
AcDbEntity
8
0
100
AcDbSpline
70
4
71
5
72
16
73
10
74
0
42
0.000000001
43
0.0000000001
44
0.0000000001
40
0
40
0
40
0
40
0
40
0
40
0
40
0.20000000000000001
40
0.40000000000000002
40
0.60000000000000009
40
0.80000000000000004
40
1
40
1
40
1
40
1
40
1
40
1
41
1
41
1
41
1
41
1
41
1
41
1
41
1
41
1
41
1
41
1
10
0
20
1.5
30
0
10
0.40000000000047375
20
1.499999999999694
30
0
10
1.2000000000012774
20
1.4999999999991638
30
0
10
2.4000000000020547
20
1.4999999999986278
30
0
10
4.0000000000023546
20
1.4999999999983737
30
0
10
6.0000000000019584
20
1.4999999999985913
30
0
10
7.6000000000012928
20
1.4999999999990359
30
0
10
8.800000000000697
20
1.4999999999994786
30
0
10
9.6000000000002395
20
1.4999999999998188
30
0
10
10
20
1.5
30
0
0
SPLINE
5
103
100
AcDbEntity
8
0
100
AcDbSpline
70
4
71
5
72
61
73
55
74
0
42
0.000000001
43
0.0000000001
44
0.0000000001
40
0
40
0
40
0
40
0
40
0
40
0
40
0.02
40
0.040000000000000001
40
0.059999999999999998
40
0.080000000000000002
40
0.10000000000000001
40
0.12000000000000001
40
0.14000000000000001
40
0.16
40
0.17999999999999999
40
0.19999999999999998
40
0.21999999999999997
40
0.23999999999999996
40
0.25999999999999995
40
0.27999999999999997
40
0.29999999999999999
40
0.32000000000000001
40
0.34000000000000002
40
0.36000000000000004
40
0.38000000000000006
40
0.40000000000000008
40
0.4200000000000001
40
0.44000000000000011
40
0.46000000000000013
40
0.48000000000000015
40
0.50000000000000011
40
0.52000000000000013
40
0.54000000000000015
40
0.56000000000000016
40
0.58000000000000018
40
0.6000000000000002
40
0.62000000000000022
40
0.64000000000000024
40
0.66000000000000025
40
0.68000000000000027
40
0.70000000000000029
40
0.72000000000000031
40
0.74000000000000032
40
0.76000000000000034
40
0.78000000000000036
40
0.80000000000000038
40
0.8200000000000004
40
0.84000000000000041
40
0.86000000000000043
40
0.88000000000000045
40
0.90000000000000047
40
0.92000000000000048
40
0.9400000000000005
40
0.96000000000000052
40
0.98000000000000054
40
1
40
1
40
1
40
1
40
1
40
1
41
1
41
1
41
1
41
1
41
1
41
1
41
1
41
1
41
1
41
1
41
1
41
1
41
1
41
1
41
1
41
1
41
1
41
1
41
1
41
1
41
1
41
1
41
1
41
1
41
1
41
1
41
1
41
1
41
1
41
1
41
1
41
1
41
1
41
1
41
1
41
1
41
1
41
1
41
1
41
1
41
1
41
1
41
1
41
1
41
1
41
1
41
1
41
1
41
1
41
1
41
1
41
1
41
1
41
1
41
1
10
0
20
0
30
0
10
0.040971043042052999
20
-0.0087401232181812186
30
0
10
0.12281633252835755
20
-0.024301823711117568
30
0
10
0.24529387565383981
20
-0.041888715544400747
30
0
10
0.40801611725354803
20
-0.053819269722835808
30
0
10
0.6104654141277136
20
-0.049839024262442265
30
0
10
0.8120104849617048
20
-0.027957658366054336
30
0
10
1.0127524859672752
20
0.0097872752711531102
30
0
10
1.2128636388259806
20
0.05993090861571361
30
0
10
1.4126027749324266
20
0.11725731882996676
30
0
10
1.6122699556167805
20
0.1754789893397613
30
0
10
1.8121641449328845
20
0.22785988050445605
30
0
10
2.0125402499126945
20
0.26786060068638917
30
0
10
2.2135652083809783
20
0.28976846965206515
30
0
10
2.415277473661579
20
0.28935144496206977
30
0
10
2.6176082752157837
20
0.26468131008800039
30
0
10
2.8203992435367824
20
0.21699062084510698
30
0
10
3.0234213296948336
20
0.1514515541010768
30
0
10
3.2263925053458884
20
0.078170368083189876
30
0
10
3.4289970933501812
20
0.012608907238670423
30
0
10
3.6309170005185338
20
-0.028626589971002366
30
0
10
3.8318621311782937
20
-0.031672533375293965
30
0
10
4.0316007126348437
20
0.010777802052883784
30
0
10
4.2299909170690082
20
0.095141293103196828
30
0
10
4.4270089098832948
20
0.20420403199486237
30
0
10
4.6227541781150823
20
0.31378019920540151
30
0
10
4.8174583410419585
20
0.39827738099503107
30
0
10
5.0114919986147282
20
0.43659879282169767
30
0
10
5.2053751615140955
20
0.4180911187872296
30
0
10
5.3997799382574572
20
0.34798526252089024
30
0
10
5.5953936403136026
20
0.24217047884060738
30
0
10
5.7927895234323534
20
0.1225461983794429
30
0
10
5.9922929940633232
20
0.01215127975125406
30
0
10
6.1938523877804013
20
-0.069547773667829563
30
0
10
6.3968978340738651
20
-0.1115977031625727
30
0
10
6.6005468515663903
20
-0.11055955942847731
30
0
10
6.8038215801492505
20
-0.069333551932898072
30
0
10
7.0058601092817687
20
0.0039369028927211608
30
0
10
7.2061332496354211
20
0.096969254885188844
30
0
10
7.4046519224786334
20
0.19445359675850904
30
0
10
7.6018031002146333
20
0.28039370043587952
30
0
10
7.7981954934132913
20
0.34040712004849971
30
0
10
7.9945016632072177
20
0.36405972506228879
30
0
10
8.1913035671519729
20
0.3471580691287981
30
0
10
8.3889321851573371
20
0.29417784259026547
30
0
10
8.5875214991502595
20
0.21572728656940504
30
0
10
8.7870671964330533
20
0.12590953288234255
30
0
10
8.9874836499546262
20
0.039709591044920979
30
0
10
9.1886603139241014
20
-0.029567945247512929
30
0
10
9.3905209710373718
20
-0.073037320043664769
30
0
10
9.5930194833201092
20
-0.08545661007714167
30
0
10
9.7555092680260209
20
-0.068489739132952296
30
0
10
9.8776488383263104
20
-0.040267693950621797
30
0
10
9.9591961277530441
20
-0.01456976229403632
30
0
10
10
20
0
30
0
0
SPLINE
5
104
100
AcDbEntity
8
0
100
AcDbSpline
70
4
71
5
72
61
73
55
74
0
42
0.000000001
43
0.0000000001
44
0.0000000001
40
0
40
0
40
0
40
0
40
0
40
0
40
0.02
40
0.040000000000000001
40
0.059999999999999998
40
0.080000000000000002
40
0.10000000000000001
40
0.12000000000000001
40
0.14000000000000001
40
0.16
40
0.17999999999999999
40
0.19999999999999998
40
0.21999999999999997
40
0.23999999999999996
40
0.25999999999999995
40
0.27999999999999997
40
0.29999999999999999
40
0.32000000000000001
40
0.34000000000000002
40
0.36000000000000004
40
0.38000000000000006
40
0.40000000000000008
40
0.4200000000000001
40
0.44000000000000011
40
0.46000000000000013
40
0.48000000000000015
40
0.50000000000000011
40
0.52000000000000013
40
0.54000000000000015
40
0.56000000000000016
40
0.58000000000000018
40
0.6000000000000002
40
0.62000000000000022
40
0.64000000000000024
40
0.66000000000000025
40
0.68000000000000027
40
0.70000000000000029
40
0.72000000000000031
40
0.74000000000000032
40
0.76000000000000034
40
0.78000000000000036
40
0.80000000000000038
40
0.8200000000000004
40
0.84000000000000041
40
0.86000000000000043
40
0.88000000000000045
40
0.90000000000000047
40
0.92000000000000048
40
0.9400000000000005
40
0.96000000000000052
40
0.98000000000000054
40
1
40
1
40
1
40
1
40
1
40
1
41
1
41
1
41
1
41
1
41
1
41
1
41
1
41
1
41
1
41
1
41
1
41
1
41
1
41
1
41
1
41
1
41
1
41
1
41
1
41
1
41
1
41
1
41
1
41
1
41
1
41
1
41
1
41
1
41
1
41
1
41
1
41
1
41
1
41
1
41
1
41
1
41
1
41
1
41
1
41
1
41
1
41
1
41
1
41
1
41
1
41
1
41
1
41
1
41
1
41
1
41
1
41
1
41
1
41
1
41
1
10
0
20
3
30
0
10
0.038100896606396581
20
2.9855518602204496
30
0
10
0.11456137553582872
20
2.9565800027738569
30
0
10
0.23002814457859233
20
2.9128955444874114
30
0
10
0.38553700561192367
20
2.8541954238792133
30
0
10
0.58245863475624893
20
2.7805335006617105
30
0
10
0.78174740276268406
20
2.7079893143760265
30
0
10
0.98305662460839704
20
2.6393943511435092
30
0
10
1.1858048015696849
20
2.5794380249031295
30
0
10
1.3891009303887034
20
2.5352701542838654
30
0
10
1.5919289739519302
20
2.5146402133659445
30
0
10
1.7933521936149541
20
2.5238484716909797
30
0
10
1.9927126345220145
20
2.565736633865102
30
0
10
2.1898281838137406
20
2.63771088735079
30
0
10
2.3852057216776772
20
2.7295803103344336
30
0
10
2.5797888401267599
20
2.8266374128313707
30
0
10
2.7746923811456199
20
2.9128836041358945
30
0
10
2.9709354071659897
20
2.9742825690744583
30
0
10
3.1691909793475439
20
3.0018056655003207
30
0
10
3.3694852222816136
20
2.9951039369681225
30
0
10
3.5713560498716781
20
2.9605258915939388
30
0
10
3.7740815398386496
20
2.9082784254019876
30
0
10
3.9768869037620282
20
2.8498562409817705
30
0
10
4.1791511377742152
20
2.7954677726321302
30
0
10
4.3806379287076345
20
2.7511870885383738
30
0
10
4.5814146212297988
20
2.7196871121363579
30
0
10
4.7817339814205493
20
2.7013989367131588
30
0
10
4.9819284795699437
20
2.6955312113046359
30
0
10
5.1823027307085345
20
2.7010996469897552
30
0
10
5.383018399076521
20
2.7180688516923679
30
0
10
5.5841144267093954
20
2.7465913511974058
30
0
10
5.7855398301850194
20
2.7860797658601251
30
0
10
5.9871817945710486
20
2.8343141702258134
30
0
10
6.1888952853340644
20
2.8865841841389095
30
0
10
6.3905326011586716
20
2.93466477245576
30
0
10
6.5919570211492822
20
2.969008280412571
30
0
10
6.7930552546204854
20
2.9811245307979379
30
0
10
6.9937505041206087
20
2.965915670660721
30
0
10
7.1940151155278134
20
2.9239884788482202
30
0
10
7.3938842304116452
20
2.8641264891764551
30
0
10
7.5934400014850549
20
2.8000044843417742
30
0
10
7.7927950864886615
20
2.7467531791945552
30
0
10
7.9920764297761773
20
2.7175580085379574
30
0
10
8.1914091618801859
20
2.7203039960371833
30
0
10
8.3908999694158091
20
2.75401602372078
30
0
10
8.590637581267389
20
2.8112560015921231
30
0
10
8.7906938777871311
20
2.8807246607492232
30
0
10
8.9911247079641363
20
2.9497922483637096
30
0
10
9.1919708032606877
20
3.0070146577972681
30
0
10
9.3932585239885587
20
3.0447614798252731
30
0
10
9.5950029095245775
20
3.0585219565663473
30
0
10
9.7567692107588826
20
3.0485650111604645
30
0
10
9.8783032562560447
20
3.0289885277583424
30
0
10
9.9594189236831472
20
3.010559223052256
30
0
10
10
20
3
30
0
0
ENDSEC
0
SECTION
2
OBJECTS
0
DICTIONARY
5
C
100
AcDbDictionary
3
ACAD_GROUP
350
D
3
ACAD_MLINESTYLE
350
17
0
DICTIONARY
5
D
100
AcDbDictionary
0
DICTIONARY
5
1A
330
C
100
AcDbDictionary
0
DICTIONARY
5
17
100
AcDbDictionary
0
ENDSEC
0
EOF
