0
SECTION
2
HEADER
9
$INSUNITS
70
4
9
$ACADVER
1
AC1014
9
$HANDSEED
5
FFFF
0
ENDSEC
0
SECTION
2
TABLES
0
TABLE
2
VPORT
5
8
100
AcDbSymbolTable
0
ENDTAB
0
TABLE
2
LTYPE
5
5
100
AcDbSymbolTable
0
LTYPE
5
14
100
AcDbSymbolTableRecord
100
AcDbLinetypeTableRecord
2
BYBLOCK
70
0
0
LTYPE
5
15
100
AcDbSymbolTableRecord
100
AcDbLinetypeTableRecord
2
BYLAYER
70
0
0
ENDTAB
0
TABLE
2
LAYER
5
2
100
AcDbSymbolTable
70
2
0
LAYER
5
50
100
AcDbSymbolTableRecord
100
AcDbLayerTableRecord
2
0
70
0
6
CONTINUOUS
0
ENDTAB
0
TABLE
2
STYLE
5
3
100
AcDbSymbolTable
70
1
0
STYLE
5
11
100
AcDbSymbolTableRecord
100
AcDbTextStyleTableRecord
2
STANDARD
70
0
0
ENDTAB
0
TABLE
2
VIEW
5
6
100
AcDbSymbolTable
70
0
0
ENDTAB
0
TABLE
2
UCS
5
7
100
AcDbSymbolTable
70
0
0
ENDTAB
0
TABLE
2
APPID
5
9
100
AcDbSymbolTable
70
2
0
APPID
5
12
100
AcDbSymbolTableRecord
100
AcDbRegAppTableRecord
2
ACAD
70
0
0
ENDTAB
0
TABLE
2
DIMSTYLE
5
A
100
AcDbSymbolTable
70
1
0
ENDTAB
0
TABLE
2
BLOCK_RECORD
5
1
100
AcDbSymbolTable
70
1
0
BLOCK_RECORD
5
1F
100
AcDbSymbolTableRecord
100
AcDbBlockTableRecord
2
*MODEL_SPACE
0
BLOCK_RECORD
5
1B
100
AcDbSymbolTableRecord
100
AcDbBlockTableRecord
2
*PAPER_SPACE
0
ENDTAB
0
ENDSEC
0
SECTION
2
BLOCKS
0
BLOCK
5
20
100
AcDbEntity
100
AcDbBlockBegin
2
*MODEL_SPACE
0
ENDBLK
5
21
100
AcDbEntity
100
AcDbBlockEnd
0
BLOCK
5
1C
100
AcDbEntity
100
AcDbBlockBegin
2
*PAPER_SPACE
0
ENDBLK
5
1D
100
AcDbEntity
100
AcDbBlockEnd
0
ENDSEC
0
SECTION
2
ENTITIES
0
SPLINE
5
100
100
AcDbEntity
8
0
100
AcDbSpline
70
4
71
5
72
16
73
10
74
0
42
0.000000001
43
0.0000000001
44
0.0000000001
40
0
40
0
40
0
40
0
40
0
40
0
40
0.20000000000000001
40
0.40000000000000002
40
0.60000000000000009
40
0.80000000000000004
40
1
40
1
40
1
40
1
40
1
40
1
41
1
41
1
41
1
41
1
41
1
41
1
41
1
41
1
41
1
41
1
10
0
20
0
30
0
10
0
20
0.12000000000003158
30
0
10
0
20
0.36000000000007704
30
0
10
0
20
0.72000000000009301
30
0
10
0
20
1.2000000000000313
30
0
10
0
20
1.7999999999999146
30
0
10
0
20
2.2799999999998684
30
0
10
0
20
2.6399999999999042
30
0
10
0
20
2.8799999999999617
30
0
10
0
20
3
30
0
0
SPLINE
5
101
100
AcDbEntity
8
0
100
AcDbSpline
70
4
71
5
72
16
73
10
74
0
42
0.000000001
43
0.0000000001
44
0.0000000001
40
0
40
0
40
0
40
0
40
0
40
0
40
0.20000000000000001
40
0.40000000000000002
40
0.60000000000000009
40
0.80000000000000004
40
1
40
1
40
1
40
1
40
1
40
1
41
1
41
1
41
1
41
1
41
1
41
1
41
1
41
1
41
1
41
1
10
10
20
0
30
0
10
9.9999999999997495
20
0.12000000000003158
30
0
10
9.9999999999993197
20
0.36000000000007704
30
0
10
9.9999999999989129
20
0.72000000000009301
30
0
10
9.9999999999987672
20
1.2000000000000313
30
0
10
9.9999999999990248
20
1.7999999999999146
30
0
10
9.9999999999993889
20
2.2799999999998684
30
0
10
9.9999999999996998
20
2.6399999999999042
30
0
10
9.9999999999999005
20
2.8799999999999617
30
0
10
10
20
3
30
0
0
SPLINE
5
102
100
AcDbEntity
8
0
100
AcDbSpline
70
4
71
5
72
16
73
10
74
0
42
0.000000001
43
0.0000000001
44
0.0000000001
40
0
40
0
40
0
40
0
40
0
40
0
40
0.20000000000000001
40
0.40000000000000002
40
0.60000000000000009
40
0.80000000000000004
40
1
40
1
40
1
40
1
40
1
40
1
41
1
41
1
41
1
41
1
41
1
41
1
41
1
41
1
41
1
41
1
10
0
20
1.5
30
0
10
0.40000000000047375
20
1.499999999999694
30
0
10
1.2000000000012774
20
1.4999999999991638
30
0
10
2.4000000000020547
20
1.4999999999986278
30
0
10
4.0000000000023546
20
1.4999999999983737
30
0
10
6.0000000000019584
20
1.4999999999985913
30
0
10
7.6000000000012928
20
1.4999999999990359
30
0
10
8.800000000000697
20
1.4999999999994786
30
0
10
9.6000000000002395
20
1.4999999999998188
30
0
10
10
20
1.5
30
0
0
SPLINE
5
103
100
AcDbEntity
8
0
100
AcDbSpline
70
4
71
5
72
61
73
55
74
0
42
0.000000001
43
0.0000000001
44
0.0000000001
40
0
40
0
40
0
40
0
40
0
40
0
40
0.02
40
0.040000000000000001
40
0.059999999999999998
40
0.080000000000000002
40
0.10000000000000001
40
0.12000000000000001
40
0.14000000000000001
40
0.16
40
0.17999999999999999
40
0.19999999999999998
40
0.21999999999999997
40
0.23999999999999996
40
0.25999999999999995
40
0.27999999999999997
40
0.29999999999999999
40
0.32000000000000001
40
0.34000000000000002
40
0.36000000000000004
40
0.38000000000000006
40
0.40000000000000008
40
0.4200000000000001
40
0.44000000000000011
40
0.46000000000000013
40
0.48000000000000015
40
0.50000000000000011
40
0.52000000000000013
40
0.54000000000000015
40
0.56000000000000016
40
0.58000000000000018
40
0.6000000000000002
40
0.62000000000000022
40
0.64000000000000024
40
0.66000000000000025
40
0.68000000000000027
40
0.70000000000000029
40
0.72000000000000031
40
0.74000000000000032
40
0.76000000000000034
40
0.78000000000000036
40
0.80000000000000038
40
0.8200000000000004
40
0.84000000000000041
40
0.86000000000000043
40
0.88000000000000045
40
0.90000000000000047
40
0.92000000000000048
40
0.9400000000000005
40
0.96000000000000052
40
0.98000000000000054
40
1
40
1
40
1
40
1
40
1
40
1
41
1
41
1
41
1
41
1
41
1
41
1
41
1
41
1
41
1
41
1
41
1
41
1
41
1
41
1
41
1
41
1
41
1
41
1
41
1
41
1
41
1
41
1
41
1
41
1
41
1
41
1
41
1
41
1
41
1
41
1
41
1
41
1
41
1
41
1
41
1
41
1
41
1
41
1
41
1
41
1
41
1
41
1
41
1
41
1
41
1
41
1
41
1
41
1
41
1
41
1
41
1
41
1
41
1
41
1
41
1
10
0
20
0
30
0
10
0.041396462287892746
20
-0.018681279579136185
30
0
10
0.12403616828978122
20
-0.05168090786516602
30
0
10
0.24753607085105353
20
-0.088091426564902209
30
0
10
0.41128270209551154
20
-0.1104450165481117
30
0
10
0.61444322398141316
20
-0.095778640198098258
30
0
10
0.8161183676648438
20
-0.041842475579869053
30
0
10
1.0163873292217478
20
0.044587527315844359
30
0
10
1.2153868320039354
20
0.15200501305237812
30
0
10
1.4133248352265915
20
0.2632516052735755
30
0
10
1.6104675039305152
20
0.35930442661626438
30
0
10
1.8071281277563613
20
0.42275787736731024
30
0
10
2.003655377172699
20
0.44140524678908011
30
0
10
2.2004221560673813
20
0.41183230397612813
30
0
10
2.3978137473422767
20
0.34291090858793943
30
0
10
2.5961781917301914
20
0.25121005859865231
30
0
10
2.7957773109121087
20
0.15656776124514854
30
0
10
2.9967370323431455
20
0.077603325260423281
30
0
10
3.1989981954112068
20
0.027283418657865575
30
0
10
3.402265082895334
20
0.0083756490196226878
30
0
10
3.6061109111534275
20
0.016099452304067986
30
0
10
3.8100861978412843
20
0.040865049412701943
30
0
10
4.0138238465613094
20
0.070947053476760141
30
0
10
4.2171505202259061
20
0.095217283082923515
30
0
10
4.4201823314666537
20
0.10573535829222974
30
0
10
4.6231888742101921
20
0.098118320670100637
30
0
10
4.8264679117096891
20
0.072088622996668281
30
0
10
5.030221498911656
20
0.031871387955788699
30
0
10
5.2344190044299381
20
-0.013111823103847252
30
0
10
5.4387014214081102
20
-0.048303643959470885
30
0
10
5.6425417066245389
20
-0.058431292443670048
30
0
10
5.8453794267852777
20
-0.031603531771665527
30
0
10
6.0467574997474145
20
0.036808265856006737
30
0
10
6.2464762114463914
20
0.13936276805309092
30
0
10
6.4446849125129564
20
0.25462636892817048
30
0
10
6.641747032907058
20
0.3554049967169941
30
0
10
6.8381406574130139
20
0.41549190873497627
30
0
10
7.0343490594941311
20
0.41664527051176781
30
0
10
7.2307474078566809
20
0.35630862263472374
30
0
10
7.4275155867366029
20
0.2525874822861236
30
0
10
7.6246971634407812
20
0.13477492867387778
30
0
10
7.8222391123704842
20
0.035701699630577836
30
0
10
8.0200380703552945
20
-0.016427542445287706
30
0
10
8.2179851460071109
20
-0.0064032885674128459
30
0
10
8.4160068889470043
20
0.060882463430689475
30
0
10
8.6140557478076492
20
0.16698983076401419
30
0
10
8.8121048708267544
20
0.28534826444466693
30
0
10
9.0101413331922569
20
0.38703416586737338
30
0
10
9.2081599917542079
20
0.44649269657740165
30
0
10
9.4061573397224532
20
0.44697991347678151
30
0
10
9.6041313577562804
20
0.37853746923184961
30
0
10
9.7624911173466078
20
0.26476375912717037
30
0
10
9.88124986280061
20
0.14554992987510168
30
0
10
9.9604174407562951
20
0.051024855213108122
30
0
10
10
20
0
30
0
0
SPLINE
5
104
100
AcDbEntity
8
0
100
AcDbSpline
70
4
71
5
72
61
73
55
74
0
42
0.000000001
43
0.0000000001
44
0.0000000001
40
0
40
0
40
0
40
0
40
0
40
0
40
0.02
40
0.040000000000000001
40
0.059999999999999998
40
0.080000000000000002
40
0.10000000000000001
40
0.12000000000000001
40
0.14000000000000001
40
0.16
40
0.17999999999999999
40
0.19999999999999998
40
0.21999999999999997
40
0.23999999999999996
40
0.25999999999999995
40
0.27999999999999997
40
0.29999999999999999
40
0.32000000000000001
40
0.34000000000000002
40
0.36000000000000004
40
0.38000000000000006
40
0.40000000000000008
40
0.4200000000000001
40
0.44000000000000011
40
0.46000000000000013
40
0.48000000000000015
40
0.50000000000000011
40
0.52000000000000013
40
0.54000000000000015
40
0.56000000000000016
40
0.58000000000000018
40
0.6000000000000002
40
0.62000000000000022
40
0.64000000000000024
40
0.66000000000000025
40
0.68000000000000027
40
0.70000000000000029
40
0.72000000000000031
40
0.74000000000000032
40
0.76000000000000034
40
0.78000000000000036
40
0.80000000000000038
40
0.8200000000000004
40
0.84000000000000041
40
0.86000000000000043
40
0.88000000000000045
40
0.90000000000000047
40
0.92000000000000048
40
0.9400000000000005
40
0.96000000000000052
40
0.98000000000000054
40
1
40
1
40
1
40
1
40
1
40
1
41
1
41
1
41
1
41
1
41
1
41
1
41
1
41
1
41
1
41
1
41
1
41
1
41
1
41
1
41
1
41
1
41
1
41
1
41
1
41
1
41
1
41
1
41
1
41
1
41
1
41
1
41
1
41
1
41
1
41
1
41
1
41
1
41
1
41
1
41
1
41
1
41
1
41
1
41
1
41
1
41
1
41
1
41
1
41
1
41
1
41
1
41
1
41
1
41
1
41
1
41
1
41
1
41
1
41
1
41
1
10
0
20
3
30
0
10
0.040617905519836725
20
2.9987757954602485
30
0
10
0.12178395731648065
20
2.9964233606992745
30
0
10
0.24332375625260477
20
2.9931826556224812
30
0
10
0.40495800019239553
20
2.9894377777158807
30
0
10
0.60631700184169202
20
2.9854046667266987
30
0
10
0.80703783477360524
20
2.9810749128001968
30
0
10
1.007213636060184
20
2.9745614143122321
30
0
10
1.2070023433356845
20
2.962697465697901
30
0
10
1.4066411901630018
20
2.9407653379440504
30
0
10
1.6063764231543805
20
2.9041867535825667
30
0
10
1.8063951936459524
20
2.8501647857135577
30
0
10
2.0067574262882921
20
2.7793255229135538
30
0
10
2.2073253111529763
20
2.6974201795654249
30
0
10
2.407699141558703
20
2.6168698935158634
30
0
10
2.6073682779803216
20
2.5529677806642175
30
0
10
2.8058557663815393
20
2.5202389622906143
30
0
10
3.0028648720735713
20
2.528752905836213
30
0
10
3.1984262817413618
20
2.5804198433325647
30
0
10
3.3930428098026528
20
2.6653469993771322
30
0
10
3.5874931980209954
20
2.7663828437182785
30
0
10
3.7826424318121745
20
2.8635080059064109
30
0
10
3.979246077792054
20
2.9383570502525744
30
0
10
4.1777660192067207
20
2.9784901563081223
30
0
10
4.3781565098968107
20
2.9823076380500604
30
0
10
4.5799991378093043
20
2.9563978334296244
30
0
10
4.7826728186116654
20
2.912123038010324
30
0
10
4.9855124250985163
20
2.862458321794334
30
0
10
5.1879677073787214
20
2.818811762409497
30
0
10
5.3897736360094992
20
2.7876346852323204
30
0
10
5.5908946398477948
20
2.7713336366172308
30
0
10
5.7914528655285888
20
2.7694874057525034
30
0
10
5.9916624431593455
20
2.7799514917317767
30
0
10
6.1917622049207131
20
2.7999876075002099
30
0
10
6.3919473933600823
20
2.8274241239176074
30
0
10
6.5923614686211405
20
2.8603500314406585
30
0
10
6.7930904916999788
20
2.8967492321500297
30
0
10
6.9941562580300864
20
2.9341522090468803
30
0
10
7.195510102346744
20
2.9692895939467112
30
0
10
7.397025330496386
20
2.9977146143501083
30
0
10
7.5985318117081881
20
3.0147752690150615
30
0
10
7.7998515941819901
20
3.0166237275267225
30
0
10
8.0008340720064037
20
3.0012127207757873
30
0
10
8.2013914559574612
20
2.9693042871195789
30
0
10
8.4015340920794053
20
2.925474390346086
30
0
10
8.6013422386826814
20
2.8768461213616652
30
0
10
8.8009381785506982
20
2.8318348760861816
30
0
10
9.0004583599497501
20
2.7988941553087994
30
0
10
9.2000255716136312
20
2.7852610791071584
30
0
10
9.3997211558962821
20
2.7957025395892372
30
0
10
9.5995935322698838
20
2.8330295892600246
30
0
10
9.7596519652973548
20
2.8854888306798339
30
0
10
9.87978954587971
20
2.9377316469027486
30
0
10
9.9599229082866323
20
2.9782890690947141
30
0
10
10
20
3
30
0
0
ENDSEC
0
SECTION
2
OBJECTS
0
DICTIONARY
5
C
100
AcDbDictionary
3
ACAD_GROUP
350
D
3
ACAD_MLINESTYLE
350
17
0
DICTIONARY
5
D
100
AcDbDictionary
0
DICTIONARY
5
1A
330
C
100
AcDbDictionary
0
DICTIONARY
5
17
100
AcDbDictionary
0
ENDSEC
0
EOF
