0
SECTION
2
HEADER
9
$INSUNITS
70
4
9
$ACADVER
1
AC1014
9
$HANDSEED
5
FFFF
0
ENDSEC
0
SECTION
2
TABLES
0
TABLE
2
VPORT
5
8
100
AcDbSymbolTable
0
ENDTAB
0
TABLE
2
LTYPE
5
5
100
AcDbSymbolTable
0
LTYPE
5
14
100
AcDbSymbolTableRecord
100
AcDbLinetypeTableRecord
2
BYBLOCK
70
0
0
LTYPE
5
15
100
AcDbSymbolTableRecord
100
AcDbLinetypeTableRecord
2
BYLAYER
70
0
0
ENDTAB
0
TABLE
2
LAYER
5
2
100
AcDbSymbolTable
70
2
0
LAYER
5
50
100
AcDbSymbolTableRecord
100
AcDbLayerTableRecord
2
0
70
0
6
CONTINUOUS
0
ENDTAB
0
TABLE
2
STYLE
5
3
100
AcDbSymbolTable
70
1
0
STYLE
5
11
100
AcDbSymbolTableRecord
100
AcDbTextStyleTableRecord
2
STANDARD
70
0
0
ENDTAB
0
TABLE
2
VIEW
5
6
100
AcDbSymbolTable
70
0
0
ENDTAB
0
TABLE
2
UCS
5
7
100
AcDbSymbolTable
70
0
0
ENDTAB
0
TABLE
2
APPID
5
9
100
AcDbSymbolTable
70
2
0
APPID
5
12
100
AcDbSymbolTableRecord
100
AcDbRegAppTableRecord
2
ACAD
70
0
0
ENDTAB
0
TABLE
2
DIMSTYLE
5
A
100
AcDbSymbolTable
70
1
0
ENDTAB
0
TABLE
2
BLOCK_RECORD
5
1
100
AcDbSymbolTable
70
1
0
BLOCK_RECORD
5
1F
100
AcDbSymbolTableRecord
100
AcDbBlockTableRecord
2
*MODEL_SPACE
0
BLOCK_RECORD
5
1B
100
AcDbSymbolTableRecord
100
AcDbBlockTableRecord
2
*PAPER_SPACE
0
ENDTAB
0
ENDSEC
0
SECTION
2
BLOCKS
0
BLOCK
5
20
100
AcDbEntity
100
AcDbBlockBegin
2
*MODEL_SPACE
0
ENDBLK
5
21
100
AcDbEntity
100
AcDbBlockEnd
0
BLOCK
5
1C
100
AcDbEntity
100
AcDbBlockBegin
2
*PAPER_SPACE
0
ENDBLK
5
1D
100
AcDbEntity
100
AcDbBlockEnd
0
ENDSEC
0
SECTION
2
ENTITIES
0
SPLINE
5
100
100
AcDbEntity
8
0
100
AcDbSpline
70
4
71
5
72
16
73
10
74
0
42
0.000000001
43
0.0000000001
44
0.0000000001
40
0
40
0
40
0
40
0
40
0
40
0
40
0.20000000000000001
40
0.40000000000000002
40
0.60000000000000009
40
0.80000000000000004
40
1
40
1
40
1
40
1
40
1
40
1
41
1
41
1
41
1
41
1
41
1
41
1
41
1
41
1
41
1
41
1
10
0
20
0
30
0
10
0
20
0.12000000000003158
30
0
10
0
20
0.36000000000007704
30
0
10
0
20
0.72000000000009301
30
0
10
0
20
1.2000000000000313
30
0
10
0
20
1.7999999999999146
30
0
10
0
20
2.2799999999998684
30
0
10
0
20
2.6399999999999042
30
0
10
0
20
2.8799999999999617
30
0
10
0
20
3
30
0
0
SPLINE
5
101
100
AcDbEntity
8
0
100
AcDbSpline
70
4
71
5
72
16
73
10
74
0
42
0.000000001
43
0.0000000001
44
0.0000000001
40
0
40
0
40
0
40
0
40
0
40
0
40
0.20000000000000001
40
0.40000000000000002
40
0.60000000000000009
40
0.80000000000000004
40
1
40
1
40
1
40
1
40
1
40
1
41
1
41
1
41
1
41
1
41
1
41
1
41
1
41
1
41
1
41
1
10
10
20
0
30
0
10
9.9999999999997495
20
0.12000000000003158
30
0
10
9.9999999999993197
20
0.36000000000007704
30
0
10
9.9999999999989129
20
0.72000000000009301
30
0
10
9.9999999999987672
20
1.2000000000000313
30
0
10
9.9999999999990248
20
1.7999999999999146
30
0
10
9.9999999999993889
20
2.2799999999998684
30
0
10
9.9999999999996998
20
2.6399999999999042
30
0
10
9.9999999999999005
20
2.8799999999999617
30
0
10
10
20
3
30
0
0
SPLINE
5
102
100
AcDbEntity
8
0
100
AcDbSpline
70
4
71
5
72
16
73
10
74
0
42
0.000000001
43
0.0000000001
44
0.0000000001
40
0
40
0
40
0
40
0
40
0
40
0
40
0.20000000000000001
40
0.40000000000000002
40
0.60000000000000009
40
0.80000000000000004
40
1
40
1
40
1
40
1
40
1
40
1
41
1
41
1
41
1
41
1
41
1
41
1
41
1
41
1
41
1
41
1
10
0
20
1.5
30
0
10
0.40000000000047375
20
1.499999999999694
30
0
10
1.2000000000012774
20
1.4999999999991638
30
0
10
2.4000000000020547
20
1.4999999999986278
30
0
10
4.0000000000023546
20
1.4999999999983737
30
0
10
6.0000000000019584
20
1.4999999999985913
30
0
10
7.6000000000012928
20
1.4999999999990359
30
0
10
8.800000000000697
20
1.4999999999994786
30
0
10
9.6000000000002395
20
1.4999999999998188
30
0
10
10
20
1.5
30
0
0
SPLINE
5
103
100
AcDbEntity
8
0
100
AcDbSpline
70
4
71
5
72
61
73
55
74
0
42
0.000000001
43
0.0000000001
44
0.0000000001
40
0
40
0
40
0
40
0
40
0
40
0
40
0.02
40
0.040000000000000001
40
0.059999999999999998
40
0.080000000000000002
40
0.10000000000000001
40
0.12000000000000001
40
0.14000000000000001
40
0.16
40
0.17999999999999999
40
0.19999999999999998
40
0.21999999999999997
40
0.23999999999999996
40
0.25999999999999995
40
0.27999999999999997
40
0.29999999999999999
40
0.32000000000000001
40
0.34000000000000002
40
0.36000000000000004
40
0.38000000000000006
40
0.40000000000000008
40
0.4200000000000001
40
0.44000000000000011
40
0.46000000000000013
40
0.48000000000000015
40
0.50000000000000011
40
0.52000000000000013
40
0.54000000000000015
40
0.56000000000000016
40
0.58000000000000018
40
0.6000000000000002
40
0.62000000000000022
40
0.64000000000000024
40
0.66000000000000025
40
0.68000000000000027
40
0.70000000000000029
40
0.72000000000000031
40
0.74000000000000032
40
0.76000000000000034
40
0.78000000000000036
40
0.80000000000000038
40
0.8200000000000004
40
0.84000000000000041
40
0.86000000000000043
40
0.88000000000000045
40
0.90000000000000047
40
0.92000000000000048
40
0.9400000000000005
40
0.96000000000000052
40
0.98000000000000054
40
1
40
1
40
1
40
1
40
1
40
1
41
1
41
1
41
1
41
1
41
1
41
1
41
1
41
1
41
1
41
1
41
1
41
1
41
1
41
1
41
1
41
1
41
1
41
1
41
1
41
1
41
1
41
1
41
1
41
1
41
1
41
1
41
1
41
1
41
1
41
1
41
1
41
1
41
1
41
1
41
1
41
1
41
1
41
1
41
1
41
1
41
1
41
1
41
1
41
1
41
1
41
1
41
1
41
1
41
1
41
1
41
1
41
1
41
1
41
1
41
1
10
0
20
0
30
0
10
0.040330829586854369
20
-0.0097224884396767963
30
0
10
0.12095444090420558
20
-0.025901355723063971
30
0
10
0.24177571468641526
20
-0.040371309523528853
30
0
10
0.40264230814579549
20
-0.040055276094336234
30
0
10
0.60333146389715864
20
-0.0078441319495284635
30
0
10
0.80358787647364249
20
0.053451784543864525
30
0
10
1.0033353926996227
20
0.13827270519512247
30
0
10
1.2024477154106159
20
0.23724139417323362
30
0
10
1.4007367374792923
20
0.3362199551732456
30
0
10
1.5980243350207366
20
0.4193125656316487
30
0
10
1.7942122292958129
20
0.4717878621129078
30
0
10
1.9893543087351075
20
0.48307418914200217
30
0
10
2.1837247353198412
20
0.44963807208982187
30
0
10
2.3778980399304519
20
0.37818967837947626
30
0
10
2.5725965934945143
20
0.28247314923897321
30
0
10
2.7685290843945518
20
0.17976891936100814
30
0
10
2.9662261683245394
20
0.087432476147439847
30
0
10
3.1658910052567846
20
0.019605925883635966
30
0
10
3.3672056709337843
20
-0.016635930597735243
30
0
10
3.5694888277210088
20
-0.020497083114609987
30
0
10
3.7719161958612397
20
0.0041918550677986534
30
0
10
3.9737238262668457
20
0.050318533750171424
30
0
10
4.174406821372485
20
0.10893541314759628
30
0
10
4.3739516798191964
20
0.17069961768832673
30
0
10
4.5727091787116851
20
0.22679643373813713
30
0
10
4.7712183371253145
20
0.26975932118523288
30
0
10
4.9700443082028638
20
0.29436420337463637
30
0
10
5.1696198075893163
20
0.29842122812709704
30
0
10
5.3700605955751364
20
0.28382146306241185
30
0
10
5.5712335515349505
20
0.25546042600741448
30
0
10
5.7728654036460245
20
0.21983373506394588
30
0
10
5.9746386684552242
20
0.18372967974811688
30
0
10
6.1762882921943891
20
0.15293641532548816
30
0
10
6.3777098796636071
20
0.13080007119718406
30
0
10
6.5789253617585057
20
0.1184929947103696
30
0
10
6.7800296134717755
20
0.11551110113221381
30
0
10
6.9811433492505701
20
0.12008556212937414
30
0
10
7.1823651681626179
20
0.1296247376626469
30
0
10
7.3837194442794365
20
0.14114495554355985
30
0
10
7.5851745090857499
20
0.15162682086022572
30
0
10
7.7866675742283809
20
0.15835831776769177
30
0
10
7.9881273431856838
20
0.15928854823039543
30
0
10
8.1894970383157322
20
0.15336689648298213
30
0
10
8.3907586691140459
20
0.14092275431126111
30
0
10
8.5919240032379474
20
0.12328932614316425
30
0
10
8.7930236146935421
20
0.10238720063412288
30
0
10
8.9940966525042505
20
0.08032270955727025
30
0
10
9.1951804406801045
20
0.058985192327209092
30
0
10
9.3962998772659319
20
0.039633033460957125
30
0
10
9.597469735312572
20
0.023013132459158283
30
0
10
9.7584518064713937
20
0.012198276750337829
30
0
10
9.879215395777992
20
0.0055360322243761927
30
0
10
9.9597364638516872
20
0.0017380862708517202
30
0
10
10
20
0
30
0
0
SPLINE
5
104
100
AcDbEntity
8
0
100
AcDbSpline
70
4
71
5
72
61
73
55
74
0
42
0.000000001
43
0.0000000001
44
0.0000000001
40
0
40
0
40
0
40
0
40
0
40
0
40
0.02
40
0.040000000000000001
40
0.059999999999999998
40
0.080000000000000002
40
0.10000000000000001
40
0.12000000000000001
40
0.14000000000000001
40
0.16
40
0.17999999999999999
40
0.19999999999999998
40
0.21999999999999997
40
0.23999999999999996
40
0.25999999999999995
40
0.27999999999999997
40
0.29999999999999999
40
0.32000000000000001
40
0.34000000000000002
40
0.36000000000000004
40
0.38000000000000006
40
0.40000000000000008
40
0.4200000000000001
40
0.44000000000000011
40
0.46000000000000013
40
0.48000000000000015
40
0.50000000000000011
40
0.52000000000000013
40
0.54000000000000015
40
0.56000000000000016
40
0.58000000000000018
40
0.6000000000000002
40
0.62000000000000022
40
0.64000000000000024
40
0.66000000000000025
40
0.68000000000000027
40
0.70000000000000029
40
0.72000000000000031
40
0.74000000000000032
40
0.76000000000000034
40
0.78000000000000036
40
0.80000000000000038
40
0.8200000000000004
40
0.84000000000000041
40
0.86000000000000043
40
0.88000000000000045
40
0.90000000000000047
40
0.92000000000000048
40
0.9400000000000005
40
0.96000000000000052
40
0.98000000000000054
40
1
40
1
40
1
40
1
40
1
40
1
41
1
41
1
41
1
41
1
41
1
41
1
41
1
41
1
41
1
41
1
41
1
41
1
41
1
41
1
41
1
41
1
41
1
41
1
41
1
41
1
41
1
41
1
41
1
41
1
41
1
41
1
41
1
41
1
41
1
41
1
41
1
41
1
41
1
41
1
41
1
41
1
41
1
41
1
41
1
41
1
41
1
41
1
41
1
41
1
41
1
41
1
41
1
41
1
41
1
41
1
41
1
41
1
41
1
41
1
41
1
10
0
20
3
30
0
10
0.040666334510602462
20
3.011854348099603
30
0
10
0.12194788450755091
20
3.0327064279811933
30
0
10
0.24371685181263963
20
3.0554146249192544
30
0
10
0.40576856503548675
20
3.0685418469238983
30
0
10
0.60782871806226568
20
3.0571671190012557
30
0
10
0.80940759040347598
20
3.0205350974179561
30
0
10
1.0105529854576791
20
2.9637674531691212
30
0
10
1.211346432643865
20
2.8955337451574059
30
0
10
1.4119106144482874
20
2.8288000928510995
30
0
10
1.6123826168501632
20
2.7775286254876317
30
0
10
1.8128884328559933
20
2.753519688096425
30
0
10
2.0135175629248567
20
2.7632720644957272
30
0
10
2.2142961597443738
20
2.8046477428648036
30
0
10
2.4151644126926191
20
2.8640930894526861
30
0
10
2.6160195983586387
20
2.9224715044976337
30
0
10
2.8167558604806637
20
2.9604673941550153
30
0
10
3.0173041325742482
20
2.9640090285979781
30
0
10
3.2176745235420929
20
2.9300157527338588
30
0
10
3.4179908368957785
20
2.8711144773939248
30
0
10
3.6184310832604587
20
2.808070053366416
30
0
10
3.8191741064712446
20
2.762999713251622
30
0
10
4.0203452036316136
20
2.7525005901263064
30
0
10
4.2219590869009735
20
2.7803339391931452
30
0
10
4.423872292405429
20
2.8316195274148108
30
0
10
4.625832605669121
20
2.8819872141104597
30
0
10
4.8275203895064127
20
2.9056431114480792
30
0
10
5.0285925918710275
20
2.8835159388956488
30
0
10
5.2287259792188046
20
2.8121382616298591
30
0
10
5.4276593507946753
20
2.7100283363554705
30
0
10
5.6252238214292198
20
2.6071188255728983
30
0
10
5.8213753795317658
20
2.5359667020232113
30
0
10
6.0162255120815944
20
2.522478029672488
30
0
10
6.2100763639688328
20
2.5763909354653776
30
0
10
6.4034451243244392
20
2.6830754324142427
30
0
10
6.5969518922630934
20
2.8135450485380664
30
0
10
6.791217688465041
20
2.933131356675529
30
0
10
6.9867571967380924
20
3.0107661093429998
30
0
10
7.183876979292771
20
3.0277273116114185
30
0
10
7.3825614736732508
20
2.9874004665467169
30
0
10
7.5825613518053245
20
2.9086226189395266
30
0
10
7.7834936473165142
20
2.8180730722583247
30
0
10
7.9849382898760126
20
2.7429413912071117
30
0
10
8.1865333617262301
20
2.7037028672470949
30
0
10
8.3880779236156595
20
2.7062518790898382
30
0
10
8.5895006537040874
20
2.7452730876472082
30
0
10
8.7908187458374147
20
2.8084234771085521
30
0
10
8.9921004059613558
20
2.8802204388733523
30
0
10
9.1934264587006282
20
2.9459898223524594
30
0
10
9.3948511660790253
20
2.9959271669444343
30
0
10
9.5964065698658043
20
3.0242236900653512
30
0
10
9.7577681449275264
20
3.0272493661966853
30
0
10
9.8788575548660837
20
3.0180730199321397
30
0
10
9.9596141340435125
20
3.0068716356886194
30
0
10
10
20
3
30
0
0
ENDSEC
0
SECTION
2
OBJECTS
0
DICTIONARY
5
C
100
AcDbDictionary
3
ACAD_GROUP
350
D
3
ACAD_MLINESTYLE
350
17
0
DICTIONARY
5
D
100
AcDbDictionary
0
DICTIONARY
5
1A
330
C
100
AcDbDictionary
0
DICTIONARY
5
17
100
AcDbDictionary
0
ENDSEC
0
EOF
