0
SECTION
2
HEADER
9
$INSUNITS
70
4
9
$ACADVER
1
AC1014
9
$HANDSEED
5
FFFF
0
ENDSEC
0
SECTION
2
TABLES
0
TABLE
2
VPORT
5
8
100
AcDbSymbolTable
0
ENDTAB
0
TABLE
2
LTYPE
5
5
100
AcDbSymbolTable
0
LTYPE
5
14
100
AcDbSymbolTableRecord
100
AcDbLinetypeTableRecord
2
BYBLOCK
70
0
0
LTYPE
5
15
100
AcDbSymbolTableRecord
100
AcDbLinetypeTableRecord
2
BYLAYER
70
0
0
ENDTAB
0
TABLE
2
LAYER
5
2
100
AcDbSymbolTable
70
2
0
LAYER
5
50
100
AcDbSymbolTableRecord
100
AcDbLayerTableRecord
2
0
70
0
6
CONTINUOUS
0
ENDTAB
0
TABLE
2
STYLE
5
3
100
AcDbSymbolTable
70
1
0
STYLE
5
11
100
AcDbSymbolTableRecord
100
AcDbTextStyleTableRecord
2
STANDARD
70
0
0
ENDTAB
0
TABLE
2
VIEW
5
6
100
AcDbSymbolTable
70
0
0
ENDTAB
0
TABLE
2
UCS
5
7
100
AcDbSymbolTable
70
0
0
ENDTAB
0
TABLE
2
APPID
5
9
100
AcDbSymbolTable
70
2
0
APPID
5
12
100
AcDbSymbolTableRecord
100
AcDbRegAppTableRecord
2
ACAD
70
0
0
ENDTAB
0
TABLE
2
DIMSTYLE
5
A
100
AcDbSymbolTable
70
1
0
ENDTAB
0
TABLE
2
BLOCK_RECORD
5
1
100
AcDbSymbolTable
70
1
0
BLOCK_RECORD
5
1F
100
AcDbSymbolTableRecord
100
AcDbBlockTableRecord
2
*MODEL_SPACE
0
BLOCK_RECORD
5
1B
100
AcDbSymbolTableRecord
100
AcDbBlockTableRecord
2
*PAPER_SPACE
0
ENDTAB
0
ENDSEC
0
SECTION
2
BLOCKS
0
BLOCK
5
20
100
AcDbEntity
100
AcDbBlockBegin
2
*MODEL_SPACE
0
ENDBLK
5
21
100
AcDbEntity
100
AcDbBlockEnd
0
BLOCK
5
1C
100
AcDbEntity
100
AcDbBlockBegin
2
*PAPER_SPACE
0
ENDBLK
5
1D
100
AcDbEntity
100
AcDbBlockEnd
0
ENDSEC
0
SECTION
2
ENTITIES
0
SPLINE
5
100
100
AcDbEntity
8
0
100
AcDbSpline
70
4
71
5
72
16
73
10
74
0
42
0.000000001
43
0.0000000001
44
0.0000000001
40
0
40
0
40
0
40
0
40
0
40
0
40
0.20000000000000001
40
0.40000000000000002
40
0.60000000000000009
40
0.80000000000000004
40
1
40
1
40
1
40
1
40
1
40
1
41
1
41
1
41
1
41
1
41
1
41
1
41
1
41
1
41
1
41
1
10
0
20
0
30
0
10
0
20
0.12000000000003158
30
0
10
0
20
0.36000000000007704
30
0
10
0
20
0.72000000000009301
30
0
10
0
20
1.2000000000000313
30
0
10
0
20
1.7999999999999146
30
0
10
0
20
2.2799999999998684
30
0
10
0
20
2.6399999999999042
30
0
10
0
20
2.8799999999999617
30
0
10
0
20
3
30
0
0
SPLINE
5
101
100
AcDbEntity
8
0
100
AcDbSpline
70
4
71
5
72
16
73
10
74
0
42
0.000000001
43
0.0000000001
44
0.0000000001
40
0
40
0
40
0
40
0
40
0
40
0
40
0.20000000000000001
40
0.40000000000000002
40
0.60000000000000009
40
0.80000000000000004
40
1
40
1
40
1
40
1
40
1
40
1
41
1
41
1
41
1
41
1
41
1
41
1
41
1
41
1
41
1
41
1
10
10
20
0
30
0
10
9.9999999999997495
20
0.12000000000003158
30
0
10
9.9999999999993197
20
0.36000000000007704
30
0
10
9.9999999999989129
20
0.72000000000009301
30
0
10
9.9999999999987672
20
1.2000000000000313
30
0
10
9.9999999999990248
20
1.7999999999999146
30
0
10
9.9999999999993889
20
2.2799999999998684
30
0
10
9.9999999999996998
20
2.6399999999999042
30
0
10
9.9999999999999005
20
2.8799999999999617
30
0
10
10
20
3
30
0
0
SPLINE
5
102
100
AcDbEntity
8
0
100
AcDbSpline
70
4
71
5
72
16
73
10
74
0
42
0.000000001
43
0.0000000001
44
0.0000000001
40
0
40
0
40
0
40
0
40
0
40
0
40
0.20000000000000001
40
0.40000000000000002
40
0.60000000000000009
40
0.80000000000000004
40
1
40
1
40
1
40
1
40
1
40
1
41
1
41
1
41
1
41
1
41
1
41
1
41
1
41
1
41
1
41
1
10
0
20
1.5
30
0
10
0.40000000000047375
20
1.499999999999694
30
0
10
1.2000000000012774
20
1.4999999999991638
30
0
10
2.4000000000020547
20
1.4999999999986278
30
0
10
4.0000000000023546
20
1.4999999999983737
30
0
10
6.0000000000019584
20
1.4999999999985913
30
0
10
7.6000000000012928
20
1.4999999999990359
30
0
10
8.800000000000697
20
1.4999999999994786
30
0
10
9.6000000000002395
20
1.4999999999998188
30
0
10
10
20
1.5
30
0
0
SPLINE
5
103
100
AcDbEntity
8
0
100
AcDbSpline
70
4
71
5
72
61
73
55
74
0
42
0.000000001
43
0.0000000001
44
0.0000000001
40
0
40
0
40
0
40
0
40
0
40
0
40
0.02
40
0.040000000000000001
40
0.059999999999999998
40
0.080000000000000002
40
0.10000000000000001
40
0.12000000000000001
40
0.14000000000000001
40
0.16
40
0.17999999999999999
40
0.19999999999999998
40
0.21999999999999997
40
0.23999999999999996
40
0.25999999999999995
40
0.27999999999999997
40
0.29999999999999999
40
0.32000000000000001
40
0.34000000000000002
40
0.36000000000000004
40
0.38000000000000006
40
0.40000000000000008
40
0.4200000000000001
40
0.44000000000000011
40
0.46000000000000013
40
0.48000000000000015
40
0.50000000000000011
40
0.52000000000000013
40
0.54000000000000015
40
0.56000000000000016
40
0.58000000000000018
40
0.6000000000000002
40
0.62000000000000022
40
0.64000000000000024
40
0.66000000000000025
40
0.68000000000000027
40
0.70000000000000029
40
0.72000000000000031
40
0.74000000000000032
40
0.76000000000000034
40
0.78000000000000036
40
0.80000000000000038
40
0.8200000000000004
40
0.84000000000000041
40
0.86000000000000043
40
0.88000000000000045
40
0.90000000000000047
40
0.92000000000000048
40
0.9400000000000005
40
0.96000000000000052
40
0.98000000000000054
40
1
40
1
40
1
40
1
40
1
40
1
41
1
41
1
41
1
41
1
41
1
41
1
41
1
41
1
41
1
41
1
41
1
41
1
41
1
41
1
41
1
41
1
41
1
41
1
41
1
41
1
41
1
41
1
41
1
41
1
41
1
41
1
41
1
41
1
41
1
41
1
41
1
41
1
41
1
41
1
41
1
41
1
41
1
41
1
41
1
41
1
41
1
41
1
41
1
41
1
41
1
41
1
41
1
41
1
41
1
41
1
41
1
41
1
41
1
41
1
41
1
10
0
20
0
30
0
10
0.039592959066364376
20
0.055924864089091746
30
0
10
0.11875283314743086
20
0.15964599052746709
30
0
10
0.23741451261386476
20
0.29084204623211457
30
0
10
0.39547371575557444
20
0.41696559003718603
30
0
10
0.59279539307503137
20
0.49486902209907524
30
0
10
0.78989057112391992
20
0.49808625769584775
30
0
10
0.98681187037011442
20
0.4370468107279934
30
0
10
1.1836474957335446
20
0.32926848407692749
30
0
10
1.3805314675454357
20
0.20156009872642078
30
0
10
1.5776291994728791
20
0.084277772567499937
30
0
10
1.7751214042360455
20
0.0051838652065555385
30
0
10
1.973188857178074
20
-0.016778998815963762
30
0
10
2.1719963336682295
20
0.022818393748830428
30
0
10
2.3716780751848749
20
0.10656763414558455
30
0
10
2.5723099812336283
20
0.20345934719094
30
0
10
2.7738805794127526
20
0.27919765429381593
30
0
10
2.9762607419498925
20
0.30603398939544457
30
0
10
3.1791768953818185
20
0.27220165510413291
30
0
10
3.3821735794060075
20
0.19318472303234852
30
0
10
3.5846891704195123
20
0.10202819496270926
30
0
10
3.7861448021408557
20
0.037193555778485425
30
0
10
3.986029336872265
20
0.0311182035160677
30
0
10
4.1839842269171337
20
0.098911986097054649
30
0
10
4.3798940136418727
20
0.22577043669181379
30
0
10
4.5738714261604674
20
0.37722265578756192
30
0
10
4.7662339713071225
20
0.51078772572524811
30
0
10
4.9574865263129917
20
0.58752632256922843
30
0
10
5.1482967403157955
20
0.58264217336473045
30
0
10
5.3394875183024402
20
0.49909514592600113
30
0
10
5.5319291697728437
20
0.36173106077867995
30
0
10
5.7264092352254528
20
0.2063661092222896
30
0
10
5.9235012379041869
20
0.070177219492860834
30
0
10
6.1234523247342629
20
-0.017459487324729652
30
0
10
6.3260144428893819
20
-0.046796482505550796
30
0
10
6.5305226000257175
20
-0.026802407670906931
30
0
10
6.7361171029597919
20
0.023370537517251412
30
0
10
6.9419290072834174
20
0.080813451790283805
30
0
10
7.1472634587290642
20
0.12558482279969505
30
0
10
7.3518277865639456
20
0.14872808965631593
30
0
10
7.5556845166709774
20
0.15138396585122896
30
0
10
7.7590998955857993
20
0.14045347175572501
30
0
10
7.9624240236378396
20
0.12532224593882718
30
0
10
8.1659654688961183
20
0.1143537062642027
30
0
10
8.3698491493120848
20
0.11095548114369684
30
0
10
8.5740409637009947
20
0.11422684492433724
30
0
10
8.7784089252710569
20
0.1206187973457344
30
0
10
8.9827719152563397
20
0.12525001258133586
30
0
10
9.1869520863034371
20
0.123325468673601
30
0
10
9.3908293415473025
20
0.11160957253307353
30
0
10
9.5943331476092517
20
0.088204774553908419
30
0
10
9.7568095126973713
20
0.059380569693006063
30
0
10
9.8784780939811441
20
0.031949519098534655
30
0
10
9.9595066668721586
20
0.011080164763734484
30
0
10
10
20
0
30
0
0
SPLINE
5
104
100
AcDbEntity
8
0
100
AcDbSpline
70
4
71
5
72
61
73
55
74
0
42
0.000000001
43
0.0000000001
44
0.0000000001
40
0
40
0
40
0
40
0
40
0
40
0
40
0.02
40
0.040000000000000001
40
0.059999999999999998
40
0.080000000000000002
40
0.10000000000000001
40
0.12000000000000001
40
0.14000000000000001
40
0.16
40
0.17999999999999999
40
0.19999999999999998
40
0.21999999999999997
40
0.23999999999999996
40
0.25999999999999995
40
0.27999999999999997
40
0.29999999999999999
40
0.32000000000000001
40
0.34000000000000002
40
0.36000000000000004
40
0.38000000000000006
40
0.40000000000000008
40
0.4200000000000001
40
0.44000000000000011
40
0.46000000000000013
40
0.48000000000000015
40
0.50000000000000011
40
0.52000000000000013
40
0.54000000000000015
40
0.56000000000000016
40
0.58000000000000018
40
0.6000000000000002
40
0.62000000000000022
40
0.64000000000000024
40
0.66000000000000025
40
0.68000000000000027
40
0.70000000000000029
40
0.72000000000000031
40
0.74000000000000032
40
0.76000000000000034
40
0.78000000000000036
40
0.80000000000000038
40
0.8200000000000004
40
0.84000000000000041
40
0.86000000000000043
40
0.88000000000000045
40
0.90000000000000047
40
0.92000000000000048
40
0.9400000000000005
40
0.96000000000000052
40
0.98000000000000054
40
1
40
1
40
1
40
1
40
1
40
1
41
1
41
1
41
1
41
1
41
1
41
1
41
1
41
1
41
1
41
1
41
1
41
1
41
1
41
1
41
1
41
1
41
1
41
1
41
1
41
1
41
1
41
1
41
1
41
1
41
1
41
1
41
1
41
1
41
1
41
1
41
1
41
1
41
1
41
1
41
1
41
1
41
1
41
1
41
1
41
1
41
1
41
1
41
1
41
1
41
1
41
1
41
1
41
1
41
1
41
1
41
1
41
1
41
1
41
1
41
1
10
0
20
3
30
0
10
0.040495704700139266
20
3.0091361189706323
30
0
10
0.12147037949600233
20
3.0246744621676855
30
0
10
0.24288218855277544
20
3.0397802263088702
30
0
10
0.40466412313545813
20
3.0435076302814879
30
0
10
0.6067171464378982
20
3.0216002259627772
30
0
10
0.80857551296158259
20
2.9756140561985878
30
0
10
1.0101993485654965
20
2.9105920708943414
30
0
10
1.2115221412755259
20
2.8350645172199087
30
0
10
1.4124455832598133
20
2.7617983507395953
30
0
10
1.6128726813327376
20
2.7047394562699529
30
0
10
1.8127395590477102
20
2.676091412598836
30
0
10
2.0120472043271902
20
2.6833963540371131
30
0
10
2.2108948576089662
20
2.7264732230668272
30
0
10
2.409508861453046
20
2.7947659900546991
30
0
10
2.6081886768601015
20
2.8721064697655518
30
0
10
2.8072571284058174
20
2.9411124204139099
30
0
10
3.0070093816378525
20
2.9876717632211718
30
0
10
3.2076618852219219
20
3.0054991051898314
30
0
10
3.4093026352817408
20
3.0003921056075327
30
0
10
3.6118960916891756
20
2.9848733362267761
30
0
10
3.815285655151591
20
2.9730794545463306
30
0
10
4.0191975322234628
20
2.9757068983504014
30
0
10
4.223241749899179
20
2.994601403241457
30
0
10
4.4269195037387421
20
3.0184143459286696
30
0
10
4.6296953814127066
20
3.0294663609485495
30
0
10
4.8310655136633249
20
3.0098744550946348
30
0
10
5.0306254729207422
20
2.9476864778213692
30
0
10
5.2281428685052518
20
2.843650843656417
30
0
10
5.4236155810203162
20
2.7158927988709891
30
0
10
5.6172397006301491
20
2.5914971866095762
30
0
10
5.809388335960751
20
2.499622533044207
30
0
10
6.0005868094579373
20
2.4640362269043021
30
0
10
6.191489794460141
20
2.4958824480399042
30
0
10
6.3828581996714453
20
2.5863338537624916
30
0
10
6.5754537528530754
20
2.7135046427076572
30
0
10
6.769935865516139
20
2.8491877580773646
30
0
10
6.9667530829091433
20
2.9658205756114868
30
0
10
7.1660462459286078
20
3.042925543949714
30
0
10
7.3675196347658645
20
3.0749037516904263
30
0
10
7.5705650194443441
20
3.0680286531081373
30
0
10
7.7744301685717492
20
3.0355117595995145
30
0
10
7.9783742190609708
20
2.9931911469791928
30
0
10
8.1818219332320474
20
2.9551299488918117
30
0
10
8.3845361016223663
20
2.9288259682526459
30
0
10
8.5865480965238739
20
2.9163561918269698
30
0
10
8.78806190498352
20
2.9161889362860292
30
0
10
8.9893675524353363
20
2.9247563627952444
30
0
10
9.190752383385389
20
2.9380947123401411
30
0
10
9.3924092885763724
20
2.9535234995106379
30
0
10
9.5944523515126505
20
2.9694511410688564
30
0
10
9.756441003574718
20
2.9819527851309746
30
0
10
9.8781398934326372
20
2.9910751463475815
30
0
10
9.9593646107007867
20
2.9970438554960834
30
0
10
10
20
3
30
0
0
ENDSEC
0
SECTION
2
OBJECTS
0
DICTIONARY
5
C
100
AcDbDictionary
3
ACAD_GROUP
350
D
3
ACAD_MLINESTYLE
350
17
0
DICTIONARY
5
D
100
AcDbDictionary
0
DICTIONARY
5
1A
330
C
100
AcDbDictionary
0
DICTIONARY
5
17
100
AcDbDictionary
0
ENDSEC
0
EOF
