0
SECTION
2
HEADER
9
$INSUNITS
70
4
9
$ACADVER
1
AC1014
9
$HANDSEED
5
FFFF
0
ENDSEC
0
SECTION
2
TABLES
0
TABLE
2
VPORT
5
8
100
AcDbSymbolTable
0
ENDTAB
0
TABLE
2
LTYPE
5
5
100
AcDbSymbolTable
0
LTYPE
5
14
100
AcDbSymbolTableRecord
100
AcDbLinetypeTableRecord
2
BYBLOCK
70
0
0
LTYPE
5
15
100
AcDbSymbolTableRecord
100
AcDbLinetypeTableRecord
2
BYLAYER
70
0
0
ENDTAB
0
TABLE
2
LAYER
5
2
100
AcDbSymbolTable
70
2
0
LAYER
5
50
100
AcDbSymbolTableRecord
100
AcDbLayerTableRecord
2
0
70
0
6
CONTINUOUS
0
ENDTAB
0
TABLE
2
STYLE
5
3
100
AcDbSymbolTable
70
1
0
STYLE
5
11
100
AcDbSymbolTableRecord
100
AcDbTextStyleTableRecord
2
STANDARD
70
0
0
ENDTAB
0
TABLE
2
VIEW
5
6
100
AcDbSymbolTable
70
0
0
ENDTAB
0
TABLE
2
UCS
5
7
100
AcDbSymbolTable
70
0
0
ENDTAB
0
TABLE
2
APPID
5
9
100
AcDbSymbolTable
70
2
0
APPID
5
12
100
AcDbSymbolTableRecord
100
AcDbRegAppTableRecord
2
ACAD
70
0
0
ENDTAB
0
TABLE
2
DIMSTYLE
5
A
100
AcDbSymbolTable
70
1
0
ENDTAB
0
TABLE
2
BLOCK_RECORD
5
1
100
AcDbSymbolTable
70
1
0
BLOCK_RECORD
5
1F
100
AcDbSymbolTableRecord
100
AcDbBlockTableRecord
2
*MODEL_SPACE
0
BLOCK_RECORD
5
1B
100
AcDbSymbolTableRecord
100
AcDbBlockTableRecord
2
*PAPER_SPACE
0
ENDTAB
0
ENDSEC
0
SECTION
2
BLOCKS
0
BLOCK
5
20
100
AcDbEntity
100
AcDbBlockBegin
2
*MODEL_SPACE
0
ENDBLK
5
21
100
AcDbEntity
100
AcDbBlockEnd
0
BLOCK
5
1C
100
AcDbEntity
100
AcDbBlockBegin
2
*PAPER_SPACE
0
ENDBLK
5
1D
100
AcDbEntity
100
AcDbBlockEnd
0
ENDSEC
0
SECTION
2
ENTITIES
0
SPLINE
5
100
100
AcDbEntity
8
0
100
AcDbSpline
70
4
71
5
72
16
73
10
74
0
42
0.000000001
43
0.0000000001
44
0.0000000001
40
0
40
0
40
0
40
0
40
0
40
0
40
0.20000000000000001
40
0.40000000000000002
40
0.60000000000000009
40
0.80000000000000004
40
1
40
1
40
1
40
1
40
1
40
1
41
1
41
1
41
1
41
1
41
1
41
1
41
1
41
1
41
1
41
1
10
0
20
0
30
0
10
0
20
0.12000000000003158
30
0
10
0
20
0.36000000000007704
30
0
10
0
20
0.72000000000009301
30
0
10
0
20
1.2000000000000313
30
0
10
0
20
1.7999999999999146
30
0
10
0
20
2.2799999999998684
30
0
10
0
20
2.6399999999999042
30
0
10
0
20
2.8799999999999617
30
0
10
0
20
3
30
0
0
SPLINE
5
101
100
AcDbEntity
8
0
100
AcDbSpline
70
4
71
5
72
16
73
10
74
0
42
0.000000001
43
0.0000000001
44
0.0000000001
40
0
40
0
40
0
40
0
40
0
40
0
40
0.20000000000000001
40
0.40000000000000002
40
0.60000000000000009
40
0.80000000000000004
40
1
40
1
40
1
40
1
40
1
40
1
41
1
41
1
41
1
41
1
41
1
41
1
41
1
41
1
41
1
41
1
10
10
20
0
30
0
10
9.9999999999997495
20
0.12000000000003158
30
0
10
9.9999999999993197
20
0.36000000000007704
30
0
10
9.9999999999989129
20
0.72000000000009301
30
0
10
9.9999999999987672
20
1.2000000000000313
30
0
10
9.9999999999990248
20
1.7999999999999146
30
0
10
9.9999999999993889
20
2.2799999999998684
30
0
10
9.9999999999996998
20
2.6399999999999042
30
0
10
9.9999999999999005
20
2.8799999999999617
30
0
10
10
20
3
30
0
0
SPLINE
5
102
100
AcDbEntity
8
0
100
AcDbSpline
70
4
71
5
72
16
73
10
74
0
42
0.000000001
43
0.0000000001
44
0.0000000001
40
0
40
0
40
0
40
0
40
0
40
0
40
0.20000000000000001
40
0.40000000000000002
40
0.60000000000000009
40
0.80000000000000004
40
1
40
1
40
1
40
1
40
1
40
1
41
1
41
1
41
1
41
1
41
1
41
1
41
1
41
1
41
1
41
1
10
0
20
1.5
30
0
10
0.40000000000047375
20
1.499999999999694
30
0
10
1.2000000000012774
20
1.4999999999991638
30
0
10
2.4000000000020547
20
1.4999999999986278
30
0
10
4.0000000000023546
20
1.4999999999983737
30
0
10
6.0000000000019584
20
1.4999999999985913
30
0
10
7.6000000000012928
20
1.4999999999990359
30
0
10
8.800000000000697
20
1.4999999999994786
30
0
10
9.6000000000002395
20
1.4999999999998188
30
0
10
10
20
1.5
30
0
0
SPLINE
5
103
100
AcDbEntity
8
0
100
AcDbSpline
70
4
71
5
72
61
73
55
74
0
42
0.000000001
43
0.0000000001
44
0.0000000001
40
0
40
0
40
0
40
0
40
0
40
0
40
0.02
40
0.040000000000000001
40
0.059999999999999998
40
0.080000000000000002
40
0.10000000000000001
40
0.12000000000000001
40
0.14000000000000001
40
0.16
40
0.17999999999999999
40
0.19999999999999998
40
0.21999999999999997
40
0.23999999999999996
40
0.25999999999999995
40
0.27999999999999997
40
0.29999999999999999
40
0.32000000000000001
40
0.34000000000000002
40
0.36000000000000004
40
0.38000000000000006
40
0.40000000000000008
40
0.4200000000000001
40
0.44000000000000011
40
0.46000000000000013
40
0.48000000000000015
40
0.50000000000000011
40
0.52000000000000013
40
0.54000000000000015
40
0.56000000000000016
40
0.58000000000000018
40
0.6000000000000002
40
0.62000000000000022
40
0.64000000000000024
40
0.66000000000000025
40
0.68000000000000027
40
0.70000000000000029
40
0.72000000000000031
40
0.74000000000000032
40
0.76000000000000034
40
0.78000000000000036
40
0.80000000000000038
40
0.8200000000000004
40
0.84000000000000041
40
0.86000000000000043
40
0.88000000000000045
40
0.90000000000000047
40
0.92000000000000048
40
0.9400000000000005
40
0.96000000000000052
40
0.98000000000000054
40
1
40
1
40
1
40
1
40
1
40
1
41
1
41
1
41
1
41
1
41
1
41
1
41
1
41
1
41
1
41
1
41
1
41
1
41
1
41
1
41
1
41
1
41
1
41
1
41
1
41
1
41
1
41
1
41
1
41
1
41
1
41
1
41
1
41
1
41
1
41
1
41
1
41
1
41
1
41
1
41
1
41
1
41
1
41
1
41
1
41
1
41
1
41
1
41
1
41
1
41
1
41
1
41
1
41
1
41
1
41
1
41
1
41
1
41
1
41
1
41
1
10
0
20
0
30
0
10
0.040009643323314435
20
0.006739586443693428
30
0
10
0.12006178749823446
20
0.019344669842679962
30
0
10
0.24023857672910148
20
0.035630022284430268
30
0
10
0.40067156679472088
20
0.05209589941006381
30
0
10
0.60153081835709488
20
0.064105550332444736
30
0
10
0.80267439508947347
20
0.068099445275944359
30
0
10
1.0040339868831729
20
0.065217315681086907
30
0
10
1.2054944783594981
20
0.057387210666888316
30
0
10
1.4068827541122753
20
0.047520534907803558
30
0
10
1.6080111043553889
20
0.039064159978221477
30
0
10
1.8087199742320141
20
0.035564233471572657
30
0
10
2.0089203367894832
20
0.040227817775287465
30
0
10
2.2086379474385618
20
0.055481004707071624
30
0
10
2.4080527407028303
20
0.082537187420895566
30
0
10
2.6074173066682924
20
0.1212799043787821
30
0
10
2.8069796654997758
20
0.1701277289397127
30
0
10
3.0069053113778015
20
0.22590782688489988
30
0
10
3.2071974634805063
20
0.28370718655516569
30
0
10
3.4076230985575631
20
0.33676766506016809
30
0
10
3.6078311034157946
20
0.37776513632709924
30
0
10
3.8074648033145211
20
0.40005042678584812
30
0
10
4.0062755543530795
20
0.39889667614164404
30
0
10
4.2042383054873946
20
0.37276970024589928
30
0
10
4.4016606925277886
20
0.32453833366212648
30
0
10
4.5990337782625597
20
0.26025220959471496
30
0
10
4.7968904722475276
20
0.18799227941048494
30
0
10
4.9956605822982718
20
0.11669940581399772
30
0
10
5.1955287589557102
20
0.055019255974131133
30
0
10
5.3962861111552058
20
0.010131164156266591
30
0
10
5.5974785419092887
20
-0.012802277120923957
30
0
10
5.7985599903230884
20
-0.01117790453750994
30
0
10
5.9990437060755628
20
0.014493371926312882
30
0
10
6.1986539249414188
20
0.060033085348756295
30
0
10
6.3974791302389535
20
0.11701734878594112
30
0
10
6.595849268903903
20
0.17491651489787885
30
0
10
6.7942123193256823
20
0.22323559076979593
30
0
10
6.9930107474351626
20
0.25367074965502934
30
0
10
7.1925598832009241
20
0.2622222900739733
30
0
10
7.3929203448745708
20
0.25144946139333607
30
0
10
7.5939657130154163
20
0.2282204414114048
30
0
10
7.7954560373330857
20
0.20132938944927845
30
0
10
7.9971089902970602
20
0.1791630252401849
30
0
10
8.1986714558652789
20
0.16736202121570859
30
0
10
8.3999919617435665
20
0.16643816628379146
30
0
10
8.6009988728756603
20
0.1731736886964142
30
0
10
8.8016774020963098
20
0.18206617866752045
30
0
10
9.0020472671813554
20
0.1867470353006106
30
0
10
9.2021401310752822
20
0.18141243900076601
30
0
10
9.4019773805888498
20
0.16223552867750035
30
0
10
9.6015722301869673
20
0.12694923055113738
30
0
10
9.761059739157842
20
0.08494821480853243
30
0
10
9.8805705909679471
20
0.045545193313438516
30
0
10
9.9601979534380582
20
0.015766700397176071
30
0
10
10
20
0
30
0
0
SPLINE
5
104
100
AcDbEntity
8
0
100
AcDbSpline
70
4
71
5
72
61
73
55
74
0
42
0.000000001
43
0.0000000001
44
0.0000000001
40
0
40
0
40
0
40
0
40
0
40
0
40
0.02
40
0.040000000000000001
40
0.059999999999999998
40
0.080000000000000002
40
0.10000000000000001
40
0.12000000000000001
40
0.14000000000000001
40
0.16
40
0.17999999999999999
40
0.19999999999999998
40
0.21999999999999997
40
0.23999999999999996
40
0.25999999999999995
40
0.27999999999999997
40
0.29999999999999999
40
0.32000000000000001
40
0.34000000000000002
40
0.36000000000000004
40
0.38000000000000006
40
0.40000000000000008
40
0.4200000000000001
40
0.44000000000000011
40
0.46000000000000013
40
0.48000000000000015
40
0.50000000000000011
40
0.52000000000000013
40
0.54000000000000015
40
0.56000000000000016
40
0.58000000000000018
40
0.6000000000000002
40
0.62000000000000022
40
0.64000000000000024
40
0.66000000000000025
40
0.68000000000000027
40
0.70000000000000029
40
0.72000000000000031
40
0.74000000000000032
40
0.76000000000000034
40
0.78000000000000036
40
0.80000000000000038
40
0.8200000000000004
40
0.84000000000000041
40
0.86000000000000043
40
0.88000000000000045
40
0.90000000000000047
40
0.92000000000000048
40
0.9400000000000005
40
0.96000000000000052
40
0.98000000000000054
40
1
40
1
40
1
40
1
40
1
40
1
41
1
41
1
41
1
41
1
41
1
41
1
41
1
41
1
41
1
41
1
41
1
41
1
41
1
41
1
41
1
41
1
41
1
41
1
41
1
41
1
41
1
41
1
41
1
41
1
41
1
41
1
41
1
41
1
41
1
41
1
41
1
41
1
41
1
41
1
41
1
41
1
41
1
41
1
41
1
41
1
41
1
41
1
41
1
41
1
41
1
41
1
41
1
41
1
41
1
41
1
41
1
41
1
41
1
41
1
41
1
10
0
20
3
30
0
10
0.039346308801755048
20
2.9678476938024922
30
0
10
0.1180615736678766
20
2.907516133908719
30
0
10
0.23620241327335711
20
2.8289378973232355
30
0
10
0.39385950133773934
20
2.7480211227548432
30
0
10
0.5911629058157073
20
2.6860754754234062
30
0
10
0.78871368098911498
20
2.661511485739656
30
0
10
0.98654198413441652
20
2.6705548879393937
30
0
10
1.1846972154056106
20
2.7068338667395593
30
0
10
1.3832538885642136
20
2.7605844893640175
30
0
10
1.5822928961792444
20
2.8204013882893468
30
0
10
1.7818814021178695
20
2.8751330837666789
30
0
10
1.9820527117425257
20
2.9157635369426109
30
0
10
2.1827871676107855
20
2.9372135311402192
30
0
10
2.3839894870038862
20
2.9404284792617679
30
0
10
2.5855148314828713
20
2.9304934968911143
30
0
10
2.787199016194974
20
2.9144111133782298
30
0
10
2.9888874391403384
20
2.89898217449689
30
0
10
3.190463881724992
20
2.8887022579861976
30
0
10
3.3918812500452695
20
2.8834907158328855
30
0
10
3.5931464533860535
20
2.88037664641414
30
0
10
3.7943028977201294
20
2.8753894915147322
30
0
10
3.995413930877914
20
2.8653820222408437
30
0
10
4.1965460342473246
20
2.8498569868224939
30
0
10
4.39775193853069
20
2.8328687942794497
30
0
10
4.5990660736568287
20
2.8206935555456307
30
0
10
4.8005002674837991
20
2.8194070920174408
30
0
10
5.0020393044849767
20
2.8325063612016788
30
0
10
5.203636438192957
20
2.8584880381133604
30
0
10
5.4052089238957457
20
2.8884852436143458
30
0
10
5.6066460464927719
20
2.9101041319534904
30
0
10
5.807816910737734
20
2.9112212461851463
30
0
10
6.0085783922627112
20
2.8837482012177533
30
0
10
6.2087826886147077
20
2.8275234191462246
30
0
10
6.4082858681322588
20
2.7538750590119028
30
0
10
6.6069809761910037
20
2.6804967019638255
30
0
10
6.8048303978935207
20
2.6266459506926019
30
0
10
7.0018985764210235
20
2.6082388221014896
30
0
10
7.1983851088119621
20
2.6329614254647633
30
0
10
7.3946573451120283
20
2.6954143859336859
30
0
10
7.5911658012874099
20
2.781643551613481
30
0
10
7.7883612888556772
20
2.8735479282976142
30
0
10
7.9866102818983231
20
2.9533701989762182
30
0
10
8.1861135672430461
20
3.0080301788356949
30
0
10
8.3868157259359997
20
3.0338568349082085
30
0
10
8.5884734362713093
20
3.0343498423454358
30
0
10
8.7907334107758857
20
3.0175141702614807
30
0
10
8.9932068560495821
20
2.9933514237193881
30
0
10
9.195544329647964
20
2.9713218031229935
30
0
10
9.3975128991187695
20
2.9577413170860329
30
0
10
9.598974372195352
20
2.9563571682931391
30
0
10
9.7596832278722516
20
2.9664912549795988
30
0
10
9.8799460785414333
20
2.9806836971711186
30
0
10
9.9600019240906494
20
2.9930732492598375
30
0
10
10
20
3
30
0
0
ENDSEC
0
SECTION
2
OBJECTS
0
DICTIONARY
5
C
100
AcDbDictionary
3
ACAD_GROUP
350
D
3
ACAD_MLINESTYLE
350
17
0
DICTIONARY
5
D
100
AcDbDictionary
0
DICTIONARY
5
1A
330
C
100
AcDbDictionary
0
DICTIONARY
5
17
100
AcDbDictionary
0
ENDSEC
0
EOF
