0
SECTION
2
HEADER
9
$INSUNITS
70
4
9
$ACADVER
1
AC1014
9
$HANDSEED
5
FFFF
0
ENDSEC
0
SECTION
2
TABLES
0
TABLE
2
VPORT
5
8
100
AcDbSymbolTable
0
ENDTAB
0
TABLE
2
LTYPE
5
5
100
AcDbSymbolTable
0
LTYPE
5
14
100
AcDbSymbolTableRecord
100
AcDbLinetypeTableRecord
2
BYBLOCK
70
0
0
LTYPE
5
15
100
AcDbSymbolTableRecord
100
AcDbLinetypeTableRecord
2
BYLAYER
70
0
0
ENDTAB
0
TABLE
2
LAYER
5
2
100
AcDbSymbolTable
70
2
0
LAYER
5
50
100
AcDbSymbolTableRecord
100
AcDbLayerTableRecord
2
0
70
0
6
CONTINUOUS
0
ENDTAB
0
TABLE
2
STYLE
5
3
100
AcDbSymbolTable
70
1
0
STYLE
5
11
100
AcDbSymbolTableRecord
100
AcDbTextStyleTableRecord
2
STANDARD
70
0
0
ENDTAB
0
TABLE
2
VIEW
5
6
100
AcDbSymbolTable
70
0
0
ENDTAB
0
TABLE
2
UCS
5
7
100
AcDbSymbolTable
70
0
0
ENDTAB
0
TABLE
2
APPID
5
9
100
AcDbSymbolTable
70
2
0
APPID
5
12
100
AcDbSymbolTableRecord
100
AcDbRegAppTableRecord
2
ACAD
70
0
0
ENDTAB
0
TABLE
2
DIMSTYLE
5
A
100
AcDbSymbolTable
70
1
0
ENDTAB
0
TABLE
2
BLOCK_RECORD
5
1
100
AcDbSymbolTable
70
1
0
BLOCK_RECORD
5
1F
100
AcDbSymbolTableRecord
100
AcDbBlockTableRecord
2
*MODEL_SPACE
0
BLOCK_RECORD
5
1B
100
AcDbSymbolTableRecord
100
AcDbBlockTableRecord
2
*PAPER_SPACE
0
ENDTAB
0
ENDSEC
0
SECTION
2
BLOCKS
0
BLOCK
5
20
100
AcDbEntity
100
AcDbBlockBegin
2
*MODEL_SPACE
0
ENDBLK
5
21
100
AcDbEntity
100
AcDbBlockEnd
0
BLOCK
5
1C
100
AcDbEntity
100
AcDbBlockBegin
2
*PAPER_SPACE
0
ENDBLK
5
1D
100
AcDbEntity
100
AcDbBlockEnd
0
ENDSEC
0
SECTION
2
ENTITIES
0
SPLINE
5
100
100
AcDbEntity
8
0
100
AcDbSpline
70
4
71
5
72
16
73
10
74
0
42
0.000000001
43
0.0000000001
44
0.0000000001
40
0
40
0
40
0
40
0
40
0
40
0
40
0.20000000000000001
40
0.40000000000000002
40
0.60000000000000009
40
0.80000000000000004
40
1
40
1
40
1
40
1
40
1
40
1
41
1
41
1
41
1
41
1
41
1
41
1
41
1
41
1
41
1
41
1
10
0
20
0
30
0
10
0
20
0.12000000000003158
30
0
10
0
20
0.36000000000007704
30
0
10
0
20
0.72000000000009301
30
0
10
0
20
1.2000000000000313
30
0
10
0
20
1.7999999999999146
30
0
10
0
20
2.2799999999998684
30
0
10
0
20
2.6399999999999042
30
0
10
0
20
2.8799999999999617
30
0
10
0
20
3
30
0
0
SPLINE
5
101
100
AcDbEntity
8
0
100
AcDbSpline
70
4
71
5
72
16
73
10
74
0
42
0.000000001
43
0.0000000001
44
0.0000000001
40
0
40
0
40
0
40
0
40
0
40
0
40
0.20000000000000001
40
0.40000000000000002
40
0.60000000000000009
40
0.80000000000000004
40
1
40
1
40
1
40
1
40
1
40
1
41
1
41
1
41
1
41
1
41
1
41
1
41
1
41
1
41
1
41
1
10
10
20
0
30
0
10
9.9999999999997495
20
0.12000000000003158
30
0
10
9.9999999999993197
20
0.36000000000007704
30
0
10
9.9999999999989129
20
0.72000000000009301
30
0
10
9.9999999999987672
20
1.2000000000000313
30
0
10
9.9999999999990248
20
1.7999999999999146
30
0
10
9.9999999999993889
20
2.2799999999998684
30
0
10
9.9999999999996998
20
2.6399999999999042
30
0
10
9.9999999999999005
20
2.8799999999999617
30
0
10
10
20
3
30
0
0
SPLINE
5
102
100
AcDbEntity
8
0
100
AcDbSpline
70
4
71
5
72
16
73
10
74
0
42
0.000000001
43
0.0000000001
44
0.0000000001
40
0
40
0
40
0
40
0
40
0
40
0
40
0.20000000000000001
40
0.40000000000000002
40
0.60000000000000009
40
0.80000000000000004
40
1
40
1
40
1
40
1
40
1
40
1
41
1
41
1
41
1
41
1
41
1
41
1
41
1
41
1
41
1
41
1
10
0
20
1.5
30
0
10
0.40000000000047375
20
1.499999999999694
30
0
10
1.2000000000012774
20
1.4999999999991638
30
0
10
2.4000000000020547
20
1.4999999999986278
30
0
10
4.0000000000023546
20
1.4999999999983737
30
0
10
6.0000000000019584
20
1.4999999999985913
30
0
10
7.6000000000012928
20
1.4999999999990359
30
0
10
8.800000000000697
20
1.4999999999994786
30
0
10
9.6000000000002395
20
1.4999999999998188
30
0
10
10
20
1.5
30
0
0
SPLINE
5
103
100
AcDbEntity
8
0
100
AcDbSpline
70
4
71
5
72
61
73
55
74
0
42
0.000000001
43
0.0000000001
44
0.0000000001
40
0
40
0
40
0
40
0
40
0
40
0
40
0.02
40
0.040000000000000001
40
0.059999999999999998
40
0.080000000000000002
40
0.10000000000000001
40
0.12000000000000001
40
0.14000000000000001
40
0.16
40
0.17999999999999999
40
0.19999999999999998
40
0.21999999999999997
40
0.23999999999999996
40
0.25999999999999995
40
0.27999999999999997
40
0.29999999999999999
40
0.32000000000000001
40
0.34000000000000002
40
0.36000000000000004
40
0.38000000000000006
40
0.40000000000000008
40
0.4200000000000001
40
0.44000000000000011
40
0.46000000000000013
40
0.48000000000000015
40
0.50000000000000011
40
0.52000000000000013
40
0.54000000000000015
40
0.56000000000000016
40
0.58000000000000018
40
0.6000000000000002
40
0.62000000000000022
40
0.64000000000000024
40
0.66000000000000025
40
0.68000000000000027
40
0.70000000000000029
40
0.72000000000000031
40
0.74000000000000032
40
0.76000000000000034
40
0.78000000000000036
40
0.80000000000000038
40
0.8200000000000004
40
0.84000000000000041
40
0.86000000000000043
40
0.88000000000000045
40
0.90000000000000047
40
0.92000000000000048
40
0.9400000000000005
40
0.96000000000000052
40
0.98000000000000054
40
1
40
1
40
1
40
1
40
1
40
1
41
1
41
1
41
1
41
1
41
1
41
1
41
1
41
1
41
1
41
1
41
1
41
1
41
1
41
1
41
1
41
1
41
1
41
1
41
1
41
1
41
1
41
1
41
1
41
1
41
1
41
1
41
1
41
1
41
1
41
1
41
1
41
1
41
1
41
1
41
1
41
1
41
1
41
1
41
1
41
1
41
1
41
1
41
1
41
1
41
1
41
1
41
1
41
1
41
1
41
1
41
1
41
1
41
1
41
1
41
1
10
0
20
0
30
0
10
0.040120931008099131
20
0.0044155144832401377
30
0
10
0.12037207227663792
20
0.013212361106401567
30
0
10
0.24077662191533128
20
0.026305088887163333
30
0
10
0.40137173335335763
20
0.043556799816986083
30
0
10
0.60220838750869932
20
0.064666722625847037
30
0
10
0.80313717976945354
20
0.084984416697743231
30
0
10
1.0041565738586253
20
0.10383659756902788
30
0
10
1.205263769939571
20
0.12009759038150752
30
0
10
1.406454292659143
20
0.13208541432290108
30
0
10
1.6077194322162194
20
0.13810413003090943
30
0
10
1.8090436507274108
20
0.13698016283596728
30
0
10
2.0104021088565251
20
0.1285907218986175
30
0
10
2.2117578253961678
20
0.11442437605321845
30
0
10
2.4130597704863792
20
0.098058825924124349
30
0
10
2.6142589498231237
20
0.08395237502883339
30
0
10
2.815324024006653
20
0.076296636103020093
30
0
10
3.0162565070259708
20
0.077875381467351429
30
0
10
3.2171076950604798
20
0.088850210623564463
30
0
10
3.4179908164141692
20
0.10576302136079901
30
0
10
3.6190346877752533
20
0.12328973531977046
30
0
10
3.8203403522363208
20
0.13582949673976569
30
0
10
4.0219384159158791
20
0.13910905329175943
30
0
10
4.2237415594491488
20
0.13188850083597314
30
0
10
4.4255113718861683
20
0.11732648388306176
30
0
10
4.6269521965815805
20
0.10120157965223858
30
0
10
4.8277957778332867
20
0.090395860996583269
30
0
10
5.0278854806909647
20
0.091317880335881174
30
0
10
5.2272701875353302
20
0.10826838998005986
30
0
10
5.4262675115498773
20
0.1420699569920405
30
0
10
5.6253180259454574
20
0.19064387477481121
30
0
10
5.8248598178879423
20
0.24935742516711923
30
0
10
6.0252000568176189
20
0.31147840839168878
30
0
10
6.2263764745896957
20
0.3685161758347269
30
0
10
6.4280547894434381
20
0.41078278636482163
30
0
10
6.6297043453061377
20
0.4293944120294127
30
0
10
6.8307485676235835
20
0.41819140807229949
30
0
10
7.0307189656593287
20
0.37558085325240137
30
0
10
7.2294215778391386
20
0.30669298765077285
30
0
10
7.4270580551698249
20
0.22462679666819554
30
0
10
7.6240629012433807
20
0.14619345048880475
30
0
10
7.8209729766909124
20
0.088263408098055454
30
0
10
8.0182875586863087
20
0.063967686138347316
30
0
10
8.2163263068397026
20
0.078756906070547042
30
0
10
8.4151053524453019
20
0.12706697228863831
30
0
10
8.6144326405694471
20
0.19598590894921325
30
0
10
8.8139863474932625
20
0.26838711207956784
30
0
10
9.0133984630228685
20
0.3262156136422944
30
0
10
9.2123380009648574
20
0.35378772161462901
30
0
10
9.4105886369707488
20
0.34085057503251609
30
0
10
9.6080213713710467
20
0.28130788861595835
30
0
10
9.7652630083730632
20
0.19402339741217989
30
0
10
9.8827889913291109
20
0.10584092860647938
30
0
10
9.9609596615391318
20
0.036962076301190479
30
0
10
10
20
0
30
0
0
SPLINE
5
104
100
AcDbEntity
8
0
100
AcDbSpline
70
4
71
5
72
61
73
55
74
0
42
0.000000001
43
0.0000000001
44
0.0000000001
40
0
40
0
40
0
40
0
40
0
40
0
40
0.02
40
0.040000000000000001
40
0.059999999999999998
40
0.080000000000000002
40
0.10000000000000001
40
0.12000000000000001
40
0.14000000000000001
40
0.16
40
0.17999999999999999
40
0.19999999999999998
40
0.21999999999999997
40
0.23999999999999996
40
0.25999999999999995
40
0.27999999999999997
40
0.29999999999999999
40
0.32000000000000001
40
0.34000000000000002
40
0.36000000000000004
40
0.38000000000000006
40
0.40000000000000008
40
0.4200000000000001
40
0.44000000000000011
40
0.46000000000000013
40
0.48000000000000015
40
0.50000000000000011
40
0.52000000000000013
40
0.54000000000000015
40
0.56000000000000016
40
0.58000000000000018
40
0.6000000000000002
40
0.62000000000000022
40
0.64000000000000024
40
0.66000000000000025
40
0.68000000000000027
40
0.70000000000000029
40
0.72000000000000031
40
0.74000000000000032
40
0.76000000000000034
40
0.78000000000000036
40
0.80000000000000038
40
0.8200000000000004
40
0.84000000000000041
40
0.86000000000000043
40
0.88000000000000045
40
0.90000000000000047
40
0.92000000000000048
40
0.9400000000000005
40
0.96000000000000052
40
0.98000000000000054
40
1
40
1
40
1
40
1
40
1
40
1
41
1
41
1
41
1
41
1
41
1
41
1
41
1
41
1
41
1
41
1
41
1
41
1
41
1
41
1
41
1
41
1
41
1
41
1
41
1
41
1
41
1
41
1
41
1
41
1
41
1
41
1
41
1
41
1
41
1
41
1
41
1
41
1
41
1
41
1
41
1
41
1
41
1
41
1
41
1
41
1
41
1
41
1
41
1
41
1
41
1
41
1
41
1
41
1
41
1
41
1
41
1
41
1
41
1
41
1
41
1
10
0
20
3
30
0
10
0.040089390674571741
20
2.9861508064120197
30
0
10
0.12029021321192475
20
2.9602639940780167
30
0
10
0.24065757066379856
20
2.9268685217844297
30
0
10
0.401279713341681
20
2.8932176125381259
30
0
10
0.602275568101175
20
2.8688349690950905
30
0
10
0.80348158012686732
20
2.8607187378858789
30
0
10
1.0048810640346664
20
2.8659893605252647
30
0
10
1.2064455333238528
20
2.8797793960918634
30
0
10
1.4081317747619992
20
2.8947676372295139
30
0
10
1.609888632023577
20
2.9031771719433745
30
0
10
1.8116636399567174
20
2.8987458696871689
30
0
10
2.0134095525025142
20
2.8786584096607277
30
0
10
2.215091274125399
20
2.845621990177869
30
0
10
2.416691658212573
20
2.8095586916505786
30
0
10
2.618199886206265
20
2.7834065370196015
30
0
10
2.8196006546895971
20
2.7791873876314233
30
0
10
3.020863401596765
20
2.8041064021753312
30
0
10
3.2219306806479286
20
2.8563203986963503
30
0
10
3.4227091635557643
20
2.921708882315623
30
0
10
3.6230864724250464
20
2.9802529089435437
30
0
10
3.822945811260464
20
3.0116900070949741
30
0
10
4.022181467866826
20
3.0012659867934937
30
0
10
4.2207138790033358
20
2.94586356102243
30
0
10
4.418505234594746
20
2.858819954017211
30
0
10
4.6155773456287443
20
2.7626955437640284
30
0
10
4.8120297600563768
20
2.6830992696157585
30
0
10
5.0080574234464521
20
2.6421800249429674
30
0
10
5.2039701374570946
20
2.6521228278071503
30
0
10
5.4002078005250915
20
2.70899305270681
30
0
10
5.5972391054272013
20
2.7980465782057431
30
0
10
5.7954647267539894
20
2.8985921504992462
30
0
10
5.9951180346393409
20
2.9890196149596737
30
0
10
6.1961679648473487
20
3.0517099982845686
30
0
10
6.3982160894644089
20
3.0781146690273853
30
0
10
6.6006462503188601
20
3.0671712691480324
30
0
10
6.8027793123171278
20
3.0236002240732445
30
0
10
7.0040251303477721
20
2.9562633434412917
30
0
10
7.2040372287658547
20
2.8765081009002453
30
0
10
7.4028629577081233
20
2.796532247454977
30
0
10
7.6008187628886645
20
2.7280609785143217
30
0
10
7.7983706537012534
20
2.6810234150779917
30
0
10
7.9960128497041927
20
2.6622178530312537
30
0
10
8.1941483172364045
20
2.6739905174179404
30
0
10
8.3929658077558162
20
2.7128503176225207
30
0
10
8.5924907104956212
20
2.7712176190566025
30
0
10
8.7926385265727163
20
2.8392163724723156
30
0
10
8.9932672687898663
20
2.9064515267122495
30
0
10
9.1942295462089749
20
2.9637681173625783
30
0
10
9.3954262089640537
20
3.0050782993151288
30
0
10
9.5967978862247492
20
3.0267791335721066
30
0
10
9.7580112749608681
20
3.0270355677127618
30
0
10
9.8789820398951189
20
3.0173548608321976
30
0
10
9.9596561851202221
20
3.0065158228969615
30
0
10
10
20
3
30
0
0
ENDSEC
0
SECTION
2
OBJECTS
0
DICTIONARY
5
C
100
AcDbDictionary
3
ACAD_GROUP
350
D
3
ACAD_MLINESTYLE
350
17
0
DICTIONARY
5
D
100
AcDbDictionary
0
DICTIONARY
5
1A
330
C
100
AcDbDictionary
0
DICTIONARY
5
17
100
AcDbDictionary
0
ENDSEC
0
EOF
