0
SECTION
2
HEADER
9
$INSUNITS
70
4
9
$ACADVER
1
AC1014
9
$HANDSEED
5
FFFF
0
ENDSEC
0
SECTION
2
TABLES
0
TABLE
2
VPORT
5
8
100
AcDbSymbolTable
0
ENDTAB
0
TABLE
2
LTYPE
5
5
100
AcDbSymbolTable
0
LTYPE
5
14
100
AcDbSymbolTableRecord
100
AcDbLinetypeTableRecord
2
BYBLOCK
70
0
0
LTYPE
5
15
100
AcDbSymbolTableRecord
100
AcDbLinetypeTableRecord
2
BYLAYER
70
0
0
ENDTAB
0
TABLE
2
LAYER
5
2
100
AcDbSymbolTable
70
2
0
LAYER
5
50
100
AcDbSymbolTableRecord
100
AcDbLayerTableRecord
2
0
70
0
6
CONTINUOUS
0
ENDTAB
0
TABLE
2
STYLE
5
3
100
AcDbSymbolTable
70
1
0
STYLE
5
11
100
AcDbSymbolTableRecord
100
AcDbTextStyleTableRecord
2
STANDARD
70
0
0
ENDTAB
0
TABLE
2
VIEW
5
6
100
AcDbSymbolTable
70
0
0
ENDTAB
0
TABLE
2
UCS
5
7
100
AcDbSymbolTable
70
0
0
ENDTAB
0
TABLE
2
APPID
5
9
100
AcDbSymbolTable
70
2
0
APPID
5
12
100
AcDbSymbolTableRecord
100
AcDbRegAppTableRecord
2
ACAD
70
0
0
ENDTAB
0
TABLE
2
DIMSTYLE
5
A
100
AcDbSymbolTable
70
1
0
ENDTAB
0
TABLE
2
BLOCK_RECORD
5
1
100
AcDbSymbolTable
70
1
0
BLOCK_RECORD
5
1F
100
AcDbSymbolTableRecord
100
AcDbBlockTableRecord
2
*MODEL_SPACE
0
BLOCK_RECORD
5
1B
100
AcDbSymbolTableRecord
100
AcDbBlockTableRecord
2
*PAPER_SPACE
0
ENDTAB
0
ENDSEC
0
SECTION
2
BLOCKS
0
BLOCK
5
20
100
AcDbEntity
100
AcDbBlockBegin
2
*MODEL_SPACE
0
ENDBLK
5
21
100
AcDbEntity
100
AcDbBlockEnd
0
BLOCK
5
1C
100
AcDbEntity
100
AcDbBlockBegin
2
*PAPER_SPACE
0
ENDBLK
5
1D
100
AcDbEntity
100
AcDbBlockEnd
0
ENDSEC
0
SECTION
2
ENTITIES
0
SPLINE
5
100
100
AcDbEntity
8
0
100
AcDbSpline
70
4
71
5
72
16
73
10
74
0
42
0.000000001
43
0.0000000001
44
0.0000000001
40
0
40
0
40
0
40
0
40
0
40
0
40
0.20000000000000001
40
0.40000000000000002
40
0.60000000000000009
40
0.80000000000000004
40
1
40
1
40
1
40
1
40
1
40
1
41
1
41
1
41
1
41
1
41
1
41
1
41
1
41
1
41
1
41
1
10
0
20
0
30
0
10
0
20
0.12000000000003158
30
0
10
0
20
0.36000000000007704
30
0
10
0
20
0.72000000000009301
30
0
10
0
20
1.2000000000000313
30
0
10
0
20
1.7999999999999146
30
0
10
0
20
2.2799999999998684
30
0
10
0
20
2.6399999999999042
30
0
10
0
20
2.8799999999999617
30
0
10
0
20
3
30
0
0
SPLINE
5
101
100
AcDbEntity
8
0
100
AcDbSpline
70
4
71
5
72
16
73
10
74
0
42
0.000000001
43
0.0000000001
44
0.0000000001
40
0
40
0
40
0
40
0
40
0
40
0
40
0.20000000000000001
40
0.40000000000000002
40
0.60000000000000009
40
0.80000000000000004
40
1
40
1
40
1
40
1
40
1
40
1
41
1
41
1
41
1
41
1
41
1
41
1
41
1
41
1
41
1
41
1
10
10
20
0
30
0
10
9.9999999999997495
20
0.12000000000003158
30
0
10
9.9999999999993197
20
0.36000000000007704
30
0
10
9.9999999999989129
20
0.72000000000009301
30
0
10
9.9999999999987672
20
1.2000000000000313
30
0
10
9.9999999999990248
20
1.7999999999999146
30
0
10
9.9999999999993889
20
2.2799999999998684
30
0
10
9.9999999999996998
20
2.6399999999999042
30
0
10
9.9999999999999005
20
2.8799999999999617
30
0
10
10
20
3
30
0
0
SPLINE
5
102
100
AcDbEntity
8
0
100
AcDbSpline
70
4
71
5
72
16
73
10
74
0
42
0.000000001
43
0.0000000001
44
0.0000000001
40
0
40
0
40
0
40
0
40
0
40
0
40
0.20000000000000001
40
0.40000000000000002
40
0.60000000000000009
40
0.80000000000000004
40
1
40
1
40
1
40
1
40
1
40
1
41
1
41
1
41
1
41
1
41
1
41
1
41
1
41
1
41
1
41
1
10
0
20
1.5
30
0
10
0.40000000000047375
20
1.499999999999694
30
0
10
1.2000000000012774
20
1.4999999999991638
30
0
10
2.4000000000020547
20
1.4999999999986278
30
0
10
4.0000000000023546
20
1.4999999999983737
30
0
10
6.0000000000019584
20
1.4999999999985913
30
0
10
7.6000000000012928
20
1.4999999999990359
30
0
10
8.800000000000697
20
1.4999999999994786
30
0
10
9.6000000000002395
20
1.4999999999998188
30
0
10
10
20
1.5
30
0
0
SPLINE
5
103
100
AcDbEntity
8
0
100
AcDbSpline
70
4
71
5
72
61
73
55
74
0
42
0.000000001
43
0.0000000001
44
0.0000000001
40
0
40
0
40
0
40
0
40
0
40
0
40
0.02
40
0.040000000000000001
40
0.059999999999999998
40
0.080000000000000002
40
0.10000000000000001
40
0.12000000000000001
40
0.14000000000000001
40
0.16
40
0.17999999999999999
40
0.19999999999999998
40
0.21999999999999997
40
0.23999999999999996
40
0.25999999999999995
40
0.27999999999999997
40
0.29999999999999999
40
0.32000000000000001
40
0.34000000000000002
40
0.36000000000000004
40
0.38000000000000006
40
0.40000000000000008
40
0.4200000000000001
40
0.44000000000000011
40
0.46000000000000013
40
0.48000000000000015
40
0.50000000000000011
40
0.52000000000000013
40
0.54000000000000015
40
0.56000000000000016
40
0.58000000000000018
40
0.6000000000000002
40
0.62000000000000022
40
0.64000000000000024
40
0.66000000000000025
40
0.68000000000000027
40
0.70000000000000029
40
0.72000000000000031
40
0.74000000000000032
40
0.76000000000000034
40
0.78000000000000036
40
0.80000000000000038
40
0.8200000000000004
40
0.84000000000000041
40
0.86000000000000043
40
0.88000000000000045
40
0.90000000000000047
40
0.92000000000000048
40
0.9400000000000005
40
0.96000000000000052
40
0.98000000000000054
40
1
40
1
40
1
40
1
40
1
40
1
41
1
41
1
41
1
41
1
41
1
41
1
41
1
41
1
41
1
41
1
41
1
41
1
41
1
41
1
41
1
41
1
41
1
41
1
41
1
41
1
41
1
41
1
41
1
41
1
41
1
41
1
41
1
41
1
41
1
41
1
41
1
41
1
41
1
41
1
41
1
41
1
41
1
41
1
41
1
41
1
41
1
41
1
41
1
41
1
41
1
41
1
41
1
41
1
41
1
41
1
41
1
41
1
41
1
41
1
41
1
10
0
20
0
30
0
10
0.041537699567393699
20
-0.024103837181340015
30
0
10
0.12442881016617917
20
-0.06713909376350978
30
0
10
0.24821260824927083
20
-0.11617455777395107
30
0
10
0.41215123551398836
20
-0.15050156451011643
30
0
10
0.615250845138267
20
-0.14293376347238246
30
0
10
0.81659558586930858
20
-0.08896078171784777
30
0
10
1.0163280481086598
20
0.0031607074669071722
30
0
10
1.2146925063885117
20
0.11940894759877174
30
0
10
1.4120565806632608
20
0.23889238106104438
30
0
10
1.6088526283886622
20
0.3387841245240919
30
0
10
1.8055245116813092
20
0.398863599888714
30
0
10
2.0024725505157557
20
0.40619301650246864
30
0
10
2.1999988645377875
20
0.35979597984769407
30
0
10
2.3982531877320996
20
0.27524874816657724
30
0
10
2.5972643028231119
20
0.17762340763647463
30
0
10
2.7969701370964484
20
0.094603393647797449
30
0
10
2.9972480941181514
20
0.049526492359237145
30
0
10
3.1979450275689425
20
0.054499587324445042
30
0
10
3.3989073613265379
20
0.1033252745666758
30
0
10
3.5999998561787221
20
0.1777829754949439
30
0
10
3.8011243435835196
20
0.25405246030598461
30
0
10
4.0022384362447925
20
0.30905067065985137
30
0
10
4.2033746513958237
20
0.326833659865716
30
0
10
4.4046588297275449
20
0.30489748319478377
30
0
10
4.606254320574525
20
0.25044576421870129
30
0
10
4.8083064408960228
20
0.17676243377370407
30
0
10
5.0108878725516304
20
0.099590122630494521
30
0
10
5.2139410566262789
20
0.033459251458253299
30
0
10
5.4172283685047393
20
-0.011799016236135607
30
0
10
5.6204295214771758
20
-0.030770072089162818
30
0
10
5.8232338372236896
20
-0.022378142038661737
30
0
10
6.0254308162995898
20
0.010299417703194487
30
0
10
6.2270099908144747
20
0.06005944272036097
30
0
10
6.4282330388305544
20
0.11594493776782192
30
0
10
6.6294952350685401
20
0.16603866603266237
30
0
10
6.8312051985329632
20
0.20009405295191757
30
0
10
7.0336630901871118
20
0.21207983679812398
30
0
10
7.23692676178017
20
0.2031247648645283
30
0
10
7.4407196313640771
20
0.18326043916478812
30
0
10
7.644567663691527
20
0.16676610288283811
30
0
10
7.8479099772008611
20
0.16820295235998561
30
0
10
8.0502136613962723
20
0.19842844344095811
30
0
10
8.2511002103880795
20
0.26003804678549647
30
0
10
8.4504253971248993
20
0.34482430469179348
30
0
10
8.6482027519102189
20
0.43788366368628373
30
0
10
8.844553325786622
20
0.52062998211012013
30
0
10
9.0396472258330505
20
0.57410992826333551
30
0
10
9.2336447439115563
20
0.5824597359692254
30
0
10
9.4266503274743805
20
0.53547450862107293
30
0
10
9.6187292746764879
20
0.42705912789016676
30
0
10
9.7716778605254948
20
0.28885069908559319
30
0
10
9.8859929677685425
20
0.15583491709264558
30
0
10
9.9620269960633898
20
0.054118245407736673
30
0
10
10
20
0
30
0
0
SPLINE
5
104
100
AcDbEntity
8
0
100
AcDbSpline
70
4
71
5
72
61
73
55
74
0
42
0.000000001
43
0.0000000001
44
0.0000000001
40
0
40
0
40
0
40
0
40
0
40
0
40
0.02
40
0.040000000000000001
40
0.059999999999999998
40
0.080000000000000002
40
0.10000000000000001
40
0.12000000000000001
40
0.14000000000000001
40
0.16
40
0.17999999999999999
40
0.19999999999999998
40
0.21999999999999997
40
0.23999999999999996
40
0.25999999999999995
40
0.27999999999999997
40
0.29999999999999999
40
0.32000000000000001
40
0.34000000000000002
40
0.36000000000000004
40
0.38000000000000006
40
0.40000000000000008
40
0.4200000000000001
40
0.44000000000000011
40
0.46000000000000013
40
0.48000000000000015
40
0.50000000000000011
40
0.52000000000000013
40
0.54000000000000015
40
0.56000000000000016
40
0.58000000000000018
40
0.6000000000000002
40
0.62000000000000022
40
0.64000000000000024
40
0.66000000000000025
40
0.68000000000000027
40
0.70000000000000029
40
0.72000000000000031
40
0.74000000000000032
40
0.76000000000000034
40
0.78000000000000036
40
0.80000000000000038
40
0.8200000000000004
40
0.84000000000000041
40
0.86000000000000043
40
0.88000000000000045
40
0.90000000000000047
40
0.92000000000000048
40
0.9400000000000005
40
0.96000000000000052
40
0.98000000000000054
40
1
40
1
40
1
40
1
40
1
40
1
41
1
41
1
41
1
41
1
41
1
41
1
41
1
41
1
41
1
41
1
41
1
41
1
41
1
41
1
41
1
41
1
41
1
41
1
41
1
41
1
41
1
41
1
41
1
41
1
41
1
41
1
41
1
41
1
41
1
41
1
41
1
41
1
41
1
41
1
41
1
41
1
41
1
41
1
41
1
41
1
41
1
41
1
41
1
41
1
41
1
41
1
41
1
41
1
41
1
41
1
41
1
41
1
41
1
41
1
41
1
10
0
20
3
30
0
10
0.040314602373630819
20
2.9881980239704915
30
0
10
0.12094412735851594
20
2.9663194563548463
30
0
10
0.24188937557893656
20
2.9386777831824134
30
0
10
0.4031516290148735
20
2.9121811046638979
30
0
10
0.60473267654027663
20
2.895970964887594
30
0
10
0.80631701718602333
20
2.8955366517541652
30
0
10
1.0079047749309065
20
2.9085620324427195
30
0
10
1.2094961294670163
20
2.9311202026118055
30
0
10
1.4110913938232941
20
2.9573114278126695
30
0
10
1.6126929310020477
20
2.9806889557728815
30
0
10
1.8143070868467273
20
2.9956446097924054
30
0
10
2.0159459787944738
20
2.9987685042758629
30
0
10
2.2176297009223687
20
2.9903226799786786
30
0
10
2.419387399158023
20
2.9753982174282219
30
0
10
2.621243945717084
20
2.9610848609866194
30
0
10
2.8232074763987058
20
2.953844679015269
30
0
10
3.0252566907763305
20
2.956929164766894
30
0
10
3.2273278775919678
20
2.9674904743553916
30
0
10
3.4293028748700847
20
2.9746225013797689
30
0
10
3.6310073986915619
20
2.9644307489745181
30
0
10
3.8322070591147122
20
2.9245246292350431
30
0
10
4.0326064966071655
20
2.8484950786489445
30
0
10
4.2318414581019272
20
2.7409672934769014
30
0
10
4.4294902735521307
20
2.6207852174928221
30
0
10
4.6251917654250798
20
2.5134853838822844
30
0
10
4.8187514447332971
20
2.445050008969015
30
0
10
5.0102505718598769
20
2.4352530543033062
30
0
10
5.2001595975924184
20
2.4909748840541517
30
0
10
5.3894368956164733
20
2.6000442679180868
30
0
10
5.5792787121731777
20
2.7385573356202908
30
0
10
5.7708893315717482
20
2.8774618081138414
30
0
10
5.9652353091716268
20
2.9896052404463145
30
0
10
6.1628254738982156
20
3.0561122529479752
30
0
10
6.3634275952007515
20
3.0743084692904143
30
0
10
6.5662603455428217
20
3.0540858593354567
30
0
10
6.7702740794693543
20
3.0120966144062051
30
0
10
6.9744054809388834
20
2.9666124740564532
30
0
10
7.1778302300785422
20
2.9323613423817649
30
0
10
7.3802505178937485
20
2.9147131519843028
30
0
10
7.5817791791242142
20
2.9117335193927518
30
0
10
7.7827700694290343
20
2.9172946592836277
30
0
10
7.9836663688210194
20
2.9238330746234746
30
0
10
8.1848461776581907
20
2.9251663842936662
30
0
10
8.3864572556319619
20
2.9195096897906518
30
0
10
8.5884654136882492
20
2.9085055883256867
30
0
10
8.7907204391185747
20
2.8959265567049202
30
0
10
8.9930155924723696
20
2.8864969185510292
30
0
10
9.1951489134020985
20
2.8846820088504517
30
0
10
9.3969856002232319
20
2.8934533508684099
30
0
10
9.5984459159041098
20
2.914562879059809
30
0
10
9.759281607658254
20
2.9420073378178548
30
0
10
9.8797156907072079
20
2.9686491035911704
30
0
10
9.9599194943124356
20
2.9891012143791245
30
0
10
10
20
3
30
0
0
ENDSEC
0
SECTION
2
OBJECTS
0
DICTIONARY
5
C
100
AcDbDictionary
3
ACAD_GROUP
350
D
3
ACAD_MLINESTYLE
350
17
0
DICTIONARY
5
D
100
AcDbDictionary
0
DICTIONARY
5
1A
330
C
100
AcDbDictionary
0
DICTIONARY
5
17
100
AcDbDictionary
0
ENDSEC
0
EOF
