0
SECTION
2
HEADER
9
$INSUNITS
70
4
9
$ACADVER
1
AC1014
9
$HANDSEED
5
FFFF
0
ENDSEC
0
SECTION
2
TABLES
0
TABLE
2
VPORT
5
8
100
AcDbSymbolTable
0
ENDTAB
0
TABLE
2
LTYPE
5
5
100
AcDbSymbolTable
0
LTYPE
5
14
100
AcDbSymbolTableRecord
100
AcDbLinetypeTableRecord
2
BYBLOCK
70
0
0
LTYPE
5
15
100
AcDbSymbolTableRecord
100
AcDbLinetypeTableRecord
2
BYLAYER
70
0
0
ENDTAB
0
TABLE
2
LAYER
5
2
100
AcDbSymbolTable
70
2
0
LAYER
5
50
100
AcDbSymbolTableRecord
100
AcDbLayerTableRecord
2
0
70
0
6
CONTINUOUS
0
ENDTAB
0
TABLE
2
STYLE
5
3
100
AcDbSymbolTable
70
1
0
STYLE
5
11
100
AcDbSymbolTableRecord
100
AcDbTextStyleTableRecord
2
STANDARD
70
0
0
ENDTAB
0
TABLE
2
VIEW
5
6
100
AcDbSymbolTable
70
0
0
ENDTAB
0
TABLE
2
UCS
5
7
100
AcDbSymbolTable
70
0
0
ENDTAB
0
TABLE
2
APPID
5
9
100
AcDbSymbolTable
70
2
0
APPID
5
12
100
AcDbSymbolTableRecord
100
AcDbRegAppTableRecord
2
ACAD
70
0
0
ENDTAB
0
TABLE
2
DIMSTYLE
5
A
100
AcDbSymbolTable
70
1
0
ENDTAB
0
TABLE
2
BLOCK_RECORD
5
1
100
AcDbSymbolTable
70
1
0
BLOCK_RECORD
5
1F
100
AcDbSymbolTableRecord
100
AcDbBlockTableRecord
2
*MODEL_SPACE
0
BLOCK_RECORD
5
1B
100
AcDbSymbolTableRecord
100
AcDbBlockTableRecord
2
*PAPER_SPACE
0
ENDTAB
0
ENDSEC
0
SECTION
2
BLOCKS
0
BLOCK
5
20
100
AcDbEntity
100
AcDbBlockBegin
2
*MODEL_SPACE
0
ENDBLK
5
21
100
AcDbEntity
100
AcDbBlockEnd
0
BLOCK
5
1C
100
AcDbEntity
100
AcDbBlockBegin
2
*PAPER_SPACE
0
ENDBLK
5
1D
100
AcDbEntity
100
AcDbBlockEnd
0
ENDSEC
0
SECTION
2
ENTITIES
0
SPLINE
5
100
100
AcDbEntity
8
0
100
AcDbSpline
70
4
71
5
72
16
73
10
74
0
42
0.000000001
43
0.0000000001
44
0.0000000001
40
0
40
0
40
0
40
0
40
0
40
0
40
0.20000000000000001
40
0.40000000000000002
40
0.60000000000000009
40
0.80000000000000004
40
1
40
1
40
1
40
1
40
1
40
1
41
1
41
1
41
1
41
1
41
1
41
1
41
1
41
1
41
1
41
1
10
0
20
0
30
0
10
0
20
0.12000000000003158
30
0
10
0
20
0.36000000000007704
30
0
10
0
20
0.72000000000009301
30
0
10
0
20
1.2000000000000313
30
0
10
0
20
1.7999999999999146
30
0
10
0
20
2.2799999999998684
30
0
10
0
20
2.6399999999999042
30
0
10
0
20
2.8799999999999617
30
0
10
0
20
3
30
0
0
SPLINE
5
101
100
AcDbEntity
8
0
100
AcDbSpline
70
4
71
5
72
16
73
10
74
0
42
0.000000001
43
0.0000000001
44
0.0000000001
40
0
40
0
40
0
40
0
40
0
40
0
40
0.20000000000000001
40
0.40000000000000002
40
0.60000000000000009
40
0.80000000000000004
40
1
40
1
40
1
40
1
40
1
40
1
41
1
41
1
41
1
41
1
41
1
41
1
41
1
41
1
41
1
41
1
10
10
20
0
30
0
10
9.9999999999997495
20
0.12000000000003158
30
0
10
9.9999999999993197
20
0.36000000000007704
30
0
10
9.9999999999989129
20
0.72000000000009301
30
0
10
9.9999999999987672
20
1.2000000000000313
30
0
10
9.9999999999990248
20
1.7999999999999146
30
0
10
9.9999999999993889
20
2.2799999999998684
30
0
10
9.9999999999996998
20
2.6399999999999042
30
0
10
9.9999999999999005
20
2.8799999999999617
30
0
10
10
20
3
30
0
0
SPLINE
5
102
100
AcDbEntity
8
0
100
AcDbSpline
70
4
71
5
72
16
73
10
74
0
42
0.000000001
43
0.0000000001
44
0.0000000001
40
0
40
0
40
0
40
0
40
0
40
0
40
0.20000000000000001
40
0.40000000000000002
40
0.60000000000000009
40
0.80000000000000004
40
1
40
1
40
1
40
1
40
1
40
1
41
1
41
1
41
1
41
1
41
1
41
1
41
1
41
1
41
1
41
1
10
0
20
1.5
30
0
10
0.40000000000047375
20
1.499999999999694
30
0
10
1.2000000000012774
20
1.4999999999991638
30
0
10
2.4000000000020547
20
1.4999999999986278
30
0
10
4.0000000000023546
20
1.4999999999983737
30
0
10
6.0000000000019584
20
1.4999999999985913
30
0
10
7.6000000000012928
20
1.4999999999990359
30
0
10
8.800000000000697
20
1.4999999999994786
30
0
10
9.6000000000002395
20
1.4999999999998188
30
0
10
10
20
1.5
30
0
0
SPLINE
5
103
100
AcDbEntity
8
0
100
AcDbSpline
70
4
71
5
72
61
73
55
74
0
42
0.000000001
43
0.0000000001
44
0.0000000001
40
0
40
0
40
0
40
0
40
0
40
0
40
0.02
40
0.040000000000000001
40
0.059999999999999998
40
0.080000000000000002
40
0.10000000000000001
40
0.12000000000000001
40
0.14000000000000001
40
0.16
40
0.17999999999999999
40
0.19999999999999998
40
0.21999999999999997
40
0.23999999999999996
40
0.25999999999999995
40
0.27999999999999997
40
0.29999999999999999
40
0.32000000000000001
40
0.34000000000000002
40
0.36000000000000004
40
0.38000000000000006
40
0.40000000000000008
40
0.4200000000000001
40
0.44000000000000011
40
0.46000000000000013
40
0.48000000000000015
40
0.50000000000000011
40
0.52000000000000013
40
0.54000000000000015
40
0.56000000000000016
40
0.58000000000000018
40
0.6000000000000002
40
0.62000000000000022
40
0.64000000000000024
40
0.66000000000000025
40
0.68000000000000027
40
0.70000000000000029
40
0.72000000000000031
40
0.74000000000000032
40
0.76000000000000034
40
0.78000000000000036
40
0.80000000000000038
40
0.8200000000000004
40
0.84000000000000041
40
0.86000000000000043
40
0.88000000000000045
40
0.90000000000000047
40
0.92000000000000048
40
0.9400000000000005
40
0.96000000000000052
40
0.98000000000000054
40
1
40
1
40
1
40
1
40
1
40
1
41
1
41
1
41
1
41
1
41
1
41
1
41
1
41
1
41
1
41
1
41
1
41
1
41
1
41
1
41
1
41
1
41
1
41
1
41
1
41
1
41
1
41
1
41
1
41
1
41
1
41
1
41
1
41
1
41
1
41
1
41
1
41
1
41
1
41
1
41
1
41
1
41
1
41
1
41
1
41
1
41
1
41
1
41
1
41
1
41
1
41
1
41
1
41
1
41
1
41
1
41
1
41
1
41
1
41
1
41
1
10
0
20
0
30
0
10
0.039786574561299082
20
0.0047831353690245609
30
0
10
0.11943071105801957
20
0.013309818539411862
30
0
10
0.23910987853316962
20
0.022981071184762066
30
0
10
0.39910829961612554
20
0.029634546679601397
30
0
10
0.5997910357382914
20
0.027944630307469139
30
0
10
0.80107868188868614
20
0.017478490557033145
30
0
10
1.0028095474631886
20
0.00072780263663068333
30
0
10
1.2047115209320223
20
-0.018115588349944346
30
0
10
1.4063750413296783
20
-0.032743883844760478
30
0
10
1.6073529755688911
20
-0.036280006776120866
30
0
10
1.8072592483209535
20
-0.022805037041943817
30
0
10
2.0058672286147368
20
0.011118117744926246
30
0
10
2.2032104907005055
20
0.064884201270830541
30
0
10
2.3996779475530561
20
0.13237234173998497
30
0
10
2.5958639351559558
20
0.2042774121948179
30
0
10
2.7924254974720792
20
0.27032903640756356
30
0
10
2.9899357721805373
20
0.32157247575639969
30
0
10
3.1887423443219993
20
0.35256928217061356
30
0
10
3.3888136155581168
20
0.36379230788402639
30
0
10
3.5898492798506858
20
0.35973160167220197
30
0
10
3.7914022650436312
20
0.34681541986687037
30
0
10
3.9929966847454637
20
0.33139048263749776
30
0
10
4.1942456932795134
20
0.31771375510159827
30
0
10
4.394973857372138
20
0.30584038524146251
30
0
10
4.595170966031481
20
0.29318430484195696
30
0
10
4.7949404985022497
20
0.27619211994824483
30
0
10
4.9944502612337329
20
0.25198304276041517
30
0
10
5.1938826889759699
20
0.21997743935887165
30
0
10
5.3933844227381291
20
0.18360742164503263
30
0
10
5.5930629579107238
20
0.14857286778434409
30
0
10
5.7929845685429706
20
0.12101824436127369
30
0
10
5.993171543920778
20
0.10572572251599695
30
0
10
6.1935998243737442
20
0.10433429808011879
30
0
10
6.3941956929921462
20
0.11344374725094439
30
0
10
6.5948580772897394
20
0.12660630307957346
30
0
10
6.7954815351567843
20
0.13643193484619709
30
0
10
6.9959790699210354
20
0.13665748206659045
30
0
10
7.1963047985214601
20
0.12421014073905887
30
0
10
7.3964774708688328
20
0.10134211488269854
30
0
10
7.5965584536115536
20
0.073715121785608254
30
0
10
7.7966289711822201
20
0.048417403820650948
30
0
10
7.9967676252759956
20
0.03200493269493751
30
0
10
8.1970279650667202
20
0.028546672482633616
30
0
10
8.3974155537909549
20
0.037623681236429951
30
0
10
8.5979009729731501
20
0.0555842533272723
30
0
10
8.7984332898611211
20
0.076840840879692493
30
0
10
8.9989532941568804
20
0.095146197155232343
30
0
10
9.199406771943158
20
0.10487285582375405
30
0
10
9.3997578347939186
20
0.10229858827027803
30
0
10
9.5999852092915354
20
0.085219586087125473
30
0
10
9.7600598166696386
20
0.059090483596571243
30
0
10
9.8800539389968165
20
0.03232949688383898
30
0
10
9.9600225569316905
20
0.011306832987302003
30
0
10
10
20
0
30
0
0
SPLINE
5
104
100
AcDbEntity
8
0
100
AcDbSpline
70
4
71
5
72
61
73
55
74
0
42
0.000000001
43
0.0000000001
44
0.0000000001
40
0
40
0
40
0
40
0
40
0
40
0
40
0.02
40
0.040000000000000001
40
0.059999999999999998
40
0.080000000000000002
40
0.10000000000000001
40
0.12000000000000001
40
0.14000000000000001
40
0.16
40
0.17999999999999999
40
0.19999999999999998
40
0.21999999999999997
40
0.23999999999999996
40
0.25999999999999995
40
0.27999999999999997
40
0.29999999999999999
40
0.32000000000000001
40
0.34000000000000002
40
0.36000000000000004
40
0.38000000000000006
40
0.40000000000000008
40
0.4200000000000001
40
0.44000000000000011
40
0.46000000000000013
40
0.48000000000000015
40
0.50000000000000011
40
0.52000000000000013
40
0.54000000000000015
40
0.56000000000000016
40
0.58000000000000018
40
0.6000000000000002
40
0.62000000000000022
40
0.64000000000000024
40
0.66000000000000025
40
0.68000000000000027
40
0.70000000000000029
40
0.72000000000000031
40
0.74000000000000032
40
0.76000000000000034
40
0.78000000000000036
40
0.80000000000000038
40
0.8200000000000004
40
0.84000000000000041
40
0.86000000000000043
40
0.88000000000000045
40
0.90000000000000047
40
0.92000000000000048
40
0.9400000000000005
40
0.96000000000000052
40
0.98000000000000054
40
1
40
1
40
1
40
1
40
1
40
1
41
1
41
1
41
1
41
1
41
1
41
1
41
1
41
1
41
1
41
1
41
1
41
1
41
1
41
1
41
1
41
1
41
1
41
1
41
1
41
1
41
1
41
1
41
1
41
1
41
1
41
1
41
1
41
1
41
1
41
1
41
1
41
1
41
1
41
1
41
1
41
1
41
1
41
1
41
1
41
1
41
1
41
1
41
1
41
1
41
1
41
1
41
1
41
1
41
1
41
1
41
1
41
1
41
1
41
1
41
1
10
0
20
3
30
0
10
0.039576283507979607
20
2.9962544071749253
30
0
10
0.11879524036577155
20
2.9879641958548313
30
0
10
0.23782284486316668
20
2.9731318120794152
30
0
10
0.39692491823275972
20
2.9485579526562748
30
0
10
0.5964517510825933
20
2.9102940571791072
30
0
10
0.79657995517801239
20
2.8658612668681567
30
0
10
0.99721163636986798
20
2.8180442541841728
30
0
10
1.1981818402678854
20
2.771505249672741
30
0
10
1.3992405203540927
20
2.7332866290952973
30
0
10
1.6001057162311154
20
2.7109571175836233
30
0
10
1.8005175474753954
20
2.7107298473942332
30
0
10
2.0002919268220838
20
2.7355880887166957
30
0
10
2.1993745759768468
20
2.7833998813618321
30
0
10
2.3978952200624186
20
2.8450240926136523
30
0
10
2.5961044545798706
20
2.9075641637148126
30
0
10
2.7943110916200116
20
2.9575970163401371
30
0
10
2.9928191961130008
20
2.9844359427793972
30
0
10
3.1918660869631892
20
2.9833183230866256
30
0
10
3.3915576203249498
20
2.9588196826763764
30
0
10
3.591887568009672
20
2.921362343305645
30
0
10
3.7927596046027063
20
2.8835178728964688
30
0
10
3.9940080093428905
20
2.8563693869751279
30
0
10
4.1954188148278106
20
2.8459037742368039
30
0
10
4.3967502481322116
20
2.849225944084238
30
0
10
4.5977690522951029
20
2.8578446395500001
30
0
10
4.7982871658117041
20
2.8611416662432121
30
0
10
4.99819849581346
20
2.8497729967277454
30
0
10
5.1975155813753506
20
2.8190816861076717
30
0
10
5.3964073854112709
20
2.7725650161979107
30
0
10
5.5951371518911568
20
2.7189164519107183
30
0
10
5.7939997695469456
20
2.6690289142273205
30
0
10
5.9932590480961592
20
2.6330002838738906
30
0
10
6.1930859297856431
20
2.6171853610673463
30
0
10
6.3934935322459179
20
2.6210908632877672
30
0
10
6.5943776943659547
20
2.6395874371292209
30
0
10
6.7955605320042523
20
2.6652745001114035
30
0
10
6.9968327304359956
20
2.6907881840080705
30
0
10
7.1979960494796069
20
2.7111143437917899
30
0
10
7.3989062494123665
20
2.7259504737219089
30
0
10
7.5994719996635895
20
2.7381450427136844
30
0
10
7.7996532079863705
20
2.7520842539494743
30
0
10
7.9994597196022701
20
2.7721026947660872
30
0
10
8.198949993801822
20
2.8008872870064661
30
0
10
8.3982299812441781
20
2.8378745110439851
30
0
10
8.5974354875075463
20
2.8801847671736107
30
0
10
8.7967145907914333
20
2.9235584935173371
30
0
10
8.9962100306095287
20
2.9632897349868186
30
0
10
9.196041738840913
20
2.9951525542083961
30
0
10
9.3962888955371486
20
3.0163480677798149
30
0
10
9.596998101410632
20
3.0252233151201278
30
0
10
9.7579531619624156
20
3.0218217952794597
30
0
10
9.8788906264240737
20
3.0132505451122134
30
0
10
9.959613836525893
20
3.0048624948122393
30
0
10
10
20
3
30
0
0
ENDSEC
0
SECTION
2
OBJECTS
0
DICTIONARY
5
C
100
AcDbDictionary
3
ACAD_GROUP
350
D
3
ACAD_MLINESTYLE
350
17
0
DICTIONARY
5
D
100
AcDbDictionary
0
DICTIONARY
5
1A
330
C
100
AcDbDictionary
0
DICTIONARY
5
17
100
AcDbDictionary
0
ENDSEC
0
EOF
