0
SECTION
2
HEADER
9
$INSUNITS
70
4
9
$ACADVER
1
AC1014
9
$HANDSEED
5
FFFF
0
ENDSEC
0
SECTION
2
TABLES
0
TABLE
2
VPORT
5
8
100
AcDbSymbolTable
0
ENDTAB
0
TABLE
2
LTYPE
5
5
100
AcDbSymbolTable
0
LTYPE
5
14
100
AcDbSymbolTableRecord
100
AcDbLinetypeTableRecord
2
BYBLOCK
70
0
0
LTYPE
5
15
100
AcDbSymbolTableRecord
100
AcDbLinetypeTableRecord
2
BYLAYER
70
0
0
ENDTAB
0
TABLE
2
LAYER
5
2
100
AcDbSymbolTable
70
2
0
LAYER
5
50
100
AcDbSymbolTableRecord
100
AcDbLayerTableRecord
2
0
70
0
6
CONTINUOUS
0
ENDTAB
0
TABLE
2
STYLE
5
3
100
AcDbSymbolTable
70
1
0
STYLE
5
11
100
AcDbSymbolTableRecord
100
AcDbTextStyleTableRecord
2
STANDARD
70
0
0
ENDTAB
0
TABLE
2
VIEW
5
6
100
AcDbSymbolTable
70
0
0
ENDTAB
0
TABLE
2
UCS
5
7
100
AcDbSymbolTable
70
0
0
ENDTAB
0
TABLE
2
APPID
5
9
100
AcDbSymbolTable
70
2
0
APPID
5
12
100
AcDbSymbolTableRecord
100
AcDbRegAppTableRecord
2
ACAD
70
0
0
ENDTAB
0
TABLE
2
DIMSTYLE
5
A
100
AcDbSymbolTable
70
1
0
ENDTAB
0
TABLE
2
BLOCK_RECORD
5
1
100
AcDbSymbolTable
70
1
0
BLOCK_RECORD
5
1F
100
AcDbSymbolTableRecord
100
AcDbBlockTableRecord
2
*MODEL_SPACE
0
BLOCK_RECORD
5
1B
100
AcDbSymbolTableRecord
100
AcDbBlockTableRecord
2
*PAPER_SPACE
0
ENDTAB
0
ENDSEC
0
SECTION
2
BLOCKS
0
BLOCK
5
20
100
AcDbEntity
100
AcDbBlockBegin
2
*MODEL_SPACE
0
ENDBLK
5
21
100
AcDbEntity
100
AcDbBlockEnd
0
BLOCK
5
1C
100
AcDbEntity
100
AcDbBlockBegin
2
*PAPER_SPACE
0
ENDBLK
5
1D
100
AcDbEntity
100
AcDbBlockEnd
0
ENDSEC
0
SECTION
2
ENTITIES
0
SPLINE
5
100
100
AcDbEntity
8
0
100
AcDbSpline
70
4
71
5
72
16
73
10
74
0
42
0.000000001
43
0.0000000001
44
0.0000000001
40
0
40
0
40
0
40
0
40
0
40
0
40
0.20000000000000001
40
0.40000000000000002
40
0.60000000000000009
40
0.80000000000000004
40
1
40
1
40
1
40
1
40
1
40
1
41
1
41
1
41
1
41
1
41
1
41
1
41
1
41
1
41
1
41
1
10
0
20
0
30
0
10
0
20
0.12000000000003158
30
0
10
0
20
0.36000000000007704
30
0
10
0
20
0.72000000000009301
30
0
10
0
20
1.2000000000000313
30
0
10
0
20
1.7999999999999146
30
0
10
0
20
2.2799999999998684
30
0
10
0
20
2.6399999999999042
30
0
10
0
20
2.8799999999999617
30
0
10
0
20
3
30
0
0
SPLINE
5
101
100
AcDbEntity
8
0
100
AcDbSpline
70
4
71
5
72
16
73
10
74
0
42
0.000000001
43
0.0000000001
44
0.0000000001
40
0
40
0
40
0
40
0
40
0
40
0
40
0.20000000000000001
40
0.40000000000000002
40
0.60000000000000009
40
0.80000000000000004
40
1
40
1
40
1
40
1
40
1
40
1
41
1
41
1
41
1
41
1
41
1
41
1
41
1
41
1
41
1
41
1
10
10
20
0
30
0
10
9.9999999999997495
20
0.12000000000003158
30
0
10
9.9999999999993197
20
0.36000000000007704
30
0
10
9.9999999999989129
20
0.72000000000009301
30
0
10
9.9999999999987672
20
1.2000000000000313
30
0
10
9.9999999999990248
20
1.7999999999999146
30
0
10
9.9999999999993889
20
2.2799999999998684
30
0
10
9.9999999999996998
20
2.6399999999999042
30
0
10
9.9999999999999005
20
2.8799999999999617
30
0
10
10
20
3
30
0
0
SPLINE
5
102
100
AcDbEntity
8
0
100
AcDbSpline
70
4
71
5
72
16
73
10
74
0
42
0.000000001
43
0.0000000001
44
0.0000000001
40
0
40
0
40
0
40
0
40
0
40
0
40
0.20000000000000001
40
0.40000000000000002
40
0.60000000000000009
40
0.80000000000000004
40
1
40
1
40
1
40
1
40
1
40
1
41
1
41
1
41
1
41
1
41
1
41
1
41
1
41
1
41
1
41
1
10
0
20
1.5
30
0
10
0.40000000000047375
20
1.499999999999694
30
0
10
1.2000000000012774
20
1.4999999999991638
30
0
10
2.4000000000020547
20
1.4999999999986278
30
0
10
4.0000000000023546
20
1.4999999999983737
30
0
10
6.0000000000019584
20
1.4999999999985913
30
0
10
7.6000000000012928
20
1.4999999999990359
30
0
10
8.800000000000697
20
1.4999999999994786
30
0
10
9.6000000000002395
20
1.4999999999998188
30
0
10
10
20
1.5
30
0
0
SPLINE
5
103
100
AcDbEntity
8
0
100
AcDbSpline
70
4
71
5
72
61
73
55
74
0
42
0.000000001
43
0.0000000001
44
0.0000000001
40
0
40
0
40
0
40
0
40
0
40
0
40
0.02
40
0.040000000000000001
40
0.059999999999999998
40
0.080000000000000002
40
0.10000000000000001
40
0.12000000000000001
40
0.14000000000000001
40
0.16
40
0.17999999999999999
40
0.19999999999999998
40
0.21999999999999997
40
0.23999999999999996
40
0.25999999999999995
40
0.27999999999999997
40
0.29999999999999999
40
0.32000000000000001
40
0.34000000000000002
40
0.36000000000000004
40
0.38000000000000006
40
0.40000000000000008
40
0.4200000000000001
40
0.44000000000000011
40
0.46000000000000013
40
0.48000000000000015
40
0.50000000000000011
40
0.52000000000000013
40
0.54000000000000015
40
0.56000000000000016
40
0.58000000000000018
40
0.6000000000000002
40
0.62000000000000022
40
0.64000000000000024
40
0.66000000000000025
40
0.68000000000000027
40
0.70000000000000029
40
0.72000000000000031
40
0.74000000000000032
40
0.76000000000000034
40
0.78000000000000036
40
0.80000000000000038
40
0.8200000000000004
40
0.84000000000000041
40
0.86000000000000043
40
0.88000000000000045
40
0.90000000000000047
40
0.92000000000000048
40
0.9400000000000005
40
0.96000000000000052
40
0.98000000000000054
40
1
40
1
40
1
40
1
40
1
40
1
41
1
41
1
41
1
41
1
41
1
41
1
41
1
41
1
41
1
41
1
41
1
41
1
41
1
41
1
41
1
41
1
41
1
41
1
41
1
41
1
41
1
41
1
41
1
41
1
41
1
41
1
41
1
41
1
41
1
41
1
41
1
41
1
41
1
41
1
41
1
41
1
41
1
41
1
41
1
41
1
41
1
41
1
41
1
41
1
41
1
41
1
41
1
41
1
41
1
41
1
41
1
41
1
41
1
41
1
41
1
10
0
20
0
30
0
10
0.040239527955304347
20
0.012025403669421657
30
0
10
0.12074403504051757
20
0.034123808903498601
30
0
10
0.24157714949999246
20
0.061414155437503302
30
0
10
0.40284077328523077
20
0.08607960405085005
30
0
10
0.60466786699852693
20
0.098016797514278914
30
0
10
0.80672012948807148
20
0.093070849110203094
30
0
10
1.0089520583456986
20
0.075310983132688539
30
0
10
1.211286844677657
20
0.051614382077300416
30
0
10
1.4136089995982193
20
0.032266202919631934
30
0
10
1.615778214152557
20
0.028113953016216421
30
0
10
1.8176423116436256
20
0.047805809590990109
30
0
10
2.019050604758414
20
0.095088332243423057
30
0
10
2.2198668454091335
20
0.16584635361473232
30
0
10
2.4199830508500959
20
0.24586533693694024
30
0
10
2.6193404114566849
20
0.31627910148114702
30
0
10
2.8179502662390594
20
0.35847861979960371
30
0
10
3.0159142777139181
20
0.35911075424690952
30
0
10
3.2134474517597762
20
0.31531117955954713
30
0
10
3.4108938391062948
20
0.23911718381195496
30
0
10
3.6086480680150341
20
0.15087852238262675
30
0
10
3.8070828355790614
20
0.073389200054418124
30
0
10
4.0064747973119905
20
0.025807140817669865
30
0
10
4.2069293651187927
20
0.017542299714773481
30
0
10
4.4083098592703607
20
0.042460294359409588
30
0
10
4.6103251141061472
20
0.084953614181197401
30
0
10
4.8126126291268498
20
0.12568834212218583
30
0
10
5.0148219803963547
20
0.14735816055984058
30
0
10
5.2167007171681101
20
0.14066745457208377
30
0
10
5.4181718722170666
20
0.10957711736166487
30
0
10
5.6192881941473036
20
0.065958517059448774
30
0
10
5.8201940948097972
20
0.024844285517212922
30
0
10
6.021085059399562
20
-0.00040828813517918358
30
0
10
6.2221680778077548
20
-0.003210926134166779
30
0
10
6.4236224415612853
20
0.012102249610301473
30
0
10
6.6255713416411366
20
0.035149774407427961
30
0
10
6.8280511619942521
20
0.053687589771999514
30
0
10
7.0309838569859817
20
0.057874637161875672
30
0
10
7.2341420533602419
20
0.044914882993554506
30
0
10
7.4371335111199421
20
0.022351980153447588
30
0
10
7.6394983294116994
20
0.0030982602471081072
30
0
10
7.8407951312332642
20
0.0013413962496557539
30
0
10
8.0406870788867622
20
0.028318084828187828
30
0
10
8.23903859030594
20
0.087670258439937171
30
0
10
8.4359764301187212
20
0.17238768627520387
30
0
10
8.6317968252592578
20
0.26872355834868211
30
0
10
8.8268947767648882
20
0.3591025849655996
30
0
10
9.0216864842676152
20
0.42534948800791
30
0
10
9.2165315195808333
20
0.45191741846483502
30
0
10
9.4116646923083707
20
0.4287133295831953
30
0
10
9.6072270997376492
20
0.34973259943665874
30
0
10
9.764075799794794
20
0.23961397231932285
30
0
10
9.8819467875323337
20
0.13022289402830911
30
0
10
9.9606315741225853
20
0.045391627346140953
30
0
10
10
20
0
30
0
0
SPLINE
5
104
100
AcDbEntity
8
0
100
AcDbSpline
70
4
71
5
72
61
73
55
74
0
42
0.000000001
43
0.0000000001
44
0.0000000001
40
0
40
0
40
0
40
0
40
0
40
0
40
0.02
40
0.040000000000000001
40
0.059999999999999998
40
0.080000000000000002
40
0.10000000000000001
40
0.12000000000000001
40
0.14000000000000001
40
0.16
40
0.17999999999999999
40
0.19999999999999998
40
0.21999999999999997
40
0.23999999999999996
40
0.25999999999999995
40
0.27999999999999997
40
0.29999999999999999
40
0.32000000000000001
40
0.34000000000000002
40
0.36000000000000004
40
0.38000000000000006
40
0.40000000000000008
40
0.4200000000000001
40
0.44000000000000011
40
0.46000000000000013
40
0.48000000000000015
40
0.50000000000000011
40
0.52000000000000013
40
0.54000000000000015
40
0.56000000000000016
40
0.58000000000000018
40
0.6000000000000002
40
0.62000000000000022
40
0.64000000000000024
40
0.66000000000000025
40
0.68000000000000027
40
0.70000000000000029
40
0.72000000000000031
40
0.74000000000000032
40
0.76000000000000034
40
0.78000000000000036
40
0.80000000000000038
40
0.8200000000000004
40
0.84000000000000041
40
0.86000000000000043
40
0.88000000000000045
40
0.90000000000000047
40
0.92000000000000048
40
0.9400000000000005
40
0.96000000000000052
40
0.98000000000000054
40
1
40
1
40
1
40
1
40
1
40
1
41
1
41
1
41
1
41
1
41
1
41
1
41
1
41
1
41
1
41
1
41
1
41
1
41
1
41
1
41
1
41
1
41
1
41
1
41
1
41
1
41
1
41
1
41
1
41
1
41
1
41
1
41
1
41
1
41
1
41
1
41
1
41
1
41
1
41
1
41
1
41
1
41
1
41
1
41
1
41
1
41
1
41
1
41
1
41
1
41
1
41
1
41
1
41
1
41
1
41
1
41
1
41
1
41
1
41
1
41
1
10
0
20
3
30
0
10
0.038913707951877062
20
2.9439337087945927
30
0
10
0.11670204644180024
20
2.8391991076302681
30
0
10
0.23326732473025746
20
2.7042909205648429
30
0
10
0.38845305982974504
20
2.5688316723121534
30
0
10
0.58206078488452018
20
2.4724330848978546
30
0
10
0.77534503224762807
20
2.4453885902289447
30
0
10
0.96840978766329677
20
2.4802637400270831
30
0
10
1.1614279213276133
20
2.564593478678987
30
0
10
1.3546646388843255
20
2.679095822869094
30
0
10
1.5484410535932733
20
2.800730896786463
30
0
10
1.7430876333302869
20
2.9065381255022329
30
0
10
1.9388998660986689
20
2.9773853066735012
30
0
10
2.1360959587118606
20
3.0013436001223361
30
0
10
2.334765697589003
20
2.9783040764673037
30
0
10
2.53486614934471
20
2.9182333288514855
30
0
10
2.7362386289460305
20
2.8367609586136462
30
0
10
2.9386167144792963
20
2.7515131903480912
30
0
10
3.1416416043725266
20
2.6784334510761019
30
0
10
3.3448640193592971
20
2.6273755635459848
30
0
10
3.5478067833615299
20
2.6021101309945713
30
0
10
3.7500493768103644
20
2.6021939346682581
30
0
10
3.9513103399677618
20
2.6242591789587033
30
0
10
4.1515201438908491
20
2.6634542008883271
30
0
10
4.3509263025831597
20
2.7150196968846396
30
0
10
4.5500035533967846
20
2.7744412972802381
30
0
10
4.7493073520622806
20
2.8371511728876504
30
0
10
4.9493409882452539
20
2.8983474050512759
30
0
10
5.1504296641543448
20
2.9528411012073423
30
0
10
5.352558601805212
20
2.9946917591932589
30
0
10
5.5554367305558419
20
3.0182005937923795
30
0
10
5.758631230052222
20
3.0193006072918442
30
0
10
5.9616812439124125
20
2.9968993842035836
30
0
10
6.1642127534650095
20
2.9540662682340999
30
0
10
6.3660722775519556
20
2.8997734975415752
30
0
10
6.5672962597804965
20
2.846560563033548
30
0
10
6.7680439708916307
20
2.8073569324194132
30
0
10
6.9685424318680624
20
2.7924954857576396
30
0
10
7.1690287383110931
20
2.8068721445496014
30
0
10
7.3696877951281783
20
2.8464223152474286
30
0
10
7.570647847210199
20
2.9006780034789319
30
0
10
7.7719866264665818
20
2.9563435766487012
30
0
10
7.9737334582350448
20
3.0005792155628481
30
0
10
8.1758732746284597
20
3.0242365653333207
30
0
10
8.3783487405261265
20
3.0255705657557694
30
0
10
8.5810735611303404
20
3.0086695082135217
30
0
10
8.7839470346575492
20
2.9811606205552748
30
0
10
8.9868682678171545
20
2.9521643399744808
30
0
10
9.1897501768897474
20
2.9301949841303458
30
0
10
9.3925345200188168
20
2.9209630878566091
30
0
10
9.5951868125591808
20
2.927837910045465
30
0
10
9.757189357952198
20
2.9475549437174426
30
0
10
9.8786217117285524
20
2.9705771323638661
30
0
10
9.9595457196290784
20
2.9895827949434532
30
0
10
10
20
3
30
0
0
ENDSEC
0
SECTION
2
OBJECTS
0
DICTIONARY
5
C
100
AcDbDictionary
3
ACAD_GROUP
350
D
3
ACAD_MLINESTYLE
350
17
0
DICTIONARY
5
D
100
AcDbDictionary
0
DICTIONARY
5
1A
330
C
100
AcDbDictionary
0
DICTIONARY
5
17
100
AcDbDictionary
0
ENDSEC
0
EOF
