0
SECTION
2
HEADER
9
$INSUNITS
70
4
9
$ACADVER
1
AC1014
9
$HANDSEED
5
FFFF
0
ENDSEC
0
SECTION
2
TABLES
0
TABLE
2
VPORT
5
8
100
AcDbSymbolTable
0
ENDTAB
0
TABLE
2
LTYPE
5
5
100
AcDbSymbolTable
0
LTYPE
5
14
100
AcDbSymbolTableRecord
100
AcDbLinetypeTableRecord
2
BYBLOCK
70
0
0
LTYPE
5
15
100
AcDbSymbolTableRecord
100
AcDbLinetypeTableRecord
2
BYLAYER
70
0
0
ENDTAB
0
TABLE
2
LAYER
5
2
100
AcDbSymbolTable
70
2
0
LAYER
5
50
100
AcDbSymbolTableRecord
100
AcDbLayerTableRecord
2
0
70
0
6
CONTINUOUS
0
ENDTAB
0
TABLE
2
STYLE
5
3
100
AcDbSymbolTable
70
1
0
STYLE
5
11
100
AcDbSymbolTableRecord
100
AcDbTextStyleTableRecord
2
STANDARD
70
0
0
ENDTAB
0
TABLE
2
VIEW
5
6
100
AcDbSymbolTable
70
0
0
ENDTAB
0
TABLE
2
UCS
5
7
100
AcDbSymbolTable
70
0
0
ENDTAB
0
TABLE
2
APPID
5
9
100
AcDbSymbolTable
70
2
0
APPID
5
12
100
AcDbSymbolTableRecord
100
AcDbRegAppTableRecord
2
ACAD
70
0
0
ENDTAB
0
TABLE
2
DIMSTYLE
5
A
100
AcDbSymbolTable
70
1
0
ENDTAB
0
TABLE
2
BLOCK_RECORD
5
1
100
AcDbSymbolTable
70
1
0
BLOCK_RECORD
5
1F
100
AcDbSymbolTableRecord
100
AcDbBlockTableRecord
2
*MODEL_SPACE
0
BLOCK_RECORD
5
1B
100
AcDbSymbolTableRecord
100
AcDbBlockTableRecord
2
*PAPER_SPACE
0
ENDTAB
0
ENDSEC
0
SECTION
2
BLOCKS
0
BLOCK
5
20
100
AcDbEntity
100
AcDbBlockBegin
2
*MODEL_SPACE
0
ENDBLK
5
21
100
AcDbEntity
100
AcDbBlockEnd
0
BLOCK
5
1C
100
AcDbEntity
100
AcDbBlockBegin
2
*PAPER_SPACE
0
ENDBLK
5
1D
100
AcDbEntity
100
AcDbBlockEnd
0
ENDSEC
0
SECTION
2
ENTITIES
0
SPLINE
5
100
100
AcDbEntity
8
0
100
AcDbSpline
70
4
71
5
72
16
73
10
74
0
42
0.000000001
43
0.0000000001
44
0.0000000001
40
0
40
0
40
0
40
0
40
0
40
0
40
0.20000000000000001
40
0.40000000000000002
40
0.60000000000000009
40
0.80000000000000004
40
1
40
1
40
1
40
1
40
1
40
1
41
1
41
1
41
1
41
1
41
1
41
1
41
1
41
1
41
1
41
1
10
0
20
0
30
0
10
0
20
0.12000000000003158
30
0
10
0
20
0.36000000000007704
30
0
10
0
20
0.72000000000009301
30
0
10
0
20
1.2000000000000313
30
0
10
0
20
1.7999999999999146
30
0
10
0
20
2.2799999999998684
30
0
10
0
20
2.6399999999999042
30
0
10
0
20
2.8799999999999617
30
0
10
0
20
3
30
0
0
SPLINE
5
101
100
AcDbEntity
8
0
100
AcDbSpline
70
4
71
5
72
16
73
10
74
0
42
0.000000001
43
0.0000000001
44
0.0000000001
40
0
40
0
40
0
40
0
40
0
40
0
40
0.20000000000000001
40
0.40000000000000002
40
0.60000000000000009
40
0.80000000000000004
40
1
40
1
40
1
40
1
40
1
40
1
41
1
41
1
41
1
41
1
41
1
41
1
41
1
41
1
41
1
41
1
10
10
20
0
30
0
10
9.9999999999997495
20
0.12000000000003158
30
0
10
9.9999999999993197
20
0.36000000000007704
30
0
10
9.9999999999989129
20
0.72000000000009301
30
0
10
9.9999999999987672
20
1.2000000000000313
30
0
10
9.9999999999990248
20
1.7999999999999146
30
0
10
9.9999999999993889
20
2.2799999999998684
30
0
10
9.9999999999996998
20
2.6399999999999042
30
0
10
9.9999999999999005
20
2.8799999999999617
30
0
10
10
20
3
30
0
0
SPLINE
5
102
100
AcDbEntity
8
0
100
AcDbSpline
70
4
71
5
72
16
73
10
74
0
42
0.000000001
43
0.0000000001
44
0.0000000001
40
0
40
0
40
0
40
0
40
0
40
0
40
0.20000000000000001
40
0.40000000000000002
40
0.60000000000000009
40
0.80000000000000004
40
1
40
1
40
1
40
1
40
1
40
1
41
1
41
1
41
1
41
1
41
1
41
1
41
1
41
1
41
1
41
1
10
0
20
1.5
30
0
10
0.40000000000047375
20
1.499999999999694
30
0
10
1.2000000000012774
20
1.4999999999991638
30
0
10
2.4000000000020547
20
1.4999999999986278
30
0
10
4.0000000000023546
20
1.4999999999983737
30
0
10
6.0000000000019584
20
1.4999999999985913
30
0
10
7.6000000000012928
20
1.4999999999990359
30
0
10
8.800000000000697
20
1.4999999999994786
30
0
10
9.6000000000002395
20
1.4999999999998188
30
0
10
10
20
1.5
30
0
0
SPLINE
5
103
100
AcDbEntity
8
0
100
AcDbSpline
70
4
71
5
72
61
73
55
74
0
42
0.000000001
43
0.0000000001
44
0.0000000001
40
0
40
0
40
0
40
0
40
0
40
0
40
0.02
40
0.040000000000000001
40
0.059999999999999998
40
0.080000000000000002
40
0.10000000000000001
40
0.12000000000000001
40
0.14000000000000001
40
0.16
40
0.17999999999999999
40
0.19999999999999998
40
0.21999999999999997
40
0.23999999999999996
40
0.25999999999999995
40
0.27999999999999997
40
0.29999999999999999
40
0.32000000000000001
40
0.34000000000000002
40
0.36000000000000004
40
0.38000000000000006
40
0.40000000000000008
40
0.4200000000000001
40
0.44000000000000011
40
0.46000000000000013
40
0.48000000000000015
40
0.50000000000000011
40
0.52000000000000013
40
0.54000000000000015
40
0.56000000000000016
40
0.58000000000000018
40
0.6000000000000002
40
0.62000000000000022
40
0.64000000000000024
40
0.66000000000000025
40
0.68000000000000027
40
0.70000000000000029
40
0.72000000000000031
40
0.74000000000000032
40
0.76000000000000034
40
0.78000000000000036
40
0.80000000000000038
40
0.8200000000000004
40
0.84000000000000041
40
0.86000000000000043
40
0.88000000000000045
40
0.90000000000000047
40
0.92000000000000048
40
0.9400000000000005
40
0.96000000000000052
40
0.98000000000000054
40
1
40
1
40
1
40
1
40
1
40
1
41
1
41
1
41
1
41
1
41
1
41
1
41
1
41
1
41
1
41
1
41
1
41
1
41
1
41
1
41
1
41
1
41
1
41
1
41
1
41
1
41
1
41
1
41
1
41
1
41
1
41
1
41
1
41
1
41
1
41
1
41
1
41
1
41
1
41
1
41
1
41
1
41
1
41
1
41
1
41
1
41
1
41
1
41
1
41
1
41
1
41
1
41
1
41
1
41
1
41
1
41
1
41
1
41
1
41
1
41
1
10
0
20
0
30
0
10
0.039910970557614195
20
0.0051011863928160728
30
0
10
0.11977122542910071
20
0.014616739911793781
30
0
10
0.23967654927947407
20
0.026829606398074028
30
0
10
0.39978034495506304
20
0.038989866568211004
30
0
10
0.60027795851988208
20
0.047630234911010927
30
0
10
0.80109531376784882
20
0.050677175600349768
30
0
10
1.0021350023786897
20
0.050084326922456943
30
0
10
1.2032332705383459
20
0.049134075305113524
30
0
10
1.4041436024038643
20
0.052764854218306935
30
0
10
1.6045976247999774
20
0.066222926927923587
30
0
10
1.804365376019756
20
0.093727263498382563
30
0
10
2.0033156038676054
20
0.13713422115541249
30
0
10
2.2014769322232071
20
0.19458105505794052
30
0
10
2.3990972829869266
20
0.25917207950622212
30
0
10
2.5965514060067814
20
0.32135612567690958
30
0
10
2.794251160968686
20
0.37123668561963968
30
0
10
2.9925542268053422
20
0.40092479195811986
30
0
10
3.19167505374724
20
0.4068310435834025
30
0
10
3.3915900032563338
20
0.39212144735942944
30
0
10
3.5921117627526589
20
0.36440565435902716
30
0
10
3.7929689806359694
20
0.33327820154138466
30
0
10
3.9938841568873511
20
0.30790693617014381
30
0
10
4.194651111492151
20
0.2946347766095383
30
0
10
4.3952156775847175
20
0.29448152137745137
30
0
10
4.5956270559416126
20
0.30457116806845386
30
0
10
4.7959856917582835
20
0.31966434568509289
30
0
10
4.9963924103203352
20
0.33364790750477702
30
0
10
5.1968975256964036
20
0.34103062778187743
30
0
10
5.3974485992499819
20
0.33845922761704172
30
0
10
5.5979326312246176
20
0.32454064255321935
30
0
10
5.7982196863510094
20
0.29963853704708537
30
0
10
5.9982060112165296
20
0.26568529752810571
30
0
10
6.1978571814334931
20
0.22599053926786583
30
0
10
6.3972520235952199
20
0.18506015194130265
30
0
10
6.5965404628952182
20
0.14779096525488522
30
0
10
6.7959008533904992
20
0.11866361213782566
30
0
10
6.9954974253410542
20
0.10093080015199232
30
0
10
7.1954381063455735
20
0.095815274138828357
30
0
10
7.3957308817874035
20
0.10166907349771773
30
0
10
7.5963116803586352
20
0.11491337354125553
30
0
10
7.7970735630279178
20
0.1310099861739227
30
0
10
7.9978953360482175
20
0.14541951987123627
30
0
10
8.1986702280806174
20
0.15456013145435615
30
0
10
8.3993348573180029
20
0.15677930245170513
30
0
10
8.5998597752777233
20
0.15188465628250311
30
0
10
8.8002396896039752
20
0.14066336852668354
30
0
10
9.0004838845329083
20
0.12440912462136586
30
0
10
9.200606603630753
20
0.10444751851831049
30
0
10
9.4006174923757921
20
0.081663717818545853
30
0
10
9.6005224954485264
20
0.056591351539620527
30
0
10
9.7603642849347523
20
0.034918099984992276
30
0
10
9.8801999098267288
20
0.017796043783054785
30
0
10
9.9600700208674464
20
0.0059962038588451056
30
0
10
10
20
0
30
0
0
SPLINE
5
104
100
AcDbEntity
8
0
100
AcDbSpline
70
4
71
5
72
61
73
55
74
0
42
0.000000001
43
0.0000000001
44
0.0000000001
40
0
40
0
40
0
40
0
40
0
40
0
40
0.02
40
0.040000000000000001
40
0.059999999999999998
40
0.080000000000000002
40
0.10000000000000001
40
0.12000000000000001
40
0.14000000000000001
40
0.16
40
0.17999999999999999
40
0.19999999999999998
40
0.21999999999999997
40
0.23999999999999996
40
0.25999999999999995
40
0.27999999999999997
40
0.29999999999999999
40
0.32000000000000001
40
0.34000000000000002
40
0.36000000000000004
40
0.38000000000000006
40
0.40000000000000008
40
0.4200000000000001
40
0.44000000000000011
40
0.46000000000000013
40
0.48000000000000015
40
0.50000000000000011
40
0.52000000000000013
40
0.54000000000000015
40
0.56000000000000016
40
0.58000000000000018
40
0.6000000000000002
40
0.62000000000000022
40
0.64000000000000024
40
0.66000000000000025
40
0.68000000000000027
40
0.70000000000000029
40
0.72000000000000031
40
0.74000000000000032
40
0.76000000000000034
40
0.78000000000000036
40
0.80000000000000038
40
0.8200000000000004
40
0.84000000000000041
40
0.86000000000000043
40
0.88000000000000045
40
0.90000000000000047
40
0.92000000000000048
40
0.9400000000000005
40
0.96000000000000052
40
0.98000000000000054
40
1
40
1
40
1
40
1
40
1
40
1
41
1
41
1
41
1
41
1
41
1
41
1
41
1
41
1
41
1
41
1
41
1
41
1
41
1
41
1
41
1
41
1
41
1
41
1
41
1
41
1
41
1
41
1
41
1
41
1
41
1
41
1
41
1
41
1
41
1
41
1
41
1
41
1
41
1
41
1
41
1
41
1
41
1
41
1
41
1
41
1
41
1
41
1
41
1
41
1
41
1
41
1
41
1
41
1
41
1
41
1
41
1
41
1
41
1
41
1
41
1
10
0
20
3
30
0
10
0.040082411555274311
20
2.9904591410414954
30
0
10
0.12027616037909993
20
2.9730969073945532
30
0
10
0.24065356108052491
20
2.9522120362513791
30
0
10
0.40133042722861023
20
2.9346889936127427
30
0
10
0.60245633927948117
20
2.9294426401871143
30
0
10
0.80383203366531952
20
2.9391358429527603
30
0
10
1.0053965913081282
20
2.9602859349879966
30
0
10
1.2070473718742201
20
2.9870184696811291
30
0
10
1.4086300105072969
20
3.0105104091921304
30
0
10
1.6099647492677835
20
3.0212664285395081
30
0
10
1.8108719612292061
20
3.0113476320222139
30
0
10
2.0111977756237054
20
2.9765809692428391
30
0
10
2.2108401558190662
20
2.9188782971153575
30
0
10
2.4097736907942648
20
2.8482634717519524
30
0
10
2.6080468800167731
20
2.7791290274102929
30
0
10
2.8057809316802058
20
2.7267654230288194
30
0
10
3.0031680890103645
20
2.7038048351228272
30
0
10
3.2004706401092298
20
2.7166680919799067
30
0
10
3.3980190883333994
20
2.7620741455716185
30
0
10
3.5961460845626467
20
2.8300122311753579
30
0
10
3.7951214992897482
20
2.9066011292747089
30
0
10
3.9950864493433551
20
2.9769860103513199
30
0
10
4.1959885658282694
20
3.0281943923262737
30
0
10
4.3975131361913355
20
3.0520659851954117
30
0
10
4.5991933053635279
20
3.0450860003897571
30
0
10
4.8005238863786373
20
3.0081625565502508
30
0
10
5.0010735605952492
20
2.9464365848306184
30
0
10
5.2005980888174221
20
2.8690925352385981
30
0
10
5.3991529406412031
20
2.7891755074214739
30
0
10
5.5970018820129583
20
2.7208795439609679
30
0
10
5.7945269689951271
20
2.6768643296279664
30
0
10
5.9921378943602708
20
2.6655277539957414
30
0
10
6.1901829937802049
20
2.6883587027290301
30
0
10
6.3888561134820367
20
2.7370426666592369
30
0
10
6.5882209134699421
20
2.7973174262829481
30
0
10
6.7882392402389344
20
2.8530420667240945
30
0
10
6.9887977291299475
20
2.89022802035162
30
0
10
7.1897348414737241
20
2.900977774092715
30
0
10
7.390867718509889
20
2.8877780905934545
30
0
10
7.5920142662004082
20
2.8601696657324966
30
0
10
7.7930148307321598
20
2.8310305814594781
30
0
10
7.9937542507687853
20
2.8129913349920321
30
0
10
8.1941834417153654
20
2.8148451136456387
30
0
10
8.3943424904032717
20
2.8378199582176276
30
0
10
8.5943347721255314
20
2.8775581408728614
30
0
10
8.7942998112904185
20
2.9262538989407978
30
0
10
8.9943866074887815
20
2.9747301828043211
30
0
10
9.1947270822594547
20
3.0145155248940285
30
0
10
9.3954087148412384
20
3.039975351714272
30
0
10
9.596483118471939
20
3.0477744093477721
30
0
10
9.7576770159699411
20
3.0385728969681285
30
0
10
9.8787640430461092
20
3.0227527543015187
30
0
10
9.9595738305822969
20
3.0082444977732554
30
0
10
10
20
3
30
0
0
ENDSEC
0
SECTION
2
OBJECTS
0
DICTIONARY
5
C
100
AcDbDictionary
3
ACAD_GROUP
350
D
3
ACAD_MLINESTYLE
350
17
0
DICTIONARY
5
D
100
AcDbDictionary
0
DICTIONARY
5
1A
330
C
100
AcDbDictionary
0
DICTIONARY
5
17
100
AcDbDictionary
0
ENDSEC
0
EOF
