0
SECTION
2
HEADER
9
$INSUNITS
70
4
9
$ACADVER
1
AC1014
9
$HANDSEED
5
FFFF
0
ENDSEC
0
SECTION
2
TABLES
0
TABLE
2
VPORT
5
8
100
AcDbSymbolTable
0
ENDTAB
0
TABLE
2
LTYPE
5
5
100
AcDbSymbolTable
0
LTYPE
5
14
100
AcDbSymbolTableRecord
100
AcDbLinetypeTableRecord
2
BYBLOCK
70
0
0
LTYPE
5
15
100
AcDbSymbolTableRecord
100
AcDbLinetypeTableRecord
2
BYLAYER
70
0
0
ENDTAB
0
TABLE
2
LAYER
5
2
100
AcDbSymbolTable
70
2
0
LAYER
5
50
100
AcDbSymbolTableRecord
100
AcDbLayerTableRecord
2
0
70
0
6
CONTINUOUS
0
ENDTAB
0
TABLE
2
STYLE
5
3
100
AcDbSymbolTable
70
1
0
STYLE
5
11
100
AcDbSymbolTableRecord
100
AcDbTextStyleTableRecord
2
STANDARD
70
0
0
ENDTAB
0
TABLE
2
VIEW
5
6
100
AcDbSymbolTable
70
0
0
ENDTAB
0
TABLE
2
UCS
5
7
100
AcDbSymbolTable
70
0
0
ENDTAB
0
TABLE
2
APPID
5
9
100
AcDbSymbolTable
70
2
0
APPID
5
12
100
AcDbSymbolTableRecord
100
AcDbRegAppTableRecord
2
ACAD
70
0
0
ENDTAB
0
TABLE
2
DIMSTYLE
5
A
100
AcDbSymbolTable
70
1
0
ENDTAB
0
TABLE
2
BLOCK_RECORD
5
1
100
AcDbSymbolTable
70
1
0
BLOCK_RECORD
5
1F
100
AcDbSymbolTableRecord
100
AcDbBlockTableRecord
2
*MODEL_SPACE
0
BLOCK_RECORD
5
1B
100
AcDbSymbolTableRecord
100
AcDbBlockTableRecord
2
*PAPER_SPACE
0
ENDTAB
0
ENDSEC
0
SECTION
2
BLOCKS
0
BLOCK
5
20
100
AcDbEntity
100
AcDbBlockBegin
2
*MODEL_SPACE
0
ENDBLK
5
21
100
AcDbEntity
100
AcDbBlockEnd
0
BLOCK
5
1C
100
AcDbEntity
100
AcDbBlockBegin
2
*PAPER_SPACE
0
ENDBLK
5
1D
100
AcDbEntity
100
AcDbBlockEnd
0
ENDSEC
0
SECTION
2
ENTITIES
0
SPLINE
5
100
100
AcDbEntity
8
0
100
AcDbSpline
70
4
71
5
72
16
73
10
74
0
42
0.000000001
43
0.0000000001
44
0.0000000001
40
0
40
0
40
0
40
0
40
0
40
0
40
0.20000000000000001
40
0.40000000000000002
40
0.60000000000000009
40
0.80000000000000004
40
1
40
1
40
1
40
1
40
1
40
1
41
1
41
1
41
1
41
1
41
1
41
1
41
1
41
1
41
1
41
1
10
0
20
0
30
0
10
0
20
0.12000000000003158
30
0
10
0
20
0.36000000000007704
30
0
10
0
20
0.72000000000009301
30
0
10
0
20
1.2000000000000313
30
0
10
0
20
1.7999999999999146
30
0
10
0
20
2.2799999999998684
30
0
10
0
20
2.6399999999999042
30
0
10
0
20
2.8799999999999617
30
0
10
0
20
3
30
0
0
SPLINE
5
101
100
AcDbEntity
8
0
100
AcDbSpline
70
4
71
5
72
16
73
10
74
0
42
0.000000001
43
0.0000000001
44
0.0000000001
40
0
40
0
40
0
40
0
40
0
40
0
40
0.20000000000000001
40
0.40000000000000002
40
0.60000000000000009
40
0.80000000000000004
40
1
40
1
40
1
40
1
40
1
40
1
41
1
41
1
41
1
41
1
41
1
41
1
41
1
41
1
41
1
41
1
10
10
20
0
30
0
10
9.9999999999997495
20
0.12000000000003158
30
0
10
9.9999999999993197
20
0.36000000000007704
30
0
10
9.9999999999989129
20
0.72000000000009301
30
0
10
9.9999999999987672
20
1.2000000000000313
30
0
10
9.9999999999990248
20
1.7999999999999146
30
0
10
9.9999999999993889
20
2.2799999999998684
30
0
10
9.9999999999996998
20
2.6399999999999042
30
0
10
9.9999999999999005
20
2.8799999999999617
30
0
10
10
20
3
30
0
0
SPLINE
5
102
100
AcDbEntity
8
0
100
AcDbSpline
70
4
71
5
72
16
73
10
74
0
42
0.000000001
43
0.0000000001
44
0.0000000001
40
0
40
0
40
0
40
0
40
0
40
0
40
0.20000000000000001
40
0.40000000000000002
40
0.60000000000000009
40
0.80000000000000004
40
1
40
1
40
1
40
1
40
1
40
1
41
1
41
1
41
1
41
1
41
1
41
1
41
1
41
1
41
1
41
1
10
0
20
1.5
30
0
10
0.40000000000047375
20
1.499999999999694
30
0
10
1.2000000000012774
20
1.4999999999991638
30
0
10
2.4000000000020547
20
1.4999999999986278
30
0
10
4.0000000000023546
20
1.4999999999983737
30
0
10
6.0000000000019584
20
1.4999999999985913
30
0
10
7.6000000000012928
20
1.4999999999990359
30
0
10
8.800000000000697
20
1.4999999999994786
30
0
10
9.6000000000002395
20
1.4999999999998188
30
0
10
10
20
1.5
30
0
0
SPLINE
5
103
100
AcDbEntity
8
0
100
AcDbSpline
70
4
71
5
72
61
73
55
74
0
42
0.000000001
43
0.0000000001
44
0.0000000001
40
0
40
0
40
0
40
0
40
0
40
0
40
0.02
40
0.040000000000000001
40
0.059999999999999998
40
0.080000000000000002
40
0.10000000000000001
40
0.12000000000000001
40
0.14000000000000001
40
0.16
40
0.17999999999999999
40
0.19999999999999998
40
0.21999999999999997
40
0.23999999999999996
40
0.25999999999999995
40
0.27999999999999997
40
0.29999999999999999
40
0.32000000000000001
40
0.34000000000000002
40
0.36000000000000004
40
0.38000000000000006
40
0.40000000000000008
40
0.4200000000000001
40
0.44000000000000011
40
0.46000000000000013
40
0.48000000000000015
40
0.50000000000000011
40
0.52000000000000013
40
0.54000000000000015
40
0.56000000000000016
40
0.58000000000000018
40
0.6000000000000002
40
0.62000000000000022
40
0.64000000000000024
40
0.66000000000000025
40
0.68000000000000027
40
0.70000000000000029
40
0.72000000000000031
40
0.74000000000000032
40
0.76000000000000034
40
0.78000000000000036
40
0.80000000000000038
40
0.8200000000000004
40
0.84000000000000041
40
0.86000000000000043
40
0.88000000000000045
40
0.90000000000000047
40
0.92000000000000048
40
0.9400000000000005
40
0.96000000000000052
40
0.98000000000000054
40
1
40
1
40
1
40
1
40
1
40
1
41
1
41
1
41
1
41
1
41
1
41
1
41
1
41
1
41
1
41
1
41
1
41
1
41
1
41
1
41
1
41
1
41
1
41
1
41
1
41
1
41
1
41
1
41
1
41
1
41
1
41
1
41
1
41
1
41
1
41
1
41
1
41
1
41
1
41
1
41
1
41
1
41
1
41
1
41
1
41
1
41
1
41
1
41
1
41
1
41
1
41
1
41
1
41
1
41
1
41
1
41
1
41
1
41
1
41
1
41
1
10
0
20
0
30
0
10
0.039206281934521039
20
0.041633494225286574
30
0
10
0.11770367509985019
20
0.11881772233643692
30
0
10
0.23570425155535538
20
0.21634588683145731
30
0
10
0.39354766878861197
20
0.30986240760580286
30
0
10
0.59168318161739053
20
0.36720136818907501
30
0
10
0.79059390317457912
20
0.36914383207266344
30
0
10
0.99016480434304177
20
0.32422829409198428
30
0
10
1.1902023737895502
20
0.24680354147404565
30
0
10
1.3904117439477772
20
0.15875478940996052
30
0
10
1.5904500618427315
20
0.084624612811207811
30
0
10
1.7899829871560122
20
0.046477377145355693
30
0
10
1.988740670978588
20
0.058765662739565211
30
0
10
2.186572639303292
20
0.12338065118243381
30
0
10
2.3835074049062972
20
0.2240459344973407
30
0
10
2.5797159292101428
20
0.33361238261394988
30
0
10
2.7754699611453311
20
0.42193299878001844
30
0
10
2.9711024762511
20
0.4637577255349018
30
0
10
3.1669676374497464
20
0.4460677093796136
30
0
10
3.3634005290489495
20
0.37715232130325932
30
0
10
3.5606838047545644
20
0.28017196994083204
30
0
10
3.7590167150492477
20
0.18440687209591378
30
0
10
3.958480705140774
20
0.11703259209344118
30
0
10
4.1590115037965125
20
0.095374173107128007
30
0
10
4.3603540829606082
20
0.11711979139161632
30
0
10
4.5621296718496298
20
0.16512708906812126
30
0
10
4.7639283133054384
20
0.21569283792896229
30
0
10
4.9653955723464254
20
0.24585247860537607
30
0
10
5.1663149660951557
20
0.24054833526878355
30
0
10
5.3667103447623887
20
0.20126619465344261
30
0
10
5.5667836348050903
20
0.14178690323097987
30
0
10
5.7668215980937862
20
0.081480325628784683
30
0
10
5.9671112045930075
20
0.039293420762294848
30
0
10
6.167856999708885
20
0.027860256629788305
30
0
10
6.3690829228545827
20
0.04647244317078443
30
0
10
6.5706748399638482
20
0.084445786111504925
30
0
10
6.7724483072759476
20
0.12634980815693259
30
0
10
6.974208644737204
20
0.1566790928251158
30
0
10
7.1758110625636888
20
0.16450699680990613
30
0
10
7.3772290506189906
20
0.14881279655667587
30
0
10
7.5785254275709066
20
0.11600866611233504
30
0
10
7.7798102141014276
20
0.076415010866499544
30
0
10
7.9812027455579049
20
0.041072416804578828
30
0
10
8.1827934241876843
20
0.018531102734816177
30
0
10
8.3846019139580292
20
0.011339395576088696
30
0
10
8.5865929434057477
20
0.017353782129238562
30
0
10
8.7886975700411725
20
0.031505328438740418
30
0
10
8.9908324960222643
20
0.047402864020332426
30
0
10
9.1929198464477118
20
0.058975191597306506
30
0
10
9.3949075634729979
20
0.062162929914491655
30
0
10
9.5967648458840777
20
0.054565850141840115
30
0
10
9.7581341477289438
20
0.038912011709896784
30
0
10
9.8790933963025243
20
0.021615427243826313
30
0
10
9.9597028125263147
20
0.0076164575812136094
30
0
10
10
20
0
30
0
0
SPLINE
5
104
100
AcDbEntity
8
0
100
AcDbSpline
70
4
71
5
72
61
73
55
74
0
42
0.000000001
43
0.0000000001
44
0.0000000001
40
0
40
0
40
0
40
0
40
0
40
0
40
0.02
40
0.040000000000000001
40
0.059999999999999998
40
0.080000000000000002
40
0.10000000000000001
40
0.12000000000000001
40
0.14000000000000001
40
0.16
40
0.17999999999999999
40
0.19999999999999998
40
0.21999999999999997
40
0.23999999999999996
40
0.25999999999999995
40
0.27999999999999997
40
0.29999999999999999
40
0.32000000000000001
40
0.34000000000000002
40
0.36000000000000004
40
0.38000000000000006
40
0.40000000000000008
40
0.4200000000000001
40
0.44000000000000011
40
0.46000000000000013
40
0.48000000000000015
40
0.50000000000000011
40
0.52000000000000013
40
0.54000000000000015
40
0.56000000000000016
40
0.58000000000000018
40
0.6000000000000002
40
0.62000000000000022
40
0.64000000000000024
40
0.66000000000000025
40
0.68000000000000027
40
0.70000000000000029
40
0.72000000000000031
40
0.74000000000000032
40
0.76000000000000034
40
0.78000000000000036
40
0.80000000000000038
40
0.8200000000000004
40
0.84000000000000041
40
0.86000000000000043
40
0.88000000000000045
40
0.90000000000000047
40
0.92000000000000048
40
0.9400000000000005
40
0.96000000000000052
40
0.98000000000000054
40
1
40
1
40
1
40
1
40
1
40
1
41
1
41
1
41
1
41
1
41
1
41
1
41
1
41
1
41
1
41
1
41
1
41
1
41
1
41
1
41
1
41
1
41
1
41
1
41
1
41
1
41
1
41
1
41
1
41
1
41
1
41
1
41
1
41
1
41
1
41
1
41
1
41
1
41
1
41
1
41
1
41
1
41
1
41
1
41
1
41
1
41
1
41
1
41
1
41
1
41
1
41
1
41
1
41
1
41
1
41
1
41
1
41
1
41
1
41
1
41
1
10
0
20
3
30
0
10
0.039871641421059124
20
2.9750560481607917
30
0
10
0.11969610314799009
20
2.9293212891548754
30
0
10
0.23967633353578388
20
2.8731786499819965
30
0
10
0.40013735715919418
20
2.8232564685217727
30
0
10
0.60150030518449038
20
2.8012533851082697
30
0
10
0.80356958417231739
20
2.815999362734094
30
0
10
1.0061822763779631
20
2.8600813414620534
30
0
10
1.2090636174242713
20
2.9209764989753078
30
0
10
1.4118007515778117
20
2.9798793702772883
30
0
10
1.6139241059179199
20
3.0165285505456341
30
0
10
1.814986452233903
20
3.0139267910925849
30
0
10
2.0146415000706259
20
2.9629939384168114
30
0
10
2.2127260557406432
20
2.8675287509353535
30
0
10
2.4093322310038938
20
2.7483265150507137
30
0
10
2.6047303200033554
20
2.6347291482225947
30
0
10
2.7993011391824041
20
2.5569762206208098
30
0
10
2.9934648286202714
20
2.5381912218351395
30
0
10
3.1876121306373086
20
2.586669484273866
30
0
10
3.3820324679222775
20
2.6875647950041843
30
0
10
3.5769282097861232
20
2.8115473482481566
30
0
10
3.7724312272973775
20
2.9238188746164768
30
0
10
3.9686186810272268
20
2.9932478689662561
30
0
10
4.1655283219359145
20
3.0008341454630001
30
0
10
4.3631755136229717
20
2.950124306788382
30
0
10
4.5615538347910265
20
2.8613728898931305
30
0
10
4.7606329045238729
20
2.7629974356145404
30
0
10
4.9603567265708106
20
2.6837578417025076
30
0
10
5.1606425661359161
20
2.6452024589526291
30
0
10
5.3613773242723486
20
2.6525206840953723
30
0
10
5.5624318956876904
20
2.6975919166378812
30
0
10
5.7636793567448175
20
2.7648150784029597
30
0
10
5.9650124676017118
20
2.8360890822434608
30
0
10
6.1663600389722495
20
2.8958431733653356
30
0
10
6.3677076767198475
20
2.9368190462464328
30
0
10
6.5690834004709142
20
2.9587679966147951
30
0
10
6.7705365928710517
20
2.9657430315665816
30
0
10
6.9721188806627765
20
2.9638474653040738
30
0
10
7.1738652490283279
20
2.9589051894046547
30
0
10
7.3757723159505151
20
2.9538871674086051
30
0
10
7.5778068139222468
20
2.9494365993203631
30
0
10
7.7799185353895446
20
2.9448667225950853
30
0
10
7.9820518006277217
20
2.9389993219080739
30
0
10
8.1841571618698428
20
2.9310395385396508
30
0
10
8.3862039741708134
20
2.9215125465015976
30
0
10
8.5881772053728938
20
2.9119404972809599
30
0
10
8.7900728088004332
20
2.9044028469203682
30
0
10
8.9918936294592005
20
2.9011382309256621
30
0
10
9.193645157757631
20
2.9041353765463729
30
0
10
9.3953312304972467
20
2.9147122969877062
30
0
10
9.5969542197198869
20
2.9336416624384931
30
0
10
9.7582031727169891
20
2.9557662890106191
30
0
10
9.8791123055201187
20
2.9763373077986071
30
0
10
9.9597061435917027
20
2.9918179915952932
30
0
10
10
20
3
30
0
0
ENDSEC
0
SECTION
2
OBJECTS
0
DICTIONARY
5
C
100
AcDbDictionary
3
ACAD_GROUP
350
D
3
ACAD_MLINESTYLE
350
17
0
DICTIONARY
5
D
100
AcDbDictionary
0
DICTIONARY
5
1A
330
C
100
AcDbDictionary
0
DICTIONARY
5
17
100
AcDbDictionary
0
ENDSEC
0
EOF
