0
SECTION
2
HEADER
9
$INSUNITS
70
4
9
$ACADVER
1
AC1014
9
$HANDSEED
5
FFFF
0
ENDSEC
0
SECTION
2
TABLES
0
TABLE
2
VPORT
5
8
100
AcDbSymbolTable
0
ENDTAB
0
TABLE
2
LTYPE
5
5
100
AcDbSymbolTable
0
LTYPE
5
14
100
AcDbSymbolTableRecord
100
AcDbLinetypeTableRecord
2
BYBLOCK
70
0
0
LTYPE
5
15
100
AcDbSymbolTableRecord
100
AcDbLinetypeTableRecord
2
BYLAYER
70
0
0
ENDTAB
0
TABLE
2
LAYER
5
2
100
AcDbSymbolTable
70
2
0
LAYER
5
50
100
AcDbSymbolTableRecord
100
AcDbLayerTableRecord
2
0
70
0
6
CONTINUOUS
0
ENDTAB
0
TABLE
2
STYLE
5
3
100
AcDbSymbolTable
70
1
0
STYLE
5
11
100
AcDbSymbolTableRecord
100
AcDbTextStyleTableRecord
2
STANDARD
70
0
0
ENDTAB
0
TABLE
2
VIEW
5
6
100
AcDbSymbolTable
70
0
0
ENDTAB
0
TABLE
2
UCS
5
7
100
AcDbSymbolTable
70
0
0
ENDTAB
0
TABLE
2
APPID
5
9
100
AcDbSymbolTable
70
2
0
APPID
5
12
100
AcDbSymbolTableRecord
100
AcDbRegAppTableRecord
2
ACAD
70
0
0
ENDTAB
0
TABLE
2
DIMSTYLE
5
A
100
AcDbSymbolTable
70
1
0
ENDTAB
0
TABLE
2
BLOCK_RECORD
5
1
100
AcDbSymbolTable
70
1
0
BLOCK_RECORD
5
1F
100
AcDbSymbolTableRecord
100
AcDbBlockTableRecord
2
*MODEL_SPACE
0
BLOCK_RECORD
5
1B
100
AcDbSymbolTableRecord
100
AcDbBlockTableRecord
2
*PAPER_SPACE
0
ENDTAB
0
ENDSEC
0
SECTION
2
BLOCKS
0
BLOCK
5
20
100
AcDbEntity
100
AcDbBlockBegin
2
*MODEL_SPACE
0
ENDBLK
5
21
100
AcDbEntity
100
AcDbBlockEnd
0
BLOCK
5
1C
100
AcDbEntity
100
AcDbBlockBegin
2
*PAPER_SPACE
0
ENDBLK
5
1D
100
AcDbEntity
100
AcDbBlockEnd
0
ENDSEC
0
SECTION
2
ENTITIES
0
SPLINE
5
100
100
AcDbEntity
8
0
100
AcDbSpline
70
4
71
5
72
16
73
10
74
0
42
0.000000001
43
0.0000000001
44
0.0000000001
40
0
40
0
40
0
40
0
40
0
40
0
40
0.20000000000000001
40
0.40000000000000002
40
0.60000000000000009
40
0.80000000000000004
40
1
40
1
40
1
40
1
40
1
40
1
41
1
41
1
41
1
41
1
41
1
41
1
41
1
41
1
41
1
41
1
10
0
20
0
30
0
10
0
20
0.12000000000003158
30
0
10
0
20
0.36000000000007704
30
0
10
0
20
0.72000000000009301
30
0
10
0
20
1.2000000000000313
30
0
10
0
20
1.7999999999999146
30
0
10
0
20
2.2799999999998684
30
0
10
0
20
2.6399999999999042
30
0
10
0
20
2.8799999999999617
30
0
10
0
20
3
30
0
0
SPLINE
5
101
100
AcDbEntity
8
0
100
AcDbSpline
70
4
71
5
72
16
73
10
74
0
42
0.000000001
43
0.0000000001
44
0.0000000001
40
0
40
0
40
0
40
0
40
0
40
0
40
0.20000000000000001
40
0.40000000000000002
40
0.60000000000000009
40
0.80000000000000004
40
1
40
1
40
1
40
1
40
1
40
1
41
1
41
1
41
1
41
1
41
1
41
1
41
1
41
1
41
1
41
1
10
10
20
0
30
0
10
9.9999999999997495
20
0.12000000000003158
30
0
10
9.9999999999993197
20
0.36000000000007704
30
0
10
9.9999999999989129
20
0.72000000000009301
30
0
10
9.9999999999987672
20
1.2000000000000313
30
0
10
9.9999999999990248
20
1.7999999999999146
30
0
10
9.9999999999993889
20
2.2799999999998684
30
0
10
9.9999999999996998
20
2.6399999999999042
30
0
10
9.9999999999999005
20
2.8799999999999617
30
0
10
10
20
3
30
0
0
SPLINE
5
102
100
AcDbEntity
8
0
100
AcDbSpline
70
4
71
5
72
16
73
10
74
0
42
0.000000001
43
0.0000000001
44
0.0000000001
40
0
40
0
40
0
40
0
40
0
40
0
40
0.20000000000000001
40
0.40000000000000002
40
0.60000000000000009
40
0.80000000000000004
40
1
40
1
40
1
40
1
40
1
40
1
41
1
41
1
41
1
41
1
41
1
41
1
41
1
41
1
41
1
41
1
10
0
20
1.5
30
0
10
0.40000000000047375
20
1.499999999999694
30
0
10
1.2000000000012774
20
1.4999999999991638
30
0
10
2.4000000000020547
20
1.4999999999986278
30
0
10
4.0000000000023546
20
1.4999999999983737
30
0
10
6.0000000000019584
20
1.4999999999985913
30
0
10
7.6000000000012928
20
1.4999999999990359
30
0
10
8.800000000000697
20
1.4999999999994786
30
0
10
9.6000000000002395
20
1.4999999999998188
30
0
10
10
20
1.5
30
0
0
SPLINE
5
103
100
AcDbEntity
8
0
100
AcDbSpline
70
4
71
5
72
61
73
55
74
0
42
0.000000001
43
0.0000000001
44
0.0000000001
40
0
40
0
40
0
40
0
40
0
40
0
40
0.02
40
0.040000000000000001
40
0.059999999999999998
40
0.080000000000000002
40
0.10000000000000001
40
0.12000000000000001
40
0.14000000000000001
40
0.16
40
0.17999999999999999
40
0.19999999999999998
40
0.21999999999999997
40
0.23999999999999996
40
0.25999999999999995
40
0.27999999999999997
40
0.29999999999999999
40
0.32000000000000001
40
0.34000000000000002
40
0.36000000000000004
40
0.38000000000000006
40
0.40000000000000008
40
0.4200000000000001
40
0.44000000000000011
40
0.46000000000000013
40
0.48000000000000015
40
0.50000000000000011
40
0.52000000000000013
40
0.54000000000000015
40
0.56000000000000016
40
0.58000000000000018
40
0.6000000000000002
40
0.62000000000000022
40
0.64000000000000024
40
0.66000000000000025
40
0.68000000000000027
40
0.70000000000000029
40
0.72000000000000031
40
0.74000000000000032
40
0.76000000000000034
40
0.78000000000000036
40
0.80000000000000038
40
0.8200000000000004
40
0.84000000000000041
40
0.86000000000000043
40
0.88000000000000045
40
0.90000000000000047
40
0.92000000000000048
40
0.9400000000000005
40
0.96000000000000052
40
0.98000000000000054
40
1
40
1
40
1
40
1
40
1
40
1
41
1
41
1
41
1
41
1
41
1
41
1
41
1
41
1
41
1
41
1
41
1
41
1
41
1
41
1
41
1
41
1
41
1
41
1
41
1
41
1
41
1
41
1
41
1
41
1
41
1
41
1
41
1
41
1
41
1
41
1
41
1
41
1
41
1
41
1
41
1
41
1
41
1
41
1
41
1
41
1
41
1
41
1
41
1
41
1
41
1
41
1
41
1
41
1
41
1
41
1
41
1
41
1
41
1
41
1
41
1
10
0
20
0
30
0
10
0.040745374714411885
20
-0.010570751454271686
30
0
10
0.12213962736363321
20
-0.029465238672628541
30
0
10
0.24394151502576716
20
-0.051065897500180528
30
0
10
0.40576468048356418
20
-0.066376063560247209
30
0
10
0.60709613943183371
20
-0.063484189336685037
30
0
10
0.80753835181265088
20
-0.040020842631034857
30
0
10
1.0072105229434072
20
0.0010352709421692667
30
0
10
1.206314776304803
20
0.054637510590037283
30
0
10
1.4051554952225085
20
0.11319120793765443
30
0
10
1.6040760067314777
20
0.16818670158052196
30
0
10
1.8033977220049096
20
0.21177009455938167
30
0
10
2.0033586613236714
20
0.23832919314356654
30
0
10
2.204051315018233
20
0.24609847053948228
30
0
10
2.4053624503553683
20
0.23870973611897123
30
0
10
2.6070548617568456
20
0.22285968092784661
30
0
10
2.8088471604604996
20
0.20602783151054838
30
0
10
3.0104930343633249
20
0.19421398325412273
30
0
10
3.2118632401146501
20
0.18958604558287961
30
0
10
3.4130197161150981
20
0.18837962761424903
30
0
10
3.6141278775892731
20
0.18392744561915919
30
0
10
3.8153752527091274
20
0.16949592307278608
30
0
10
4.0168898381513225
20
0.1411147427199638
30
0
10
4.2186538688195521
20
0.10059447886209191
30
0
10
4.4204323371357512
20
0.057966320231398208
30
0
10
4.6218818445233056
20
0.026931886427172022
30
0
10
4.8226482226759861
20
0.020733827580891175
30
0
10
5.0224654061622687
20
0.048007376174713984
30
0
10
5.2212607518524932
20
0.10830606476713939
30
0
10
5.4192383913611684
20
0.18868207144101012
30
0
10
5.6167634575743577
20
0.26973431072267423
30
0
10
5.8142636516561375
20
0.33084365893062395
30
0
10
6.0121258770988213
20
0.35562768782516846
30
0
10
6.2105915860690111
20
0.33750534954317968
30
0
10
6.4096618681657391
20
0.28468429553186025
30
0
10
6.6091881577984672
20
0.2143507437814412
30
0
10
6.8089532211002233
20
0.14742399636821338
30
0
10
7.0087546996159595
20
0.10316064440770432
30
0
10
7.2084895384256376
20
0.093709307226101921
30
0
10
7.4082326072043436
20
0.11898884767390036
30
0
10
7.6081567011299729
20
0.17056164350902769
30
0
10
7.8084583825920273
20
0.23516035752860379
30
0
10
8.0092825552622919
20
0.29829993117578829
30
0
10
8.2106455926814341
20
0.34791361028690715
30
0
10
8.4123640967818893
20
0.3777937045741806
30
0
10
8.6141225915435609
20
0.38606338532506357
30
0
10
8.8155357623746831
20
0.37385217865984044
30
0
10
9.0162116404668033
20
0.34391984116028962
30
0
10
9.2158163457932218
20
0.29927230817512673
30
0
10
9.4141325068543971
20
0.24188649684214358
30
0
10
9.6110314966225623
20
0.17297809351840759
30
0
10
9.7673675666809281
20
0.10912748623395195
30
0
10
9.8839456908123644
20
0.056432154137368823
30
0
10
9.9613651176096436
20
0.019166602267364344
30
0
10
10
20
0
30
0
0
SPLINE
5
104
100
AcDbEntity
8
0
100
AcDbSpline
70
4
71
5
72
61
73
55
74
0
42
0.000000001
43
0.0000000001
44
0.0000000001
40
0
40
0
40
0
40
0
40
0
40
0
40
0.02
40
0.040000000000000001
40
0.059999999999999998
40
0.080000000000000002
40
0.10000000000000001
40
0.12000000000000001
40
0.14000000000000001
40
0.16
40
0.17999999999999999
40
0.19999999999999998
40
0.21999999999999997
40
0.23999999999999996
40
0.25999999999999995
40
0.27999999999999997
40
0.29999999999999999
40
0.32000000000000001
40
0.34000000000000002
40
0.36000000000000004
40
0.38000000000000006
40
0.40000000000000008
40
0.4200000000000001
40
0.44000000000000011
40
0.46000000000000013
40
0.48000000000000015
40
0.50000000000000011
40
0.52000000000000013
40
0.54000000000000015
40
0.56000000000000016
40
0.58000000000000018
40
0.6000000000000002
40
0.62000000000000022
40
0.64000000000000024
40
0.66000000000000025
40
0.68000000000000027
40
0.70000000000000029
40
0.72000000000000031
40
0.74000000000000032
40
0.76000000000000034
40
0.78000000000000036
40
0.80000000000000038
40
0.8200000000000004
40
0.84000000000000041
40
0.86000000000000043
40
0.88000000000000045
40
0.90000000000000047
40
0.92000000000000048
40
0.9400000000000005
40
0.96000000000000052
40
0.98000000000000054
40
1
40
1
40
1
40
1
40
1
40
1
41
1
41
1
41
1
41
1
41
1
41
1
41
1
41
1
41
1
41
1
41
1
41
1
41
1
41
1
41
1
41
1
41
1
41
1
41
1
41
1
41
1
41
1
41
1
41
1
41
1
41
1
41
1
41
1
41
1
41
1
41
1
41
1
41
1
41
1
41
1
41
1
41
1
41
1
41
1
41
1
41
1
41
1
41
1
41
1
41
1
41
1
41
1
41
1
41
1
41
1
41
1
41
1
41
1
41
1
41
1
10
0
20
3
30
0
10
0.040182208845528401
20
2.9835315614117084
30
0
10
0.1205260538235385
20
2.9527239333138988
30
0
10
0.24098010299785577
20
2.9129002425760127
30
0
10
0.40146198619174767
20
2.8725857780927
30
0
10
0.6018663163225515
20
2.8432110432297315
30
0
10
0.80209697876512887
20
2.8339057598514867
30
0
10
1.0022033007069762
20
2.8427082442109248
30
0
10
1.2022682468054648
20
2.8662850902866395
30
0
10
1.402416718379891
20
2.899581720507415
30
0
10
1.602782982194807
20
2.9366783630846589
30
0
10
1.8034783793436229
20
2.9716346312709723
30
0
10
2.0045591547198236
20
2.999333031297458
30
0
10
2.2059934835401744
20
3.0163348878552303
30
0
10
2.4076303201520965
20
3.0217063078057835
30
0
10
2.6092586036890286
20
3.0162932777989768
30
0
10
2.8106649792710581
20
3.0020273060764291
30
0
10
3.0116910865802766
20
2.9812328378685566
30
0
10
3.2122933095109953
20
2.9559139630027174
30
0
10
3.412595638490167
20
2.927111490824049
30
0
10
3.6128153759244936
20
2.8955294645372831
30
0
10
3.8131946250689635
20
2.8621089306764294
30
0
10
4.0139309374632761
20
2.8286022202734968
30
0
10
4.2151054225965732
20
2.7981944593486885
30
0
10
4.4166196842510361
20
2.7759797019411998
30
0
10
4.618268417832061
20
2.767318440266719
30
0
10
4.8198045760659642
20
2.7762880247289607
30
0
10
5.0210057185107404
20
2.8041574186690243
30
0
10
5.221743279801486
20
2.8477002200876473
30
0
10
5.4220409685722863
20
2.8979804855080542
30
0
10
5.6220251527872858
20
2.9436097060597479
30
0
10
5.8218842606257502
20
2.973675838448953
30
0
10
6.0218254609767117
20
2.9806960067606307
30
0
10
6.2220313861162877
20
2.9638009495771374
30
0
10
6.4226203178045163
20
2.9311605637724676
30
0
10
6.6236441331059703
20
2.8955265706038142
30
0
10
6.825082258073647
20
2.8703138087638824
30
0
10
7.0268379090249731
20
2.8656280676626125
30
0
10
7.228730906055036
20
2.8839661465888833
30
0
10
7.4304982265309896
20
2.9170441057804934
30
0
10
7.6318464061090552
20
2.950805869866437
30
0
10
7.8324995424307282
20
2.9696498556700361
30
0
10
8.0322470265177159
20
2.9607886234812986
30
0
10
8.2309961827258196
20
2.9189316024852561
30
0
10
8.4288093587706676
20
2.8497331664625065
30
0
10
8.6258510096110275
20
2.7659303561858692
30
0
10
8.8223455760399911
20
2.6843604124292781
30
0
10
9.01853210253946
20
2.6227022409126222
30
0
10
9.2146187054214348
20
2.5962219631102412
30
0
10
9.4107417664311992
20
2.6148533151449578
30
0
10
9.6069833525465924
20
2.6845063036921823
30
0
10
9.7641038406210932
20
2.7833287464110787
30
0
10
9.8820217776152912
20
2.8820878205155536
30
0
10
9.9606681842454847
20
2.9588718231342384
30
0
10
10
20
3
30
0
0
ENDSEC
0
SECTION
2
OBJECTS
0
DICTIONARY
5
C
100
AcDbDictionary
3
ACAD_GROUP
350
D
3
ACAD_MLINESTYLE
350
17
0
DICTIONARY
5
D
100
AcDbDictionary
0
DICTIONARY
5
1A
330
C
100
AcDbDictionary
0
DICTIONARY
5
17
100
AcDbDictionary
0
ENDSEC
0
EOF
