0
SECTION
2
HEADER
9
$INSUNITS
70
4
9
$ACADVER
1
AC1014
9
$HANDSEED
5
FFFF
0
ENDSEC
0
SECTION
2
TABLES
0
TABLE
2
VPORT
5
8
100
AcDbSymbolTable
0
ENDTAB
0
TABLE
2
LTYPE
5
5
100
AcDbSymbolTable
0
LTYPE
5
14
100
AcDbSymbolTableRecord
100
AcDbLinetypeTableRecord
2
BYBLOCK
70
0
0
LTYPE
5
15
100
AcDbSymbolTableRecord
100
AcDbLinetypeTableRecord
2
BYLAYER
70
0
0
ENDTAB
0
TABLE
2
LAYER
5
2
100
AcDbSymbolTable
70
2
0
LAYER
5
50
100
AcDbSymbolTableRecord
100
AcDbLayerTableRecord
2
0
70
0
6
CONTINUOUS
0
ENDTAB
0
TABLE
2
STYLE
5
3
100
AcDbSymbolTable
70
1
0
STYLE
5
11
100
AcDbSymbolTableRecord
100
AcDbTextStyleTableRecord
2
STANDARD
70
0
0
ENDTAB
0
TABLE
2
VIEW
5
6
100
AcDbSymbolTable
70
0
0
ENDTAB
0
TABLE
2
UCS
5
7
100
AcDbSymbolTable
70
0
0
ENDTAB
0
TABLE
2
APPID
5
9
100
AcDbSymbolTable
70
2
0
APPID
5
12
100
AcDbSymbolTableRecord
100
AcDbRegAppTableRecord
2
ACAD
70
0
0
ENDTAB
0
TABLE
2
DIMSTYLE
5
A
100
AcDbSymbolTable
70
1
0
ENDTAB
0
TABLE
2
BLOCK_RECORD
5
1
100
AcDbSymbolTable
70
1
0
BLOCK_RECORD
5
1F
100
AcDbSymbolTableRecord
100
AcDbBlockTableRecord
2
*MODEL_SPACE
0
BLOCK_RECORD
5
1B
100
AcDbSymbolTableRecord
100
AcDbBlockTableRecord
2
*PAPER_SPACE
0
ENDTAB
0
ENDSEC
0
SECTION
2
BLOCKS
0
BLOCK
5
20
100
AcDbEntity
100
AcDbBlockBegin
2
*MODEL_SPACE
0
ENDBLK
5
21
100
AcDbEntity
100
AcDbBlockEnd
0
BLOCK
5
1C
100
AcDbEntity
100
AcDbBlockBegin
2
*PAPER_SPACE
0
ENDBLK
5
1D
100
AcDbEntity
100
AcDbBlockEnd
0
ENDSEC
0
SECTION
2
ENTITIES
0
SPLINE
5
100
100
AcDbEntity
8
0
100
AcDbSpline
70
4
71
5
72
16
73
10
74
0
42
0.000000001
43
0.0000000001
44
0.0000000001
40
0
40
0
40
0
40
0
40
0
40
0
40
0.20000000000000001
40
0.40000000000000002
40
0.60000000000000009
40
0.80000000000000004
40
1
40
1
40
1
40
1
40
1
40
1
41
1
41
1
41
1
41
1
41
1
41
1
41
1
41
1
41
1
41
1
10
0
20
0
30
0
10
0
20
0.12000000000003158
30
0
10
0
20
0.36000000000007704
30
0
10
0
20
0.72000000000009301
30
0
10
0
20
1.2000000000000313
30
0
10
0
20
1.7999999999999146
30
0
10
0
20
2.2799999999998684
30
0
10
0
20
2.6399999999999042
30
0
10
0
20
2.8799999999999617
30
0
10
0
20
3
30
0
0
SPLINE
5
101
100
AcDbEntity
8
0
100
AcDbSpline
70
4
71
5
72
16
73
10
74
0
42
0.000000001
43
0.0000000001
44
0.0000000001
40
0
40
0
40
0
40
0
40
0
40
0
40
0.20000000000000001
40
0.40000000000000002
40
0.60000000000000009
40
0.80000000000000004
40
1
40
1
40
1
40
1
40
1
40
1
41
1
41
1
41
1
41
1
41
1
41
1
41
1
41
1
41
1
41
1
10
10
20
0
30
0
10
9.9999999999997495
20
0.12000000000003158
30
0
10
9.9999999999993197
20
0.36000000000007704
30
0
10
9.9999999999989129
20
0.72000000000009301
30
0
10
9.9999999999987672
20
1.2000000000000313
30
0
10
9.9999999999990248
20
1.7999999999999146
30
0
10
9.9999999999993889
20
2.2799999999998684
30
0
10
9.9999999999996998
20
2.6399999999999042
30
0
10
9.9999999999999005
20
2.8799999999999617
30
0
10
10
20
3
30
0
0
SPLINE
5
102
100
AcDbEntity
8
0
100
AcDbSpline
70
4
71
5
72
16
73
10
74
0
42
0.000000001
43
0.0000000001
44
0.0000000001
40
0
40
0
40
0
40
0
40
0
40
0
40
0.20000000000000001
40
0.40000000000000002
40
0.60000000000000009
40
0.80000000000000004
40
1
40
1
40
1
40
1
40
1
40
1
41
1
41
1
41
1
41
1
41
1
41
1
41
1
41
1
41
1
41
1
10
0
20
1.5
30
0
10
0.40000000000047375
20
1.499999999999694
30
0
10
1.2000000000012774
20
1.4999999999991638
30
0
10
2.4000000000020547
20
1.4999999999986278
30
0
10
4.0000000000023546
20
1.4999999999983737
30
0
10
6.0000000000019584
20
1.4999999999985913
30
0
10
7.6000000000012928
20
1.4999999999990359
30
0
10
8.800000000000697
20
1.4999999999994786
30
0
10
9.6000000000002395
20
1.4999999999998188
30
0
10
10
20
1.5
30
0
0
SPLINE
5
103
100
AcDbEntity
8
0
100
AcDbSpline
70
4
71
5
72
61
73
55
74
0
42
0.000000001
43
0.0000000001
44
0.0000000001
40
0
40
0
40
0
40
0
40
0
40
0
40
0.02
40
0.040000000000000001
40
0.059999999999999998
40
0.080000000000000002
40
0.10000000000000001
40
0.12000000000000001
40
0.14000000000000001
40
0.16
40
0.17999999999999999
40
0.19999999999999998
40
0.21999999999999997
40
0.23999999999999996
40
0.25999999999999995
40
0.27999999999999997
40
0.29999999999999999
40
0.32000000000000001
40
0.34000000000000002
40
0.36000000000000004
40
0.38000000000000006
40
0.40000000000000008
40
0.4200000000000001
40
0.44000000000000011
40
0.46000000000000013
40
0.48000000000000015
40
0.50000000000000011
40
0.52000000000000013
40
0.54000000000000015
40
0.56000000000000016
40
0.58000000000000018
40
0.6000000000000002
40
0.62000000000000022
40
0.64000000000000024
40
0.66000000000000025
40
0.68000000000000027
40
0.70000000000000029
40
0.72000000000000031
40
0.74000000000000032
40
0.76000000000000034
40
0.78000000000000036
40
0.80000000000000038
40
0.8200000000000004
40
0.84000000000000041
40
0.86000000000000043
40
0.88000000000000045
40
0.90000000000000047
40
0.92000000000000048
40
0.9400000000000005
40
0.96000000000000052
40
0.98000000000000054
40
1
40
1
40
1
40
1
40
1
40
1
41
1
41
1
41
1
41
1
41
1
41
1
41
1
41
1
41
1
41
1
41
1
41
1
41
1
41
1
41
1
41
1
41
1
41
1
41
1
41
1
41
1
41
1
41
1
41
1
41
1
41
1
41
1
41
1
41
1
41
1
41
1
41
1
41
1
41
1
41
1
41
1
41
1
41
1
41
1
41
1
41
1
41
1
41
1
41
1
41
1
41
1
41
1
41
1
41
1
41
1
41
1
41
1
41
1
41
1
41
1
10
0
20
0
30
0
10
0.039810456560433874
20
0.035998792863529736
30
0
10
0.11938065991855437
20
0.10340989958280464
30
0
10
0.23858383734917527
20
0.19076716559761658
30
0
10
0.39721693915136497
20
0.27970643137398765
30
0
10
0.59502146784048449
20
0.34558649022411403
30
0
10
0.79240270575371508
20
0.36815052577432239
30
0
10
0.98948987607430039
20
0.35150679871618828
30
0
10
1.1864989544585398
20
0.30260788274129724
30
0
10
1.3837585222467883
20
0.2320873577283159
30
0
10
1.5816381145371969
20
0.15258538628992638
30
0
10
1.7804726618309832
20
0.076963544926552344
30
0
10
1.9804863043698708
20
0.016534626956670469
30
0
10
2.1817207724668366
20
-0.020653687039933425
30
0
10
2.3839491048274328
20
-0.03173510725160484
30
0
10
2.5867772005948297
20
-0.018331630743465645
30
0
10
2.7897628677848765
20
0.014389936442354638
30
0
10
2.9925294446909239
20
0.058555836654326329
30
0
10
3.1948793270100913
20
0.10447058782471738
30
0
10
3.3969146701125164
20
0.14144378036946445
30
0
10
3.5989082162494261
20
0.15985225211937376
30
0
10
3.8011649911155065
20
0.15325486826076051
30
0
10
4.0038883252771846
20
0.12047615139988796
30
0
10
4.2070420766306285
20
0.067761417698667545
30
0
10
4.4102188651896146
20
0.010797836985211969
30
0
10
4.6128160025480831
20
-0.030728772373092107
30
0
10
4.8142072711644923
20
-0.038495267705972114
30
0
10
5.0139131776658621
20
-0.00082433916314136521
30
0
10
5.2117788387270423
20
0.081732732349004883
30
0
10
5.4081303768832258
20
0.19162664341685534
30
0
10
5.6035913933118078
20
0.30235704381524053
30
0
10
5.7989196875435951
20
0.38575354480180979
30
0
10
5.9948360341038924
20
0.419583239750832
30
0
10
6.1918582173624106
20
0.39492201095506319
30
0
10
6.3901273447065883
20
0.32395520515046905
30
0
10
6.5895060638959038
20
0.23196700663130598
30
0
10
6.7896818966577701
20
0.14904414033178462
30
0
10
6.9902688139975844
20
0.10181809968537874
30
0
10
7.1909076800078218
20
0.10538451836827276
30
0
10
7.3913714006356033
20
0.15458785381800227
30
0
10
7.5915477207638418
20
0.23055316632546508
30
0
10
7.7914165066017373
20
0.30787294099579088
30
0
10
7.991029277467339
20
0.36158932489677309
30
0
10
8.1904880914505096
20
0.37412512985721502
30
0
10
8.3899246533142033
20
0.34261337380767731
30
0
10
8.5894864598390175
20
0.27516403793181365
30
0
10
8.7893234208122824
20
0.18668248003834018
30
0
10
8.9895741872882624
20
0.094843901015924451
30
0
10
9.1903528709402575
20
0.016083122012012181
30
0
10
9.3917347304060215
20
-0.03861099751550634
30
0
10
9.5937636436283356
20
-0.062743455273327725
30
0
10
9.7559211933385299
20
-0.055035495527665068
30
0
10
9.877842703829673
20
-0.033601352110208982
30
0
10
9.9592584455323632
20
-0.012359223779195032
30
0
10
10
20
0
30
0
0
SPLINE
5
104
100
AcDbEntity
8
0
100
AcDbSpline
70
4
71
5
72
61
73
55
74
0
42
0.000000001
43
0.0000000001
44
0.0000000001
40
0
40
0
40
0
40
0
40
0
40
0
40
0.02
40
0.040000000000000001
40
0.059999999999999998
40
0.080000000000000002
40
0.10000000000000001
40
0.12000000000000001
40
0.14000000000000001
40
0.16
40
0.17999999999999999
40
0.19999999999999998
40
0.21999999999999997
40
0.23999999999999996
40
0.25999999999999995
40
0.27999999999999997
40
0.29999999999999999
40
0.32000000000000001
40
0.34000000000000002
40
0.36000000000000004
40
0.38000000000000006
40
0.40000000000000008
40
0.4200000000000001
40
0.44000000000000011
40
0.46000000000000013
40
0.48000000000000015
40
0.50000000000000011
40
0.52000000000000013
40
0.54000000000000015
40
0.56000000000000016
40
0.58000000000000018
40
0.6000000000000002
40
0.62000000000000022
40
0.64000000000000024
40
0.66000000000000025
40
0.68000000000000027
40
0.70000000000000029
40
0.72000000000000031
40
0.74000000000000032
40
0.76000000000000034
40
0.78000000000000036
40
0.80000000000000038
40
0.8200000000000004
40
0.84000000000000041
40
0.86000000000000043
40
0.88000000000000045
40
0.90000000000000047
40
0.92000000000000048
40
0.9400000000000005
40
0.96000000000000052
40
0.98000000000000054
40
1
40
1
40
1
40
1
40
1
40
1
41
1
41
1
41
1
41
1
41
1
41
1
41
1
41
1
41
1
41
1
41
1
41
1
41
1
41
1
41
1
41
1
41
1
41
1
41
1
41
1
41
1
41
1
41
1
41
1
41
1
41
1
41
1
41
1
41
1
41
1
41
1
41
1
41
1
41
1
41
1
41
1
41
1
41
1
41
1
41
1
41
1
41
1
41
1
41
1
41
1
41
1
41
1
41
1
41
1
41
1
41
1
41
1
41
1
41
1
41
1
10
0
20
3
30
0
10
0.040060971846487672
20
2.9951848419634737
30
0
10
0.12019432591597615
20
2.9858510706908667
30
0
10
0.24042858820141072
20
2.9727400479433479
30
0
10
0.40080944443543881
20
2.9570391135657066
30
0
10
0.60139771272906417
20
2.9403875307699741
30
0
10
0.80209177943501631
20
2.9267205313611728
30
0
10
1.0028785087278984
20
2.9160492572468439
30
0
10
1.2037356412703362
20
2.9083844906102914
30
0
10
1.4046295355904423
20
2.9037345446805727
30
0
10
1.6055233025943556
20
2.9020647584218544
30
0
10
1.806384855148687
20
2.9032571370273819
30
0
10
2.0071948873400416
20
2.907070055601066
30
0
10
2.2079551638460115
20
2.9130966345108718
30
0
10
2.4086960317276516
20
2.9207257488040628
30
0
10
2.6094603500152576
20
2.9291964897419072
30
0
10
2.8102880105578274
20
2.9376488192843202
30
0
10
3.0112005670324744
20
2.9451764612284825
30
0
10
3.2121850228536912
20
2.9508760315847216
30
0
10
3.4131800143431645
20
2.9539050160828606
30
0
10
3.6141067000931453
20
2.9536771768792747
30
0
10
3.8148979767482598
20
2.9500578329053564
30
0
10
4.015527386890847
20
2.9435488998496693
30
0
10
4.2160404522036856
20
2.9355064877074777
30
0
10
4.4165789035183192
20
2.9282719412848941
30
0
10
4.6173120307330535
20
2.92420717329547
30
0
10
4.8183728592040262
20
2.9247794561731215
30
0
10
5.0197947704271959
20
2.929666473674295
30
0
10
5.2214422900179125
20
2.935753629660951
30
0
10
5.4229594765122355
20
2.9364420698397438
30
0
10
5.6238964066971588
20
2.9240533845714509
30
0
10
5.8238230812625114
20
2.8920256398781579
30
0
10
6.0224445283864858
20
2.8371112416932993
30
0
10
6.2197240419670337
20
2.7617668048068547
30
0
10
6.4159794205981697
20
2.6759395306061413
30
0
10
6.6117341995443457
20
2.5934265182731568
30
0
10
6.8075908489860426
20
2.5287165500214908
30
0
10
7.0040964928898743
20
2.4936682617329504
30
0
10
7.2016103686820419
20
2.4942140176269683
30
0
10
7.4001740143493855
20
2.5271467906821887
30
0
10
7.5996089869726884
20
2.5832326317283796
30
0
10
7.7996094335449904
20
2.6501816118146175
30
0
10
7.9998361798473239
20
2.7156613937296608
30
0
10
8.2000099523172434
20
2.7702885265269321
30
0
10
8.4000051446746671
20
2.8106381705542152
30
0
10
8.5998115332323124
20
2.8377022476096165
30
0
10
8.7994961907031808
20
2.8553551071574415
30
0
10
8.9991655400857322
20
2.8688245839450803
30
0
10
9.1989275447236452
20
2.8831681943404623
30
0
10
9.3988537371939334
20
2.9017423042328576
30
0
10
9.5989865847211426
20
2.9265451621950396
30
0
10
9.7592748857879155
20
2.9521602990066818
30
0
10
9.8795964892445536
20
2.974762384370973
30
0
10
9.9598576957250788
20
2.9913364587991751
30
0
10
10
20
3
30
0
0
ENDSEC
0
SECTION
2
OBJECTS
0
DICTIONARY
5
C
100
AcDbDictionary
3
ACAD_GROUP
350
D
3
ACAD_MLINESTYLE
350
17
0
DICTIONARY
5
D
100
AcDbDictionary
0
DICTIONARY
5
1A
330
C
100
AcDbDictionary
0
DICTIONARY
5
17
100
AcDbDictionary
0
ENDSEC
0
EOF
