0
SECTION
2
HEADER
9
$INSUNITS
70
4
9
$ACADVER
1
AC1014
9
$HANDSEED
5
FFFF
0
ENDSEC
0
SECTION
2
TABLES
0
TABLE
2
VPORT
5
8
100
AcDbSymbolTable
0
ENDTAB
0
TABLE
2
LTYPE
5
5
100
AcDbSymbolTable
0
LTYPE
5
14
100
AcDbSymbolTableRecord
100
AcDbLinetypeTableRecord
2
BYBLOCK
70
0
0
LTYPE
5
15
100
AcDbSymbolTableRecord
100
AcDbLinetypeTableRecord
2
BYLAYER
70
0
0
ENDTAB
0
TABLE
2
LAYER
5
2
100
AcDbSymbolTable
70
2
0
LAYER
5
50
100
AcDbSymbolTableRecord
100
AcDbLayerTableRecord
2
0
70
0
6
CONTINUOUS
0
ENDTAB
0
TABLE
2
STYLE
5
3
100
AcDbSymbolTable
70
1
0
STYLE
5
11
100
AcDbSymbolTableRecord
100
AcDbTextStyleTableRecord
2
STANDARD
70
0
0
ENDTAB
0
TABLE
2
VIEW
5
6
100
AcDbSymbolTable
70
0
0
ENDTAB
0
TABLE
2
UCS
5
7
100
AcDbSymbolTable
70
0
0
ENDTAB
0
TABLE
2
APPID
5
9
100
AcDbSymbolTable
70
2
0
APPID
5
12
100
AcDbSymbolTableRecord
100
AcDbRegAppTableRecord
2
ACAD
70
0
0
ENDTAB
0
TABLE
2
DIMSTYLE
5
A
100
AcDbSymbolTable
70
1
0
ENDTAB
0
TABLE
2
BLOCK_RECORD
5
1
100
AcDbSymbolTable
70
1
0
BLOCK_RECORD
5
1F
100
AcDbSymbolTableRecord
100
AcDbBlockTableRecord
2
*MODEL_SPACE
0
BLOCK_RECORD
5
1B
100
AcDbSymbolTableRecord
100
AcDbBlockTableRecord
2
*PAPER_SPACE
0
ENDTAB
0
ENDSEC
0
SECTION
2
BLOCKS
0
BLOCK
5
20
100
AcDbEntity
100
AcDbBlockBegin
2
*MODEL_SPACE
0
ENDBLK
5
21
100
AcDbEntity
100
AcDbBlockEnd
0
BLOCK
5
1C
100
AcDbEntity
100
AcDbBlockBegin
2
*PAPER_SPACE
0
ENDBLK
5
1D
100
AcDbEntity
100
AcDbBlockEnd
0
ENDSEC
0
SECTION
2
ENTITIES
0
SPLINE
5
100
100
AcDbEntity
8
0
100
AcDbSpline
70
4
71
5
72
16
73
10
74
0
42
0.000000001
43
0.0000000001
44
0.0000000001
40
0
40
0
40
0
40
0
40
0
40
0
40
0.20000000000000001
40
0.40000000000000002
40
0.60000000000000009
40
0.80000000000000004
40
1
40
1
40
1
40
1
40
1
40
1
41
1
41
1
41
1
41
1
41
1
41
1
41
1
41
1
41
1
41
1
10
0
20
0
30
0
10
0
20
0.12000000000003158
30
0
10
0
20
0.36000000000007704
30
0
10
0
20
0.72000000000009301
30
0
10
0
20
1.2000000000000313
30
0
10
0
20
1.7999999999999146
30
0
10
0
20
2.2799999999998684
30
0
10
0
20
2.6399999999999042
30
0
10
0
20
2.8799999999999617
30
0
10
0
20
3
30
0
0
SPLINE
5
101
100
AcDbEntity
8
0
100
AcDbSpline
70
4
71
5
72
16
73
10
74
0
42
0.000000001
43
0.0000000001
44
0.0000000001
40
0
40
0
40
0
40
0
40
0
40
0
40
0.20000000000000001
40
0.40000000000000002
40
0.60000000000000009
40
0.80000000000000004
40
1
40
1
40
1
40
1
40
1
40
1
41
1
41
1
41
1
41
1
41
1
41
1
41
1
41
1
41
1
41
1
10
10
20
0
30
0
10
9.9999999999997495
20
0.12000000000003158
30
0
10
9.9999999999993197
20
0.36000000000007704
30
0
10
9.9999999999989129
20
0.72000000000009301
30
0
10
9.9999999999987672
20
1.2000000000000313
30
0
10
9.9999999999990248
20
1.7999999999999146
30
0
10
9.9999999999993889
20
2.2799999999998684
30
0
10
9.9999999999996998
20
2.6399999999999042
30
0
10
9.9999999999999005
20
2.8799999999999617
30
0
10
10
20
3
30
0
0
SPLINE
5
102
100
AcDbEntity
8
0
100
AcDbSpline
70
4
71
5
72
16
73
10
74
0
42
0.000000001
43
0.0000000001
44
0.0000000001
40
0
40
0
40
0
40
0
40
0
40
0
40
0.20000000000000001
40
0.40000000000000002
40
0.60000000000000009
40
0.80000000000000004
40
1
40
1
40
1
40
1
40
1
40
1
41
1
41
1
41
1
41
1
41
1
41
1
41
1
41
1
41
1
41
1
10
0
20
1.5
30
0
10
0.40000000000047375
20
1.499999999999694
30
0
10
1.2000000000012774
20
1.4999999999991638
30
0
10
2.4000000000020547
20
1.4999999999986278
30
0
10
4.0000000000023546
20
1.4999999999983737
30
0
10
6.0000000000019584
20
1.4999999999985913
30
0
10
7.6000000000012928
20
1.4999999999990359
30
0
10
8.800000000000697
20
1.4999999999994786
30
0
10
9.6000000000002395
20
1.4999999999998188
30
0
10
10
20
1.5
30
0
0
SPLINE
5
103
100
AcDbEntity
8
0
100
AcDbSpline
70
4
71
5
72
61
73
55
74
0
42
0.000000001
43
0.0000000001
44
0.0000000001
40
0
40
0
40
0
40
0
40
0
40
0
40
0.02
40
0.040000000000000001
40
0.059999999999999998
40
0.080000000000000002
40
0.10000000000000001
40
0.12000000000000001
40
0.14000000000000001
40
0.16
40
0.17999999999999999
40
0.19999999999999998
40
0.21999999999999997
40
0.23999999999999996
40
0.25999999999999995
40
0.27999999999999997
40
0.29999999999999999
40
0.32000000000000001
40
0.34000000000000002
40
0.36000000000000004
40
0.38000000000000006
40
0.40000000000000008
40
0.4200000000000001
40
0.44000000000000011
40
0.46000000000000013
40
0.48000000000000015
40
0.50000000000000011
40
0.52000000000000013
40
0.54000000000000015
40
0.56000000000000016
40
0.58000000000000018
40
0.6000000000000002
40
0.62000000000000022
40
0.64000000000000024
40
0.66000000000000025
40
0.68000000000000027
40
0.70000000000000029
40
0.72000000000000031
40
0.74000000000000032
40
0.76000000000000034
40
0.78000000000000036
40
0.80000000000000038
40
0.8200000000000004
40
0.84000000000000041
40
0.86000000000000043
40
0.88000000000000045
40
0.90000000000000047
40
0.92000000000000048
40
0.9400000000000005
40
0.96000000000000052
40
0.98000000000000054
40
1
40
1
40
1
40
1
40
1
40
1
41
1
41
1
41
1
41
1
41
1
41
1
41
1
41
1
41
1
41
1
41
1
41
1
41
1
41
1
41
1
41
1
41
1
41
1
41
1
41
1
41
1
41
1
41
1
41
1
41
1
41
1
41
1
41
1
41
1
41
1
41
1
41
1
41
1
41
1
41
1
41
1
41
1
41
1
41
1
41
1
41
1
41
1
41
1
41
1
41
1
41
1
41
1
41
1
41
1
41
1
41
1
41
1
41
1
41
1
41
1
10
0
20
0
30
0
10
0.039636107199588391
20
0.00042154765488137719
30
0
10
0.11897906972711181
20
0.0026851972147831247
30
0
10
0.23820575776301853
20
0.010342330439909972
30
0
10
0.39759944147722431
20
0.029080748096306848
30
0
10
0.59752851831165532
20
0.066140078412873851
30
0
10
0.79807885143807822
20
0.11504373303150445
30
0
10
0.99911673996287365
20
0.17216096297019934
30
0
10
1.20041725034237
20
0.23139699831073587
30
0
10
1.4016404110287282
20
0.28355241452204316
30
0
10
1.6024106091043222
20
0.31859012000737569
30
0
10
1.8023963552148241
20
0.32791322466958317
30
0
10
2.0013898683594689
20
0.30663811184105505
30
0
10
2.1993872971618074
20
0.25588641719890043
30
0
10
2.3966684474890947
20
0.18506237021106961
30
0
10
2.5936826137518141
20
0.10835987381475659
30
0
10
2.7909364211280323
20
0.041329518436984444
30
0
10
2.9888798660182063
20
-0.0026101590783353095
30
0
10
3.1877960444444584
20
-0.015549260783363399
30
0
10
3.3876808072238833
20
0.0012271188620938407
30
0
10
3.5883292549406431
20
0.039906590018873353
30
0
10
3.7894323279297848
20
0.08912929704771444
30
0
10
3.9906701988644748
20
0.13686277384928816
30
0
10
4.191804961015194
20
0.17326886458417151
30
0
10
4.3927790151876511
20
0.19370730916513951
30
0
10
4.5936567038585725
20
0.19785897236914035
30
0
10
4.7945592263393122
20
0.18868067909927971
30
0
10
4.9956019188990073
20
0.17143182972536727
30
0
10
5.1968312520143281
20
0.15267791804524478
30
0
10
5.3981599369560209
20
0.13930965052937996
30
0
10
5.5994189339179474
20
0.13749277360280571
30
0
10
5.8004117567872306
20
0.15161646354953404
30
0
10
6.0009677682984508
20
0.18323941977788527
30
0
10
6.2009960451904451
20
0.23002592426864446
30
0
10
6.4005388842295838
20
0.28468583670444209
30
0
10
6.5997276481846967
20
0.33723748667645859
30
0
10
6.7987391816697826
20
0.37724964455891014
30
0
10
6.9977520884521249
20
0.39609415572609946
30
0
10
7.1969033283662851
20
0.3891842564291656
30
0
10
7.3962440125246856
20
0.35826522659503213
30
0
10
7.5957644898747754
20
0.3094361045805103
30
0
10
7.7954199560782476
20
0.2511414102508478
30
0
10
7.9951558585010822
20
0.19217393655669726
30
0
10
8.1949330912220635
20
0.13969477745128966
30
0
10
8.3947539675253573
20
0.097191228358314161
30
0
10
8.5946509265784208
20
0.065332304048113798
30
0
10
8.7946744750142418
20
0.042882669735354192
30
0
10
8.9948814196214357
20
0.027592131286043653
30
0
10
9.1953231061580016
20
0.017084521843488947
30
0
10
9.3960333569005901
20
0.0097650294132855184
30
0
10
9.597031908346489
20
0.0046788074731860564
30
0
10
9.7580689353019814
20
0.002011961026546388
30
0
10
9.8789819186743664
20
0.00072776357399252471
30
0
10
9.9596506302415388
20
0.00018959328919825947
30
0
10
10
20
0
30
0
0
SPLINE
5
104
100
AcDbEntity
8
0
100
AcDbSpline
70
4
71
5
72
61
73
55
74
0
42
0.000000001
43
0.0000000001
44
0.0000000001
40
0
40
0
40
0
40
0
40
0
40
0
40
0.02
40
0.040000000000000001
40
0.059999999999999998
40
0.080000000000000002
40
0.10000000000000001
40
0.12000000000000001
40
0.14000000000000001
40
0.16
40
0.17999999999999999
40
0.19999999999999998
40
0.21999999999999997
40
0.23999999999999996
40
0.25999999999999995
40
0.27999999999999997
40
0.29999999999999999
40
0.32000000000000001
40
0.34000000000000002
40
0.36000000000000004
40
0.38000000000000006
40
0.40000000000000008
40
0.4200000000000001
40
0.44000000000000011
40
0.46000000000000013
40
0.48000000000000015
40
0.50000000000000011
40
0.52000000000000013
40
0.54000000000000015
40
0.56000000000000016
40
0.58000000000000018
40
0.6000000000000002
40
0.62000000000000022
40
0.64000000000000024
40
0.66000000000000025
40
0.68000000000000027
40
0.70000000000000029
40
0.72000000000000031
40
0.74000000000000032
40
0.76000000000000034
40
0.78000000000000036
40
0.80000000000000038
40
0.8200000000000004
40
0.84000000000000041
40
0.86000000000000043
40
0.88000000000000045
40
0.90000000000000047
40
0.92000000000000048
40
0.9400000000000005
40
0.96000000000000052
40
0.98000000000000054
40
1
40
1
40
1
40
1
40
1
40
1
41
1
41
1
41
1
41
1
41
1
41
1
41
1
41
1
41
1
41
1
41
1
41
1
41
1
41
1
41
1
41
1
41
1
41
1
41
1
41
1
41
1
41
1
41
1
41
1
41
1
41
1
41
1
41
1
41
1
41
1
41
1
41
1
41
1
41
1
41
1
41
1
41
1
41
1
41
1
41
1
41
1
41
1
41
1
41
1
41
1
41
1
41
1
41
1
41
1
41
1
41
1
41
1
41
1
41
1
41
1
10
0
20
3
30
0
10
0.039971883859404096
20
2.9827423871134613
30
0
10
0.11997420563148012
20
2.9511110519427577
30
0
10
0.24015335131501611
20
2.912315761641751
30
0
10
0.4007437597358795
20
2.8779030559992593
30
0
10
0.60204782079200503
20
2.8629625946600372
30
0
10
0.80385586485867899
20
2.8736305575360399
30
0
10
1.0060421429287076
20
2.9048940480884013
30
0
10
1.2083946968383446
20
2.9482849638494435
30
0
10
1.4105951190181887
20
2.9910789577554144
30
0
10
1.6122825890023456
20
3.0193809092247861
30
0
10
1.8131160524976084
20
3.0211354739251668
30
0
10
2.0128362636156045
20
2.9891110868692508
30
0
10
2.211330051263908
20
2.924040134749688
30
0
10
2.4086884336853966
20
2.8373343905284667
30
0
10
2.6051573262107253
20
2.7464874963661856
30
0
10
2.8010942490958959
20
2.6708834304812665
30
0
10
2.9969231702808834
20
2.6274466627538828
30
0
10
3.1930902799667193
20
2.6263868816527278
30
0
10
3.3900197248934139
20
2.6668025042490138
30
0
10
3.5880566195641412
20
2.7396144164067939
30
0
10
3.7874103840596223
20
2.8305720194950164
30
0
10
3.9880961609894299
20
2.9232327277086285
30
0
10
4.1898798615114732
20
3.0019050580129725
30
0
10
4.3922119216767559
20
3.0547111339629551
30
0
10
4.5943806997486085
20
3.074079418926996
30
0
10
4.7956773410095588
20
3.057094807005496
30
0
10
4.9955573785250085
20
3.005925199383888
30
0
10
5.1938017283051252
20
2.9282040324486305
30
0
10
5.3906850803098596
20
2.8375190653176845
30
0
10
5.5868052600306362
20
2.7502388097521679
30
0
10
5.7829070650465306
20
2.6823038019333985
30
0
10
5.9797054840582327
20
2.645953888491563
30
0
10
6.1777165860782386
20
2.6466533312262581
30
0
10
6.3770650881965407
20
2.6794368484508468
30
0
10
6.5775787068336236
20
2.7322124154830369
30
0
10
6.7789109302347299
20
2.7897384803890128
30
0
10
6.980654766481285
20
2.8374158559490494
30
0
10
7.1824560753014302
20
2.8650018453914794
30
0
10
7.3841376405962853
20
2.8707796207637459
30
0
10
7.5856616772532535
20
2.8593911698680468
30
0
10
7.7870766255285986
20
2.8390662537631615
30
0
10
7.9884694399669058
20
2.8190561376553438
30
0
10
8.1899166943693888
20
2.8070415393186234
30
0
10
8.3914335395614472
20
2.806399601731874
30
0
10
8.5929881847776883
20
2.817156600614219
30
0
10
8.7945201092626437
20
2.8371450571121164
30
0
10
8.9959568660852227
20
2.8630822029818868
30
0
10
9.1972313149554754
20
2.8916702237006175
30
0
10
9.3982990018959853
20
2.9207057953134226
30
0
10
9.5991337497632969
20
2.9488750542263071
30
0
10
9.7596050137280326
20
2.9701933195083203
30
0
10
9.879846154029142
20
2.9854004347921164
30
0
10
9.9599570317400286
20
2.9951913392375857
30
0
10
10
20
3
30
0
0
ENDSEC
0
SECTION
2
OBJECTS
0
DICTIONARY
5
C
100
AcDbDictionary
3
ACAD_GROUP
350
D
3
ACAD_MLINESTYLE
350
17
0
DICTIONARY
5
D
100
AcDbDictionary
0
DICTIONARY
5
1A
330
C
100
AcDbDictionary
0
DICTIONARY
5
17
100
AcDbDictionary
0
ENDSEC
0
EOF
