0
SECTION
2
HEADER
9
$INSUNITS
70
4
9
$ACADVER
1
AC1014
9
$HANDSEED
5
FFFF
0
ENDSEC
0
SECTION
2
TABLES
0
TABLE
2
VPORT
5
8
100
AcDbSymbolTable
0
ENDTAB
0
TABLE
2
LTYPE
5
5
100
AcDbSymbolTable
0
LTYPE
5
14
100
AcDbSymbolTableRecord
100
AcDbLinetypeTableRecord
2
BYBLOCK
70
0
0
LTYPE
5
15
100
AcDbSymbolTableRecord
100
AcDbLinetypeTableRecord
2
BYLAYER
70
0
0
ENDTAB
0
TABLE
2
LAYER
5
2
100
AcDbSymbolTable
70
2
0
LAYER
5
50
100
AcDbSymbolTableRecord
100
AcDbLayerTableRecord
2
0
70
0
6
CONTINUOUS
0
ENDTAB
0
TABLE
2
STYLE
5
3
100
AcDbSymbolTable
70
1
0
STYLE
5
11
100
AcDbSymbolTableRecord
100
AcDbTextStyleTableRecord
2
STANDARD
70
0
0
ENDTAB
0
TABLE
2
VIEW
5
6
100
AcDbSymbolTable
70
0
0
ENDTAB
0
TABLE
2
UCS
5
7
100
AcDbSymbolTable
70
0
0
ENDTAB
0
TABLE
2
APPID
5
9
100
AcDbSymbolTable
70
2
0
APPID
5
12
100
AcDbSymbolTableRecord
100
AcDbRegAppTableRecord
2
ACAD
70
0
0
ENDTAB
0
TABLE
2
DIMSTYLE
5
A
100
AcDbSymbolTable
70
1
0
ENDTAB
0
TABLE
2
BLOCK_RECORD
5
1
100
AcDbSymbolTable
70
1
0
BLOCK_RECORD
5
1F
100
AcDbSymbolTableRecord
100
AcDbBlockTableRecord
2
*MODEL_SPACE
0
BLOCK_RECORD
5
1B
100
AcDbSymbolTableRecord
100
AcDbBlockTableRecord
2
*PAPER_SPACE
0
ENDTAB
0
ENDSEC
0
SECTION
2
BLOCKS
0
BLOCK
5
20
100
AcDbEntity
100
AcDbBlockBegin
2
*MODEL_SPACE
0
ENDBLK
5
21
100
AcDbEntity
100
AcDbBlockEnd
0
BLOCK
5
1C
100
AcDbEntity
100
AcDbBlockBegin
2
*PAPER_SPACE
0
ENDBLK
5
1D
100
AcDbEntity
100
AcDbBlockEnd
0
ENDSEC
0
SECTION
2
ENTITIES
0
SPLINE
5
100
100
AcDbEntity
8
0
100
AcDbSpline
70
4
71
5
72
16
73
10
74
0
42
0.000000001
43
0.0000000001
44
0.0000000001
40
0
40
0
40
0
40
0
40
0
40
0
40
0.20000000000000001
40
0.40000000000000002
40
0.60000000000000009
40
0.80000000000000004
40
1
40
1
40
1
40
1
40
1
40
1
41
1
41
1
41
1
41
1
41
1
41
1
41
1
41
1
41
1
41
1
10
0
20
-0.055000000000000049
30
0
10
0
20
0.069400000000207365
30
0
10
0
20
0.31820000000056603
30
0
10
0
20
0.69140000000093593
30
0
10
0
20
1.1890000000011365
30
0
10
0
20
1.8110000000010393
30
0
10
0
20
2.3086000000007481
30
0
10
0
20
2.6818000000004227
30
0
10
0
20
2.9306000000001484
30
0
10
0
20
3.0549999999999997
30
0
0
SPLINE
5
101
100
AcDbEntity
8
0
100
AcDbSpline
70
4
71
5
72
16
73
10
74
0
42
0.000000001
43
0.0000000001
44
0.0000000001
40
0
40
0
40
0
40
0
40
0
40
0
40
0.20000000000000001
40
0.40000000000000002
40
0.60000000000000009
40
0.80000000000000004
40
1
40
1
40
1
40
1
40
1
40
1
41
1
41
1
41
1
41
1
41
1
41
1
41
1
41
1
41
1
41
1
10
10
20
-0.055000000000000049
30
0
10
9.9999999999997495
20
0.069400000000207365
30
0
10
9.9999999999993197
20
0.31820000000056603
30
0
10
9.9999999999989129
20
0.69140000000093593
30
0
10
9.9999999999987672
20
1.1890000000011365
30
0
10
9.9999999999990248
20
1.8110000000010393
30
0
10
9.9999999999993889
20
2.3086000000007481
30
0
10
9.9999999999996998
20
2.6818000000004227
30
0
10
9.9999999999999005
20
2.9306000000001484
30
0
10
10
20
3.0549999999999997
30
0
0
SPLINE
5
102
100
AcDbEntity
8
0
100
AcDbSpline
70
4
71
5
72
16
73
10
74
0
42
0.000000001
43
0.0000000001
44
0.0000000001
40
0
40
0
40
0
40
0
40
0
40
0
40
0.20000000000000001
40
0.40000000000000002
40
0.60000000000000009
40
0.80000000000000004
40
1
40
1
40
1
40
1
40
1
40
1
41
1
41
1
41
1
41
1
41
1
41
1
41
1
41
1
41
1
41
1
10
0
20
1.5274999999999999
30
0
10
0.40000000000047375
20
1.5274999999999856
30
0
10
1.2000000000012774
20
1.5274999999999614
30
0
10
2.4000000000020547
20
1.527499999999943
30
0
10
4.0000000000023546
20
1.5274999999999479
30
0
10
6.0000000000019584
20
1.5274999999999812
30
0
10
7.6000000000012928
20
1.5275000000000025
30
0
10
8.800000000000697
20
1.5275000000000083
30
0
10
9.6000000000002395
20
1.5275000000000039
30
0
10
10
20
1.5274999999999999
30
0
0
SPLINE
5
103
100
AcDbEntity
8
0
100
AcDbSpline
70
4
71
5
72
61
73
55
74
0
42
0.000000001
43
0.0000000001
44
0.0000000001
40
0
40
0
40
0
40
0
40
0
40
0
40
0.02
40
0.040000000000000001
40
0.059999999999999998
40
0.080000000000000002
40
0.10000000000000001
40
0.12000000000000001
40
0.14000000000000001
40
0.16
40
0.17999999999999999
40
0.19999999999999998
40
0.21999999999999997
40
0.23999999999999996
40
0.25999999999999995
40
0.27999999999999997
40
0.29999999999999999
40
0.32000000000000001
40
0.34000000000000002
40
0.36000000000000004
40
0.38000000000000006
40
0.40000000000000008
40
0.4200000000000001
40
0.44000000000000011
40
0.46000000000000013
40
0.48000000000000015
40
0.50000000000000011
40
0.52000000000000013
40
0.54000000000000015
40
0.56000000000000016
40
0.58000000000000018
40
0.6000000000000002
40
0.62000000000000022
40
0.64000000000000024
40
0.66000000000000025
40
0.68000000000000027
40
0.70000000000000029
40
0.72000000000000031
40
0.74000000000000032
40
0.76000000000000034
40
0.78000000000000036
40
0.80000000000000038
40
0.8200000000000004
40
0.84000000000000041
40
0.86000000000000043
40
0.88000000000000045
40
0.90000000000000047
40
0.92000000000000048
40
0.9400000000000005
40
0.96000000000000052
40
0.98000000000000054
40
1
40
1
40
1
40
1
40
1
40
1
41
1
41
1
41
1
41
1
41
1
41
1
41
1
41
1
41
1
41
1
41
1
41
1
41
1
41
1
41
1
41
1
41
1
41
1
41
1
41
1
41
1
41
1
41
1
41
1
41
1
41
1
41
1
41
1
41
1
41
1
41
1
41
1
41
1
41
1
41
1
41
1
41
1
41
1
41
1
41
1
41
1
41
1
41
1
41
1
41
1
41
1
41
1
41
1
41
1
41
1
41
1
41
1
41
1
41
1
41
1
10
0
20
-0.055000000000000049
30
0
10
0.041308291452363526
20
-0.067524977878139367
30
0
10
0.12379043185361553
20
-0.088669754722097288
30
0
10
0.24711031394833682
20
-0.10867124618655065
30
0
10
0.41072964954905922
20
-0.11189447357433983
30
0
10
0.61391941738575539
20
-0.077898425567275109
30
0
10
0.81581291798066446
20
-0.0092069762802294824
30
0
10
1.0164902035110166
20
0.087437015036417542
30
0
10
1.2160890939648008
20
0.20059102489885122
30
0
10
1.4148182210966012
20
0.31321445547156468
30
0
10
1.6129340089620656
20
0.40660544387230796
30
0
10
1.8107201187249042
20
0.46403724774328714
30
0
10
2.0084661630675318
20
0.47446311448147338
30
0
10
2.2064465516633462
20
0.43631804803518637
30
0
10
2.4048998913285957
20
0.36098801518719648
30
0
10
2.6040265616418736
20
0.26723829184640846
30
0
10
2.8039855372358908
20
0.17597640697113989
30
0
10
3.0048913059569848
20
0.10493634520097216
30
0
10
3.2068107474154162
20
0.063306703669218908
30
0
10
3.4097594910090336
20
0.046597879228295135
30
0
10
3.6136847265754231
20
0.042468462651716228
30
0
10
3.8184474641435346
20
0.036382857247245742
30
0
10
4.0238061449347464
20
0.017131492672833978
30
0
10
4.2293961562171178
20
-0.017144843508982186
30
0
10
4.4347200837011975
20
-0.054398893289128523
30
0
10
4.6392261147303699
20
-0.076077492757968906
30
0
10
4.8423793863217064
20
-0.063613507805950278
30
0
10
5.0437337561129887
20
-0.0048520439064979022
30
0
10
5.2430089879665971
20
0.098522290049638084
30
0
10
5.4401495338892794
20
0.22689150801274832
30
0
10
5.6353077303576082
20
0.35175555681945969
30
0
10
5.8288401189059798
20
0.44284350808382839
30
0
10
6.0212971449009833
20
0.47577411101846323
30
0
10
6.2134211789454108
20
0.43996047185842097
30
0
10
6.4061273115510939
20
0.34508771852578773
30
0
10
6.6003372603257473
20
0.21355101354466191
30
0
10
6.796826360745877
20
0.074179847396428161
30
0
10
6.9960645496239575
20
-0.044525592397665334
30
0
10
7.1980607463380561
20
-0.12090334152071838
30
0
10
7.4022000319378982
20
-0.14687817950743787
30
0
10
7.6074793839606638
20
-0.12485373349012098
30
0
10
7.8127504421239591
20
-0.064479056074413468
30
0
10
8.0169550844147022
20
0.020483631345159861
30
0
10
8.219373351493001
20
0.11539481418083083
30
0
10
8.4198404091861931
20
0.20770592926511619
30
0
10
8.6185810034398553
20
0.28675985708578611
30
0
10
8.8160694171015219
20
0.34380605305176587
30
0
10
9.0128820552951332
20
0.37193689173274125
30
0
10
9.2095501808479803
20
0.36606977055920037
30
0
10
9.4064223312993516
20
0.32289676497709385
30
0
10
9.603707849632892
20
0.24049821699980362
30
0
10
9.7619495381976673
20
0.14248042197939101
30
0
10
9.8808785107991941
20
0.050800410606210003
30
0
10
9.9602745016637471
20
-0.018388395935697001
30
0
10
10
20
-0.055000000000000049
30
0
0
SPLINE
5
104
100
AcDbEntity
8
0
100
AcDbSpline
70
4
71
5
72
61
73
55
74
0
42
0.000000001
43
0.0000000001
44
0.0000000001
40
0
40
0
40
0
40
0
40
0
40
0
40
0.02
40
0.040000000000000001
40
0.059999999999999998
40
0.080000000000000002
40
0.10000000000000001
40
0.12000000000000001
40
0.14000000000000001
40
0.16
40
0.17999999999999999
40
0.19999999999999998
40
0.21999999999999997
40
0.23999999999999996
40
0.25999999999999995
40
0.27999999999999997
40
0.29999999999999999
40
0.32000000000000001
40
0.34000000000000002
40
0.36000000000000004
40
0.38000000000000006
40
0.40000000000000008
40
0.4200000000000001
40
0.44000000000000011
40
0.46000000000000013
40
0.48000000000000015
40
0.50000000000000011
40
0.52000000000000013
40
0.54000000000000015
40
0.56000000000000016
40
0.58000000000000018
40
0.6000000000000002
40
0.62000000000000022
40
0.64000000000000024
40
0.66000000000000025
40
0.68000000000000027
40
0.70000000000000029
40
0.72000000000000031
40
0.74000000000000032
40
0.76000000000000034
40
0.78000000000000036
40
0.80000000000000038
40
0.8200000000000004
40
0.84000000000000041
40
0.86000000000000043
40
0.88000000000000045
40
0.90000000000000047
40
0.92000000000000048
40
0.9400000000000005
40
0.96000000000000052
40
0.98000000000000054
40
1
40
1
40
1
40
1
40
1
40
1
41
1
41
1
41
1
41
1
41
1
41
1
41
1
41
1
41
1
41
1
41
1
41
1
41
1
41
1
41
1
41
1
41
1
41
1
41
1
41
1
41
1
41
1
41
1
41
1
41
1
41
1
41
1
41
1
41
1
41
1
41
1
41
1
41
1
41
1
41
1
41
1
41
1
41
1
41
1
41
1
41
1
41
1
41
1
41
1
41
1
41
1
41
1
41
1
41
1
41
1
41
1
41
1
41
1
41
1
41
1
10
0
20
3.0549999999999997
30
0
10
0.040411374228880248
20
3.0606598776917284
30
0
10
0.1212225759938699
20
3.0706618765302358
30
0
10
0.24240473827763293
20
3.0817115703487588
30
0
10
0.40391163125723983
20
3.0885330357510905
30
0
10
0.60568279614730958
20
3.0842815468138141
30
0
10
0.80735127897013326
20
3.0685323196629106
30
0
10
1.0089368991049572
20
3.0438782596275353
30
0
10
1.2104732178092694
20
3.0147033297307448
30
0
10
1.4120104476243154
20
2.9875661991334628
30
0
10
1.6136002517834176
20
2.9693880476071217
30
0
10
1.815281012912294
20
2.9656955140071641
30
0
10
2.0170633356445165
20
2.9788973095190134
30
0
10
2.2189143718419233
20
3.0064068131404618
30
0
10
2.4207454218349946
20
3.0391938132793554
30
0
10
2.6224388421097045
20
3.0654039057471385
30
0
10
2.823872471629798
20
3.073683418786723
30
0
10
3.0249443674062078
20
3.0564895191030144
30
0
10
3.2255988623783876
20
3.01370740294026
30
0
10
3.4258480552655639
20
2.9553040705266453
30
0
10
3.6257560664655655
20
2.8964423967950177
30
0
10
3.8254270871885785
20
2.8532692978438501
30
0
10
4.0249919975899946
20
2.8385917045586844
30
0
10
4.2245959227259133
20
2.8572664002349728
30
0
10
4.4243847722103489
20
2.9026479002792631
30
0
10
4.6244869383805334
20
2.9614160539994567
30
0
10
4.8249948594714516
20
3.0176227037514631
30
0
10
5.0259476273639683
20
3.0569063050515348
30
0
10
5.2273104850191219
20
3.070919363345586
30
0
10
5.4289627790683257
20
3.0608509529901333
30
0
10
5.6307460978123913
20
3.0339455153066015
30
0
10
5.8325075252925229
20
3.0007049564685446
30
0
10
6.0341421868194995
20
2.9719255132000555
30
0
10
6.2356421840360081
20
2.9556066034836825
30
0
10
6.4371252363767075
20
2.9545121671747019
30
0
10
6.6387567048815779
20
2.9674732301275131
30
0
10
6.8406830157550385
20
2.9901995768579521
30
0
10
7.0429651291597057
20
3.0162826118552104
30
0
10
7.2455012956346723
20
3.0380863056765999
30
0
10
7.4479860384652232
20
3.0477510591607015
30
0
10
7.6500134759155607
20
3.0384387203807766
30
0
10
7.8511609302963672
20
3.0055987631613061
30
0
10
8.0510751096555904
20
2.9481253886007606
30
0
10
8.2495692496222226
20
2.8698214085323128
30
0
10
8.4466785547992469
20
2.7799559067017299
30
0
10
8.6425818357450765
20
2.6910305556731382
30
0
10
8.8375460642048473
20
2.6170103946177847
30
0
10
9.0318638559775497
20
2.5714336309855272
30
0
10
9.2257902351488941
20
2.5654398685939634
30
0
10
9.419491254434428
20
2.6062244536005785
30
0
10
9.6130678107745258
20
2.6980569685198175
30
0
10
9.7678694708098419
20
2.8139901347667076
30
0
10
9.8839448114690036
20
2.925104268339584
30
0
10
9.9613168560688372
20
3.0099126876695124
30
0
10
10
20
3.0549999999999997
30
0
0
ENDSEC
0
SECTION
2
OBJECTS
0
DICTIONARY
5
C
100
AcDbDictionary
3
ACAD_GROUP
350
D
3
ACAD_MLINESTYLE
350
17
0
DICTIONARY
5
D
100
AcDbDictionary
0
DICTIONARY
5
1A
330
C
100
AcDbDictionary
0
DICTIONARY
5
17
100
AcDbDictionary
0
ENDSEC
0
EOF
