0
SECTION
2
HEADER
9
$INSUNITS
70
4
9
$ACADVER
1
AC1014
9
$HANDSEED
5
FFFF
0
ENDSEC
0
SECTION
2
TABLES
0
TABLE
2
VPORT
5
8
100
AcDbSymbolTable
0
ENDTAB
0
TABLE
2
LTYPE
5
5
100
AcDbSymbolTable
0
LTYPE
5
14
100
AcDbSymbolTableRecord
100
AcDbLinetypeTableRecord
2
BYBLOCK
70
0
0
LTYPE
5
15
100
AcDbSymbolTableRecord
100
AcDbLinetypeTableRecord
2
BYLAYER
70
0
0
ENDTAB
0
TABLE
2
LAYER
5
2
100
AcDbSymbolTable
70
2
0
LAYER
5
50
100
AcDbSymbolTableRecord
100
AcDbLayerTableRecord
2
0
70
0
6
CONTINUOUS
0
ENDTAB
0
TABLE
2
STYLE
5
3
100
AcDbSymbolTable
70
1
0
STYLE
5
11
100
AcDbSymbolTableRecord
100
AcDbTextStyleTableRecord
2
STANDARD
70
0
0
ENDTAB
0
TABLE
2
VIEW
5
6
100
AcDbSymbolTable
70
0
0
ENDTAB
0
TABLE
2
UCS
5
7
100
AcDbSymbolTable
70
0
0
ENDTAB
0
TABLE
2
APPID
5
9
100
AcDbSymbolTable
70
2
0
APPID
5
12
100
AcDbSymbolTableRecord
100
AcDbRegAppTableRecord
2
ACAD
70
0
0
ENDTAB
0
TABLE
2
DIMSTYLE
5
A
100
AcDbSymbolTable
70
1
0
ENDTAB
0
TABLE
2
BLOCK_RECORD
5
1
100
AcDbSymbolTable
70
1
0
BLOCK_RECORD
5
1F
100
AcDbSymbolTableRecord
100
AcDbBlockTableRecord
2
*MODEL_SPACE
0
BLOCK_RECORD
5
1B
100
AcDbSymbolTableRecord
100
AcDbBlockTableRecord
2
*PAPER_SPACE
0
ENDTAB
0
ENDSEC
0
SECTION
2
BLOCKS
0
BLOCK
5
20
100
AcDbEntity
100
AcDbBlockBegin
2
*MODEL_SPACE
0
ENDBLK
5
21
100
AcDbEntity
100
AcDbBlockEnd
0
BLOCK
5
1C
100
AcDbEntity
100
AcDbBlockBegin
2
*PAPER_SPACE
0
ENDBLK
5
1D
100
AcDbEntity
100
AcDbBlockEnd
0
ENDSEC
0
SECTION
2
ENTITIES
0
SPLINE
5
100
100
AcDbEntity
8
0
100
AcDbSpline
70
4
71
5
72
16
73
10
74
0
42
0.000000001
43
0.0000000001
44
0.0000000001
40
0
40
0
40
0
40
0
40
0
40
0
40
0.20000000000000001
40
0.40000000000000002
40
0.60000000000000009
40
0.80000000000000004
40
1
40
1
40
1
40
1
40
1
40
1
41
1
41
1
41
1
41
1
41
1
41
1
41
1
41
1
41
1
41
1
10
0
20
-0.055000000000000049
30
0
10
0
20
0.069400000000207365
30
0
10
0
20
0.31820000000056603
30
0
10
0
20
0.69140000000093593
30
0
10
0
20
1.1890000000011365
30
0
10
0
20
1.8110000000010393
30
0
10
0
20
2.3086000000007481
30
0
10
0
20
2.6818000000004227
30
0
10
0
20
2.9306000000001484
30
0
10
0
20
3.0549999999999997
30
0
0
SPLINE
5
101
100
AcDbEntity
8
0
100
AcDbSpline
70
4
71
5
72
16
73
10
74
0
42
0.000000001
43
0.0000000001
44
0.0000000001
40
0
40
0
40
0
40
0
40
0
40
0
40
0.20000000000000001
40
0.40000000000000002
40
0.60000000000000009
40
0.80000000000000004
40
1
40
1
40
1
40
1
40
1
40
1
41
1
41
1
41
1
41
1
41
1
41
1
41
1
41
1
41
1
41
1
10
10
20
-0.055000000000000049
30
0
10
9.9999999999997495
20
0.069400000000207365
30
0
10
9.9999999999993197
20
0.31820000000056603
30
0
10
9.9999999999989129
20
0.69140000000093593
30
0
10
9.9999999999987672
20
1.1890000000011365
30
0
10
9.9999999999990248
20
1.8110000000010393
30
0
10
9.9999999999993889
20
2.3086000000007481
30
0
10
9.9999999999996998
20
2.6818000000004227
30
0
10
9.9999999999999005
20
2.9306000000001484
30
0
10
10
20
3.0549999999999997
30
0
0
SPLINE
5
102
100
AcDbEntity
8
0
100
AcDbSpline
70
4
71
5
72
16
73
10
74
0
42
0.000000001
43
0.0000000001
44
0.0000000001
40
0
40
0
40
0
40
0
40
0
40
0
40
0.20000000000000001
40
0.40000000000000002
40
0.60000000000000009
40
0.80000000000000004
40
1
40
1
40
1
40
1
40
1
40
1
41
1
41
1
41
1
41
1
41
1
41
1
41
1
41
1
41
1
41
1
10
0
20
1.5274999999999999
30
0
10
0.40000000000047375
20
1.5274999999999856
30
0
10
1.2000000000012774
20
1.5274999999999614
30
0
10
2.4000000000020547
20
1.527499999999943
30
0
10
4.0000000000023546
20
1.5274999999999479
30
0
10
6.0000000000019584
20
1.5274999999999812
30
0
10
7.6000000000012928
20
1.5275000000000025
30
0
10
8.800000000000697
20
1.5275000000000083
30
0
10
9.6000000000002395
20
1.5275000000000039
30
0
10
10
20
1.5274999999999999
30
0
0
SPLINE
5
103
100
AcDbEntity
8
0
100
AcDbSpline
70
4
71
5
72
111
73
105
74
0
42
0.000000001
43
0.0000000001
44
0.0000000001
40
0
40
0
40
0
40
0
40
0
40
0
40
0.01
40
0.02
40
0.029999999999999999
40
0.040000000000000001
40
0.050000000000000003
40
0.060000000000000005
40
0.070000000000000007
40
0.080000000000000002
40
0.089999999999999997
40
0.099999999999999992
40
0.10999999999999999
40
0.11999999999999998
40
0.12999999999999998
40
0.13999999999999999
40
0.14999999999999999
40
0.16
40
0.17000000000000001
40
0.18000000000000002
40
0.19000000000000003
40
0.20000000000000004
40
0.21000000000000005
40
0.22000000000000006
40
0.23000000000000007
40
0.24000000000000007
40
0.25000000000000006
40
0.26000000000000006
40
0.27000000000000007
40
0.28000000000000008
40
0.29000000000000009
40
0.3000000000000001
40
0.31000000000000011
40
0.32000000000000012
40
0.33000000000000013
40
0.34000000000000014
40
0.35000000000000014
40
0.36000000000000015
40
0.37000000000000016
40
0.38000000000000017
40
0.39000000000000018
40
0.40000000000000019
40
0.4100000000000002
40
0.42000000000000021
40
0.43000000000000022
40
0.44000000000000022
40
0.45000000000000023
40
0.46000000000000024
40
0.47000000000000025
40
0.48000000000000026
40
0.49000000000000027
40
0.50000000000000022
40
0.51000000000000023
40
0.52000000000000024
40
0.53000000000000025
40
0.54000000000000026
40
0.55000000000000027
40
0.56000000000000028
40
0.57000000000000028
40
0.58000000000000029
40
0.5900000000000003
40
0.60000000000000031
40
0.61000000000000032
40
0.62000000000000033
40
0.63000000000000034
40
0.64000000000000035
40
0.65000000000000036
40
0.66000000000000036
40
0.67000000000000037
40
0.68000000000000038
40
0.69000000000000039
40
0.7000000000000004
40
0.71000000000000041
40
0.72000000000000042
40
0.73000000000000043
40
0.74000000000000044
40
0.75000000000000044
40
0.76000000000000045
40
0.77000000000000046
40
0.78000000000000047
40
0.79000000000000048
40
0.80000000000000049
40
0.8100000000000005
40
0.82000000000000051
40
0.83000000000000052
40
0.84000000000000052
40
0.85000000000000053
40
0.86000000000000054
40
0.87000000000000055
40
0.88000000000000056
40
0.89000000000000057
40
0.90000000000000058
40
0.91000000000000059
40
0.9200000000000006
40
0.9300000000000006
40
0.94000000000000061
40
0.95000000000000062
40
0.96000000000000063
40
0.97000000000000064
40
0.98000000000000065
40
0.99000000000000066
40
1
40
1
40
1
40
1
40
1
40
1
41
1
41
1
41
1
41
1
41
1
41
1
41
1
41
1
41
1
41
1
41
1
41
1
41
1
41
1
41
1
41
1
41
1
41
1
41
1
41
1
41
1
41
1
41
1
41
1
41
1
41
1
41
1
41
1
41
1
41
1
41
1
41
1
41
1
41
1
41
1
41
1
41
1
41
1
41
1
41
1
41
1
41
1
41
1
41
1
41
1
41
1
41
1
41
1
41
1
41
1
41
1
41
1
41
1
41
1
41
1
41
1
41
1
41
1
41
1
41
1
41
1
41
1
41
1
41
1
41
1
41
1
41
1
41
1
41
1
41
1
41
1
41
1
41
1
41
1
41
1
41
1
41
1
41
1
41
1
41
1
41
1
41
1
41
1
41
1
41
1
41
1
41
1
41
1
41
1
41
1
41
1
41
1
41
1
41
1
41
1
41
1
41
1
41
1
41
1
41
1
41
1
41
1
41
1
41
1
41
1
10
0
20
-0.055000000000000049
30
0
10
0.020755768136595264
20
-0.051185983081930252
30
0
10
0.062167904561375519
20
-0.043526340386352599
30
0
10
0.12398790672423762
20
-0.031942072867756625
30
0
10
0.2058180996007723
20
-0.016306544904610486
30
0
10
0.30713659259699022
20
0.0036763181944904568
30
0
10
0.40756193419220754
20
0.024467286245617323
30
0
10
0.50724625305290882
20
0.046799045541487574
30
0
10
0.60644564839521886
20
0.0719072547118456
30
0
10
0.70553976120471862
20
0.10160450343204844
30
0
10
0.80493529677535147
20
0.13745381686056538
30
0
10
0.90497549524461096
20
0.17998396440342107
30
0
10
1.0058492120238924
20
0.22791123621970558
30
0
10
1.1074957021084575
20
0.27730444447035052
30
0
10
1.209523395065766
20
0.32092103768161961
30
0
10
1.3113722250762265
20
0.3504312608336263
30
0
10
1.4124658914015862
20
0.35853801806906882
30
0
10
1.5123633172996884
20
0.3410537664537861
30
0
10
1.6109211311756153
20
0.29918967661049928
30
0
10
1.7084206815972678
20
0.24119747262617788
30
0
10
1.8054090053508574
20
0.1788423151481712
30
0
10
1.902567117054927
20
0.12436430967320594
30
0
10
2.0005680659845111
20
0.087263307309616692
30
0
10
2.099939067704975
20
0.071135122311935917
30
0
10
2.2009226870340197
20
0.070542587798979137
30
0
10
2.3034939966801256
20
0.07502861177800331
30
0
10
2.407374578794542
20
0.073127923776779194
30
0
10
2.512050286650239
20
0.056248669006609513
30
0
10
2.6167808959257415
20
0.022910713212535627
30
0
10
2.7206312614662771
20
-0.018032553987898516
30
0
10
2.8226690900569764
20
-0.052464154613311852
30
0
10
2.9221534044129505
20
-0.065423138815207352
30
0
10
3.0187149086428895
20
-0.045556905185219355
30
0
10
3.1125675671370061
20
0.0099355291935911728
30
0
10
3.2046237797316812
20
0.092087749333497171
30
0
10
3.296155446278962
20
0.18521523748298957
30
0
10
3.3885227090423067
20
0.27075767235365394
30
0
10
3.4828663177072503
20
0.33171356752698106
30
0
10
3.5798388256349547
20
0.35653422724556522
30
0
10
3.6792573973390139
20
0.34400985220921332
30
0
10
3.7803323516986982
20
0.30103279614460671
30
0
10
3.882000811716106
20
0.23904887354404913
30
0
10
3.9832332617428974
20
0.17088281365518454
30
0
10
4.0833298888303915
20
0.10759634772794416
30
0
10
4.1822778578845137
20
0.054839496507591207
30
0
10
4.2805789192427079
20
0.013824057920013372
30
0
10
4.3789792190404944
20
-0.01683431853043614
30
0
10
4.4782244335554413
20
-0.039516609611787094
30
0
10
4.5788245201875508
20
-0.056040800879923872
30
0
10
4.6807618784167744
20
-0.065720466552558574
30
0
10
4.7836095261548532
20
-0.066268686684807829
30
0
10
4.8867542059445119
20
-0.055425078841179053
30
0
10
4.9895877311073082
20
-0.032381083806683322
30
0
10
5.0917022902487048
20
0.00081092474565792622
30
0
10
5.1931089891484374
20
0.037549472544598006
30
0
10
5.2941005721595937
20
0.068873200411776123
30
0
10
5.3950756842778711
20
0.086059291591924408
30
0
10
5.4963756795891969
20
0.083097916390113394
30
0
10
5.5981192925646415
20
0.059167519575640086
30
0
10
5.7000294651256311
20
0.021257248840952075
30
0
10
5.8016046388336449
20
-0.018970762352742643
30
0
10
5.9023019664394578
20
-0.048514797208231319
30
0
10
6.0017154900606071
20
-0.056284035272026633
30
0
10
6.0997578355390321
20
-0.036406418578048119
30
0
10
6.1968368378002978
20
0.0085457525525502332
30
0
10
6.2936547868491779
20
0.070212856331417287
30
0
10
6.39101435986308
20
0.13701444691518455
30
0
10
6.4896182122131698
20
0.19678062776723942
30
0
10
6.5898803312824672
20
0.23927695219852263
30
0
10
6.6917078133582031
20
0.25898455521000685
30
0
10
6.7946459469232199
20
0.25477351197942488
30
0
10
6.898060517028628
20
0.22926243816746714
30
0
10
7.0013062604912424
20
0.18828975414901622
30
0
10
7.1039020047380603
20
0.14034737980125817
30
0
10
7.2057005784996289
20
0.096013745469271633
30
0
10
7.3067887490823757
20
0.06577092646534459
30
0
10
7.4073887758807446
20
0.05780881533001006
30
0
10
7.5077609486722539
20
0.075896847050120786
30
0
10
7.6081024001934381
20
0.11707615106787919
30
0
10
7.7084570454733115
20
0.16984554512245134
30
0
10
7.8087715411616099
20
0.21869240443263524
30
0
10
7.9089423828712544
20
0.24827107093434556
30
0
10
8.0088653509156309
20
0.24760839962321002
30
0
10
8.108486199435319
20
0.21454569772438603
30
0
10
8.2078443923635955
20
0.15938120377961423
30
0
10
8.3070313598555252
20
0.099213747584134981
30
0
10
8.406154730751302
20
0.052926784418919147
30
0
10
8.5053008406378048
20
0.035996853543793117
30
0
10
8.6044967244544974
20
0.055222375913381444
30
0
10
8.703675803653832
20
0.10391369680191492
30
0
10
8.8027243516750389
20
0.16702985097215547
30
0
10
8.901524198140498
20
0.22585232401726871
30
0
10
8.9999968594788946
20
0.2628315848777551
30
0
10
9.0981470454324871
20
0.26635708103074113
30
0
10
9.1961065786803573
20
0.23557106280803927
30
0
10
9.2940938444273709
20
0.17741365993706873
30
0
10
9.3923735394389958
20
0.10369018273850257
30
0
10
9.4912158125447448
20
0.028097801214893102
30
0
10
9.5908568988091574
20
-0.036646223957770521
30
0
10
9.691455808394144
20
-0.081941235458593054
30
0
10
9.7931068543396869
20
-0.10268149522474587
30
0
10
9.8753069788841135
20
-0.09758351903918612
30
0
10
9.9374585125514905
20
-0.08118250197296184
30
0
10
9.9791156992211203
20
-0.064659059924894208
30
0
10
10
20
-0.055000000000000049
30
0
0
SPLINE
5
104
100
AcDbEntity
8
0
100
AcDbSpline
70
4
71
5
72
111
73
105
74
0
42
0.000000001
43
0.0000000001
44
0.0000000001
40
0
40
0
40
0
40
0
40
0
40
0
40
0.01
40
0.02
40
0.029999999999999999
40
0.040000000000000001
40
0.050000000000000003
40
0.060000000000000005
40
0.070000000000000007
40
0.080000000000000002
40
0.089999999999999997
40
0.099999999999999992
40
0.10999999999999999
40
0.11999999999999998
40
0.12999999999999998
40
0.13999999999999999
40
0.14999999999999999
40
0.16
40
0.17000000000000001
40
0.18000000000000002
40
0.19000000000000003
40
0.20000000000000004
40
0.21000000000000005
40
0.22000000000000006
40
0.23000000000000007
40
0.24000000000000007
40
0.25000000000000006
40
0.26000000000000006
40
0.27000000000000007
40
0.28000000000000008
40
0.29000000000000009
40
0.3000000000000001
40
0.31000000000000011
40
0.32000000000000012
40
0.33000000000000013
40
0.34000000000000014
40
0.35000000000000014
40
0.36000000000000015
40
0.37000000000000016
40
0.38000000000000017
40
0.39000000000000018
40
0.40000000000000019
40
0.4100000000000002
40
0.42000000000000021
40
0.43000000000000022
40
0.44000000000000022
40
0.45000000000000023
40
0.46000000000000024
40
0.47000000000000025
40
0.48000000000000026
40
0.49000000000000027
40
0.50000000000000022
40
0.51000000000000023
40
0.52000000000000024
40
0.53000000000000025
40
0.54000000000000026
40
0.55000000000000027
40
0.56000000000000028
40
0.57000000000000028
40
0.58000000000000029
40
0.5900000000000003
40
0.60000000000000031
40
0.61000000000000032
40
0.62000000000000033
40
0.63000000000000034
40
0.64000000000000035
40
0.65000000000000036
40
0.66000000000000036
40
0.67000000000000037
40
0.68000000000000038
40
0.69000000000000039
40
0.7000000000000004
40
0.71000000000000041
40
0.72000000000000042
40
0.73000000000000043
40
0.74000000000000044
40
0.75000000000000044
40
0.76000000000000045
40
0.77000000000000046
40
0.78000000000000047
40
0.79000000000000048
40
0.80000000000000049
40
0.8100000000000005
40
0.82000000000000051
40
0.83000000000000052
40
0.84000000000000052
40
0.85000000000000053
40
0.86000000000000054
40
0.87000000000000055
40
0.88000000000000056
40
0.89000000000000057
40
0.90000000000000058
40
0.91000000000000059
40
0.9200000000000006
40
0.9300000000000006
40
0.94000000000000061
40
0.95000000000000062
40
0.96000000000000063
40
0.97000000000000064
40
0.98000000000000065
40
0.99000000000000066
40
1
40
1
40
1
40
1
40
1
40
1
41
1
41
1
41
1
41
1
41
1
41
1
41
1
41
1
41
1
41
1
41
1
41
1
41
1
41
1
41
1
41
1
41
1
41
1
41
1
41
1
41
1
41
1
41
1
41
1
41
1
41
1
41
1
41
1
41
1
41
1
41
1
41
1
41
1
41
1
41
1
41
1
41
1
41
1
41
1
41
1
41
1
41
1
41
1
41
1
41
1
41
1
41
1
41
1
41
1
41
1
41
1
41
1
41
1
41
1
41
1
41
1
41
1
41
1
41
1
41
1
41
1
41
1
41
1
41
1
41
1
41
1
41
1
41
1
41
1
41
1
41
1
41
1
41
1
41
1
41
1
41
1
41
1
41
1
41
1
41
1
41
1
41
1
41
1
41
1
41
1
41
1
41
1
41
1
41
1
41
1
41
1
41
1
41
1
41
1
41
1
41
1
41
1
41
1
41
1
41
1
41
1
41
1
41
1
41
1
41
1
10
0
20
3.0549999999999997
30
0
10
0.02009583455701737
20
3.0483022217850975
30
0
10
0.060338703725681703
20
3.0362455907096626
30
0
10
0.12085660967463063
20
3.0221774959863259
30
0
10
0.2018543877500879
20
3.011454391225294
30
0
10
0.30359449060766647
20
3.0109209549744738
30
0
10
0.40576909201772138
20
3.0216719235820544
30
0
10
0.50826160127010178
20
3.0405461511516436
30
0
10
0.61087604023099196
20
3.0622175489165508
30
0
10
0.71332168442271726
20
3.0788215794597407
30
0
10
0.81526806109130889
20
3.082111850541712
30
0
10
0.91639602062192893
20
3.0655057792374429
30
0
10
1.0164487887908389
20
3.0260592362252714
30
0
10
1.1152865802385863
20
2.966739271486297
30
0
10
1.2129292922447557
20
2.8977825174950436
30
0
10
1.309531024578289
20
2.8329140075357619
30
0
10
1.4053629996552683
20
2.7861906161331351
30
0
10
1.5007932984733283
20
2.768609218416179
30
0
10
1.5962680648675043
20
2.7848003931330849
30
0
10
1.6922919744538576
20
2.8297191949653189
30
0
10
1.7893409111822542
20
2.8920671161529827
30
0
10
1.887776817392226
20
2.9576157345801319
30
0
10
1.9877581800645305
20
3.0126363090314268
30
0
10
2.0891602715585518
20
3.0471199585117636
30
0
10
2.1914696668663574
20
3.0585262942793259
30
0
10
2.2939528688998196
20
3.0499087809575469
30
0
10
2.3958576886584861
20
3.0273580259935722
30
0
10
2.4966049126547141
20
2.9976709282345264
30
0
10
2.5959796562908566
20
2.9659685019978248
30
0
10
2.6943352283154072
20
2.9332189211980064
30
0
10
2.7923610355656714
20
2.8979283772528692
30
0
10
2.8908375733452392
20
2.857962970792947
30
0
10
2.990391046129103
20
2.812366633912073
30
0
10
3.0912600660026692
20
2.7630774677820242
30
0
10
3.1930248764057358
20
2.7169669322752443
30
0
10
3.2948447090491735
20
2.6834903257246663
30
0
10
3.3957410505092032
20
2.6719450197322741
30
0
10
3.4948677171773186
20
2.6888306653319658
30
0
10
3.591778686033968
20
2.7352546122633195
30
0
10
3.6867182447715576
20
2.8040734663842275
30
0
10
3.7804107832517393
20
2.88271587944429
30
0
10
3.8738268277643657
20
2.956262597306067
30
0
10
3.9679488192372929
20
3.0105548469750971
30
0
10
4.0635578296182571
20
3.0350080297091759
30
0
10
4.1609586446847295
20
3.0262688024595996
30
0
10
4.2600054222011172
20
2.9877795485453769
30
0
10
4.360270723006118
20
2.9273880737996905
30
0
10
4.4611729546669423
20
2.8555321971642558
30
0
10
4.5621123284154139
20
2.7832884800960276
30
0
10
4.6626246969715766
20
2.7202280065393207
30
0
10
4.7624257820424889
20
2.6735504693796948
30
0
10
4.8613839057778714
20
2.6480739030483069
30
0
10
4.9595160997675505
20
2.6459206702985894
30
0
10
5.0569715130789685
20
2.6664164360609517
30
0
10
5.1540281105988068
20
2.7056750021472311
30
0
10
5.2510496751792068
20
2.7572929936280151
30
0
10
5.3484189009771033
20
2.8137646296265979
30
0
10
5.446474282383841
20
2.8677396434125852
30
0
10
5.5454524306524897
20
2.9132237974090986
30
0
10
5.6454109326393915
20
2.9471017054615283
30
0
10
5.7462235353136073
20
2.9694065863108987
30
0
10
5.847659788842142
20
2.9821054797572266
30
0
10
5.9494453624361707
20
2.9882393588805649
30
0
10
6.0513245443370014
20
2.9909870529061462
30
0
10
6.1531355847499558
20
2.9925974455795012
30
0
10
6.2548260301904648
20
2.9940321807706032
30
0
10
6.3564076676266854
20
2.9953515908752948
30
0
10
6.4579266014445977
20
2.9958915759382676
30
0
10
6.5594303594266599
20
2.9945346700159519
30
0
10
6.6609283725837045
20
2.9899179634608202
30
0
10
6.762390486794267
20
2.9807622150078172
30
0
10
6.8637726335084883
20
2.9662436493756887
30
0
10
6.9650355237141204
20
2.9463924445199985
30
0
10
7.0661637200274621
20
2.9223964102902955
30
0
10
7.1671908398487023
20
2.8971573060143667
30
0
10
7.2681904049498067
20
2.8746782186586644
30
0
10
7.3692491403612319
20
2.858890990200424
30
0
10
7.470444732242524
20
2.8525921016987175
30
0
10
7.5718241113224813
20
2.8564814121595106
30
0
10
7.6733754497093551
20
2.8677787235913845
30
0
10
7.7750376866124693
20
2.8811838093894377
30
0
10
7.876724845625537
20
2.8907293990305045
30
0
10
7.9783460950958087
20
2.8914139622655477
30
0
10
8.0798262716021778
20
2.8807677518766202
30
0
10
8.1811295877721673
20
2.8608596097952703
30
0
10
8.2822569369034689
20
2.8370901308264656
30
0
10
8.3832361855352531
20
2.8161764213994216
30
0
10
8.4841148802639577
20
2.8043598827472751
30
0
10
8.5849519585791114
20
2.8056414517595991
30
0
10
8.6858098915483524
20
2.8196864611254782
30
0
10
8.7867468278762022
20
2.8429021793553226
30
0
10
8.8878089732700509
20
2.8700660889922092
30
0
10
8.9890226449107153
20
2.8957867074486483
30
0
10
9.0903869722894228
20
2.9159733415287059
30
0
10
9.1918649133047214
20
2.9294653596684386
30
0
10
9.2933935825836684
20
2.9374110382035186
30
0
10
9.3948966855035394
20
2.9423900817404953
30
0
10
9.4962962610430353
20
2.9476247818927392
30
0
10
9.5975245508868152
20
2.9561643605291668
30
0
10
9.6985362595784999
20
2.9700537121122843
30
0
10
9.799304400444619
20
2.9905113661636236
30
0
10
9.8797133194591673
20
3.0126188231246247
30
0
10
9.9399023924604659
20
3.0325187398133102
30
0
10
9.9799761751295613
20
3.0472604056799946
30
0
10
10
20
3.0549999999999997
30
0
0
ENDSEC
0
SECTION
2
OBJECTS
0
DICTIONARY
5
C
100
AcDbDictionary
3
ACAD_GROUP
350
D
3
ACAD_MLINESTYLE
350
17
0
DICTIONARY
5
D
100
AcDbDictionary
0
DICTIONARY
5
1A
330
C
100
AcDbDictionary
0
DICTIONARY
5
17
100
AcDbDictionary
0
ENDSEC
0
EOF
