0
SECTION
2
HEADER
9
$INSUNITS
70
4
9
$ACADVER
1
AC1014
9
$HANDSEED
5
FFFF
0
ENDSEC
0
SECTION
2
TABLES
0
TABLE
2
VPORT
5
8
100
AcDbSymbolTable
0
ENDTAB
0
TABLE
2
LTYPE
5
5
100
AcDbSymbolTable
0
LTYPE
5
14
100
AcDbSymbolTableRecord
100
AcDbLinetypeTableRecord
2
BYBLOCK
70
0
0
LTYPE
5
15
100
AcDbSymbolTableRecord
100
AcDbLinetypeTableRecord
2
BYLAYER
70
0
0
ENDTAB
0
TABLE
2
LAYER
5
2
100
AcDbSymbolTable
70
2
0
LAYER
5
50
100
AcDbSymbolTableRecord
100
AcDbLayerTableRecord
2
0
70
0
6
CONTINUOUS
0
ENDTAB
0
TABLE
2
STYLE
5
3
100
AcDbSymbolTable
70
1
0
STYLE
5
11
100
AcDbSymbolTableRecord
100
AcDbTextStyleTableRecord
2
STANDARD
70
0
0
ENDTAB
0
TABLE
2
VIEW
5
6
100
AcDbSymbolTable
70
0
0
ENDTAB
0
TABLE
2
UCS
5
7
100
AcDbSymbolTable
70
0
0
ENDTAB
0
TABLE
2
APPID
5
9
100
AcDbSymbolTable
70
2
0
APPID
5
12
100
AcDbSymbolTableRecord
100
AcDbRegAppTableRecord
2
ACAD
70
0
0
ENDTAB
0
TABLE
2
DIMSTYLE
5
A
100
AcDbSymbolTable
70
1
0
ENDTAB
0
TABLE
2
BLOCK_RECORD
5
1
100
AcDbSymbolTable
70
1
0
BLOCK_RECORD
5
1F
100
AcDbSymbolTableRecord
100
AcDbBlockTableRecord
2
*MODEL_SPACE
0
BLOCK_RECORD
5
1B
100
AcDbSymbolTableRecord
100
AcDbBlockTableRecord
2
*PAPER_SPACE
0
ENDTAB
0
ENDSEC
0
SECTION
2
BLOCKS
0
BLOCK
5
20
100
AcDbEntity
100
AcDbBlockBegin
2
*MODEL_SPACE
0
ENDBLK
5
21
100
AcDbEntity
100
AcDbBlockEnd
0
BLOCK
5
1C
100
AcDbEntity
100
AcDbBlockBegin
2
*PAPER_SPACE
0
ENDBLK
5
1D
100
AcDbEntity
100
AcDbBlockEnd
0
ENDSEC
0
SECTION
2
ENTITIES
0
SPLINE
5
100
100
AcDbEntity
8
0
100
AcDbSpline
70
4
71
5
72
16
73
10
74
0
42
0.000000001
43
0.0000000001
44
0.0000000001
40
0
40
0
40
0
40
0
40
0
40
0
40
0.20000000000000001
40
0.40000000000000002
40
0.60000000000000009
40
0.80000000000000004
40
1
40
1
40
1
40
1
40
1
40
1
41
1
41
1
41
1
41
1
41
1
41
1
41
1
41
1
41
1
41
1
10
0
20
-0.055000000000000049
30
0
10
0
20
0.069400000000207365
30
0
10
0
20
0.31820000000056603
30
0
10
0
20
0.69140000000093593
30
0
10
0
20
1.1890000000011365
30
0
10
0
20
1.8110000000010393
30
0
10
0
20
2.3086000000007481
30
0
10
0
20
2.6818000000004227
30
0
10
0
20
2.9306000000001484
30
0
10
0
20
3.0549999999999997
30
0
0
SPLINE
5
101
100
AcDbEntity
8
0
100
AcDbSpline
70
4
71
5
72
16
73
10
74
0
42
0.000000001
43
0.0000000001
44
0.0000000001
40
0
40
0
40
0
40
0
40
0
40
0
40
0.20000000000000001
40
0.40000000000000002
40
0.60000000000000009
40
0.80000000000000004
40
1
40
1
40
1
40
1
40
1
40
1
41
1
41
1
41
1
41
1
41
1
41
1
41
1
41
1
41
1
41
1
10
10
20
-0.055000000000000049
30
0
10
9.9999999999997495
20
0.069400000000207365
30
0
10
9.9999999999993197
20
0.31820000000056603
30
0
10
9.9999999999989129
20
0.69140000000093593
30
0
10
9.9999999999987672
20
1.1890000000011365
30
0
10
9.9999999999990248
20
1.8110000000010393
30
0
10
9.9999999999993889
20
2.3086000000007481
30
0
10
9.9999999999996998
20
2.6818000000004227
30
0
10
9.9999999999999005
20
2.9306000000001484
30
0
10
10
20
3.0549999999999997
30
0
0
SPLINE
5
102
100
AcDbEntity
8
0
100
AcDbSpline
70
4
71
5
72
16
73
10
74
0
42
0.000000001
43
0.0000000001
44
0.0000000001
40
0
40
0
40
0
40
0
40
0
40
0
40
0.20000000000000001
40
0.40000000000000002
40
0.60000000000000009
40
0.80000000000000004
40
1
40
1
40
1
40
1
40
1
40
1
41
1
41
1
41
1
41
1
41
1
41
1
41
1
41
1
41
1
41
1
10
0
20
1.5274999999999999
30
0
10
0.40000000000047375
20
1.5274999999999856
30
0
10
1.2000000000012774
20
1.5274999999999614
30
0
10
2.4000000000020547
20
1.527499999999943
30
0
10
4.0000000000023546
20
1.5274999999999479
30
0
10
6.0000000000019584
20
1.5274999999999812
30
0
10
7.6000000000012928
20
1.5275000000000025
30
0
10
8.800000000000697
20
1.5275000000000083
30
0
10
9.6000000000002395
20
1.5275000000000039
30
0
10
10
20
1.5274999999999999
30
0
0
SPLINE
5
103
100
AcDbEntity
8
0
100
AcDbSpline
70
4
71
5
72
61
73
55
74
0
42
0.000000001
43
0.0000000001
44
0.0000000001
40
0
40
0
40
0
40
0
40
0
40
0
40
0.02
40
0.040000000000000001
40
0.059999999999999998
40
0.080000000000000002
40
0.10000000000000001
40
0.12000000000000001
40
0.14000000000000001
40
0.16
40
0.17999999999999999
40
0.19999999999999998
40
0.21999999999999997
40
0.23999999999999996
40
0.25999999999999995
40
0.27999999999999997
40
0.29999999999999999
40
0.32000000000000001
40
0.34000000000000002
40
0.36000000000000004
40
0.38000000000000006
40
0.40000000000000008
40
0.4200000000000001
40
0.44000000000000011
40
0.46000000000000013
40
0.48000000000000015
40
0.50000000000000011
40
0.52000000000000013
40
0.54000000000000015
40
0.56000000000000016
40
0.58000000000000018
40
0.6000000000000002
40
0.62000000000000022
40
0.64000000000000024
40
0.66000000000000025
40
0.68000000000000027
40
0.70000000000000029
40
0.72000000000000031
40
0.74000000000000032
40
0.76000000000000034
40
0.78000000000000036
40
0.80000000000000038
40
0.8200000000000004
40
0.84000000000000041
40
0.86000000000000043
40
0.88000000000000045
40
0.90000000000000047
40
0.92000000000000048
40
0.9400000000000005
40
0.96000000000000052
40
0.98000000000000054
40
1
40
1
40
1
40
1
40
1
40
1
41
1
41
1
41
1
41
1
41
1
41
1
41
1
41
1
41
1
41
1
41
1
41
1
41
1
41
1
41
1
41
1
41
1
41
1
41
1
41
1
41
1
41
1
41
1
41
1
41
1
41
1
41
1
41
1
41
1
41
1
41
1
41
1
41
1
41
1
41
1
41
1
41
1
41
1
41
1
41
1
41
1
41
1
41
1
41
1
41
1
41
1
41
1
41
1
41
1
41
1
41
1
41
1
41
1
41
1
41
1
10
0
20
-0.055000000000000049
30
0
10
0.03940251963726818
20
-0.018826509039524743
30
0
10
0.11828099764842662
20
0.048170710379516486
30
0
10
0.23681902964104828
20
0.13261730941982119
30
0
10
0.39531066676920684
20
0.21309290217616245
30
0
10
0.59413711928299706
20
0.26127150792433496
30
0
10
0.79360382331696722
20
0.26058925229014351
30
0
10
0.99356479847772827
20
0.2183382968632856
30
0
10
1.1937752199829204
20
0.1467961044185668
30
0
10
1.3938633195166308
20
0.06464061972722758
30
0
10
1.5934193633913842
20
-0.0070699732239348795
30
0
10
1.7920873026681881
20
-0.049042366448063576
30
0
10
1.9896569900420571
20
-0.04791251159493462
30
0
10
2.1861531645277963
20
-0.00027059779407444674
30
0
10
2.3819354542399935
20
0.0828375863997345
30
0
10
2.5775694353941727
20
0.18132766689639646
30
0
10
2.7736881233742721
20
0.27190622099343342
30
0
10
2.970853462502526
20
0.33390369886981963
30
0
10
3.1694263449769471
20
0.35472705466600851
30
0
10
3.3694097607061742
20
0.33649959034839183
30
0
10
3.5705352493485569
20
0.29195200820018663
30
0
10
3.7723863290748549
20
0.23869080183534674
30
0
10
3.9745107865129201
20
0.19392507988337668
30
0
10
4.1765320839004696
20
0.16929745523526502
30
0
10
4.3782754370795312
20
0.16488204184347927
30
0
10
4.5797232263468928
20
0.17252602189025235
30
0
10
4.7809478098848928
20
0.18041288088146271
30
0
10
4.9820515926659157
20
0.17725559982884365
30
0
10
5.1831066100718974
20
0.15646820690590421
30
0
10
5.3840877792860571
20
0.12082628264429152
30
0
10
5.5849117959966694
20
0.079479924154375492
30
0
10
5.7854853106907775
20
0.044296125735713461
30
0
10
5.9857505994513369
20
0.026404850531563932
30
0
10
6.185730293029442
20
0.032770161945192916
30
0
10
6.3855782658415521
20
0.062444274936246769
30
0
10
6.5855203724469638
20
0.1087439756240602
30
0
10
6.785787967495204
20
0.16183057099566769
30
0
10
6.9865530331733865
20
0.21115806550616029
30
0
10
7.1878649607434797
20
0.247914476812653
30
0
10
7.3895797031741859
20
0.26762630939740822
30
0
10
7.5914309096472241
20
0.26938000536678275
30
0
10
7.7931099069945109
20
0.25482646046831847
30
0
10
7.994342749312854
20
0.22726969461370886
30
0
10
8.1949674973579203
20
0.1907322315558915
30
0
10
8.3950145090654118
20
0.14901598101202371
30
0
10
8.5946532590119222
20
0.10559704215644933
30
0
10
8.794135847096328
20
0.063545826508165162
30
0
10
8.9937417415302718
20
0.025435924131802373
30
0
10
9.1937227287918617
20
-0.0067416638328060257
30
0
10
9.3942460982492335
20
-0.031673465763325151
30
0
10
9.5954106821655341
20
-0.048586865753449449
30
0
10
9.7568940650150697
20
-0.055403965874519241
30
0
10
9.8783237685083414
20
-0.056689435169551584
30
0
10
9.9594177773842709
20
-0.055846469090448297
30
0
10
10
20
-0.055000000000000049
30
0
0
SPLINE
5
104
100
AcDbEntity
8
0
100
AcDbSpline
70
4
71
5
72
61
73
55
74
0
42
0.000000001
43
0.0000000001
44
0.0000000001
40
0
40
0
40
0
40
0
40
0
40
0
40
0.02
40
0.040000000000000001
40
0.059999999999999998
40
0.080000000000000002
40
0.10000000000000001
40
0.12000000000000001
40
0.14000000000000001
40
0.16
40
0.17999999999999999
40
0.19999999999999998
40
0.21999999999999997
40
0.23999999999999996
40
0.25999999999999995
40
0.27999999999999997
40
0.29999999999999999
40
0.32000000000000001
40
0.34000000000000002
40
0.36000000000000004
40
0.38000000000000006
40
0.40000000000000008
40
0.4200000000000001
40
0.44000000000000011
40
0.46000000000000013
40
0.48000000000000015
40
0.50000000000000011
40
0.52000000000000013
40
0.54000000000000015
40
0.56000000000000016
40
0.58000000000000018
40
0.6000000000000002
40
0.62000000000000022
40
0.64000000000000024
40
0.66000000000000025
40
0.68000000000000027
40
0.70000000000000029
40
0.72000000000000031
40
0.74000000000000032
40
0.76000000000000034
40
0.78000000000000036
40
0.80000000000000038
40
0.8200000000000004
40
0.84000000000000041
40
0.86000000000000043
40
0.88000000000000045
40
0.90000000000000047
40
0.92000000000000048
40
0.9400000000000005
40
0.96000000000000052
40
0.98000000000000054
40
1
40
1
40
1
40
1
40
1
40
1
41
1
41
1
41
1
41
1
41
1
41
1
41
1
41
1
41
1
41
1
41
1
41
1
41
1
41
1
41
1
41
1
41
1
41
1
41
1
41
1
41
1
41
1
41
1
41
1
41
1
41
1
41
1
41
1
41
1
41
1
41
1
41
1
41
1
41
1
41
1
41
1
41
1
41
1
41
1
41
1
41
1
41
1
41
1
41
1
41
1
41
1
41
1
41
1
41
1
41
1
41
1
41
1
41
1
41
1
41
1
10
0
20
3.0549999999999997
30
0
10
0.040449548869838273
20
3.061345333255137
30
0
10
0.12125771795980542
20
3.0717183976014741
30
0
10
0.24219718565919557
20
3.0803251882199678
30
0
10
0.40290388183008069
20
3.0778862310345003
30
0
10
0.60288984875808371
20
3.0522121155985267
30
0
10
0.80201943818872867
20
3.0057018763308352
30
0
10
1.0003774857727992
20
2.9420065856084427
30
0
10
1.1981079986905336
20
2.8672810527268098
30
0
10
1.3954296423692121
20
2.7908312958461567
30
0
10
1.5925992326289284
20
2.723213990194802
30
0
10
1.7898756077450968
20
2.6743560120428054
30
0
10
1.9874829209711233
20
2.6516367340212463
30
0
10
2.1855752061482487
20
2.6580475062531446
30
0
10
2.3841972671559502
20
2.6901247903030385
30
0
10
2.5833120669498837
20
2.7399644365367033
30
0
10
2.7828318054138368
20
2.7974602834552806
30
0
10
2.9826478904259712
20
2.8524844134484213
30
0
10
3.1826603613218181
20
2.897018891693909
30
0
10
3.3828100064101614
20
2.9275029220775033
30
0
10
3.5830689659764667
20
2.9439717294303378
30
0
10
3.7834278144907589
20
2.9489237599281366
30
0
10
3.9838837845822308
20
2.9462851832320105
30
0
10
4.1844289516672495
20
2.9403575080616857
30
0
10
4.3850373071542945
20
2.9347233903325809
30
0
10
4.5856719141141244
20
2.9320803972985843
30
0
10
4.7862936391900526
20
2.9341543022758891
30
0
10
4.9868694198114252
20
2.9415754249188231
30
0
10
5.1873804642536845
20
2.9537800256756293
30
0
10
5.3878312525751735
20
2.968863881963534
30
0
10
5.5882426057693371
20
2.9841602424360492
30
0
10
5.7886437772778052
20
2.9968579453960498
30
0
10
5.9890648601202585
20
3.0046114061804801
30
0
10
6.1895292286200725
20
3.0061383657705902
30
0
10
6.3900455219656402
20
3.0018701973982109
30
0
10
6.590610709459134
20
2.9934538127825139
30
0
10
6.7912137228806326
20
2.9831967709629508
30
0
10
6.9918388696014988
20
2.973531877305724
30
0
10
7.1924692910594379
20
2.9664824158096033
30
0
10
7.3930904781197047
20
2.9631046016880465
30
0
10
7.5936909449871228
20
2.9636702423970176
30
0
10
7.7942627877645334
20
2.9678769081418936
30
0
10
7.994802302734703
20
2.9750467386540693
30
0
10
8.1953105741798726
20
2.9843275274785306
30
0
10
8.3957941357227224
20
2.9948954214646428
30
0
10
8.5962632040672045
20
3.0059827317409251
30
0
10
8.7967298653080412
20
3.0169011780971915
30
0
10
8.9972062811753535
20
3.0270671044681818
30
0
10
9.1977028982829925
20
3.0360259106120555
30
0
10
9.398226626301625
20
3.0434777733598311
30
0
10
9.5987815471930205
20
3.0492459940186545
30
0
10
9.7592520305950003
20
3.0524451515895485
30
0
10
9.8796201038484881
20
3.0540365731859822
30
0
10
9.9598722419602872
20
3.0547386667355214
30
0
10
10
20
3.0549999999999997
30
0
0
ENDSEC
0
SECTION
2
OBJECTS
0
DICTIONARY
5
C
100
AcDbDictionary
3
ACAD_GROUP
350
D
3
ACAD_MLINESTYLE
350
17
0
DICTIONARY
5
D
100
AcDbDictionary
0
DICTIONARY
5
1A
330
C
100
AcDbDictionary
0
DICTIONARY
5
17
100
AcDbDictionary
0
ENDSEC
0
EOF
