0
SECTION
2
HEADER
9
$INSUNITS
70
4
9
$ACADVER
1
AC1014
9
$HANDSEED
5
FFFF
0
ENDSEC
0
SECTION
2
TABLES
0
TABLE
2
VPORT
5
8
100
AcDbSymbolTable
0
ENDTAB
0
TABLE
2
LTYPE
5
5
100
AcDbSymbolTable
0
LTYPE
5
14
100
AcDbSymbolTableRecord
100
AcDbLinetypeTableRecord
2
BYBLOCK
70
0
0
LTYPE
5
15
100
AcDbSymbolTableRecord
100
AcDbLinetypeTableRecord
2
BYLAYER
70
0
0
ENDTAB
0
TABLE
2
LAYER
5
2
100
AcDbSymbolTable
70
2
0
LAYER
5
50
100
AcDbSymbolTableRecord
100
AcDbLayerTableRecord
2
0
70
0
6
CONTINUOUS
0
ENDTAB
0
TABLE
2
STYLE
5
3
100
AcDbSymbolTable
70
1
0
STYLE
5
11
100
AcDbSymbolTableRecord
100
AcDbTextStyleTableRecord
2
STANDARD
70
0
0
ENDTAB
0
TABLE
2
VIEW
5
6
100
AcDbSymbolTable
70
0
0
ENDTAB
0
TABLE
2
UCS
5
7
100
AcDbSymbolTable
70
0
0
ENDTAB
0
TABLE
2
APPID
5
9
100
AcDbSymbolTable
70
2
0
APPID
5
12
100
AcDbSymbolTableRecord
100
AcDbRegAppTableRecord
2
ACAD
70
0
0
ENDTAB
0
TABLE
2
DIMSTYLE
5
A
100
AcDbSymbolTable
70
1
0
ENDTAB
0
TABLE
2
BLOCK_RECORD
5
1
100
AcDbSymbolTable
70
1
0
BLOCK_RECORD
5
1F
100
AcDbSymbolTableRecord
100
AcDbBlockTableRecord
2
*MODEL_SPACE
0
BLOCK_RECORD
5
1B
100
AcDbSymbolTableRecord
100
AcDbBlockTableRecord
2
*PAPER_SPACE
0
ENDTAB
0
ENDSEC
0
SECTION
2
BLOCKS
0
BLOCK
5
20
100
AcDbEntity
100
AcDbBlockBegin
2
*MODEL_SPACE
0
ENDBLK
5
21
100
AcDbEntity
100
AcDbBlockEnd
0
BLOCK
5
1C
100
AcDbEntity
100
AcDbBlockBegin
2
*PAPER_SPACE
0
ENDBLK
5
1D
100
AcDbEntity
100
AcDbBlockEnd
0
ENDSEC
0
SECTION
2
ENTITIES
0
SPLINE
5
100
100
AcDbEntity
8
0
100
AcDbSpline
70
4
71
5
72
16
73
10
74
0
42
0.000000001
43
0.0000000001
44
0.0000000001
40
0
40
0
40
0
40
0
40
0
40
0
40
0.20000000000000001
40
0.40000000000000002
40
0.60000000000000009
40
0.80000000000000004
40
1
40
1
40
1
40
1
40
1
40
1
41
1
41
1
41
1
41
1
41
1
41
1
41
1
41
1
41
1
41
1
10
0
20
-0.055000000000000049
30
0
10
0
20
0.069400000000207365
30
0
10
0
20
0.31820000000056603
30
0
10
0
20
0.69140000000093593
30
0
10
0
20
1.1890000000011365
30
0
10
0
20
1.8110000000010393
30
0
10
0
20
2.3086000000007481
30
0
10
0
20
2.6818000000004227
30
0
10
0
20
2.9306000000001484
30
0
10
0
20
3.0549999999999997
30
0
0
SPLINE
5
101
100
AcDbEntity
8
0
100
AcDbSpline
70
4
71
5
72
16
73
10
74
0
42
0.000000001
43
0.0000000001
44
0.0000000001
40
0
40
0
40
0
40
0
40
0
40
0
40
0.20000000000000001
40
0.40000000000000002
40
0.60000000000000009
40
0.80000000000000004
40
1
40
1
40
1
40
1
40
1
40
1
41
1
41
1
41
1
41
1
41
1
41
1
41
1
41
1
41
1
41
1
10
10
20
-0.055000000000000049
30
0
10
9.9999999999997495
20
0.069400000000207365
30
0
10
9.9999999999993197
20
0.31820000000056603
30
0
10
9.9999999999989129
20
0.69140000000093593
30
0
10
9.9999999999987672
20
1.1890000000011365
30
0
10
9.9999999999990248
20
1.8110000000010393
30
0
10
9.9999999999993889
20
2.3086000000007481
30
0
10
9.9999999999996998
20
2.6818000000004227
30
0
10
9.9999999999999005
20
2.9306000000001484
30
0
10
10
20
3.0549999999999997
30
0
0
SPLINE
5
102
100
AcDbEntity
8
0
100
AcDbSpline
70
4
71
5
72
16
73
10
74
0
42
0.000000001
43
0.0000000001
44
0.0000000001
40
0
40
0
40
0
40
0
40
0
40
0
40
0.20000000000000001
40
0.40000000000000002
40
0.60000000000000009
40
0.80000000000000004
40
1
40
1
40
1
40
1
40
1
40
1
41
1
41
1
41
1
41
1
41
1
41
1
41
1
41
1
41
1
41
1
10
0
20
1.5274999999999999
30
0
10
0.40000000000047375
20
1.5274999999999856
30
0
10
1.2000000000012774
20
1.5274999999999614
30
0
10
2.4000000000020547
20
1.527499999999943
30
0
10
4.0000000000023546
20
1.5274999999999479
30
0
10
6.0000000000019584
20
1.5274999999999812
30
0
10
7.6000000000012928
20
1.5275000000000025
30
0
10
8.800000000000697
20
1.5275000000000083
30
0
10
9.6000000000002395
20
1.5275000000000039
30
0
10
10
20
1.5274999999999999
30
0
0
SPLINE
5
103
100
AcDbEntity
8
0
100
AcDbSpline
70
4
71
5
72
111
73
105
74
0
42
0.000000001
43
0.0000000001
44
0.0000000001
40
0
40
0
40
0
40
0
40
0
40
0
40
0.01
40
0.02
40
0.029999999999999999
40
0.040000000000000001
40
0.050000000000000003
40
0.060000000000000005
40
0.070000000000000007
40
0.080000000000000002
40
0.089999999999999997
40
0.099999999999999992
40
0.10999999999999999
40
0.11999999999999998
40
0.12999999999999998
40
0.13999999999999999
40
0.14999999999999999
40
0.16
40
0.17000000000000001
40
0.18000000000000002
40
0.19000000000000003
40
0.20000000000000004
40
0.21000000000000005
40
0.22000000000000006
40
0.23000000000000007
40
0.24000000000000007
40
0.25000000000000006
40
0.26000000000000006
40
0.27000000000000007
40
0.28000000000000008
40
0.29000000000000009
40
0.3000000000000001
40
0.31000000000000011
40
0.32000000000000012
40
0.33000000000000013
40
0.34000000000000014
40
0.35000000000000014
40
0.36000000000000015
40
0.37000000000000016
40
0.38000000000000017
40
0.39000000000000018
40
0.40000000000000019
40
0.4100000000000002
40
0.42000000000000021
40
0.43000000000000022
40
0.44000000000000022
40
0.45000000000000023
40
0.46000000000000024
40
0.47000000000000025
40
0.48000000000000026
40
0.49000000000000027
40
0.50000000000000022
40
0.51000000000000023
40
0.52000000000000024
40
0.53000000000000025
40
0.54000000000000026
40
0.55000000000000027
40
0.56000000000000028
40
0.57000000000000028
40
0.58000000000000029
40
0.5900000000000003
40
0.60000000000000031
40
0.61000000000000032
40
0.62000000000000033
40
0.63000000000000034
40
0.64000000000000035
40
0.65000000000000036
40
0.66000000000000036
40
0.67000000000000037
40
0.68000000000000038
40
0.69000000000000039
40
0.7000000000000004
40
0.71000000000000041
40
0.72000000000000042
40
0.73000000000000043
40
0.74000000000000044
40
0.75000000000000044
40
0.76000000000000045
40
0.77000000000000046
40
0.78000000000000047
40
0.79000000000000048
40
0.80000000000000049
40
0.8100000000000005
40
0.82000000000000051
40
0.83000000000000052
40
0.84000000000000052
40
0.85000000000000053
40
0.86000000000000054
40
0.87000000000000055
40
0.88000000000000056
40
0.89000000000000057
40
0.90000000000000058
40
0.91000000000000059
40
0.9200000000000006
40
0.9300000000000006
40
0.94000000000000061
40
0.95000000000000062
40
0.96000000000000063
40
0.97000000000000064
40
0.98000000000000065
40
0.99000000000000066
40
1
40
1
40
1
40
1
40
1
40
1
41
1
41
1
41
1
41
1
41
1
41
1
41
1
41
1
41
1
41
1
41
1
41
1
41
1
41
1
41
1
41
1
41
1
41
1
41
1
41
1
41
1
41
1
41
1
41
1
41
1
41
1
41
1
41
1
41
1
41
1
41
1
41
1
41
1
41
1
41
1
41
1
41
1
41
1
41
1
41
1
41
1
41
1
41
1
41
1
41
1
41
1
41
1
41
1
41
1
41
1
41
1
41
1
41
1
41
1
41
1
41
1
41
1
41
1
41
1
41
1
41
1
41
1
41
1
41
1
41
1
41
1
41
1
41
1
41
1
41
1
41
1
41
1
41
1
41
1
41
1
41
1
41
1
41
1
41
1
41
1
41
1
41
1
41
1
41
1
41
1
41
1
41
1
41
1
41
1
41
1
41
1
41
1
41
1
41
1
41
1
41
1
41
1
41
1
41
1
41
1
41
1
41
1
41
1
41
1
41
1
10
0
20
-0.055000000000000049
30
0
10
0.019944308697158391
20
-0.047693264834706282
30
0
10
0.059856632737029583
20
-0.033391266743889883
30
0
10
0.11979623855918881
20
-0.012872677263279749
30
0
10
0.19985797717511267
20
0.012616244240500818
30
0
10
0.30017449240491118
20
0.041175065788893406
30
0
10
0.40073685187465913
20
0.065872046933813364
30
0
10
0.50155783961166034
20
0.085592756011131102
30
0
10
0.60265872078396265
20
0.0984756823258396
30
0
10
0.70407097084708203
20
0.10174435446900061
30
0
10
0.80581249525054899
20
0.092851020612015778
30
0
10
0.90786371055346105
20
0.070628546466633024
30
0
10
1.0101446292110605
20
0.036387325179929521
30
0
10
1.112489226262301
20
-0.0048410486369143396
30
0
10
1.2146273865793271
20
-0.043469280365167208
30
0
10
1.3162405548253833
20
-0.068414362173070883
30
0
10
1.4170121749277877
20
-0.069917454577359803
30
0
10
1.5166787200691354
20
-0.042312422656854386
30
0
10
1.6150837434310839
20
0.012846737039286807
30
0
10
1.7122210423147
20
0.08480548980635963
30
0
10
1.8082164205704199
20
0.15799887958191952
30
0
10
1.903317009572518
20
0.21564221596364636
30
0
10
1.9978780127746321
20
0.24364900858924257
30
0
10
2.0923500110957507
20
0.23436640439209624
30
0
10
2.187267721822554
20
0.19051334243587556
30
0
10
2.2831621022869695
20
0.12217576897770241
30
0
10
2.3804731287840015
20
0.043705457754880696
30
0
10
2.4794576467396672
20
-0.029410640168354853
30
0
10
2.5801097984473143
20
-0.083512262636538576
30
0
10
2.6820483096020213
20
-0.11020412350428474
30
0
10
2.7846313385111738
20
-0.10643784735545031
30
0
10
2.8871234343792724
20
-0.073782906273933885
30
0
10
2.9888478717161853
20
-0.018003778386833705
30
0
10
3.0893377193853144
20
0.051546709780050687
30
0
10
3.1885072358650888
20
0.12229857386763668
30
0
10
3.2865641899874238
20
0.18081072237014084
30
0
10
3.3838924138548161
20
0.21527108998724642
30
0
10
3.4809423359110498
20
0.21806936983072109
30
0
10
3.5781245725024258
20
0.18805498578602836
30
0
10
3.6756856600355596
20
0.13367872907816344
30
0
10
3.7737230038391054
20
0.069906028982088725
30
0
10
3.8722317370944643
20
0.013812566428848622
30
0
10
3.9711413824258797
20
-0.019563688909930346
30
0
10
4.0703548367753077
20
-0.021033526478922777
30
0
10
4.1697911880258509
20
0.0076518041804174647
30
0
10
4.2693984163375269
20
0.05578568285796532
30
0
10
4.3691529917539933
20
0.10839746114813548
30
0
10
4.4690647893187787
20
0.15022941331247464
30
0
10
4.5691775563730204
20
0.16963178903714987
30
0
10
4.6695769980971571
20
0.16345438932075348
30
0
10
4.7703647614159692
20
0.13621594199177939
30
0
10
4.8716196512629821
20
0.096805814491325554
30
0
10
4.973360196681254
20
0.05590141445790172
30
0
10
5.0755127038556003
20
0.023273647966924948
30
0
10
5.1778613531977253
20
0.0046684519806942703
30
0
10
5.2801032227426088
20
0.0018512785176362176
30
0
10
5.3819367554437827
20
0.013752797050845075
30
0
10
5.4831425476139986
20
0.037254111900805867
30
0
10
5.5836597137922066
20
0.068102145758299357
30
0
10
5.683684288540487
20
0.10181798771465447
30
0
10
5.7835790659819271
20
0.13414864848497021
30
0
10
5.8837493245732873
20
0.16140569513618763
30
0
10
5.9845264729395744
20
0.18086070201378801
30
0
10
6.0860574161653549
20
0.19108060526983361
30
0
10
6.1881674820646335
20
0.19238635671526583
30
0
10
6.2904711868043446
20
0.18630329758218767
30
0
10
6.3925233641729218
20
0.17485293882236891
30
0
10
6.4939582586576297
20
0.15988919369791915
30
0
10
6.5946287191592443
20
0.14244194963304371
30
0
10
6.6947589441403714
20
0.12198691524237204
30
0
10
6.7947893194950035
20
0.097316044745793362
30
0
10
6.8952031002163192
20
0.06750039817064199
30
0
10
6.9963582942237998
20
0.032829831643195771
30
0
10
7.0983206906511773
20
-0.0042609223583017003
30
0
10
7.2006869305558343
20
-0.038193111195997408
30
0
10
7.3027892857019356
20
-0.061961015070071651
30
0
10
7.403913549476985
20
-0.068943595290640813
30
0
10
7.5035104328111917
20
-0.054666913652790541
30
0
10
7.6014134785690004
20
-0.01862179113655486
30
0
10
7.6980439781149741
20
0.034033577769744368
30
0
10
7.7941776146353874
20
0.094715999382637139
30
0
10
7.8907255477814555
20
0.1535289118403638
30
0
10
7.9885052914419639
20
0.20146678239232291
30
0
10
8.0880272610577428
20
0.23247649693355338
30
0
10
8.1892441400828577
20
0.24585860748916
30
0
10
8.291708856188361
20
0.24493208928644647
30
0
10
8.3947793357844098
20
0.23527054597470579
30
0
10
8.4978072838612828
20
0.22308683082131225
30
0
10
8.6003317461363125
20
0.21356931377184277
30
0
10
8.7022759557623584
20
0.20920176338550614
30
0
10
8.8038210401850474
20
0.21030829869273004
30
0
10
8.9052715674686045
20
0.21565143535373749
30
0
10
9.0069260816373529
20
0.22300467000724145
30
0
10
9.1089412922356914
20
0.22974530291792458
30
0
10
9.2112109697462188
20
0.23340896367418748
30
0
10
9.3134521636444241
20
0.23172970170095825
30
0
10
9.4152806037519685
20
0.22271057523914728
30
0
10
9.5162880066848476
20
0.2046798146743711
30
0
10
9.616123435816327
20
0.17636057252922421
30
0
10
9.7145584178687105
20
0.13691363231030099
30
0
10
9.8114549408031628
20
0.085838030933345105
30
0
10
9.8876871777378597
20
0.035478506710923674
30
0
10
9.9441285223714821
20
-0.0076695119257844686
30
0
10
9.9814304475902862
20
-0.038824839623707627
30
0
10
10
20
-0.055000000000000049
30
0
0
SPLINE
5
104
100
AcDbEntity
8
0
100
AcDbSpline
70
4
71
5
72
111
73
105
74
0
42
0.000000001
43
0.0000000001
44
0.0000000001
40
0
40
0
40
0
40
0
40
0
40
0
40
0.01
40
0.02
40
0.029999999999999999
40
0.040000000000000001
40
0.050000000000000003
40
0.060000000000000005
40
0.070000000000000007
40
0.080000000000000002
40
0.089999999999999997
40
0.099999999999999992
40
0.10999999999999999
40
0.11999999999999998
40
0.12999999999999998
40
0.13999999999999999
40
0.14999999999999999
40
0.16
40
0.17000000000000001
40
0.18000000000000002
40
0.19000000000000003
40
0.20000000000000004
40
0.21000000000000005
40
0.22000000000000006
40
0.23000000000000007
40
0.24000000000000007
40
0.25000000000000006
40
0.26000000000000006
40
0.27000000000000007
40
0.28000000000000008
40
0.29000000000000009
40
0.3000000000000001
40
0.31000000000000011
40
0.32000000000000012
40
0.33000000000000013
40
0.34000000000000014
40
0.35000000000000014
40
0.36000000000000015
40
0.37000000000000016
40
0.38000000000000017
40
0.39000000000000018
40
0.40000000000000019
40
0.4100000000000002
40
0.42000000000000021
40
0.43000000000000022
40
0.44000000000000022
40
0.45000000000000023
40
0.46000000000000024
40
0.47000000000000025
40
0.48000000000000026
40
0.49000000000000027
40
0.50000000000000022
40
0.51000000000000023
40
0.52000000000000024
40
0.53000000000000025
40
0.54000000000000026
40
0.55000000000000027
40
0.56000000000000028
40
0.57000000000000028
40
0.58000000000000029
40
0.5900000000000003
40
0.60000000000000031
40
0.61000000000000032
40
0.62000000000000033
40
0.63000000000000034
40
0.64000000000000035
40
0.65000000000000036
40
0.66000000000000036
40
0.67000000000000037
40
0.68000000000000038
40
0.69000000000000039
40
0.7000000000000004
40
0.71000000000000041
40
0.72000000000000042
40
0.73000000000000043
40
0.74000000000000044
40
0.75000000000000044
40
0.76000000000000045
40
0.77000000000000046
40
0.78000000000000047
40
0.79000000000000048
40
0.80000000000000049
40
0.8100000000000005
40
0.82000000000000051
40
0.83000000000000052
40
0.84000000000000052
40
0.85000000000000053
40
0.86000000000000054
40
0.87000000000000055
40
0.88000000000000056
40
0.89000000000000057
40
0.90000000000000058
40
0.91000000000000059
40
0.9200000000000006
40
0.9300000000000006
40
0.94000000000000061
40
0.95000000000000062
40
0.96000000000000063
40
0.97000000000000064
40
0.98000000000000065
40
0.99000000000000066
40
1
40
1
40
1
40
1
40
1
40
1
41
1
41
1
41
1
41
1
41
1
41
1
41
1
41
1
41
1
41
1
41
1
41
1
41
1
41
1
41
1
41
1
41
1
41
1
41
1
41
1
41
1
41
1
41
1
41
1
41
1
41
1
41
1
41
1
41
1
41
1
41
1
41
1
41
1
41
1
41
1
41
1
41
1
41
1
41
1
41
1
41
1
41
1
41
1
41
1
41
1
41
1
41
1
41
1
41
1
41
1
41
1
41
1
41
1
41
1
41
1
41
1
41
1
41
1
41
1
41
1
41
1
41
1
41
1
41
1
41
1
41
1
41
1
41
1
41
1
41
1
41
1
41
1
41
1
41
1
41
1
41
1
41
1
41
1
41
1
41
1
41
1
41
1
41
1
41
1
41
1
41
1
41
1
41
1
41
1
41
1
41
1
41
1
41
1
41
1
41
1
41
1
41
1
41
1
41
1
41
1
41
1
41
1
41
1
41
1
41
1
10
0
20
3.0549999999999997
30
0
10
0.019757818297593044
20
3.036797237553102
30
0
10
0.059308881867646157
20
3.0028030666860639
30
0
10
0.1187417580042202
20
2.9590458627117537
30
0
10
0.19819819026766214
20
2.9151734691400994
30
0
10
0.29786692921749397
20
2.8840043176917112
30
0
10
0.39786514913803667
20
2.8751455720650227
30
0
10
0.4981551045454064
20
2.8858542037699357
30
0
10
0.59867372184343703
20
2.9115472191689156
30
0
10
0.69932588680880359
20
2.9453156405109775
30
0
10
0.80000339723067415
20
2.9791850805366389
30
0
10
0.90060435475972545
20
3.0054059206682386
30
0
10
1.0010523467780157
20
3.0177295710416789
30
0
10
1.1013158432218786
20
3.0126981409782969
30
0
10
1.201427217959363
20
2.9909114088114612
30
0
10
1.3014619653287205
20
2.9558953931057124
30
0
10
1.4015182615917716
20
2.9129923388627983
30
0
10
1.5016964704939373
20
2.8682464117809534
30
0
10
1.6020785559890411
20
2.8272868466862993
30
0
10
1.7027078674822254
20
2.794226453249288
30
0
10
1.8035946387020674
20
2.7716691839417678
30
0
10
1.9047210352928077
20
2.7606955627113567
30
0
10
2.0060464196888086
20
2.7608633734303329
30
0
10
2.1075123475176154
20
2.7701822667379314
30
0
10
2.2090481008101466
20
2.7851501131872443
30
0
10
2.3105835263994474
20
2.8017526101822727
30
0
10
2.4120619398262009
20
2.8164384252607046
30
0
10
2.5134521565024572
20
2.8270556612078686
30
0
10
2.6147628945109807
20
2.8339171834744459
30
0
10
2.7160504310674893
20
2.840487571481404
30
0
10
2.8173809636856562
20
2.8514686008218444
30
0
10
2.9187961654403782
20
2.8710960756789641
30
0
10
3.0202804602266871
20
2.9014697918209809
30
0
10
3.1217206014298289
20
2.9406001429841893
30
0
10
3.2228894150230025
20
2.9813844529066147
30
0
10
3.3235306762020116
20
3.0145393662699203
30
0
10
3.4234320770673783
20
3.0310370996697333
30
0
10
3.5224973205303782
20
3.024578332377454
30
0
10
3.6208316967325338
20
2.9944200598820601
30
0
10
3.7187818458955157
20
2.9469173029579521
30
0
10
3.8168073944432819
20
2.8922828399240474
30
0
10
3.9153773169838058
20
2.8420657073054705
30
0
10
4.014860878614809
20
2.8064412981446143
30
0
10
4.1154108639692559
20
2.7913650515286124
30
0
10
4.2168793994388922
20
2.7964203330678035
30
0
10
4.3189392368536437
20
2.8171386171909591
30
0
10
4.4211835118053973
20
2.8468432660730709
30
0
10
4.5232288912928214
20
2.8785822993871002
30
0
10
4.6248287035264823
20
2.9072423778842098
30
0
10
4.7259466074369758
20
2.9309101561306266
30
0
10
4.8266823137100214
20
2.9494339010861035
30
0
10
4.9272201295576163
20
2.963383021619884
30
0
10
5.0277705483454191
20
2.9729596205607498
30
0
10
5.12851024060482
20
2.976675897592016
30
0
10
5.2295374692967158
20
2.9709367416633627
30
0
10
5.3308765445953892
20
2.9520889866425066
30
0
10
5.432471700289887
20
2.918128600409728
30
0
10
5.5341879214592637
20
2.8703023106507786
30
0
10
5.63580205900662
20
2.815332883152081
30
0
10
5.7370201846978581
20
2.7654682183871344
30
0
10
5.8375442670692284
20
2.7341763229977456
30
0
10
5.9371315094212207
20
2.7325645614601561
30
0
10
6.0356502360881255
20
2.7659308948223043
30
0
10
6.1331526704910244
20
2.8292431916469027
30
0
10
6.2298883492187249
20
2.9065134115744655
30
0
10
6.3262087541597385
20
2.9773173148646928
30
0
10
6.4224945264656892
20
3.0218676805963773
30
0
10
6.5190771149031228
20
3.0263612063959977
30
0
10
6.6161546019305995
20
2.9889356257806705
30
0
10
6.7137347943752568
20
2.923175454851727
30
0
10
6.811703736804759
20
2.8505840447751996
30
0
10
6.9098763672658716
20
2.79458887297654
30
0
10
7.0080533673497811
20
2.7740789483949024
30
0
10
7.1060770373167177
20
2.7968402925693026
30
0
10
7.2038827823482867
20
2.8538862708697552
30
0
10
7.3014800759102672
20
2.9263339428394444
30
0
10
7.3989383846113812
20
2.9913935423749232
30
0
10
7.4963712304518086
20
3.0287422153069459
30
0
10
7.5939211044046839
20
3.0266184964454492
30
0
10
7.6917439684841682
20
2.9883577278656412
30
0
10
7.7899964573760112
20
2.9273683967192268
30
0
10
7.888823097653173
20
2.8617825355932935
30
0
10
7.988343532260382
20
2.8091138411899026
30
0
10
8.0886396949380952
20
2.7811767017343971
30
0
10
8.1897430631366817
20
2.7781889950816829
30
0
10
8.2916210459796158
20
2.7921268297754196
30
0
10
8.3941634022642635
20
2.8111766026947556
30
0
10
8.4971682921216356
20
2.8238159274496768
30
0
10
8.6003291200639111
20
2.8229983644795844
30
0
10
8.7032190368639899
20
2.8104385027554271
30
0
10
8.8053774660345461
20
2.7936092661846743
30
0
10
8.9063998687740504
20
2.7825256094750177
30
0
10
9.0060250289959356
20
2.7866453328879293
30
0
10
9.1042265000339579
20
2.8116385859139696
30
0
10
9.2012938273262019
20
2.8564438471924491
30
0
10
9.2977281196738044
20
2.9153187971158125
30
0
10
9.3941472990087327
20
2.9796384127360738
30
0
10
9.491186518115601
20
3.0398092363686673
30
0
10
9.5894036152904185
20
3.0870795781670979
30
0
10
9.689174436081526
20
3.115538858950579
30
0
10
9.7907221668841142
20
3.1216785287748268
30
0
10
9.873471020940741
20
3.1073305307186008
30
0
10
9.9363987451998632
20
3.0854780815879761
30
0
10
9.9787354363480123
20
3.0659808424559403
30
0
10
10
20
3.0549999999999997
30
0
0
ENDSEC
0
SECTION
2
OBJECTS
0
DICTIONARY
5
C
100
AcDbDictionary
3
ACAD_GROUP
350
D
3
ACAD_MLINESTYLE
350
17
0
DICTIONARY
5
D
100
AcDbDictionary
0
DICTIONARY
5
1A
330
C
100
AcDbDictionary
0
DICTIONARY
5
17
100
AcDbDictionary
0
ENDSEC
0
EOF
