0
SECTION
2
HEADER
9
$INSUNITS
70
4
9
$ACADVER
1
AC1014
9
$HANDSEED
5
FFFF
0
ENDSEC
0
SECTION
2
TABLES
0
TABLE
2
VPORT
5
8
100
AcDbSymbolTable
0
ENDTAB
0
TABLE
2
LTYPE
5
5
100
AcDbSymbolTable
0
LTYPE
5
14
100
AcDbSymbolTableRecord
100
AcDbLinetypeTableRecord
2
BYBLOCK
70
0
0
LTYPE
5
15
100
AcDbSymbolTableRecord
100
AcDbLinetypeTableRecord
2
BYLAYER
70
0
0
ENDTAB
0
TABLE
2
LAYER
5
2
100
AcDbSymbolTable
70
2
0
LAYER
5
50
100
AcDbSymbolTableRecord
100
AcDbLayerTableRecord
2
0
70
0
6
CONTINUOUS
0
ENDTAB
0
TABLE
2
STYLE
5
3
100
AcDbSymbolTable
70
1
0
STYLE
5
11
100
AcDbSymbolTableRecord
100
AcDbTextStyleTableRecord
2
STANDARD
70
0
0
ENDTAB
0
TABLE
2
VIEW
5
6
100
AcDbSymbolTable
70
0
0
ENDTAB
0
TABLE
2
UCS
5
7
100
AcDbSymbolTable
70
0
0
ENDTAB
0
TABLE
2
APPID
5
9
100
AcDbSymbolTable
70
2
0
APPID
5
12
100
AcDbSymbolTableRecord
100
AcDbRegAppTableRecord
2
ACAD
70
0
0
ENDTAB
0
TABLE
2
DIMSTYLE
5
A
100
AcDbSymbolTable
70
1
0
ENDTAB
0
TABLE
2
BLOCK_RECORD
5
1
100
AcDbSymbolTable
70
1
0
BLOCK_RECORD
5
1F
100
AcDbSymbolTableRecord
100
AcDbBlockTableRecord
2
*MODEL_SPACE
0
BLOCK_RECORD
5
1B
100
AcDbSymbolTableRecord
100
AcDbBlockTableRecord
2
*PAPER_SPACE
0
ENDTAB
0
ENDSEC
0
SECTION
2
BLOCKS
0
BLOCK
5
20
100
AcDbEntity
100
AcDbBlockBegin
2
*MODEL_SPACE
0
ENDBLK
5
21
100
AcDbEntity
100
AcDbBlockEnd
0
BLOCK
5
1C
100
AcDbEntity
100
AcDbBlockBegin
2
*PAPER_SPACE
0
ENDBLK
5
1D
100
AcDbEntity
100
AcDbBlockEnd
0
ENDSEC
0
SECTION
2
ENTITIES
0
SPLINE
5
100
100
AcDbEntity
8
0
100
AcDbSpline
70
4
71
5
72
16
73
10
74
0
42
0.000000001
43
0.0000000001
44
0.0000000001
40
0
40
0
40
0
40
0
40
0
40
0
40
0.20000000000000001
40
0.40000000000000002
40
0.60000000000000009
40
0.80000000000000004
40
1
40
1
40
1
40
1
40
1
40
1
41
1
41
1
41
1
41
1
41
1
41
1
41
1
41
1
41
1
41
1
10
0
20
-0.055000000000000049
30
0
10
0
20
0.069400000000207365
30
0
10
0
20
0.31820000000056603
30
0
10
0
20
0.69140000000093593
30
0
10
0
20
1.1890000000011365
30
0
10
0
20
1.8110000000010393
30
0
10
0
20
2.3086000000007481
30
0
10
0
20
2.6818000000004227
30
0
10
0
20
2.9306000000001484
30
0
10
0
20
3.0549999999999997
30
0
0
SPLINE
5
101
100
AcDbEntity
8
0
100
AcDbSpline
70
4
71
5
72
16
73
10
74
0
42
0.000000001
43
0.0000000001
44
0.0000000001
40
0
40
0
40
0
40
0
40
0
40
0
40
0.20000000000000001
40
0.40000000000000002
40
0.60000000000000009
40
0.80000000000000004
40
1
40
1
40
1
40
1
40
1
40
1
41
1
41
1
41
1
41
1
41
1
41
1
41
1
41
1
41
1
41
1
10
10
20
-0.055000000000000049
30
0
10
9.9999999999997495
20
0.069400000000207365
30
0
10
9.9999999999993197
20
0.31820000000056603
30
0
10
9.9999999999989129
20
0.69140000000093593
30
0
10
9.9999999999987672
20
1.1890000000011365
30
0
10
9.9999999999990248
20
1.8110000000010393
30
0
10
9.9999999999993889
20
2.3086000000007481
30
0
10
9.9999999999996998
20
2.6818000000004227
30
0
10
9.9999999999999005
20
2.9306000000001484
30
0
10
10
20
3.0549999999999997
30
0
0
SPLINE
5
102
100
AcDbEntity
8
0
100
AcDbSpline
70
4
71
5
72
16
73
10
74
0
42
0.000000001
43
0.0000000001
44
0.0000000001
40
0
40
0
40
0
40
0
40
0
40
0
40
0.20000000000000001
40
0.40000000000000002
40
0.60000000000000009
40
0.80000000000000004
40
1
40
1
40
1
40
1
40
1
40
1
41
1
41
1
41
1
41
1
41
1
41
1
41
1
41
1
41
1
41
1
10
0
20
1.5274999999999999
30
0
10
0.40000000000047375
20
1.5274999999999856
30
0
10
1.2000000000012774
20
1.5274999999999614
30
0
10
2.4000000000020547
20
1.527499999999943
30
0
10
4.0000000000023546
20
1.5274999999999479
30
0
10
6.0000000000019584
20
1.5274999999999812
30
0
10
7.6000000000012928
20
1.5275000000000025
30
0
10
8.800000000000697
20
1.5275000000000083
30
0
10
9.6000000000002395
20
1.5275000000000039
30
0
10
10
20
1.5274999999999999
30
0
0
SPLINE
5
103
100
AcDbEntity
8
0
100
AcDbSpline
70
4
71
5
72
61
73
55
74
0
42
0.000000001
43
0.0000000001
44
0.0000000001
40
0
40
0
40
0
40
0
40
0
40
0
40
0.02
40
0.040000000000000001
40
0.059999999999999998
40
0.080000000000000002
40
0.10000000000000001
40
0.12000000000000001
40
0.14000000000000001
40
0.16
40
0.17999999999999999
40
0.19999999999999998
40
0.21999999999999997
40
0.23999999999999996
40
0.25999999999999995
40
0.27999999999999997
40
0.29999999999999999
40
0.32000000000000001
40
0.34000000000000002
40
0.36000000000000004
40
0.38000000000000006
40
0.40000000000000008
40
0.4200000000000001
40
0.44000000000000011
40
0.46000000000000013
40
0.48000000000000015
40
0.50000000000000011
40
0.52000000000000013
40
0.54000000000000015
40
0.56000000000000016
40
0.58000000000000018
40
0.6000000000000002
40
0.62000000000000022
40
0.64000000000000024
40
0.66000000000000025
40
0.68000000000000027
40
0.70000000000000029
40
0.72000000000000031
40
0.74000000000000032
40
0.76000000000000034
40
0.78000000000000036
40
0.80000000000000038
40
0.8200000000000004
40
0.84000000000000041
40
0.86000000000000043
40
0.88000000000000045
40
0.90000000000000047
40
0.92000000000000048
40
0.9400000000000005
40
0.96000000000000052
40
0.98000000000000054
40
1
40
1
40
1
40
1
40
1
40
1
41
1
41
1
41
1
41
1
41
1
41
1
41
1
41
1
41
1
41
1
41
1
41
1
41
1
41
1
41
1
41
1
41
1
41
1
41
1
41
1
41
1
41
1
41
1
41
1
41
1
41
1
41
1
41
1
41
1
41
1
41
1
41
1
41
1
41
1
41
1
41
1
41
1
41
1
41
1
41
1
41
1
41
1
41
1
41
1
41
1
41
1
41
1
41
1
41
1
41
1
41
1
41
1
41
1
41
1
41
1
10
0
20
-0.055000000000000049
30
0
10
0.03961050322569834
20
-0.05490189186537351
30
0
10
0.11892969515281987
20
-0.052709019281946552
30
0
10
0.23820303985758667
20
-0.043429725829090951
30
0
10
0.3978236602881105
20
-0.019069692271985489
30
0
10
0.5983064025744621
20
0.030500595987098471
30
0
10
0.79966556703860614
20
0.096530926932162531
30
0
10
1.0017371015559642
20
0.17364084907553334
30
0
10
1.2042443605390341
20
0.25278819592382801
30
0
10
1.4067698903465864
20
0.32036390775707724
30
0
10
1.6088461155191354
20
0.36182998923690946
30
0
10
1.8100455701091249
20
0.36534984397364556
30
0
10
2.0100701436689392
20
0.32536573758107634
30
0
10
2.2088438361894207
20
0.24635486055432002
30
0
10
2.4065967300169833
20
0.1461379484916665
30
0
10
2.6037504200899431
20
0.049134747758718303
30
0
10
2.8008122148327224
20
-0.019940613645445707
30
0
10
2.9982662020786037
20
-0.042558002841695877
30
0
10
3.1964660538687397
20
-0.012756533663380306
30
0
10
3.3955257685466833
20
0.056312048806639481
30
0
10
3.5953836666965384
20
0.14023382959062689
30
0
10
3.7958670714398064
20
0.21124208773082573
30
0
10
3.9967565345128686
20
0.24611978925452971
30
0
10
4.1978496888452268
20
0.23404253279738521
30
0
10
4.3990262414516383
20
0.18466504252285132
30
0
10
4.6002283002994071
20
0.12005515620778091
30
0
10
4.8014395540596828
20
0.066401499629429428
30
0
10
5.0026650357922247
20
0.045850048730425252
30
0
10
5.2039106338347052
20
0.068217555033465882
30
0
10
5.4051629563075725
20
0.1229060630525125
30
0
10
5.6063915495086132
20
0.18737379504957036
30
0
10
5.8075508155813607
20
0.23543464082882462
30
0
10
6.0085820362306706
20
0.24551615423979245
30
0
10
6.2094152306771031
20
0.20914668997484523
30
0
10
6.4099712913637781
20
0.13879895686553953
30
0
10
6.6101709536432089
20
0.059049281418318146
30
0
10
6.8099435453990056
20
-0.0016735306555752645
30
0
10
7.0092358034929427
20
-0.019454347275756147
30
0
10
7.2080208104444141
20
0.016577577580152963
30
0
10
7.4063066889998446
20
0.096342319083373346
30
0
10
7.6041380781312409
20
0.19678694040595551
30
0
10
7.801597967856333
20
0.28920335018045346
30
0
10
7.9988095334771225
20
0.34678275235555162
30
0
10
8.1959380453566482
20
0.35204676825063069
30
0
10
8.3931929940269487
20
0.30441204011384854
30
0
10
8.5908072951869769
20
0.21550893519061493
30
0
10
8.7890165220739149
20
0.10448577367795928
30
0
10
8.9880379165149691
20
-0.0066976327162546713
30
0
10
9.1880499630686465
20
-0.097866921070171295
30
0
10
9.3891702059898581
20
-0.15552865906098881
30
0
10
9.5914668793270064
20
-0.17171676605195421
30
0
10
9.7542712596009338
20
-0.14834670386223733
30
0
10
9.8769226247515434
20
-0.10983056151709941
30
0
10
9.9589336359228007
20
-0.074830596618111644
30
0
10
10
20
-0.055000000000000049
30
0
0
SPLINE
5
104
100
AcDbEntity
8
0
100
AcDbSpline
70
4
71
5
72
61
73
55
74
0
42
0.000000001
43
0.0000000001
44
0.0000000001
40
0
40
0
40
0
40
0
40
0
40
0
40
0.02
40
0.040000000000000001
40
0.059999999999999998
40
0.080000000000000002
40
0.10000000000000001
40
0.12000000000000001
40
0.14000000000000001
40
0.16
40
0.17999999999999999
40
0.19999999999999998
40
0.21999999999999997
40
0.23999999999999996
40
0.25999999999999995
40
0.27999999999999997
40
0.29999999999999999
40
0.32000000000000001
40
0.34000000000000002
40
0.36000000000000004
40
0.38000000000000006
40
0.40000000000000008
40
0.4200000000000001
40
0.44000000000000011
40
0.46000000000000013
40
0.48000000000000015
40
0.50000000000000011
40
0.52000000000000013
40
0.54000000000000015
40
0.56000000000000016
40
0.58000000000000018
40
0.6000000000000002
40
0.62000000000000022
40
0.64000000000000024
40
0.66000000000000025
40
0.68000000000000027
40
0.70000000000000029
40
0.72000000000000031
40
0.74000000000000032
40
0.76000000000000034
40
0.78000000000000036
40
0.80000000000000038
40
0.8200000000000004
40
0.84000000000000041
40
0.86000000000000043
40
0.88000000000000045
40
0.90000000000000047
40
0.92000000000000048
40
0.9400000000000005
40
0.96000000000000052
40
0.98000000000000054
40
1
40
1
40
1
40
1
40
1
40
1
41
1
41
1
41
1
41
1
41
1
41
1
41
1
41
1
41
1
41
1
41
1
41
1
41
1
41
1
41
1
41
1
41
1
41
1
41
1
41
1
41
1
41
1
41
1
41
1
41
1
41
1
41
1
41
1
41
1
41
1
41
1
41
1
41
1
41
1
41
1
41
1
41
1
41
1
41
1
41
1
41
1
41
1
41
1
41
1
41
1
41
1
41
1
41
1
41
1
41
1
41
1
41
1
41
1
41
1
41
1
10
0
20
3.0549999999999997
30
0
10
0.039932467745697489
20
3.037124485922873
30
0
10
0.11978677626288245
20
3.0036003152502011
30
0
10
0.23953635830777237
20
2.9599946254498937
30
0
10
0.39913866299829343
20
2.9152235969310696
30
0
10
0.59854248662137077
20
2.881243206977222
30
0
10
0.79786950598586093
20
2.8682597808659063
30
0
10
0.99716464055527232
20
2.8742306304759575
30
0
10
1.196503019398127
20
2.8956909728983584
30
0
10
1.3959981131771437
20
2.9273684433236475
30
0
10
1.5957693637028105
20
2.9630772324964689
30
0
10
1.7959093988476433
20
2.9966250027975612
30
0
10
1.9964511464435029
20
3.0227178828167296
30
0
10
2.1973353012640029
20
3.0378597039874764
30
0
10
2.3983761397571586
20
3.0412810080200261
30
0
10
2.5993253088035178
20
3.0340895801385774
30
0
10
2.7999370447915495
20
3.0183964921288933
30
0
10
3.0000328416515942
20
2.9964545822878481
30
0
10
3.199566456641306
20
2.9697935101426545
30
0
10
3.3986891931217804
20
2.9383539639964962
30
0
10
3.5976643610894818
20
2.9014233184610445
30
0
10
3.7967820786321975
20
2.858568231526657
30
0
10
3.9962736924991065
20
2.8105745380794795
30
0
10
4.1962271748655899
20
2.7603730981104633
30
0
10
4.396499273234177
20
2.7140146021138096
30
0
10
4.5968104097807103
20
2.6789027565149395
30
0
10
4.7968421242403174
20
2.6619893361582685
30
0
10
4.99633385364797
20
2.6679733801193239
30
0
10
5.195179041755309
20
2.6975158122740464
30
0
10
5.3935247299520928
20
2.7453759485676619
30
0
10
5.5916781095056356
20
2.8026928892400864
30
0
10
5.7900104817775633
20
2.8593197044262917
30
0
10
5.9888613586121586
20
2.9061596810676766
30
0
10
6.1884449369548946
20
2.9374406725704691
30
0
10
6.3887486478326991
20
2.953191394549167
30
0
10
6.5896004789056146
20
2.9574447112641309
30
0
10
6.7907447135768031
20
2.9562288753912891
30
0
10
6.9919148476274318
20
2.9556276354884234
30
0
10
7.1929063702406495
20
2.9598485719643017
30
0
10
7.3936530556045712
20
2.9691880251022793
30
0
10
7.5941893431279315
20
2.9812745244941681
30
0
10
7.7946085168396184
20
2.9924324862524627
30
0
10
7.9950224541383434
20
2.9990033479201692
30
0
10
8.1955211825374104
20
2.9986695517889479
30
0
10
8.3961314437781276
20
2.9918186790555739
30
0
10
8.5968326761872422
20
2.9807935389524616
30
0
10
8.7975742695482602
20
2.9690964620374931
30
0
10
8.9982922749186649
20
2.9606132787020183
30
0
10
9.1989262434002441
20
2.9588331293616643
30
0
10
9.3994361416616083
20
2.966062903972468
30
0
10
9.5997982661091221
20
2.9836657886427798
30
0
10
9.7599604605343355
20
3.0065783295683768
30
0
10
9.8800087423070764
20
3.0288226817999684
30
0
10
9.960008344961043
20
3.0458996593617833
30
0
10
10
20
3.0549999999999997
30
0
0
ENDSEC
0
SECTION
2
OBJECTS
0
DICTIONARY
5
C
100
AcDbDictionary
3
ACAD_GROUP
350
D
3
ACAD_MLINESTYLE
350
17
0
DICTIONARY
5
D
100
AcDbDictionary
0
DICTIONARY
5
1A
330
C
100
AcDbDictionary
0
DICTIONARY
5
17
100
AcDbDictionary
0
ENDSEC
0
EOF
