0
SECTION
2
HEADER
9
$INSUNITS
70
4
9
$ACADVER
1
AC1014
9
$HANDSEED
5
FFFF
0
ENDSEC
0
SECTION
2
TABLES
0
TABLE
2
VPORT
5
8
100
AcDbSymbolTable
0
ENDTAB
0
TABLE
2
LTYPE
5
5
100
AcDbSymbolTable
0
LTYPE
5
14
100
AcDbSymbolTableRecord
100
AcDbLinetypeTableRecord
2
BYBLOCK
70
0
0
LTYPE
5
15
100
AcDbSymbolTableRecord
100
AcDbLinetypeTableRecord
2
BYLAYER
70
0
0
ENDTAB
0
TABLE
2
LAYER
5
2
100
AcDbSymbolTable
70
2
0
LAYER
5
50
100
AcDbSymbolTableRecord
100
AcDbLayerTableRecord
2
0
70
0
6
CONTINUOUS
0
ENDTAB
0
TABLE
2
STYLE
5
3
100
AcDbSymbolTable
70
1
0
STYLE
5
11
100
AcDbSymbolTableRecord
100
AcDbTextStyleTableRecord
2
STANDARD
70
0
0
ENDTAB
0
TABLE
2
VIEW
5
6
100
AcDbSymbolTable
70
0
0
ENDTAB
0
TABLE
2
UCS
5
7
100
AcDbSymbolTable
70
0
0
ENDTAB
0
TABLE
2
APPID
5
9
100
AcDbSymbolTable
70
2
0
APPID
5
12
100
AcDbSymbolTableRecord
100
AcDbRegAppTableRecord
2
ACAD
70
0
0
ENDTAB
0
TABLE
2
DIMSTYLE
5
A
100
AcDbSymbolTable
70
1
0
ENDTAB
0
TABLE
2
BLOCK_RECORD
5
1
100
AcDbSymbolTable
70
1
0
BLOCK_RECORD
5
1F
100
AcDbSymbolTableRecord
100
AcDbBlockTableRecord
2
*MODEL_SPACE
0
BLOCK_RECORD
5
1B
100
AcDbSymbolTableRecord
100
AcDbBlockTableRecord
2
*PAPER_SPACE
0
ENDTAB
0
ENDSEC
0
SECTION
2
BLOCKS
0
BLOCK
5
20
100
AcDbEntity
100
AcDbBlockBegin
2
*MODEL_SPACE
0
ENDBLK
5
21
100
AcDbEntity
100
AcDbBlockEnd
0
BLOCK
5
1C
100
AcDbEntity
100
AcDbBlockBegin
2
*PAPER_SPACE
0
ENDBLK
5
1D
100
AcDbEntity
100
AcDbBlockEnd
0
ENDSEC
0
SECTION
2
ENTITIES
0
SPLINE
5
100
100
AcDbEntity
8
0
100
AcDbSpline
70
4
71
5
72
16
73
10
74
0
42
0.000000001
43
0.0000000001
44
0.0000000001
40
0
40
0
40
0
40
0
40
0
40
0
40
0.20000000000000001
40
0.40000000000000002
40
0.60000000000000009
40
0.80000000000000004
40
1
40
1
40
1
40
1
40
1
40
1
41
1
41
1
41
1
41
1
41
1
41
1
41
1
41
1
41
1
41
1
10
0
20
-0.055000000000000049
30
0
10
0
20
0.069400000000207365
30
0
10
0
20
0.31820000000056603
30
0
10
0
20
0.69140000000093593
30
0
10
0
20
1.1890000000011365
30
0
10
0
20
1.8110000000010393
30
0
10
0
20
2.3086000000007481
30
0
10
0
20
2.6818000000004227
30
0
10
0
20
2.9306000000001484
30
0
10
0
20
3.0549999999999997
30
0
0
SPLINE
5
101
100
AcDbEntity
8
0
100
AcDbSpline
70
4
71
5
72
16
73
10
74
0
42
0.000000001
43
0.0000000001
44
0.0000000001
40
0
40
0
40
0
40
0
40
0
40
0
40
0.20000000000000001
40
0.40000000000000002
40
0.60000000000000009
40
0.80000000000000004
40
1
40
1
40
1
40
1
40
1
40
1
41
1
41
1
41
1
41
1
41
1
41
1
41
1
41
1
41
1
41
1
10
10
20
-0.055000000000000049
30
0
10
9.9999999999997495
20
0.069400000000207365
30
0
10
9.9999999999993197
20
0.31820000000056603
30
0
10
9.9999999999989129
20
0.69140000000093593
30
0
10
9.9999999999987672
20
1.1890000000011365
30
0
10
9.9999999999990248
20
1.8110000000010393
30
0
10
9.9999999999993889
20
2.3086000000007481
30
0
10
9.9999999999996998
20
2.6818000000004227
30
0
10
9.9999999999999005
20
2.9306000000001484
30
0
10
10
20
3.0549999999999997
30
0
0
SPLINE
5
102
100
AcDbEntity
8
0
100
AcDbSpline
70
4
71
5
72
16
73
10
74
0
42
0.000000001
43
0.0000000001
44
0.0000000001
40
0
40
0
40
0
40
0
40
0
40
0
40
0.20000000000000001
40
0.40000000000000002
40
0.60000000000000009
40
0.80000000000000004
40
1
40
1
40
1
40
1
40
1
40
1
41
1
41
1
41
1
41
1
41
1
41
1
41
1
41
1
41
1
41
1
10
0
20
1.5274999999999999
30
0
10
0.40000000000047375
20
1.5274999999999856
30
0
10
1.2000000000012774
20
1.5274999999999614
30
0
10
2.4000000000020547
20
1.527499999999943
30
0
10
4.0000000000023546
20
1.5274999999999479
30
0
10
6.0000000000019584
20
1.5274999999999812
30
0
10
7.6000000000012928
20
1.5275000000000025
30
0
10
8.800000000000697
20
1.5275000000000083
30
0
10
9.6000000000002395
20
1.5275000000000039
30
0
10
10
20
1.5274999999999999
30
0
0
SPLINE
5
103
100
AcDbEntity
8
0
100
AcDbSpline
70
4
71
5
72
111
73
105
74
0
42
0.000000001
43
0.0000000001
44
0.0000000001
40
0
40
0
40
0
40
0
40
0
40
0
40
0.01
40
0.02
40
0.029999999999999999
40
0.040000000000000001
40
0.050000000000000003
40
0.060000000000000005
40
0.070000000000000007
40
0.080000000000000002
40
0.089999999999999997
40
0.099999999999999992
40
0.10999999999999999
40
0.11999999999999998
40
0.12999999999999998
40
0.13999999999999999
40
0.14999999999999999
40
0.16
40
0.17000000000000001
40
0.18000000000000002
40
0.19000000000000003
40
0.20000000000000004
40
0.21000000000000005
40
0.22000000000000006
40
0.23000000000000007
40
0.24000000000000007
40
0.25000000000000006
40
0.26000000000000006
40
0.27000000000000007
40
0.28000000000000008
40
0.29000000000000009
40
0.3000000000000001
40
0.31000000000000011
40
0.32000000000000012
40
0.33000000000000013
40
0.34000000000000014
40
0.35000000000000014
40
0.36000000000000015
40
0.37000000000000016
40
0.38000000000000017
40
0.39000000000000018
40
0.40000000000000019
40
0.4100000000000002
40
0.42000000000000021
40
0.43000000000000022
40
0.44000000000000022
40
0.45000000000000023
40
0.46000000000000024
40
0.47000000000000025
40
0.48000000000000026
40
0.49000000000000027
40
0.50000000000000022
40
0.51000000000000023
40
0.52000000000000024
40
0.53000000000000025
40
0.54000000000000026
40
0.55000000000000027
40
0.56000000000000028
40
0.57000000000000028
40
0.58000000000000029
40
0.5900000000000003
40
0.60000000000000031
40
0.61000000000000032
40
0.62000000000000033
40
0.63000000000000034
40
0.64000000000000035
40
0.65000000000000036
40
0.66000000000000036
40
0.67000000000000037
40
0.68000000000000038
40
0.69000000000000039
40
0.7000000000000004
40
0.71000000000000041
40
0.72000000000000042
40
0.73000000000000043
40
0.74000000000000044
40
0.75000000000000044
40
0.76000000000000045
40
0.77000000000000046
40
0.78000000000000047
40
0.79000000000000048
40
0.80000000000000049
40
0.8100000000000005
40
0.82000000000000051
40
0.83000000000000052
40
0.84000000000000052
40
0.85000000000000053
40
0.86000000000000054
40
0.87000000000000055
40
0.88000000000000056
40
0.89000000000000057
40
0.90000000000000058
40
0.91000000000000059
40
0.9200000000000006
40
0.9300000000000006
40
0.94000000000000061
40
0.95000000000000062
40
0.96000000000000063
40
0.97000000000000064
40
0.98000000000000065
40
0.99000000000000066
40
1
40
1
40
1
40
1
40
1
40
1
41
1
41
1
41
1
41
1
41
1
41
1
41
1
41
1
41
1
41
1
41
1
41
1
41
1
41
1
41
1
41
1
41
1
41
1
41
1
41
1
41
1
41
1
41
1
41
1
41
1
41
1
41
1
41
1
41
1
41
1
41
1
41
1
41
1
41
1
41
1
41
1
41
1
41
1
41
1
41
1
41
1
41
1
41
1
41
1
41
1
41
1
41
1
41
1
41
1
41
1
41
1
41
1
41
1
41
1
41
1
41
1
41
1
41
1
41
1
41
1
41
1
41
1
41
1
41
1
41
1
41
1
41
1
41
1
41
1
41
1
41
1
41
1
41
1
41
1
41
1
41
1
41
1
41
1
41
1
41
1
41
1
41
1
41
1
41
1
41
1
41
1
41
1
41
1
41
1
41
1
41
1
41
1
41
1
41
1
41
1
41
1
41
1
41
1
41
1
41
1
41
1
41
1
41
1
41
1
41
1
10
0
20
-0.055000000000000049
30
0
10
0.019643418136896688
20
-0.038135635120699604
30
0
10
0.059007876008694803
20
-0.006839446961941993
30
0
10
0.11828742771831674
20
0.032807207677720912
30
0
10
0.19779263471338379
20
0.071071806185907083
30
0
10
0.29792830519083374
20
0.095154993017789541
30
0
10
0.39875081145513391
20
0.097260504839798284
30
0
10
0.50012492879704196
20
0.080946064131788023
30
0
10
0.6018246345763254
20
0.052160796479328475
30
0
10
0.70351044956234798
20
0.019842572484386832
30
0
10
0.80480708384036304
20
-0.0060887593081965386
30
0
10
0.9053814317719735
20
-0.016747185373064136
30
0
10
1.0050193764699022
20
-0.006265365185122578
30
0
10
1.1037056515121249
20
0.026141118935022654
30
0
10
1.2016954994663942
20
0.074322752545904786
30
0
10
1.2994042208839562
20
0.12807943785866699
30
0
10
1.3973047057050203
20
0.17583607080702374
30
0
10
1.4958211694170411
20
0.20741757601894401
30
0
10
1.5952264516291685
20
0.21672966937105553
30
0
10
1.6955323439235586
20
0.20462551464795598
30
0
10
1.7965658443046941
20
0.17680502144236132
30
0
10
1.8980522370308046
20
0.14153170252461403
30
0
10
1.9996956378331259
20
0.10741712409395242
30
0
10
2.101260486615868
20
0.081180093228297251
30
0
10
2.2026529169370459
20
0.065408557260336314
30
0
10
2.3038821844450794
20
0.059608928022356053
30
0
10
2.4050215206924399
20
0.061269719774220265
30
0
10
2.5061696367913515
20
0.066910161287159528
30
0
10
2.607411095421563
20
0.07315283656583807
30
0
10
2.7087796617518696
20
0.077733051534153566
30
0
10
2.8102709582712682
20
0.079434604049651233
30
0
10
2.9118526725332576
20
0.078087567336258296
30
0
10
3.0134754786988021
20
0.074530243944345653
30
0
10
3.1150840802433519
20
0.070617590274778888
30
0
10
3.2166269178633407
20
0.069121967960503919
30
0
10
3.3180554895546202
20
0.072942963940472214
30
0
10
3.4193245897878386
20
0.084363469488922066
30
0
10
3.5203925444180402
20
0.10433670616547187
30
0
10
3.621220635535551
20
0.13164445104302172
30
0
10
3.7217753103665525
20
0.16245732848779204
30
0
10
3.82204138244296
20
0.19159015191748557
30
0
10
3.9220344947322601
20
0.21353120403726172
30
0
10
4.0218121321287521
20
0.22351715763309477
30
0
10
4.1214894159544899
20
0.21868819989017865
30
0
10
4.2212402673895957
20
0.19890403567360754
30
0
10
4.3212447180133671
20
0.16618450679619939
30
0
10
4.4216427433548784
20
0.12437640899391753
30
0
10
4.5224892440534195
20
0.078710206741326741
30
0
10
4.6236997211501913
20
0.03545828102591761
30
0
10
4.7250267591712527
20
0.0013881623102314951
30
0
10
4.8261495930101228
20
-0.017413971806778512
30
0
10
4.9267481211589672
20
-0.016675208053374812
30
0
10
5.0265782188136896
20
0.0050219833220430474
30
0
10
5.1255578566205431
20
0.044901638636067505
30
0
10
5.2238128541341169
20
0.095588999601073088
30
0
10
5.3216012702968758
20
0.14741245982861484
30
0
10
5.4192591371627827
20
0.19025379282336685
30
0
10
5.5171388985537426
20
0.21550665660141366
30
0
10
5.6155484481287745
20
0.21815306729966022
30
0
10
5.7146975541603222
20
0.19830098957335629
30
0
10
5.8146915743107943
20
0.15982530353453989
30
0
10
5.9155176153489331
20
0.10939312762508006
30
0
10
6.0170359336635499
20
0.05533817567434951
30
0
10
6.1189634525085328
20
0.0066092629678188219
30
0
10
6.220877039722442
20
-0.028334803969975446
30
0
10
6.3223145413127249
20
-0.042670901405646736
30
0
10
6.4228664944815037
20
-0.032416726318974215
30
0
10
6.5222655326607981
20
0.0025089935639451078
30
0
10
6.6204908158744447
20
0.05687177884868394
30
0
10
6.7178232337979384
20
0.11974692199527402
30
0
10
6.8147154256366562
20
0.17796005891927008
30
0
10
6.9116898732344723
20
0.21897219472088697
30
0
10
7.0092281966918604
20
0.23389664509276042
30
0
10
7.1076591976276235
20
0.2206616889926338
30
0
10
7.2070617274689139
20
0.18654069011939634
30
0
10
7.3073401173714858
20
0.14387438509133774
30
0
10
7.4082863305859625
20
0.10628072918976939
30
0
10
7.509646050349323
20
0.084780791735234479
30
0
10
7.6111854943419956
20
0.083725568632587247
30
0
10
7.7127508917566114
20
0.097473448813205382
30
0
10
7.8142429968507665
20
0.11499863150756895
30
0
10
7.9155979393620335
20
0.1239739092892938
30
0
10
8.0167664351341781
20
0.11486464505868685
30
0
10
8.1176919458287049
20
0.085457320855180069
30
0
10
8.2182945301803443
20
0.043904779731146128
30
0
10
8.3184879106432614
20
0.0036252487339031468
30
0
10
8.4181925837524734
20
-0.020880260281821387
30
0
10
8.5173500518284087
20
-0.018371130389769522
30
0
10
8.6159375669290696
20
0.014402434706905425
30
0
10
8.7139797506891465
20
0.069489268916831576
30
0
10
8.8115426038853748
20
0.13262240512280266
30
0
10
8.9087298755530107
20
0.18707448105486271
30
0
10
9.0056784718238472
20
0.21786198111974658
30
0
10
9.1025544612779328
20
0.21591476795811199
30
0
10
9.1995483816693149
20
0.18194201355792752
30
0
10
9.2968605824377004
20
0.12348015932609131
30
0
10
9.394687124309181
20
0.052304315883529816
30
0
10
9.4932052906688043
20
-0.018320703049592376
30
0
10
9.592559665379035
20
-0.076259812510791156
30
0
10
9.6928468305891151
20
-0.11334466185507154
30
0
10
9.7941241108648249
20
-0.12471593144266928
30
0
10
9.875960710974228
20
-0.11129857380710864
30
0
10
9.937800561167963
20
-0.088212984108067952
30
0
10
9.9792326072372539
20
-0.067035501115454546
30
0
10
10
20
-0.055000000000000049
30
0
0
SPLINE
5
104
100
AcDbEntity
8
0
100
AcDbSpline
70
4
71
5
72
111
73
105
74
0
42
0.000000001
43
0.0000000001
44
0.0000000001
40
0
40
0
40
0
40
0
40
0
40
0
40
0.01
40
0.02
40
0.029999999999999999
40
0.040000000000000001
40
0.050000000000000003
40
0.060000000000000005
40
0.070000000000000007
40
0.080000000000000002
40
0.089999999999999997
40
0.099999999999999992
40
0.10999999999999999
40
0.11999999999999998
40
0.12999999999999998
40
0.13999999999999999
40
0.14999999999999999
40
0.16
40
0.17000000000000001
40
0.18000000000000002
40
0.19000000000000003
40
0.20000000000000004
40
0.21000000000000005
40
0.22000000000000006
40
0.23000000000000007
40
0.24000000000000007
40
0.25000000000000006
40
0.26000000000000006
40
0.27000000000000007
40
0.28000000000000008
40
0.29000000000000009
40
0.3000000000000001
40
0.31000000000000011
40
0.32000000000000012
40
0.33000000000000013
40
0.34000000000000014
40
0.35000000000000014
40
0.36000000000000015
40
0.37000000000000016
40
0.38000000000000017
40
0.39000000000000018
40
0.40000000000000019
40
0.4100000000000002
40
0.42000000000000021
40
0.43000000000000022
40
0.44000000000000022
40
0.45000000000000023
40
0.46000000000000024
40
0.47000000000000025
40
0.48000000000000026
40
0.49000000000000027
40
0.50000000000000022
40
0.51000000000000023
40
0.52000000000000024
40
0.53000000000000025
40
0.54000000000000026
40
0.55000000000000027
40
0.56000000000000028
40
0.57000000000000028
40
0.58000000000000029
40
0.5900000000000003
40
0.60000000000000031
40
0.61000000000000032
40
0.62000000000000033
40
0.63000000000000034
40
0.64000000000000035
40
0.65000000000000036
40
0.66000000000000036
40
0.67000000000000037
40
0.68000000000000038
40
0.69000000000000039
40
0.7000000000000004
40
0.71000000000000041
40
0.72000000000000042
40
0.73000000000000043
40
0.74000000000000044
40
0.75000000000000044
40
0.76000000000000045
40
0.77000000000000046
40
0.78000000000000047
40
0.79000000000000048
40
0.80000000000000049
40
0.8100000000000005
40
0.82000000000000051
40
0.83000000000000052
40
0.84000000000000052
40
0.85000000000000053
40
0.86000000000000054
40
0.87000000000000055
40
0.88000000000000056
40
0.89000000000000057
40
0.90000000000000058
40
0.91000000000000059
40
0.9200000000000006
40
0.9300000000000006
40
0.94000000000000061
40
0.95000000000000062
40
0.96000000000000063
40
0.97000000000000064
40
0.98000000000000065
40
0.99000000000000066
40
1
40
1
40
1
40
1
40
1
40
1
41
1
41
1
41
1
41
1
41
1
41
1
41
1
41
1
41
1
41
1
41
1
41
1
41
1
41
1
41
1
41
1
41
1
41
1
41
1
41
1
41
1
41
1
41
1
41
1
41
1
41
1
41
1
41
1
41
1
41
1
41
1
41
1
41
1
41
1
41
1
41
1
41
1
41
1
41
1
41
1
41
1
41
1
41
1
41
1
41
1
41
1
41
1
41
1
41
1
41
1
41
1
41
1
41
1
41
1
41
1
41
1
41
1
41
1
41
1
41
1
41
1
41
1
41
1
41
1
41
1
41
1
41
1
41
1
41
1
41
1
41
1
41
1
41
1
41
1
41
1
41
1
41
1
41
1
41
1
41
1
41
1
41
1
41
1
41
1
41
1
41
1
41
1
41
1
41
1
41
1
41
1
41
1
41
1
41
1
41
1
41
1
41
1
41
1
41
1
41
1
41
1
41
1
41
1
41
1
41
1
10
0
20
3.0549999999999997
30
0
10
0.01930648051489408
20
3.0374108346115536
30
0
10
0.058005205441816754
20
3.0043464322659919
30
0
10
0.11631058320320417
20
2.9610915795433446
30
0
10
0.19456576286254593
20
2.9161043085417573
30
0
10
0.29322813601817616
20
2.8806231257409953
30
0
10
0.39269009088143508
20
2.8647089394414698
30
0
10
0.49286296696970833
20
2.8659640170940799
30
0
10
0.5935991983490313
20
2.8803981920557362
30
0
10
0.69467460496130273
20
2.9019529326212705
30
0
10
0.79583268907816873
20
2.9236466546920195
30
0
10
0.89683298467768124
20
2.9388263490725137
30
0
10
0.99749827898333665
20
2.9423888211711064
30
0
10
1.0977615720671559
20
2.9319970441447962
30
0
10
1.197715327519395
20
2.909351004046826
30
0
10
1.2975507651211986
20
2.8788159760961167
30
0
10
1.3974946457606889
20
2.845990286872353
30
0
10
1.4977467331212764
20
2.8162902209316396
30
0
10
1.5984176150178042
20
2.7935422808656845
30
0
10
1.6994645269575956
20
2.7785317085066383
30
0
10
1.8007424164410399
20
2.7701208345017796
30
0
10
1.9020574578492024
20
2.7664239423508281
30
0
10
2.0032192611698187
20
2.7659493731008684
30
0
10
2.1040944530047816
20
2.7687812828247411
30
0
10
2.2046573897337614
20
2.7776736369085793
30
0
10
2.3049488685137258
20
2.7963305569123396
30
0
10
2.405037066548906
20
2.8277481145415031
30
0
10
2.5049782012662321
20
2.8725616771116025
30
0
10
2.6047760898076233
20
2.9273232019652577
30
0
10
2.7043455893892565
20
2.9829931651771928
30
0
10
2.8035619702007688
20
3.0281083352660092
30
0
10
2.9023066453470534
20
3.0517518987250272
30
0
10
3.0005142378482375
20
3.0465959687556503
30
0
10
3.0982191811704771
20
3.0119196123397156
30
0
10
3.1956023597403509
20
2.956627875107154
30
0
10
3.2929314921166712
20
2.8951614518891984
30
0
10
3.3905026356346459
20
2.8434889452624534
30
0
10
3.4885800241255533
20
2.8149684084745963
30
0
10
3.5873395334484073
20
2.816496565152407
30
0
10
3.686802737413335
20
2.8439104998474911
30
0
10
3.7868739326414333
20
2.8855424146716437
30
0
10
3.8873889716915357
20
2.9266873129289079
30
0
10
3.9881605938331264
20
2.95384578928845
30
0
10
4.089023492915981
20
2.9588278584528451
30
0
10
4.1898840590937416
20
2.9435399619108948
30
0
10
4.2907111912704341
20
2.9167895624837032
30
0
10
4.3915196515023043
20
2.8901337390701971
30
0
10
4.4923562387610056
20
2.8740047009621046
30
0
10
4.5932845119101371
20
2.8738693761647003
30
0
10
4.6943709209597806
20
2.8859659255002192
30
0
10
4.7956562276166705
20
2.9007817462842409
30
0
10
4.8971260333753284
20
2.9071151090352174
30
0
10
4.9986813702236015
20
2.8959365954886436
30
0
10
5.1001097200811527
20
2.864305500995683
30
0
10
5.2010543949624219
20
2.8193490335364872
30
0
10
5.3011155568656108
20
2.7741348362997305
30
0
10
5.3999523233501456
20
2.7434560156142132
30
0
10
5.497385488925155
20
2.7396199005654283
30
0
10
5.5934977948276341
20
2.7683053455941851
30
0
10
5.688741573971102
20
2.8241947138087156
30
0
10
5.7837891501694463
20
2.8947718275534577
30
0
10
5.8793792545942303
20
2.9642714447418683
30
0
10
5.9761587013455095
20
3.0177220506955638
30
0
10
6.0745403579804353
20
3.044602251216626
30
0
10
6.1745170686507311
20
3.0435589080787926
30
0
10
6.2757422875673861
20
3.0206730118879848
30
0
10
6.3776882820861438
20
2.9858507915611439
30
0
10
6.4797821919639631
20
2.9497438897345516
30
0
10
6.5815423504204107
20
2.9206784840017614
30
0
10
6.6827377510295403
20
2.9009848038027393
30
0
10
6.7833556322110624
20
2.8882319068310331
30
0
10
6.8835235634292502
20
2.8776079107189827
30
0
10
6.9834460149197186
20
2.8639659465414793
30
0
10
7.0833377683626182
20
2.8438710403740219
30
0
10
7.1833512245492583
20
2.8180106341768472
30
0
10
7.2835751074176134
20
2.7901336684620093
30
0
10
7.3840471620532488
20
2.7653508957761241
30
0
10
7.4847618805062925
20
2.7486166117151685
30
0
10
7.5856803491334643
20
2.7432317336964722
30
0
10
7.6867389994155459
20
2.7490805127067008
30
0
10
7.7878603095663115
20
2.7635261575364929
30
0
10
7.8889635086903755
20
2.7827415064998058
30
0
10
7.9899754489786279
20
2.8029107093572652
30
0
10
8.0908410460658153
20
2.821428173962524
30
0
10
8.1915348870844955
20
2.8382507404626613
30
0
10
8.2920582567073957
20
2.8550129716781174
30
0
10
8.3924346586239764
20
2.8739184082481568
30
0
10
8.4927059468124728
20
2.8966934972984415
30
0
10
8.5929280862753856
20
2.9235570505453983
30
0
10
8.6931674245597073
20
2.9520689076756641
30
0
10
8.7934903655386982
20
2.9782003590655197
30
0
10
8.8939526675035481
20
2.9975600477305635
30
0
10
8.9945887212168536
20
3.0065762680027825
30
0
10
9.0954011655364315
20
3.0036676821056973
30
0
10
9.1963494107290682
20
2.9905024477740345
30
0
10
9.297362650599446
20
2.9710863761058999
30
0
10
9.3983541132251407
20
2.9507392624196473
30
0
10
9.4992348653524648
20
2.9351118621334402
30
0
10
9.5999277591177457
20
2.9291890361557966
30
0
10
9.7003814387864189
20
2.936290534206369
30
0
10
9.8005652358044166
20
2.9583996473090663
30
0
10
9.8804841817348024
20
2.9888818171567824
30
0
10
9.9402928491040967
20
3.0190859462348012
30
0
10
9.9801072845982333
20
3.0424848467793355
30
0
10
10
20
3.0549999999999997
30
0
0
ENDSEC
0
SECTION
2
OBJECTS
0
DICTIONARY
5
C
100
AcDbDictionary
3
ACAD_GROUP
350
D
3
ACAD_MLINESTYLE
350
17
0
DICTIONARY
5
D
100
AcDbDictionary
0
DICTIONARY
5
1A
330
C
100
AcDbDictionary
0
DICTIONARY
5
17
100
AcDbDictionary
0
ENDSEC
0
EOF
