0
SECTION
2
HEADER
9
$INSUNITS
70
4
9
$ACADVER
1
AC1014
9
$HANDSEED
5
FFFF
0
ENDSEC
0
SECTION
2
TABLES
0
TABLE
2
VPORT
5
8
100
AcDbSymbolTable
0
ENDTAB
0
TABLE
2
LTYPE
5
5
100
AcDbSymbolTable
0
LTYPE
5
14
100
AcDbSymbolTableRecord
100
AcDbLinetypeTableRecord
2
BYBLOCK
70
0
0
LTYPE
5
15
100
AcDbSymbolTableRecord
100
AcDbLinetypeTableRecord
2
BYLAYER
70
0
0
ENDTAB
0
TABLE
2
LAYER
5
2
100
AcDbSymbolTable
70
2
0
LAYER
5
50
100
AcDbSymbolTableRecord
100
AcDbLayerTableRecord
2
0
70
0
6
CONTINUOUS
0
ENDTAB
0
TABLE
2
STYLE
5
3
100
AcDbSymbolTable
70
1
0
STYLE
5
11
100
AcDbSymbolTableRecord
100
AcDbTextStyleTableRecord
2
STANDARD
70
0
0
ENDTAB
0
TABLE
2
VIEW
5
6
100
AcDbSymbolTable
70
0
0
ENDTAB
0
TABLE
2
UCS
5
7
100
AcDbSymbolTable
70
0
0
ENDTAB
0
TABLE
2
APPID
5
9
100
AcDbSymbolTable
70
2
0
APPID
5
12
100
AcDbSymbolTableRecord
100
AcDbRegAppTableRecord
2
ACAD
70
0
0
ENDTAB
0
TABLE
2
DIMSTYLE
5
A
100
AcDbSymbolTable
70
1
0
ENDTAB
0
TABLE
2
BLOCK_RECORD
5
1
100
AcDbSymbolTable
70
1
0
BLOCK_RECORD
5
1F
100
AcDbSymbolTableRecord
100
AcDbBlockTableRecord
2
*MODEL_SPACE
0
BLOCK_RECORD
5
1B
100
AcDbSymbolTableRecord
100
AcDbBlockTableRecord
2
*PAPER_SPACE
0
ENDTAB
0
ENDSEC
0
SECTION
2
BLOCKS
0
BLOCK
5
20
100
AcDbEntity
100
AcDbBlockBegin
2
*MODEL_SPACE
0
ENDBLK
5
21
100
AcDbEntity
100
AcDbBlockEnd
0
BLOCK
5
1C
100
AcDbEntity
100
AcDbBlockBegin
2
*PAPER_SPACE
0
ENDBLK
5
1D
100
AcDbEntity
100
AcDbBlockEnd
0
ENDSEC
0
SECTION
2
ENTITIES
0
SPLINE
5
100
100
AcDbEntity
8
0
100
AcDbSpline
70
4
71
5
72
16
73
10
74
0
42
0.000000001
43
0.0000000001
44
0.0000000001
40
0
40
0
40
0
40
0
40
0
40
0
40
0.20000000000000001
40
0.40000000000000002
40
0.60000000000000009
40
0.80000000000000004
40
1
40
1
40
1
40
1
40
1
40
1
41
1
41
1
41
1
41
1
41
1
41
1
41
1
41
1
41
1
41
1
10
0
20
-0.055000000000000049
30
0
10
0
20
0.069400000000207365
30
0
10
0
20
0.31820000000056603
30
0
10
0
20
0.69140000000093593
30
0
10
0
20
1.1890000000011365
30
0
10
0
20
1.8110000000010393
30
0
10
0
20
2.3086000000007481
30
0
10
0
20
2.6818000000004227
30
0
10
0
20
2.9306000000001484
30
0
10
0
20
3.0549999999999997
30
0
0
SPLINE
5
101
100
AcDbEntity
8
0
100
AcDbSpline
70
4
71
5
72
16
73
10
74
0
42
0.000000001
43
0.0000000001
44
0.0000000001
40
0
40
0
40
0
40
0
40
0
40
0
40
0.20000000000000001
40
0.40000000000000002
40
0.60000000000000009
40
0.80000000000000004
40
1
40
1
40
1
40
1
40
1
40
1
41
1
41
1
41
1
41
1
41
1
41
1
41
1
41
1
41
1
41
1
10
10
20
-0.055000000000000049
30
0
10
9.9999999999997495
20
0.069400000000207365
30
0
10
9.9999999999993197
20
0.31820000000056603
30
0
10
9.9999999999989129
20
0.69140000000093593
30
0
10
9.9999999999987672
20
1.1890000000011365
30
0
10
9.9999999999990248
20
1.8110000000010393
30
0
10
9.9999999999993889
20
2.3086000000007481
30
0
10
9.9999999999996998
20
2.6818000000004227
30
0
10
9.9999999999999005
20
2.9306000000001484
30
0
10
10
20
3.0549999999999997
30
0
0
SPLINE
5
102
100
AcDbEntity
8
0
100
AcDbSpline
70
4
71
5
72
16
73
10
74
0
42
0.000000001
43
0.0000000001
44
0.0000000001
40
0
40
0
40
0
40
0
40
0
40
0
40
0.20000000000000001
40
0.40000000000000002
40
0.60000000000000009
40
0.80000000000000004
40
1
40
1
40
1
40
1
40
1
40
1
41
1
41
1
41
1
41
1
41
1
41
1
41
1
41
1
41
1
41
1
10
0
20
1.5274999999999999
30
0
10
0.40000000000047375
20
1.5274999999999856
30
0
10
1.2000000000012774
20
1.5274999999999614
30
0
10
2.4000000000020547
20
1.527499999999943
30
0
10
4.0000000000023546
20
1.5274999999999479
30
0
10
6.0000000000019584
20
1.5274999999999812
30
0
10
7.6000000000012928
20
1.5275000000000025
30
0
10
8.800000000000697
20
1.5275000000000083
30
0
10
9.6000000000002395
20
1.5275000000000039
30
0
10
10
20
1.5274999999999999
30
0
0
SPLINE
5
103
100
AcDbEntity
8
0
100
AcDbSpline
70
4
71
5
72
111
73
105
74
0
42
0.000000001
43
0.0000000001
44
0.0000000001
40
0
40
0
40
0
40
0
40
0
40
0
40
0.01
40
0.02
40
0.029999999999999999
40
0.040000000000000001
40
0.050000000000000003
40
0.060000000000000005
40
0.070000000000000007
40
0.080000000000000002
40
0.089999999999999997
40
0.099999999999999992
40
0.10999999999999999
40
0.11999999999999998
40
0.12999999999999998
40
0.13999999999999999
40
0.14999999999999999
40
0.16
40
0.17000000000000001
40
0.18000000000000002
40
0.19000000000000003
40
0.20000000000000004
40
0.21000000000000005
40
0.22000000000000006
40
0.23000000000000007
40
0.24000000000000007
40
0.25000000000000006
40
0.26000000000000006
40
0.27000000000000007
40
0.28000000000000008
40
0.29000000000000009
40
0.3000000000000001
40
0.31000000000000011
40
0.32000000000000012
40
0.33000000000000013
40
0.34000000000000014
40
0.35000000000000014
40
0.36000000000000015
40
0.37000000000000016
40
0.38000000000000017
40
0.39000000000000018
40
0.40000000000000019
40
0.4100000000000002
40
0.42000000000000021
40
0.43000000000000022
40
0.44000000000000022
40
0.45000000000000023
40
0.46000000000000024
40
0.47000000000000025
40
0.48000000000000026
40
0.49000000000000027
40
0.50000000000000022
40
0.51000000000000023
40
0.52000000000000024
40
0.53000000000000025
40
0.54000000000000026
40
0.55000000000000027
40
0.56000000000000028
40
0.57000000000000028
40
0.58000000000000029
40
0.5900000000000003
40
0.60000000000000031
40
0.61000000000000032
40
0.62000000000000033
40
0.63000000000000034
40
0.64000000000000035
40
0.65000000000000036
40
0.66000000000000036
40
0.67000000000000037
40
0.68000000000000038
40
0.69000000000000039
40
0.7000000000000004
40
0.71000000000000041
40
0.72000000000000042
40
0.73000000000000043
40
0.74000000000000044
40
0.75000000000000044
40
0.76000000000000045
40
0.77000000000000046
40
0.78000000000000047
40
0.79000000000000048
40
0.80000000000000049
40
0.8100000000000005
40
0.82000000000000051
40
0.83000000000000052
40
0.84000000000000052
40
0.85000000000000053
40
0.86000000000000054
40
0.87000000000000055
40
0.88000000000000056
40
0.89000000000000057
40
0.90000000000000058
40
0.91000000000000059
40
0.9200000000000006
40
0.9300000000000006
40
0.94000000000000061
40
0.95000000000000062
40
0.96000000000000063
40
0.97000000000000064
40
0.98000000000000065
40
0.99000000000000066
40
1
40
1
40
1
40
1
40
1
40
1
41
1
41
1
41
1
41
1
41
1
41
1
41
1
41
1
41
1
41
1
41
1
41
1
41
1
41
1
41
1
41
1
41
1
41
1
41
1
41
1
41
1
41
1
41
1
41
1
41
1
41
1
41
1
41
1
41
1
41
1
41
1
41
1
41
1
41
1
41
1
41
1
41
1
41
1
41
1
41
1
41
1
41
1
41
1
41
1
41
1
41
1
41
1
41
1
41
1
41
1
41
1
41
1
41
1
41
1
41
1
41
1
41
1
41
1
41
1
41
1
41
1
41
1
41
1
41
1
41
1
41
1
41
1
41
1
41
1
41
1
41
1
41
1
41
1
41
1
41
1
41
1
41
1
41
1
41
1
41
1
41
1
41
1
41
1
41
1
41
1
41
1
41
1
41
1
41
1
41
1
41
1
41
1
41
1
41
1
41
1
41
1
41
1
41
1
41
1
41
1
41
1
41
1
41
1
41
1
41
1
10
0
20
-0.055000000000000049
30
0
10
0.020227196597102211
20
-0.054498290794356044
30
0
10
0.060682721581469506
20
-0.05243230913285396
30
0
10
0.12136940443881025
20
-0.046145599130970355
30
0
10
0.20229177335783693
20
-0.031387219711351957
30
0
10
0.30345731157233147
20
-0.0027493010195704078
30
0
10
0.40463918704579133
20
0.03474957659373705
30
0
10
0.50584491659160058
20
0.078456552715614331
30
0
10
0.60708701901265594
20
0.12391224237307306
30
0
10
0.70838427930266401
20
0.16450243980551424
30
0
10
0.809762032558346
20
0.19334112637335363
30
0
10
0.9112528326457443
20
0.2050917481522942
30
0
10
1.0128963155481734
20
0.19771907556748941
30
0
10
1.1147409517070912
20
0.1744895588303379
30
0
10
1.2168405865361818
20
0.14523998500171778
30
0
10
1.3192168335458909
20
0.12240354822394162
30
0
10
1.4218224603724723
20
0.11742335623839861
30
0
10
1.5245091638259014
20
0.1372887153825228
30
0
10
1.6269821105421038
20
0.18037847627521056
30
0
10
1.7287949791882093
20
0.23457294421726121
30
0
10
1.8294776196889193
20
0.2829767615434533
30
0
10
1.9286461642884731
20
0.30854064876177484
30
0
10
2.0261110121468393
20
0.29878163108506239
30
0
10
2.1220072911179471
20
0.25125296889963222
30
0
10
2.2168479267313037
20
0.17619793108218978
30
0
10
2.3113468776561903
20
0.090729844872611057
30
0
10
2.4062832934119021
20
0.014525558059055903
30
0
10
2.5023504200978812
20
-0.035048654697701367
30
0
10
2.6000090051828559
20
-0.047635277988654606
30
0
10
2.6993441636425572
20
-0.024479934766559623
30
0
10
2.8001691870089083
20
0.025172648372095353
30
0
10
2.9021229671810129
20
0.087468950537093554
30
0
10
3.004768972017533
20
0.14739065381808744
30
0
10
3.1076951724524768
20
0.19222891148143123
30
0
10
3.2106088292477173
20
0.21489217275318545
30
0
10
3.3133094136995678
20
0.21307931881643596
30
0
10
3.4156658937812781
20
0.1886373756663384
30
0
10
3.5175937087630982
20
0.14682540152493451
30
0
10
3.6190289260341899
20
0.095684140694128131
30
0
10
3.7199124616297734
20
0.045175805939265054
30
0
10
3.8202251109398162
20
0.0052861823766288465
30
0
10
3.9200181118076993
20
-0.015803713147036109
30
0
10
4.0194413412251766
20
-0.013448422703479682
30
0
10
4.1187823029511801
20
0.011393386339759223
30
0
10
4.2184714010304605
20
0.051118780830076642
30
0
10
4.3189444799234078
20
0.094889395271008287
30
0
10
4.4205198655386884
20
0.13149544459280715
30
0
10
4.5232814811717716
20
0.15225341166901568
30
0
10
4.6269314951203802
20
0.15430946206946208
30
0
10
4.7307407978572611
20
0.14248244179550124
30
0
10
4.833839686810081
20
0.12580210036627276
30
0
10
4.9354679523068468
20
0.1148062221653767
30
0
10
5.0352121108522399
20
0.11873633941541208
30
0
10
5.1333169971559265
20
0.14231123241865157
30
0
10
5.2307348486961116
20
0.18425087021746031
30
0
10
5.3286779379685312
20
0.23927609196011562
30
0
10
5.4282634252638919
20
0.29935627775388574
30
0
10
5.5301556920289494
20
0.35523255523562702
30
0
10
5.6341275130592026
20
0.39787922058364072
30
0
10
5.7389201737359352
20
0.41980119334787935
30
0
10
5.8428349124162704
20
0.41569856201298222
30
0
10
5.9442043989698901
20
0.38333533153628463
30
0
10
6.0418623381011756
20
0.32417207769789436
30
0
10
6.1357334787743003
20
0.24447935026199905
30
0
10
6.2269406341390923
20
0.15488216512584274
30
0
10
6.3172267499546431
20
0.067760371966547522
30
0
10
6.4085446078233357
20
-0.0048333639827574945
30
0
10
6.502582710079718
20
-0.053444706023253449
30
0
10
6.6003093395306633
20
-0.073456472640238663
30
0
10
6.70153360276987
20
-0.067212481918336189
30
0
10
6.8053094690538076
20
-0.041720157937549865
30
0
10
6.9103165546007688
20
-0.0064754335328286519
30
0
10
7.0152379284669397
20
0.028705278661848875
30
0
10
7.1191658352199756
20
0.05597454190370682
30
0
10
7.2219171891761871
20
0.071340893993681986
30
0
10
7.3237655939225652
20
0.073878191988739864
30
0
10
7.4252318095034751
20
0.065243913368096651
30
0
10
7.5268642084833894
20
0.049054916126074828
30
0
10
7.6289945218814967
20
0.030384771739338668
30
0
10
7.7315956702557624
20
0.015027514433692622
30
0
10
7.8344460524285715
20
0.0082469592776160186
30
0
10
7.937244184592366
20
0.013522436166609076
30
0
10
8.0397311427187663
20
0.031489848728822573
30
0
10
8.141837849529324
20
0.058331184656516905
30
0
10
8.2437239257856394
20
0.086013092571133737
30
0
10
8.3456377000495081
20
0.10539952678034764
30
0
10
8.4478119129631786
20
0.10886308611077439
30
0
10
8.550358304533308
20
0.092741211644483054
30
0
10
8.6531302954148845
20
0.060731923683571776
30
0
10
8.755724931833587
20
0.023505628070947637
30
0
10
8.8576300172567475
20
-0.0055623133623176621
30
0
10
8.9583374020418898
20
-0.013780406096352293
30
0
10
9.0574582685045275
20
0.0074777347253023214
30
0
10
9.1548668493770435
20
0.058480663339347753
30
0
10
9.2507032901395085
20
0.13122486404300321
30
0
10
9.3452729745606327
20
0.21271997822500976
30
0
10
9.438974489559893
20
0.28739636034436167
30
0
10
9.5322203227565296
20
0.33972008732943931
30
0
10
9.6253499640726758
20
0.3570847376866253
30
0
10
9.7185824185944494
20
0.33135197771709263
30
0
10
9.8120514802144747
20
0.25757342301556513
30
0
10
9.8870686276700521
20
0.1581772416577098
30
0
10
9.943477541700398
20
0.060558764321923933
30
0
10
9.9811483661581022
20
-0.014771790379376183
30
0
10
10
20
-0.055000000000000049
30
0
0
SPLINE
5
104
100
AcDbEntity
8
0
100
AcDbSpline
70
4
71
5
72
111
73
105
74
0
42
0.000000001
43
0.0000000001
44
0.0000000001
40
0
40
0
40
0
40
0
40
0
40
0
40
0.01
40
0.02
40
0.029999999999999999
40
0.040000000000000001
40
0.050000000000000003
40
0.060000000000000005
40
0.070000000000000007
40
0.080000000000000002
40
0.089999999999999997
40
0.099999999999999992
40
0.10999999999999999
40
0.11999999999999998
40
0.12999999999999998
40
0.13999999999999999
40
0.14999999999999999
40
0.16
40
0.17000000000000001
40
0.18000000000000002
40
0.19000000000000003
40
0.20000000000000004
40
0.21000000000000005
40
0.22000000000000006
40
0.23000000000000007
40
0.24000000000000007
40
0.25000000000000006
40
0.26000000000000006
40
0.27000000000000007
40
0.28000000000000008
40
0.29000000000000009
40
0.3000000000000001
40
0.31000000000000011
40
0.32000000000000012
40
0.33000000000000013
40
0.34000000000000014
40
0.35000000000000014
40
0.36000000000000015
40
0.37000000000000016
40
0.38000000000000017
40
0.39000000000000018
40
0.40000000000000019
40
0.4100000000000002
40
0.42000000000000021
40
0.43000000000000022
40
0.44000000000000022
40
0.45000000000000023
40
0.46000000000000024
40
0.47000000000000025
40
0.48000000000000026
40
0.49000000000000027
40
0.50000000000000022
40
0.51000000000000023
40
0.52000000000000024
40
0.53000000000000025
40
0.54000000000000026
40
0.55000000000000027
40
0.56000000000000028
40
0.57000000000000028
40
0.58000000000000029
40
0.5900000000000003
40
0.60000000000000031
40
0.61000000000000032
40
0.62000000000000033
40
0.63000000000000034
40
0.64000000000000035
40
0.65000000000000036
40
0.66000000000000036
40
0.67000000000000037
40
0.68000000000000038
40
0.69000000000000039
40
0.7000000000000004
40
0.71000000000000041
40
0.72000000000000042
40
0.73000000000000043
40
0.74000000000000044
40
0.75000000000000044
40
0.76000000000000045
40
0.77000000000000046
40
0.78000000000000047
40
0.79000000000000048
40
0.80000000000000049
40
0.8100000000000005
40
0.82000000000000051
40
0.83000000000000052
40
0.84000000000000052
40
0.85000000000000053
40
0.86000000000000054
40
0.87000000000000055
40
0.88000000000000056
40
0.89000000000000057
40
0.90000000000000058
40
0.91000000000000059
40
0.9200000000000006
40
0.9300000000000006
40
0.94000000000000061
40
0.95000000000000062
40
0.96000000000000063
40
0.97000000000000064
40
0.98000000000000065
40
0.99000000000000066
40
1
40
1
40
1
40
1
40
1
40
1
41
1
41
1
41
1
41
1
41
1
41
1
41
1
41
1
41
1
41
1
41
1
41
1
41
1
41
1
41
1
41
1
41
1
41
1
41
1
41
1
41
1
41
1
41
1
41
1
41
1
41
1
41
1
41
1
41
1
41
1
41
1
41
1
41
1
41
1
41
1
41
1
41
1
41
1
41
1
41
1
41
1
41
1
41
1
41
1
41
1
41
1
41
1
41
1
41
1
41
1
41
1
41
1
41
1
41
1
41
1
41
1
41
1
41
1
41
1
41
1
41
1
41
1
41
1
41
1
41
1
41
1
41
1
41
1
41
1
41
1
41
1
41
1
41
1
41
1
41
1
41
1
41
1
41
1
41
1
41
1
41
1
41
1
41
1
41
1
41
1
41
1
41
1
41
1
41
1
41
1
41
1
41
1
41
1
41
1
41
1
41
1
41
1
41
1
41
1
41
1
41
1
41
1
41
1
41
1
41
1
10
0
20
3.0549999999999997
30
0
10
0.02158127254730163
20
3.0618867506896663
30
0
10
0.064480622305067056
20
3.0738941397169728
30
0
10
0.12804005417293801
20
3.0866068604930037
30
0
10
0.21120657923993102
20
3.0929589268346498
30
0
10
0.31258981637379191
20
3.083532313921947
30
0
10
0.41157399149874402
20
3.0576516322362801
30
0
10
0.50851091800756909
20
3.01714825381818
30
0
10
0.60399307333138563
20
2.9651030246172567
30
0
10
0.6988986971673643
20
2.9061028610423301
30
0
10
0.79419810783314737
20
2.845612224786858
30
0
10
0.89077899296426133
20
2.7894082008688166
30
0
10
0.989259542889389
20
2.7429875393209731
30
0
10
1.0898179543832938
20
2.7109952213500592
30
0
10
1.1919842649945769
20
2.6966173252507222
30
0
10
1.2948743681216881
20
2.7013568333688003
30
0
10
1.397469673914691
20
2.7248499120520768
30
0
10
1.498881310893535
20
2.7646630448055962
30
0
10
1.5986186519601868
20
2.8161048113691889
30
0
10
1.6968622651002783
20
2.8720083515629562
30
0
10
1.794233388230821
20
2.9241716852221531
30
0
10
1.8915583680682777
20
2.9648016973450932
30
0
10
1.9896305832851411
20
2.9879928263591253
30
0
10
2.0889839795984058
20
2.9911095142678574
30
0
10
2.1896333771588399
20
2.9764325139398933
30
0
10
2.291225792702543
20
2.9495840295105307
30
0
10
2.3932336116899218
20
2.91762802226555
30
0
10
2.4951345119070742
20
2.887268840365953
30
0
10
2.5965926663670347
20
2.863052236121177
30
0
10
2.6976511039933264
20
2.8454454006471424
30
0
10
2.7985906999485626
20
2.832332138756219
30
0
10
2.8997727347293645
20
2.8206754024981757
30
0
10
3.0014882516517112
20
2.8081095932725137
30
0
10
3.1038029350638525
20
2.7945811027698744
30
0
10
3.206408122669421
20
2.783919245766505
30
0
10
3.3087912594735651
20
2.7817778468144749
30
0
10
3.4104042744099754
20
2.7935946403907179
30
0
10
3.5108280309859294
20
2.8226083706934961
30
0
10
3.6099492421280162
20
2.8677019115069875
30
0
10
3.7081012091135683
20
2.9217456079042115
30
0
10
3.8058682263052104
20
2.9745817558042313
30
0
10
3.9039176896460406
20
3.0156286748234784
30
0
10
4.0028230545005012
20
3.0366076348974063
30
0
10
4.1028875508662441
20
3.0342687138207616
30
0
10
4.2039760491956759
20
3.0129806542151742
30
0
10
4.3056857562473114
20
2.9818209406329279
30
0
10
4.4075090614621164
20
2.9517968756542952
30
0
10
4.508995647286314
20
2.9330691214804334
30
0
10
4.6099232393395511
20
2.9320584503720424
30
0
10
4.7104410246815789
20
2.9489317942306981
30
0
10
4.8109009558325848
20
2.9795053681246033
30
0
10
4.9117087328867459
20
3.016842512556059
30
0
10
5.0131728444577304
20
3.0529398042924232
30
0
10
5.1153416380479042
20
3.0804344080362589
30
0
10
5.2178825321813873
20
3.0941264215166457
30
0
10
5.3202670066400293
20
3.0909725077472423
30
0
10
5.421928583407305
20
3.0702598683294697
30
0
10
5.5224222868348685
20
3.0336697643581285
30
0
10
5.6216043241363236
20
2.9854896340760111
30
0
10
5.7197393705530466
20
2.9324569393009621
30
0
10
5.8173302009463557
20
2.8822972859625677
30
0
10
5.9149892247726186
20
2.842443550161271
30
0
10
6.0132971524249399
20
2.818728477862547
30
0
10
6.1126590496648872
20
2.8139840975754238
30
0
10
6.2131852330956274
20
2.8269829003543889
30
0
10
6.3147638372094184
20
2.8537742937245665
30
0
10
6.4171123812680966
20
2.8887835013386463
30
0
10
6.5198377592156582
20
2.9259625468933321
30
0
10
6.6224915211180573
20
2.9600077853939282
30
0
10
6.7246300388298286
20
2.9872797639444943
30
0
10
6.8258836026450567
20
3.00533123911198
30
0
10
6.9260288357831881
20
3.0126164738852284
30
0
10
7.0250509214409709
20
3.0081639833978939
30
0
10
7.1232314665565868
20
2.9911863358267494
30
0
10
7.2211595092788432
20
2.9609631149573916
30
0
10
7.319508374247448
20
2.917590737753736
30
0
10
7.418846408005483
20
2.862617135483088
30
0
10
7.519447624603437
20
2.7996502588032945
30
0
10
7.6210709323696015
20
2.7351497398872873
30
0
10
7.7228469872970216
20
2.6786272312905517
30
0
10
7.8236425130525786
20
2.6402649129308244
30
0
10
7.9223644752412747
20
2.6288445769263995
30
0
10
8.0182718160305129
20
2.6496689973521201
30
0
10
8.1113214301105891
20
2.7022168028891076
30
0
10
8.2023872253543821
20
2.7787170400227539
30
0
10
8.2928493559782304
20
2.8672407385489684
30
0
10
8.3842759564175076
20
2.9541313556580584
30
0
10
8.4780559770115502
20
3.0267815743574724
30
0
10
8.5750829601298513
20
3.0760535146518415
30
0
10
8.6753384371652587
20
3.0993966609265833
30
0
10
8.7780806751808633
20
3.0997620764399074
30
0
10
8.8821897128326039
20
3.0834263154724697
30
0
10
8.9864657306649001
20
3.0581514376933727
30
0
10
9.0899323935453165
20
3.0312835679030465
30
0
10
9.1921763496802562
20
3.0076721168546099
30
0
10
9.2932447355628742
20
2.989966649604912
30
0
10
9.3934787189984998
20
2.9792632821131204
30
0
10
9.4933686185200568
20
2.975629934358675
30
0
10
9.5934031713788759
20
2.9786719345261718
30
0
10
9.6939129588938027
20
2.9881065100807276
30
0
10
9.795094309042323
20
3.0037671372816765
30
0
10
9.8766554175613717
20
3.0212064107674816
30
0
10
9.9381873087140047
20
3.0370345016273115
30
0
10
9.9793690271222975
20
3.0488079365126213
30
0
10
10
20
3.0549999999999997
30
0
0
ENDSEC
0
SECTION
2
OBJECTS
0
DICTIONARY
5
C
100
AcDbDictionary
3
ACAD_GROUP
350
D
3
ACAD_MLINESTYLE
350
17
0
DICTIONARY
5
D
100
AcDbDictionary
0
DICTIONARY
5
1A
330
C
100
AcDbDictionary
0
DICTIONARY
5
17
100
AcDbDictionary
0
ENDSEC
0
EOF
