0
SECTION
2
HEADER
9
$INSUNITS
70
4
9
$ACADVER
1
AC1014
9
$HANDSEED
5
FFFF
0
ENDSEC
0
SECTION
2
TABLES
0
TABLE
2
VPORT
5
8
100
AcDbSymbolTable
0
ENDTAB
0
TABLE
2
LTYPE
5
5
100
AcDbSymbolTable
0
LTYPE
5
14
100
AcDbSymbolTableRecord
100
AcDbLinetypeTableRecord
2
BYBLOCK
70
0
0
LTYPE
5
15
100
AcDbSymbolTableRecord
100
AcDbLinetypeTableRecord
2
BYLAYER
70
0
0
ENDTAB
0
TABLE
2
LAYER
5
2
100
AcDbSymbolTable
70
2
0
LAYER
5
50
100
AcDbSymbolTableRecord
100
AcDbLayerTableRecord
2
0
70
0
6
CONTINUOUS
0
ENDTAB
0
TABLE
2
STYLE
5
3
100
AcDbSymbolTable
70
1
0
STYLE
5
11
100
AcDbSymbolTableRecord
100
AcDbTextStyleTableRecord
2
STANDARD
70
0
0
ENDTAB
0
TABLE
2
VIEW
5
6
100
AcDbSymbolTable
70
0
0
ENDTAB
0
TABLE
2
UCS
5
7
100
AcDbSymbolTable
70
0
0
ENDTAB
0
TABLE
2
APPID
5
9
100
AcDbSymbolTable
70
2
0
APPID
5
12
100
AcDbSymbolTableRecord
100
AcDbRegAppTableRecord
2
ACAD
70
0
0
ENDTAB
0
TABLE
2
DIMSTYLE
5
A
100
AcDbSymbolTable
70
1
0
ENDTAB
0
TABLE
2
BLOCK_RECORD
5
1
100
AcDbSymbolTable
70
1
0
BLOCK_RECORD
5
1F
100
AcDbSymbolTableRecord
100
AcDbBlockTableRecord
2
*MODEL_SPACE
0
BLOCK_RECORD
5
1B
100
AcDbSymbolTableRecord
100
AcDbBlockTableRecord
2
*PAPER_SPACE
0
ENDTAB
0
ENDSEC
0
SECTION
2
BLOCKS
0
BLOCK
5
20
100
AcDbEntity
100
AcDbBlockBegin
2
*MODEL_SPACE
0
ENDBLK
5
21
100
AcDbEntity
100
AcDbBlockEnd
0
BLOCK
5
1C
100
AcDbEntity
100
AcDbBlockBegin
2
*PAPER_SPACE
0
ENDBLK
5
1D
100
AcDbEntity
100
AcDbBlockEnd
0
ENDSEC
0
SECTION
2
ENTITIES
0
SPLINE
5
100
100
AcDbEntity
8
0
100
AcDbSpline
70
4
71
5
72
16
73
10
74
0
42
0.000000001
43
0.0000000001
44
0.0000000001
40
0
40
0
40
0
40
0
40
0
40
0
40
0.20000000000000001
40
0.40000000000000002
40
0.60000000000000009
40
0.80000000000000004
40
1
40
1
40
1
40
1
40
1
40
1
41
1
41
1
41
1
41
1
41
1
41
1
41
1
41
1
41
1
41
1
10
0
20
-0.055000000000000049
30
0
10
0
20
0.069400000000207365
30
0
10
0
20
0.31820000000056603
30
0
10
0
20
0.69140000000093593
30
0
10
0
20
1.1890000000011365
30
0
10
0
20
1.8110000000010393
30
0
10
0
20
2.3086000000007481
30
0
10
0
20
2.6818000000004227
30
0
10
0
20
2.9306000000001484
30
0
10
0
20
3.0549999999999997
30
0
0
SPLINE
5
101
100
AcDbEntity
8
0
100
AcDbSpline
70
4
71
5
72
16
73
10
74
0
42
0.000000001
43
0.0000000001
44
0.0000000001
40
0
40
0
40
0
40
0
40
0
40
0
40
0.20000000000000001
40
0.40000000000000002
40
0.60000000000000009
40
0.80000000000000004
40
1
40
1
40
1
40
1
40
1
40
1
41
1
41
1
41
1
41
1
41
1
41
1
41
1
41
1
41
1
41
1
10
10
20
-0.055000000000000049
30
0
10
9.9999999999997495
20
0.069400000000207365
30
0
10
9.9999999999993197
20
0.31820000000056603
30
0
10
9.9999999999989129
20
0.69140000000093593
30
0
10
9.9999999999987672
20
1.1890000000011365
30
0
10
9.9999999999990248
20
1.8110000000010393
30
0
10
9.9999999999993889
20
2.3086000000007481
30
0
10
9.9999999999996998
20
2.6818000000004227
30
0
10
9.9999999999999005
20
2.9306000000001484
30
0
10
10
20
3.0549999999999997
30
0
0
SPLINE
5
102
100
AcDbEntity
8
0
100
AcDbSpline
70
4
71
5
72
16
73
10
74
0
42
0.000000001
43
0.0000000001
44
0.0000000001
40
0
40
0
40
0
40
0
40
0
40
0
40
0.20000000000000001
40
0.40000000000000002
40
0.60000000000000009
40
0.80000000000000004
40
1
40
1
40
1
40
1
40
1
40
1
41
1
41
1
41
1
41
1
41
1
41
1
41
1
41
1
41
1
41
1
10
0
20
1.5274999999999999
30
0
10
0.40000000000047375
20
1.5274999999999856
30
0
10
1.2000000000012774
20
1.5274999999999614
30
0
10
2.4000000000020547
20
1.527499999999943
30
0
10
4.0000000000023546
20
1.5274999999999479
30
0
10
6.0000000000019584
20
1.5274999999999812
30
0
10
7.6000000000012928
20
1.5275000000000025
30
0
10
8.800000000000697
20
1.5275000000000083
30
0
10
9.6000000000002395
20
1.5275000000000039
30
0
10
10
20
1.5274999999999999
30
0
0
SPLINE
5
103
100
AcDbEntity
8
0
100
AcDbSpline
70
4
71
5
72
61
73
55
74
0
42
0.000000001
43
0.0000000001
44
0.0000000001
40
0
40
0
40
0
40
0
40
0
40
0
40
0.02
40
0.040000000000000001
40
0.059999999999999998
40
0.080000000000000002
40
0.10000000000000001
40
0.12000000000000001
40
0.14000000000000001
40
0.16
40
0.17999999999999999
40
0.19999999999999998
40
0.21999999999999997
40
0.23999999999999996
40
0.25999999999999995
40
0.27999999999999997
40
0.29999999999999999
40
0.32000000000000001
40
0.34000000000000002
40
0.36000000000000004
40
0.38000000000000006
40
0.40000000000000008
40
0.4200000000000001
40
0.44000000000000011
40
0.46000000000000013
40
0.48000000000000015
40
0.50000000000000011
40
0.52000000000000013
40
0.54000000000000015
40
0.56000000000000016
40
0.58000000000000018
40
0.6000000000000002
40
0.62000000000000022
40
0.64000000000000024
40
0.66000000000000025
40
0.68000000000000027
40
0.70000000000000029
40
0.72000000000000031
40
0.74000000000000032
40
0.76000000000000034
40
0.78000000000000036
40
0.80000000000000038
40
0.8200000000000004
40
0.84000000000000041
40
0.86000000000000043
40
0.88000000000000045
40
0.90000000000000047
40
0.92000000000000048
40
0.9400000000000005
40
0.96000000000000052
40
0.98000000000000054
40
1
40
1
40
1
40
1
40
1
40
1
41
1
41
1
41
1
41
1
41
1
41
1
41
1
41
1
41
1
41
1
41
1
41
1
41
1
41
1
41
1
41
1
41
1
41
1
41
1
41
1
41
1
41
1
41
1
41
1
41
1
41
1
41
1
41
1
41
1
41
1
41
1
41
1
41
1
41
1
41
1
41
1
41
1
41
1
41
1
41
1
41
1
41
1
41
1
41
1
41
1
41
1
41
1
41
1
41
1
41
1
41
1
41
1
41
1
41
1
41
1
10
0
20
-0.055000000000000049
30
0
10
0.040045197221534636
20
-0.048997654564386171
30
0
10
0.12016567706721532
20
-0.037979212660701554
30
0
10
0.24043665346564985
20
-0.024410313255051434
30
0
10
0.40097858257951891
20
-0.012239687654174086
30
0
10
0.60194587240943687
20
-0.0065120997892827671
30
0
10
0.80316826649513096
20
-0.0090788769206409867
30
0
10
1.0045753751211826
20
-0.017530449625589733
30
0
10
1.2060486629094045
20
-0.027809012505562763
30
0
10
1.4074100169347339
20
-0.033821902419245632
30
0
10
1.6084642418703532
20
-0.029134527146184565
30
0
10
1.8090407199819878
20
-0.0086347833459408992
30
0
10
2.0090348809601783
20
0.029816342169326125
30
0
10
2.2084511717893927
20
0.083658539456368378
30
0
10
2.4074421312233953
20
0.14410164530658143
30
0
10
2.6062492963394606
20
0.19944432589923178
30
0
10
2.805147929853256
20
0.23821234772742297
30
0
10
3.004390685568973
20
0.25234159564118319
30
0
10
3.204151161838821
20
0.24039878405369894
30
0
10
3.404468844107813
20
0.21066518482992444
30
0
10
3.6052798707698046
20
0.17666781246137142
30
0
10
3.8064458633971032
20
0.15285039490669666
30
0
10
4.0077831811111073
20
0.15024423407165494
30
0
10
4.2090919876960351
20
0.17202593846037512
30
0
10
4.4101848872061877
20
0.20940445426247362
30
0
10
4.610900621281977
20
0.24703460577914785
30
0
10
4.811118472939695
20
0.26813438639706377
30
0
10
5.0107722475691228
20
0.25963435675626267
30
0
10
5.2098651972419141
20
0.21748498105523117
30
0
10
5.4084830127656911
20
0.1514515657902146
30
0
10
5.6067672861489957
20
0.079199425936252801
30
0
10
5.8048908479788324
20
0.020872741714654097
30
0
10
6.0030325664792681
20
-0.0064820027623250179
30
0
10
6.2013522912199566
20
0.0055234646803943212
30
0
10
6.3999660581694773
20
0.051158829400913368
30
0
10
6.598950909354846
20
0.11579802532918944
30
0
10
6.7983491991119163
20
0.18096623840651468
30
0
10
6.9981729897836829
20
0.22944715488130402
30
0
10
7.1984083045291456
20
0.25034302332968833
30
0
10
7.3990193693453126
20
0.24422597660941253
30
0
10
7.5999501729399181
20
0.21936323018255077
30
0
10
7.8011259582503953
20
0.1878852979635881
30
0
10
8.0024546909804197
20
0.16199765516697728
30
0
10
8.2038284525726333
20
0.15015726276100064
30
0
10
8.4051248931834674
20
0.15331327635279271
30
0
10
8.6062163893619843
20
0.1670335020964771
30
0
10
8.8069791440219412
20
0.18356248963726796
30
0
10
9.0073022472473756
20
0.19388274361721261
30
0
10
9.2070969495092108
20
0.18979595811977887
30
0
10
9.4063054630513108
20
0.16592147036523316
30
0
10
9.6048941202778657
20
0.11906413033524524
30
0
10
9.7632564872569905
20
0.061948256856736578
30
0
10
9.8817401960752864
20
0.0078504448971813898
30
0
10
9.9606013896516483
20
-0.033216264743663147
30
0
10
10
20
-0.055000000000000049
30
0
0
SPLINE
5
104
100
AcDbEntity
8
0
100
AcDbSpline
70
4
71
5
72
61
73
55
74
0
42
0.000000001
43
0.0000000001
44
0.0000000001
40
0
40
0
40
0
40
0
40
0
40
0
40
0.02
40
0.040000000000000001
40
0.059999999999999998
40
0.080000000000000002
40
0.10000000000000001
40
0.12000000000000001
40
0.14000000000000001
40
0.16
40
0.17999999999999999
40
0.19999999999999998
40
0.21999999999999997
40
0.23999999999999996
40
0.25999999999999995
40
0.27999999999999997
40
0.29999999999999999
40
0.32000000000000001
40
0.34000000000000002
40
0.36000000000000004
40
0.38000000000000006
40
0.40000000000000008
40
0.4200000000000001
40
0.44000000000000011
40
0.46000000000000013
40
0.48000000000000015
40
0.50000000000000011
40
0.52000000000000013
40
0.54000000000000015
40
0.56000000000000016
40
0.58000000000000018
40
0.6000000000000002
40
0.62000000000000022
40
0.64000000000000024
40
0.66000000000000025
40
0.68000000000000027
40
0.70000000000000029
40
0.72000000000000031
40
0.74000000000000032
40
0.76000000000000034
40
0.78000000000000036
40
0.80000000000000038
40
0.8200000000000004
40
0.84000000000000041
40
0.86000000000000043
40
0.88000000000000045
40
0.90000000000000047
40
0.92000000000000048
40
0.9400000000000005
40
0.96000000000000052
40
0.98000000000000054
40
1
40
1
40
1
40
1
40
1
40
1
41
1
41
1
41
1
41
1
41
1
41
1
41
1
41
1
41
1
41
1
41
1
41
1
41
1
41
1
41
1
41
1
41
1
41
1
41
1
41
1
41
1
41
1
41
1
41
1
41
1
41
1
41
1
41
1
41
1
41
1
41
1
41
1
41
1
41
1
41
1
41
1
41
1
41
1
41
1
41
1
41
1
41
1
41
1
41
1
41
1
41
1
41
1
41
1
41
1
41
1
41
1
41
1
41
1
41
1
41
1
10
0
20
3.0549999999999997
30
0
10
0.039851129882509814
20
3.025109645403032
30
0
10
0.11950173000094974
20
2.9690357799244977
30
0
10
0.23882265276211817
20
2.8960454880312083
30
0
10
0.39760704638734923
20
2.8209808161468164
30
0
10
0.59559003587862569
20
2.7638222939170189
30
0
10
0.79313568915653376
20
2.7419318493435578
30
0
10
0.9903664230703273
20
2.7523811347818943
30
0
10
1.1874869775995782
20
2.7901990835116619
30
0
10
1.3848088152315734
20
2.8477816768754134
30
0
10
1.5826789625358546
20
2.9158848328052973
30
0
10
1.7814054382611197
20
2.9846837206726011
30
0
10
1.9811819255194036
20
3.0448136915389941
30
0
10
2.1820169216843412
20
3.0883998471308196
30
0
10
2.3836486126850311
20
3.1101472904700662
30
0
10
2.585647210011687
20
3.1075838218106391
30
0
10
2.787533891743105
20
3.0812175944875357
30
0
10
2.9888949792661714
20
3.0347524452135604
30
0
10
3.189494956855409
20
2.975245588400901
30
0
10
3.3893992009358573
20
2.9134148271461169
30
0
10
3.5888779977064784
20
2.8611383417857876
30
0
10
3.7882994130403476
20
2.8288304398333763
30
0
10
3.9880254697510447
20
2.8228116762902329
30
0
10
4.1883095459617934
20
2.8427827407260935
30
0
10
4.3891861360641435
20
2.8789365678068051
30
0
10
4.5905249508084394
20
2.9161935735784033
30
0
10
4.7920941869854072
20
2.9388180294021509
30
0
10
4.9936203525946494
20
2.9349290236105241
30
0
10
5.1948488575903342
20
2.9009753083979906
30
0
10
5.3956056915154829
20
2.8464854542348217
30
0
10
5.5957983262076896
20
2.7886989213227107
30
0
10
5.7954147413528094
20
2.7469224987079963
30
0
10
5.9945235518642237
20
2.7369594658254859
30
0
10
6.1932735054547425
20
2.7655900435798575
30
0
10
6.3918945830792708
20
2.8247700158392868
30
0
10
6.5906483242542322
20
2.8972146422440885
30
0
10
6.7897772833098768
20
2.9622321860482748
30
0
10
6.9894540744772717
20
3.0015160930040681
30
0
10
7.1897320662606514
20
3.0048088820595256
30
0
10
7.3904906277163978
20
2.9760398346047552
30
0
10
7.591499262896666
20
2.9287095967034422
30
0
10
7.7924872489751253
20
2.8807682588967207
30
0
10
7.9932115716965333
20
2.8496623018944867
30
0
10
8.1935245257490514
20
2.8473863512721747
30
0
10
8.393444601859759
20
2.8753214764186206
30
0
10
8.5931112069300415
20
2.9270117099527848
30
0
10
8.7927359279500212
20
2.9911803372148995
30
0
10
8.9925550366212867
20
3.0546582350846032
30
0
10
9.1927821901133608
20
3.1053044518933333
30
0
10
9.3935593548958547
20
3.1350310294971848
30
0
10
9.5949702097186318
20
3.1390551805947431
30
0
10
9.7566385573494703
20
3.1198301157879635
30
0
10
9.8781990847282017
20
3.0924517303479009
30
0
10
9.9593768008980561
20
3.0684432718128338
30
0
10
10
20
3.0549999999999997
30
0
0
ENDSEC
0
SECTION
2
OBJECTS
0
DICTIONARY
5
C
100
AcDbDictionary
3
ACAD_GROUP
350
D
3
ACAD_MLINESTYLE
350
17
0
DICTIONARY
5
D
100
AcDbDictionary
0
DICTIONARY
5
1A
330
C
100
AcDbDictionary
0
DICTIONARY
5
17
100
AcDbDictionary
0
ENDSEC
0
EOF
