0
SECTION
2
HEADER
9
$INSUNITS
70
4
9
$ACADVER
1
AC1014
9
$HANDSEED
5
FFFF
0
ENDSEC
0
SECTION
2
TABLES
0
TABLE
2
VPORT
5
8
100
AcDbSymbolTable
0
ENDTAB
0
TABLE
2
LTYPE
5
5
100
AcDbSymbolTable
0
LTYPE
5
14
100
AcDbSymbolTableRecord
100
AcDbLinetypeTableRecord
2
BYBLOCK
70
0
0
LTYPE
5
15
100
AcDbSymbolTableRecord
100
AcDbLinetypeTableRecord
2
BYLAYER
70
0
0
ENDTAB
0
TABLE
2
LAYER
5
2
100
AcDbSymbolTable
70
2
0
LAYER
5
50
100
AcDbSymbolTableRecord
100
AcDbLayerTableRecord
2
0
70
0
6
CONTINUOUS
0
ENDTAB
0
TABLE
2
STYLE
5
3
100
AcDbSymbolTable
70
1
0
STYLE
5
11
100
AcDbSymbolTableRecord
100
AcDbTextStyleTableRecord
2
STANDARD
70
0
0
ENDTAB
0
TABLE
2
VIEW
5
6
100
AcDbSymbolTable
70
0
0
ENDTAB
0
TABLE
2
UCS
5
7
100
AcDbSymbolTable
70
0
0
ENDTAB
0
TABLE
2
APPID
5
9
100
AcDbSymbolTable
70
2
0
APPID
5
12
100
AcDbSymbolTableRecord
100
AcDbRegAppTableRecord
2
ACAD
70
0
0
ENDTAB
0
TABLE
2
DIMSTYLE
5
A
100
AcDbSymbolTable
70
1
0
ENDTAB
0
TABLE
2
BLOCK_RECORD
5
1
100
AcDbSymbolTable
70
1
0
BLOCK_RECORD
5
1F
100
AcDbSymbolTableRecord
100
AcDbBlockTableRecord
2
*MODEL_SPACE
0
BLOCK_RECORD
5
1B
100
AcDbSymbolTableRecord
100
AcDbBlockTableRecord
2
*PAPER_SPACE
0
ENDTAB
0
ENDSEC
0
SECTION
2
BLOCKS
0
BLOCK
5
20
100
AcDbEntity
100
AcDbBlockBegin
2
*MODEL_SPACE
0
ENDBLK
5
21
100
AcDbEntity
100
AcDbBlockEnd
0
BLOCK
5
1C
100
AcDbEntity
100
AcDbBlockBegin
2
*PAPER_SPACE
0
ENDBLK
5
1D
100
AcDbEntity
100
AcDbBlockEnd
0
ENDSEC
0
SECTION
2
ENTITIES
0
SPLINE
5
100
100
AcDbEntity
8
0
100
AcDbSpline
70
4
71
5
72
16
73
10
74
0
42
0.000000001
43
0.0000000001
44
0.0000000001
40
0
40
0
40
0
40
0
40
0
40
0
40
0.20000000000000001
40
0.40000000000000002
40
0.60000000000000009
40
0.80000000000000004
40
1
40
1
40
1
40
1
40
1
40
1
41
1
41
1
41
1
41
1
41
1
41
1
41
1
41
1
41
1
41
1
10
0
20
-0.055000000000000049
30
0
10
0
20
0.069400000000207365
30
0
10
0
20
0.31820000000056603
30
0
10
0
20
0.69140000000093593
30
0
10
0
20
1.1890000000011365
30
0
10
0
20
1.8110000000010393
30
0
10
0
20
2.3086000000007481
30
0
10
0
20
2.6818000000004227
30
0
10
0
20
2.9306000000001484
30
0
10
0
20
3.0549999999999997
30
0
0
SPLINE
5
101
100
AcDbEntity
8
0
100
AcDbSpline
70
4
71
5
72
16
73
10
74
0
42
0.000000001
43
0.0000000001
44
0.0000000001
40
0
40
0
40
0
40
0
40
0
40
0
40
0.20000000000000001
40
0.40000000000000002
40
0.60000000000000009
40
0.80000000000000004
40
1
40
1
40
1
40
1
40
1
40
1
41
1
41
1
41
1
41
1
41
1
41
1
41
1
41
1
41
1
41
1
10
10
20
-0.055000000000000049
30
0
10
9.9999999999997495
20
0.069400000000207365
30
0
10
9.9999999999993197
20
0.31820000000056603
30
0
10
9.9999999999989129
20
0.69140000000093593
30
0
10
9.9999999999987672
20
1.1890000000011365
30
0
10
9.9999999999990248
20
1.8110000000010393
30
0
10
9.9999999999993889
20
2.3086000000007481
30
0
10
9.9999999999996998
20
2.6818000000004227
30
0
10
9.9999999999999005
20
2.9306000000001484
30
0
10
10
20
3.0549999999999997
30
0
0
SPLINE
5
102
100
AcDbEntity
8
0
100
AcDbSpline
70
4
71
5
72
16
73
10
74
0
42
0.000000001
43
0.0000000001
44
0.0000000001
40
0
40
0
40
0
40
0
40
0
40
0
40
0.20000000000000001
40
0.40000000000000002
40
0.60000000000000009
40
0.80000000000000004
40
1
40
1
40
1
40
1
40
1
40
1
41
1
41
1
41
1
41
1
41
1
41
1
41
1
41
1
41
1
41
1
10
0
20
1.5274999999999999
30
0
10
0.40000000000047375
20
1.5274999999999856
30
0
10
1.2000000000012774
20
1.5274999999999614
30
0
10
2.4000000000020547
20
1.527499999999943
30
0
10
4.0000000000023546
20
1.5274999999999479
30
0
10
6.0000000000019584
20
1.5274999999999812
30
0
10
7.6000000000012928
20
1.5275000000000025
30
0
10
8.800000000000697
20
1.5275000000000083
30
0
10
9.6000000000002395
20
1.5275000000000039
30
0
10
10
20
1.5274999999999999
30
0
0
SPLINE
5
103
100
AcDbEntity
8
0
100
AcDbSpline
70
4
71
5
72
111
73
105
74
0
42
0.000000001
43
0.0000000001
44
0.0000000001
40
0
40
0
40
0
40
0
40
0
40
0
40
0.01
40
0.02
40
0.029999999999999999
40
0.040000000000000001
40
0.050000000000000003
40
0.060000000000000005
40
0.070000000000000007
40
0.080000000000000002
40
0.089999999999999997
40
0.099999999999999992
40
0.10999999999999999
40
0.11999999999999998
40
0.12999999999999998
40
0.13999999999999999
40
0.14999999999999999
40
0.16
40
0.17000000000000001
40
0.18000000000000002
40
0.19000000000000003
40
0.20000000000000004
40
0.21000000000000005
40
0.22000000000000006
40
0.23000000000000007
40
0.24000000000000007
40
0.25000000000000006
40
0.26000000000000006
40
0.27000000000000007
40
0.28000000000000008
40
0.29000000000000009
40
0.3000000000000001
40
0.31000000000000011
40
0.32000000000000012
40
0.33000000000000013
40
0.34000000000000014
40
0.35000000000000014
40
0.36000000000000015
40
0.37000000000000016
40
0.38000000000000017
40
0.39000000000000018
40
0.40000000000000019
40
0.4100000000000002
40
0.42000000000000021
40
0.43000000000000022
40
0.44000000000000022
40
0.45000000000000023
40
0.46000000000000024
40
0.47000000000000025
40
0.48000000000000026
40
0.49000000000000027
40
0.50000000000000022
40
0.51000000000000023
40
0.52000000000000024
40
0.53000000000000025
40
0.54000000000000026
40
0.55000000000000027
40
0.56000000000000028
40
0.57000000000000028
40
0.58000000000000029
40
0.5900000000000003
40
0.60000000000000031
40
0.61000000000000032
40
0.62000000000000033
40
0.63000000000000034
40
0.64000000000000035
40
0.65000000000000036
40
0.66000000000000036
40
0.67000000000000037
40
0.68000000000000038
40
0.69000000000000039
40
0.7000000000000004
40
0.71000000000000041
40
0.72000000000000042
40
0.73000000000000043
40
0.74000000000000044
40
0.75000000000000044
40
0.76000000000000045
40
0.77000000000000046
40
0.78000000000000047
40
0.79000000000000048
40
0.80000000000000049
40
0.8100000000000005
40
0.82000000000000051
40
0.83000000000000052
40
0.84000000000000052
40
0.85000000000000053
40
0.86000000000000054
40
0.87000000000000055
40
0.88000000000000056
40
0.89000000000000057
40
0.90000000000000058
40
0.91000000000000059
40
0.9200000000000006
40
0.9300000000000006
40
0.94000000000000061
40
0.95000000000000062
40
0.96000000000000063
40
0.97000000000000064
40
0.98000000000000065
40
0.99000000000000066
40
1
40
1
40
1
40
1
40
1
40
1
41
1
41
1
41
1
41
1
41
1
41
1
41
1
41
1
41
1
41
1
41
1
41
1
41
1
41
1
41
1
41
1
41
1
41
1
41
1
41
1
41
1
41
1
41
1
41
1
41
1
41
1
41
1
41
1
41
1
41
1
41
1
41
1
41
1
41
1
41
1
41
1
41
1
41
1
41
1
41
1
41
1
41
1
41
1
41
1
41
1
41
1
41
1
41
1
41
1
41
1
41
1
41
1
41
1
41
1
41
1
41
1
41
1
41
1
41
1
41
1
41
1
41
1
41
1
41
1
41
1
41
1
41
1
41
1
41
1
41
1
41
1
41
1
41
1
41
1
41
1
41
1
41
1
41
1
41
1
41
1
41
1
41
1
41
1
41
1
41
1
41
1
41
1
41
1
41
1
41
1
41
1
41
1
41
1
41
1
41
1
41
1
41
1
41
1
41
1
41
1
41
1
41
1
41
1
41
1
41
1
10
0
20
-0.055000000000000049
30
0
10
0.019969588034507265
20
-0.047682822618032757
30
0
10
0.059953484559763244
20
-0.0334280446682544
30
0
10
0.12006349107223688
20
-0.013184604469311554
30
0
10
0.20047853047314865
20
0.011528792778721505
30
0
10
0.30143868849768962
20
0.038592450936690913
30
0
10
0.40282196351963606
20
0.0617361346675908
30
0
10
0.50459163550907959
20
0.080779872312159773
30
0
10
0.6066859710846817
20
0.095423809745577362
30
0
10
0.70901268323547195
20
0.1052267461682234
30
0
10
0.81146514981784845
20
0.10979456748200224
30
0
10
0.91393803453760669
20
0.10896624129695526
30
0
10
1.0163426127328548
20
0.10298946944093056
30
0
10
1.1186234365986232
20
0.092727502501265699
30
0
10
1.2207708591560746
20
0.079774745427307128
30
0
10
1.3228094657124596
20
0.066068124242251974
30
0
10
1.4247895676341216
20
0.053548431022470158
30
0
10
1.5267772161392159
20
0.043824146648203222
30
0
10
1.6288455969049802
20
0.037782777261628341
30
0
10
1.7310636209745596
20
0.035385663610505221
30
0
10
1.8334789641120892
20
0.036006276068990054
30
0
10
1.9361001348670503
20
0.038682920834450504
30
0
10
2.0388829320134549
20
0.042380841134115499
30
0
10
2.1417053660515806
20
0.046307908470457612
30
0
10
2.2443803675322442
20
0.050010082184366589
30
0
10
2.3467275512329779
20
0.053107106034923628
30
0
10
2.4486372600379926
20
0.055079493629853316
30
0
10
2.5501253668033104
20
0.055102444143171066
30
0
10
2.6514222433701811
20
0.051695073577416838
30
0
10
2.752930325314487
20
0.04308130894828114
30
0
10
2.855052607596329
20
0.028221414425357447
30
0
10
2.9580452571786919
20
0.0077629688835801737
30
0
10
3.0618836296358163
20
-0.015192295179951801
30
0
10
3.1660645253216742
20
-0.033700922864112845
30
0
10
3.2696976093446017
20
-0.038291399598028415
30
0
10
3.3717843812817399
20
-0.019977772192199959
30
0
10
3.4714519388574634
20
0.02706813132999198
30
0
10
3.5681810582202229
20
0.10307099051532208
30
0
10
3.6620987260104809
20
0.19917098347439066
30
0
10
3.7538940756485992
20
0.29964396389401837
30
0
10
3.8445789525833867
20
0.38640566721055325
30
0
10
3.9352943205660735
20
0.44292630421961549
30
0
10
4.0271082510625247
20
0.4580543270113292
30
0
10
4.1207921717395584
20
0.4306903936787293
30
0
10
4.2166885826826404
20
0.37148431560072609
30
0
10
4.3148149527379482
20
0.29713734747713749
30
0
10
4.4149210174468942
20
0.22605800058727588
30
0
10
4.5165647513169791
20
0.17367491457243309
30
0
10
4.6191794232156873
20
0.14744110509677291
30
0
10
4.7221465720069338
20
0.14331327040227551
30
0
10
4.8248761521165271
20
0.15068248696899764
30
0
10
4.9268898685638938
20
0.15637609819199258
30
0
10
5.0278958994268494
20
0.14875484528113078
30
0
10
5.1278849040998322
20
0.12239000014161305
30
0
10
5.2271614745380983
20
0.080522698222148387
30
0
10
5.3261999374643114
20
0.031232359657581622
30
0
10
5.4255293395067037
20
-0.015314751605800769
30
0
10
5.5256134150953198
20
-0.049869760227992624
30
0
10
5.6267173571875251
20
-0.067407143243910492
30
0
10
5.7288283805977267
20
-0.069017415173111163
30
0
10
5.8317470627880628
20
-0.059306811007120236
30
0
10
5.9351490211666205
20
-0.044511659648030083
30
0
10
6.0386571331135457
20
-0.030501317656039844
30
0
10
6.1419117982593283
20
-0.020423457070470066
30
0
10
6.2446325259555602
20
-0.013891696992059013
30
0
10
6.346654075056815
20
-0.0088761971112612248
30
0
10
6.4479756334235416
20
-0.0030711428579130238
30
0
10
6.5487898186100502
20
0.0047312544665360379
30
0
10
6.6495569407484485
20
0.01277421308318143
30
0
10
6.750920650970845
20
0.016577962856312412
30
0
10
6.8534666060457585
20
0.011399814996305364
30
0
10
6.957505369471618
20
-0.0057446304653623343
30
0
10
7.062883326503119
20
-0.034217175563148426
30
0
10
7.1686869937177722
20
-0.066988072652868658
30
0
10
7.2734202684318729
20
-0.092039435363842001
30
0
10
7.3754835169602471
20
-0.096452536695090435
30
0
10
7.4735834003711243
20
-0.069872843626526931
30
0
10
7.5671244529485948
20
-0.0078275526104979575
30
0
10
7.6567282028352448
20
0.083860155651288279
30
0
10
7.7440055923804341
20
0.19110088814705675
30
0
10
7.8310367611096314
20
0.29609425387556926
30
0
10
7.9199391988314733
20
0.3811244283120101
30
0
10
8.0124155935438051
20
0.43252365886867988
30
0
10
8.1092712315118298
20
0.44491699461783918
30
0
10
8.2100584392394929
20
0.42431881328035942
30
0
10
8.3135762405002005
20
0.38351298424639246
30
0
10
8.4182853764867964
20
0.33820024441221608
30
0
10
8.5227347608782935
20
0.30303288184887217
30
0
10
8.6260321637936546
20
0.28727319748599145
30
0
10
8.7281460170820715
20
0.29190889885100729
30
0
10
8.8295399149918214
20
0.3125647578625721
30
0
10
8.9309007749970082
20
0.34157681856996136
30
0
10
9.0328499320039928
20
0.37027119250514473
30
0
10
9.1356153477127719
20
0.3914418236238742
30
0
10
9.2388725656507127
20
0.40079449503943565
30
0
10
9.3419663913518178
20
0.39599423507742471
30
0
10
9.444058701635127
20
0.37619751500688203
30
0
10
9.5442943689504069
20
0.34142400693070923
30
0
10
9.6419865650848173
20
0.29191989274047747
30
0
10
9.736693882579047
20
0.22781116342693167
30
0
10
9.8281474248237153
20
0.14919533113040151
30
0
10
9.8986024239158557
20
0.074735148686102731
30
0
10
9.9499010042487441
20
0.012393639536074927
30
0
10
9.9834145823365255
20
-0.032054302471986415
30
0
10
10
20
-0.055000000000000049
30
0
0
SPLINE
5
104
100
AcDbEntity
8
0
100
AcDbSpline
70
4
71
5
72
111
73
105
74
0
42
0.000000001
43
0.0000000001
44
0.0000000001
40
0
40
0
40
0
40
0
40
0
40
0
40
0.01
40
0.02
40
0.029999999999999999
40
0.040000000000000001
40
0.050000000000000003
40
0.060000000000000005
40
0.070000000000000007
40
0.080000000000000002
40
0.089999999999999997
40
0.099999999999999992
40
0.10999999999999999
40
0.11999999999999998
40
0.12999999999999998
40
0.13999999999999999
40
0.14999999999999999
40
0.16
40
0.17000000000000001
40
0.18000000000000002
40
0.19000000000000003
40
0.20000000000000004
40
0.21000000000000005
40
0.22000000000000006
40
0.23000000000000007
40
0.24000000000000007
40
0.25000000000000006
40
0.26000000000000006
40
0.27000000000000007
40
0.28000000000000008
40
0.29000000000000009
40
0.3000000000000001
40
0.31000000000000011
40
0.32000000000000012
40
0.33000000000000013
40
0.34000000000000014
40
0.35000000000000014
40
0.36000000000000015
40
0.37000000000000016
40
0.38000000000000017
40
0.39000000000000018
40
0.40000000000000019
40
0.4100000000000002
40
0.42000000000000021
40
0.43000000000000022
40
0.44000000000000022
40
0.45000000000000023
40
0.46000000000000024
40
0.47000000000000025
40
0.48000000000000026
40
0.49000000000000027
40
0.50000000000000022
40
0.51000000000000023
40
0.52000000000000024
40
0.53000000000000025
40
0.54000000000000026
40
0.55000000000000027
40
0.56000000000000028
40
0.57000000000000028
40
0.58000000000000029
40
0.5900000000000003
40
0.60000000000000031
40
0.61000000000000032
40
0.62000000000000033
40
0.63000000000000034
40
0.64000000000000035
40
0.65000000000000036
40
0.66000000000000036
40
0.67000000000000037
40
0.68000000000000038
40
0.69000000000000039
40
0.7000000000000004
40
0.71000000000000041
40
0.72000000000000042
40
0.73000000000000043
40
0.74000000000000044
40
0.75000000000000044
40
0.76000000000000045
40
0.77000000000000046
40
0.78000000000000047
40
0.79000000000000048
40
0.80000000000000049
40
0.8100000000000005
40
0.82000000000000051
40
0.83000000000000052
40
0.84000000000000052
40
0.85000000000000053
40
0.86000000000000054
40
0.87000000000000055
40
0.88000000000000056
40
0.89000000000000057
40
0.90000000000000058
40
0.91000000000000059
40
0.9200000000000006
40
0.9300000000000006
40
0.94000000000000061
40
0.95000000000000062
40
0.96000000000000063
40
0.97000000000000064
40
0.98000000000000065
40
0.99000000000000066
40
1
40
1
40
1
40
1
40
1
40
1
41
1
41
1
41
1
41
1
41
1
41
1
41
1
41
1
41
1
41
1
41
1
41
1
41
1
41
1
41
1
41
1
41
1
41
1
41
1
41
1
41
1
41
1
41
1
41
1
41
1
41
1
41
1
41
1
41
1
41
1
41
1
41
1
41
1
41
1
41
1
41
1
41
1
41
1
41
1
41
1
41
1
41
1
41
1
41
1
41
1
41
1
41
1
41
1
41
1
41
1
41
1
41
1
41
1
41
1
41
1
41
1
41
1
41
1
41
1
41
1
41
1
41
1
41
1
41
1
41
1
41
1
41
1
41
1
41
1
41
1
41
1
41
1
41
1
41
1
41
1
41
1
41
1
41
1
41
1
41
1
41
1
41
1
41
1
41
1
41
1
41
1
41
1
41
1
41
1
41
1
41
1
41
1
41
1
41
1
41
1
41
1
41
1
41
1
41
1
41
1
41
1
41
1
41
1
41
1
41
1
10
0
20
3.0549999999999997
30
0
10
0.022343329439467024
20
3.0764689273565078
30
0
10
0.066699949008529144
20
3.1145269262270951
30
0
10
0.13224475782435155
20
3.1569740672897675
30
0
10
0.21765729540384132
20
3.1842882849026823
30
0
10
0.32114547792315795
20
3.1708055692587651
30
0
10
0.42143006815918405
20
3.1133258683690572
30
0
10
0.51866058012503302
20
3.0190613828409689
30
0
10
0.61309008428639111
20
2.9002503855625723
30
0
10
0.70509528616970152
20
2.7747122025855253
30
0
10
0.79516143903904202
20
2.6621637336590389
30
0
10
0.88387106631771084
20
2.5812016336478534
30
0
10
0.97189341622255854
20
2.545845784278236
30
0
10
1.0599687437232501
20
2.5626802324148512
30
0
10
1.1489073542111408
20
2.626683585635452
30
0
10
1.2395159263792994
20
2.7232649199187415
30
0
10
1.3324937951749192
20
2.8330098390047347
30
0
10
1.4283338706425754
20
2.9356796870020259
30
0
10
1.5272323361960893
20
3.014254853160713
30
0
10
1.6289684577078956
20
3.0595953048495699
30
0
10
1.7328794652991659
20
3.072813290296335
30
0
10
1.8380851257997848
20
3.0613679838702144
30
0
10
1.9436748475845405
20
3.0362363714832723
30
0
10
2.0488904650316733
20
3.008869547634327
30
0
10
2.1533571536333032
20
2.9877355720080354
30
0
10
2.2571198090019702
20
2.9769524944280681
30
0
10
2.3604523078050526
20
2.977492904173646
30
0
10
2.4637195728372263
20
2.9877093391783109
30
0
10
2.56723243051584
20
3.0041424726504302
30
0
10
2.6710700062103165
20
3.0221870141358913
30
0
10
2.7750946329539472
20
3.0369106705450326
30
0
10
2.8790699292828483
20
3.0438844730663712
30
0
10
2.9827492565375961
20
3.0400461973658595
30
0
10
3.0859701509015851
20
3.0244751290468219
30
0
10
3.1887627006618846
20
2.9994036911143622
30
0
10
3.2913025324920349
20
2.9693369019536462
30
0
10
3.3938332150370409
20
2.9398186787809322
30
0
10
3.4965990414162706
20
2.916316267538611
30
0
10
3.5997743513497351
20
2.9030675795785039
30
0
10
3.7033918503939711
20
2.9019106597954796
30
0
10
3.8073799851216612
20
2.9123937809517702
30
0
10
3.9116047025578142
20
2.9319052004999668
30
0
10
4.0159080320775162
20
2.9558367672119679
30
0
10
4.1201514540923148
20
2.9776327446113653
30
0
10
4.2242470863830173
20
2.9891731701856852
30
0
10
4.3281218398327459
20
2.982956099372283
30
0
10
4.4316867035795875
20
2.9542099965296642
30
0
10
4.5348093086146433
20
2.9027530088568163
30
0
10
4.6372725896908609
20
2.8356311082643124
30
0
10
4.7387806858122739
20
2.7672086981663719
30
0
10
4.8390578313091517
20
2.7142118806079489
30
0
10
4.9379326991060255
20
2.6916395456880142
30
0
10
5.0354176717395038
20
2.7087565740238189
30
0
10
5.131816616546665
20
2.7640198300153673
30
0
10
5.2277313773485776
20
2.8439599087830221
30
0
10
5.3238843653817085
20
2.9293264662113465
30
0
10
5.4209782129730755
20
2.9997271919093156
30
0
10
5.5195489528628441
20
3.0386238098214964
30
0
10
5.6198020549175833
20
3.0387587358991568
30
0
10
5.7215156257076263
20
3.0056379878774937
30
0
10
5.8242336608082184
20
2.9523750960638018
30
0
10
5.9274231692842871
20
2.8956946784408455
30
0
10
6.0306323332492395
20
2.8517082651005561
30
0
10
6.1336790379669806
20
2.8312606025287494
30
0
10
6.2367273552066518
20
2.8371657875383898
30
0
10
6.3400864364604717
20
2.8663978562714409
30
0
10
6.4440549570932006
20
2.9112911089519966
30
0
10
6.5487655662342004
20
2.9611707460945387
30
0
10
6.6539854332489963
20
3.0037012157823573
30
0
10
6.7591010921175911
20
3.0267013468783146
30
0
10
6.863318345344477
20
3.0202688711839905
30
0
10
6.9658106421854455
20
2.9789928104839234
30
0
10
7.0658778026415678
20
2.9037797958174787
30
0
10
7.163126937206135
20
2.8047327872760426
30
0
10
7.2575080046901288
20
2.6991095764782025
30
0
10
7.3492695191582271
20
2.6068426645774947
30
0
10
7.4389423946932132
20
2.5466922247395587
30
0
10
7.5273062010069571
20
2.5324284060076776
30
0
10
7.61537780770918
20
2.568296864173218
30
0
10
7.7043424241467395
20
2.6470827615876868
30
0
10
7.7953525052494523
20
2.7544328761549099
30
0
10
7.8893556800853313
20
2.8718985855708268
30
0
10
7.9869048130925338
20
2.9805367054229452
30
0
10
8.0879899011378633
20
3.0641502678468138
30
0
10
8.1918217250537921
20
3.1130065539693561
30
0
10
8.2970991211380145
20
3.1235163858225157
30
0
10
8.402340079504409
20
3.0974204073681295
30
0
10
8.5061866077502089
20
3.0411424804197136
30
0
10
8.6077286130657207
20
2.9650992286187181
30
0
10
8.7067974249638951
20
2.8829658744389155
30
0
10
8.8037537852257692
20
2.8093946453647627
30
0
10
8.899299608261046
20
2.7578262931288222
30
0
10
8.9942794514590414
20
2.7382342302460456
30
0
10
9.0894902806798203
20
2.7549680281728941
30
0
10
9.1854774302282109
20
2.8043544134518927
30
0
10
9.2825745317232329
20
2.8768914666344427
30
0
10
9.3809566440378571
20
2.9596737269197444
30
0
10
9.4806893818485971
20
3.0387892927808253
30
0
10
9.5817776119600424
20
3.1015939620564934
30
0
10
9.6842195894675775
20
3.1393872866691481
30
0
10
9.7880150128883567
20
3.1470465271306454
30
0
10
9.8721332044039478
20
3.1270029371459613
30
0
10
9.9358301047314868
20
3.0968724240802232
30
0
10
9.9785649874499818
20
3.0700757310246232
30
0
10
10
20
3.0549999999999997
30
0
0
ENDSEC
0
SECTION
2
OBJECTS
0
DICTIONARY
5
C
100
AcDbDictionary
3
ACAD_GROUP
350
D
3
ACAD_MLINESTYLE
350
17
0
DICTIONARY
5
D
100
AcDbDictionary
0
DICTIONARY
5
1A
330
C
100
AcDbDictionary
0
DICTIONARY
5
17
100
AcDbDictionary
0
ENDSEC
0
EOF
