0
SECTION
2
HEADER
9
$INSUNITS
70
4
9
$ACADVER
1
AC1014
9
$HANDSEED
5
FFFF
0
ENDSEC
0
SECTION
2
TABLES
0
TABLE
2
VPORT
5
8
100
AcDbSymbolTable
0
ENDTAB
0
TABLE
2
LTYPE
5
5
100
AcDbSymbolTable
0
LTYPE
5
14
100
AcDbSymbolTableRecord
100
AcDbLinetypeTableRecord
2
BYBLOCK
70
0
0
LTYPE
5
15
100
AcDbSymbolTableRecord
100
AcDbLinetypeTableRecord
2
BYLAYER
70
0
0
ENDTAB
0
TABLE
2
LAYER
5
2
100
AcDbSymbolTable
70
2
0
LAYER
5
50
100
AcDbSymbolTableRecord
100
AcDbLayerTableRecord
2
0
70
0
6
CONTINUOUS
0
ENDTAB
0
TABLE
2
STYLE
5
3
100
AcDbSymbolTable
70
1
0
STYLE
5
11
100
AcDbSymbolTableRecord
100
AcDbTextStyleTableRecord
2
STANDARD
70
0
0
ENDTAB
0
TABLE
2
VIEW
5
6
100
AcDbSymbolTable
70
0
0
ENDTAB
0
TABLE
2
UCS
5
7
100
AcDbSymbolTable
70
0
0
ENDTAB
0
TABLE
2
APPID
5
9
100
AcDbSymbolTable
70
2
0
APPID
5
12
100
AcDbSymbolTableRecord
100
AcDbRegAppTableRecord
2
ACAD
70
0
0
ENDTAB
0
TABLE
2
DIMSTYLE
5
A
100
AcDbSymbolTable
70
1
0
ENDTAB
0
TABLE
2
BLOCK_RECORD
5
1
100
AcDbSymbolTable
70
1
0
BLOCK_RECORD
5
1F
100
AcDbSymbolTableRecord
100
AcDbBlockTableRecord
2
*MODEL_SPACE
0
BLOCK_RECORD
5
1B
100
AcDbSymbolTableRecord
100
AcDbBlockTableRecord
2
*PAPER_SPACE
0
ENDTAB
0
ENDSEC
0
SECTION
2
BLOCKS
0
BLOCK
5
20
100
AcDbEntity
100
AcDbBlockBegin
2
*MODEL_SPACE
0
ENDBLK
5
21
100
AcDbEntity
100
AcDbBlockEnd
0
BLOCK
5
1C
100
AcDbEntity
100
AcDbBlockBegin
2
*PAPER_SPACE
0
ENDBLK
5
1D
100
AcDbEntity
100
AcDbBlockEnd
0
ENDSEC
0
SECTION
2
ENTITIES
0
SPLINE
5
100
100
AcDbEntity
8
0
100
AcDbSpline
70
4
71
5
72
16
73
10
74
0
42
0.000000001
43
0.0000000001
44
0.0000000001
40
0
40
0
40
0
40
0
40
0
40
0
40
0.20000000000000001
40
0.40000000000000002
40
0.60000000000000009
40
0.80000000000000004
40
1
40
1
40
1
40
1
40
1
40
1
41
1
41
1
41
1
41
1
41
1
41
1
41
1
41
1
41
1
41
1
10
0
20
-0.055000000000000049
30
0
10
0
20
0.069400000000207365
30
0
10
0
20
0.31820000000056603
30
0
10
0
20
0.69140000000093593
30
0
10
0
20
1.1890000000011365
30
0
10
0
20
1.8110000000010393
30
0
10
0
20
2.3086000000007481
30
0
10
0
20
2.6818000000004227
30
0
10
0
20
2.9306000000001484
30
0
10
0
20
3.0549999999999997
30
0
0
SPLINE
5
101
100
AcDbEntity
8
0
100
AcDbSpline
70
4
71
5
72
16
73
10
74
0
42
0.000000001
43
0.0000000001
44
0.0000000001
40
0
40
0
40
0
40
0
40
0
40
0
40
0.20000000000000001
40
0.40000000000000002
40
0.60000000000000009
40
0.80000000000000004
40
1
40
1
40
1
40
1
40
1
40
1
41
1
41
1
41
1
41
1
41
1
41
1
41
1
41
1
41
1
41
1
10
10
20
-0.055000000000000049
30
0
10
9.9999999999997495
20
0.069400000000207365
30
0
10
9.9999999999993197
20
0.31820000000056603
30
0
10
9.9999999999989129
20
0.69140000000093593
30
0
10
9.9999999999987672
20
1.1890000000011365
30
0
10
9.9999999999990248
20
1.8110000000010393
30
0
10
9.9999999999993889
20
2.3086000000007481
30
0
10
9.9999999999996998
20
2.6818000000004227
30
0
10
9.9999999999999005
20
2.9306000000001484
30
0
10
10
20
3.0549999999999997
30
0
0
SPLINE
5
102
100
AcDbEntity
8
0
100
AcDbSpline
70
4
71
5
72
16
73
10
74
0
42
0.000000001
43
0.0000000001
44
0.0000000001
40
0
40
0
40
0
40
0
40
0
40
0
40
0.20000000000000001
40
0.40000000000000002
40
0.60000000000000009
40
0.80000000000000004
40
1
40
1
40
1
40
1
40
1
40
1
41
1
41
1
41
1
41
1
41
1
41
1
41
1
41
1
41
1
41
1
10
0
20
1.5274999999999999
30
0
10
0.40000000000047375
20
1.5274999999999856
30
0
10
1.2000000000012774
20
1.5274999999999614
30
0
10
2.4000000000020547
20
1.527499999999943
30
0
10
4.0000000000023546
20
1.5274999999999479
30
0
10
6.0000000000019584
20
1.5274999999999812
30
0
10
7.6000000000012928
20
1.5275000000000025
30
0
10
8.800000000000697
20
1.5275000000000083
30
0
10
9.6000000000002395
20
1.5275000000000039
30
0
10
10
20
1.5274999999999999
30
0
0
SPLINE
5
103
100
AcDbEntity
8
0
100
AcDbSpline
70
4
71
5
72
61
73
55
74
0
42
0.000000001
43
0.0000000001
44
0.0000000001
40
0
40
0
40
0
40
0
40
0
40
0
40
0.02
40
0.040000000000000001
40
0.059999999999999998
40
0.080000000000000002
40
0.10000000000000001
40
0.12000000000000001
40
0.14000000000000001
40
0.16
40
0.17999999999999999
40
0.19999999999999998
40
0.21999999999999997
40
0.23999999999999996
40
0.25999999999999995
40
0.27999999999999997
40
0.29999999999999999
40
0.32000000000000001
40
0.34000000000000002
40
0.36000000000000004
40
0.38000000000000006
40
0.40000000000000008
40
0.4200000000000001
40
0.44000000000000011
40
0.46000000000000013
40
0.48000000000000015
40
0.50000000000000011
40
0.52000000000000013
40
0.54000000000000015
40
0.56000000000000016
40
0.58000000000000018
40
0.6000000000000002
40
0.62000000000000022
40
0.64000000000000024
40
0.66000000000000025
40
0.68000000000000027
40
0.70000000000000029
40
0.72000000000000031
40
0.74000000000000032
40
0.76000000000000034
40
0.78000000000000036
40
0.80000000000000038
40
0.8200000000000004
40
0.84000000000000041
40
0.86000000000000043
40
0.88000000000000045
40
0.90000000000000047
40
0.92000000000000048
40
0.9400000000000005
40
0.96000000000000052
40
0.98000000000000054
40
1
40
1
40
1
40
1
40
1
40
1
41
1
41
1
41
1
41
1
41
1
41
1
41
1
41
1
41
1
41
1
41
1
41
1
41
1
41
1
41
1
41
1
41
1
41
1
41
1
41
1
41
1
41
1
41
1
41
1
41
1
41
1
41
1
41
1
41
1
41
1
41
1
41
1
41
1
41
1
41
1
41
1
41
1
41
1
41
1
41
1
41
1
41
1
41
1
41
1
41
1
41
1
41
1
41
1
41
1
41
1
41
1
41
1
41
1
41
1
41
1
10
0
20
-0.055000000000000049
30
0
10
0.040165980530725225
20
-0.052257128549295359
30
0
10
0.1205006838632435
20
-0.046400142940396197
30
0
10
0.24101096568162703
20
-0.036500931889628344
30
0
10
0.40170780574124754
20
-0.021073105879396894
30
0
10
0.60260611178114953
20
0.0017782742976153142
30
0
10
0.80353101092317469
20
0.027736035746129796
30
0
10
1.0044810965364799
20
0.055869105976258215
30
0
10
1.2054539436513831
20
0.084610946099792028
30
0
10
1.4064458512126627
20
0.1116065030149002
30
0
10
1.6074525340447212
20
0.13416137253985921
30
0
10
1.8084697926871351
20
0.14968035143824773
30
0
10
2.0094941946200167
20
0.15610636414022
30
0
10
2.2105237431396727
20
0.15236894555806035
30
0
10
2.411558577193877
20
0.13880746177714426
30
0
10
2.6126019689998654
20
0.11695703246931254
30
0
10
2.8136613821212659
20
0.089366127164932446
30
0
10
3.0147493859435484
20
0.059398877144091256
30
0
10
3.2158849474471825
20
0.031061436015757008
30
0
10
3.4170937264071064
20
0.0087781187651359872
30
0
10
3.6183955909063377
20
-0.0034619034365939235
30
0
10
3.8197925254657985
20
-0.0029390252093879905
30
0
10
4.0212570896136279
20
0.010988347699544734
30
0
10
4.2227188477717768
20
0.035974871763421797
30
0
10
4.424056486199782
20
0.066056216540093221
30
0
10
4.6251409622735506
20
0.093577553019945692
30
0
10
4.8258754644277966
20
0.11093009801160358
30
0
10
5.0262343780638163
20
0.11230412245048041
30
0
10
5.2263081499653605
20
0.095568556016887268
30
0
10
5.4263304999432735
20
0.063725964137373983
30
0
10
5.6265792566821382
20
0.023178481807430151
30
0
10
5.827287915808677
20
-0.017683831510563009
30
0
10
6.028557534287553
20
-0.049990882768520664
30
0
10
6.2302576347180647
20
-0.065905973068581106
30
0
10
6.4319621374957325
20
-0.059992965799002818
30
0
10
6.6331158722721089
20
-0.029424528927172657
30
0
10
6.833178744303785
20
0.025649927332464829
30
0
10
7.0317719783170567
20
0.10183927148145823
30
0
10
7.2288389902534753
20
0.19207615874916442
30
0
10
7.4247558321876825
20
0.28558907666156647
30
0
10
7.6201423913902886
20
0.37014436620613977
30
0
10
7.8157090388292811
20
0.43403053759782417
30
0
10
8.0120920630993417
20
0.46811096747803843
30
0
10
8.2096888653328666
20
0.46792614288132695
30
0
10
8.4085067229598724
20
0.43558068126094374
30
0
10
8.6082815243174196
20
0.37767623959614965
30
0
10
8.8085816660099834
20
0.30345885523961097
30
0
10
9.0089162775835625
20
0.22290790011026992
30
0
10
9.208843060539083
20
0.1448226305215897
30
0
10
9.4080714795966021
20
0.074996566549998409
30
0
10
9.6064282924685358
20
0.016891952699128326
30
0
10
9.7643486180955676
20
-0.018851623826043752
30
0
10
9.8823462998023004
20
-0.039369980980209648
30
0
10
9.9608148602652165
20
-0.050255553044689039
30
0
10
10
20
-0.055000000000000049
30
0
0
SPLINE
5
104
100
AcDbEntity
8
0
100
AcDbSpline
70
4
71
5
72
61
73
55
74
0
42
0.000000001
43
0.0000000001
44
0.0000000001
40
0
40
0
40
0
40
0
40
0
40
0
40
0.02
40
0.040000000000000001
40
0.059999999999999998
40
0.080000000000000002
40
0.10000000000000001
40
0.12000000000000001
40
0.14000000000000001
40
0.16
40
0.17999999999999999
40
0.19999999999999998
40
0.21999999999999997
40
0.23999999999999996
40
0.25999999999999995
40
0.27999999999999997
40
0.29999999999999999
40
0.32000000000000001
40
0.34000000000000002
40
0.36000000000000004
40
0.38000000000000006
40
0.40000000000000008
40
0.4200000000000001
40
0.44000000000000011
40
0.46000000000000013
40
0.48000000000000015
40
0.50000000000000011
40
0.52000000000000013
40
0.54000000000000015
40
0.56000000000000016
40
0.58000000000000018
40
0.6000000000000002
40
0.62000000000000022
40
0.64000000000000024
40
0.66000000000000025
40
0.68000000000000027
40
0.70000000000000029
40
0.72000000000000031
40
0.74000000000000032
40
0.76000000000000034
40
0.78000000000000036
40
0.80000000000000038
40
0.8200000000000004
40
0.84000000000000041
40
0.86000000000000043
40
0.88000000000000045
40
0.90000000000000047
40
0.92000000000000048
40
0.9400000000000005
40
0.96000000000000052
40
0.98000000000000054
40
1
40
1
40
1
40
1
40
1
40
1
41
1
41
1
41
1
41
1
41
1
41
1
41
1
41
1
41
1
41
1
41
1
41
1
41
1
41
1
41
1
41
1
41
1
41
1
41
1
41
1
41
1
41
1
41
1
41
1
41
1
41
1
41
1
41
1
41
1
41
1
41
1
41
1
41
1
41
1
41
1
41
1
41
1
41
1
41
1
41
1
41
1
41
1
41
1
41
1
41
1
41
1
41
1
41
1
41
1
41
1
41
1
41
1
41
1
41
1
41
1
10
0
20
3.0549999999999997
30
0
10
0.041209758130406657
20
3.065051073666516
30
0
10
0.12345512650876642
20
3.0826055907484413
30
0
10
0.24630073310185713
20
3.1012944418479109
30
0
10
0.40904932265308569
20
3.1109173940734487
30
0
10
0.61077518255113639
20
3.0979546291891364
30
0
10
0.81089658637673823
20
3.0616102579132924
30
0
10
1.0096290917581177
20
3.0051731739224898
30
0
10
1.2073385404359211
20
2.9342212330693878
30
0
10
1.4045748059981484
20
2.8571385056171184
30
0
10
1.6019571995501036
20
2.7834800628320338
30
0
10
1.8000660224905085
20
2.722426260950217
30
0
10
1.9993317517217615
20
2.6812030441369239
30
0
10
2.1999249645722712
20
2.6635132974555145
30
0
10
2.4016450567080612
20
2.667951342411738
30
0
10
2.6040571249277034
20
2.6897076547714596
30
0
10
2.8066293175508554
20
2.7222784264872457
30
0
10
3.0088683675350185
20
2.7591513620770658
30
0
10
3.210458807766345
20
2.7955361348947765
30
0
10
3.4113927842687501
20
2.8299769482383832
30
0
10
3.6118658840367015
20
2.8630730641195647
30
0
10
3.8121814082388807
20
2.8962996294066818
30
0
10
4.0126530780232788
20
2.9308153048949679
30
0
10
4.2135056730125289
20
2.9662265290736594
30
0
10
4.4147844470735702
20
2.9995054078115397
30
0
10
4.6164164908681444
20
3.0264697027258789
30
0
10
4.8182642850932202
20
3.0431473232287409
30
0
10
5.0201807702081149
20
3.0471360276505659
30
0
10
5.2220665143549914
20
3.0390804763037575
30
0
10
5.423917953169525
20
3.0237864495210927
30
0
10
5.6257831284030484
20
3.0077697563795796
30
0
10
5.8277244421157377
20
2.9970378280519632
30
0
10
6.0297799915442774
20
2.9949005080967508
30
0
10
6.2319226829985253
20
2.9994883078014105
30
0
10
6.434028381391661
20
3.0021885526098959
30
0
10
6.635904698363488
20
2.9917979537206723
30
0
10
6.8373125420517802
20
2.9581302400494187
30
0
10
7.0379907632612362
20
2.8956197584101391
30
0
10
7.2376783874775068
20
2.8074404272965872
30
0
10
7.4361409370428531
20
2.7079097043017448
30
0
10
7.633211874790776
20
2.616818490535306
30
0
10
7.8288330917695212
20
2.5548246522671563
30
0
10
8.0230942312504681
20
2.5385686320347882
30
0
10
8.2162772113903735
20
2.5755945432947613
30
0
10
8.408886581622756
20
2.660220502387217
30
0
10
8.6015603014675595
20
2.7779400829723193
30
0
10
8.7949922493494981
20
2.9089883067602216
30
0
10
8.9898497743895653
20
3.0322388198531685
30
0
10
9.1866948970576647
20
3.1288869411023619
30
0
10
9.3858994303733336
20
3.1864068826122951
30
0
10
9.587681107275607
20
3.1974046675744896
30
0
10
9.7512521699268682
20
3.1660823110863086
30
0
10
9.8751515311590214
20
3.1195109152307579
30
0
10
9.9582934526998166
20
3.0782121565412317
30
0
10
10
20
3.0549999999999997
30
0
0
ENDSEC
0
SECTION
2
OBJECTS
0
DICTIONARY
5
C
100
AcDbDictionary
3
ACAD_GROUP
350
D
3
ACAD_MLINESTYLE
350
17
0
DICTIONARY
5
D
100
AcDbDictionary
0
DICTIONARY
5
1A
330
C
100
AcDbDictionary
0
DICTIONARY
5
17
100
AcDbDictionary
0
ENDSEC
0
EOF
