0
SECTION
2
HEADER
9
$INSUNITS
70
4
9
$ACADVER
1
AC1014
9
$HANDSEED
5
FFFF
0
ENDSEC
0
SECTION
2
TABLES
0
TABLE
2
VPORT
5
8
100
AcDbSymbolTable
0
ENDTAB
0
TABLE
2
LTYPE
5
5
100
AcDbSymbolTable
0
LTYPE
5
14
100
AcDbSymbolTableRecord
100
AcDbLinetypeTableRecord
2
BYBLOCK
70
0
0
LTYPE
5
15
100
AcDbSymbolTableRecord
100
AcDbLinetypeTableRecord
2
BYLAYER
70
0
0
ENDTAB
0
TABLE
2
LAYER
5
2
100
AcDbSymbolTable
70
2
0
LAYER
5
50
100
AcDbSymbolTableRecord
100
AcDbLayerTableRecord
2
0
70
0
6
CONTINUOUS
0
ENDTAB
0
TABLE
2
STYLE
5
3
100
AcDbSymbolTable
70
1
0
STYLE
5
11
100
AcDbSymbolTableRecord
100
AcDbTextStyleTableRecord
2
STANDARD
70
0
0
ENDTAB
0
TABLE
2
VIEW
5
6
100
AcDbSymbolTable
70
0
0
ENDTAB
0
TABLE
2
UCS
5
7
100
AcDbSymbolTable
70
0
0
ENDTAB
0
TABLE
2
APPID
5
9
100
AcDbSymbolTable
70
2
0
APPID
5
12
100
AcDbSymbolTableRecord
100
AcDbRegAppTableRecord
2
ACAD
70
0
0
ENDTAB
0
TABLE
2
DIMSTYLE
5
A
100
AcDbSymbolTable
70
1
0
ENDTAB
0
TABLE
2
BLOCK_RECORD
5
1
100
AcDbSymbolTable
70
1
0
BLOCK_RECORD
5
1F
100
AcDbSymbolTableRecord
100
AcDbBlockTableRecord
2
*MODEL_SPACE
0
BLOCK_RECORD
5
1B
100
AcDbSymbolTableRecord
100
AcDbBlockTableRecord
2
*PAPER_SPACE
0
ENDTAB
0
ENDSEC
0
SECTION
2
BLOCKS
0
BLOCK
5
20
100
AcDbEntity
100
AcDbBlockBegin
2
*MODEL_SPACE
0
ENDBLK
5
21
100
AcDbEntity
100
AcDbBlockEnd
0
BLOCK
5
1C
100
AcDbEntity
100
AcDbBlockBegin
2
*PAPER_SPACE
0
ENDBLK
5
1D
100
AcDbEntity
100
AcDbBlockEnd
0
ENDSEC
0
SECTION
2
ENTITIES
0
SPLINE
5
100
100
AcDbEntity
8
0
100
AcDbSpline
70
4
71
5
72
16
73
10
74
0
42
0.000000001
43
0.0000000001
44
0.0000000001
40
0
40
0
40
0
40
0
40
0
40
0
40
0.20000000000000001
40
0.40000000000000002
40
0.60000000000000009
40
0.80000000000000004
40
1
40
1
40
1
40
1
40
1
40
1
41
1
41
1
41
1
41
1
41
1
41
1
41
1
41
1
41
1
41
1
10
0
20
-0.055000000000000049
30
0
10
0
20
0.069400000000207365
30
0
10
0
20
0.31820000000056603
30
0
10
0
20
0.69140000000093593
30
0
10
0
20
1.1890000000011365
30
0
10
0
20
1.8110000000010393
30
0
10
0
20
2.3086000000007481
30
0
10
0
20
2.6818000000004227
30
0
10
0
20
2.9306000000001484
30
0
10
0
20
3.0549999999999997
30
0
0
SPLINE
5
101
100
AcDbEntity
8
0
100
AcDbSpline
70
4
71
5
72
16
73
10
74
0
42
0.000000001
43
0.0000000001
44
0.0000000001
40
0
40
0
40
0
40
0
40
0
40
0
40
0.20000000000000001
40
0.40000000000000002
40
0.60000000000000009
40
0.80000000000000004
40
1
40
1
40
1
40
1
40
1
40
1
41
1
41
1
41
1
41
1
41
1
41
1
41
1
41
1
41
1
41
1
10
10
20
-0.055000000000000049
30
0
10
9.9999999999997495
20
0.069400000000207365
30
0
10
9.9999999999993197
20
0.31820000000056603
30
0
10
9.9999999999989129
20
0.69140000000093593
30
0
10
9.9999999999987672
20
1.1890000000011365
30
0
10
9.9999999999990248
20
1.8110000000010393
30
0
10
9.9999999999993889
20
2.3086000000007481
30
0
10
9.9999999999996998
20
2.6818000000004227
30
0
10
9.9999999999999005
20
2.9306000000001484
30
0
10
10
20
3.0549999999999997
30
0
0
SPLINE
5
102
100
AcDbEntity
8
0
100
AcDbSpline
70
4
71
5
72
16
73
10
74
0
42
0.000000001
43
0.0000000001
44
0.0000000001
40
0
40
0
40
0
40
0
40
0
40
0
40
0.20000000000000001
40
0.40000000000000002
40
0.60000000000000009
40
0.80000000000000004
40
1
40
1
40
1
40
1
40
1
40
1
41
1
41
1
41
1
41
1
41
1
41
1
41
1
41
1
41
1
41
1
10
0
20
1.5274999999999999
30
0
10
0.40000000000047375
20
1.5274999999999856
30
0
10
1.2000000000012774
20
1.5274999999999614
30
0
10
2.4000000000020547
20
1.527499999999943
30
0
10
4.0000000000023546
20
1.5274999999999479
30
0
10
6.0000000000019584
20
1.5274999999999812
30
0
10
7.6000000000012928
20
1.5275000000000025
30
0
10
8.800000000000697
20
1.5275000000000083
30
0
10
9.6000000000002395
20
1.5275000000000039
30
0
10
10
20
1.5274999999999999
30
0
0
SPLINE
5
103
100
AcDbEntity
8
0
100
AcDbSpline
70
4
71
5
72
61
73
55
74
0
42
0.000000001
43
0.0000000001
44
0.0000000001
40
0
40
0
40
0
40
0
40
0
40
0
40
0.02
40
0.040000000000000001
40
0.059999999999999998
40
0.080000000000000002
40
0.10000000000000001
40
0.12000000000000001
40
0.14000000000000001
40
0.16
40
0.17999999999999999
40
0.19999999999999998
40
0.21999999999999997
40
0.23999999999999996
40
0.25999999999999995
40
0.27999999999999997
40
0.29999999999999999
40
0.32000000000000001
40
0.34000000000000002
40
0.36000000000000004
40
0.38000000000000006
40
0.40000000000000008
40
0.4200000000000001
40
0.44000000000000011
40
0.46000000000000013
40
0.48000000000000015
40
0.50000000000000011
40
0.52000000000000013
40
0.54000000000000015
40
0.56000000000000016
40
0.58000000000000018
40
0.6000000000000002
40
0.62000000000000022
40
0.64000000000000024
40
0.66000000000000025
40
0.68000000000000027
40
0.70000000000000029
40
0.72000000000000031
40
0.74000000000000032
40
0.76000000000000034
40
0.78000000000000036
40
0.80000000000000038
40
0.8200000000000004
40
0.84000000000000041
40
0.86000000000000043
40
0.88000000000000045
40
0.90000000000000047
40
0.92000000000000048
40
0.9400000000000005
40
0.96000000000000052
40
0.98000000000000054
40
1
40
1
40
1
40
1
40
1
40
1
41
1
41
1
41
1
41
1
41
1
41
1
41
1
41
1
41
1
41
1
41
1
41
1
41
1
41
1
41
1
41
1
41
1
41
1
41
1
41
1
41
1
41
1
41
1
41
1
41
1
41
1
41
1
41
1
41
1
41
1
41
1
41
1
41
1
41
1
41
1
41
1
41
1
41
1
41
1
41
1
41
1
41
1
41
1
41
1
41
1
41
1
41
1
41
1
41
1
41
1
41
1
41
1
41
1
41
1
41
1
10
0
20
-0.055000000000000049
30
0
10
0.039987711498154749
20
-0.035368248015876111
30
0
10
0.11999057558016499
20
0.0013414461339595674
30
0
10
0.24007719505492217
20
0.048744545471844092
30
0
10
0.40035744083251529
20
0.096615918344797672
30
0
10
0.60097938287681241
20
0.13136908127230851
30
0
10
0.80186299813744533
20
0.14254519641432323
30
0
10
1.0029875559750652
20
0.133237524535749
30
0
10
1.2043176660513157
20
0.10868434380880204
30
0
10
1.4057996263183237
20
0.076798781182308276
30
0
10
1.6073749712812599
20
0.046360856274765376
30
0
10
1.8089939498822045
20
0.025226804645564462
30
0
10
2.0106287010242956
20
0.018562073148021174
30
0
10
2.2122873882808252
20
0.026985883322807165
30
0
10
2.4140258259733147
20
0.044944731994478605
30
0
10
2.6159110561696335
20
0.063654889926003599
30
0
10
2.8179863687676758
20
0.073871462442467992
30
0
10
3.0202371843701186
20
0.068644158277428952
30
0
10
3.2225530742430264
20
0.046257619889975315
30
0
10
3.4247008184672572
20
0.012603323278167568
30
0
10
3.6264046696608725
20
-0.022128475344158016
30
0
10
3.8274194980869698
20
-0.04633331080879069
30
0
10
4.0276034612755698
20
-0.049943757245386806
30
0
10
4.2269986479917723
20
-0.027561552111768639
30
0
10
4.4258867424103157
20
0.01908455821301288
30
0
10
4.6246717892907006
20
0.083512019325816644
30
0
10
4.8237799177655027
20
0.15634557491815779
30
0
10
5.0235560455346375
20
0.22733937010891739
30
0
10
5.2241538674017995
20
0.28738808673339367
30
0
10
5.4254510110142622
20
0.33036281231156428
30
0
10
5.6271745502139225
20
0.35315663008398779
30
0
10
5.8290090603340374
20
0.35594016998878419
30
0
10
6.0307057276066089
20
0.34228253394536468
30
0
10
6.2322037857766261
20
0.31948655410663462
30
0
10
6.4337097966430559
20
0.29841167333416091
30
0
10
6.6355224781629607
20
0.2904249341930476
30
0
10
6.8378818286246332
20
0.30458466388843497
30
0
10
7.040819848412216
20
0.34492984605211857
30
0
10
7.2439842126773772
20
0.40724341488358751
30
0
10
7.446551041094148
20
0.47744037281149942
30
0
10
7.647517075718512
20
0.53682761021693592
30
0
10
7.8459427300041611
20
0.56646321354248208
30
0
10
8.0412010261351945
20
0.55164091879941146
30
0
10
8.2332560934976815
20
0.48685363229153833
30
0
10
8.4228347250657549
20
0.37897430119686126
30
0
10
8.6111441852041199
20
0.24285518848858131
30
0
10
8.799659932399468
20
0.098094278216777284
30
0
10
8.9898851504921335
20
-0.034665159101016634
30
0
10
9.1831267118612647
20
-0.1371679962867865
30
0
10
9.3802524341395568
20
-0.19726714205285961
30
0
10
9.5817729495397739
20
-0.2077975028709321
30
0
10
9.7467042026338024
20
-0.17375961295991127
30
0
10
9.8725266315385074
20
-0.12385387716251123
30
0
10
9.9573516453017419
20
-0.07975587044783726
30
0
10
10
20
-0.055000000000000049
30
0
0
SPLINE
5
104
100
AcDbEntity
8
0
100
AcDbSpline
70
4
71
5
72
61
73
55
74
0
42
0.000000001
43
0.0000000001
44
0.0000000001
40
0
40
0
40
0
40
0
40
0
40
0
40
0.02
40
0.040000000000000001
40
0.059999999999999998
40
0.080000000000000002
40
0.10000000000000001
40
0.12000000000000001
40
0.14000000000000001
40
0.16
40
0.17999999999999999
40
0.19999999999999998
40
0.21999999999999997
40
0.23999999999999996
40
0.25999999999999995
40
0.27999999999999997
40
0.29999999999999999
40
0.32000000000000001
40
0.34000000000000002
40
0.36000000000000004
40
0.38000000000000006
40
0.40000000000000008
40
0.4200000000000001
40
0.44000000000000011
40
0.46000000000000013
40
0.48000000000000015
40
0.50000000000000011
40
0.52000000000000013
40
0.54000000000000015
40
0.56000000000000016
40
0.58000000000000018
40
0.6000000000000002
40
0.62000000000000022
40
0.64000000000000024
40
0.66000000000000025
40
0.68000000000000027
40
0.70000000000000029
40
0.72000000000000031
40
0.74000000000000032
40
0.76000000000000034
40
0.78000000000000036
40
0.80000000000000038
40
0.8200000000000004
40
0.84000000000000041
40
0.86000000000000043
40
0.88000000000000045
40
0.90000000000000047
40
0.92000000000000048
40
0.9400000000000005
40
0.96000000000000052
40
0.98000000000000054
40
1
40
1
40
1
40
1
40
1
40
1
41
1
41
1
41
1
41
1
41
1
41
1
41
1
41
1
41
1
41
1
41
1
41
1
41
1
41
1
41
1
41
1
41
1
41
1
41
1
41
1
41
1
41
1
41
1
41
1
41
1
41
1
41
1
41
1
41
1
41
1
41
1
41
1
41
1
41
1
41
1
41
1
41
1
41
1
41
1
41
1
41
1
41
1
41
1
41
1
41
1
41
1
41
1
41
1
41
1
41
1
41
1
41
1
41
1
41
1
41
1
10
0
20
3.0549999999999997
30
0
10
0.040741855541253716
20
3.0611193420884391
30
0
10
0.12216020879791614
20
3.0718279084326285
30
0
10
0.24409166221673964
20
3.0833003364612295
30
0
10
0.40627455083378256
20
3.0894106700855941
30
0
10
0.60837422616402781
20
3.0823126264780063
30
0
10
0.80992317499981492
20
3.0622742108164052
30
0
10
1.0110790593670753
20
3.0329162207899913
30
0
10
1.2121085911944418
20
3.0003642184033485
30
0
10
1.4134088576534996
20
2.9737402133260762
30
0
10
1.6153791091377678
20
2.9622839278706992
30
0
10
1.8182969261235018
20
2.9725656867497858
30
0
10
2.0221975837873227
20
3.0057885910144404
30
0
10
2.2267396230184069
20
3.0547394727042758
30
0
10
2.4311094796744719
20
3.1017318842237991
30
0
10
2.6342714749412077
20
3.1252030198846299
30
0
10
2.8351915376001839
20
3.1056985747924308
30
0
10
3.0330621565886551
20
3.0317900117655183
30
0
10
3.2275475879162223
20
2.90674808089467
30
0
10
3.4189611597899638
20
2.7528144630159979
30
0
10
3.6080539914961491
20
2.6017984030068471
30
0
10
3.7958534856924335
20
2.4874579017723955
30
0
10
3.9834818002617931
20
2.4370399093144539
30
0
10
4.1719871857201376
20
2.4635390182006889
30
0
10
4.3621592775960867
20
2.5566158950245663
30
0
10
4.5545253284126144
20
2.6900479557811545
30
0
10
4.7493621623584188
20
2.8303820008284979
30
0
10
4.9466994541243086
20
2.9454742886967002
30
0
10
5.1463312248437241
20
3.012290828214343
30
0
10
5.3478094782971333
20
3.0270515421228135
30
0
10
5.5505282922489378
20
3.0019730764197483
30
0
10
5.7538362641890668
20
2.9575122796033955
30
0
10
5.9571433880785527
20
2.9159033424124652
30
0
10
6.1600213525937466
20
2.8946577744199531
30
0
10
6.3623302170288207
20
2.8987987607414309
30
0
10
6.5641618930666787
20
2.9230964358150837
30
0
10
6.7657383241534896
20
2.9568403510526848
30
0
10
6.9673232452205189
20
2.9878344240320676
30
0
10
7.1691335671462948
20
3.0064675855593936
30
0
10
7.3712374371999942
20
3.0103921417983557
30
0
10
7.5735833972574351
20
3.0030025424270166
30
0
10
7.7760532756616199
20
2.990787302734232
30
0
10
7.9785073311877319
20
2.9810456894563764
30
0
10
8.1808307800057847
20
2.9795471795897956
30
0
10
8.3829844896030341
20
2.987968176476659
30
0
10
8.5849897355251361
20
3.0047453088129195
30
0
10
8.7869055579640971
20
3.0263101595610857
30
0
10
8.9888087372314622
20
3.0481894893200838
30
0
10
9.1907731039536262
20
3.0661380825639677
30
0
10
9.3928481387757667
20
3.0773129455413635
30
0
10
9.5950630450362198
20
3.0800363591858391
30
0
10
9.756958407405552
20
3.0747915817420184
30
0
10
9.8784514189639232
20
3.0665644762219948
30
0
10
9.959478514039299
20
3.0591726675268411
30
0
10
10
20
3.0549999999999997
30
0
0
ENDSEC
0
SECTION
2
OBJECTS
0
DICTIONARY
5
C
100
AcDbDictionary
3
ACAD_GROUP
350
D
3
ACAD_MLINESTYLE
350
17
0
DICTIONARY
5
D
100
AcDbDictionary
0
DICTIONARY
5
1A
330
C
100
AcDbDictionary
0
DICTIONARY
5
17
100
AcDbDictionary
0
ENDSEC
0
EOF
