0
SECTION
2
HEADER
9
$INSUNITS
70
4
9
$ACADVER
1
AC1014
9
$HANDSEED
5
FFFF
0
ENDSEC
0
SECTION
2
TABLES
0
TABLE
2
VPORT
5
8
100
AcDbSymbolTable
0
ENDTAB
0
TABLE
2
LTYPE
5
5
100
AcDbSymbolTable
0
LTYPE
5
14
100
AcDbSymbolTableRecord
100
AcDbLinetypeTableRecord
2
BYBLOCK
70
0
0
LTYPE
5
15
100
AcDbSymbolTableRecord
100
AcDbLinetypeTableRecord
2
BYLAYER
70
0
0
ENDTAB
0
TABLE
2
LAYER
5
2
100
AcDbSymbolTable
70
2
0
LAYER
5
50
100
AcDbSymbolTableRecord
100
AcDbLayerTableRecord
2
0
70
0
6
CONTINUOUS
0
ENDTAB
0
TABLE
2
STYLE
5
3
100
AcDbSymbolTable
70
1
0
STYLE
5
11
100
AcDbSymbolTableRecord
100
AcDbTextStyleTableRecord
2
STANDARD
70
0
0
ENDTAB
0
TABLE
2
VIEW
5
6
100
AcDbSymbolTable
70
0
0
ENDTAB
0
TABLE
2
UCS
5
7
100
AcDbSymbolTable
70
0
0
ENDTAB
0
TABLE
2
APPID
5
9
100
AcDbSymbolTable
70
2
0
APPID
5
12
100
AcDbSymbolTableRecord
100
AcDbRegAppTableRecord
2
ACAD
70
0
0
ENDTAB
0
TABLE
2
DIMSTYLE
5
A
100
AcDbSymbolTable
70
1
0
ENDTAB
0
TABLE
2
BLOCK_RECORD
5
1
100
AcDbSymbolTable
70
1
0
BLOCK_RECORD
5
1F
100
AcDbSymbolTableRecord
100
AcDbBlockTableRecord
2
*MODEL_SPACE
0
BLOCK_RECORD
5
1B
100
AcDbSymbolTableRecord
100
AcDbBlockTableRecord
2
*PAPER_SPACE
0
ENDTAB
0
ENDSEC
0
SECTION
2
BLOCKS
0
BLOCK
5
20
100
AcDbEntity
100
AcDbBlockBegin
2
*MODEL_SPACE
0
ENDBLK
5
21
100
AcDbEntity
100
AcDbBlockEnd
0
BLOCK
5
1C
100
AcDbEntity
100
AcDbBlockBegin
2
*PAPER_SPACE
0
ENDBLK
5
1D
100
AcDbEntity
100
AcDbBlockEnd
0
ENDSEC
0
SECTION
2
ENTITIES
0
SPLINE
5
100
100
AcDbEntity
8
0
100
AcDbSpline
70
4
71
5
72
16
73
10
74
0
42
0.000000001
43
0.0000000001
44
0.0000000001
40
0
40
0
40
0
40
0
40
0
40
0
40
0.20000000000000001
40
0.40000000000000002
40
0.60000000000000009
40
0.80000000000000004
40
1
40
1
40
1
40
1
40
1
40
1
41
1
41
1
41
1
41
1
41
1
41
1
41
1
41
1
41
1
41
1
10
0
20
-0.055000000000000049
30
0
10
0
20
0.069400000000207365
30
0
10
0
20
0.31820000000056603
30
0
10
0
20
0.69140000000093593
30
0
10
0
20
1.1890000000011365
30
0
10
0
20
1.8110000000010393
30
0
10
0
20
2.3086000000007481
30
0
10
0
20
2.6818000000004227
30
0
10
0
20
2.9306000000001484
30
0
10
0
20
3.0549999999999997
30
0
0
SPLINE
5
101
100
AcDbEntity
8
0
100
AcDbSpline
70
4
71
5
72
16
73
10
74
0
42
0.000000001
43
0.0000000001
44
0.0000000001
40
0
40
0
40
0
40
0
40
0
40
0
40
0.20000000000000001
40
0.40000000000000002
40
0.60000000000000009
40
0.80000000000000004
40
1
40
1
40
1
40
1
40
1
40
1
41
1
41
1
41
1
41
1
41
1
41
1
41
1
41
1
41
1
41
1
10
10
20
-0.055000000000000049
30
0
10
9.9999999999997495
20
0.069400000000207365
30
0
10
9.9999999999993197
20
0.31820000000056603
30
0
10
9.9999999999989129
20
0.69140000000093593
30
0
10
9.9999999999987672
20
1.1890000000011365
30
0
10
9.9999999999990248
20
1.8110000000010393
30
0
10
9.9999999999993889
20
2.3086000000007481
30
0
10
9.9999999999996998
20
2.6818000000004227
30
0
10
9.9999999999999005
20
2.9306000000001484
30
0
10
10
20
3.0549999999999997
30
0
0
SPLINE
5
102
100
AcDbEntity
8
0
100
AcDbSpline
70
4
71
5
72
16
73
10
74
0
42
0.000000001
43
0.0000000001
44
0.0000000001
40
0
40
0
40
0
40
0
40
0
40
0
40
0.20000000000000001
40
0.40000000000000002
40
0.60000000000000009
40
0.80000000000000004
40
1
40
1
40
1
40
1
40
1
40
1
41
1
41
1
41
1
41
1
41
1
41
1
41
1
41
1
41
1
41
1
10
0
20
1.5274999999999999
30
0
10
0.40000000000047375
20
1.5274999999999856
30
0
10
1.2000000000012774
20
1.5274999999999614
30
0
10
2.4000000000020547
20
1.527499999999943
30
0
10
4.0000000000023546
20
1.5274999999999479
30
0
10
6.0000000000019584
20
1.5274999999999812
30
0
10
7.6000000000012928
20
1.5275000000000025
30
0
10
8.800000000000697
20
1.5275000000000083
30
0
10
9.6000000000002395
20
1.5275000000000039
30
0
10
10
20
1.5274999999999999
30
0
0
SPLINE
5
103
100
AcDbEntity
8
0
100
AcDbSpline
70
4
71
5
72
111
73
105
74
0
42
0.000000001
43
0.0000000001
44
0.0000000001
40
0
40
0
40
0
40
0
40
0
40
0
40
0.01
40
0.02
40
0.029999999999999999
40
0.040000000000000001
40
0.050000000000000003
40
0.060000000000000005
40
0.070000000000000007
40
0.080000000000000002
40
0.089999999999999997
40
0.099999999999999992
40
0.10999999999999999
40
0.11999999999999998
40
0.12999999999999998
40
0.13999999999999999
40
0.14999999999999999
40
0.16
40
0.17000000000000001
40
0.18000000000000002
40
0.19000000000000003
40
0.20000000000000004
40
0.21000000000000005
40
0.22000000000000006
40
0.23000000000000007
40
0.24000000000000007
40
0.25000000000000006
40
0.26000000000000006
40
0.27000000000000007
40
0.28000000000000008
40
0.29000000000000009
40
0.3000000000000001
40
0.31000000000000011
40
0.32000000000000012
40
0.33000000000000013
40
0.34000000000000014
40
0.35000000000000014
40
0.36000000000000015
40
0.37000000000000016
40
0.38000000000000017
40
0.39000000000000018
40
0.40000000000000019
40
0.4100000000000002
40
0.42000000000000021
40
0.43000000000000022
40
0.44000000000000022
40
0.45000000000000023
40
0.46000000000000024
40
0.47000000000000025
40
0.48000000000000026
40
0.49000000000000027
40
0.50000000000000022
40
0.51000000000000023
40
0.52000000000000024
40
0.53000000000000025
40
0.54000000000000026
40
0.55000000000000027
40
0.56000000000000028
40
0.57000000000000028
40
0.58000000000000029
40
0.5900000000000003
40
0.60000000000000031
40
0.61000000000000032
40
0.62000000000000033
40
0.63000000000000034
40
0.64000000000000035
40
0.65000000000000036
40
0.66000000000000036
40
0.67000000000000037
40
0.68000000000000038
40
0.69000000000000039
40
0.7000000000000004
40
0.71000000000000041
40
0.72000000000000042
40
0.73000000000000043
40
0.74000000000000044
40
0.75000000000000044
40
0.76000000000000045
40
0.77000000000000046
40
0.78000000000000047
40
0.79000000000000048
40
0.80000000000000049
40
0.8100000000000005
40
0.82000000000000051
40
0.83000000000000052
40
0.84000000000000052
40
0.85000000000000053
40
0.86000000000000054
40
0.87000000000000055
40
0.88000000000000056
40
0.89000000000000057
40
0.90000000000000058
40
0.91000000000000059
40
0.9200000000000006
40
0.9300000000000006
40
0.94000000000000061
40
0.95000000000000062
40
0.96000000000000063
40
0.97000000000000064
40
0.98000000000000065
40
0.99000000000000066
40
1
40
1
40
1
40
1
40
1
40
1
41
1
41
1
41
1
41
1
41
1
41
1
41
1
41
1
41
1
41
1
41
1
41
1
41
1
41
1
41
1
41
1
41
1
41
1
41
1
41
1
41
1
41
1
41
1
41
1
41
1
41
1
41
1
41
1
41
1
41
1
41
1
41
1
41
1
41
1
41
1
41
1
41
1
41
1
41
1
41
1
41
1
41
1
41
1
41
1
41
1
41
1
41
1
41
1
41
1
41
1
41
1
41
1
41
1
41
1
41
1
41
1
41
1
41
1
41
1
41
1
41
1
41
1
41
1
41
1
41
1
41
1
41
1
41
1
41
1
41
1
41
1
41
1
41
1
41
1
41
1
41
1
41
1
41
1
41
1
41
1
41
1
41
1
41
1
41
1
41
1
41
1
41
1
41
1
41
1
41
1
41
1
41
1
41
1
41
1
41
1
41
1
41
1
41
1
41
1
41
1
41
1
41
1
41
1
41
1
41
1
10
0
20
-0.055000000000000049
30
0
10
0.019894027331562956
20
-0.033383721463810696
30
0
10
0.059735996937701735
20
0.007224532463674418
30
0
10
0.11966069595965323
20
0.060263978399247756
30
0
10
0.1998838384138851
20
0.11523502721062015
30
0
10
0.30070225838535602
20
0.1581365958385233
30
0
10
0.4020604348143681
20
0.17656026333383923
30
0
10
0.50395843929798823
20
0.17318740182109565
30
0
10
0.60639617025623938
20
0.15252138800335152
30
0
10
0.70937278710832086
20
0.12129192097594345
30
0
10
0.8128750646677495
20
0.087150179658193813
30
0
10
0.91686532213059846
20
0.057391034065771798
30
0
10
1.0212710817035977
20
0.037728991017367396
30
0
10
1.125970273861334
20
0.030901248664981094
30
0
10
1.2307894044378231
20
0.035796864031437198
30
0
10
1.3355513129519569
20
0.048772569217781434
30
0
10
1.4401190082299375
20
0.064657747481273481
30
0
10
1.5444341439575764
20
0.077857217243020332
30
0
10
1.648574416026364
20
0.08346584560923917
30
0
10
1.7527432192370873
20
0.078172653134724934
30
0
10
1.857169278096646
20
0.06075745948021221
30
0
10
1.9620236423748614
20
0.032793085805717229
30
0
10
2.0673401579900568
20
-0.00095509839460593119
30
0
10
2.1729080798622249
20
-0.031446624881449843
30
0
10
2.2783061834500868
20
-0.047275349867267238
30
0
10
2.3830151131713295
20
-0.038135674527598806
30
0
10
2.4865066772878328
20
0.0020721472698119465
30
0
10
2.588339781841551
20
0.072252047870626612
30
0
10
2.6882612350046524
20
0.16036617684309903
30
0
10
2.7862183991683143
20
0.24755029369183978
30
0
10
2.8823562964750304
20
0.3132741815849488
30
0
10
2.9770235817584316
20
0.340351084136162
30
0
10
3.0707676908733097
20
0.31951203759878488
30
0
10
3.1643533131510706
20
0.25545659555126071
30
0
10
3.2586514421809065
20
0.16386155244190587
30
0
10
3.3544936247692991
20
0.065690561101317393
30
0
10
3.4525288558156806
20
-0.017818746580095888
30
0
10
3.5530992759482616
20
-0.069939165917999507
30
0
10
3.6560582517680986
20
-0.084598753542187072
30
0
10
3.760815209777606
20
-0.066766675349487131
30
0
10
3.8665751401762942
20
-0.027758182482689808
30
0
10
3.9725316569703644
20
0.018126445573343749
30
0
10
4.0780606823256909
20
0.057288208830535953
30
0
10
4.1829608375226179
20
0.080935705005395292
30
0
10
4.2873784766525116
20
0.085480157489599723
30
0
10
4.391624179252803
20
0.071596972423562749
30
0
10
4.4960242711145701
20
0.043741168611431375
30
0
10
4.6007603953616165
20
0.0094633248424467083
30
0
10
4.7057068278805385
20
-0.021150287228283614
30
0
10
4.8105563352525822
20
-0.037915400916350248
30
0
10
4.9149612227118942
20
-0.033135090673327233
30
0
10
5.0186612775293158
20
-0.0039443254286112587
30
0
10
5.1216345002030081
20
0.04480246308663953
30
0
10
5.2241869671002306
20
0.099173882018278092
30
0
10
5.3267583548601252
20
0.14194806830051607
30
0
10
5.429757317712375
20
0.15771394017857648
30
0
10
5.5334007020255491
20
0.1377137287067598
30
0
10
5.6375144456929185
20
0.086045140722298255
30
0
10
5.7414710913540912
20
0.021195642335771155
30
0
10
5.8444252224878834
20
-0.032432555699406278
30
0
10
5.9454939658019086
20
-0.051277202771839947
30
0
10
6.0439452418460142
20
-0.019322450301748846
30
0
10
6.1394169100777018
20
0.06339521901858923
30
0
10
6.2319967933944103
20
0.17960216486170241
30
0
10
6.3221179226859796
20
0.30319916957405857
30
0
10
6.4105007734290611
20
0.40522022095411953
30
0
10
6.4980770188882744
20
0.46081549897481699
30
0
10
6.5859204479750533
20
0.4557243068958019
30
0
10
6.6751772409691199
20
0.39317209955495036
30
0
10
6.7669095316369612
20
0.28880758682436669
30
0
10
6.8619431902269739
20
0.16554026308833183
30
0
10
6.9607010810860945
20
0.048238446735467941
30
0
10
7.0630715255343581
20
-0.041101559163069061
30
0
10
7.1681877703097623
20
-0.089417545258375475
30
0
10
7.274593664658684
20
-0.093225091496837026
30
0
10
7.3806341682274894
20
-0.056026120080482952
30
0
10
7.4847865546226693
20
0.013299095413696147
30
0
10
7.5859954269030503
20
0.10248840749056222
30
0
10
7.6840606897374739
20
0.19776319151248695
30
0
10
7.7794791859397838
20
0.28533463258514197
30
0
10
7.8731926135053945
20
0.35276275058234713
30
0
10
7.966363052737627
20
0.39044422160670189
30
0
10
8.0601498421272506
20
0.39288032341085677
30
0
10
8.155453754349546
20
0.36046280520314467
30
0
10
8.2528360757175214
20
0.29895123782197913
30
0
10
8.3525378235406773
20
0.2177160072193626
30
0
10
8.4544624722911017
20
0.12835125686557664
30
0
10
8.558184952827494
20
0.043169201602982335
30
0
10
8.6629210339582254
20
-0.026335626726322559
30
0
10
8.7676336662342926
20
-0.070646725218565423
30
0
10
8.8712363820317837
20
-0.083020546838882853
30
0
10
8.9727767041442057
20
-0.060456078645981043
30
0
10
9.0716101617925435
20
-0.004450498908797439
30
0
10
9.1676234213859153
20
0.077783575021968504
30
0
10
9.2611692518578064
20
0.1744739603758324
30
0
10
9.3528952674841435
20
0.27128670215047851
30
0
10
9.4436036719353726
20
0.3531012042743441
30
0
10
9.5341071990365034
20
0.40575659424929922
30
0
10
9.6250649518109963
20
0.41810294428391065
30
0
10
9.7169022558152633
20
0.38291074102508477
30
0
10
9.8098785616067659
20
0.29580051431613902
30
0
10
9.8852726673273121
20
0.18286278957435262
30
0
10
9.9424073195932383
20
0.073513827171750229
30
0
10
9.9807588168685175
20
-0.010336815483177062
30
0
10
10
20
-0.055000000000000049
30
0
0
SPLINE
5
104
100
AcDbEntity
8
0
100
AcDbSpline
70
4
71
5
72
111
73
105
74
0
42
0.000000001
43
0.0000000001
44
0.0000000001
40
0
40
0
40
0
40
0
40
0
40
0
40
0.01
40
0.02
40
0.029999999999999999
40
0.040000000000000001
40
0.050000000000000003
40
0.060000000000000005
40
0.070000000000000007
40
0.080000000000000002
40
0.089999999999999997
40
0.099999999999999992
40
0.10999999999999999
40
0.11999999999999998
40
0.12999999999999998
40
0.13999999999999999
40
0.14999999999999999
40
0.16
40
0.17000000000000001
40
0.18000000000000002
40
0.19000000000000003
40
0.20000000000000004
40
0.21000000000000005
40
0.22000000000000006
40
0.23000000000000007
40
0.24000000000000007
40
0.25000000000000006
40
0.26000000000000006
40
0.27000000000000007
40
0.28000000000000008
40
0.29000000000000009
40
0.3000000000000001
40
0.31000000000000011
40
0.32000000000000012
40
0.33000000000000013
40
0.34000000000000014
40
0.35000000000000014
40
0.36000000000000015
40
0.37000000000000016
40
0.38000000000000017
40
0.39000000000000018
40
0.40000000000000019
40
0.4100000000000002
40
0.42000000000000021
40
0.43000000000000022
40
0.44000000000000022
40
0.45000000000000023
40
0.46000000000000024
40
0.47000000000000025
40
0.48000000000000026
40
0.49000000000000027
40
0.50000000000000022
40
0.51000000000000023
40
0.52000000000000024
40
0.53000000000000025
40
0.54000000000000026
40
0.55000000000000027
40
0.56000000000000028
40
0.57000000000000028
40
0.58000000000000029
40
0.5900000000000003
40
0.60000000000000031
40
0.61000000000000032
40
0.62000000000000033
40
0.63000000000000034
40
0.64000000000000035
40
0.65000000000000036
40
0.66000000000000036
40
0.67000000000000037
40
0.68000000000000038
40
0.69000000000000039
40
0.7000000000000004
40
0.71000000000000041
40
0.72000000000000042
40
0.73000000000000043
40
0.74000000000000044
40
0.75000000000000044
40
0.76000000000000045
40
0.77000000000000046
40
0.78000000000000047
40
0.79000000000000048
40
0.80000000000000049
40
0.8100000000000005
40
0.82000000000000051
40
0.83000000000000052
40
0.84000000000000052
40
0.85000000000000053
40
0.86000000000000054
40
0.87000000000000055
40
0.88000000000000056
40
0.89000000000000057
40
0.90000000000000058
40
0.91000000000000059
40
0.9200000000000006
40
0.9300000000000006
40
0.94000000000000061
40
0.95000000000000062
40
0.96000000000000063
40
0.97000000000000064
40
0.98000000000000065
40
0.99000000000000066
40
1
40
1
40
1
40
1
40
1
40
1
41
1
41
1
41
1
41
1
41
1
41
1
41
1
41
1
41
1
41
1
41
1
41
1
41
1
41
1
41
1
41
1
41
1
41
1
41
1
41
1
41
1
41
1
41
1
41
1
41
1
41
1
41
1
41
1
41
1
41
1
41
1
41
1
41
1
41
1
41
1
41
1
41
1
41
1
41
1
41
1
41
1
41
1
41
1
41
1
41
1
41
1
41
1
41
1
41
1
41
1
41
1
41
1
41
1
41
1
41
1
41
1
41
1
41
1
41
1
41
1
41
1
41
1
41
1
41
1
41
1
41
1
41
1
41
1
41
1
41
1
41
1
41
1
41
1
41
1
41
1
41
1
41
1
41
1
41
1
41
1
41
1
41
1
41
1
41
1
41
1
41
1
41
1
41
1
41
1
41
1
41
1
41
1
41
1
41
1
41
1
41
1
41
1
41
1
41
1
41
1
41
1
41
1
41
1
41
1
41
1
10
0
20
3.0549999999999997
30
0
10
0.020418834050010708
20
3.0536543151826709
30
0
10
0.06126205264995839
20
3.0510367455297986
30
0
10
0.12254353270442253
20
3.0473318044500717
30
0
10
0.20428547683542128
20
3.0428346653367235
30
0
10
0.30651522961832539
20
3.0378880719056731
30
0
10
0.40878759097060374
20
3.0334239627043491
30
0
10
0.51108327336819048
20
3.0290608332584315
30
0
10
0.61336967724182112
20
3.0241537921517758
30
0
10
0.71559904367567972
20
3.0177592010538099
30
0
10
0.81772239130611268
20
3.0089237663674999
30
0
10
0.91970261179486201
20
2.9969562944420787
30
0
10
1.021526849118098
20
2.9816848517839718
30
0
10
1.123221642547078
20
2.9637704705432331
30
0
10
1.2248594822611261
20
2.9448449783413597
30
0
10
1.3265320560186986
20
2.9269624877329008
30
0
10
1.4283275631886729
20
2.9121381053808411
30
0
10
1.530308419716959
20
2.9018863448549839
30
0
10
1.6324840912036251
20
2.8966793654447347
30
0
10
1.7348011092281816
20
2.8956981844208114
30
0
10
1.8371752416764169
20
2.8973236085490406
30
0
10
1.9395166859424013
20
2.8994860223791328
30
0
10
2.0417553829251971
20
2.9000634537935777
30
0
10
2.1438726437926463
20
2.8972769962065188
30
0
10
2.2459075654052669
20
2.8900188822787731
30
0
10
2.3479261439399286
20
2.8780248782228144
30
0
10
2.4499980188821757
20
2.8621314941294091
30
0
10
2.5521731214751675
20
2.8444003003867917
30
0
10
2.6544510732377988
20
2.828542118151478
30
0
10
2.7567825501901524
20
2.8192588168938886
30
0
10
2.8591005035524968
20
2.8206410589402835
30
0
10
2.9613455154629991
20
2.8346976864026248
30
0
10
3.0634883402472419
20
2.8601078052013138
30
0
10
3.1655666459766341
20
2.8901840026720267
30
0
10
3.2676547335729111
20
2.9144344616881748
30
0
10
3.3697959183551203
20
2.9221701752404305
30
0
10
3.4719412171950497
20
2.9056727591205305
30
0
10
3.5738966789794171
20
2.8631341088441715
30
0
10
3.6752381770951463
20
2.8027443646272787
30
0
10
3.7754112653926235
20
2.7400244895598669
30
0
10
3.8738937569814462
20
2.6927931989585465
30
0
10
3.970346805903695
20
2.6766926847291019
30
0
10
4.0647505125424752
20
2.7009749257012414
30
0
10
4.1575978938516247
20
2.7629215758639996
30
0
10
4.2497860969639403
20
2.849606881025692
30
0
10
4.3423756199645407
20
2.9429151584889151
30
0
10
4.436383712004063
20
3.0236523609737773
30
0
10
4.5325816361137496
20
3.0757240003125013
30
0
10
4.6312466117629087
20
3.0910305223499273
30
0
10
4.7320786930258674
20
3.0715604062000468
30
0
10
4.8344469782612904
20
3.0257652766464469
30
0
10
4.9375722032771305
20
2.9661162289159364
30
0
10
5.0407192022829843
20
2.9063012022139478
30
0
10
5.1434223145375988
20
2.8583103331812012
30
0
10
5.2455664678664409
20
2.8305162761014619
30
0
10
5.3472354379519906
20
2.8275776646138273
30
0
10
5.4486102193821306
20
2.8498035694414807
30
0
10
5.5498581923047405
20
2.8929505591345488
30
0
10
5.6509995882315911
20
2.9473016591657872
30
0
10
5.7518874560994169
20
2.9990990312051369
30
0
10
5.8523080936259051
20
3.0342136719688542
30
0
10
5.9520527896324928
20
3.0414274244682855
30
0
10
6.0509925589720588
20
3.0154135083926907
30
0
10
6.1491730158086222
20
2.9609788148409382
30
0
10
6.2468150327795611
20
2.8922506076032564
30
0
10
6.3442256284579823
20
2.8271885484208052
30
0
10
6.4417304055199072
20
2.783173384195869
30
0
10
6.5396046110677917
20
2.7726285321780098
30
0
10
6.6379868233809605
20
2.7974809385398443
30
0
10
6.7368633731349812
20
2.8481650862288275
30
0
10
6.836158230423699
20
2.9094601814940146
30
0
10
6.9358026520952016
20
2.9648824265274016
30
0
10
7.0358019565108556
20
3.0012329932874131
30
0
10
7.1363300324911636
20
3.0141035661321154
30
0
10
7.2377228678298655
20
3.0095104482755413
30
0
10
7.3402926578323937
20
2.9983264403261281
30
0
10
7.4441689711901269
20
2.9920763491654694
30
0
10
7.5491560400453785
20
2.9986968115503094
30
0
10
7.6545172692399008
20
3.0170708020208981
30
0
10
7.7590386743112836
20
3.0367713036853634
30
0
10
7.8614019455068886
20
3.043754226208379
30
0
10
7.9604942102645806
20
3.0247258371559669
30
0
10
8.0557048152758153
20
2.9715294290039167
30
0
10
8.1473240809811784
20
2.8868145757479042
30
0
10
8.2364728334129182
20
2.7834531225732788
30
0
10
8.3246917970120862
20
2.6793794617670414
30
0
10
8.4136296720618837
20
2.5937622614427358
30
0
10
8.504695065167537
20
2.5426829951798706
30
0
10
8.5987134361954762
20
2.5348966159391302
30
0
10
8.6956110260350723
20
2.5679159848230211
30
0
10
8.7947204000972334
20
2.6317609636672494
30
0
10
8.8950526798553895
20
2.7122957641055812
30
0
10
8.9955843552477059
20
2.7947453526749766
30
0
10
9.095532715744131
20
2.8670741231953372
30
0
10
9.1946501454134673
20
2.9235892855258214
30
0
10
9.2930957552253108
20
2.9635283973810207
30
0
10
9.391290334872064
20
2.9894479500739002
30
0
10
9.4897756463861178
20
3.0056664376951674
30
0
10
9.5890763989366334
20
3.0167325546932737
30
0
10
9.6895493220658793
20
3.0257585965590699
30
0
10
9.791405446200713
20
3.03458613544769
30
0
10
9.8740815626268912
20
3.0422330615094921
30
0
10
9.936774204750531
20
3.0484349182346109
30
0
10
9.9788739590255133
20
3.0527770528783256
30
0
10
10
20
3.0549999999999997
30
0
0
ENDSEC
0
SECTION
2
OBJECTS
0
DICTIONARY
5
C
100
AcDbDictionary
3
ACAD_GROUP
350
D
3
ACAD_MLINESTYLE
350
17
0
DICTIONARY
5
D
100
AcDbDictionary
0
DICTIONARY
5
1A
330
C
100
AcDbDictionary
0
DICTIONARY
5
17
100
AcDbDictionary
0
ENDSEC
0
EOF
