0
SECTION
2
HEADER
9
$INSUNITS
70
4
9
$ACADVER
1
AC1014
9
$HANDSEED
5
FFFF
0
ENDSEC
0
SECTION
2
TABLES
0
TABLE
2
VPORT
5
8
100
AcDbSymbolTable
0
ENDTAB
0
TABLE
2
LTYPE
5
5
100
AcDbSymbolTable
0
LTYPE
5
14
100
AcDbSymbolTableRecord
100
AcDbLinetypeTableRecord
2
BYBLOCK
70
0
0
LTYPE
5
15
100
AcDbSymbolTableRecord
100
AcDbLinetypeTableRecord
2
BYLAYER
70
0
0
ENDTAB
0
TABLE
2
LAYER
5
2
100
AcDbSymbolTable
70
2
0
LAYER
5
50
100
AcDbSymbolTableRecord
100
AcDbLayerTableRecord
2
0
70
0
6
CONTINUOUS
0
ENDTAB
0
TABLE
2
STYLE
5
3
100
AcDbSymbolTable
70
1
0
STYLE
5
11
100
AcDbSymbolTableRecord
100
AcDbTextStyleTableRecord
2
STANDARD
70
0
0
ENDTAB
0
TABLE
2
VIEW
5
6
100
AcDbSymbolTable
70
0
0
ENDTAB
0
TABLE
2
UCS
5
7
100
AcDbSymbolTable
70
0
0
ENDTAB
0
TABLE
2
APPID
5
9
100
AcDbSymbolTable
70
2
0
APPID
5
12
100
AcDbSymbolTableRecord
100
AcDbRegAppTableRecord
2
ACAD
70
0
0
ENDTAB
0
TABLE
2
DIMSTYLE
5
A
100
AcDbSymbolTable
70
1
0
ENDTAB
0
TABLE
2
BLOCK_RECORD
5
1
100
AcDbSymbolTable
70
1
0
BLOCK_RECORD
5
1F
100
AcDbSymbolTableRecord
100
AcDbBlockTableRecord
2
*MODEL_SPACE
0
BLOCK_RECORD
5
1B
100
AcDbSymbolTableRecord
100
AcDbBlockTableRecord
2
*PAPER_SPACE
0
ENDTAB
0
ENDSEC
0
SECTION
2
BLOCKS
0
BLOCK
5
20
100
AcDbEntity
100
AcDbBlockBegin
2
*MODEL_SPACE
0
ENDBLK
5
21
100
AcDbEntity
100
AcDbBlockEnd
0
BLOCK
5
1C
100
AcDbEntity
100
AcDbBlockBegin
2
*PAPER_SPACE
0
ENDBLK
5
1D
100
AcDbEntity
100
AcDbBlockEnd
0
ENDSEC
0
SECTION
2
ENTITIES
0
SPLINE
5
100
100
AcDbEntity
8
0
100
AcDbSpline
70
4
71
5
72
16
73
10
74
0
42
0.000000001
43
0.0000000001
44
0.0000000001
40
0
40
0
40
0
40
0
40
0
40
0
40
0.20000000000000001
40
0.40000000000000002
40
0.60000000000000009
40
0.80000000000000004
40
1
40
1
40
1
40
1
40
1
40
1
41
1
41
1
41
1
41
1
41
1
41
1
41
1
41
1
41
1
41
1
10
0
20
-0.055000000000000049
30
0
10
0
20
0.069400000000207365
30
0
10
0
20
0.31820000000056603
30
0
10
0
20
0.69140000000093593
30
0
10
0
20
1.1890000000011365
30
0
10
0
20
1.8110000000010393
30
0
10
0
20
2.3086000000007481
30
0
10
0
20
2.6818000000004227
30
0
10
0
20
2.9306000000001484
30
0
10
0
20
3.0549999999999997
30
0
0
SPLINE
5
101
100
AcDbEntity
8
0
100
AcDbSpline
70
4
71
5
72
16
73
10
74
0
42
0.000000001
43
0.0000000001
44
0.0000000001
40
0
40
0
40
0
40
0
40
0
40
0
40
0.20000000000000001
40
0.40000000000000002
40
0.60000000000000009
40
0.80000000000000004
40
1
40
1
40
1
40
1
40
1
40
1
41
1
41
1
41
1
41
1
41
1
41
1
41
1
41
1
41
1
41
1
10
10
20
-0.055000000000000049
30
0
10
9.9999999999997495
20
0.069400000000207365
30
0
10
9.9999999999993197
20
0.31820000000056603
30
0
10
9.9999999999989129
20
0.69140000000093593
30
0
10
9.9999999999987672
20
1.1890000000011365
30
0
10
9.9999999999990248
20
1.8110000000010393
30
0
10
9.9999999999993889
20
2.3086000000007481
30
0
10
9.9999999999996998
20
2.6818000000004227
30
0
10
9.9999999999999005
20
2.9306000000001484
30
0
10
10
20
3.0549999999999997
30
0
0
SPLINE
5
102
100
AcDbEntity
8
0
100
AcDbSpline
70
4
71
5
72
16
73
10
74
0
42
0.000000001
43
0.0000000001
44
0.0000000001
40
0
40
0
40
0
40
0
40
0
40
0
40
0.20000000000000001
40
0.40000000000000002
40
0.60000000000000009
40
0.80000000000000004
40
1
40
1
40
1
40
1
40
1
40
1
41
1
41
1
41
1
41
1
41
1
41
1
41
1
41
1
41
1
41
1
10
0
20
1.5274999999999999
30
0
10
0.40000000000047375
20
1.5274999999999856
30
0
10
1.2000000000012774
20
1.5274999999999614
30
0
10
2.4000000000020547
20
1.527499999999943
30
0
10
4.0000000000023546
20
1.5274999999999479
30
0
10
6.0000000000019584
20
1.5274999999999812
30
0
10
7.6000000000012928
20
1.5275000000000025
30
0
10
8.800000000000697
20
1.5275000000000083
30
0
10
9.6000000000002395
20
1.5275000000000039
30
0
10
10
20
1.5274999999999999
30
0
0
SPLINE
5
103
100
AcDbEntity
8
0
100
AcDbSpline
70
4
71
5
72
111
73
105
74
0
42
0.000000001
43
0.0000000001
44
0.0000000001
40
0
40
0
40
0
40
0
40
0
40
0
40
0.01
40
0.02
40
0.029999999999999999
40
0.040000000000000001
40
0.050000000000000003
40
0.060000000000000005
40
0.070000000000000007
40
0.080000000000000002
40
0.089999999999999997
40
0.099999999999999992
40
0.10999999999999999
40
0.11999999999999998
40
0.12999999999999998
40
0.13999999999999999
40
0.14999999999999999
40
0.16
40
0.17000000000000001
40
0.18000000000000002
40
0.19000000000000003
40
0.20000000000000004
40
0.21000000000000005
40
0.22000000000000006
40
0.23000000000000007
40
0.24000000000000007
40
0.25000000000000006
40
0.26000000000000006
40
0.27000000000000007
40
0.28000000000000008
40
0.29000000000000009
40
0.3000000000000001
40
0.31000000000000011
40
0.32000000000000012
40
0.33000000000000013
40
0.34000000000000014
40
0.35000000000000014
40
0.36000000000000015
40
0.37000000000000016
40
0.38000000000000017
40
0.39000000000000018
40
0.40000000000000019
40
0.4100000000000002
40
0.42000000000000021
40
0.43000000000000022
40
0.44000000000000022
40
0.45000000000000023
40
0.46000000000000024
40
0.47000000000000025
40
0.48000000000000026
40
0.49000000000000027
40
0.50000000000000022
40
0.51000000000000023
40
0.52000000000000024
40
0.53000000000000025
40
0.54000000000000026
40
0.55000000000000027
40
0.56000000000000028
40
0.57000000000000028
40
0.58000000000000029
40
0.5900000000000003
40
0.60000000000000031
40
0.61000000000000032
40
0.62000000000000033
40
0.63000000000000034
40
0.64000000000000035
40
0.65000000000000036
40
0.66000000000000036
40
0.67000000000000037
40
0.68000000000000038
40
0.69000000000000039
40
0.7000000000000004
40
0.71000000000000041
40
0.72000000000000042
40
0.73000000000000043
40
0.74000000000000044
40
0.75000000000000044
40
0.76000000000000045
40
0.77000000000000046
40
0.78000000000000047
40
0.79000000000000048
40
0.80000000000000049
40
0.8100000000000005
40
0.82000000000000051
40
0.83000000000000052
40
0.84000000000000052
40
0.85000000000000053
40
0.86000000000000054
40
0.87000000000000055
40
0.88000000000000056
40
0.89000000000000057
40
0.90000000000000058
40
0.91000000000000059
40
0.9200000000000006
40
0.9300000000000006
40
0.94000000000000061
40
0.95000000000000062
40
0.96000000000000063
40
0.97000000000000064
40
0.98000000000000065
40
0.99000000000000066
40
1
40
1
40
1
40
1
40
1
40
1
41
1
41
1
41
1
41
1
41
1
41
1
41
1
41
1
41
1
41
1
41
1
41
1
41
1
41
1
41
1
41
1
41
1
41
1
41
1
41
1
41
1
41
1
41
1
41
1
41
1
41
1
41
1
41
1
41
1
41
1
41
1
41
1
41
1
41
1
41
1
41
1
41
1
41
1
41
1
41
1
41
1
41
1
41
1
41
1
41
1
41
1
41
1
41
1
41
1
41
1
41
1
41
1
41
1
41
1
41
1
41
1
41
1
41
1
41
1
41
1
41
1
41
1
41
1
41
1
41
1
41
1
41
1
41
1
41
1
41
1
41
1
41
1
41
1
41
1
41
1
41
1
41
1
41
1
41
1
41
1
41
1
41
1
41
1
41
1
41
1
41
1
41
1
41
1
41
1
41
1
41
1
41
1
41
1
41
1
41
1
41
1
41
1
41
1
41
1
41
1
41
1
41
1
41
1
41
1
41
1
10
0
20
-0.055000000000000049
30
0
10
0.01929644991396438
20
-0.030991197992565871
30
0
10
0.057989967303854022
20
0.013467355214019518
30
0
10
0.11633209311028822
20
0.069478097851417411
30
0
10
0.19472541765514728
20
0.12280087058730166
30
0
10
0.29369005504394763
20
0.15465868448215761
30
0
10
0.39352698013701415
20
0.15414964493340977
30
0
10
0.4940331743387108
20
0.12617722558694922
30
0
10
0.59487132617402372
20
0.078899754642753131
30
0
10
0.69552968556729111
20
0.024690838294220925
30
0
10
0.79544091971308684
20
-0.022413410704728291
30
0
10
0.89410819212024883
20
-0.049430294340191305
30
0
10
0.9912320119659872
20
-0.047154627956809768
30
0
10
1.0868291654276889
20
-0.012727705939025172
30
0
10
1.1813757644750202
20
0.047313497531343798
30
0
10
1.275639368846162
20
0.12021120150012538
30
0
10
1.3704860918630135
20
0.19067185565856612
30
0
10
1.4666873556121454
20
0.24453690653942722
30
0
10
1.5647481449564671
20
0.2720714912092097
30
0
10
1.6646718927136175
20
0.27239989358810063
30
0
10
1.7660308106271458
20
0.25239179655907523
30
0
10
1.868182537280465
20
0.22287687346989088
30
0
10
1.9704483046986594
20
0.19558270908259096
30
0
10
2.0722897741279724
20
0.1800426077374484
30
0
10
2.1735303234929377
20
0.17983166883029086
30
0
10
2.2743046567360934
20
0.19304289701935543
30
0
10
2.3749017837369273
20
0.21445801514082399
30
0
10
2.4756376411848646
20
0.23720531208831036
30
0
10
2.5767271638621936
20
0.25453470528051758
30
0
10
2.6781263107851072
20
0.26178734989415248
30
0
10
2.7795893769383291
20
0.25662646546525991
30
0
10
2.8807908130241855
20
0.23870797806551017
30
0
10
2.9814289629799466
20
0.20955456149816976
30
0
10
3.0813290706988079
20
0.17231689209298376
30
0
10
3.1805682597541365
20
0.131659574997749
30
0
10
3.2794137226655504
20
0.092989247270818878
30
0
10
3.3782212976282699
20
0.06157039299789252
30
0
10
3.4773445910156342
20
0.041642710668337982
30
0
10
3.5770469749091092
20
0.035620032096234849
30
0
10
3.6773934905220078
20
0.043039595527514171
30
0
10
3.7782838735243454
20
0.061120448284812244
30
0
10
3.8795244013865844
20
0.08575628903489757
30
0
10
3.9808882031217636
20
0.11238250965504412
30
0
10
4.0821765994438524
20
0.13684609815757695
30
0
10
4.1832898172389594
20
0.15640284552847861
30
0
10
4.2842132776314585
20
0.16960681465425054
30
0
10
4.3849851136168301
20
0.17595421294398578
30
0
10
4.4856696505828308
20
0.17560659538880671
30
0
10
4.5863296961677582
20
0.16909538479493832
30
0
10
4.6869959441562106
20
0.156997610213825
30
0
10
4.7876731807247257
20
0.14000885730599288
30
0
10
4.8883523484818667
20
0.11907714806555986
30
0
10
4.9890207260489641
20
0.09552333486823486
30
0
10
5.0896724361678682
20
0.071149228856833058
30
0
10
5.190320042453278
20
0.048399634515965795
30
0
10
5.2909893959766405
20
0.029869392684306294
30
0
10
5.3917125355590194
20
0.017742518102189724
30
0
10
5.4925212358182414
20
0.013242219716618979
30
0
10
5.5934404118546031
20
0.016105889020006401
30
0
10
5.694481234461497
20
0.023967348844231504
30
0
10
5.7956410152734357
20
0.033318148212878096
30
0
10
5.8969036170938658
20
0.040582147621036513
30
0
10
5.9982396456633547
20
0.043153712329387417
30
0
10
6.0996067655376205
20
0.040440614533061657
30
0
10
6.2009498386945996
20
0.034936902340190625
30
0
10
6.3022107074695368
20
0.0307945104840757
30
0
10
6.4033381836607166
20
0.032345304550223587
30
0
10
6.5042978467640946
20
0.042659585674486411
30
0
10
6.6050822054748002
20
0.062047728963975993
30
0
10
6.7057199565316106
20
0.086698764248758095
30
0
10
6.8062629944265671
20
0.11060922656013095
30
0
10
6.9067741621977143
20
0.12741056576149765
30
0
10
7.0073148784202965
20
0.13219823023536972
30
0
10
7.1079324834386739
20
0.12344359558783871
30
0
10
7.2086486545503323
20
0.10463716699997985
30
0
10
7.3094637228599648
20
0.082139471626144378
30
0
10
7.4103599545618257
20
0.063237810573498712
30
0
10
7.5113053271371069
20
0.054176877698730849
30
0
10
7.6122568170886584
20
0.058081839561969946
30
0
10
7.7131646480135991
20
0.073268086112668732
30
0
10
7.8139833690027416
20
0.094989577318004309
30
0
10
7.914682748582619
20
0.1168965907382407
30
0
10
8.0152579208937116
20
0.13256724359461824
30
0
10
8.1157417931672811
20
0.13709165587823846
30
0
10
8.2162108459011325
20
0.12838432031086794
30
0
10
8.3167522951908293
20
0.10670400882915987
30
0
10
8.4174347944084591
20
0.074393118954295387
30
0
10
8.5182796108291523
20
0.035513913942946645
30
0
10
8.6192272419900196
20
-0.0044239112414135385
30
0
10
8.7201189063861264
20
-0.038910972318872424
30
0
10
8.8207499259008095
20
-0.061609985623518784
30
0
10
8.920914575059367
20
-0.067465790530207834
30
0
10
9.0204519822112772
20
-0.053772831111369448
30
0
10
9.1192969098691687
20
-0.021419915092725592
30
0
10
9.2175123539785115
20
0.02441867746053631
30
0
10
9.31524404358073
20
0.075903706004730925
30
0
10
9.4126861832903757
20
0.12382306489088316
30
0
10
9.5100434823151527
20
0.15898615043029804
30
0
10
9.607493286154444
20
0.17363229930237511
30
0
10
9.7051519738060072
20
0.16266657293797945
30
0
10
9.8030897838837632
20
0.12302352180262911
30
0
10
9.8816911494456789
20
0.067157006792437135
30
0
10
9.9407886317797267
20
0.011447783640107817
30
0
10
9.9802520308395994
20
-0.031828013163855681
30
0
10
10
20
-0.055000000000000049
30
0
0
SPLINE
5
104
100
AcDbEntity
8
0
100
AcDbSpline
70
4
71
5
72
111
73
105
74
0
42
0.000000001
43
0.0000000001
44
0.0000000001
40
0
40
0
40
0
40
0
40
0
40
0
40
0.01
40
0.02
40
0.029999999999999999
40
0.040000000000000001
40
0.050000000000000003
40
0.060000000000000005
40
0.070000000000000007
40
0.080000000000000002
40
0.089999999999999997
40
0.099999999999999992
40
0.10999999999999999
40
0.11999999999999998
40
0.12999999999999998
40
0.13999999999999999
40
0.14999999999999999
40
0.16
40
0.17000000000000001
40
0.18000000000000002
40
0.19000000000000003
40
0.20000000000000004
40
0.21000000000000005
40
0.22000000000000006
40
0.23000000000000007
40
0.24000000000000007
40
0.25000000000000006
40
0.26000000000000006
40
0.27000000000000007
40
0.28000000000000008
40
0.29000000000000009
40
0.3000000000000001
40
0.31000000000000011
40
0.32000000000000012
40
0.33000000000000013
40
0.34000000000000014
40
0.35000000000000014
40
0.36000000000000015
40
0.37000000000000016
40
0.38000000000000017
40
0.39000000000000018
40
0.40000000000000019
40
0.4100000000000002
40
0.42000000000000021
40
0.43000000000000022
40
0.44000000000000022
40
0.45000000000000023
40
0.46000000000000024
40
0.47000000000000025
40
0.48000000000000026
40
0.49000000000000027
40
0.50000000000000022
40
0.51000000000000023
40
0.52000000000000024
40
0.53000000000000025
40
0.54000000000000026
40
0.55000000000000027
40
0.56000000000000028
40
0.57000000000000028
40
0.58000000000000029
40
0.5900000000000003
40
0.60000000000000031
40
0.61000000000000032
40
0.62000000000000033
40
0.63000000000000034
40
0.64000000000000035
40
0.65000000000000036
40
0.66000000000000036
40
0.67000000000000037
40
0.68000000000000038
40
0.69000000000000039
40
0.7000000000000004
40
0.71000000000000041
40
0.72000000000000042
40
0.73000000000000043
40
0.74000000000000044
40
0.75000000000000044
40
0.76000000000000045
40
0.77000000000000046
40
0.78000000000000047
40
0.79000000000000048
40
0.80000000000000049
40
0.8100000000000005
40
0.82000000000000051
40
0.83000000000000052
40
0.84000000000000052
40
0.85000000000000053
40
0.86000000000000054
40
0.87000000000000055
40
0.88000000000000056
40
0.89000000000000057
40
0.90000000000000058
40
0.91000000000000059
40
0.9200000000000006
40
0.9300000000000006
40
0.94000000000000061
40
0.95000000000000062
40
0.96000000000000063
40
0.97000000000000064
40
0.98000000000000065
40
0.99000000000000066
40
1
40
1
40
1
40
1
40
1
40
1
41
1
41
1
41
1
41
1
41
1
41
1
41
1
41
1
41
1
41
1
41
1
41
1
41
1
41
1
41
1
41
1
41
1
41
1
41
1
41
1
41
1
41
1
41
1
41
1
41
1
41
1
41
1
41
1
41
1
41
1
41
1
41
1
41
1
41
1
41
1
41
1
41
1
41
1
41
1
41
1
41
1
41
1
41
1
41
1
41
1
41
1
41
1
41
1
41
1
41
1
41
1
41
1
41
1
41
1
41
1
41
1
41
1
41
1
41
1
41
1
41
1
41
1
41
1
41
1
41
1
41
1
41
1
41
1
41
1
41
1
41
1
41
1
41
1
41
1
41
1
41
1
41
1
41
1
41
1
41
1
41
1
41
1
41
1
41
1
41
1
41
1
41
1
41
1
41
1
41
1
41
1
41
1
41
1
41
1
41
1
41
1
41
1
41
1
41
1
41
1
41
1
41
1
41
1
41
1
41
1
10
0
20
3.0549999999999997
30
0
10
0.020128622075383899
20
3.0489977427523685
30
0
10
0.060392998239217052
20
3.0377527897285668
30
0
10
0.12081095870640871
20
3.0231640693373252
30
0
10
0.20141103716380895
20
3.0082703883788464
30
0
10
0.30222883478453472
20
2.9969317406539786
30
0
10
0.4031033404517661
20
2.991905595766966
30
0
10
0.50401256514373305
20
2.991261023474868
30
0
10
0.6049196890858598
20
2.9917584942560227
30
0
10
0.70576973708824708
20
2.9885753229694112
30
0
10
0.80649942579664091
20
2.9767687901974145
30
0
10
0.9070466510029378
20
2.9527004087259252
30
0
10
1.0073599231387458
20
2.9154347132653617
30
0
10
1.1074082614256351
20
2.8682446835348192
30
0
10
1.2071896800250335
20
2.8198065745953644
30
0
10
1.3067197817922835
20
2.7810542708542392
30
0
10
1.4060214737493579
20
2.7622748875536858
30
0
10
1.5051144439323627
20
2.7701565894632885
30
0
10
1.604004324753233
20
2.804753944704887
30
0
10
1.7026731585977031
20
2.8567696211792191
30
0
10
1.8010986760755219
20
2.9117793354764214
30
0
10
1.8992722095158427
20
2.9541362834629443
30
0
10
1.9972173255812584
20
2.9710223747333284
30
0
10
2.0950077145070125
20
2.9563747883064702
30
0
10
2.1927866671539884
20
2.9150426938608414
30
0
10
2.2907313880274067
20
2.8590315278883338
30
0
10
2.3890163975638417
20
2.8035861937898474
30
0
10
2.4877762274335318
20
2.7632505334130437
30
0
10
2.5870707867896625
20
2.7481329998491906
30
0
10
2.6868431898749829
20
2.7595616753178973
30
0
10
2.786956359483566
20
2.7922121227541603
30
0
10
2.8872392040139698
20
2.8370397584368616
30
0
10
2.9875303909779385
20
2.8839769749038355
30
0
10
3.0877208021972375
20
2.9246070965349311
30
0
10
3.1878027537638269
20
2.9551696619591299
30
0
10
3.2878438889507926
20
2.9756518523590292
30
0
10
3.3879513149700924
20
2.9883635654603893
30
0
10
3.4882386796963445
20
2.9966775859811596
30
0
10
3.5887932875050792
20
3.0037474134337803
30
0
10
3.6896398170646325
20
3.0111118632654561
30
0
10
3.790747823953144
20
3.0188916244129165
30
0
10
3.8920447404730227
20
3.0261873454449351
30
0
10
3.9934268146234824
20
3.0314044677350545
30
0
10
4.0947710488110101
20
3.0326093765583328
30
0
10
4.1959462769255911
20
3.0278692321958274
30
0
10
4.2968332655588162
20
3.0156467871652564
30
0
10
4.3973452144396417
20
2.9951936362937648
30
0
10
4.4974483339906248
20
2.9669493899977701
30
0
10
4.59718196711595
20
2.9329282692011334
30
0
10
4.6966801971525838
20
2.8971416016368625
30
0
10
4.7961308626091705
20
2.8645431483461632
30
0
10
4.8957332552833694
20
2.8399443583759703
30
0
10
4.9956559218133805
20
2.826929452302168
30
0
10
5.0959953185912354
20
2.8267959353250989
30
0
10
5.1967315797672136
20
2.837411993445734
30
0
10
5.2977657261918454
20
2.8544005369786314
30
0
10
5.3989601414972199
20
2.8724164340371328
30
0
10
5.5001778004301123
20
2.8863883276352786
30
0
10
5.6013220599530484
20
2.8927763715105623
30
0
10
5.7023761152945855
20
2.8908212065113674
30
0
10
5.8033747497064727
20
2.8817993120179475
30
0
10
5.9043759559769953
20
2.8682788157815735
30
0
10
6.0054330393711517
20
2.8533806014655863
30
0
10
6.106565571206688
20
2.8400275685440883
30
0
10
6.2077334734301024
20
2.8302279065048257
30
0
10
6.3088691920809623
20
2.8250476253185619
30
0
10
6.4099078346166518
20
2.8245435933108509
30
0
10
6.5108168276300802
20
2.8277258993571142
30
0
10
6.6116286787003995
20
2.8324719652413877
30
0
10
6.7124641709245978
20
2.835560765773887
30
0
10
6.8134706742661999
20
2.8337079107451686
30
0
10
6.9147660259969488
20
2.8245480968133667
30
0
10
7.016383692577711
20
2.8075729708256745
30
0
10
7.1182093543857512
20
2.7852410780902432
30
0
10
7.2199446818873367
20
2.7635667794024825
30
0
10
7.3212210242637781
20
2.7498690322330734
30
0
10
7.4216978821261614
20
2.7508007331884361
30
0
10
7.5211610587155073
20
2.7704018660112331
30
0
10
7.6196356147707922
20
2.8078298285199423
30
0
10
7.7174480520452793
20
2.8561749665549021
30
0
10
7.8150831973545989
20
2.9056375363776792
30
0
10
7.9130705221710365
20
2.9460901896282983
30
0
10
8.0118623428809173
20
2.9697878935042517
30
0
10
8.111707630440474
20
2.9742318058422206
30
0
10
8.2125503339076538
20
2.9643442509077111
30
0
10
8.3141344492442375
20
2.949020849873361
30
0
10
8.4160902921345944
20
2.9381588179628086
30
0
10
8.5180251215117959
20
2.9396447529082845
30
0
10
8.6196183811962879
20
2.9560285696930011
30
0
10
8.7206955137791873
20
2.9823159135168393
30
0
10
8.8211875234293089
20
3.0094680639722431
30
0
10
8.921105264583014
20
3.0272190459463193
30
0
10
9.0205088067901364
20
3.0270207712936008
30
0
10
9.1194771940146637
20
3.0052535890010028
30
0
10
9.2180833733018517
20
2.96535330192006
30
0
10
9.3163952040681313
20
2.9152689559208937
30
0
10
9.4144724680983014
20
2.8655948877210329
30
0
10
9.5123655164182637
20
2.8274845210807031
30
0
10
9.6101130445741596
20
2.8105568169713226
30
0
10
9.7077407255362012
20
2.8211007335562828
30
0
10
9.8052640449582888
20
2.8629115067063085
30
0
10
9.883205416278706
20
2.9228701838559301
30
0
10
9.9416191527071476
20
2.9830291064549188
30
0
10
9.980542849854805
20
3.0298847431165035
30
0
10
10
20
3.0549999999999997
30
0
0
ENDSEC
0
SECTION
2
OBJECTS
0
DICTIONARY
5
C
100
AcDbDictionary
3
ACAD_GROUP
350
D
3
ACAD_MLINESTYLE
350
17
0
DICTIONARY
5
D
100
AcDbDictionary
0
DICTIONARY
5
1A
330
C
100
AcDbDictionary
0
DICTIONARY
5
17
100
AcDbDictionary
0
ENDSEC
0
EOF
