0
SECTION
2
HEADER
9
$INSUNITS
70
4
9
$ACADVER
1
AC1014
9
$HANDSEED
5
FFFF
0
ENDSEC
0
SECTION
2
TABLES
0
TABLE
2
VPORT
5
8
100
AcDbSymbolTable
0
ENDTAB
0
TABLE
2
LTYPE
5
5
100
AcDbSymbolTable
0
LTYPE
5
14
100
AcDbSymbolTableRecord
100
AcDbLinetypeTableRecord
2
BYBLOCK
70
0
0
LTYPE
5
15
100
AcDbSymbolTableRecord
100
AcDbLinetypeTableRecord
2
BYLAYER
70
0
0
ENDTAB
0
TABLE
2
LAYER
5
2
100
AcDbSymbolTable
70
2
0
LAYER
5
50
100
AcDbSymbolTableRecord
100
AcDbLayerTableRecord
2
0
70
0
6
CONTINUOUS
0
ENDTAB
0
TABLE
2
STYLE
5
3
100
AcDbSymbolTable
70
1
0
STYLE
5
11
100
AcDbSymbolTableRecord
100
AcDbTextStyleTableRecord
2
STANDARD
70
0
0
ENDTAB
0
TABLE
2
VIEW
5
6
100
AcDbSymbolTable
70
0
0
ENDTAB
0
TABLE
2
UCS
5
7
100
AcDbSymbolTable
70
0
0
ENDTAB
0
TABLE
2
APPID
5
9
100
AcDbSymbolTable
70
2
0
APPID
5
12
100
AcDbSymbolTableRecord
100
AcDbRegAppTableRecord
2
ACAD
70
0
0
ENDTAB
0
TABLE
2
DIMSTYLE
5
A
100
AcDbSymbolTable
70
1
0
ENDTAB
0
TABLE
2
BLOCK_RECORD
5
1
100
AcDbSymbolTable
70
1
0
BLOCK_RECORD
5
1F
100
AcDbSymbolTableRecord
100
AcDbBlockTableRecord
2
*MODEL_SPACE
0
BLOCK_RECORD
5
1B
100
AcDbSymbolTableRecord
100
AcDbBlockTableRecord
2
*PAPER_SPACE
0
ENDTAB
0
ENDSEC
0
SECTION
2
BLOCKS
0
BLOCK
5
20
100
AcDbEntity
100
AcDbBlockBegin
2
*MODEL_SPACE
0
ENDBLK
5
21
100
AcDbEntity
100
AcDbBlockEnd
0
BLOCK
5
1C
100
AcDbEntity
100
AcDbBlockBegin
2
*PAPER_SPACE
0
ENDBLK
5
1D
100
AcDbEntity
100
AcDbBlockEnd
0
ENDSEC
0
SECTION
2
ENTITIES
0
SPLINE
5
100
100
AcDbEntity
8
0
100
AcDbSpline
70
4
71
5
72
16
73
10
74
0
42
0.000000001
43
0.0000000001
44
0.0000000001
40
0
40
0
40
0
40
0
40
0
40
0
40
0.20000000000000001
40
0.40000000000000002
40
0.60000000000000009
40
0.80000000000000004
40
1
40
1
40
1
40
1
40
1
40
1
41
1
41
1
41
1
41
1
41
1
41
1
41
1
41
1
41
1
41
1
10
0
20
-0.055000000000000049
30
0
10
0
20
0.069400000000207365
30
0
10
0
20
0.31820000000056603
30
0
10
0
20
0.69140000000093593
30
0
10
0
20
1.1890000000011365
30
0
10
0
20
1.8110000000010393
30
0
10
0
20
2.3086000000007481
30
0
10
0
20
2.6818000000004227
30
0
10
0
20
2.9306000000001484
30
0
10
0
20
3.0549999999999997
30
0
0
SPLINE
5
101
100
AcDbEntity
8
0
100
AcDbSpline
70
4
71
5
72
16
73
10
74
0
42
0.000000001
43
0.0000000001
44
0.0000000001
40
0
40
0
40
0
40
0
40
0
40
0
40
0.20000000000000001
40
0.40000000000000002
40
0.60000000000000009
40
0.80000000000000004
40
1
40
1
40
1
40
1
40
1
40
1
41
1
41
1
41
1
41
1
41
1
41
1
41
1
41
1
41
1
41
1
10
10
20
-0.055000000000000049
30
0
10
9.9999999999997495
20
0.069400000000207365
30
0
10
9.9999999999993197
20
0.31820000000056603
30
0
10
9.9999999999989129
20
0.69140000000093593
30
0
10
9.9999999999987672
20
1.1890000000011365
30
0
10
9.9999999999990248
20
1.8110000000010393
30
0
10
9.9999999999993889
20
2.3086000000007481
30
0
10
9.9999999999996998
20
2.6818000000004227
30
0
10
9.9999999999999005
20
2.9306000000001484
30
0
10
10
20
3.0549999999999997
30
0
0
SPLINE
5
102
100
AcDbEntity
8
0
100
AcDbSpline
70
4
71
5
72
16
73
10
74
0
42
0.000000001
43
0.0000000001
44
0.0000000001
40
0
40
0
40
0
40
0
40
0
40
0
40
0.20000000000000001
40
0.40000000000000002
40
0.60000000000000009
40
0.80000000000000004
40
1
40
1
40
1
40
1
40
1
40
1
41
1
41
1
41
1
41
1
41
1
41
1
41
1
41
1
41
1
41
1
10
0
20
1.5274999999999999
30
0
10
0.40000000000047375
20
1.5274999999999856
30
0
10
1.2000000000012774
20
1.5274999999999614
30
0
10
2.4000000000020547
20
1.527499999999943
30
0
10
4.0000000000023546
20
1.5274999999999479
30
0
10
6.0000000000019584
20
1.5274999999999812
30
0
10
7.6000000000012928
20
1.5275000000000025
30
0
10
8.800000000000697
20
1.5275000000000083
30
0
10
9.6000000000002395
20
1.5275000000000039
30
0
10
10
20
1.5274999999999999
30
0
0
SPLINE
5
103
100
AcDbEntity
8
0
100
AcDbSpline
70
4
71
5
72
111
73
105
74
0
42
0.000000001
43
0.0000000001
44
0.0000000001
40
0
40
0
40
0
40
0
40
0
40
0
40
0.01
40
0.02
40
0.029999999999999999
40
0.040000000000000001
40
0.050000000000000003
40
0.060000000000000005
40
0.070000000000000007
40
0.080000000000000002
40
0.089999999999999997
40
0.099999999999999992
40
0.10999999999999999
40
0.11999999999999998
40
0.12999999999999998
40
0.13999999999999999
40
0.14999999999999999
40
0.16
40
0.17000000000000001
40
0.18000000000000002
40
0.19000000000000003
40
0.20000000000000004
40
0.21000000000000005
40
0.22000000000000006
40
0.23000000000000007
40
0.24000000000000007
40
0.25000000000000006
40
0.26000000000000006
40
0.27000000000000007
40
0.28000000000000008
40
0.29000000000000009
40
0.3000000000000001
40
0.31000000000000011
40
0.32000000000000012
40
0.33000000000000013
40
0.34000000000000014
40
0.35000000000000014
40
0.36000000000000015
40
0.37000000000000016
40
0.38000000000000017
40
0.39000000000000018
40
0.40000000000000019
40
0.4100000000000002
40
0.42000000000000021
40
0.43000000000000022
40
0.44000000000000022
40
0.45000000000000023
40
0.46000000000000024
40
0.47000000000000025
40
0.48000000000000026
40
0.49000000000000027
40
0.50000000000000022
40
0.51000000000000023
40
0.52000000000000024
40
0.53000000000000025
40
0.54000000000000026
40
0.55000000000000027
40
0.56000000000000028
40
0.57000000000000028
40
0.58000000000000029
40
0.5900000000000003
40
0.60000000000000031
40
0.61000000000000032
40
0.62000000000000033
40
0.63000000000000034
40
0.64000000000000035
40
0.65000000000000036
40
0.66000000000000036
40
0.67000000000000037
40
0.68000000000000038
40
0.69000000000000039
40
0.7000000000000004
40
0.71000000000000041
40
0.72000000000000042
40
0.73000000000000043
40
0.74000000000000044
40
0.75000000000000044
40
0.76000000000000045
40
0.77000000000000046
40
0.78000000000000047
40
0.79000000000000048
40
0.80000000000000049
40
0.8100000000000005
40
0.82000000000000051
40
0.83000000000000052
40
0.84000000000000052
40
0.85000000000000053
40
0.86000000000000054
40
0.87000000000000055
40
0.88000000000000056
40
0.89000000000000057
40
0.90000000000000058
40
0.91000000000000059
40
0.9200000000000006
40
0.9300000000000006
40
0.94000000000000061
40
0.95000000000000062
40
0.96000000000000063
40
0.97000000000000064
40
0.98000000000000065
40
0.99000000000000066
40
1
40
1
40
1
40
1
40
1
40
1
41
1
41
1
41
1
41
1
41
1
41
1
41
1
41
1
41
1
41
1
41
1
41
1
41
1
41
1
41
1
41
1
41
1
41
1
41
1
41
1
41
1
41
1
41
1
41
1
41
1
41
1
41
1
41
1
41
1
41
1
41
1
41
1
41
1
41
1
41
1
41
1
41
1
41
1
41
1
41
1
41
1
41
1
41
1
41
1
41
1
41
1
41
1
41
1
41
1
41
1
41
1
41
1
41
1
41
1
41
1
41
1
41
1
41
1
41
1
41
1
41
1
41
1
41
1
41
1
41
1
41
1
41
1
41
1
41
1
41
1
41
1
41
1
41
1
41
1
41
1
41
1
41
1
41
1
41
1
41
1
41
1
41
1
41
1
41
1
41
1
41
1
41
1
41
1
41
1
41
1
41
1
41
1
41
1
41
1
41
1
41
1
41
1
41
1
41
1
41
1
41
1
41
1
41
1
41
1
41
1
10
0
20
-0.055000000000000049
30
0
10
0.021646472800414211
20
-0.072749974673552417
30
0
10
0.064723814102922952
20
-0.10373104932582514
30
0
10
0.12869301521416876
20
-0.13664580680674301
30
0
10
0.2126914333067659
20
-0.15341602350961803
30
0
10
0.31553258964824893
20
-0.13036468342144555
30
0
10
0.41621730853487349
20
-0.06691953376018242
30
0
10
0.5147486162470325
20
0.029709382026023329
30
0
10
0.61113168586443689
20
0.14732760693282096
30
0
10
0.70537961562419371
20
0.26805185535430931
30
0
10
0.7975617497176879
20
0.37210980950837025
30
0
10
0.88784534774558366
20
0.44105513801515445
30
0
10
0.97654388387048163
20
0.46137978881511837
30
0
10
1.0641534150468608
20
0.42756552237018985
30
0
10
1.1514178030354267
20
0.34639328163345129
30
0
10
1.2392370743364214
20
0.23450704946701453
30
0
10
1.3285221749691889
20
0.11365459197448882
30
0
10
1.4200648729842373
20
0.0066334723794474124
30
0
10
1.5144068569907587
20
-0.066917211737776316
30
0
10
1.6116957852629776
20
-0.094989223820932181
30
0
10
1.7115860154753899
20
-0.076591155594466331
30
0
10
1.8134014366848357
20
-0.018590551652400124
30
0
10
1.9162679958968378
20
0.066672612414414079
30
0
10
2.0192552106682617
20
0.16402640908090935
30
0
10
2.1215198353623834
20
0.25809175488920916
30
0
10
2.2224303057494312
20
0.33562544686700807
30
0
10
2.3215871513013906
20
0.38622025686684491
30
0
10
2.418859952626125
20
0.40326801225289982
30
0
10
2.5144138531423539
20
0.38475741592256718
30
0
10
2.6087505004184077
20
0.3342976229174095
30
0
10
2.7027140717970948
20
0.26159813597186848
30
0
10
2.797284966912553
20
0.17965774188203279
30
0
10
2.8933990874135795
20
0.10234271723460694
30
0
10
2.9917537649825148
20
0.041777994818882572
30
0
10
3.0926273272654541
20
0.0059053800320573238
30
0
10
3.1956706844094693
20
-0.00427054930927634
30
0
10
3.3001202724950973
20
0.0071344991586256134
30
0
10
3.4050448437154559
20
0.033057683517750916
30
0
10
3.5095752291710323
20
0.06549792904087029
30
0
10
3.6131520493052189
20
0.097670512092705317
30
0
10
3.7157351556548694
20
0.12587833328142226
30
0
10
3.8176210881331167
20
0.14855917475247793
30
0
10
3.9192856988924341
20
0.1655153485039185
30
0
10
4.0212238348714244
20
0.17711698292066164
30
0
10
4.1237751889892484
20
0.18341943587604406
30
0
10
4.2270021361860053
20
0.1836133745026573
30
0
10
4.3307833982386814
20
0.1768167607146226
30
0
10
4.4348765570877555
20
0.16270957714469181
30
0
10
4.5389898919736353
20
0.14213841865616197
30
0
10
4.6428568149939506
20
0.11795418535335661
30
0
10
4.7462861531626794
20
0.094998292084997549
30
0
10
4.8491641215946633
20
0.078648016224188447
30
0
10
4.9514698108760706
20
0.073628476844960239
30
0
10
5.053280347340281
20
0.082849755997795732
30
0
10
5.1547926122087624
20
0.10590768320233496
30
0
10
5.2562893687055059
20
0.13904727688533594
30
0
10
5.3580591513466107
20
0.17648154406116684
30
0
10
5.4603242686884421
20
0.21134005180736887
30
0
10
5.563175744722054
20
0.23674744265401221
30
0
10
5.6664795919179873
20
0.24689861345763733
30
0
10
5.7699152141709842
20
0.23787370855040602
30
0
10
5.8730930628721509
20
0.20821377093749682
30
0
10
5.9756523657048408
20
0.15965330354945603
30
0
10
6.0773577648793706
20
0.097609455648939858
30
0
10
6.1782204321619609
20
0.032240164165630206
30
0
10
6.2784487005486636
20
-0.023798958884157187
30
0
10
6.3783478811486063
20
-0.058500512803258763
30
0
10
6.478234104974705
20
-0.063500966329335912
30
0
10
6.5783493653954972
20
-0.036799810548662576
30
0
10
6.6787577980941997
20
0.01351718139552685
30
0
10
6.7793825962374683
20
0.072373951360001937
30
0
10
6.8800795066894507
20
0.12250605081201749
30
0
10
6.9806998029057112
20
0.14884830393570225
30
0
10
7.0811531786083712
20
0.14271968936820167
30
0
10
7.1814823518540374
20
0.10707913592729931
30
0
10
7.2818384945184542
20
0.053451373744441852
30
0
10
7.382434005701997
20
-0.0029618233990891824
30
0
10
7.4835028897241624
20
-0.047681494471924775
30
0
10
7.5852585433475923
20
-0.071241808111528734
30
0
10
7.6878511292527314
20
-0.074355430092309396
30
0
10
7.7913393255513039
20
-0.064916163268872215
30
0
10
7.8956648705403936
20
-0.053508692747335773
30
0
10
8.0006262358884239
20
-0.049452340919308529
30
0
10
8.1058521232153815
20
-0.056598670454600507
30
0
10
8.2107760817584179
20
-0.069288413576539545
30
0
10
8.3147579438656205
20
-0.07658187175176917
30
0
10
8.4172070800999705
20
-0.066551697760276002
30
0
10
8.5176995902958339
20
-0.030360883702186359
30
0
10
8.6161107328973703
20
0.033126567857013886
30
0
10
8.7127034083847352
20
0.11427541752498269
30
0
10
8.8079898337363822
20
0.19755574322339323
30
0
10
8.9026225688340404
20
0.26539033768984821
30
0
10
8.9972737596558829
20
0.30242217995004222
30
0
10
9.0925206435321009
20
0.29955012283541177
30
0
10
9.1887250296646492
20
0.25821382254167757
30
0
10
9.2860764076746918
20
0.18752550907473756
30
0
10
9.3846383177717705
20
0.1012700144617357
30
0
10
9.4843942041261435
20
0.014895512431394684
30
0
10
9.585291698705376
20
-0.057351405509369638
30
0
10
9.6872920753576928
20
-0.10571803609944279
30
0
10
9.7903726847966794
20
-0.12444789639088016
30
0
10
9.8736916859376436
20
-0.11340589247883857
30
0
10
9.9366596957383138
20
-0.090060639435797452
30
0
10
9.978851108377464
20
-0.067802610564762403
30
0
10
10
20
-0.055000000000000049
30
0
0
SPLINE
5
104
100
AcDbEntity
8
0
100
AcDbSpline
70
4
71
5
72
111
73
105
74
0
42
0.000000001
43
0.0000000001
44
0.0000000001
40
0
40
0
40
0
40
0
40
0
40
0
40
0.01
40
0.02
40
0.029999999999999999
40
0.040000000000000001
40
0.050000000000000003
40
0.060000000000000005
40
0.070000000000000007
40
0.080000000000000002
40
0.089999999999999997
40
0.099999999999999992
40
0.10999999999999999
40
0.11999999999999998
40
0.12999999999999998
40
0.13999999999999999
40
0.14999999999999999
40
0.16
40
0.17000000000000001
40
0.18000000000000002
40
0.19000000000000003
40
0.20000000000000004
40
0.21000000000000005
40
0.22000000000000006
40
0.23000000000000007
40
0.24000000000000007
40
0.25000000000000006
40
0.26000000000000006
40
0.27000000000000007
40
0.28000000000000008
40
0.29000000000000009
40
0.3000000000000001
40
0.31000000000000011
40
0.32000000000000012
40
0.33000000000000013
40
0.34000000000000014
40
0.35000000000000014
40
0.36000000000000015
40
0.37000000000000016
40
0.38000000000000017
40
0.39000000000000018
40
0.40000000000000019
40
0.4100000000000002
40
0.42000000000000021
40
0.43000000000000022
40
0.44000000000000022
40
0.45000000000000023
40
0.46000000000000024
40
0.47000000000000025
40
0.48000000000000026
40
0.49000000000000027
40
0.50000000000000022
40
0.51000000000000023
40
0.52000000000000024
40
0.53000000000000025
40
0.54000000000000026
40
0.55000000000000027
40
0.56000000000000028
40
0.57000000000000028
40
0.58000000000000029
40
0.5900000000000003
40
0.60000000000000031
40
0.61000000000000032
40
0.62000000000000033
40
0.63000000000000034
40
0.64000000000000035
40
0.65000000000000036
40
0.66000000000000036
40
0.67000000000000037
40
0.68000000000000038
40
0.69000000000000039
40
0.7000000000000004
40
0.71000000000000041
40
0.72000000000000042
40
0.73000000000000043
40
0.74000000000000044
40
0.75000000000000044
40
0.76000000000000045
40
0.77000000000000046
40
0.78000000000000047
40
0.79000000000000048
40
0.80000000000000049
40
0.8100000000000005
40
0.82000000000000051
40
0.83000000000000052
40
0.84000000000000052
40
0.85000000000000053
40
0.86000000000000054
40
0.87000000000000055
40
0.88000000000000056
40
0.89000000000000057
40
0.90000000000000058
40
0.91000000000000059
40
0.9200000000000006
40
0.9300000000000006
40
0.94000000000000061
40
0.95000000000000062
40
0.96000000000000063
40
0.97000000000000064
40
0.98000000000000065
40
0.99000000000000066
40
1
40
1
40
1
40
1
40
1
40
1
41
1
41
1
41
1
41
1
41
1
41
1
41
1
41
1
41
1
41
1
41
1
41
1
41
1
41
1
41
1
41
1
41
1
41
1
41
1
41
1
41
1
41
1
41
1
41
1
41
1
41
1
41
1
41
1
41
1
41
1
41
1
41
1
41
1
41
1
41
1
41
1
41
1
41
1
41
1
41
1
41
1
41
1
41
1
41
1
41
1
41
1
41
1
41
1
41
1
41
1
41
1
41
1
41
1
41
1
41
1
41
1
41
1
41
1
41
1
41
1
41
1
41
1
41
1
41
1
41
1
41
1
41
1
41
1
41
1
41
1
41
1
41
1
41
1
41
1
41
1
41
1
41
1
41
1
41
1
41
1
41
1
41
1
41
1
41
1
41
1
41
1
41
1
41
1
41
1
41
1
41
1
41
1
41
1
41
1
41
1
41
1
41
1
41
1
41
1
41
1
41
1
41
1
41
1
41
1
41
1
10
0
20
3.0549999999999997
30
0
10
0.02134739210993078
20
3.0655958551718903
30
0
10
0.06390733354902467
20
3.0841433114904548
30
0
10
0.12734271272281719
20
3.104031529754578
30
0
10
0.2111140608384342
20
3.1146824078680875
30
0
10
0.31450123936835539
20
3.1022894420238027
30
0
10
0.41662825825908301
20
3.0664631568456162
30
0
10
0.51762851446234481
20
3.0117125164963454
30
0
10
0.61772820046864152
20
2.9457000293222451
30
0
10
0.71725856952891509
20
2.8795460142460061
30
0
10
0.81659788346486473
20
2.8250913232608759
30
0
10
0.91612152178758488
20
2.7924825970471119
30
0
10
1.0161506966488416
20
2.7877690284914469
30
0
10
1.1168976047579631
20
2.8101704421217737
30
0
10
1.2184243233345466
20
2.8504325587986266
30
0
10
1.320681282580155
20
2.8951534419876932
30
0
10
1.4235360710879532
20
2.9305103129295751
30
0
10
1.5268055867105548
20
2.9459447402548626
30
0
10
1.6302875204652403
20
2.9385104592442679
30
0
10
1.7337894822480595
20
2.9149220661882591
30
0
10
1.8371469512763083
20
2.8867412288455094
30
0
10
1.9402449577271659
20
2.8665939984873203
30
0
10
2.0430348022479152
20
2.8643681263089595
30
0
10
2.1455613816446872
20
2.8824903391856731
30
0
10
2.2479558958816006
20
2.9149185249110827
30
0
10
2.3503821822276043
20
2.9514289070288626
30
0
10
2.4529913460213639
20
2.9807603797634612
30
0
10
2.5558795323121242
20
2.993881935864513
30
0
10
2.6590283830295118
20
2.9880392185241869
30
0
10
2.762319065826055
20
2.9669980589506135
30
0
10
2.8656056918987067
20
2.9380508056107728
30
0
10
2.9687762615520024
20
2.9098704481999449
30
0
10
3.0718089107601871
20
2.8901939192492727
30
0
10
3.1748550757355409
20
2.8831324521341939
30
0
10
3.2781727252003838
20
2.8891429518940792
30
0
10
3.3819984614102285
20
2.9061659590340785
30
0
10
3.486434829925618
20
2.930391960461205
30
0
10
3.591341413294153
20
2.95716098681519
30
0
10
3.6961971821948723
20
2.981857857799616
30
0
10
3.8002864587912635
20
3.0001922294734777
30
0
10
3.9029310940635757
20
3.0083777977478317
30
0
10
4.0037040227783889
20
3.0033490703678871
30
0
10
4.1026558791643648
20
2.9829612804585155
30
0
10
4.200522062870208
20
2.9462023053403468
30
0
10
4.2983738083370469
20
2.8935772362529018
30
0
10
4.3972853052050773
20
2.8274878013194065
30
0
10
4.4979935318623703
20
2.7526192313510607
30
0
10
4.6005641798118386
20
2.6763154454690676
30
0
10
4.7040457862873888
20
2.608989054834959
30
0
10
4.8069271327830023
20
2.5619048381929117
30
0
10
4.9076076639406736
20
2.54491477027688
30
0
10
5.0048585883011505
20
2.5642339931984344
30
0
10
5.0982982180182503
20
2.6201427364917622
30
0
10
5.1888328612865662
20
2.7048711414269322
30
0
10
5.2781585524880237
20
2.8054363901761632
30
0
10
5.3683079392362076
20
2.9062576405032567
30
0
10
5.4611571430551855
20
2.9919423729065113
30
0
10
5.5580030042790014
20
3.0497933944513322
30
0
10
5.6589760832182758
20
3.0729539347761876
30
0
10
5.7631391837920223
20
3.0608836535362052
30
0
10
5.8690141723433245
20
3.0180997672199643
30
0
10
5.974995622716003
20
2.9534908716295116
30
0
10
6.0797759225296577
20
2.8792899075280696
30
0
10
6.1828556729612014
20
2.8104705805927739
30
0
10
6.2844135162051398
20
2.7621598083989225
30
0
10
6.3849804785743638
20
2.7465608631122973
30
0
10
6.4851732399001003
20
2.7698988839157628
30
0
10
6.5854190004895328
20
2.8296653472132767
30
0
10
6.6856414072972523
20
2.9109103118951092
30
0
10
6.785391049799876
20
2.9911062797050425
30
0
10
6.8840477265490847
20
3.0462750800410539
30
0
10
6.9810025722441624
20
3.0569017113208541
30
0
10
7.0758365208395713
20
3.0134132624350318
30
0
10
7.168531922417392
20
2.9232166174068701
30
0
10
7.2594276973698699
20
2.8066248452693099
30
0
10
7.3491116631162567
20
2.6901880402960798
30
0
10
7.4383339701242015
20
2.6007232581214543
30
0
10
7.5279131307048726
20
2.5594851831627792
30
0
10
7.618642125815084
20
2.5752326040362643
30
0
10
7.7112049372154514
20
2.6411802713357284
30
0
10
7.8061219364362753
20
2.7409868073104668
30
0
10
7.9036885903385157
20
2.8529280488151687
30
0
10
8.0039180104956422
20
2.9547574319605179
30
0
10
8.1064785956095644
20
3.0283449839855789
30
0
10
8.2106420993431897
20
3.0642061496104227
30
0
10
8.3154546906470568
20
3.0600919047158497
30
0
10
8.4199030176544056
20
3.0198436670112527
30
0
10
8.5230751120995834
20
2.952125398475677
30
0
10
8.6243398071901218
20
2.8692731663164506
30
0
10
8.7234683144426413
20
2.78590919274163
30
0
10
8.8205372579198293
20
2.7167754584669614
30
0
10
8.915865633781241
20
2.6746589660328151
30
0
10
9.0099392102183842
20
2.6683378147774519
30
0
10
9.1033391294143673
20
2.7003814059394764
30
0
10
9.1966724865059994
20
2.7653994100357657
30
0
10
9.2905436986160712
20
2.8526516569495448
30
0
10
9.3855226248854304
20
2.9482642295110524
30
0
10
9.4821129146208065
20
3.0376486147257529
30
0
10
9.5807225538414222
20
3.1077063839181691
30
0
10
9.6816272777268306
20
3.1494598344846554
30
0
10
9.7849900469263602
20
3.1576147092317353
30
0
10
9.8697115420742616
20
3.1351304859883928
30
0
10
9.9344069468810101
20
3.1015614182447409
30
0
10
9.9780501590039741
20
3.0717578202215607
30
0
10
10
20
3.0549999999999997
30
0
0
ENDSEC
0
SECTION
2
OBJECTS
0
DICTIONARY
5
C
100
AcDbDictionary
3
ACAD_GROUP
350
D
3
ACAD_MLINESTYLE
350
17
0
DICTIONARY
5
D
100
AcDbDictionary
0
DICTIONARY
5
1A
330
C
100
AcDbDictionary
0
DICTIONARY
5
17
100
AcDbDictionary
0
ENDSEC
0
EOF
