0
SECTION
2
HEADER
9
$INSUNITS
70
4
9
$ACADVER
1
AC1014
9
$HANDSEED
5
FFFF
0
ENDSEC
0
SECTION
2
TABLES
0
TABLE
2
VPORT
5
8
100
AcDbSymbolTable
0
ENDTAB
0
TABLE
2
LTYPE
5
5
100
AcDbSymbolTable
0
LTYPE
5
14
100
AcDbSymbolTableRecord
100
AcDbLinetypeTableRecord
2
BYBLOCK
70
0
0
LTYPE
5
15
100
AcDbSymbolTableRecord
100
AcDbLinetypeTableRecord
2
BYLAYER
70
0
0
ENDTAB
0
TABLE
2
LAYER
5
2
100
AcDbSymbolTable
70
2
0
LAYER
5
50
100
AcDbSymbolTableRecord
100
AcDbLayerTableRecord
2
0
70
0
6
CONTINUOUS
0
ENDTAB
0
TABLE
2
STYLE
5
3
100
AcDbSymbolTable
70
1
0
STYLE
5
11
100
AcDbSymbolTableRecord
100
AcDbTextStyleTableRecord
2
STANDARD
70
0
0
ENDTAB
0
TABLE
2
VIEW
5
6
100
AcDbSymbolTable
70
0
0
ENDTAB
0
TABLE
2
UCS
5
7
100
AcDbSymbolTable
70
0
0
ENDTAB
0
TABLE
2
APPID
5
9
100
AcDbSymbolTable
70
2
0
APPID
5
12
100
AcDbSymbolTableRecord
100
AcDbRegAppTableRecord
2
ACAD
70
0
0
ENDTAB
0
TABLE
2
DIMSTYLE
5
A
100
AcDbSymbolTable
70
1
0
ENDTAB
0
TABLE
2
BLOCK_RECORD
5
1
100
AcDbSymbolTable
70
1
0
BLOCK_RECORD
5
1F
100
AcDbSymbolTableRecord
100
AcDbBlockTableRecord
2
*MODEL_SPACE
0
BLOCK_RECORD
5
1B
100
AcDbSymbolTableRecord
100
AcDbBlockTableRecord
2
*PAPER_SPACE
0
ENDTAB
0
ENDSEC
0
SECTION
2
BLOCKS
0
BLOCK
5
20
100
AcDbEntity
100
AcDbBlockBegin
2
*MODEL_SPACE
0
ENDBLK
5
21
100
AcDbEntity
100
AcDbBlockEnd
0
BLOCK
5
1C
100
AcDbEntity
100
AcDbBlockBegin
2
*PAPER_SPACE
0
ENDBLK
5
1D
100
AcDbEntity
100
AcDbBlockEnd
0
ENDSEC
0
SECTION
2
ENTITIES
0
SPLINE
5
100
100
AcDbEntity
8
0
100
AcDbSpline
70
4
71
5
72
16
73
10
74
0
42
0.000000001
43
0.0000000001
44
0.0000000001
40
0
40
0
40
0
40
0
40
0
40
0
40
0.20000000000000001
40
0.40000000000000002
40
0.60000000000000009
40
0.80000000000000004
40
1
40
1
40
1
40
1
40
1
40
1
41
1
41
1
41
1
41
1
41
1
41
1
41
1
41
1
41
1
41
1
10
0
20
-0.055000000000000049
30
0
10
0
20
0.069400000000207365
30
0
10
0
20
0.31820000000056603
30
0
10
0
20
0.69140000000093593
30
0
10
0
20
1.1890000000011365
30
0
10
0
20
1.8110000000010393
30
0
10
0
20
2.3086000000007481
30
0
10
0
20
2.6818000000004227
30
0
10
0
20
2.9306000000001484
30
0
10
0
20
3.0549999999999997
30
0
0
SPLINE
5
101
100
AcDbEntity
8
0
100
AcDbSpline
70
4
71
5
72
16
73
10
74
0
42
0.000000001
43
0.0000000001
44
0.0000000001
40
0
40
0
40
0
40
0
40
0
40
0
40
0.20000000000000001
40
0.40000000000000002
40
0.60000000000000009
40
0.80000000000000004
40
1
40
1
40
1
40
1
40
1
40
1
41
1
41
1
41
1
41
1
41
1
41
1
41
1
41
1
41
1
41
1
10
10
20
-0.055000000000000049
30
0
10
9.9999999999997495
20
0.069400000000207365
30
0
10
9.9999999999993197
20
0.31820000000056603
30
0
10
9.9999999999989129
20
0.69140000000093593
30
0
10
9.9999999999987672
20
1.1890000000011365
30
0
10
9.9999999999990248
20
1.8110000000010393
30
0
10
9.9999999999993889
20
2.3086000000007481
30
0
10
9.9999999999996998
20
2.6818000000004227
30
0
10
9.9999999999999005
20
2.9306000000001484
30
0
10
10
20
3.0549999999999997
30
0
0
SPLINE
5
102
100
AcDbEntity
8
0
100
AcDbSpline
70
4
71
5
72
16
73
10
74
0
42
0.000000001
43
0.0000000001
44
0.0000000001
40
0
40
0
40
0
40
0
40
0
40
0
40
0.20000000000000001
40
0.40000000000000002
40
0.60000000000000009
40
0.80000000000000004
40
1
40
1
40
1
40
1
40
1
40
1
41
1
41
1
41
1
41
1
41
1
41
1
41
1
41
1
41
1
41
1
10
0
20
1.5274999999999999
30
0
10
0.40000000000047375
20
1.5274999999999856
30
0
10
1.2000000000012774
20
1.5274999999999614
30
0
10
2.4000000000020547
20
1.527499999999943
30
0
10
4.0000000000023546
20
1.5274999999999479
30
0
10
6.0000000000019584
20
1.5274999999999812
30
0
10
7.6000000000012928
20
1.5275000000000025
30
0
10
8.800000000000697
20
1.5275000000000083
30
0
10
9.6000000000002395
20
1.5275000000000039
30
0
10
10
20
1.5274999999999999
30
0
0
SPLINE
5
103
100
AcDbEntity
8
0
100
AcDbSpline
70
4
71
5
72
61
73
55
74
0
42
0.000000001
43
0.0000000001
44
0.0000000001
40
0
40
0
40
0
40
0
40
0
40
0
40
0.02
40
0.040000000000000001
40
0.059999999999999998
40
0.080000000000000002
40
0.10000000000000001
40
0.12000000000000001
40
0.14000000000000001
40
0.16
40
0.17999999999999999
40
0.19999999999999998
40
0.21999999999999997
40
0.23999999999999996
40
0.25999999999999995
40
0.27999999999999997
40
0.29999999999999999
40
0.32000000000000001
40
0.34000000000000002
40
0.36000000000000004
40
0.38000000000000006
40
0.40000000000000008
40
0.4200000000000001
40
0.44000000000000011
40
0.46000000000000013
40
0.48000000000000015
40
0.50000000000000011
40
0.52000000000000013
40
0.54000000000000015
40
0.56000000000000016
40
0.58000000000000018
40
0.6000000000000002
40
0.62000000000000022
40
0.64000000000000024
40
0.66000000000000025
40
0.68000000000000027
40
0.70000000000000029
40
0.72000000000000031
40
0.74000000000000032
40
0.76000000000000034
40
0.78000000000000036
40
0.80000000000000038
40
0.8200000000000004
40
0.84000000000000041
40
0.86000000000000043
40
0.88000000000000045
40
0.90000000000000047
40
0.92000000000000048
40
0.9400000000000005
40
0.96000000000000052
40
0.98000000000000054
40
1
40
1
40
1
40
1
40
1
40
1
41
1
41
1
41
1
41
1
41
1
41
1
41
1
41
1
41
1
41
1
41
1
41
1
41
1
41
1
41
1
41
1
41
1
41
1
41
1
41
1
41
1
41
1
41
1
41
1
41
1
41
1
41
1
41
1
41
1
41
1
41
1
41
1
41
1
41
1
41
1
41
1
41
1
41
1
41
1
41
1
41
1
41
1
41
1
41
1
41
1
41
1
41
1
41
1
41
1
41
1
41
1
41
1
41
1
41
1
41
1
10
0
20
-0.055000000000000049
30
0
10
0.040243271398828877
20
-0.047092128774695603
30
0
10
0.12071181811068507
20
-0.031757906927636678
30
0
10
0.24136064945770025
20
-0.010201124933690641
30
0
10
0.40211771409802277
20
0.015650173172983207
30
0
10
0.60289441256359699
20
0.042964914968829163
30
0
10
0.80353360381190064
20
0.064754327160535613
30
0
10
1.0041000035519905
20
0.07998291853455082
30
0
10
1.2047023789926574
20
0.086928774203934633
30
0
10
1.4055037988251531
20
0.083035825993315202
30
0
10
1.6066686728049671
20
0.066188837937154882
30
0
10
1.8083104192597643
20
0.035981227298588443
30
0
10
2.0104397982984663
20
-0.0050447441394504324
30
0
10
2.2129103807293453
20
-0.050059315798500259
30
0
10
2.4153713710008047
20
-0.086859228103204261
30
0
10
2.617370691553293
20
-0.10179048852022968
30
0
10
2.8184522684742634
20
-0.083504982648532067
30
0
10
3.0182533415332586
20
-0.026668391639231737
30
0
10
3.2166068061853599
20
0.064029447568656778
30
0
10
3.4136280008876367
20
0.17073513816256478
30
0
10
3.6096207687649957
20
0.26927234268982542
30
0
10
3.8049971827105495
20
0.33523865716915907
30
0
10
4.0001924625619765
20
0.35038038039870706
30
0
10
4.1955820662289316
20
0.3088617863919616
30
0
10
4.3913978327913323
20
0.22360827479187342
30
0
10
4.5877601818677309
20
0.11900159379240924
30
0
10
4.7847095849374206
20
0.023690834596717423
30
0
10
4.9822384572816745
20
-0.036755096240706255
30
0
10
5.1803217973774327
20
-0.046826507468819986
30
0
10
5.3789506811867174
20
-0.0090470900599671517
30
0
10
5.5781260725218846
20
0.061350781792048434
30
0
10
5.7778491462051758
20
0.14285814565843169
30
0
10
5.9781127347889189
20
0.21382221287127856
30
0
10
6.1788925469283669
20
0.25842411172850427
30
0
10
6.3801376860222483
20
0.27346820336063304
30
0
10
6.5817714745292495
20
0.26508130936858287
30
0
10
6.783693535348978
20
0.24430566403060711
30
0
10
6.9857811605441338
20
0.22305108666461271
30
0
10
7.1878913334034333
20
0.21002280229829332
30
0
10
7.3898612633145824
20
0.20632829689114973
30
0
10
7.5915320033934739
20
0.20769436327590335
30
0
10
7.7927735400363236
20
0.20713971044612059
30
0
10
7.9935096469234166
20
0.19748791295474247
30
0
10
8.1937424514630433
20
0.17390997972187489
30
0
10
8.3935787722395787
20
0.13655495909242518
30
0
10
8.5931974510417728
20
0.089218362262794892
30
0
10
8.7928150835970769
20
0.037892889124718748
30
0
10
8.9926522730532952
20
-0.010637844511292899
30
0
10
9.192900157889488
20
-0.050202538934676695
30
0
10
9.393685522403123
20
-0.07669568620292383
30
0
10
9.5950830679155654
20
-0.087692942458393472
30
0
10
9.7567199826066204
20
-0.083142904674579049
30
0
10
9.8782445940854497
20
-0.07205459133215604
30
0
10
9.9593928843268582
20
-0.061253078576726211
30
0
10
10
20
-0.055000000000000049
30
0
0
SPLINE
5
104
100
AcDbEntity
8
0
100
AcDbSpline
70
4
71
5
72
61
73
55
74
0
42
0.000000001
43
0.0000000001
44
0.0000000001
40
0
40
0
40
0
40
0
40
0
40
0
40
0.02
40
0.040000000000000001
40
0.059999999999999998
40
0.080000000000000002
40
0.10000000000000001
40
0.12000000000000001
40
0.14000000000000001
40
0.16
40
0.17999999999999999
40
0.19999999999999998
40
0.21999999999999997
40
0.23999999999999996
40
0.25999999999999995
40
0.27999999999999997
40
0.29999999999999999
40
0.32000000000000001
40
0.34000000000000002
40
0.36000000000000004
40
0.38000000000000006
40
0.40000000000000008
40
0.4200000000000001
40
0.44000000000000011
40
0.46000000000000013
40
0.48000000000000015
40
0.50000000000000011
40
0.52000000000000013
40
0.54000000000000015
40
0.56000000000000016
40
0.58000000000000018
40
0.6000000000000002
40
0.62000000000000022
40
0.64000000000000024
40
0.66000000000000025
40
0.68000000000000027
40
0.70000000000000029
40
0.72000000000000031
40
0.74000000000000032
40
0.76000000000000034
40
0.78000000000000036
40
0.80000000000000038
40
0.8200000000000004
40
0.84000000000000041
40
0.86000000000000043
40
0.88000000000000045
40
0.90000000000000047
40
0.92000000000000048
40
0.9400000000000005
40
0.96000000000000052
40
0.98000000000000054
40
1
40
1
40
1
40
1
40
1
40
1
41
1
41
1
41
1
41
1
41
1
41
1
41
1
41
1
41
1
41
1
41
1
41
1
41
1
41
1
41
1
41
1
41
1
41
1
41
1
41
1
41
1
41
1
41
1
41
1
41
1
41
1
41
1
41
1
41
1
41
1
41
1
41
1
41
1
41
1
41
1
41
1
41
1
41
1
41
1
41
1
41
1
41
1
41
1
41
1
41
1
41
1
41
1
41
1
41
1
41
1
41
1
41
1
41
1
41
1
41
1
10
0
20
3.0549999999999997
30
0
10
0.040527521218278809
20
3.0654352311473558
30
0
10
0.12152932880801479
20
3.0834888539388317
30
0
10
0.24287233569829419
20
3.1021187324109709
30
0
10
0.40434339410932929
20
3.1100467682871051
30
0
10
0.60565050308152635
20
3.0925012784330637
30
0
10
0.80643093138943978
20
3.0498108857323825
30
0
10
1.0066963495324102
20
2.9866744374874088
30
0
10
1.2064676337105302
20
2.9110320606500379
30
0
10
1.4057775710173179
20
2.8348182493663621
30
0
10
1.6046770088676052
20
2.7712819970560085
30
0
10
1.8032409672150373
20
2.7324046487793936
30
0
10
2.0015748062069312
20
2.7262849286867405
30
0
10
2.1998205301316949
20
2.7545159166153015
30
0
10
2.3981629400186417
20
2.8095842591057298
30
0
10
2.5968012644695899
20
2.8784147268097042
30
0
10
2.7959211211765531
20
2.9458513001151894
30
0
10
2.9956662140482946
20
2.9981683264068373
30
0
10
3.1961103106280424
20
3.02653541553659
30
0
10
3.3972281614574689
20
3.0306080390490915
30
0
10
3.598914810498818
20
3.0159247558052362
30
0
10
3.8010056414399882
20
2.9911939472947187
30
0
10
4.003296010139632
20
2.9656397696713155
30
0
10
4.2055608048884041
20
2.9463094994825703
30
0
10
4.4075742392177419
20
2.9354424433388653
30
0
10
4.6091458391191793
20
2.9316866018653394
30
0
10
4.8101567650049653
20
2.9312554864742273
30
0
10
5.0105951927582471
20
2.9290968258093688
30
0
10
5.2105946700911669
20
2.9200580271177241
30
0
10
5.4104651530906018
20
2.9000332227701509
30
0
10
5.6105777759450035
20
2.8666121448024744
30
0
10
5.8112550408091526
20
2.8197704302816788
30
0
10
6.0126613069071801
20
2.7625204869240276
30
0
10
6.2146872472492865
20
2.7016569555432755
30
0
10
6.4168518558216245
20
2.6482758828447843
30
0
10
6.6184959649386288
20
2.614692913074812
30
0
10
6.8189619436863245
20
2.6115147869044093
30
0
10
7.0177742783462262
20
2.6447303818042478
30
0
10
7.2148299640225124
20
2.7125958255818929
30
0
10
7.410557510145952
20
2.8031225389861794
30
0
10
7.6056988291946546
20
2.8987374204826439
30
0
10
7.8011190370310981
20
2.9804132832417194
30
0
10
7.9976057340877134
20
3.032002633995114
30
0
10
8.1956736213012054
20
3.0444685747192812
30
0
10
8.3953636803651737
20
3.0202351612877747
30
0
10
8.596373640569217
20
2.9698908648967803
30
0
10
8.7981904608164889
20
2.9088444787726644
30
0
10
9.0002213781603473
20
2.8540146170691623
30
0
10
9.2019252364801378
20
2.8205115649947414
30
0
10
9.4029436316682578
20
2.81832234453123
30
0
10
9.6030634498453917
20
2.8533659728581662
30
0
10
9.7623565146422386
20
2.9135036430772274
30
0
10
9.8813596278064768
20
2.977074611661827
30
0
10
9.9604877560316538
20
3.0276577828395954
30
0
10
10
20
3.0549999999999997
30
0
0
ENDSEC
0
SECTION
2
OBJECTS
0
DICTIONARY
5
C
100
AcDbDictionary
3
ACAD_GROUP
350
D
3
ACAD_MLINESTYLE
350
17
0
DICTIONARY
5
D
100
AcDbDictionary
0
DICTIONARY
5
1A
330
C
100
AcDbDictionary
0
DICTIONARY
5
17
100
AcDbDictionary
0
ENDSEC
0
EOF
