0
SECTION
2
HEADER
9
$INSUNITS
70
4
9
$ACADVER
1
AC1014
9
$HANDSEED
5
FFFF
0
ENDSEC
0
SECTION
2
TABLES
0
TABLE
2
VPORT
5
8
100
AcDbSymbolTable
0
ENDTAB
0
TABLE
2
LTYPE
5
5
100
AcDbSymbolTable
0
LTYPE
5
14
100
AcDbSymbolTableRecord
100
AcDbLinetypeTableRecord
2
BYBLOCK
70
0
0
LTYPE
5
15
100
AcDbSymbolTableRecord
100
AcDbLinetypeTableRecord
2
BYLAYER
70
0
0
ENDTAB
0
TABLE
2
LAYER
5
2
100
AcDbSymbolTable
70
2
0
LAYER
5
50
100
AcDbSymbolTableRecord
100
AcDbLayerTableRecord
2
0
70
0
6
CONTINUOUS
0
ENDTAB
0
TABLE
2
STYLE
5
3
100
AcDbSymbolTable
70
1
0
STYLE
5
11
100
AcDbSymbolTableRecord
100
AcDbTextStyleTableRecord
2
STANDARD
70
0
0
ENDTAB
0
TABLE
2
VIEW
5
6
100
AcDbSymbolTable
70
0
0
ENDTAB
0
TABLE
2
UCS
5
7
100
AcDbSymbolTable
70
0
0
ENDTAB
0
TABLE
2
APPID
5
9
100
AcDbSymbolTable
70
2
0
APPID
5
12
100
AcDbSymbolTableRecord
100
AcDbRegAppTableRecord
2
ACAD
70
0
0
ENDTAB
0
TABLE
2
DIMSTYLE
5
A
100
AcDbSymbolTable
70
1
0
ENDTAB
0
TABLE
2
BLOCK_RECORD
5
1
100
AcDbSymbolTable
70
1
0
BLOCK_RECORD
5
1F
100
AcDbSymbolTableRecord
100
AcDbBlockTableRecord
2
*MODEL_SPACE
0
BLOCK_RECORD
5
1B
100
AcDbSymbolTableRecord
100
AcDbBlockTableRecord
2
*PAPER_SPACE
0
ENDTAB
0
ENDSEC
0
SECTION
2
BLOCKS
0
BLOCK
5
20
100
AcDbEntity
100
AcDbBlockBegin
2
*MODEL_SPACE
0
ENDBLK
5
21
100
AcDbEntity
100
AcDbBlockEnd
0
BLOCK
5
1C
100
AcDbEntity
100
AcDbBlockBegin
2
*PAPER_SPACE
0
ENDBLK
5
1D
100
AcDbEntity
100
AcDbBlockEnd
0
ENDSEC
0
SECTION
2
ENTITIES
0
SPLINE
5
100
100
AcDbEntity
8
0
100
AcDbSpline
70
4
71
5
72
16
73
10
74
0
42
0.000000001
43
0.0000000001
44
0.0000000001
40
0
40
0
40
0
40
0
40
0
40
0
40
0.20000000000000001
40
0.40000000000000002
40
0.60000000000000009
40
0.80000000000000004
40
1
40
1
40
1
40
1
40
1
40
1
41
1
41
1
41
1
41
1
41
1
41
1
41
1
41
1
41
1
41
1
10
0
20
-0.055000000000000049
30
0
10
0
20
0.069400000000207365
30
0
10
0
20
0.31820000000056603
30
0
10
0
20
0.69140000000093593
30
0
10
0
20
1.1890000000011365
30
0
10
0
20
1.8110000000010393
30
0
10
0
20
2.3086000000007481
30
0
10
0
20
2.6818000000004227
30
0
10
0
20
2.9306000000001484
30
0
10
0
20
3.0549999999999997
30
0
0
SPLINE
5
101
100
AcDbEntity
8
0
100
AcDbSpline
70
4
71
5
72
16
73
10
74
0
42
0.000000001
43
0.0000000001
44
0.0000000001
40
0
40
0
40
0
40
0
40
0
40
0
40
0.20000000000000001
40
0.40000000000000002
40
0.60000000000000009
40
0.80000000000000004
40
1
40
1
40
1
40
1
40
1
40
1
41
1
41
1
41
1
41
1
41
1
41
1
41
1
41
1
41
1
41
1
10
10
20
-0.055000000000000049
30
0
10
9.9999999999997495
20
0.069400000000207365
30
0
10
9.9999999999993197
20
0.31820000000056603
30
0
10
9.9999999999989129
20
0.69140000000093593
30
0
10
9.9999999999987672
20
1.1890000000011365
30
0
10
9.9999999999990248
20
1.8110000000010393
30
0
10
9.9999999999993889
20
2.3086000000007481
30
0
10
9.9999999999996998
20
2.6818000000004227
30
0
10
9.9999999999999005
20
2.9306000000001484
30
0
10
10
20
3.0549999999999997
30
0
0
SPLINE
5
102
100
AcDbEntity
8
0
100
AcDbSpline
70
4
71
5
72
16
73
10
74
0
42
0.000000001
43
0.0000000001
44
0.0000000001
40
0
40
0
40
0
40
0
40
0
40
0
40
0.20000000000000001
40
0.40000000000000002
40
0.60000000000000009
40
0.80000000000000004
40
1
40
1
40
1
40
1
40
1
40
1
41
1
41
1
41
1
41
1
41
1
41
1
41
1
41
1
41
1
41
1
10
0
20
1.5274999999999999
30
0
10
0.40000000000047375
20
1.5274999999999856
30
0
10
1.2000000000012774
20
1.5274999999999614
30
0
10
2.4000000000020547
20
1.527499999999943
30
0
10
4.0000000000023546
20
1.5274999999999479
30
0
10
6.0000000000019584
20
1.5274999999999812
30
0
10
7.6000000000012928
20
1.5275000000000025
30
0
10
8.800000000000697
20
1.5275000000000083
30
0
10
9.6000000000002395
20
1.5275000000000039
30
0
10
10
20
1.5274999999999999
30
0
0
SPLINE
5
103
100
AcDbEntity
8
0
100
AcDbSpline
70
4
71
5
72
61
73
55
74
0
42
0.000000001
43
0.0000000001
44
0.0000000001
40
0
40
0
40
0
40
0
40
0
40
0
40
0.02
40
0.040000000000000001
40
0.059999999999999998
40
0.080000000000000002
40
0.10000000000000001
40
0.12000000000000001
40
0.14000000000000001
40
0.16
40
0.17999999999999999
40
0.19999999999999998
40
0.21999999999999997
40
0.23999999999999996
40
0.25999999999999995
40
0.27999999999999997
40
0.29999999999999999
40
0.32000000000000001
40
0.34000000000000002
40
0.36000000000000004
40
0.38000000000000006
40
0.40000000000000008
40
0.4200000000000001
40
0.44000000000000011
40
0.46000000000000013
40
0.48000000000000015
40
0.50000000000000011
40
0.52000000000000013
40
0.54000000000000015
40
0.56000000000000016
40
0.58000000000000018
40
0.6000000000000002
40
0.62000000000000022
40
0.64000000000000024
40
0.66000000000000025
40
0.68000000000000027
40
0.70000000000000029
40
0.72000000000000031
40
0.74000000000000032
40
0.76000000000000034
40
0.78000000000000036
40
0.80000000000000038
40
0.8200000000000004
40
0.84000000000000041
40
0.86000000000000043
40
0.88000000000000045
40
0.90000000000000047
40
0.92000000000000048
40
0.9400000000000005
40
0.96000000000000052
40
0.98000000000000054
40
1
40
1
40
1
40
1
40
1
40
1
41
1
41
1
41
1
41
1
41
1
41
1
41
1
41
1
41
1
41
1
41
1
41
1
41
1
41
1
41
1
41
1
41
1
41
1
41
1
41
1
41
1
41
1
41
1
41
1
41
1
41
1
41
1
41
1
41
1
41
1
41
1
41
1
41
1
41
1
41
1
41
1
41
1
41
1
41
1
41
1
41
1
41
1
41
1
41
1
41
1
41
1
41
1
41
1
41
1
41
1
41
1
41
1
41
1
41
1
41
1
10
0
20
-0.055000000000000049
30
0
10
0.040436442562057556
20
-0.065085680213698177
30
0
10
0.1212597703088088
20
-0.083018885022124456
30
0
10
0.24234608964304141
20
-0.10320420637244967
30
0
10
0.40349697847301735
20
-0.11668041095371876
30
0
10
0.60444512125630501
20
-0.11164412821662702
30
0
10
0.80492106037135258
20
-0.086361580752175593
30
0
10
1.004962788547612
20
-0.044167569936050949
30
0
10
1.2046351337998575
20
0.0093009203824646509
30
0
10
1.404036472239198
20
0.065551851594584862
30
0
10
1.6032854464187589
20
0.11507250198286242
30
0
10
1.8025081501267981
20
0.14911308757584926
30
0
10
2.0018251862316103
20
0.16148558423462622
30
0
10
2.2013387458872744
20
0.15037273028363984
30
0
10
2.4011197195306084
20
0.12011446975794093
30
0
10
2.6012068112475601
20
0.078959675854057013
30
0
10
2.8016054564855115
20
0.036858031082785306
30
0
10
3.0022867598965859
20
0.0032482631396482799
30
0
10
3.203186222352572
20
-0.015162646253068804
30
0
10
3.4042027216283017
20
-0.016591529493048946
30
0
10
3.605224534089893
20
-0.0029595751887161767
30
0
10
3.8061552279616833
20
0.021284843600357803
30
0
10
4.0069392824247645
20
0.050348667739830627
30
0
10
4.2075887085234625
20
0.078274866383464939
30
0
10
4.4082072075266616
20
0.10010645950125274
30
0
10
4.6089364211805686
20
0.11240423532729375
30
0
10
4.8099041202312458
20
0.11379812781449783
30
0
10
5.0111725815259955
20
0.1055098546617608
30
0
10
5.2126846212936062
20
0.091944490675053198
30
0
10
5.4142163033823021
20
0.081121742255046619
30
0
10
5.6154580067963504
20
0.082164231541190069
30
0
10
5.8160899507678723
20
0.10289575328466891
30
0
10
6.015858333898068
20
0.1474570888877583
30
0
10
6.2146545920461893
20
0.21376422899720376
30
0
10
6.4125844221619275
20
0.2914215742716037
30
0
10
6.6098966709001612
20
0.36572424796779779
30
0
10
6.806921532427336
20
0.42126651559166306
30
0
10
7.0040056934213606
20
0.44567680172135055
30
0
10
7.2014484288182343
20
0.43334695306666815
30
0
10
7.3994384840205951
20
0.38906251540479098
30
0
10
7.5980699566589376
20
0.32427724047565271
30
0
10
7.7973564262460915
20
0.25354524369036652
30
0
10
7.997245497992834
20
0.19089675248496729
30
0
10
8.1976329647742716
20
0.14626002817590708
30
0
10
8.3983769374508768
20
0.12179870770451683
30
0
10
8.5993141875700747
20
0.11397867705072903
30
0
10
8.8002764974247008
20
0.11569140026832556
30
0
10
9.0011069588221524
20
0.11834332692203088
30
0
10
9.2016763457279644
20
0.1139572486309316
30
0
10
9.4018994205262505
20
0.097257935435177773
30
0
10
9.601725777799814
20
0.065110807376485641
30
0
10
9.7612498611612324
20
0.025803459204752906
30
0
10
9.8806999333794625
20
-0.011541770894943997
30
0
10
9.9602475973784887
20
-0.039931732839636053
30
0
10
10
20
-0.055000000000000049
30
0
0
SPLINE
5
104
100
AcDbEntity
8
0
100
AcDbSpline
70
4
71
5
72
61
73
55
74
0
42
0.000000001
43
0.0000000001
44
0.0000000001
40
0
40
0
40
0
40
0
40
0
40
0
40
0.02
40
0.040000000000000001
40
0.059999999999999998
40
0.080000000000000002
40
0.10000000000000001
40
0.12000000000000001
40
0.14000000000000001
40
0.16
40
0.17999999999999999
40
0.19999999999999998
40
0.21999999999999997
40
0.23999999999999996
40
0.25999999999999995
40
0.27999999999999997
40
0.29999999999999999
40
0.32000000000000001
40
0.34000000000000002
40
0.36000000000000004
40
0.38000000000000006
40
0.40000000000000008
40
0.4200000000000001
40
0.44000000000000011
40
0.46000000000000013
40
0.48000000000000015
40
0.50000000000000011
40
0.52000000000000013
40
0.54000000000000015
40
0.56000000000000016
40
0.58000000000000018
40
0.6000000000000002
40
0.62000000000000022
40
0.64000000000000024
40
0.66000000000000025
40
0.68000000000000027
40
0.70000000000000029
40
0.72000000000000031
40
0.74000000000000032
40
0.76000000000000034
40
0.78000000000000036
40
0.80000000000000038
40
0.8200000000000004
40
0.84000000000000041
40
0.86000000000000043
40
0.88000000000000045
40
0.90000000000000047
40
0.92000000000000048
40
0.9400000000000005
40
0.96000000000000052
40
0.98000000000000054
40
1
40
1
40
1
40
1
40
1
40
1
41
1
41
1
41
1
41
1
41
1
41
1
41
1
41
1
41
1
41
1
41
1
41
1
41
1
41
1
41
1
41
1
41
1
41
1
41
1
41
1
41
1
41
1
41
1
41
1
41
1
41
1
41
1
41
1
41
1
41
1
41
1
41
1
41
1
41
1
41
1
41
1
41
1
41
1
41
1
41
1
41
1
41
1
41
1
41
1
41
1
41
1
41
1
41
1
41
1
41
1
41
1
41
1
41
1
41
1
41
1
10
0
20
3.0549999999999997
30
0
10
0.040108661528606225
20
3.042484599475574
30
0
10
0.12033968672200818
20
3.01938721085138
30
0
10
0.24072733111079894
20
2.9905413829342544
30
0
10
0.40132645542268913
20
2.9636881941947109
30
0
10
0.60220804404337269
20
2.9490065342488374
30
0
10
0.80320846169247839
20
2.9517447918193969
30
0
10
1.0042996200471779
20
2.9689179190057944
30
0
10
1.2054341599022831
20
2.9954815846737111
30
0
10
1.4065409109306866
20
3.0238391332288788
30
0
10
1.6075453833958944
20
3.0457368279793262
30
0
10
1.8083899794442571
20
3.0541278120968456
30
0
10
2.0090539524909206
20
3.0450199971267562
30
0
10
2.2095744624025349
20
3.0194067310406436
30
0
10
2.4100647967751643
20
2.984982465423172
30
0
10
2.6106655631926152
20
2.9526898774667498
30
0
10
2.8114979957991704
20
2.9334417515677433
30
0
10
3.0126174872596434
20
2.9348414361490009
30
0
10
3.213964468147287
20
2.9577538104351659
30
0
10
3.4153229285805771
20
2.9933286167993618
30
0
10
3.6164065444630102
20
3.0276518775761052
30
0
10
3.8169388572845593
20
3.0460321730292126
30
0
10
4.0167337693792939
20
3.0373201280063307
30
0
10
4.2157805216948665
20
2.998451192961312
30
0
10
4.4143145666006198
20
2.9382532344235255
30
0
10
4.6127102362037364
20
2.8719696820443441
30
0
10
4.8113853371586526
20
2.8163941165528747
30
0
10
5.0107024892504723
20
2.7848542292760237
30
0
10
5.2108692638852228
20
2.7820833429409304
30
0
10
5.411845555121694
20
2.7996005099156567
30
0
10
5.6134098218512758
20
2.8216639174931348
30
0
10
5.8152175739427117
20
2.8307742051921658
30
0
10
6.0168621881916051
20
2.8132179779886957
30
0
10
6.2179349891248892
20
2.764880549430035
30
0
10
6.4180841793557208
20
2.6961657537580939
30
0
10
6.6170521360466639
20
2.6256309610510136
30
0
10
6.8147149986731286
20
2.5743746370939391
30
0
10
7.0111206746821715
20
2.560222286794565
30
0
10
7.2065304789915814
20
2.5918236087827773
30
0
10
7.4014527780731356
20
2.6632469283455773
30
0
10
7.5965190178550115
20
2.7592988236383857
30
0
10
7.7923680303939875
20
2.8602900888345371
30
0
10
7.9895260397990207
20
2.9470395590448275
30
0
10
8.1882912324187842
20
3.0056700064913278
30
0
10
8.3886077310027591
20
3.032786597269201
30
0
10
8.5901612367057076
20
3.0328791016692929
30
0
10
8.792484680856667
20
3.0153723085812585
30
0
10
8.9950601069674274
20
2.9918098417652574
30
0
10
9.1974210013022404
20
2.9730141698714085
30
0
10
9.3992569247361963
20
2.9661923343415504
30
0
10
9.6003836074576281
20
2.9756210131280252
30
0
10
9.7606447793917397
20
2.9978542843174822
30
0
10
9.8804674388566696
20
3.0230972372890292
30
0
10
9.960183441255456
20
3.0437314810988521
30
0
10
10
20
3.0549999999999997
30
0
0
ENDSEC
0
SECTION
2
OBJECTS
0
DICTIONARY
5
C
100
AcDbDictionary
3
ACAD_GROUP
350
D
3
ACAD_MLINESTYLE
350
17
0
DICTIONARY
5
D
100
AcDbDictionary
0
DICTIONARY
5
1A
330
C
100
AcDbDictionary
0
DICTIONARY
5
17
100
AcDbDictionary
0
ENDSEC
0
EOF
