0
SECTION
2
HEADER
9
$INSUNITS
70
4
9
$ACADVER
1
AC1014
9
$HANDSEED
5
FFFF
0
ENDSEC
0
SECTION
2
TABLES
0
TABLE
2
VPORT
5
8
100
AcDbSymbolTable
0
ENDTAB
0
TABLE
2
LTYPE
5
5
100
AcDbSymbolTable
0
LTYPE
5
14
100
AcDbSymbolTableRecord
100
AcDbLinetypeTableRecord
2
BYBLOCK
70
0
0
LTYPE
5
15
100
AcDbSymbolTableRecord
100
AcDbLinetypeTableRecord
2
BYLAYER
70
0
0
ENDTAB
0
TABLE
2
LAYER
5
2
100
AcDbSymbolTable
70
2
0
LAYER
5
50
100
AcDbSymbolTableRecord
100
AcDbLayerTableRecord
2
0
70
0
6
CONTINUOUS
0
ENDTAB
0
TABLE
2
STYLE
5
3
100
AcDbSymbolTable
70
1
0
STYLE
5
11
100
AcDbSymbolTableRecord
100
AcDbTextStyleTableRecord
2
STANDARD
70
0
0
ENDTAB
0
TABLE
2
VIEW
5
6
100
AcDbSymbolTable
70
0
0
ENDTAB
0
TABLE
2
UCS
5
7
100
AcDbSymbolTable
70
0
0
ENDTAB
0
TABLE
2
APPID
5
9
100
AcDbSymbolTable
70
2
0
APPID
5
12
100
AcDbSymbolTableRecord
100
AcDbRegAppTableRecord
2
ACAD
70
0
0
ENDTAB
0
TABLE
2
DIMSTYLE
5
A
100
AcDbSymbolTable
70
1
0
ENDTAB
0
TABLE
2
BLOCK_RECORD
5
1
100
AcDbSymbolTable
70
1
0
BLOCK_RECORD
5
1F
100
AcDbSymbolTableRecord
100
AcDbBlockTableRecord
2
*MODEL_SPACE
0
BLOCK_RECORD
5
1B
100
AcDbSymbolTableRecord
100
AcDbBlockTableRecord
2
*PAPER_SPACE
0
ENDTAB
0
ENDSEC
0
SECTION
2
BLOCKS
0
BLOCK
5
20
100
AcDbEntity
100
AcDbBlockBegin
2
*MODEL_SPACE
0
ENDBLK
5
21
100
AcDbEntity
100
AcDbBlockEnd
0
BLOCK
5
1C
100
AcDbEntity
100
AcDbBlockBegin
2
*PAPER_SPACE
0
ENDBLK
5
1D
100
AcDbEntity
100
AcDbBlockEnd
0
ENDSEC
0
SECTION
2
ENTITIES
0
SPLINE
5
100
100
AcDbEntity
8
0
100
AcDbSpline
70
4
71
5
72
16
73
10
74
0
42
0.000000001
43
0.0000000001
44
0.0000000001
40
0
40
0
40
0
40
0
40
0
40
0
40
0.20000000000000001
40
0.40000000000000002
40
0.60000000000000009
40
0.80000000000000004
40
1
40
1
40
1
40
1
40
1
40
1
41
1
41
1
41
1
41
1
41
1
41
1
41
1
41
1
41
1
41
1
10
0
20
-0.055000000000000049
30
0
10
0
20
0.069400000000207365
30
0
10
0
20
0.31820000000056603
30
0
10
0
20
0.69140000000093593
30
0
10
0
20
1.1890000000011365
30
0
10
0
20
1.8110000000010393
30
0
10
0
20
2.3086000000007481
30
0
10
0
20
2.6818000000004227
30
0
10
0
20
2.9306000000001484
30
0
10
0
20
3.0549999999999997
30
0
0
SPLINE
5
101
100
AcDbEntity
8
0
100
AcDbSpline
70
4
71
5
72
16
73
10
74
0
42
0.000000001
43
0.0000000001
44
0.0000000001
40
0
40
0
40
0
40
0
40
0
40
0
40
0.20000000000000001
40
0.40000000000000002
40
0.60000000000000009
40
0.80000000000000004
40
1
40
1
40
1
40
1
40
1
40
1
41
1
41
1
41
1
41
1
41
1
41
1
41
1
41
1
41
1
41
1
10
10
20
-0.055000000000000049
30
0
10
9.9999999999997495
20
0.069400000000207365
30
0
10
9.9999999999993197
20
0.31820000000056603
30
0
10
9.9999999999989129
20
0.69140000000093593
30
0
10
9.9999999999987672
20
1.1890000000011365
30
0
10
9.9999999999990248
20
1.8110000000010393
30
0
10
9.9999999999993889
20
2.3086000000007481
30
0
10
9.9999999999996998
20
2.6818000000004227
30
0
10
9.9999999999999005
20
2.9306000000001484
30
0
10
10
20
3.0549999999999997
30
0
0
SPLINE
5
102
100
AcDbEntity
8
0
100
AcDbSpline
70
4
71
5
72
16
73
10
74
0
42
0.000000001
43
0.0000000001
44
0.0000000001
40
0
40
0
40
0
40
0
40
0
40
0
40
0.20000000000000001
40
0.40000000000000002
40
0.60000000000000009
40
0.80000000000000004
40
1
40
1
40
1
40
1
40
1
40
1
41
1
41
1
41
1
41
1
41
1
41
1
41
1
41
1
41
1
41
1
10
0
20
1.5274999999999999
30
0
10
0.40000000000047375
20
1.5274999999999856
30
0
10
1.2000000000012774
20
1.5274999999999614
30
0
10
2.4000000000020547
20
1.527499999999943
30
0
10
4.0000000000023546
20
1.5274999999999479
30
0
10
6.0000000000019584
20
1.5274999999999812
30
0
10
7.6000000000012928
20
1.5275000000000025
30
0
10
8.800000000000697
20
1.5275000000000083
30
0
10
9.6000000000002395
20
1.5275000000000039
30
0
10
10
20
1.5274999999999999
30
0
0
SPLINE
5
103
100
AcDbEntity
8
0
100
AcDbSpline
70
4
71
5
72
111
73
105
74
0
42
0.000000001
43
0.0000000001
44
0.0000000001
40
0
40
0
40
0
40
0
40
0
40
0
40
0.01
40
0.02
40
0.029999999999999999
40
0.040000000000000001
40
0.050000000000000003
40
0.060000000000000005
40
0.070000000000000007
40
0.080000000000000002
40
0.089999999999999997
40
0.099999999999999992
40
0.10999999999999999
40
0.11999999999999998
40
0.12999999999999998
40
0.13999999999999999
40
0.14999999999999999
40
0.16
40
0.17000000000000001
40
0.18000000000000002
40
0.19000000000000003
40
0.20000000000000004
40
0.21000000000000005
40
0.22000000000000006
40
0.23000000000000007
40
0.24000000000000007
40
0.25000000000000006
40
0.26000000000000006
40
0.27000000000000007
40
0.28000000000000008
40
0.29000000000000009
40
0.3000000000000001
40
0.31000000000000011
40
0.32000000000000012
40
0.33000000000000013
40
0.34000000000000014
40
0.35000000000000014
40
0.36000000000000015
40
0.37000000000000016
40
0.38000000000000017
40
0.39000000000000018
40
0.40000000000000019
40
0.4100000000000002
40
0.42000000000000021
40
0.43000000000000022
40
0.44000000000000022
40
0.45000000000000023
40
0.46000000000000024
40
0.47000000000000025
40
0.48000000000000026
40
0.49000000000000027
40
0.50000000000000022
40
0.51000000000000023
40
0.52000000000000024
40
0.53000000000000025
40
0.54000000000000026
40
0.55000000000000027
40
0.56000000000000028
40
0.57000000000000028
40
0.58000000000000029
40
0.5900000000000003
40
0.60000000000000031
40
0.61000000000000032
40
0.62000000000000033
40
0.63000000000000034
40
0.64000000000000035
40
0.65000000000000036
40
0.66000000000000036
40
0.67000000000000037
40
0.68000000000000038
40
0.69000000000000039
40
0.7000000000000004
40
0.71000000000000041
40
0.72000000000000042
40
0.73000000000000043
40
0.74000000000000044
40
0.75000000000000044
40
0.76000000000000045
40
0.77000000000000046
40
0.78000000000000047
40
0.79000000000000048
40
0.80000000000000049
40
0.8100000000000005
40
0.82000000000000051
40
0.83000000000000052
40
0.84000000000000052
40
0.85000000000000053
40
0.86000000000000054
40
0.87000000000000055
40
0.88000000000000056
40
0.89000000000000057
40
0.90000000000000058
40
0.91000000000000059
40
0.9200000000000006
40
0.9300000000000006
40
0.94000000000000061
40
0.95000000000000062
40
0.96000000000000063
40
0.97000000000000064
40
0.98000000000000065
40
0.99000000000000066
40
1
40
1
40
1
40
1
40
1
40
1
41
1
41
1
41
1
41
1
41
1
41
1
41
1
41
1
41
1
41
1
41
1
41
1
41
1
41
1
41
1
41
1
41
1
41
1
41
1
41
1
41
1
41
1
41
1
41
1
41
1
41
1
41
1
41
1
41
1
41
1
41
1
41
1
41
1
41
1
41
1
41
1
41
1
41
1
41
1
41
1
41
1
41
1
41
1
41
1
41
1
41
1
41
1
41
1
41
1
41
1
41
1
41
1
41
1
41
1
41
1
41
1
41
1
41
1
41
1
41
1
41
1
41
1
41
1
41
1
41
1
41
1
41
1
41
1
41
1
41
1
41
1
41
1
41
1
41
1
41
1
41
1
41
1
41
1
41
1
41
1
41
1
41
1
41
1
41
1
41
1
41
1
41
1
41
1
41
1
41
1
41
1
41
1
41
1
41
1
41
1
41
1
41
1
41
1
41
1
41
1
41
1
41
1
41
1
41
1
41
1
10
0
20
-0.055000000000000049
30
0
10
0.020972347769207082
20
-0.059948461625917521
30
0
10
0.062771977295980524
20
-0.068537644032974993
30
0
10
0.12503622054089134
20
-0.077498179166033049
30
0
10
0.20718469381251647
20
-0.081597943023570832
30
0
10
0.30844996848399325
20
-0.073864336136222092
30
0
10
0.40838848433435215
20
-0.053951039954392668
30
0
10
0.50718761381552313
20
-0.023220710717765918
30
0
10
0.60516256657693934
20
0.016036343312935963
30
0
10
0.70278177912110384
20
0.060404126766819409
30
0
10
0.80056757600729223
20
0.1058014039330913
30
0
10
0.89900433499939203
20
0.14790289036155307
30
0
10
0.99844350495445278
20
0.18257551293961199
30
0
10
1.0990105796611196
20
0.20630726059982996
30
0
10
1.2005091576621776
20
0.2166422726708977
30
0
10
1.3025417845056162
20
0.21244793425724667
30
0
10
1.404634018585905
20
0.19418872741121956
30
0
10
1.5063555117899183
20
0.16418389076682485
30
0
10
1.6074463438946767
20
0.12690713878398804
30
0
10
1.7079299442509122
20
0.089174338684575499
30
0
10
1.8080054519316318
20
0.058497678617958543
30
0
10
1.9079504504485876
20
0.041514834637804227
30
0
10
2.0080218244640262
20
0.04242798388839273
30
0
10
2.1083528650400085
20
0.061348047431565751
30
0
10
2.2088648887468945
20
0.092931190723922058
30
0
10
2.3093663213868392
20
0.12869550894694951
30
0
10
2.4096404821806519
20
0.15911252498231085
30
0
10
2.5095350821239428
20
0.17574156615848846
30
0
10
2.6090569363757639
20
0.17344270463919653
30
0
10
2.7084475821166274
20
0.15228067109038684
30
0
10
2.8080543018339514
20
0.11603045901574482
30
0
10
2.9082152738819871
20
0.070941368995559348
30
0
10
3.0091427271746869
20
0.024415464711684893
30
0
10
3.1107990356109907
20
-0.016302196041205225
30
0
10
3.2127981018128215
20
-0.045363863592852056
30
0
10
3.3145832644738933
20
-0.058572131402340397
30
0
10
3.4155876788065527
20
-0.053725204317390099
30
0
10
3.5153946667061113
20
-0.030897852700125766
30
0
10
3.6139137211290966
20
0.0071779089585111127
30
0
10
3.7115039876905658
20
0.054982366419324059
30
0
10
3.8087743179286129
20
0.10554125447907133
30
0
10
3.9064197649441956
20
0.15159664904289019
30
0
10
4.0050462564874598
20
0.18682767110865389
30
0
10
4.1049952390473461
20
0.20707913509812634
30
0
10
4.206182345063211
20
0.21150675527375043
30
0
10
4.3082509181374959
20
0.20186075787626181
30
0
10
4.4107125897537536
20
0.18186043540760916
30
0
10
4.5130886142548405
20
0.15653075351468773
30
0
10
4.6150602241652603
20
0.13156778359431581
30
0
10
4.7165879486862075
20
0.11265998881695967
30
0
10
4.8177969903051201
20
0.1046018628621735
30
0
10
4.9188834548743898
20
0.11038696664555581
30
0
10
5.020017714399712
20
0.13038872477650876
30
0
10
5.1212370901695694
20
0.16131275728358044
30
0
10
5.2223790143263082
20
0.19581650432069803
30
0
10
5.3231926123585636
20
0.22492896063723092
30
0
10
5.4234275344038494
20
0.24013587246554477
30
0
10
5.522925535569712
20
0.23545859875414385
30
0
10
5.6217253419791078
20
0.20985907444938304
30
0
10
5.7201174763232219
20
0.16851395306495442
30
0
10
5.8185163773356834
20
0.12000171273836654
30
0
10
5.9173597728950416
20
0.074105605854188225
30
0
10
6.0170020742508648
20
0.039465836195735897
30
0
10
6.1175992696672088
20
0.021084887642624072
30
0
10
6.2190301716263932
20
0.018523057258099034
30
0
10
6.321012558091641
20
0.027862471034389866
30
0
10
6.4231968991572606
20
0.043215622103743516
30
0
10
6.5252629490106484
20
0.058340785006409421
30
0
10
6.6270287342021597
20
0.068372731368974399
30
0
10
6.7285118782343574
20
0.071000169922395495
30
0
10
6.8298349078114331
20
0.065752069977259867
30
0
10
6.9311540255002759
20
0.053598942420432984
30
0
10
7.0325853728805852
20
0.036452131576009669
30
0
10
7.1341164123067324
20
0.016657110549749776
30
0
10
7.2355759161052333
20
-0.0033458749227406083
30
0
10
7.3367331053748615
20
-0.020954469545367296
30
0
10
7.4373748064521648
20
-0.033399598829309943
30
0
10
7.5373814574116569
20
-0.037763708296986595
30
0
10
7.636827433833866
20
-0.030874026103851673
30
0
10
7.7359896097883984
20
-0.0096401720799930354
30
0
10
7.8351990800049069
20
0.027890995251770141
30
0
10
7.9347216811499841
20
0.081566819140449151
30
0
10
8.0346416839367372
20
0.14828670433111879
30
0
10
8.1347086514665037
20
0.22071527126698809
30
0
10
8.2343186879815793
20
0.28748804810981526
30
0
10
8.3327571328881582
20
0.33626941233271262
30
0
10
8.4293913530009341
20
0.35628153630685833
30
0
10
8.5238690474133243
20
0.34085832227033552
30
0
10
8.6163487582026033
20
0.2904358084449713
30
0
10
8.7076088245068828
20
0.21396294060844157
30
0
10
8.7987520904378886
20
0.12509242965866094
30
0
10
8.890983252258966
20
0.039307389970709115
30
0
10
8.9853512615762003
20
-0.029398733977167232
30
0
10
9.0825214526883222
20
-0.071467424187852541
30
0
10
9.1824953511801315
20
-0.085371975423529783
30
0
10
9.2847566155556969
20
-0.075923223638408505
30
0
10
9.388481797381683
20
-0.051770175029430023
30
0
10
9.49273019432996
20
-0.023161839055045774
30
0
10
9.5966378001534718
20
0.00034597169108985682
30
0
10
9.6996218341727722
20
0.012303677074080387
30
0
10
9.801335711182551
20
0.0088776232610268558
30
0
10
9.8815518006758367
20
-0.007706537510678073
30
0
10
9.9410385116982614
20
-0.028215094170499274
30
0
10
9.9803961911680297
20
-0.045473957635224882
30
0
10
10
20
-0.055000000000000049
30
0
0
SPLINE
5
104
100
AcDbEntity
8
0
100
AcDbSpline
70
4
71
5
72
111
73
105
74
0
42
0.000000001
43
0.0000000001
44
0.0000000001
40
0
40
0
40
0
40
0
40
0
40
0
40
0.01
40
0.02
40
0.029999999999999999
40
0.040000000000000001
40
0.050000000000000003
40
0.060000000000000005
40
0.070000000000000007
40
0.080000000000000002
40
0.089999999999999997
40
0.099999999999999992
40
0.10999999999999999
40
0.11999999999999998
40
0.12999999999999998
40
0.13999999999999999
40
0.14999999999999999
40
0.16
40
0.17000000000000001
40
0.18000000000000002
40
0.19000000000000003
40
0.20000000000000004
40
0.21000000000000005
40
0.22000000000000006
40
0.23000000000000007
40
0.24000000000000007
40
0.25000000000000006
40
0.26000000000000006
40
0.27000000000000007
40
0.28000000000000008
40
0.29000000000000009
40
0.3000000000000001
40
0.31000000000000011
40
0.32000000000000012
40
0.33000000000000013
40
0.34000000000000014
40
0.35000000000000014
40
0.36000000000000015
40
0.37000000000000016
40
0.38000000000000017
40
0.39000000000000018
40
0.40000000000000019
40
0.4100000000000002
40
0.42000000000000021
40
0.43000000000000022
40
0.44000000000000022
40
0.45000000000000023
40
0.46000000000000024
40
0.47000000000000025
40
0.48000000000000026
40
0.49000000000000027
40
0.50000000000000022
40
0.51000000000000023
40
0.52000000000000024
40
0.53000000000000025
40
0.54000000000000026
40
0.55000000000000027
40
0.56000000000000028
40
0.57000000000000028
40
0.58000000000000029
40
0.5900000000000003
40
0.60000000000000031
40
0.61000000000000032
40
0.62000000000000033
40
0.63000000000000034
40
0.64000000000000035
40
0.65000000000000036
40
0.66000000000000036
40
0.67000000000000037
40
0.68000000000000038
40
0.69000000000000039
40
0.7000000000000004
40
0.71000000000000041
40
0.72000000000000042
40
0.73000000000000043
40
0.74000000000000044
40
0.75000000000000044
40
0.76000000000000045
40
0.77000000000000046
40
0.78000000000000047
40
0.79000000000000048
40
0.80000000000000049
40
0.8100000000000005
40
0.82000000000000051
40
0.83000000000000052
40
0.84000000000000052
40
0.85000000000000053
40
0.86000000000000054
40
0.87000000000000055
40
0.88000000000000056
40
0.89000000000000057
40
0.90000000000000058
40
0.91000000000000059
40
0.9200000000000006
40
0.9300000000000006
40
0.94000000000000061
40
0.95000000000000062
40
0.96000000000000063
40
0.97000000000000064
40
0.98000000000000065
40
0.99000000000000066
40
1
40
1
40
1
40
1
40
1
40
1
41
1
41
1
41
1
41
1
41
1
41
1
41
1
41
1
41
1
41
1
41
1
41
1
41
1
41
1
41
1
41
1
41
1
41
1
41
1
41
1
41
1
41
1
41
1
41
1
41
1
41
1
41
1
41
1
41
1
41
1
41
1
41
1
41
1
41
1
41
1
41
1
41
1
41
1
41
1
41
1
41
1
41
1
41
1
41
1
41
1
41
1
41
1
41
1
41
1
41
1
41
1
41
1
41
1
41
1
41
1
41
1
41
1
41
1
41
1
41
1
41
1
41
1
41
1
41
1
41
1
41
1
41
1
41
1
41
1
41
1
41
1
41
1
41
1
41
1
41
1
41
1
41
1
41
1
41
1
41
1
41
1
41
1
41
1
41
1
41
1
41
1
41
1
41
1
41
1
41
1
41
1
41
1
41
1
41
1
41
1
41
1
41
1
41
1
41
1
41
1
41
1
41
1
41
1
41
1
41
1
10
0
20
3.0549999999999997
30
0
10
0.021445325998712593
20
3.0666436150211625
30
0
10
0.064115852369629911
20
3.0871417802432255
30
0
10
0.12746126028745247
20
3.1095217407557927
30
0
10
0.21060086710966502
20
3.1226251934910865
30
0
10
0.31236236313369237
20
3.1117842938673981
30
0
10
0.41207943537913205
20
3.0757876174510885
30
0
10
0.50998958400877947
20
3.0187591475756639
30
0
10
0.60649317850876805
20
2.9476505483961675
30
0
10
0.70218354468658672
20
2.8727382773375232
30
0
10
0.79773721213193172
20
2.8053785157791311
30
0
10
0.8938162882047761
20
2.75600443115614
30
0
10
0.99096425885560446
20
2.731982636390315
30
0
10
1.0895090430153056
20
2.7356389071553067
30
0
10
1.1894506645890537
20
2.7619099139347494
30
0
10
1.2905496268972532
20
2.8009142485315381
30
0
10
1.3924325027507922
20
2.8409415378094756
30
0
10
1.4946920994378101
20
2.8713207391248599
30
0
10
1.5969878996506484
20
2.8852686728384569
30
0
10
1.699151750568118
20
2.8829418003901734
30
0
10
1.8011481964469405
20
2.8692118908286055
30
0
10
1.9030272235745214
20
2.8511608704708378
30
0
10
2.0048801877078777
20
2.8357082188862073
30
0
10
2.1067936538819523
20
2.8271183766849868
30
0
10
2.2088063260881237
20
2.8247378608640759
30
0
10
2.3109210965346829
20
2.8251450838753889
30
0
10
2.4131151561801127
20
2.8241693964788976
30
0
10
2.5153503169303666
20
2.8188629570327235
30
0
10
2.6175843768328955
20
2.8097147527691595
30
0
10
2.7197787039473029
20
2.8021125330936036
30
0
10
2.8218839381537917
20
2.8033197452605387
30
0
10
2.923826936028834
20
2.819857839720731
30
0
10
3.0254998004275784
20
2.8549524100382762
30
0
10
3.1267419311327487
20
2.9054314037666944
30
0
10
3.2273438901230072
20
2.9604737540291981
30
0
10
3.3271174299517527
20
3.0061853521946014
30
0
10
3.4259572515530072
20
3.0293056909021274
30
0
10
3.5238997070949933
20
3.0209804732586725
30
0
10
3.6211979190842642
20
2.9811615014831472
30
0
10
3.7183432554874885
20
2.9207092651986639
30
0
10
3.8159104938548305
20
2.8557711534023307
30
0
10
3.9144297526084433
20
2.8033728014366339
30
0
10
4.0142538149960032
20
2.7767192794501767
30
0
10
4.11541341096087
20
2.7801821474332638
30
0
10
4.2175182868248733
20
2.8056966806646861
30
0
10
4.3199551642744272
20
2.8385082333425196
30
0
10
4.4220572929864526
20
2.86200625370331
30
0
10
4.5232749324233286
20
2.8626239637059236
30
0
10
4.6233689198813375
20
2.8353802453587793
30
0
10
4.722522269019807
20
2.7870881840789536
30
0
10
4.8211530201809465
20
2.7310248191282707
30
0
10
4.9197716645631058
20
2.6828805503943487
30
0
10
5.0188283288720248
20
2.6564031060885136
30
0
10
5.1185474598623486
20
2.6587137822589142
30
0
10
5.2188185505736593
20
2.6871402691112434
30
0
10
5.3193522920322769
20
2.7332806480875789
30
0
10
5.4198027743399768
20
2.7861249905990659
30
0
10
5.519895842703388
20
2.8353845701711728
30
0
10
5.6195713615037164
20
2.8751027374562121
30
0
10
5.7190697151840606
20
2.9060269851545737
30
0
10
5.8187701981981741
20
2.9323963188192916
30
0
10
5.9190613894785846
20
2.959459061143932
30
0
10
6.0202069820522341
20
2.9908665693145786
30
0
10
6.1221948904496672
20
3.0257431608386369
30
0
10
6.2246496559444982
20
3.0570291320458223
30
0
10
6.3270172833771277
20
3.0752924005065383
30
0
10
6.4287157906221797
20
3.0718815867559721
30
0
10
6.5292877499190141
20
3.0420468113906143
30
0
10
6.628578930436813
20
2.9887620933965224
30
0
10
6.7268194763287195
20
2.9240492971869232
30
0
10
6.824449706381273
20
2.8638334655628106
30
0
10
6.9219916820178264
20
2.8239226287387553
30
0
10
7.0199094309558916
20
2.8157811696668893
30
0
10
7.1184580942786644
20
2.8418249092265455
30
0
10
7.2175860902329561
20
2.8926316611374778
30
0
10
7.3170704806431139
20
2.9523978648251226
30
0
10
7.416619809045411
20
3.0032552971196629
30
0
10
7.5159852216225094
20
3.0298638286772577
30
0
10
7.6150783215956031
20
3.0242798025538873
30
0
10
7.7140558009885059
20
2.9895454735366265
30
0
10
7.8132045802795647
20
2.9356129795385777
30
0
10
7.9128498314691349
20
2.8761683275048453
30
0
10
8.0132572649058496
20
2.8251861013774544
30
0
10
8.1145306159782322
20
2.7934213284071947
30
0
10
8.2165321915526128
20
2.7854498990529128
30
0
10
8.3189748136037842
20
2.8010520947122242
30
0
10
8.4214974574668702
20
2.8361315972034653
30
0
10
8.5237436426462239
20
2.8838200050535416
30
0
10
8.6254467842108564
20
2.9354786540966957
30
0
10
8.7264874139099664
20
2.98180716479802
30
0
10
8.8268473427784535
20
3.0141444738543051
30
0
10
8.9265800255716812
20
3.0257924161154581
30
0
10
9.0257758699925432
20
3.0132282291334018
30
0
10
9.1245267632003682
20
2.9776102393966863
30
0
10
9.2229003177085627
20
2.9253929681937931
30
0
10
9.3209474170889735
20
2.8662821948101613
30
0
10
9.418703801814738
20
2.8116347677930338
30
0
10
9.5161939581582242
20
2.7727345959596859
30
0
10
9.6134341246313131
20
2.7590037682845923
30
0
10
9.7104353484264614
20
2.7765923756105999
30
0
10
9.8072042980456402
20
2.8292134264026418
30
0
10
9.8844363866991785
20
2.9007980274954139
30
0
10
9.9422580212096747
20
2.9713444587856004
30
0
10
9.9807602600079264
20
3.0258663228457241
30
0
10
10
20
3.0549999999999997
30
0
0
ENDSEC
0
SECTION
2
OBJECTS
0
DICTIONARY
5
C
100
AcDbDictionary
3
ACAD_GROUP
350
D
3
ACAD_MLINESTYLE
350
17
0
DICTIONARY
5
D
100
AcDbDictionary
0
DICTIONARY
5
1A
330
C
100
AcDbDictionary
0
DICTIONARY
5
17
100
AcDbDictionary
0
ENDSEC
0
EOF
