0
SECTION
2
HEADER
9
$INSUNITS
70
4
9
$ACADVER
1
AC1014
9
$HANDSEED
5
FFFF
0
ENDSEC
0
SECTION
2
TABLES
0
TABLE
2
VPORT
5
8
100
AcDbSymbolTable
0
ENDTAB
0
TABLE
2
LTYPE
5
5
100
AcDbSymbolTable
0
LTYPE
5
14
100
AcDbSymbolTableRecord
100
AcDbLinetypeTableRecord
2
BYBLOCK
70
0
0
LTYPE
5
15
100
AcDbSymbolTableRecord
100
AcDbLinetypeTableRecord
2
BYLAYER
70
0
0
ENDTAB
0
TABLE
2
LAYER
5
2
100
AcDbSymbolTable
70
2
0
LAYER
5
50
100
AcDbSymbolTableRecord
100
AcDbLayerTableRecord
2
0
70
0
6
CONTINUOUS
0
ENDTAB
0
TABLE
2
STYLE
5
3
100
AcDbSymbolTable
70
1
0
STYLE
5
11
100
AcDbSymbolTableRecord
100
AcDbTextStyleTableRecord
2
STANDARD
70
0
0
ENDTAB
0
TABLE
2
VIEW
5
6
100
AcDbSymbolTable
70
0
0
ENDTAB
0
TABLE
2
UCS
5
7
100
AcDbSymbolTable
70
0
0
ENDTAB
0
TABLE
2
APPID
5
9
100
AcDbSymbolTable
70
2
0
APPID
5
12
100
AcDbSymbolTableRecord
100
AcDbRegAppTableRecord
2
ACAD
70
0
0
ENDTAB
0
TABLE
2
DIMSTYLE
5
A
100
AcDbSymbolTable
70
1
0
ENDTAB
0
TABLE
2
BLOCK_RECORD
5
1
100
AcDbSymbolTable
70
1
0
BLOCK_RECORD
5
1F
100
AcDbSymbolTableRecord
100
AcDbBlockTableRecord
2
*MODEL_SPACE
0
BLOCK_RECORD
5
1B
100
AcDbSymbolTableRecord
100
AcDbBlockTableRecord
2
*PAPER_SPACE
0
ENDTAB
0
ENDSEC
0
SECTION
2
BLOCKS
0
BLOCK
5
20
100
AcDbEntity
100
AcDbBlockBegin
2
*MODEL_SPACE
0
ENDBLK
5
21
100
AcDbEntity
100
AcDbBlockEnd
0
BLOCK
5
1C
100
AcDbEntity
100
AcDbBlockBegin
2
*PAPER_SPACE
0
ENDBLK
5
1D
100
AcDbEntity
100
AcDbBlockEnd
0
ENDSEC
0
SECTION
2
ENTITIES
0
SPLINE
5
100
100
AcDbEntity
8
0
100
AcDbSpline
70
4
71
5
72
16
73
10
74
0
42
0.000000001
43
0.0000000001
44
0.0000000001
40
0
40
0
40
0
40
0
40
0
40
0
40
0.20000000000000001
40
0.40000000000000002
40
0.60000000000000009
40
0.80000000000000004
40
1
40
1
40
1
40
1
40
1
40
1
41
1
41
1
41
1
41
1
41
1
41
1
41
1
41
1
41
1
41
1
10
0
20
-0.055000000000000049
30
0
10
0
20
0.069400000000207365
30
0
10
0
20
0.31820000000056603
30
0
10
0
20
0.69140000000093593
30
0
10
0
20
1.1890000000011365
30
0
10
0
20
1.8110000000010393
30
0
10
0
20
2.3086000000007481
30
0
10
0
20
2.6818000000004227
30
0
10
0
20
2.9306000000001484
30
0
10
0
20
3.0549999999999997
30
0
0
SPLINE
5
101
100
AcDbEntity
8
0
100
AcDbSpline
70
4
71
5
72
16
73
10
74
0
42
0.000000001
43
0.0000000001
44
0.0000000001
40
0
40
0
40
0
40
0
40
0
40
0
40
0.20000000000000001
40
0.40000000000000002
40
0.60000000000000009
40
0.80000000000000004
40
1
40
1
40
1
40
1
40
1
40
1
41
1
41
1
41
1
41
1
41
1
41
1
41
1
41
1
41
1
41
1
10
10
20
-0.055000000000000049
30
0
10
9.9999999999997495
20
0.069400000000207365
30
0
10
9.9999999999993197
20
0.31820000000056603
30
0
10
9.9999999999989129
20
0.69140000000093593
30
0
10
9.9999999999987672
20
1.1890000000011365
30
0
10
9.9999999999990248
20
1.8110000000010393
30
0
10
9.9999999999993889
20
2.3086000000007481
30
0
10
9.9999999999996998
20
2.6818000000004227
30
0
10
9.9999999999999005
20
2.9306000000001484
30
0
10
10
20
3.0549999999999997
30
0
0
SPLINE
5
102
100
AcDbEntity
8
0
100
AcDbSpline
70
4
71
5
72
16
73
10
74
0
42
0.000000001
43
0.0000000001
44
0.0000000001
40
0
40
0
40
0
40
0
40
0
40
0
40
0.20000000000000001
40
0.40000000000000002
40
0.60000000000000009
40
0.80000000000000004
40
1
40
1
40
1
40
1
40
1
40
1
41
1
41
1
41
1
41
1
41
1
41
1
41
1
41
1
41
1
41
1
10
0
20
1.5274999999999999
30
0
10
0.40000000000047375
20
1.5274999999999856
30
0
10
1.2000000000012774
20
1.5274999999999614
30
0
10
2.4000000000020547
20
1.527499999999943
30
0
10
4.0000000000023546
20
1.5274999999999479
30
0
10
6.0000000000019584
20
1.5274999999999812
30
0
10
7.6000000000012928
20
1.5275000000000025
30
0
10
8.800000000000697
20
1.5275000000000083
30
0
10
9.6000000000002395
20
1.5275000000000039
30
0
10
10
20
1.5274999999999999
30
0
0
SPLINE
5
103
100
AcDbEntity
8
0
100
AcDbSpline
70
4
71
5
72
111
73
105
74
0
42
0.000000001
43
0.0000000001
44
0.0000000001
40
0
40
0
40
0
40
0
40
0
40
0
40
0.01
40
0.02
40
0.029999999999999999
40
0.040000000000000001
40
0.050000000000000003
40
0.060000000000000005
40
0.070000000000000007
40
0.080000000000000002
40
0.089999999999999997
40
0.099999999999999992
40
0.10999999999999999
40
0.11999999999999998
40
0.12999999999999998
40
0.13999999999999999
40
0.14999999999999999
40
0.16
40
0.17000000000000001
40
0.18000000000000002
40
0.19000000000000003
40
0.20000000000000004
40
0.21000000000000005
40
0.22000000000000006
40
0.23000000000000007
40
0.24000000000000007
40
0.25000000000000006
40
0.26000000000000006
40
0.27000000000000007
40
0.28000000000000008
40
0.29000000000000009
40
0.3000000000000001
40
0.31000000000000011
40
0.32000000000000012
40
0.33000000000000013
40
0.34000000000000014
40
0.35000000000000014
40
0.36000000000000015
40
0.37000000000000016
40
0.38000000000000017
40
0.39000000000000018
40
0.40000000000000019
40
0.4100000000000002
40
0.42000000000000021
40
0.43000000000000022
40
0.44000000000000022
40
0.45000000000000023
40
0.46000000000000024
40
0.47000000000000025
40
0.48000000000000026
40
0.49000000000000027
40
0.50000000000000022
40
0.51000000000000023
40
0.52000000000000024
40
0.53000000000000025
40
0.54000000000000026
40
0.55000000000000027
40
0.56000000000000028
40
0.57000000000000028
40
0.58000000000000029
40
0.5900000000000003
40
0.60000000000000031
40
0.61000000000000032
40
0.62000000000000033
40
0.63000000000000034
40
0.64000000000000035
40
0.65000000000000036
40
0.66000000000000036
40
0.67000000000000037
40
0.68000000000000038
40
0.69000000000000039
40
0.7000000000000004
40
0.71000000000000041
40
0.72000000000000042
40
0.73000000000000043
40
0.74000000000000044
40
0.75000000000000044
40
0.76000000000000045
40
0.77000000000000046
40
0.78000000000000047
40
0.79000000000000048
40
0.80000000000000049
40
0.8100000000000005
40
0.82000000000000051
40
0.83000000000000052
40
0.84000000000000052
40
0.85000000000000053
40
0.86000000000000054
40
0.87000000000000055
40
0.88000000000000056
40
0.89000000000000057
40
0.90000000000000058
40
0.91000000000000059
40
0.9200000000000006
40
0.9300000000000006
40
0.94000000000000061
40
0.95000000000000062
40
0.96000000000000063
40
0.97000000000000064
40
0.98000000000000065
40
0.99000000000000066
40
1
40
1
40
1
40
1
40
1
40
1
41
1
41
1
41
1
41
1
41
1
41
1
41
1
41
1
41
1
41
1
41
1
41
1
41
1
41
1
41
1
41
1
41
1
41
1
41
1
41
1
41
1
41
1
41
1
41
1
41
1
41
1
41
1
41
1
41
1
41
1
41
1
41
1
41
1
41
1
41
1
41
1
41
1
41
1
41
1
41
1
41
1
41
1
41
1
41
1
41
1
41
1
41
1
41
1
41
1
41
1
41
1
41
1
41
1
41
1
41
1
41
1
41
1
41
1
41
1
41
1
41
1
41
1
41
1
41
1
41
1
41
1
41
1
41
1
41
1
41
1
41
1
41
1
41
1
41
1
41
1
41
1
41
1
41
1
41
1
41
1
41
1
41
1
41
1
41
1
41
1
41
1
41
1
41
1
41
1
41
1
41
1
41
1
41
1
41
1
41
1
41
1
41
1
41
1
41
1
41
1
41
1
41
1
41
1
41
1
41
1
10
0
20
-0.055000000000000049
30
0
10
0.018118429714621957
20
-0.013293364859408947
30
0
10
0.054475762549948618
20
0.064817388387957406
30
0
10
0.10937317796293076
20
0.16607623698470267
30
0
10
0.18329271703605418
20
0.26926595277859522
30
0
10
0.27688550152504143
20
0.34610985718392245
30
0
10
0.37163627389282816
20
0.37349994096143446
30
0
10
0.4674722346177218
20
0.35693187769605195
30
0
10
0.56427368966577729
20
0.30543875541772431
30
0
10
0.66185411796748617
20
0.233018702024268
30
0
10
0.75998892720507771
20
0.15681079966034778
30
0
10
0.85846573317301511
20
0.093799997361438958
30
0
10
0.95713144197540634
20
0.057802395732685856
30
0
10
1.0559327279391459
20
0.056740023331885651
30
0
10
1.154979113679516
20
0.088778654270650181
30
0
10
1.2545116904675278
20
0.14330184389509493
30
0
10
1.3548033902282768
20
0.20546467760601342
30
0
10
1.4560738069596091
20
0.25988456572812124
30
0
10
1.5584098649576617
20
0.29428597400435774
30
0
10
1.6616545645443397
20
0.30415690938601697
30
0
10
1.7654370104193742
20
0.29265473444329776
30
0
10
1.8693051987599225
20
0.2669893814644077
30
0
10
1.9728336625674956
20
0.23572742690169332
30
0
10
2.0757303979460682
20
0.2059725714686898
30
0
10
2.1779724084257848
20
0.17994995768801014
30
0
10
2.2797539161786222
20
0.15586882602581312
30
0
10
2.381370174277921
20
0.13027656781220562
30
0
10
2.4831196896625691
20
0.099984860708969267
30
0
10
2.5852055551342761
20
0.06401959805486071
30
0
10
2.6876193598446916
20
0.025967337775647647
30
0
10
2.7901961762736978
20
-0.0075818916074747974
30
0
10
2.8927016249170734
20
-0.029321003481967728
30
0
10
2.9949084051687009
20
-0.033279582461874922
30
0
10
3.0966755517023135
20
-0.016923189809936019
30
0
10
3.1980311599496858
20
0.016621632781118452
30
0
10
3.2991292278765618
20
0.060279488160771
30
0
10
3.400199971821896
20
0.10494015731588985
30
0
10
3.5015026050398825
20
0.14129411440834766
30
0
10
3.6032771030476693
20
0.16170689180250555
30
0
10
3.7056964526404013
20
0.16205937321177924
30
0
10
3.8088434919338914
20
0.14167781033347876
30
0
10
3.9126858226296442
20
0.10332487769825387
30
0
10
4.017054538767149
20
0.053102017713743462
30
0
10
4.1216138637413104
20
0.00055074204151065375
30
0
10
4.2258562871606316
20
-0.041794499369036495
30
0
10
4.3292290346724407
20
-0.061600692410444705
30
0
10
4.4312499786308157
20
-0.049759607221969572
30
0
10
4.5316163095556616
20
-0.0031407995905173239
30
0
10
4.6303433002494883
20
0.071735189423203394
30
0
10
4.7278024405769727
20
0.15803114891711381
30
0
10
4.8245303468422946
20
0.23475136798076415
30
0
10
4.9210798145130248
20
0.28164667698156587
30
0
10
5.0178628111540169
20
0.28435956502610693
30
0
10
5.1149763645940949
20
0.24007960964426991
30
0
10
5.2120973780105135
20
0.16114834022417399
30
0
10
5.3087198649796079
20
0.068485420697132593
30
0
10
5.4043447425257529
20
-0.013581841546168353
30
0
10
5.4986893230364817
20
-0.063051588202673647
30
0
10
5.5918856153974241
20
-0.065696022532633069
30
0
10
5.6846914354283342
20
-0.020759735488838284
30
0
10
5.7781873995733477
20
0.062586739564265095
30
0
10
5.8734756104549577
20
0.16886442529952569
30
0
10
5.9713604154353384
20
0.27996934690445463
30
0
10
6.0720761501198517
20
0.37860649194349949
30
0
10
6.1748933555897603
20
0.45239074324510165
30
0
10
6.278374833788682
20
0.49431733495691221
30
0
10
6.3808642111111187
20
0.50186926213204042
30
0
10
6.4809149433896831
20
0.47658880726698655
30
0
10
6.5777069071154148
20
0.42342342160404833
30
0
10
6.6715653302210596
20
0.350261170717308
30
0
10
6.7636948674195381
20
0.26671419355131487
30
0
10
6.8557320398721311
20
0.18278039868845103
30
0
10
6.9493423013995983
20
0.10748335744016216
30
0
10
7.0458388291068141
20
0.047661439561464083
30
0
10
7.1456929150990209
20
0.0063473490948511135
30
0
10
7.2484702223986055
20
-0.017355736237731866
30
0
10
7.3532309066641783
20
-0.026781480743993835
30
0
10
7.4588187707742986
20
-0.026603950151849201
30
0
10
7.5641684785525971
20
-0.021652909510528423
30
0
10
7.6686721217278633
20
-0.015587804000974259
30
0
10
7.7722086788276084
20
-0.010472096354020216
30
0
10
7.8749535701786542
20
-0.0069638569278108273
30
0
10
7.9772519187479576
20
-0.0042930014605985145
30
0
10
8.0794729522875954
20
-0.00038105868413032675
30
0
10
8.1818535709544964
20
0.0082431587409166271
30
0
10
8.2844827814448792
20
0.025435915999136992
30
0
10
8.3873281223961591
20
0.054165996170373654
30
0
10
8.490247049096288
20
0.095293791773449613
30
0
10
8.5930058288629159
20
0.14641107255078534
30
0
10
8.6952917357914714
20
0.20042970322698819
30
0
10
8.7967786957470224
20
0.24761526862629846
30
0
10
8.897197128213433
20
0.27794652143946336
30
0
10
8.9964030820328063
20
0.2833771347011802
30
0
10
9.0944460568629086
20
0.26009410541874989
30
0
10
9.1916420752921226
20
0.21090349445306078
30
0
10
9.2884912615674562
20
0.14339028302359638
30
0
10
9.3855906853647113
20
0.067940798774136224
30
0
10
9.4835470362027401
20
-0.004224816339803897
30
0
10
9.582893933749661
20
-0.062925661945729461
30
0
10
9.6839952811778236
20
-0.10119088744577752
30
0
10
9.7870658442888185
20
-0.11490772525703324
30
0
10
9.8711837424789159
20
-0.10458833143191348
30
0
10
9.9352223845789673
20
-0.084569169943936581
30
0
10
9.9783370837932388
20
-0.065765899971421862
30
0
10
10
20
-0.055000000000000049
30
0
0
SPLINE
5
104
100
AcDbEntity
8
0
100
AcDbSpline
70
4
71
5
72
111
73
105
74
0
42
0.000000001
43
0.0000000001
44
0.0000000001
40
0
40
0
40
0
40
0
40
0
40
0
40
0.01
40
0.02
40
0.029999999999999999
40
0.040000000000000001
40
0.050000000000000003
40
0.060000000000000005
40
0.070000000000000007
40
0.080000000000000002
40
0.089999999999999997
40
0.099999999999999992
40
0.10999999999999999
40
0.11999999999999998
40
0.12999999999999998
40
0.13999999999999999
40
0.14999999999999999
40
0.16
40
0.17000000000000001
40
0.18000000000000002
40
0.19000000000000003
40
0.20000000000000004
40
0.21000000000000005
40
0.22000000000000006
40
0.23000000000000007
40
0.24000000000000007
40
0.25000000000000006
40
0.26000000000000006
40
0.27000000000000007
40
0.28000000000000008
40
0.29000000000000009
40
0.3000000000000001
40
0.31000000000000011
40
0.32000000000000012
40
0.33000000000000013
40
0.34000000000000014
40
0.35000000000000014
40
0.36000000000000015
40
0.37000000000000016
40
0.38000000000000017
40
0.39000000000000018
40
0.40000000000000019
40
0.4100000000000002
40
0.42000000000000021
40
0.43000000000000022
40
0.44000000000000022
40
0.45000000000000023
40
0.46000000000000024
40
0.47000000000000025
40
0.48000000000000026
40
0.49000000000000027
40
0.50000000000000022
40
0.51000000000000023
40
0.52000000000000024
40
0.53000000000000025
40
0.54000000000000026
40
0.55000000000000027
40
0.56000000000000028
40
0.57000000000000028
40
0.58000000000000029
40
0.5900000000000003
40
0.60000000000000031
40
0.61000000000000032
40
0.62000000000000033
40
0.63000000000000034
40
0.64000000000000035
40
0.65000000000000036
40
0.66000000000000036
40
0.67000000000000037
40
0.68000000000000038
40
0.69000000000000039
40
0.7000000000000004
40
0.71000000000000041
40
0.72000000000000042
40
0.73000000000000043
40
0.74000000000000044
40
0.75000000000000044
40
0.76000000000000045
40
0.77000000000000046
40
0.78000000000000047
40
0.79000000000000048
40
0.80000000000000049
40
0.8100000000000005
40
0.82000000000000051
40
0.83000000000000052
40
0.84000000000000052
40
0.85000000000000053
40
0.86000000000000054
40
0.87000000000000055
40
0.88000000000000056
40
0.89000000000000057
40
0.90000000000000058
40
0.91000000000000059
40
0.9200000000000006
40
0.9300000000000006
40
0.94000000000000061
40
0.95000000000000062
40
0.96000000000000063
40
0.97000000000000064
40
0.98000000000000065
40
0.99000000000000066
40
1
40
1
40
1
40
1
40
1
40
1
41
1
41
1
41
1
41
1
41
1
41
1
41
1
41
1
41
1
41
1
41
1
41
1
41
1
41
1
41
1
41
1
41
1
41
1
41
1
41
1
41
1
41
1
41
1
41
1
41
1
41
1
41
1
41
1
41
1
41
1
41
1
41
1
41
1
41
1
41
1
41
1
41
1
41
1
41
1
41
1
41
1
41
1
41
1
41
1
41
1
41
1
41
1
41
1
41
1
41
1
41
1
41
1
41
1
41
1
41
1
41
1
41
1
41
1
41
1
41
1
41
1
41
1
41
1
41
1
41
1
41
1
41
1
41
1
41
1
41
1
41
1
41
1
41
1
41
1
41
1
41
1
41
1
41
1
41
1
41
1
41
1
41
1
41
1
41
1
41
1
41
1
41
1
41
1
41
1
41
1
41
1
41
1
41
1
41
1
41
1
41
1
41
1
41
1
41
1
41
1
41
1
41
1
41
1
41
1
41
1
10
0
20
3.0549999999999997
30
0
10
0.021627961321098139
20
3.0734404771123724
30
0
10
0.064671369902202555
20
3.1057719218450748
30
0
10
0.1285989437662704
20
3.1406203377864994
30
0
10
0.21256039581767094
20
3.1597848755208973
30
0
10
0.31538247854289886
20
3.1394033673886286
30
0
10
0.41606376126625899
20
3.0782542662404806
30
0
10
0.51458456851140189
20
2.9834485872837258
30
0
10
0.61091150089731472
20
2.8670110406823257
30
0
10
0.7050019365180128
20
2.7465854911327652
30
0
10
0.79687505117678126
20
2.6417136323577384
30
0
10
0.88667262577655115
20
2.57068933855308
30
0
10
0.9747298610148476
20
2.547010411990775
30
0
10
1.0616282789112639
20
2.5764138019046934
30
0
10
1.148291647481309
20
2.6525962672511132
30
0
10
1.2358616085521854
20
2.7595901056938326
30
0
10
1.3254887202780374
20
2.8767163610902964
30
0
10
1.4181466779039682
20
2.9827769012204519
30
0
10
1.5144462718674778
20
3.0603899743477836
30
0
10
1.6144267429613883
20
3.1006751006297151
30
0
10
1.7174229326120336
20
3.1065832108340103
30
0
10
1.8223697723376437
20
3.0882091752867895
30
0
10
1.9280634749182766
20
3.0589310360248803
30
0
10
2.0334211240735605
20
3.0315052063358388
30
0
10
2.1377841228674921
20
3.0135339027184314
30
0
10
2.2410616516090047
20
3.005317188423779
30
0
10
2.3435100199108176
20
3.0031365008963484
30
0
10
2.4455805387014209
20
3.0015469206630345
30
0
10
2.5477523823644139
20
2.9958152746042845
30
0
10
2.6503424638895803
20
2.9848965432302399
30
0
10
2.7534369271678911
20
2.9719105926650649
30
0
10
2.8569701747181386
20
2.961699497205303
30
0
10
2.9607654463621675
20
2.9590523037031113
30
0
10
3.0645898836365335
20
2.9668773837883489
30
0
10
3.1682061105071928
20
2.983850163838631
30
0
10
3.2714115794662373
20
3.0048795286008358
30
0
10
3.3740660001656853
20
3.0232661192779533
30
0
10
3.4761253123810865
20
3.0324023719762767
30
0
10
3.5776669633015619
20
3.0275245167696978
30
0
10
3.6789344885911217
20
3.0077967955456848
30
0
10
3.7802690559432062
20
2.9758394765634675
30
0
10
3.8820100889954361
20
2.9364870756453696
30
0
10
3.9844028453251292
20
2.8957973401849557
30
0
10
4.087510756665659
20
2.8599804945353515
30
0
10
4.1911053053889189
20
2.8342993130825174
30
0
10
4.2947690383074164
20
2.8226199969004573
30
0
10
4.3980340691126578
20
2.8270810595719427
30
0
10
4.5005079756920416
20
2.8477196955360355
30
0
10
4.6020052360035315
20
2.8821132668568223
30
0
10
4.7026758440706775
20
2.9250163655344208
30
0
10
4.8028870685160854
20
2.9695720864645474
30
0
10
4.9031050400473788
20
3.008521508518009
30
0
10
5.0037773846927731
20
3.0354053481651184
30
0
10
5.105213418978285
20
3.0457879080823829
30
0
10
5.2074709383465692
20
3.0384200367346974
30
0
10
5.3104208701901836
20
3.0146905136895379
30
0
10
5.4138061426563731
20
2.978142461034631
30
0
10
5.5173020072350232
20
2.9339552775219788
30
0
10
5.6205771283686161
20
2.8884695372930231
30
0
10
5.7233499207801195
20
2.8486154008407953
30
0
10
5.825413778524446
20
2.8209009455725638
30
0
10
5.92666850237649
20
2.8104172788230626
30
0
10
6.0271447931096223
20
2.8199126773060752
30
0
10
6.1270426353228
20
2.8486557041087819
30
0
10
6.2267295685326287
20
2.8919584688664219
30
0
10
6.3266289302515446
20
2.9425881474157265
30
0
10
6.4271247455120362
20
2.9918410356860163
30
0
10
6.5284667688508531
20
3.03073794808427
30
0
10
6.630659396071823
20
3.0511933372917706
30
0
10
6.7334085898774996
20
3.0471073945291494
30
0
10
6.8362274048388469
20
3.0150875469749074
30
0
10
6.938511987823162
20
2.9553318762874081
30
0
10
7.0396284540797964
20
2.8722640194562841
30
0
10
7.1389968546122082
20
2.7757245187535071
30
0
10
7.2361699794322192
20
2.6803641628850028
30
0
10
7.3308973176466967
20
2.6022109566414695
30
0
10
7.4231954926802954
20
2.5558433838993597
30
0
10
7.5134104319988033
20
2.5514317447653641
30
0
10
7.6022970196767989
20
2.5915674931103676
30
0
10
7.691050665843763
20
2.6689661045881836
30
0
10
7.7810238276590047
20
2.770115499152126
30
0
10
7.8734851173679861
20
2.8782001238572437
30
0
10
7.9693466200440222
20
2.9764115435782461
30
0
10
8.0689398371279619
20
3.0508417648406527
30
0
10
8.1716804861308621
20
3.094199781627891
30
0
10
8.2762836782891149
20
3.1055653075551168
30
0
10
8.3812009063752839
20
3.0885180725689931
30
0
10
8.484996539323209
20
3.0497782142823091
30
0
10
8.5867245289487499
20
2.9976685904934248
30
0
10
8.6863708317528197
20
2.9405700417136575
30
0
10
8.784620976953267
20
2.8862404836576494
30
0
10
8.8825174843832606
20
2.8413148894703344
30
0
10
8.9811473597427209
20
2.8107144103792385
30
0
10
9.0813373632513628
20
2.797150541183802
30
0
10
9.1832927467095331
20
2.8004361317424382
30
0
10
9.2867027755610785
20
2.8181351403406083
30
0
10
9.3909470386941258
20
2.8464909482627139
30
0
10
9.4952679375286522
20
2.8812639481218101
30
0
10
9.5989544152657604
20
2.9185928662898157
30
0
10
9.7015285439956322
20
2.9558834806297392
30
0
10
9.8027058026410359
20
2.991587825429169
30
0
10
9.8824163329220607
20
3.0182618657307896
30
0
10
9.9414856391156405
20
3.037089122135606
30
0
10
9.9805480645821163
20
3.0491169797191855
30
0
10
10
20
3.0549999999999997
30
0
0
ENDSEC
0
SECTION
2
OBJECTS
0
DICTIONARY
5
C
100
AcDbDictionary
3
ACAD_GROUP
350
D
3
ACAD_MLINESTYLE
350
17
0
DICTIONARY
5
D
100
AcDbDictionary
0
DICTIONARY
5
1A
330
C
100
AcDbDictionary
0
DICTIONARY
5
17
100
AcDbDictionary
0
ENDSEC
0
EOF
