0
SECTION
2
HEADER
9
$INSUNITS
70
4
9
$ACADVER
1
AC1014
9
$HANDSEED
5
FFFF
0
ENDSEC
0
SECTION
2
TABLES
0
TABLE
2
VPORT
5
8
100
AcDbSymbolTable
0
ENDTAB
0
TABLE
2
LTYPE
5
5
100
AcDbSymbolTable
0
LTYPE
5
14
100
AcDbSymbolTableRecord
100
AcDbLinetypeTableRecord
2
BYBLOCK
70
0
0
LTYPE
5
15
100
AcDbSymbolTableRecord
100
AcDbLinetypeTableRecord
2
BYLAYER
70
0
0
ENDTAB
0
TABLE
2
LAYER
5
2
100
AcDbSymbolTable
70
2
0
LAYER
5
50
100
AcDbSymbolTableRecord
100
AcDbLayerTableRecord
2
0
70
0
6
CONTINUOUS
0
ENDTAB
0
TABLE
2
STYLE
5
3
100
AcDbSymbolTable
70
1
0
STYLE
5
11
100
AcDbSymbolTableRecord
100
AcDbTextStyleTableRecord
2
STANDARD
70
0
0
ENDTAB
0
TABLE
2
VIEW
5
6
100
AcDbSymbolTable
70
0
0
ENDTAB
0
TABLE
2
UCS
5
7
100
AcDbSymbolTable
70
0
0
ENDTAB
0
TABLE
2
APPID
5
9
100
AcDbSymbolTable
70
2
0
APPID
5
12
100
AcDbSymbolTableRecord
100
AcDbRegAppTableRecord
2
ACAD
70
0
0
ENDTAB
0
TABLE
2
DIMSTYLE
5
A
100
AcDbSymbolTable
70
1
0
ENDTAB
0
TABLE
2
BLOCK_RECORD
5
1
100
AcDbSymbolTable
70
1
0
BLOCK_RECORD
5
1F
100
AcDbSymbolTableRecord
100
AcDbBlockTableRecord
2
*MODEL_SPACE
0
BLOCK_RECORD
5
1B
100
AcDbSymbolTableRecord
100
AcDbBlockTableRecord
2
*PAPER_SPACE
0
ENDTAB
0
ENDSEC
0
SECTION
2
BLOCKS
0
BLOCK
5
20
100
AcDbEntity
100
AcDbBlockBegin
2
*MODEL_SPACE
0
ENDBLK
5
21
100
AcDbEntity
100
AcDbBlockEnd
0
BLOCK
5
1C
100
AcDbEntity
100
AcDbBlockBegin
2
*PAPER_SPACE
0
ENDBLK
5
1D
100
AcDbEntity
100
AcDbBlockEnd
0
ENDSEC
0
SECTION
2
ENTITIES
0
SPLINE
5
100
100
AcDbEntity
8
0
100
AcDbSpline
70
4
71
5
72
16
73
10
74
0
42
0.000000001
43
0.0000000001
44
0.0000000001
40
0
40
0
40
0
40
0
40
0
40
0
40
0.20000000000000001
40
0.40000000000000002
40
0.60000000000000009
40
0.80000000000000004
40
1
40
1
40
1
40
1
40
1
40
1
41
1
41
1
41
1
41
1
41
1
41
1
41
1
41
1
41
1
41
1
10
0
20
-0.055000000000000049
30
0
10
0
20
0.069400000000207365
30
0
10
0
20
0.31820000000056603
30
0
10
0
20
0.69140000000093593
30
0
10
0
20
1.1890000000011365
30
0
10
0
20
1.8110000000010393
30
0
10
0
20
2.3086000000007481
30
0
10
0
20
2.6818000000004227
30
0
10
0
20
2.9306000000001484
30
0
10
0
20
3.0549999999999997
30
0
0
SPLINE
5
101
100
AcDbEntity
8
0
100
AcDbSpline
70
4
71
5
72
16
73
10
74
0
42
0.000000001
43
0.0000000001
44
0.0000000001
40
0
40
0
40
0
40
0
40
0
40
0
40
0.20000000000000001
40
0.40000000000000002
40
0.60000000000000009
40
0.80000000000000004
40
1
40
1
40
1
40
1
40
1
40
1
41
1
41
1
41
1
41
1
41
1
41
1
41
1
41
1
41
1
41
1
10
10
20
-0.055000000000000049
30
0
10
9.9999999999997495
20
0.069400000000207365
30
0
10
9.9999999999993197
20
0.31820000000056603
30
0
10
9.9999999999989129
20
0.69140000000093593
30
0
10
9.9999999999987672
20
1.1890000000011365
30
0
10
9.9999999999990248
20
1.8110000000010393
30
0
10
9.9999999999993889
20
2.3086000000007481
30
0
10
9.9999999999996998
20
2.6818000000004227
30
0
10
9.9999999999999005
20
2.9306000000001484
30
0
10
10
20
3.0549999999999997
30
0
0
SPLINE
5
102
100
AcDbEntity
8
0
100
AcDbSpline
70
4
71
5
72
16
73
10
74
0
42
0.000000001
43
0.0000000001
44
0.0000000001
40
0
40
0
40
0
40
0
40
0
40
0
40
0.20000000000000001
40
0.40000000000000002
40
0.60000000000000009
40
0.80000000000000004
40
1
40
1
40
1
40
1
40
1
40
1
41
1
41
1
41
1
41
1
41
1
41
1
41
1
41
1
41
1
41
1
10
0
20
1.5274999999999999
30
0
10
0.40000000000047375
20
1.5274999999999856
30
0
10
1.2000000000012774
20
1.5274999999999614
30
0
10
2.4000000000020547
20
1.527499999999943
30
0
10
4.0000000000023546
20
1.5274999999999479
30
0
10
6.0000000000019584
20
1.5274999999999812
30
0
10
7.6000000000012928
20
1.5275000000000025
30
0
10
8.800000000000697
20
1.5275000000000083
30
0
10
9.6000000000002395
20
1.5275000000000039
30
0
10
10
20
1.5274999999999999
30
0
0
SPLINE
5
103
100
AcDbEntity
8
0
100
AcDbSpline
70
4
71
5
72
61
73
55
74
0
42
0.000000001
43
0.0000000001
44
0.0000000001
40
0
40
0
40
0
40
0
40
0
40
0
40
0.02
40
0.040000000000000001
40
0.059999999999999998
40
0.080000000000000002
40
0.10000000000000001
40
0.12000000000000001
40
0.14000000000000001
40
0.16
40
0.17999999999999999
40
0.19999999999999998
40
0.21999999999999997
40
0.23999999999999996
40
0.25999999999999995
40
0.27999999999999997
40
0.29999999999999999
40
0.32000000000000001
40
0.34000000000000002
40
0.36000000000000004
40
0.38000000000000006
40
0.40000000000000008
40
0.4200000000000001
40
0.44000000000000011
40
0.46000000000000013
40
0.48000000000000015
40
0.50000000000000011
40
0.52000000000000013
40
0.54000000000000015
40
0.56000000000000016
40
0.58000000000000018
40
0.6000000000000002
40
0.62000000000000022
40
0.64000000000000024
40
0.66000000000000025
40
0.68000000000000027
40
0.70000000000000029
40
0.72000000000000031
40
0.74000000000000032
40
0.76000000000000034
40
0.78000000000000036
40
0.80000000000000038
40
0.8200000000000004
40
0.84000000000000041
40
0.86000000000000043
40
0.88000000000000045
40
0.90000000000000047
40
0.92000000000000048
40
0.9400000000000005
40
0.96000000000000052
40
0.98000000000000054
40
1
40
1
40
1
40
1
40
1
40
1
41
1
41
1
41
1
41
1
41
1
41
1
41
1
41
1
41
1
41
1
41
1
41
1
41
1
41
1
41
1
41
1
41
1
41
1
41
1
41
1
41
1
41
1
41
1
41
1
41
1
41
1
41
1
41
1
41
1
41
1
41
1
41
1
41
1
41
1
41
1
41
1
41
1
41
1
41
1
41
1
41
1
41
1
41
1
41
1
41
1
41
1
41
1
41
1
41
1
41
1
41
1
41
1
41
1
41
1
41
1
10
0
20
-0.055000000000000049
30
0
10
0.040856699719816758
20
-0.057664267332971531
30
0
10
0.12253838662931878
20
-0.061890186171521568
30
0
10
0.24496578008368006
20
-0.064921207321187696
30
0
10
0.40801190103610308
20
-0.062342627829452053
30
0
10
0.6115018363873399
20
-0.048260418970190976
30
0
10
0.81467406329395586
20
-0.02388723981457639
30
0
10
1.0175297316581868
20
0.0096097681069593436
30
0
10
1.220071190639008
20
0.050247259719241176
30
0
10
1.4223039656497756
20
0.0950358805882556
30
0
10
1.6242576135455891
20
0.14016329052469831
30
0
10
1.8260065190632924
20
0.18113438228705589
30
0
10
2.0276883976255915
20
0.21295560039178674
30
0
10
2.2295295927584742
20
0.23022975225500319
30
0
10
2.4318512855403291
20
0.22748754789482181
30
0
10
2.6349529656883872
20
0.2009377228132862
30
0
10
2.8390042826325175
20
0.15016991992593476
30
0
10
3.0439426779284133
20
0.079683319497307364
30
0
10
3.2493461567472859
20
0.00097378599783097975
30
0
10
3.4543823179095208
20
-0.067033221493304637
30
0
10
3.6580505894169182
20
-0.10377148146682338
30
0
10
3.85938599937182
20
-0.092092657942511424
30
0
10
4.0576641144464194
20
-0.023155202057860858
30
0
10
4.2526388811299229
20
0.097500217675789952
30
0
10
4.4446618510021807
20
0.24786672395731257
30
0
10
4.634485199442671
20
0.39787159516135617
30
0
10
4.823125726405145
20
0.51580500107974792
30
0
10
5.0117063597440534
20
0.57542435165706807
30
0
10
5.2013058330571473
20
0.56300713277200054
30
0
10
5.3928102124834121
20
0.48381118927320699
30
0
10
5.5868647665320337
20
0.35600666434639577
30
0
10
5.7838204837830727
20
0.2053504291828892
30
0
10
5.9836794521043046
20
0.059548431240860025
30
0
10
6.1860452130432471
20
-0.057109286770119609
30
0
10
6.3900550158313916
20
-0.12958362378311636
30
0
10
6.5945869411588891
20
-0.15143600402137536
30
0
10
6.7984879812378978
20
-0.12370165330302196
30
0
10
7.0007942529224181
20
-0.053956418422198768
30
0
10
7.200954965933569
20
0.044678546327850746
30
0
10
7.3990555243051617
20
0.15448637219158162
30
0
10
7.5956238205720483
20
0.25612587041939294
30
0
10
7.7914386755504719
20
0.33156861723592579
30
0
10
7.9873364000383686
20
0.36709463296969214
30
0
10
8.1840229875790769
20
0.35617208784227866
30
0
10
8.3818715560885053
20
0.30267875711854675
30
0
10
8.5809907571627502
20
0.21805493842569582
30
0
10
8.781309006043422
20
0.11811552344135821
30
0
10
8.9826532629199782
20
0.019961580895983502
30
0
10
9.1848277610844455
20
-0.061054317623540924
30
0
10
9.3876978996552545
20
-0.11462739645153271
30
0
10
9.5911831593339905
20
-0.13468865608307792
30
0
10
9.7544303080665618
20
-0.12153343171223446
30
0
10
9.8771173491488007
20
-0.094815942754994262
30
0
10
9.959020486615902
20
-0.069519441012207681
30
0
10
10
20
-0.055000000000000049
30
0
0
SPLINE
5
104
100
AcDbEntity
8
0
100
AcDbSpline
70
4
71
5
72
61
73
55
74
0
42
0.000000001
43
0.0000000001
44
0.0000000001
40
0
40
0
40
0
40
0
40
0
40
0
40
0.02
40
0.040000000000000001
40
0.059999999999999998
40
0.080000000000000002
40
0.10000000000000001
40
0.12000000000000001
40
0.14000000000000001
40
0.16
40
0.17999999999999999
40
0.19999999999999998
40
0.21999999999999997
40
0.23999999999999996
40
0.25999999999999995
40
0.27999999999999997
40
0.29999999999999999
40
0.32000000000000001
40
0.34000000000000002
40
0.36000000000000004
40
0.38000000000000006
40
0.40000000000000008
40
0.4200000000000001
40
0.44000000000000011
40
0.46000000000000013
40
0.48000000000000015
40
0.50000000000000011
40
0.52000000000000013
40
0.54000000000000015
40
0.56000000000000016
40
0.58000000000000018
40
0.6000000000000002
40
0.62000000000000022
40
0.64000000000000024
40
0.66000000000000025
40
0.68000000000000027
40
0.70000000000000029
40
0.72000000000000031
40
0.74000000000000032
40
0.76000000000000034
40
0.78000000000000036
40
0.80000000000000038
40
0.8200000000000004
40
0.84000000000000041
40
0.86000000000000043
40
0.88000000000000045
40
0.90000000000000047
40
0.92000000000000048
40
0.9400000000000005
40
0.96000000000000052
40
0.98000000000000054
40
1
40
1
40
1
40
1
40
1
40
1
41
1
41
1
41
1
41
1
41
1
41
1
41
1
41
1
41
1
41
1
41
1
41
1
41
1
41
1
41
1
41
1
41
1
41
1
41
1
41
1
41
1
41
1
41
1
41
1
41
1
41
1
41
1
41
1
41
1
41
1
41
1
41
1
41
1
41
1
41
1
41
1
41
1
41
1
41
1
41
1
41
1
41
1
41
1
41
1
41
1
41
1
41
1
41
1
41
1
41
1
41
1
41
1
41
1
41
1
41
1
10
0
20
3.0549999999999997
30
0
10
0.039950623067796814
20
3.0401100638323464
30
0
10
0.1199073389676808
20
3.0121103544500998
30
0
10
0.24000882281583144
20
2.9754513013429502
30
0
10
0.40047716535528549
20
2.9372603537589494
30
0
10
0.6016052724722003
20
2.9069380624399725
30
0
10
0.80323662185974765
20
2.8927680333918184
30
0
10
1.0052908164202143
20
2.8921729554679478
30
0
10
1.2076317647232095
20
2.9007903665932586
30
0
10
1.4100548122917593
20
2.9120591539222436
30
0
10
1.6123453638297656
20
2.9190701040807072
30
0
10
1.814336902134146
20
2.9163944864992186
30
0
10
2.0159671984696752
20
2.9018618351175536
30
0
10
2.2173404507542132
20
2.8785098565964344
30
0
10
2.4187734058348349
20
2.856069561986426
30
0
10
2.6206419287222058
20
2.8466345656167475
30
0
10
2.8232372418841489
20
2.8606182647083314
30
0
10
3.0266252081697385
20
2.9027900513975431
30
0
10
3.2304878664319805
20
2.9678226733223805
30
0
10
3.4340180204796105
20
3.0373120072097648
30
0
10
3.6361944900752907
20
3.0873346511669526
30
0
10
3.8360230746712065
20
3.095073640281329
30
0
10
4.0327803763922372
20
3.0454828802208347
30
0
10
4.2262809803326213
20
2.9386959997123081
30
0
10
4.417064575920052
20
2.7949362896995278
30
0
10
4.6061214417716929
20
2.6450503429643488
30
0
10
4.7946772983850918
20
2.522907075732955
30
0
10
4.9839530291531986
20
2.4569420587847381
30
0
10
5.1749422227787631
20
2.4623958029656285
30
0
10
5.3681620114381552
20
2.5323135383542366
30
0
10
5.5637338415513247
20
2.6444363768540908
30
0
10
5.7614889433162029
20
2.7692090121606898
30
0
10
5.9610654307264186
20
2.8776099719817938
30
0
10
6.1620051034160603
20
2.9484829728479536
30
0
10
6.3638581927838693
20
2.9775785365149057
30
0
10
6.5662176567039854
20
2.973987622135601
30
0
10
6.7687367472365807
20
2.9538207462738781
30
0
10
6.9711534362182457
20
2.9347232219657151
30
0
10
7.1733099940149287
20
2.930352319355134
30
0
10
7.3751806522599628
20
2.9440643940252134
30
0
10
7.5768366618217087
20
2.9712509429710474
30
0
10
7.7784024230539615
20
3.0030172786605798
30
0
10
7.9800142441213708
20
3.0294266587527776
30
0
10
8.1817795889979372
20
3.0427989184707824
30
0
10
8.3837319967318962
20
3.041317191698715
30
0
10
8.5858468387234161
20
3.0277527688881301
30
0
10
8.7880631802635243
20
3.0076908428130267
30
0
10
8.9903034729089235
20
2.9879336347846803
30
0
10
9.1924937775635378
20
2.9748598006393161
30
0
10
9.394584617981673
20
2.9727315738303037
30
0
10
9.5965467460257479
20
2.9840654448138642
30
0
10
9.758001916322101
20
3.0048940118523082
30
0
10
9.8790268008521966
20
3.027307341913378
30
0
10
9.9596805226598075
20
3.0452663242445626
30
0
10
10
20
3.0549999999999997
30
0
0
ENDSEC
0
SECTION
2
OBJECTS
0
DICTIONARY
5
C
100
AcDbDictionary
3
ACAD_GROUP
350
D
3
ACAD_MLINESTYLE
350
17
0
DICTIONARY
5
D
100
AcDbDictionary
0
DICTIONARY
5
1A
330
C
100
AcDbDictionary
0
DICTIONARY
5
17
100
AcDbDictionary
0
ENDSEC
0
EOF
