0
SECTION
2
HEADER
9
$INSUNITS
70
4
9
$ACADVER
1
AC1014
9
$HANDSEED
5
FFFF
0
ENDSEC
0
SECTION
2
TABLES
0
TABLE
2
VPORT
5
8
100
AcDbSymbolTable
0
ENDTAB
0
TABLE
2
LTYPE
5
5
100
AcDbSymbolTable
0
LTYPE
5
14
100
AcDbSymbolTableRecord
100
AcDbLinetypeTableRecord
2
BYBLOCK
70
0
0
LTYPE
5
15
100
AcDbSymbolTableRecord
100
AcDbLinetypeTableRecord
2
BYLAYER
70
0
0
ENDTAB
0
TABLE
2
LAYER
5
2
100
AcDbSymbolTable
70
2
0
LAYER
5
50
100
AcDbSymbolTableRecord
100
AcDbLayerTableRecord
2
0
70
0
6
CONTINUOUS
0
ENDTAB
0
TABLE
2
STYLE
5
3
100
AcDbSymbolTable
70
1
0
STYLE
5
11
100
AcDbSymbolTableRecord
100
AcDbTextStyleTableRecord
2
STANDARD
70
0
0
ENDTAB
0
TABLE
2
VIEW
5
6
100
AcDbSymbolTable
70
0
0
ENDTAB
0
TABLE
2
UCS
5
7
100
AcDbSymbolTable
70
0
0
ENDTAB
0
TABLE
2
APPID
5
9
100
AcDbSymbolTable
70
2
0
APPID
5
12
100
AcDbSymbolTableRecord
100
AcDbRegAppTableRecord
2
ACAD
70
0
0
ENDTAB
0
TABLE
2
DIMSTYLE
5
A
100
AcDbSymbolTable
70
1
0
ENDTAB
0
TABLE
2
BLOCK_RECORD
5
1
100
AcDbSymbolTable
70
1
0
BLOCK_RECORD
5
1F
100
AcDbSymbolTableRecord
100
AcDbBlockTableRecord
2
*MODEL_SPACE
0
BLOCK_RECORD
5
1B
100
AcDbSymbolTableRecord
100
AcDbBlockTableRecord
2
*PAPER_SPACE
0
ENDTAB
0
ENDSEC
0
SECTION
2
BLOCKS
0
BLOCK
5
20
100
AcDbEntity
100
AcDbBlockBegin
2
*MODEL_SPACE
0
ENDBLK
5
21
100
AcDbEntity
100
AcDbBlockEnd
0
BLOCK
5
1C
100
AcDbEntity
100
AcDbBlockBegin
2
*PAPER_SPACE
0
ENDBLK
5
1D
100
AcDbEntity
100
AcDbBlockEnd
0
ENDSEC
0
SECTION
2
ENTITIES
0
SPLINE
5
100
100
AcDbEntity
8
0
100
AcDbSpline
70
4
71
5
72
16
73
10
74
0
42
0.000000001
43
0.0000000001
44
0.0000000001
40
0
40
0
40
0
40
0
40
0
40
0
40
0.20000000000000001
40
0.40000000000000002
40
0.60000000000000009
40
0.80000000000000004
40
1
40
1
40
1
40
1
40
1
40
1
41
1
41
1
41
1
41
1
41
1
41
1
41
1
41
1
41
1
41
1
10
0
20
-0.055000000000000049
30
0
10
0
20
0.069400000000207365
30
0
10
0
20
0.31820000000056603
30
0
10
0
20
0.69140000000093593
30
0
10
0
20
1.1890000000011365
30
0
10
0
20
1.8110000000010393
30
0
10
0
20
2.3086000000007481
30
0
10
0
20
2.6818000000004227
30
0
10
0
20
2.9306000000001484
30
0
10
0
20
3.0549999999999997
30
0
0
SPLINE
5
101
100
AcDbEntity
8
0
100
AcDbSpline
70
4
71
5
72
16
73
10
74
0
42
0.000000001
43
0.0000000001
44
0.0000000001
40
0
40
0
40
0
40
0
40
0
40
0
40
0.20000000000000001
40
0.40000000000000002
40
0.60000000000000009
40
0.80000000000000004
40
1
40
1
40
1
40
1
40
1
40
1
41
1
41
1
41
1
41
1
41
1
41
1
41
1
41
1
41
1
41
1
10
10
20
-0.055000000000000049
30
0
10
9.9999999999997495
20
0.069400000000207365
30
0
10
9.9999999999993197
20
0.31820000000056603
30
0
10
9.9999999999989129
20
0.69140000000093593
30
0
10
9.9999999999987672
20
1.1890000000011365
30
0
10
9.9999999999990248
20
1.8110000000010393
30
0
10
9.9999999999993889
20
2.3086000000007481
30
0
10
9.9999999999996998
20
2.6818000000004227
30
0
10
9.9999999999999005
20
2.9306000000001484
30
0
10
10
20
3.0549999999999997
30
0
0
SPLINE
5
102
100
AcDbEntity
8
0
100
AcDbSpline
70
4
71
5
72
16
73
10
74
0
42
0.000000001
43
0.0000000001
44
0.0000000001
40
0
40
0
40
0
40
0
40
0
40
0
40
0.20000000000000001
40
0.40000000000000002
40
0.60000000000000009
40
0.80000000000000004
40
1
40
1
40
1
40
1
40
1
40
1
41
1
41
1
41
1
41
1
41
1
41
1
41
1
41
1
41
1
41
1
10
0
20
1.5274999999999999
30
0
10
0.40000000000047375
20
1.5274999999999856
30
0
10
1.2000000000012774
20
1.5274999999999614
30
0
10
2.4000000000020547
20
1.527499999999943
30
0
10
4.0000000000023546
20
1.5274999999999479
30
0
10
6.0000000000019584
20
1.5274999999999812
30
0
10
7.6000000000012928
20
1.5275000000000025
30
0
10
8.800000000000697
20
1.5275000000000083
30
0
10
9.6000000000002395
20
1.5275000000000039
30
0
10
10
20
1.5274999999999999
30
0
0
SPLINE
5
103
100
AcDbEntity
8
0
100
AcDbSpline
70
4
71
5
72
61
73
55
74
0
42
0.000000001
43
0.0000000001
44
0.0000000001
40
0
40
0
40
0
40
0
40
0
40
0
40
0.02
40
0.040000000000000001
40
0.059999999999999998
40
0.080000000000000002
40
0.10000000000000001
40
0.12000000000000001
40
0.14000000000000001
40
0.16
40
0.17999999999999999
40
0.19999999999999998
40
0.21999999999999997
40
0.23999999999999996
40
0.25999999999999995
40
0.27999999999999997
40
0.29999999999999999
40
0.32000000000000001
40
0.34000000000000002
40
0.36000000000000004
40
0.38000000000000006
40
0.40000000000000008
40
0.4200000000000001
40
0.44000000000000011
40
0.46000000000000013
40
0.48000000000000015
40
0.50000000000000011
40
0.52000000000000013
40
0.54000000000000015
40
0.56000000000000016
40
0.58000000000000018
40
0.6000000000000002
40
0.62000000000000022
40
0.64000000000000024
40
0.66000000000000025
40
0.68000000000000027
40
0.70000000000000029
40
0.72000000000000031
40
0.74000000000000032
40
0.76000000000000034
40
0.78000000000000036
40
0.80000000000000038
40
0.8200000000000004
40
0.84000000000000041
40
0.86000000000000043
40
0.88000000000000045
40
0.90000000000000047
40
0.92000000000000048
40
0.9400000000000005
40
0.96000000000000052
40
0.98000000000000054
40
1
40
1
40
1
40
1
40
1
40
1
41
1
41
1
41
1
41
1
41
1
41
1
41
1
41
1
41
1
41
1
41
1
41
1
41
1
41
1
41
1
41
1
41
1
41
1
41
1
41
1
41
1
41
1
41
1
41
1
41
1
41
1
41
1
41
1
41
1
41
1
41
1
41
1
41
1
41
1
41
1
41
1
41
1
41
1
41
1
41
1
41
1
41
1
41
1
41
1
41
1
41
1
41
1
41
1
41
1
41
1
41
1
41
1
41
1
41
1
41
1
10
0
20
-0.055000000000000049
30
0
10
0.04015572824405108
20
-0.050829413923924371
30
0
10
0.12045611556734566
20
-0.042421906144067621
30
0
10
0.24087348896838412
20
-0.02961163867145945
30
0
10
0.40136352915967599
20
-0.012133001752419808
30
0
10
0.60186921269116056
20
0.010368167415895198
30
0
10
0.80228017519128558
20
0.033486971349553703
30
0
10
1.0026210350052094
20
0.05715058805217995
30
0
10
1.202933227825346
20
0.081236375334085481
30
0
10
1.4032791315190862
20
0.10555659315823861
30
0
10
1.6037260170497256
20
0.12963792780910197
30
0
10
1.8043301758444774
20
0.1525002995066668
30
0
10
2.0051210923793712
20
0.17243971527759616
30
0
10
2.2060852300232363
20
0.18679614647680978
30
0
10
2.4071507108845052
20
0.19175701107244728
30
0
10
2.6082125311678572
20
0.18362506652119731
30
0
10
2.8091569317978253
20
0.16006672558562812
30
0
10
3.0098857704085447
20
0.12134514142796206
30
0
10
3.2103415483135227
20
0.071625578045831695
30
0
10
3.410530482098268
20
0.020093822443944011
30
0
10
3.6105012523105224
20
-0.022028663969558361
30
0
10
3.8103255977789257
20
-0.044315989962632814
30
0
10
4.0100785004032433
20
-0.039983650498538602
30
0
10
4.2098181045628786
20
-0.0088369713852347077
30
0
10
4.4095670446507009
20
0.040090801127393799
30
0
10
4.6093259220076268
20
0.092731069080908821
30
0
10
4.8090853982951041
20
0.13388946014248154
30
0
10
5.008838656531668
20
0.15121172760768514
30
0
10
5.2085939766644884
20
0.13923277487244273
30
0
10
5.4083865230421271
20
0.10311949908517735
30
0
10
5.6082684434756525
20
0.054437409437459623
30
0
10
5.8082998341121828
20
0.0072155731247277926
30
0
10
6.0085394140955444
20
-0.026050068272185662
30
0
10
6.2090352999300888
20
-0.038462246130112072
30
0
10
6.4098157815370902
20
-0.03250713198266509
30
0
10
6.6108829837846503
20
-0.016319159116422313
30
0
10
6.8122061880343701
20
-0.00020835663283889921
30
0
10
7.0137155196143954
20
0.0068438568308450643
30
0
10
7.2152946078362614
20
0.00081171166490647494
30
0
10
7.4167757076399399
20
-0.014173501730813673
30
0
10
7.6179716736285732
20
-0.029311242700254446
30
0
10
7.8187061644862155
20
-0.034260511964170397
30
0
10
8.0188438155922732
20
-0.020332024455060667
30
0
10
8.2183221839125711
20
0.01619102944480888
30
0
10
8.4171783642919547
20
0.07121615300162569
30
0
10
8.6155166900077624
20
0.13546678101446855
30
0
10
8.8134809273334085
20
0.19669048480085424
30
0
10
9.0112251666014984
20
0.24199447424937473
30
0
10
9.2088847134884944
20
0.26017363732796694
30
0
10
9.4065487086826298
20
0.2439024362124998
30
0
10
9.6042706696439009
20
0.18883718623081983
30
0
10
9.7625158091549711
20
0.11206963005298719
30
0
10
9.8812416060135408
20
0.035799869172380136
30
0
10
9.9604107641178246
20
-0.023349551736101669
30
0
10
10
20
-0.055000000000000049
30
0
0
SPLINE
5
104
100
AcDbEntity
8
0
100
AcDbSpline
70
4
71
5
72
61
73
55
74
0
42
0.000000001
43
0.0000000001
44
0.0000000001
40
0
40
0
40
0
40
0
40
0
40
0
40
0.02
40
0.040000000000000001
40
0.059999999999999998
40
0.080000000000000002
40
0.10000000000000001
40
0.12000000000000001
40
0.14000000000000001
40
0.16
40
0.17999999999999999
40
0.19999999999999998
40
0.21999999999999997
40
0.23999999999999996
40
0.25999999999999995
40
0.27999999999999997
40
0.29999999999999999
40
0.32000000000000001
40
0.34000000000000002
40
0.36000000000000004
40
0.38000000000000006
40
0.40000000000000008
40
0.4200000000000001
40
0.44000000000000011
40
0.46000000000000013
40
0.48000000000000015
40
0.50000000000000011
40
0.52000000000000013
40
0.54000000000000015
40
0.56000000000000016
40
0.58000000000000018
40
0.6000000000000002
40
0.62000000000000022
40
0.64000000000000024
40
0.66000000000000025
40
0.68000000000000027
40
0.70000000000000029
40
0.72000000000000031
40
0.74000000000000032
40
0.76000000000000034
40
0.78000000000000036
40
0.80000000000000038
40
0.8200000000000004
40
0.84000000000000041
40
0.86000000000000043
40
0.88000000000000045
40
0.90000000000000047
40
0.92000000000000048
40
0.9400000000000005
40
0.96000000000000052
40
0.98000000000000054
40
1
40
1
40
1
40
1
40
1
40
1
41
1
41
1
41
1
41
1
41
1
41
1
41
1
41
1
41
1
41
1
41
1
41
1
41
1
41
1
41
1
41
1
41
1
41
1
41
1
41
1
41
1
41
1
41
1
41
1
41
1
41
1
41
1
41
1
41
1
41
1
41
1
41
1
41
1
41
1
41
1
41
1
41
1
41
1
41
1
41
1
41
1
41
1
41
1
41
1
41
1
41
1
41
1
41
1
41
1
41
1
41
1
41
1
41
1
41
1
41
1
10
0
20
3.0549999999999997
30
0
10
0.040185133363257873
20
3.0578695217369702
30
0
10
0.12053926155639247
20
3.0628755408754631
30
0
10
0.24102203826880153
20
3.0681854950820826
30
0
10
0.40156884612829813
20
3.070864432724326
30
0
10
0.60209082841655481
20
3.0669586225456302
30
0
10
0.80245180367688129
20
3.0560691194906315
30
0
10
1.0026532996668871
20
3.0387593733713514
30
0
10
1.2026982849943595
20
3.0159902741182778
30
0
10
1.402591665961298
20
2.9892213380395476
30
0
10
1.6023453631278599
20
2.960142205924396
30
0
10
1.8019833650869346
20
2.9304086200761925
30
0
10
2.0015467966541873
20
2.9013776019368933
30
0
10
2.2010990891885625
20
2.8738407986913646
30
0
10
2.4007309979372655
20
2.8477616541543971
30
0
10
2.6005374833223218
20
2.8227448155223049
30
0
10
2.8005947735600416
20
2.7985001506225871
30
0
10
3.0009373640413162
20
2.7753077458601272
30
0
10
3.2015348440477149
20
2.7544858220480788
30
0
10
3.402268891476552
20
2.7388539741951945
30
0
10
3.6029757820578783
20
2.7317508176016592
30
0
10
3.803488607368207
20
2.7360563534121041
30
0
10
4.0036793701582898
20
2.7532172607494578
30
0
10
4.203501650400729
20
2.7822549978813256
30
0
10
4.4030319987626942
20
2.8188096794511308
30
0
10
4.6024235713596591
20
2.856659071300538
30
0
10
4.8018612799597262
20
2.8891958827551649
30
0
10
5.0015165725623758
20
2.9109155420389787
30
0
10
5.2015022028746358
20
2.9189080915774346
30
0
10
5.4018273386797944
20
2.9143362510245758
30
0
10
5.6024276560056849
20
2.9009941813728894
30
0
10
5.8031947698749233
20
2.8838900293915688
30
0
10
6.0040056822145136
20
2.8678301351348479
30
0
10
6.2047523438177263
20
2.8559894905879553
30
0
10
6.4053706465794793
20
2.8485231107130913
30
0
10
6.6058345053971737
20
2.8436256172271479
30
0
10
6.8061506604875426
20
2.8385469935296959
30
0
10
7.0063532579975636
20
2.8306148808322034
30
0
10
7.20649872099533
20
2.8182683892112221
30
0
10
7.4066602567481201
20
2.8020475285165909
30
0
10
7.6069106975475815
20
2.7839277512158436
30
0
10
7.8073055546862609
20
2.7667013543272487
30
0
10
8.0078661546684309
20
2.7533482008889005
30
0
10
8.2085621993832412
20
2.7464023501524686
30
0
10
8.4092957179120837
20
2.7473467415992148
30
0
10
8.6099250980873361
20
2.7568669876724416
30
0
10
8.8102877704029758
20
2.7750745323036963
30
0
10
9.0102231225003919
20
2.801737872309654
30
0
10
9.2095957809423812
20
2.8365124987565964
30
0
10
9.4083174647465579
20
2.8791606772114529
30
0
10
9.6063362609558531
20
2.929526336629392
30
0
10
9.7641691740976508
20
2.9759219173584466
30
0
10
9.8822131219683111
20
3.0141337146914049
30
0
10
9.9607621902145898
20
3.0411250968840573
30
0
10
10
20
3.0549999999999997
30
0
0
ENDSEC
0
SECTION
2
OBJECTS
0
DICTIONARY
5
C
100
AcDbDictionary
3
ACAD_GROUP
350
D
3
ACAD_MLINESTYLE
350
17
0
DICTIONARY
5
D
100
AcDbDictionary
0
DICTIONARY
5
1A
330
C
100
AcDbDictionary
0
DICTIONARY
5
17
100
AcDbDictionary
0
ENDSEC
0
EOF
