0
SECTION
2
HEADER
9
$INSUNITS
70
4
9
$ACADVER
1
AC1014
9
$HANDSEED
5
FFFF
0
ENDSEC
0
SECTION
2
TABLES
0
TABLE
2
VPORT
5
8
100
AcDbSymbolTable
0
ENDTAB
0
TABLE
2
LTYPE
5
5
100
AcDbSymbolTable
0
LTYPE
5
14
100
AcDbSymbolTableRecord
100
AcDbLinetypeTableRecord
2
BYBLOCK
70
0
0
LTYPE
5
15
100
AcDbSymbolTableRecord
100
AcDbLinetypeTableRecord
2
BYLAYER
70
0
0
ENDTAB
0
TABLE
2
LAYER
5
2
100
AcDbSymbolTable
70
2
0
LAYER
5
50
100
AcDbSymbolTableRecord
100
AcDbLayerTableRecord
2
0
70
0
6
CONTINUOUS
0
ENDTAB
0
TABLE
2
STYLE
5
3
100
AcDbSymbolTable
70
1
0
STYLE
5
11
100
AcDbSymbolTableRecord
100
AcDbTextStyleTableRecord
2
STANDARD
70
0
0
ENDTAB
0
TABLE
2
VIEW
5
6
100
AcDbSymbolTable
70
0
0
ENDTAB
0
TABLE
2
UCS
5
7
100
AcDbSymbolTable
70
0
0
ENDTAB
0
TABLE
2
APPID
5
9
100
AcDbSymbolTable
70
2
0
APPID
5
12
100
AcDbSymbolTableRecord
100
AcDbRegAppTableRecord
2
ACAD
70
0
0
ENDTAB
0
TABLE
2
DIMSTYLE
5
A
100
AcDbSymbolTable
70
1
0
ENDTAB
0
TABLE
2
BLOCK_RECORD
5
1
100
AcDbSymbolTable
70
1
0
BLOCK_RECORD
5
1F
100
AcDbSymbolTableRecord
100
AcDbBlockTableRecord
2
*MODEL_SPACE
0
BLOCK_RECORD
5
1B
100
AcDbSymbolTableRecord
100
AcDbBlockTableRecord
2
*PAPER_SPACE
0
ENDTAB
0
ENDSEC
0
SECTION
2
BLOCKS
0
BLOCK
5
20
100
AcDbEntity
100
AcDbBlockBegin
2
*MODEL_SPACE
0
ENDBLK
5
21
100
AcDbEntity
100
AcDbBlockEnd
0
BLOCK
5
1C
100
AcDbEntity
100
AcDbBlockBegin
2
*PAPER_SPACE
0
ENDBLK
5
1D
100
AcDbEntity
100
AcDbBlockEnd
0
ENDSEC
0
SECTION
2
ENTITIES
0
SPLINE
5
100
100
AcDbEntity
8
0
100
AcDbSpline
70
4
71
5
72
16
73
10
74
0
42
0.000000001
43
0.0000000001
44
0.0000000001
40
0
40
0
40
0
40
0
40
0
40
0
40
0.20000000000000001
40
0.40000000000000002
40
0.60000000000000009
40
0.80000000000000004
40
1
40
1
40
1
40
1
40
1
40
1
41
1
41
1
41
1
41
1
41
1
41
1
41
1
41
1
41
1
41
1
10
0
20
-0.055000000000000049
30
0
10
0
20
0.069400000000207365
30
0
10
0
20
0.31820000000056603
30
0
10
0
20
0.69140000000093593
30
0
10
0
20
1.1890000000011365
30
0
10
0
20
1.8110000000010393
30
0
10
0
20
2.3086000000007481
30
0
10
0
20
2.6818000000004227
30
0
10
0
20
2.9306000000001484
30
0
10
0
20
3.0549999999999997
30
0
0
SPLINE
5
101
100
AcDbEntity
8
0
100
AcDbSpline
70
4
71
5
72
16
73
10
74
0
42
0.000000001
43
0.0000000001
44
0.0000000001
40
0
40
0
40
0
40
0
40
0
40
0
40
0.20000000000000001
40
0.40000000000000002
40
0.60000000000000009
40
0.80000000000000004
40
1
40
1
40
1
40
1
40
1
40
1
41
1
41
1
41
1
41
1
41
1
41
1
41
1
41
1
41
1
41
1
10
10
20
-0.055000000000000049
30
0
10
9.9999999999997495
20
0.069400000000207365
30
0
10
9.9999999999993197
20
0.31820000000056603
30
0
10
9.9999999999989129
20
0.69140000000093593
30
0
10
9.9999999999987672
20
1.1890000000011365
30
0
10
9.9999999999990248
20
1.8110000000010393
30
0
10
9.9999999999993889
20
2.3086000000007481
30
0
10
9.9999999999996998
20
2.6818000000004227
30
0
10
9.9999999999999005
20
2.9306000000001484
30
0
10
10
20
3.0549999999999997
30
0
0
SPLINE
5
102
100
AcDbEntity
8
0
100
AcDbSpline
70
4
71
5
72
16
73
10
74
0
42
0.000000001
43
0.0000000001
44
0.0000000001
40
0
40
0
40
0
40
0
40
0
40
0
40
0.20000000000000001
40
0.40000000000000002
40
0.60000000000000009
40
0.80000000000000004
40
1
40
1
40
1
40
1
40
1
40
1
41
1
41
1
41
1
41
1
41
1
41
1
41
1
41
1
41
1
41
1
10
0
20
1.5274999999999999
30
0
10
0.40000000000047375
20
1.5274999999999856
30
0
10
1.2000000000012774
20
1.5274999999999614
30
0
10
2.4000000000020547
20
1.527499999999943
30
0
10
4.0000000000023546
20
1.5274999999999479
30
0
10
6.0000000000019584
20
1.5274999999999812
30
0
10
7.6000000000012928
20
1.5275000000000025
30
0
10
8.800000000000697
20
1.5275000000000083
30
0
10
9.6000000000002395
20
1.5275000000000039
30
0
10
10
20
1.5274999999999999
30
0
0
SPLINE
5
103
100
AcDbEntity
8
0
100
AcDbSpline
70
4
71
5
72
61
73
55
74
0
42
0.000000001
43
0.0000000001
44
0.0000000001
40
0
40
0
40
0
40
0
40
0
40
0
40
0.02
40
0.040000000000000001
40
0.059999999999999998
40
0.080000000000000002
40
0.10000000000000001
40
0.12000000000000001
40
0.14000000000000001
40
0.16
40
0.17999999999999999
40
0.19999999999999998
40
0.21999999999999997
40
0.23999999999999996
40
0.25999999999999995
40
0.27999999999999997
40
0.29999999999999999
40
0.32000000000000001
40
0.34000000000000002
40
0.36000000000000004
40
0.38000000000000006
40
0.40000000000000008
40
0.4200000000000001
40
0.44000000000000011
40
0.46000000000000013
40
0.48000000000000015
40
0.50000000000000011
40
0.52000000000000013
40
0.54000000000000015
40
0.56000000000000016
40
0.58000000000000018
40
0.6000000000000002
40
0.62000000000000022
40
0.64000000000000024
40
0.66000000000000025
40
0.68000000000000027
40
0.70000000000000029
40
0.72000000000000031
40
0.74000000000000032
40
0.76000000000000034
40
0.78000000000000036
40
0.80000000000000038
40
0.8200000000000004
40
0.84000000000000041
40
0.86000000000000043
40
0.88000000000000045
40
0.90000000000000047
40
0.92000000000000048
40
0.9400000000000005
40
0.96000000000000052
40
0.98000000000000054
40
1
40
1
40
1
40
1
40
1
40
1
41
1
41
1
41
1
41
1
41
1
41
1
41
1
41
1
41
1
41
1
41
1
41
1
41
1
41
1
41
1
41
1
41
1
41
1
41
1
41
1
41
1
41
1
41
1
41
1
41
1
41
1
41
1
41
1
41
1
41
1
41
1
41
1
41
1
41
1
41
1
41
1
41
1
41
1
41
1
41
1
41
1
41
1
41
1
41
1
41
1
41
1
41
1
41
1
41
1
41
1
41
1
41
1
41
1
41
1
41
1
10
0
20
-0.055000000000000049
30
0
10
0.040282861611719366
20
-0.048821958835309057
30
0
10
0.12085619520463062
20
-0.037536237240279491
30
0
10
0.24173902672120437
20
-0.023818759161002078
30
0
10
0.40296182725797097
20
-0.011954990459814869
30
0
10
0.6045642334145942
20
-0.0075171741151361599
30
0
10
0.80623349553220214
20
-0.01246963411751285
30
0
10
1.0079552801604188
20
-0.024781677168987552
30
0
10
1.2097054512841197
20
-0.041022060740456036
30
0
10
1.4114475951389969
20
-0.056047373589396619
30
0
10
1.6131332791944228
20
-0.064268425064435267
30
0
10
1.814702001683359
20
-0.06087992727453119
30
0
10
2.0160816074976835
20
-0.043070094038428111
30
0
10
2.217187593918422
20
-0.011325116323530815
30
0
10
2.4179253467382007
20
0.029530242835684291
30
0
10
2.6182266381399351
20
0.072657274924795262
30
0
10
2.8180849643222823
20
0.11133494237197253
30
0
10
3.0175894374234851
20
0.14109954836499108
30
0
10
3.2169642694672023
20
0.16203370047332982
30
0
10
3.4165927624878121
20
0.18057947905303978
30
0
10
3.6168693031663786
20
0.20585368732813397
30
0
10
3.8180608494302377
20
0.2463101655649762
30
0
10
4.0201703127610253
20
0.30638015827532533
30
0
10
4.2227851009916142
20
0.38285859828604518
30
0
10
4.4249694294553024
20
0.46211264137677671
30
0
10
4.6255899932398066
20
0.52557790662746895
30
0
10
4.823610097148336
20
0.55463127847602822
30
0
10
5.018388103949202
20
0.53558138307166137
30
0
10
5.2099930942898389
20
0.46489118817390107
30
0
10
5.3994626881220302
20
0.35354343478896388
30
0
10
5.5883770681109377
20
0.22118872107023566
30
0
10
5.7784903417484133
20
0.091141239750041403
30
0
10
5.9713301227596727
20
-0.015070115300092418
30
0
10
6.1678349625979152
20
-0.082648872763457795
30
0
10
6.3679089548070644
20
-0.10953626547354034
30
0
10
6.5706892942917206
20
-0.10335395517369381
30
0
10
6.7749183979116552
20
-0.077015412312281609
30
0
10
6.9792840158852716
20
-0.044753014495050418
30
0
10
7.1827585489268877
20
-0.01813536768267458
30
0
10
7.3849759610861678
20
-0.0016647628139765287
30
0
10
7.5860788395524814
20
0.0055702780380751764
30
0
10
7.7865099413396681
20
0.0076051878356786767
30
0
10
7.9868226563492106
20
0.009526076695319052
30
0
10
8.1874885101843482
20
0.015361277445628681
30
0
10
8.3886936295762915
20
0.025848068670657125
30
0
10
8.5904012955589941
20
0.039213265039309143
30
0
10
8.792431703906983
20
0.052148650678911182
30
0
10
8.9945352818789654
20
0.060714127636139703
30
0
10
9.1964677950791103
20
0.061260314139494405
30
0
10
9.3980664661520947
20
0.051366457873214436
30
0
10
9.5992348827002125
20
0.029606739380396218
30
0
10
9.7597873663475134
20
0.002150353668342448
30
0
10
9.8799798971767689
20
-0.024190642564011589
30
0
10
9.9600097206872
20
-0.044304657067825222
30
0
10
10
20
-0.055000000000000049
30
0
0
SPLINE
5
104
100
AcDbEntity
8
0
100
AcDbSpline
70
4
71
5
72
61
73
55
74
0
42
0.000000001
43
0.0000000001
44
0.0000000001
40
0
40
0
40
0
40
0
40
0
40
0
40
0.02
40
0.040000000000000001
40
0.059999999999999998
40
0.080000000000000002
40
0.10000000000000001
40
0.12000000000000001
40
0.14000000000000001
40
0.16
40
0.17999999999999999
40
0.19999999999999998
40
0.21999999999999997
40
0.23999999999999996
40
0.25999999999999995
40
0.27999999999999997
40
0.29999999999999999
40
0.32000000000000001
40
0.34000000000000002
40
0.36000000000000004
40
0.38000000000000006
40
0.40000000000000008
40
0.4200000000000001
40
0.44000000000000011
40
0.46000000000000013
40
0.48000000000000015
40
0.50000000000000011
40
0.52000000000000013
40
0.54000000000000015
40
0.56000000000000016
40
0.58000000000000018
40
0.6000000000000002
40
0.62000000000000022
40
0.64000000000000024
40
0.66000000000000025
40
0.68000000000000027
40
0.70000000000000029
40
0.72000000000000031
40
0.74000000000000032
40
0.76000000000000034
40
0.78000000000000036
40
0.80000000000000038
40
0.8200000000000004
40
0.84000000000000041
40
0.86000000000000043
40
0.88000000000000045
40
0.90000000000000047
40
0.92000000000000048
40
0.9400000000000005
40
0.96000000000000052
40
0.98000000000000054
40
1
40
1
40
1
40
1
40
1
40
1
41
1
41
1
41
1
41
1
41
1
41
1
41
1
41
1
41
1
41
1
41
1
41
1
41
1
41
1
41
1
41
1
41
1
41
1
41
1
41
1
41
1
41
1
41
1
41
1
41
1
41
1
41
1
41
1
41
1
41
1
41
1
41
1
41
1
41
1
41
1
41
1
41
1
41
1
41
1
41
1
41
1
41
1
41
1
41
1
41
1
41
1
41
1
41
1
41
1
41
1
41
1
41
1
41
1
41
1
41
1
10
0
20
3.0549999999999997
30
0
10
0.04258515011026906
20
3.0653847806135963
30
0
10
0.12731528853761689
20
3.0834755330093926
30
0
10
0.2530900012860588
20
3.1025752154849187
30
0
10
0.41814699015959905
20
3.1119582655149225
30
0
10
0.62015945796234473
20
3.0972072969595148
30
0
10
0.81816902874856978
20
3.0570623374580381
30
0
10
1.0127984082342272
20
2.9937710559227613
30
0
10
1.2051044997696119
20
2.9111684644460158
30
0
10
1.3966689755677022
20
2.8150484948303949
30
0
10
1.5892254618771964
20
2.7126153906521715
30
0
10
1.7843156853863533
20
2.6119845314549979
30
0
10
1.9829261245490146
20
2.521672296406785
30
0
10
2.1851507177467733
20
2.4500814041511259
30
0
10
2.3897887451403714
20
2.4050168787497066
30
0
10
2.5948660335751805
20
2.3926900759986691
30
0
10
2.7982275134494516
20
2.4166811450944263
30
0
10
2.9981054517851242
20
2.4769020610973693
30
0
10
3.1936933420294764
20
2.5685659068532258
30
0
10
3.3857337899153221
20
2.6810951114398289
30
0
10
3.575968637687343
20
2.8005529425931281
30
0
10
3.7665844109357942
20
2.9120773852144999
30
0
10
3.9596420713980285
20
3.0023864528635285
30
0
10
4.1565572545645004
20
3.0620799732285202
30
0
10
4.357443712290916
20
3.0884955028914103
30
0
10
4.5613933437762491
20
3.0847849693136431
30
0
10
4.7669719814848657
20
3.0581042490980663
30
0
10
4.9726498320368409
20
3.0181127424236323
30
0
10
5.1772356274359534
20
2.9753644759874174
30
0
10
5.3803705625260845
20
2.9397161123730902
30
0
10
5.5823306834691628
20
2.9191282954105571
30
0
10
5.7837289840029102
20
2.9185553807666338
30
0
10
5.985250627420343
20
2.9387557286475188
30
0
10
6.1873827672839958
20
2.9752153675626754
30
0
10
6.3901244984930239
20
3.0167634302248594
30
0
10
6.5931291019786258
20
3.049053684022816
30
0
10
6.7958777403990345
20
3.0583799520783335
30
0
10
6.9978414780594917
20
3.0353829263324448
30
0
10
7.1986472288574177
20
2.9787828211103196
30
0
10
7.3982446583054902
20
2.8992019478021751
30
0
10
7.5968219233696699
20
2.8144308054780769
30
0
10
7.7947189465195033
20
2.7446285152826451
30
0
10
7.9923416537350427
20
2.7075203294911319
30
0
10
8.1900771549199192
20
2.7136794649477807
30
0
10
8.3882056183767624
20
2.7615215099107147
30
0
10
8.5869167509319233
20
2.8405989432952952
30
0
10
8.7863298966980228
20
2.9351645288278547
30
0
10
8.9865127092755497
20
3.0276527640711466
30
0
10
9.1874999819266439
20
3.10210923552716
30
0
10
9.3893130044164579
20
3.1478553445194506
30
0
10
9.5919633236750652
20
3.1585937408531266
30
0
10
9.7547569882870082
20
3.1366963187418677
30
0
10
9.8772312118230108
20
3.102684161648753
30
0
10
9.9590490167956265
20
3.0721968062960023
30
0
10
10
20
3.0549999999999997
30
0
0
ENDSEC
0
SECTION
2
OBJECTS
0
DICTIONARY
5
C
100
AcDbDictionary
3
ACAD_GROUP
350
D
3
ACAD_MLINESTYLE
350
17
0
DICTIONARY
5
D
100
AcDbDictionary
0
DICTIONARY
5
1A
330
C
100
AcDbDictionary
0
DICTIONARY
5
17
100
AcDbDictionary
0
ENDSEC
0
EOF
