0
SECTION
2
HEADER
9
$INSUNITS
70
4
9
$ACADVER
1
AC1014
9
$HANDSEED
5
FFFF
0
ENDSEC
0
SECTION
2
TABLES
0
TABLE
2
VPORT
5
8
100
AcDbSymbolTable
0
ENDTAB
0
TABLE
2
LTYPE
5
5
100
AcDbSymbolTable
0
LTYPE
5
14
100
AcDbSymbolTableRecord
100
AcDbLinetypeTableRecord
2
BYBLOCK
70
0
0
LTYPE
5
15
100
AcDbSymbolTableRecord
100
AcDbLinetypeTableRecord
2
BYLAYER
70
0
0
ENDTAB
0
TABLE
2
LAYER
5
2
100
AcDbSymbolTable
70
2
0
LAYER
5
50
100
AcDbSymbolTableRecord
100
AcDbLayerTableRecord
2
0
70
0
6
CONTINUOUS
0
ENDTAB
0
TABLE
2
STYLE
5
3
100
AcDbSymbolTable
70
1
0
STYLE
5
11
100
AcDbSymbolTableRecord
100
AcDbTextStyleTableRecord
2
STANDARD
70
0
0
ENDTAB
0
TABLE
2
VIEW
5
6
100
AcDbSymbolTable
70
0
0
ENDTAB
0
TABLE
2
UCS
5
7
100
AcDbSymbolTable
70
0
0
ENDTAB
0
TABLE
2
APPID
5
9
100
AcDbSymbolTable
70
2
0
APPID
5
12
100
AcDbSymbolTableRecord
100
AcDbRegAppTableRecord
2
ACAD
70
0
0
ENDTAB
0
TABLE
2
DIMSTYLE
5
A
100
AcDbSymbolTable
70
1
0
ENDTAB
0
TABLE
2
BLOCK_RECORD
5
1
100
AcDbSymbolTable
70
1
0
BLOCK_RECORD
5
1F
100
AcDbSymbolTableRecord
100
AcDbBlockTableRecord
2
*MODEL_SPACE
0
BLOCK_RECORD
5
1B
100
AcDbSymbolTableRecord
100
AcDbBlockTableRecord
2
*PAPER_SPACE
0
ENDTAB
0
ENDSEC
0
SECTION
2
BLOCKS
0
BLOCK
5
20
100
AcDbEntity
100
AcDbBlockBegin
2
*MODEL_SPACE
0
ENDBLK
5
21
100
AcDbEntity
100
AcDbBlockEnd
0
BLOCK
5
1C
100
AcDbEntity
100
AcDbBlockBegin
2
*PAPER_SPACE
0
ENDBLK
5
1D
100
AcDbEntity
100
AcDbBlockEnd
0
ENDSEC
0
SECTION
2
ENTITIES
0
SPLINE
5
100
100
AcDbEntity
8
0
100
AcDbSpline
70
4
71
5
72
16
73
10
74
0
42
0.000000001
43
0.0000000001
44
0.0000000001
40
0
40
0
40
0
40
0
40
0
40
0
40
0.20000000000000001
40
0.40000000000000002
40
0.60000000000000009
40
0.80000000000000004
40
1
40
1
40
1
40
1
40
1
40
1
41
1
41
1
41
1
41
1
41
1
41
1
41
1
41
1
41
1
41
1
10
0
20
-0.055000000000000049
30
0
10
0
20
0.069400000000207365
30
0
10
0
20
0.31820000000056603
30
0
10
0
20
0.69140000000093593
30
0
10
0
20
1.1890000000011365
30
0
10
0
20
1.8110000000010393
30
0
10
0
20
2.3086000000007481
30
0
10
0
20
2.6818000000004227
30
0
10
0
20
2.9306000000001484
30
0
10
0
20
3.0549999999999997
30
0
0
SPLINE
5
101
100
AcDbEntity
8
0
100
AcDbSpline
70
4
71
5
72
16
73
10
74
0
42
0.000000001
43
0.0000000001
44
0.0000000001
40
0
40
0
40
0
40
0
40
0
40
0
40
0.20000000000000001
40
0.40000000000000002
40
0.60000000000000009
40
0.80000000000000004
40
1
40
1
40
1
40
1
40
1
40
1
41
1
41
1
41
1
41
1
41
1
41
1
41
1
41
1
41
1
41
1
10
10
20
-0.055000000000000049
30
0
10
9.9999999999997495
20
0.069400000000207365
30
0
10
9.9999999999993197
20
0.31820000000056603
30
0
10
9.9999999999989129
20
0.69140000000093593
30
0
10
9.9999999999987672
20
1.1890000000011365
30
0
10
9.9999999999990248
20
1.8110000000010393
30
0
10
9.9999999999993889
20
2.3086000000007481
30
0
10
9.9999999999996998
20
2.6818000000004227
30
0
10
9.9999999999999005
20
2.9306000000001484
30
0
10
10
20
3.0549999999999997
30
0
0
SPLINE
5
102
100
AcDbEntity
8
0
100
AcDbSpline
70
4
71
5
72
16
73
10
74
0
42
0.000000001
43
0.0000000001
44
0.0000000001
40
0
40
0
40
0
40
0
40
0
40
0
40
0.20000000000000001
40
0.40000000000000002
40
0.60000000000000009
40
0.80000000000000004
40
1
40
1
40
1
40
1
40
1
40
1
41
1
41
1
41
1
41
1
41
1
41
1
41
1
41
1
41
1
41
1
10
0
20
1.5274999999999999
30
0
10
0.40000000000047375
20
1.5274999999999856
30
0
10
1.2000000000012774
20
1.5274999999999614
30
0
10
2.4000000000020547
20
1.527499999999943
30
0
10
4.0000000000023546
20
1.5274999999999479
30
0
10
6.0000000000019584
20
1.5274999999999812
30
0
10
7.6000000000012928
20
1.5275000000000025
30
0
10
8.800000000000697
20
1.5275000000000083
30
0
10
9.6000000000002395
20
1.5275000000000039
30
0
10
10
20
1.5274999999999999
30
0
0
SPLINE
5
103
100
AcDbEntity
8
0
100
AcDbSpline
70
4
71
5
72
111
73
105
74
0
42
0.000000001
43
0.0000000001
44
0.0000000001
40
0
40
0
40
0
40
0
40
0
40
0
40
0.01
40
0.02
40
0.029999999999999999
40
0.040000000000000001
40
0.050000000000000003
40
0.060000000000000005
40
0.070000000000000007
40
0.080000000000000002
40
0.089999999999999997
40
0.099999999999999992
40
0.10999999999999999
40
0.11999999999999998
40
0.12999999999999998
40
0.13999999999999999
40
0.14999999999999999
40
0.16
40
0.17000000000000001
40
0.18000000000000002
40
0.19000000000000003
40
0.20000000000000004
40
0.21000000000000005
40
0.22000000000000006
40
0.23000000000000007
40
0.24000000000000007
40
0.25000000000000006
40
0.26000000000000006
40
0.27000000000000007
40
0.28000000000000008
40
0.29000000000000009
40
0.3000000000000001
40
0.31000000000000011
40
0.32000000000000012
40
0.33000000000000013
40
0.34000000000000014
40
0.35000000000000014
40
0.36000000000000015
40
0.37000000000000016
40
0.38000000000000017
40
0.39000000000000018
40
0.40000000000000019
40
0.4100000000000002
40
0.42000000000000021
40
0.43000000000000022
40
0.44000000000000022
40
0.45000000000000023
40
0.46000000000000024
40
0.47000000000000025
40
0.48000000000000026
40
0.49000000000000027
40
0.50000000000000022
40
0.51000000000000023
40
0.52000000000000024
40
0.53000000000000025
40
0.54000000000000026
40
0.55000000000000027
40
0.56000000000000028
40
0.57000000000000028
40
0.58000000000000029
40
0.5900000000000003
40
0.60000000000000031
40
0.61000000000000032
40
0.62000000000000033
40
0.63000000000000034
40
0.64000000000000035
40
0.65000000000000036
40
0.66000000000000036
40
0.67000000000000037
40
0.68000000000000038
40
0.69000000000000039
40
0.7000000000000004
40
0.71000000000000041
40
0.72000000000000042
40
0.73000000000000043
40
0.74000000000000044
40
0.75000000000000044
40
0.76000000000000045
40
0.77000000000000046
40
0.78000000000000047
40
0.79000000000000048
40
0.80000000000000049
40
0.8100000000000005
40
0.82000000000000051
40
0.83000000000000052
40
0.84000000000000052
40
0.85000000000000053
40
0.86000000000000054
40
0.87000000000000055
40
0.88000000000000056
40
0.89000000000000057
40
0.90000000000000058
40
0.91000000000000059
40
0.9200000000000006
40
0.9300000000000006
40
0.94000000000000061
40
0.95000000000000062
40
0.96000000000000063
40
0.97000000000000064
40
0.98000000000000065
40
0.99000000000000066
40
1
40
1
40
1
40
1
40
1
40
1
41
1
41
1
41
1
41
1
41
1
41
1
41
1
41
1
41
1
41
1
41
1
41
1
41
1
41
1
41
1
41
1
41
1
41
1
41
1
41
1
41
1
41
1
41
1
41
1
41
1
41
1
41
1
41
1
41
1
41
1
41
1
41
1
41
1
41
1
41
1
41
1
41
1
41
1
41
1
41
1
41
1
41
1
41
1
41
1
41
1
41
1
41
1
41
1
41
1
41
1
41
1
41
1
41
1
41
1
41
1
41
1
41
1
41
1
41
1
41
1
41
1
41
1
41
1
41
1
41
1
41
1
41
1
41
1
41
1
41
1
41
1
41
1
41
1
41
1
41
1
41
1
41
1
41
1
41
1
41
1
41
1
41
1
41
1
41
1
41
1
41
1
41
1
41
1
41
1
41
1
41
1
41
1
41
1
41
1
41
1
41
1
41
1
41
1
41
1
41
1
41
1
41
1
41
1
41
1
41
1
10
0
20
-0.055000000000000049
30
0
10
0.020209554715156536
20
-0.056882482553037086
30
0
10
0.060609305850192856
20
-0.059425122373150473
30
0
10
0.12115085756762453
20
-0.059572085265376426
30
0
10
0.20175675850244465
20
-0.052433029513853716
30
0
10
0.30232409059089549
20
-0.03170919104941728
30
0
10
0.40271229361565108
20
-0.0004758620988239111
30
0
10
0.50294331700483563
20
0.038682246397183997
30
0
10
0.60305394349748065
20
0.081434899255792823
30
0
10
0.70309931193570996
20
0.12131329050143448
30
0
10
0.80314574264752703
20
0.15141155214775343
30
0
10
0.90326387697806498
20
0.16604597453037714
30
0
10
1.0035216287927351
20
0.16240903172972901
30
0
10
1.1039773871119072
20
0.14227702595735128
30
0
10
1.2046726421233422
20
0.11355924747753776
30
0
10
1.3056115724577955
20
0.087141049941805104
30
0
10
1.4067404338791558
20
0.073840301719205234
30
0
10
1.5079281287096196
20
0.081387759563248507
30
0
10
1.6089435799671397
20
0.11124302566869468
30
0
10
1.7094419326162282
20
0.15591249792642256
30
0
10
1.809063607627158
20
0.20286148349164615
30
0
10
1.9075268005962176
20
0.2380174522365365
30
0
10
2.0047211240130021
20
0.24939087584474354
30
0
10
2.1008040637434187
20
0.23072987870307871
30
0
10
2.196287309479958
20
0.18492883147369638
30
0
10
2.2918659347862915
20
0.12093632968898567
30
0
10
2.3882603023516791
20
0.050956624567824391
30
0
10
2.4860483436065355
20
-0.012517285470189056
30
0
10
2.5855130788643081
20
-0.059459292791040563
30
0
10
2.6864537317363775
20
-0.085525651138459322
30
0
10
2.7883324567432286
20
-0.091091705990417327
30
0
10
2.8904687000489302
20
-0.079685900917365854
30
0
10
2.9922195244413481
20
-0.056625237765164919
30
0
10
3.0931593152065546
20
-0.027597009866392241
30
0
10
3.1932773595775217
20
0.0028151911438445386
30
0
10
3.2928561058475543
20
0.031153719664823075
30
0
10
3.3923248999855575
20
0.054986511800031418
30
0
10
3.4921207271740977
20
0.072853759207442387
30
0
10
3.5925506132241276
20
0.084191707024341061
30
0
10
3.693640912608954
20
0.089276834127815147
30
0
10
3.7952179093112361
20
0.088981350871151693
30
0
10
3.8970062767873941
20
0.084516685363980062
30
0
10
3.998721222168137
20
0.077180734472631546
30
0
10
4.1001627276561772
20
0.06810536506143669
30
0
10
4.2013104364803509
20
0.057998935979754758
30
0
10
4.3022618728063433
20
0.04742902905862903
30
0
10
4.4031682811207666
20
0.037115393097093295
30
0
10
4.5041720132183087
20
0.028212196057052739
30
0
10
4.6053418651811366
20
0.022611085376381335
30
0
10
4.7066131743830857
20
0.02319132800623732
30
0
10
4.8078426274167301
20
0.032831430553295453
30
0
10
4.9088595026868003
20
0.053446147117189792
30
0
10
5.0095171384996053
20
0.085050676972750427
30
0
10
5.1097468248289113
20
0.12472593191231937
30
0
10
5.209603487248879
20
0.16587118213478594
30
0
10
5.3092222150752191
20
0.20045700259985585
30
0
10
5.4087813578600619
20
0.22107901977591582
30
0
10
5.5084636717208246
20
0.22302951356716255
30
0
10
5.6084171063073729
20
0.20649772077244027
30
0
10
5.7087191629262088
20
0.17833376479052407
30
0
10
5.8093886775054981
20
0.14865195595167727
30
0
10
5.9103942376707561
20
0.12774322881174896
30
0
10
6.0116637670392343
20
0.12297977887983194
30
0
10
6.1130937673605086
20
0.13546792348915385
30
0
10
6.2145581612287497
20
0.1575381391999125
30
0
10
6.3159126255783278
20
0.17721816118434869
30
0
10
6.4169990001778938
20
0.18216247123820262
30
0
10
6.5176503830149857
20
0.16359161565005798
30
0
10
6.617694225774347
20
0.12069087196594688
30
0
10
6.7169613454095689
20
0.063436308060445992
30
0
10
6.8153241205599313
20
0.0072704114482021517
30
0
10
6.912731614975451
20
-0.031215774462318175
30
0
10
7.0092445717687859
20
-0.038883220534973166
30
0
10
7.1050737283237879
20
-0.010775069730332286
30
0
10
7.2006075925469055
20
0.045920552501749402
30
0
10
7.2963249014296316
20
0.11688705864646919
30
0
10
7.3927165968945765
20
0.18495329473844541
30
0
10
7.490202876756797
20
0.23473750138524913
30
0
10
7.5890553533799174
20
0.25692814385920099
30
0
10
7.6893087604210661
20
0.2532761158311867
30
0
10
7.7907989782824654
20
0.23308059076402068
30
0
10
7.8932132375890953
20
0.20887307461374299
30
0
10
7.9961358036583166
20
0.19235815455279798
30
0
10
8.0990956104407985
20
0.19032138619295408
30
0
10
8.2016126558693419
20
0.2003436802121622
30
0
10
8.3032591570688865
20
0.21411588403050855
30
0
10
8.4037213788564955
20
0.22103995566488671
30
0
10
8.502860741554235
20
0.21170291472332933
30
0
10
8.6007766119616349
20
0.18144963979067669
30
0
10
8.6978649513431812
20
0.13378971566804918
30
0
10
8.7946917480595506
20
0.077406282629923231
30
0
10
8.8918719067910086
20
0.023334733394448193
30
0
10
8.9899438336759836
20
-0.017970142298807289
30
0
10
9.0892511534878189
20
-0.039403681946854195
30
0
10
9.1898069788667378
20
-0.04036272958419234
30
0
10
9.2913730981734197
20
-0.025227014464702241
30
0
10
9.3935603508996497
20
-0.0013800451230446163
30
0
10
9.4959218768255269
20
0.022614128276707762
30
0
10
9.5980480013891452
20
0.038873118697315377
30
0
10
9.6996639883701725
20
0.042111352996388879
30
0
10
9.8006060092444756
20
0.029178511281846668
30
0
10
9.8807549679795734
20
0.0046369970736396407
30
0
10
9.9405144478751311
20
-0.021986353655844216
30
0
10
9.9801975708167401
20
-0.043386854927520764
30
0
10
10
20
-0.055000000000000049
30
0
0
SPLINE
5
104
100
AcDbEntity
8
0
100
AcDbSpline
70
4
71
5
72
111
73
105
74
0
42
0.000000001
43
0.0000000001
44
0.0000000001
40
0
40
0
40
0
40
0
40
0
40
0
40
0.01
40
0.02
40
0.029999999999999999
40
0.040000000000000001
40
0.050000000000000003
40
0.060000000000000005
40
0.070000000000000007
40
0.080000000000000002
40
0.089999999999999997
40
0.099999999999999992
40
0.10999999999999999
40
0.11999999999999998
40
0.12999999999999998
40
0.13999999999999999
40
0.14999999999999999
40
0.16
40
0.17000000000000001
40
0.18000000000000002
40
0.19000000000000003
40
0.20000000000000004
40
0.21000000000000005
40
0.22000000000000006
40
0.23000000000000007
40
0.24000000000000007
40
0.25000000000000006
40
0.26000000000000006
40
0.27000000000000007
40
0.28000000000000008
40
0.29000000000000009
40
0.3000000000000001
40
0.31000000000000011
40
0.32000000000000012
40
0.33000000000000013
40
0.34000000000000014
40
0.35000000000000014
40
0.36000000000000015
40
0.37000000000000016
40
0.38000000000000017
40
0.39000000000000018
40
0.40000000000000019
40
0.4100000000000002
40
0.42000000000000021
40
0.43000000000000022
40
0.44000000000000022
40
0.45000000000000023
40
0.46000000000000024
40
0.47000000000000025
40
0.48000000000000026
40
0.49000000000000027
40
0.50000000000000022
40
0.51000000000000023
40
0.52000000000000024
40
0.53000000000000025
40
0.54000000000000026
40
0.55000000000000027
40
0.56000000000000028
40
0.57000000000000028
40
0.58000000000000029
40
0.5900000000000003
40
0.60000000000000031
40
0.61000000000000032
40
0.62000000000000033
40
0.63000000000000034
40
0.64000000000000035
40
0.65000000000000036
40
0.66000000000000036
40
0.67000000000000037
40
0.68000000000000038
40
0.69000000000000039
40
0.7000000000000004
40
0.71000000000000041
40
0.72000000000000042
40
0.73000000000000043
40
0.74000000000000044
40
0.75000000000000044
40
0.76000000000000045
40
0.77000000000000046
40
0.78000000000000047
40
0.79000000000000048
40
0.80000000000000049
40
0.8100000000000005
40
0.82000000000000051
40
0.83000000000000052
40
0.84000000000000052
40
0.85000000000000053
40
0.86000000000000054
40
0.87000000000000055
40
0.88000000000000056
40
0.89000000000000057
40
0.90000000000000058
40
0.91000000000000059
40
0.9200000000000006
40
0.9300000000000006
40
0.94000000000000061
40
0.95000000000000062
40
0.96000000000000063
40
0.97000000000000064
40
0.98000000000000065
40
0.99000000000000066
40
1
40
1
40
1
40
1
40
1
40
1
41
1
41
1
41
1
41
1
41
1
41
1
41
1
41
1
41
1
41
1
41
1
41
1
41
1
41
1
41
1
41
1
41
1
41
1
41
1
41
1
41
1
41
1
41
1
41
1
41
1
41
1
41
1
41
1
41
1
41
1
41
1
41
1
41
1
41
1
41
1
41
1
41
1
41
1
41
1
41
1
41
1
41
1
41
1
41
1
41
1
41
1
41
1
41
1
41
1
41
1
41
1
41
1
41
1
41
1
41
1
41
1
41
1
41
1
41
1
41
1
41
1
41
1
41
1
41
1
41
1
41
1
41
1
41
1
41
1
41
1
41
1
41
1
41
1
41
1
41
1
41
1
41
1
41
1
41
1
41
1
41
1
41
1
41
1
41
1
41
1
41
1
41
1
41
1
41
1
41
1
41
1
41
1
41
1
41
1
41
1
41
1
41
1
41
1
41
1
41
1
41
1
41
1
41
1
41
1
41
1
10
0
20
3.0549999999999997
30
0
10
0.019289831772722962
20
3.0221908058659217
30
0
10
0.057873289633885258
20
2.9611070963642225
30
0
10
0.11575985886140339
20
2.8830853957807001
30
0
10
0.19296472417632979
20
2.80627011604789
30
0
10
0.28950861169718606
20
2.7547688231048517
30
0
10
0.38608990306862623
20
2.7452535979072676
30
0
10
0.48270762102251308
20
2.7725773979754247
30
0
10
0.57936042375351671
20
2.8282348506893089
30
0
10
0.67604546547150179
20
2.8991594210866904
30
0
10
0.77276696386015997
20
2.9699198109766289
30
0
10
0.86954614519384343
20
3.0255221765887157
30
0
10
0.96643182296060881
20
3.0541600926350272
30
0
10
1.0635082468167962
20
3.0496335479063159
30
0
10
1.1609103883242717
20
3.0148064940246391
30
0
10
1.2588046335140521
20
2.9601047885541383
30
0
10
1.3573528525841301
20
2.8995559723381081
30
0
10
1.4566798190877233
20
2.8474442209126005
30
0
10
1.5568433266820911
20
2.8150592828011893
30
0
10
1.6577929288298585
20
2.8065402871616332
30
0
10
1.759377675516238
20
2.8188515500962277
30
0
10
1.8613903248204391
20
2.844863006513255
30
0
10
1.9636019304588563
20
2.8756116649846892
30
0
10
2.0657980447161282
20
2.9026983513363476
30
0
10
2.1678200650696509
20
2.9211283206037479
30
0
10
2.2695751893151166
20
2.9294685603626642
30
0
10
2.371028275432848
20
2.9285160665104226
30
0
10
2.472200117518375
20
2.9203997506120354
30
0
10
2.5731614849462363
20
2.9075774361953171
30
0
10
2.6740331142304186
20
2.8916898892475023
30
0
10
2.7749589291284411
20
2.8736092647205109
30
0
10
2.8760709645768738
20
2.8539380403939996
30
0
10
2.9774550926574994
20
2.8333796052642644
30
0
10
3.0791206431708522
20
2.8131151338559199
30
0
10
3.1809573332353169
20
2.7953001904834505
30
0
10
3.2827759763726778
20
2.7826372182064301
30
0
10
3.3843707878743268
20
2.7777029951987369
30
0
10
3.4855762123339842
20
2.7823394088253686
30
0
10
3.5863218748898595
20
2.7970624998696159
30
0
10
3.6866994144791687
20
2.820343791660092
30
0
10
3.7869108166771359
20
2.8491749782602316
30
0
10
3.887198809502634
20
2.8798302355647061
30
0
10
3.9877819591249377
20
2.9085701478398569
30
0
10
4.0887915527847039
20
2.9323431039347545
30
0
10
4.1901976633939544
20
2.9495597246964107
30
0
10
4.2918613086119723
20
2.9599607041250446
30
0
10
4.3936023737541765
20
2.9643663234597817
30
0
10
4.4952626299949241
20
2.9644713751616614
30
0
10
4.5967691220155702
20
2.9626159342581104
30
0
10
4.6982020731721761
20
2.9615825873999717
30
0
10
4.7997235459651515
20
2.963899279594254
30
0
10
4.9014992290343748
20
2.9711145803447825
30
0
10
5.0036236237843577
20
2.9830955095903096
30
0
10
5.106041775200735
20
2.9972846585969752
30
0
10
5.2084779021116798
20
3.0080564248171422
30
0
10
5.310546046098108
20
3.0087440633038054
30
0
10
5.4118567270259739
20
2.9936225894196156
30
0
10
5.5121217783217205
20
2.9598304880333695
30
0
10
5.6112676474042829
20
2.9095001604642508
30
0
10
5.7095229844716764
20
2.8512757274210165
30
0
10
5.8072965227774507
20
2.7968749664940358
30
0
10
5.9050742674383816
20
2.7581004782686986
30
0
10
6.0033101236713282
20
2.7437095281692212
30
0
10
6.1023175387185402
20
2.7562725115781364
30
0
10
6.2021656053407099
20
2.7892280434843402
30
0
10
6.3027508080321306
20
2.8307477775872902
30
0
10
6.4038633317103297
20
2.867409007303344
30
0
10
6.5052548038085121
20
2.8878889094572022
30
0
10
6.6067066198983673
20
2.8867634680101171
30
0
10
6.7080945396852156
20
2.8679473098711989
30
0
10
6.8093700656912359
20
2.8408237269598851
30
0
10
6.9105456746445046
20
2.8166457719021749
30
0
10
7.0116784637614167
20
2.8049482166258803
30
0
10
7.1128549091975879
20
2.8096964062898424
30
0
10
7.2141740332271729
20
2.8262901192027434
30
0
10
7.3157214481607413
20
2.845659983596986
30
0
10
7.4175432391820371
20
2.8578136120925719
30
0
10
7.5196218071037997
20
2.8553872810257879
30
0
10
7.6218463470233591
20
2.8376738167410904
30
0
10
7.723999091906224
20
2.8130135959706242
30
0
10
7.8258107784507374
20
2.7938478106307905
30
0
10
7.9270076496447537
20
2.7926468162278937
30
0
10
8.0273592055180991
20
2.8178211216279649
30
0
10
8.1267316540380712
20
2.8688743315109688
30
0
10
8.225119899821447
20
2.9342984115424287
30
0
10
8.3226167778058198
20
2.9973416738245988
30
0
10
8.4193938097167624
20
3.0404296648271059
30
0
10
8.5156774416940184
20
3.0499249273661695
30
0
10
8.6117272964233713
20
3.0211971619459983
30
0
10
8.7078134626575761
20
2.9622162781652688
30
0
10
8.8041932817173443
20
2.8883253662728343
30
0
10
8.9010881160991069
20
2.8181079855635653
30
0
10
8.9986600346311487
20
2.7688240674506703
30
0
10
9.0969886735903334
20
2.7520530764961864
30
0
10
9.1960474804248342
20
2.7691803119222254
30
0
10
9.2957340970612936
20
2.8141536669245673
30
0
10
9.3959012030680693
20
2.8762926713487764
30
0
10
9.496387317663622
20
2.9430900693127722
30
0
10
9.5970472216145559
20
3.0029810237250021
30
0
10
9.6977835852113223
20
3.0482180326004586
30
0
10
9.798538215276924
20
3.0741785948694043
30
0
10
9.8791332126168925
20
3.0776791001347692
30
0
10
9.939570205933423
20
3.0702493461664107
30
0
10
9.9798574209084308
20
3.0608278344277013
30
0
10
10
20
3.0549999999999997
30
0
0
ENDSEC
0
SECTION
2
OBJECTS
0
DICTIONARY
5
C
100
AcDbDictionary
3
ACAD_GROUP
350
D
3
ACAD_MLINESTYLE
350
17
0
DICTIONARY
5
D
100
AcDbDictionary
0
DICTIONARY
5
1A
330
C
100
AcDbDictionary
0
DICTIONARY
5
17
100
AcDbDictionary
0
ENDSEC
0
EOF
