0
SECTION
2
HEADER
9
$INSUNITS
70
4
9
$ACADVER
1
AC1014
9
$HANDSEED
5
FFFF
0
ENDSEC
0
SECTION
2
TABLES
0
TABLE
2
VPORT
5
8
100
AcDbSymbolTable
0
ENDTAB
0
TABLE
2
LTYPE
5
5
100
AcDbSymbolTable
0
LTYPE
5
14
100
AcDbSymbolTableRecord
100
AcDbLinetypeTableRecord
2
BYBLOCK
70
0
0
LTYPE
5
15
100
AcDbSymbolTableRecord
100
AcDbLinetypeTableRecord
2
BYLAYER
70
0
0
ENDTAB
0
TABLE
2
LAYER
5
2
100
AcDbSymbolTable
70
2
0
LAYER
5
50
100
AcDbSymbolTableRecord
100
AcDbLayerTableRecord
2
0
70
0
6
CONTINUOUS
0
ENDTAB
0
TABLE
2
STYLE
5
3
100
AcDbSymbolTable
70
1
0
STYLE
5
11
100
AcDbSymbolTableRecord
100
AcDbTextStyleTableRecord
2
STANDARD
70
0
0
ENDTAB
0
TABLE
2
VIEW
5
6
100
AcDbSymbolTable
70
0
0
ENDTAB
0
TABLE
2
UCS
5
7
100
AcDbSymbolTable
70
0
0
ENDTAB
0
TABLE
2
APPID
5
9
100
AcDbSymbolTable
70
2
0
APPID
5
12
100
AcDbSymbolTableRecord
100
AcDbRegAppTableRecord
2
ACAD
70
0
0
ENDTAB
0
TABLE
2
DIMSTYLE
5
A
100
AcDbSymbolTable
70
1
0
ENDTAB
0
TABLE
2
BLOCK_RECORD
5
1
100
AcDbSymbolTable
70
1
0
BLOCK_RECORD
5
1F
100
AcDbSymbolTableRecord
100
AcDbBlockTableRecord
2
*MODEL_SPACE
0
BLOCK_RECORD
5
1B
100
AcDbSymbolTableRecord
100
AcDbBlockTableRecord
2
*PAPER_SPACE
0
ENDTAB
0
ENDSEC
0
SECTION
2
BLOCKS
0
BLOCK
5
20
100
AcDbEntity
100
AcDbBlockBegin
2
*MODEL_SPACE
0
ENDBLK
5
21
100
AcDbEntity
100
AcDbBlockEnd
0
BLOCK
5
1C
100
AcDbEntity
100
AcDbBlockBegin
2
*PAPER_SPACE
0
ENDBLK
5
1D
100
AcDbEntity
100
AcDbBlockEnd
0
ENDSEC
0
SECTION
2
ENTITIES
0
SPLINE
5
100
100
AcDbEntity
8
0
100
AcDbSpline
70
4
71
5
72
16
73
10
74
0
42
0.000000001
43
0.0000000001
44
0.0000000001
40
0
40
0
40
0
40
0
40
0
40
0
40
0.20000000000000001
40
0.40000000000000002
40
0.60000000000000009
40
0.80000000000000004
40
1
40
1
40
1
40
1
40
1
40
1
41
1
41
1
41
1
41
1
41
1
41
1
41
1
41
1
41
1
41
1
10
0
20
-0.055000000000000049
30
0
10
0
20
0.069400000000207365
30
0
10
0
20
0.31820000000056603
30
0
10
0
20
0.69140000000093593
30
0
10
0
20
1.1890000000011365
30
0
10
0
20
1.8110000000010393
30
0
10
0
20
2.3086000000007481
30
0
10
0
20
2.6818000000004227
30
0
10
0
20
2.9306000000001484
30
0
10
0
20
3.0549999999999997
30
0
0
SPLINE
5
101
100
AcDbEntity
8
0
100
AcDbSpline
70
4
71
5
72
16
73
10
74
0
42
0.000000001
43
0.0000000001
44
0.0000000001
40
0
40
0
40
0
40
0
40
0
40
0
40
0.20000000000000001
40
0.40000000000000002
40
0.60000000000000009
40
0.80000000000000004
40
1
40
1
40
1
40
1
40
1
40
1
41
1
41
1
41
1
41
1
41
1
41
1
41
1
41
1
41
1
41
1
10
10
20
-0.055000000000000049
30
0
10
9.9999999999997495
20
0.069400000000207365
30
0
10
9.9999999999993197
20
0.31820000000056603
30
0
10
9.9999999999989129
20
0.69140000000093593
30
0
10
9.9999999999987672
20
1.1890000000011365
30
0
10
9.9999999999990248
20
1.8110000000010393
30
0
10
9.9999999999993889
20
2.3086000000007481
30
0
10
9.9999999999996998
20
2.6818000000004227
30
0
10
9.9999999999999005
20
2.9306000000001484
30
0
10
10
20
3.0549999999999997
30
0
0
SPLINE
5
102
100
AcDbEntity
8
0
100
AcDbSpline
70
4
71
5
72
16
73
10
74
0
42
0.000000001
43
0.0000000001
44
0.0000000001
40
0
40
0
40
0
40
0
40
0
40
0
40
0.20000000000000001
40
0.40000000000000002
40
0.60000000000000009
40
0.80000000000000004
40
1
40
1
40
1
40
1
40
1
40
1
41
1
41
1
41
1
41
1
41
1
41
1
41
1
41
1
41
1
41
1
10
0
20
1.5274999999999999
30
0
10
0.40000000000047375
20
1.5274999999999856
30
0
10
1.2000000000012774
20
1.5274999999999614
30
0
10
2.4000000000020547
20
1.527499999999943
30
0
10
4.0000000000023546
20
1.5274999999999479
30
0
10
6.0000000000019584
20
1.5274999999999812
30
0
10
7.6000000000012928
20
1.5275000000000025
30
0
10
8.800000000000697
20
1.5275000000000083
30
0
10
9.6000000000002395
20
1.5275000000000039
30
0
10
10
20
1.5274999999999999
30
0
0
SPLINE
5
103
100
AcDbEntity
8
0
100
AcDbSpline
70
4
71
5
72
111
73
105
74
0
42
0.000000001
43
0.0000000001
44
0.0000000001
40
0
40
0
40
0
40
0
40
0
40
0
40
0.01
40
0.02
40
0.029999999999999999
40
0.040000000000000001
40
0.050000000000000003
40
0.060000000000000005
40
0.070000000000000007
40
0.080000000000000002
40
0.089999999999999997
40
0.099999999999999992
40
0.10999999999999999
40
0.11999999999999998
40
0.12999999999999998
40
0.13999999999999999
40
0.14999999999999999
40
0.16
40
0.17000000000000001
40
0.18000000000000002
40
0.19000000000000003
40
0.20000000000000004
40
0.21000000000000005
40
0.22000000000000006
40
0.23000000000000007
40
0.24000000000000007
40
0.25000000000000006
40
0.26000000000000006
40
0.27000000000000007
40
0.28000000000000008
40
0.29000000000000009
40
0.3000000000000001
40
0.31000000000000011
40
0.32000000000000012
40
0.33000000000000013
40
0.34000000000000014
40
0.35000000000000014
40
0.36000000000000015
40
0.37000000000000016
40
0.38000000000000017
40
0.39000000000000018
40
0.40000000000000019
40
0.4100000000000002
40
0.42000000000000021
40
0.43000000000000022
40
0.44000000000000022
40
0.45000000000000023
40
0.46000000000000024
40
0.47000000000000025
40
0.48000000000000026
40
0.49000000000000027
40
0.50000000000000022
40
0.51000000000000023
40
0.52000000000000024
40
0.53000000000000025
40
0.54000000000000026
40
0.55000000000000027
40
0.56000000000000028
40
0.57000000000000028
40
0.58000000000000029
40
0.5900000000000003
40
0.60000000000000031
40
0.61000000000000032
40
0.62000000000000033
40
0.63000000000000034
40
0.64000000000000035
40
0.65000000000000036
40
0.66000000000000036
40
0.67000000000000037
40
0.68000000000000038
40
0.69000000000000039
40
0.7000000000000004
40
0.71000000000000041
40
0.72000000000000042
40
0.73000000000000043
40
0.74000000000000044
40
0.75000000000000044
40
0.76000000000000045
40
0.77000000000000046
40
0.78000000000000047
40
0.79000000000000048
40
0.80000000000000049
40
0.8100000000000005
40
0.82000000000000051
40
0.83000000000000052
40
0.84000000000000052
40
0.85000000000000053
40
0.86000000000000054
40
0.87000000000000055
40
0.88000000000000056
40
0.89000000000000057
40
0.90000000000000058
40
0.91000000000000059
40
0.9200000000000006
40
0.9300000000000006
40
0.94000000000000061
40
0.95000000000000062
40
0.96000000000000063
40
0.97000000000000064
40
0.98000000000000065
40
0.99000000000000066
40
1
40
1
40
1
40
1
40
1
40
1
41
1
41
1
41
1
41
1
41
1
41
1
41
1
41
1
41
1
41
1
41
1
41
1
41
1
41
1
41
1
41
1
41
1
41
1
41
1
41
1
41
1
41
1
41
1
41
1
41
1
41
1
41
1
41
1
41
1
41
1
41
1
41
1
41
1
41
1
41
1
41
1
41
1
41
1
41
1
41
1
41
1
41
1
41
1
41
1
41
1
41
1
41
1
41
1
41
1
41
1
41
1
41
1
41
1
41
1
41
1
41
1
41
1
41
1
41
1
41
1
41
1
41
1
41
1
41
1
41
1
41
1
41
1
41
1
41
1
41
1
41
1
41
1
41
1
41
1
41
1
41
1
41
1
41
1
41
1
41
1
41
1
41
1
41
1
41
1
41
1
41
1
41
1
41
1
41
1
41
1
41
1
41
1
41
1
41
1
41
1
41
1
41
1
41
1
41
1
41
1
41
1
41
1
41
1
41
1
41
1
10
0
20
-0.055000000000000049
30
0
10
0.019396652258038709
20
-0.044402680557549937
30
0
10
0.058304369278216556
20
-0.024380455590275355
30
0
10
0.1170091815383416
20
0.0021356450543687229
30
0
10
0.19596885659381541
20
0.03045478393319891
30
0
10
0.29577942445067951
20
0.054380513865010596
30
0
10
0.39659991914289711
20
0.067602572384236323
30
0
10
0.49822713361227372
20
0.071670402594783203
30
0
10
0.60032201275925046
20
0.069171882271909096
30
0
10
0.70237369581718467
20
0.064006214947923745
30
0
10
0.80382362259116202
20
0.060669645695458296
30
0
10
0.90419259559913456
20
0.063524642065461032
30
0
10
1.0032056430036769
20
0.0760792373224565
30
0
10
1.10092056209301
20
0.1002523447901979
30
0
10
1.1978476639561793
20
0.13566993514015352
30
0
10
1.2947321957082103
20
0.1800541585962219
30
0
10
1.3923476514436413
20
0.22958734118058627
30
0
10
1.4912807349899013
20
0.27927727934101026
30
0
10
1.5917297444417948
20
0.32333710520518566
30
0
10
1.6932701918312054
20
0.35551541732424025
30
0
10
1.7950857780446208
20
0.37015285258655695
30
0
10
1.8962366183585868
20
0.36328982345653094
30
0
10
1.9959166457036803
20
0.33377653595405504
30
0
10
2.0937094224838666
20
0.28433862549300049
30
0
10
2.1898615954885052
20
0.22278575576247112
30
0
10
2.2850676605029654
20
0.15976580329825543
30
0
10
2.3802373284363894
20
0.10642284821912087
30
0
10
2.4762610040093893
20
0.071984932928674028
30
0
10
2.5737953728951579
20
0.06162264347725311
30
0
10
2.6729905663604079
20
0.073565764975504544
30
0
10
2.7735745871723139
20
0.10069570157027466
30
0
10
2.8750425938105688
20
0.1334316040418288
30
0
10
2.9768162435670997
20
0.16227912547583229
30
0
10
3.0784034633303663
20
0.18030025893394644
30
0
10
3.1795890419651447
20
0.18618437190233414
30
0
10
3.2803955191299048
20
0.1831132109989928
30
0
10
3.3809792409059032
20
0.17646119324650267
30
0
10
3.481545873712836
20
0.17182438722559473
30
0
10
3.5822636625037529
20
0.17306292368779952
30
0
10
3.6831624148207882
20
0.17994450810609447
30
0
10
3.784166467960544
20
0.18924837721147555
30
0
10
3.8851558999165023
20
0.19658665401531247
30
0
10
3.9860196192863429
20
0.19802670092738628
30
0
10
4.0867079635412766
20
0.1916824220922593
30
0
10
4.1872958212270337
20
0.17962228033315869
30
0
10
4.2879322720299253
20
0.16643488799118064
30
0
10
4.3887736642730104
20
0.15730625871889406
30
0
10
4.4899208975592
20
0.15622583738173665
30
0
10
4.5913586998459222
20
0.16423903680108778
30
0
10
4.6928838602746454
20
0.17740797703958641
30
0
10
4.7941844568524692
20
0.18880308413624458
30
0
10
4.894933898865875
20
0.1908915246119858
30
0
10
4.9948808155676563
20
0.17781273799995748
30
0
10
5.0939380149288489
20
0.14763290846026272
30
0
10
5.1922792737136554
20
0.10479808839937861
30
0
10
5.2902481135444637
20
0.05779227748726487
30
0
10
5.388258003069927
20
0.016578245309689245
30
0
10
5.486693314274258
20
-0.0099465952353058398
30
0
10
5.5858155471404638
20
-0.016350474197725787
30
0
10
5.685652444301037
20
-0.0035291761885251445
30
0
10
5.7860580180046988
20
0.023030125676621601
30
0
10
5.8867960335534084
20
0.055613165865698033
30
0
10
5.9876168541733685
20
0.086470541558676423
30
0
10
6.0883331369147484
20
0.10996472804471022
30
0
10
6.188906439086038
20
0.12504759603268048
30
0
10
6.2894058776468977
20
0.13392182340819608
30
0
10
6.3899503408446909
20
0.14021692595853297
30
0
10
6.4906556395231583
20
0.14730312001576407
30
0
10
6.591581757690137
20
0.15662933752805247
30
0
10
6.6926742167942432
20
0.16583033412202366
30
0
10
6.7937979903054675
20
0.17031941509887352
30
0
10
6.8947801148343366
20
0.16520073344117614
30
0
10
6.9954494123556152
20
0.14708852374218143
30
0
10
7.095676787062307
20
0.11591469247942843
30
0
10
7.1954170339662129
20
0.076883139196974176
30
0
10
7.2946981521535381
20
0.038302223550335343
30
0
10
7.3936081555693489
20
0.0092520587416299593
30
0
10
7.4922830290283393
20
-0.0027258002401496575
30
0
10
7.5908938204924343
20
0.0061407761293052077
30
0
10
7.6896352362059286
20
0.033346852542101277
30
0
10
7.7886950894546514
20
0.072009789719989101
30
0
10
7.8882229020355679
20
0.11309163934994239
30
0
10
7.9882976233972443
20
0.14754320723777448
30
0
10
8.0888983407930706
20
0.16838891578357695
30
0
10
8.1898665696090625
20
0.17308236104218344
30
0
10
8.2909607915058903
20
0.16266207733288157
30
0
10
8.3919215196349413
20
0.14052352615235822
30
0
10
8.4925336581861224
20
0.11131976206100078
30
0
10
8.5926875988438791
20
0.079831484050612564
30
0
10
8.69244742813102
20
0.049789942701942216
30
0
10
8.7919957518357545
20
0.023855846650246676
30
0
10
8.8915696779800619
20
0.0036909457710327465
30
0
10
8.9913991167535947
20
-0.010007180851763362
30
0
10
9.0916462430169283
20
-0.01745016307175476
30
0
10
9.1923386978632902
20
-0.01972742598702271
30
0
10
9.2934011151718217
20
-0.018529035348292592
30
0
10
9.394694997280622
20
-0.015850207867280457
30
0
10
9.4960557456616517
20
-0.013700756210172272
30
0
10
9.5973303698738839
20
-0.01381675099573499
30
0
10
9.6984162586513296
20
-0.017359595590203922
30
0
10
9.799252227053314
20
-0.025022099517454727
30
0
10
9.8796966070033516
20
-0.034724154498875628
30
0
10
9.9398991434855084
20
-0.044060974843235901
30
0
10
9.9799760649046849
20
-0.051201067860974545
30
0
10
10
20
-0.055000000000000049
30
0
0
SPLINE
5
104
100
AcDbEntity
8
0
100
AcDbSpline
70
4
71
5
72
111
73
105
74
0
42
0.000000001
43
0.0000000001
44
0.0000000001
40
0
40
0
40
0
40
0
40
0
40
0
40
0.01
40
0.02
40
0.029999999999999999
40
0.040000000000000001
40
0.050000000000000003
40
0.060000000000000005
40
0.070000000000000007
40
0.080000000000000002
40
0.089999999999999997
40
0.099999999999999992
40
0.10999999999999999
40
0.11999999999999998
40
0.12999999999999998
40
0.13999999999999999
40
0.14999999999999999
40
0.16
40
0.17000000000000001
40
0.18000000000000002
40
0.19000000000000003
40
0.20000000000000004
40
0.21000000000000005
40
0.22000000000000006
40
0.23000000000000007
40
0.24000000000000007
40
0.25000000000000006
40
0.26000000000000006
40
0.27000000000000007
40
0.28000000000000008
40
0.29000000000000009
40
0.3000000000000001
40
0.31000000000000011
40
0.32000000000000012
40
0.33000000000000013
40
0.34000000000000014
40
0.35000000000000014
40
0.36000000000000015
40
0.37000000000000016
40
0.38000000000000017
40
0.39000000000000018
40
0.40000000000000019
40
0.4100000000000002
40
0.42000000000000021
40
0.43000000000000022
40
0.44000000000000022
40
0.45000000000000023
40
0.46000000000000024
40
0.47000000000000025
40
0.48000000000000026
40
0.49000000000000027
40
0.50000000000000022
40
0.51000000000000023
40
0.52000000000000024
40
0.53000000000000025
40
0.54000000000000026
40
0.55000000000000027
40
0.56000000000000028
40
0.57000000000000028
40
0.58000000000000029
40
0.5900000000000003
40
0.60000000000000031
40
0.61000000000000032
40
0.62000000000000033
40
0.63000000000000034
40
0.64000000000000035
40
0.65000000000000036
40
0.66000000000000036
40
0.67000000000000037
40
0.68000000000000038
40
0.69000000000000039
40
0.7000000000000004
40
0.71000000000000041
40
0.72000000000000042
40
0.73000000000000043
40
0.74000000000000044
40
0.75000000000000044
40
0.76000000000000045
40
0.77000000000000046
40
0.78000000000000047
40
0.79000000000000048
40
0.80000000000000049
40
0.8100000000000005
40
0.82000000000000051
40
0.83000000000000052
40
0.84000000000000052
40
0.85000000000000053
40
0.86000000000000054
40
0.87000000000000055
40
0.88000000000000056
40
0.89000000000000057
40
0.90000000000000058
40
0.91000000000000059
40
0.9200000000000006
40
0.9300000000000006
40
0.94000000000000061
40
0.95000000000000062
40
0.96000000000000063
40
0.97000000000000064
40
0.98000000000000065
40
0.99000000000000066
40
1
40
1
40
1
40
1
40
1
40
1
41
1
41
1
41
1
41
1
41
1
41
1
41
1
41
1
41
1
41
1
41
1
41
1
41
1
41
1
41
1
41
1
41
1
41
1
41
1
41
1
41
1
41
1
41
1
41
1
41
1
41
1
41
1
41
1
41
1
41
1
41
1
41
1
41
1
41
1
41
1
41
1
41
1
41
1
41
1
41
1
41
1
41
1
41
1
41
1
41
1
41
1
41
1
41
1
41
1
41
1
41
1
41
1
41
1
41
1
41
1
41
1
41
1
41
1
41
1
41
1
41
1
41
1
41
1
41
1
41
1
41
1
41
1
41
1
41
1
41
1
41
1
41
1
41
1
41
1
41
1
41
1
41
1
41
1
41
1
41
1
41
1
41
1
41
1
41
1
41
1
41
1
41
1
41
1
41
1
41
1
41
1
41
1
41
1
41
1
41
1
41
1
41
1
41
1
41
1
41
1
41
1
41
1
41
1
41
1
41
1
10
0
20
3.0549999999999997
30
0
10
0.020232474880369691
20
3.0525102063615757
30
0
10
0.060680115307116117
20
3.0470832595060013
30
0
10
0.12129964641219262
20
3.0376007313466697
30
0
10
0.20202182517792794
20
3.0222729599004423
30
0
10
0.3027666161406275
20
2.9989754830575444
30
0
10
0.40339941500650289
20
2.9725582057717173
30
0
10
0.50401181677828766
20
2.9450525605115772
30
0
10
0.60475758880578134
20
2.919866286484158
30
0
10
0.70586493909166803
20
2.9020654520620064
30
0
10
0.80754925843779735
20
2.8967416246834548
30
0
10
0.90992691486501487
20
2.9074036102764977
30
0
10
1.0129333050373142
20
2.9344413805491323
30
0
10
1.1162280669448184
20
2.973366616408887
30
0
10
1.2191373027736214
20
3.0136996803014133
30
0
10
1.320866262932807
20
3.0425886412582726
30
0
10
1.4206902606989436
20
3.0480446303347843
30
0
10
1.5181440483318165
20
3.0221563572021193
30
0
10
1.6132351979386392
20
2.9647094260580542
30
0
10
1.7065775664141722
20
2.8854505179095624
30
0
10
1.7991266152040546
20
2.7995940083449531
30
0
10
1.8919710752630214
20
2.7242859158168837
30
0
10
1.986097015991761
20
2.6745966335261393
30
0
10
2.0821770911773059
20
2.6599470452281548
30
0
10
2.180313245194359
20
2.6797283770554179
30
0
10
2.280172719346095
20
2.7257489901921734
30
0
10
2.381180273832439
20
2.7856596431398146
30
0
10
2.4826952202642185
20
2.8461098688047883
30
0
10
2.5841840469904653
20
2.8958398658985112
30
0
10
2.6854230243663575
20
2.929262501042122
30
0
10
2.7864374890206518
20
2.9457040183294794
30
0
10
2.8873907082201051
20
2.9478025751768437
30
0
10
2.9884883864704372
20
2.9401881529425156
30
0
10
3.0898812189345737
20
2.9280781663333215
30
0
10
3.1915561039217493
20
2.9158239820420335
30
0
10
3.2933886302202753
20
2.906592488071392
30
0
10
3.395214956431825
20
2.9021959874222825
30
0
10
3.4968972426183531
20
2.9028624685776276
30
0
10
3.5983905791317468
20
2.9070419647338892
30
0
10
3.6998126985073054
20
2.9111631260537818
30
0
10
3.8013596124938811
20
2.910940439591176
30
0
10
3.9032157294010972
20
2.9027375188608207
30
0
10
4.0054676358946564
20
2.8848843439143392
30
0
10
4.1080125540643762
20
2.8590744928954512
30
0
10
4.2104793963532972
20
2.8315637360513457
30
0
10
4.3123767524412004
20
2.8107454170547461
30
0
10
4.4132329962779444
20
2.8048524072024916
30
0
10
4.5127343734138368
20
2.8196905646960726
30
0
10
4.6108755929349847
20
2.8561742250947697
30
0
10
4.7080715112692948
20
2.9084784893240156
30
0
10
4.8049692241274418
20
2.9669423518306779
30
0
10
4.9022894339702425
20
3.0205071403416097
30
0
10
5.0006570668769914
20
3.0593261748983656
30
0
10
5.1004354902049167
20
3.0773151732015918
30
0
10
5.2015616052366926
20
3.0746937734648556
30
0
10
5.3036875941659192
20
3.0560695804537437
30
0
10
5.406320611953336
20
3.0285585924246656
30
0
10
5.5089607183909264
20
2.9999174427236914
30
0
10
5.6112451263365672
20
2.9766167240008068
30
0
10
5.7130737921637111
20
2.9620965571762796
30
0
10
5.8145204590522255
20
2.9572008450243032
30
0
10
5.9157577777654415
20
2.9604407550552976
30
0
10
6.0169794946173969
20
2.9683524699949171
30
0
10
6.1183184593192976
20
2.9757412025300498
30
0
10
6.2197826724290941
20
2.976184571193154
30
0
10
6.321292994096507
20
2.9637364179647552
30
0
10
6.4227080852632668
20
2.9345613213464934
30
0
10
6.5238540208174003
20
2.8884348919272673
30
0
10
6.6245524411313284
20
2.8306850300596009
30
0
10
6.7246475431848571
20
2.7727686945811012
30
0
10
6.8240244821821472
20
2.7282390852188043
30
0
10
6.9226302578249888
20
2.7093605191915944
30
0
10
7.0204916659257508
20
2.723690417844717
30
0
10
7.1177392465600198
20
2.7701501986714794
30
0
10
7.2146144162801509
20
2.8369045106170954
30
0
10
7.3114095811725619
20
2.9067497549187808
30
0
10
7.4084178267953398
20
2.9614107513852583
30
0
10
7.5058796895574762
20
2.9861946660934269
30
0
10
7.6039292532162222
20
2.974653108305632
30
0
10
7.7025458381571728
20
2.932795059484437
30
0
10
7.801611869532735
20
2.8743756942599892
30
0
10
7.9009651270138548
20
2.8166609696955076
30
0
10
8.0004530253851716
20
2.7760189128385431
30
0
10
8.0999861575118342
20
2.7635758369691192
30
0
10
8.1995918270254755
20
2.7808667355512728
30
0
10
8.2993662945741562
20
2.8224915233487238
30
0
10
8.3994275522010682
20
2.8787323518369297
30
0
10
8.4998679232815135
20
2.9381824797716138
30
0
10
8.6007067214853503
20
2.9903681297456153
30
0
10
8.7018428541321491
20
3.0283743896324977
30
0
10
8.8031000178128966
20
3.0484772486540717
30
0
10
8.9042721113667493
20
3.0497779092875237
30
0
10
9.0051680832002639
20
3.0338360227430163
30
0
10
9.1056580749259908
20
3.0043102549352168
30
0
10
9.2057160690231026
20
2.9665831092820065
30
0
10
9.3053899024762501
20
2.9270494585879154
30
0
10
9.4047743336189225
20
2.8924173763287082
30
0
10
9.5039831670365373
20
2.8690098477638037
30
0
10
9.6031214051871103
20
2.8620540317009109
30
0
10
9.7022584909507277
20
2.8750087909080833
30
0
10
9.8014362143298062
20
2.9099444518464708
30
0
10
9.8808275442897102
20
2.9562972766473488
30
0
10
9.9404018098266569
20
3.0015648521745479
30
0
10
9.980131658029606
20
3.0364104187764083
30
0
10
10
20
3.0549999999999997
30
0
0
ENDSEC
0
SECTION
2
OBJECTS
0
DICTIONARY
5
C
100
AcDbDictionary
3
ACAD_GROUP
350
D
3
ACAD_MLINESTYLE
350
17
0
DICTIONARY
5
D
100
AcDbDictionary
0
DICTIONARY
5
1A
330
C
100
AcDbDictionary
0
DICTIONARY
5
17
100
AcDbDictionary
0
ENDSEC
0
EOF
