0
SECTION
2
HEADER
9
$INSUNITS
70
4
9
$ACADVER
1
AC1014
9
$HANDSEED
5
FFFF
0
ENDSEC
0
SECTION
2
TABLES
0
TABLE
2
VPORT
5
8
100
AcDbSymbolTable
0
ENDTAB
0
TABLE
2
LTYPE
5
5
100
AcDbSymbolTable
0
LTYPE
5
14
100
AcDbSymbolTableRecord
100
AcDbLinetypeTableRecord
2
BYBLOCK
70
0
0
LTYPE
5
15
100
AcDbSymbolTableRecord
100
AcDbLinetypeTableRecord
2
BYLAYER
70
0
0
ENDTAB
0
TABLE
2
LAYER
5
2
100
AcDbSymbolTable
70
2
0
LAYER
5
50
100
AcDbSymbolTableRecord
100
AcDbLayerTableRecord
2
0
70
0
6
CONTINUOUS
0
ENDTAB
0
TABLE
2
STYLE
5
3
100
AcDbSymbolTable
70
1
0
STYLE
5
11
100
AcDbSymbolTableRecord
100
AcDbTextStyleTableRecord
2
STANDARD
70
0
0
ENDTAB
0
TABLE
2
VIEW
5
6
100
AcDbSymbolTable
70
0
0
ENDTAB
0
TABLE
2
UCS
5
7
100
AcDbSymbolTable
70
0
0
ENDTAB
0
TABLE
2
APPID
5
9
100
AcDbSymbolTable
70
2
0
APPID
5
12
100
AcDbSymbolTableRecord
100
AcDbRegAppTableRecord
2
ACAD
70
0
0
ENDTAB
0
TABLE
2
DIMSTYLE
5
A
100
AcDbSymbolTable
70
1
0
ENDTAB
0
TABLE
2
BLOCK_RECORD
5
1
100
AcDbSymbolTable
70
1
0
BLOCK_RECORD
5
1F
100
AcDbSymbolTableRecord
100
AcDbBlockTableRecord
2
*MODEL_SPACE
0
BLOCK_RECORD
5
1B
100
AcDbSymbolTableRecord
100
AcDbBlockTableRecord
2
*PAPER_SPACE
0
ENDTAB
0
ENDSEC
0
SECTION
2
BLOCKS
0
BLOCK
5
20
100
AcDbEntity
100
AcDbBlockBegin
2
*MODEL_SPACE
0
ENDBLK
5
21
100
AcDbEntity
100
AcDbBlockEnd
0
BLOCK
5
1C
100
AcDbEntity
100
AcDbBlockBegin
2
*PAPER_SPACE
0
ENDBLK
5
1D
100
AcDbEntity
100
AcDbBlockEnd
0
ENDSEC
0
SECTION
2
ENTITIES
0
SPLINE
5
100
100
AcDbEntity
8
0
100
AcDbSpline
70
4
71
5
72
16
73
10
74
0
42
0.000000001
43
0.0000000001
44
0.0000000001
40
0
40
0
40
0
40
0
40
0
40
0
40
0.20000000000000001
40
0.40000000000000002
40
0.60000000000000009
40
0.80000000000000004
40
1
40
1
40
1
40
1
40
1
40
1
41
1
41
1
41
1
41
1
41
1
41
1
41
1
41
1
41
1
41
1
10
0
20
-0.055000000000000049
30
0
10
0
20
0.069400000000207365
30
0
10
0
20
0.31820000000056603
30
0
10
0
20
0.69140000000093593
30
0
10
0
20
1.1890000000011365
30
0
10
0
20
1.8110000000010393
30
0
10
0
20
2.3086000000007481
30
0
10
0
20
2.6818000000004227
30
0
10
0
20
2.9306000000001484
30
0
10
0
20
3.0549999999999997
30
0
0
SPLINE
5
101
100
AcDbEntity
8
0
100
AcDbSpline
70
4
71
5
72
16
73
10
74
0
42
0.000000001
43
0.0000000001
44
0.0000000001
40
0
40
0
40
0
40
0
40
0
40
0
40
0.20000000000000001
40
0.40000000000000002
40
0.60000000000000009
40
0.80000000000000004
40
1
40
1
40
1
40
1
40
1
40
1
41
1
41
1
41
1
41
1
41
1
41
1
41
1
41
1
41
1
41
1
10
10
20
-0.055000000000000049
30
0
10
9.9999999999997495
20
0.069400000000207365
30
0
10
9.9999999999993197
20
0.31820000000056603
30
0
10
9.9999999999989129
20
0.69140000000093593
30
0
10
9.9999999999987672
20
1.1890000000011365
30
0
10
9.9999999999990248
20
1.8110000000010393
30
0
10
9.9999999999993889
20
2.3086000000007481
30
0
10
9.9999999999996998
20
2.6818000000004227
30
0
10
9.9999999999999005
20
2.9306000000001484
30
0
10
10
20
3.0549999999999997
30
0
0
SPLINE
5
102
100
AcDbEntity
8
0
100
AcDbSpline
70
4
71
5
72
16
73
10
74
0
42
0.000000001
43
0.0000000001
44
0.0000000001
40
0
40
0
40
0
40
0
40
0
40
0
40
0.20000000000000001
40
0.40000000000000002
40
0.60000000000000009
40
0.80000000000000004
40
1
40
1
40
1
40
1
40
1
40
1
41
1
41
1
41
1
41
1
41
1
41
1
41
1
41
1
41
1
41
1
10
0
20
1.5274999999999999
30
0
10
0.40000000000047375
20
1.5274999999999856
30
0
10
1.2000000000012774
20
1.5274999999999614
30
0
10
2.4000000000020547
20
1.527499999999943
30
0
10
4.0000000000023546
20
1.5274999999999479
30
0
10
6.0000000000019584
20
1.5274999999999812
30
0
10
7.6000000000012928
20
1.5275000000000025
30
0
10
8.800000000000697
20
1.5275000000000083
30
0
10
9.6000000000002395
20
1.5275000000000039
30
0
10
10
20
1.5274999999999999
30
0
0
SPLINE
5
103
100
AcDbEntity
8
0
100
AcDbSpline
70
4
71
5
72
61
73
55
74
0
42
0.000000001
43
0.0000000001
44
0.0000000001
40
0
40
0
40
0
40
0
40
0
40
0
40
0.02
40
0.040000000000000001
40
0.059999999999999998
40
0.080000000000000002
40
0.10000000000000001
40
0.12000000000000001
40
0.14000000000000001
40
0.16
40
0.17999999999999999
40
0.19999999999999998
40
0.21999999999999997
40
0.23999999999999996
40
0.25999999999999995
40
0.27999999999999997
40
0.29999999999999999
40
0.32000000000000001
40
0.34000000000000002
40
0.36000000000000004
40
0.38000000000000006
40
0.40000000000000008
40
0.4200000000000001
40
0.44000000000000011
40
0.46000000000000013
40
0.48000000000000015
40
0.50000000000000011
40
0.52000000000000013
40
0.54000000000000015
40
0.56000000000000016
40
0.58000000000000018
40
0.6000000000000002
40
0.62000000000000022
40
0.64000000000000024
40
0.66000000000000025
40
0.68000000000000027
40
0.70000000000000029
40
0.72000000000000031
40
0.74000000000000032
40
0.76000000000000034
40
0.78000000000000036
40
0.80000000000000038
40
0.8200000000000004
40
0.84000000000000041
40
0.86000000000000043
40
0.88000000000000045
40
0.90000000000000047
40
0.92000000000000048
40
0.9400000000000005
40
0.96000000000000052
40
0.98000000000000054
40
1
40
1
40
1
40
1
40
1
40
1
41
1
41
1
41
1
41
1
41
1
41
1
41
1
41
1
41
1
41
1
41
1
41
1
41
1
41
1
41
1
41
1
41
1
41
1
41
1
41
1
41
1
41
1
41
1
41
1
41
1
41
1
41
1
41
1
41
1
41
1
41
1
41
1
41
1
41
1
41
1
41
1
41
1
41
1
41
1
41
1
41
1
41
1
41
1
41
1
41
1
41
1
41
1
41
1
41
1
41
1
41
1
41
1
41
1
41
1
41
1
10
0
20
-0.055000000000000049
30
0
10
0.040413053428743156
20
-0.055927065512864721
30
0
10
0.12117770354939017
20
-0.057264335633326807
30
0
10
0.24214030819928523
20
-0.057719660498200362
30
0
10
0.40305480251784609
20
-0.055223559121151185
30
0
10
0.60359619852369795
20
-0.046901862537868599
30
0
10
0.80357809448652651
20
-0.03330977633543912
30
0
10
1.0030867504109602
20
-0.014325556753563009
30
0
10
1.2022679656819626
20
0.010241574185063279
30
0
10
1.4013417778669974
20
0.040661018500892196
30
0
10
1.6005503661799274
20
0.076820084889877974
30
0
10
1.8001068820469057
20
0.11776846580908364
30
0
10
2.000143915963672
20
0.16125915091408966
30
0
10
2.2006618742633997
20
0.20328647585343959
30
0
10
2.4014772051904876
20
0.23762347523616209
30
0
10
2.6023034149805895
20
0.2575311724353842
30
0
10
2.8028318316313112
20
0.25746806141932133
30
0
10
3.002812095892669
20
0.23479451500963294
30
0
10
3.2021334384002924
20
0.19150339174165165
30
0
10
3.4009043688700906
20
0.13590440031186157
30
0
10
3.5993757689518135
20
0.079610012757430432
30
0
10
3.7978662320381713
20
0.034589787491752261
30
0
10
3.9966866050946015
20
0.010190319164018739
30
0
10
4.1960653887235084
20
0.010192614111229101
30
0
10
4.3960722835275305
20
0.029763202956209593
30
0
10
4.5966520141067662
20
0.058826459873679279
30
0
10
4.7976594847864709
20
0.085517508042776386
30
0
10
4.998894173504338
20
0.099602124517235005
30
0
10
5.2001346319008013
20
0.095902455135386644
30
0
10
5.4011728999844264
20
0.077758920017661548
30
0
10
5.6018369822077707
20
0.053863430554574286
30
0
10
5.8020133580916911
20
0.03506663915196221
30
0
10
6.001669552989628
20
0.031208299274210809
30
0
10
6.2008770806785272
20
0.047925751913413875
30
0
10
6.399834015390601
20
0.083495312862532783
30
0
10
6.5988023626820604
20
0.13123883425819927
30
0
10
6.7980462409640552
20
0.18187940598427138
30
0
10
6.9977696531004172
20
0.22591119693750175
30
0
10
7.1980546810165
20
0.25595062227787801
30
0
10
7.3987981771138465
20
0.2691269476982403
30
0
10
7.5997792661066308
20
0.26597980384044057
30
0
10
7.8007278917533789
20
0.24933036683502288
30
0
10
8.0013927043372863
20
0.22317057677580684
30
0
10
8.2016094171579166
20
0.19154703520944455
30
0
10
8.4013686112919608
20
0.15745484449579186
30
0
10
8.6007720542139232
20
0.12301773865976716
30
0
10
8.7999898835630805
20
0.089659540240042288
30
0
10
8.999217670505864
20
0.058276901267309833
30
0
10
9.1986337030841057
20
0.029409743534650895
30
0
10
9.3983560088748241
20
0.0034118679829932448
30
0
10
9.5984546149449983
20
-0.019509805675009945
30
0
10
9.7588620300295013
20
-0.035307313347992593
30
0
10
9.8793572908766514
20
-0.045713894091393807
30
0
10
9.9597717209379582
20
-0.052011343268384004
30
0
10
10
20
-0.055000000000000049
30
0
0
SPLINE
5
104
100
AcDbEntity
8
0
100
AcDbSpline
70
4
71
5
72
61
73
55
74
0
42
0.000000001
43
0.0000000001
44
0.0000000001
40
0
40
0
40
0
40
0
40
0
40
0
40
0.02
40
0.040000000000000001
40
0.059999999999999998
40
0.080000000000000002
40
0.10000000000000001
40
0.12000000000000001
40
0.14000000000000001
40
0.16
40
0.17999999999999999
40
0.19999999999999998
40
0.21999999999999997
40
0.23999999999999996
40
0.25999999999999995
40
0.27999999999999997
40
0.29999999999999999
40
0.32000000000000001
40
0.34000000000000002
40
0.36000000000000004
40
0.38000000000000006
40
0.40000000000000008
40
0.4200000000000001
40
0.44000000000000011
40
0.46000000000000013
40
0.48000000000000015
40
0.50000000000000011
40
0.52000000000000013
40
0.54000000000000015
40
0.56000000000000016
40
0.58000000000000018
40
0.6000000000000002
40
0.62000000000000022
40
0.64000000000000024
40
0.66000000000000025
40
0.68000000000000027
40
0.70000000000000029
40
0.72000000000000031
40
0.74000000000000032
40
0.76000000000000034
40
0.78000000000000036
40
0.80000000000000038
40
0.8200000000000004
40
0.84000000000000041
40
0.86000000000000043
40
0.88000000000000045
40
0.90000000000000047
40
0.92000000000000048
40
0.9400000000000005
40
0.96000000000000052
40
0.98000000000000054
40
1
40
1
40
1
40
1
40
1
40
1
41
1
41
1
41
1
41
1
41
1
41
1
41
1
41
1
41
1
41
1
41
1
41
1
41
1
41
1
41
1
41
1
41
1
41
1
41
1
41
1
41
1
41
1
41
1
41
1
41
1
41
1
41
1
41
1
41
1
41
1
41
1
41
1
41
1
41
1
41
1
41
1
41
1
41
1
41
1
41
1
41
1
41
1
41
1
41
1
41
1
41
1
41
1
41
1
41
1
41
1
41
1
41
1
41
1
41
1
41
1
10
0
20
3.0549999999999997
30
0
10
0.039978121690990895
20
3.044269666637152
30
0
10
0.1199363529686248
20
3.0237066064361082
30
0
10
0.23987966357432494
20
2.9955548355558212
30
0
10
0.39981601281254875
20
2.9634082887599038
30
0
10
0.59976102568767431
20
2.932268809702288
30
0
10
0.79974459894925853
20
2.9103232502101735
30
0
10
0.99979466965085306
20
2.8978456363529403
30
0
10
1.1999578045473762
20
2.8952692633338541
30
0
10
1.4003039224987019
20
2.9032223208462744
30
0
10
1.6009007424548916
20
2.9219037928057108
30
0
10
1.8017881230893298
20
2.9504551183669121
30
0
10
2.0029525309512786
20
2.9863360033908224
30
0
10
2.2043009720678137
20
3.024681955913441
30
0
10
2.4056359040363549
20
3.0576967116547356
30
0
10
2.606710310155167
20
3.076773812725401
30
0
10
2.8072818429077695
20
3.0745922733166879
30
0
10
3.0071668477826079
20
3.0472012181489525
30
0
10
3.2062955954618122
20
2.9961702961833869
30
0
10
3.4047644062640439
20
2.9305777616179194
30
0
10
3.6027840600965839
20
2.8636414355921169
30
0
10
3.8006316179823991
20
2.8095232928046583
30
0
10
3.9986011576204161
20
2.7800691682144079
30
0
10
4.1969551434333239
20
2.7815831075452757
30
0
10
4.3958752568896049
20
2.8115429480668892
30
0
10
4.5954591758609507
20
2.861347021704348
30
0
10
4.7957174775162512
20
2.9190786411122844
30
0
10
4.9965701229014048
20
2.972259807176389
30
0
10
5.1978431434630483
20
3.0105888998090444
30
0
10
5.3992641582288234
20
3.0287341574289313
30
0
10
5.6005239640377882
20
3.0254650935131631
30
0
10
5.8013391117030366
20
3.0027360403604559
30
0
10
6.0015140321396698
20
2.964797331761591
30
0
10
6.2010038152652216
20
2.9173019451809594
30
0
10
6.3999763703612844
20
2.8664206121173792
30
0
10
6.5987303129433243
20
2.8181840719703617
30
0
10
6.797614097055515
20
2.7778258829321212
30
0
10
6.9969446526177892
20
2.7491204857873468
30
0
10
7.1969267485752866
20
2.7337260823724652
30
0
10
7.3975703106675912
20
2.7305019356198423
30
0
10
7.5987448280547163
20
2.736485840843117
30
0
10
7.8002353242832188
20
2.7478907689548255
30
0
10
8.0017973937376432
20
2.7610895507704529
30
0
10
8.2032126724601753
20
2.7736079635623145
30
0
10
8.4043436552646362
20
2.7851057457657955
30
0
10
8.6051161077469747
20
2.7967784719902267
30
0
10
8.8055021231234587
20
2.8107732958204199
30
0
10
9.0055031437893192
20
2.8296049870217104
30
0
10
9.2051329711886538
20
2.8555676221533828
30
0
10
9.4044012114778344
20
2.8901637571223064
30
0
10
9.6033142373754217
20
2.9342799974500804
30
0
10
9.7621634314184931
20
2.977530675502889
30
0
10
9.8811428984240717
20
3.0145031128864233
30
0
10
9.960392619977851
20
3.0411653751244039
30
0
10
10
20
3.0549999999999997
30
0
0
ENDSEC
0
SECTION
2
OBJECTS
0
DICTIONARY
5
C
100
AcDbDictionary
3
ACAD_GROUP
350
D
3
ACAD_MLINESTYLE
350
17
0
DICTIONARY
5
D
100
AcDbDictionary
0
DICTIONARY
5
1A
330
C
100
AcDbDictionary
0
DICTIONARY
5
17
100
AcDbDictionary
0
ENDSEC
0
EOF
