0
SECTION
2
HEADER
9
$INSUNITS
70
4
9
$ACADVER
1
AC1014
9
$HANDSEED
5
FFFF
0
ENDSEC
0
SECTION
2
TABLES
0
TABLE
2
VPORT
5
8
100
AcDbSymbolTable
0
ENDTAB
0
TABLE
2
LTYPE
5
5
100
AcDbSymbolTable
0
LTYPE
5
14
100
AcDbSymbolTableRecord
100
AcDbLinetypeTableRecord
2
BYBLOCK
70
0
0
LTYPE
5
15
100
AcDbSymbolTableRecord
100
AcDbLinetypeTableRecord
2
BYLAYER
70
0
0
ENDTAB
0
TABLE
2
LAYER
5
2
100
AcDbSymbolTable
70
2
0
LAYER
5
50
100
AcDbSymbolTableRecord
100
AcDbLayerTableRecord
2
0
70
0
6
CONTINUOUS
0
ENDTAB
0
TABLE
2
STYLE
5
3
100
AcDbSymbolTable
70
1
0
STYLE
5
11
100
AcDbSymbolTableRecord
100
AcDbTextStyleTableRecord
2
STANDARD
70
0
0
ENDTAB
0
TABLE
2
VIEW
5
6
100
AcDbSymbolTable
70
0
0
ENDTAB
0
TABLE
2
UCS
5
7
100
AcDbSymbolTable
70
0
0
ENDTAB
0
TABLE
2
APPID
5
9
100
AcDbSymbolTable
70
2
0
APPID
5
12
100
AcDbSymbolTableRecord
100
AcDbRegAppTableRecord
2
ACAD
70
0
0
ENDTAB
0
TABLE
2
DIMSTYLE
5
A
100
AcDbSymbolTable
70
1
0
ENDTAB
0
TABLE
2
BLOCK_RECORD
5
1
100
AcDbSymbolTable
70
1
0
BLOCK_RECORD
5
1F
100
AcDbSymbolTableRecord
100
AcDbBlockTableRecord
2
*MODEL_SPACE
0
BLOCK_RECORD
5
1B
100
AcDbSymbolTableRecord
100
AcDbBlockTableRecord
2
*PAPER_SPACE
0
ENDTAB
0
ENDSEC
0
SECTION
2
BLOCKS
0
BLOCK
5
20
100
AcDbEntity
100
AcDbBlockBegin
2
*MODEL_SPACE
0
ENDBLK
5
21
100
AcDbEntity
100
AcDbBlockEnd
0
BLOCK
5
1C
100
AcDbEntity
100
AcDbBlockBegin
2
*PAPER_SPACE
0
ENDBLK
5
1D
100
AcDbEntity
100
AcDbBlockEnd
0
ENDSEC
0
SECTION
2
ENTITIES
0
SPLINE
5
100
100
AcDbEntity
8
0
100
AcDbSpline
70
4
71
5
72
16
73
10
74
0
42
0.000000001
43
0.0000000001
44
0.0000000001
40
0
40
0
40
0
40
0
40
0
40
0
40
0.20000000000000001
40
0.40000000000000002
40
0.60000000000000009
40
0.80000000000000004
40
1
40
1
40
1
40
1
40
1
40
1
41
1
41
1
41
1
41
1
41
1
41
1
41
1
41
1
41
1
41
1
10
0
20
-0.055000000000000049
30
0
10
0
20
0.069400000000207365
30
0
10
0
20
0.31820000000056603
30
0
10
0
20
0.69140000000093593
30
0
10
0
20
1.1890000000011365
30
0
10
0
20
1.8110000000010393
30
0
10
0
20
2.3086000000007481
30
0
10
0
20
2.6818000000004227
30
0
10
0
20
2.9306000000001484
30
0
10
0
20
3.0549999999999997
30
0
0
SPLINE
5
101
100
AcDbEntity
8
0
100
AcDbSpline
70
4
71
5
72
16
73
10
74
0
42
0.000000001
43
0.0000000001
44
0.0000000001
40
0
40
0
40
0
40
0
40
0
40
0
40
0.20000000000000001
40
0.40000000000000002
40
0.60000000000000009
40
0.80000000000000004
40
1
40
1
40
1
40
1
40
1
40
1
41
1
41
1
41
1
41
1
41
1
41
1
41
1
41
1
41
1
41
1
10
10
20
-0.055000000000000049
30
0
10
9.9999999999997495
20
0.069400000000207365
30
0
10
9.9999999999993197
20
0.31820000000056603
30
0
10
9.9999999999989129
20
0.69140000000093593
30
0
10
9.9999999999987672
20
1.1890000000011365
30
0
10
9.9999999999990248
20
1.8110000000010393
30
0
10
9.9999999999993889
20
2.3086000000007481
30
0
10
9.9999999999996998
20
2.6818000000004227
30
0
10
9.9999999999999005
20
2.9306000000001484
30
0
10
10
20
3.0549999999999997
30
0
0
SPLINE
5
102
100
AcDbEntity
8
0
100
AcDbSpline
70
4
71
5
72
16
73
10
74
0
42
0.000000001
43
0.0000000001
44
0.0000000001
40
0
40
0
40
0
40
0
40
0
40
0
40
0.20000000000000001
40
0.40000000000000002
40
0.60000000000000009
40
0.80000000000000004
40
1
40
1
40
1
40
1
40
1
40
1
41
1
41
1
41
1
41
1
41
1
41
1
41
1
41
1
41
1
41
1
10
0
20
1.5274999999999999
30
0
10
0.40000000000047375
20
1.5274999999999856
30
0
10
1.2000000000012774
20
1.5274999999999614
30
0
10
2.4000000000020547
20
1.527499999999943
30
0
10
4.0000000000023546
20
1.5274999999999479
30
0
10
6.0000000000019584
20
1.5274999999999812
30
0
10
7.6000000000012928
20
1.5275000000000025
30
0
10
8.800000000000697
20
1.5275000000000083
30
0
10
9.6000000000002395
20
1.5275000000000039
30
0
10
10
20
1.5274999999999999
30
0
0
SPLINE
5
103
100
AcDbEntity
8
0
100
AcDbSpline
70
4
71
5
72
61
73
55
74
0
42
0.000000001
43
0.0000000001
44
0.0000000001
40
0
40
0
40
0
40
0
40
0
40
0
40
0.02
40
0.040000000000000001
40
0.059999999999999998
40
0.080000000000000002
40
0.10000000000000001
40
0.12000000000000001
40
0.14000000000000001
40
0.16
40
0.17999999999999999
40
0.19999999999999998
40
0.21999999999999997
40
0.23999999999999996
40
0.25999999999999995
40
0.27999999999999997
40
0.29999999999999999
40
0.32000000000000001
40
0.34000000000000002
40
0.36000000000000004
40
0.38000000000000006
40
0.40000000000000008
40
0.4200000000000001
40
0.44000000000000011
40
0.46000000000000013
40
0.48000000000000015
40
0.50000000000000011
40
0.52000000000000013
40
0.54000000000000015
40
0.56000000000000016
40
0.58000000000000018
40
0.6000000000000002
40
0.62000000000000022
40
0.64000000000000024
40
0.66000000000000025
40
0.68000000000000027
40
0.70000000000000029
40
0.72000000000000031
40
0.74000000000000032
40
0.76000000000000034
40
0.78000000000000036
40
0.80000000000000038
40
0.8200000000000004
40
0.84000000000000041
40
0.86000000000000043
40
0.88000000000000045
40
0.90000000000000047
40
0.92000000000000048
40
0.9400000000000005
40
0.96000000000000052
40
0.98000000000000054
40
1
40
1
40
1
40
1
40
1
40
1
41
1
41
1
41
1
41
1
41
1
41
1
41
1
41
1
41
1
41
1
41
1
41
1
41
1
41
1
41
1
41
1
41
1
41
1
41
1
41
1
41
1
41
1
41
1
41
1
41
1
41
1
41
1
41
1
41
1
41
1
41
1
41
1
41
1
41
1
41
1
41
1
41
1
41
1
41
1
41
1
41
1
41
1
41
1
41
1
41
1
41
1
41
1
41
1
41
1
41
1
41
1
41
1
41
1
41
1
41
1
10
0
20
-0.055000000000000049
30
0
10
0.040392499298279948
20
-0.054399845221917507
30
0
10
0.12117145718052616
20
-0.052350533201220378
30
0
10
0.24232177177923839
20
-0.046729531093326643
30
0
10
0.40381925721743717
20
-0.034137704820841566
30
0
10
0.60563241970779991
20
-0.010211300555735107
30
0
10
0.8073923959760827
20
0.020937500742400014
30
0
10
1.0091103690984173
20
0.057360739343282743
30
0
10
1.2108052143721173
20
0.095768349275883208
30
0
10
1.4125052948850134
20
0.13124269916863243
30
0
10
1.6142445227385249
20
0.15859616303769897
30
0
10
1.8160587014606411
20
0.17368777735920204
30
0
10
2.0179816728586073
20
0.17471171709668187
30
0
10
2.2200417664616952
20
0.16360909707319116
30
0
10
2.4222574838628148
20
0.14713564226079018
30
0
10
2.6246264635727643
20
0.13412094841599217
30
0
10
2.8271143037099247
20
0.13295266310922993
30
0
10
3.0296445235828822
20
0.14908855573555946
30
0
10
3.2320852101422588
20
0.18228742681261484
30
0
10
3.4342448969092869
20
0.22471910846253271
30
0
10
3.6359247801038057
20
0.26466526385653272
30
0
10
3.8369660785060899
20
0.28965350648508315
30
0
10
4.0372964049149189
20
0.2896669825311553
30
0
10
4.2369836790979525
20
0.26065155733524759
30
0
10
4.4362664232475417
20
0.20693057983685009
30
0
10
4.635471650398773
20
0.13826459768760108
30
0
10
4.8349472379067651
20
0.067637694663764347
30
0
10
5.0349908898340088
20
0.0088084939064633043
30
0
10
5.2357755080758119
20
-0.026120412628736323
30
0
10
5.4372907214266828
20
-0.028881982391971046
30
0
10
5.6393741512200437
20
0.0044412791877069084
30
0
10
5.8417293468886244
20
0.072594161675655203
30
0
10
6.0439509926581279
20
0.16858892051853935
30
0
10
6.2455408490490827
20
0.27864705254537486
30
0
10
6.4459451260302227
20
0.3824643024594237
30
0
10
6.6446666470274804
20
0.45835567072540473
30
0
10
6.841369245134505
20
0.48777785905410009
30
0
10
7.0359783963011893
20
0.45983604616411933
30
0
10
7.2288010698490357
20
0.37643855380495517
30
0
10
7.4205874420784212
20
0.25533267133638604
30
0
10
7.612308938888475
20
0.1226889030516147
30
0
10
7.8049749884929529
20
0.0071148283446996995
30
0
10
7.9994349728927636
20
-0.066875462678955055
30
0
10
8.1961861862590659
20
-0.085166188527734388
30
0
10
8.3951783418926453
20
-0.050466576306358625
30
0
10
8.5959703884361272
20
0.022559162665675151
30
0
10
8.7978860044710014
20
0.11211851465682335
30
0
10
9.0001688090819201
20
0.19411050473663236
30
0
10
9.2021373266741886
20
0.24693807382552366
30
0
10
9.4033400541124941
20
0.25632457992402224
30
0
10
9.6035083627377293
20
0.21380653102177916
30
0
10
9.7627095677221014
20
0.13495457793278054
30
0
10
9.8815662770584307
20
0.05000731084807377
30
0
10
9.9605623767761369
20
-0.018087082513486195
30
0
10
10
20
-0.055000000000000049
30
0
0
SPLINE
5
104
100
AcDbEntity
8
0
100
AcDbSpline
70
4
71
5
72
61
73
55
74
0
42
0.000000001
43
0.0000000001
44
0.0000000001
40
0
40
0
40
0
40
0
40
0
40
0
40
0.02
40
0.040000000000000001
40
0.059999999999999998
40
0.080000000000000002
40
0.10000000000000001
40
0.12000000000000001
40
0.14000000000000001
40
0.16
40
0.17999999999999999
40
0.19999999999999998
40
0.21999999999999997
40
0.23999999999999996
40
0.25999999999999995
40
0.27999999999999997
40
0.29999999999999999
40
0.32000000000000001
40
0.34000000000000002
40
0.36000000000000004
40
0.38000000000000006
40
0.40000000000000008
40
0.4200000000000001
40
0.44000000000000011
40
0.46000000000000013
40
0.48000000000000015
40
0.50000000000000011
40
0.52000000000000013
40
0.54000000000000015
40
0.56000000000000016
40
0.58000000000000018
40
0.6000000000000002
40
0.62000000000000022
40
0.64000000000000024
40
0.66000000000000025
40
0.68000000000000027
40
0.70000000000000029
40
0.72000000000000031
40
0.74000000000000032
40
0.76000000000000034
40
0.78000000000000036
40
0.80000000000000038
40
0.8200000000000004
40
0.84000000000000041
40
0.86000000000000043
40
0.88000000000000045
40
0.90000000000000047
40
0.92000000000000048
40
0.9400000000000005
40
0.96000000000000052
40
0.98000000000000054
40
1
40
1
40
1
40
1
40
1
40
1
41
1
41
1
41
1
41
1
41
1
41
1
41
1
41
1
41
1
41
1
41
1
41
1
41
1
41
1
41
1
41
1
41
1
41
1
41
1
41
1
41
1
41
1
41
1
41
1
41
1
41
1
41
1
41
1
41
1
41
1
41
1
41
1
41
1
41
1
41
1
41
1
41
1
41
1
41
1
41
1
41
1
41
1
41
1
41
1
41
1
41
1
41
1
41
1
41
1
41
1
41
1
41
1
41
1
41
1
41
1
10
0
20
3.0549999999999997
30
0
10
0.040434519232056328
20
3.0638378505946786
30
0
10
0.12127793426287685
20
3.0792139165694583
30
0
10
0.24246618667131942
20
3.0953790715319638
30
0
10
0.40389668140381307
20
3.1031260648369026
30
0
10
0.60542714651683605
20
3.0904140548468249
30
0
10
0.8066971866804995
20
3.0572496151461142
30
0
10
1.0077020601360127
20
3.0075805709669794
30
0
10
1.2084344413358576
20
2.9480805558313343
30
0
10
1.4088842536204396
20
2.8887664337832502
30
0
10
1.6090502376475859
20
2.8406593027976612
30
0
10
1.8089512794060949
20
2.8135291109378184
30
0
10
2.0086376430950175
20
2.813636230044132
30
0
10
2.2082028820127659
20
2.841396010037176
30
0
10
2.4077940296923956
20
2.8892573507286508
30
0
10
2.607578041041668
20
2.9451637463900369
30
0
10
2.8077097017472532
20
2.995814457659034
30
0
10
3.0082993551958088
20
3.029961007753355
30
0
10
3.2093797175118981
20
3.041769753916598
30
0
10
3.4108753566776766
20
3.0339503158838266
30
0
10
3.6126441254594188
20
3.0145186798126842
30
0
10
3.8145161766761291
20
2.9937746496469049
30
0
10
4.0163331146958772
20
2.9812632787481936
30
0
10
4.2179886161048943
20
2.9826141928331773
30
0
10
4.4194641604211773
20
2.9967935190192838
30
0
10
4.6208010771277701
20
3.0186750071216228
30
0
10
4.8220768035624122
20
3.0412809463946582
30
0
10
5.0233799860624835
20
3.058074974436888
30
0
10
5.2247853730915494
20
3.0653870773897274
30
0
10
5.4263309793392533
20
3.0643397962669834
30
0
10
5.6280172085358569
20
3.0585219272182504
30
0
10
5.8298035706291245
20
3.0520090802110689
30
0
10
6.0316067603686596
20
3.0473584631604185
30
0
10
6.2332967524233753
20
3.043368637090762
30
0
10
6.434697415731339
20
3.0336498783029531
30
0
10
6.6356124287357048
20
3.0099615197608331
30
0
10
6.8358484311766885
20
2.965058744612763
30
0
10
7.035238749410393
20
2.8955672825100143
30
0
10
7.2336681119502391
20
2.8052364813542101
30
0
10
7.4310935928509476
20
2.7069069891050597
30
0
10
7.627544772725634
20
2.6178272540537861
30
0
10
7.8231270257608454
20
2.5558074950493559
30
0
10
8.0180233677127415
20
2.5351378141511476
30
0
10
8.2124982167121061
20
2.5624011088056795
30
0
10
8.4068975278769837
20
2.6328831195767766
30
0
10
8.6016102070391049
20
2.7342565027156929
30
0
10
8.7970325772249698
20
2.8496890155563124
30
0
10
8.9935315166613101
20
2.9611716678855418
30
0
10
9.1914085769583274
20
3.0527106340668309
30
0
10
9.3908621763106943
20
3.1136796033658616
30
0
10
9.5920081701766122
20
3.1377920753748216
30
0
10
9.7543231496418503
20
3.1251285426935347
30
0
10
9.8768531051606043
20
3.0972196410772734
30
0
10
9.9588922789809597
20
3.0704361373332278
30
0
10
10
20
3.0549999999999997
30
0
0
ENDSEC
0
SECTION
2
OBJECTS
0
DICTIONARY
5
C
100
AcDbDictionary
3
ACAD_GROUP
350
D
3
ACAD_MLINESTYLE
350
17
0
DICTIONARY
5
D
100
AcDbDictionary
0
DICTIONARY
5
1A
330
C
100
AcDbDictionary
0
DICTIONARY
5
17
100
AcDbDictionary
0
ENDSEC
0
EOF
