0
SECTION
2
HEADER
9
$INSUNITS
70
4
9
$ACADVER
1
AC1014
9
$HANDSEED
5
FFFF
0
ENDSEC
0
SECTION
2
TABLES
0
TABLE
2
VPORT
5
8
100
AcDbSymbolTable
0
ENDTAB
0
TABLE
2
LTYPE
5
5
100
AcDbSymbolTable
0
LTYPE
5
14
100
AcDbSymbolTableRecord
100
AcDbLinetypeTableRecord
2
BYBLOCK
70
0
0
LTYPE
5
15
100
AcDbSymbolTableRecord
100
AcDbLinetypeTableRecord
2
BYLAYER
70
0
0
ENDTAB
0
TABLE
2
LAYER
5
2
100
AcDbSymbolTable
70
2
0
LAYER
5
50
100
AcDbSymbolTableRecord
100
AcDbLayerTableRecord
2
0
70
0
6
CONTINUOUS
0
ENDTAB
0
TABLE
2
STYLE
5
3
100
AcDbSymbolTable
70
1
0
STYLE
5
11
100
AcDbSymbolTableRecord
100
AcDbTextStyleTableRecord
2
STANDARD
70
0
0
ENDTAB
0
TABLE
2
VIEW
5
6
100
AcDbSymbolTable
70
0
0
ENDTAB
0
TABLE
2
UCS
5
7
100
AcDbSymbolTable
70
0
0
ENDTAB
0
TABLE
2
APPID
5
9
100
AcDbSymbolTable
70
2
0
APPID
5
12
100
AcDbSymbolTableRecord
100
AcDbRegAppTableRecord
2
ACAD
70
0
0
ENDTAB
0
TABLE
2
DIMSTYLE
5
A
100
AcDbSymbolTable
70
1
0
ENDTAB
0
TABLE
2
BLOCK_RECORD
5
1
100
AcDbSymbolTable
70
1
0
BLOCK_RECORD
5
1F
100
AcDbSymbolTableRecord
100
AcDbBlockTableRecord
2
*MODEL_SPACE
0
BLOCK_RECORD
5
1B
100
AcDbSymbolTableRecord
100
AcDbBlockTableRecord
2
*PAPER_SPACE
0
ENDTAB
0
ENDSEC
0
SECTION
2
BLOCKS
0
BLOCK
5
20
100
AcDbEntity
100
AcDbBlockBegin
2
*MODEL_SPACE
0
ENDBLK
5
21
100
AcDbEntity
100
AcDbBlockEnd
0
BLOCK
5
1C
100
AcDbEntity
100
AcDbBlockBegin
2
*PAPER_SPACE
0
ENDBLK
5
1D
100
AcDbEntity
100
AcDbBlockEnd
0
ENDSEC
0
SECTION
2
ENTITIES
0
SPLINE
5
100
100
AcDbEntity
8
0
100
AcDbSpline
70
4
71
5
72
16
73
10
74
0
42
0.000000001
43
0.0000000001
44
0.0000000001
40
0
40
0
40
0
40
0
40
0
40
0
40
0.20000000000000001
40
0.40000000000000002
40
0.60000000000000009
40
0.80000000000000004
40
1
40
1
40
1
40
1
40
1
40
1
41
1
41
1
41
1
41
1
41
1
41
1
41
1
41
1
41
1
41
1
10
0
20
-0.055000000000000049
30
0
10
0
20
0.069400000000207365
30
0
10
0
20
0.31820000000056603
30
0
10
0
20
0.69140000000093593
30
0
10
0
20
1.1890000000011365
30
0
10
0
20
1.8110000000010393
30
0
10
0
20
2.3086000000007481
30
0
10
0
20
2.6818000000004227
30
0
10
0
20
2.9306000000001484
30
0
10
0
20
3.0549999999999997
30
0
0
SPLINE
5
101
100
AcDbEntity
8
0
100
AcDbSpline
70
4
71
5
72
16
73
10
74
0
42
0.000000001
43
0.0000000001
44
0.0000000001
40
0
40
0
40
0
40
0
40
0
40
0
40
0.20000000000000001
40
0.40000000000000002
40
0.60000000000000009
40
0.80000000000000004
40
1
40
1
40
1
40
1
40
1
40
1
41
1
41
1
41
1
41
1
41
1
41
1
41
1
41
1
41
1
41
1
10
10
20
-0.055000000000000049
30
0
10
9.9999999999997495
20
0.069400000000207365
30
0
10
9.9999999999993197
20
0.31820000000056603
30
0
10
9.9999999999989129
20
0.69140000000093593
30
0
10
9.9999999999987672
20
1.1890000000011365
30
0
10
9.9999999999990248
20
1.8110000000010393
30
0
10
9.9999999999993889
20
2.3086000000007481
30
0
10
9.9999999999996998
20
2.6818000000004227
30
0
10
9.9999999999999005
20
2.9306000000001484
30
0
10
10
20
3.0549999999999997
30
0
0
SPLINE
5
102
100
AcDbEntity
8
0
100
AcDbSpline
70
4
71
5
72
16
73
10
74
0
42
0.000000001
43
0.0000000001
44
0.0000000001
40
0
40
0
40
0
40
0
40
0
40
0
40
0.20000000000000001
40
0.40000000000000002
40
0.60000000000000009
40
0.80000000000000004
40
1
40
1
40
1
40
1
40
1
40
1
41
1
41
1
41
1
41
1
41
1
41
1
41
1
41
1
41
1
41
1
10
0
20
1.5274999999999999
30
0
10
0.40000000000047375
20
1.5274999999999856
30
0
10
1.2000000000012774
20
1.5274999999999614
30
0
10
2.4000000000020547
20
1.527499999999943
30
0
10
4.0000000000023546
20
1.5274999999999479
30
0
10
6.0000000000019584
20
1.5274999999999812
30
0
10
7.6000000000012928
20
1.5275000000000025
30
0
10
8.800000000000697
20
1.5275000000000083
30
0
10
9.6000000000002395
20
1.5275000000000039
30
0
10
10
20
1.5274999999999999
30
0
0
SPLINE
5
103
100
AcDbEntity
8
0
100
AcDbSpline
70
4
71
5
72
61
73
55
74
0
42
0.000000001
43
0.0000000001
44
0.0000000001
40
0
40
0
40
0
40
0
40
0
40
0
40
0.02
40
0.040000000000000001
40
0.059999999999999998
40
0.080000000000000002
40
0.10000000000000001
40
0.12000000000000001
40
0.14000000000000001
40
0.16
40
0.17999999999999999
40
0.19999999999999998
40
0.21999999999999997
40
0.23999999999999996
40
0.25999999999999995
40
0.27999999999999997
40
0.29999999999999999
40
0.32000000000000001
40
0.34000000000000002
40
0.36000000000000004
40
0.38000000000000006
40
0.40000000000000008
40
0.4200000000000001
40
0.44000000000000011
40
0.46000000000000013
40
0.48000000000000015
40
0.50000000000000011
40
0.52000000000000013
40
0.54000000000000015
40
0.56000000000000016
40
0.58000000000000018
40
0.6000000000000002
40
0.62000000000000022
40
0.64000000000000024
40
0.66000000000000025
40
0.68000000000000027
40
0.70000000000000029
40
0.72000000000000031
40
0.74000000000000032
40
0.76000000000000034
40
0.78000000000000036
40
0.80000000000000038
40
0.8200000000000004
40
0.84000000000000041
40
0.86000000000000043
40
0.88000000000000045
40
0.90000000000000047
40
0.92000000000000048
40
0.9400000000000005
40
0.96000000000000052
40
0.98000000000000054
40
1
40
1
40
1
40
1
40
1
40
1
41
1
41
1
41
1
41
1
41
1
41
1
41
1
41
1
41
1
41
1
41
1
41
1
41
1
41
1
41
1
41
1
41
1
41
1
41
1
41
1
41
1
41
1
41
1
41
1
41
1
41
1
41
1
41
1
41
1
41
1
41
1
41
1
41
1
41
1
41
1
41
1
41
1
41
1
41
1
41
1
41
1
41
1
41
1
41
1
41
1
41
1
41
1
41
1
41
1
41
1
41
1
41
1
41
1
41
1
41
1
10
0
20
-0.055000000000000049
30
0
10
0.041392611996474024
20
-0.073699164768454228
30
0
10
0.12405581954704079
20
-0.10665199959861137
30
0
10
0.24768458400705737
20
-0.14274461827978838
30
0
10
0.4117903447474664
20
-0.16417875820764305
30
0
10
0.6156935310053756
20
-0.14753041125251523
30
0
10
0.81834800381864403
20
-0.090765756934880051
30
0
10
1.0197186502804703
20
-0.00063023053834595903
30
0
10
1.2197486178658776
20
0.11140700612530011
30
0
10
1.4183600803425431
20
0.22827760704894673
30
0
10
1.615526000493241
20
0.33084303814623583
30
0
10
1.8113370028085087
20
0.40108801080545325
30
0
10
2.0060694184943486
20
0.42541971082703584
30
0
10
2.2002556450108206
20
0.39798553503426015
30
0
10
2.3947476754896484
20
0.32385403858935546
30
0
10
2.5904987534545079
20
0.21597946388358324
30
0
10
2.7883543427922159
20
0.092356510291142654
30
0
10
2.9888363520279988
20
-0.026888319341446865
30
0
10
3.1919365702037834
20
-0.12234974437962179
30
0
10
3.3968853811663835
20
-0.17827331978398325
30
0
10
3.6024495625047952
20
-0.18414083207446941
30
0
10
3.8072573055320942
20
-0.13622639099229425
30
0
10
4.0101094095617302
20
-0.039133390516470717
30
0
10
4.2103041326064092
20
0.092526700600535389
30
0
10
4.4079359810040897
20
0.23280035354219547
30
0
10
4.6036270602423572
20
0.35146783891157551
30
0
10
4.7982827884152766
20
0.42073621722261484
30
0
10
4.9928377947353013
20
0.42215120101574499
30
0
10
5.1880101649346244
20
0.35326950319921546
30
0
10
5.3840412273505658
20
0.23493016074022974
30
0
10
5.5808296927519159
20
0.10180029467159867
30
0
10
5.7780767038753531
20
-0.007479962962869108
30
0
10
5.9754291086898963
20
-0.060246971719625148
30
0
10
6.1726166700262786
20
-0.039138604498398274
30
0
10
6.3696093056149756
20
0.046704686779201601
30
0
10
6.5665633157652881
20
0.16949495026953343
30
0
10
6.7637408751613979
20
0.29297666317689575
30
0
10
6.9614374705966986
20
0.38206418012136123
30
0
10
7.1599103885361419
20
0.4119943042728621
30
0
10
7.3592956234166849
20
0.37955287854955883
30
0
10
7.5596184713111185
20
0.29869001133119127
30
0
10
7.760825365491594
20
0.19269713984815265
30
0
10
7.9628085319582196
20
0.087411426172313719
30
0
10
8.1654325861016748
20
0.0044223572991288172
30
0
10
8.3685624654737047
20
-0.046824232602033361
30
0
10
8.572071334791687
20
-0.0672412258146005
30
0
10
8.7758438658991178
20
-0.064262320611530754
30
0
10
8.9797812574447882
20
-0.048692097281049708
30
0
10
9.183805314036281
20
-0.031379396834157136
30
0
10
9.3878636242372764
20
-0.019703519165740431
30
0
10
9.5919249279664047
20
-0.018010170131127705
30
0
10
9.7551638592655454
20
-0.026379807322635888
30
0
10
9.8775850445894662
20
-0.038441493127119052
30
0
10
9.9591956081582538
20
-0.049052243247043048
30
0
10
10
20
-0.055000000000000049
30
0
0
SPLINE
5
104
100
AcDbEntity
8
0
100
AcDbSpline
70
4
71
5
72
61
73
55
74
0
42
0.000000001
43
0.0000000001
44
0.0000000001
40
0
40
0
40
0
40
0
40
0
40
0
40
0.02
40
0.040000000000000001
40
0.059999999999999998
40
0.080000000000000002
40
0.10000000000000001
40
0.12000000000000001
40
0.14000000000000001
40
0.16
40
0.17999999999999999
40
0.19999999999999998
40
0.21999999999999997
40
0.23999999999999996
40
0.25999999999999995
40
0.27999999999999997
40
0.29999999999999999
40
0.32000000000000001
40
0.34000000000000002
40
0.36000000000000004
40
0.38000000000000006
40
0.40000000000000008
40
0.4200000000000001
40
0.44000000000000011
40
0.46000000000000013
40
0.48000000000000015
40
0.50000000000000011
40
0.52000000000000013
40
0.54000000000000015
40
0.56000000000000016
40
0.58000000000000018
40
0.6000000000000002
40
0.62000000000000022
40
0.64000000000000024
40
0.66000000000000025
40
0.68000000000000027
40
0.70000000000000029
40
0.72000000000000031
40
0.74000000000000032
40
0.76000000000000034
40
0.78000000000000036
40
0.80000000000000038
40
0.8200000000000004
40
0.84000000000000041
40
0.86000000000000043
40
0.88000000000000045
40
0.90000000000000047
40
0.92000000000000048
40
0.9400000000000005
40
0.96000000000000052
40
0.98000000000000054
40
1
40
1
40
1
40
1
40
1
40
1
41
1
41
1
41
1
41
1
41
1
41
1
41
1
41
1
41
1
41
1
41
1
41
1
41
1
41
1
41
1
41
1
41
1
41
1
41
1
41
1
41
1
41
1
41
1
41
1
41
1
41
1
41
1
41
1
41
1
41
1
41
1
41
1
41
1
41
1
41
1
41
1
41
1
41
1
41
1
41
1
41
1
41
1
41
1
41
1
41
1
41
1
41
1
41
1
41
1
41
1
41
1
41
1
41
1
41
1
41
1
10
0
20
3.0549999999999997
30
0
10
0.037588750428285682
20
3.0149218182005804
30
0
10
0.11295119791579025
20
2.9389550178230039
30
0
10
0.226549705681867
20
2.8375734113024675
30
0
10
0.37912480776601115
20
2.7275523289334425
30
0
10
0.57168065588632277
20
2.6315404498338806
30
0
10
0.76602550214328424
20
2.5756643663162571
30
0
10
0.96205686285206049
20
2.557012476529656
30
0
10
1.1596008015267585
20
2.5706718883921207
30
0
10
1.3583859806405085
20
2.6090034689061472
30
0
10
1.5580803839064723
20
2.6627035039558198
30
0
10
1.7583408524294812
20
2.7222296191857485
30
0
10
1.9588598573252374
20
2.7791511235679689
30
0
10
2.1594095702749385
20
2.8274161756614209
30
0
10
2.3598973930682456
20
2.8649626506708907
30
0
10
2.5603396414521997
20
2.8928862011724399
30
0
10
2.7608158632069961
20
2.9140340996473646
30
0
10
2.961428863861459
20
2.9317617842198986
30
0
10
3.1622649363777682
20
2.9487125451027163
30
0
10
3.3633474766609863
20
2.9653555545339563
30
0
10
3.5646460024109636
20
2.9804863081178032
30
0
10
3.7660976101358994
20
2.9921592748602848
30
0
10
3.9676243574410117
20
2.9984930126980283
30
0
10
4.1691515697867541
20
2.998474178073451
30
0
10
4.3706276490965177
20
2.9929062319085933
30
0
10
4.5720251573213133
20
2.9839618104896468
30
0
10
4.7733382833982452
20
2.9744864320165614
30
0
10
4.97458183963961
20
2.9673810889002401
30
0
10
5.1757892287725795
20
2.96497630289472
30
0
10
5.3770120850043046
20
2.9683451964897403
30
0
10
5.5783058894894602
20
2.9773841023257686
30
0
10
5.7797140369565039
20
2.9910001506015371
30
0
10
5.9812519186317683
20
3.0072535191195842
30
0
10
6.1828920840967729
20
3.023526110582611
30
0
10
6.3845457482396695
20
3.0366503100244828
30
0
10
6.5860927057794818
20
3.0434513265775793
30
0
10
6.7874155045645939
20
3.0413219425807227
30
0
10
6.9884325881360008
20
3.0287966054665318
30
0
10
7.1891307777175681
20
3.0061067113893252
30
0
10
7.3896013808230965
20
2.9758080094267609
30
0
10
7.5899996593168737
20
2.9419692666837403
30
0
10
7.7905002516979227
20
2.9092861167999198
30
0
10
7.9912537721924339
20
2.882217673561922
30
0
10
8.1923437597339266
20
2.8641293598294109
30
0
10
8.3937409260832236
20
2.8563876868417215
30
0
10
8.595334312173712
20
2.8588345251432363
30
0
10
8.7969654737510119
20
2.8703156238464773
30
0
10
8.9984614415831992
20
2.8891865206326846
30
0
10
9.19966803368842
20
2.9138246222364366
30
0
10
9.4004833089942714
20
2.9431417589088245
30
0
10
9.6008470149505722
20
2.9764808463835712
30
0
10
9.760753213837031
20
3.006102641379798
30
0
10
9.8804623186314569
20
3.0299265637130612
30
0
10
9.9601704322392361
20
3.0465231863892006
30
0
10
10
20
3.0549999999999997
30
0
0
ENDSEC
0
SECTION
2
OBJECTS
0
DICTIONARY
5
C
100
AcDbDictionary
3
ACAD_GROUP
350
D
3
ACAD_MLINESTYLE
350
17
0
DICTIONARY
5
D
100
AcDbDictionary
0
DICTIONARY
5
1A
330
C
100
AcDbDictionary
0
DICTIONARY
5
17
100
AcDbDictionary
0
ENDSEC
0
EOF
