0
SECTION
2
HEADER
9
$INSUNITS
70
4
9
$ACADVER
1
AC1014
9
$HANDSEED
5
FFFF
0
ENDSEC
0
SECTION
2
TABLES
0
TABLE
2
VPORT
5
8
100
AcDbSymbolTable
0
ENDTAB
0
TABLE
2
LTYPE
5
5
100
AcDbSymbolTable
0
LTYPE
5
14
100
AcDbSymbolTableRecord
100
AcDbLinetypeTableRecord
2
BYBLOCK
70
0
0
LTYPE
5
15
100
AcDbSymbolTableRecord
100
AcDbLinetypeTableRecord
2
BYLAYER
70
0
0
ENDTAB
0
TABLE
2
LAYER
5
2
100
AcDbSymbolTable
70
2
0
LAYER
5
50
100
AcDbSymbolTableRecord
100
AcDbLayerTableRecord
2
0
70
0
6
CONTINUOUS
0
ENDTAB
0
TABLE
2
STYLE
5
3
100
AcDbSymbolTable
70
1
0
STYLE
5
11
100
AcDbSymbolTableRecord
100
AcDbTextStyleTableRecord
2
STANDARD
70
0
0
ENDTAB
0
TABLE
2
VIEW
5
6
100
AcDbSymbolTable
70
0
0
ENDTAB
0
TABLE
2
UCS
5
7
100
AcDbSymbolTable
70
0
0
ENDTAB
0
TABLE
2
APPID
5
9
100
AcDbSymbolTable
70
2
0
APPID
5
12
100
AcDbSymbolTableRecord
100
AcDbRegAppTableRecord
2
ACAD
70
0
0
ENDTAB
0
TABLE
2
DIMSTYLE
5
A
100
AcDbSymbolTable
70
1
0
ENDTAB
0
TABLE
2
BLOCK_RECORD
5
1
100
AcDbSymbolTable
70
1
0
BLOCK_RECORD
5
1F
100
AcDbSymbolTableRecord
100
AcDbBlockTableRecord
2
*MODEL_SPACE
0
BLOCK_RECORD
5
1B
100
AcDbSymbolTableRecord
100
AcDbBlockTableRecord
2
*PAPER_SPACE
0
ENDTAB
0
ENDSEC
0
SECTION
2
BLOCKS
0
BLOCK
5
20
100
AcDbEntity
100
AcDbBlockBegin
2
*MODEL_SPACE
0
ENDBLK
5
21
100
AcDbEntity
100
AcDbBlockEnd
0
BLOCK
5
1C
100
AcDbEntity
100
AcDbBlockBegin
2
*PAPER_SPACE
0
ENDBLK
5
1D
100
AcDbEntity
100
AcDbBlockEnd
0
ENDSEC
0
SECTION
2
ENTITIES
0
SPLINE
5
100
100
AcDbEntity
8
0
100
AcDbSpline
70
4
71
5
72
16
73
10
74
0
42
0.000000001
43
0.0000000001
44
0.0000000001
40
0
40
0
40
0
40
0
40
0
40
0
40
0.20000000000000001
40
0.40000000000000002
40
0.60000000000000009
40
0.80000000000000004
40
1
40
1
40
1
40
1
40
1
40
1
41
1
41
1
41
1
41
1
41
1
41
1
41
1
41
1
41
1
41
1
10
0
20
-0.055000000000000049
30
0
10
0
20
0.069400000000207365
30
0
10
0
20
0.31820000000056603
30
0
10
0
20
0.69140000000093593
30
0
10
0
20
1.1890000000011365
30
0
10
0
20
1.8110000000010393
30
0
10
0
20
2.3086000000007481
30
0
10
0
20
2.6818000000004227
30
0
10
0
20
2.9306000000001484
30
0
10
0
20
3.0549999999999997
30
0
0
SPLINE
5
101
100
AcDbEntity
8
0
100
AcDbSpline
70
4
71
5
72
16
73
10
74
0
42
0.000000001
43
0.0000000001
44
0.0000000001
40
0
40
0
40
0
40
0
40
0
40
0
40
0.20000000000000001
40
0.40000000000000002
40
0.60000000000000009
40
0.80000000000000004
40
1
40
1
40
1
40
1
40
1
40
1
41
1
41
1
41
1
41
1
41
1
41
1
41
1
41
1
41
1
41
1
10
10
20
-0.055000000000000049
30
0
10
9.9999999999997495
20
0.069400000000207365
30
0
10
9.9999999999993197
20
0.31820000000056603
30
0
10
9.9999999999989129
20
0.69140000000093593
30
0
10
9.9999999999987672
20
1.1890000000011365
30
0
10
9.9999999999990248
20
1.8110000000010393
30
0
10
9.9999999999993889
20
2.3086000000007481
30
0
10
9.9999999999996998
20
2.6818000000004227
30
0
10
9.9999999999999005
20
2.9306000000001484
30
0
10
10
20
3.0549999999999997
30
0
0
SPLINE
5
102
100
AcDbEntity
8
0
100
AcDbSpline
70
4
71
5
72
16
73
10
74
0
42
0.000000001
43
0.0000000001
44
0.0000000001
40
0
40
0
40
0
40
0
40
0
40
0
40
0.20000000000000001
40
0.40000000000000002
40
0.60000000000000009
40
0.80000000000000004
40
1
40
1
40
1
40
1
40
1
40
1
41
1
41
1
41
1
41
1
41
1
41
1
41
1
41
1
41
1
41
1
10
0
20
1.5274999999999999
30
0
10
0.40000000000047375
20
1.5274999999999856
30
0
10
1.2000000000012774
20
1.5274999999999614
30
0
10
2.4000000000020547
20
1.527499999999943
30
0
10
4.0000000000023546
20
1.5274999999999479
30
0
10
6.0000000000019584
20
1.5274999999999812
30
0
10
7.6000000000012928
20
1.5275000000000025
30
0
10
8.800000000000697
20
1.5275000000000083
30
0
10
9.6000000000002395
20
1.5275000000000039
30
0
10
10
20
1.5274999999999999
30
0
0
SPLINE
5
103
100
AcDbEntity
8
0
100
AcDbSpline
70
4
71
5
72
111
73
105
74
0
42
0.000000001
43
0.0000000001
44
0.0000000001
40
0
40
0
40
0
40
0
40
0
40
0
40
0.01
40
0.02
40
0.029999999999999999
40
0.040000000000000001
40
0.050000000000000003
40
0.060000000000000005
40
0.070000000000000007
40
0.080000000000000002
40
0.089999999999999997
40
0.099999999999999992
40
0.10999999999999999
40
0.11999999999999998
40
0.12999999999999998
40
0.13999999999999999
40
0.14999999999999999
40
0.16
40
0.17000000000000001
40
0.18000000000000002
40
0.19000000000000003
40
0.20000000000000004
40
0.21000000000000005
40
0.22000000000000006
40
0.23000000000000007
40
0.24000000000000007
40
0.25000000000000006
40
0.26000000000000006
40
0.27000000000000007
40
0.28000000000000008
40
0.29000000000000009
40
0.3000000000000001
40
0.31000000000000011
40
0.32000000000000012
40
0.33000000000000013
40
0.34000000000000014
40
0.35000000000000014
40
0.36000000000000015
40
0.37000000000000016
40
0.38000000000000017
40
0.39000000000000018
40
0.40000000000000019
40
0.4100000000000002
40
0.42000000000000021
40
0.43000000000000022
40
0.44000000000000022
40
0.45000000000000023
40
0.46000000000000024
40
0.47000000000000025
40
0.48000000000000026
40
0.49000000000000027
40
0.50000000000000022
40
0.51000000000000023
40
0.52000000000000024
40
0.53000000000000025
40
0.54000000000000026
40
0.55000000000000027
40
0.56000000000000028
40
0.57000000000000028
40
0.58000000000000029
40
0.5900000000000003
40
0.60000000000000031
40
0.61000000000000032
40
0.62000000000000033
40
0.63000000000000034
40
0.64000000000000035
40
0.65000000000000036
40
0.66000000000000036
40
0.67000000000000037
40
0.68000000000000038
40
0.69000000000000039
40
0.7000000000000004
40
0.71000000000000041
40
0.72000000000000042
40
0.73000000000000043
40
0.74000000000000044
40
0.75000000000000044
40
0.76000000000000045
40
0.77000000000000046
40
0.78000000000000047
40
0.79000000000000048
40
0.80000000000000049
40
0.8100000000000005
40
0.82000000000000051
40
0.83000000000000052
40
0.84000000000000052
40
0.85000000000000053
40
0.86000000000000054
40
0.87000000000000055
40
0.88000000000000056
40
0.89000000000000057
40
0.90000000000000058
40
0.91000000000000059
40
0.9200000000000006
40
0.9300000000000006
40
0.94000000000000061
40
0.95000000000000062
40
0.96000000000000063
40
0.97000000000000064
40
0.98000000000000065
40
0.99000000000000066
40
1
40
1
40
1
40
1
40
1
40
1
41
1
41
1
41
1
41
1
41
1
41
1
41
1
41
1
41
1
41
1
41
1
41
1
41
1
41
1
41
1
41
1
41
1
41
1
41
1
41
1
41
1
41
1
41
1
41
1
41
1
41
1
41
1
41
1
41
1
41
1
41
1
41
1
41
1
41
1
41
1
41
1
41
1
41
1
41
1
41
1
41
1
41
1
41
1
41
1
41
1
41
1
41
1
41
1
41
1
41
1
41
1
41
1
41
1
41
1
41
1
41
1
41
1
41
1
41
1
41
1
41
1
41
1
41
1
41
1
41
1
41
1
41
1
41
1
41
1
41
1
41
1
41
1
41
1
41
1
41
1
41
1
41
1
41
1
41
1
41
1
41
1
41
1
41
1
41
1
41
1
41
1
41
1
41
1
41
1
41
1
41
1
41
1
41
1
41
1
41
1
41
1
41
1
41
1
41
1
41
1
41
1
41
1
41
1
41
1
41
1
10
0
20
-0.055000000000000049
30
0
10
0.019849719889370274
20
-0.031265613987931672
30
0
10
0.059569563890632227
20
0.012876674222212864
30
0
10
0.11921054251034377
20
0.069110666552158903
30
0
10
0.19885429293581777
20
0.12412709369032893
30
0
10
0.29861079696785259
20
0.16030462984449598
30
0
10
0.39856214433263526
20
0.16595234221418867
30
0
10
0.49869422219188708
20
0.1452252912549051
30
0
10
0.59898339840226844
20
0.10506556730594745
30
0
10
0.69939399819052628
20
0.055930915397669
30
0
10
0.79988850910036313
20
0.0096120705981183781
30
0
10
0.90043795289218154
20
-0.022986462555172366
30
0
10
1.0010321587631072
20
-0.034045374352544233
30
0
10
1.1016901828084966
20
-0.0210557904067653
30
0
10
1.2024704271971922
20
0.011007257112039984
30
0
10
1.3034515143461549
20
0.052582737291493049
30
0
10
1.4047133002413434
20
0.09239323105859619
30
0
10
1.5063181150809348
20
0.12028289903201379
30
0
10
1.6082912631122461
20
0.13016253123814409
30
0
10
1.7106036155866622
20
0.12264717273146217
30
0
10
1.8131884380016838
20
0.10273202087566062
30
0
10
1.9159565210307936
20
0.077695477394875784
30
0
10
2.0188116770222879
20
0.054991842263317207
30
0
10
2.1216666739702053
20
0.039977350193878103
30
0
10
2.2244571404852858
20
0.034222276674486775
30
0
10
2.327144071884335
20
0.036698760298438021
30
0
10
2.4297186588103554
20
0.044590802597282909
30
0
10
2.532204651912036
20
0.054227345151805106
30
0
10
2.6346655406145696
20
0.062015689174771134
30
0
10
2.7371975835550906
20
0.0651956666422632
30
0
10
2.8398933803143316
20
0.062069966538414137
30
0
10
2.9428088468500717
20
0.052389845548660788
30
0
10
3.045934159171551
20
0.037581149588472661
30
0
10
3.1491500603802089
20
0.02127760808788827
30
0
10
3.2522377946490719
20
0.0088517962681048459
30
0
10
3.3549543714961425
20
0.0057698623910421723
30
0
10
3.4570951357747544
20
0.016146747169055165
30
0
10
3.5585530475244793
20
0.04142953372622326
30
0
10
3.6594003146116361
20
0.078505531053353408
30
0
10
3.7598690654099176
20
0.12032565855962558
30
0
10
3.8602599909068083
20
0.15830895661915895
30
0
10
3.9608683097427471
20
0.18432544138180618
30
0
10
4.0619112331292282
20
0.19262581992948016
30
0
10
4.1634332453520679
20
0.18236054162872922
30
0
10
4.2653212811139669
20
0.15720569102448109
30
0
10
4.3673873814671547
20
0.12320947030267962
30
0
10
4.4694339096148248
20
0.087108073055247343
30
0
10
4.5713190228771348
20
0.054610376685987887
30
0
10
4.6730396394012006
20
0.02828477464718359
30
0
10
4.7747080279533298
20
0.0079282995619992438
30
0
10
4.8764845444861908
20
-0.0080356359212506809
30
0
10
4.9785224144047513
20
-0.021444982209182197
30
0
10
5.0809124623896071
20
-0.033278787815042878
30
0
10
5.1836149872805368
20
-0.042253853746681613
30
0
10
5.2864937121194764
20
-0.045690368437096666
30
0
10
5.3893754048152811
20
-0.040943705313604174
30
0
10
5.4921015966324758
20
-0.02667278124116074
30
0
10
5.5945815511876029
20
-0.0041086455213482113
30
0
10
5.696850284909587
20
0.021489729371040101
30
0
10
5.7990228324665924
20
0.042875231675561176
30
0
10
5.901239995412074
20
0.053142655710542844
30
0
10
6.0036176035941393
20
0.047926822015570511
30
0
10
6.1061933850269039
20
0.027718651488442981
30
0
10
6.2088773412370282
20
-3.4852627507518221e-05
30
0
10
6.3114907232291735
20
-0.024354228050993708
30
0
10
6.4138023158339399
20
-0.034050229855446125
30
0
10
6.5155656950325005
20
-0.020948283364410503
30
0
10
6.6165560299535962
20
0.016529537837160969
30
0
10
6.7166070981281703
20
0.070859722439612374
30
0
10
6.815645993337144
20
0.12941613977882999
30
0
10
6.9137296469828602
20
0.17775670729560439
30
0
10
7.0110777196914587
20
0.20310477003309224
30
0
10
7.1081141696379113
20
0.19793098991615163
30
0
10
7.2054849193003898
20
0.16296434377306018
30
0
10
7.3038755672660827
20
0.10486675499492307
30
0
10
7.4038452358614402
20
0.034393924452673537
30
0
10
7.5056577186910971
20
-0.035624348908504397
30
0
10
7.6091054193597341
20
-0.092231751186400576
30
0
10
7.7133590360269793
20
-0.12430259733138807
30
0
10
7.8172677993941964
20
-0.12380191360724599
30
0
10
7.9196436055061445
20
-0.087156202001875932
30
0
10
8.0195379382837686
20
-0.016447467791695106
30
0
10
8.1165528565492053
20
0.078992669376443558
30
0
10
8.2110442654043627
20
0.18212917572868875
30
0
10
8.3038263150219507
20
0.27300699622702485
30
0
10
8.3959477217967287
20
0.33274675412073329
30
0
10
8.4884353422914156
20
0.34797308513067515
30
0
10
8.5820631677908388
20
0.314770225948035
30
0
10
8.6770798925639099
20
0.24361960980134098
30
0
10
8.7733184505272312
20
0.15473436949452746
30
0
10
8.8703503065829992
20
0.072313127203880334
30
0
10
8.9676285354167824
20
0.018943134026099432
30
0
10
9.0646246573566511
20
0.01047693843982193
30
0
10
9.1609955639645531
20
0.049346661734613537
30
0
10
9.2565946463390869
20
0.12559487959523802
30
0
10
9.3514068837603403
20
0.22160995178037063
30
0
10
9.4455067996665605
20
0.31580328100672017
30
0
10
9.5390097634907498
20
0.38646424598158846
30
0
10
9.6320194425045518
20
0.41616565047672477
30
0
10
9.7246011726866524
20
0.39367697967687487
30
0
10
9.8167957146111355
20
0.31215629874274442
30
0
10
9.8902575580431815
20
0.19703744706070786
30
0
10
9.9451918237996004
20
0.082127072380294208
30
0
10
9.9817426160881766
20
-0.0071750656866257029
30
0
10
10
20
-0.055000000000000049
30
0
0
SPLINE
5
104
100
AcDbEntity
8
0
100
AcDbSpline
70
4
71
5
72
111
73
105
74
0
42
0.000000001
43
0.0000000001
44
0.0000000001
40
0
40
0
40
0
40
0
40
0
40
0
40
0.01
40
0.02
40
0.029999999999999999
40
0.040000000000000001
40
0.050000000000000003
40
0.060000000000000005
40
0.070000000000000007
40
0.080000000000000002
40
0.089999999999999997
40
0.099999999999999992
40
0.10999999999999999
40
0.11999999999999998
40
0.12999999999999998
40
0.13999999999999999
40
0.14999999999999999
40
0.16
40
0.17000000000000001
40
0.18000000000000002
40
0.19000000000000003
40
0.20000000000000004
40
0.21000000000000005
40
0.22000000000000006
40
0.23000000000000007
40
0.24000000000000007
40
0.25000000000000006
40
0.26000000000000006
40
0.27000000000000007
40
0.28000000000000008
40
0.29000000000000009
40
0.3000000000000001
40
0.31000000000000011
40
0.32000000000000012
40
0.33000000000000013
40
0.34000000000000014
40
0.35000000000000014
40
0.36000000000000015
40
0.37000000000000016
40
0.38000000000000017
40
0.39000000000000018
40
0.40000000000000019
40
0.4100000000000002
40
0.42000000000000021
40
0.43000000000000022
40
0.44000000000000022
40
0.45000000000000023
40
0.46000000000000024
40
0.47000000000000025
40
0.48000000000000026
40
0.49000000000000027
40
0.50000000000000022
40
0.51000000000000023
40
0.52000000000000024
40
0.53000000000000025
40
0.54000000000000026
40
0.55000000000000027
40
0.56000000000000028
40
0.57000000000000028
40
0.58000000000000029
40
0.5900000000000003
40
0.60000000000000031
40
0.61000000000000032
40
0.62000000000000033
40
0.63000000000000034
40
0.64000000000000035
40
0.65000000000000036
40
0.66000000000000036
40
0.67000000000000037
40
0.68000000000000038
40
0.69000000000000039
40
0.7000000000000004
40
0.71000000000000041
40
0.72000000000000042
40
0.73000000000000043
40
0.74000000000000044
40
0.75000000000000044
40
0.76000000000000045
40
0.77000000000000046
40
0.78000000000000047
40
0.79000000000000048
40
0.80000000000000049
40
0.8100000000000005
40
0.82000000000000051
40
0.83000000000000052
40
0.84000000000000052
40
0.85000000000000053
40
0.86000000000000054
40
0.87000000000000055
40
0.88000000000000056
40
0.89000000000000057
40
0.90000000000000058
40
0.91000000000000059
40
0.9200000000000006
40
0.9300000000000006
40
0.94000000000000061
40
0.95000000000000062
40
0.96000000000000063
40
0.97000000000000064
40
0.98000000000000065
40
0.99000000000000066
40
1
40
1
40
1
40
1
40
1
40
1
41
1
41
1
41
1
41
1
41
1
41
1
41
1
41
1
41
1
41
1
41
1
41
1
41
1
41
1
41
1
41
1
41
1
41
1
41
1
41
1
41
1
41
1
41
1
41
1
41
1
41
1
41
1
41
1
41
1
41
1
41
1
41
1
41
1
41
1
41
1
41
1
41
1
41
1
41
1
41
1
41
1
41
1
41
1
41
1
41
1
41
1
41
1
41
1
41
1
41
1
41
1
41
1
41
1
41
1
41
1
41
1
41
1
41
1
41
1
41
1
41
1
41
1
41
1
41
1
41
1
41
1
41
1
41
1
41
1
41
1
41
1
41
1
41
1
41
1
41
1
41
1
41
1
41
1
41
1
41
1
41
1
41
1
41
1
41
1
41
1
41
1
41
1
41
1
41
1
41
1
41
1
41
1
41
1
41
1
41
1
41
1
41
1
41
1
41
1
41
1
41
1
41
1
41
1
41
1
41
1
10
0
20
3.0549999999999997
30
0
10
0.017784721285781832
20
3.028339542411234
30
0
10
0.053564752645459096
20
2.9776735841004371
30
0
10
0.10786656173822934
20
2.9096394106871823
30
0
10
0.18153274105506373
20
2.834860224987676
30
0
10
0.27570288659468001
20
2.7675865058929872
30
0
10
0.37190250873942843
20
2.725439674347351
30
0
10
0.4700129187118493
20
2.7062227119592377
30
0
10
0.56983748200163509
20
2.7063202026194482
30
0
10
0.67107319355523076
20
2.720126649438344
30
0
10
0.7733393564769877
20
2.7408788029744495
30
0
10
0.87622869213170906
20
2.7620245223764597
30
0
10
0.97935256056054865
20
2.7784782076882912
30
0
10
1.0823855376442553
20
2.7877898392795948
30
0
10
1.1851183423237339
20
2.7917011615029024
30
0
10
1.2874445453293588
20
2.7948283517350947
30
0
10
1.3893315265552533
20
2.8026781446740485
30
0
10
1.4907964892059169
20
2.8198570143163444
30
0
10
1.5918813040063682
20
2.8482811634670977
30
0
10
1.6926254455064613
20
2.8851652299946497
30
0
10
1.7930770713426321
20
2.924505074314991
30
0
10
1.8933075544994569
20
2.9588839049079318
30
0
10
1.9934253791914136
20
2.9811784588940453
30
0
10
2.0935889517621469
20
2.9862662837138458
30
0
10
2.1940236280844951
20
2.9728442283852292
30
0
10
2.2949578834751709
20
2.9428390698503875
30
0
10
2.3965543587660276
20
2.9006607295354909
30
0
10
2.4988425258680631
20
2.8525146305411146
30
0
10
2.6016510700368931
20
2.8056904565872327
30
0
10
2.7045388963407024
20
2.7678625190299218
30
0
10
2.8069406103394341
20
2.7459580666683676
30
0
10
2.9083156167363273
20
2.7450051437993803
30
0
10
3.0082926504432921
20
2.7670221185547383
30
0
10
3.1068237704794694
20
2.8098060040324375
30
0
10
3.2043132374337207
20
2.8659948616192059
30
0
10
3.3014297798707046
20
2.9256135451560028
30
0
10
3.3989400575962856
20
2.9783840690098535
30
0
10
3.4975334940016052
20
3.0161363801038501
30
0
10
3.5976523533520126
20
3.0351501950354813
30
0
10
3.699315017479142
20
3.0386051008960875
30
0
10
3.8022321165799857
20
3.0337380137556362
30
0
10
3.9059287920311463
20
3.0288611250283504
30
0
10
4.0098628754833845
20
3.030513403709187
30
0
10
4.113548642402888
20
3.0403675543847095
30
0
10
4.2166669177413763
20
3.0527733312717227
30
0
10
4.3190361967850519
20
3.0586093217456281
30
0
10
4.4205945124063204
20
3.0487667771900617
30
0
10
4.5213770046249842
20
3.0175447444083492
30
0
10
4.6214960788767447
20
2.9666188982702679
30
0
10
4.7211184534291686
20
2.907141369557944
30
0
10
4.8204341308349958
20
2.8544206237491938
30
0
10
4.919625566599457
20
2.8235990193402092
30
0
10
5.0188387170975721
20
2.8251927131819428
30
0
10
5.1181486872574649
20
2.8600960647063105
30
0
10
5.2175414191582279
20
2.9165927335970054
30
0
10
5.3169667075719307
20
2.9767386915939502
30
0
10
5.4163828543035422
20
3.0215542855195472
30
0
10
5.5158014463471812
20
3.0364382889496393
30
0
10
5.6153394347470176
20
3.017052633386093
30
0
10
5.7152465439112827
20
2.973344703023582
30
0
10
5.815793915537256
20
2.9226584640426174
30
0
10
5.9171758603195528
20
2.8840149509833353
30
0
10
6.0194138293522537
20
2.8722511137806084
30
0
10
6.1222421580853039
20
2.8914926641827865
30
0
10
6.2250530765186856
20
2.931086804423721
30
0
10
6.3271072162565778
20
2.972851319844481
30
0
10
6.42771336245724
20
2.9969395904576897
30
0
10
6.5264072628283802
20
2.9878298663324445
30
0
10
6.6231615005226896
20
2.9412392452313938
30
0
10
6.7184856659978021
20
2.8675602113322505
30
0
10
6.8131981430751534
20
2.7848066605625643
30
0
10
6.9082561534137579
20
2.7134092888404227
30
0
10
7.0045643847380603
20
2.670358099198511
30
0
10
7.1027893069215144
20
2.6634461917177754
30
0
10
7.2031807101338376
20
2.6859587421647078
30
0
10
7.3056334137289696
20
2.7227562383297284
30
0
10
7.409736291799657
20
2.7559342793631094
30
0
10
7.5148283833736551
20
2.7704349561309121
30
0
10
7.6200460323331862
20
2.7601593516459735
30
0
10
7.7243903953808504
20
2.7324651967081288
30
0
10
7.8269108407518484
20
2.7020847926577489
30
0
10
7.9268831306151579
20
2.6860514195478142
30
0
10
8.0239750515806456
20
2.698536512279607
30
0
10
8.11845218599451
20
2.74502484001962
30
0
10
8.2112589426001783
20
2.8189503798587467
30
0
10
8.3036830795155705
20
2.9067647544115927
30
0
10
8.3970920468047616
20
2.9915606254969438
30
0
10
8.4926370889668874
20
3.0573103912705135
30
0
10
8.5909805105455312
20
3.0927274426141564
30
0
10
8.6919869812907997
20
3.0956026185787398
30
0
10
8.7949564237048463
20
3.0705914946314952
30
0
10
8.8988927102633504
20
3.026579866209282
30
0
10
9.0027580627037267
20
2.9742135314282447
30
0
10
9.1057360435492321
20
2.9233385472339757
30
0
10
9.2074836132051914
20
2.8805411018117102
30
0
10
9.3080068726205596
20
2.8498375160111888
30
0
10
9.4075440833958339
20
2.8333026412734923
30
0
10
9.5064473106968759
20
2.8317144851198379
30
0
10
9.6050621231414759
20
2.8452026073027783
30
0
10
9.7036156122880293
20
2.8738611105215468
30
0
10
9.8022449540980414
20
2.9177358130553133
30
0
10
9.8812636003389702
20
2.9650238061665171
30
0
10
9.940602628273659
20
3.0073460048395706
30
0
10
9.9801953192735571
20
3.0386075460006037
30
0
10
10
20
3.0549999999999997
30
0
0
ENDSEC
0
SECTION
2
OBJECTS
0
DICTIONARY
5
C
100
AcDbDictionary
3
ACAD_GROUP
350
D
3
ACAD_MLINESTYLE
350
17
0
DICTIONARY
5
D
100
AcDbDictionary
0
DICTIONARY
5
1A
330
C
100
AcDbDictionary
0
DICTIONARY
5
17
100
AcDbDictionary
0
ENDSEC
0
EOF
