0
SECTION
2
HEADER
9
$INSUNITS
70
4
9
$ACADVER
1
AC1014
9
$HANDSEED
5
FFFF
0
ENDSEC
0
SECTION
2
TABLES
0
TABLE
2
VPORT
5
8
100
AcDbSymbolTable
0
ENDTAB
0
TABLE
2
LTYPE
5
5
100
AcDbSymbolTable
0
LTYPE
5
14
100
AcDbSymbolTableRecord
100
AcDbLinetypeTableRecord
2
BYBLOCK
70
0
0
LTYPE
5
15
100
AcDbSymbolTableRecord
100
AcDbLinetypeTableRecord
2
BYLAYER
70
0
0
ENDTAB
0
TABLE
2
LAYER
5
2
100
AcDbSymbolTable
70
2
0
LAYER
5
50
100
AcDbSymbolTableRecord
100
AcDbLayerTableRecord
2
0
70
0
6
CONTINUOUS
0
ENDTAB
0
TABLE
2
STYLE
5
3
100
AcDbSymbolTable
70
1
0
STYLE
5
11
100
AcDbSymbolTableRecord
100
AcDbTextStyleTableRecord
2
STANDARD
70
0
0
ENDTAB
0
TABLE
2
VIEW
5
6
100
AcDbSymbolTable
70
0
0
ENDTAB
0
TABLE
2
UCS
5
7
100
AcDbSymbolTable
70
0
0
ENDTAB
0
TABLE
2
APPID
5
9
100
AcDbSymbolTable
70
2
0
APPID
5
12
100
AcDbSymbolTableRecord
100
AcDbRegAppTableRecord
2
ACAD
70
0
0
ENDTAB
0
TABLE
2
DIMSTYLE
5
A
100
AcDbSymbolTable
70
1
0
ENDTAB
0
TABLE
2
BLOCK_RECORD
5
1
100
AcDbSymbolTable
70
1
0
BLOCK_RECORD
5
1F
100
AcDbSymbolTableRecord
100
AcDbBlockTableRecord
2
*MODEL_SPACE
0
BLOCK_RECORD
5
1B
100
AcDbSymbolTableRecord
100
AcDbBlockTableRecord
2
*PAPER_SPACE
0
ENDTAB
0
ENDSEC
0
SECTION
2
BLOCKS
0
BLOCK
5
20
100
AcDbEntity
100
AcDbBlockBegin
2
*MODEL_SPACE
0
ENDBLK
5
21
100
AcDbEntity
100
AcDbBlockEnd
0
BLOCK
5
1C
100
AcDbEntity
100
AcDbBlockBegin
2
*PAPER_SPACE
0
ENDBLK
5
1D
100
AcDbEntity
100
AcDbBlockEnd
0
ENDSEC
0
SECTION
2
ENTITIES
0
SPLINE
5
100
100
AcDbEntity
8
0
100
AcDbSpline
70
4
71
5
72
16
73
10
74
0
42
0.000000001
43
0.0000000001
44
0.0000000001
40
0
40
0
40
0
40
0
40
0
40
0
40
0.20000000000000001
40
0.40000000000000002
40
0.60000000000000009
40
0.80000000000000004
40
1
40
1
40
1
40
1
40
1
40
1
41
1
41
1
41
1
41
1
41
1
41
1
41
1
41
1
41
1
41
1
10
0
20
-0.055000000000000049
30
0
10
0
20
0.069400000000207365
30
0
10
0
20
0.31820000000056603
30
0
10
0
20
0.69140000000093593
30
0
10
0
20
1.1890000000011365
30
0
10
0
20
1.8110000000010393
30
0
10
0
20
2.3086000000007481
30
0
10
0
20
2.6818000000004227
30
0
10
0
20
2.9306000000001484
30
0
10
0
20
3.0549999999999997
30
0
0
SPLINE
5
101
100
AcDbEntity
8
0
100
AcDbSpline
70
4
71
5
72
16
73
10
74
0
42
0.000000001
43
0.0000000001
44
0.0000000001
40
0
40
0
40
0
40
0
40
0
40
0
40
0.20000000000000001
40
0.40000000000000002
40
0.60000000000000009
40
0.80000000000000004
40
1
40
1
40
1
40
1
40
1
40
1
41
1
41
1
41
1
41
1
41
1
41
1
41
1
41
1
41
1
41
1
10
10
20
-0.055000000000000049
30
0
10
9.9999999999997495
20
0.069400000000207365
30
0
10
9.9999999999993197
20
0.31820000000056603
30
0
10
9.9999999999989129
20
0.69140000000093593
30
0
10
9.9999999999987672
20
1.1890000000011365
30
0
10
9.9999999999990248
20
1.8110000000010393
30
0
10
9.9999999999993889
20
2.3086000000007481
30
0
10
9.9999999999996998
20
2.6818000000004227
30
0
10
9.9999999999999005
20
2.9306000000001484
30
0
10
10
20
3.0549999999999997
30
0
0
SPLINE
5
102
100
AcDbEntity
8
0
100
AcDbSpline
70
4
71
5
72
16
73
10
74
0
42
0.000000001
43
0.0000000001
44
0.0000000001
40
0
40
0
40
0
40
0
40
0
40
0
40
0.20000000000000001
40
0.40000000000000002
40
0.60000000000000009
40
0.80000000000000004
40
1
40
1
40
1
40
1
40
1
40
1
41
1
41
1
41
1
41
1
41
1
41
1
41
1
41
1
41
1
41
1
10
0
20
1.5274999999999999
30
0
10
0.40000000000047375
20
1.5274999999999856
30
0
10
1.2000000000012774
20
1.5274999999999614
30
0
10
2.4000000000020547
20
1.527499999999943
30
0
10
4.0000000000023546
20
1.5274999999999479
30
0
10
6.0000000000019584
20
1.5274999999999812
30
0
10
7.6000000000012928
20
1.5275000000000025
30
0
10
8.800000000000697
20
1.5275000000000083
30
0
10
9.6000000000002395
20
1.5275000000000039
30
0
10
10
20
1.5274999999999999
30
0
0
SPLINE
5
103
100
AcDbEntity
8
0
100
AcDbSpline
70
4
71
5
72
61
73
55
74
0
42
0.000000001
43
0.0000000001
44
0.0000000001
40
0
40
0
40
0
40
0
40
0
40
0
40
0.02
40
0.040000000000000001
40
0.059999999999999998
40
0.080000000000000002
40
0.10000000000000001
40
0.12000000000000001
40
0.14000000000000001
40
0.16
40
0.17999999999999999
40
0.19999999999999998
40
0.21999999999999997
40
0.23999999999999996
40
0.25999999999999995
40
0.27999999999999997
40
0.29999999999999999
40
0.32000000000000001
40
0.34000000000000002
40
0.36000000000000004
40
0.38000000000000006
40
0.40000000000000008
40
0.4200000000000001
40
0.44000000000000011
40
0.46000000000000013
40
0.48000000000000015
40
0.50000000000000011
40
0.52000000000000013
40
0.54000000000000015
40
0.56000000000000016
40
0.58000000000000018
40
0.6000000000000002
40
0.62000000000000022
40
0.64000000000000024
40
0.66000000000000025
40
0.68000000000000027
40
0.70000000000000029
40
0.72000000000000031
40
0.74000000000000032
40
0.76000000000000034
40
0.78000000000000036
40
0.80000000000000038
40
0.8200000000000004
40
0.84000000000000041
40
0.86000000000000043
40
0.88000000000000045
40
0.90000000000000047
40
0.92000000000000048
40
0.9400000000000005
40
0.96000000000000052
40
0.98000000000000054
40
1
40
1
40
1
40
1
40
1
40
1
41
1
41
1
41
1
41
1
41
1
41
1
41
1
41
1
41
1
41
1
41
1
41
1
41
1
41
1
41
1
41
1
41
1
41
1
41
1
41
1
41
1
41
1
41
1
41
1
41
1
41
1
41
1
41
1
41
1
41
1
41
1
41
1
41
1
41
1
41
1
41
1
41
1
41
1
41
1
41
1
41
1
41
1
41
1
41
1
41
1
41
1
41
1
41
1
41
1
41
1
41
1
41
1
41
1
41
1
41
1
10
0
20
-0.055000000000000049
30
0
10
0.03991043779548098
20
-0.042709576435467397
30
0
10
0.11980140548524297
20
-0.019363840206777998
30
0
10
0.23984813444692107
20
0.011949419970534966
30
0
10
0.40033125882623227
20
0.046285016561121009
30
0
10
0.6016182160896264
20
0.07701578695251958
30
0
10
0.80353030985164908
20
0.096119503890699259
30
0
10
1.0059498363008728
20
0.10475402722801846
30
0
10
1.2086777910376465
20
0.10489182844145786
30
0
10
1.4114153687671789
20
0.099507831366090066
30
0
10
1.6138486981925086
20
0.09173376943313391
30
0
10
1.8157323875678748
20
0.084021879445134673
30
0
10
2.0169706502608662
20
0.077339265294419687
30
0
10
2.2177067484902202
20
0.070264158056049394
30
0
10
2.4183897943091659
20
0.05834967913040414
30
0
10
2.6195747886705592
20
0.036580682279212247
30
0
10
2.8217373079467785
20
0.0016792952998833201
30
0
10
3.0250903178120323
20
-0.045653188639934048
30
0
10
3.2293813841285504
20
-0.098168619901130044
30
0
10
3.4337496651346981
20
-0.14046511595196595
30
0
10
3.6370427024917609
20
-0.15461949141882989
30
0
10
3.8380938288533333
20
-0.12525543996170038
30
0
10
4.0360021937824779
20
-0.044536235067528129
30
0
10
4.2304409709483011
20
0.082100065108782969
30
0
10
4.4218686156584388
20
0.23257108859118591
30
0
10
4.6112422320285527
20
0.37681908920374824
30
0
10
4.7997990072601464
20
0.48381940452008376
30
0
10
4.9888102028912922
20
0.52933086801704776
30
0
10
5.1793517449188897
20
0.50310084863900584
30
0
10
5.3720549014474619
20
0.4169940446004306
30
0
10
5.5671673984827921
20
0.29726985545425
30
0
10
5.7646299231441231
20
0.17617736309475091
30
0
10
5.9641460984792873
20
0.083553010726051452
30
0
10
6.1652545603511433
20
0.039027154757291606
30
0
10
6.3673992357576568
20
0.042352760084089613
30
0
10
6.5700016405789183
20
0.078273176005894424
30
0
10
6.7725320253023717
20
0.12422157524641989
30
0
10
6.9745832772506446
20
0.15717139325970172
30
0
10
7.1759387743821286
20
0.1604810878062771
30
0
10
7.3766569897922851
20
0.13169331369828013
30
0
10
7.5769920232297139
20
0.079093286486836945
30
0
10
7.7772933272526696
20
0.016770679304063948
30
0
10
7.9779113567791722
20
-0.039846840842093223
30
0
10
8.1791048390748955
20
-0.078469310883286666
30
0
10
8.380936427154964
20
-0.0949054303783506
30
0
10
8.5833153123699066
20
-0.091407793047775604
30
0
10
8.7860562864577645
20
-0.074266929624629996
30
0
10
8.9889330475346458
20
-0.0516702396848744
30
0
10
9.1917327767760426
20
-0.031495756679202985
30
0
10
9.3943128316064382
20
-0.019029086465568876
30
0
10
9.5965888167875981
20
-0.017396697424519693
30
0
10
9.7581328961333291
20
-0.025998463566636217
30
0
10
9.8791292830893269
20
-0.038246349257285608
30
0
10
9.9597217294764011
20
-0.048986334437885415
30
0
10
10
20
-0.055000000000000049
30
0
0
SPLINE
5
104
100
AcDbEntity
8
0
100
AcDbSpline
70
4
71
5
72
61
73
55
74
0
42
0.000000001
43
0.0000000001
44
0.0000000001
40
0
40
0
40
0
40
0
40
0
40
0
40
0.02
40
0.040000000000000001
40
0.059999999999999998
40
0.080000000000000002
40
0.10000000000000001
40
0.12000000000000001
40
0.14000000000000001
40
0.16
40
0.17999999999999999
40
0.19999999999999998
40
0.21999999999999997
40
0.23999999999999996
40
0.25999999999999995
40
0.27999999999999997
40
0.29999999999999999
40
0.32000000000000001
40
0.34000000000000002
40
0.36000000000000004
40
0.38000000000000006
40
0.40000000000000008
40
0.4200000000000001
40
0.44000000000000011
40
0.46000000000000013
40
0.48000000000000015
40
0.50000000000000011
40
0.52000000000000013
40
0.54000000000000015
40
0.56000000000000016
40
0.58000000000000018
40
0.6000000000000002
40
0.62000000000000022
40
0.64000000000000024
40
0.66000000000000025
40
0.68000000000000027
40
0.70000000000000029
40
0.72000000000000031
40
0.74000000000000032
40
0.76000000000000034
40
0.78000000000000036
40
0.80000000000000038
40
0.8200000000000004
40
0.84000000000000041
40
0.86000000000000043
40
0.88000000000000045
40
0.90000000000000047
40
0.92000000000000048
40
0.9400000000000005
40
0.96000000000000052
40
0.98000000000000054
40
1
40
1
40
1
40
1
40
1
40
1
41
1
41
1
41
1
41
1
41
1
41
1
41
1
41
1
41
1
41
1
41
1
41
1
41
1
41
1
41
1
41
1
41
1
41
1
41
1
41
1
41
1
41
1
41
1
41
1
41
1
41
1
41
1
41
1
41
1
41
1
41
1
41
1
41
1
41
1
41
1
41
1
41
1
41
1
41
1
41
1
41
1
41
1
41
1
41
1
41
1
41
1
41
1
41
1
41
1
41
1
41
1
41
1
41
1
41
1
41
1
10
0
20
3.0549999999999997
30
0
10
0.040929251646514536
20
3.061452988838159
30
0
10
0.12272131317032195
20
3.0726712794979525
30
0
10
0.24521007947024279
20
3.0844356262689523
30
0
10
0.40812952872968644
20
3.0899888900947508
30
0
10
0.61112222804200933
20
3.0803520021129298
30
0
10
0.8134857462126649
20
3.0551354352808762
30
0
10
1.0152767792280712
20
3.0163808248598318
30
0
10
1.2165921467449938
20
2.9675580707853562
30
0
10
1.4175777496886612
20
2.9138717415603121
30
0
10
1.618410706797567
20
2.8614739003830088
30
0
10
1.819283300518413
20
2.8167456216426112
30
0
10
2.0203861485355508
20
2.785556116350103
30
0
10
2.2218920540854259
20
2.7725245776104246
30
0
10
2.4239385874687724
20
2.7802960506214482
30
0
10
2.6266026392520034
20
2.8091172972222935
30
0
10
2.829874302769019
20
2.8563398420028321
30
0
10
3.0336331453148495
20
2.9160280690155895
30
0
10
3.2376176416505844
20
2.978314380836657
30
0
10
3.441413517117855
20
3.029438837440896
30
0
10
3.6445433611396645
20
3.055325280677796
30
0
10
3.8465452771165176
20
3.0448473356433841
30
0
10
4.0470523271448977
20
2.9929603980315362
30
0
10
4.2458799850735289
20
2.9045183559917138
30
0
10
4.4430853946175883
20
2.7959274825148017
30
0
10
4.6389233305099156
20
2.6892206763352666
30
0
10
4.8338205134434196
20
2.6072987048928447
30
0
10
5.0283411414700652
20
2.5688861412766495
30
0
10
5.2231615244391163
20
2.5832094250951871
30
0
10
5.4190267665214185
20
2.6459255194691496
30
0
10
5.6166056676561773
20
2.7435876655200437
30
0
10
5.8163540199135602
20
2.8571473371840126
30
0
10
6.0183794507318122
20
2.9657708664472793
30
0
10
6.2222923813292219
20
3.050603808099499
30
0
10
6.4270967770586722
20
3.0982986142725695
30
0
10
6.631506609640633
20
3.1011335590859597
30
0
10
6.8342357756724912
20
3.0574544187000963
30
0
10
7.0342854307398834
20
2.9719214457289418
30
0
10
7.2312621736063694
20
2.8560643449285856
30
0
10
7.4255975078057759
20
2.7281088674973208
30
0
10
7.6182293583166967
20
2.6090159543262281
30
0
10
7.8103521225561758
20
2.5189930266333462
30
0
10
8.003141964914894
20
2.4738380711825321
30
0
10
8.1974908147358772
20
2.4813100112434396
30
0
10
8.3937417387398057
20
2.5375651167165425
30
0
10
8.5918336496398453
20
2.6306406613714559
30
0
10
8.7914373507598835
20
2.7437919725145932
30
0
10
8.9920947391269817
20
2.858888083963568
30
0
10
9.1933544332320647
20
2.9597292891424436
30
0
10
9.3949134862580159
20
3.035525763751528
30
0
10
9.5965911518532412
20
3.0798900767009489
30
0
10
9.7579557087539435
20
3.0877190951625582
30
0
10
9.8789782140636664
20
3.0775814949073927
30
0
10
9.9596594729983732
20
3.0637122924170073
30
0
10
10
20
3.0549999999999997
30
0
0
ENDSEC
0
SECTION
2
OBJECTS
0
DICTIONARY
5
C
100
AcDbDictionary
3
ACAD_GROUP
350
D
3
ACAD_MLINESTYLE
350
17
0
DICTIONARY
5
D
100
AcDbDictionary
0
DICTIONARY
5
1A
330
C
100
AcDbDictionary
0
DICTIONARY
5
17
100
AcDbDictionary
0
ENDSEC
0
EOF
