0
SECTION
2
HEADER
9
$INSUNITS
70
4
9
$ACADVER
1
AC1014
9
$HANDSEED
5
FFFF
0
ENDSEC
0
SECTION
2
TABLES
0
TABLE
2
VPORT
5
8
100
AcDbSymbolTable
0
ENDTAB
0
TABLE
2
LTYPE
5
5
100
AcDbSymbolTable
0
LTYPE
5
14
100
AcDbSymbolTableRecord
100
AcDbLinetypeTableRecord
2
BYBLOCK
70
0
0
LTYPE
5
15
100
AcDbSymbolTableRecord
100
AcDbLinetypeTableRecord
2
BYLAYER
70
0
0
ENDTAB
0
TABLE
2
LAYER
5
2
100
AcDbSymbolTable
70
2
0
LAYER
5
50
100
AcDbSymbolTableRecord
100
AcDbLayerTableRecord
2
0
70
0
6
CONTINUOUS
0
ENDTAB
0
TABLE
2
STYLE
5
3
100
AcDbSymbolTable
70
1
0
STYLE
5
11
100
AcDbSymbolTableRecord
100
AcDbTextStyleTableRecord
2
STANDARD
70
0
0
ENDTAB
0
TABLE
2
VIEW
5
6
100
AcDbSymbolTable
70
0
0
ENDTAB
0
TABLE
2
UCS
5
7
100
AcDbSymbolTable
70
0
0
ENDTAB
0
TABLE
2
APPID
5
9
100
AcDbSymbolTable
70
2
0
APPID
5
12
100
AcDbSymbolTableRecord
100
AcDbRegAppTableRecord
2
ACAD
70
0
0
ENDTAB
0
TABLE
2
DIMSTYLE
5
A
100
AcDbSymbolTable
70
1
0
ENDTAB
0
TABLE
2
BLOCK_RECORD
5
1
100
AcDbSymbolTable
70
1
0
BLOCK_RECORD
5
1F
100
AcDbSymbolTableRecord
100
AcDbBlockTableRecord
2
*MODEL_SPACE
0
BLOCK_RECORD
5
1B
100
AcDbSymbolTableRecord
100
AcDbBlockTableRecord
2
*PAPER_SPACE
0
ENDTAB
0
ENDSEC
0
SECTION
2
BLOCKS
0
BLOCK
5
20
100
AcDbEntity
100
AcDbBlockBegin
2
*MODEL_SPACE
0
ENDBLK
5
21
100
AcDbEntity
100
AcDbBlockEnd
0
BLOCK
5
1C
100
AcDbEntity
100
AcDbBlockBegin
2
*PAPER_SPACE
0
ENDBLK
5
1D
100
AcDbEntity
100
AcDbBlockEnd
0
ENDSEC
0
SECTION
2
ENTITIES
0
SPLINE
5
100
100
AcDbEntity
8
0
100
AcDbSpline
70
4
71
5
72
16
73
10
74
0
42
0.000000001
43
0.0000000001
44
0.0000000001
40
0
40
0
40
0
40
0
40
0
40
0
40
0.20000000000000001
40
0.40000000000000002
40
0.60000000000000009
40
0.80000000000000004
40
1
40
1
40
1
40
1
40
1
40
1
41
1
41
1
41
1
41
1
41
1
41
1
41
1
41
1
41
1
41
1
10
0
20
-0.055000000000000049
30
0
10
0
20
0.069400000000207365
30
0
10
0
20
0.31820000000056603
30
0
10
0
20
0.69140000000093593
30
0
10
0
20
1.1890000000011365
30
0
10
0
20
1.8110000000010393
30
0
10
0
20
2.3086000000007481
30
0
10
0
20
2.6818000000004227
30
0
10
0
20
2.9306000000001484
30
0
10
0
20
3.0549999999999997
30
0
0
SPLINE
5
101
100
AcDbEntity
8
0
100
AcDbSpline
70
4
71
5
72
16
73
10
74
0
42
0.000000001
43
0.0000000001
44
0.0000000001
40
0
40
0
40
0
40
0
40
0
40
0
40
0.20000000000000001
40
0.40000000000000002
40
0.60000000000000009
40
0.80000000000000004
40
1
40
1
40
1
40
1
40
1
40
1
41
1
41
1
41
1
41
1
41
1
41
1
41
1
41
1
41
1
41
1
10
10
20
-0.055000000000000049
30
0
10
9.9999999999997495
20
0.069400000000207365
30
0
10
9.9999999999993197
20
0.31820000000056603
30
0
10
9.9999999999989129
20
0.69140000000093593
30
0
10
9.9999999999987672
20
1.1890000000011365
30
0
10
9.9999999999990248
20
1.8110000000010393
30
0
10
9.9999999999993889
20
2.3086000000007481
30
0
10
9.9999999999996998
20
2.6818000000004227
30
0
10
9.9999999999999005
20
2.9306000000001484
30
0
10
10
20
3.0549999999999997
30
0
0
SPLINE
5
102
100
AcDbEntity
8
0
100
AcDbSpline
70
4
71
5
72
16
73
10
74
0
42
0.000000001
43
0.0000000001
44
0.0000000001
40
0
40
0
40
0
40
0
40
0
40
0
40
0.20000000000000001
40
0.40000000000000002
40
0.60000000000000009
40
0.80000000000000004
40
1
40
1
40
1
40
1
40
1
40
1
41
1
41
1
41
1
41
1
41
1
41
1
41
1
41
1
41
1
41
1
10
0
20
1.5274999999999999
30
0
10
0.40000000000047375
20
1.5274999999999856
30
0
10
1.2000000000012774
20
1.5274999999999614
30
0
10
2.4000000000020547
20
1.527499999999943
30
0
10
4.0000000000023546
20
1.5274999999999479
30
0
10
6.0000000000019584
20
1.5274999999999812
30
0
10
7.6000000000012928
20
1.5275000000000025
30
0
10
8.800000000000697
20
1.5275000000000083
30
0
10
9.6000000000002395
20
1.5275000000000039
30
0
10
10
20
1.5274999999999999
30
0
0
SPLINE
5
103
100
AcDbEntity
8
0
100
AcDbSpline
70
4
71
5
72
61
73
55
74
0
42
0.000000001
43
0.0000000001
44
0.0000000001
40
0
40
0
40
0
40
0
40
0
40
0
40
0.02
40
0.040000000000000001
40
0.059999999999999998
40
0.080000000000000002
40
0.10000000000000001
40
0.12000000000000001
40
0.14000000000000001
40
0.16
40
0.17999999999999999
40
0.19999999999999998
40
0.21999999999999997
40
0.23999999999999996
40
0.25999999999999995
40
0.27999999999999997
40
0.29999999999999999
40
0.32000000000000001
40
0.34000000000000002
40
0.36000000000000004
40
0.38000000000000006
40
0.40000000000000008
40
0.4200000000000001
40
0.44000000000000011
40
0.46000000000000013
40
0.48000000000000015
40
0.50000000000000011
40
0.52000000000000013
40
0.54000000000000015
40
0.56000000000000016
40
0.58000000000000018
40
0.6000000000000002
40
0.62000000000000022
40
0.64000000000000024
40
0.66000000000000025
40
0.68000000000000027
40
0.70000000000000029
40
0.72000000000000031
40
0.74000000000000032
40
0.76000000000000034
40
0.78000000000000036
40
0.80000000000000038
40
0.8200000000000004
40
0.84000000000000041
40
0.86000000000000043
40
0.88000000000000045
40
0.90000000000000047
40
0.92000000000000048
40
0.9400000000000005
40
0.96000000000000052
40
0.98000000000000054
40
1
40
1
40
1
40
1
40
1
40
1
41
1
41
1
41
1
41
1
41
1
41
1
41
1
41
1
41
1
41
1
41
1
41
1
41
1
41
1
41
1
41
1
41
1
41
1
41
1
41
1
41
1
41
1
41
1
41
1
41
1
41
1
41
1
41
1
41
1
41
1
41
1
41
1
41
1
41
1
41
1
41
1
41
1
41
1
41
1
41
1
41
1
41
1
41
1
41
1
41
1
41
1
41
1
41
1
41
1
41
1
41
1
41
1
41
1
41
1
41
1
10
0
20
-0.055000000000000049
30
0
10
0.040383648390920616
20
-0.055621839233002845
30
0
10
0.12115046434687264
20
-0.056201794887802678
30
0
10
0.24229924591420376
20
-0.055080544995825688
30
0
10
0.40382806710160896
20
-0.049600712719476817
30
0
10
0.60573328269801674
20
-0.036311964663472064
30
0
10
0.80762969161439424
20
-0.017220461272125558
30
0
10
1.0095113422588007
20
0.0063846874549967946
30
0
10
1.2113682467911633
20
0.032325137206464807
30
0
10
1.4131856057619683
20
0.057337804019105543
30
0
10
1.6149494365891854
20
0.077787960404057277
30
0
10
1.8166520622580467
20
0.090353005590200097
30
0
10
2.0182974386428789
20
0.092702017910769111
30
0
10
2.2199071087412561
20
0.084215851210295206
30
0
10
2.4215244279262507
20
0.066589964103391908
30
0
10
2.6232001918389312
20
0.043098355789500969
30
0
10
2.8249793268087728
20
0.017958428057362051
30
0
10
3.0268878193976505
20
-0.0043365475838303188
30
0
10
3.2289179851655754
20
-0.0196764313231403
30
0
10
3.4310187696916894
20
-0.024976518623953566
30
0
10
3.6331210338726541
20
-0.01858331525588737
30
0
10
3.8351599647648031
20
-0.00074450017464213749
30
0
10
4.0370969903585863
20
0.026013281425261867
30
0
10
4.2389456969184183
20
0.056291374160722114
30
0
10
4.4407849945010911
20
0.081816016618109513
30
0
10
4.64271244881113
20
0.094092503604200892
30
0
10
4.8448040416170759
20
0.086812641364233251
30
0
10
5.0470748876205178
20
0.058133870794932319
30
0
10
5.2494311942463581
20
0.01356224490084668
30
0
10
5.4516510079795255
20
-0.033062191344379155
30
0
10
5.6534647454526485
20
-0.065084702964100738
30
0
10
5.8546221252527548
20
-0.06769480332503762
30
0
10
6.0549587406623182
20
-0.0325016557487392
30
0
10
6.2544765077417157
20
0.036838412590225238
30
0
10
6.4533756568304756
20
0.12259412278705084
30
0
10
6.6519504949196957
20
0.20099181469103836
30
0
10
6.8505077663282732
20
0.24860752115887494
30
0
10
7.0492817783586625
20
0.24893903035161632
30
0
10
7.2483375246097692
20
0.20001665157673604
30
0
10
7.4475199711948807
20
0.11816490268431984
30
0
10
7.6465558053799665
20
0.029127173059082623
30
0
10
7.8451306500977767
20
-0.038793620999270147
30
0
10
8.0429718852493366
20
-0.06202112540077926
30
0
10
8.2399383230925451
20
-0.029654867124236262
30
0
10
8.4360790749952983
20
0.051404518417333879
30
0
10
8.6315660693652472
20
0.16284010454921202
30
0
10
8.8266459742785592
20
0.27954039031083877
30
0
10
9.0215857418673693
20
0.37479514504260319
30
0
10
9.216618718255102
20
0.42545725306314641
30
0
10
9.4118970458900755
20
0.4164877293132338
30
0
10
9.607512103768773
20
0.33891214555123872
30
0
10
9.7643093190909021
20
0.21849401337716787
30
0
10
9.8820854159881559
20
0.094741871551918572
30
0
10
9.9606819491941661
20
-0.0026108091966108157
30
0
10
10
20
-0.055000000000000049
30
0
0
SPLINE
5
104
100
AcDbEntity
8
0
100
AcDbSpline
70
4
71
5
72
61
73
55
74
0
42
0.000000001
43
0.0000000001
44
0.0000000001
40
0
40
0
40
0
40
0
40
0
40
0
40
0.02
40
0.040000000000000001
40
0.059999999999999998
40
0.080000000000000002
40
0.10000000000000001
40
0.12000000000000001
40
0.14000000000000001
40
0.16
40
0.17999999999999999
40
0.19999999999999998
40
0.21999999999999997
40
0.23999999999999996
40
0.25999999999999995
40
0.27999999999999997
40
0.29999999999999999
40
0.32000000000000001
40
0.34000000000000002
40
0.36000000000000004
40
0.38000000000000006
40
0.40000000000000008
40
0.4200000000000001
40
0.44000000000000011
40
0.46000000000000013
40
0.48000000000000015
40
0.50000000000000011
40
0.52000000000000013
40
0.54000000000000015
40
0.56000000000000016
40
0.58000000000000018
40
0.6000000000000002
40
0.62000000000000022
40
0.64000000000000024
40
0.66000000000000025
40
0.68000000000000027
40
0.70000000000000029
40
0.72000000000000031
40
0.74000000000000032
40
0.76000000000000034
40
0.78000000000000036
40
0.80000000000000038
40
0.8200000000000004
40
0.84000000000000041
40
0.86000000000000043
40
0.88000000000000045
40
0.90000000000000047
40
0.92000000000000048
40
0.9400000000000005
40
0.96000000000000052
40
0.98000000000000054
40
1
40
1
40
1
40
1
40
1
40
1
41
1
41
1
41
1
41
1
41
1
41
1
41
1
41
1
41
1
41
1
41
1
41
1
41
1
41
1
41
1
41
1
41
1
41
1
41
1
41
1
41
1
41
1
41
1
41
1
41
1
41
1
41
1
41
1
41
1
41
1
41
1
41
1
41
1
41
1
41
1
41
1
41
1
41
1
41
1
41
1
41
1
41
1
41
1
41
1
41
1
41
1
41
1
41
1
41
1
41
1
41
1
41
1
41
1
41
1
41
1
10
0
20
3.0549999999999997
30
0
10
0.040921795719815565
20
3.0741566663228599
30
0
10
0.12262886376129238
20
3.1081973702570624
30
0
10
0.24477989522124158
20
3.1464404922160032
30
0
10
0.40682826587578463
20
3.1717791635989299
30
0
10
0.60803422426473885
20
3.1617237579713864
30
0
10
0.80792597762630469
20
3.1131919324819837
30
0
10
1.0065881425986869
20
3.0328079736955207
30
0
10
1.204165845369251
20
2.9317708883665823
30
0
10
1.4008798408426373
20
2.826928178697679
30
0
10
1.5970007173285203
20
2.7370286638397765
30
0
10
1.7928244102285555
20
2.6791420860113799
30
0
10
1.9886472141840317
20
2.6649561004315778
30
0
10
2.1847413074125459
20
2.6972461693247474
30
0
10
2.3813292815408218
20
2.7658876294807766
30
0
10
2.5785774706247189
20
2.852529819632049
30
0
10
2.7765904709864611
20
2.9356745436917979
30
0
10
2.9754045275138665
20
2.9957117927654453
30
0
10
3.174982392669115
20
3.0197076971037933
30
0
10
3.3752041535745643
20
3.0070219511925158
30
0
10
3.5758971137928546
20
2.9661618977076856
30
0
10
3.7768702266406788
20
2.9105519650295673
30
0
10
3.9779475416741987
20
2.8546318501313745
30
0
10
4.1790004505594123
20
2.8099887304155633
30
0
10
4.3799848635356238
20
2.7810283930637594
30
0
10
4.5809196536144379
20
2.766652720940046
30
0
10
4.7818586667932834
20
2.7626093381605803
30
0
10
4.9828647459830675
20
2.7636245627947464
30
0
10
5.1839838576563544
20
2.7655448136818039
30
0
10
5.3852167200540633
20
2.7676847447649329
30
0
10
5.5865317817678495
20
2.7716180011984406
30
0
10
5.7878816663068982
20
2.7796689578704865
30
0
10
5.9892184992458484
20
2.7934953661541511
30
0
10
6.1905092539368045
20
2.8126782494088913
30
0
10
6.3917523039159105
20
2.8331781782999483
30
0
10
6.5929631096301868
20
2.8490658003935971
30
0
10
6.7941583522312641
20
2.8544163236684215
30
0
10
6.995340539906767
20
2.8451541700952361
30
0
10
7.196482643620592
20
2.8208964853197935
30
0
10
7.3975119519179096
20
2.7868776986717436
30
0
10
7.5983345637588844
20
2.7517217664608173
30
0
10
7.7988607215174541
20
2.7251308427223475
30
0
10
7.9990298646773441
20
2.7156068850023103
30
0
10
8.1988357934472642
20
2.7281636218849723
30
0
10
8.3983521350001755
20
2.7620181726527053
30
0
10
8.5977070224158023
20
2.8122439419411198
30
0
10
8.7970576666320817
20
2.8714329501075744
30
0
10
8.9965650004132147
20
2.9313505801693522
30
0
10
9.1963684848725826
20
2.9845796807231122
30
0
10
9.3965603636860831
20
3.0261971978774529
30
0
10
9.5971950747331576
20
3.0532838605741426
30
0
10
9.7580783183155493
20
3.0621800734055009
30
0
10
9.8789556437208521
20
3.0614621248933513
30
0
10
9.9596359735559172
20
3.0577011049251341
30
0
10
10
20
3.0549999999999997
30
0
0
ENDSEC
0
SECTION
2
OBJECTS
0
DICTIONARY
5
C
100
AcDbDictionary
3
ACAD_GROUP
350
D
3
ACAD_MLINESTYLE
350
17
0
DICTIONARY
5
D
100
AcDbDictionary
0
DICTIONARY
5
1A
330
C
100
AcDbDictionary
0
DICTIONARY
5
17
100
AcDbDictionary
0
ENDSEC
0
EOF
