0
SECTION
2
HEADER
9
$INSUNITS
70
4
9
$ACADVER
1
AC1014
9
$HANDSEED
5
FFFF
0
ENDSEC
0
SECTION
2
TABLES
0
TABLE
2
VPORT
5
8
100
AcDbSymbolTable
0
ENDTAB
0
TABLE
2
LTYPE
5
5
100
AcDbSymbolTable
0
LTYPE
5
14
100
AcDbSymbolTableRecord
100
AcDbLinetypeTableRecord
2
BYBLOCK
70
0
0
LTYPE
5
15
100
AcDbSymbolTableRecord
100
AcDbLinetypeTableRecord
2
BYLAYER
70
0
0
ENDTAB
0
TABLE
2
LAYER
5
2
100
AcDbSymbolTable
70
2
0
LAYER
5
50
100
AcDbSymbolTableRecord
100
AcDbLayerTableRecord
2
0
70
0
6
CONTINUOUS
0
ENDTAB
0
TABLE
2
STYLE
5
3
100
AcDbSymbolTable
70
1
0
STYLE
5
11
100
AcDbSymbolTableRecord
100
AcDbTextStyleTableRecord
2
STANDARD
70
0
0
ENDTAB
0
TABLE
2
VIEW
5
6
100
AcDbSymbolTable
70
0
0
ENDTAB
0
TABLE
2
UCS
5
7
100
AcDbSymbolTable
70
0
0
ENDTAB
0
TABLE
2
APPID
5
9
100
AcDbSymbolTable
70
2
0
APPID
5
12
100
AcDbSymbolTableRecord
100
AcDbRegAppTableRecord
2
ACAD
70
0
0
ENDTAB
0
TABLE
2
DIMSTYLE
5
A
100
AcDbSymbolTable
70
1
0
ENDTAB
0
TABLE
2
BLOCK_RECORD
5
1
100
AcDbSymbolTable
70
1
0
BLOCK_RECORD
5
1F
100
AcDbSymbolTableRecord
100
AcDbBlockTableRecord
2
*MODEL_SPACE
0
BLOCK_RECORD
5
1B
100
AcDbSymbolTableRecord
100
AcDbBlockTableRecord
2
*PAPER_SPACE
0
ENDTAB
0
ENDSEC
0
SECTION
2
BLOCKS
0
BLOCK
5
20
100
AcDbEntity
100
AcDbBlockBegin
2
*MODEL_SPACE
0
ENDBLK
5
21
100
AcDbEntity
100
AcDbBlockEnd
0
BLOCK
5
1C
100
AcDbEntity
100
AcDbBlockBegin
2
*PAPER_SPACE
0
ENDBLK
5
1D
100
AcDbEntity
100
AcDbBlockEnd
0
ENDSEC
0
SECTION
2
ENTITIES
0
SPLINE
5
100
100
AcDbEntity
8
0
100
AcDbSpline
70
4
71
5
72
16
73
10
74
0
42
0.000000001
43
0.0000000001
44
0.0000000001
40
0
40
0
40
0
40
0
40
0
40
0
40
0.20000000000000001
40
0.40000000000000002
40
0.60000000000000009
40
0.80000000000000004
40
1
40
1
40
1
40
1
40
1
40
1
41
1
41
1
41
1
41
1
41
1
41
1
41
1
41
1
41
1
41
1
10
0
20
-0.055000000000000049
30
0
10
0
20
0.069400000000207365
30
0
10
0
20
0.31820000000056603
30
0
10
0
20
0.69140000000093593
30
0
10
0
20
1.1890000000011365
30
0
10
0
20
1.8110000000010393
30
0
10
0
20
2.3086000000007481
30
0
10
0
20
2.6818000000004227
30
0
10
0
20
2.9306000000001484
30
0
10
0
20
3.0549999999999997
30
0
0
SPLINE
5
101
100
AcDbEntity
8
0
100
AcDbSpline
70
4
71
5
72
16
73
10
74
0
42
0.000000001
43
0.0000000001
44
0.0000000001
40
0
40
0
40
0
40
0
40
0
40
0
40
0.20000000000000001
40
0.40000000000000002
40
0.60000000000000009
40
0.80000000000000004
40
1
40
1
40
1
40
1
40
1
40
1
41
1
41
1
41
1
41
1
41
1
41
1
41
1
41
1
41
1
41
1
10
10
20
-0.055000000000000049
30
0
10
9.9999999999997495
20
0.069400000000207365
30
0
10
9.9999999999993197
20
0.31820000000056603
30
0
10
9.9999999999989129
20
0.69140000000093593
30
0
10
9.9999999999987672
20
1.1890000000011365
30
0
10
9.9999999999990248
20
1.8110000000010393
30
0
10
9.9999999999993889
20
2.3086000000007481
30
0
10
9.9999999999996998
20
2.6818000000004227
30
0
10
9.9999999999999005
20
2.9306000000001484
30
0
10
10
20
3.0549999999999997
30
0
0
SPLINE
5
102
100
AcDbEntity
8
0
100
AcDbSpline
70
4
71
5
72
16
73
10
74
0
42
0.000000001
43
0.0000000001
44
0.0000000001
40
0
40
0
40
0
40
0
40
0
40
0
40
0.20000000000000001
40
0.40000000000000002
40
0.60000000000000009
40
0.80000000000000004
40
1
40
1
40
1
40
1
40
1
40
1
41
1
41
1
41
1
41
1
41
1
41
1
41
1
41
1
41
1
41
1
10
0
20
1.5274999999999999
30
0
10
0.40000000000047375
20
1.5274999999999856
30
0
10
1.2000000000012774
20
1.5274999999999614
30
0
10
2.4000000000020547
20
1.527499999999943
30
0
10
4.0000000000023546
20
1.5274999999999479
30
0
10
6.0000000000019584
20
1.5274999999999812
30
0
10
7.6000000000012928
20
1.5275000000000025
30
0
10
8.800000000000697
20
1.5275000000000083
30
0
10
9.6000000000002395
20
1.5275000000000039
30
0
10
10
20
1.5274999999999999
30
0
0
SPLINE
5
103
100
AcDbEntity
8
0
100
AcDbSpline
70
4
71
5
72
111
73
105
74
0
42
0.000000001
43
0.0000000001
44
0.0000000001
40
0
40
0
40
0
40
0
40
0
40
0
40
0.01
40
0.02
40
0.029999999999999999
40
0.040000000000000001
40
0.050000000000000003
40
0.060000000000000005
40
0.070000000000000007
40
0.080000000000000002
40
0.089999999999999997
40
0.099999999999999992
40
0.10999999999999999
40
0.11999999999999998
40
0.12999999999999998
40
0.13999999999999999
40
0.14999999999999999
40
0.16
40
0.17000000000000001
40
0.18000000000000002
40
0.19000000000000003
40
0.20000000000000004
40
0.21000000000000005
40
0.22000000000000006
40
0.23000000000000007
40
0.24000000000000007
40
0.25000000000000006
40
0.26000000000000006
40
0.27000000000000007
40
0.28000000000000008
40
0.29000000000000009
40
0.3000000000000001
40
0.31000000000000011
40
0.32000000000000012
40
0.33000000000000013
40
0.34000000000000014
40
0.35000000000000014
40
0.36000000000000015
40
0.37000000000000016
40
0.38000000000000017
40
0.39000000000000018
40
0.40000000000000019
40
0.4100000000000002
40
0.42000000000000021
40
0.43000000000000022
40
0.44000000000000022
40
0.45000000000000023
40
0.46000000000000024
40
0.47000000000000025
40
0.48000000000000026
40
0.49000000000000027
40
0.50000000000000022
40
0.51000000000000023
40
0.52000000000000024
40
0.53000000000000025
40
0.54000000000000026
40
0.55000000000000027
40
0.56000000000000028
40
0.57000000000000028
40
0.58000000000000029
40
0.5900000000000003
40
0.60000000000000031
40
0.61000000000000032
40
0.62000000000000033
40
0.63000000000000034
40
0.64000000000000035
40
0.65000000000000036
40
0.66000000000000036
40
0.67000000000000037
40
0.68000000000000038
40
0.69000000000000039
40
0.7000000000000004
40
0.71000000000000041
40
0.72000000000000042
40
0.73000000000000043
40
0.74000000000000044
40
0.75000000000000044
40
0.76000000000000045
40
0.77000000000000046
40
0.78000000000000047
40
0.79000000000000048
40
0.80000000000000049
40
0.8100000000000005
40
0.82000000000000051
40
0.83000000000000052
40
0.84000000000000052
40
0.85000000000000053
40
0.86000000000000054
40
0.87000000000000055
40
0.88000000000000056
40
0.89000000000000057
40
0.90000000000000058
40
0.91000000000000059
40
0.9200000000000006
40
0.9300000000000006
40
0.94000000000000061
40
0.95000000000000062
40
0.96000000000000063
40
0.97000000000000064
40
0.98000000000000065
40
0.99000000000000066
40
1
40
1
40
1
40
1
40
1
40
1
41
1
41
1
41
1
41
1
41
1
41
1
41
1
41
1
41
1
41
1
41
1
41
1
41
1
41
1
41
1
41
1
41
1
41
1
41
1
41
1
41
1
41
1
41
1
41
1
41
1
41
1
41
1
41
1
41
1
41
1
41
1
41
1
41
1
41
1
41
1
41
1
41
1
41
1
41
1
41
1
41
1
41
1
41
1
41
1
41
1
41
1
41
1
41
1
41
1
41
1
41
1
41
1
41
1
41
1
41
1
41
1
41
1
41
1
41
1
41
1
41
1
41
1
41
1
41
1
41
1
41
1
41
1
41
1
41
1
41
1
41
1
41
1
41
1
41
1
41
1
41
1
41
1
41
1
41
1
41
1
41
1
41
1
41
1
41
1
41
1
41
1
41
1
41
1
41
1
41
1
41
1
41
1
41
1
41
1
41
1
41
1
41
1
41
1
41
1
41
1
41
1
41
1
41
1
41
1
41
1
10
0
20
-0.055000000000000049
30
0
10
0.018910326141684527
20
-0.038491946699513044
30
0
10
0.056920820994374052
20
-0.006568096331845354
30
0
10
0.11450608961668254
20
0.038040902157099626
30
0
10
0.19242569776010948
20
0.090965018544639564
30
0
10
0.29169539644895093
20
0.14611123095019285
30
0
10
0.39274794865855439
20
0.19000644689073343
30
0
10
0.49540685864211342
20
0.22217207025822569
30
0
10
0.59937747109576778
20
0.24182255706380582
30
0
10
0.70421403608086997
20
0.24777029179702897
30
0
10
0.80941183916948656
20
0.23923923166521704
30
0
10
0.91450754568314874
20
0.21676002810375158
30
0
10
1.0191700909310231
20
0.1829479185902905
30
0
10
1.1233106281566625
20
0.14353602756576012
30
0
10
1.2271399023785914
20
0.10769431736711943
30
0
10
1.330989057983003
20
0.085157674725033272
30
0
10
1.4351521890663377
20
0.083621549281625934
30
0
10
1.5397408033109328
20
0.1063596903360777
30
0
10
1.6444845424990282
20
0.14896424630030281
30
0
10
1.74872184063755
20
0.19914823331514803
30
0
10
1.8516985785360505
20
0.24155777021325847
30
0
10
1.9528129625393191
20
0.26163872035968683
30
0
10
2.0518454704665645
20
0.24943889094121635
30
0
10
2.1492849617661718
20
0.2045282556541938
30
0
10
2.2462528423494064
20
0.13604129980587848
30
0
10
2.3440669121253768
20
0.058229499782391586
30
0
10
2.4438842068427853
20
-0.012861951043529378
30
0
10
2.546358393014593
20
-0.062890424812132695
30
0
10
2.6511764294563793
20
-0.083334203758746561
30
0
10
2.7570719890749218
20
-0.072743908873075303
30
0
10
2.8624086267408346
20
-0.034409963501983269
30
0
10
2.9656408504711065
20
0.025083650114843068
30
0
10
3.0657706140077363
20
0.097569109340347765
30
0
10
3.1629416954523695
20
0.17512694988451563
30
0
10
3.2582916115375431
20
0.25066879864077918
30
0
10
3.3534226415833288
20
0.3178232749816004
30
0
10
3.449971839991735
20
0.3710207851526543
30
0
10
3.5491862675206747
20
0.40554629059821257
30
0
10
3.6513824528988978
20
0.41748384100172298
30
0
10
3.7559012146419599
20
0.40417979392620101
30
0
10
3.8615634867751969
20
0.36517753913012052
30
0
10
3.9670027585839773
20
0.30313028365193345
30
0
10
4.0710186846604008
20
0.22449386785348149
30
0
10
4.1729949470119241
20
0.14089720606004613
30
0
10
4.27289510911476
20
0.067130492402950118
30
0
10
4.3710610569362283
20
0.017703157219250552
30
0
10
4.4680708336055694
20
0.0036753283341965869
30
0
10
4.5645814084459033
20
0.02978131850287629
30
0
10
4.6611541086899324
20
0.090396705593467561
30
0
10
4.7582130036650874
20
0.17135868503377646
30
0
10
4.8560713325291944
20
0.25452489875615969
30
0
10
4.9549362616217785
20
0.32162454812255836
30
0
10
5.054922288018572
20
0.35804251386051889
30
0
10
5.1560615985593721
20
0.35752485850008997
30
0
10
5.2583125087008709
20
0.32271843353938334
30
0
10
5.3615640173197132
20
0.26227077198616633
30
0
10
5.4656419208226747
20
0.18890994959296056
30
0
10
5.5703133755238081
20
0.11715162607828623
30
0
10
5.6752942273357521
20
0.061099329340934719
30
0
10
5.7802442654359973
20
0.032583749403335596
30
0
10
5.8847582531938549
20
0.039573941774675304
30
0
10
5.9883559227171244
20
0.08442004876308272
30
0
10
6.0904775633511026
20
0.16233388545379601
30
0
10
6.1904634855580634
20
0.25931089411889019
30
0
10
6.2877011469913269
20
0.35578952446918033
30
0
10
6.3817859679034283
20
0.43090749450081611
30
0
10
6.472690357868859
20
0.46673109409194163
30
0
10
6.5609001335225976
20
0.45207436320678779
30
0
10
6.6476398015773439
20
0.3875710656255274
30
0
10
6.7346536931343977
20
0.28434629854526533
30
0
10
6.8237960862908453
20
0.15987921799334742
30
0
10
6.91667462435983
20
0.03473583321376484
30
0
10
7.0142890356348717
20
-0.070982894295792659
30
0
10
7.1166298362264229
20
-0.14124739086764909
30
0
10
7.2224165548152151
20
-0.16715604004895271
30
0
10
7.3296559044681526
20
-0.14622466838829234
30
0
10
7.4361200334862945
20
-0.082199885461125485
30
0
10
7.5398203951495351
20
0.015469648444372312
30
0
10
7.6395671723711187
20
0.13166985890773025
30
0
10
7.7352026241400731
20
0.2470496689626267
30
0
10
7.8272738772566424
20
0.34169700822909904
30
0
10
7.9168343619304418
20
0.39832739599696382
30
0
10
8.0051953060960344
20
0.40561660864002824
30
0
10
8.0936954090712554
20
0.36159973526472144
30
0
10
8.1834723418513136
20
0.27669171635372825
30
0
10
8.2754270433240436
20
0.16900219659711152
30
0
10
8.3701793838664535
20
0.060133207372819422
30
0
10
8.4680217909307292
20
-0.029382420314161585
30
0
10
8.5688854208193472
20
-0.084078112959327919
30
0
10
8.672270435358465
20
-0.098842605504403394
30
0
10
8.7773566540482797
20
-0.077927546680207696
30
0
10
8.8831916423623483
20
-0.031239447071735482
30
0
10
8.9888571076932884
20
0.028541375429292706
30
0
10
9.0936371119055899
20
0.089081837242742989
30
0
10
9.197204754527263
20
0.14168379092804115
30
0
10
9.2995439000814777
20
0.18087419287972337
30
0
10
9.4008402819529717
20
0.2035464618084295
30
0
10
9.5013839259739878
20
0.20826681918993009
30
0
10
9.6014664706706547
20
0.19450982667257893
30
0
10
9.7012818744937714
20
0.16193199973666597
30
0
10
9.8009466263679865
20
0.11033505046341072
30
0
10
9.8806044746731381
20
0.053768463238517888
30
0
10
9.9403150110209086
20
0.002732441606436565
30
0
10
9.9801074367251825
20
-0.035118098561867789
30
0
10
10
20
-0.055000000000000049
30
0
0
SPLINE
5
104
100
AcDbEntity
8
0
100
AcDbSpline
70
4
71
5
72
111
73
105
74
0
42
0.000000001
43
0.0000000001
44
0.0000000001
40
0
40
0
40
0
40
0
40
0
40
0
40
0.01
40
0.02
40
0.029999999999999999
40
0.040000000000000001
40
0.050000000000000003
40
0.060000000000000005
40
0.070000000000000007
40
0.080000000000000002
40
0.089999999999999997
40
0.099999999999999992
40
0.10999999999999999
40
0.11999999999999998
40
0.12999999999999998
40
0.13999999999999999
40
0.14999999999999999
40
0.16
40
0.17000000000000001
40
0.18000000000000002
40
0.19000000000000003
40
0.20000000000000004
40
0.21000000000000005
40
0.22000000000000006
40
0.23000000000000007
40
0.24000000000000007
40
0.25000000000000006
40
0.26000000000000006
40
0.27000000000000007
40
0.28000000000000008
40
0.29000000000000009
40
0.3000000000000001
40
0.31000000000000011
40
0.32000000000000012
40
0.33000000000000013
40
0.34000000000000014
40
0.35000000000000014
40
0.36000000000000015
40
0.37000000000000016
40
0.38000000000000017
40
0.39000000000000018
40
0.40000000000000019
40
0.4100000000000002
40
0.42000000000000021
40
0.43000000000000022
40
0.44000000000000022
40
0.45000000000000023
40
0.46000000000000024
40
0.47000000000000025
40
0.48000000000000026
40
0.49000000000000027
40
0.50000000000000022
40
0.51000000000000023
40
0.52000000000000024
40
0.53000000000000025
40
0.54000000000000026
40
0.55000000000000027
40
0.56000000000000028
40
0.57000000000000028
40
0.58000000000000029
40
0.5900000000000003
40
0.60000000000000031
40
0.61000000000000032
40
0.62000000000000033
40
0.63000000000000034
40
0.64000000000000035
40
0.65000000000000036
40
0.66000000000000036
40
0.67000000000000037
40
0.68000000000000038
40
0.69000000000000039
40
0.7000000000000004
40
0.71000000000000041
40
0.72000000000000042
40
0.73000000000000043
40
0.74000000000000044
40
0.75000000000000044
40
0.76000000000000045
40
0.77000000000000046
40
0.78000000000000047
40
0.79000000000000048
40
0.80000000000000049
40
0.8100000000000005
40
0.82000000000000051
40
0.83000000000000052
40
0.84000000000000052
40
0.85000000000000053
40
0.86000000000000054
40
0.87000000000000055
40
0.88000000000000056
40
0.89000000000000057
40
0.90000000000000058
40
0.91000000000000059
40
0.9200000000000006
40
0.9300000000000006
40
0.94000000000000061
40
0.95000000000000062
40
0.96000000000000063
40
0.97000000000000064
40
0.98000000000000065
40
0.99000000000000066
40
1
40
1
40
1
40
1
40
1
40
1
41
1
41
1
41
1
41
1
41
1
41
1
41
1
41
1
41
1
41
1
41
1
41
1
41
1
41
1
41
1
41
1
41
1
41
1
41
1
41
1
41
1
41
1
41
1
41
1
41
1
41
1
41
1
41
1
41
1
41
1
41
1
41
1
41
1
41
1
41
1
41
1
41
1
41
1
41
1
41
1
41
1
41
1
41
1
41
1
41
1
41
1
41
1
41
1
41
1
41
1
41
1
41
1
41
1
41
1
41
1
41
1
41
1
41
1
41
1
41
1
41
1
41
1
41
1
41
1
41
1
41
1
41
1
41
1
41
1
41
1
41
1
41
1
41
1
41
1
41
1
41
1
41
1
41
1
41
1
41
1
41
1
41
1
41
1
41
1
41
1
41
1
41
1
41
1
41
1
41
1
41
1
41
1
41
1
41
1
41
1
41
1
41
1
41
1
41
1
41
1
41
1
41
1
41
1
41
1
41
1
10
0
20
3.0549999999999997
30
0
10
0.020389615995789725
20
3.0510848402006325
30
0
10
0.06114884021388603
20
3.0436473836019156
30
0
10
0.12222765213261869
20
3.0336698161239539
30
0
10
0.20354600908842568
20
3.0227237652438466
30
0
10
0.30500077023006816
20
3.0127866777000456
30
0
10
0.40628346066535809
20
3.0060361090869159
30
0
10
0.50743615728955815
20
3.0013590606475637
30
0
10
0.60852981621143154
20
2.9968797491571357
30
0
10
0.70966910147219142
20
2.9898315540814622
30
0
10
0.81095757170844329
20
2.9774672634513513
30
0
10
0.91246426849355888
20
2.9579317615399021
30
0
10
1.0141917576702866
20
2.9310986608772382
30
0
10
1.1160388558718051
20
2.8995413622128856
30
0
10
1.217779168884277
20
2.8691033849439993
30
0
10
1.3191421763270108
20
2.8468655487192169
30
0
10
1.4198854399869907
20
2.8393404162735485
30
0
10
1.5198658384808585
20
2.8506870300623852
30
0
10
1.6191215841874853
20
2.8806627819907806
30
0
10
1.717918523721337
20
2.9234506631526056
30
0
10
1.8166402157887394
20
2.9703184350131635
30
0
10
1.9156987313843044
20
3.0117694680346223
30
0
10
2.0154408747687298
20
3.0398057697473875
30
0
10
2.1160482031209997
20
3.0503433654482395
30
0
10
2.2174636438661128
20
3.0449745691773571
30
0
10
2.3194799736764637
20
3.0287650864299378
30
0
10
2.42181050231786
20
3.0084812882281153
30
0
10
2.5241633799237135
20
2.990742349235449
30
0
10
2.6263218685956624
20
2.9799931065548071
30
0
10
2.7281987310324949
20
2.9772080780280969
30
0
10
2.8297970669227421
20
2.981192518992918
30
0
10
2.9311863825121991
20
2.9894842506695984
30
0
10
3.0324732656479032
20
2.9993484134147841
30
0
10
3.1337730855854122
20
3.0088821749418853
30
0
10
3.2351856709256834
20
3.017579333584901
30
0
10
3.3367838465161626
20
3.0256464115692401
30
0
10
3.4385979134403111
20
3.033555278174811
30
0
10
3.5406044957632443
20
3.0415483036995732
30
0
10
3.6427068336212169
20
3.0490513395598078
30
0
10
3.7447420251690007
20
3.0545218989262719
30
0
10
3.8465279965587502
20
3.0560000400928549
30
0
10
3.9479029513255561
20
3.0514994992026088
30
0
10
4.0487638648505682
20
3.0394459831105043
30
0
10
4.1491151511472264
20
3.0191378422788429
30
0
10
4.2490753195971909
20
2.9910277897978204
30
0
10
4.3488369855686546
20
2.9567556032876228
30
0
10
4.4486399673403012
20
2.91930195524123
30
0
10
4.5487377836194778
20
2.8829776275182288
30
0
10
4.6493701365733306
20
2.8537668059670644
30
0
10
4.7507212381707129
20
2.8384389956613298
30
0
10
4.8528685518949857
20
2.8424879002610419
30
0
10
4.9557283392506744
20
2.868214471668769
30
0
10
5.0590146786912529
20
2.9131158369085286
30
0
10
5.1621622978254864
20
2.9672353909734515
30
0
10
5.2643961626199438
20
3.0148765790910708
30
0
10
5.3649049764683969
20
3.0394117794694249
30
0
10
5.4629916711578108
20
3.0274284779454579
30
0
10
5.5582171914542151
20
2.9726143720482123
30
0
10
5.6505877451924107
20
2.8810923923172389
30
0
10
5.7405357298877346
20
2.769943500985526
30
0
10
5.8287679079019696
20
2.661359974699895
30
0
10
5.9161535683449049
20
2.5781014937736542
30
0
10
6.0035970009900215
20
2.5384602647842582
30
0
10
6.0919150882503583
20
2.5513253349978973
30
0
10
6.1817173140342065
20
2.6115095278075073
30
0
10
6.2734168511674149
20
2.7045256205941453
30
0
10
6.3672370146974986
20
2.8108946639401697
30
0
10
6.4632176732974695
20
2.9108157064832261
30
0
10
6.561225384163702
20
2.9882495250108514
30
0
10
6.6609521668048988
20
3.0363399947115899
30
0
10
6.7619649267486697
20
3.0570541017105777
30
0
10
6.8637823770420292
20
3.0575514412614044
30
0
10
6.9659466914253008
20
3.0474540341117002
30
0
10
7.0680902377578256
20
3.0359763937418767
30
0
10
7.1700223528560523
20
3.0285347981678337
30
0
10
7.2717144326855108
20
3.0266109109529067
30
0
10
7.3732362198762216
20
3.0292420391332096
30
0
10
7.474705958193355
20
3.0340225782724879
30
0
10
7.5762384561896141
20
3.0382413293262833
30
0
10
7.6778847541162198
20
3.0401298804798764
30
0
10
7.7796361800614093
20
3.038951237637125
30
0
10
7.8814493379820529
20
3.0346937549278072
30
0
10
7.9832644630080205
20
3.0278982263956387
30
0
10
8.0850256074238978
20
3.0194306314477135
30
0
10
8.1867024771291241
20
3.0102758053005454
30
0
10
8.2882889927045724
20
3.001350497373843
30
0
10
8.3897972184462439
20
2.9933297853622483
30
0
10
8.4912529808897794
20
2.9864619442420897
30
0
10
8.5926906831429726
20
2.9804024838705927
30
0
10
8.6941487491134666
20
2.974000556631704
30
0
10
8.7956602559401436
20
2.9657482099593233
30
0
10
8.8972432284435463
20
2.9542861073700806
30
0
10
8.9988910121440853
20
2.938890222228193
30
0
10
9.1005626686480454
20
2.9199640164418672
30
0
10
9.2021731429549174
20
2.8995369800044695
30
0
10
9.3036090175363739
20
2.8807297642731817
30
0
10
9.4047445876217228
20
2.8672063595972053
30
0
10
9.5054576561009316
20
2.8626365198998305
30
0
10
9.6056457945523839
20
2.8701425059294139
30
0
10
9.7052414337493023
20
2.8917845914831264
30
0
10
9.8042041678013501
20
2.9287966742185434
30
0
10
9.8828521083250624
20
2.9711896394504196
30
0
10
9.9415414026644697
20
3.0102642452059469
30
0
10
9.9805357720666645
20
3.0395489235241642
30
0
10
10
20
3.0549999999999997
30
0
0
ENDSEC
0
SECTION
2
OBJECTS
0
DICTIONARY
5
C
100
AcDbDictionary
3
ACAD_GROUP
350
D
3
ACAD_MLINESTYLE
350
17
0
DICTIONARY
5
D
100
AcDbDictionary
0
DICTIONARY
5
1A
330
C
100
AcDbDictionary
0
DICTIONARY
5
17
100
AcDbDictionary
0
ENDSEC
0
EOF
