0
SECTION
2
HEADER
9
$INSUNITS
70
4
9
$ACADVER
1
AC1014
9
$HANDSEED
5
FFFF
0
ENDSEC
0
SECTION
2
TABLES
0
TABLE
2
VPORT
5
8
100
AcDbSymbolTable
0
ENDTAB
0
TABLE
2
LTYPE
5
5
100
AcDbSymbolTable
0
LTYPE
5
14
100
AcDbSymbolTableRecord
100
AcDbLinetypeTableRecord
2
BYBLOCK
70
0
0
LTYPE
5
15
100
AcDbSymbolTableRecord
100
AcDbLinetypeTableRecord
2
BYLAYER
70
0
0
ENDTAB
0
TABLE
2
LAYER
5
2
100
AcDbSymbolTable
70
2
0
LAYER
5
50
100
AcDbSymbolTableRecord
100
AcDbLayerTableRecord
2
0
70
0
6
CONTINUOUS
0
ENDTAB
0
TABLE
2
STYLE
5
3
100
AcDbSymbolTable
70
1
0
STYLE
5
11
100
AcDbSymbolTableRecord
100
AcDbTextStyleTableRecord
2
STANDARD
70
0
0
ENDTAB
0
TABLE
2
VIEW
5
6
100
AcDbSymbolTable
70
0
0
ENDTAB
0
TABLE
2
UCS
5
7
100
AcDbSymbolTable
70
0
0
ENDTAB
0
TABLE
2
APPID
5
9
100
AcDbSymbolTable
70
2
0
APPID
5
12
100
AcDbSymbolTableRecord
100
AcDbRegAppTableRecord
2
ACAD
70
0
0
ENDTAB
0
TABLE
2
DIMSTYLE
5
A
100
AcDbSymbolTable
70
1
0
ENDTAB
0
TABLE
2
BLOCK_RECORD
5
1
100
AcDbSymbolTable
70
1
0
BLOCK_RECORD
5
1F
100
AcDbSymbolTableRecord
100
AcDbBlockTableRecord
2
*MODEL_SPACE
0
BLOCK_RECORD
5
1B
100
AcDbSymbolTableRecord
100
AcDbBlockTableRecord
2
*PAPER_SPACE
0
ENDTAB
0
ENDSEC
0
SECTION
2
BLOCKS
0
BLOCK
5
20
100
AcDbEntity
100
AcDbBlockBegin
2
*MODEL_SPACE
0
ENDBLK
5
21
100
AcDbEntity
100
AcDbBlockEnd
0
BLOCK
5
1C
100
AcDbEntity
100
AcDbBlockBegin
2
*PAPER_SPACE
0
ENDBLK
5
1D
100
AcDbEntity
100
AcDbBlockEnd
0
ENDSEC
0
SECTION
2
ENTITIES
0
SPLINE
5
100
100
AcDbEntity
8
0
100
AcDbSpline
70
4
71
5
72
16
73
10
74
0
42
0.000000001
43
0.0000000001
44
0.0000000001
40
0
40
0
40
0
40
0
40
0
40
0
40
0.20000000000000001
40
0.40000000000000002
40
0.60000000000000009
40
0.80000000000000004
40
1
40
1
40
1
40
1
40
1
40
1
41
1
41
1
41
1
41
1
41
1
41
1
41
1
41
1
41
1
41
1
10
0
20
-0.055000000000000049
30
0
10
0
20
0.069400000000207365
30
0
10
0
20
0.31820000000056603
30
0
10
0
20
0.69140000000093593
30
0
10
0
20
1.1890000000011365
30
0
10
0
20
1.8110000000010393
30
0
10
0
20
2.3086000000007481
30
0
10
0
20
2.6818000000004227
30
0
10
0
20
2.9306000000001484
30
0
10
0
20
3.0549999999999997
30
0
0
SPLINE
5
101
100
AcDbEntity
8
0
100
AcDbSpline
70
4
71
5
72
16
73
10
74
0
42
0.000000001
43
0.0000000001
44
0.0000000001
40
0
40
0
40
0
40
0
40
0
40
0
40
0.20000000000000001
40
0.40000000000000002
40
0.60000000000000009
40
0.80000000000000004
40
1
40
1
40
1
40
1
40
1
40
1
41
1
41
1
41
1
41
1
41
1
41
1
41
1
41
1
41
1
41
1
10
10
20
-0.055000000000000049
30
0
10
9.9999999999997495
20
0.069400000000207365
30
0
10
9.9999999999993197
20
0.31820000000056603
30
0
10
9.9999999999989129
20
0.69140000000093593
30
0
10
9.9999999999987672
20
1.1890000000011365
30
0
10
9.9999999999990248
20
1.8110000000010393
30
0
10
9.9999999999993889
20
2.3086000000007481
30
0
10
9.9999999999996998
20
2.6818000000004227
30
0
10
9.9999999999999005
20
2.9306000000001484
30
0
10
10
20
3.0549999999999997
30
0
0
SPLINE
5
102
100
AcDbEntity
8
0
100
AcDbSpline
70
4
71
5
72
16
73
10
74
0
42
0.000000001
43
0.0000000001
44
0.0000000001
40
0
40
0
40
0
40
0
40
0
40
0
40
0.20000000000000001
40
0.40000000000000002
40
0.60000000000000009
40
0.80000000000000004
40
1
40
1
40
1
40
1
40
1
40
1
41
1
41
1
41
1
41
1
41
1
41
1
41
1
41
1
41
1
41
1
10
0
20
1.5274999999999999
30
0
10
0.40000000000047375
20
1.5274999999999856
30
0
10
1.2000000000012774
20
1.5274999999999614
30
0
10
2.4000000000020547
20
1.527499999999943
30
0
10
4.0000000000023546
20
1.5274999999999479
30
0
10
6.0000000000019584
20
1.5274999999999812
30
0
10
7.6000000000012928
20
1.5275000000000025
30
0
10
8.800000000000697
20
1.5275000000000083
30
0
10
9.6000000000002395
20
1.5275000000000039
30
0
10
10
20
1.5274999999999999
30
0
0
SPLINE
5
103
100
AcDbEntity
8
0
100
AcDbSpline
70
4
71
5
72
111
73
105
74
0
42
0.000000001
43
0.0000000001
44
0.0000000001
40
0
40
0
40
0
40
0
40
0
40
0
40
0.01
40
0.02
40
0.029999999999999999
40
0.040000000000000001
40
0.050000000000000003
40
0.060000000000000005
40
0.070000000000000007
40
0.080000000000000002
40
0.089999999999999997
40
0.099999999999999992
40
0.10999999999999999
40
0.11999999999999998
40
0.12999999999999998
40
0.13999999999999999
40
0.14999999999999999
40
0.16
40
0.17000000000000001
40
0.18000000000000002
40
0.19000000000000003
40
0.20000000000000004
40
0.21000000000000005
40
0.22000000000000006
40
0.23000000000000007
40
0.24000000000000007
40
0.25000000000000006
40
0.26000000000000006
40
0.27000000000000007
40
0.28000000000000008
40
0.29000000000000009
40
0.3000000000000001
40
0.31000000000000011
40
0.32000000000000012
40
0.33000000000000013
40
0.34000000000000014
40
0.35000000000000014
40
0.36000000000000015
40
0.37000000000000016
40
0.38000000000000017
40
0.39000000000000018
40
0.40000000000000019
40
0.4100000000000002
40
0.42000000000000021
40
0.43000000000000022
40
0.44000000000000022
40
0.45000000000000023
40
0.46000000000000024
40
0.47000000000000025
40
0.48000000000000026
40
0.49000000000000027
40
0.50000000000000022
40
0.51000000000000023
40
0.52000000000000024
40
0.53000000000000025
40
0.54000000000000026
40
0.55000000000000027
40
0.56000000000000028
40
0.57000000000000028
40
0.58000000000000029
40
0.5900000000000003
40
0.60000000000000031
40
0.61000000000000032
40
0.62000000000000033
40
0.63000000000000034
40
0.64000000000000035
40
0.65000000000000036
40
0.66000000000000036
40
0.67000000000000037
40
0.68000000000000038
40
0.69000000000000039
40
0.7000000000000004
40
0.71000000000000041
40
0.72000000000000042
40
0.73000000000000043
40
0.74000000000000044
40
0.75000000000000044
40
0.76000000000000045
40
0.77000000000000046
40
0.78000000000000047
40
0.79000000000000048
40
0.80000000000000049
40
0.8100000000000005
40
0.82000000000000051
40
0.83000000000000052
40
0.84000000000000052
40
0.85000000000000053
40
0.86000000000000054
40
0.87000000000000055
40
0.88000000000000056
40
0.89000000000000057
40
0.90000000000000058
40
0.91000000000000059
40
0.9200000000000006
40
0.9300000000000006
40
0.94000000000000061
40
0.95000000000000062
40
0.96000000000000063
40
0.97000000000000064
40
0.98000000000000065
40
0.99000000000000066
40
1
40
1
40
1
40
1
40
1
40
1
41
1
41
1
41
1
41
1
41
1
41
1
41
1
41
1
41
1
41
1
41
1
41
1
41
1
41
1
41
1
41
1
41
1
41
1
41
1
41
1
41
1
41
1
41
1
41
1
41
1
41
1
41
1
41
1
41
1
41
1
41
1
41
1
41
1
41
1
41
1
41
1
41
1
41
1
41
1
41
1
41
1
41
1
41
1
41
1
41
1
41
1
41
1
41
1
41
1
41
1
41
1
41
1
41
1
41
1
41
1
41
1
41
1
41
1
41
1
41
1
41
1
41
1
41
1
41
1
41
1
41
1
41
1
41
1
41
1
41
1
41
1
41
1
41
1
41
1
41
1
41
1
41
1
41
1
41
1
41
1
41
1
41
1
41
1
41
1
41
1
41
1
41
1
41
1
41
1
41
1
41
1
41
1
41
1
41
1
41
1
41
1
41
1
41
1
41
1
41
1
41
1
41
1
41
1
41
1
41
1
10
0
20
-0.055000000000000049
30
0
10
0.019812869915307171
20
-0.037101915030100935
30
0
10
0.059517380065612295
20
-0.0041671803456749283
30
0
10
0.11931045807819962
20
0.0366505563810582
30
0
10
0.19950724879489667
20
0.073903194951446177
30
0
10
0.30051489441595347
20
0.092643141767601439
30
0
10
0.40220465684774437
20
0.085972729202258735
30
0
10
0.50441735680553001
20
0.058728238776824634
30
0
10
0.6068859624522106
20
0.019028323362935199
30
0
10
0.70921248333406983
20
-0.021030609774820658
30
0
10
0.81096099592073334
20
-0.048421709014734991
30
0
10
0.91174782184621339
20
-0.052150636979600748
30
0
10
1.0113297824499727
20
-0.026139539518403615
30
0
10
1.1097003467129467
20
0.02759363552130964
30
0
10
1.2071622635588239
20
0.096628114175874052
30
0
10
1.3041930313144361
20
0.16350521089386472
30
0
10
1.4013288539724575
20
0.21040814660248677
30
0
10
1.4990413886643463
20
0.22411311022795544
30
0
10
1.5976180025121929
20
0.20080325929502568
30
0
10
1.697039142988892
20
0.15101272147492595
30
0
10
1.7970740539400731
20
0.093582150315312279
30
0
10
1.897377440612213
20
0.049571245339614461
30
0
10
1.9975861167089994
20
0.036150724384626458
30
0
10
2.0974146736899746
20
0.060590152239769809
30
0
10
2.1967542058346243
20
0.11395783095158013
30
0
10
2.2956312859086578
20
0.17746053131955225
30
0
10
2.3941639341788483
20
0.22901493306010601
30
0
10
2.4925183783991227
20
0.24984440110196066
30
0
10
2.5908664055861341
20
0.23080462370266602
30
0
10
2.6893400940455763
20
0.17953280148972964
30
0
10
2.7880316957539861
20
0.11447118189971209
30
0
10
2.8869969069538826
20
0.058002448978011663
30
0
10
2.9862569745916141
20
0.02971740603220617
30
0
10
3.0858010711428641
20
0.040065516251331715
30
0
10
3.1855890453800297
20
0.08267621217870319
30
0
10
3.2855490385105623
20
0.13966505166168988
30
0
10
3.3855747831710525
20
0.18876739315567281
30
0
10
3.4855220438212515
20
0.21001944110152243
30
0
10
3.585207552770266
20
0.19218465729984147
30
0
10
3.6844011910513745
20
0.14046650423650253
30
0
10
3.7828769112431013
20
0.07177263970145549
30
0
10
3.8804709639172517
20
0.0081082573162581193
30
0
10
3.977141350797142
20
-0.029609317617609113
30
0
10
4.0730183223775001
20
-0.027365712215836436
30
0
10
4.1684807208209076
20
0.014564666409760538
30
0
10
4.2640754104980285
20
0.08433903704580456
30
0
10
4.3603929698991077
20
0.16419490100647086
30
0
10
4.4579522657271715
20
0.23533862118970264
30
0
10
4.5570943194337037
20
0.28264146474627172
30
0
10
4.6578396800388537
20
0.30068459950911547
30
0
10
4.7599040948668732
20
0.29366045539425462
30
0
10
4.862827363041049
20
0.27086531792700463
30
0
10
4.9660718444140386
20
0.24334253667627759
30
0
10
5.0691266210351182
20
0.22038807218233089
30
0
10
5.1716263243210792
20
0.20527158040020532
30
0
10
5.2733733168092805
20
0.19571889016616342
30
0
10
5.3743110017585414
20
0.18669378413001855
30
0
10
5.4745139501387632
20
0.17253272614892498
30
0
10
5.5741685718189355
20
0.14915372755099168
30
0
10
5.673564438436232
20
0.11673083121974466
30
0
10
5.7730405358894554
20
0.079009842971532171
30
0
10
5.872919654621521
20
0.041511235195089605
30
0
10
5.9734431145080391
20
0.010048924927624922
30
0
10
6.0747132739854104
20
-0.010754875495739408
30
0
10
6.1766122345819152
20
-0.019280500899418514
30
0
10
6.2788583394303954
20
-0.016529778224377067
30
0
10
6.3811076411999572
20
-0.0050014847766150471
30
0
10
6.483043302088908
20
0.012213472708154351
30
0
10
6.5844635810327272
20
0.032364065351224214
30
0
10
6.6853873739776182
20
0.054126912199016483
30
0
10
6.7859997084382577
20
0.077122321429682755
30
0
10
6.8865671278175098
20
0.10113782907138949
30
0
10
6.9873622274677691
20
0.12542514587617043
30
0
10
7.0885875765303421
20
0.14803205865254809
30
0
10
7.1902913444821648
20
0.16494355515643283
30
0
10
7.2923876277248674
20
0.1713699605669658
30
0
10
7.394690958106116
20
0.16331292912993434
30
0
10
7.4969455925192214
20
0.13904770662517221
30
0
10
7.5988571657055415
20
0.10060841744385657
30
0
10
7.7001227058743034
20
0.055365860486439988
30
0
10
7.800485442643053
20
0.013579265993013555
30
0
10
7.8997898759583318
20
-0.014163041357258783
30
0
10
7.9980373896562797
20
-0.01947498562483671
30
0
10
8.0954404248350418
20
0.0013144117400598716
30
0
10
8.1924809390007187
20
0.044552097644180784
30
0
10
8.2897715330173245
20
0.10165120745814471
30
0
10
8.38791469483089
20
0.16155842228449674
30
0
10
8.4873586541124126
20
0.21323866890544216
30
0
10
8.5882639861398502
20
0.24804215778346717
30
0
10
8.6903404749760291
20
0.26241488472079449
30
0
10
8.7929950096896157
20
0.25696801836481648
30
0
10
8.8955190203702692
20
0.23507986362434918
30
0
10
8.9972628416720255
20
0.20166072553653736
30
0
10
9.0978131788153345
20
0.1618618376687059
30
0
10
9.1971759361353804
20
0.11977776490665658
30
0
10
9.2956644254708358
20
0.078552194450565188
30
0
10
9.393779640054575
20
0.040528317982971955
30
0
10
9.4920922956380522
20
0.0073824402703045969
30
0
10
9.5911272319180423
20
-0.01973696514015863
30
0
10
9.6912386197958948
20
-0.040069790377800382
30
0
10
9.7926367911199268
20
-0.053162404913383671
30
0
10
9.8748689180824911
20
-0.057665342454173846
30
0
10
9.9371848762151522
20
-0.057651278266993906
30
0
10
9.9790140862130343
20
-0.056134922842196636
30
0
10
10
20
-0.055000000000000049
30
0
0
SPLINE
5
104
100
AcDbEntity
8
0
100
AcDbSpline
70
4
71
5
72
111
73
105
74
0
42
0.000000001
43
0.0000000001
44
0.0000000001
40
0
40
0
40
0
40
0
40
0
40
0
40
0.01
40
0.02
40
0.029999999999999999
40
0.040000000000000001
40
0.050000000000000003
40
0.060000000000000005
40
0.070000000000000007
40
0.080000000000000002
40
0.089999999999999997
40
0.099999999999999992
40
0.10999999999999999
40
0.11999999999999998
40
0.12999999999999998
40
0.13999999999999999
40
0.14999999999999999
40
0.16
40
0.17000000000000001
40
0.18000000000000002
40
0.19000000000000003
40
0.20000000000000004
40
0.21000000000000005
40
0.22000000000000006
40
0.23000000000000007
40
0.24000000000000007
40
0.25000000000000006
40
0.26000000000000006
40
0.27000000000000007
40
0.28000000000000008
40
0.29000000000000009
40
0.3000000000000001
40
0.31000000000000011
40
0.32000000000000012
40
0.33000000000000013
40
0.34000000000000014
40
0.35000000000000014
40
0.36000000000000015
40
0.37000000000000016
40
0.38000000000000017
40
0.39000000000000018
40
0.40000000000000019
40
0.4100000000000002
40
0.42000000000000021
40
0.43000000000000022
40
0.44000000000000022
40
0.45000000000000023
40
0.46000000000000024
40
0.47000000000000025
40
0.48000000000000026
40
0.49000000000000027
40
0.50000000000000022
40
0.51000000000000023
40
0.52000000000000024
40
0.53000000000000025
40
0.54000000000000026
40
0.55000000000000027
40
0.56000000000000028
40
0.57000000000000028
40
0.58000000000000029
40
0.5900000000000003
40
0.60000000000000031
40
0.61000000000000032
40
0.62000000000000033
40
0.63000000000000034
40
0.64000000000000035
40
0.65000000000000036
40
0.66000000000000036
40
0.67000000000000037
40
0.68000000000000038
40
0.69000000000000039
40
0.7000000000000004
40
0.71000000000000041
40
0.72000000000000042
40
0.73000000000000043
40
0.74000000000000044
40
0.75000000000000044
40
0.76000000000000045
40
0.77000000000000046
40
0.78000000000000047
40
0.79000000000000048
40
0.80000000000000049
40
0.8100000000000005
40
0.82000000000000051
40
0.83000000000000052
40
0.84000000000000052
40
0.85000000000000053
40
0.86000000000000054
40
0.87000000000000055
40
0.88000000000000056
40
0.89000000000000057
40
0.90000000000000058
40
0.91000000000000059
40
0.9200000000000006
40
0.9300000000000006
40
0.94000000000000061
40
0.95000000000000062
40
0.96000000000000063
40
0.97000000000000064
40
0.98000000000000065
40
0.99000000000000066
40
1
40
1
40
1
40
1
40
1
40
1
41
1
41
1
41
1
41
1
41
1
41
1
41
1
41
1
41
1
41
1
41
1
41
1
41
1
41
1
41
1
41
1
41
1
41
1
41
1
41
1
41
1
41
1
41
1
41
1
41
1
41
1
41
1
41
1
41
1
41
1
41
1
41
1
41
1
41
1
41
1
41
1
41
1
41
1
41
1
41
1
41
1
41
1
41
1
41
1
41
1
41
1
41
1
41
1
41
1
41
1
41
1
41
1
41
1
41
1
41
1
41
1
41
1
41
1
41
1
41
1
41
1
41
1
41
1
41
1
41
1
41
1
41
1
41
1
41
1
41
1
41
1
41
1
41
1
41
1
41
1
41
1
41
1
41
1
41
1
41
1
41
1
41
1
41
1
41
1
41
1
41
1
41
1
41
1
41
1
41
1
41
1
41
1
41
1
41
1
41
1
41
1
41
1
41
1
41
1
41
1
41
1
41
1
41
1
41
1
41
1
10
0
20
3.0549999999999997
30
0
10
0.019290961805376278
20
3.0416322228657044
30
0
10
0.05795789943558894
20
3.015924710320947
30
0
10
0.11621334713609185
20
2.9804475813962918
30
0
10
0.19439744992541275
20
2.939313898963583
30
0
10
0.29296788319909262
20
2.898229294666578
30
0
10
0.39234796622864354
20
2.8676164948596012
30
0
10
0.49247552105754944
20
2.8477508046907789
30
0
10
0.5932468204349316
20
2.8390754178083251
30
0
10
0.69450434066362976
20
2.8422737315983544
30
0
10
0.79606071127561573
20
2.8576785913422103
30
0
10
0.89772525039090478
20
2.8846343068824245
30
0
10
0.99932959704365343
20
2.920873365610885
30
0
10
1.1007536452218845
20
2.9618900910246038
30
0
10
1.2019516289935124
20
3.0003022984774037
30
0
10
1.3029250875994514
20
3.0278378562248447
30
0
10
1.4036952857933216
20
3.0373518935824997
30
0
10
1.5042762387930739
20
3.0248063032559136
30
0
10
1.6046465991578882
20
2.9913286933059604
30
0
10
1.7047244874641416
20
2.9450673721097314
30
0
10
1.8044148247302614
20
2.8979465461622316
30
0
10
1.9036542603096414
20
2.862597980571024
30
0
10
2.0024566033361908
20
2.8492451103496568
30
0
10
2.1009590391463955
20
2.86256552065894
30
0
10
2.1994654194624133
20
2.8986733141676617
30
0
10
2.2983467432314635
20
2.9481686202204527
30
0
10
2.39794489067009
20
2.9990504018674695
30
0
10
2.4984748038507774
20
3.039684993191031
30
0
10
2.599928029422589
20
3.0617348161061071
30
0
10
2.7019733776950883
20
3.0631497636111167
30
0
10
2.804102176699192
20
3.046403013756156
30
0
10
2.9057775125656775
20
3.0166635034351015
30
0
10
3.0065795415830947
20
2.9800160170237766
30
0
10
3.1063580898228675
20
2.9416109479783712
30
0
10
3.2053665074586131
20
2.9039889083326642
30
0
10
3.3040936511677321
20
2.8681748113531356
30
0
10
3.4031113271234021
20
2.8346317347400345
30
0
10
3.5029170643549596
20
2.8042552927664213
30
0
10
3.6037763495496704
20
2.7793782598870456
30
0
10
3.7055719338803144
20
2.7646962319341601
30
0
10
3.807926166422066
20
2.7654246571824714
30
0
10
3.9103164728524717
20
2.7854956163310574
30
0
10
4.0121913816109096
20
2.8258147515771981
30
0
10
4.1130907080641519
20
2.8823151970337686
30
0
10
4.2127510964654578
20
2.9446055215917037
30
0
10
4.3110877415500735
20
2.9994588023186979
30
0
10
4.4081879469351666
20
3.0338682544716278
30
0
10
4.5042998474343596
20
3.038234239977331
30
0
10
4.5998242780729175
20
3.0095766793849128
30
0
10
4.6953026089329448
20
2.9545154286563569
30
0
10
4.7913167864485429
20
2.8855477978643487
30
0
10
4.8883941155093016
20
2.817625625589359
30
0
10
4.9869070749589
20
2.7645370921894798
30
0
10
5.0869824460817457
20
2.7355660999439917
30
0
10
5.1883869358561574
20
2.7315132032238232
30
0
10
5.2906451532659391
20
2.7469347065860235
30
0
10
5.3931882498353989
20
2.7732052978954949
30
0
10
5.4954929901820559
20
2.8013127481557687
30
0
10
5.5972217519572522
20
2.824705911419358
30
0
10
5.6983706649410593
20
2.8422804767980061
30
0
10
5.7991592921873796
20
2.8564826940740327
30
0
10
5.8999086307026545
20
2.871188546377681
30
0
10
6.0009237742124286
20
2.8896730357736047
30
0
10
6.1023739664965682
20
2.9125272456994704
30
0
10
6.2041754840298049
20
2.9356346199237739
30
0
10
6.3060849173152711
20
2.9524659142708076
30
0
10
6.4077914624372143
20
2.9563652212101288
30
0
10
6.5090078317938609
20
2.9427823424158617
30
0
10
6.6095656335644302
20
2.9116592891722681
30
0
10
6.70949777653576
20
2.8693807209954922
30
0
10
6.8089726611764334
20
2.8257959292494492
30
0
10
6.9082386901265753
20
2.7915686306759442
30
0
10
7.0075655745816876
20
2.7754542169276917
30
0
10
7.1071855107308313
20
2.7814886049946139
30
0
10
7.2072387351649505
20
2.8065492699973422
30
0
10
7.3077871740574043
20
2.8430864030506813
30
0
10
7.4088234865392932
20
2.8815467774137238
30
0
10
7.5102821074487842
20
2.9128614700496143
30
0
10
7.6120487107069934
20
2.9310248324617918
30
0
10
7.7139722499391103
20
2.9352943819238693
30
0
10
7.8158961519824004
20
2.9285568849155879
30
0
10
7.9176891474638245
20
2.9159979923348738
30
0
10
8.0192739153815555
20
2.9036866607204672
30
0
10
8.1206621441676319
20
2.8971288582818948
30
0
10
8.2219705441930824
20
2.9000407838665634
30
0
10
8.3233526221941254
20
2.9142783065456523
30
0
10
8.4249396373700041
20
2.9395707555509842
30
0
10
8.5267830380923808
20
2.9733969782177967
30
0
10
8.6287842797183885
20
3.0106402259735265
30
0
10
8.7306675698882081
20
3.0438350497401503
30
0
10
8.8320785484799327
20
3.0650446986857198
30
0
10
8.9326634028978038
20
3.0675183793061263
30
0
10
9.0321495752818564
20
3.0472927064017741
30
0
10
9.1304404117182774
20
3.0051594385438012
30
0
10
9.227655850761499
20
2.9473552527557634
30
0
10
9.3240514200866436
20
2.8834189391852547
30
0
10
9.4199615610621006
20
2.8246090152659002
30
0
10
9.5157350684011828
20
2.7821492803744925
30
0
10
9.6116697798196089
20
2.7654303663361395
30
0
10
9.7079599115596551
20
2.7805804278636428
30
0
10
9.8047231254644469
20
2.8312993925346226
30
0
10
9.8825586249199979
20
2.9017860177991626
30
0
10
9.9411829927822986
20
2.9717462098435208
30
0
10
9.9803759839623432
20
3.0259826694869369
30
0
10
10
20
3.0549999999999997
30
0
0
ENDSEC
0
SECTION
2
OBJECTS
0
DICTIONARY
5
C
100
AcDbDictionary
3
ACAD_GROUP
350
D
3
ACAD_MLINESTYLE
350
17
0
DICTIONARY
5
D
100
AcDbDictionary
0
DICTIONARY
5
1A
330
C
100
AcDbDictionary
0
DICTIONARY
5
17
100
AcDbDictionary
0
ENDSEC
0
EOF
