0
SECTION
2
HEADER
9
$INSUNITS
70
4
9
$ACADVER
1
AC1014
9
$HANDSEED
5
FFFF
0
ENDSEC
0
SECTION
2
TABLES
0
TABLE
2
VPORT
5
8
100
AcDbSymbolTable
0
ENDTAB
0
TABLE
2
LTYPE
5
5
100
AcDbSymbolTable
0
LTYPE
5
14
100
AcDbSymbolTableRecord
100
AcDbLinetypeTableRecord
2
BYBLOCK
70
0
0
LTYPE
5
15
100
AcDbSymbolTableRecord
100
AcDbLinetypeTableRecord
2
BYLAYER
70
0
0
ENDTAB
0
TABLE
2
LAYER
5
2
100
AcDbSymbolTable
70
2
0
LAYER
5
50
100
AcDbSymbolTableRecord
100
AcDbLayerTableRecord
2
0
70
0
6
CONTINUOUS
0
ENDTAB
0
TABLE
2
STYLE
5
3
100
AcDbSymbolTable
70
1
0
STYLE
5
11
100
AcDbSymbolTableRecord
100
AcDbTextStyleTableRecord
2
STANDARD
70
0
0
ENDTAB
0
TABLE
2
VIEW
5
6
100
AcDbSymbolTable
70
0
0
ENDTAB
0
TABLE
2
UCS
5
7
100
AcDbSymbolTable
70
0
0
ENDTAB
0
TABLE
2
APPID
5
9
100
AcDbSymbolTable
70
2
0
APPID
5
12
100
AcDbSymbolTableRecord
100
AcDbRegAppTableRecord
2
ACAD
70
0
0
ENDTAB
0
TABLE
2
DIMSTYLE
5
A
100
AcDbSymbolTable
70
1
0
ENDTAB
0
TABLE
2
BLOCK_RECORD
5
1
100
AcDbSymbolTable
70
1
0
BLOCK_RECORD
5
1F
100
AcDbSymbolTableRecord
100
AcDbBlockTableRecord
2
*MODEL_SPACE
0
BLOCK_RECORD
5
1B
100
AcDbSymbolTableRecord
100
AcDbBlockTableRecord
2
*PAPER_SPACE
0
ENDTAB
0
ENDSEC
0
SECTION
2
BLOCKS
0
BLOCK
5
20
100
AcDbEntity
100
AcDbBlockBegin
2
*MODEL_SPACE
0
ENDBLK
5
21
100
AcDbEntity
100
AcDbBlockEnd
0
BLOCK
5
1C
100
AcDbEntity
100
AcDbBlockBegin
2
*PAPER_SPACE
0
ENDBLK
5
1D
100
AcDbEntity
100
AcDbBlockEnd
0
ENDSEC
0
SECTION
2
ENTITIES
0
SPLINE
5
100
100
AcDbEntity
8
0
100
AcDbSpline
70
4
71
5
72
16
73
10
74
0
42
0.000000001
43
0.0000000001
44
0.0000000001
40
0
40
0
40
0
40
0
40
0
40
0
40
0.20000000000000001
40
0.40000000000000002
40
0.60000000000000009
40
0.80000000000000004
40
1
40
1
40
1
40
1
40
1
40
1
41
1
41
1
41
1
41
1
41
1
41
1
41
1
41
1
41
1
41
1
10
0
20
-0.055000000000000049
30
0
10
0
20
0.069400000000207365
30
0
10
0
20
0.31820000000056603
30
0
10
0
20
0.69140000000093593
30
0
10
0
20
1.1890000000011365
30
0
10
0
20
1.8110000000010393
30
0
10
0
20
2.3086000000007481
30
0
10
0
20
2.6818000000004227
30
0
10
0
20
2.9306000000001484
30
0
10
0
20
3.0549999999999997
30
0
0
SPLINE
5
101
100
AcDbEntity
8
0
100
AcDbSpline
70
4
71
5
72
16
73
10
74
0
42
0.000000001
43
0.0000000001
44
0.0000000001
40
0
40
0
40
0
40
0
40
0
40
0
40
0.20000000000000001
40
0.40000000000000002
40
0.60000000000000009
40
0.80000000000000004
40
1
40
1
40
1
40
1
40
1
40
1
41
1
41
1
41
1
41
1
41
1
41
1
41
1
41
1
41
1
41
1
10
10
20
-0.055000000000000049
30
0
10
9.9999999999997495
20
0.069400000000207365
30
0
10
9.9999999999993197
20
0.31820000000056603
30
0
10
9.9999999999989129
20
0.69140000000093593
30
0
10
9.9999999999987672
20
1.1890000000011365
30
0
10
9.9999999999990248
20
1.8110000000010393
30
0
10
9.9999999999993889
20
2.3086000000007481
30
0
10
9.9999999999996998
20
2.6818000000004227
30
0
10
9.9999999999999005
20
2.9306000000001484
30
0
10
10
20
3.0549999999999997
30
0
0
SPLINE
5
102
100
AcDbEntity
8
0
100
AcDbSpline
70
4
71
5
72
16
73
10
74
0
42
0.000000001
43
0.0000000001
44
0.0000000001
40
0
40
0
40
0
40
0
40
0
40
0
40
0.20000000000000001
40
0.40000000000000002
40
0.60000000000000009
40
0.80000000000000004
40
1
40
1
40
1
40
1
40
1
40
1
41
1
41
1
41
1
41
1
41
1
41
1
41
1
41
1
41
1
41
1
10
0
20
1.5274999999999999
30
0
10
0.40000000000047375
20
1.5274999999999856
30
0
10
1.2000000000012774
20
1.5274999999999614
30
0
10
2.4000000000020547
20
1.527499999999943
30
0
10
4.0000000000023546
20
1.5274999999999479
30
0
10
6.0000000000019584
20
1.5274999999999812
30
0
10
7.6000000000012928
20
1.5275000000000025
30
0
10
8.800000000000697
20
1.5275000000000083
30
0
10
9.6000000000002395
20
1.5275000000000039
30
0
10
10
20
1.5274999999999999
30
0
0
SPLINE
5
103
100
AcDbEntity
8
0
100
AcDbSpline
70
4
71
5
72
61
73
55
74
0
42
0.000000001
43
0.0000000001
44
0.0000000001
40
0
40
0
40
0
40
0
40
0
40
0
40
0.02
40
0.040000000000000001
40
0.059999999999999998
40
0.080000000000000002
40
0.10000000000000001
40
0.12000000000000001
40
0.14000000000000001
40
0.16
40
0.17999999999999999
40
0.19999999999999998
40
0.21999999999999997
40
0.23999999999999996
40
0.25999999999999995
40
0.27999999999999997
40
0.29999999999999999
40
0.32000000000000001
40
0.34000000000000002
40
0.36000000000000004
40
0.38000000000000006
40
0.40000000000000008
40
0.4200000000000001
40
0.44000000000000011
40
0.46000000000000013
40
0.48000000000000015
40
0.50000000000000011
40
0.52000000000000013
40
0.54000000000000015
40
0.56000000000000016
40
0.58000000000000018
40
0.6000000000000002
40
0.62000000000000022
40
0.64000000000000024
40
0.66000000000000025
40
0.68000000000000027
40
0.70000000000000029
40
0.72000000000000031
40
0.74000000000000032
40
0.76000000000000034
40
0.78000000000000036
40
0.80000000000000038
40
0.8200000000000004
40
0.84000000000000041
40
0.86000000000000043
40
0.88000000000000045
40
0.90000000000000047
40
0.92000000000000048
40
0.9400000000000005
40
0.96000000000000052
40
0.98000000000000054
40
1
40
1
40
1
40
1
40
1
40
1
41
1
41
1
41
1
41
1
41
1
41
1
41
1
41
1
41
1
41
1
41
1
41
1
41
1
41
1
41
1
41
1
41
1
41
1
41
1
41
1
41
1
41
1
41
1
41
1
41
1
41
1
41
1
41
1
41
1
41
1
41
1
41
1
41
1
41
1
41
1
41
1
41
1
41
1
41
1
41
1
41
1
41
1
41
1
41
1
41
1
41
1
41
1
41
1
41
1
41
1
41
1
41
1
41
1
41
1
41
1
10
0
20
-0.055000000000000049
30
0
10
0.040224089354457197
20
-0.054074880259923526
30
0
10
0.12062786509691996
20
-0.051358808877775525
30
0
10
0.24110031979571619
20
-0.044687205797979905
30
0
10
0.40146366809896944
20
-0.030593360436539024
30
0
10
0.60148413228325892
20
-0.0045318864465585086
30
0
10
0.80110443776789642
20
0.029279852369525804
30
0
10
1.000393089206391
20
0.069427070714437419
30
0
10
1.1994656094005962
20
0.11352533310286912
30
0
10
1.3984966506257943
20
0.1579709795393181
30
0
10
1.5976807554891856
20
0.19865133290290829
30
0
10
1.7971933174273944
20
0.23165109299451603
30
0
10
1.9971512853370152
20
0.25396280494487405
30
0
10
2.1975741985052215
20
0.26419179991625102
30
0
10
2.3983438392764498
20
0.26328399267709984
30
0
10
2.5992611036410267
20
0.25365312972952908
30
0
10
2.8001039442563154
20
0.23829075664312976
30
0
10
3.0006847673397683
20
0.21988568878885872
30
0
10
3.200908205794208
20
0.1999379521613083
30
0
10
3.40082867862542
20
0.17787700588450756
30
0
10
3.6005901836360525
20
0.1521060820162887
30
0
10
3.8003665610236581
20
0.12103987871098566
30
0
10
4.0003017378647225
20
0.084143539267319822
30
0
10
4.2004498875494631
20
0.042974514636866204
30
0
10
4.4007155893331991
20
0.0022249082914531496
30
0
10
4.6009192897714781
20
-0.031784699081233013
30
0
10
4.8008623995782527
20
-0.052604274104929516
30
0
10
5.0003924115444036
20
-0.05515431467109258
30
0
10
5.1994681282794648
20
-0.037229246857516114
30
0
10
5.3982249955279036
20
-0.0010039463611223761
30
0
10
5.5969028168878285
20
0.048284643952400591
30
0
10
5.7957740611553854
20
0.10364375072014967
30
0
10
5.9950716977596894
20
0.15763357938692707
30
0
10
6.1949180882696275
20
0.20366303771282362
30
0
10
6.395250675732326
20
0.23731823019940226
30
0
10
6.5958874122257507
20
0.25622421078207869
30
0
10
6.7965949513483785
20
0.25987767655581717
30
0
10
6.9971558364808892
20
0.2494970090349512
30
0
10
7.1974356204822492
20
0.22786763042851077
30
0
10
7.3974515052150274
20
0.199201603423667
30
0
10
7.5973210075673956
20
0.16834023960646219
30
0
10
7.7972092542250868
20
0.13995097909090734
30
0
10
7.9972768237907239
20
0.11772411046435761
30
0
10
8.1976276894787823
20
0.10357313557659814
30
0
10
8.3982561721033839
20
0.096813575896423379
30
0
10
8.5990775470721648
20
0.094913435754268513
30
0
10
8.7999595364741054
20
0.094259319022110197
30
0
10
9.0007533009639644
20
0.090912756860772159
30
0
10
9.2013246075593642
20
0.08137004148798116
30
0
10
9.401584831234242
20
0.063318532007819034
30
0
10
9.6014814868096678
20
0.035389274706317586
30
0
10
9.7610874594040968
20
0.0046095095161588781
30
0
10
9.8806131955947869
20
-0.023314548949488718
30
0
10
9.9602176301345544
20
-0.044079955005870204
30
0
10
10
20
-0.055000000000000049
30
0
0
SPLINE
5
104
100
AcDbEntity
8
0
100
AcDbSpline
70
4
71
5
72
61
73
55
74
0
42
0.000000001
43
0.0000000001
44
0.0000000001
40
0
40
0
40
0
40
0
40
0
40
0
40
0.02
40
0.040000000000000001
40
0.059999999999999998
40
0.080000000000000002
40
0.10000000000000001
40
0.12000000000000001
40
0.14000000000000001
40
0.16
40
0.17999999999999999
40
0.19999999999999998
40
0.21999999999999997
40
0.23999999999999996
40
0.25999999999999995
40
0.27999999999999997
40
0.29999999999999999
40
0.32000000000000001
40
0.34000000000000002
40
0.36000000000000004
40
0.38000000000000006
40
0.40000000000000008
40
0.4200000000000001
40
0.44000000000000011
40
0.46000000000000013
40
0.48000000000000015
40
0.50000000000000011
40
0.52000000000000013
40
0.54000000000000015
40
0.56000000000000016
40
0.58000000000000018
40
0.6000000000000002
40
0.62000000000000022
40
0.64000000000000024
40
0.66000000000000025
40
0.68000000000000027
40
0.70000000000000029
40
0.72000000000000031
40
0.74000000000000032
40
0.76000000000000034
40
0.78000000000000036
40
0.80000000000000038
40
0.8200000000000004
40
0.84000000000000041
40
0.86000000000000043
40
0.88000000000000045
40
0.90000000000000047
40
0.92000000000000048
40
0.9400000000000005
40
0.96000000000000052
40
0.98000000000000054
40
1
40
1
40
1
40
1
40
1
40
1
41
1
41
1
41
1
41
1
41
1
41
1
41
1
41
1
41
1
41
1
41
1
41
1
41
1
41
1
41
1
41
1
41
1
41
1
41
1
41
1
41
1
41
1
41
1
41
1
41
1
41
1
41
1
41
1
41
1
41
1
41
1
41
1
41
1
41
1
41
1
41
1
41
1
41
1
41
1
41
1
41
1
41
1
41
1
41
1
41
1
41
1
41
1
41
1
41
1
41
1
41
1
41
1
41
1
41
1
41
1
10
0
20
3.0549999999999997
30
0
10
0.040021142412730207
20
3.0497570903440945
30
0
10
0.12006605629485298
20
3.0397999796121451
30
0
10
0.24014131428442109
20
3.0264504393580847
30
0
10
0.40025744290734472
20
3.0118253696712212
30
0
10
0.60042916319293105
20
2.9987903799022431
30
0
10
0.80062809599054319
20
2.9908482948917166
30
0
10
1.0008554694935512
20
2.9876762595251281
30
0
10
1.2011132649776652
20
2.9887212342030782
30
0
10
1.4014043867742076
20
2.9931391862757923
30
0
10
1.6017308124808425
20
2.9998675891628905
30
0
10
1.8020917433608599
20
3.0076968433722584
30
0
10
2.0024817578027148
20
3.0153417062911729
30
0
10
2.2028889277548385
20
3.0215121207123379
30
0
10
2.4032929982985523
20
3.0249849976745997
30
0
10
2.6036701305636107
20
3.0247454534631806
30
0
10
2.8039975780165016
20
3.0201284834841822
30
0
10
3.0042583621434202
20
3.0109599578303148
30
0
10
3.2044460205794474
20
2.9977025979084053
30
0
10
3.4045691877065734
20
2.9815923709292251
30
0
10
3.6046463882897548
20
2.9642315139526332
30
0
10
3.8047010229425076
20
2.9471908767639943
30
0
10
4.0047563244760651
20
2.9316122024315456
30
0
10
4.204830274819586
20
2.9178022758110975
30
0
10
4.4049306853444889
20
2.9048488092532647
30
0
10
4.6050585835808286
20
2.8912984340995322
30
0
10
4.8052114243363206
20
2.8758145007880436
30
0
10
5.0053863263175744
20
2.857835962546813
30
0
10
5.2055833571546231
20
2.838251998573897
30
0
10
5.4058086259467082
20
2.8200329964507338
30
0
10
5.6060692658049813
20
2.8069984952723854
30
0
10
5.8063685781281098
20
2.8026244228211983
30
0
10
6.0067011731939068
20
2.8088482738331684
30
0
10
6.2070479420956648
20
2.824842078528611
30
0
10
6.4073714815196912
20
2.8458747778803408
30
0
10
6.6076268287221227
20
2.8652315607803165
30
0
10
6.8077717947302183
20
2.8760492205543766
30
0
10
7.0077773320448546
20
2.8731628371896578
30
0
10
7.2076381900286943
20
2.8549935845500447
30
0
10
7.4073827472423446
20
2.8253084220847953
30
0
10
7.6070584773517087
20
2.7911531359770771
30
0
10
7.8067182246740208
20
2.7609144891309532
30
0
10
8.0064062997184156
20
2.7423517301088562
30
0
10
8.2061444150013187
20
2.7406117034647388
30
0
10
8.4059182663399028
20
2.7563268931750966
30
0
10
8.6056887233164545
20
2.786919047920871
30
0
10
8.8054022946586699
20
2.8278074468214314
30
0
10
9.0050017765135379
20
2.8736415715829224
30
0
10
9.2044369039769904
20
2.9195307966076962
30
0
10
9.4036747386813033
20
2.962245109039559
30
0
10
9.6026958672166174
20
2.9998545018887079
30
0
10
9.7617319321364704
20
3.0250958335492335
30
0
10
9.8809059912179311
20
3.0411614679536729
30
0
10
9.9603096209219366
20
3.0505992621891309
30
0
10
10
20
3.0549999999999997
30
0
0
ENDSEC
0
SECTION
2
OBJECTS
0
DICTIONARY
5
C
100
AcDbDictionary
3
ACAD_GROUP
350
D
3
ACAD_MLINESTYLE
350
17
0
DICTIONARY
5
D
100
AcDbDictionary
0
DICTIONARY
5
1A
330
C
100
AcDbDictionary
0
DICTIONARY
5
17
100
AcDbDictionary
0
ENDSEC
0
EOF
