0
SECTION
2
HEADER
9
$INSUNITS
70
4
9
$ACADVER
1
AC1014
9
$HANDSEED
5
FFFF
0
ENDSEC
0
SECTION
2
TABLES
0
TABLE
2
VPORT
5
8
100
AcDbSymbolTable
0
ENDTAB
0
TABLE
2
LTYPE
5
5
100
AcDbSymbolTable
0
LTYPE
5
14
100
AcDbSymbolTableRecord
100
AcDbLinetypeTableRecord
2
BYBLOCK
70
0
0
LTYPE
5
15
100
AcDbSymbolTableRecord
100
AcDbLinetypeTableRecord
2
BYLAYER
70
0
0
ENDTAB
0
TABLE
2
LAYER
5
2
100
AcDbSymbolTable
70
2
0
LAYER
5
50
100
AcDbSymbolTableRecord
100
AcDbLayerTableRecord
2
0
70
0
6
CONTINUOUS
0
ENDTAB
0
TABLE
2
STYLE
5
3
100
AcDbSymbolTable
70
1
0
STYLE
5
11
100
AcDbSymbolTableRecord
100
AcDbTextStyleTableRecord
2
STANDARD
70
0
0
ENDTAB
0
TABLE
2
VIEW
5
6
100
AcDbSymbolTable
70
0
0
ENDTAB
0
TABLE
2
UCS
5
7
100
AcDbSymbolTable
70
0
0
ENDTAB
0
TABLE
2
APPID
5
9
100
AcDbSymbolTable
70
2
0
APPID
5
12
100
AcDbSymbolTableRecord
100
AcDbRegAppTableRecord
2
ACAD
70
0
0
ENDTAB
0
TABLE
2
DIMSTYLE
5
A
100
AcDbSymbolTable
70
1
0
ENDTAB
0
TABLE
2
BLOCK_RECORD
5
1
100
AcDbSymbolTable
70
1
0
BLOCK_RECORD
5
1F
100
AcDbSymbolTableRecord
100
AcDbBlockTableRecord
2
*MODEL_SPACE
0
BLOCK_RECORD
5
1B
100
AcDbSymbolTableRecord
100
AcDbBlockTableRecord
2
*PAPER_SPACE
0
ENDTAB
0
ENDSEC
0
SECTION
2
BLOCKS
0
BLOCK
5
20
100
AcDbEntity
100
AcDbBlockBegin
2
*MODEL_SPACE
0
ENDBLK
5
21
100
AcDbEntity
100
AcDbBlockEnd
0
BLOCK
5
1C
100
AcDbEntity
100
AcDbBlockBegin
2
*PAPER_SPACE
0
ENDBLK
5
1D
100
AcDbEntity
100
AcDbBlockEnd
0
ENDSEC
0
SECTION
2
ENTITIES
0
SPLINE
5
100
100
AcDbEntity
8
0
100
AcDbSpline
70
4
71
5
72
16
73
10
74
0
42
0.000000001
43
0.0000000001
44
0.0000000001
40
0
40
0
40
0
40
0
40
0
40
0
40
0.20000000000000001
40
0.40000000000000002
40
0.60000000000000009
40
0.80000000000000004
40
1
40
1
40
1
40
1
40
1
40
1
41
1
41
1
41
1
41
1
41
1
41
1
41
1
41
1
41
1
41
1
10
0
20
-0.055000000000000049
30
0
10
0
20
0.069400000000207365
30
0
10
0
20
0.31820000000056603
30
0
10
0
20
0.69140000000093593
30
0
10
0
20
1.1890000000011365
30
0
10
0
20
1.8110000000010393
30
0
10
0
20
2.3086000000007481
30
0
10
0
20
2.6818000000004227
30
0
10
0
20
2.9306000000001484
30
0
10
0
20
3.0549999999999997
30
0
0
SPLINE
5
101
100
AcDbEntity
8
0
100
AcDbSpline
70
4
71
5
72
16
73
10
74
0
42
0.000000001
43
0.0000000001
44
0.0000000001
40
0
40
0
40
0
40
0
40
0
40
0
40
0.20000000000000001
40
0.40000000000000002
40
0.60000000000000009
40
0.80000000000000004
40
1
40
1
40
1
40
1
40
1
40
1
41
1
41
1
41
1
41
1
41
1
41
1
41
1
41
1
41
1
41
1
10
10
20
-0.055000000000000049
30
0
10
9.9999999999997495
20
0.069400000000207365
30
0
10
9.9999999999993197
20
0.31820000000056603
30
0
10
9.9999999999989129
20
0.69140000000093593
30
0
10
9.9999999999987672
20
1.1890000000011365
30
0
10
9.9999999999990248
20
1.8110000000010393
30
0
10
9.9999999999993889
20
2.3086000000007481
30
0
10
9.9999999999996998
20
2.6818000000004227
30
0
10
9.9999999999999005
20
2.9306000000001484
30
0
10
10
20
3.0549999999999997
30
0
0
SPLINE
5
102
100
AcDbEntity
8
0
100
AcDbSpline
70
4
71
5
72
16
73
10
74
0
42
0.000000001
43
0.0000000001
44
0.0000000001
40
0
40
0
40
0
40
0
40
0
40
0
40
0.20000000000000001
40
0.40000000000000002
40
0.60000000000000009
40
0.80000000000000004
40
1
40
1
40
1
40
1
40
1
40
1
41
1
41
1
41
1
41
1
41
1
41
1
41
1
41
1
41
1
41
1
10
0
20
1.5274999999999999
30
0
10
0.40000000000047375
20
1.5274999999999856
30
0
10
1.2000000000012774
20
1.5274999999999614
30
0
10
2.4000000000020547
20
1.527499999999943
30
0
10
4.0000000000023546
20
1.5274999999999479
30
0
10
6.0000000000019584
20
1.5274999999999812
30
0
10
7.6000000000012928
20
1.5275000000000025
30
0
10
8.800000000000697
20
1.5275000000000083
30
0
10
9.6000000000002395
20
1.5275000000000039
30
0
10
10
20
1.5274999999999999
30
0
0
SPLINE
5
103
100
AcDbEntity
8
0
100
AcDbSpline
70
4
71
5
72
61
73
55
74
0
42
0.000000001
43
0.0000000001
44
0.0000000001
40
0
40
0
40
0
40
0
40
0
40
0
40
0.02
40
0.040000000000000001
40
0.059999999999999998
40
0.080000000000000002
40
0.10000000000000001
40
0.12000000000000001
40
0.14000000000000001
40
0.16
40
0.17999999999999999
40
0.19999999999999998
40
0.21999999999999997
40
0.23999999999999996
40
0.25999999999999995
40
0.27999999999999997
40
0.29999999999999999
40
0.32000000000000001
40
0.34000000000000002
40
0.36000000000000004
40
0.38000000000000006
40
0.40000000000000008
40
0.4200000000000001
40
0.44000000000000011
40
0.46000000000000013
40
0.48000000000000015
40
0.50000000000000011
40
0.52000000000000013
40
0.54000000000000015
40
0.56000000000000016
40
0.58000000000000018
40
0.6000000000000002
40
0.62000000000000022
40
0.64000000000000024
40
0.66000000000000025
40
0.68000000000000027
40
0.70000000000000029
40
0.72000000000000031
40
0.74000000000000032
40
0.76000000000000034
40
0.78000000000000036
40
0.80000000000000038
40
0.8200000000000004
40
0.84000000000000041
40
0.86000000000000043
40
0.88000000000000045
40
0.90000000000000047
40
0.92000000000000048
40
0.9400000000000005
40
0.96000000000000052
40
0.98000000000000054
40
1
40
1
40
1
40
1
40
1
40
1
41
1
41
1
41
1
41
1
41
1
41
1
41
1
41
1
41
1
41
1
41
1
41
1
41
1
41
1
41
1
41
1
41
1
41
1
41
1
41
1
41
1
41
1
41
1
41
1
41
1
41
1
41
1
41
1
41
1
41
1
41
1
41
1
41
1
41
1
41
1
41
1
41
1
41
1
41
1
41
1
41
1
41
1
41
1
41
1
41
1
41
1
41
1
41
1
41
1
41
1
41
1
41
1
41
1
41
1
41
1
10
0
20
-0.055000000000000049
30
0
10
0.040539925426131954
20
-0.071551581872897452
30
0
10
0.12157958682699214
20
-0.099675521080785978
30
0
10
0.24301851249360515
20
-0.1269236762517216
30
0
10
0.40469577365900533
20
-0.13336026803787099
30
0
10
0.60636125734737489
20
-0.092974521254589465
30
0
10
0.80751011622328073
20
-0.0085457199999338478
30
0
10
1.0079728582813754
20
0.11101559381219597
30
0
10
1.2074665209165631
20
0.25065611896452944
30
0
10
1.4055704535932476
20
0.38777806271118787
30
0
10
1.6018604226400996
20
0.49741958567507938
30
0
10
1.7960360172559329
20
0.55716452994361221
30
0
10
1.9880537174597945
20
0.55225010795498752
30
0
10
2.1782516330558401
20
0.48039576858736305
30
0
10
2.3674965096608385
20
0.35735656624657824
30
0
10
2.556959133469535
20
0.21035690815126018
30
0
10
2.7478729239826234
20
0.070948681621161594
30
0
10
2.9412872966106822
20
-0.03222521750628201
30
0
10
3.1378494162243262
20
-0.079900513325064371
30
0
10
3.337505242212409
20
-0.070867979906295009
30
0
10
3.5396172423265027
20
-0.01918928811288878
30
0
10
3.7432453346129853
20
0.053096264751217113
30
0
10
3.9473827102717229
20
0.12199247463732646
30
0
10
4.1511905073450688
20
0.1676094216094659
30
0
10
4.3542832045554043
20
0.18143541098112426
30
0
10
4.5566764237665556
20
0.16536671258113228
30
0
10
4.7586219508622776
20
0.12795517647968641
30
0
10
4.9604776118180185
20
0.081553849357179159
30
0
10
5.1625706421863979
20
0.039209849413688588
30
0
10
5.3650439850732612
20
0.011386103776397804
30
0
10
5.5678686076180464
20
0.0050481874682192663
30
0
10
5.7708953778065712
20
0.023360176619487992
30
0
10
5.9738929128732101
20
0.065108967014351371
30
0
10
6.1765910540070124
20
0.12434310939615781
30
0
10
6.3787217978093853
20
0.1896082942166992
30
0
10
6.5800599947643024
20
0.2466936341340123
30
0
10
6.7804626649453379
20
0.28180586159943555
30
0
10
6.9799106045005788
20
0.28466832595073271
30
0
10
7.1785458149659984
20
0.25148519306465306
30
0
10
7.376720607343529
20
0.18844395952256554
30
0
10
7.5749109041610332
20
0.10851912398740324
30
0
10
7.7736168736601972
20
0.02762513190497624
30
0
10
7.9732657619278902
20
-0.039070811228359995
30
0
10
8.1741192858021332
20
-0.080710433141575139
30
0
10
8.3761637847986776
20
-0.094876998502482754
30
0
10
8.5791734988636428
20
-0.085819904689730941
30
0
10
8.7827976813458601
20
-0.061858912361026468
30
0
10
8.9866396537466571
20
-0.033069288517376026
30
0
10
9.1903372484817787
20
-0.008907253444178323
30
0
10
9.3936475169013303
20
0.0042771527026553569
30
0
10
9.5964268008575484
20
0.0027330019127468504
30
0
10
9.7581684931974735
20
-0.011771832328217487
30
0
10
9.8791935441082099
20
-0.030381271676436408
30
0
10
9.9597519997068957
20
-0.04622145080996988
30
0
10
10
20
-0.055000000000000049
30
0
0
SPLINE
5
104
100
AcDbEntity
8
0
100
AcDbSpline
70
4
71
5
72
61
73
55
74
0
42
0.000000001
43
0.0000000001
44
0.0000000001
40
0
40
0
40
0
40
0
40
0
40
0
40
0.02
40
0.040000000000000001
40
0.059999999999999998
40
0.080000000000000002
40
0.10000000000000001
40
0.12000000000000001
40
0.14000000000000001
40
0.16
40
0.17999999999999999
40
0.19999999999999998
40
0.21999999999999997
40
0.23999999999999996
40
0.25999999999999995
40
0.27999999999999997
40
0.29999999999999999
40
0.32000000000000001
40
0.34000000000000002
40
0.36000000000000004
40
0.38000000000000006
40
0.40000000000000008
40
0.4200000000000001
40
0.44000000000000011
40
0.46000000000000013
40
0.48000000000000015
40
0.50000000000000011
40
0.52000000000000013
40
0.54000000000000015
40
0.56000000000000016
40
0.58000000000000018
40
0.6000000000000002
40
0.62000000000000022
40
0.64000000000000024
40
0.66000000000000025
40
0.68000000000000027
40
0.70000000000000029
40
0.72000000000000031
40
0.74000000000000032
40
0.76000000000000034
40
0.78000000000000036
40
0.80000000000000038
40
0.8200000000000004
40
0.84000000000000041
40
0.86000000000000043
40
0.88000000000000045
40
0.90000000000000047
40
0.92000000000000048
40
0.9400000000000005
40
0.96000000000000052
40
0.98000000000000054
40
1
40
1
40
1
40
1
40
1
40
1
41
1
41
1
41
1
41
1
41
1
41
1
41
1
41
1
41
1
41
1
41
1
41
1
41
1
41
1
41
1
41
1
41
1
41
1
41
1
41
1
41
1
41
1
41
1
41
1
41
1
41
1
41
1
41
1
41
1
41
1
41
1
41
1
41
1
41
1
41
1
41
1
41
1
41
1
41
1
41
1
41
1
41
1
41
1
41
1
41
1
41
1
41
1
41
1
41
1
41
1
41
1
41
1
41
1
41
1
41
1
10
0
20
3.0549999999999997
30
0
10
0.042751220028957218
20
3.0803952991121482
30
0
10
0.12776883350314122
20
3.125813590747502
30
0
10
0.2538407682301973
20
3.1778240350677005
30
0
10
0.41902586467094721
20
3.2149169417585819
30
0
10
0.62073505403872731
20
3.2085590396650554
30
0
10
0.81792975090090181
20
3.1528019259489817
30
0
10
1.0111386026265743
20
3.0544404112440056
30
0
10
1.2012603990831285
20
2.9250035499972258
30
0
10
1.3896472238081992
20
2.7818141012590853
30
0
10
1.5778439408008746
20
2.6446802592347334
30
0
10
1.7673491713811054
20
2.5328560027647602
30
0
10
1.9593576205626237
20
2.4617747145252378
30
0
10
2.1545340292690791
20
2.4401601817579053
30
0
10
2.3527088880266938
20
2.4662054702594371
30
0
10
2.5530864269016829
20
2.5298525281821007
30
0
10
2.7545703396190073
20
2.616486954859456
30
0
10
2.956058846690865
20
2.7102339493203114
30
0
10
3.1567285579545539
20
2.7971913662029655
30
0
10
3.3563850702680287
20
2.8692691482239825
30
0
10
3.5553437649405812
20
2.9236118446896548
30
0
10
3.7541881882177028
20
2.9608497376467104
30
0
10
3.9535636148921096
20
2.9837184729277828
30
0
10
4.1539725606613196
20
2.9956221617188779
30
0
10
4.3555270769349033
20
2.9989909956521665
30
0
10
4.5580110222570189
20
2.9953426075573066
30
0
10
4.7610304608857339
20
2.9858362139603472
30
0
10
4.9641370575650114
20
2.9716813102700308
30
0
10
5.1669549355438669
20
2.9545561733169028
30
0
10
5.3693259320473032
20
2.9371565032774982
30
0
10
5.5712759057741454
20
2.9225502299059154
30
0
10
5.7729442591437277
20
2.9133031257356841
30
0
10
5.9745257729579668
20
2.910648217999976
30
0
10
6.17620940655239
20
2.9137133749266786
30
0
10
6.3781133163367345
20
2.9185075894389376
30
0
10
6.5802814643954228
20
2.9194406834198237
30
0
10
6.7826891047301219
20
2.9111641720361003
30
0
10
6.9852445294173329
20
2.8903330924797741
30
0
10
7.1877930479408043
20
2.8573247265520996
30
0
10
7.3901175389510652
20
2.8182023589844905
30
0
10
7.5919838885839699
20
2.7824145452604125
30
0
10
7.7931892963326206
20
2.7601982712735813
30
0
10
7.9936100224709463
20
2.7600755640900019
30
0
10
8.1932486264870867
20
2.7863483536588554
30
0
10
8.3922843222142944
20
2.8364728826369685
30
0
10
8.5910180995797774
20
2.9029990604126601
30
0
10
8.7898150509581967
20
2.9756364799467141
30
0
10
8.989047459015886
20
3.043280860247279
30
0
10
9.1890387516149925
20
3.0960148035468071
30
0
10
9.3900039444196377
20
3.1272250227114733
30
0
10
9.5920694457376889
20
3.1330120071544747
30
0
10
9.7546513716187295
20
3.1157722063357234
30
0
10
9.8771191765967625
20
3.090271649403753
30
0
10
9.9590003905818989
20
3.0676877919698797
30
0
10
10
20
3.0549999999999997
30
0
0
ENDSEC
0
SECTION
2
OBJECTS
0
DICTIONARY
5
C
100
AcDbDictionary
3
ACAD_GROUP
350
D
3
ACAD_MLINESTYLE
350
17
0
DICTIONARY
5
D
100
AcDbDictionary
0
DICTIONARY
5
1A
330
C
100
AcDbDictionary
0
DICTIONARY
5
17
100
AcDbDictionary
0
ENDSEC
0
EOF
