0
SECTION
2
HEADER
9
$INSUNITS
70
4
9
$ACADVER
1
AC1014
9
$HANDSEED
5
FFFF
0
ENDSEC
0
SECTION
2
TABLES
0
TABLE
2
VPORT
5
8
100
AcDbSymbolTable
0
ENDTAB
0
TABLE
2
LTYPE
5
5
100
AcDbSymbolTable
0
LTYPE
5
14
100
AcDbSymbolTableRecord
100
AcDbLinetypeTableRecord
2
BYBLOCK
70
0
0
LTYPE
5
15
100
AcDbSymbolTableRecord
100
AcDbLinetypeTableRecord
2
BYLAYER
70
0
0
ENDTAB
0
TABLE
2
LAYER
5
2
100
AcDbSymbolTable
70
2
0
LAYER
5
50
100
AcDbSymbolTableRecord
100
AcDbLayerTableRecord
2
0
70
0
6
CONTINUOUS
0
ENDTAB
0
TABLE
2
STYLE
5
3
100
AcDbSymbolTable
70
1
0
STYLE
5
11
100
AcDbSymbolTableRecord
100
AcDbTextStyleTableRecord
2
STANDARD
70
0
0
ENDTAB
0
TABLE
2
VIEW
5
6
100
AcDbSymbolTable
70
0
0
ENDTAB
0
TABLE
2
UCS
5
7
100
AcDbSymbolTable
70
0
0
ENDTAB
0
TABLE
2
APPID
5
9
100
AcDbSymbolTable
70
2
0
APPID
5
12
100
AcDbSymbolTableRecord
100
AcDbRegAppTableRecord
2
ACAD
70
0
0
ENDTAB
0
TABLE
2
DIMSTYLE
5
A
100
AcDbSymbolTable
70
1
0
ENDTAB
0
TABLE
2
BLOCK_RECORD
5
1
100
AcDbSymbolTable
70
1
0
BLOCK_RECORD
5
1F
100
AcDbSymbolTableRecord
100
AcDbBlockTableRecord
2
*MODEL_SPACE
0
BLOCK_RECORD
5
1B
100
AcDbSymbolTableRecord
100
AcDbBlockTableRecord
2
*PAPER_SPACE
0
ENDTAB
0
ENDSEC
0
SECTION
2
BLOCKS
0
BLOCK
5
20
100
AcDbEntity
100
AcDbBlockBegin
2
*MODEL_SPACE
0
ENDBLK
5
21
100
AcDbEntity
100
AcDbBlockEnd
0
BLOCK
5
1C
100
AcDbEntity
100
AcDbBlockBegin
2
*PAPER_SPACE
0
ENDBLK
5
1D
100
AcDbEntity
100
AcDbBlockEnd
0
ENDSEC
0
SECTION
2
ENTITIES
0
SPLINE
5
100
100
AcDbEntity
8
0
100
AcDbSpline
70
4
71
5
72
16
73
10
74
0
42
0.000000001
43
0.0000000001
44
0.0000000001
40
0
40
0
40
0
40
0
40
0
40
0
40
0.20000000000000001
40
0.40000000000000002
40
0.60000000000000009
40
0.80000000000000004
40
1
40
1
40
1
40
1
40
1
40
1
41
1
41
1
41
1
41
1
41
1
41
1
41
1
41
1
41
1
41
1
10
0
20
-0.055000000000000049
30
0
10
0
20
0.069400000000207365
30
0
10
0
20
0.31820000000056603
30
0
10
0
20
0.69140000000093593
30
0
10
0
20
1.1890000000011365
30
0
10
0
20
1.8110000000010393
30
0
10
0
20
2.3086000000007481
30
0
10
0
20
2.6818000000004227
30
0
10
0
20
2.9306000000001484
30
0
10
0
20
3.0549999999999997
30
0
0
SPLINE
5
101
100
AcDbEntity
8
0
100
AcDbSpline
70
4
71
5
72
16
73
10
74
0
42
0.000000001
43
0.0000000001
44
0.0000000001
40
0
40
0
40
0
40
0
40
0
40
0
40
0.20000000000000001
40
0.40000000000000002
40
0.60000000000000009
40
0.80000000000000004
40
1
40
1
40
1
40
1
40
1
40
1
41
1
41
1
41
1
41
1
41
1
41
1
41
1
41
1
41
1
41
1
10
10
20
-0.055000000000000049
30
0
10
9.9999999999997495
20
0.069400000000207365
30
0
10
9.9999999999993197
20
0.31820000000056603
30
0
10
9.9999999999989129
20
0.69140000000093593
30
0
10
9.9999999999987672
20
1.1890000000011365
30
0
10
9.9999999999990248
20
1.8110000000010393
30
0
10
9.9999999999993889
20
2.3086000000007481
30
0
10
9.9999999999996998
20
2.6818000000004227
30
0
10
9.9999999999999005
20
2.9306000000001484
30
0
10
10
20
3.0549999999999997
30
0
0
SPLINE
5
102
100
AcDbEntity
8
0
100
AcDbSpline
70
4
71
5
72
16
73
10
74
0
42
0.000000001
43
0.0000000001
44
0.0000000001
40
0
40
0
40
0
40
0
40
0
40
0
40
0.20000000000000001
40
0.40000000000000002
40
0.60000000000000009
40
0.80000000000000004
40
1
40
1
40
1
40
1
40
1
40
1
41
1
41
1
41
1
41
1
41
1
41
1
41
1
41
1
41
1
41
1
10
0
20
1.5274999999999999
30
0
10
0.40000000000047375
20
1.5274999999999856
30
0
10
1.2000000000012774
20
1.5274999999999614
30
0
10
2.4000000000020547
20
1.527499999999943
30
0
10
4.0000000000023546
20
1.5274999999999479
30
0
10
6.0000000000019584
20
1.5274999999999812
30
0
10
7.6000000000012928
20
1.5275000000000025
30
0
10
8.800000000000697
20
1.5275000000000083
30
0
10
9.6000000000002395
20
1.5275000000000039
30
0
10
10
20
1.5274999999999999
30
0
0
SPLINE
5
103
100
AcDbEntity
8
0
100
AcDbSpline
70
4
71
5
72
111
73
105
74
0
42
0.000000001
43
0.0000000001
44
0.0000000001
40
0
40
0
40
0
40
0
40
0
40
0
40
0.01
40
0.02
40
0.029999999999999999
40
0.040000000000000001
40
0.050000000000000003
40
0.060000000000000005
40
0.070000000000000007
40
0.080000000000000002
40
0.089999999999999997
40
0.099999999999999992
40
0.10999999999999999
40
0.11999999999999998
40
0.12999999999999998
40
0.13999999999999999
40
0.14999999999999999
40
0.16
40
0.17000000000000001
40
0.18000000000000002
40
0.19000000000000003
40
0.20000000000000004
40
0.21000000000000005
40
0.22000000000000006
40
0.23000000000000007
40
0.24000000000000007
40
0.25000000000000006
40
0.26000000000000006
40
0.27000000000000007
40
0.28000000000000008
40
0.29000000000000009
40
0.3000000000000001
40
0.31000000000000011
40
0.32000000000000012
40
0.33000000000000013
40
0.34000000000000014
40
0.35000000000000014
40
0.36000000000000015
40
0.37000000000000016
40
0.38000000000000017
40
0.39000000000000018
40
0.40000000000000019
40
0.4100000000000002
40
0.42000000000000021
40
0.43000000000000022
40
0.44000000000000022
40
0.45000000000000023
40
0.46000000000000024
40
0.47000000000000025
40
0.48000000000000026
40
0.49000000000000027
40
0.50000000000000022
40
0.51000000000000023
40
0.52000000000000024
40
0.53000000000000025
40
0.54000000000000026
40
0.55000000000000027
40
0.56000000000000028
40
0.57000000000000028
40
0.58000000000000029
40
0.5900000000000003
40
0.60000000000000031
40
0.61000000000000032
40
0.62000000000000033
40
0.63000000000000034
40
0.64000000000000035
40
0.65000000000000036
40
0.66000000000000036
40
0.67000000000000037
40
0.68000000000000038
40
0.69000000000000039
40
0.7000000000000004
40
0.71000000000000041
40
0.72000000000000042
40
0.73000000000000043
40
0.74000000000000044
40
0.75000000000000044
40
0.76000000000000045
40
0.77000000000000046
40
0.78000000000000047
40
0.79000000000000048
40
0.80000000000000049
40
0.8100000000000005
40
0.82000000000000051
40
0.83000000000000052
40
0.84000000000000052
40
0.85000000000000053
40
0.86000000000000054
40
0.87000000000000055
40
0.88000000000000056
40
0.89000000000000057
40
0.90000000000000058
40
0.91000000000000059
40
0.9200000000000006
40
0.9300000000000006
40
0.94000000000000061
40
0.95000000000000062
40
0.96000000000000063
40
0.97000000000000064
40
0.98000000000000065
40
0.99000000000000066
40
1
40
1
40
1
40
1
40
1
40
1
41
1
41
1
41
1
41
1
41
1
41
1
41
1
41
1
41
1
41
1
41
1
41
1
41
1
41
1
41
1
41
1
41
1
41
1
41
1
41
1
41
1
41
1
41
1
41
1
41
1
41
1
41
1
41
1
41
1
41
1
41
1
41
1
41
1
41
1
41
1
41
1
41
1
41
1
41
1
41
1
41
1
41
1
41
1
41
1
41
1
41
1
41
1
41
1
41
1
41
1
41
1
41
1
41
1
41
1
41
1
41
1
41
1
41
1
41
1
41
1
41
1
41
1
41
1
41
1
41
1
41
1
41
1
41
1
41
1
41
1
41
1
41
1
41
1
41
1
41
1
41
1
41
1
41
1
41
1
41
1
41
1
41
1
41
1
41
1
41
1
41
1
41
1
41
1
41
1
41
1
41
1
41
1
41
1
41
1
41
1
41
1
41
1
41
1
41
1
41
1
41
1
41
1
41
1
41
1
41
1
10
0
20
-0.055000000000000049
30
0
10
0.01884608127726721
20
-0.037020460708964982
30
0
10
0.056828108848276188
20
-0.0038157889664328809
30
0
10
0.11467075310069971
20
0.037727951678114137
30
0
10
0.19353369980552645
20
0.076590783349408692
30
0
10
0.29490594150649058
20
0.098339696066659932
30
0
10
0.3987511569209839
20
0.095449011793924454
30
0
10
0.50442811887062911
20
0.072306907438393145
30
0
10
0.61086101764557066
20
0.036276176259176639
30
0
10
0.71644741526030631
20
-0.0016590954575289043
30
0
10
0.81946135475678283
20
-0.029235030418641606
30
0
10
0.91844554944971835
20
-0.03517283687529426
30
0
10
1.012592754393242
20
-0.01140273969352501
30
0
10
1.102167073025055
20
0.044530210013759966
30
0
10
1.1888061640446392
20
0.12761048142529322
30
0
10
1.2748708425279689
20
0.22782083066653974
30
0
10
1.362904352127595
20
0.33215870520708113
30
0
10
1.4550158495515555
20
0.42688333530518174
30
0
10
1.5523736210976669
20
0.49952739900994159
30
0
10
1.6544579482443327
20
0.54134902492112269
30
0
10
1.7592207185122817
20
0.54816649629930791
30
0
10
1.8639698882732514
20
0.51983427382591896
30
0
10
1.9660830122678634
20
0.46015830910032052
30
0
10
2.0637130093987275
20
0.3765210652663154
30
0
10
2.1566927166652308
20
0.27991567902833414
30
0
10
2.2463806668837707
20
0.18340791144379243
30
0
10
2.3349370364830806
20
0.099832906229984864
30
0
10
2.4247653014206856
20
0.039658742209516512
30
0
10
2.5179135456573669
20
0.008933437098369185
30
0
10
2.6154260572385519
20
0.0068280446507807263
30
0
10
2.7169185751038567
20
0.024453862030158442
30
0
10
2.8211528730839825
20
0.049014280688173789
30
0
10
2.9264790129221514
20
0.067324952007516495
30
0
10
3.0313008779982531
20
0.069289738657901195
30
0
10
3.1345982365641656
20
0.052083446261375406
30
0
10
3.236209852242637
20
0.021822379848134746
30
0
10
3.3365027791358393
20
-0.010975699920517275
30
0
10
3.436154822865634
20
-0.034883868754898462
30
0
10
3.5359070865734261
20
-0.041129923645714897
30
0
10
3.636293888398014
20
-0.027952395514057923
30
0
10
3.7375032745764134
20
-0.0018333160238347291
30
0
10
3.8394944359653191
20
0.027005716353684685
30
0
10
3.9420586422245938
20
0.048018228947098104
30
0
10
4.0448999573535609
20
0.053776349491660914
30
0
10
4.1477141990528352
20
0.04438883732440322
30
0
10
4.250243496264785
20
0.027910762035433127
30
0
10
4.3522896227720569
20
0.015523598419861364
30
0
10
4.4537405936728591
20
0.017801872504703671
30
0
10
4.5545863240966735
20
0.041039261239059294
30
0
10
4.6549527636792245
20
0.082319126831345235
30
0
10
4.7550715148359455
20
0.13021003756332744
30
0
10
4.8551991507454284
20
0.17015885933901376
30
0
10
4.955546113334111
20
0.18880141100441572
30
0
10
5.0562118357981962
20
0.17815518921097911
30
0
10
5.157092036816989
20
0.14125385985148975
30
0
10
5.2579047352439092
20
0.091250553629751097
30
0
10
5.358306822875849
20
0.045465004288082721
30
0
10
5.457989669027028
20
0.020644327298343965
30
0
10
5.556771802750534
20
0.02828214662352637
30
0
10
5.6547215168492038
20
0.06853070688217873
30
0
10
5.752141781439942
20
0.13073821782584255
30
0
10
5.8494543376299521
20
0.19885316828125457
30
0
10
5.9471097796813179
20
0.25557634062334122
30
0
10
6.0454950833986612
20
0.28662892565449127
30
0
10
6.1448224069657211
20
0.2859434253957549
30
0
10
6.2451005679356966
20
0.25679704587806562
30
0
10
6.3462055224039684
20
0.20809511599869723
30
0
10
6.4479263739116828
20
0.15184410305603249
30
0
10
6.5500181198125826
20
0.1003160277737763
30
0
10
6.6522591885514792
20
0.062922609240654265
30
0
10
6.7544768428894484
20
0.044870045238519583
30
0
10
6.8565363866766971
20
0.0478409534282924
30
0
10
6.9583400233768558
20
0.070079301939225236
30
0
10
7.0598222450693768
20
0.10681490456104153
30
0
10
7.1609456149636195
20
0.15029827130858189
30
0
10
7.2617012776490242
20
0.19107040146671295
30
0
10
7.3621129574218109
20
0.21995500866765116
30
0
10
7.4622408185636582
20
0.22996129937898249
30
0
10
7.5621833832705976
20
0.21795440156906093
30
0
10
7.6620853606441806
20
0.18710204823361234
30
0
10
7.7621191764154771
20
0.14579652434183427
30
0
10
7.8624519312614014
20
0.10455203237951426
30
0
10
7.9632150083084525
20
0.07338893727333734
30
0
10
8.0644765495041906
20
0.059311204652239838
30
0
10
8.1662026853760139
20
0.063004661071293391
30
0
10
8.2682723537369593
20
0.079478072784095757
30
0
10
8.370521289297697
20
0.10087997854593891
30
0
10
8.4727783031611761
20
0.11872598619709586
30
0
10
8.5749017599537343
20
0.12617724131134786
30
0
10
8.676823605825243
20
0.12078867370131834
30
0
10
8.7785430326379625
20
0.10402159511587969
30
0
10
8.8801023772176322
20
0.079612824200832238
30
0
10
8.9815685174856164
20
0.052291388365495073
30
0
10
9.0830129329678773
20
0.026425475358411658
30
0
10
9.184489893355769
20
0.0045049424664237421
30
0
10
9.2860362737772508
20
-0.012657209893008125
30
0
10
9.387676139286258
20
-0.025350805502758828
30
0
10
9.4894236896827735
20
-0.034518664584713095
30
0
10
9.5912868135598526
20
-0.041269309817130694
30
0
10
9.693270569134766
20
-0.046368116690087766
30
0
10
9.7953779876613787
20
-0.050266389133816203
30
0
10
9.8771640138438883
20
-0.052607800842717323
30
0
10
9.9385600371552201
20
-0.053960632225166262
30
0
10
9.9795158276556055
20
-0.054683399830488318
30
0
10
10
20
-0.055000000000000049
30
0
0
SPLINE
5
104
100
AcDbEntity
8
0
100
AcDbSpline
70
4
71
5
72
111
73
105
74
0
42
0.000000001
43
0.0000000001
44
0.0000000001
40
0
40
0
40
0
40
0
40
0
40
0
40
0.01
40
0.02
40
0.029999999999999999
40
0.040000000000000001
40
0.050000000000000003
40
0.060000000000000005
40
0.070000000000000007
40
0.080000000000000002
40
0.089999999999999997
40
0.099999999999999992
40
0.10999999999999999
40
0.11999999999999998
40
0.12999999999999998
40
0.13999999999999999
40
0.14999999999999999
40
0.16
40
0.17000000000000001
40
0.18000000000000002
40
0.19000000000000003
40
0.20000000000000004
40
0.21000000000000005
40
0.22000000000000006
40
0.23000000000000007
40
0.24000000000000007
40
0.25000000000000006
40
0.26000000000000006
40
0.27000000000000007
40
0.28000000000000008
40
0.29000000000000009
40
0.3000000000000001
40
0.31000000000000011
40
0.32000000000000012
40
0.33000000000000013
40
0.34000000000000014
40
0.35000000000000014
40
0.36000000000000015
40
0.37000000000000016
40
0.38000000000000017
40
0.39000000000000018
40
0.40000000000000019
40
0.4100000000000002
40
0.42000000000000021
40
0.43000000000000022
40
0.44000000000000022
40
0.45000000000000023
40
0.46000000000000024
40
0.47000000000000025
40
0.48000000000000026
40
0.49000000000000027
40
0.50000000000000022
40
0.51000000000000023
40
0.52000000000000024
40
0.53000000000000025
40
0.54000000000000026
40
0.55000000000000027
40
0.56000000000000028
40
0.57000000000000028
40
0.58000000000000029
40
0.5900000000000003
40
0.60000000000000031
40
0.61000000000000032
40
0.62000000000000033
40
0.63000000000000034
40
0.64000000000000035
40
0.65000000000000036
40
0.66000000000000036
40
0.67000000000000037
40
0.68000000000000038
40
0.69000000000000039
40
0.7000000000000004
40
0.71000000000000041
40
0.72000000000000042
40
0.73000000000000043
40
0.74000000000000044
40
0.75000000000000044
40
0.76000000000000045
40
0.77000000000000046
40
0.78000000000000047
40
0.79000000000000048
40
0.80000000000000049
40
0.8100000000000005
40
0.82000000000000051
40
0.83000000000000052
40
0.84000000000000052
40
0.85000000000000053
40
0.86000000000000054
40
0.87000000000000055
40
0.88000000000000056
40
0.89000000000000057
40
0.90000000000000058
40
0.91000000000000059
40
0.9200000000000006
40
0.9300000000000006
40
0.94000000000000061
40
0.95000000000000062
40
0.96000000000000063
40
0.97000000000000064
40
0.98000000000000065
40
0.99000000000000066
40
1
40
1
40
1
40
1
40
1
40
1
41
1
41
1
41
1
41
1
41
1
41
1
41
1
41
1
41
1
41
1
41
1
41
1
41
1
41
1
41
1
41
1
41
1
41
1
41
1
41
1
41
1
41
1
41
1
41
1
41
1
41
1
41
1
41
1
41
1
41
1
41
1
41
1
41
1
41
1
41
1
41
1
41
1
41
1
41
1
41
1
41
1
41
1
41
1
41
1
41
1
41
1
41
1
41
1
41
1
41
1
41
1
41
1
41
1
41
1
41
1
41
1
41
1
41
1
41
1
41
1
41
1
41
1
41
1
41
1
41
1
41
1
41
1
41
1
41
1
41
1
41
1
41
1
41
1
41
1
41
1
41
1
41
1
41
1
41
1
41
1
41
1
41
1
41
1
41
1
41
1
41
1
41
1
41
1
41
1
41
1
41
1
41
1
41
1
41
1
41
1
41
1
41
1
41
1
41
1
41
1
41
1
41
1
41
1
41
1
41
1
10
0
20
3.0549999999999997
30
0
10
0.021156513974545724
20
3.0704778136240405
30
0
10
0.063349115459374078
20
3.0972624210332467
30
0
10
0.12627674038227446
20
3.1249260117616462
30
0
10
0.20945754995279078
20
3.1367823447118788
30
0
10
0.31222442513627147
20
3.1111379812581759
30
0
10
0.41376904326917086
20
3.0488603244214234
30
0
10
0.51406663640427175
20
2.9575706821952945
30
0
10
0.61307539612928585
20
2.850165695647477
30
0
10
0.71073730717177885
20
2.7455275104094201
30
0
10
0.80702168123125073
20
2.6639471024088324
30
0
10
0.90196375527566675
20
2.6231389686646036
30
0
10
0.99570610600768383
20
2.633964344215137
30
0
10
1.0885369077812388
20
2.6964199006957963
30
0
10
1.1809350691076381
20
2.7951145725484605
30
0
10
1.2734714526988302
20
2.9053715840700667
30
0
10
1.3667069668889378
20
2.9996278032997115
30
0
10
1.4610852086696764
20
3.0540730845767019
30
0
10
1.556842334903892
20
3.0543919898901271
30
0
10
1.6538720024807461
20
3.0038874699184817
30
0
10
1.7517784216586669
20
2.9215787968114437
30
0
10
1.8500499617539332
20
2.8338083710940785
30
0
10
1.9482046049022428
20
2.7674675511178712
30
0
10
2.045929624175272
20
2.7432663232274814
30
0
10
2.1432662523199966
20
2.7672473890282552
30
0
10
2.2406143925664406
20
2.829628298214681
30
0
10
2.33853333226633
20
2.9120669297599178
30
0
10
2.4375890475028257
20
2.9929118371117185
30
0
10
2.5381977925766535
20
3.0528314634595444
30
0
10
2.6404345188016887
20
3.0813389955243964
30
0
10
2.7439832085166689
20
3.0792693182025048
30
0
10
2.8483255391403146
20
3.0542796791577338
30
0
10
2.952881186784706
20
3.0178629926034626
30
0
10
3.0571527590288921
20
2.9819891098179347
30
0
10
3.1609050728757486
20
2.9553304590891774
30
0
10
3.2641772929154205
20
2.942094625310502
30
0
10
3.3671557435100579
20
2.9431482260019526
30
0
10
3.4700829567155522
20
2.9564649554419442
30
0
10
3.5731603694348446
20
2.977877598800359
30
0
10
3.6764321926577743
20
3.0016273522353294
30
0
10
3.7798021805965982
20
3.0214000657125109
30
0
10
3.8831042750578719
20
3.0314894792662623
30
0
10
3.9861566583443797
20
3.0279602416295792
30
0
10
4.0888202408297243
20
3.0097253217476712
30
0
10
4.1910617778301953
20
2.9798903522552429
30
0
10
4.2929435762184172
20
2.9444884682422106
30
0
10
4.3946016972341493
20
2.9108392017765445
30
0
10
4.4962284461101163
20
2.886032707157077
30
0
10
4.5980527920004484
20
2.8753805804674242
30
0
10
4.7003225785818925
20
2.8808281604738517
30
0
10
4.8032458215504352
20
2.901233489035195
30
0
10
4.9069292523343666
20
2.9326977529153804
30
0
10
5.0113206480405843
20
2.9689060663688109
30
0
10
5.1161428894496561
20
3.0013896908922439
30
0
10
5.2208502796395813
20
3.0200252553573752
30
0
10
5.3247732053249415
20
3.0154235924648671
30
0
10
5.427250343196488
20
2.9812737527982396
30
0
10
5.5277576740980647
20
2.916464579968761
30
0
10
5.6260576245438818
20
2.8278727927599401
30
0
10
5.7222802397111803
20
2.7310611331506558
30
0
10
5.8168109871477922
20
2.6451200760743117
30
0
10
5.9102139291797204
20
2.5885625476507141
30
0
10
6.0031413366892892
20
2.5748395196534486
30
0
10
6.0962484795892866
20
2.6079282542689102
30
0
10
6.190108142100482
20
2.6781293912850668
30
0
10
6.285195334743042
20
2.7675800509071085
30
0
10
6.3818697892607776
20
2.8553612441544658
30
0
10
6.4803585357114182
20
2.9229536674514538
30
0
10
6.5807399542470755
20
2.9590908161052014
30
0
10
6.6829229072139018
20
2.966063406885814
30
0
10
6.7866617969405176
20
2.9558001490887982
30
0
10
6.8915797261457392
20
2.9436880555518541
30
0
10
6.9971886514992478
20
2.943138653226351
30
0
10
7.102911014212749
20
2.9599158085999706
30
0
10
7.208099819085362
20
2.9863540333280358
30
0
10
7.3121117048885509
20
3.0070930677219461
30
0
10
7.4143824282806747
20
3.0052314660796329
30
0
10
7.5144991610147738
20
2.968103846769186
30
0
10
7.6122796687394745
20
2.8937262170211486
30
0
10
7.7078327119199921
20
2.7954674290495261
30
0
10
7.8014949664176081
20
2.6949827913018165
30
0
10
7.8937811440512675
20
2.6165084341937375
30
0
10
7.9853295710844989
20
2.5804388460832288
30
0
10
8.0768488662114493
20
2.597659670629517
30
0
10
8.1690666022476268
20
2.6623641950633647
30
0
10
8.2626577000921255
20
2.7565845777954303
30
0
10
8.3581721696237317
20
2.8566228279217216
30
0
10
8.4559570992204982
20
2.9391046312443549
30
0
10
8.5560942837344598
20
2.9865400277591956
30
0
10
8.658297842466256
20
2.9947135954624988
30
0
10
8.7619709650760207
20
2.9723479815744018
30
0
10
8.8663808033801246
20
2.9349003114080769
30
0
10
8.970805044249861
20
2.8998819262063109
30
0
10
9.0746768951934769
20
2.8819575145669072
30
0
10
9.17776441426847
20
2.8871111014471378
30
0
10
9.2801362990828089
20
2.9132929972922423
30
0
10
9.3820465322045692
20
2.9535744971194324
30
0
10
9.4838438284174824
20
2.998526330312838
30
0
10
9.5858751734477607
20
3.0388026344054091
30
0
10
9.6883804805121194
20
3.0679415387989812
30
0
10
9.7915007096004167
20
3.0821457006256208
30
0
10
9.8745458007167155
20
3.080026042895657
30
0
10
9.9371487836304411
20
3.0705715176337609
30
0
10
9.9790259539389794
20
3.0607730583541892
30
0
10
10
20
3.0549999999999997
30
0
0
ENDSEC
0
SECTION
2
OBJECTS
0
DICTIONARY
5
C
100
AcDbDictionary
3
ACAD_GROUP
350
D
3
ACAD_MLINESTYLE
350
17
0
DICTIONARY
5
D
100
AcDbDictionary
0
DICTIONARY
5
1A
330
C
100
AcDbDictionary
0
DICTIONARY
5
17
100
AcDbDictionary
0
ENDSEC
0
EOF
