0
SECTION
2
HEADER
9
$INSUNITS
70
4
9
$ACADVER
1
AC1014
9
$HANDSEED
5
FFFF
0
ENDSEC
0
SECTION
2
TABLES
0
TABLE
2
VPORT
5
8
100
AcDbSymbolTable
0
ENDTAB
0
TABLE
2
LTYPE
5
5
100
AcDbSymbolTable
0
LTYPE
5
14
100
AcDbSymbolTableRecord
100
AcDbLinetypeTableRecord
2
BYBLOCK
70
0
0
LTYPE
5
15
100
AcDbSymbolTableRecord
100
AcDbLinetypeTableRecord
2
BYLAYER
70
0
0
ENDTAB
0
TABLE
2
LAYER
5
2
100
AcDbSymbolTable
70
2
0
LAYER
5
50
100
AcDbSymbolTableRecord
100
AcDbLayerTableRecord
2
0
70
0
6
CONTINUOUS
0
ENDTAB
0
TABLE
2
STYLE
5
3
100
AcDbSymbolTable
70
1
0
STYLE
5
11
100
AcDbSymbolTableRecord
100
AcDbTextStyleTableRecord
2
STANDARD
70
0
0
ENDTAB
0
TABLE
2
VIEW
5
6
100
AcDbSymbolTable
70
0
0
ENDTAB
0
TABLE
2
UCS
5
7
100
AcDbSymbolTable
70
0
0
ENDTAB
0
TABLE
2
APPID
5
9
100
AcDbSymbolTable
70
2
0
APPID
5
12
100
AcDbSymbolTableRecord
100
AcDbRegAppTableRecord
2
ACAD
70
0
0
ENDTAB
0
TABLE
2
DIMSTYLE
5
A
100
AcDbSymbolTable
70
1
0
ENDTAB
0
TABLE
2
BLOCK_RECORD
5
1
100
AcDbSymbolTable
70
1
0
BLOCK_RECORD
5
1F
100
AcDbSymbolTableRecord
100
AcDbBlockTableRecord
2
*MODEL_SPACE
0
BLOCK_RECORD
5
1B
100
AcDbSymbolTableRecord
100
AcDbBlockTableRecord
2
*PAPER_SPACE
0
ENDTAB
0
ENDSEC
0
SECTION
2
BLOCKS
0
BLOCK
5
20
100
AcDbEntity
100
AcDbBlockBegin
2
*MODEL_SPACE
0
ENDBLK
5
21
100
AcDbEntity
100
AcDbBlockEnd
0
BLOCK
5
1C
100
AcDbEntity
100
AcDbBlockBegin
2
*PAPER_SPACE
0
ENDBLK
5
1D
100
AcDbEntity
100
AcDbBlockEnd
0
ENDSEC
0
SECTION
2
ENTITIES
0
SPLINE
5
100
100
AcDbEntity
8
0
100
AcDbSpline
70
4
71
5
72
16
73
10
74
0
42
0.000000001
43
0.0000000001
44
0.0000000001
40
0
40
0
40
0
40
0
40
0
40
0
40
0.20000000000000001
40
0.40000000000000002
40
0.60000000000000009
40
0.80000000000000004
40
1
40
1
40
1
40
1
40
1
40
1
41
1
41
1
41
1
41
1
41
1
41
1
41
1
41
1
41
1
41
1
10
0
20
-0.055000000000000049
30
0
10
0
20
0.069400000000207365
30
0
10
0
20
0.31820000000056603
30
0
10
0
20
0.69140000000093593
30
0
10
0
20
1.1890000000011365
30
0
10
0
20
1.8110000000010393
30
0
10
0
20
2.3086000000007481
30
0
10
0
20
2.6818000000004227
30
0
10
0
20
2.9306000000001484
30
0
10
0
20
3.0549999999999997
30
0
0
SPLINE
5
101
100
AcDbEntity
8
0
100
AcDbSpline
70
4
71
5
72
16
73
10
74
0
42
0.000000001
43
0.0000000001
44
0.0000000001
40
0
40
0
40
0
40
0
40
0
40
0
40
0.20000000000000001
40
0.40000000000000002
40
0.60000000000000009
40
0.80000000000000004
40
1
40
1
40
1
40
1
40
1
40
1
41
1
41
1
41
1
41
1
41
1
41
1
41
1
41
1
41
1
41
1
10
10
20
-0.055000000000000049
30
0
10
9.9999999999997495
20
0.069400000000207365
30
0
10
9.9999999999993197
20
0.31820000000056603
30
0
10
9.9999999999989129
20
0.69140000000093593
30
0
10
9.9999999999987672
20
1.1890000000011365
30
0
10
9.9999999999990248
20
1.8110000000010393
30
0
10
9.9999999999993889
20
2.3086000000007481
30
0
10
9.9999999999996998
20
2.6818000000004227
30
0
10
9.9999999999999005
20
2.9306000000001484
30
0
10
10
20
3.0549999999999997
30
0
0
SPLINE
5
102
100
AcDbEntity
8
0
100
AcDbSpline
70
4
71
5
72
16
73
10
74
0
42
0.000000001
43
0.0000000001
44
0.0000000001
40
0
40
0
40
0
40
0
40
0
40
0
40
0.20000000000000001
40
0.40000000000000002
40
0.60000000000000009
40
0.80000000000000004
40
1
40
1
40
1
40
1
40
1
40
1
41
1
41
1
41
1
41
1
41
1
41
1
41
1
41
1
41
1
41
1
10
0
20
1.5274999999999999
30
0
10
0.40000000000047375
20
1.5274999999999856
30
0
10
1.2000000000012774
20
1.5274999999999614
30
0
10
2.4000000000020547
20
1.527499999999943
30
0
10
4.0000000000023546
20
1.5274999999999479
30
0
10
6.0000000000019584
20
1.5274999999999812
30
0
10
7.6000000000012928
20
1.5275000000000025
30
0
10
8.800000000000697
20
1.5275000000000083
30
0
10
9.6000000000002395
20
1.5275000000000039
30
0
10
10
20
1.5274999999999999
30
0
0
SPLINE
5
103
100
AcDbEntity
8
0
100
AcDbSpline
70
4
71
5
72
61
73
55
74
0
42
0.000000001
43
0.0000000001
44
0.0000000001
40
0
40
0
40
0
40
0
40
0
40
0
40
0.02
40
0.040000000000000001
40
0.059999999999999998
40
0.080000000000000002
40
0.10000000000000001
40
0.12000000000000001
40
0.14000000000000001
40
0.16
40
0.17999999999999999
40
0.19999999999999998
40
0.21999999999999997
40
0.23999999999999996
40
0.25999999999999995
40
0.27999999999999997
40
0.29999999999999999
40
0.32000000000000001
40
0.34000000000000002
40
0.36000000000000004
40
0.38000000000000006
40
0.40000000000000008
40
0.4200000000000001
40
0.44000000000000011
40
0.46000000000000013
40
0.48000000000000015
40
0.50000000000000011
40
0.52000000000000013
40
0.54000000000000015
40
0.56000000000000016
40
0.58000000000000018
40
0.6000000000000002
40
0.62000000000000022
40
0.64000000000000024
40
0.66000000000000025
40
0.68000000000000027
40
0.70000000000000029
40
0.72000000000000031
40
0.74000000000000032
40
0.76000000000000034
40
0.78000000000000036
40
0.80000000000000038
40
0.8200000000000004
40
0.84000000000000041
40
0.86000000000000043
40
0.88000000000000045
40
0.90000000000000047
40
0.92000000000000048
40
0.9400000000000005
40
0.96000000000000052
40
0.98000000000000054
40
1
40
1
40
1
40
1
40
1
40
1
41
1
41
1
41
1
41
1
41
1
41
1
41
1
41
1
41
1
41
1
41
1
41
1
41
1
41
1
41
1
41
1
41
1
41
1
41
1
41
1
41
1
41
1
41
1
41
1
41
1
41
1
41
1
41
1
41
1
41
1
41
1
41
1
41
1
41
1
41
1
41
1
41
1
41
1
41
1
41
1
41
1
41
1
41
1
41
1
41
1
41
1
41
1
41
1
41
1
41
1
41
1
41
1
41
1
41
1
41
1
10
0
20
-0.055000000000000049
30
0
10
0.038921010755979521
20
-0.032407824793308747
30
0
10
0.11685929864918548
20
0.010590726085995834
30
0
10
0.23405552885568018
20
0.068531182632869558
30
0
10
0.39089514887083782
20
0.13266159120300128
30
0
10
0.58790019312881592
20
0.19120857673844863
30
0
10
0.78583373968215198
20
0.22899094285717639
30
0
10
0.9846386225562429
20
0.24778625935541584
30
0
10
1.1842173365185211
20
0.25060189755463164
30
0
10
1.3844196632951944
20
0.2420593728571481
30
0
10
1.5850631151740564
20
0.22755943665078968
30
0
10
1.7859556632584059
20
0.21236410867094421
30
0
10
1.9869178224240212
20
0.20069506204767867
30
0
10
2.1878044753060699
20
0.19485531705124981
30
0
10
2.3885283426108281
20
0.19424911563931907
30
0
10
2.5890515810603425
20
0.19629339347623131
30
0
10
2.7893754109059965
20
0.19744275248307255
30
0
10
2.9895305722515197
20
0.19417874986197528
30
0
10
3.1895675355922886
20
0.18399310407459812
30
0
10
3.3895468599631529
20
0.16643097546914246
30
0
10
3.5895304648523148
20
0.14265713604216954
30
0
10
3.7895730477015341
20
0.11494990437044021
30
0
10
3.9897133024402005
20
0.086223426396193348
30
0
10
4.1899654851875638
20
0.0595438408863306
30
0
10
4.3903099509437977
20
0.037639176069629375
30
0
10
4.5907058069855902
20
0.02268272547505662
30
0
10
4.79110454754165
20
0.016091893244711029
30
0
10
4.9914634244317257
20
0.018315229459031648
30
0
10
5.1917586469210208
20
0.028631052600750308
30
0
10
5.3919994772553732
20
0.044912417918734113
30
0
10
5.5922171780113636
20
0.064205177890168955
30
0
10
5.7924530101510863
20
0.083334740601260116
30
0
10
5.9927465323479101
20
0.099505912435662369
30
0
10
6.1931239671327116
20
0.11089545084792302
30
0
10
6.3935859929978003
20
0.11727932192448769
30
0
10
6.5941151270487683
20
0.1195492826121714
30
0
10
6.7946837344650675
20
0.11919459460864151
30
0
10
6.9952618059965488
20
0.11779642759306576
30
0
10
7.1958247430160664
20
0.11652268400176918
30
0
10
7.3963613561688399
20
0.11560817835064156
30
0
10
7.5968699390687604
20
0.11462192775811295
30
0
10
7.7973540946743016
20
0.112750644146694
30
0
10
7.9978186629461359
20
0.10907552338690824
30
0
10
8.1982656318442739
20
0.10285019506641552
30
0
10
8.3986900000621851
20
0.093781698596603624
30
0
10
8.599081922070237
20
0.081917042106897583
30
0
10
8.7994289098233498
20
0.067526343474537454
30
0
10
8.9997180060499726
20
0.050987979177129071
30
0
10
9.1999379664039296
20
0.032673409879075521
30
0
10
9.4000814457737683
20
0.012832126496811385
30
0
10
9.6001441768810363
20
-0.0083843669463052328
30
0
10
9.7601281566472995
20
-0.026395668771182372
30
0
10
9.880078649172118
20
-0.04047570572241535
30
0
10
9.9600289917903631
20
-0.050116258342276863
30
0
10
10
20
-0.055000000000000049
30
0
0
SPLINE
5
104
100
AcDbEntity
8
0
100
AcDbSpline
70
4
71
5
72
61
73
55
74
0
42
0.000000001
43
0.0000000001
44
0.0000000001
40
0
40
0
40
0
40
0
40
0
40
0
40
0.02
40
0.040000000000000001
40
0.059999999999999998
40
0.080000000000000002
40
0.10000000000000001
40
0.12000000000000001
40
0.14000000000000001
40
0.16
40
0.17999999999999999
40
0.19999999999999998
40
0.21999999999999997
40
0.23999999999999996
40
0.25999999999999995
40
0.27999999999999997
40
0.29999999999999999
40
0.32000000000000001
40
0.34000000000000002
40
0.36000000000000004
40
0.38000000000000006
40
0.40000000000000008
40
0.4200000000000001
40
0.44000000000000011
40
0.46000000000000013
40
0.48000000000000015
40
0.50000000000000011
40
0.52000000000000013
40
0.54000000000000015
40
0.56000000000000016
40
0.58000000000000018
40
0.6000000000000002
40
0.62000000000000022
40
0.64000000000000024
40
0.66000000000000025
40
0.68000000000000027
40
0.70000000000000029
40
0.72000000000000031
40
0.74000000000000032
40
0.76000000000000034
40
0.78000000000000036
40
0.80000000000000038
40
0.8200000000000004
40
0.84000000000000041
40
0.86000000000000043
40
0.88000000000000045
40
0.90000000000000047
40
0.92000000000000048
40
0.9400000000000005
40
0.96000000000000052
40
0.98000000000000054
40
1
40
1
40
1
40
1
40
1
40
1
41
1
41
1
41
1
41
1
41
1
41
1
41
1
41
1
41
1
41
1
41
1
41
1
41
1
41
1
41
1
41
1
41
1
41
1
41
1
41
1
41
1
41
1
41
1
41
1
41
1
41
1
41
1
41
1
41
1
41
1
41
1
41
1
41
1
41
1
41
1
41
1
41
1
41
1
41
1
41
1
41
1
41
1
41
1
41
1
41
1
41
1
41
1
41
1
41
1
41
1
41
1
41
1
41
1
41
1
41
1
10
0
20
3.0549999999999997
30
0
10
0.039655699603145418
20
3.0374401596703411
30
0
10
0.11899536264221863
20
3.0042439716387741
30
0
10
0.23808964870364605
20
2.9602201600306266
30
0
10
0.39705172354569429
20
2.9130702685679646
30
0
10
0.59603683213105851
20
2.8731662846572665
30
0
10
0.79530242072313462
20
2.8515783332315099
30
0
10
0.99484357727469508
20
2.8468110847275971
30
0
10
1.1946513431474202
20
2.8563220800001416
30
0
10
1.3947115535647983
20
2.8762302720835264
30
0
10
1.5950027617522196
20
2.9019059575225716
30
0
10
1.7954941416000891
20
2.9285788780761672
30
0
10
1.9961433312382373
20
2.9519407316405721
30
0
10
2.1968943504689378
20
2.9687459573144452
30
0
10
2.3976752120914702
20
2.9774289749952123
30
0
10
2.598411946293127
20
2.9777918719570757
30
0
10
2.7990429038341946
20
2.9706782853238112
30
0
10
2.9995329915133082
20
2.9576555642832587
30
0
10
3.1998879736827619
20
2.9406960600334924
30
0
10
3.4001689267295774
20
2.9218599786673187
30
0
10
3.6004645454334474
20
2.9031771021923154
30
0
10
3.8008633743065796
20
2.8865290631202205
30
0
10
4.0014261505195217
20
2.8735312498903061
30
0
10
4.2021578964749189
20
2.8654138438404568
30
0
10
4.402980385605213
20
2.8629031070473667
30
0
10
4.6037725746242506
20
2.8662663356165918
30
0
10
4.8044106504451607
20
2.8753548819339736
30
0
10
5.0048078985527242
20
2.88964626914473
30
0
10
5.2049553780314364
20
2.9082861959303852
30
0
10
5.4049606122911857
20
2.9301274549692629
30
0
10
5.6049897343976385
20
2.9536732024215393
30
0
10
5.8052115250175227
20
2.9770198153409804
30
0
10
6.0057412639983889
20
2.9978020512875525
30
0
10
6.2065834646813283
20
3.0131284753522665
30
0
10
6.4075778535880259
20
3.019540490485217
30
0
10
6.6084753993631038
20
3.0138359413053246
30
0
10
6.809011261614363
20
2.993878130921952
30
0
10
7.0089779877184295
20
2.959399829995343
30
0
10
7.2083005852709894
20
2.9128444667876363
30
0
10
7.4071058435162032
20
2.8601139299035951
30
0
10
7.6056437960899759
20
2.8089441944651932
30
0
10
7.8042149493320503
20
2.7673719459794373
30
0
10
8.0030957800991551
20
2.7421744552157157
30
0
10
8.2024644112349065
20
2.7373056832866682
30
0
10
8.4023275289697104
20
2.752362330414531
30
0
10
8.6025696422231448
20
2.7838550649300831
30
0
10
8.8030003338321965
20
2.8264336498992209
30
0
10
9.0034018946556653
20
2.8741197442779898
30
0
10
9.2035769573308848
20
2.921540749275561
30
0
10
9.403395355122635
20
2.965143006537525
30
0
10
9.6027797399860972
20
3.0028055848466311
30
0
10
9.7619097410467024
20
3.0273460466145452
30
0
10
9.8810394941894124
20
3.0424543499462335
30
0
10
9.9603626168891672
20
3.0510621797035071
30
0
10
10
20
3.0549999999999997
30
0
0
ENDSEC
0
SECTION
2
OBJECTS
0
DICTIONARY
5
C
100
AcDbDictionary
3
ACAD_GROUP
350
D
3
ACAD_MLINESTYLE
350
17
0
DICTIONARY
5
D
100
AcDbDictionary
0
DICTIONARY
5
1A
330
C
100
AcDbDictionary
0
DICTIONARY
5
17
100
AcDbDictionary
0
ENDSEC
0
EOF
