0
SECTION
2
HEADER
9
$INSUNITS
70
4
9
$ACADVER
1
AC1014
9
$HANDSEED
5
FFFF
0
ENDSEC
0
SECTION
2
TABLES
0
TABLE
2
VPORT
5
8
100
AcDbSymbolTable
0
ENDTAB
0
TABLE
2
LTYPE
5
5
100
AcDbSymbolTable
0
LTYPE
5
14
100
AcDbSymbolTableRecord
100
AcDbLinetypeTableRecord
2
BYBLOCK
70
0
0
LTYPE
5
15
100
AcDbSymbolTableRecord
100
AcDbLinetypeTableRecord
2
BYLAYER
70
0
0
ENDTAB
0
TABLE
2
LAYER
5
2
100
AcDbSymbolTable
70
2
0
LAYER
5
50
100
AcDbSymbolTableRecord
100
AcDbLayerTableRecord
2
0
70
0
6
CONTINUOUS
0
ENDTAB
0
TABLE
2
STYLE
5
3
100
AcDbSymbolTable
70
1
0
STYLE
5
11
100
AcDbSymbolTableRecord
100
AcDbTextStyleTableRecord
2
STANDARD
70
0
0
ENDTAB
0
TABLE
2
VIEW
5
6
100
AcDbSymbolTable
70
0
0
ENDTAB
0
TABLE
2
UCS
5
7
100
AcDbSymbolTable
70
0
0
ENDTAB
0
TABLE
2
APPID
5
9
100
AcDbSymbolTable
70
2
0
APPID
5
12
100
AcDbSymbolTableRecord
100
AcDbRegAppTableRecord
2
ACAD
70
0
0
ENDTAB
0
TABLE
2
DIMSTYLE
5
A
100
AcDbSymbolTable
70
1
0
ENDTAB
0
TABLE
2
BLOCK_RECORD
5
1
100
AcDbSymbolTable
70
1
0
BLOCK_RECORD
5
1F
100
AcDbSymbolTableRecord
100
AcDbBlockTableRecord
2
*MODEL_SPACE
0
BLOCK_RECORD
5
1B
100
AcDbSymbolTableRecord
100
AcDbBlockTableRecord
2
*PAPER_SPACE
0
ENDTAB
0
ENDSEC
0
SECTION
2
BLOCKS
0
BLOCK
5
20
100
AcDbEntity
100
AcDbBlockBegin
2
*MODEL_SPACE
0
ENDBLK
5
21
100
AcDbEntity
100
AcDbBlockEnd
0
BLOCK
5
1C
100
AcDbEntity
100
AcDbBlockBegin
2
*PAPER_SPACE
0
ENDBLK
5
1D
100
AcDbEntity
100
AcDbBlockEnd
0
ENDSEC
0
SECTION
2
ENTITIES
0
SPLINE
5
100
100
AcDbEntity
8
0
100
AcDbSpline
70
4
71
5
72
16
73
10
74
0
42
0.000000001
43
0.0000000001
44
0.0000000001
40
0
40
0
40
0
40
0
40
0
40
0
40
0.20000000000000001
40
0.40000000000000002
40
0.60000000000000009
40
0.80000000000000004
40
1
40
1
40
1
40
1
40
1
40
1
41
1
41
1
41
1
41
1
41
1
41
1
41
1
41
1
41
1
41
1
10
0
20
-0.055000000000000049
30
0
10
0
20
0.069400000000207365
30
0
10
0
20
0.31820000000056603
30
0
10
0
20
0.69140000000093593
30
0
10
0
20
1.1890000000011365
30
0
10
0
20
1.8110000000010393
30
0
10
0
20
2.3086000000007481
30
0
10
0
20
2.6818000000004227
30
0
10
0
20
2.9306000000001484
30
0
10
0
20
3.0549999999999997
30
0
0
SPLINE
5
101
100
AcDbEntity
8
0
100
AcDbSpline
70
4
71
5
72
16
73
10
74
0
42
0.000000001
43
0.0000000001
44
0.0000000001
40
0
40
0
40
0
40
0
40
0
40
0
40
0.20000000000000001
40
0.40000000000000002
40
0.60000000000000009
40
0.80000000000000004
40
1
40
1
40
1
40
1
40
1
40
1
41
1
41
1
41
1
41
1
41
1
41
1
41
1
41
1
41
1
41
1
10
10
20
-0.055000000000000049
30
0
10
9.9999999999997495
20
0.069400000000207365
30
0
10
9.9999999999993197
20
0.31820000000056603
30
0
10
9.9999999999989129
20
0.69140000000093593
30
0
10
9.9999999999987672
20
1.1890000000011365
30
0
10
9.9999999999990248
20
1.8110000000010393
30
0
10
9.9999999999993889
20
2.3086000000007481
30
0
10
9.9999999999996998
20
2.6818000000004227
30
0
10
9.9999999999999005
20
2.9306000000001484
30
0
10
10
20
3.0549999999999997
30
0
0
SPLINE
5
102
100
AcDbEntity
8
0
100
AcDbSpline
70
4
71
5
72
16
73
10
74
0
42
0.000000001
43
0.0000000001
44
0.0000000001
40
0
40
0
40
0
40
0
40
0
40
0
40
0.20000000000000001
40
0.40000000000000002
40
0.60000000000000009
40
0.80000000000000004
40
1
40
1
40
1
40
1
40
1
40
1
41
1
41
1
41
1
41
1
41
1
41
1
41
1
41
1
41
1
41
1
10
0
20
1.5274999999999999
30
0
10
0.40000000000047375
20
1.5274999999999856
30
0
10
1.2000000000012774
20
1.5274999999999614
30
0
10
2.4000000000020547
20
1.527499999999943
30
0
10
4.0000000000023546
20
1.5274999999999479
30
0
10
6.0000000000019584
20
1.5274999999999812
30
0
10
7.6000000000012928
20
1.5275000000000025
30
0
10
8.800000000000697
20
1.5275000000000083
30
0
10
9.6000000000002395
20
1.5275000000000039
30
0
10
10
20
1.5274999999999999
30
0
0
SPLINE
5
103
100
AcDbEntity
8
0
100
AcDbSpline
70
4
71
5
72
61
73
55
74
0
42
0.000000001
43
0.0000000001
44
0.0000000001
40
0
40
0
40
0
40
0
40
0
40
0
40
0.02
40
0.040000000000000001
40
0.059999999999999998
40
0.080000000000000002
40
0.10000000000000001
40
0.12000000000000001
40
0.14000000000000001
40
0.16
40
0.17999999999999999
40
0.19999999999999998
40
0.21999999999999997
40
0.23999999999999996
40
0.25999999999999995
40
0.27999999999999997
40
0.29999999999999999
40
0.32000000000000001
40
0.34000000000000002
40
0.36000000000000004
40
0.38000000000000006
40
0.40000000000000008
40
0.4200000000000001
40
0.44000000000000011
40
0.46000000000000013
40
0.48000000000000015
40
0.50000000000000011
40
0.52000000000000013
40
0.54000000000000015
40
0.56000000000000016
40
0.58000000000000018
40
0.6000000000000002
40
0.62000000000000022
40
0.64000000000000024
40
0.66000000000000025
40
0.68000000000000027
40
0.70000000000000029
40
0.72000000000000031
40
0.74000000000000032
40
0.76000000000000034
40
0.78000000000000036
40
0.80000000000000038
40
0.8200000000000004
40
0.84000000000000041
40
0.86000000000000043
40
0.88000000000000045
40
0.90000000000000047
40
0.92000000000000048
40
0.9400000000000005
40
0.96000000000000052
40
0.98000000000000054
40
1
40
1
40
1
40
1
40
1
40
1
41
1
41
1
41
1
41
1
41
1
41
1
41
1
41
1
41
1
41
1
41
1
41
1
41
1
41
1
41
1
41
1
41
1
41
1
41
1
41
1
41
1
41
1
41
1
41
1
41
1
41
1
41
1
41
1
41
1
41
1
41
1
41
1
41
1
41
1
41
1
41
1
41
1
41
1
41
1
41
1
41
1
41
1
41
1
41
1
41
1
41
1
41
1
41
1
41
1
41
1
41
1
41
1
41
1
41
1
41
1
10
0
20
-0.055000000000000049
30
0
10
0.039964080795404838
20
-0.04062220287928231
30
0
10
0.11990676278263931
20
-0.013292200003909047
30
0
10
0.23986434692021102
20
0.023426030785475591
30
0
10
0.39989497176541799
20
0.063824548053735705
30
0
10
0.60008077252340497
20
0.10011814447630897
30
0
10
0.80042019391505281
20
0.12244525575380702
30
0
10
1.0009250092935107
20
0.13132497261543349
30
0
10
1.2016144963958413
20
0.12766147368679073
30
0
10
1.4025171986523757
20
0.11285001395889067
30
0
10
1.6036578906791477
20
0.088932401089654695
30
0
10
1.805044504676014
20
0.058757440629309668
30
0
10
2.0066552097256651
20
0.026134605999856723
30
0
10
2.2084249316425546
20
-0.0039900024650698198
30
0
10
2.4102331521345368
20
-0.025410165852303983
30
0
10
2.6119338599844273
20
-0.032157946399980708
30
0
10
2.8133845207749846
20
-0.019976891900727916
30
0
10
3.0144748411391915
20
0.01223270290764366
30
0
10
3.2151569952955668
20
0.060853125837974628
30
0
10
3.4154716846520294
20
0.11629633787870988
30
0
10
3.6155131956531035
20
0.16619677474357913
30
0
10
3.8153978893856237
20
0.19836356790896231
30
0
10
4.0152321153074739
20
0.20376329011345895
30
0
10
4.2150789057478368
20
0.17963311904395718
30
0
10
4.414929274338367
20
0.1321644497638062
30
0
10
4.6147376136741745
20
0.073151125549000467
30
0
10
4.8144533711399422
20
0.017014393902987344
30
0
10
5.0140532585704181
20
-0.022270419619709433
30
0
10
5.2135752413177547
20
-0.034285304849933577
30
0
10
5.4131463756586085
20
-0.015041241360700243
30
0
10
5.6129183783985894
20
0.034122994224961622
30
0
10
5.8130078994740995
20
0.10738843822304692
30
0
10
6.0134365126935201
20
0.19539817691304387
30
0
10
6.2140669989883346
20
0.28612039175470994
30
0
10
6.4145510289687602
20
0.36581456581383276
30
0
10
6.6144570021784697
20
0.42131869519776632
30
0
10
6.8133885123751341
20
0.44228726946308305
30
0
10
7.0111044856678362
20
0.42341251214675379
30
0
10
7.2076433557500419
20
0.36676240304475483
30
0
10
7.4034337878124754
20
0.2838147971398578
30
0
10
7.5991251482678415
20
0.19132505650528214
30
0
10
7.7954320906287311
20
0.10750508016165256
30
0
10
7.9929730269915886
20
0.048065309314319425
30
0
10
8.1921135563322611
20
0.022372882815765893
30
0
10
8.3928003091865904
20
0.029376080789631102
30
0
10
8.5946762998882029
20
0.060463557572217067
30
0
10
8.7972043103697732
20
0.10252187998749196
30
0
10
8.9997867677845349
20
0.14090646612839314
30
0
10
9.2018867430374875
20
0.16244023431899851
30
0
10
9.4031487286125213
20
0.1584068519619265
30
0
10
9.6033616407870177
20
0.12363897451690928
30
0
10
9.7626097541533383
20
0.069212244778862855
30
0
10
9.8815122493651657
20
0.013063433255560192
30
0
10
9.9605435825946085
20
-0.031177463291939791
30
0
10
10
20
-0.055000000000000049
30
0
0
SPLINE
5
104
100
AcDbEntity
8
0
100
AcDbSpline
70
4
71
5
72
61
73
55
74
0
42
0.000000001
43
0.0000000001
44
0.0000000001
40
0
40
0
40
0
40
0
40
0
40
0
40
0.02
40
0.040000000000000001
40
0.059999999999999998
40
0.080000000000000002
40
0.10000000000000001
40
0.12000000000000001
40
0.14000000000000001
40
0.16
40
0.17999999999999999
40
0.19999999999999998
40
0.21999999999999997
40
0.23999999999999996
40
0.25999999999999995
40
0.27999999999999997
40
0.29999999999999999
40
0.32000000000000001
40
0.34000000000000002
40
0.36000000000000004
40
0.38000000000000006
40
0.40000000000000008
40
0.4200000000000001
40
0.44000000000000011
40
0.46000000000000013
40
0.48000000000000015
40
0.50000000000000011
40
0.52000000000000013
40
0.54000000000000015
40
0.56000000000000016
40
0.58000000000000018
40
0.6000000000000002
40
0.62000000000000022
40
0.64000000000000024
40
0.66000000000000025
40
0.68000000000000027
40
0.70000000000000029
40
0.72000000000000031
40
0.74000000000000032
40
0.76000000000000034
40
0.78000000000000036
40
0.80000000000000038
40
0.8200000000000004
40
0.84000000000000041
40
0.86000000000000043
40
0.88000000000000045
40
0.90000000000000047
40
0.92000000000000048
40
0.9400000000000005
40
0.96000000000000052
40
0.98000000000000054
40
1
40
1
40
1
40
1
40
1
40
1
41
1
41
1
41
1
41
1
41
1
41
1
41
1
41
1
41
1
41
1
41
1
41
1
41
1
41
1
41
1
41
1
41
1
41
1
41
1
41
1
41
1
41
1
41
1
41
1
41
1
41
1
41
1
41
1
41
1
41
1
41
1
41
1
41
1
41
1
41
1
41
1
41
1
41
1
41
1
41
1
41
1
41
1
41
1
41
1
41
1
41
1
41
1
41
1
41
1
41
1
41
1
41
1
41
1
41
1
41
1
10
0
20
3.0549999999999997
30
0
10
0.039656753634664116
20
3.043400181027474
30
0
10
0.1191125587268896
20
3.0224080849958757
30
0
10
0.23872316314680245
20
2.9975426171315513
30
0
10
0.39905829032660317
20
2.9776422071481607
30
0
10
0.60084977155306329
20
2.9741075477185666
30
0
10
0.80385370341077944
20
2.9895721312458057
30
0
10
1.0077462459308795
20
3.0192969471838156
30
0
10
1.2119811033279897
20
3.0552830379590397
30
0
10
1.4157397386525239
20
3.0855454745799622
30
0
10
1.618127633739419
20
3.0971272672089905
30
0
10
1.8183645025151645
20
3.0790228585591652
30
0
10
2.0159725447376835
20
3.0250694785658059
30
0
10
2.2109765282196143
20
2.9370251798585634
30
0
10
2.4040707453788084
20
2.8271259107999525
30
0
10
2.5963325264127111
20
2.7135208271926423
30
0
10
2.7889680695388792
20
2.6162131461328548
30
0
10
2.9830419956746446
20
2.5527487079407551
30
0
10
3.1792242106439526
20
2.53416666958422
30
0
10
3.3775000536042588
20
2.5603962289882705
30
0
10
3.5773686059243666
20
2.623005623236931
30
0
10
3.7780786067052312
20
2.7085264865060514
30
0
10
3.9788542038650543
20
2.8015967839069389
30
0
10
4.1791150684488958
20
2.8880757603538756
30
0
10
4.3787249762811982
20
2.9584274923191516
30
0
10
4.5778806356862898
20
3.0074901122810607
30
0
10
4.776962495607525
20
3.0338410937062852
30
0
10
4.9763971559226281
20
3.0393314775054368
30
0
10
5.1765210691514714
20
3.0285284593544
30
0
10
5.3774277610385193
20
3.008286562332823
30
0
10
5.5790178399387633
20
2.9862953079427172
30
0
10
5.7810737603142872
20
2.9695289941705196
30
0
10
5.9833261547781857
20
2.9626923657148776
30
0
10
6.1855217261964803
20
2.966749136099986
30
0
10
6.3874952349358907
20
2.9771742685709794
30
0
10
6.5891576862874626
20
2.9862570750511814
30
0
10
6.7904774245311312
20
2.9857204233617303
30
0
10
6.991463895440118
20
2.9692495275633561
30
0
10
7.1921506039781509
20
2.9350009022245334
30
0
10
7.3925780029655623
20
2.8882978833777524
30
0
10
7.5927925914153835
20
2.8389620295959448
30
0
10
7.7928467776262833
20
2.7984407097983688
30
0
10
7.992798495695995
20
2.7769956786253269
30
0
10
8.1927109089123995
20
2.7809112648202139
30
0
10
8.3926521982902678
20
2.8095580772789335
30
0
10
8.5926914724497898
20
2.8572663082193603
30
0
10
8.7928945516338448
20
2.9153502693135285
30
0
10
8.993319761178217
20
2.9740772136968232
30
0
10
9.1940137669004578
20
3.0246320895582226
30
0
10
9.3950071735518037
20
3.0611469846355037
30
0
10
9.5963177636812773
20
3.0801481418900734
30
0
10
9.7576267087849029
20
3.079970093329977
30
0
10
9.8787559988551816
20
3.0709418984370407
30
0
10
9.9595744080950794
20
3.0609724113543715
30
0
10
10
20
3.0549999999999997
30
0
0
ENDSEC
0
SECTION
2
OBJECTS
0
DICTIONARY
5
C
100
AcDbDictionary
3
ACAD_GROUP
350
D
3
ACAD_MLINESTYLE
350
17
0
DICTIONARY
5
D
100
AcDbDictionary
0
DICTIONARY
5
1A
330
C
100
AcDbDictionary
0
DICTIONARY
5
17
100
AcDbDictionary
0
ENDSEC
0
EOF
