0
SECTION
2
HEADER
9
$INSUNITS
70
4
9
$ACADVER
1
AC1014
9
$HANDSEED
5
FFFF
0
ENDSEC
0
SECTION
2
TABLES
0
TABLE
2
VPORT
5
8
100
AcDbSymbolTable
0
ENDTAB
0
TABLE
2
LTYPE
5
5
100
AcDbSymbolTable
0
LTYPE
5
14
100
AcDbSymbolTableRecord
100
AcDbLinetypeTableRecord
2
BYBLOCK
70
0
0
LTYPE
5
15
100
AcDbSymbolTableRecord
100
AcDbLinetypeTableRecord
2
BYLAYER
70
0
0
ENDTAB
0
TABLE
2
LAYER
5
2
100
AcDbSymbolTable
70
2
0
LAYER
5
50
100
AcDbSymbolTableRecord
100
AcDbLayerTableRecord
2
0
70
0
6
CONTINUOUS
0
ENDTAB
0
TABLE
2
STYLE
5
3
100
AcDbSymbolTable
70
1
0
STYLE
5
11
100
AcDbSymbolTableRecord
100
AcDbTextStyleTableRecord
2
STANDARD
70
0
0
ENDTAB
0
TABLE
2
VIEW
5
6
100
AcDbSymbolTable
70
0
0
ENDTAB
0
TABLE
2
UCS
5
7
100
AcDbSymbolTable
70
0
0
ENDTAB
0
TABLE
2
APPID
5
9
100
AcDbSymbolTable
70
2
0
APPID
5
12
100
AcDbSymbolTableRecord
100
AcDbRegAppTableRecord
2
ACAD
70
0
0
ENDTAB
0
TABLE
2
DIMSTYLE
5
A
100
AcDbSymbolTable
70
1
0
ENDTAB
0
TABLE
2
BLOCK_RECORD
5
1
100
AcDbSymbolTable
70
1
0
BLOCK_RECORD
5
1F
100
AcDbSymbolTableRecord
100
AcDbBlockTableRecord
2
*MODEL_SPACE
0
BLOCK_RECORD
5
1B
100
AcDbSymbolTableRecord
100
AcDbBlockTableRecord
2
*PAPER_SPACE
0
ENDTAB
0
ENDSEC
0
SECTION
2
BLOCKS
0
BLOCK
5
20
100
AcDbEntity
100
AcDbBlockBegin
2
*MODEL_SPACE
0
ENDBLK
5
21
100
AcDbEntity
100
AcDbBlockEnd
0
BLOCK
5
1C
100
AcDbEntity
100
AcDbBlockBegin
2
*PAPER_SPACE
0
ENDBLK
5
1D
100
AcDbEntity
100
AcDbBlockEnd
0
ENDSEC
0
SECTION
2
ENTITIES
0
SPLINE
5
100
100
AcDbEntity
8
0
100
AcDbSpline
70
4
71
5
72
16
73
10
74
0
42
0.000000001
43
0.0000000001
44
0.0000000001
40
0
40
0
40
0
40
0
40
0
40
0
40
0.20000000000000001
40
0.40000000000000002
40
0.60000000000000009
40
0.80000000000000004
40
1
40
1
40
1
40
1
40
1
40
1
41
1
41
1
41
1
41
1
41
1
41
1
41
1
41
1
41
1
41
1
10
0
20
-0.055000000000000049
30
0
10
0
20
0.069400000000207365
30
0
10
0
20
0.31820000000056603
30
0
10
0
20
0.69140000000093593
30
0
10
0
20
1.1890000000011365
30
0
10
0
20
1.8110000000010393
30
0
10
0
20
2.3086000000007481
30
0
10
0
20
2.6818000000004227
30
0
10
0
20
2.9306000000001484
30
0
10
0
20
3.0549999999999997
30
0
0
SPLINE
5
101
100
AcDbEntity
8
0
100
AcDbSpline
70
4
71
5
72
16
73
10
74
0
42
0.000000001
43
0.0000000001
44
0.0000000001
40
0
40
0
40
0
40
0
40
0
40
0
40
0.20000000000000001
40
0.40000000000000002
40
0.60000000000000009
40
0.80000000000000004
40
1
40
1
40
1
40
1
40
1
40
1
41
1
41
1
41
1
41
1
41
1
41
1
41
1
41
1
41
1
41
1
10
10
20
-0.055000000000000049
30
0
10
9.9999999999997495
20
0.069400000000207365
30
0
10
9.9999999999993197
20
0.31820000000056603
30
0
10
9.9999999999989129
20
0.69140000000093593
30
0
10
9.9999999999987672
20
1.1890000000011365
30
0
10
9.9999999999990248
20
1.8110000000010393
30
0
10
9.9999999999993889
20
2.3086000000007481
30
0
10
9.9999999999996998
20
2.6818000000004227
30
0
10
9.9999999999999005
20
2.9306000000001484
30
0
10
10
20
3.0549999999999997
30
0
0
SPLINE
5
102
100
AcDbEntity
8
0
100
AcDbSpline
70
4
71
5
72
16
73
10
74
0
42
0.000000001
43
0.0000000001
44
0.0000000001
40
0
40
0
40
0
40
0
40
0
40
0
40
0.20000000000000001
40
0.40000000000000002
40
0.60000000000000009
40
0.80000000000000004
40
1
40
1
40
1
40
1
40
1
40
1
41
1
41
1
41
1
41
1
41
1
41
1
41
1
41
1
41
1
41
1
10
0
20
1.5274999999999999
30
0
10
0.40000000000047375
20
1.5274999999999856
30
0
10
1.2000000000012774
20
1.5274999999999614
30
0
10
2.4000000000020547
20
1.527499999999943
30
0
10
4.0000000000023546
20
1.5274999999999479
30
0
10
6.0000000000019584
20
1.5274999999999812
30
0
10
7.6000000000012928
20
1.5275000000000025
30
0
10
8.800000000000697
20
1.5275000000000083
30
0
10
9.6000000000002395
20
1.5275000000000039
30
0
10
10
20
1.5274999999999999
30
0
0
SPLINE
5
103
100
AcDbEntity
8
0
100
AcDbSpline
70
4
71
5
72
61
73
55
74
0
42
0.000000001
43
0.0000000001
44
0.0000000001
40
0
40
0
40
0
40
0
40
0
40
0
40
0.02
40
0.040000000000000001
40
0.059999999999999998
40
0.080000000000000002
40
0.10000000000000001
40
0.12000000000000001
40
0.14000000000000001
40
0.16
40
0.17999999999999999
40
0.19999999999999998
40
0.21999999999999997
40
0.23999999999999996
40
0.25999999999999995
40
0.27999999999999997
40
0.29999999999999999
40
0.32000000000000001
40
0.34000000000000002
40
0.36000000000000004
40
0.38000000000000006
40
0.40000000000000008
40
0.4200000000000001
40
0.44000000000000011
40
0.46000000000000013
40
0.48000000000000015
40
0.50000000000000011
40
0.52000000000000013
40
0.54000000000000015
40
0.56000000000000016
40
0.58000000000000018
40
0.6000000000000002
40
0.62000000000000022
40
0.64000000000000024
40
0.66000000000000025
40
0.68000000000000027
40
0.70000000000000029
40
0.72000000000000031
40
0.74000000000000032
40
0.76000000000000034
40
0.78000000000000036
40
0.80000000000000038
40
0.8200000000000004
40
0.84000000000000041
40
0.86000000000000043
40
0.88000000000000045
40
0.90000000000000047
40
0.92000000000000048
40
0.9400000000000005
40
0.96000000000000052
40
0.98000000000000054
40
1
40
1
40
1
40
1
40
1
40
1
41
1
41
1
41
1
41
1
41
1
41
1
41
1
41
1
41
1
41
1
41
1
41
1
41
1
41
1
41
1
41
1
41
1
41
1
41
1
41
1
41
1
41
1
41
1
41
1
41
1
41
1
41
1
41
1
41
1
41
1
41
1
41
1
41
1
41
1
41
1
41
1
41
1
41
1
41
1
41
1
41
1
41
1
41
1
41
1
41
1
41
1
41
1
41
1
41
1
41
1
41
1
41
1
41
1
41
1
41
1
10
0
20
-0.055000000000000049
30
0
10
0.04022924646358475
20
-0.042768457200938789
30
0
10
0.12068732416320566
20
-0.019784006428890371
30
0
10
0.24137319451275274
20
0.010256746445906966
30
0
10
0.40228519873370638
20
0.041433619149407089
30
0
10
0.60342728357242981
20
0.065961045858844075
30
0
10
0.80459024657583167
20
0.077163019411222569
30
0
10
1.0058115870374071
20
0.077316709895410077
30
0
10
1.2071542142887868
20
0.070273585603173844
30
0
10
1.4087117683962866
20
0.06182476327659607
30
0
10
1.610567039461648
20
0.058236165661458505
30
0
10
1.8127507266091976
20
0.064813157583830092
30
0
10
2.0152015735083388
20
0.084487689479916181
30
0
10
2.2177219392716685
20
0.11630887249020776
30
0
10
2.4199455727349615
20
0.15419608656518974
30
0
10
2.6214664022334517
20
0.18928969650926231
30
0
10
2.8219597387231401
20
0.21209579434071868
30
0
10
3.0213015072803175
20
0.21465850099513478
30
0
10
3.2197004020712501
20
0.1928330930825799
30
0
10
3.4177919432598407
20
0.14820773716857996
30
0
10
3.616378976979755
20
0.086594580104390903
30
0
10
3.8161990988029411
20
0.016822913814944607
30
0
10
4.0176886131104474
20
-0.050575448149641274
30
0
10
4.2207314123573063
20
-0.10462460058081485
30
0
10
4.42445829565869
20
-0.13519546471012345
30
0
10
4.6276253479270117
20
-0.13432780654699564
30
0
10
4.8289552539000233
20
-0.097598799929847227
30
0
10
5.0274801549188917
20
-0.02540098222776049
30
0
10
5.2229129819102162
20
0.075536754085729574
30
0
10
5.4159245631962154
20
0.19127628979056116
30
0
10
5.607741262642242
20
0.30435073292294118
30
0
10
5.799816347633695
20
0.39695038380865771
30
0
10
5.9934716824189689
20
0.45431717391821724
30
0
10
6.1895570709971883
20
0.46800630266101473
30
0
10
6.3880870535125567
20
0.43935793031159853
30
0
10
6.5884978039529347
20
0.37683785718939378
30
0
10
6.7899184318766439
20
0.29323283512178588
30
0
10
6.9914380922911379
20
0.2028978745540595
30
0
10
7.192369669130767
20
0.11902444111388895
30
0
10
7.3925284544252339
20
0.050802264046984319
30
0
10
7.5920919130429265
20
0.0036916468810521711
30
0
10
7.7914432746544442
20
-0.020179938159555457
30
0
10
7.9910206007099447
20
-0.021679316399457745
30
0
10
8.1911664016330352
20
-0.0043072794298375083
30
0
10
8.3919698560889753
20
0.026126520859611462
30
0
10
8.5933291069406099
20
0.062376057327586949
30
0
10
8.7950225974127285
20
0.096648482664751234
30
0
10
8.9967768708838154
20
0.12148779676022513
30
0
10
9.198335275844876
20
0.13065535212604729
30
0
10
9.3995273101485246
20
0.12003063145139033
30
0
10
9.6002518454619352
20
0.087185213845221585
30
0
10
9.7604176381991827
20
0.042189305333378058
30
0
10
9.8803020620519355
20
-0.0022499226573823466
30
0
10
9.9601184478654314
20
-0.036625132072048504
30
0
10
10
20
-0.055000000000000049
30
0
0
SPLINE
5
104
100
AcDbEntity
8
0
100
AcDbSpline
70
4
71
5
72
61
73
55
74
0
42
0.000000001
43
0.0000000001
44
0.0000000001
40
0
40
0
40
0
40
0
40
0
40
0
40
0.02
40
0.040000000000000001
40
0.059999999999999998
40
0.080000000000000002
40
0.10000000000000001
40
0.12000000000000001
40
0.14000000000000001
40
0.16
40
0.17999999999999999
40
0.19999999999999998
40
0.21999999999999997
40
0.23999999999999996
40
0.25999999999999995
40
0.27999999999999997
40
0.29999999999999999
40
0.32000000000000001
40
0.34000000000000002
40
0.36000000000000004
40
0.38000000000000006
40
0.40000000000000008
40
0.4200000000000001
40
0.44000000000000011
40
0.46000000000000013
40
0.48000000000000015
40
0.50000000000000011
40
0.52000000000000013
40
0.54000000000000015
40
0.56000000000000016
40
0.58000000000000018
40
0.6000000000000002
40
0.62000000000000022
40
0.64000000000000024
40
0.66000000000000025
40
0.68000000000000027
40
0.70000000000000029
40
0.72000000000000031
40
0.74000000000000032
40
0.76000000000000034
40
0.78000000000000036
40
0.80000000000000038
40
0.8200000000000004
40
0.84000000000000041
40
0.86000000000000043
40
0.88000000000000045
40
0.90000000000000047
40
0.92000000000000048
40
0.9400000000000005
40
0.96000000000000052
40
0.98000000000000054
40
1
40
1
40
1
40
1
40
1
40
1
41
1
41
1
41
1
41
1
41
1
41
1
41
1
41
1
41
1
41
1
41
1
41
1
41
1
41
1
41
1
41
1
41
1
41
1
41
1
41
1
41
1
41
1
41
1
41
1
41
1
41
1
41
1
41
1
41
1
41
1
41
1
41
1
41
1
41
1
41
1
41
1
41
1
41
1
41
1
41
1
41
1
41
1
41
1
41
1
41
1
41
1
41
1
41
1
41
1
41
1
41
1
41
1
41
1
41
1
41
1
10
0
20
3.0549999999999997
30
0
10
0.03901225893518688
20
3.0102135212738581
30
0
10
0.11700232328778726
20
2.9258335050113486
30
0
10
0.23388406537001846
20
2.8148422287549044
30
0
10
0.38951949147410614
20
2.6980323084604265
30
0
10
0.58374792005190757
20
2.6034856766699037
30
0
10
0.77774784084292781
20
2.5587168457044767
30
0
10
0.97169687386330383
20
2.5601709614908481
30
0
10
1.1658886182493902
20
2.6018224942734895
30
0
10
1.3607749052762796
20
2.6743651566856403
30
0
10
1.5568654187496336
20
2.7661926687031668
30
0
10
1.7546082917919281
20
2.8646517748870579
30
0
10
1.954270821616944
20
2.9572086148979073
30
0
10
2.1558343023494806
20
3.0326209050419095
30
0
10
2.3588443040596543
20
3.0821877032467966
30
0
10
2.5625447728590611
20
3.1004007379812242
30
0
10
2.7660869727361832
20
3.0853971272969796
30
0
10
2.9687186168311959
20
3.0395494586064169
30
0
10
3.1699681668270463
20
2.9698749753799336
30
0
10
3.3698665825063499
20
2.8888906030323787
30
0
10
3.568821694092855
20
2.8119375123518262
30
0
10
3.7674343335561069
20
2.7539676746207071
30
0
10
3.9663308481855846
20
2.7263967527511923
30
0
10
4.165999571976001
20
2.7341993528189255
30
0
10
4.3665975145490021
20
2.7721567036626533
30
0
10
4.5680206898365014
20
2.8279922287131583
30
0
10
4.7700232829530451
20
2.8867405967041311
30
0
10
4.9723220434488216
20
2.9347952625229849
30
0
10
5.1747004999507684
20
2.9638234917058695
30
0
10
5.3771296645316085
20
2.9754571632038269
30
0
10
5.5797053906232961
20
2.9780259642538938
30
0
10
5.7825589552072536
20
2.9821493570124611
30
0
10
5.9857758596877808
20
2.9966714334847793
30
0
10
6.1893143192715065
20
3.0246086986829845
30
0
10
6.3929149133691201
20
3.05865084136446
30
0
10
6.5961885513846745
20
3.0854705816438073
30
0
10
6.7987167673644509
20
3.0906404617632943
30
0
10
7.0001474115775171
20
3.0633243838371023
30
0
10
7.2002923539160335
20
3.0010670796440491
30
0
10
7.3992248761315835
20
2.9145717053533544
30
0
10
7.5972055707606421
20
2.8224911881946828
30
0
10
7.794608573872126
20
2.746242438369864
30
0
10
7.9918476245966685
20
2.7047811034096596
30
0
10
8.1893034084229939
20
2.7094887991149204
30
0
10
8.3872475478898902
20
2.7587262984217462
30
0
10
8.5858601232627265
20
2.8413442600103163
30
0
10
8.7852505815144717
20
2.9405035377849682
30
0
10
8.9854773219283626
20
3.0374025361064181
30
0
10
9.1865673509138386
20
3.1149450274123032
30
0
10
9.3885366198476365
20
3.1616771440639631
30
0
10
9.5913934224695669
20
3.1708476485492492
30
0
10
9.7543910995726293
20
3.145472936501629
30
0
10
9.8770398897042728
20
3.1075707611375996
30
0
10
9.958983646986141
20
3.0739205837321855
30
0
10
10
20
3.0549999999999997
30
0
0
ENDSEC
0
SECTION
2
OBJECTS
0
DICTIONARY
5
C
100
AcDbDictionary
3
ACAD_GROUP
350
D
3
ACAD_MLINESTYLE
350
17
0
DICTIONARY
5
D
100
AcDbDictionary
0
DICTIONARY
5
1A
330
C
100
AcDbDictionary
0
DICTIONARY
5
17
100
AcDbDictionary
0
ENDSEC
0
EOF
