0
SECTION
2
HEADER
9
$INSUNITS
70
4
9
$ACADVER
1
AC1014
9
$HANDSEED
5
FFFF
0
ENDSEC
0
SECTION
2
TABLES
0
TABLE
2
VPORT
5
8
100
AcDbSymbolTable
0
ENDTAB
0
TABLE
2
LTYPE
5
5
100
AcDbSymbolTable
0
LTYPE
5
14
100
AcDbSymbolTableRecord
100
AcDbLinetypeTableRecord
2
BYBLOCK
70
0
0
LTYPE
5
15
100
AcDbSymbolTableRecord
100
AcDbLinetypeTableRecord
2
BYLAYER
70
0
0
ENDTAB
0
TABLE
2
LAYER
5
2
100
AcDbSymbolTable
70
2
0
LAYER
5
50
100
AcDbSymbolTableRecord
100
AcDbLayerTableRecord
2
0
70
0
6
CONTINUOUS
0
ENDTAB
0
TABLE
2
STYLE
5
3
100
AcDbSymbolTable
70
1
0
STYLE
5
11
100
AcDbSymbolTableRecord
100
AcDbTextStyleTableRecord
2
STANDARD
70
0
0
ENDTAB
0
TABLE
2
VIEW
5
6
100
AcDbSymbolTable
70
0
0
ENDTAB
0
TABLE
2
UCS
5
7
100
AcDbSymbolTable
70
0
0
ENDTAB
0
TABLE
2
APPID
5
9
100
AcDbSymbolTable
70
2
0
APPID
5
12
100
AcDbSymbolTableRecord
100
AcDbRegAppTableRecord
2
ACAD
70
0
0
ENDTAB
0
TABLE
2
DIMSTYLE
5
A
100
AcDbSymbolTable
70
1
0
ENDTAB
0
TABLE
2
BLOCK_RECORD
5
1
100
AcDbSymbolTable
70
1
0
BLOCK_RECORD
5
1F
100
AcDbSymbolTableRecord
100
AcDbBlockTableRecord
2
*MODEL_SPACE
0
BLOCK_RECORD
5
1B
100
AcDbSymbolTableRecord
100
AcDbBlockTableRecord
2
*PAPER_SPACE
0
ENDTAB
0
ENDSEC
0
SECTION
2
BLOCKS
0
BLOCK
5
20
100
AcDbEntity
100
AcDbBlockBegin
2
*MODEL_SPACE
0
ENDBLK
5
21
100
AcDbEntity
100
AcDbBlockEnd
0
BLOCK
5
1C
100
AcDbEntity
100
AcDbBlockBegin
2
*PAPER_SPACE
0
ENDBLK
5
1D
100
AcDbEntity
100
AcDbBlockEnd
0
ENDSEC
0
SECTION
2
ENTITIES
0
SPLINE
5
100
100
AcDbEntity
8
0
100
AcDbSpline
70
4
71
5
72
16
73
10
74
0
42
0.000000001
43
0.0000000001
44
0.0000000001
40
0
40
0
40
0
40
0
40
0
40
0
40
0.20000000000000001
40
0.40000000000000002
40
0.60000000000000009
40
0.80000000000000004
40
1
40
1
40
1
40
1
40
1
40
1
41
1
41
1
41
1
41
1
41
1
41
1
41
1
41
1
41
1
41
1
10
0
20
-0.055000000000000049
30
0
10
0
20
0.069400000000207365
30
0
10
0
20
0.31820000000056603
30
0
10
0
20
0.69140000000093593
30
0
10
0
20
1.1890000000011365
30
0
10
0
20
1.8110000000010393
30
0
10
0
20
2.3086000000007481
30
0
10
0
20
2.6818000000004227
30
0
10
0
20
2.9306000000001484
30
0
10
0
20
3.0549999999999997
30
0
0
SPLINE
5
101
100
AcDbEntity
8
0
100
AcDbSpline
70
4
71
5
72
16
73
10
74
0
42
0.000000001
43
0.0000000001
44
0.0000000001
40
0
40
0
40
0
40
0
40
0
40
0
40
0.20000000000000001
40
0.40000000000000002
40
0.60000000000000009
40
0.80000000000000004
40
1
40
1
40
1
40
1
40
1
40
1
41
1
41
1
41
1
41
1
41
1
41
1
41
1
41
1
41
1
41
1
10
10
20
-0.055000000000000049
30
0
10
9.9999999999997495
20
0.069400000000207365
30
0
10
9.9999999999993197
20
0.31820000000056603
30
0
10
9.9999999999989129
20
0.69140000000093593
30
0
10
9.9999999999987672
20
1.1890000000011365
30
0
10
9.9999999999990248
20
1.8110000000010393
30
0
10
9.9999999999993889
20
2.3086000000007481
30
0
10
9.9999999999996998
20
2.6818000000004227
30
0
10
9.9999999999999005
20
2.9306000000001484
30
0
10
10
20
3.0549999999999997
30
0
0
SPLINE
5
102
100
AcDbEntity
8
0
100
AcDbSpline
70
4
71
5
72
16
73
10
74
0
42
0.000000001
43
0.0000000001
44
0.0000000001
40
0
40
0
40
0
40
0
40
0
40
0
40
0.20000000000000001
40
0.40000000000000002
40
0.60000000000000009
40
0.80000000000000004
40
1
40
1
40
1
40
1
40
1
40
1
41
1
41
1
41
1
41
1
41
1
41
1
41
1
41
1
41
1
41
1
10
0
20
1.5274999999999999
30
0
10
0.40000000000047375
20
1.5274999999999856
30
0
10
1.2000000000012774
20
1.5274999999999614
30
0
10
2.4000000000020547
20
1.527499999999943
30
0
10
4.0000000000023546
20
1.5274999999999479
30
0
10
6.0000000000019584
20
1.5274999999999812
30
0
10
7.6000000000012928
20
1.5275000000000025
30
0
10
8.800000000000697
20
1.5275000000000083
30
0
10
9.6000000000002395
20
1.5275000000000039
30
0
10
10
20
1.5274999999999999
30
0
0
SPLINE
5
103
100
AcDbEntity
8
0
100
AcDbSpline
70
4
71
5
72
61
73
55
74
0
42
0.000000001
43
0.0000000001
44
0.0000000001
40
0
40
0
40
0
40
0
40
0
40
0
40
0.02
40
0.040000000000000001
40
0.059999999999999998
40
0.080000000000000002
40
0.10000000000000001
40
0.12000000000000001
40
0.14000000000000001
40
0.16
40
0.17999999999999999
40
0.19999999999999998
40
0.21999999999999997
40
0.23999999999999996
40
0.25999999999999995
40
0.27999999999999997
40
0.29999999999999999
40
0.32000000000000001
40
0.34000000000000002
40
0.36000000000000004
40
0.38000000000000006
40
0.40000000000000008
40
0.4200000000000001
40
0.44000000000000011
40
0.46000000000000013
40
0.48000000000000015
40
0.50000000000000011
40
0.52000000000000013
40
0.54000000000000015
40
0.56000000000000016
40
0.58000000000000018
40
0.6000000000000002
40
0.62000000000000022
40
0.64000000000000024
40
0.66000000000000025
40
0.68000000000000027
40
0.70000000000000029
40
0.72000000000000031
40
0.74000000000000032
40
0.76000000000000034
40
0.78000000000000036
40
0.80000000000000038
40
0.8200000000000004
40
0.84000000000000041
40
0.86000000000000043
40
0.88000000000000045
40
0.90000000000000047
40
0.92000000000000048
40
0.9400000000000005
40
0.96000000000000052
40
0.98000000000000054
40
1
40
1
40
1
40
1
40
1
40
1
41
1
41
1
41
1
41
1
41
1
41
1
41
1
41
1
41
1
41
1
41
1
41
1
41
1
41
1
41
1
41
1
41
1
41
1
41
1
41
1
41
1
41
1
41
1
41
1
41
1
41
1
41
1
41
1
41
1
41
1
41
1
41
1
41
1
41
1
41
1
41
1
41
1
41
1
41
1
41
1
41
1
41
1
41
1
41
1
41
1
41
1
41
1
41
1
41
1
41
1
41
1
41
1
41
1
41
1
41
1
10
0
20
-0.055000000000000049
30
0
10
0.03992292597537983
20
-0.038599001377748805
30
0
10
0.11979710659038274
20
-0.0077443849763322668
30
0
10
0.23969336353731466
20
0.032695393639711891
30
0
10
0.39972512196930438
20
0.074923223959030963
30
0
10
0.60004559397330526
20
0.10852028198546861
30
0
10
0.80063762472776567
20
0.12390352742694197
30
0
10
1.0014819335986289
20
0.12307954198013663
30
0
10
1.2025455649704553
20
0.1094513294213165
30
0
10
1.4037783458022166
20
0.088174800851163498
30
0
10
1.6051221782314529
20
0.065167117988727971
30
0
10
1.8065202756836471
20
0.046120939791482678
30
0
10
2.0079263143120545
20
0.03552646632410443
30
0
10
2.2093138682427633
20
0.035664996731302183
30
0
10
2.4106851317104865
20
0.045672384246655054
30
0
10
2.6120598221268225
20
0.062578769425250078
30
0
10
2.8134646974014683
20
0.082283311115697783
30
0
10
3.0149230543313648
20
0.1005365656331942
30
0
10
3.2164438051604218
20
0.11394789093311512
30
0
10
3.4180119190867226
20
0.12089945431666665
30
0
10
3.6195981626833138
20
0.12111219921061506
30
0
10
3.8211677284628824
20
0.11529435230715952
30
0
10
4.0226890471095489
20
0.10476897979559671
30
0
10
4.224143025302622
20
0.091095782478333567
30
0
10
4.4255306773512508
20
0.075744926467676388
30
0
10
4.6268662701135188
20
0.060240316942752274
30
0
10
4.8281717233606471
20
0.046271081001056882
30
0
10
5.029470707926369
20
0.035794073152052304
30
0
10
5.2307825278696054
20
0.031191089766398034
30
0
10
5.4321171297810658
20
0.035257279487585912
30
0
10
5.6334775698423423
20
0.050182023108248208
30
0
10
5.8348617753555292
20
0.076596213444741254
30
0
10
6.036264248934609
20
0.11268196144016376
30
0
10
6.2376785204943284
20
0.15303436198464665
30
0
10
6.4390970949189494
20
0.18826130197318747
30
0
10
6.6404997965673251
20
0.20810044403440184
30
0
10
6.8418430037448257
20
0.20416785671475546
30
0
10
7.043049770724128
20
0.17264691068152885
30
0
10
7.2439964592416484
20
0.11749854073611463
30
0
10
7.4445099844850668
20
0.051987753580091972
30
0
10
7.644406047259702
20
-0.0064124616274650352
30
0
10
7.8435220480797252
20
-0.04020594844283544
30
0
10
8.0417502016775124
20
-0.036189459782358213
30
0
10
8.2390752550754378
20
0.0097552083759982061
30
0
10
8.4355966105780773
20
0.089648326113243609
30
0
10
8.6314860090928942
20
0.18783800667203449
30
0
10
8.8269547506064168
20
0.28432092943877341
30
0
10
9.0222180244633918
20
0.35841050035241151
30
0
10
9.2174589140325303
20
0.39241556652724341
30
0
10
9.4127971682793241
20
0.3748450885110306
30
0
10
9.6083047861894944
20
0.29885375746675402
30
0
10
9.7648747043316462
20
0.18868161762074698
30
0
10
9.8823995141677266
20
0.077814648701423003
30
0
10
9.9607926306653933
20
-0.0086381795642917619
30
0
10
10
20
-0.055000000000000049
30
0
0
SPLINE
5
104
100
AcDbEntity
8
0
100
AcDbSpline
70
4
71
5
72
61
73
55
74
0
42
0.000000001
43
0.0000000001
44
0.0000000001
40
0
40
0
40
0
40
0
40
0
40
0
40
0.02
40
0.040000000000000001
40
0.059999999999999998
40
0.080000000000000002
40
0.10000000000000001
40
0.12000000000000001
40
0.14000000000000001
40
0.16
40
0.17999999999999999
40
0.19999999999999998
40
0.21999999999999997
40
0.23999999999999996
40
0.25999999999999995
40
0.27999999999999997
40
0.29999999999999999
40
0.32000000000000001
40
0.34000000000000002
40
0.36000000000000004
40
0.38000000000000006
40
0.40000000000000008
40
0.4200000000000001
40
0.44000000000000011
40
0.46000000000000013
40
0.48000000000000015
40
0.50000000000000011
40
0.52000000000000013
40
0.54000000000000015
40
0.56000000000000016
40
0.58000000000000018
40
0.6000000000000002
40
0.62000000000000022
40
0.64000000000000024
40
0.66000000000000025
40
0.68000000000000027
40
0.70000000000000029
40
0.72000000000000031
40
0.74000000000000032
40
0.76000000000000034
40
0.78000000000000036
40
0.80000000000000038
40
0.8200000000000004
40
0.84000000000000041
40
0.86000000000000043
40
0.88000000000000045
40
0.90000000000000047
40
0.92000000000000048
40
0.9400000000000005
40
0.96000000000000052
40
0.98000000000000054
40
1
40
1
40
1
40
1
40
1
40
1
41
1
41
1
41
1
41
1
41
1
41
1
41
1
41
1
41
1
41
1
41
1
41
1
41
1
41
1
41
1
41
1
41
1
41
1
41
1
41
1
41
1
41
1
41
1
41
1
41
1
41
1
41
1
41
1
41
1
41
1
41
1
41
1
41
1
41
1
41
1
41
1
41
1
41
1
41
1
41
1
41
1
41
1
41
1
41
1
41
1
41
1
41
1
41
1
41
1
41
1
41
1
41
1
41
1
41
1
41
1
10
0
20
3.0549999999999997
30
0
10
0.03990870560648508
20
3.0495910868659895
30
0
10
0.11976832766984379
20
3.0395158803749305
30
0
10
0.23968439366025601
20
3.0266309368655104
30
0
10
0.3998259095225653
20
3.013909589071635
30
0
10
0.60040903536669787
20
3.0051312647177979
30
0
10
0.80134819861422291
20
3.0025225757578071
30
0
10
1.0025417583775746
20
3.0041541172380559
30
0
10
1.2038187497864903
20
3.0067818877028345
30
0
10
1.4049218452068515
20
3.0055252798048402
30
0
10
1.6055706259045683
20
2.9951493513536729
30
0
10
1.8055241179990522
20
2.9713327075954483
30
0
10
2.0046432478298257
20
2.9319338110747788
30
0
10
2.2029545615923185
20
2.878283309296215
30
0
10
2.4007110884871139
20
2.8164182863371763
30
0
10
2.5982931388796175
20
2.7550616167930828
30
0
10
2.7961128263015205
20
2.7036764573196548
30
0
10
2.9945167636121783
20
2.670485384649472
30
0
10
3.1936908053186008
20
2.6605272708951304
30
0
10
3.393559765424738
20
2.6736225192077812
30
0
10
3.593877594803379
20
2.7057786262793075
30
0
10
3.7943216253056624
20
2.7506694023818614
30
0
10
3.9945855611105623
20
2.8010851586695109
30
0
10
4.19447175595438
20
2.8503777436801614
30
0
10
4.3939873203054081
20
2.8939444859924994
30
0
10
4.5932790066055951
20
2.9289118206056974
30
0
10
4.7925644229653299
20
2.9537761443150452
30
0
10
4.9920643583595234
20
2.9680624864293561
30
0
10
5.1919358211046918
20
2.9719838429675387
30
0
10
5.3922016022004184
20
2.9660896978076678
30
0
10
5.5927864535972729
20
2.9513672019141337
30
0
10
5.7935570055020946
20
2.9293593866482897
30
0
10
5.9943602841903134
20
2.9022814953101421
30
0
10
6.1950623514119076
20
2.8731338023586139
30
0
10
6.3955879436798408
20
2.8458353808778538
30
0
10
6.5959103021478116
20
2.8245412631588094
30
0
10
6.7960397426099375
20
2.8129402704635629
30
0
10
6.9960127899407567
20
2.813555230227955
30
0
10
7.1958811926589963
20
2.8270481318322109
30
0
10
7.3957009576778869
20
2.8514939905228558
30
0
10
7.5955274132652759
20
2.8832634572501563
30
0
10
7.7954104153110393
20
2.9179301084003613
30
0
10
7.9953894605659919
20
2.9511693613433492
30
0
10
8.1954888783673461
20
2.979651762931756
30
0
10
8.3957127700689949
20
3.0019642669578834
30
0
10
8.5960504059652347
20
3.0181446537493422
30
0
10
8.7964818051520091
20
3.0291895762625964
30
0
10
8.9969832286310147
20
3.0365743863679784
30
0
10
9.1975326629827308
20
3.0417722136265639
30
0
10
9.3981153840128488
20
3.0457673921184196
30
0
10
9.5987225519798631
20
3.0491490081071202
30
0
10
9.7592242854885818
20
3.0515994570231317
30
0
10
9.8796089083269365
20
3.053338223567597
30
0
10
9.9598690200261011
20
3.0544534071997043
30
0
10
10
20
3.0549999999999997
30
0
0
ENDSEC
0
SECTION
2
OBJECTS
0
DICTIONARY
5
C
100
AcDbDictionary
3
ACAD_GROUP
350
D
3
ACAD_MLINESTYLE
350
17
0
DICTIONARY
5
D
100
AcDbDictionary
0
DICTIONARY
5
1A
330
C
100
AcDbDictionary
0
DICTIONARY
5
17
100
AcDbDictionary
0
ENDSEC
0
EOF
