0
SECTION
2
HEADER
9
$INSUNITS
70
4
9
$ACADVER
1
AC1014
9
$HANDSEED
5
FFFF
0
ENDSEC
0
SECTION
2
TABLES
0
TABLE
2
VPORT
5
8
100
AcDbSymbolTable
0
ENDTAB
0
TABLE
2
LTYPE
5
5
100
AcDbSymbolTable
0
LTYPE
5
14
100
AcDbSymbolTableRecord
100
AcDbLinetypeTableRecord
2
BYBLOCK
70
0
0
LTYPE
5
15
100
AcDbSymbolTableRecord
100
AcDbLinetypeTableRecord
2
BYLAYER
70
0
0
ENDTAB
0
TABLE
2
LAYER
5
2
100
AcDbSymbolTable
70
2
0
LAYER
5
50
100
AcDbSymbolTableRecord
100
AcDbLayerTableRecord
2
0
70
0
6
CONTINUOUS
0
ENDTAB
0
TABLE
2
STYLE
5
3
100
AcDbSymbolTable
70
1
0
STYLE
5
11
100
AcDbSymbolTableRecord
100
AcDbTextStyleTableRecord
2
STANDARD
70
0
0
ENDTAB
0
TABLE
2
VIEW
5
6
100
AcDbSymbolTable
70
0
0
ENDTAB
0
TABLE
2
UCS
5
7
100
AcDbSymbolTable
70
0
0
ENDTAB
0
TABLE
2
APPID
5
9
100
AcDbSymbolTable
70
2
0
APPID
5
12
100
AcDbSymbolTableRecord
100
AcDbRegAppTableRecord
2
ACAD
70
0
0
ENDTAB
0
TABLE
2
DIMSTYLE
5
A
100
AcDbSymbolTable
70
1
0
ENDTAB
0
TABLE
2
BLOCK_RECORD
5
1
100
AcDbSymbolTable
70
1
0
BLOCK_RECORD
5
1F
100
AcDbSymbolTableRecord
100
AcDbBlockTableRecord
2
*MODEL_SPACE
0
BLOCK_RECORD
5
1B
100
AcDbSymbolTableRecord
100
AcDbBlockTableRecord
2
*PAPER_SPACE
0
ENDTAB
0
ENDSEC
0
SECTION
2
BLOCKS
0
BLOCK
5
20
100
AcDbEntity
100
AcDbBlockBegin
2
*MODEL_SPACE
0
ENDBLK
5
21
100
AcDbEntity
100
AcDbBlockEnd
0
BLOCK
5
1C
100
AcDbEntity
100
AcDbBlockBegin
2
*PAPER_SPACE
0
ENDBLK
5
1D
100
AcDbEntity
100
AcDbBlockEnd
0
ENDSEC
0
SECTION
2
ENTITIES
0
SPLINE
5
100
100
AcDbEntity
8
0
100
AcDbSpline
70
4
71
5
72
16
73
10
74
0
42
0.000000001
43
0.0000000001
44
0.0000000001
40
0
40
0
40
0
40
0
40
0
40
0
40
0.20000000000000001
40
0.40000000000000002
40
0.60000000000000009
40
0.80000000000000004
40
1
40
1
40
1
40
1
40
1
40
1
41
1
41
1
41
1
41
1
41
1
41
1
41
1
41
1
41
1
41
1
10
0
20
-0.055000000000000049
30
0
10
0
20
0.069400000000207365
30
0
10
0
20
0.31820000000056603
30
0
10
0
20
0.69140000000093593
30
0
10
0
20
1.1890000000011365
30
0
10
0
20
1.8110000000010393
30
0
10
0
20
2.3086000000007481
30
0
10
0
20
2.6818000000004227
30
0
10
0
20
2.9306000000001484
30
0
10
0
20
3.0549999999999997
30
0
0
SPLINE
5
101
100
AcDbEntity
8
0
100
AcDbSpline
70
4
71
5
72
16
73
10
74
0
42
0.000000001
43
0.0000000001
44
0.0000000001
40
0
40
0
40
0
40
0
40
0
40
0
40
0.20000000000000001
40
0.40000000000000002
40
0.60000000000000009
40
0.80000000000000004
40
1
40
1
40
1
40
1
40
1
40
1
41
1
41
1
41
1
41
1
41
1
41
1
41
1
41
1
41
1
41
1
10
10
20
-0.055000000000000049
30
0
10
9.9999999999997495
20
0.069400000000207365
30
0
10
9.9999999999993197
20
0.31820000000056603
30
0
10
9.9999999999989129
20
0.69140000000093593
30
0
10
9.9999999999987672
20
1.1890000000011365
30
0
10
9.9999999999990248
20
1.8110000000010393
30
0
10
9.9999999999993889
20
2.3086000000007481
30
0
10
9.9999999999996998
20
2.6818000000004227
30
0
10
9.9999999999999005
20
2.9306000000001484
30
0
10
10
20
3.0549999999999997
30
0
0
SPLINE
5
102
100
AcDbEntity
8
0
100
AcDbSpline
70
4
71
5
72
16
73
10
74
0
42
0.000000001
43
0.0000000001
44
0.0000000001
40
0
40
0
40
0
40
0
40
0
40
0
40
0.20000000000000001
40
0.40000000000000002
40
0.60000000000000009
40
0.80000000000000004
40
1
40
1
40
1
40
1
40
1
40
1
41
1
41
1
41
1
41
1
41
1
41
1
41
1
41
1
41
1
41
1
10
0
20
1.5274999999999999
30
0
10
0.40000000000047375
20
1.5274999999999856
30
0
10
1.2000000000012774
20
1.5274999999999614
30
0
10
2.4000000000020547
20
1.527499999999943
30
0
10
4.0000000000023546
20
1.5274999999999479
30
0
10
6.0000000000019584
20
1.5274999999999812
30
0
10
7.6000000000012928
20
1.5275000000000025
30
0
10
8.800000000000697
20
1.5275000000000083
30
0
10
9.6000000000002395
20
1.5275000000000039
30
0
10
10
20
1.5274999999999999
30
0
0
SPLINE
5
103
100
AcDbEntity
8
0
100
AcDbSpline
70
4
71
5
72
61
73
55
74
0
42
0.000000001
43
0.0000000001
44
0.0000000001
40
0
40
0
40
0
40
0
40
0
40
0
40
0.02
40
0.040000000000000001
40
0.059999999999999998
40
0.080000000000000002
40
0.10000000000000001
40
0.12000000000000001
40
0.14000000000000001
40
0.16
40
0.17999999999999999
40
0.19999999999999998
40
0.21999999999999997
40
0.23999999999999996
40
0.25999999999999995
40
0.27999999999999997
40
0.29999999999999999
40
0.32000000000000001
40
0.34000000000000002
40
0.36000000000000004
40
0.38000000000000006
40
0.40000000000000008
40
0.4200000000000001
40
0.44000000000000011
40
0.46000000000000013
40
0.48000000000000015
40
0.50000000000000011
40
0.52000000000000013
40
0.54000000000000015
40
0.56000000000000016
40
0.58000000000000018
40
0.6000000000000002
40
0.62000000000000022
40
0.64000000000000024
40
0.66000000000000025
40
0.68000000000000027
40
0.70000000000000029
40
0.72000000000000031
40
0.74000000000000032
40
0.76000000000000034
40
0.78000000000000036
40
0.80000000000000038
40
0.8200000000000004
40
0.84000000000000041
40
0.86000000000000043
40
0.88000000000000045
40
0.90000000000000047
40
0.92000000000000048
40
0.9400000000000005
40
0.96000000000000052
40
0.98000000000000054
40
1
40
1
40
1
40
1
40
1
40
1
41
1
41
1
41
1
41
1
41
1
41
1
41
1
41
1
41
1
41
1
41
1
41
1
41
1
41
1
41
1
41
1
41
1
41
1
41
1
41
1
41
1
41
1
41
1
41
1
41
1
41
1
41
1
41
1
41
1
41
1
41
1
41
1
41
1
41
1
41
1
41
1
41
1
41
1
41
1
41
1
41
1
41
1
41
1
41
1
41
1
41
1
41
1
41
1
41
1
41
1
41
1
41
1
41
1
41
1
41
1
10
0
20
-0.055000000000000049
30
0
10
0.040662878843296606
20
-0.06095092942855266
30
0
10
0.12196617319576034
20
-0.071127314668092356
30
0
10
0.24385372436923483
20
-0.08121540980719566
30
0
10
0.40623559380732299
20
-0.084307027699867657
30
0
10
0.60899114496383666
20
-0.07140799746588497
30
0
10
0.81153482720745562
20
-0.0433294733037239
30
0
10
1.0138870601172998
20
-0.0032763181509915316
30
0
10
1.2160827416847813
20
0.043318502371712128
30
0
10
1.4181742403829518
20
0.088359325876068817
30
0
10
1.6202201997764938
20
0.12314294582684834
30
0
10
1.8222749000939427
20
0.14031358873228644
30
0
10
2.024377938452206
20
0.13577261767197013
30
0
10
2.226542507074103
20
0.11081422651144432
30
0
10
2.4287477641528379
20
0.073602853633308749
30
0
10
2.6309624173935955
20
0.035488993461996701
30
0
10
2.8331662643701288
20
0.0077300648024686697
30
0
10
3.0353706212035361
20
-0.0017556332846921769
30
0
10
3.2376437548768449
20
0.0079090805615351211
30
0
10
3.4401210830836142
20
0.028331720428015808
30
0
10
3.6429411529325484
20
0.047037234473315176
30
0
10
3.8461883879231844
20
0.051857558613562581
30
0
10
4.0498389801535231
20
0.035268238920700731
30
0
10
4.2536913157094016
20
-0.00039452323969286552
30
0
10
4.4573455658085779
20
-0.040704257435700351
30
0
10
4.6603399714781313
20
-0.066583401057361297
30
0
10
4.8622661855486529
20
-0.060390748548018763
30
0
10
5.0628811079310729
20
-0.011925066767409639
30
0
10
5.2622487064260728
20
0.074056071737934992
30
0
10
5.4607780552685963
20
0.17570475498830437
30
0
10
5.6590240968539129
20
0.2643068120510656
30
0
10
5.8575304298892199
20
0.31232723224377651
30
0
10
6.0566686412154747
20
0.30161488922931678
30
0
10
6.2564474378040611
20
0.23323671969705556
30
0
10
6.4564342084756294
20
0.13129049744219262
30
0
10
6.6559779974871036
20
0.030635649244180153
30
0
10
6.8543798730727801
20
-0.032618328821956991
30
0
10
7.0510733279096893
20
-0.031042278267489152
30
0
10
7.2458257188976081
20
0.042770604238136695
30
0
10
7.4388524589335958
20
0.17037889377926219
30
0
10
7.6306529820045554
20
0.3190913701518221
30
0
10
7.8218958739558344
20
0.45051957646307922
30
0
10
8.0132866378242635
20
0.53017653417616717
30
0
10
8.2054396693884843
20
0.53694495800212616
30
0
10
8.398758056413655
20
0.47174067590877178
30
0
10
8.5934825558323489
20
0.35075961269602796
30
0
10
8.7897296439973935
20
0.19971914973531515
30
0
10
8.9875336067208469
20
0.047699101571487601
30
0
10
9.1868859832458298
20
-0.07870823691719693
30
0
10
9.3877776397308317
20
-0.16171699291929378
30
0
10
9.5902009480778236
20
-0.19082477527575178
30
0
10
9.753359975110822
20
-0.166847716967294
30
0
10
9.8764139059010745
20
-0.12154264803405165
30
0
10
9.9587539530062017
20
-0.079203494463675778
30
0
10
10
20
-0.055000000000000049
30
0
0
SPLINE
5
104
100
AcDbEntity
8
0
100
AcDbSpline
70
4
71
5
72
61
73
55
74
0
42
0.000000001
43
0.0000000001
44
0.0000000001
40
0
40
0
40
0
40
0
40
0
40
0
40
0.02
40
0.040000000000000001
40
0.059999999999999998
40
0.080000000000000002
40
0.10000000000000001
40
0.12000000000000001
40
0.14000000000000001
40
0.16
40
0.17999999999999999
40
0.19999999999999998
40
0.21999999999999997
40
0.23999999999999996
40
0.25999999999999995
40
0.27999999999999997
40
0.29999999999999999
40
0.32000000000000001
40
0.34000000000000002
40
0.36000000000000004
40
0.38000000000000006
40
0.40000000000000008
40
0.4200000000000001
40
0.44000000000000011
40
0.46000000000000013
40
0.48000000000000015
40
0.50000000000000011
40
0.52000000000000013
40
0.54000000000000015
40
0.56000000000000016
40
0.58000000000000018
40
0.6000000000000002
40
0.62000000000000022
40
0.64000000000000024
40
0.66000000000000025
40
0.68000000000000027
40
0.70000000000000029
40
0.72000000000000031
40
0.74000000000000032
40
0.76000000000000034
40
0.78000000000000036
40
0.80000000000000038
40
0.8200000000000004
40
0.84000000000000041
40
0.86000000000000043
40
0.88000000000000045
40
0.90000000000000047
40
0.92000000000000048
40
0.9400000000000005
40
0.96000000000000052
40
0.98000000000000054
40
1
40
1
40
1
40
1
40
1
40
1
41
1
41
1
41
1
41
1
41
1
41
1
41
1
41
1
41
1
41
1
41
1
41
1
41
1
41
1
41
1
41
1
41
1
41
1
41
1
41
1
41
1
41
1
41
1
41
1
41
1
41
1
41
1
41
1
41
1
41
1
41
1
41
1
41
1
41
1
41
1
41
1
41
1
41
1
41
1
41
1
41
1
41
1
41
1
41
1
41
1
41
1
41
1
41
1
41
1
41
1
41
1
41
1
41
1
41
1
41
1
10
0
20
3.0549999999999997
30
0
10
0.041646649715944041
20
3.0797540403473955
30
0
10
0.12470933828094201
20
3.1232802791854404
30
0
10
0.24861153851727297
20
3.1706239745624707
30
0
10
0.41242990573778804
20
3.1978353793022345
30
0
10
0.61490212644488285
20
3.1734598741040192
30
0
10
0.81510331146689508
20
3.0953532526984766
30
0
10
1.0130997691173702
20
2.9729804915988463
30
0
10
1.20900835032523
20
2.8223827593003286
30
0
10
1.4030104390861344
20
2.6675603274767461
30
0
10
1.5953679721875094
20
2.5351685458025504
30
0
10
1.7864386112060142
20
2.4496561304891089
30
0
10
1.9766934088811232
20
2.4280746069356582
30
0
10
2.1667294334543836
20
2.4753756804608611
30
0
10
2.3572963357090155
20
2.5784989483226743
30
0
10
2.5491863762429205
20
2.7122802158524504
30
0
10
2.7431108227646317
20
2.8466900005996476
30
0
10
2.9395735198732682
20
2.9539083379868702
30
0
10
3.1387621185101229
20
3.014729407122168
30
0
10
3.3403876849114522
20
3.0271519265112783
30
0
10
3.543787161389865
20
3.0035312198055286
30
0
10
3.7481306871192261
20
2.9631172576251896
30
0
10
3.9526014992140777
20
2.9258541684335153
30
0
10
4.1565714153975151
20
2.906223981246538
30
0
10
4.3598189727597605
20
2.9056149628130745
30
0
10
4.5624522917480199
20
2.915237964288917
30
0
10
4.7647479467276437
20
2.9220492800867532
30
0
10
4.9670145353759025
20
2.9138142143263108
30
0
10
5.1694555745530835
20
2.884143021970246
30
0
10
5.3720077322016682
20
2.8385611693098163
30
0
10
5.5744190174637023
20
2.7907972955077911
30
0
10
5.7763702066410616
20
2.7573241759938987
30
0
10
5.977583459892962
20
2.7524018990194961
30
0
10
6.1779305005995617
20
2.7831799306695251
30
0
10
6.3775569032825477
20
2.8440335822882568
30
0
10
6.576800474527432
20
2.9204706383649541
30
0
10
6.7760862092643652
20
2.9941185935533898
30
0
10
6.9758279379510393
20
3.0474126838001707
30
0
10
7.1763317633882551
20
3.0681778201285317
30
0
10
7.3776863914469928
20
3.0548800162687737
30
0
10
7.579806306583075
20
3.0141508537420698
30
0
10
7.7824939751398023
20
2.957354459614244
30
0
10
7.985495449385339
20
2.8974761556137869
30
0
10
8.1885573118578705
20
2.8459625065698528
30
0
10
8.3914862796473173
20
2.8093668226569974
30
0
10
8.5941429184532812
20
2.7902805662374246
30
0
10
8.7964305556355669
20
2.7885716944285437
30
0
10
8.9982860667984426
20
2.8025039893697379
30
0
10
9.1996699966147286
20
2.8298976426151108
30
0
10
9.4005570075407601
20
2.8692782212923613
30
0
10
9.6009327319723354
20
2.9197474449365486
30
0
10
9.7608191624323908
20
2.968621746729128
30
0
10
9.8805003716812809
20
3.0099823883864234
30
0
10
9.9601840839873184
20
3.0396458460779909
30
0
10
10
20
3.0549999999999997
30
0
0
ENDSEC
0
SECTION
2
OBJECTS
0
DICTIONARY
5
C
100
AcDbDictionary
3
ACAD_GROUP
350
D
3
ACAD_MLINESTYLE
350
17
0
DICTIONARY
5
D
100
AcDbDictionary
0
DICTIONARY
5
1A
330
C
100
AcDbDictionary
0
DICTIONARY
5
17
100
AcDbDictionary
0
ENDSEC
0
EOF
