0
SECTION
2
HEADER
9
$INSUNITS
70
4
9
$ACADVER
1
AC1014
9
$HANDSEED
5
FFFF
0
ENDSEC
0
SECTION
2
TABLES
0
TABLE
2
VPORT
5
8
100
AcDbSymbolTable
0
ENDTAB
0
TABLE
2
LTYPE
5
5
100
AcDbSymbolTable
0
LTYPE
5
14
100
AcDbSymbolTableRecord
100
AcDbLinetypeTableRecord
2
BYBLOCK
70
0
0
LTYPE
5
15
100
AcDbSymbolTableRecord
100
AcDbLinetypeTableRecord
2
BYLAYER
70
0
0
ENDTAB
0
TABLE
2
LAYER
5
2
100
AcDbSymbolTable
70
2
0
LAYER
5
50
100
AcDbSymbolTableRecord
100
AcDbLayerTableRecord
2
0
70
0
6
CONTINUOUS
0
ENDTAB
0
TABLE
2
STYLE
5
3
100
AcDbSymbolTable
70
1
0
STYLE
5
11
100
AcDbSymbolTableRecord
100
AcDbTextStyleTableRecord
2
STANDARD
70
0
0
ENDTAB
0
TABLE
2
VIEW
5
6
100
AcDbSymbolTable
70
0
0
ENDTAB
0
TABLE
2
UCS
5
7
100
AcDbSymbolTable
70
0
0
ENDTAB
0
TABLE
2
APPID
5
9
100
AcDbSymbolTable
70
2
0
APPID
5
12
100
AcDbSymbolTableRecord
100
AcDbRegAppTableRecord
2
ACAD
70
0
0
ENDTAB
0
TABLE
2
DIMSTYLE
5
A
100
AcDbSymbolTable
70
1
0
ENDTAB
0
TABLE
2
BLOCK_RECORD
5
1
100
AcDbSymbolTable
70
1
0
BLOCK_RECORD
5
1F
100
AcDbSymbolTableRecord
100
AcDbBlockTableRecord
2
*MODEL_SPACE
0
BLOCK_RECORD
5
1B
100
AcDbSymbolTableRecord
100
AcDbBlockTableRecord
2
*PAPER_SPACE
0
ENDTAB
0
ENDSEC
0
SECTION
2
BLOCKS
0
BLOCK
5
20
100
AcDbEntity
100
AcDbBlockBegin
2
*MODEL_SPACE
0
ENDBLK
5
21
100
AcDbEntity
100
AcDbBlockEnd
0
BLOCK
5
1C
100
AcDbEntity
100
AcDbBlockBegin
2
*PAPER_SPACE
0
ENDBLK
5
1D
100
AcDbEntity
100
AcDbBlockEnd
0
ENDSEC
0
SECTION
2
ENTITIES
0
SPLINE
5
100
100
AcDbEntity
8
0
100
AcDbSpline
70
4
71
5
72
16
73
10
74
0
42
0.000000001
43
0.0000000001
44
0.0000000001
40
0
40
0
40
0
40
0
40
0
40
0
40
0.20000000000000001
40
0.40000000000000002
40
0.60000000000000009
40
0.80000000000000004
40
1
40
1
40
1
40
1
40
1
40
1
41
1
41
1
41
1
41
1
41
1
41
1
41
1
41
1
41
1
41
1
10
0
20
-0.055000000000000049
30
0
10
0
20
0.069400000000207365
30
0
10
0
20
0.31820000000056603
30
0
10
0
20
0.69140000000093593
30
0
10
0
20
1.1890000000011365
30
0
10
0
20
1.8110000000010393
30
0
10
0
20
2.3086000000007481
30
0
10
0
20
2.6818000000004227
30
0
10
0
20
2.9306000000001484
30
0
10
0
20
3.0549999999999997
30
0
0
SPLINE
5
101
100
AcDbEntity
8
0
100
AcDbSpline
70
4
71
5
72
16
73
10
74
0
42
0.000000001
43
0.0000000001
44
0.0000000001
40
0
40
0
40
0
40
0
40
0
40
0
40
0.20000000000000001
40
0.40000000000000002
40
0.60000000000000009
40
0.80000000000000004
40
1
40
1
40
1
40
1
40
1
40
1
41
1
41
1
41
1
41
1
41
1
41
1
41
1
41
1
41
1
41
1
10
10
20
-0.055000000000000049
30
0
10
9.9999999999997495
20
0.069400000000207365
30
0
10
9.9999999999993197
20
0.31820000000056603
30
0
10
9.9999999999989129
20
0.69140000000093593
30
0
10
9.9999999999987672
20
1.1890000000011365
30
0
10
9.9999999999990248
20
1.8110000000010393
30
0
10
9.9999999999993889
20
2.3086000000007481
30
0
10
9.9999999999996998
20
2.6818000000004227
30
0
10
9.9999999999999005
20
2.9306000000001484
30
0
10
10
20
3.0549999999999997
30
0
0
SPLINE
5
102
100
AcDbEntity
8
0
100
AcDbSpline
70
4
71
5
72
16
73
10
74
0
42
0.000000001
43
0.0000000001
44
0.0000000001
40
0
40
0
40
0
40
0
40
0
40
0
40
0.20000000000000001
40
0.40000000000000002
40
0.60000000000000009
40
0.80000000000000004
40
1
40
1
40
1
40
1
40
1
40
1
41
1
41
1
41
1
41
1
41
1
41
1
41
1
41
1
41
1
41
1
10
0
20
1.5274999999999999
30
0
10
0.40000000000047375
20
1.5274999999999856
30
0
10
1.2000000000012774
20
1.5274999999999614
30
0
10
2.4000000000020547
20
1.527499999999943
30
0
10
4.0000000000023546
20
1.5274999999999479
30
0
10
6.0000000000019584
20
1.5274999999999812
30
0
10
7.6000000000012928
20
1.5275000000000025
30
0
10
8.800000000000697
20
1.5275000000000083
30
0
10
9.6000000000002395
20
1.5275000000000039
30
0
10
10
20
1.5274999999999999
30
0
0
SPLINE
5
103
100
AcDbEntity
8
0
100
AcDbSpline
70
4
71
5
72
61
73
55
74
0
42
0.000000001
43
0.0000000001
44
0.0000000001
40
0
40
0
40
0
40
0
40
0
40
0
40
0.02
40
0.040000000000000001
40
0.059999999999999998
40
0.080000000000000002
40
0.10000000000000001
40
0.12000000000000001
40
0.14000000000000001
40
0.16
40
0.17999999999999999
40
0.19999999999999998
40
0.21999999999999997
40
0.23999999999999996
40
0.25999999999999995
40
0.27999999999999997
40
0.29999999999999999
40
0.32000000000000001
40
0.34000000000000002
40
0.36000000000000004
40
0.38000000000000006
40
0.40000000000000008
40
0.4200000000000001
40
0.44000000000000011
40
0.46000000000000013
40
0.48000000000000015
40
0.50000000000000011
40
0.52000000000000013
40
0.54000000000000015
40
0.56000000000000016
40
0.58000000000000018
40
0.6000000000000002
40
0.62000000000000022
40
0.64000000000000024
40
0.66000000000000025
40
0.68000000000000027
40
0.70000000000000029
40
0.72000000000000031
40
0.74000000000000032
40
0.76000000000000034
40
0.78000000000000036
40
0.80000000000000038
40
0.8200000000000004
40
0.84000000000000041
40
0.86000000000000043
40
0.88000000000000045
40
0.90000000000000047
40
0.92000000000000048
40
0.9400000000000005
40
0.96000000000000052
40
0.98000000000000054
40
1
40
1
40
1
40
1
40
1
40
1
41
1
41
1
41
1
41
1
41
1
41
1
41
1
41
1
41
1
41
1
41
1
41
1
41
1
41
1
41
1
41
1
41
1
41
1
41
1
41
1
41
1
41
1
41
1
41
1
41
1
41
1
41
1
41
1
41
1
41
1
41
1
41
1
41
1
41
1
41
1
41
1
41
1
41
1
41
1
41
1
41
1
41
1
41
1
41
1
41
1
41
1
41
1
41
1
41
1
41
1
41
1
41
1
41
1
41
1
41
1
10
0
20
-0.055000000000000049
30
0
10
0.039047723390751611
20
-0.031197569158075738
30
0
10
0.11722213869514342
20
0.013961964559214869
30
0
10
0.23472066652446633
20
0.074365302543377837
30
0
10
0.39185949473702125
20
0.14022141855108738
30
0
10
0.58906646302470134
20
0.19829626956774221
30
0
10
0.78703353445079438
20
0.23289145819933099
30
0
10
0.98571146105983709
20
0.24561840875636909
30
0
10
1.1850163657391408
20
0.23921881375294979
30
0
10
1.3848190759324681
20
0.21790911150396944
30
0
10
1.5849656866549424
20
0.18676822815667954
30
0
10
1.7853000779138615
20
0.15106534687093737
30
0
10
1.9856860297039214
20
0.11560087825847802
30
0
10
2.1860287666559284
20
0.08406364102327564
30
0
10
2.3862989181456125
20
0.058318348879643919
30
0
10
2.5865150329173958
20
0.038890648231892352
30
0
10
2.7867233279183274
20
0.025530318783620803
30
0
10
2.9869783424608736
20
0.017752366026729131
30
0
10
3.1873236758270798
20
0.015365944230527758
30
0
10
3.3877715216206545
20
0.019063254907286463
30
0
10
3.5883075061649885
20
0.029826994835136261
30
0
10
3.7888971365231576
20
0.048268158386585235
30
0
10
3.9894915741984054
20
0.073976838661976421
30
0
10
4.1900337109044425
20
0.10489163240199359
30
0
10
4.3904639162436627
20
0.13658476354070404
30
0
10
4.5907300429824609
20
0.16344836548766392
30
0
10
4.7907975452552289
20
0.17996809149901369
30
0
10
4.9906597853000161
20
0.1819786440649081
30
0
10
5.1903479116384403
20
0.16789700520981454
30
0
10
5.3899421704653498
20
0.1400610492599042
30
0
10
5.5895497499219724
20
0.10344545371455866
30
0
10
5.7892813199960669
20
0.064270566785635128
30
0
10
5.9892277899663906
20
0.028641993629000446
30
0
10
6.189437589004779
20
0.0012079357879870424
30
0
10
6.389891847207827
20
-0.016274903556207723
30
0
10
6.5905257635282153
20
-0.024261001112915077
30
0
10
6.7912521936756587
20
-0.024631698370941573
30
0
10
6.9919845228151196
20
-0.019949025997520908
30
0
10
7.1926594166780324
20
-0.012706310624086873
30
0
10
7.3932607674756241
20
-0.0045530626995840418
30
0
10
7.5938058859660504
20
0.0035257120525901283
30
0
10
7.7943303304514924
20
0.010994240202002625
30
0
10
7.9948732310066584
20
0.017564494356540585
30
0
10
8.1954625795328013
20
0.022991579578342754
30
0
10
8.39610009822119
20
0.02686573788180828
30
0
10
8.596768268437792
20
0.028671855528339816
30
0
10
8.7974378605032815
20
0.027855571663446297
30
0
10
8.9980752515191078
20
0.023886943736184899
30
0
10
9.1986497893016193
20
0.016324975296819342
30
0
10
9.3991412084487109
20
0.004882763944667504
30
0
10
9.5995375420006983
20
-0.010604848986912037
30
0
10
9.7597738765158013
20
-0.026292380062193556
30
0
10
9.8799049028460022
20
-0.039921843993905887
30
0
10
9.9599717227719964
20
-0.049835977351125063
30
0
10
10
20
-0.055000000000000049
30
0
0
SPLINE
5
104
100
AcDbEntity
8
0
100
AcDbSpline
70
4
71
5
72
61
73
55
74
0
42
0.000000001
43
0.0000000001
44
0.0000000001
40
0
40
0
40
0
40
0
40
0
40
0
40
0.02
40
0.040000000000000001
40
0.059999999999999998
40
0.080000000000000002
40
0.10000000000000001
40
0.12000000000000001
40
0.14000000000000001
40
0.16
40
0.17999999999999999
40
0.19999999999999998
40
0.21999999999999997
40
0.23999999999999996
40
0.25999999999999995
40
0.27999999999999997
40
0.29999999999999999
40
0.32000000000000001
40
0.34000000000000002
40
0.36000000000000004
40
0.38000000000000006
40
0.40000000000000008
40
0.4200000000000001
40
0.44000000000000011
40
0.46000000000000013
40
0.48000000000000015
40
0.50000000000000011
40
0.52000000000000013
40
0.54000000000000015
40
0.56000000000000016
40
0.58000000000000018
40
0.6000000000000002
40
0.62000000000000022
40
0.64000000000000024
40
0.66000000000000025
40
0.68000000000000027
40
0.70000000000000029
40
0.72000000000000031
40
0.74000000000000032
40
0.76000000000000034
40
0.78000000000000036
40
0.80000000000000038
40
0.8200000000000004
40
0.84000000000000041
40
0.86000000000000043
40
0.88000000000000045
40
0.90000000000000047
40
0.92000000000000048
40
0.9400000000000005
40
0.96000000000000052
40
0.98000000000000054
40
1
40
1
40
1
40
1
40
1
40
1
41
1
41
1
41
1
41
1
41
1
41
1
41
1
41
1
41
1
41
1
41
1
41
1
41
1
41
1
41
1
41
1
41
1
41
1
41
1
41
1
41
1
41
1
41
1
41
1
41
1
41
1
41
1
41
1
41
1
41
1
41
1
41
1
41
1
41
1
41
1
41
1
41
1
41
1
41
1
41
1
41
1
41
1
41
1
41
1
41
1
41
1
41
1
41
1
41
1
41
1
41
1
41
1
41
1
41
1
41
1
10
0
20
3.0549999999999997
30
0
10
0.039382319826704676
20
3.0192446324679234
30
0
10
0.118170119657515
20
2.9525930448042392
30
0
10
0.23642129972500486
20
2.8671930254409039
30
0
10
0.39422859280546313
20
2.782500746927739
30
0
10
0.59171840399316122
20
2.7244149541989038
30
0
10
0.78943485065391561
20
2.7113954841997581
30
0
10
0.98736905848670053
20
2.7378435388454641
30
0
10
1.1855057259604904
20
2.7943345998069362
30
0
10
1.3838209290558932
20
2.8664527867726886
30
0
10
1.5822900629719077
20
2.9375857157517333
30
0
10
1.7808962436383133
20
2.9919219486824051
30
0
10
1.9796388662993172
20
3.0174486889521885
30
0
10
2.1785414147604847
20
3.0087890057607867
30
0
10
2.3776615587014174
20
2.9705748894192641
30
0
10
2.5770738456009026
20
2.9143233089499359
30
0
10
2.7768498096532519
20
2.8546780125096931
30
0
10
2.9770384812280315
20
2.8058171286034543
30
0
10
3.1776478609494498
20
2.7779582310662185
30
0
10
3.3786227070086343
20
2.7733730400294427
30
0
10
3.5798638962768803
20
2.7882014630029683
30
0
10
3.7812525026672201
20
2.8149398918905302
30
0
10
3.9826724742559398
20
2.844705048788251
30
0
10
4.1840330727533805
20
2.8695227243625823
30
0
10
4.3852936433709697
20
2.8847770669488848
30
0
10
4.5864516368234511
20
2.8887758454307013
30
0
10
4.7875275260335517
20
2.8820625149792782
30
0
10
4.9885507749413769
20
2.8668249413602833
30
0
10
5.1895457301767376
20
2.8462725736927803
30
0
10
5.3905166571774474
20
2.8240201632241839
30
0
10
5.5914546256912772
20
2.8037327295189449
30
0
10
5.7923455879811208
20
2.7887894716673909
30
0
10
5.9931780644115209
20
2.7819383088295564
30
0
10
6.1939508544128072
20
2.7849567502936674
30
0
10
6.3946811495462885
20
2.7982966177818351
30
0
10
6.5953970379370581
20
2.8211675450564306
30
0
10
6.7961295262938233
20
2.851632456593757
30
0
10
6.9969047306519014
20
2.8866938440068295
30
0
10
7.1977360416197307
20
2.9223839880692855
30
0
10
7.3986161242267956
20
2.9538414558486332
30
0
10
7.5995217100771679
20
2.9761929196503374
30
0
10
7.8004185460761342
20
2.9854470182992858
30
0
10
8.0012662481343249
20
2.9793841295771717
30
0
10
8.2020231812436535
20
2.9584560369965152
30
0
10
8.4026513017247986
20
2.9266784222203213
30
0
10
8.6031166984549721
20
2.8904528906220044
30
0
10
8.8033901685187779
20
2.8574035865735565
30
0
10
9.0034477924327909
20
2.8352160125172663
30
0
10
9.2032715385691493
20
2.8304683319947137
30
0
10
9.4028498501643192
20
2.8474849312119961
30
0
10
9.6021762072656696
20
2.8888188320455459
30
0
10
9.7614334285081519
20
2.942328211332053
30
0
10
9.8807613897280095
20
2.9941291683816518
30
0
10
9.9602623061914777
20
3.0338459243395128
30
0
10
10
20
3.0549999999999997
30
0
0
ENDSEC
0
SECTION
2
OBJECTS
0
DICTIONARY
5
C
100
AcDbDictionary
3
ACAD_GROUP
350
D
3
ACAD_MLINESTYLE
350
17
0
DICTIONARY
5
D
100
AcDbDictionary
0
DICTIONARY
5
1A
330
C
100
AcDbDictionary
0
DICTIONARY
5
17
100
AcDbDictionary
0
ENDSEC
0
EOF
