0
SECTION
2
HEADER
9
$INSUNITS
70
4
9
$ACADVER
1
AC1014
9
$HANDSEED
5
FFFF
0
ENDSEC
0
SECTION
2
TABLES
0
TABLE
2
VPORT
5
8
100
AcDbSymbolTable
0
ENDTAB
0
TABLE
2
LTYPE
5
5
100
AcDbSymbolTable
0
LTYPE
5
14
100
AcDbSymbolTableRecord
100
AcDbLinetypeTableRecord
2
BYBLOCK
70
0
0
LTYPE
5
15
100
AcDbSymbolTableRecord
100
AcDbLinetypeTableRecord
2
BYLAYER
70
0
0
ENDTAB
0
TABLE
2
LAYER
5
2
100
AcDbSymbolTable
70
2
0
LAYER
5
50
100
AcDbSymbolTableRecord
100
AcDbLayerTableRecord
2
0
70
0
6
CONTINUOUS
0
ENDTAB
0
TABLE
2
STYLE
5
3
100
AcDbSymbolTable
70
1
0
STYLE
5
11
100
AcDbSymbolTableRecord
100
AcDbTextStyleTableRecord
2
STANDARD
70
0
0
ENDTAB
0
TABLE
2
VIEW
5
6
100
AcDbSymbolTable
70
0
0
ENDTAB
0
TABLE
2
UCS
5
7
100
AcDbSymbolTable
70
0
0
ENDTAB
0
TABLE
2
APPID
5
9
100
AcDbSymbolTable
70
2
0
APPID
5
12
100
AcDbSymbolTableRecord
100
AcDbRegAppTableRecord
2
ACAD
70
0
0
ENDTAB
0
TABLE
2
DIMSTYLE
5
A
100
AcDbSymbolTable
70
1
0
ENDTAB
0
TABLE
2
BLOCK_RECORD
5
1
100
AcDbSymbolTable
70
1
0
BLOCK_RECORD
5
1F
100
AcDbSymbolTableRecord
100
AcDbBlockTableRecord
2
*MODEL_SPACE
0
BLOCK_RECORD
5
1B
100
AcDbSymbolTableRecord
100
AcDbBlockTableRecord
2
*PAPER_SPACE
0
ENDTAB
0
ENDSEC
0
SECTION
2
BLOCKS
0
BLOCK
5
20
100
AcDbEntity
100
AcDbBlockBegin
2
*MODEL_SPACE
0
ENDBLK
5
21
100
AcDbEntity
100
AcDbBlockEnd
0
BLOCK
5
1C
100
AcDbEntity
100
AcDbBlockBegin
2
*PAPER_SPACE
0
ENDBLK
5
1D
100
AcDbEntity
100
AcDbBlockEnd
0
ENDSEC
0
SECTION
2
ENTITIES
0
SPLINE
5
100
100
AcDbEntity
8
0
100
AcDbSpline
70
4
71
5
72
16
73
10
74
0
42
0.000000001
43
0.0000000001
44
0.0000000001
40
0
40
0
40
0
40
0
40
0
40
0
40
0.20000000000000001
40
0.40000000000000002
40
0.60000000000000009
40
0.80000000000000004
40
1
40
1
40
1
40
1
40
1
40
1
41
1
41
1
41
1
41
1
41
1
41
1
41
1
41
1
41
1
41
1
10
0
20
-0.055000000000000049
30
0
10
0
20
0.069400000000207365
30
0
10
0
20
0.31820000000056603
30
0
10
0
20
0.69140000000093593
30
0
10
0
20
1.1890000000011365
30
0
10
0
20
1.8110000000010393
30
0
10
0
20
2.3086000000007481
30
0
10
0
20
2.6818000000004227
30
0
10
0
20
2.9306000000001484
30
0
10
0
20
3.0549999999999997
30
0
0
SPLINE
5
101
100
AcDbEntity
8
0
100
AcDbSpline
70
4
71
5
72
16
73
10
74
0
42
0.000000001
43
0.0000000001
44
0.0000000001
40
0
40
0
40
0
40
0
40
0
40
0
40
0.20000000000000001
40
0.40000000000000002
40
0.60000000000000009
40
0.80000000000000004
40
1
40
1
40
1
40
1
40
1
40
1
41
1
41
1
41
1
41
1
41
1
41
1
41
1
41
1
41
1
41
1
10
10
20
-0.055000000000000049
30
0
10
9.9999999999997495
20
0.069400000000207365
30
0
10
9.9999999999993197
20
0.31820000000056603
30
0
10
9.9999999999989129
20
0.69140000000093593
30
0
10
9.9999999999987672
20
1.1890000000011365
30
0
10
9.9999999999990248
20
1.8110000000010393
30
0
10
9.9999999999993889
20
2.3086000000007481
30
0
10
9.9999999999996998
20
2.6818000000004227
30
0
10
9.9999999999999005
20
2.9306000000001484
30
0
10
10
20
3.0549999999999997
30
0
0
SPLINE
5
102
100
AcDbEntity
8
0
100
AcDbSpline
70
4
71
5
72
16
73
10
74
0
42
0.000000001
43
0.0000000001
44
0.0000000001
40
0
40
0
40
0
40
0
40
0
40
0
40
0.20000000000000001
40
0.40000000000000002
40
0.60000000000000009
40
0.80000000000000004
40
1
40
1
40
1
40
1
40
1
40
1
41
1
41
1
41
1
41
1
41
1
41
1
41
1
41
1
41
1
41
1
10
0
20
1.5274999999999999
30
0
10
0.40000000000047375
20
1.5274999999999856
30
0
10
1.2000000000012774
20
1.5274999999999614
30
0
10
2.4000000000020547
20
1.527499999999943
30
0
10
4.0000000000023546
20
1.5274999999999479
30
0
10
6.0000000000019584
20
1.5274999999999812
30
0
10
7.6000000000012928
20
1.5275000000000025
30
0
10
8.800000000000697
20
1.5275000000000083
30
0
10
9.6000000000002395
20
1.5275000000000039
30
0
10
10
20
1.5274999999999999
30
0
0
SPLINE
5
103
100
AcDbEntity
8
0
100
AcDbSpline
70
4
71
5
72
111
73
105
74
0
42
0.000000001
43
0.0000000001
44
0.0000000001
40
0
40
0
40
0
40
0
40
0
40
0
40
0.01
40
0.02
40
0.029999999999999999
40
0.040000000000000001
40
0.050000000000000003
40
0.060000000000000005
40
0.070000000000000007
40
0.080000000000000002
40
0.089999999999999997
40
0.099999999999999992
40
0.10999999999999999
40
0.11999999999999998
40
0.12999999999999998
40
0.13999999999999999
40
0.14999999999999999
40
0.16
40
0.17000000000000001
40
0.18000000000000002
40
0.19000000000000003
40
0.20000000000000004
40
0.21000000000000005
40
0.22000000000000006
40
0.23000000000000007
40
0.24000000000000007
40
0.25000000000000006
40
0.26000000000000006
40
0.27000000000000007
40
0.28000000000000008
40
0.29000000000000009
40
0.3000000000000001
40
0.31000000000000011
40
0.32000000000000012
40
0.33000000000000013
40
0.34000000000000014
40
0.35000000000000014
40
0.36000000000000015
40
0.37000000000000016
40
0.38000000000000017
40
0.39000000000000018
40
0.40000000000000019
40
0.4100000000000002
40
0.42000000000000021
40
0.43000000000000022
40
0.44000000000000022
40
0.45000000000000023
40
0.46000000000000024
40
0.47000000000000025
40
0.48000000000000026
40
0.49000000000000027
40
0.50000000000000022
40
0.51000000000000023
40
0.52000000000000024
40
0.53000000000000025
40
0.54000000000000026
40
0.55000000000000027
40
0.56000000000000028
40
0.57000000000000028
40
0.58000000000000029
40
0.5900000000000003
40
0.60000000000000031
40
0.61000000000000032
40
0.62000000000000033
40
0.63000000000000034
40
0.64000000000000035
40
0.65000000000000036
40
0.66000000000000036
40
0.67000000000000037
40
0.68000000000000038
40
0.69000000000000039
40
0.7000000000000004
40
0.71000000000000041
40
0.72000000000000042
40
0.73000000000000043
40
0.74000000000000044
40
0.75000000000000044
40
0.76000000000000045
40
0.77000000000000046
40
0.78000000000000047
40
0.79000000000000048
40
0.80000000000000049
40
0.8100000000000005
40
0.82000000000000051
40
0.83000000000000052
40
0.84000000000000052
40
0.85000000000000053
40
0.86000000000000054
40
0.87000000000000055
40
0.88000000000000056
40
0.89000000000000057
40
0.90000000000000058
40
0.91000000000000059
40
0.9200000000000006
40
0.9300000000000006
40
0.94000000000000061
40
0.95000000000000062
40
0.96000000000000063
40
0.97000000000000064
40
0.98000000000000065
40
0.99000000000000066
40
1
40
1
40
1
40
1
40
1
40
1
41
1
41
1
41
1
41
1
41
1
41
1
41
1
41
1
41
1
41
1
41
1
41
1
41
1
41
1
41
1
41
1
41
1
41
1
41
1
41
1
41
1
41
1
41
1
41
1
41
1
41
1
41
1
41
1
41
1
41
1
41
1
41
1
41
1
41
1
41
1
41
1
41
1
41
1
41
1
41
1
41
1
41
1
41
1
41
1
41
1
41
1
41
1
41
1
41
1
41
1
41
1
41
1
41
1
41
1
41
1
41
1
41
1
41
1
41
1
41
1
41
1
41
1
41
1
41
1
41
1
41
1
41
1
41
1
41
1
41
1
41
1
41
1
41
1
41
1
41
1
41
1
41
1
41
1
41
1
41
1
41
1
41
1
41
1
41
1
41
1
41
1
41
1
41
1
41
1
41
1
41
1
41
1
41
1
41
1
41
1
41
1
41
1
41
1
41
1
41
1
41
1
41
1
41
1
41
1
41
1
10
0
20
-0.055000000000000049
30
0
10
0.01974095922171927
20
-0.049759377839037063
30
0
10
0.059257471705922583
20
-0.039115955249210167
30
0
10
0.11863602261486471
20
-0.022664296122185401
30
0
10
0.19801502145677494
20
0.00024454156313400441
30
0
10
0.29758448206397692
20
0.030254044809557328
30
0
10
0.39749845443858733
20
0.060890748402650574
30
0
10
0.4977543003274979
20
0.090657866487490912
30
0
10
0.59834735695923957
20
0.11706479595414475
30
0
10
0.69927052023183256
20
0.13635635519805253
30
0
10
0.80050417167982058
20
0.14476514320223335
30
0
10
0.90200584132813055
20
0.13980468604708907
30
0
10
1.0037000811314893
20
0.12152786766306502
30
0
10
1.1054679343482288
20
0.093848422027897074
30
0
10
1.2071373750055983
20
0.065707837466073171
30
0
10
1.3085025181532675
20
0.048006439534269453
30
0
10
1.4093418435331109
20
0.050626893251207929
30
0
10
1.5094369042101734
20
0.079505542966604656
30
0
10
1.6085905290639557
20
0.13348966726868877
30
0
10
1.7066461357772591
20
0.20183377782125991
30
0
10
1.8035195145458247
20
0.26874460165378933
30
0
10
1.8992291756761377
20
0.31736426119759437
30
0
10
1.9939284207486718
20
0.33402950561931877
30
0
10
2.0879342071683618
20
0.31226817859002826
30
0
10
2.1817643581106911
20
0.25730756462453241
30
0
10
2.2760346983051263
20
0.18228471733855295
30
0
10
2.3713502413904051
20
0.10402738588567609
30
0
10
2.4681926953144711
20
0.038809298407646492
30
0
10
2.566822752309375
20
-0.001464894281418811
30
0
10
2.6671422047677469
20
-0.014321708001169175
30
0
10
2.7687538479728135
20
-0.0055569217139699797
30
0
10
2.8711086548766538
20
0.014692048436603704
30
0
10
2.9736294436155015
20
0.035105830171165558
30
0
10
3.0758344376744717
20
0.046400535835313311
30
0
10
3.1774860921028991
20
0.04518698472815208
30
0
10
3.2785694451553455
20
0.033335545278143031
30
0
10
3.3792129395422736
20
0.015820023493509652
30
0
10
3.4796273193976814
20
-0.00096862117149383857
30
0
10
3.5800396715539309
20
-0.011015932321011113
30
0
10
3.6806227366606925
20
-0.010659353673446264
30
0
10
3.7814796351917801
20
0.0012863920406813102
30
0
10
3.8826434001528214
20
0.023882512867500309
30
0
10
3.9840703443253265
20
0.054235262555386965
30
0
10
4.0856382414693382
20
0.087781010065495893
30
0
10
4.1871364191761753
20
0.11841544108109087
30
0
10
4.2883159242972173
20
0.13967642871958019
30
0
10
4.3889489113808029
20
0.1460777729066082
30
0
10
4.4888865372824807
20
0.13443494019780558
30
0
10
4.5881136451799058
20
0.10509597581367795
30
0
10
4.6868152097128721
20
0.063479272949724413
30
0
10
4.7853074064793208
20
0.018150162262299995
30
0
10
4.8839539048805598
20
-0.021472547818231658
30
0
10
4.9830850256821506
20
-0.047352155860629429
30
0
10
5.0829212525520493
20
-0.054924159176625284
30
0
10
5.183480222013138
20
-0.045697207985611749
30
0
10
5.284622535716462
20
-0.025609780281738159
30
0
10
5.386123308280574
20
-0.0026067371422957538
30
0
10
5.4877359705447661
20
0.01556011918642239
30
0
10
5.5892563985926031
20
0.023513939924121631
30
0
10
5.690594614804267
20
0.020738943490493156
30
0
10
5.791750229780507
20
0.010366114214952215
30
0
10
5.8927754741611285
20
-0.0025144528846012537
30
0
10
5.9937423155514757
20
-0.01238654816218953
30
0
10
6.0947087431913705
20
-0.014869984851771944
30
0
10
6.1956830582076599
20
-0.0083664904985043045
30
0
10
6.2966417322754342
20
0.006483823541677234
30
0
10
6.3975506107665492
20
0.027483274222353117
30
0
10
6.4983849674957117
20
0.05150668988594001
30
0
10
6.5991498490363707
20
0.075150654671371483
30
0
10
6.6999008602401489
20
0.095378232023445503
30
0
10
6.8007179537105937
20
0.10986932327044382
30
0
10
6.9016783712930261
20
0.11736844709593207
30
0
10
7.002830132221483
20
0.11802798134781756
30
0
10
7.104164748655081
20
0.11376862405493138
30
0
10
7.2055916974953131
20
0.10859405962155234
30
0
10
7.3069756179090897
20
0.10727538274253713
30
0
10
7.4081723004096425
20
0.11405667408892227
30
0
10
7.5090644110114537
20
0.13139128974720615
30
0
10
7.6095989703845603
20
0.15857437007449421
30
0
10
7.7098194403075029
20
0.1906742086127475
30
0
10
7.8098362564719981
20
0.22075897332316957
30
0
10
7.9098018627790712
20
0.2419142754831039
30
0
10
8.0098840652840817
20
0.24927855224543924
30
0
10
8.1102401174485621
20
0.24221452713957548
30
0
10
8.2109905324215688
20
0.22601586372509497
30
0
10
8.3121962681331958
20
0.20897437883441702
30
0
10
8.4138343528592259
20
0.1997652406938992
30
0
10
8.5157765005389479
20
0.20482358028731007
30
0
10
8.6177606807170655
20
0.22546227887948639
30
0
10
8.7193824257374626
20
0.25586990485486544
30
0
10
8.820198422755503
20
0.2863542997974623
30
0
10
8.9198191855477464
20
0.30602166389328417
30
0
10
9.018001434703514
20
0.30556242804783956
30
0
10
9.1147513061616507
20
0.28025043895972701
30
0
10
9.2103911431172847
20
0.23207702184176893
30
0
10
9.3054443815716237
20
0.16745470406604984
30
0
10
9.4005450562906816
20
0.09552136473113465
30
0
10
9.4963372930253183
20
0.026203244175477869
30
0
10
9.5933803371216158
20
-0.031595720803961003
30
0
10
9.6920477629981576
20
-0.071921107971150561
30
0
10
9.792562330648467
20
-0.091219924717635265
30
0
10
9.8745403553568405
20
-0.088420905780850559
30
0
10
9.936921251030526
20
-0.075801150030540262
30
0
10
9.9789072882597267
20
-0.062712894707931857
30
0
10
10
20
-0.055000000000000049
30
0
0
SPLINE
5
104
100
AcDbEntity
8
0
100
AcDbSpline
70
4
71
5
72
111
73
105
74
0
42
0.000000001
43
0.0000000001
44
0.0000000001
40
0
40
0
40
0
40
0
40
0
40
0
40
0.01
40
0.02
40
0.029999999999999999
40
0.040000000000000001
40
0.050000000000000003
40
0.060000000000000005
40
0.070000000000000007
40
0.080000000000000002
40
0.089999999999999997
40
0.099999999999999992
40
0.10999999999999999
40
0.11999999999999998
40
0.12999999999999998
40
0.13999999999999999
40
0.14999999999999999
40
0.16
40
0.17000000000000001
40
0.18000000000000002
40
0.19000000000000003
40
0.20000000000000004
40
0.21000000000000005
40
0.22000000000000006
40
0.23000000000000007
40
0.24000000000000007
40
0.25000000000000006
40
0.26000000000000006
40
0.27000000000000007
40
0.28000000000000008
40
0.29000000000000009
40
0.3000000000000001
40
0.31000000000000011
40
0.32000000000000012
40
0.33000000000000013
40
0.34000000000000014
40
0.35000000000000014
40
0.36000000000000015
40
0.37000000000000016
40
0.38000000000000017
40
0.39000000000000018
40
0.40000000000000019
40
0.4100000000000002
40
0.42000000000000021
40
0.43000000000000022
40
0.44000000000000022
40
0.45000000000000023
40
0.46000000000000024
40
0.47000000000000025
40
0.48000000000000026
40
0.49000000000000027
40
0.50000000000000022
40
0.51000000000000023
40
0.52000000000000024
40
0.53000000000000025
40
0.54000000000000026
40
0.55000000000000027
40
0.56000000000000028
40
0.57000000000000028
40
0.58000000000000029
40
0.5900000000000003
40
0.60000000000000031
40
0.61000000000000032
40
0.62000000000000033
40
0.63000000000000034
40
0.64000000000000035
40
0.65000000000000036
40
0.66000000000000036
40
0.67000000000000037
40
0.68000000000000038
40
0.69000000000000039
40
0.7000000000000004
40
0.71000000000000041
40
0.72000000000000042
40
0.73000000000000043
40
0.74000000000000044
40
0.75000000000000044
40
0.76000000000000045
40
0.77000000000000046
40
0.78000000000000047
40
0.79000000000000048
40
0.80000000000000049
40
0.8100000000000005
40
0.82000000000000051
40
0.83000000000000052
40
0.84000000000000052
40
0.85000000000000053
40
0.86000000000000054
40
0.87000000000000055
40
0.88000000000000056
40
0.89000000000000057
40
0.90000000000000058
40
0.91000000000000059
40
0.9200000000000006
40
0.9300000000000006
40
0.94000000000000061
40
0.95000000000000062
40
0.96000000000000063
40
0.97000000000000064
40
0.98000000000000065
40
0.99000000000000066
40
1
40
1
40
1
40
1
40
1
40
1
41
1
41
1
41
1
41
1
41
1
41
1
41
1
41
1
41
1
41
1
41
1
41
1
41
1
41
1
41
1
41
1
41
1
41
1
41
1
41
1
41
1
41
1
41
1
41
1
41
1
41
1
41
1
41
1
41
1
41
1
41
1
41
1
41
1
41
1
41
1
41
1
41
1
41
1
41
1
41
1
41
1
41
1
41
1
41
1
41
1
41
1
41
1
41
1
41
1
41
1
41
1
41
1
41
1
41
1
41
1
41
1
41
1
41
1
41
1
41
1
41
1
41
1
41
1
41
1
41
1
41
1
41
1
41
1
41
1
41
1
41
1
41
1
41
1
41
1
41
1
41
1
41
1
41
1
41
1
41
1
41
1
41
1
41
1
41
1
41
1
41
1
41
1
41
1
41
1
41
1
41
1
41
1
41
1
41
1
41
1
41
1
41
1
41
1
41
1
41
1
41
1
41
1
41
1
41
1
41
1
10
0
20
3.0549999999999997
30
0
10
0.020040370971489103
20
3.0399536805833032
30
0
10
0.060161116672030827
20
3.0120663037994841
30
0
10
0.12046224767829772
20
2.976851069458192
30
0
10
0.2011038094334949
20
2.9431308525527822
30
0
10
0.30229346587554667
20
2.9225248184748533
30
0
10
0.40383308215676977
20
2.9218995481772607
30
0
10
0.50564719305978933
20
2.9381238201997713
30
0
10
0.60760898812597319
20
2.9659351173163677
30
0
10
0.70953001518770153
20
2.9975018444354564
30
0
10
0.81120804259553325
20
3.0241969770078478
30
0
10
0.91247318094442664
20
3.0383021569562167
30
0
10
1.0132326811407153
20
3.0346689379511864
30
0
10
1.113520973969067
20
3.0125609682296033
30
0
10
1.2135340369622076
20
2.976951379260834
30
0
10
1.3135515032571565
20
2.9359144758085471
30
0
10
1.4138689240868882
20
2.8983703384635309
30
0
10
1.5147287137260748
20
2.8717850065451294
30
0
10
1.6162456524237567
20
2.8596784383357772
30
0
10
1.7183522170346661
20
2.8598306699462048
30
0
10
1.8208700707900196
20
2.8668999964867998
30
0
10
1.9235690481569572
20
2.8746208408406231
30
0
10
2.0262272627035998
20
2.8780010782735115
30
0
10
2.1286993476822409
20
2.8759010982221271
30
0
10
2.2309542830657167
20
2.8722596401781955
30
0
10
2.3330189524777185
20
2.8731709983892086
30
0
10
2.434935786586375
20
2.8845677267210856
30
0
10
2.5367199090278802
20
2.9099143456813437
30
0
10
2.6383044417959383
20
2.9472989306922468
30
0
10
2.7395316340225033
20
2.9888022445367897
30
0
10
2.8402273088343319
20
3.0240278582025253
30
0
10
2.9402603142191239
20
3.0428410346532391
30
0
10
3.0396004088443145
20
3.0381346766449551
30
0
10
3.1383951769932228
20
3.0092838020543713
30
0
10
3.236974597075899
20
2.9628528005093675
30
0
10
3.3357438371526031
20
2.9090114043486839
30
0
10
3.4350990849101066
20
2.8588569310076348
30
0
10
3.5353416209066624
20
2.821617582790108
30
0
10
3.6365745383765176
20
2.8013167906075616
30
0
10
3.7386678342156348
20
2.7956542933703106
30
0
10
3.8413544358358163
20
2.7991229573696796
30
0
10
3.9443000475083201
20
2.805320839174084
30
0
10
4.0471776654087099
20
2.8093076140341471
30
0
10
4.1497540812486164
20
2.8106147435065627
30
0
10
4.2519188302923627
20
2.8134682109946856
30
0
10
4.3536420794301769
20
2.8236955126068648
30
0
10
4.4549496525190877
20
2.8463294971143185
30
0
10
4.5558941086803868
20
2.8832833975222796
30
0
10
4.6565201934571725
20
2.9301204684075617
30
0
10
4.7568635221423481
20
2.9768913422620797
30
0
10
4.8569756094169039
20
3.0121559918965191
30
0
10
4.9569441731408386
20
3.0263078706234747
30
0
10
5.0569090213533716
20
3.0147007420306804
30
0
10
5.1570956306938589
20
2.9820616442348777
30
0
10
5.2577734586636895
20
2.9411714903597992
30
0
10
5.3591618343084457
20
2.9073677190695775
30
0
10
5.4613442972981296
20
2.8939910883233955
30
0
10
5.5641944290641101
20
2.9080576141639005
30
0
10
5.6672590757717076
20
2.9442967977716088
30
0
10
5.7698384574226065
20
2.9871942644212615
30
0
10
5.8711778797031577
20
3.0176425273618097
30
0
10
5.9706331402574042
20
3.0184571391583588
30
0
10
6.0678293089363011
20
2.9797384682755101
30
0
10
6.1628669704386088
20
2.9058842003559473
30
0
10
6.2562609806063216
20
2.813126627698419
30
0
10
6.3487663196183464
20
2.7231027237604621
30
0
10
6.4412364921590273
20
2.6574870215888984
30
0
10
6.5344774829702938
20
2.6326765820624098
30
0
10
6.629081820376034
20
2.6532576177660943
30
0
10
6.725346224336084
20
2.7100922557515443
30
0
10
6.8233408459764
20
2.78654939106677
30
0
10
6.9229436309741317
20
2.8630054248116625
30
0
10
7.0238891486013255
20
2.921777705894276
30
0
10
7.1258097624318006
20
2.952489806236275
30
0
10
7.2282840647197411
20
2.9553426534458054
30
0
10
7.3308965072679353
20
2.9369237916236557
30
0
10
7.4332987745782546
20
2.9071508850968324
30
0
10
7.535263612646367
20
2.8760095458243913
30
0
10
7.6367583343527059
20
2.8498120664307351
30
0
10
7.7379551696304061
20
2.8295622298884893
30
0
10
7.8391213287366837
20
2.8135657139844832
30
0
10
7.9405307806411347
20
2.7992239394343916
30
0
10
8.0423763392131615
20
2.7849282092905794
30
0
10
8.1446599378216717
20
2.772455925058233
30
0
10
8.2471696622069413
20
2.7672091918792003
30
0
10
8.3495814575426994
20
2.7753712202618375
30
0
10
8.4515335080510781
20
2.8016656886140763
30
0
10
8.5527047530049742
20
2.8471992075235377
30
0
10
8.6529084996146999
20
2.906463935881098
30
0
10
8.7521114018425656
20
2.9679315862788265
30
0
10
8.8503813957970596
20
3.0179278452631495
30
0
10
8.9478545156537415
20
3.0437404114756021
30
0
10
9.0446962596162468
20
3.0367177645977277
30
0
10
9.1410598735841582
20
2.9961615982756595
30
0
10
9.2370664988610187
20
2.9299192792288977
30
0
10
9.3328135222568083
20
2.8510095526323647
30
0
10
9.4283755188876999
20
2.7752290578161616
30
0
10
9.523808186818167
20
2.7184763274055039
30
0
10
9.6191510163433396
20
2.6939254134098749
30
0
10
9.7144304005419571
20
2.710115608503068
30
0
10
9.8096621609442032
20
2.7722267582005342
30
0
10
9.8858158156155795
20
2.8606853992092174
30
0
10
9.9429143886007356
20
2.9492163536006606
30
0
10
9.9809726973099124
20
3.0180956508783514
30
0
10
10
20
3.0549999999999997
30
0
0
ENDSEC
0
SECTION
2
OBJECTS
0
DICTIONARY
5
C
100
AcDbDictionary
3
ACAD_GROUP
350
D
3
ACAD_MLINESTYLE
350
17
0
DICTIONARY
5
D
100
AcDbDictionary
0
DICTIONARY
5
1A
330
C
100
AcDbDictionary
0
DICTIONARY
5
17
100
AcDbDictionary
0
ENDSEC
0
EOF
