0
SECTION
2
HEADER
9
$INSUNITS
70
4
9
$ACADVER
1
AC1014
9
$HANDSEED
5
FFFF
0
ENDSEC
0
SECTION
2
TABLES
0
TABLE
2
VPORT
5
8
100
AcDbSymbolTable
0
ENDTAB
0
TABLE
2
LTYPE
5
5
100
AcDbSymbolTable
0
LTYPE
5
14
100
AcDbSymbolTableRecord
100
AcDbLinetypeTableRecord
2
BYBLOCK
70
0
0
LTYPE
5
15
100
AcDbSymbolTableRecord
100
AcDbLinetypeTableRecord
2
BYLAYER
70
0
0
ENDTAB
0
TABLE
2
LAYER
5
2
100
AcDbSymbolTable
70
2
0
LAYER
5
50
100
AcDbSymbolTableRecord
100
AcDbLayerTableRecord
2
0
70
0
6
CONTINUOUS
0
ENDTAB
0
TABLE
2
STYLE
5
3
100
AcDbSymbolTable
70
1
0
STYLE
5
11
100
AcDbSymbolTableRecord
100
AcDbTextStyleTableRecord
2
STANDARD
70
0
0
ENDTAB
0
TABLE
2
VIEW
5
6
100
AcDbSymbolTable
70
0
0
ENDTAB
0
TABLE
2
UCS
5
7
100
AcDbSymbolTable
70
0
0
ENDTAB
0
TABLE
2
APPID
5
9
100
AcDbSymbolTable
70
2
0
APPID
5
12
100
AcDbSymbolTableRecord
100
AcDbRegAppTableRecord
2
ACAD
70
0
0
ENDTAB
0
TABLE
2
DIMSTYLE
5
A
100
AcDbSymbolTable
70
1
0
ENDTAB
0
TABLE
2
BLOCK_RECORD
5
1
100
AcDbSymbolTable
70
1
0
BLOCK_RECORD
5
1F
100
AcDbSymbolTableRecord
100
AcDbBlockTableRecord
2
*MODEL_SPACE
0
BLOCK_RECORD
5
1B
100
AcDbSymbolTableRecord
100
AcDbBlockTableRecord
2
*PAPER_SPACE
0
ENDTAB
0
ENDSEC
0
SECTION
2
BLOCKS
0
BLOCK
5
20
100
AcDbEntity
100
AcDbBlockBegin
2
*MODEL_SPACE
0
ENDBLK
5
21
100
AcDbEntity
100
AcDbBlockEnd
0
BLOCK
5
1C
100
AcDbEntity
100
AcDbBlockBegin
2
*PAPER_SPACE
0
ENDBLK
5
1D
100
AcDbEntity
100
AcDbBlockEnd
0
ENDSEC
0
SECTION
2
ENTITIES
0
SPLINE
5
100
100
AcDbEntity
8
0
100
AcDbSpline
70
4
71
5
72
16
73
10
74
0
42
0.000000001
43
0.0000000001
44
0.0000000001
40
0
40
0
40
0
40
0
40
0
40
0
40
0.20000000000000001
40
0.40000000000000002
40
0.60000000000000009
40
0.80000000000000004
40
1
40
1
40
1
40
1
40
1
40
1
41
1
41
1
41
1
41
1
41
1
41
1
41
1
41
1
41
1
41
1
10
0
20
-0.055000000000000049
30
0
10
0
20
0.069400000000207365
30
0
10
0
20
0.31820000000056603
30
0
10
0
20
0.69140000000093593
30
0
10
0
20
1.1890000000011365
30
0
10
0
20
1.8110000000010393
30
0
10
0
20
2.3086000000007481
30
0
10
0
20
2.6818000000004227
30
0
10
0
20
2.9306000000001484
30
0
10
0
20
3.0549999999999997
30
0
0
SPLINE
5
101
100
AcDbEntity
8
0
100
AcDbSpline
70
4
71
5
72
16
73
10
74
0
42
0.000000001
43
0.0000000001
44
0.0000000001
40
0
40
0
40
0
40
0
40
0
40
0
40
0.20000000000000001
40
0.40000000000000002
40
0.60000000000000009
40
0.80000000000000004
40
1
40
1
40
1
40
1
40
1
40
1
41
1
41
1
41
1
41
1
41
1
41
1
41
1
41
1
41
1
41
1
10
10
20
-0.055000000000000049
30
0
10
9.9999999999997495
20
0.069400000000207365
30
0
10
9.9999999999993197
20
0.31820000000056603
30
0
10
9.9999999999989129
20
0.69140000000093593
30
0
10
9.9999999999987672
20
1.1890000000011365
30
0
10
9.9999999999990248
20
1.8110000000010393
30
0
10
9.9999999999993889
20
2.3086000000007481
30
0
10
9.9999999999996998
20
2.6818000000004227
30
0
10
9.9999999999999005
20
2.9306000000001484
30
0
10
10
20
3.0549999999999997
30
0
0
SPLINE
5
102
100
AcDbEntity
8
0
100
AcDbSpline
70
4
71
5
72
16
73
10
74
0
42
0.000000001
43
0.0000000001
44
0.0000000001
40
0
40
0
40
0
40
0
40
0
40
0
40
0.20000000000000001
40
0.40000000000000002
40
0.60000000000000009
40
0.80000000000000004
40
1
40
1
40
1
40
1
40
1
40
1
41
1
41
1
41
1
41
1
41
1
41
1
41
1
41
1
41
1
41
1
10
0
20
1.5274999999999999
30
0
10
0.40000000000047375
20
1.5274999999999856
30
0
10
1.2000000000012774
20
1.5274999999999614
30
0
10
2.4000000000020547
20
1.527499999999943
30
0
10
4.0000000000023546
20
1.5274999999999479
30
0
10
6.0000000000019584
20
1.5274999999999812
30
0
10
7.6000000000012928
20
1.5275000000000025
30
0
10
8.800000000000697
20
1.5275000000000083
30
0
10
9.6000000000002395
20
1.5275000000000039
30
0
10
10
20
1.5274999999999999
30
0
0
SPLINE
5
103
100
AcDbEntity
8
0
100
AcDbSpline
70
4
71
5
72
61
73
55
74
0
42
0.000000001
43
0.0000000001
44
0.0000000001
40
0
40
0
40
0
40
0
40
0
40
0
40
0.02
40
0.040000000000000001
40
0.059999999999999998
40
0.080000000000000002
40
0.10000000000000001
40
0.12000000000000001
40
0.14000000000000001
40
0.16
40
0.17999999999999999
40
0.19999999999999998
40
0.21999999999999997
40
0.23999999999999996
40
0.25999999999999995
40
0.27999999999999997
40
0.29999999999999999
40
0.32000000000000001
40
0.34000000000000002
40
0.36000000000000004
40
0.38000000000000006
40
0.40000000000000008
40
0.4200000000000001
40
0.44000000000000011
40
0.46000000000000013
40
0.48000000000000015
40
0.50000000000000011
40
0.52000000000000013
40
0.54000000000000015
40
0.56000000000000016
40
0.58000000000000018
40
0.6000000000000002
40
0.62000000000000022
40
0.64000000000000024
40
0.66000000000000025
40
0.68000000000000027
40
0.70000000000000029
40
0.72000000000000031
40
0.74000000000000032
40
0.76000000000000034
40
0.78000000000000036
40
0.80000000000000038
40
0.8200000000000004
40
0.84000000000000041
40
0.86000000000000043
40
0.88000000000000045
40
0.90000000000000047
40
0.92000000000000048
40
0.9400000000000005
40
0.96000000000000052
40
0.98000000000000054
40
1
40
1
40
1
40
1
40
1
40
1
41
1
41
1
41
1
41
1
41
1
41
1
41
1
41
1
41
1
41
1
41
1
41
1
41
1
41
1
41
1
41
1
41
1
41
1
41
1
41
1
41
1
41
1
41
1
41
1
41
1
41
1
41
1
41
1
41
1
41
1
41
1
41
1
41
1
41
1
41
1
41
1
41
1
41
1
41
1
41
1
41
1
41
1
41
1
41
1
41
1
41
1
41
1
41
1
41
1
41
1
41
1
41
1
41
1
41
1
41
1
10
0
20
-0.055000000000000049
30
0
10
0.040973036692935005
20
-0.071611641381879532
30
0
10
0.12278155422575564
20
-0.10072588701978559
30
0
10
0.24508166215502425
20
-0.1320700830573367
30
0
10
0.40732260533615749
20
-0.14919246350584409
30
0
10
0.60876249544355698
20
-0.13052800135232229
30
0
10
0.80889213787769132
20
-0.075116713827193246
30
0
10
1.0078175689342146
20
0.010289023765190052
30
0
10
1.205719937906319
20
0.11427264242559809
30
0
10
1.402873421965289
20
0.21968739666835838
30
0
10
1.5995960921399008
20
0.30758080134873467
30
0
10
1.7962033227090983
20
0.36093186092559842
30
0
10
1.9929598189896875
20
0.36850005265393893
30
0
10
2.190033216282449
20
0.32855129113006204
30
0
10
2.387443843486778
20
0.25290394021039875
30
0
10
2.5851237549437127
20
0.16180021691437557
30
0
10
2.7829783206960417
20
0.078541266897301454
30
0
10
2.9809484464484459
20
0.024124407521812948
30
0
10
3.1790687022392374
20
0.012099312318908763
30
0
10
3.3775377322324847
20
0.042719736005204269
30
0
10
3.5766323615854194
20
0.10619120986037278
30
0
10
3.7766080897548227
20
0.18676608539833311
30
0
10
3.977601465745666
20
0.26656707456633955
30
0
10
4.1795382345000114
20
0.32939708788412675
30
0
10
4.3820202735476617
20
0.3648724922462932
30
0
10
4.5844591637658452
20
0.36824025645067154
30
0
10
4.7862365039009784
20
0.33969189593548971
30
0
10
4.9868569277329442
20
0.28388635229428116
30
0
10
5.1860988613742194
20
0.20936545594303008
30
0
10
5.3841818961788892
20
0.12811578836264778
30
0
10
5.5816217485909494
20
0.053344560002774655
30
0
10
5.779066453492625
20
-0.0028179363475601235
30
0
10
5.9771365608721378
20
-0.031658835607479591
30
0
10
6.1762712565128144
20
-0.030058034763596905
30
0
10
6.3765514505763674
20
-0.0031609386681545181
30
0
10
6.5777882020126652
20
0.038375323786799156
30
0
10
6.7796415512231034
20
0.081739787705391462
30
0
10
6.9817296829924409
20
0.1151606542987549
30
0
10
7.1837381179497335
20
0.13103421973031693
30
0
10
7.3855392144280616
20
0.12944842334800266
30
0
10
7.587146497946331
20
0.11592805415386605
30
0
10
7.7886539207821794
20
0.098664167483557427
30
0
10
7.9901803578689456
20
0.085915481704829932
30
0
10
8.1918130695955966
20
0.083392630786875394
30
0
10
8.3935486909491654
20
0.091501014353661536
30
0
10
8.5953166198840787
20
0.10670642198684381
30
0
10
8.79700630169493
20
0.12309106150406193
30
0
10
8.9984929848977036
20
0.13383386053455909
30
0
10
9.1996639910696771
20
0.13271482521673178
30
0
10
9.4004449829457766
20
0.11562107251442252
30
0
10
9.6007921945482604
20
0.080122220620691437
30
0
10
9.760705985947757
20
0.036050877589385674
30
0
10
9.8804336895261997
20
-0.0059840478100241018
30
0
10
9.9601599339375948
20
-0.037996490117833535
30
0
10
10
20
-0.055000000000000049
30
0
0
SPLINE
5
104
100
AcDbEntity
8
0
100
AcDbSpline
70
4
71
5
72
61
73
55
74
0
42
0.000000001
43
0.0000000001
44
0.0000000001
40
0
40
0
40
0
40
0
40
0
40
0
40
0.02
40
0.040000000000000001
40
0.059999999999999998
40
0.080000000000000002
40
0.10000000000000001
40
0.12000000000000001
40
0.14000000000000001
40
0.16
40
0.17999999999999999
40
0.19999999999999998
40
0.21999999999999997
40
0.23999999999999996
40
0.25999999999999995
40
0.27999999999999997
40
0.29999999999999999
40
0.32000000000000001
40
0.34000000000000002
40
0.36000000000000004
40
0.38000000000000006
40
0.40000000000000008
40
0.4200000000000001
40
0.44000000000000011
40
0.46000000000000013
40
0.48000000000000015
40
0.50000000000000011
40
0.52000000000000013
40
0.54000000000000015
40
0.56000000000000016
40
0.58000000000000018
40
0.6000000000000002
40
0.62000000000000022
40
0.64000000000000024
40
0.66000000000000025
40
0.68000000000000027
40
0.70000000000000029
40
0.72000000000000031
40
0.74000000000000032
40
0.76000000000000034
40
0.78000000000000036
40
0.80000000000000038
40
0.8200000000000004
40
0.84000000000000041
40
0.86000000000000043
40
0.88000000000000045
40
0.90000000000000047
40
0.92000000000000048
40
0.9400000000000005
40
0.96000000000000052
40
0.98000000000000054
40
1
40
1
40
1
40
1
40
1
40
1
41
1
41
1
41
1
41
1
41
1
41
1
41
1
41
1
41
1
41
1
41
1
41
1
41
1
41
1
41
1
41
1
41
1
41
1
41
1
41
1
41
1
41
1
41
1
41
1
41
1
41
1
41
1
41
1
41
1
41
1
41
1
41
1
41
1
41
1
41
1
41
1
41
1
41
1
41
1
41
1
41
1
41
1
41
1
41
1
41
1
41
1
41
1
41
1
41
1
41
1
41
1
41
1
41
1
41
1
41
1
10
0
20
3.0549999999999997
30
0
10
0.040515387474454614
20
3.0598273491127466
30
0
10
0.12148982933689553
20
3.0680859987335962
30
0
10
0.24278249241013986
20
3.076285815633498
30
0
10
0.40416782750949759
20
3.0788372336491299
30
0
10
0.60534590471428484
20
3.0683365889488581
30
0
10
0.80600300340516862
20
3.0450419779154831
30
0
10
1.0062059553676876
20
3.0107851773197698
30
0
10
1.2060680874599341
20
2.9686677977692817
30
0
10
1.405760271463816
20
2.9233642637169148
30
0
10
1.6054766962922264
20
2.8802678541444933
30
0
10
1.8054017650097904
20
2.8446665675695479
30
0
10
2.0056768275700869
20
2.820913015333661
30
0
10
2.2063662914020994
20
2.8115834748707464
30
0
10
2.4074254615099688
20
2.8166686255041826
30
0
10
2.6087398015209713
20
2.8341571235466825
30
0
10
2.8101624614242784
20
2.8605791925945101
30
0
10
3.0115518922498339
20
2.8915611745794751
30
0
10
3.212810421531513
20
2.9223707014489757
30
0
10
3.4139196317456162
20
2.9484680155231704
30
0
10
3.614914875954689
20
2.9660889683106011
30
0
10
3.8158627005281014
20
2.9728412874506196
30
0
10
4.0168375927721414
20
2.9682738416758654
30
0
10
4.2178983198280671
20
2.9545215229881654
30
0
10
4.419066533322356
20
2.9367571850233896
30
0
10
4.6203352993049505
20
2.9213749235221993
30
0
10
4.8216754412372316
20
2.9142993641795178
30
0
10
5.0230427363772652
20
2.919311594180316
30
0
10
5.22438449447188
20
2.9362132237011931
30
0
10
5.4256469461477854
20
2.9594832960750224
30
0
10
5.6267872215657908
20
2.981104421578757
30
0
10
5.8277854734740044
20
2.9930610637792516
30
0
10
6.0286559587571267
20
2.9898486896341496
30
0
10
6.2294610802117294
20
2.9712465667643331
30
0
10
6.4303171906795562
20
2.9442191424108493
30
0
10
6.6313484832326841
20
2.9190798089558405
30
0
10
6.8326453275701322
20
2.9062092358707337
30
0
10
7.0342233592514134
20
2.9127310078366002
30
0
10
7.2359761481058014
20
2.9388046062277766
30
0
10
7.4376479238292523
20
2.9752392185698762
30
0
10
7.6389121353166756
20
3.0081863718038089
30
0
10
7.8394379763115296
20
3.0230124581062974
30
0
10
8.0389583680028558
20
3.0082996354685458
30
0
10
8.23734487173326
20
2.9602318156661194
30
0
10
8.434657558410688
20
2.8855216533631651
30
0
10
8.6310794240597577
20
2.7975769197100813
30
0
10
8.8268669736677658
20
2.7136118899698314
30
0
10
9.0222957723062578
20
2.6514639443606338
30
0
10
9.2176058975269886
20
2.6263979056902094
30
0
10
9.4129542490490579
20
2.6483237062992622
30
0
10
9.608435399963529
20
2.7231411143611215
30
0
10
9.7649638537738923
20
2.8275826047151345
30
0
10
9.8824478618672593
20
2.9313904756639171
30
0
10
9.9608094651558368
20
3.0119109398808308
30
0
10
10
20
3.0549999999999997
30
0
0
ENDSEC
0
SECTION
2
OBJECTS
0
DICTIONARY
5
C
100
AcDbDictionary
3
ACAD_GROUP
350
D
3
ACAD_MLINESTYLE
350
17
0
DICTIONARY
5
D
100
AcDbDictionary
0
DICTIONARY
5
1A
330
C
100
AcDbDictionary
0
DICTIONARY
5
17
100
AcDbDictionary
0
ENDSEC
0
EOF
