0
SECTION
2
HEADER
9
$INSUNITS
70
4
9
$ACADVER
1
AC1014
9
$HANDSEED
5
FFFF
0
ENDSEC
0
SECTION
2
TABLES
0
TABLE
2
VPORT
5
8
100
AcDbSymbolTable
0
ENDTAB
0
TABLE
2
LTYPE
5
5
100
AcDbSymbolTable
0
LTYPE
5
14
100
AcDbSymbolTableRecord
100
AcDbLinetypeTableRecord
2
BYBLOCK
70
0
0
LTYPE
5
15
100
AcDbSymbolTableRecord
100
AcDbLinetypeTableRecord
2
BYLAYER
70
0
0
ENDTAB
0
TABLE
2
LAYER
5
2
100
AcDbSymbolTable
70
2
0
LAYER
5
50
100
AcDbSymbolTableRecord
100
AcDbLayerTableRecord
2
0
70
0
6
CONTINUOUS
0
ENDTAB
0
TABLE
2
STYLE
5
3
100
AcDbSymbolTable
70
1
0
STYLE
5
11
100
AcDbSymbolTableRecord
100
AcDbTextStyleTableRecord
2
STANDARD
70
0
0
ENDTAB
0
TABLE
2
VIEW
5
6
100
AcDbSymbolTable
70
0
0
ENDTAB
0
TABLE
2
UCS
5
7
100
AcDbSymbolTable
70
0
0
ENDTAB
0
TABLE
2
APPID
5
9
100
AcDbSymbolTable
70
2
0
APPID
5
12
100
AcDbSymbolTableRecord
100
AcDbRegAppTableRecord
2
ACAD
70
0
0
ENDTAB
0
TABLE
2
DIMSTYLE
5
A
100
AcDbSymbolTable
70
1
0
ENDTAB
0
TABLE
2
BLOCK_RECORD
5
1
100
AcDbSymbolTable
70
1
0
BLOCK_RECORD
5
1F
100
AcDbSymbolTableRecord
100
AcDbBlockTableRecord
2
*MODEL_SPACE
0
BLOCK_RECORD
5
1B
100
AcDbSymbolTableRecord
100
AcDbBlockTableRecord
2
*PAPER_SPACE
0
ENDTAB
0
ENDSEC
0
SECTION
2
BLOCKS
0
BLOCK
5
20
100
AcDbEntity
100
AcDbBlockBegin
2
*MODEL_SPACE
0
ENDBLK
5
21
100
AcDbEntity
100
AcDbBlockEnd
0
BLOCK
5
1C
100
AcDbEntity
100
AcDbBlockBegin
2
*PAPER_SPACE
0
ENDBLK
5
1D
100
AcDbEntity
100
AcDbBlockEnd
0
ENDSEC
0
SECTION
2
ENTITIES
0
SPLINE
5
100
100
AcDbEntity
8
0
100
AcDbSpline
70
4
71
5
72
16
73
10
74
0
42
0.000000001
43
0.0000000001
44
0.0000000001
40
0
40
0
40
0
40
0
40
0
40
0
40
0.20000000000000001
40
0.40000000000000002
40
0.60000000000000009
40
0.80000000000000004
40
1
40
1
40
1
40
1
40
1
40
1
41
1
41
1
41
1
41
1
41
1
41
1
41
1
41
1
41
1
41
1
10
0
20
-0.055000000000000049
30
0
10
0
20
0.069400000000207365
30
0
10
0
20
0.31820000000056603
30
0
10
0
20
0.69140000000093593
30
0
10
0
20
1.1890000000011365
30
0
10
0
20
1.8110000000010393
30
0
10
0
20
2.3086000000007481
30
0
10
0
20
2.6818000000004227
30
0
10
0
20
2.9306000000001484
30
0
10
0
20
3.0549999999999997
30
0
0
SPLINE
5
101
100
AcDbEntity
8
0
100
AcDbSpline
70
4
71
5
72
16
73
10
74
0
42
0.000000001
43
0.0000000001
44
0.0000000001
40
0
40
0
40
0
40
0
40
0
40
0
40
0.20000000000000001
40
0.40000000000000002
40
0.60000000000000009
40
0.80000000000000004
40
1
40
1
40
1
40
1
40
1
40
1
41
1
41
1
41
1
41
1
41
1
41
1
41
1
41
1
41
1
41
1
10
10
20
-0.055000000000000049
30
0
10
9.9999999999997495
20
0.069400000000207365
30
0
10
9.9999999999993197
20
0.31820000000056603
30
0
10
9.9999999999989129
20
0.69140000000093593
30
0
10
9.9999999999987672
20
1.1890000000011365
30
0
10
9.9999999999990248
20
1.8110000000010393
30
0
10
9.9999999999993889
20
2.3086000000007481
30
0
10
9.9999999999996998
20
2.6818000000004227
30
0
10
9.9999999999999005
20
2.9306000000001484
30
0
10
10
20
3.0549999999999997
30
0
0
SPLINE
5
102
100
AcDbEntity
8
0
100
AcDbSpline
70
4
71
5
72
16
73
10
74
0
42
0.000000001
43
0.0000000001
44
0.0000000001
40
0
40
0
40
0
40
0
40
0
40
0
40
0.20000000000000001
40
0.40000000000000002
40
0.60000000000000009
40
0.80000000000000004
40
1
40
1
40
1
40
1
40
1
40
1
41
1
41
1
41
1
41
1
41
1
41
1
41
1
41
1
41
1
41
1
10
0
20
1.5274999999999999
30
0
10
0.40000000000047375
20
1.5274999999999856
30
0
10
1.2000000000012774
20
1.5274999999999614
30
0
10
2.4000000000020547
20
1.527499999999943
30
0
10
4.0000000000023546
20
1.5274999999999479
30
0
10
6.0000000000019584
20
1.5274999999999812
30
0
10
7.6000000000012928
20
1.5275000000000025
30
0
10
8.800000000000697
20
1.5275000000000083
30
0
10
9.6000000000002395
20
1.5275000000000039
30
0
10
10
20
1.5274999999999999
30
0
0
SPLINE
5
103
100
AcDbEntity
8
0
100
AcDbSpline
70
4
71
5
72
61
73
55
74
0
42
0.000000001
43
0.0000000001
44
0.0000000001
40
0
40
0
40
0
40
0
40
0
40
0
40
0.02
40
0.040000000000000001
40
0.059999999999999998
40
0.080000000000000002
40
0.10000000000000001
40
0.12000000000000001
40
0.14000000000000001
40
0.16
40
0.17999999999999999
40
0.19999999999999998
40
0.21999999999999997
40
0.23999999999999996
40
0.25999999999999995
40
0.27999999999999997
40
0.29999999999999999
40
0.32000000000000001
40
0.34000000000000002
40
0.36000000000000004
40
0.38000000000000006
40
0.40000000000000008
40
0.4200000000000001
40
0.44000000000000011
40
0.46000000000000013
40
0.48000000000000015
40
0.50000000000000011
40
0.52000000000000013
40
0.54000000000000015
40
0.56000000000000016
40
0.58000000000000018
40
0.6000000000000002
40
0.62000000000000022
40
0.64000000000000024
40
0.66000000000000025
40
0.68000000000000027
40
0.70000000000000029
40
0.72000000000000031
40
0.74000000000000032
40
0.76000000000000034
40
0.78000000000000036
40
0.80000000000000038
40
0.8200000000000004
40
0.84000000000000041
40
0.86000000000000043
40
0.88000000000000045
40
0.90000000000000047
40
0.92000000000000048
40
0.9400000000000005
40
0.96000000000000052
40
0.98000000000000054
40
1
40
1
40
1
40
1
40
1
40
1
41
1
41
1
41
1
41
1
41
1
41
1
41
1
41
1
41
1
41
1
41
1
41
1
41
1
41
1
41
1
41
1
41
1
41
1
41
1
41
1
41
1
41
1
41
1
41
1
41
1
41
1
41
1
41
1
41
1
41
1
41
1
41
1
41
1
41
1
41
1
41
1
41
1
41
1
41
1
41
1
41
1
41
1
41
1
41
1
41
1
41
1
41
1
41
1
41
1
41
1
41
1
41
1
41
1
41
1
41
1
10
0
20
-0.055000000000000049
30
0
10
0.039720764740621264
20
-0.027936567039748811
30
0
10
0.11915047101919221
20
0.022787278343556268
30
0
10
0.23825956140235105
20
0.088664010008091071
30
0
10
0.39700069260918153
20
0.15606805864411677
30
0
10
0.5953177279277998
20
0.20672027732712106
30
0
10
0.79355258482055835
20
0.22524974752492186
30
0
10
0.99176023088011489
20
0.21472775824699819
30
0
10
1.1900323610214512
20
0.18035552689655737
30
0
10
1.3885080037652764
20
0.1300759006135731
30
0
10
1.5873415996676279
20
0.073311643175100291
30
0
10
1.7866697629759032
20
0.019640693926912492
30
0
10
1.9865778529579727
20
-0.022518578216322287
30
0
10
2.1870679636237385
20
-0.047194893382074415
30
0
10
2.3880221308010969
20
-0.052260081271894333
30
0
10
2.5892499045966897
20
-0.038866793686719768
30
0
10
2.7905410026857442
20
-0.010762496472399938
30
0
10
2.9917165604685882
20
0.026340120183257296
30
0
10
3.1926797821312518
20
0.065418465040607304
30
0
10
3.3934703909718849
20
0.098757307147358406
30
0
10
3.5942077758497222
20
0.11929762164838904
30
0
10
3.795030005036379
20
0.12200839460835737
30
0
10
3.9960341336527088
20
0.1052654817586353
30
0
10
4.1972166268337583
20
0.072211854822961261
30
0
10
4.3984114993105434
20
0.032205462912557499
30
0
10
4.5993661763039633
20
-0.0023415051839033585
30
0
10
4.79981968705642
20
-0.019199051109724242
30
0
10
4.9995799914619994
20
-0.0095291889846192378
30
0
10
5.1986016535858415
20
0.028892858731539541
30
0
10
5.3970641592291981
20
0.088426918740727473
30
0
10
5.5952855661876715
20
0.15550494041939028
30
0
10
5.7936362971263904
20
0.21456056289000369
30
0
10
5.9924524289541505
20
0.25198430542180006
30
0
10
6.1919506976458649
20
0.25999797379756157
30
0
10
6.3921383333951649
20
0.24077406815569014
30
0
10
6.5928769129798042
20
0.20327005836853318
30
0
10
6.7939511478797288
20
0.15982873930740191
30
0
10
6.9951359102332127
20
0.12286167777659196
30
0
10
7.1962631852573971
20
0.10153423752471463
30
0
10
7.3972911396651551
20
0.098351720292471231
30
0
10
7.598262080638742
20
0.11088018068410774
30
0
10
7.7992579987683728
20
0.13357652845349183
30
0
10
8.0003571617902143
20
0.1595676471317175
30
0
10
8.2015902464855568
20
0.18244684381100157
30
0
10
8.4028966860219185
20
0.19805908795962712
30
0
10
8.6041530668475534
20
0.20403164212401989
30
0
10
8.8052013743020723
20
0.1993100049198043
30
0
10
9.0058770458407889
20
0.18369769497300215
30
0
10
9.2060373785075011
20
0.15739373274930132
30
0
10
9.4055889659003924
20
0.12054333071331175
30
0
10
9.6044768265155263
20
0.073251607408964234
30
0
10
9.7630350305823068
20
0.02711898092393699
30
0
10
9.881639584541956
20
-0.012132544525958092
30
0
10
9.9605697795004247
20
-0.040366474270350026
30
0
10
10
20
-0.055000000000000049
30
0
0
SPLINE
5
104
100
AcDbEntity
8
0
100
AcDbSpline
70
4
71
5
72
61
73
55
74
0
42
0.000000001
43
0.0000000001
44
0.0000000001
40
0
40
0
40
0
40
0
40
0
40
0
40
0.02
40
0.040000000000000001
40
0.059999999999999998
40
0.080000000000000002
40
0.10000000000000001
40
0.12000000000000001
40
0.14000000000000001
40
0.16
40
0.17999999999999999
40
0.19999999999999998
40
0.21999999999999997
40
0.23999999999999996
40
0.25999999999999995
40
0.27999999999999997
40
0.29999999999999999
40
0.32000000000000001
40
0.34000000000000002
40
0.36000000000000004
40
0.38000000000000006
40
0.40000000000000008
40
0.4200000000000001
40
0.44000000000000011
40
0.46000000000000013
40
0.48000000000000015
40
0.50000000000000011
40
0.52000000000000013
40
0.54000000000000015
40
0.56000000000000016
40
0.58000000000000018
40
0.6000000000000002
40
0.62000000000000022
40
0.64000000000000024
40
0.66000000000000025
40
0.68000000000000027
40
0.70000000000000029
40
0.72000000000000031
40
0.74000000000000032
40
0.76000000000000034
40
0.78000000000000036
40
0.80000000000000038
40
0.8200000000000004
40
0.84000000000000041
40
0.86000000000000043
40
0.88000000000000045
40
0.90000000000000047
40
0.92000000000000048
40
0.9400000000000005
40
0.96000000000000052
40
0.98000000000000054
40
1
40
1
40
1
40
1
40
1
40
1
41
1
41
1
41
1
41
1
41
1
41
1
41
1
41
1
41
1
41
1
41
1
41
1
41
1
41
1
41
1
41
1
41
1
41
1
41
1
41
1
41
1
41
1
41
1
41
1
41
1
41
1
41
1
41
1
41
1
41
1
41
1
41
1
41
1
41
1
41
1
41
1
41
1
41
1
41
1
41
1
41
1
41
1
41
1
41
1
41
1
41
1
41
1
41
1
41
1
41
1
41
1
41
1
41
1
41
1
41
1
10
0
20
3.0549999999999997
30
0
10
0.039642585201445257
20
3.0192732561777436
30
0
10
0.1189177854308312
20
2.9527169906757371
30
0
10
0.23780067577269171
20
2.8675741897678826
30
0
10
0.3962513327134497
20
2.7834533932690571
30
0
10
0.59422302157935314
20
2.7264469907989586
30
0
10
0.79212782304811202
20
2.714821138417812
30
0
10
0.99001571855948389
20
2.7428773070494166
30
0
10
1.1879700662229122
20
2.801016791138049
30
0
10
1.3861172296115456
20
2.8745788935422096
30
0
10
1.5846037060787876
20
2.9469037435794299
30
0
10
1.7835718929438846
20
3.0025558732622959
30
0
10
1.9831360131230995
20
3.0305656911720735
30
0
10
2.183358670063654
20
3.0275003318059475
30
0
10
2.384224928355076
20
3.0010913209856809
30
0
10
2.585652468473925
20
2.9658242297515565
30
0
10
2.7875047062462914
20
2.9378984528948719
30
0
10
2.9896025659428576
20
2.9303594765177361
30
0
10
3.191736929372726
20
2.948297445453429
30
0
10
3.3936800205028357
20
2.9836084270831327
30
0
10
3.5952148553501431
20
3.0203439473752041
30
0
10
3.7961654677519538
20
3.0405632427079903
30
0
10
3.996427145555228
20
3.0300198026650711
30
0
10
4.1959964064450777
20
2.9838605230901543
30
0
10
4.3950025710835163
20
2.9125145203388025
30
0
10
4.5936555385349971
20
2.8355173811243284
30
0
10
4.7921925685228981
20
2.7751725652667014
30
0
10
4.9908249733115433
20
2.7502190474456349
30
0
10
5.1896861556893565
20
2.7696438649914952
30
0
10
5.3887752877946662
20
2.8259957914797047
30
0
10
5.5880085304833909
20
2.9010965529402339
30
0
10
5.7872743207291091
20
2.9722348537395078
30
0
10
5.9864880146189119
20
3.0182475484994615
30
0
10
6.1856446319923899
20
3.0254628087813691
30
0
10
6.3848785154047238
20
2.9942176913447058
30
0
10
6.5843999654606051
20
2.9349433757791892
30
0
10
6.7844244202124635
20
2.863594059972328
30
0
10
6.9851031137468507
20
2.7972807247107836
30
0
10
7.1864559111764281
20
2.7499447158079238
30
0
10
7.3882949791576369
20
2.727688146947095
30
0
10
7.5903029576724794
20
2.7303889856393808
30
0
10
7.7921218827932535
20
2.753764780874548
30
0
10
7.9934386308751222
20
2.7912690096017889
30
0
10
8.194070532819083
20
2.8360300716625981
30
0
10
8.3940549151500026
20
2.8828224854058853
30
0
10
8.593588548048702
20
2.9278568493057913
30
0
10
8.7929627259316128
20
2.9684982341440702
30
0
10
8.9924999117961555
20
3.003013728774369
30
0
10
9.1924906883132333
20
3.0303121654820049
30
0
10
9.3931282941846721
20
3.0496846892466589
30
0
10
9.5945267956817393
20
3.060719344575241
30
0
10
9.7562990245766574
20
3.0627226345239662
30
0
10
9.8780036104070703
20
3.0603624682152395
30
0
10
9.959306746067222
20
3.0570734231740908
30
0
10
10
20
3.0549999999999997
30
0
0
ENDSEC
0
SECTION
2
OBJECTS
0
DICTIONARY
5
C
100
AcDbDictionary
3
ACAD_GROUP
350
D
3
ACAD_MLINESTYLE
350
17
0
DICTIONARY
5
D
100
AcDbDictionary
0
DICTIONARY
5
1A
330
C
100
AcDbDictionary
0
DICTIONARY
5
17
100
AcDbDictionary
0
ENDSEC
0
EOF
