0
SECTION
2
HEADER
9
$INSUNITS
70
4
9
$ACADVER
1
AC1014
9
$HANDSEED
5
FFFF
0
ENDSEC
0
SECTION
2
TABLES
0
TABLE
2
VPORT
5
8
100
AcDbSymbolTable
0
ENDTAB
0
TABLE
2
LTYPE
5
5
100
AcDbSymbolTable
0
LTYPE
5
14
100
AcDbSymbolTableRecord
100
AcDbLinetypeTableRecord
2
BYBLOCK
70
0
0
LTYPE
5
15
100
AcDbSymbolTableRecord
100
AcDbLinetypeTableRecord
2
BYLAYER
70
0
0
ENDTAB
0
TABLE
2
LAYER
5
2
100
AcDbSymbolTable
70
2
0
LAYER
5
50
100
AcDbSymbolTableRecord
100
AcDbLayerTableRecord
2
0
70
0
6
CONTINUOUS
0
ENDTAB
0
TABLE
2
STYLE
5
3
100
AcDbSymbolTable
70
1
0
STYLE
5
11
100
AcDbSymbolTableRecord
100
AcDbTextStyleTableRecord
2
STANDARD
70
0
0
ENDTAB
0
TABLE
2
VIEW
5
6
100
AcDbSymbolTable
70
0
0
ENDTAB
0
TABLE
2
UCS
5
7
100
AcDbSymbolTable
70
0
0
ENDTAB
0
TABLE
2
APPID
5
9
100
AcDbSymbolTable
70
2
0
APPID
5
12
100
AcDbSymbolTableRecord
100
AcDbRegAppTableRecord
2
ACAD
70
0
0
ENDTAB
0
TABLE
2
DIMSTYLE
5
A
100
AcDbSymbolTable
70
1
0
ENDTAB
0
TABLE
2
BLOCK_RECORD
5
1
100
AcDbSymbolTable
70
1
0
BLOCK_RECORD
5
1F
100
AcDbSymbolTableRecord
100
AcDbBlockTableRecord
2
*MODEL_SPACE
0
BLOCK_RECORD
5
1B
100
AcDbSymbolTableRecord
100
AcDbBlockTableRecord
2
*PAPER_SPACE
0
ENDTAB
0
ENDSEC
0
SECTION
2
BLOCKS
0
BLOCK
5
20
100
AcDbEntity
100
AcDbBlockBegin
2
*MODEL_SPACE
0
ENDBLK
5
21
100
AcDbEntity
100
AcDbBlockEnd
0
BLOCK
5
1C
100
AcDbEntity
100
AcDbBlockBegin
2
*PAPER_SPACE
0
ENDBLK
5
1D
100
AcDbEntity
100
AcDbBlockEnd
0
ENDSEC
0
SECTION
2
ENTITIES
0
SPLINE
5
100
100
AcDbEntity
8
0
100
AcDbSpline
70
4
71
5
72
16
73
10
74
0
42
0.000000001
43
0.0000000001
44
0.0000000001
40
0
40
0
40
0
40
0
40
0
40
0
40
0.20000000000000001
40
0.40000000000000002
40
0.60000000000000009
40
0.80000000000000004
40
1
40
1
40
1
40
1
40
1
40
1
41
1
41
1
41
1
41
1
41
1
41
1
41
1
41
1
41
1
41
1
10
0
20
-0.055000000000000049
30
0
10
0
20
0.069400000000207365
30
0
10
0
20
0.31820000000056603
30
0
10
0
20
0.69140000000093593
30
0
10
0
20
1.1890000000011365
30
0
10
0
20
1.8110000000010393
30
0
10
0
20
2.3086000000007481
30
0
10
0
20
2.6818000000004227
30
0
10
0
20
2.9306000000001484
30
0
10
0
20
3.0549999999999997
30
0
0
SPLINE
5
101
100
AcDbEntity
8
0
100
AcDbSpline
70
4
71
5
72
16
73
10
74
0
42
0.000000001
43
0.0000000001
44
0.0000000001
40
0
40
0
40
0
40
0
40
0
40
0
40
0.20000000000000001
40
0.40000000000000002
40
0.60000000000000009
40
0.80000000000000004
40
1
40
1
40
1
40
1
40
1
40
1
41
1
41
1
41
1
41
1
41
1
41
1
41
1
41
1
41
1
41
1
10
10
20
-0.055000000000000049
30
0
10
9.9999999999997495
20
0.069400000000207365
30
0
10
9.9999999999993197
20
0.31820000000056603
30
0
10
9.9999999999989129
20
0.69140000000093593
30
0
10
9.9999999999987672
20
1.1890000000011365
30
0
10
9.9999999999990248
20
1.8110000000010393
30
0
10
9.9999999999993889
20
2.3086000000007481
30
0
10
9.9999999999996998
20
2.6818000000004227
30
0
10
9.9999999999999005
20
2.9306000000001484
30
0
10
10
20
3.0549999999999997
30
0
0
SPLINE
5
102
100
AcDbEntity
8
0
100
AcDbSpline
70
4
71
5
72
16
73
10
74
0
42
0.000000001
43
0.0000000001
44
0.0000000001
40
0
40
0
40
0
40
0
40
0
40
0
40
0.20000000000000001
40
0.40000000000000002
40
0.60000000000000009
40
0.80000000000000004
40
1
40
1
40
1
40
1
40
1
40
1
41
1
41
1
41
1
41
1
41
1
41
1
41
1
41
1
41
1
41
1
10
0
20
1.5274999999999999
30
0
10
0.40000000000047375
20
1.5274999999999856
30
0
10
1.2000000000012774
20
1.5274999999999614
30
0
10
2.4000000000020547
20
1.527499999999943
30
0
10
4.0000000000023546
20
1.5274999999999479
30
0
10
6.0000000000019584
20
1.5274999999999812
30
0
10
7.6000000000012928
20
1.5275000000000025
30
0
10
8.800000000000697
20
1.5275000000000083
30
0
10
9.6000000000002395
20
1.5275000000000039
30
0
10
10
20
1.5274999999999999
30
0
0
SPLINE
5
103
100
AcDbEntity
8
0
100
AcDbSpline
70
4
71
5
72
61
73
55
74
0
42
0.000000001
43
0.0000000001
44
0.0000000001
40
0
40
0
40
0
40
0
40
0
40
0
40
0.02
40
0.040000000000000001
40
0.059999999999999998
40
0.080000000000000002
40
0.10000000000000001
40
0.12000000000000001
40
0.14000000000000001
40
0.16
40
0.17999999999999999
40
0.19999999999999998
40
0.21999999999999997
40
0.23999999999999996
40
0.25999999999999995
40
0.27999999999999997
40
0.29999999999999999
40
0.32000000000000001
40
0.34000000000000002
40
0.36000000000000004
40
0.38000000000000006
40
0.40000000000000008
40
0.4200000000000001
40
0.44000000000000011
40
0.46000000000000013
40
0.48000000000000015
40
0.50000000000000011
40
0.52000000000000013
40
0.54000000000000015
40
0.56000000000000016
40
0.58000000000000018
40
0.6000000000000002
40
0.62000000000000022
40
0.64000000000000024
40
0.66000000000000025
40
0.68000000000000027
40
0.70000000000000029
40
0.72000000000000031
40
0.74000000000000032
40
0.76000000000000034
40
0.78000000000000036
40
0.80000000000000038
40
0.8200000000000004
40
0.84000000000000041
40
0.86000000000000043
40
0.88000000000000045
40
0.90000000000000047
40
0.92000000000000048
40
0.9400000000000005
40
0.96000000000000052
40
0.98000000000000054
40
1
40
1
40
1
40
1
40
1
40
1
41
1
41
1
41
1
41
1
41
1
41
1
41
1
41
1
41
1
41
1
41
1
41
1
41
1
41
1
41
1
41
1
41
1
41
1
41
1
41
1
41
1
41
1
41
1
41
1
41
1
41
1
41
1
41
1
41
1
41
1
41
1
41
1
41
1
41
1
41
1
41
1
41
1
41
1
41
1
41
1
41
1
41
1
41
1
41
1
41
1
41
1
41
1
41
1
41
1
41
1
41
1
41
1
41
1
41
1
41
1
10
0
20
-0.055000000000000049
30
0
10
0.040323816387477562
20
-0.042470437477815509
30
0
10
0.12100072669216663
20
-0.019410307300180694
30
0
10
0.2421039255942983
20
0.0091828453892920138
30
0
10
0.4037506314119193
20
0.03530565062963717
30
0
10
0.60609284441577493
20
0.048508651816408239
30
0
10
0.8086902030208043
20
0.044005688603117113
30
0
10
1.0114846548201037
20
0.025332131826196255
30
0
10
1.2143780055315401
20
-0.0015226090461062185
30
0
10
1.4172235051401567
20
-0.027612075730877872
30
0
10
1.6198594715987311
20
-0.043351099313688149
30
0
10
1.8221414761225803
20
-0.040744547867885637
30
0
10
2.0239738983568638
20
-0.015559713634255783
30
0
10
2.2253446543213808
20
0.030252254252774904
30
0
10
2.4263507139324392
20
0.086850999001411494
30
0
10
2.6271488929066384
20
0.14059104422238097
30
0
10
2.827912808821933
20
0.17763201877964288
30
0
10
3.0287894663185617
20
0.18757662975658232
30
0
10
3.2298515161759962
20
0.16745512370620272
30
0
10
3.4310642159223392
20
0.12454872667746753
30
0
10
3.6323475634940539
20
0.071590150837031505
30
0
10
3.8336298113300789
20
0.022715933770973196
30
0
10
4.0349002290432265
20
-0.010656279856016283
30
0
10
4.236271800403185
20
-0.024408759941722181
30
0
10
4.4380117733096345
20
-0.02467817001649978
30
0
10
4.6404102746364835
20
-0.022388225666471282
30
0
10
4.8436651123151115
20
-0.028711122484296778
30
0
10
5.0477698792694392
20
-0.050524407967505111
30
0
10
5.2523771660543161
20
-0.085033232001632847
30
0
10
5.4567426004643762
20
-0.11728337163523114
30
0
10
5.6599480566745228
20
-0.12767782986329942
30
0
10
5.8610847337232315
20
-0.098109479709630035
30
0
10
6.0594395844271691
20
-0.018084832441516742
30
0
10
6.2547100218497214
20
0.10781957923137286
30
0
10
6.4471127015702043
20
0.25728291627643202
30
0
10
6.6372213610544968
20
0.39965613747807971
30
0
10
6.825858092324153
20
0.50306390832811432
30
0
10
7.0139650187777791
20
0.54228012399173897
30
0
10
7.2024829167359696
20
0.5066075578231084
30
0
10
7.392232392918439
20
0.40687104513417122
30
0
10
7.583880658844758
20
0.26740255619567516
30
0
10
7.7779030214208467
20
0.11908492722249733
30
0
10
7.9745439924249855
20
-0.0081361756369332187
30
0
10
8.1737822225933314
20
-0.09215782632834052
30
0
10
8.3752814961150541
20
-0.12682809519863542
30
0
10
8.5784814253373494
20
-0.1185993071738818
30
0
10
8.7827058106185714
20
-0.081722072073232926
30
0
10
8.9872653408930425
20
-0.033940509440504849
30
0
10
9.1915601702984802
20
0.0079191369631788008
30
0
10
9.3951890549360311
20
0.032556616769628337
30
0
10
9.5979144329765074
20
0.03329246800053412
30
0
10
9.7592778947453578
20
0.012109958861392357
30
0
10
9.8798240982890775
20
-0.016500052981778587
30
0
10
9.9599766326367511
20
-0.041224797678655924
30
0
10
10
20
-0.055000000000000049
30
0
0
SPLINE
5
104
100
AcDbEntity
8
0
100
AcDbSpline
70
4
71
5
72
61
73
55
74
0
42
0.000000001
43
0.0000000001
44
0.0000000001
40
0
40
0
40
0
40
0
40
0
40
0
40
0.02
40
0.040000000000000001
40
0.059999999999999998
40
0.080000000000000002
40
0.10000000000000001
40
0.12000000000000001
40
0.14000000000000001
40
0.16
40
0.17999999999999999
40
0.19999999999999998
40
0.21999999999999997
40
0.23999999999999996
40
0.25999999999999995
40
0.27999999999999997
40
0.29999999999999999
40
0.32000000000000001
40
0.34000000000000002
40
0.36000000000000004
40
0.38000000000000006
40
0.40000000000000008
40
0.4200000000000001
40
0.44000000000000011
40
0.46000000000000013
40
0.48000000000000015
40
0.50000000000000011
40
0.52000000000000013
40
0.54000000000000015
40
0.56000000000000016
40
0.58000000000000018
40
0.6000000000000002
40
0.62000000000000022
40
0.64000000000000024
40
0.66000000000000025
40
0.68000000000000027
40
0.70000000000000029
40
0.72000000000000031
40
0.74000000000000032
40
0.76000000000000034
40
0.78000000000000036
40
0.80000000000000038
40
0.8200000000000004
40
0.84000000000000041
40
0.86000000000000043
40
0.88000000000000045
40
0.90000000000000047
40
0.92000000000000048
40
0.9400000000000005
40
0.96000000000000052
40
0.98000000000000054
40
1
40
1
40
1
40
1
40
1
40
1
41
1
41
1
41
1
41
1
41
1
41
1
41
1
41
1
41
1
41
1
41
1
41
1
41
1
41
1
41
1
41
1
41
1
41
1
41
1
41
1
41
1
41
1
41
1
41
1
41
1
41
1
41
1
41
1
41
1
41
1
41
1
41
1
41
1
41
1
41
1
41
1
41
1
41
1
41
1
41
1
41
1
41
1
41
1
41
1
41
1
41
1
41
1
41
1
41
1
41
1
41
1
41
1
41
1
41
1
41
1
10
0
20
3.0549999999999997
30
0
10
0.042349947390391662
20
3.0786474316763019
30
0
10
0.12675758017020627
20
3.1208107962890761
30
0
10
0.25249223579281183
20
3.168661130115153
30
0
10
0.41838377913338548
20
3.2016539673283924
30
0
10
0.6228669354579156
20
3.1927170770346165
30
0
10
0.82461111932320375
20
3.1373456242743507
30
0
10
1.0239077424839791
20
3.0431243677941633
30
0
10
1.221255663523001
20
2.9229837555998222
30
0
10
1.4173976469775409
20
2.7960750541533934
30
0
10
1.6131782687160272
20
2.6835283108723882
30
0
10
1.8094180110432512
20
2.6046689632657039
30
0
10
2.0067824583346754
20
2.5730980670251613
30
0
10
2.2056503378419374
20
2.5927207426588872
30
0
10
2.4059894630211671
20
2.6540407242448993
30
0
10
2.6075089149882169
20
2.7395883907783642
30
0
10
2.8098030765840489
20
2.8290827376707384
30
0
10
3.0124958648603002
20
2.9045990028562345
30
0
10
3.2153904114073635
20
2.9559261903676899
30
0
10
3.4186010397956252
20
2.9853250435807861
30
0
10
3.6223892733177316
20
3.0021697788608526
30
0
10
3.8270118124420667
20
3.0180172017027056
30
0
10
4.032571598557861
20
3.0417546030824978
30
0
10
4.2388497082826788
20
3.0741742247868133
30
0
10
4.4451964660877943
20
3.1043586348261436
30
0
10
4.6507583841571138
20
3.1162769125097061
30
0
10
4.8546702765943337
20
3.0943658437699231
30
0
10
5.056248541424285
20
3.0290462796663342
30
0
10
5.255213022362839
20
2.9233547112670144
30
0
10
5.4518060459938011
20
2.7957039376043449
30
0
10
5.6466213225724671
20
2.6718986107695653
30
0
10
5.8404867714026754
20
2.5790278928337953
30
0
10
6.0343283716975096
20
2.5389007064372358
30
0
10
6.2290387505506981
20
2.5610125426386321
30
0
10
6.425355220738723
20
2.6376430506854645
30
0
10
6.623809004924567
20
2.7502684071554273
30
0
10
6.8246617797800235
20
2.8745065575972939
30
0
10
7.0278513336442741
20
2.9854914837835271
30
0
10
7.2329209733994082
20
3.063341322632172
30
0
10
7.4389881915547971
20
3.0977643467214211
30
0
10
7.6449650055980944
20
3.086096786322666
30
0
10
7.8497569448752458
20
3.0320709741678211
30
0
10
8.0524580957362506
20
2.9443256549225287
30
0
10
8.252576441963571
20
2.8350310373058147
30
0
10
8.4501584595921635
20
2.7185127565668958
30
0
10
8.6456015211803052
20
2.610052579542395
30
0
10
8.8395198759495539
20
2.5246345575389006
30
0
10
9.0325943392330981
20
2.4757569399345885
30
0
10
9.2254196658345009
20
2.4741092372663571
30
0
10
9.4183815733366973
20
2.5266074324071672
30
0
10
9.6117135442432513
20
2.6373313572669521
30
0
10
9.7667668671340309
20
2.7740391437167271
30
0
10
9.8832920509966176
20
2.9038988279983835
30
0
10
9.9610799432999411
20
3.0026099352225617
30
0
10
10
20
3.0549999999999997
30
0
0
ENDSEC
0
SECTION
2
OBJECTS
0
DICTIONARY
5
C
100
AcDbDictionary
3
ACAD_GROUP
350
D
3
ACAD_MLINESTYLE
350
17
0
DICTIONARY
5
D
100
AcDbDictionary
0
DICTIONARY
5
1A
330
C
100
AcDbDictionary
0
DICTIONARY
5
17
100
AcDbDictionary
0
ENDSEC
0
EOF
