0
SECTION
2
HEADER
9
$INSUNITS
70
4
9
$ACADVER
1
AC1014
9
$HANDSEED
5
FFFF
0
ENDSEC
0
SECTION
2
TABLES
0
TABLE
2
VPORT
5
8
100
AcDbSymbolTable
0
ENDTAB
0
TABLE
2
LTYPE
5
5
100
AcDbSymbolTable
0
LTYPE
5
14
100
AcDbSymbolTableRecord
100
AcDbLinetypeTableRecord
2
BYBLOCK
70
0
0
LTYPE
5
15
100
AcDbSymbolTableRecord
100
AcDbLinetypeTableRecord
2
BYLAYER
70
0
0
ENDTAB
0
TABLE
2
LAYER
5
2
100
AcDbSymbolTable
70
2
0
LAYER
5
50
100
AcDbSymbolTableRecord
100
AcDbLayerTableRecord
2
0
70
0
6
CONTINUOUS
0
ENDTAB
0
TABLE
2
STYLE
5
3
100
AcDbSymbolTable
70
1
0
STYLE
5
11
100
AcDbSymbolTableRecord
100
AcDbTextStyleTableRecord
2
STANDARD
70
0
0
ENDTAB
0
TABLE
2
VIEW
5
6
100
AcDbSymbolTable
70
0
0
ENDTAB
0
TABLE
2
UCS
5
7
100
AcDbSymbolTable
70
0
0
ENDTAB
0
TABLE
2
APPID
5
9
100
AcDbSymbolTable
70
2
0
APPID
5
12
100
AcDbSymbolTableRecord
100
AcDbRegAppTableRecord
2
ACAD
70
0
0
ENDTAB
0
TABLE
2
DIMSTYLE
5
A
100
AcDbSymbolTable
70
1
0
ENDTAB
0
TABLE
2
BLOCK_RECORD
5
1
100
AcDbSymbolTable
70
1
0
BLOCK_RECORD
5
1F
100
AcDbSymbolTableRecord
100
AcDbBlockTableRecord
2
*MODEL_SPACE
0
BLOCK_RECORD
5
1B
100
AcDbSymbolTableRecord
100
AcDbBlockTableRecord
2
*PAPER_SPACE
0
ENDTAB
0
ENDSEC
0
SECTION
2
BLOCKS
0
BLOCK
5
20
100
AcDbEntity
100
AcDbBlockBegin
2
*MODEL_SPACE
0
ENDBLK
5
21
100
AcDbEntity
100
AcDbBlockEnd
0
BLOCK
5
1C
100
AcDbEntity
100
AcDbBlockBegin
2
*PAPER_SPACE
0
ENDBLK
5
1D
100
AcDbEntity
100
AcDbBlockEnd
0
ENDSEC
0
SECTION
2
ENTITIES
0
SPLINE
5
100
100
AcDbEntity
8
0
100
AcDbSpline
70
4
71
5
72
16
73
10
74
0
42
0.000000001
43
0.0000000001
44
0.0000000001
40
0
40
0
40
0
40
0
40
0
40
0
40
0.20000000000000001
40
0.40000000000000002
40
0.60000000000000009
40
0.80000000000000004
40
1
40
1
40
1
40
1
40
1
40
1
41
1
41
1
41
1
41
1
41
1
41
1
41
1
41
1
41
1
41
1
10
0
20
-0.055000000000000049
30
0
10
0
20
0.069400000000207365
30
0
10
0
20
0.31820000000056603
30
0
10
0
20
0.69140000000093593
30
0
10
0
20
1.1890000000011365
30
0
10
0
20
1.8110000000010393
30
0
10
0
20
2.3086000000007481
30
0
10
0
20
2.6818000000004227
30
0
10
0
20
2.9306000000001484
30
0
10
0
20
3.0549999999999997
30
0
0
SPLINE
5
101
100
AcDbEntity
8
0
100
AcDbSpline
70
4
71
5
72
16
73
10
74
0
42
0.000000001
43
0.0000000001
44
0.0000000001
40
0
40
0
40
0
40
0
40
0
40
0
40
0.20000000000000001
40
0.40000000000000002
40
0.60000000000000009
40
0.80000000000000004
40
1
40
1
40
1
40
1
40
1
40
1
41
1
41
1
41
1
41
1
41
1
41
1
41
1
41
1
41
1
41
1
10
10
20
-0.055000000000000049
30
0
10
9.9999999999997495
20
0.069400000000207365
30
0
10
9.9999999999993197
20
0.31820000000056603
30
0
10
9.9999999999989129
20
0.69140000000093593
30
0
10
9.9999999999987672
20
1.1890000000011365
30
0
10
9.9999999999990248
20
1.8110000000010393
30
0
10
9.9999999999993889
20
2.3086000000007481
30
0
10
9.9999999999996998
20
2.6818000000004227
30
0
10
9.9999999999999005
20
2.9306000000001484
30
0
10
10
20
3.0549999999999997
30
0
0
SPLINE
5
102
100
AcDbEntity
8
0
100
AcDbSpline
70
4
71
5
72
16
73
10
74
0
42
0.000000001
43
0.0000000001
44
0.0000000001
40
0
40
0
40
0
40
0
40
0
40
0
40
0.20000000000000001
40
0.40000000000000002
40
0.60000000000000009
40
0.80000000000000004
40
1
40
1
40
1
40
1
40
1
40
1
41
1
41
1
41
1
41
1
41
1
41
1
41
1
41
1
41
1
41
1
10
0
20
1.5274999999999999
30
0
10
0.40000000000047375
20
1.5274999999999856
30
0
10
1.2000000000012774
20
1.5274999999999614
30
0
10
2.4000000000020547
20
1.527499999999943
30
0
10
4.0000000000023546
20
1.5274999999999479
30
0
10
6.0000000000019584
20
1.5274999999999812
30
0
10
7.6000000000012928
20
1.5275000000000025
30
0
10
8.800000000000697
20
1.5275000000000083
30
0
10
9.6000000000002395
20
1.5275000000000039
30
0
10
10
20
1.5274999999999999
30
0
0
SPLINE
5
103
100
AcDbEntity
8
0
100
AcDbSpline
70
4
71
5
72
61
73
55
74
0
42
0.000000001
43
0.0000000001
44
0.0000000001
40
0
40
0
40
0
40
0
40
0
40
0
40
0.02
40
0.040000000000000001
40
0.059999999999999998
40
0.080000000000000002
40
0.10000000000000001
40
0.12000000000000001
40
0.14000000000000001
40
0.16
40
0.17999999999999999
40
0.19999999999999998
40
0.21999999999999997
40
0.23999999999999996
40
0.25999999999999995
40
0.27999999999999997
40
0.29999999999999999
40
0.32000000000000001
40
0.34000000000000002
40
0.36000000000000004
40
0.38000000000000006
40
0.40000000000000008
40
0.4200000000000001
40
0.44000000000000011
40
0.46000000000000013
40
0.48000000000000015
40
0.50000000000000011
40
0.52000000000000013
40
0.54000000000000015
40
0.56000000000000016
40
0.58000000000000018
40
0.6000000000000002
40
0.62000000000000022
40
0.64000000000000024
40
0.66000000000000025
40
0.68000000000000027
40
0.70000000000000029
40
0.72000000000000031
40
0.74000000000000032
40
0.76000000000000034
40
0.78000000000000036
40
0.80000000000000038
40
0.8200000000000004
40
0.84000000000000041
40
0.86000000000000043
40
0.88000000000000045
40
0.90000000000000047
40
0.92000000000000048
40
0.9400000000000005
40
0.96000000000000052
40
0.98000000000000054
40
1
40
1
40
1
40
1
40
1
40
1
41
1
41
1
41
1
41
1
41
1
41
1
41
1
41
1
41
1
41
1
41
1
41
1
41
1
41
1
41
1
41
1
41
1
41
1
41
1
41
1
41
1
41
1
41
1
41
1
41
1
41
1
41
1
41
1
41
1
41
1
41
1
41
1
41
1
41
1
41
1
41
1
41
1
41
1
41
1
41
1
41
1
41
1
41
1
41
1
41
1
41
1
41
1
41
1
41
1
41
1
41
1
41
1
41
1
41
1
41
1
10
0
20
-0.055000000000000049
30
0
10
0.039184712945733384
20
-0.046578699037858773
30
0
10
0.1176712500549647
20
-0.029242294110188232
30
0
10
0.23575238839266344
20
-0.0017563069392109065
30
0
10
0.3938970378355966
20
0.037856622150413147
30
0
10
0.5927285058788635
20
0.091790989287745761
30
0
10
0.79264245126522326
20
0.14855772947317067
30
0
10
0.99349862718602011
20
0.20495911217638299
30
0
10
1.1950604489547521
20
0.25566350426122308
30
0
10
1.3969678400698948
20
0.29259808680408783
30
0
10
1.5988079081081796
20
0.30731026326927707
30
0
10
1.8001884194546045
20
0.29341707607354656
30
0
10
2.0008102004317143
20
0.2490246441499761
30
0
10
2.2005403120274782
20
0.1791761357535181
30
0
10
2.3994849974297279
20
0.098292266158700445
30
0
10
2.5979000091508579
20
0.025310820337883618
30
0
10
2.7961019414352699
20
-0.021127556865670766
30
0
10
2.9943788514497305
20
-0.027544812338545447
30
0
10
3.1929025275936782
20
0.009604403083879734
30
0
10
3.3916361432408548
20
0.078866690125559205
30
0
10
3.590415314109801
20
0.15963307857187528
30
0
10
3.7890327764488312
20
0.22820681357302922
30
0
10
3.987322833018375
20
0.2638573623560147
30
0
10
4.1852430215548884
20
0.25469609491005607
30
0
10
4.3829651411039769
20
0.20415494260497558
30
0
10
4.580794697894337
20
0.12640696123833162
30
0
10
4.779080709869751
20
0.041152810442950952
30
0
10
4.9781273216330559
20
-0.03143069846486831
30
0
10
5.1781088639134323
20
-0.0756050173479174
30
0
10
5.3789717422181118
20
-0.085583824885938645
30
0
10
5.5804931042833852
20
-0.063702636437417387
30
0
10
5.7823565426350694
20
-0.017777538214631808
30
0
10
5.9842221805817442
20
0.041246552406405089
30
0
10
6.185797197326071
20
0.10171862008164392
30
0
10
6.3869110603770496
20
0.15377643378300537
30
0
10
6.5875020478892896
20
0.18986613063392982
30
0
10
6.7875967596438667
20
0.20509193929476682
30
0
10
6.9872924951674289
20
0.19765045361534983
30
0
10
7.1867385073197374
20
0.16920274659790002
30
0
10
7.3861182794425204
20
0.12537799033049321
30
0
10
7.5856241119904455
20
0.074196602498886349
30
0
10
7.7854315714140085
20
0.024382419357852639
30
0
10
7.9856735198180262
20
-0.016304743925746126
30
0
10
8.1864152131870043
20
-0.042693648447795898
30
0
10
8.3876260791349306
20
-0.053992871716597099
30
0
10
8.5892056706580764
20
-0.052708853066161909
30
0
10
8.7910131878535953
20
-0.043371330467558769
30
0
10
8.9928957250624109
20
-0.031328811862598879
30
0
10
9.1947166359316306
20
-0.02153262980752264
30
0
10
9.3963848371088172
20
-0.017285991368962368
30
0
10
9.5978463082429819
20
-0.020547047575087993
30
0
10
9.7588287487554624
20
-0.029936304066738126
30
0
10
9.8794566926635561
20
-0.040931665684015718
30
0
10
9.9598269581365759
20
-0.050017892987999114
30
0
10
10
20
-0.055000000000000049
30
0
0
SPLINE
5
104
100
AcDbEntity
8
0
100
AcDbSpline
70
4
71
5
72
61
73
55
74
0
42
0.000000001
43
0.0000000001
44
0.0000000001
40
0
40
0
40
0
40
0
40
0
40
0
40
0.02
40
0.040000000000000001
40
0.059999999999999998
40
0.080000000000000002
40
0.10000000000000001
40
0.12000000000000001
40
0.14000000000000001
40
0.16
40
0.17999999999999999
40
0.19999999999999998
40
0.21999999999999997
40
0.23999999999999996
40
0.25999999999999995
40
0.27999999999999997
40
0.29999999999999999
40
0.32000000000000001
40
0.34000000000000002
40
0.36000000000000004
40
0.38000000000000006
40
0.40000000000000008
40
0.4200000000000001
40
0.44000000000000011
40
0.46000000000000013
40
0.48000000000000015
40
0.50000000000000011
40
0.52000000000000013
40
0.54000000000000015
40
0.56000000000000016
40
0.58000000000000018
40
0.6000000000000002
40
0.62000000000000022
40
0.64000000000000024
40
0.66000000000000025
40
0.68000000000000027
40
0.70000000000000029
40
0.72000000000000031
40
0.74000000000000032
40
0.76000000000000034
40
0.78000000000000036
40
0.80000000000000038
40
0.8200000000000004
40
0.84000000000000041
40
0.86000000000000043
40
0.88000000000000045
40
0.90000000000000047
40
0.92000000000000048
40
0.9400000000000005
40
0.96000000000000052
40
0.98000000000000054
40
1
40
1
40
1
40
1
40
1
40
1
41
1
41
1
41
1
41
1
41
1
41
1
41
1
41
1
41
1
41
1
41
1
41
1
41
1
41
1
41
1
41
1
41
1
41
1
41
1
41
1
41
1
41
1
41
1
41
1
41
1
41
1
41
1
41
1
41
1
41
1
41
1
41
1
41
1
41
1
41
1
41
1
41
1
41
1
41
1
41
1
41
1
41
1
41
1
41
1
41
1
41
1
41
1
41
1
41
1
41
1
41
1
41
1
41
1
41
1
41
1
10
0
20
3.0549999999999997
30
0
10
0.038915828142917414
20
3.036818358191824
30
0
10
0.11685428285065247
20
3.0017395583374418
30
0
10
0.23408235902712957
20
2.9529748084394782
30
0
10
0.39102767625613111
20
2.8956670739113926
30
0
10
0.58826661638470767
20
2.8368582729522918
30
0
10
0.78652461570985244
20
2.7907429328261077
30
0
10
0.98572163253039347
20
2.7570174412469495
30
0
10
1.1857219336490268
20
2.7351415142761075
30
0
10
1.3863169732149196
20
2.724268660711187
30
0
10
1.5872605812286467
20
2.7232359989754977
30
0
10
1.7883074638042897
20
2.730558461937262
30
0
10
1.9892509302704191
20
2.7444182823057144
30
0
10
2.1899599619363763
20
2.7626598939853277
30
0
10
2.3904196043890407
20
2.7827689704606238
30
0
10
2.5906971618091368
20
2.8021702578439811
30
0
10
2.7909047943031813
20
2.8185400852355302
30
0
10
2.9911633046921979
20
2.8301171783509078
30
0
10
3.1915661079860831
20
2.8360082347242104
30
0
10
3.3921413656733996
20
2.8365179597284635
30
0
10
3.5928680213554687
20
2.8328510423651707
30
0
10
3.7936940106827475
20
2.8267898091125003
30
0
10
3.9945536416265561
20
2.8203819632873932
30
0
10
4.1953851151777837
20
2.8156267508350079
30
0
10
4.3961484049008268
20
2.8141575284705089
30
0
10
4.5968219121146392
20
2.8171481097373592
30
0
10
4.7973985935216596
20
2.8252245235839206
30
0
10
4.9978823234259391
20
2.8383725615435864
30
0
10
5.1982842039242358
20
2.8558468573753615
30
0
10
5.398618892223376
20
2.8760728306346066
30
0
10
5.5989047989786647
20
2.8970905143048902
30
0
10
5.7991643387548963
20
2.9170025836068776
30
0
10
5.9994241752930968
20
2.9344210182656996
30
0
10
6.19971547573107
20
2.94891454435189
30
0
10
6.4000741899955873
20
2.9614604986788566
30
0
10
6.6005326828510373
20
2.9737081598299091
30
0
10
6.8011113200249387
20
2.9872392086561037
30
0
10
7.00181007230678
20
3.0028318451146516
30
0
10
7.2025999913730825
20
3.0197166094859536
30
0
10
7.4034148501812531
20
3.0348460592408681
30
0
10
7.6041683676696614
20
3.0440907911864787
30
0
10
7.8047712333472425
20
3.0434213931196052
30
0
10
8.0051480916538083
20
3.0300878739786214
30
0
10
8.2052547912762037
20
3.0038198121444273
30
0
10
8.405094986501604
20
2.9679769476156559
30
0
10
8.6047060952897567
20
2.9283553304989378
30
0
10
8.8041459946321137
20
2.8920490890558725
30
0
10
9.0034795478497802
20
2.8662991983154291
30
0
10
9.202765154942254
20
2.8573413859343995
30
0
10
9.402041523966906
20
2.8692737600177569
30
0
10
9.6013318397803484
20
2.9045155844295549
30
0
10
9.7607844687007947
20
2.9522928428116519
30
0
10
9.8803871146238933
20
2.9993026978150765
30
0
10
9.9601280630124513
20
3.0356068557861442
30
0
10
10
20
3.0549999999999997
30
0
0
ENDSEC
0
SECTION
2
OBJECTS
0
DICTIONARY
5
C
100
AcDbDictionary
3
ACAD_GROUP
350
D
3
ACAD_MLINESTYLE
350
17
0
DICTIONARY
5
D
100
AcDbDictionary
0
DICTIONARY
5
1A
330
C
100
AcDbDictionary
0
DICTIONARY
5
17
100
AcDbDictionary
0
ENDSEC
0
EOF
