0
SECTION
2
HEADER
9
$INSUNITS
70
4
9
$ACADVER
1
AC1014
9
$HANDSEED
5
FFFF
0
ENDSEC
0
SECTION
2
TABLES
0
TABLE
2
VPORT
5
8
100
AcDbSymbolTable
0
ENDTAB
0
TABLE
2
LTYPE
5
5
100
AcDbSymbolTable
0
LTYPE
5
14
100
AcDbSymbolTableRecord
100
AcDbLinetypeTableRecord
2
BYBLOCK
70
0
0
LTYPE
5
15
100
AcDbSymbolTableRecord
100
AcDbLinetypeTableRecord
2
BYLAYER
70
0
0
ENDTAB
0
TABLE
2
LAYER
5
2
100
AcDbSymbolTable
70
2
0
LAYER
5
50
100
AcDbSymbolTableRecord
100
AcDbLayerTableRecord
2
0
70
0
6
CONTINUOUS
0
ENDTAB
0
TABLE
2
STYLE
5
3
100
AcDbSymbolTable
70
1
0
STYLE
5
11
100
AcDbSymbolTableRecord
100
AcDbTextStyleTableRecord
2
STANDARD
70
0
0
ENDTAB
0
TABLE
2
VIEW
5
6
100
AcDbSymbolTable
70
0
0
ENDTAB
0
TABLE
2
UCS
5
7
100
AcDbSymbolTable
70
0
0
ENDTAB
0
TABLE
2
APPID
5
9
100
AcDbSymbolTable
70
2
0
APPID
5
12
100
AcDbSymbolTableRecord
100
AcDbRegAppTableRecord
2
ACAD
70
0
0
ENDTAB
0
TABLE
2
DIMSTYLE
5
A
100
AcDbSymbolTable
70
1
0
ENDTAB
0
TABLE
2
BLOCK_RECORD
5
1
100
AcDbSymbolTable
70
1
0
BLOCK_RECORD
5
1F
100
AcDbSymbolTableRecord
100
AcDbBlockTableRecord
2
*MODEL_SPACE
0
BLOCK_RECORD
5
1B
100
AcDbSymbolTableRecord
100
AcDbBlockTableRecord
2
*PAPER_SPACE
0
ENDTAB
0
ENDSEC
0
SECTION
2
BLOCKS
0
BLOCK
5
20
100
AcDbEntity
100
AcDbBlockBegin
2
*MODEL_SPACE
0
ENDBLK
5
21
100
AcDbEntity
100
AcDbBlockEnd
0
BLOCK
5
1C
100
AcDbEntity
100
AcDbBlockBegin
2
*PAPER_SPACE
0
ENDBLK
5
1D
100
AcDbEntity
100
AcDbBlockEnd
0
ENDSEC
0
SECTION
2
ENTITIES
0
SPLINE
5
100
100
AcDbEntity
8
0
100
AcDbSpline
70
4
71
5
72
16
73
10
74
0
42
0.000000001
43
0.0000000001
44
0.0000000001
40
0
40
0
40
0
40
0
40
0
40
0
40
0.20000000000000001
40
0.40000000000000002
40
0.60000000000000009
40
0.80000000000000004
40
1
40
1
40
1
40
1
40
1
40
1
41
1
41
1
41
1
41
1
41
1
41
1
41
1
41
1
41
1
41
1
10
0
20
-0.055000000000000049
30
0
10
0
20
0.069400000000207365
30
0
10
0
20
0.31820000000056603
30
0
10
0
20
0.69140000000093593
30
0
10
0
20
1.1890000000011365
30
0
10
0
20
1.8110000000010393
30
0
10
0
20
2.3086000000007481
30
0
10
0
20
2.6818000000004227
30
0
10
0
20
2.9306000000001484
30
0
10
0
20
3.0549999999999997
30
0
0
SPLINE
5
101
100
AcDbEntity
8
0
100
AcDbSpline
70
4
71
5
72
16
73
10
74
0
42
0.000000001
43
0.0000000001
44
0.0000000001
40
0
40
0
40
0
40
0
40
0
40
0
40
0.20000000000000001
40
0.40000000000000002
40
0.60000000000000009
40
0.80000000000000004
40
1
40
1
40
1
40
1
40
1
40
1
41
1
41
1
41
1
41
1
41
1
41
1
41
1
41
1
41
1
41
1
10
10
20
-0.055000000000000049
30
0
10
9.9999999999997495
20
0.069400000000207365
30
0
10
9.9999999999993197
20
0.31820000000056603
30
0
10
9.9999999999989129
20
0.69140000000093593
30
0
10
9.9999999999987672
20
1.1890000000011365
30
0
10
9.9999999999990248
20
1.8110000000010393
30
0
10
9.9999999999993889
20
2.3086000000007481
30
0
10
9.9999999999996998
20
2.6818000000004227
30
0
10
9.9999999999999005
20
2.9306000000001484
30
0
10
10
20
3.0549999999999997
30
0
0
SPLINE
5
102
100
AcDbEntity
8
0
100
AcDbSpline
70
4
71
5
72
16
73
10
74
0
42
0.000000001
43
0.0000000001
44
0.0000000001
40
0
40
0
40
0
40
0
40
0
40
0
40
0.20000000000000001
40
0.40000000000000002
40
0.60000000000000009
40
0.80000000000000004
40
1
40
1
40
1
40
1
40
1
40
1
41
1
41
1
41
1
41
1
41
1
41
1
41
1
41
1
41
1
41
1
10
0
20
1.5274999999999999
30
0
10
0.40000000000047375
20
1.5274999999999856
30
0
10
1.2000000000012774
20
1.5274999999999614
30
0
10
2.4000000000020547
20
1.527499999999943
30
0
10
4.0000000000023546
20
1.5274999999999479
30
0
10
6.0000000000019584
20
1.5274999999999812
30
0
10
7.6000000000012928
20
1.5275000000000025
30
0
10
8.800000000000697
20
1.5275000000000083
30
0
10
9.6000000000002395
20
1.5275000000000039
30
0
10
10
20
1.5274999999999999
30
0
0
SPLINE
5
103
100
AcDbEntity
8
0
100
AcDbSpline
70
4
71
5
72
61
73
55
74
0
42
0.000000001
43
0.0000000001
44
0.0000000001
40
0
40
0
40
0
40
0
40
0
40
0
40
0.02
40
0.040000000000000001
40
0.059999999999999998
40
0.080000000000000002
40
0.10000000000000001
40
0.12000000000000001
40
0.14000000000000001
40
0.16
40
0.17999999999999999
40
0.19999999999999998
40
0.21999999999999997
40
0.23999999999999996
40
0.25999999999999995
40
0.27999999999999997
40
0.29999999999999999
40
0.32000000000000001
40
0.34000000000000002
40
0.36000000000000004
40
0.38000000000000006
40
0.40000000000000008
40
0.4200000000000001
40
0.44000000000000011
40
0.46000000000000013
40
0.48000000000000015
40
0.50000000000000011
40
0.52000000000000013
40
0.54000000000000015
40
0.56000000000000016
40
0.58000000000000018
40
0.6000000000000002
40
0.62000000000000022
40
0.64000000000000024
40
0.66000000000000025
40
0.68000000000000027
40
0.70000000000000029
40
0.72000000000000031
40
0.74000000000000032
40
0.76000000000000034
40
0.78000000000000036
40
0.80000000000000038
40
0.8200000000000004
40
0.84000000000000041
40
0.86000000000000043
40
0.88000000000000045
40
0.90000000000000047
40
0.92000000000000048
40
0.9400000000000005
40
0.96000000000000052
40
0.98000000000000054
40
1
40
1
40
1
40
1
40
1
40
1
41
1
41
1
41
1
41
1
41
1
41
1
41
1
41
1
41
1
41
1
41
1
41
1
41
1
41
1
41
1
41
1
41
1
41
1
41
1
41
1
41
1
41
1
41
1
41
1
41
1
41
1
41
1
41
1
41
1
41
1
41
1
41
1
41
1
41
1
41
1
41
1
41
1
41
1
41
1
41
1
41
1
41
1
41
1
41
1
41
1
41
1
41
1
41
1
41
1
41
1
41
1
41
1
41
1
41
1
41
1
10
0
20
-0.055000000000000049
30
0
10
0.039619407551134168
20
-0.020533713944229991
30
0
10
0.11883763981465428
20
0.04384111273318099
30
0
10
0.23760324049050241
20
0.12673017494341343
30
0
10
0.39583379187420764
20
0.20988424517135634
30
0
10
0.59342585988139251
20
0.26891012450931995
30
0
10
0.79085205727429742
20
0.28526372767542474
30
0
10
0.98817378187575466
20
0.26359025938323744
30
0
10
1.1854935573933649
20
0.21172803793391715
30
0
10
1.3829672698369762
20
0.1416663656019907
30
0
10
1.5807745658552772
20
0.067447247987005632
30
0
10
1.7790872491138816
20
0.002919361490938896
30
0
10
1.9780376455480499
20
-0.040502865110956937
30
0
10
2.1776886048898443
20
-0.055973421335418799
30
0
10
2.3779980339287103
20
-0.04370984476420256
30
0
10
2.5788460213886335
20
-0.009332011726988167
30
0
10
2.7800687245215299
20
0.038252379541546561
30
0
10
2.9814900998319698
20
0.088809215836292976
30
0
10
3.1829535324120597
20
0.1327539033406761
30
0
10
3.3843560435026889
20
0.16323987227332706
30
0
10
3.585642302730407
20
0.17633765699973381
30
0
10
3.7867948729906535
20
0.17102719579646317
30
0
10
3.9878259496497028
20
0.14928074233585908
30
0
10
4.188768501878263
20
0.11608195544644961
30
0
10
4.3896678987407247
20
0.079573787342738345
30
0
10
4.5905700019848608
20
0.049073131623663724
30
0
10
4.7915091953926767
20
0.032976210051897187
30
0
10
4.9924962371951862
20
0.036679600601274787
30
0
10
5.1935065323909493
20
0.060540038812883008
30
0
10
5.3944670425814358
20
0.097662220768779728
30
0
10
5.5952831777387546
20
0.13691394265496462
30
0
10
5.7958669780261927
20
0.16611135471359706
30
0
10
5.9961649782885376
20
0.1751506857822886
30
0
10
6.1961859308622413
20
0.15913366533379825
30
0
10
6.3960297179155488
20
0.12159658930086865
30
0
10
6.5958499663783208
20
0.071674470314085553
30
0
10
6.7958156356112065
20
0.021170010706951972
30
0
10
6.9960729058752049
20
-0.018342524639791594
30
0
10
7.1967072475538894
20
-0.038403498538625264
30
0
10
7.3977043271916791
20
-0.036627570388554138
30
0
10
7.5989773478337312
20
-0.015237869490152076
30
0
10
7.8003954490807317
20
0.020470908867680739
30
0
10
8.0018115320854228
20
0.063631497710972484
30
0
10
8.2030903411700109
20
0.10731715791346699
30
0
10
8.4041362041097969
20
0.14603562181016119
30
0
10
8.6048855971045732
20
0.17554008034944352
30
0
10
8.8053000309167349
20
0.19265494704540478
30
0
10
9.0053589177284685
20
0.19509956278792931
30
0
10
9.2050524660892936
20
0.18131535375377278
30
0
10
9.4043747350539757
20
0.15029510459591447
30
0
10
9.6033227843565516
20
0.10146448885596826
30
0
10
9.7621811125136553
20
0.047943675345564277
30
0
10
9.881156130250826
20
-0.0003569055504686131
30
0
10
9.9603978670304549
20
-0.036181586294418734
30
0
10
10
20
-0.055000000000000049
30
0
0
SPLINE
5
104
100
AcDbEntity
8
0
100
AcDbSpline
70
4
71
5
72
61
73
55
74
0
42
0.000000001
43
0.0000000001
44
0.0000000001
40
0
40
0
40
0
40
0
40
0
40
0
40
0.02
40
0.040000000000000001
40
0.059999999999999998
40
0.080000000000000002
40
0.10000000000000001
40
0.12000000000000001
40
0.14000000000000001
40
0.16
40
0.17999999999999999
40
0.19999999999999998
40
0.21999999999999997
40
0.23999999999999996
40
0.25999999999999995
40
0.27999999999999997
40
0.29999999999999999
40
0.32000000000000001
40
0.34000000000000002
40
0.36000000000000004
40
0.38000000000000006
40
0.40000000000000008
40
0.4200000000000001
40
0.44000000000000011
40
0.46000000000000013
40
0.48000000000000015
40
0.50000000000000011
40
0.52000000000000013
40
0.54000000000000015
40
0.56000000000000016
40
0.58000000000000018
40
0.6000000000000002
40
0.62000000000000022
40
0.64000000000000024
40
0.66000000000000025
40
0.68000000000000027
40
0.70000000000000029
40
0.72000000000000031
40
0.74000000000000032
40
0.76000000000000034
40
0.78000000000000036
40
0.80000000000000038
40
0.8200000000000004
40
0.84000000000000041
40
0.86000000000000043
40
0.88000000000000045
40
0.90000000000000047
40
0.92000000000000048
40
0.9400000000000005
40
0.96000000000000052
40
0.98000000000000054
40
1
40
1
40
1
40
1
40
1
40
1
41
1
41
1
41
1
41
1
41
1
41
1
41
1
41
1
41
1
41
1
41
1
41
1
41
1
41
1
41
1
41
1
41
1
41
1
41
1
41
1
41
1
41
1
41
1
41
1
41
1
41
1
41
1
41
1
41
1
41
1
41
1
41
1
41
1
41
1
41
1
41
1
41
1
41
1
41
1
41
1
41
1
41
1
41
1
41
1
41
1
41
1
41
1
41
1
41
1
41
1
41
1
41
1
41
1
41
1
41
1
10
0
20
3.0549999999999997
30
0
10
0.039843235845126716
20
3.0284409613503112
30
0
10
0.11955268577999266
20
2.9791460365304507
30
0
10
0.23918579539134507
20
2.9166730991938876
30
0
10
0.39883456766087899
20
2.8563297610441434
30
0
10
0.59862234121213698
20
2.8183603347272483
30
0
10
0.79862664449233578
20
2.8153096312426791
30
0
10
0.99882621108103797
20
2.8419749690388225
30
0
10
1.199184949909273
20
2.8895761060942777
30
0
10
1.3996480151930315
20
2.9448119917073079
30
0
10
1.6001497663760764
20
2.9928639091998779
30
0
10
1.8006217676695071
20
3.0204179223823377
30
0
10
2.0010007546103741
20
3.0186777802524607
30
0
10
2.201236630801259
20
2.9864023510856392
30
0
10
2.4013004610869757
20
2.9329242474371213
30
0
10
2.6011861356554151
20
2.8736935967742099
30
0
10
2.8009121125056602
20
2.8258651448510221
30
0
10
3.0005231932863725
20
2.8038798814298493
30
0
10
3.2000923771752405
20
2.8150390060182859
30
0
10
3.3997227183024901
20
2.855080732127862
30
0
10
3.5995268037816368
20
2.9121897457582957
30
0
10
3.7996062988091954
20
2.9709715177601663
30
0
10
4.0000314531518413
20
3.0164260883248
30
0
10
4.200820536242392
20
3.0379210583642098
30
0
10
4.4019191934337059
20
3.0331704504163088
30
0
10
4.6032246956618508
20
3.0059375638105768
30
0
10
4.8046101133320711
20
2.9637485987269634
30
0
10
5.0059483295114671
20
2.9156252201703796
30
0
10
5.2071363288299928
20
2.869791183275229
30
0
10
5.4081187658975018
20
2.8314582087799556
30
0
10
5.6088829478338624
20
2.8035316996564656
30
0
10
5.8094547160717163
20
2.7872409235207112
30
0
10
6.0098939487164191
20
2.7827844674799334
30
0
10
6.2102906863465748
20
2.789983442261609
30
0
10
6.4107600826170774
20
2.8088792122070898
30
0
10
6.6114138261377162
20
2.8391134895059618
30
0
10
6.8123321856286969
20
2.879348627610447
30
0
10
7.0135364441643633
20
2.926691397315027
30
0
10
7.2149594197967026
20
2.9760621186100922
30
0
10
7.4164211052074815
20
3.0197199159365793
30
0
10
7.6176833961842956
20
3.0491888133319041
30
0
10
7.8185007896704004
20
3.0570698821859561
30
0
10
8.0186714592894699
20
3.0388523830523892
30
0
10
8.2180907990698433
20
2.9948392361563645
30
0
10
8.4167968645588402
20
2.93172942064361
30
0
10
8.6149244190692169
20
2.8603623748237217
30
0
10
8.8126659145073472
20
2.7937511679267555
30
0
10
9.0102303718176913
20
2.7450313742647987
30
0
10
9.2078024578579907
20
2.7254058981209224
30
0
10
9.4055036775876051
20
2.7422056875699452
30
0
10
9.6034067662843974
20
2.7997710938260454
30
0
10
9.7619194018453896
20
2.880113422727832
30
0
10
9.8809160926764115
20
2.9599481316108549
30
0
10
9.9602970578084378
20
3.0218667861000714
30
0
10
10
20
3.0549999999999997
30
0
0
ENDSEC
0
SECTION
2
OBJECTS
0
DICTIONARY
5
C
100
AcDbDictionary
3
ACAD_GROUP
350
D
3
ACAD_MLINESTYLE
350
17
0
DICTIONARY
5
D
100
AcDbDictionary
0
DICTIONARY
5
1A
330
C
100
AcDbDictionary
0
DICTIONARY
5
17
100
AcDbDictionary
0
ENDSEC
0
EOF
