0
SECTION
2
HEADER
9
$INSUNITS
70
4
9
$ACADVER
1
AC1014
9
$HANDSEED
5
FFFF
0
ENDSEC
0
SECTION
2
TABLES
0
TABLE
2
VPORT
5
8
100
AcDbSymbolTable
0
ENDTAB
0
TABLE
2
LTYPE
5
5
100
AcDbSymbolTable
0
LTYPE
5
14
100
AcDbSymbolTableRecord
100
AcDbLinetypeTableRecord
2
BYBLOCK
70
0
0
LTYPE
5
15
100
AcDbSymbolTableRecord
100
AcDbLinetypeTableRecord
2
BYLAYER
70
0
0
ENDTAB
0
TABLE
2
LAYER
5
2
100
AcDbSymbolTable
70
2
0
LAYER
5
50
100
AcDbSymbolTableRecord
100
AcDbLayerTableRecord
2
0
70
0
6
CONTINUOUS
0
ENDTAB
0
TABLE
2
STYLE
5
3
100
AcDbSymbolTable
70
1
0
STYLE
5
11
100
AcDbSymbolTableRecord
100
AcDbTextStyleTableRecord
2
STANDARD
70
0
0
ENDTAB
0
TABLE
2
VIEW
5
6
100
AcDbSymbolTable
70
0
0
ENDTAB
0
TABLE
2
UCS
5
7
100
AcDbSymbolTable
70
0
0
ENDTAB
0
TABLE
2
APPID
5
9
100
AcDbSymbolTable
70
2
0
APPID
5
12
100
AcDbSymbolTableRecord
100
AcDbRegAppTableRecord
2
ACAD
70
0
0
ENDTAB
0
TABLE
2
DIMSTYLE
5
A
100
AcDbSymbolTable
70
1
0
ENDTAB
0
TABLE
2
BLOCK_RECORD
5
1
100
AcDbSymbolTable
70
1
0
BLOCK_RECORD
5
1F
100
AcDbSymbolTableRecord
100
AcDbBlockTableRecord
2
*MODEL_SPACE
0
BLOCK_RECORD
5
1B
100
AcDbSymbolTableRecord
100
AcDbBlockTableRecord
2
*PAPER_SPACE
0
ENDTAB
0
ENDSEC
0
SECTION
2
BLOCKS
0
BLOCK
5
20
100
AcDbEntity
100
AcDbBlockBegin
2
*MODEL_SPACE
0
ENDBLK
5
21
100
AcDbEntity
100
AcDbBlockEnd
0
BLOCK
5
1C
100
AcDbEntity
100
AcDbBlockBegin
2
*PAPER_SPACE
0
ENDBLK
5
1D
100
AcDbEntity
100
AcDbBlockEnd
0
ENDSEC
0
SECTION
2
ENTITIES
0
SPLINE
5
100
100
AcDbEntity
8
0
100
AcDbSpline
70
4
71
5
72
16
73
10
74
0
42
0.000000001
43
0.0000000001
44
0.0000000001
40
0
40
0
40
0
40
0
40
0
40
0
40
0.20000000000000001
40
0.40000000000000002
40
0.60000000000000009
40
0.80000000000000004
40
1
40
1
40
1
40
1
40
1
40
1
41
1
41
1
41
1
41
1
41
1
41
1
41
1
41
1
41
1
41
1
10
0
20
-0.055000000000000049
30
0
10
0
20
0.069400000000207365
30
0
10
0
20
0.31820000000056603
30
0
10
0
20
0.69140000000093593
30
0
10
0
20
1.1890000000011365
30
0
10
0
20
1.8110000000010393
30
0
10
0
20
2.3086000000007481
30
0
10
0
20
2.6818000000004227
30
0
10
0
20
2.9306000000001484
30
0
10
0
20
3.0549999999999997
30
0
0
SPLINE
5
101
100
AcDbEntity
8
0
100
AcDbSpline
70
4
71
5
72
16
73
10
74
0
42
0.000000001
43
0.0000000001
44
0.0000000001
40
0
40
0
40
0
40
0
40
0
40
0
40
0.20000000000000001
40
0.40000000000000002
40
0.60000000000000009
40
0.80000000000000004
40
1
40
1
40
1
40
1
40
1
40
1
41
1
41
1
41
1
41
1
41
1
41
1
41
1
41
1
41
1
41
1
10
10
20
-0.055000000000000049
30
0
10
9.9999999999997495
20
0.069400000000207365
30
0
10
9.9999999999993197
20
0.31820000000056603
30
0
10
9.9999999999989129
20
0.69140000000093593
30
0
10
9.9999999999987672
20
1.1890000000011365
30
0
10
9.9999999999990248
20
1.8110000000010393
30
0
10
9.9999999999993889
20
2.3086000000007481
30
0
10
9.9999999999996998
20
2.6818000000004227
30
0
10
9.9999999999999005
20
2.9306000000001484
30
0
10
10
20
3.0549999999999997
30
0
0
SPLINE
5
102
100
AcDbEntity
8
0
100
AcDbSpline
70
4
71
5
72
16
73
10
74
0
42
0.000000001
43
0.0000000001
44
0.0000000001
40
0
40
0
40
0
40
0
40
0
40
0
40
0.20000000000000001
40
0.40000000000000002
40
0.60000000000000009
40
0.80000000000000004
40
1
40
1
40
1
40
1
40
1
40
1
41
1
41
1
41
1
41
1
41
1
41
1
41
1
41
1
41
1
41
1
10
0
20
1.5274999999999999
30
0
10
0.40000000000047375
20
1.5274999999999856
30
0
10
1.2000000000012774
20
1.5274999999999614
30
0
10
2.4000000000020547
20
1.527499999999943
30
0
10
4.0000000000023546
20
1.5274999999999479
30
0
10
6.0000000000019584
20
1.5274999999999812
30
0
10
7.6000000000012928
20
1.5275000000000025
30
0
10
8.800000000000697
20
1.5275000000000083
30
0
10
9.6000000000002395
20
1.5275000000000039
30
0
10
10
20
1.5274999999999999
30
0
0
SPLINE
5
103
100
AcDbEntity
8
0
100
AcDbSpline
70
4
71
5
72
61
73
55
74
0
42
0.000000001
43
0.0000000001
44
0.0000000001
40
0
40
0
40
0
40
0
40
0
40
0
40
0.02
40
0.040000000000000001
40
0.059999999999999998
40
0.080000000000000002
40
0.10000000000000001
40
0.12000000000000001
40
0.14000000000000001
40
0.16
40
0.17999999999999999
40
0.19999999999999998
40
0.21999999999999997
40
0.23999999999999996
40
0.25999999999999995
40
0.27999999999999997
40
0.29999999999999999
40
0.32000000000000001
40
0.34000000000000002
40
0.36000000000000004
40
0.38000000000000006
40
0.40000000000000008
40
0.4200000000000001
40
0.44000000000000011
40
0.46000000000000013
40
0.48000000000000015
40
0.50000000000000011
40
0.52000000000000013
40
0.54000000000000015
40
0.56000000000000016
40
0.58000000000000018
40
0.6000000000000002
40
0.62000000000000022
40
0.64000000000000024
40
0.66000000000000025
40
0.68000000000000027
40
0.70000000000000029
40
0.72000000000000031
40
0.74000000000000032
40
0.76000000000000034
40
0.78000000000000036
40
0.80000000000000038
40
0.8200000000000004
40
0.84000000000000041
40
0.86000000000000043
40
0.88000000000000045
40
0.90000000000000047
40
0.92000000000000048
40
0.9400000000000005
40
0.96000000000000052
40
0.98000000000000054
40
1
40
1
40
1
40
1
40
1
40
1
41
1
41
1
41
1
41
1
41
1
41
1
41
1
41
1
41
1
41
1
41
1
41
1
41
1
41
1
41
1
41
1
41
1
41
1
41
1
41
1
41
1
41
1
41
1
41
1
41
1
41
1
41
1
41
1
41
1
41
1
41
1
41
1
41
1
41
1
41
1
41
1
41
1
41
1
41
1
41
1
41
1
41
1
41
1
41
1
41
1
41
1
41
1
41
1
41
1
41
1
41
1
41
1
41
1
41
1
41
1
10
0
20
-0.055000000000000049
30
0
10
0.039516585305611876
20
-0.038276802849972646
30
0
10
0.11872514981299813
20
-0.0075421075260160243
30
0
10
0.23806418232577753
20
0.030424779694629738
30
0
10
0.39823591446579126
20
0.064766891564444429
30
0
10
0.60014525170956834
20
0.08139707733518739
30
0
10
0.80356049406205154
20
0.074357259635030495
30
0
10
1.0080996853840061
20
0.048971273580327171
30
0
10
1.2131181927075088
20
0.014232760851301651
30
0
10
1.4176502165262144
20
-0.016380921778979946
30
0
10
1.6206367804023185
20
-0.028238735040392659
30
0
10
1.8211466381372723
20
-0.0087849745986104955
30
0
10
2.0185941399334966
20
0.049277930528511343
30
0
10
2.2129729507525084
20
0.14457073471214046
30
0
10
2.4050449822139912
20
0.26428311427451268
30
0
10
2.596015433296305
20
0.3890291996093021
30
0
10
2.7872497334499107
20
0.49708728020499771
30
0
10
2.9799693178084583
20
0.56894259751996679
30
0
10
3.174969857136078
20
0.59152316746782352
30
0
10
3.3722925146947413
20
0.56306647108693131
30
0
10
3.5714303037695316
20
0.49082008114081577
30
0
10
3.771584763648411
20
0.38804634132728882
30
0
10
3.9719094106460222
20
0.2712673998430305
30
0
10
4.1717453146492858
20
0.15748342776193863
30
0
10
4.3708948849754723
20
0.0612413001160729
30
0
10
4.5695175392811525
20
-0.0064403379955401798
30
0
10
4.7679695370156452
20
-0.038817145170631437
30
0
10
4.9666601999462383
20
-0.034367886002219641
30
0
10
5.1659104547430115
20
0.0024976835537218354
30
0
10
5.3657868027105682
20
0.060165402494002512
30
0
10
5.5661583241571151
20
0.12277224176800793
30
0
10
5.7667947129994444
20
0.17387511693927934
30
0
10
5.9674521414742756
20
0.19998932270843525
30
0
10
6.1679584860292636
20
0.1939119011261177
30
0
10
6.3683137389908184
20
0.15887433702400991
30
0
10
6.5686468636341369
20
0.10566827729848685
30
0
10
6.7691470430229597
20
0.048551943382725254
30
0
10
6.9700024649693884
20
0.0014957745789938349
30
0
10
7.1713396742606452
20
-0.025488460813348865
30
0
10
7.3731528287542805
20
-0.030651194917030423
30
0
10
7.5753348734811512
20
-0.018628812167889905
30
0
10
7.7777251477416378
20
0.0024237713423077845
30
0
10
7.9801517120417138
20
0.023381045997449713
30
0
10
8.1824742594281794
20
0.036731439990038611
30
0
10
8.3846310070237315
20
0.039396263561843781
30
0
10
8.5866229195316546
20
0.031833686657321829
30
0
10
8.7884915893525228
20
0.01676604475922196
30
0
10
8.9902993935304192
20
-0.0019578589202183033
30
0
10
9.1921090785108852
20
-0.020535105443353185
30
0
10
9.3939627658003779
20
-0.036414139639231152
30
0
10
9.5958853995834197
20
-0.048083595134191387
30
0
10
9.7574885792975827
20
-0.05345087810036242
30
0
10
9.878729364739268
20
-0.055135308276039824
30
0
10
9.9595736121140668
20
-0.055218408808318881
30
0
10
10
20
-0.055000000000000049
30
0
0
SPLINE
5
104
100
AcDbEntity
8
0
100
AcDbSpline
70
4
71
5
72
61
73
55
74
0
42
0.000000001
43
0.0000000001
44
0.0000000001
40
0
40
0
40
0
40
0
40
0
40
0
40
0.02
40
0.040000000000000001
40
0.059999999999999998
40
0.080000000000000002
40
0.10000000000000001
40
0.12000000000000001
40
0.14000000000000001
40
0.16
40
0.17999999999999999
40
0.19999999999999998
40
0.21999999999999997
40
0.23999999999999996
40
0.25999999999999995
40
0.27999999999999997
40
0.29999999999999999
40
0.32000000000000001
40
0.34000000000000002
40
0.36000000000000004
40
0.38000000000000006
40
0.40000000000000008
40
0.4200000000000001
40
0.44000000000000011
40
0.46000000000000013
40
0.48000000000000015
40
0.50000000000000011
40
0.52000000000000013
40
0.54000000000000015
40
0.56000000000000016
40
0.58000000000000018
40
0.6000000000000002
40
0.62000000000000022
40
0.64000000000000024
40
0.66000000000000025
40
0.68000000000000027
40
0.70000000000000029
40
0.72000000000000031
40
0.74000000000000032
40
0.76000000000000034
40
0.78000000000000036
40
0.80000000000000038
40
0.8200000000000004
40
0.84000000000000041
40
0.86000000000000043
40
0.88000000000000045
40
0.90000000000000047
40
0.92000000000000048
40
0.9400000000000005
40
0.96000000000000052
40
0.98000000000000054
40
1
40
1
40
1
40
1
40
1
40
1
41
1
41
1
41
1
41
1
41
1
41
1
41
1
41
1
41
1
41
1
41
1
41
1
41
1
41
1
41
1
41
1
41
1
41
1
41
1
41
1
41
1
41
1
41
1
41
1
41
1
41
1
41
1
41
1
41
1
41
1
41
1
41
1
41
1
41
1
41
1
41
1
41
1
41
1
41
1
41
1
41
1
41
1
41
1
41
1
41
1
41
1
41
1
41
1
41
1
41
1
41
1
41
1
41
1
41
1
41
1
10
0
20
3.0549999999999997
30
0
10
0.040536861076498579
20
3.0637592642521883
30
0
10
0.12158092225410086
20
3.0789769333037711
30
0
10
0.24305803102819512
20
3.0949008050501252
30
0
10
0.40484942805409974
20
3.1023188378524558
30
0
10
0.60679338293268015
20
3.0892085268223961
30
0
10
0.80844775914453615
20
3.0557361711833195
30
0
10
1.0098248553034308
20
3.0060004579804591
30
0
10
1.2109460326113133
20
2.9469361829065148
30
0
10
1.4118440131899266
20
2.8889256323516213
30
0
10
1.6125608416836579
20
2.8432561126125151
30
0
10
1.8131460546773039
20
2.8196814529215537
30
0
10
2.0136547882913725
20
2.8239975952165826
30
0
10
2.2141459575009645
20
2.8554735161826574
30
0
10
2.4146803496011384
20
2.9046928147823108
30
0
10
2.6153173986020612
20
2.957716245577374
30
0
10
2.8161120575322669
20
2.9999208214318749
30
0
10
3.0171115647408602
20
3.0198649385171827
30
0
10
3.2183523639701588
20
3.0133605189410084
30
0
10
3.4198565657821027
20
2.9868686771274189
30
0
10
3.6216246107693459
20
2.9527442786123652
30
0
10
3.823627684192989
20
2.9249902697679859
30
0
10
4.0258010725406077
20
2.914975481885254
30
0
10
4.2280348608255238
20
2.9268162112985445
30
0
10
4.4301718774140282
20
2.9538970640874713
30
0
10
4.6320564850711623
20
2.9839890832739706
30
0
10
4.8335801107588079
20
3.0036057819462583
30
0
10
5.0347244927356822
20
3.0024223918375306
30
0
10
5.235614618968242
20
2.9781946973546987
30
0
10
5.4365426393349248
20
2.9399311700027964
30
0
10
5.6378450915530074
20
2.9019285144548963
30
0
10
5.8397952581700707
20
2.878836310521339
30
0
10
6.04249727691586
20
2.8806514537148642
30
0
10
6.2457609642222121
20
2.9069709197404547
30
0
10
6.4490393924412484
20
2.9438576862319321
30
0
10
6.6516185388048523
20
2.9712904529083173
30
0
10
6.8527733276791789
20
2.9692188330291112
30
0
10
7.0519270139859671
20
2.9237167319160347
30
0
10
7.2488323061669391
20
2.8341530189382027
30
0
10
7.4436719748389155
20
2.7166615172984376
30
0
10
7.6369080468390393
20
2.5961295481730922
30
0
10
7.8291751333045667
20
2.5001609518799879
30
0
10
8.0211589905908003
20
2.4524278218893616
30
0
10
8.213476827273885
20
2.4659115023802487
30
0
10
8.4065707894244781
20
2.5372263515598803
30
0
10
8.6007468830686342
20
2.6519230618725582
30
0
10
8.7962003360276988
20
2.7887722602255764
30
0
10
8.993045915296273
20
2.9244394797619844
30
0
10
9.1913456493295822
20
3.0379298861821291
30
0
10
9.3911380131155315
20
3.1152802298968845
30
0
10
9.5924436914715638
20
3.1482256817666276
30
0
10
9.7547053236868564
20
3.1358075893369337
30
0
10
9.877086475116803
20
3.1041050812983686
30
0
10
9.9589781227860072
20
3.073025742632558
30
0
10
10
20
3.0549999999999997
30
0
0
ENDSEC
0
SECTION
2
OBJECTS
0
DICTIONARY
5
C
100
AcDbDictionary
3
ACAD_GROUP
350
D
3
ACAD_MLINESTYLE
350
17
0
DICTIONARY
5
D
100
AcDbDictionary
0
DICTIONARY
5
1A
330
C
100
AcDbDictionary
0
DICTIONARY
5
17
100
AcDbDictionary
0
ENDSEC
0
EOF
