0
SECTION
2
HEADER
9
$INSUNITS
70
4
9
$ACADVER
1
AC1014
9
$HANDSEED
5
FFFF
0
ENDSEC
0
SECTION
2
TABLES
0
TABLE
2
VPORT
5
8
100
AcDbSymbolTable
0
ENDTAB
0
TABLE
2
LTYPE
5
5
100
AcDbSymbolTable
0
LTYPE
5
14
100
AcDbSymbolTableRecord
100
AcDbLinetypeTableRecord
2
BYBLOCK
70
0
0
LTYPE
5
15
100
AcDbSymbolTableRecord
100
AcDbLinetypeTableRecord
2
BYLAYER
70
0
0
ENDTAB
0
TABLE
2
LAYER
5
2
100
AcDbSymbolTable
70
2
0
LAYER
5
50
100
AcDbSymbolTableRecord
100
AcDbLayerTableRecord
2
0
70
0
6
CONTINUOUS
0
ENDTAB
0
TABLE
2
STYLE
5
3
100
AcDbSymbolTable
70
1
0
STYLE
5
11
100
AcDbSymbolTableRecord
100
AcDbTextStyleTableRecord
2
STANDARD
70
0
0
ENDTAB
0
TABLE
2
VIEW
5
6
100
AcDbSymbolTable
70
0
0
ENDTAB
0
TABLE
2
UCS
5
7
100
AcDbSymbolTable
70
0
0
ENDTAB
0
TABLE
2
APPID
5
9
100
AcDbSymbolTable
70
2
0
APPID
5
12
100
AcDbSymbolTableRecord
100
AcDbRegAppTableRecord
2
ACAD
70
0
0
ENDTAB
0
TABLE
2
DIMSTYLE
5
A
100
AcDbSymbolTable
70
1
0
ENDTAB
0
TABLE
2
BLOCK_RECORD
5
1
100
AcDbSymbolTable
70
1
0
BLOCK_RECORD
5
1F
100
AcDbSymbolTableRecord
100
AcDbBlockTableRecord
2
*MODEL_SPACE
0
BLOCK_RECORD
5
1B
100
AcDbSymbolTableRecord
100
AcDbBlockTableRecord
2
*PAPER_SPACE
0
ENDTAB
0
ENDSEC
0
SECTION
2
BLOCKS
0
BLOCK
5
20
100
AcDbEntity
100
AcDbBlockBegin
2
*MODEL_SPACE
0
ENDBLK
5
21
100
AcDbEntity
100
AcDbBlockEnd
0
BLOCK
5
1C
100
AcDbEntity
100
AcDbBlockBegin
2
*PAPER_SPACE
0
ENDBLK
5
1D
100
AcDbEntity
100
AcDbBlockEnd
0
ENDSEC
0
SECTION
2
ENTITIES
0
SPLINE
5
100
100
AcDbEntity
8
0
100
AcDbSpline
70
4
71
5
72
16
73
10
74
0
42
0.000000001
43
0.0000000001
44
0.0000000001
40
0
40
0
40
0
40
0
40
0
40
0
40
0.20000000000000001
40
0.40000000000000002
40
0.60000000000000009
40
0.80000000000000004
40
1
40
1
40
1
40
1
40
1
40
1
41
1
41
1
41
1
41
1
41
1
41
1
41
1
41
1
41
1
41
1
10
0
20
-0.055000000000000049
30
0
10
0
20
0.069400000000207365
30
0
10
0
20
0.31820000000056603
30
0
10
0
20
0.69140000000093593
30
0
10
0
20
1.1890000000011365
30
0
10
0
20
1.8110000000010393
30
0
10
0
20
2.3086000000007481
30
0
10
0
20
2.6818000000004227
30
0
10
0
20
2.9306000000001484
30
0
10
0
20
3.0549999999999997
30
0
0
SPLINE
5
101
100
AcDbEntity
8
0
100
AcDbSpline
70
4
71
5
72
16
73
10
74
0
42
0.000000001
43
0.0000000001
44
0.0000000001
40
0
40
0
40
0
40
0
40
0
40
0
40
0.20000000000000001
40
0.40000000000000002
40
0.60000000000000009
40
0.80000000000000004
40
1
40
1
40
1
40
1
40
1
40
1
41
1
41
1
41
1
41
1
41
1
41
1
41
1
41
1
41
1
41
1
10
10
20
-0.055000000000000049
30
0
10
9.9999999999997495
20
0.069400000000207365
30
0
10
9.9999999999993197
20
0.31820000000056603
30
0
10
9.9999999999989129
20
0.69140000000093593
30
0
10
9.9999999999987672
20
1.1890000000011365
30
0
10
9.9999999999990248
20
1.8110000000010393
30
0
10
9.9999999999993889
20
2.3086000000007481
30
0
10
9.9999999999996998
20
2.6818000000004227
30
0
10
9.9999999999999005
20
2.9306000000001484
30
0
10
10
20
3.0549999999999997
30
0
0
SPLINE
5
102
100
AcDbEntity
8
0
100
AcDbSpline
70
4
71
5
72
16
73
10
74
0
42
0.000000001
43
0.0000000001
44
0.0000000001
40
0
40
0
40
0
40
0
40
0
40
0
40
0.20000000000000001
40
0.40000000000000002
40
0.60000000000000009
40
0.80000000000000004
40
1
40
1
40
1
40
1
40
1
40
1
41
1
41
1
41
1
41
1
41
1
41
1
41
1
41
1
41
1
41
1
10
0
20
1.5274999999999999
30
0
10
0.40000000000047375
20
1.5274999999999856
30
0
10
1.2000000000012774
20
1.5274999999999614
30
0
10
2.4000000000020547
20
1.527499999999943
30
0
10
4.0000000000023546
20
1.5274999999999479
30
0
10
6.0000000000019584
20
1.5274999999999812
30
0
10
7.6000000000012928
20
1.5275000000000025
30
0
10
8.800000000000697
20
1.5275000000000083
30
0
10
9.6000000000002395
20
1.5275000000000039
30
0
10
10
20
1.5274999999999999
30
0
0
SPLINE
5
103
100
AcDbEntity
8
0
100
AcDbSpline
70
4
71
5
72
111
73
105
74
0
42
0.000000001
43
0.0000000001
44
0.0000000001
40
0
40
0
40
0
40
0
40
0
40
0
40
0.01
40
0.02
40
0.029999999999999999
40
0.040000000000000001
40
0.050000000000000003
40
0.060000000000000005
40
0.070000000000000007
40
0.080000000000000002
40
0.089999999999999997
40
0.099999999999999992
40
0.10999999999999999
40
0.11999999999999998
40
0.12999999999999998
40
0.13999999999999999
40
0.14999999999999999
40
0.16
40
0.17000000000000001
40
0.18000000000000002
40
0.19000000000000003
40
0.20000000000000004
40
0.21000000000000005
40
0.22000000000000006
40
0.23000000000000007
40
0.24000000000000007
40
0.25000000000000006
40
0.26000000000000006
40
0.27000000000000007
40
0.28000000000000008
40
0.29000000000000009
40
0.3000000000000001
40
0.31000000000000011
40
0.32000000000000012
40
0.33000000000000013
40
0.34000000000000014
40
0.35000000000000014
40
0.36000000000000015
40
0.37000000000000016
40
0.38000000000000017
40
0.39000000000000018
40
0.40000000000000019
40
0.4100000000000002
40
0.42000000000000021
40
0.43000000000000022
40
0.44000000000000022
40
0.45000000000000023
40
0.46000000000000024
40
0.47000000000000025
40
0.48000000000000026
40
0.49000000000000027
40
0.50000000000000022
40
0.51000000000000023
40
0.52000000000000024
40
0.53000000000000025
40
0.54000000000000026
40
0.55000000000000027
40
0.56000000000000028
40
0.57000000000000028
40
0.58000000000000029
40
0.5900000000000003
40
0.60000000000000031
40
0.61000000000000032
40
0.62000000000000033
40
0.63000000000000034
40
0.64000000000000035
40
0.65000000000000036
40
0.66000000000000036
40
0.67000000000000037
40
0.68000000000000038
40
0.69000000000000039
40
0.7000000000000004
40
0.71000000000000041
40
0.72000000000000042
40
0.73000000000000043
40
0.74000000000000044
40
0.75000000000000044
40
0.76000000000000045
40
0.77000000000000046
40
0.78000000000000047
40
0.79000000000000048
40
0.80000000000000049
40
0.8100000000000005
40
0.82000000000000051
40
0.83000000000000052
40
0.84000000000000052
40
0.85000000000000053
40
0.86000000000000054
40
0.87000000000000055
40
0.88000000000000056
40
0.89000000000000057
40
0.90000000000000058
40
0.91000000000000059
40
0.9200000000000006
40
0.9300000000000006
40
0.94000000000000061
40
0.95000000000000062
40
0.96000000000000063
40
0.97000000000000064
40
0.98000000000000065
40
0.99000000000000066
40
1
40
1
40
1
40
1
40
1
40
1
41
1
41
1
41
1
41
1
41
1
41
1
41
1
41
1
41
1
41
1
41
1
41
1
41
1
41
1
41
1
41
1
41
1
41
1
41
1
41
1
41
1
41
1
41
1
41
1
41
1
41
1
41
1
41
1
41
1
41
1
41
1
41
1
41
1
41
1
41
1
41
1
41
1
41
1
41
1
41
1
41
1
41
1
41
1
41
1
41
1
41
1
41
1
41
1
41
1
41
1
41
1
41
1
41
1
41
1
41
1
41
1
41
1
41
1
41
1
41
1
41
1
41
1
41
1
41
1
41
1
41
1
41
1
41
1
41
1
41
1
41
1
41
1
41
1
41
1
41
1
41
1
41
1
41
1
41
1
41
1
41
1
41
1
41
1
41
1
41
1
41
1
41
1
41
1
41
1
41
1
41
1
41
1
41
1
41
1
41
1
41
1
41
1
41
1
41
1
41
1
41
1
41
1
41
1
41
1
41
1
10
0
20
-0.055000000000000049
30
0
10
0.020331036958281964
20
-0.050786254003283182
30
0
10
0.061014038348920649
20
-0.042660878483031572
30
0
10
0.12210132385621658
20
-0.031379164792057851
30
0
10
0.20367661649397489
20
-0.018149872649629421
30
0
10
0.30584977078539688
20
-0.0046336233067138894
30
0
10
0.40821081724015729
20
0.0058691100858490712
30
0
10
0.5107275854844624
20
0.01337420288609472
30
0
10
0.61334568310585802
20
0.017910204579619039
30
0
10
0.71598517330238143
20
0.019521633504873258
30
0
10
0.81856192873984823
20
0.018275936228156282
30
0
10
0.92100782385573221
20
0.01426700719109701
30
0
10
1.0232895558658071
20
0.0076264022575307519
30
0
10
1.1254323414880991
20
-0.0014835571070419408
30
0
10
1.2275284731738143
20
-0.01282436071653207
30
0
10
1.3296932628764513
20
-0.025878619949491644
30
0
10
1.4320273406737203
20
-0.039646311677161185
30
0
10
1.5345807036823627
20
-0.052495069483578544
30
0
10
1.6373058843411856
20
-0.061858832747631105
30
0
10
1.740049297271073
20
-0.064423326442591897
30
0
10
1.8426188612614176
20
-0.05722829967530798
30
0
10
1.9448384824383496
20
-0.038661690867645628
30
0
10
2.0466012193113832
20
-0.0093147754633550149
30
0
10
2.1479389712187538
20
0.026659212395791561
30
0
10
2.2490256227159193
20
0.062044861989706095
30
0
10
2.3501003073213091
20
0.089189536844660175
30
0
10
2.4514090033630596
20
0.10224807822144716
30
0
10
2.5531437922813631
20
0.099218531191658382
30
0
10
2.6553705688413132
20
0.084962177700617841
30
0
10
2.7580127608546019
20
0.070201507880356437
30
0
10
2.8608885864392586
20
0.066977982632359656
30
0
10
2.9637323910452511
20
0.084848767065823005
30
0
10
3.0662243474343875
20
0.12732585304622224
30
0
10
3.1680118046941925
20
0.18684138642825604
30
0
10
3.2687569958125189
20
0.24711003399279036
30
0
10
3.3681952252895275
20
0.28932051112644369
30
0
10
3.4661940054735925
20
0.297439703573042
30
0
10
3.5628027588989424
20
0.26320202721305358
30
0
10
3.658329572702514
20
0.19295401724557198
30
0
10
3.7532920525442659
20
0.10514729954691009
30
0
10
3.8483035948278088
20
0.023014492560372656
30
0
10
3.9439766094983213
20
-0.031570678140219452
30
0
10
4.0408258890468591
20
-0.044008609323866452
30
0
10
4.1391544691361144
20
-0.014727322685773259
30
0
10
4.2390099064807805
20
0.040104642097390689
30
0
10
4.3402408990176191
20
0.09753260383389771
30
0
10
4.4425289681368909
20
0.13476209022413488
30
0
10
4.5454302602511358
20
0.13610151252012342
30
0
10
4.6484125785564139
20
0.10188596731782162
30
0
10
4.7508956614524669
20
0.049303061006868668
30
0
10
4.8522925098847089
20
0.0028434710378114894
30
0
10
4.9520505533281067
20
-0.012996568423665719
30
0
10
5.0496929562433577
20
0.018898396866470518
30
0
10
5.1448597485359411
20
0.098895005144542997
30
0
10
5.2373497728216121
20
0.2101136813443025
30
0
10
5.3271635268830959
20
0.3268640604259887
30
0
10
5.4145457607552174
20
0.42062031897838303
30
0
10
5.5000286104114444
20
0.46700622133308667
30
0
10
5.5844740679725504
20
0.45233499583400166
30
0
10
5.6691185130010036
20
0.38038363010756193
30
0
10
5.755339107633012
20
0.26717532161245278
30
0
10
5.8444261719065445
20
0.13585715438005361
30
0
10
5.9373404878906255
20
0.011383069632599718
30
0
10
6.0345059389203897
20
-0.084347907588362539
30
0
10
6.1355160911801763
20
-0.13844723267829853
30
0
10
6.2391166010499255
20
-0.14946978005112488
30
0
10
6.3436745577950413
20
-0.12348446697825669
30
0
10
6.4475591483913597
20
-0.071483228205900806
30
0
10
6.5495164701043471
20
-0.0064160858274180969
30
0
10
6.6491475860680023
20
0.05999912370469581
30
0
10
6.7469552085151863
20
0.11886944784880243
30
0
10
6.8439242264595821
20
0.16382758556180504
30
0
10
6.9412139143964833
20
0.1912721021971098
30
0
10
7.039833142877332
20
0.20032848519695168
30
0
10
7.1402542150822192
20
0.19307800185028851
30
0
10
7.2422960534582419
20
0.17415633067859632
30
0
10
7.3454193188029056
20
0.14951623984942053
30
0
10
7.4489320358572186
20
0.12534842857884326
30
0
10
7.5522097498141143
20
0.10702397318833315
30
0
10
7.654961982848727
20
0.097819683062941393
30
0
10
7.7572710062497361
20
0.098562295949980699
30
0
10
7.8594022854526386
20
0.10820173862359429
30
0
10
7.9616704816273138
20
0.12411628614126052
30
0
10
8.064298771412524
20
0.14255383452756068
30
0
10
8.1672410855567321
20
0.15894545461226231
30
0
10
8.2702114352284291
20
0.16859371670921139
30
0
10
8.3728347961676217
20
0.16752706643370496
30
0
10
8.4747659001368589
20
0.15335678142514902
30
0
10
8.5758092379091959
20
0.12601812369305967
30
0
10
8.6760695572988169
20
0.088858407967995712
30
0
10
8.7758893888660054
20
0.047670758450393341
30
0
10
8.8757188733942076
20
0.0091019568265113624
30
0
10
8.9760042790754166
20
-0.020785665530894074
30
0
10
9.0770777917383665
20
-0.037893026811326745
30
0
10
9.1790233432396846
20
-0.041808433188571768
30
0
10
9.2817119213296255
20
-0.035211768471661214
30
0
10
9.3848871196884449
20
-0.022597841644436161
30
0
10
9.4882348216703445
20
-0.0092123618705998132
30
0
10
9.5914568673771967
20
6.0182389192605106e-05
30
0
10
9.6943499292324002
20
0.0018947666682379955
30
0
10
9.7967937398692566
20
-0.00567608287517194
30
0
10
9.8783409962912074
20
-0.020047668748294053
30
0
10
9.9392631576024897
20
-0.03564865386798817
30
0
10
9.9797720349095709
20
-0.048192379839886994
30
0
10
10
20
-0.055000000000000049
30
0
0
SPLINE
5
104
100
AcDbEntity
8
0
100
AcDbSpline
70
4
71
5
72
111
73
105
74
0
42
0.000000001
43
0.0000000001
44
0.0000000001
40
0
40
0
40
0
40
0
40
0
40
0
40
0.01
40
0.02
40
0.029999999999999999
40
0.040000000000000001
40
0.050000000000000003
40
0.060000000000000005
40
0.070000000000000007
40
0.080000000000000002
40
0.089999999999999997
40
0.099999999999999992
40
0.10999999999999999
40
0.11999999999999998
40
0.12999999999999998
40
0.13999999999999999
40
0.14999999999999999
40
0.16
40
0.17000000000000001
40
0.18000000000000002
40
0.19000000000000003
40
0.20000000000000004
40
0.21000000000000005
40
0.22000000000000006
40
0.23000000000000007
40
0.24000000000000007
40
0.25000000000000006
40
0.26000000000000006
40
0.27000000000000007
40
0.28000000000000008
40
0.29000000000000009
40
0.3000000000000001
40
0.31000000000000011
40
0.32000000000000012
40
0.33000000000000013
40
0.34000000000000014
40
0.35000000000000014
40
0.36000000000000015
40
0.37000000000000016
40
0.38000000000000017
40
0.39000000000000018
40
0.40000000000000019
40
0.4100000000000002
40
0.42000000000000021
40
0.43000000000000022
40
0.44000000000000022
40
0.45000000000000023
40
0.46000000000000024
40
0.47000000000000025
40
0.48000000000000026
40
0.49000000000000027
40
0.50000000000000022
40
0.51000000000000023
40
0.52000000000000024
40
0.53000000000000025
40
0.54000000000000026
40
0.55000000000000027
40
0.56000000000000028
40
0.57000000000000028
40
0.58000000000000029
40
0.5900000000000003
40
0.60000000000000031
40
0.61000000000000032
40
0.62000000000000033
40
0.63000000000000034
40
0.64000000000000035
40
0.65000000000000036
40
0.66000000000000036
40
0.67000000000000037
40
0.68000000000000038
40
0.69000000000000039
40
0.7000000000000004
40
0.71000000000000041
40
0.72000000000000042
40
0.73000000000000043
40
0.74000000000000044
40
0.75000000000000044
40
0.76000000000000045
40
0.77000000000000046
40
0.78000000000000047
40
0.79000000000000048
40
0.80000000000000049
40
0.8100000000000005
40
0.82000000000000051
40
0.83000000000000052
40
0.84000000000000052
40
0.85000000000000053
40
0.86000000000000054
40
0.87000000000000055
40
0.88000000000000056
40
0.89000000000000057
40
0.90000000000000058
40
0.91000000000000059
40
0.9200000000000006
40
0.9300000000000006
40
0.94000000000000061
40
0.95000000000000062
40
0.96000000000000063
40
0.97000000000000064
40
0.98000000000000065
40
0.99000000000000066
40
1
40
1
40
1
40
1
40
1
40
1
41
1
41
1
41
1
41
1
41
1
41
1
41
1
41
1
41
1
41
1
41
1
41
1
41
1
41
1
41
1
41
1
41
1
41
1
41
1
41
1
41
1
41
1
41
1
41
1
41
1
41
1
41
1
41
1
41
1
41
1
41
1
41
1
41
1
41
1
41
1
41
1
41
1
41
1
41
1
41
1
41
1
41
1
41
1
41
1
41
1
41
1
41
1
41
1
41
1
41
1
41
1
41
1
41
1
41
1
41
1
41
1
41
1
41
1
41
1
41
1
41
1
41
1
41
1
41
1
41
1
41
1
41
1
41
1
41
1
41
1
41
1
41
1
41
1
41
1
41
1
41
1
41
1
41
1
41
1
41
1
41
1
41
1
41
1
41
1
41
1
41
1
41
1
41
1
41
1
41
1
41
1
41
1
41
1
41
1
41
1
41
1
41
1
41
1
41
1
41
1
41
1
41
1
41
1
41
1
41
1
10
0
20
3.0549999999999997
30
0
10
0.017872562294682131
20
3.0445115626427905
30
0
10
0.053827836972437329
20
3.0230554263234533
30
0
10
0.10839118855005019
20
2.989433536202303
30
0
10
0.18240350122607157
20
2.9417276496017157
30
0
10
0.27698424465355687
20
2.8776379937656178
30
0
10
0.37352016737625704
20
2.8100914821930574
30
0
10
0.47178628725582972
20
2.7411211498833148
30
0
10
0.57141265560111376
20
2.6740592064855244
30
0
10
0.67182630082415085
20
2.6140621332463834
30
0
10
0.77234015427912128
20
2.5672721896975643
30
0
10
0.87229271395464569
20
2.539505337082415
30
0
10
0.97117847747050701
20
2.5350305425193271
30
0
10
1.0687658728456555
20
2.5554516511942236
30
0
10
1.1652624294506682
20
2.5981841925433677
30
0
10
1.2612240084546906
20
2.6571430879590179
30
0
10
1.3573637199316393
20
2.724312793469517
30
0
10
1.4543855647083967
20
2.7910722101381769
30
0
10
1.5528253908793515
20
2.8495273005369279
30
0
10
1.652845203341768
20
2.8940723830872224
30
0
10
1.7542274895637373
20
2.9218862631503333
30
0
10
1.8565397013979923
20
2.9324797164148428
30
0
10
1.9592551637545583
20
2.9275355092390325
30
0
10
2.0618812044546924
20
2.9105825342625735
30
0
10
2.164110498535706
20
2.8868597297076706
30
0
10
2.2658414005111416
20
2.8625682842541753
30
0
10
2.3671103224517736
20
2.8437854510329519
30
0
10
2.4680498832183826
20
2.8354235643799823
30
0
10
2.5688385030753298
20
2.8402921295820045
30
0
10
2.6696485790344235
20
2.8578057163444677
30
0
10
2.7706234121471738
20
2.8845104267485744
30
0
10
2.8718694978371699
20
2.9154115722953451
30
0
10
2.9734425975254561
20
2.9450769057310318
30
0
10
3.0753390476347313
20
2.968759712281785
30
0
10
3.1774779423865778
20
2.9837005298295431
30
0
10
3.2797299135962548
20
2.9891677249958422
30
0
10
3.3819601893530988
20
2.9860555718902115
30
0
10
3.4840687361564395
20
2.9766400632258176
30
0
10
3.5860275804290143
20
2.9642486631188096
30
0
10
3.6879300160475017
20
2.9530231579425448
30
0
10
3.7899326952512831
20
2.9471163512956231
30
0
10
3.8921796153076031
20
2.9498053023805983
30
0
10
3.9947312879301022
20
2.9626187295752491
30
0
10
4.0974943197107958
20
2.9844896595214134
30
0
10
4.2001435616688827
20
3.0108080465686533
30
0
10
4.3022440336339205
20
3.0349113507900354
30
0
10
4.4033833720061093
20
3.0496993830699659
30
0
10
4.503299297294121
20
3.0491933569762701
30
0
10
4.6020118530045506
20
3.0301416979437219
30
0
10
4.6999465085080088
20
2.9935438460862178
30
0
10
4.7977461815388232
20
2.9434951472567144
30
0
10
4.8960923644705332
20
2.8861043820253713
30
0
10
4.9955210488499135
20
2.8283815679629658
30
0
10
5.0962450825729491
20
2.7771489364377899
30
0
10
5.1979618637592759
20
2.7379156611884654
30
0
10
5.3000559526686768
20
2.7146303067135928
30
0
10
5.4018176201307142
20
2.7094645617233821
30
0
10
5.5026542538703103
20
2.72258749675713
30
0
10
5.6023076303329429
20
2.7519353692429882
30
0
10
5.7010610184017763
20
2.7930015637939203
30
0
10
5.7995181202775781
20
2.83970688487274
30
0
10
5.8983911472834096
20
2.8852456757553009
30
0
10
5.9982849822461146
20
2.9229416724390216
30
0
10
6.0994844157986048
20
2.9470965622372853
30
0
10
6.2017358541978425
20
2.9538504011266626
30
0
10
6.3044447121746909
20
2.9413761953943456
30
0
10
6.4068795809175896
20
2.9100765235724424
30
0
10
6.5083703088454161
20
2.8627629825743952
30
0
10
6.608516669722647
20
2.8048859354948537
30
0
10
6.7073697724417727
20
2.7446264547546333
30
0
10
6.8052731821374586
20
2.6912313280203537
30
0
10
6.9027263355789064
20
2.6534629697951368
30
0
10
7.000239718633491
20
2.6380068441236082
30
0
10
7.0981933909626349
20
2.6478931468967808
30
0
10
7.1966945528893733
20
2.6809176519240099
30
0
10
7.2956659591887139
20
2.7312678277308766
30
0
10
7.3949327047514721
20
2.7911282748415323
30
0
10
7.4943105610950855
20
2.8523063084423965
30
0
10
7.5936913041518936
20
2.9078160860739026
30
0
10
7.6931356615528754
20
2.9535685669651657
30
0
10
7.7928118340040253
20
2.9878965183297042
30
0
10
7.8929259840265784
20
3.0109619077618035
30
0
10
7.9936548141291137
20
3.0242055842799038
30
0
10
8.0950792424982883
20
3.0297842382494835
30
0
10
8.1971121674415333
20
3.0300023785172985
30
0
10
8.2995525162364725
20
3.0269892180773423
30
0
10
8.4021471561911589
20
3.0223881919850633
30
0
10
8.5046493230753892
20
3.0170482023877194
30
0
10
8.6068798352324318
20
3.0106983153430233
30
0
10
8.7087834476780088
20
3.0016715078400451
30
0
10
8.8103851408065808
20
2.9877488044958218
30
0
10
8.9117496468546626
20
2.9669742271602351
30
0
10
9.0129408776803412
20
2.938452762046722
30
0
10
9.113978897104694
20
2.9032211764369515
30
0
10
9.2148052294267497
20
2.8648992166593383
30
0
10
9.3153112760647687
20
2.8287113146692064
30
0
10
9.4153607133320509
20
2.8006598925843225
30
0
10
9.514813571178637
20
2.7866639331899421
30
0
10
9.6135510131223789
20
2.7916591610937127
30
0
10
9.7114956261629697
20
2.8188714078400285
30
0
10
9.8086008346329887
20
2.8702435502392531
30
0
10
9.8855952574483759
20
2.9314331049793525
30
0
10
9.9429497733992012
20
2.9887676015216815
30
0
10
9.9810122378635775
20
3.0320751099403029
30
0
10
10
20
3.0549999999999997
30
0
0
ENDSEC
0
SECTION
2
OBJECTS
0
DICTIONARY
5
C
100
AcDbDictionary
3
ACAD_GROUP
350
D
3
ACAD_MLINESTYLE
350
17
0
DICTIONARY
5
D
100
AcDbDictionary
0
DICTIONARY
5
1A
330
C
100
AcDbDictionary
0
DICTIONARY
5
17
100
AcDbDictionary
0
ENDSEC
0
EOF
