0
SECTION
2
HEADER
9
$INSUNITS
70
4
9
$ACADVER
1
AC1014
9
$HANDSEED
5
FFFF
0
ENDSEC
0
SECTION
2
TABLES
0
TABLE
2
VPORT
5
8
100
AcDbSymbolTable
0
ENDTAB
0
TABLE
2
LTYPE
5
5
100
AcDbSymbolTable
0
LTYPE
5
14
100
AcDbSymbolTableRecord
100
AcDbLinetypeTableRecord
2
BYBLOCK
70
0
0
LTYPE
5
15
100
AcDbSymbolTableRecord
100
AcDbLinetypeTableRecord
2
BYLAYER
70
0
0
ENDTAB
0
TABLE
2
LAYER
5
2
100
AcDbSymbolTable
70
2
0
LAYER
5
50
100
AcDbSymbolTableRecord
100
AcDbLayerTableRecord
2
0
70
0
6
CONTINUOUS
0
ENDTAB
0
TABLE
2
STYLE
5
3
100
AcDbSymbolTable
70
1
0
STYLE
5
11
100
AcDbSymbolTableRecord
100
AcDbTextStyleTableRecord
2
STANDARD
70
0
0
ENDTAB
0
TABLE
2
VIEW
5
6
100
AcDbSymbolTable
70
0
0
ENDTAB
0
TABLE
2
UCS
5
7
100
AcDbSymbolTable
70
0
0
ENDTAB
0
TABLE
2
APPID
5
9
100
AcDbSymbolTable
70
2
0
APPID
5
12
100
AcDbSymbolTableRecord
100
AcDbRegAppTableRecord
2
ACAD
70
0
0
ENDTAB
0
TABLE
2
DIMSTYLE
5
A
100
AcDbSymbolTable
70
1
0
ENDTAB
0
TABLE
2
BLOCK_RECORD
5
1
100
AcDbSymbolTable
70
1
0
BLOCK_RECORD
5
1F
100
AcDbSymbolTableRecord
100
AcDbBlockTableRecord
2
*MODEL_SPACE
0
BLOCK_RECORD
5
1B
100
AcDbSymbolTableRecord
100
AcDbBlockTableRecord
2
*PAPER_SPACE
0
ENDTAB
0
ENDSEC
0
SECTION
2
BLOCKS
0
BLOCK
5
20
100
AcDbEntity
100
AcDbBlockBegin
2
*MODEL_SPACE
0
ENDBLK
5
21
100
AcDbEntity
100
AcDbBlockEnd
0
BLOCK
5
1C
100
AcDbEntity
100
AcDbBlockBegin
2
*PAPER_SPACE
0
ENDBLK
5
1D
100
AcDbEntity
100
AcDbBlockEnd
0
ENDSEC
0
SECTION
2
ENTITIES
0
SPLINE
5
100
100
AcDbEntity
8
0
100
AcDbSpline
70
4
71
5
72
16
73
10
74
0
42
0.000000001
43
0.0000000001
44
0.0000000001
40
0
40
0
40
0
40
0
40
0
40
0
40
0.20000000000000001
40
0.40000000000000002
40
0.60000000000000009
40
0.80000000000000004
40
1
40
1
40
1
40
1
40
1
40
1
41
1
41
1
41
1
41
1
41
1
41
1
41
1
41
1
41
1
41
1
10
0
20
-0.055000000000000049
30
0
10
0
20
0.069400000000207365
30
0
10
0
20
0.31820000000056603
30
0
10
0
20
0.69140000000093593
30
0
10
0
20
1.1890000000011365
30
0
10
0
20
1.8110000000010393
30
0
10
0
20
2.3086000000007481
30
0
10
0
20
2.6818000000004227
30
0
10
0
20
2.9306000000001484
30
0
10
0
20
3.0549999999999997
30
0
0
SPLINE
5
101
100
AcDbEntity
8
0
100
AcDbSpline
70
4
71
5
72
16
73
10
74
0
42
0.000000001
43
0.0000000001
44
0.0000000001
40
0
40
0
40
0
40
0
40
0
40
0
40
0.20000000000000001
40
0.40000000000000002
40
0.60000000000000009
40
0.80000000000000004
40
1
40
1
40
1
40
1
40
1
40
1
41
1
41
1
41
1
41
1
41
1
41
1
41
1
41
1
41
1
41
1
10
10
20
-0.055000000000000049
30
0
10
9.9999999999997495
20
0.069400000000207365
30
0
10
9.9999999999993197
20
0.31820000000056603
30
0
10
9.9999999999989129
20
0.69140000000093593
30
0
10
9.9999999999987672
20
1.1890000000011365
30
0
10
9.9999999999990248
20
1.8110000000010393
30
0
10
9.9999999999993889
20
2.3086000000007481
30
0
10
9.9999999999996998
20
2.6818000000004227
30
0
10
9.9999999999999005
20
2.9306000000001484
30
0
10
10
20
3.0549999999999997
30
0
0
SPLINE
5
102
100
AcDbEntity
8
0
100
AcDbSpline
70
4
71
5
72
16
73
10
74
0
42
0.000000001
43
0.0000000001
44
0.0000000001
40
0
40
0
40
0
40
0
40
0
40
0
40
0.20000000000000001
40
0.40000000000000002
40
0.60000000000000009
40
0.80000000000000004
40
1
40
1
40
1
40
1
40
1
40
1
41
1
41
1
41
1
41
1
41
1
41
1
41
1
41
1
41
1
41
1
10
0
20
1.5274999999999999
30
0
10
0.40000000000047375
20
1.5274999999999856
30
0
10
1.2000000000012774
20
1.5274999999999614
30
0
10
2.4000000000020547
20
1.527499999999943
30
0
10
4.0000000000023546
20
1.5274999999999479
30
0
10
6.0000000000019584
20
1.5274999999999812
30
0
10
7.6000000000012928
20
1.5275000000000025
30
0
10
8.800000000000697
20
1.5275000000000083
30
0
10
9.6000000000002395
20
1.5275000000000039
30
0
10
10
20
1.5274999999999999
30
0
0
SPLINE
5
103
100
AcDbEntity
8
0
100
AcDbSpline
70
4
71
5
72
111
73
105
74
0
42
0.000000001
43
0.0000000001
44
0.0000000001
40
0
40
0
40
0
40
0
40
0
40
0
40
0.01
40
0.02
40
0.029999999999999999
40
0.040000000000000001
40
0.050000000000000003
40
0.060000000000000005
40
0.070000000000000007
40
0.080000000000000002
40
0.089999999999999997
40
0.099999999999999992
40
0.10999999999999999
40
0.11999999999999998
40
0.12999999999999998
40
0.13999999999999999
40
0.14999999999999999
40
0.16
40
0.17000000000000001
40
0.18000000000000002
40
0.19000000000000003
40
0.20000000000000004
40
0.21000000000000005
40
0.22000000000000006
40
0.23000000000000007
40
0.24000000000000007
40
0.25000000000000006
40
0.26000000000000006
40
0.27000000000000007
40
0.28000000000000008
40
0.29000000000000009
40
0.3000000000000001
40
0.31000000000000011
40
0.32000000000000012
40
0.33000000000000013
40
0.34000000000000014
40
0.35000000000000014
40
0.36000000000000015
40
0.37000000000000016
40
0.38000000000000017
40
0.39000000000000018
40
0.40000000000000019
40
0.4100000000000002
40
0.42000000000000021
40
0.43000000000000022
40
0.44000000000000022
40
0.45000000000000023
40
0.46000000000000024
40
0.47000000000000025
40
0.48000000000000026
40
0.49000000000000027
40
0.50000000000000022
40
0.51000000000000023
40
0.52000000000000024
40
0.53000000000000025
40
0.54000000000000026
40
0.55000000000000027
40
0.56000000000000028
40
0.57000000000000028
40
0.58000000000000029
40
0.5900000000000003
40
0.60000000000000031
40
0.61000000000000032
40
0.62000000000000033
40
0.63000000000000034
40
0.64000000000000035
40
0.65000000000000036
40
0.66000000000000036
40
0.67000000000000037
40
0.68000000000000038
40
0.69000000000000039
40
0.7000000000000004
40
0.71000000000000041
40
0.72000000000000042
40
0.73000000000000043
40
0.74000000000000044
40
0.75000000000000044
40
0.76000000000000045
40
0.77000000000000046
40
0.78000000000000047
40
0.79000000000000048
40
0.80000000000000049
40
0.8100000000000005
40
0.82000000000000051
40
0.83000000000000052
40
0.84000000000000052
40
0.85000000000000053
40
0.86000000000000054
40
0.87000000000000055
40
0.88000000000000056
40
0.89000000000000057
40
0.90000000000000058
40
0.91000000000000059
40
0.9200000000000006
40
0.9300000000000006
40
0.94000000000000061
40
0.95000000000000062
40
0.96000000000000063
40
0.97000000000000064
40
0.98000000000000065
40
0.99000000000000066
40
1
40
1
40
1
40
1
40
1
40
1
41
1
41
1
41
1
41
1
41
1
41
1
41
1
41
1
41
1
41
1
41
1
41
1
41
1
41
1
41
1
41
1
41
1
41
1
41
1
41
1
41
1
41
1
41
1
41
1
41
1
41
1
41
1
41
1
41
1
41
1
41
1
41
1
41
1
41
1
41
1
41
1
41
1
41
1
41
1
41
1
41
1
41
1
41
1
41
1
41
1
41
1
41
1
41
1
41
1
41
1
41
1
41
1
41
1
41
1
41
1
41
1
41
1
41
1
41
1
41
1
41
1
41
1
41
1
41
1
41
1
41
1
41
1
41
1
41
1
41
1
41
1
41
1
41
1
41
1
41
1
41
1
41
1
41
1
41
1
41
1
41
1
41
1
41
1
41
1
41
1
41
1
41
1
41
1
41
1
41
1
41
1
41
1
41
1
41
1
41
1
41
1
41
1
41
1
41
1
41
1
41
1
41
1
41
1
41
1
41
1
10
0
20
-0.055000000000000049
30
0
10
0.021182138192261862
20
-0.068405988123967976
30
0
10
0.06339436642358029
20
-0.091513263177108881
30
0
10
0.12625656851693298
20
-0.1150599532372157
30
0
10
0.20916037252427092
20
-0.12422450638204548
30
0
10
0.31125290701812092
20
-0.099545639041670547
30
0
10
0.41175968666578772
20
-0.041539604858697163
30
0
10
0.51058593270888142
20
0.044184030908697908
30
0
10
0.60757199848793264
20
0.14817450426187836
30
0
10
0.70248726550184781
20
0.25644983903650342
30
0
10
0.79515411655601598
20
0.35323885814298428
30
0
10
0.88555584835095358
20
0.42337964537720846
30
0
10
0.97396160692554867
20
0.45496903934286009
30
0
10
1.0610194933505783
20
0.44163203998894585
30
0
10
1.1479266478832344
20
0.385659151981816
30
0
10
1.23621344646812
20
0.29682211449756979
30
0
10
1.3273760655898894
20
0.18943342370592414
30
0
10
1.4225450484123106
20
0.079938530378673447
30
0
10
1.5221673390684185
20
-0.015630574203723768
30
0
10
1.6256138196953605
20
-0.084335941072585602
30
0
10
1.7310282922854365
20
-0.11835574369895589
30
0
10
1.8360231611953857
20
-0.11443775906520595
30
0
10
1.9382648808055702
20
-0.073808739452993447
30
0
10
2.0360489520657978
20
-0.0018286660871020524
30
0
10
2.1290078521866937
20
0.092054157927562719
30
0
10
2.2183245529257816
20
0.19512193249867391
30
0
10
2.3060222501028118
20
0.2935659828248815
30
0
10
2.3944676100315334
20
0.37433803774106533
30
0
10
2.4857736538735256
20
0.42719103150121374
30
0
10
2.5812802599673401
20
0.44650528969157799
30
0
10
2.6809088243176111
20
0.4335676758993548
30
0
10
2.7835414578319533
20
0.39488181554716145
30
0
10
2.8875474630880631
20
0.33989710698463432
30
0
10
2.9912657462535854
20
0.27891696290624662
30
0
10
3.0934875673075353
20
0.22099464881129863
30
0
10
3.1939877538417849
20
0.17166796908984272
30
0
10
3.2932596972374228
20
0.13343690636826622
30
0
10
3.3921798801544596
20
0.10649131114125875
30
0
10
3.4916937452695929
20
0.089349529679448841
30
0
10
3.5925027748605602
20
0.079526546136618442
30
0
10
3.6947237326921027
20
0.07420675566316845
30
0
10
3.798045615671795
20
0.070598820781628102
30
0
10
3.9019279779594567
20
0.066265017278907101
30
0
10
4.005782147180196
20
0.059453823327238031
30
0
10
4.1091640528063431
20
0.049446103919591339
30
0
10
4.2119495922109422
20
0.03685547405849509
30
0
10
4.3142350143038852
20
0.023070166457631221
30
0
10
4.4162482779000909
20
0.0097211560484485315
30
0
10
4.5182591753219166
20
-0.0018313034206350371
30
0
10
4.6204835688538424
20
-0.01108446323704387
30
0
10
4.7230095033481669
20
-0.018754077494274941
30
0
10
4.8258344211389677
20
-0.02606143835180131
30
0
10
4.9288878226472868
20
-0.034130277501119619
30
0
10
5.0320590381713606
20
-0.043407487953827643
30
0
10
5.1352239693669208
20
-0.052915889042249975
30
0
10
5.2382683150197487
20
-0.060089538206603385
30
0
10
5.3410987471654456
20
-0.061923939613508498
30
0
10
5.4436577761830858
20
-0.055922048039815431
30
0
10
5.545934697584415
20
-0.040994653341083653
30
0
10
5.6479841996016287
20
-0.018688267112305493
30
0
10
5.7499197511799007
20
0.0068608165343387716
30
0
10
5.8518772614032235
20
0.030531766769041225
30
0
10
5.9539845785025935
20
0.047499264084315228
30
0
10
6.0563323563756422
20
0.054486146802229282
30
0
10
6.1589351214963193
20
0.051421008042592448
30
0
10
6.2617352330648366
20
0.041270050365920623
30
0
10
6.3646411369780438
20
0.028398496218926466
30
0
10
6.4675573530330634
20
0.017292691851408321
30
0
10
6.5704143234449672
20
0.011272512337820142
30
0
10
6.6732072320726656
20
0.010858502590191076
30
0
10
6.7759828441711454
20
0.014178183182245662
30
0
10
6.8788034717766173
20
0.018283102686454118
30
0
10
6.9817168390479356
20
0.020211052744856052
30
0
10
7.0847267454716505
20
0.01806817634334551
30
0
10
7.1877548660390556
20
0.012327332209683985
30
0
10
7.290679679442718
20
0.0050947619815006973
30
0
10
7.3933909265172382
20
-0.0010407953754418585
30
0
10
7.4958393820310167
20
-0.0040248282293387349
30
0
10
7.5980870203720761
20
-0.0033840007701568513
30
0
10
7.7003615043386819
20
-0.0013333932474971389
30
0
10
7.8029528063283919
20
-0.0013187494605611638
30
0
10
7.9061015968158159
20
-0.0064256089134261361
30
0
10
8.0098943192168619
20
-0.01789211473671528
30
0
10
8.1141468622540298
20
-0.033450886027833623
30
0
10
8.2183171695921242
20
-0.046101276452436148
30
0
10
8.3216975442279786
20
-0.046999494417550094
30
0
10
8.4235904273333926
20
-0.028119846068552452
30
0
10
8.5234800493736849
20
0.015178043532489943
30
0
10
8.6212303291994559
20
0.081114782191815366
30
0
10
8.7171961993036788
20
0.15997027313108003
30
0
10
8.8120255545118074
20
0.23795341541782322
30
0
10
8.9065111769896479
20
0.30020339273753488
30
0
10
9.0014236694986209
20
0.3341190818864101
30
0
10
9.0973513326983948
20
0.33257638361343744
30
0
10
9.1945402467961461
20
0.29712151749844795
30
0
10
9.2929823729033636
20
0.2354380797483196
30
0
10
9.392498638966817
20
0.15892979166507243
30
0
10
9.492824596560439
20
0.080237383043306798
30
0
10
9.5936930789076751
20
0.010842457858389623
30
0
10
9.6949230625055574
20
-0.041521898745790979
30
0
10
9.7964067926729435
20
-0.072255356450089417
30
0
10
9.8777533561393565
20
-0.077696338457768965
30
0
10
9.9388449342049405
20
-0.070667890108998224
30
0
10
9.9796089313889098
20
-0.061045426776305825
30
0
10
10
20
-0.055000000000000049
30
0
0
SPLINE
5
104
100
AcDbEntity
8
0
100
AcDbSpline
70
4
71
5
72
111
73
105
74
0
42
0.000000001
43
0.0000000001
44
0.0000000001
40
0
40
0
40
0
40
0
40
0
40
0
40
0.01
40
0.02
40
0.029999999999999999
40
0.040000000000000001
40
0.050000000000000003
40
0.060000000000000005
40
0.070000000000000007
40
0.080000000000000002
40
0.089999999999999997
40
0.099999999999999992
40
0.10999999999999999
40
0.11999999999999998
40
0.12999999999999998
40
0.13999999999999999
40
0.14999999999999999
40
0.16
40
0.17000000000000001
40
0.18000000000000002
40
0.19000000000000003
40
0.20000000000000004
40
0.21000000000000005
40
0.22000000000000006
40
0.23000000000000007
40
0.24000000000000007
40
0.25000000000000006
40
0.26000000000000006
40
0.27000000000000007
40
0.28000000000000008
40
0.29000000000000009
40
0.3000000000000001
40
0.31000000000000011
40
0.32000000000000012
40
0.33000000000000013
40
0.34000000000000014
40
0.35000000000000014
40
0.36000000000000015
40
0.37000000000000016
40
0.38000000000000017
40
0.39000000000000018
40
0.40000000000000019
40
0.4100000000000002
40
0.42000000000000021
40
0.43000000000000022
40
0.44000000000000022
40
0.45000000000000023
40
0.46000000000000024
40
0.47000000000000025
40
0.48000000000000026
40
0.49000000000000027
40
0.50000000000000022
40
0.51000000000000023
40
0.52000000000000024
40
0.53000000000000025
40
0.54000000000000026
40
0.55000000000000027
40
0.56000000000000028
40
0.57000000000000028
40
0.58000000000000029
40
0.5900000000000003
40
0.60000000000000031
40
0.61000000000000032
40
0.62000000000000033
40
0.63000000000000034
40
0.64000000000000035
40
0.65000000000000036
40
0.66000000000000036
40
0.67000000000000037
40
0.68000000000000038
40
0.69000000000000039
40
0.7000000000000004
40
0.71000000000000041
40
0.72000000000000042
40
0.73000000000000043
40
0.74000000000000044
40
0.75000000000000044
40
0.76000000000000045
40
0.77000000000000046
40
0.78000000000000047
40
0.79000000000000048
40
0.80000000000000049
40
0.8100000000000005
40
0.82000000000000051
40
0.83000000000000052
40
0.84000000000000052
40
0.85000000000000053
40
0.86000000000000054
40
0.87000000000000055
40
0.88000000000000056
40
0.89000000000000057
40
0.90000000000000058
40
0.91000000000000059
40
0.9200000000000006
40
0.9300000000000006
40
0.94000000000000061
40
0.95000000000000062
40
0.96000000000000063
40
0.97000000000000064
40
0.98000000000000065
40
0.99000000000000066
40
1
40
1
40
1
40
1
40
1
40
1
41
1
41
1
41
1
41
1
41
1
41
1
41
1
41
1
41
1
41
1
41
1
41
1
41
1
41
1
41
1
41
1
41
1
41
1
41
1
41
1
41
1
41
1
41
1
41
1
41
1
41
1
41
1
41
1
41
1
41
1
41
1
41
1
41
1
41
1
41
1
41
1
41
1
41
1
41
1
41
1
41
1
41
1
41
1
41
1
41
1
41
1
41
1
41
1
41
1
41
1
41
1
41
1
41
1
41
1
41
1
41
1
41
1
41
1
41
1
41
1
41
1
41
1
41
1
41
1
41
1
41
1
41
1
41
1
41
1
41
1
41
1
41
1
41
1
41
1
41
1
41
1
41
1
41
1
41
1
41
1
41
1
41
1
41
1
41
1
41
1
41
1
41
1
41
1
41
1
41
1
41
1
41
1
41
1
41
1
41
1
41
1
41
1
41
1
41
1
41
1
41
1
41
1
41
1
41
1
41
1
10
0
20
3.0549999999999997
30
0
10
0.015892940044332171
20
3.0341487334918376
30
0
10
0.048155963819450184
20
2.993290068852017
30
0
10
0.09798190355607056
20
2.9345337885294303
30
0
10
0.16727999813630323
20
2.8612553717078382
30
0
10
0.25859553256886791
20
2.7783319069079466
30
0
10
0.35436484222443615
20
2.7047640669377069
30
0
10
0.45409836789117064
20
2.6419397461263467
30
0
10
0.5569931501530907
20
2.5920996908123994
30
0
10
0.66180135863557099
20
2.5587661754529236
30
0
10
0.76696660645359049
20
2.5460693134257042
30
0
10
0.87095984986564745
20
2.5572695898108777
30
0
10
0.97257422354126533
20
2.5934164900219465
30
0
10
1.0712007787198545
20
2.6521588736997543
30
0
10
1.1672045097339254
20
2.725958035051232
30
0
10
1.2617186623334935
20
2.8036585123701703
30
0
10
1.3562269104415579
20
2.8732529368190587
30
0
10
1.4521972736216164
20
2.9244014575650601
30
0
10
1.5507346003895766
20
2.9507285044367308
30
0
10
1.6521262117903521
20
2.9530189949964236
30
0
10
1.7558309727756582
20
2.9388045268022234
30
0
10
1.8608774675326747
20
2.9186622206104569
30
0
10
1.9661615687818788
20
2.90328273441264
30
0
10
2.070756071480206
20
2.9005406393687223
30
0
10
2.1742882261854426
20
2.9117650787229925
30
0
10
2.2769001140529603
20
2.9325867880568697
30
0
10
2.3790111639402949
20
2.9559226554611699
30
0
10
2.4811385915260149
20
2.974354306203792
30
0
10
2.5837061270672441
20
2.9825839401519221
30
0
10
2.6868257349150815
20
2.98031161670119
30
0
10
2.7903607456279023
20
2.9711084400261942
30
0
10
2.8940509124302549
20
2.9604197891631578
30
0
10
2.9976163208066682
20
2.9538645595649289
30
0
10
3.1008690396981269
20
2.9554274995842951
30
0
10
3.2038245699403536
20
2.9656500418945813
30
0
10
3.3066277200167624
20
2.9824874897505902
30
0
10
3.4094723196815551
20
3.0022373560608875
30
0
10
3.5125259484254463
20
3.0204340016776405
30
0
10
3.6158463934313314
20
3.0327699301577815
30
0
10
3.7193193192778273
20
3.0359652431442248
30
0
10
3.8227507622807417
20
3.028165948599939
30
0
10
3.9259488210172435
20
3.0094421578941075
30
0
10
4.028801429118432
20
2.982137868039783
30
0
10
4.1313747904301632
20
2.9515477573070998
30
0
10
4.2339429445570174
20
2.9256280096872151
30
0
10
4.33683668813776
20
2.9122971583151047
30
0
10
4.4403179327378384
20
2.9169996003832628
30
0
10
4.5444612475127508
20
2.9405513005386852
30
0
10
4.6489906091130093
20
2.9759297334289307
30
0
10
4.7532853664871979
20
3.0088716054104294
30
0
10
4.8566121645779594
20
3.0234687647607505
30
0
10
4.9583119200690549
20
3.0068369994373736
30
0
10
5.0579809921018279
20
2.9534895399974785
30
0
10
5.1557143365530624
20
2.8715006276833694
30
0
10
5.2520609469853587
20
2.7806105180623115
30
0
10
5.3477747180454438
20
2.7046679514167393
30
0
10
5.4436164719223363
20
2.6654220870932575
30
0
10
5.5401555016563204
20
2.6764686600623677
30
0
10
5.6375213582746522
20
2.7354022200713239
30
0
10
5.735355742827732
20
2.82291058418111
30
0
10
5.8330537264126452
20
2.911816045760041
30
0
10
5.9299391687812344
20
2.9738993053569907
30
0
10
6.025455786450495
20
2.9871532894613302
30
0
10
6.1193775118257694
20
2.9439634447611818
30
0
10
6.2119285581489745
20
2.8553873008871049
30
0
10
6.3036205013369573
20
2.7433332974014437
30
0
10
6.3951412333748721
20
2.6349829024322844
30
0
10
6.48722187046355
20
2.5561946078622038
30
0
10
6.5805170034561016
20
2.5256576836964313
30
0
10
6.6754688600502661
20
2.5478853429550608
30
0
10
6.7722946394622543
20
2.6158646941622861
30
0
10
6.8709924946460843
20
2.7150143201682155
30
0
10
6.9713372824418487
20
2.8267507823729625
30
0
10
7.0728885275482787
20
2.932049553491372
30
0
10
7.1749724381282052
20
3.0154333884732507
30
0
10
7.2767954283571035
20
3.0662146681154168
30
0
10
7.3776020757621712
20
3.0786370911342424
30
0
10
7.476825914105893
20
3.052464189608219
30
0
10
7.5742268826948758
20
2.9932002531500435
30
0
10
7.6700768990409927
20
2.9129468170282093
30
0
10
7.7650436732516157
20
2.8278662404191439
30
0
10
7.8599873562658278
20
2.7547543609423588
30
0
10
7.9557787970296721
20
2.7077183887013851
30
0
10
8.0531261750028733
20
2.6952411352835792
30
0
10
8.152354972339598
20
2.7160090256013514
30
0
10
8.2533888490376501
20
2.7597431106215002
30
0
10
8.3558955708645417
20
2.8120199610787777
30
0
10
8.4593885839387148
20
2.85814538152662
30
0
10
8.5633399895455149
20
2.8869866142705982
30
0
10
8.6673052728124862
20
2.8958937759193208
30
0
10
8.7709649663575959
20
2.8901836930154738
30
0
10
8.8741100496886425
20
2.879193439627501
30
0
10
8.9766453458857303
20
2.8732708053933287
30
0
10
9.0785838834661234
20
2.8806139639293522
30
0
10
9.1800494822058134
20
2.9035693712993114
30
0
10
9.2812463414231026
20
2.9393758930587781
30
0
10
9.3824207216861204
20
2.9822019862707361
30
0
10
9.4838244385702772
20
3.0247775741458298
30
0
10
9.5856794849271729
20
3.0601145319505489
30
0
10
9.6881372370575232
20
3.0833987882327554
30
0
10
9.791287095422458
20
3.091798048604435
30
0
10
9.8743965313260667
20
3.0854669902238454
30
0
10
9.9370667718401346
20
3.0731692357671481
30
0
10
9.9789972111169174
20
3.0616155882591025
30
0
10
10
20
3.0549999999999997
30
0
0
ENDSEC
0
SECTION
2
OBJECTS
0
DICTIONARY
5
C
100
AcDbDictionary
3
ACAD_GROUP
350
D
3
ACAD_MLINESTYLE
350
17
0
DICTIONARY
5
D
100
AcDbDictionary
0
DICTIONARY
5
1A
330
C
100
AcDbDictionary
0
DICTIONARY
5
17
100
AcDbDictionary
0
ENDSEC
0
EOF
