0
SECTION
2
HEADER
9
$INSUNITS
70
4
9
$ACADVER
1
AC1014
9
$HANDSEED
5
FFFF
0
ENDSEC
0
SECTION
2
TABLES
0
TABLE
2
VPORT
5
8
100
AcDbSymbolTable
0
ENDTAB
0
TABLE
2
LTYPE
5
5
100
AcDbSymbolTable
0
LTYPE
5
14
100
AcDbSymbolTableRecord
100
AcDbLinetypeTableRecord
2
BYBLOCK
70
0
0
LTYPE
5
15
100
AcDbSymbolTableRecord
100
AcDbLinetypeTableRecord
2
BYLAYER
70
0
0
ENDTAB
0
TABLE
2
LAYER
5
2
100
AcDbSymbolTable
70
2
0
LAYER
5
50
100
AcDbSymbolTableRecord
100
AcDbLayerTableRecord
2
0
70
0
6
CONTINUOUS
0
ENDTAB
0
TABLE
2
STYLE
5
3
100
AcDbSymbolTable
70
1
0
STYLE
5
11
100
AcDbSymbolTableRecord
100
AcDbTextStyleTableRecord
2
STANDARD
70
0
0
ENDTAB
0
TABLE
2
VIEW
5
6
100
AcDbSymbolTable
70
0
0
ENDTAB
0
TABLE
2
UCS
5
7
100
AcDbSymbolTable
70
0
0
ENDTAB
0
TABLE
2
APPID
5
9
100
AcDbSymbolTable
70
2
0
APPID
5
12
100
AcDbSymbolTableRecord
100
AcDbRegAppTableRecord
2
ACAD
70
0
0
ENDTAB
0
TABLE
2
DIMSTYLE
5
A
100
AcDbSymbolTable
70
1
0
ENDTAB
0
TABLE
2
BLOCK_RECORD
5
1
100
AcDbSymbolTable
70
1
0
BLOCK_RECORD
5
1F
100
AcDbSymbolTableRecord
100
AcDbBlockTableRecord
2
*MODEL_SPACE
0
BLOCK_RECORD
5
1B
100
AcDbSymbolTableRecord
100
AcDbBlockTableRecord
2
*PAPER_SPACE
0
ENDTAB
0
ENDSEC
0
SECTION
2
BLOCKS
0
BLOCK
5
20
100
AcDbEntity
100
AcDbBlockBegin
2
*MODEL_SPACE
0
ENDBLK
5
21
100
AcDbEntity
100
AcDbBlockEnd
0
BLOCK
5
1C
100
AcDbEntity
100
AcDbBlockBegin
2
*PAPER_SPACE
0
ENDBLK
5
1D
100
AcDbEntity
100
AcDbBlockEnd
0
ENDSEC
0
SECTION
2
ENTITIES
0
SPLINE
5
100
100
AcDbEntity
8
0
100
AcDbSpline
70
4
71
5
72
16
73
10
74
0
42
0.000000001
43
0.0000000001
44
0.0000000001
40
0
40
0
40
0
40
0
40
0
40
0
40
0.20000000000000001
40
0.40000000000000002
40
0.60000000000000009
40
0.80000000000000004
40
1
40
1
40
1
40
1
40
1
40
1
41
1
41
1
41
1
41
1
41
1
41
1
41
1
41
1
41
1
41
1
10
0
20
-0.055000000000000049
30
0
10
0
20
0.069400000000207365
30
0
10
0
20
0.31820000000056603
30
0
10
0
20
0.69140000000093593
30
0
10
0
20
1.1890000000011365
30
0
10
0
20
1.8110000000010393
30
0
10
0
20
2.3086000000007481
30
0
10
0
20
2.6818000000004227
30
0
10
0
20
2.9306000000001484
30
0
10
0
20
3.0549999999999997
30
0
0
SPLINE
5
101
100
AcDbEntity
8
0
100
AcDbSpline
70
4
71
5
72
16
73
10
74
0
42
0.000000001
43
0.0000000001
44
0.0000000001
40
0
40
0
40
0
40
0
40
0
40
0
40
0.20000000000000001
40
0.40000000000000002
40
0.60000000000000009
40
0.80000000000000004
40
1
40
1
40
1
40
1
40
1
40
1
41
1
41
1
41
1
41
1
41
1
41
1
41
1
41
1
41
1
41
1
10
10
20
-0.055000000000000049
30
0
10
9.9999999999997495
20
0.069400000000207365
30
0
10
9.9999999999993197
20
0.31820000000056603
30
0
10
9.9999999999989129
20
0.69140000000093593
30
0
10
9.9999999999987672
20
1.1890000000011365
30
0
10
9.9999999999990248
20
1.8110000000010393
30
0
10
9.9999999999993889
20
2.3086000000007481
30
0
10
9.9999999999996998
20
2.6818000000004227
30
0
10
9.9999999999999005
20
2.9306000000001484
30
0
10
10
20
3.0549999999999997
30
0
0
SPLINE
5
102
100
AcDbEntity
8
0
100
AcDbSpline
70
4
71
5
72
16
73
10
74
0
42
0.000000001
43
0.0000000001
44
0.0000000001
40
0
40
0
40
0
40
0
40
0
40
0
40
0.20000000000000001
40
0.40000000000000002
40
0.60000000000000009
40
0.80000000000000004
40
1
40
1
40
1
40
1
40
1
40
1
41
1
41
1
41
1
41
1
41
1
41
1
41
1
41
1
41
1
41
1
10
0
20
1.5274999999999999
30
0
10
0.40000000000047375
20
1.5274999999999856
30
0
10
1.2000000000012774
20
1.5274999999999614
30
0
10
2.4000000000020547
20
1.527499999999943
30
0
10
4.0000000000023546
20
1.5274999999999479
30
0
10
6.0000000000019584
20
1.5274999999999812
30
0
10
7.6000000000012928
20
1.5275000000000025
30
0
10
8.800000000000697
20
1.5275000000000083
30
0
10
9.6000000000002395
20
1.5275000000000039
30
0
10
10
20
1.5274999999999999
30
0
0
SPLINE
5
103
100
AcDbEntity
8
0
100
AcDbSpline
70
4
71
5
72
61
73
55
74
0
42
0.000000001
43
0.0000000001
44
0.0000000001
40
0
40
0
40
0
40
0
40
0
40
0
40
0.02
40
0.040000000000000001
40
0.059999999999999998
40
0.080000000000000002
40
0.10000000000000001
40
0.12000000000000001
40
0.14000000000000001
40
0.16
40
0.17999999999999999
40
0.19999999999999998
40
0.21999999999999997
40
0.23999999999999996
40
0.25999999999999995
40
0.27999999999999997
40
0.29999999999999999
40
0.32000000000000001
40
0.34000000000000002
40
0.36000000000000004
40
0.38000000000000006
40
0.40000000000000008
40
0.4200000000000001
40
0.44000000000000011
40
0.46000000000000013
40
0.48000000000000015
40
0.50000000000000011
40
0.52000000000000013
40
0.54000000000000015
40
0.56000000000000016
40
0.58000000000000018
40
0.6000000000000002
40
0.62000000000000022
40
0.64000000000000024
40
0.66000000000000025
40
0.68000000000000027
40
0.70000000000000029
40
0.72000000000000031
40
0.74000000000000032
40
0.76000000000000034
40
0.78000000000000036
40
0.80000000000000038
40
0.8200000000000004
40
0.84000000000000041
40
0.86000000000000043
40
0.88000000000000045
40
0.90000000000000047
40
0.92000000000000048
40
0.9400000000000005
40
0.96000000000000052
40
0.98000000000000054
40
1
40
1
40
1
40
1
40
1
40
1
41
1
41
1
41
1
41
1
41
1
41
1
41
1
41
1
41
1
41
1
41
1
41
1
41
1
41
1
41
1
41
1
41
1
41
1
41
1
41
1
41
1
41
1
41
1
41
1
41
1
41
1
41
1
41
1
41
1
41
1
41
1
41
1
41
1
41
1
41
1
41
1
41
1
41
1
41
1
41
1
41
1
41
1
41
1
41
1
41
1
41
1
41
1
41
1
41
1
41
1
41
1
41
1
41
1
41
1
41
1
10
0
20
-0.055000000000000049
30
0
10
0.040550297269092643
20
-0.064489156908341963
30
0
10
0.12160606537931942
20
-0.081341492254548689
30
0
10
0.24305523815676355
20
-0.10024203109400909
30
0
10
0.40471833544451524
20
-0.11267875901541381
30
0
10
0.60635198877601071
20
-0.10742258982764456
30
0
10
0.80755222082105571
20
-0.082867241093869656
30
0
10
1.0083439501469482
20
-0.042076400925349589
30
0
10
1.2087700288486039
20
0.0097623391620098292
30
0
10
1.4088957808583993
20
0.064852455875559711
30
0
10
1.6088052186617903
20
0.11437213656095815
30
0
10
1.8085976462587514
20
0.14999052539869726
30
0
10
2.0083840713277001
20
0.16539403870844299
30
0
10
2.2082839595439827
20
0.15784896215293726
30
0
10
2.4084212550152815
20
0.12965692752974312
30
0
10
2.6089034307699892
20
0.086643394976724922
30
0
10
2.809800856866338
20
0.036757936308080379
30
0
10
3.0111264605778776
20
-0.011352951889775493
30
0
10
3.2128139424539928
20
-0.049775097449109809
30
0
10
3.414699671291523
20
-0.07270697671190661
30
0
10
3.6165740865075184
20
-0.07670125280867772
30
0
10
3.8182303893337299
20
-0.060982147017244602
30
0
10
4.0195129107652754
20
-0.0277096456341639
30
0
10
4.220368776478499
20
0.017651117048072304
30
0
10
4.4208896522552141
20
0.066207988461566364
30
0
10
4.6212501043262941
20
0.10796771810013814
30
0
10
4.821653451214603
20
0.13400892557085961
30
0
10
5.0222764131159252
20
0.13863564772118675
30
0
10
5.223210684693715
20
0.12173057898011178
30
0
10
5.4244159181246241
20
0.09050621117975946
30
0
10
5.6257758838557166
20
0.055972476413626376
30
0
10
5.827146167791045
20
0.029819618681123389
30
0
10
6.0284032053190453
20
0.021270025105125503
30
0
10
6.229496932487713
20
0.033650778834923845
30
0
10
6.4304898222191493
20
0.06191608292049855
30
0
10
6.6315028573676731
20
0.096561995218866145
30
0
10
6.8326708960648652
20
0.12691211626346102
30
0
10
7.0340962840207402
20
0.14448444303871721
30
0
10
7.2357989505228479
20
0.1466907634142223
30
0
10
7.4376803569031438
20
0.13932465838178185
30
0
10
7.639564011050318
20
0.13249545348540681
30
0
10
7.8412265959563285
20
0.13732131713102691
30
0
10
8.0424315035910592
20
0.16250303772019775
30
0
10
8.2429638369843143
20
0.21054504033363752
30
0
10
8.4426570217973804
20
0.27533226676898698
30
0
10
8.6413828520407989
20
0.34535355699725401
30
0
10
8.839047179583325
20
0.40609913032232492
30
0
10
9.0355835518617074
20
0.44268946106828272
30
0
10
9.2309477477138984
20
0.44259424509428724
30
0
10
9.4251122907458775
20
0.39774134367791159
30
0
10
9.6180627091444268
20
0.3033162128660517
30
0
10
9.7714473975007206
20
0.1862759278568786
30
0
10
9.8859370190697469
20
0.074833522705871638
30
0
10
9.9620196387899256
20
-0.0099706079839816993
30
0
10
10
20
-0.055000000000000049
30
0
0
SPLINE
5
104
100
AcDbEntity
8
0
100
AcDbSpline
70
4
71
5
72
61
73
55
74
0
42
0.000000001
43
0.0000000001
44
0.0000000001
40
0
40
0
40
0
40
0
40
0
40
0
40
0.02
40
0.040000000000000001
40
0.059999999999999998
40
0.080000000000000002
40
0.10000000000000001
40
0.12000000000000001
40
0.14000000000000001
40
0.16
40
0.17999999999999999
40
0.19999999999999998
40
0.21999999999999997
40
0.23999999999999996
40
0.25999999999999995
40
0.27999999999999997
40
0.29999999999999999
40
0.32000000000000001
40
0.34000000000000002
40
0.36000000000000004
40
0.38000000000000006
40
0.40000000000000008
40
0.4200000000000001
40
0.44000000000000011
40
0.46000000000000013
40
0.48000000000000015
40
0.50000000000000011
40
0.52000000000000013
40
0.54000000000000015
40
0.56000000000000016
40
0.58000000000000018
40
0.6000000000000002
40
0.62000000000000022
40
0.64000000000000024
40
0.66000000000000025
40
0.68000000000000027
40
0.70000000000000029
40
0.72000000000000031
40
0.74000000000000032
40
0.76000000000000034
40
0.78000000000000036
40
0.80000000000000038
40
0.8200000000000004
40
0.84000000000000041
40
0.86000000000000043
40
0.88000000000000045
40
0.90000000000000047
40
0.92000000000000048
40
0.9400000000000005
40
0.96000000000000052
40
0.98000000000000054
40
1
40
1
40
1
40
1
40
1
40
1
41
1
41
1
41
1
41
1
41
1
41
1
41
1
41
1
41
1
41
1
41
1
41
1
41
1
41
1
41
1
41
1
41
1
41
1
41
1
41
1
41
1
41
1
41
1
41
1
41
1
41
1
41
1
41
1
41
1
41
1
41
1
41
1
41
1
41
1
41
1
41
1
41
1
41
1
41
1
41
1
41
1
41
1
41
1
41
1
41
1
41
1
41
1
41
1
41
1
41
1
41
1
41
1
41
1
41
1
41
1
10
0
20
3.0549999999999997
30
0
10
0.040463855417520629
20
3.0571569721170495
30
0
10
0.12137334071127216
20
3.0607963363650792
30
0
10
0.24268289141266036
20
3.0642316244206684
30
0
10
0.4043195386037769
20
3.0647620133701778
30
0
10
0.60618918390809895
20
3.0588804877126168
30
0
10
0.8079021048702173
20
3.0471007888179935
30
0
10
1.0094975844606588
20
3.0307316702880844
30
0
10
1.2110420483102038
20
3.0119866581801711
30
0
10
1.4126346744774274
20
2.9941760856548818
30
0
10
1.6143768129050922
20
2.980806787636828
30
0
10
1.8163423161920256
20
2.9747119104761488
30
0
10
2.0185485536225896
20
2.9771961377542699
30
0
10
2.2209244899386533
20
2.9871057217771817
30
0
10
2.4232869528820036
20
3.0001100791854678
30
0
10
2.6254049592047219
20
3.0102835456677197
30
0
10
2.8270584976796642
20
3.0115345154017654
30
0
10
3.0280971482890502
20
2.9990460880570828
30
0
10
3.2285042063547409
20
2.970819559593505
30
0
10
3.4284432948548442
20
2.9288717401347908
30
0
10
3.6281846015991963
20
2.8780126562613626
30
0
10
3.8280436933017898
20
2.8248882966331883
30
0
10
4.0283168708419828
20
2.7769303212748002
30
0
10
4.2292151658096229
20
2.7413411724708774
30
0
10
4.4308071258840265
20
2.7240875829658382
30
0
10
4.6330288163994284
20
2.7291506578118367
30
0
10
4.8356844448031842
20
2.7576982908761485
30
0
10
5.0384535903677099
20
2.8073671847196131
30
0
10
5.2408873882159046
20
2.8712842569232193
30
0
10
5.4424326027879708
20
2.9378008811069649
30
0
10
5.6425743272259403
20
2.9934207471918244
30
0
10
5.8409676013827401
20
3.0253424259702353
30
0
10
6.0375631836918222
20
3.0240302371334637
30
0
10
6.2327613513471594
20
2.9860665960418009
30
0
10
6.4274802138076792
20
2.9160357224159155
30
0
10
6.6228317686347076
20
2.8238196919544132
30
0
10
6.8198486035851067
20
2.7225318336396893
30
0
10
7.0191993701881783
20
2.6262387187346361
30
0
10
7.2208883675545117
20
2.54771668444618
30
0
10
7.4240173057940106
20
2.4963664935761329
30
0
10
7.6272024814041215
20
2.4782218229824107
30
0
10
7.8289441413110374
20
2.4957636440765274
30
0
10
8.0280018137736668
20
2.5478263493715958
30
0
10
8.2237948086737269
20
2.6293893273541329
30
0
10
8.416713392712202
20
2.7315957181913952
30
0
10
8.6077913170207694
20
2.8432756724195123
30
0
10
8.7984488876202853
20
2.9523008945790692
30
0
10
8.9902081638646685
20
3.0470113449686709
30
0
10
9.1844251761950559
20
3.1175851861302806
30
0
10
9.3820020061204126
20
3.1575085842574531
30
0
10
9.583470372464344
20
3.1629494945111158
30
0
10
9.7479663755785815
20
3.138225054567612
30
0
10
9.8732429786619473
20
3.1030689302222223
30
0
10
9.9576066678589932
20
3.0722527647296123
30
0
10
10
20
3.0549999999999997
30
0
0
ENDSEC
0
SECTION
2
OBJECTS
0
DICTIONARY
5
C
100
AcDbDictionary
3
ACAD_GROUP
350
D
3
ACAD_MLINESTYLE
350
17
0
DICTIONARY
5
D
100
AcDbDictionary
0
DICTIONARY
5
1A
330
C
100
AcDbDictionary
0
DICTIONARY
5
17
100
AcDbDictionary
0
ENDSEC
0
EOF
