0
SECTION
2
HEADER
9
$INSUNITS
70
4
9
$ACADVER
1
AC1014
9
$HANDSEED
5
FFFF
0
ENDSEC
0
SECTION
2
TABLES
0
TABLE
2
VPORT
5
8
100
AcDbSymbolTable
0
ENDTAB
0
TABLE
2
LTYPE
5
5
100
AcDbSymbolTable
0
LTYPE
5
14
100
AcDbSymbolTableRecord
100
AcDbLinetypeTableRecord
2
BYBLOCK
70
0
0
LTYPE
5
15
100
AcDbSymbolTableRecord
100
AcDbLinetypeTableRecord
2
BYLAYER
70
0
0
ENDTAB
0
TABLE
2
LAYER
5
2
100
AcDbSymbolTable
70
2
0
LAYER
5
50
100
AcDbSymbolTableRecord
100
AcDbLayerTableRecord
2
0
70
0
6
CONTINUOUS
0
ENDTAB
0
TABLE
2
STYLE
5
3
100
AcDbSymbolTable
70
1
0
STYLE
5
11
100
AcDbSymbolTableRecord
100
AcDbTextStyleTableRecord
2
STANDARD
70
0
0
ENDTAB
0
TABLE
2
VIEW
5
6
100
AcDbSymbolTable
70
0
0
ENDTAB
0
TABLE
2
UCS
5
7
100
AcDbSymbolTable
70
0
0
ENDTAB
0
TABLE
2
APPID
5
9
100
AcDbSymbolTable
70
2
0
APPID
5
12
100
AcDbSymbolTableRecord
100
AcDbRegAppTableRecord
2
ACAD
70
0
0
ENDTAB
0
TABLE
2
DIMSTYLE
5
A
100
AcDbSymbolTable
70
1
0
ENDTAB
0
TABLE
2
BLOCK_RECORD
5
1
100
AcDbSymbolTable
70
1
0
BLOCK_RECORD
5
1F
100
AcDbSymbolTableRecord
100
AcDbBlockTableRecord
2
*MODEL_SPACE
0
BLOCK_RECORD
5
1B
100
AcDbSymbolTableRecord
100
AcDbBlockTableRecord
2
*PAPER_SPACE
0
ENDTAB
0
ENDSEC
0
SECTION
2
BLOCKS
0
BLOCK
5
20
100
AcDbEntity
100
AcDbBlockBegin
2
*MODEL_SPACE
0
ENDBLK
5
21
100
AcDbEntity
100
AcDbBlockEnd
0
BLOCK
5
1C
100
AcDbEntity
100
AcDbBlockBegin
2
*PAPER_SPACE
0
ENDBLK
5
1D
100
AcDbEntity
100
AcDbBlockEnd
0
ENDSEC
0
SECTION
2
ENTITIES
0
SPLINE
5
100
100
AcDbEntity
8
0
100
AcDbSpline
70
4
71
5
72
16
73
10
74
0
42
0.000000001
43
0.0000000001
44
0.0000000001
40
0
40
0
40
0
40
0
40
0
40
0
40
0.20000000000000001
40
0.40000000000000002
40
0.60000000000000009
40
0.80000000000000004
40
1
40
1
40
1
40
1
40
1
40
1
41
1
41
1
41
1
41
1
41
1
41
1
41
1
41
1
41
1
41
1
10
0
20
-0.055000000000000049
30
0
10
0
20
0.069400000000207365
30
0
10
0
20
0.31820000000056603
30
0
10
0
20
0.69140000000093593
30
0
10
0
20
1.1890000000011365
30
0
10
0
20
1.8110000000010393
30
0
10
0
20
2.3086000000007481
30
0
10
0
20
2.6818000000004227
30
0
10
0
20
2.9306000000001484
30
0
10
0
20
3.0549999999999997
30
0
0
SPLINE
5
101
100
AcDbEntity
8
0
100
AcDbSpline
70
4
71
5
72
16
73
10
74
0
42
0.000000001
43
0.0000000001
44
0.0000000001
40
0
40
0
40
0
40
0
40
0
40
0
40
0.20000000000000001
40
0.40000000000000002
40
0.60000000000000009
40
0.80000000000000004
40
1
40
1
40
1
40
1
40
1
40
1
41
1
41
1
41
1
41
1
41
1
41
1
41
1
41
1
41
1
41
1
10
10
20
-0.055000000000000049
30
0
10
9.9999999999997495
20
0.069400000000207365
30
0
10
9.9999999999993197
20
0.31820000000056603
30
0
10
9.9999999999989129
20
0.69140000000093593
30
0
10
9.9999999999987672
20
1.1890000000011365
30
0
10
9.9999999999990248
20
1.8110000000010393
30
0
10
9.9999999999993889
20
2.3086000000007481
30
0
10
9.9999999999996998
20
2.6818000000004227
30
0
10
9.9999999999999005
20
2.9306000000001484
30
0
10
10
20
3.0549999999999997
30
0
0
SPLINE
5
102
100
AcDbEntity
8
0
100
AcDbSpline
70
4
71
5
72
16
73
10
74
0
42
0.000000001
43
0.0000000001
44
0.0000000001
40
0
40
0
40
0
40
0
40
0
40
0
40
0.20000000000000001
40
0.40000000000000002
40
0.60000000000000009
40
0.80000000000000004
40
1
40
1
40
1
40
1
40
1
40
1
41
1
41
1
41
1
41
1
41
1
41
1
41
1
41
1
41
1
41
1
10
0
20
1.5274999999999999
30
0
10
0.40000000000047375
20
1.5274999999999856
30
0
10
1.2000000000012774
20
1.5274999999999614
30
0
10
2.4000000000020547
20
1.527499999999943
30
0
10
4.0000000000023546
20
1.5274999999999479
30
0
10
6.0000000000019584
20
1.5274999999999812
30
0
10
7.6000000000012928
20
1.5275000000000025
30
0
10
8.800000000000697
20
1.5275000000000083
30
0
10
9.6000000000002395
20
1.5275000000000039
30
0
10
10
20
1.5274999999999999
30
0
0
SPLINE
5
103
100
AcDbEntity
8
0
100
AcDbSpline
70
4
71
5
72
61
73
55
74
0
42
0.000000001
43
0.0000000001
44
0.0000000001
40
0
40
0
40
0
40
0
40
0
40
0
40
0.02
40
0.040000000000000001
40
0.059999999999999998
40
0.080000000000000002
40
0.10000000000000001
40
0.12000000000000001
40
0.14000000000000001
40
0.16
40
0.17999999999999999
40
0.19999999999999998
40
0.21999999999999997
40
0.23999999999999996
40
0.25999999999999995
40
0.27999999999999997
40
0.29999999999999999
40
0.32000000000000001
40
0.34000000000000002
40
0.36000000000000004
40
0.38000000000000006
40
0.40000000000000008
40
0.4200000000000001
40
0.44000000000000011
40
0.46000000000000013
40
0.48000000000000015
40
0.50000000000000011
40
0.52000000000000013
40
0.54000000000000015
40
0.56000000000000016
40
0.58000000000000018
40
0.6000000000000002
40
0.62000000000000022
40
0.64000000000000024
40
0.66000000000000025
40
0.68000000000000027
40
0.70000000000000029
40
0.72000000000000031
40
0.74000000000000032
40
0.76000000000000034
40
0.78000000000000036
40
0.80000000000000038
40
0.8200000000000004
40
0.84000000000000041
40
0.86000000000000043
40
0.88000000000000045
40
0.90000000000000047
40
0.92000000000000048
40
0.9400000000000005
40
0.96000000000000052
40
0.98000000000000054
40
1
40
1
40
1
40
1
40
1
40
1
41
1
41
1
41
1
41
1
41
1
41
1
41
1
41
1
41
1
41
1
41
1
41
1
41
1
41
1
41
1
41
1
41
1
41
1
41
1
41
1
41
1
41
1
41
1
41
1
41
1
41
1
41
1
41
1
41
1
41
1
41
1
41
1
41
1
41
1
41
1
41
1
41
1
41
1
41
1
41
1
41
1
41
1
41
1
41
1
41
1
41
1
41
1
41
1
41
1
41
1
41
1
41
1
41
1
41
1
41
1
10
0
20
-0.055000000000000049
30
0
10
0.039804075807658046
20
-0.04110468735817107
30
0
10
0.11951543325510142
20
-0.015687861950372643
30
0
10
0.23939208914269247
20
0.015315939862201134
30
0
10
0.3998472540920831
20
0.042402506381961677
30
0
10
0.60141148690693214
20
0.053154762746058543
30
0
10
0.80385421658130807
20
0.042842942088533204
30
0
10
1.0069392217311988
20
0.015614849625005275
30
0
10
1.2102681509779447
20
-0.021521222279448086
30
0
10
1.4132437986586399
20
-0.058040360273488849
30
0
10
1.6152174763372864
20
-0.082315898791375852
30
0
10
1.8156323538096828
20
-0.083963219949133736
30
0
10
2.0141653948485621
20
-0.056167081278094694
30
0
10
2.2108775922102799
20
0.0018714022715306412
30
0
10
2.4063413415039649
20
0.082819813582180948
30
0
10
2.6014140324755575
20
0.17425101195548803
30
0
10
2.7970333369181084
20
0.26136500780797972
30
0
10
2.9940034078897808
20
0.32983281187359997
30
0
10
3.1927876525569259
20
0.36856053524364163
30
0
10
3.3932898892502159
20
0.37256856879942263
30
0
10
3.595023804973084
20
0.34227719159550302
30
0
10
3.797291443193358
20
0.28271273681499359
30
0
10
3.9993577835551468
20
0.20275761181268853
30
0
10
4.2006264266591611
20
0.11439139509096093
30
0
10
4.4008158132394204
20
0.031952523567420406
30
0
10
4.5998947280368574
20
-0.030303152496666798
30
0
10
4.7980173416153864
20
-0.060639724103146615
30
0
10
4.9954588983964152
20
-0.052304403823832148
30
0
10
5.1925517896222271
20
-0.0059490961180868711
30
0
10
5.3896210259611275
20
0.067792793358831163
30
0
10
5.5869610009408168
20
0.15224857792736982
30
0
10
5.7848134134140192
20
0.22874457173624296
30
0
10
5.9833440364392496
20
0.28066576205656973
30
0
10
6.182621138004575
20
0.29735891446141866
30
0
10
6.3825892505908648
20
0.27851952200294494
30
0
10
6.5831069097077686
20
0.2315286388030349
30
0
10
6.7839892251853815
20
0.16823547338131312
30
0
10
6.9850490970650192
20
0.1019217255354711
30
0
10
7.1861377047049535
20
0.04427150340425598
30
0
10
7.3871887306967432
20
0.0021343996177856477
30
0
10
7.5881977589500256
20
-0.021792339569297711
30
0
10
7.789197045117513
20
-0.027994642279582843
30
0
10
7.9902318886937511
20
-0.01928328784103572
30
0
10
8.1913368220986307
20
9.6833403717665119e-05
30
0
10
8.3925106799140448
20
0.025356711117323648
30
0
10
8.5937257552845523
20
0.051526011397776517
30
0
10
8.7949385363535431
20
0.073786290068867291
30
0
10
8.9960998423028968
20
0.087816703584831249
30
0
10
9.1971651183223955
20
0.090132460865266606
30
0
10
9.3981048616683651
20
0.078437226438477434
30
0
10
9.5989016750574994
20
0.051382281383405962
30
0
10
9.759418001868422
20
0.016930425429798324
30
0
10
9.8797359373523257
20
-0.01620074082876901
30
0
10
9.9599171098549792
20
-0.041527095561557446
30
0
10
10
20
-0.055000000000000049
30
0
0
SPLINE
5
104
100
AcDbEntity
8
0
100
AcDbSpline
70
4
71
5
72
61
73
55
74
0
42
0.000000001
43
0.0000000001
44
0.0000000001
40
0
40
0
40
0
40
0
40
0
40
0
40
0.02
40
0.040000000000000001
40
0.059999999999999998
40
0.080000000000000002
40
0.10000000000000001
40
0.12000000000000001
40
0.14000000000000001
40
0.16
40
0.17999999999999999
40
0.19999999999999998
40
0.21999999999999997
40
0.23999999999999996
40
0.25999999999999995
40
0.27999999999999997
40
0.29999999999999999
40
0.32000000000000001
40
0.34000000000000002
40
0.36000000000000004
40
0.38000000000000006
40
0.40000000000000008
40
0.4200000000000001
40
0.44000000000000011
40
0.46000000000000013
40
0.48000000000000015
40
0.50000000000000011
40
0.52000000000000013
40
0.54000000000000015
40
0.56000000000000016
40
0.58000000000000018
40
0.6000000000000002
40
0.62000000000000022
40
0.64000000000000024
40
0.66000000000000025
40
0.68000000000000027
40
0.70000000000000029
40
0.72000000000000031
40
0.74000000000000032
40
0.76000000000000034
40
0.78000000000000036
40
0.80000000000000038
40
0.8200000000000004
40
0.84000000000000041
40
0.86000000000000043
40
0.88000000000000045
40
0.90000000000000047
40
0.92000000000000048
40
0.9400000000000005
40
0.96000000000000052
40
0.98000000000000054
40
1
40
1
40
1
40
1
40
1
40
1
41
1
41
1
41
1
41
1
41
1
41
1
41
1
41
1
41
1
41
1
41
1
41
1
41
1
41
1
41
1
41
1
41
1
41
1
41
1
41
1
41
1
41
1
41
1
41
1
41
1
41
1
41
1
41
1
41
1
41
1
41
1
41
1
41
1
41
1
41
1
41
1
41
1
41
1
41
1
41
1
41
1
41
1
41
1
41
1
41
1
41
1
41
1
41
1
41
1
41
1
41
1
41
1
41
1
41
1
41
1
10
0
20
3.0549999999999997
30
0
10
0.040238146718536642
20
3.0458117088246723
30
0
10
0.12072420848958376
20
3.028531683088719
30
0
10
0.2414826062129535
20
3.005901320149087
30
0
10
0.40255245093351866
20
2.982311090197487
30
0
10
0.60398605783544324
20
2.9636452260901529
30
0
10
0.80551123245953538
20
2.9553047553307681
30
0
10
1.0071182273745287
20
2.9562647405123457
30
0
10
1.2087904736054718
20
2.9647817164143926
30
0
10
1.4105029463854089
20
2.9782190106200361
30
0
10
1.6122260982174408
20
2.9933866661835102
30
0
10
1.8139296214025338
20
3.0068635064984477
30
0
10
2.0155862498799877
20
3.0153267414075566
30
0
10
2.2171755949098668
20
3.0158743104882308
30
0
10
2.4186878494241864
20
3.0063622200405189
30
0
10
2.6201249848984389
20
2.9858481420882899
30
0
10
2.8215022959623433
20
2.955053102364797
30
0
10
3.0228495278816041
20
2.9167766327005138
30
0
10
3.2242129703445204
20
2.876439873614836
30
0
10
3.4256550341734342
20
2.8422866343008857
30
0
10
3.6272335520835126
20
2.8228040712060083
30
0
10
3.8289823223138608
20
2.8243177039956286
30
0
10
4.0308922641494043
20
2.8486683444776961
30
0
10
4.2328895418868218
20
2.8904860585096119
30
0
10
4.4348226670961104
20
2.9356685691542843
30
0
10
4.6365030022648916
20
2.9669509533559872
30
0
10
4.8377398402752192
20
2.9687977450997431
30
0
10
5.0383757971749095
20
2.9322447646533849
30
0
10
5.2383262627791751
20
2.8605118811309587
30
0
10
5.4376048912020325
20
2.772103392066926
30
0
10
5.6362842682403089
20
2.6923934223740398
30
0
10
5.8344650341993756
20
2.6466692017610187
30
0
10
6.0322433330915661
20
2.652944087573422
30
0
10
6.2296754779071151
20
2.7140737681676392
30
0
10
6.4267542132213729
20
2.8124518754374579
30
0
10
6.6234523224933159
20
2.9196299423146117
30
0
10
6.8197584024162854
20
3.0041555386706271
30
0
10
7.0157146895513236
20
3.0399302556300603
30
0
10
7.2114564954401308
20
3.0147182876363665
30
0
10
7.4072444599626781
20
2.9375837909242764
30
0
10
7.6033966450675035
20
2.8308536365419186
30
0
10
7.8002274772550688
20
2.7231506944510158
30
0
10
7.9979839868617262
20
2.6420308091665561
30
0
10
8.1967833397370953
20
2.6068195287097313
30
0
10
8.3965486664193065
20
2.6212684643697317
30
0
10
8.5970663506759841
20
2.6777508294057699
30
0
10
8.7980439040276526
20
2.7615117896517427
30
0
10
8.9991673937796097
20
2.8548788049104767
30
0
10
9.2001588465059587
20
2.9414700690067059
30
0
10
9.4008339580843465
20
3.010420871379353
30
0
10
9.601083125981237
20
3.0552690142621315
30
0
10
9.7608984850131506
20
3.0693157768814978
30
0
10
9.8805362151773792
20
3.0671096068196944
30
0
10
9.9601953046055449
20
3.0599797193526044
30
0
10
10
20
3.0549999999999997
30
0
0
ENDSEC
0
SECTION
2
OBJECTS
0
DICTIONARY
5
C
100
AcDbDictionary
3
ACAD_GROUP
350
D
3
ACAD_MLINESTYLE
350
17
0
DICTIONARY
5
D
100
AcDbDictionary
0
DICTIONARY
5
1A
330
C
100
AcDbDictionary
0
DICTIONARY
5
17
100
AcDbDictionary
0
ENDSEC
0
EOF
