0
SECTION
2
HEADER
9
$INSUNITS
70
4
9
$ACADVER
1
AC1014
9
$HANDSEED
5
FFFF
0
ENDSEC
0
SECTION
2
TABLES
0
TABLE
2
VPORT
5
8
100
AcDbSymbolTable
0
ENDTAB
0
TABLE
2
LTYPE
5
5
100
AcDbSymbolTable
0
LTYPE
5
14
100
AcDbSymbolTableRecord
100
AcDbLinetypeTableRecord
2
BYBLOCK
70
0
0
LTYPE
5
15
100
AcDbSymbolTableRecord
100
AcDbLinetypeTableRecord
2
BYLAYER
70
0
0
ENDTAB
0
TABLE
2
LAYER
5
2
100
AcDbSymbolTable
70
2
0
LAYER
5
50
100
AcDbSymbolTableRecord
100
AcDbLayerTableRecord
2
0
70
0
6
CONTINUOUS
0
ENDTAB
0
TABLE
2
STYLE
5
3
100
AcDbSymbolTable
70
1
0
STYLE
5
11
100
AcDbSymbolTableRecord
100
AcDbTextStyleTableRecord
2
STANDARD
70
0
0
ENDTAB
0
TABLE
2
VIEW
5
6
100
AcDbSymbolTable
70
0
0
ENDTAB
0
TABLE
2
UCS
5
7
100
AcDbSymbolTable
70
0
0
ENDTAB
0
TABLE
2
APPID
5
9
100
AcDbSymbolTable
70
2
0
APPID
5
12
100
AcDbSymbolTableRecord
100
AcDbRegAppTableRecord
2
ACAD
70
0
0
ENDTAB
0
TABLE
2
DIMSTYLE
5
A
100
AcDbSymbolTable
70
1
0
ENDTAB
0
TABLE
2
BLOCK_RECORD
5
1
100
AcDbSymbolTable
70
1
0
BLOCK_RECORD
5
1F
100
AcDbSymbolTableRecord
100
AcDbBlockTableRecord
2
*MODEL_SPACE
0
BLOCK_RECORD
5
1B
100
AcDbSymbolTableRecord
100
AcDbBlockTableRecord
2
*PAPER_SPACE
0
ENDTAB
0
ENDSEC
0
SECTION
2
BLOCKS
0
BLOCK
5
20
100
AcDbEntity
100
AcDbBlockBegin
2
*MODEL_SPACE
0
ENDBLK
5
21
100
AcDbEntity
100
AcDbBlockEnd
0
BLOCK
5
1C
100
AcDbEntity
100
AcDbBlockBegin
2
*PAPER_SPACE
0
ENDBLK
5
1D
100
AcDbEntity
100
AcDbBlockEnd
0
ENDSEC
0
SECTION
2
ENTITIES
0
SPLINE
5
100
100
AcDbEntity
8
0
100
AcDbSpline
70
4
71
5
72
16
73
10
74
0
42
0.000000001
43
0.0000000001
44
0.0000000001
40
0
40
0
40
0
40
0
40
0
40
0
40
0.20000000000000001
40
0.40000000000000002
40
0.60000000000000009
40
0.80000000000000004
40
1
40
1
40
1
40
1
40
1
40
1
41
1
41
1
41
1
41
1
41
1
41
1
41
1
41
1
41
1
41
1
10
0
20
-0.055000000000000049
30
0
10
0
20
0.069400000000207365
30
0
10
0
20
0.31820000000056603
30
0
10
0
20
0.69140000000093593
30
0
10
0
20
1.1890000000011365
30
0
10
0
20
1.8110000000010393
30
0
10
0
20
2.3086000000007481
30
0
10
0
20
2.6818000000004227
30
0
10
0
20
2.9306000000001484
30
0
10
0
20
3.0549999999999997
30
0
0
SPLINE
5
101
100
AcDbEntity
8
0
100
AcDbSpline
70
4
71
5
72
16
73
10
74
0
42
0.000000001
43
0.0000000001
44
0.0000000001
40
0
40
0
40
0
40
0
40
0
40
0
40
0.20000000000000001
40
0.40000000000000002
40
0.60000000000000009
40
0.80000000000000004
40
1
40
1
40
1
40
1
40
1
40
1
41
1
41
1
41
1
41
1
41
1
41
1
41
1
41
1
41
1
41
1
10
10
20
-0.055000000000000049
30
0
10
9.9999999999997495
20
0.069400000000207365
30
0
10
9.9999999999993197
20
0.31820000000056603
30
0
10
9.9999999999989129
20
0.69140000000093593
30
0
10
9.9999999999987672
20
1.1890000000011365
30
0
10
9.9999999999990248
20
1.8110000000010393
30
0
10
9.9999999999993889
20
2.3086000000007481
30
0
10
9.9999999999996998
20
2.6818000000004227
30
0
10
9.9999999999999005
20
2.9306000000001484
30
0
10
10
20
3.0549999999999997
30
0
0
SPLINE
5
102
100
AcDbEntity
8
0
100
AcDbSpline
70
4
71
5
72
16
73
10
74
0
42
0.000000001
43
0.0000000001
44
0.0000000001
40
0
40
0
40
0
40
0
40
0
40
0
40
0.20000000000000001
40
0.40000000000000002
40
0.60000000000000009
40
0.80000000000000004
40
1
40
1
40
1
40
1
40
1
40
1
41
1
41
1
41
1
41
1
41
1
41
1
41
1
41
1
41
1
41
1
10
0
20
1.5274999999999999
30
0
10
0.40000000000047375
20
1.5274999999999856
30
0
10
1.2000000000012774
20
1.5274999999999614
30
0
10
2.4000000000020547
20
1.527499999999943
30
0
10
4.0000000000023546
20
1.5274999999999479
30
0
10
6.0000000000019584
20
1.5274999999999812
30
0
10
7.6000000000012928
20
1.5275000000000025
30
0
10
8.800000000000697
20
1.5275000000000083
30
0
10
9.6000000000002395
20
1.5275000000000039
30
0
10
10
20
1.5274999999999999
30
0
0
SPLINE
5
103
100
AcDbEntity
8
0
100
AcDbSpline
70
4
71
5
72
61
73
55
74
0
42
0.000000001
43
0.0000000001
44
0.0000000001
40
0
40
0
40
0
40
0
40
0
40
0
40
0.02
40
0.040000000000000001
40
0.059999999999999998
40
0.080000000000000002
40
0.10000000000000001
40
0.12000000000000001
40
0.14000000000000001
40
0.16
40
0.17999999999999999
40
0.19999999999999998
40
0.21999999999999997
40
0.23999999999999996
40
0.25999999999999995
40
0.27999999999999997
40
0.29999999999999999
40
0.32000000000000001
40
0.34000000000000002
40
0.36000000000000004
40
0.38000000000000006
40
0.40000000000000008
40
0.4200000000000001
40
0.44000000000000011
40
0.46000000000000013
40
0.48000000000000015
40
0.50000000000000011
40
0.52000000000000013
40
0.54000000000000015
40
0.56000000000000016
40
0.58000000000000018
40
0.6000000000000002
40
0.62000000000000022
40
0.64000000000000024
40
0.66000000000000025
40
0.68000000000000027
40
0.70000000000000029
40
0.72000000000000031
40
0.74000000000000032
40
0.76000000000000034
40
0.78000000000000036
40
0.80000000000000038
40
0.8200000000000004
40
0.84000000000000041
40
0.86000000000000043
40
0.88000000000000045
40
0.90000000000000047
40
0.92000000000000048
40
0.9400000000000005
40
0.96000000000000052
40
0.98000000000000054
40
1
40
1
40
1
40
1
40
1
40
1
41
1
41
1
41
1
41
1
41
1
41
1
41
1
41
1
41
1
41
1
41
1
41
1
41
1
41
1
41
1
41
1
41
1
41
1
41
1
41
1
41
1
41
1
41
1
41
1
41
1
41
1
41
1
41
1
41
1
41
1
41
1
41
1
41
1
41
1
41
1
41
1
41
1
41
1
41
1
41
1
41
1
41
1
41
1
41
1
41
1
41
1
41
1
41
1
41
1
41
1
41
1
41
1
41
1
41
1
41
1
10
0
20
-0.055000000000000049
30
0
10
0.040734209464851442
20
-0.066348563358778326
30
0
10
0.12211940565531931
20
-0.086242473540018225
30
0
10
0.24394753156488763
20
-0.1076736513242859
30
0
10
0.40588537211781955
20
-0.11941854907259046
30
0
10
0.607480718640103
20
-0.10668887002534419
30
0
10
0.80826986201550199
20
-0.068583636017616634
30
0
10
1.00829677106904
20
-0.0092497888214754954
30
0
10
1.2076371534256831
20
0.06429350310286483
30
0
10
1.4064065673945894
20
0.14149730492413393
30
0
10
1.6047559531342821
20
0.21043721164513268
30
0
10
1.8028676992652979
20
0.25986774554630854
30
0
10
2.0009515834702025
20
0.28131217603756414
30
0
10
2.1992409121145435
20
0.2711495440057049
30
0
10
2.3979884843307002
20
0.23269928931567602
30
0
10
2.5974187646460893
20
0.17408069224435768
30
0
10
2.7976802287591687
20
0.10610360389695633
30
0
10
2.9987973745232122
20
0.040155235369079292
30
0
10
3.2006227445394897
20
-0.01390401634412225
30
0
10
3.4027879218345563
20
-0.049861156794139279
30
0
10
3.6048195573490149
20
-0.064682009482480818
30
0
10
3.8062564811121442
20
-0.058037920965919101
30
0
10
4.0067653117336759
20
-0.031841547772649269
30
0
10
4.2062593938326911
20
0.010212206695649354
30
0
10
4.4050101518642695
20
0.06310650051055422
30
0
10
4.6034971031441376
20
0.12114843664129314
30
0
10
4.8022655008455404
20
0.17860872603046818
30
0
10
5.0017817670344824
20
0.23036141577441616
30
0
10
5.2022889418932099
20
0.27252821504847702
30
0
10
5.4036638578835241
20
0.30311427285220555
30
0
10
5.6055511988875804
20
0.32148051264037142
30
0
10
5.8074951440990308
20
0.32782567902940085
30
0
10
6.0090702473351509
20
0.32267514054691404
30
0
10
6.2100155832867374
20
0.30635136686822545
30
0
10
6.410359503126223
20
0.27850036614993101
30
0
10
6.6103127056730919
20
0.23892048188497933
30
0
10
6.8101699387568679
20
0.18835169465284227
30
0
10
7.0102098773140913
20
0.12926330856071114
30
0
10
7.2105932489913638
20
0.066690116620157919
30
0
10
7.4112686995131121
20
0.0089328249140398792
30
0
10
7.6120504270930347
20
-0.034587422747242115
30
0
10
7.8126883984555704
20
-0.055364891381275538
30
0
10
8.0129402344284735
20
-0.047853283775661198
30
0
10
8.2126444363993976
20
-0.011593090841222392
30
0
10
8.4117872981542323
20
0.046909467479620354
30
0
10
8.610458127432457
20
0.11655336718924508
30
0
10
8.8088106409485363
20
0.18378151624248137
30
0
10
9.0070224585639309
20
0.23478560467244727
30
0
10
9.2052550039845222
20
0.25771063886287104
30
0
10
9.4036146571554653
20
0.24477854964156995
30
0
10
9.6021650121120281
20
0.1913851804467116
30
0
10
9.761182926859048
20
0.11451704654844794
30
0
10
9.8805508554007737
20
0.037344980705014734
30
0
10
9.9601758835471816
20
-0.022773296890714702
30
0
10
10
20
-0.055000000000000049
30
0
0
SPLINE
5
104
100
AcDbEntity
8
0
100
AcDbSpline
70
4
71
5
72
61
73
55
74
0
42
0.000000001
43
0.0000000001
44
0.0000000001
40
0
40
0
40
0
40
0
40
0
40
0
40
0.02
40
0.040000000000000001
40
0.059999999999999998
40
0.080000000000000002
40
0.10000000000000001
40
0.12000000000000001
40
0.14000000000000001
40
0.16
40
0.17999999999999999
40
0.19999999999999998
40
0.21999999999999997
40
0.23999999999999996
40
0.25999999999999995
40
0.27999999999999997
40
0.29999999999999999
40
0.32000000000000001
40
0.34000000000000002
40
0.36000000000000004
40
0.38000000000000006
40
0.40000000000000008
40
0.4200000000000001
40
0.44000000000000011
40
0.46000000000000013
40
0.48000000000000015
40
0.50000000000000011
40
0.52000000000000013
40
0.54000000000000015
40
0.56000000000000016
40
0.58000000000000018
40
0.6000000000000002
40
0.62000000000000022
40
0.64000000000000024
40
0.66000000000000025
40
0.68000000000000027
40
0.70000000000000029
40
0.72000000000000031
40
0.74000000000000032
40
0.76000000000000034
40
0.78000000000000036
40
0.80000000000000038
40
0.8200000000000004
40
0.84000000000000041
40
0.86000000000000043
40
0.88000000000000045
40
0.90000000000000047
40
0.92000000000000048
40
0.9400000000000005
40
0.96000000000000052
40
0.98000000000000054
40
1
40
1
40
1
40
1
40
1
40
1
41
1
41
1
41
1
41
1
41
1
41
1
41
1
41
1
41
1
41
1
41
1
41
1
41
1
41
1
41
1
41
1
41
1
41
1
41
1
41
1
41
1
41
1
41
1
41
1
41
1
41
1
41
1
41
1
41
1
41
1
41
1
41
1
41
1
41
1
41
1
41
1
41
1
41
1
41
1
41
1
41
1
41
1
41
1
41
1
41
1
41
1
41
1
41
1
41
1
41
1
41
1
41
1
41
1
41
1
41
1
10
0
20
3.0549999999999997
30
0
10
0.040008399180108553
20
3.0539950194780321
30
0
10
0.12005885473910856
20
3.0518849369026717
30
0
10
0.24023551030072043
20
3.0484194516882255
30
0
10
0.40067312170775049
20
3.0431976632665982
30
0
10
0.60153984430288132
20
3.0355700436441695
30
0
10
0.80267358864454352
20
3.0265498173087528
30
0
10
1.003968057320104
20
3.0155558629905794
30
0
10
1.2052445694724696
20
3.0016190823091069
30
0
10
1.4062349152711404
20
2.9832916800709257
30
0
10
1.6066578384274885
20
2.9590440568498395
30
0
10
1.8062942164748772
20
2.9276541853701517
30
0
10
2.0050621756086739
20
2.8885984666789142
30
0
10
2.2030941345197372
20
2.8424484188422379
30
0
10
2.400809210545749
20
2.7912548371739652
30
0
10
2.5987565556811827
20
2.7382647415040573
30
0
10
2.7974641819736963
20
2.6876547095056087
30
0
10
2.9972852623998492
20
2.6442619815778907
30
0
10
3.1982463359847553
20
2.613315906494396
30
0
10
3.3998905495471607
20
2.6001776568293558
30
0
10
3.6014892311768243
20
2.6092652267745695
30
0
10
3.8022570708677006
20
2.6429660925153007
30
0
10
4.0015654191528736
20
2.7005510374875503
30
0
10
4.1991572215102799
20
2.7770748354396755
30
0
10
4.3953605303691718
20
2.8622835747164976
30
0
10
4.590873067953142
20
2.9433806921799732
30
0
10
4.7865514439224661
20
3.0077394957419772
30
0
10
4.9831958567464545
20
3.0456898583481093
30
0
10
5.1813445240523937
20
3.0531516093817554
30
0
10
5.3810424297187769
20
3.0346917784873861
30
0
10
5.581974928162337
20
3.0006053078480526
30
0
10
5.7836300319473501
20
2.9635342017627107
30
0
10
5.9854515934223631
20
2.935214001614241
30
0
10
6.1869917261796123
20
2.9232765260956404
30
0
10
6.3880753816351259
20
2.9277242990503667
30
0
10
6.5887347307299349
20
2.9432251672094178
30
0
10
6.789127373615548
20
2.9618069196674259
30
0
10
6.9894601808062244
20
2.9754232305475448
30
0
10
7.1899124364733735
20
2.9785128509515078
30
0
10
7.3905552770412486
20
2.9707255225143596
30
0
10
7.5913775405058326
20
2.9554157287719862
30
0
10
7.792316977115048
20
2.9379292723965666
30
0
10
7.9932894825678318
20
2.9239628229022525
30
0
10
8.1942187305643674
20
2.9179169954385813
30
0
10
8.3950665807525855
20
2.9211899800040761
30
0
10
8.5958246032127477
20
2.932920959966081
30
0
10
8.7965043757204313
20
2.9508080097415332
30
0
10
8.9971282795426344
20
2.9718955218328142
30
0
10
9.1977201665057198
20
2.9933680318020164
30
0
10
9.3982959782369502
20
3.013351468875344
30
0
10
9.5988652463530144
20
3.0307300434072193
30
0
10
9.7593192416745378
20
3.0421065242109213
30
0
10
9.8796596535741141
20
3.0491369712597258
30
0
10
9.9598865574324744
20
3.0531568393076078
30
0
10
10
20
3.0549999999999997
30
0
0
ENDSEC
0
SECTION
2
OBJECTS
0
DICTIONARY
5
C
100
AcDbDictionary
3
ACAD_GROUP
350
D
3
ACAD_MLINESTYLE
350
17
0
DICTIONARY
5
D
100
AcDbDictionary
0
DICTIONARY
5
1A
330
C
100
AcDbDictionary
0
DICTIONARY
5
17
100
AcDbDictionary
0
ENDSEC
0
EOF
