0
SECTION
2
HEADER
9
$INSUNITS
70
4
9
$ACADVER
1
AC1014
9
$HANDSEED
5
FFFF
0
ENDSEC
0
SECTION
2
TABLES
0
TABLE
2
VPORT
5
8
100
AcDbSymbolTable
0
ENDTAB
0
TABLE
2
LTYPE
5
5
100
AcDbSymbolTable
0
LTYPE
5
14
100
AcDbSymbolTableRecord
100
AcDbLinetypeTableRecord
2
BYBLOCK
70
0
0
LTYPE
5
15
100
AcDbSymbolTableRecord
100
AcDbLinetypeTableRecord
2
BYLAYER
70
0
0
ENDTAB
0
TABLE
2
LAYER
5
2
100
AcDbSymbolTable
70
2
0
LAYER
5
50
100
AcDbSymbolTableRecord
100
AcDbLayerTableRecord
2
0
70
0
6
CONTINUOUS
0
ENDTAB
0
TABLE
2
STYLE
5
3
100
AcDbSymbolTable
70
1
0
STYLE
5
11
100
AcDbSymbolTableRecord
100
AcDbTextStyleTableRecord
2
STANDARD
70
0
0
ENDTAB
0
TABLE
2
VIEW
5
6
100
AcDbSymbolTable
70
0
0
ENDTAB
0
TABLE
2
UCS
5
7
100
AcDbSymbolTable
70
0
0
ENDTAB
0
TABLE
2
APPID
5
9
100
AcDbSymbolTable
70
2
0
APPID
5
12
100
AcDbSymbolTableRecord
100
AcDbRegAppTableRecord
2
ACAD
70
0
0
ENDTAB
0
TABLE
2
DIMSTYLE
5
A
100
AcDbSymbolTable
70
1
0
ENDTAB
0
TABLE
2
BLOCK_RECORD
5
1
100
AcDbSymbolTable
70
1
0
BLOCK_RECORD
5
1F
100
AcDbSymbolTableRecord
100
AcDbBlockTableRecord
2
*MODEL_SPACE
0
BLOCK_RECORD
5
1B
100
AcDbSymbolTableRecord
100
AcDbBlockTableRecord
2
*PAPER_SPACE
0
ENDTAB
0
ENDSEC
0
SECTION
2
BLOCKS
0
BLOCK
5
20
100
AcDbEntity
100
AcDbBlockBegin
2
*MODEL_SPACE
0
ENDBLK
5
21
100
AcDbEntity
100
AcDbBlockEnd
0
BLOCK
5
1C
100
AcDbEntity
100
AcDbBlockBegin
2
*PAPER_SPACE
0
ENDBLK
5
1D
100
AcDbEntity
100
AcDbBlockEnd
0
ENDSEC
0
SECTION
2
ENTITIES
0
SPLINE
5
100
100
AcDbEntity
8
0
100
AcDbSpline
70
4
71
5
72
16
73
10
74
0
42
0.000000001
43
0.0000000001
44
0.0000000001
40
0
40
0
40
0
40
0
40
0
40
0
40
0.20000000000000001
40
0.40000000000000002
40
0.60000000000000009
40
0.80000000000000004
40
1
40
1
40
1
40
1
40
1
40
1
41
1
41
1
41
1
41
1
41
1
41
1
41
1
41
1
41
1
41
1
10
0
20
-0.055000000000000049
30
0
10
0
20
0.069400000000207365
30
0
10
0
20
0.31820000000056603
30
0
10
0
20
0.69140000000093593
30
0
10
0
20
1.1890000000011365
30
0
10
0
20
1.8110000000010393
30
0
10
0
20
2.3086000000007481
30
0
10
0
20
2.6818000000004227
30
0
10
0
20
2.9306000000001484
30
0
10
0
20
3.0549999999999997
30
0
0
SPLINE
5
101
100
AcDbEntity
8
0
100
AcDbSpline
70
4
71
5
72
16
73
10
74
0
42
0.000000001
43
0.0000000001
44
0.0000000001
40
0
40
0
40
0
40
0
40
0
40
0
40
0.20000000000000001
40
0.40000000000000002
40
0.60000000000000009
40
0.80000000000000004
40
1
40
1
40
1
40
1
40
1
40
1
41
1
41
1
41
1
41
1
41
1
41
1
41
1
41
1
41
1
41
1
10
10
20
-0.055000000000000049
30
0
10
9.9999999999997495
20
0.069400000000207365
30
0
10
9.9999999999993197
20
0.31820000000056603
30
0
10
9.9999999999989129
20
0.69140000000093593
30
0
10
9.9999999999987672
20
1.1890000000011365
30
0
10
9.9999999999990248
20
1.8110000000010393
30
0
10
9.9999999999993889
20
2.3086000000007481
30
0
10
9.9999999999996998
20
2.6818000000004227
30
0
10
9.9999999999999005
20
2.9306000000001484
30
0
10
10
20
3.0549999999999997
30
0
0
SPLINE
5
102
100
AcDbEntity
8
0
100
AcDbSpline
70
4
71
5
72
16
73
10
74
0
42
0.000000001
43
0.0000000001
44
0.0000000001
40
0
40
0
40
0
40
0
40
0
40
0
40
0.20000000000000001
40
0.40000000000000002
40
0.60000000000000009
40
0.80000000000000004
40
1
40
1
40
1
40
1
40
1
40
1
41
1
41
1
41
1
41
1
41
1
41
1
41
1
41
1
41
1
41
1
10
0
20
1.5274999999999999
30
0
10
0.40000000000047375
20
1.5274999999999856
30
0
10
1.2000000000012774
20
1.5274999999999614
30
0
10
2.4000000000020547
20
1.527499999999943
30
0
10
4.0000000000023546
20
1.5274999999999479
30
0
10
6.0000000000019584
20
1.5274999999999812
30
0
10
7.6000000000012928
20
1.5275000000000025
30
0
10
8.800000000000697
20
1.5275000000000083
30
0
10
9.6000000000002395
20
1.5275000000000039
30
0
10
10
20
1.5274999999999999
30
0
0
SPLINE
5
103
100
AcDbEntity
8
0
100
AcDbSpline
70
4
71
5
72
61
73
55
74
0
42
0.000000001
43
0.0000000001
44
0.0000000001
40
0
40
0
40
0
40
0
40
0
40
0
40
0.02
40
0.040000000000000001
40
0.059999999999999998
40
0.080000000000000002
40
0.10000000000000001
40
0.12000000000000001
40
0.14000000000000001
40
0.16
40
0.17999999999999999
40
0.19999999999999998
40
0.21999999999999997
40
0.23999999999999996
40
0.25999999999999995
40
0.27999999999999997
40
0.29999999999999999
40
0.32000000000000001
40
0.34000000000000002
40
0.36000000000000004
40
0.38000000000000006
40
0.40000000000000008
40
0.4200000000000001
40
0.44000000000000011
40
0.46000000000000013
40
0.48000000000000015
40
0.50000000000000011
40
0.52000000000000013
40
0.54000000000000015
40
0.56000000000000016
40
0.58000000000000018
40
0.6000000000000002
40
0.62000000000000022
40
0.64000000000000024
40
0.66000000000000025
40
0.68000000000000027
40
0.70000000000000029
40
0.72000000000000031
40
0.74000000000000032
40
0.76000000000000034
40
0.78000000000000036
40
0.80000000000000038
40
0.8200000000000004
40
0.84000000000000041
40
0.86000000000000043
40
0.88000000000000045
40
0.90000000000000047
40
0.92000000000000048
40
0.9400000000000005
40
0.96000000000000052
40
0.98000000000000054
40
1
40
1
40
1
40
1
40
1
40
1
41
1
41
1
41
1
41
1
41
1
41
1
41
1
41
1
41
1
41
1
41
1
41
1
41
1
41
1
41
1
41
1
41
1
41
1
41
1
41
1
41
1
41
1
41
1
41
1
41
1
41
1
41
1
41
1
41
1
41
1
41
1
41
1
41
1
41
1
41
1
41
1
41
1
41
1
41
1
41
1
41
1
41
1
41
1
41
1
41
1
41
1
41
1
41
1
41
1
41
1
41
1
41
1
41
1
41
1
41
1
10
0
20
-0.055000000000000049
30
0
10
0.040336312151386819
20
-0.05511376654173579
30
0
10
0.12101624456204717
20
-0.054850493021587898
30
0
10
0.24205806770466146
20
-0.052983148120885809
30
0
10
0.40349104109851752
20
-0.047546694732430443
30
0
10
0.60535289576869122
20
-0.036029193541391252
30
0
10
0.80727759772227581
20
-0.020379320750482752
30
0
10
1.0092493911257101
20
-0.0017877189296665952
30
0
10
1.2112416607551488
20
0.01773631797677366
30
0
10
1.4132145924074215
20
0.035187709707604681
30
0
10
1.6151252806460978
20
0.047300468874287849
30
0
10
1.8169374936440641
20
0.051256597796214873
30
0
10
2.0186312811043092
20
0.045385317209401227
30
0
10
2.2202133793592802
20
0.029916140051666679
30
0
10
2.421725367292054
20
0.0075795228248186361
30
0
10
2.6232273786443812
20
-0.017454590437695625
30
0
10
2.8247834729256525
20
-0.040524326667268351
30
0
10
3.0264468237965394
20
-0.057437019528680466
30
0
10
3.2282439714726867
20
-0.065489516666913827
30
0
10
3.4301623247538107
20
-0.064278541752495366
30
0
10
3.6321622023591358
20
-0.054951390873371878
30
0
10
3.834186270464194
20
-0.039607647849274612
30
0
10
4.0361699849913943
20
-0.020671095427280784
30
0
10
4.2380514367719204
20
-0.00021734423466006618
30
0
10
4.4397818240653262
20
0.02050528198278289
30
0
10
4.6413365951695216
20
0.040584230813352148
30
0
10
4.8427276069951546
20
0.059054517969050466
30
0
10
5.0440128688096655
20
0.074525350969729551
30
0
10
5.2453124056379261
20
0.084670698606465561
30
0
10
5.4468065349253276
20
0.086167443768419547
30
0
10
5.6486703293815763
20
0.076261691531986614
30
0
10
5.851015341711542
20
0.054174646208450632
30
0
10
6.0538337083757252
20
0.02238768130317078
30
0
10
6.2569282696295003
20
-0.011567869769601113
30
0
10
6.4598882137682336
20
-0.034923166559265563
30
0
10
6.6621973306901214
20
-0.034017530873007941
30
0
10
6.8633205522599248
20
0.0019873444274551614
30
0
10
7.0627940842078338
20
0.077523300811326856
30
0
10
7.2603257851955219
20
0.18604436677296432
30
0
10
7.4558534233905522
20
0.30884960810506357
30
0
10
7.6495018648522386
20
0.421718771917938
30
0
10
7.8415614778084333
20
0.50005731259920294
30
0
10
8.0324581517359519
20
0.52441339014836752
30
0
10
8.2227284018688742
20
0.48635780369737081
30
0
10
8.4129894947349904
20
0.39270687213530087
30
0
10
8.6038906060845619
20
0.26027697768231761
30
0
10
8.7960664647672733
20
0.11188516356327674
30
0
10
8.9900895889199202
20
-0.028145161065507525
30
0
10
9.1864239751960834
20
-0.13818605287150565
30
0
10
9.3853750796359154
20
-0.20383567193175603
30
0
10
9.5871208096214424
20
-0.21658982712584762
30
0
10
9.750820885815525
20
-0.18113789604287692
30
0
10
9.8749026189152502
20
-0.12827870926767185
30
0
10
9.9582041447110043
20
-0.081370944672756046
30
0
10
10
20
-0.055000000000000049
30
0
0
SPLINE
5
104
100
AcDbEntity
8
0
100
AcDbSpline
70
4
71
5
72
61
73
55
74
0
42
0.000000001
43
0.0000000001
44
0.0000000001
40
0
40
0
40
0
40
0
40
0
40
0
40
0.02
40
0.040000000000000001
40
0.059999999999999998
40
0.080000000000000002
40
0.10000000000000001
40
0.12000000000000001
40
0.14000000000000001
40
0.16
40
0.17999999999999999
40
0.19999999999999998
40
0.21999999999999997
40
0.23999999999999996
40
0.25999999999999995
40
0.27999999999999997
40
0.29999999999999999
40
0.32000000000000001
40
0.34000000000000002
40
0.36000000000000004
40
0.38000000000000006
40
0.40000000000000008
40
0.4200000000000001
40
0.44000000000000011
40
0.46000000000000013
40
0.48000000000000015
40
0.50000000000000011
40
0.52000000000000013
40
0.54000000000000015
40
0.56000000000000016
40
0.58000000000000018
40
0.6000000000000002
40
0.62000000000000022
40
0.64000000000000024
40
0.66000000000000025
40
0.68000000000000027
40
0.70000000000000029
40
0.72000000000000031
40
0.74000000000000032
40
0.76000000000000034
40
0.78000000000000036
40
0.80000000000000038
40
0.8200000000000004
40
0.84000000000000041
40
0.86000000000000043
40
0.88000000000000045
40
0.90000000000000047
40
0.92000000000000048
40
0.9400000000000005
40
0.96000000000000052
40
0.98000000000000054
40
1
40
1
40
1
40
1
40
1
40
1
41
1
41
1
41
1
41
1
41
1
41
1
41
1
41
1
41
1
41
1
41
1
41
1
41
1
41
1
41
1
41
1
41
1
41
1
41
1
41
1
41
1
41
1
41
1
41
1
41
1
41
1
41
1
41
1
41
1
41
1
41
1
41
1
41
1
41
1
41
1
41
1
41
1
41
1
41
1
41
1
41
1
41
1
41
1
41
1
41
1
41
1
41
1
41
1
41
1
41
1
41
1
41
1
41
1
41
1
41
1
10
0
20
3.0549999999999997
30
0
10
0.037104832920673791
20
3.0168152754933746
30
0
10
0.11157278376207849
20
2.9435530012500348
30
0
10
0.22404956096185963
20
2.84298118560333
30
0
10
0.37556934384587654
20
2.7275401463582765
30
0
10
0.56753573468165353
20
2.6144166274731484
30
0
10
0.76200550387286348
20
2.5325970766686297
30
0
10
0.95884313711483926
20
2.4822621180580531
30
0
10
1.1578180372915354
20
2.4635861727019996
30
0
10
1.3585707944782246
20
2.4768653722950047
30
0
10
1.5606509697396544
20
2.5214026449246285
30
0
10
1.7635712300363469
20
2.5941488885857238
30
0
10
1.9668572988872481
20
2.6883129007681692
30
0
10
2.1700960971780963
20
2.7922192166984221
30
0
10
2.3729940213060337
20
2.887405698617314
30
0
10
2.5753459985954463
20
2.952907533401834
30
0
10
2.7769892019036169
20
2.9705752988410006
30
0
10
2.9777603851428398
20
2.9302089993204388
30
0
10
3.1774560413212138
20
2.8343984966805285
30
0
10
3.3757799477284802
20
2.704556744568158
30
0
10
3.5724374100829008
20
2.5733997952708831
30
0
10
3.7672433693278959
20
2.4760377090919725
30
0
10
3.9602325392538305
20
2.4412096914141572
30
0
10
4.1517539880953933
20
2.4832742265509342
30
0
10
4.3426127751026105
20
2.5916975853812492
30
0
10
4.5338988663434279
20
2.7375612201674255
30
0
10
4.7267455406941625
20
2.8840350673763626
30
0
10
4.9220990889540976
20
2.9959582934203728
30
0
10
5.1205126219165269
20
3.0486942589743657
30
0
10
5.3218555723368643
20
3.0400592006375793
30
0
10
5.5253961884590339
20
2.9882706338578813
30
0
10
5.7301126677385694
20
2.9212719176698059
30
0
10
5.9349454850833192
20
2.8683002066816909
30
0
10
6.1390487577617279
20
2.8514154725240255
30
0
10
6.3421053138767833
20
2.8748181116670124
30
0
10
6.5442771697767563
20
2.9269815406686739
30
0
10
6.745990490423913
20
2.9885941090442723
30
0
10
6.9477682034914618
20
3.0388687400635184
30
0
10
7.1500569428202976
20
3.0619565549048589
30
0
10
7.3530211820413314
20
3.0547724257590025
30
0
10
7.5565743237716596
20
3.0250514945131668
30
0
10
7.7604896864261663
20
2.9861441917076426
30
0
10
7.9644866812964121
20
2.9527992679314496
30
0
10
8.168321996932999
20
2.9368048387450445
30
0
10
8.3718920816203539
20
2.9419972266783727
30
0
10
8.5752131572940478
20
2.9655688387551926
30
0
10
8.7783761669018432
20
3.0006485290611469
30
0
10
8.9815102344177138
20
3.0384537713889386
30
0
10
9.1847437678111135
20
3.0705507885730956
30
0
10
9.3881637082227343
20
3.0912403924486886
30
0
10
9.5918211191818372
20
3.0971700709748196
30
0
10
9.7549572917202134
20
3.0887754751695162
30
0
10
9.8774312823202592
20
3.0748522154685594
30
0
10
9.9591347393002128
20
3.0621820585537014
30
0
10
10
20
3.0549999999999997
30
0
0
ENDSEC
0
SECTION
2
OBJECTS
0
DICTIONARY
5
C
100
AcDbDictionary
3
ACAD_GROUP
350
D
3
ACAD_MLINESTYLE
350
17
0
DICTIONARY
5
D
100
AcDbDictionary
0
DICTIONARY
5
1A
330
C
100
AcDbDictionary
0
DICTIONARY
5
17
100
AcDbDictionary
0
ENDSEC
0
EOF
