0
SECTION
2
HEADER
9
$INSUNITS
70
4
9
$ACADVER
1
AC1014
9
$HANDSEED
5
FFFF
0
ENDSEC
0
SECTION
2
TABLES
0
TABLE
2
VPORT
5
8
100
AcDbSymbolTable
0
ENDTAB
0
TABLE
2
LTYPE
5
5
100
AcDbSymbolTable
0
LTYPE
5
14
100
AcDbSymbolTableRecord
100
AcDbLinetypeTableRecord
2
BYBLOCK
70
0
0
LTYPE
5
15
100
AcDbSymbolTableRecord
100
AcDbLinetypeTableRecord
2
BYLAYER
70
0
0
ENDTAB
0
TABLE
2
LAYER
5
2
100
AcDbSymbolTable
70
2
0
LAYER
5
50
100
AcDbSymbolTableRecord
100
AcDbLayerTableRecord
2
0
70
0
6
CONTINUOUS
0
ENDTAB
0
TABLE
2
STYLE
5
3
100
AcDbSymbolTable
70
1
0
STYLE
5
11
100
AcDbSymbolTableRecord
100
AcDbTextStyleTableRecord
2
STANDARD
70
0
0
ENDTAB
0
TABLE
2
VIEW
5
6
100
AcDbSymbolTable
70
0
0
ENDTAB
0
TABLE
2
UCS
5
7
100
AcDbSymbolTable
70
0
0
ENDTAB
0
TABLE
2
APPID
5
9
100
AcDbSymbolTable
70
2
0
APPID
5
12
100
AcDbSymbolTableRecord
100
AcDbRegAppTableRecord
2
ACAD
70
0
0
ENDTAB
0
TABLE
2
DIMSTYLE
5
A
100
AcDbSymbolTable
70
1
0
ENDTAB
0
TABLE
2
BLOCK_RECORD
5
1
100
AcDbSymbolTable
70
1
0
BLOCK_RECORD
5
1F
100
AcDbSymbolTableRecord
100
AcDbBlockTableRecord
2
*MODEL_SPACE
0
BLOCK_RECORD
5
1B
100
AcDbSymbolTableRecord
100
AcDbBlockTableRecord
2
*PAPER_SPACE
0
ENDTAB
0
ENDSEC
0
SECTION
2
BLOCKS
0
BLOCK
5
20
100
AcDbEntity
100
AcDbBlockBegin
2
*MODEL_SPACE
0
ENDBLK
5
21
100
AcDbEntity
100
AcDbBlockEnd
0
BLOCK
5
1C
100
AcDbEntity
100
AcDbBlockBegin
2
*PAPER_SPACE
0
ENDBLK
5
1D
100
AcDbEntity
100
AcDbBlockEnd
0
ENDSEC
0
SECTION
2
ENTITIES
0
SPLINE
5
100
100
AcDbEntity
8
0
100
AcDbSpline
70
4
71
5
72
16
73
10
74
0
42
0.000000001
43
0.0000000001
44
0.0000000001
40
0
40
0
40
0
40
0
40
0
40
0
40
0.20000000000000001
40
0.40000000000000002
40
0.60000000000000009
40
0.80000000000000004
40
1
40
1
40
1
40
1
40
1
40
1
41
1
41
1
41
1
41
1
41
1
41
1
41
1
41
1
41
1
41
1
10
0
20
-0.055000000000000049
30
0
10
0
20
0.069400000000207365
30
0
10
0
20
0.31820000000056603
30
0
10
0
20
0.69140000000093593
30
0
10
0
20
1.1890000000011365
30
0
10
0
20
1.8110000000010393
30
0
10
0
20
2.3086000000007481
30
0
10
0
20
2.6818000000004227
30
0
10
0
20
2.9306000000001484
30
0
10
0
20
3.0549999999999997
30
0
0
SPLINE
5
101
100
AcDbEntity
8
0
100
AcDbSpline
70
4
71
5
72
16
73
10
74
0
42
0.000000001
43
0.0000000001
44
0.0000000001
40
0
40
0
40
0
40
0
40
0
40
0
40
0.20000000000000001
40
0.40000000000000002
40
0.60000000000000009
40
0.80000000000000004
40
1
40
1
40
1
40
1
40
1
40
1
41
1
41
1
41
1
41
1
41
1
41
1
41
1
41
1
41
1
41
1
10
10
20
-0.055000000000000049
30
0
10
9.9999999999997495
20
0.069400000000207365
30
0
10
9.9999999999993197
20
0.31820000000056603
30
0
10
9.9999999999989129
20
0.69140000000093593
30
0
10
9.9999999999987672
20
1.1890000000011365
30
0
10
9.9999999999990248
20
1.8110000000010393
30
0
10
9.9999999999993889
20
2.3086000000007481
30
0
10
9.9999999999996998
20
2.6818000000004227
30
0
10
9.9999999999999005
20
2.9306000000001484
30
0
10
10
20
3.0549999999999997
30
0
0
SPLINE
5
102
100
AcDbEntity
8
0
100
AcDbSpline
70
4
71
5
72
16
73
10
74
0
42
0.000000001
43
0.0000000001
44
0.0000000001
40
0
40
0
40
0
40
0
40
0
40
0
40
0.20000000000000001
40
0.40000000000000002
40
0.60000000000000009
40
0.80000000000000004
40
1
40
1
40
1
40
1
40
1
40
1
41
1
41
1
41
1
41
1
41
1
41
1
41
1
41
1
41
1
41
1
10
0
20
1.5274999999999999
30
0
10
0.40000000000047375
20
1.5274999999999856
30
0
10
1.2000000000012774
20
1.5274999999999614
30
0
10
2.4000000000020547
20
1.527499999999943
30
0
10
4.0000000000023546
20
1.5274999999999479
30
0
10
6.0000000000019584
20
1.5274999999999812
30
0
10
7.6000000000012928
20
1.5275000000000025
30
0
10
8.800000000000697
20
1.5275000000000083
30
0
10
9.6000000000002395
20
1.5275000000000039
30
0
10
10
20
1.5274999999999999
30
0
0
SPLINE
5
103
100
AcDbEntity
8
0
100
AcDbSpline
70
4
71
5
72
61
73
55
74
0
42
0.000000001
43
0.0000000001
44
0.0000000001
40
0
40
0
40
0
40
0
40
0
40
0
40
0.02
40
0.040000000000000001
40
0.059999999999999998
40
0.080000000000000002
40
0.10000000000000001
40
0.12000000000000001
40
0.14000000000000001
40
0.16
40
0.17999999999999999
40
0.19999999999999998
40
0.21999999999999997
40
0.23999999999999996
40
0.25999999999999995
40
0.27999999999999997
40
0.29999999999999999
40
0.32000000000000001
40
0.34000000000000002
40
0.36000000000000004
40
0.38000000000000006
40
0.40000000000000008
40
0.4200000000000001
40
0.44000000000000011
40
0.46000000000000013
40
0.48000000000000015
40
0.50000000000000011
40
0.52000000000000013
40
0.54000000000000015
40
0.56000000000000016
40
0.58000000000000018
40
0.6000000000000002
40
0.62000000000000022
40
0.64000000000000024
40
0.66000000000000025
40
0.68000000000000027
40
0.70000000000000029
40
0.72000000000000031
40
0.74000000000000032
40
0.76000000000000034
40
0.78000000000000036
40
0.80000000000000038
40
0.8200000000000004
40
0.84000000000000041
40
0.86000000000000043
40
0.88000000000000045
40
0.90000000000000047
40
0.92000000000000048
40
0.9400000000000005
40
0.96000000000000052
40
0.98000000000000054
40
1
40
1
40
1
40
1
40
1
40
1
41
1
41
1
41
1
41
1
41
1
41
1
41
1
41
1
41
1
41
1
41
1
41
1
41
1
41
1
41
1
41
1
41
1
41
1
41
1
41
1
41
1
41
1
41
1
41
1
41
1
41
1
41
1
41
1
41
1
41
1
41
1
41
1
41
1
41
1
41
1
41
1
41
1
41
1
41
1
41
1
41
1
41
1
41
1
41
1
41
1
41
1
41
1
41
1
41
1
41
1
41
1
41
1
41
1
41
1
41
1
10
0
20
-0.055000000000000049
30
0
10
0.040305421609097419
20
-0.057527434428923656
30
0
10
0.12091135697764847
20
-0.061418062685900492
30
0
10
0.24180553668634452
20
-0.063761266974774369
30
0
10
0.40296830866988981
20
-0.059895652407538399
30
0
10
0.60437012490505915
20
-0.043731616131068289
30
0
10
0.80571283931564008
20
-0.017237985364236083
30
0
10
1.0069817351230128
20
0.017548493929504107
30
0
10
1.2081522579879795
20
0.057187547846646668
30
0
10
1.4091879977367248
20
0.096509812715186188
30
0
10
1.6100551514626591
20
0.12967991007817176
30
0
10
1.8107366815663049
20
0.15122287476541194
30
0
10
2.0112462704502625
20
0.15705229354016209
30
0
10
2.2116432650149993
20
0.14552961220256513
30
0
10
2.4120449986545776
20
0.11843544086413407
30
0
10
2.6125898846884481
20
0.080155878890934257
30
0
10
2.8134024898012977
20
0.036963011550992367
30
0
10
3.0145586310861052
20
-0.0037416978882008583
30
0
10
3.2160485320416536
20
-0.034146936768470977
30
0
10
3.4177457458500351
20
-0.046813185941698969
30
0
10
3.6194588008562922
20
-0.036113639613312536
30
0
10
3.8209784005745284
20
0.00031638588793770776
30
0
10
4.0221248267937915
20
0.060211516066830333
30
0
10
4.2227985494571483
20
0.13506032238480997
30
0
10
4.4230202841859718
20
0.20915792880602982
30
0
10
4.6228754033818289
20
0.26450399701127664
30
0
10
4.8224660222245372
20
0.28526686924790279
30
0
10
5.0218619313002897
20
0.26225525960109958
30
0
10
5.2210480410402758
20
0.197777632926322
30
0
10
5.4198845149033836
20
0.10927969863165346
30
0
10
5.6181841487492177
20
0.021809068317968854
30
0
10
5.8157800191284847
20
-0.038581877252660456
30
0
10
6.0125955941986167
20
-0.051674569595331628
30
0
10
6.208716981061392
20
-0.010085973371388404
30
0
10
6.4044562321396103
20
0.074491798439811366
30
0
10
6.6002515930112162
20
0.17902617879632465
30
0
10
6.7965770361624696
20
0.27608180049766751
30
0
10
6.9938478972824516
20
0.34108701114107737
30
0
10
7.1923293363525218
20
0.35935906353794023
30
0
10
7.3920397576678329
20
0.33353866844460878
30
0
10
7.5928137758621084
20
0.27797991347970241
30
0
10
7.7943690111461841
20
0.21282303652309795
30
0
10
7.9963712595778329
20
0.15818469375868255
30
0
10
8.1984997519530847
20
0.1283471963799816
30
0
10
8.4005133755122721
20
0.12581711812890434
30
0
10
8.6022387141821035
20
0.14446762864417378
30
0
10
8.8035568751151256
20
0.17282232780469864
30
0
10
9.0043909500867727
20
0.19725885770389331
30
0
10
9.2046932932417462
20
0.20526180124475937
30
0
10
9.404433128640326
20
0.18858709199393525
30
0
10
9.6035929784128324
20
0.14233720115129214
30
0
10
9.7624505797634491
20
0.07976193168036555
30
0
10
9.8813284190414645
20
0.018104096879067891
30
0
10
9.9604624499924928
20
-0.029541844924380584
30
0
10
10
20
-0.055000000000000049
30
0
0
SPLINE
5
104
100
AcDbEntity
8
0
100
AcDbSpline
70
4
71
5
72
61
73
55
74
0
42
0.000000001
43
0.0000000001
44
0.0000000001
40
0
40
0
40
0
40
0
40
0
40
0
40
0.02
40
0.040000000000000001
40
0.059999999999999998
40
0.080000000000000002
40
0.10000000000000001
40
0.12000000000000001
40
0.14000000000000001
40
0.16
40
0.17999999999999999
40
0.19999999999999998
40
0.21999999999999997
40
0.23999999999999996
40
0.25999999999999995
40
0.27999999999999997
40
0.29999999999999999
40
0.32000000000000001
40
0.34000000000000002
40
0.36000000000000004
40
0.38000000000000006
40
0.40000000000000008
40
0.4200000000000001
40
0.44000000000000011
40
0.46000000000000013
40
0.48000000000000015
40
0.50000000000000011
40
0.52000000000000013
40
0.54000000000000015
40
0.56000000000000016
40
0.58000000000000018
40
0.6000000000000002
40
0.62000000000000022
40
0.64000000000000024
40
0.66000000000000025
40
0.68000000000000027
40
0.70000000000000029
40
0.72000000000000031
40
0.74000000000000032
40
0.76000000000000034
40
0.78000000000000036
40
0.80000000000000038
40
0.8200000000000004
40
0.84000000000000041
40
0.86000000000000043
40
0.88000000000000045
40
0.90000000000000047
40
0.92000000000000048
40
0.9400000000000005
40
0.96000000000000052
40
0.98000000000000054
40
1
40
1
40
1
40
1
40
1
40
1
41
1
41
1
41
1
41
1
41
1
41
1
41
1
41
1
41
1
41
1
41
1
41
1
41
1
41
1
41
1
41
1
41
1
41
1
41
1
41
1
41
1
41
1
41
1
41
1
41
1
41
1
41
1
41
1
41
1
41
1
41
1
41
1
41
1
41
1
41
1
41
1
41
1
41
1
41
1
41
1
41
1
41
1
41
1
41
1
41
1
41
1
41
1
41
1
41
1
41
1
41
1
41
1
41
1
41
1
41
1
10
0
20
3.0549999999999997
30
0
10
0.03987881685087899
20
3.0346272345815848
30
0
10
0.11965120746592775
20
2.9964048582552727
30
0
10
0.23935406413246599
20
2.9466407538782087
30
0
10
0.3990464721385466
20
2.8954374276915922
30
0
10
0.59881066242492031
20
2.8563160866281789
30
0
10
0.79872599913839371
20
2.8408825480259026
30
0
10
0.99879698235103831
20
2.8466685533275116
30
0
10
1.199030723208002
20
2.869489437783729
30
0
10
1.3994375408245918
20
2.9029885309647785
30
0
10
1.6000281582654374
20
2.939903406876399
30
0
10
1.8008108778722545
20
2.9733411828672045
30
0
10
2.0017887551317344
20
2.9980465159238694
30
0
10
2.2029567548339584
20
3.0116851406503233
30
0
10
2.4042988918977337
20
3.0161037086396036
30
0
10
2.6057863768370639
20
3.0154210958289869
30
0
10
2.8073756961428105
20
3.0141363088141921
30
0
10
3.0090067304554911
20
3.0152599157190094
30
0
10
3.2106006799252578
20
3.018370353653606
30
0
10
3.4120583844511576
20
3.0178695736114851
30
0
10
3.6132689699371001
20
3.0059662136375009
30
0
10
3.8141180383922437
20
2.9755060641773667
30
0
10
4.0144961011657463
20
2.9227955088972242
30
0
10
4.2143067369235885
20
2.8505846597841025
30
0
10
4.4134754395899973
20
2.7705747449868214
30
0
10
4.6119669004235995
20
2.6989036787499723
30
0
10
4.8098020440824385
20
2.6520420239131193
30
0
10
5.0070749989889247
20
2.6425738801554646
30
0
10
5.2039710348229642
20
2.6749341074384949
30
0
10
5.4007822858509948
20
2.7413818848630376
30
0
10
5.5978494660947291
20
2.8264995427583499
30
0
10
5.7955061250554358
20
2.9113979829909562
30
0
10
5.9940216373194923
20
2.978041419166499
30
0
10
6.1935453471497564
20
3.0134691895831445
30
0
10
6.3940478185551761
20
3.0142121934930861
30
0
10
6.5953610313221649
20
2.9840954435856277
30
0
10
6.7972209164375492
20
2.9318816383350992
30
0
10
6.9993087329981112
20
2.8689877547844862
30
0
10
7.2012927117057242
20
2.8071827061683754
30
0
10
7.4028695561295912
20
2.7562909756739078
30
0
10
7.6037903690634643
20
2.7238398550523408
30
0
10
7.8038866805207485
20
2.714708945050615
30
0
10
8.0030965156634259
20
2.7307741632597593
30
0
10
8.201491057113854
20
2.7705390815552651
30
0
10
8.3993005446932614
20
2.8287796307430129
30
0
10
8.5968596636556747
20
2.8978143576880671
30
0
10
8.7945543521296958
20
2.9687446358755487
30
0
10
8.9927679519899222
20
3.0327088252014307
30
0
10
9.1918283959040057
20
3.0821127249201021
30
0
10
9.3919528581677749
20
3.1119185230594408
30
0
10
9.593269104800898
20
3.119154330578231
30
0
10
9.7553251763157505
20
3.1057260884165796
30
0
10
9.8774399907348567
20
3.084642793998599
30
0
10
9.9591042641526055
20
3.0656961198241146
30
0
10
10
20
3.0549999999999997
30
0
0
ENDSEC
0
SECTION
2
OBJECTS
0
DICTIONARY
5
C
100
AcDbDictionary
3
ACAD_GROUP
350
D
3
ACAD_MLINESTYLE
350
17
0
DICTIONARY
5
D
100
AcDbDictionary
0
DICTIONARY
5
1A
330
C
100
AcDbDictionary
0
DICTIONARY
5
17
100
AcDbDictionary
0
ENDSEC
0
EOF
