0
SECTION
2
HEADER
9
$INSUNITS
70
4
9
$ACADVER
1
AC1014
9
$HANDSEED
5
FFFF
0
ENDSEC
0
SECTION
2
TABLES
0
TABLE
2
VPORT
5
8
100
AcDbSymbolTable
0
ENDTAB
0
TABLE
2
LTYPE
5
5
100
AcDbSymbolTable
0
LTYPE
5
14
100
AcDbSymbolTableRecord
100
AcDbLinetypeTableRecord
2
BYBLOCK
70
0
0
LTYPE
5
15
100
AcDbSymbolTableRecord
100
AcDbLinetypeTableRecord
2
BYLAYER
70
0
0
ENDTAB
0
TABLE
2
LAYER
5
2
100
AcDbSymbolTable
70
2
0
LAYER
5
50
100
AcDbSymbolTableRecord
100
AcDbLayerTableRecord
2
0
70
0
6
CONTINUOUS
0
ENDTAB
0
TABLE
2
STYLE
5
3
100
AcDbSymbolTable
70
1
0
STYLE
5
11
100
AcDbSymbolTableRecord
100
AcDbTextStyleTableRecord
2
STANDARD
70
0
0
ENDTAB
0
TABLE
2
VIEW
5
6
100
AcDbSymbolTable
70
0
0
ENDTAB
0
TABLE
2
UCS
5
7
100
AcDbSymbolTable
70
0
0
ENDTAB
0
TABLE
2
APPID
5
9
100
AcDbSymbolTable
70
2
0
APPID
5
12
100
AcDbSymbolTableRecord
100
AcDbRegAppTableRecord
2
ACAD
70
0
0
ENDTAB
0
TABLE
2
DIMSTYLE
5
A
100
AcDbSymbolTable
70
1
0
ENDTAB
0
TABLE
2
BLOCK_RECORD
5
1
100
AcDbSymbolTable
70
1
0
BLOCK_RECORD
5
1F
100
AcDbSymbolTableRecord
100
AcDbBlockTableRecord
2
*MODEL_SPACE
0
BLOCK_RECORD
5
1B
100
AcDbSymbolTableRecord
100
AcDbBlockTableRecord
2
*PAPER_SPACE
0
ENDTAB
0
ENDSEC
0
SECTION
2
BLOCKS
0
BLOCK
5
20
100
AcDbEntity
100
AcDbBlockBegin
2
*MODEL_SPACE
0
ENDBLK
5
21
100
AcDbEntity
100
AcDbBlockEnd
0
BLOCK
5
1C
100
AcDbEntity
100
AcDbBlockBegin
2
*PAPER_SPACE
0
ENDBLK
5
1D
100
AcDbEntity
100
AcDbBlockEnd
0
ENDSEC
0
SECTION
2
ENTITIES
0
SPLINE
5
100
100
AcDbEntity
8
0
100
AcDbSpline
70
4
71
5
72
16
73
10
74
0
42
0.000000001
43
0.0000000001
44
0.0000000001
40
0
40
0
40
0
40
0
40
0
40
0
40
0.20000000000000001
40
0.40000000000000002
40
0.60000000000000009
40
0.80000000000000004
40
1
40
1
40
1
40
1
40
1
40
1
41
1
41
1
41
1
41
1
41
1
41
1
41
1
41
1
41
1
41
1
10
0
20
-0.055000000000000049
30
0
10
0
20
0.069400000000207365
30
0
10
0
20
0.31820000000056603
30
0
10
0
20
0.69140000000093593
30
0
10
0
20
1.1890000000011365
30
0
10
0
20
1.8110000000010393
30
0
10
0
20
2.3086000000007481
30
0
10
0
20
2.6818000000004227
30
0
10
0
20
2.9306000000001484
30
0
10
0
20
3.0549999999999997
30
0
0
SPLINE
5
101
100
AcDbEntity
8
0
100
AcDbSpline
70
4
71
5
72
16
73
10
74
0
42
0.000000001
43
0.0000000001
44
0.0000000001
40
0
40
0
40
0
40
0
40
0
40
0
40
0.20000000000000001
40
0.40000000000000002
40
0.60000000000000009
40
0.80000000000000004
40
1
40
1
40
1
40
1
40
1
40
1
41
1
41
1
41
1
41
1
41
1
41
1
41
1
41
1
41
1
41
1
10
10
20
-0.055000000000000049
30
0
10
9.9999999999997495
20
0.069400000000207365
30
0
10
9.9999999999993197
20
0.31820000000056603
30
0
10
9.9999999999989129
20
0.69140000000093593
30
0
10
9.9999999999987672
20
1.1890000000011365
30
0
10
9.9999999999990248
20
1.8110000000010393
30
0
10
9.9999999999993889
20
2.3086000000007481
30
0
10
9.9999999999996998
20
2.6818000000004227
30
0
10
9.9999999999999005
20
2.9306000000001484
30
0
10
10
20
3.0549999999999997
30
0
0
SPLINE
5
102
100
AcDbEntity
8
0
100
AcDbSpline
70
4
71
5
72
16
73
10
74
0
42
0.000000001
43
0.0000000001
44
0.0000000001
40
0
40
0
40
0
40
0
40
0
40
0
40
0.20000000000000001
40
0.40000000000000002
40
0.60000000000000009
40
0.80000000000000004
40
1
40
1
40
1
40
1
40
1
40
1
41
1
41
1
41
1
41
1
41
1
41
1
41
1
41
1
41
1
41
1
10
0
20
1.5274999999999999
30
0
10
0.40000000000047375
20
1.5274999999999856
30
0
10
1.2000000000012774
20
1.5274999999999614
30
0
10
2.4000000000020547
20
1.527499999999943
30
0
10
4.0000000000023546
20
1.5274999999999479
30
0
10
6.0000000000019584
20
1.5274999999999812
30
0
10
7.6000000000012928
20
1.5275000000000025
30
0
10
8.800000000000697
20
1.5275000000000083
30
0
10
9.6000000000002395
20
1.5275000000000039
30
0
10
10
20
1.5274999999999999
30
0
0
SPLINE
5
103
100
AcDbEntity
8
0
100
AcDbSpline
70
4
71
5
72
111
73
105
74
0
42
0.000000001
43
0.0000000001
44
0.0000000001
40
0
40
0
40
0
40
0
40
0
40
0
40
0.01
40
0.02
40
0.029999999999999999
40
0.040000000000000001
40
0.050000000000000003
40
0.060000000000000005
40
0.070000000000000007
40
0.080000000000000002
40
0.089999999999999997
40
0.099999999999999992
40
0.10999999999999999
40
0.11999999999999998
40
0.12999999999999998
40
0.13999999999999999
40
0.14999999999999999
40
0.16
40
0.17000000000000001
40
0.18000000000000002
40
0.19000000000000003
40
0.20000000000000004
40
0.21000000000000005
40
0.22000000000000006
40
0.23000000000000007
40
0.24000000000000007
40
0.25000000000000006
40
0.26000000000000006
40
0.27000000000000007
40
0.28000000000000008
40
0.29000000000000009
40
0.3000000000000001
40
0.31000000000000011
40
0.32000000000000012
40
0.33000000000000013
40
0.34000000000000014
40
0.35000000000000014
40
0.36000000000000015
40
0.37000000000000016
40
0.38000000000000017
40
0.39000000000000018
40
0.40000000000000019
40
0.4100000000000002
40
0.42000000000000021
40
0.43000000000000022
40
0.44000000000000022
40
0.45000000000000023
40
0.46000000000000024
40
0.47000000000000025
40
0.48000000000000026
40
0.49000000000000027
40
0.50000000000000022
40
0.51000000000000023
40
0.52000000000000024
40
0.53000000000000025
40
0.54000000000000026
40
0.55000000000000027
40
0.56000000000000028
40
0.57000000000000028
40
0.58000000000000029
40
0.5900000000000003
40
0.60000000000000031
40
0.61000000000000032
40
0.62000000000000033
40
0.63000000000000034
40
0.64000000000000035
40
0.65000000000000036
40
0.66000000000000036
40
0.67000000000000037
40
0.68000000000000038
40
0.69000000000000039
40
0.7000000000000004
40
0.71000000000000041
40
0.72000000000000042
40
0.73000000000000043
40
0.74000000000000044
40
0.75000000000000044
40
0.76000000000000045
40
0.77000000000000046
40
0.78000000000000047
40
0.79000000000000048
40
0.80000000000000049
40
0.8100000000000005
40
0.82000000000000051
40
0.83000000000000052
40
0.84000000000000052
40
0.85000000000000053
40
0.86000000000000054
40
0.87000000000000055
40
0.88000000000000056
40
0.89000000000000057
40
0.90000000000000058
40
0.91000000000000059
40
0.9200000000000006
40
0.9300000000000006
40
0.94000000000000061
40
0.95000000000000062
40
0.96000000000000063
40
0.97000000000000064
40
0.98000000000000065
40
0.99000000000000066
40
1
40
1
40
1
40
1
40
1
40
1
41
1
41
1
41
1
41
1
41
1
41
1
41
1
41
1
41
1
41
1
41
1
41
1
41
1
41
1
41
1
41
1
41
1
41
1
41
1
41
1
41
1
41
1
41
1
41
1
41
1
41
1
41
1
41
1
41
1
41
1
41
1
41
1
41
1
41
1
41
1
41
1
41
1
41
1
41
1
41
1
41
1
41
1
41
1
41
1
41
1
41
1
41
1
41
1
41
1
41
1
41
1
41
1
41
1
41
1
41
1
41
1
41
1
41
1
41
1
41
1
41
1
41
1
41
1
41
1
41
1
41
1
41
1
41
1
41
1
41
1
41
1
41
1
41
1
41
1
41
1
41
1
41
1
41
1
41
1
41
1
41
1
41
1
41
1
41
1
41
1
41
1
41
1
41
1
41
1
41
1
41
1
41
1
41
1
41
1
41
1
41
1
41
1
41
1
41
1
41
1
41
1
41
1
41
1
41
1
41
1
10
0
20
-0.055000000000000049
30
0
10
0.019774314341267703
20
-0.044787015275632718
30
0
10
0.059354659130712244
20
-0.025200301156907016
30
0
10
0.1188203247032357
20
0.0016620026526474436
30
0
10
0.19829820596614622
20
0.03244206527918353
30
0
10
0.29796325367435106
20
0.062514122998881191
30
0
10
0.39794712911787133
20
0.084164238936090055
30
0
10
0.49825188220139138
20
0.097360337299243538
30
0
10
0.5988806804631881
20
0.10205530255341833
30
0
10
0.6998382049442593
20
0.098181103694795338
30
0
10
0.80111514034651055
20
0.085961181111855745
30
0
10
0.902672207538049
20
0.06623163822803467
30
0
10
1.0044247516389215
20
0.040752159117769443
30
0
10
1.1062261339816155
20
0.012538904948437343
30
0
10
1.2078541905295108
20
-0.01385868197770837
30
0
10
1.3090678787767862
20
-0.033376773209956592
30
0
10
1.4096621250503714
20
-0.041420391993851058
30
0
10
1.509521728162696
20
-0.034834689323657589
30
0
10
1.6086795061538526
20
-0.012941253356666769
30
0
10
1.7073618362189411
20
0.021621763641211579
30
0
10
1.8059002345430895
20
0.064155850902552075
30
0
10
1.904652756904373
20
0.10900218902804071
30
0
10
2.0039225196279205
20
0.15069172866283279
30
0
10
2.1038755051876139
20
0.18509378008924404
30
0
10
2.2044639560394739
20
0.21051012325806887
30
0
10
2.3055089724587212
20
0.22707269178822345
30
0
10
2.4067781724971611
20
0.23620214426867844
30
0
10
2.5080634595526408
20
0.24004782055748686
30
0
10
2.6092626851483045
20
0.24092841578841084
30
0
10
2.7104485216746665
20
0.24079526443622087
30
0
10
2.8117760103498228
20
0.24106304135895473
30
0
10
2.9133985791092525
20
0.2424060235723656
30
0
10
3.0153851627742903
20
0.24458616772962408
30
0
10
3.1176267831248197
20
0.24622238818484254
30
0
10
3.219777025522252
20
0.24471553460343143
30
0
10
3.3213955013287682
20
0.2370703365054882
30
0
10
3.4220718463763085
20
0.2206348596010044
30
0
10
3.5215491738839728
20
0.1938304536012081
30
0
10
3.6198667809679943
20
0.15698372077613582
30
0
10
3.7174368419422485
20
0.11281753731807252
30
0
10
3.8148603367522185
20
0.065587824939469686
30
0
10
3.912780707636049
20
0.020426632776707573
30
0
10
4.0117274096313569
20
-0.017392064850189258
30
0
10
4.1119529448840035
20
-0.043159864840337299
30
0
10
4.2133038196676589
20
-0.053432810254368412
30
0
10
4.3153772547246483
20
-0.046466590694806673
30
0
10
4.4176529999526348
20
-0.022716019870639616
30
0
10
4.5196290944411439
20
0.014762339998666035
30
0
10
4.620968849740466
20
0.059692541438225777
30
0
10
4.7216041398035999
20
0.10256792438689036
30
0
10
4.8216346817545395
20
0.13325517848977261
30
0
10
4.9212542719237788
20
0.14331546169938481
30
0
10
5.0206701341482827
20
0.128270317050375
30
0
10
5.1200168984397578
20
0.090283904703041512
30
0
10
5.2192982391572738
20
0.039482562920794995
30
0
10
5.3184486442172663
20
-0.010271081783510855
30
0
10
5.4173779537662616
20
-0.044853784294418685
30
0
10
5.5160208450650146
20
-0.053490685246550485
30
0
10
5.6143883795257956
20
-0.032682182497764292
30
0
10
5.7126063244162006
20
0.011109276947180178
30
0
10
5.8108721844697158
20
0.06595827088982785
30
0
10
5.909422285577377
20
0.11813629625533796
30
0
10
6.0084950162447726
20
0.1560075588337724
30
0
10
6.10829565370301
20
0.17402832765764764
30
0
10
6.2089607311515636
20
0.17612527306706208
30
0
10
6.3105304874435051
20
0.17144540131598204
30
0
10
6.4129187797568497
20
0.17057722303629094
30
0
10
6.515887508222149
20
0.18175941047660168
30
0
10
6.6190105773698429
20
0.20670805840085657
30
0
10
6.7216670307952917
20
0.23774159329231859
30
0
10
6.8231983325847274
20
0.26259421305985026
30
0
10
6.9230510231688891
20
0.26844071524152524
30
0
10
7.0209157860763547
20
0.24598790196061321
30
0
10
7.1168899991597048
20
0.1940966053070029
30
0
10
7.2115637457907287
20
0.12247615974257491
30
0
10
7.3057939772442921
20
0.046395588140378079
30
0
10
7.4005262230509707
20
-0.017383954426169954
30
0
10
7.4965966756490099
20
-0.055184216577724876
30
0
10
7.5945452217570386
20
-0.060696661047982138
30
0
10
7.6944164273797835
20
-0.039597941792997339
30
0
10
7.7958873161128173
20
-0.0050025150707376197
30
0
10
7.8984036550820136
20
0.027330812034269035
30
0
10
8.0013127822800119
20
0.043686138546558576
30
0
10
8.1039982446103238
20
0.037155817184997532
30
0
10
8.2060124041412159
20
0.012285938087756632
30
0
10
8.307072273803719
20
-0.019356556792711043
30
0
10
8.4070570823133401
20
-0.043546341930267858
30
0
10
8.5060047972611876
20
-0.047728841929961255
30
0
10
8.6041103939608607
20
-0.025495056432588929
30
0
10
8.7017201034221756
20
0.0193746824089846
30
0
10
8.799254226336231
20
0.076644800588499026
30
0
10
8.8971338294207563
20
0.13295718329463227
30
0
10
8.9957053352769289
20
0.17533825288213731
30
0
10
9.0951674865647174
20
0.19457233303022903
30
0
10
9.1954930670013191
20
0.18879584303108657
30
0
10
9.2964901986544959
20
0.16163161903220855
30
0
10
9.3978689150518715
20
0.12011950965330349
30
0
10
9.4993058041956822
20
0.072721592243505925
30
0
10
9.6005092588597947
20
0.027302417734756321
30
0
10
9.7012849466424935
20
-0.010894164073014417
30
0
10
9.8015166355479835
20
-0.038730404194451076
30
0
10
9.8812204623831299
20
-0.051459172423598376
30
0
10
9.9407188872264616
20
-0.055406668975140447
30
0
10
9.9802603254410727
20
-0.055550238073142966
30
0
10
10
20
-0.055000000000000049
30
0
0
SPLINE
5
104
100
AcDbEntity
8
0
100
AcDbSpline
70
4
71
5
72
111
73
105
74
0
42
0.000000001
43
0.0000000001
44
0.0000000001
40
0
40
0
40
0
40
0
40
0
40
0
40
0.01
40
0.02
40
0.029999999999999999
40
0.040000000000000001
40
0.050000000000000003
40
0.060000000000000005
40
0.070000000000000007
40
0.080000000000000002
40
0.089999999999999997
40
0.099999999999999992
40
0.10999999999999999
40
0.11999999999999998
40
0.12999999999999998
40
0.13999999999999999
40
0.14999999999999999
40
0.16
40
0.17000000000000001
40
0.18000000000000002
40
0.19000000000000003
40
0.20000000000000004
40
0.21000000000000005
40
0.22000000000000006
40
0.23000000000000007
40
0.24000000000000007
40
0.25000000000000006
40
0.26000000000000006
40
0.27000000000000007
40
0.28000000000000008
40
0.29000000000000009
40
0.3000000000000001
40
0.31000000000000011
40
0.32000000000000012
40
0.33000000000000013
40
0.34000000000000014
40
0.35000000000000014
40
0.36000000000000015
40
0.37000000000000016
40
0.38000000000000017
40
0.39000000000000018
40
0.40000000000000019
40
0.4100000000000002
40
0.42000000000000021
40
0.43000000000000022
40
0.44000000000000022
40
0.45000000000000023
40
0.46000000000000024
40
0.47000000000000025
40
0.48000000000000026
40
0.49000000000000027
40
0.50000000000000022
40
0.51000000000000023
40
0.52000000000000024
40
0.53000000000000025
40
0.54000000000000026
40
0.55000000000000027
40
0.56000000000000028
40
0.57000000000000028
40
0.58000000000000029
40
0.5900000000000003
40
0.60000000000000031
40
0.61000000000000032
40
0.62000000000000033
40
0.63000000000000034
40
0.64000000000000035
40
0.65000000000000036
40
0.66000000000000036
40
0.67000000000000037
40
0.68000000000000038
40
0.69000000000000039
40
0.7000000000000004
40
0.71000000000000041
40
0.72000000000000042
40
0.73000000000000043
40
0.74000000000000044
40
0.75000000000000044
40
0.76000000000000045
40
0.77000000000000046
40
0.78000000000000047
40
0.79000000000000048
40
0.80000000000000049
40
0.8100000000000005
40
0.82000000000000051
40
0.83000000000000052
40
0.84000000000000052
40
0.85000000000000053
40
0.86000000000000054
40
0.87000000000000055
40
0.88000000000000056
40
0.89000000000000057
40
0.90000000000000058
40
0.91000000000000059
40
0.9200000000000006
40
0.9300000000000006
40
0.94000000000000061
40
0.95000000000000062
40
0.96000000000000063
40
0.97000000000000064
40
0.98000000000000065
40
0.99000000000000066
40
1
40
1
40
1
40
1
40
1
40
1
41
1
41
1
41
1
41
1
41
1
41
1
41
1
41
1
41
1
41
1
41
1
41
1
41
1
41
1
41
1
41
1
41
1
41
1
41
1
41
1
41
1
41
1
41
1
41
1
41
1
41
1
41
1
41
1
41
1
41
1
41
1
41
1
41
1
41
1
41
1
41
1
41
1
41
1
41
1
41
1
41
1
41
1
41
1
41
1
41
1
41
1
41
1
41
1
41
1
41
1
41
1
41
1
41
1
41
1
41
1
41
1
41
1
41
1
41
1
41
1
41
1
41
1
41
1
41
1
41
1
41
1
41
1
41
1
41
1
41
1
41
1
41
1
41
1
41
1
41
1
41
1
41
1
41
1
41
1
41
1
41
1
41
1
41
1
41
1
41
1
41
1
41
1
41
1
41
1
41
1
41
1
41
1
41
1
41
1
41
1
41
1
41
1
41
1
41
1
41
1
41
1
41
1
41
1
41
1
41
1
10
0
20
3.0549999999999997
30
0
10
0.01940530887813496
20
3.0493391187992458
30
0
10
0.058280346189330666
20
3.0377460023412075
30
0
10
0.11678616026069666
20
3.019542297794791
30
0
10
0.19518049635263077
20
2.9936420864050577
30
0
10
0.29380962156006002
20
2.95882675354683
30
0
10
0.39305010350487324
20
2.922391742369324
30
0
10
0.49285160078275986
20
2.8859894051450166
30
0
10
0.59313010581056258
20
2.8523564694645849
30
0
10
0.69375821994783338
20
2.8256554015295112
30
0
10
0.7945816003842926
20
2.8103232981775816
30
0
10
0.89543715884226482
20
2.8098262947351191
30
0
10
0.99617070149005882
20
2.8254314057118988
30
0
10
1.0966546136140611
20
2.8550070626936948
30
0
10
1.1968060691949287
20
2.8917077600569687
30
0
10
1.2965860921701722
20
2.926213898472279
30
0
10
1.3959978629219136
20
2.9490866436002738
30
0
10
1.4950854320847309
20
2.9531093021067214
30
0
10
1.5939320604978067
20
2.9355685320808149
30
0
10
1.6926593714233364
20
2.9007452173232351
30
0
10
1.7914095680121755
20
2.8574445589713635
30
0
10
1.8903269904210409
20
2.81631423701038
30
0
10
1.9895396557526546
20
2.7871900767833111
30
0
10
2.0891413972579946
20
2.7765480741801785
30
0
10
2.1891721212544617
20
2.7845940685109389
30
0
10
2.2896213154696703
20
2.8068536800501431
30
0
10
2.3904341641687297
20
2.8362332184198458
30
0
10
2.4915164670044674
20
2.8649348844899727
30
0
10
2.5927405662503054
20
2.8863758744018728
30
0
10
2.6939493898748754
20
2.897258356377324
30
0
10
2.7949850628853152
20
2.8969924917860208
30
0
10
2.8957193130402068
20
2.8868943944024679
30
0
10
2.9960836725020465
20
2.8694632176724388
30
0
10
3.0960988278562325
20
2.8476343639619035
30
0
10
3.1959070358219241
20
2.8240201510590839
30
0
10
3.2957142862367976
20
2.8009477212323675
30
0
10
3.3957293720493587
20
2.7805288569533513
30
0
10
3.4961034958941717
20
2.7647199525419213
30
0
10
3.5968710203767422
20
2.7553810690137688
30
0
10
3.6978858444918572
20
2.7543488255865762
30
0
10
3.798897190009253
20
2.7630162124038633
30
0
10
3.8996303229708573
20
2.7818945350825479
30
0
10
3.9998654977996919
20
2.8101806575301107
30
0
10
4.0995175323686288
20
2.8453228636796473
30
0
10
4.1987155764250685
20
2.8825816450381616
30
0
10
4.2977213423360681
20
2.9162951771545136
30
0
10
4.3968472364030582
20
2.9411426863393091
30
0
10
4.4963739867705019
20
2.9534206316095588
30
0
10
4.5964698437888929
20
2.9522866247252812
30
0
10
4.6971053166961738
20
2.9410946369130277
30
0
10
4.798115135147623
20
2.9257387919316868
30
0
10
4.899265000603835
20
2.9128995323328448
30
0
10
5.0003164956600408
20
2.9083274830436716
30
0
10
5.1010928200052952
20
2.9151086136724
30
0
10
5.2015440232922616
20
2.9319426373940098
30
0
10
5.3017173802574078
20
2.9547288112475667
30
0
10
5.4017279675474947
20
2.9781476551577404
30
0
10
5.5017292154016184
20
2.9972362699163266
30
0
10
5.6018835140007353
20
3.0089817899068083
30
0
10
5.7023327923279652
20
3.0138653177768662
30
0
10
5.8031732918767176
20
3.0144217176066261
30
0
10
5.9044297825000065
20
3.0138347178258735
30
0
10
6.0060308631102446
20
3.0145436832305421
30
0
10
6.107781612632996
20
3.0167894325582933
30
0
10
6.209343274651542
20
3.0173420889697318
30
0
10
6.310330447293647
20
3.0113581562502545
30
0
10
6.4104036704500498
20
2.9941029432748896
30
0
10
6.5093611609742164
20
2.9626769144307246
30
0
10
6.6072370315350417
20
2.91784966145842
30
0
10
6.7043794965541004
20
2.8655383729371926
30
0
10
6.801308256300322
20
2.8143256588298859
30
0
10
6.8985889667440157
20
2.7732841300421542
30
0
10
6.996700349813886
20
2.749668608919817
30
0
10
7.0959064997356345
20
2.7467014222963431
30
0
10
7.1961210830877391
20
2.7612123849494941
30
0
10
7.2970282380709008
20
2.7858757452336218
30
0
10
7.3982103939460044
20
2.8115711930319449
30
0
10
7.4992736899324628
20
2.8297015072756992
30
0
10
7.5999738987045431
20
2.8345202209257669
30
0
10
7.700343596849839
20
2.8254791141595081
30
0
10
7.8005846358456186
20
2.8058097341977839
30
0
10
7.9009586253822564
20
2.7810759642558103
30
0
10
8.0016787194778178
20
2.7577422604286195
30
0
10
8.1027996818480261
20
2.741729196398897
30
0
10
8.2041117985946936
20
2.7369939291607528
30
0
10
8.3052598649732055
20
2.7455820023005817
30
0
10
8.4058594185458464
20
2.7676522795567298
30
0
10
8.5056123971831479
20
2.8015172998198423
30
0
10
8.6044266839813091
20
2.8436602378362141
30
0
10
8.7025239081330934
20
2.8888046264492031
30
0
10
8.8003144795564108
20
2.930996226548622
30
0
10
8.8982837425890722
20
2.9646348782231771
30
0
10
8.9968733486973562
20
2.9855323885029144
30
0
10
9.0963661816537655
20
2.9919436182175216
30
0
10
9.1967654819725517
20
2.9856558442622303
30
0
10
9.2978702027878555
20
2.9709584101679969
30
0
10
9.399355540177206
20
2.9535555238478173
30
0
10
9.5008513814302304
20
2.9395023500556858
30
0
10
9.602021798645616
20
2.9341287180728806
30
0
10
9.7026435088689524
20
2.9409761868949449
30
0
10
9.8025828070216932
20
2.9621639961025941
30
0
10
9.881935098533722
20
2.9914290165095228
30
0
10
9.9411024280753679
20
3.020460553353411
30
0
10
9.9803931672477439
20
3.0429622879756297
30
0
10
10
20
3.0549999999999997
30
0
0
ENDSEC
0
SECTION
2
OBJECTS
0
DICTIONARY
5
C
100
AcDbDictionary
3
ACAD_GROUP
350
D
3
ACAD_MLINESTYLE
350
17
0
DICTIONARY
5
D
100
AcDbDictionary
0
DICTIONARY
5
1A
330
C
100
AcDbDictionary
0
DICTIONARY
5
17
100
AcDbDictionary
0
ENDSEC
0
EOF
