0
SECTION
2
HEADER
9
$INSUNITS
70
4
9
$ACADVER
1
AC1014
9
$HANDSEED
5
FFFF
0
ENDSEC
0
SECTION
2
TABLES
0
TABLE
2
VPORT
5
8
100
AcDbSymbolTable
0
ENDTAB
0
TABLE
2
LTYPE
5
5
100
AcDbSymbolTable
0
LTYPE
5
14
100
AcDbSymbolTableRecord
100
AcDbLinetypeTableRecord
2
BYBLOCK
70
0
0
LTYPE
5
15
100
AcDbSymbolTableRecord
100
AcDbLinetypeTableRecord
2
BYLAYER
70
0
0
ENDTAB
0
TABLE
2
LAYER
5
2
100
AcDbSymbolTable
70
2
0
LAYER
5
50
100
AcDbSymbolTableRecord
100
AcDbLayerTableRecord
2
0
70
0
6
CONTINUOUS
0
ENDTAB
0
TABLE
2
STYLE
5
3
100
AcDbSymbolTable
70
1
0
STYLE
5
11
100
AcDbSymbolTableRecord
100
AcDbTextStyleTableRecord
2
STANDARD
70
0
0
ENDTAB
0
TABLE
2
VIEW
5
6
100
AcDbSymbolTable
70
0
0
ENDTAB
0
TABLE
2
UCS
5
7
100
AcDbSymbolTable
70
0
0
ENDTAB
0
TABLE
2
APPID
5
9
100
AcDbSymbolTable
70
2
0
APPID
5
12
100
AcDbSymbolTableRecord
100
AcDbRegAppTableRecord
2
ACAD
70
0
0
ENDTAB
0
TABLE
2
DIMSTYLE
5
A
100
AcDbSymbolTable
70
1
0
ENDTAB
0
TABLE
2
BLOCK_RECORD
5
1
100
AcDbSymbolTable
70
1
0
BLOCK_RECORD
5
1F
100
AcDbSymbolTableRecord
100
AcDbBlockTableRecord
2
*MODEL_SPACE
0
BLOCK_RECORD
5
1B
100
AcDbSymbolTableRecord
100
AcDbBlockTableRecord
2
*PAPER_SPACE
0
ENDTAB
0
ENDSEC
0
SECTION
2
BLOCKS
0
BLOCK
5
20
100
AcDbEntity
100
AcDbBlockBegin
2
*MODEL_SPACE
0
ENDBLK
5
21
100
AcDbEntity
100
AcDbBlockEnd
0
BLOCK
5
1C
100
AcDbEntity
100
AcDbBlockBegin
2
*PAPER_SPACE
0
ENDBLK
5
1D
100
AcDbEntity
100
AcDbBlockEnd
0
ENDSEC
0
SECTION
2
ENTITIES
0
SPLINE
5
100
100
AcDbEntity
8
0
100
AcDbSpline
70
4
71
5
72
16
73
10
74
0
42
0.000000001
43
0.0000000001
44
0.0000000001
40
0
40
0
40
0
40
0
40
0
40
0
40
0.20000000000000001
40
0.40000000000000002
40
0.60000000000000009
40
0.80000000000000004
40
1
40
1
40
1
40
1
40
1
40
1
41
1
41
1
41
1
41
1
41
1
41
1
41
1
41
1
41
1
41
1
10
0
20
-0.055000000000000049
30
0
10
0
20
0.069400000000207365
30
0
10
0
20
0.31820000000056603
30
0
10
0
20
0.69140000000093593
30
0
10
0
20
1.1890000000011365
30
0
10
0
20
1.8110000000010393
30
0
10
0
20
2.3086000000007481
30
0
10
0
20
2.6818000000004227
30
0
10
0
20
2.9306000000001484
30
0
10
0
20
3.0549999999999997
30
0
0
SPLINE
5
101
100
AcDbEntity
8
0
100
AcDbSpline
70
4
71
5
72
16
73
10
74
0
42
0.000000001
43
0.0000000001
44
0.0000000001
40
0
40
0
40
0
40
0
40
0
40
0
40
0.20000000000000001
40
0.40000000000000002
40
0.60000000000000009
40
0.80000000000000004
40
1
40
1
40
1
40
1
40
1
40
1
41
1
41
1
41
1
41
1
41
1
41
1
41
1
41
1
41
1
41
1
10
10
20
-0.055000000000000049
30
0
10
9.9999999999997495
20
0.069400000000207365
30
0
10
9.9999999999993197
20
0.31820000000056603
30
0
10
9.9999999999989129
20
0.69140000000093593
30
0
10
9.9999999999987672
20
1.1890000000011365
30
0
10
9.9999999999990248
20
1.8110000000010393
30
0
10
9.9999999999993889
20
2.3086000000007481
30
0
10
9.9999999999996998
20
2.6818000000004227
30
0
10
9.9999999999999005
20
2.9306000000001484
30
0
10
10
20
3.0549999999999997
30
0
0
SPLINE
5
102
100
AcDbEntity
8
0
100
AcDbSpline
70
4
71
5
72
16
73
10
74
0
42
0.000000001
43
0.0000000001
44
0.0000000001
40
0
40
0
40
0
40
0
40
0
40
0
40
0.20000000000000001
40
0.40000000000000002
40
0.60000000000000009
40
0.80000000000000004
40
1
40
1
40
1
40
1
40
1
40
1
41
1
41
1
41
1
41
1
41
1
41
1
41
1
41
1
41
1
41
1
10
0
20
1.5274999999999999
30
0
10
0.40000000000047375
20
1.5274999999999856
30
0
10
1.2000000000012774
20
1.5274999999999614
30
0
10
2.4000000000020547
20
1.527499999999943
30
0
10
4.0000000000023546
20
1.5274999999999479
30
0
10
6.0000000000019584
20
1.5274999999999812
30
0
10
7.6000000000012928
20
1.5275000000000025
30
0
10
8.800000000000697
20
1.5275000000000083
30
0
10
9.6000000000002395
20
1.5275000000000039
30
0
10
10
20
1.5274999999999999
30
0
0
SPLINE
5
103
100
AcDbEntity
8
0
100
AcDbSpline
70
4
71
5
72
61
73
55
74
0
42
0.000000001
43
0.0000000001
44
0.0000000001
40
0
40
0
40
0
40
0
40
0
40
0
40
0.02
40
0.040000000000000001
40
0.059999999999999998
40
0.080000000000000002
40
0.10000000000000001
40
0.12000000000000001
40
0.14000000000000001
40
0.16
40
0.17999999999999999
40
0.19999999999999998
40
0.21999999999999997
40
0.23999999999999996
40
0.25999999999999995
40
0.27999999999999997
40
0.29999999999999999
40
0.32000000000000001
40
0.34000000000000002
40
0.36000000000000004
40
0.38000000000000006
40
0.40000000000000008
40
0.4200000000000001
40
0.44000000000000011
40
0.46000000000000013
40
0.48000000000000015
40
0.50000000000000011
40
0.52000000000000013
40
0.54000000000000015
40
0.56000000000000016
40
0.58000000000000018
40
0.6000000000000002
40
0.62000000000000022
40
0.64000000000000024
40
0.66000000000000025
40
0.68000000000000027
40
0.70000000000000029
40
0.72000000000000031
40
0.74000000000000032
40
0.76000000000000034
40
0.78000000000000036
40
0.80000000000000038
40
0.8200000000000004
40
0.84000000000000041
40
0.86000000000000043
40
0.88000000000000045
40
0.90000000000000047
40
0.92000000000000048
40
0.9400000000000005
40
0.96000000000000052
40
0.98000000000000054
40
1
40
1
40
1
40
1
40
1
40
1
41
1
41
1
41
1
41
1
41
1
41
1
41
1
41
1
41
1
41
1
41
1
41
1
41
1
41
1
41
1
41
1
41
1
41
1
41
1
41
1
41
1
41
1
41
1
41
1
41
1
41
1
41
1
41
1
41
1
41
1
41
1
41
1
41
1
41
1
41
1
41
1
41
1
41
1
41
1
41
1
41
1
41
1
41
1
41
1
41
1
41
1
41
1
41
1
41
1
41
1
41
1
41
1
41
1
41
1
41
1
10
0
20
-0.055000000000000049
30
0
10
0.040132680691050887
20
-0.038648590487743724
30
0
10
0.12040509671641514
20
-0.0082344484271463687
30
0
10
0.24083488470811501
20
0.03052072053715597
30
0
10
0.40145029064228055
20
0.068453358521876673
30
0
10
0.60228889407158359
20
0.09339102843010974
30
0
10
0.80319282140125503
20
0.097213771907789959
30
0
10
1.0041538178524776
20
0.082714854554355982
30
0
10
1.205157903619303
20
0.054625313685899665
30
0
10
1.4061839401299996
20
0.020087782691122904
30
0
10
1.6072060762283034
20
-0.012764729986838752
30
0
10
1.8081960951036702
20
-0.03620180187768391
30
0
10
2.0091258268439489
20
-0.044282574674321853
30
0
10
2.2099694473603906
20
-0.034287591192237517
30
0
10
2.4107060640986369
20
-0.0080320874139217461
30
0
10
2.6113278091082281
20
0.029722661337200262
30
0
10
2.8118479355108783
20
0.072748099471774186
30
0
10
3.012308594196984
20
0.11484486200232247
30
0
10
3.2127896842771082
20
0.15137258294442463
30
0
10
3.4134149253077295
20
0.18064904942269547
30
0
10
3.614312382571355
20
0.2030045001130647
30
0
10
3.8155766837728633
20
0.21995613602001532
30
0
10
4.0172318524044552
20
0.23335323866297245
30
0
10
4.2191906346234278
20
0.24450855622614026
30
0
10
4.4212237756488246
20
0.25341533076689199
30
0
10
4.6230449206823145
20
0.25908420163658663
30
0
10
4.8243888841265701
20
0.25979316460516855
30
0
10
5.0250892269939831
20
0.2533793522046045
30
0
10
5.2251638336097876
20
0.23748664028644995
30
0
10
5.4248757711719335
20
0.20990335370064012
30
0
10
5.6246031110558992
20
0.16947706121086928
30
0
10
5.8247256190081211
20
0.11701091919779057
30
0
10
6.0255091616757817
20
0.0561022537018337
30
0
10
6.2269812946383034
20
-0.0058242961497942045
30
0
10
6.4288379089627306
20
-0.057028711318504163
30
0
10
6.6305883182910206
20
-0.084914156081401668
30
0
10
6.8316780972506397
20
-0.079172681382771157
30
0
10
7.0316160831627172
20
-0.034889875255303238
30
0
10
7.2301093308357478
20
0.043932766922135019
30
0
10
7.4271665506760653
20
0.14215785478110907
30
0
10
7.6230079662745194
20
0.23900852758422572
30
0
10
7.8179984550406214
20
0.31267022748813994
30
0
10
8.0125727756323251
20
0.34516294785832796
30
0
10
8.2071630021625808
20
0.3272662601182339
30
0
10
8.4021291818330486
20
0.26298611911499159
30
0
10
8.5977675895309318
20
0.16540237531353263
30
0
10
8.7943144052606179
20
0.053022920313278023
30
0
10
8.9919509314377777
20
-0.054058390306603928
30
0
10
9.1908080321195378
20
-0.13786040464133889
30
0
10
9.390970576933638
20
-0.18641935286998088
30
0
10
9.5924871731045478
20
-0.1926645874094132
30
0
10
9.7548014849421953
20
-0.16103285126931835
30
0
10
9.8771590690609443
20
-0.11621462318313382
30
0
10
9.9590069899970519
20
-0.076966429927745952
30
0
10
10
20
-0.055000000000000049
30
0
0
SPLINE
5
104
100
AcDbEntity
8
0
100
AcDbSpline
70
4
71
5
72
61
73
55
74
0
42
0.000000001
43
0.0000000001
44
0.0000000001
40
0
40
0
40
0
40
0
40
0
40
0
40
0.02
40
0.040000000000000001
40
0.059999999999999998
40
0.080000000000000002
40
0.10000000000000001
40
0.12000000000000001
40
0.14000000000000001
40
0.16
40
0.17999999999999999
40
0.19999999999999998
40
0.21999999999999997
40
0.23999999999999996
40
0.25999999999999995
40
0.27999999999999997
40
0.29999999999999999
40
0.32000000000000001
40
0.34000000000000002
40
0.36000000000000004
40
0.38000000000000006
40
0.40000000000000008
40
0.4200000000000001
40
0.44000000000000011
40
0.46000000000000013
40
0.48000000000000015
40
0.50000000000000011
40
0.52000000000000013
40
0.54000000000000015
40
0.56000000000000016
40
0.58000000000000018
40
0.6000000000000002
40
0.62000000000000022
40
0.64000000000000024
40
0.66000000000000025
40
0.68000000000000027
40
0.70000000000000029
40
0.72000000000000031
40
0.74000000000000032
40
0.76000000000000034
40
0.78000000000000036
40
0.80000000000000038
40
0.8200000000000004
40
0.84000000000000041
40
0.86000000000000043
40
0.88000000000000045
40
0.90000000000000047
40
0.92000000000000048
40
0.9400000000000005
40
0.96000000000000052
40
0.98000000000000054
40
1
40
1
40
1
40
1
40
1
40
1
41
1
41
1
41
1
41
1
41
1
41
1
41
1
41
1
41
1
41
1
41
1
41
1
41
1
41
1
41
1
41
1
41
1
41
1
41
1
41
1
41
1
41
1
41
1
41
1
41
1
41
1
41
1
41
1
41
1
41
1
41
1
41
1
41
1
41
1
41
1
41
1
41
1
41
1
41
1
41
1
41
1
41
1
41
1
41
1
41
1
41
1
41
1
41
1
41
1
41
1
41
1
41
1
41
1
41
1
41
1
10
0
20
3.0549999999999997
30
0
10
0.039774083247585169
20
3.0513094317773937
30
0
10
0.11936337992296822
20
3.0433015058487776
30
0
10
0.23887071543320632
20
3.0294092505853323
30
0
10
0.39846077160989768
20
3.0071230408189482
30
0
10
0.59835203296727457
20
2.973368041527003
30
0
10
0.79862172200909021
20
2.9348651542372854
30
0
10
0.99921802878481758
20
2.8939345252890591
30
0
10
1.2000534152574007
20
2.8544635716024431
30
0
10
1.4009952498669487
20
2.8223123379811401
30
0
10
1.6018916975594268
20
2.8037143028797136
30
0
10
1.8025977259599844
20
2.8036670940741577
30
0
10
2.0030009867923346
20
2.8243326546610508
30
0
10
2.2030480110376942
20
2.863407516725514
30
0
10
2.4027698983627408
20
2.9125465727005646
30
0
10
2.6022615980334201
20
2.9604078492382353
30
0
10
2.801661925991263
20
2.9956342335891644
30
0
10
3.0011334355939381
20
3.0098511541619799
30
0
10
3.2008424624258272
20
3.0006756851378986
30
0
10
3.4009390549095828
20
2.974702218215425
30
0
10
3.6015282941006257
20
2.943557637366939
30
0
10
3.8026413803784127
20
2.9199934356681458
30
0
10
4.0042069631189507
20
2.9139921904560486
30
0
10
4.2060212957713183
20
2.9288125266642568
30
0
10
4.4077207380218733
20
2.957185685958641
30
0
10
4.6088822059012688
20
2.9858604770191945
30
0
10
4.8091216909192571
20
3.0000015228475876
30
0
10
5.0081924230621695
20
2.9875925873127427
30
0
10
5.2060860990644056
20
2.9439395989247146
30
0
10
5.4031261184246784
20
2.8758744238072058
30
0
10
5.5998296740916693
20
2.7972870286748601
30
0
10
5.7967785714473843
20
2.7249823577056342
30
0
10
5.9944863032281397
20
2.6744041193826802
30
0
10
6.1932683580613181
20
2.6554664351831061
30
0
10
6.3931059538164678
20
2.6681853020466946
30
0
10
6.5937512734100387
20
2.7055512981774448
30
0
10
6.7948378683213919
20
2.7565576215499621
30
0
10
6.9959891679735877
20
2.8091673293480008
30
0
10
7.1969266960695055
20
2.853278431116534
30
0
10
7.3975812263082732
20
2.8837532200341958
30
0
10
7.5980283410896003
20
2.8994108153887477
30
0
10
7.7984209549183454
20
2.9019503560878301
30
0
10
7.9989231604693511
20
2.8949081349959154
30
0
10
8.199643742740502
20
2.8826080588501899
30
0
10
8.4005693489217865
20
2.8691146363448961
30
0
10
8.6015993032221711
20
2.8581380656734945
30
0
10
8.8025808035127966
20
2.8529437635544506
30
0
10
9.0033437165978505
20
2.8562595121910346
30
0
10
9.2037356725851556
20
2.8701809472971607
30
0
10
9.4036564834764818
20
2.8960789645726956
30
0
10
9.6030469374908343
20
2.9347542744769801
30
0
10
9.7621120543366153
20
2.9762204256915843
30
0
10
9.8811553423014704
20
3.0132900550748154
30
0
10
9.9604040312916204
20
3.0406547500687511
30
0
10
10
20
3.0549999999999997
30
0
0
ENDSEC
0
SECTION
2
OBJECTS
0
DICTIONARY
5
C
100
AcDbDictionary
3
ACAD_GROUP
350
D
3
ACAD_MLINESTYLE
350
17
0
DICTIONARY
5
D
100
AcDbDictionary
0
DICTIONARY
5
1A
330
C
100
AcDbDictionary
0
DICTIONARY
5
17
100
AcDbDictionary
0
ENDSEC
0
EOF
