0
SECTION
2
HEADER
9
$INSUNITS
70
4
9
$ACADVER
1
AC1014
9
$HANDSEED
5
FFFF
0
ENDSEC
0
SECTION
2
TABLES
0
TABLE
2
VPORT
5
8
100
AcDbSymbolTable
0
ENDTAB
0
TABLE
2
LTYPE
5
5
100
AcDbSymbolTable
0
LTYPE
5
14
100
AcDbSymbolTableRecord
100
AcDbLinetypeTableRecord
2
BYBLOCK
70
0
0
LTYPE
5
15
100
AcDbSymbolTableRecord
100
AcDbLinetypeTableRecord
2
BYLAYER
70
0
0
ENDTAB
0
TABLE
2
LAYER
5
2
100
AcDbSymbolTable
70
2
0
LAYER
5
50
100
AcDbSymbolTableRecord
100
AcDbLayerTableRecord
2
0
70
0
6
CONTINUOUS
0
ENDTAB
0
TABLE
2
STYLE
5
3
100
AcDbSymbolTable
70
1
0
STYLE
5
11
100
AcDbSymbolTableRecord
100
AcDbTextStyleTableRecord
2
STANDARD
70
0
0
ENDTAB
0
TABLE
2
VIEW
5
6
100
AcDbSymbolTable
70
0
0
ENDTAB
0
TABLE
2
UCS
5
7
100
AcDbSymbolTable
70
0
0
ENDTAB
0
TABLE
2
APPID
5
9
100
AcDbSymbolTable
70
2
0
APPID
5
12
100
AcDbSymbolTableRecord
100
AcDbRegAppTableRecord
2
ACAD
70
0
0
ENDTAB
0
TABLE
2
DIMSTYLE
5
A
100
AcDbSymbolTable
70
1
0
ENDTAB
0
TABLE
2
BLOCK_RECORD
5
1
100
AcDbSymbolTable
70
1
0
BLOCK_RECORD
5
1F
100
AcDbSymbolTableRecord
100
AcDbBlockTableRecord
2
*MODEL_SPACE
0
BLOCK_RECORD
5
1B
100
AcDbSymbolTableRecord
100
AcDbBlockTableRecord
2
*PAPER_SPACE
0
ENDTAB
0
ENDSEC
0
SECTION
2
BLOCKS
0
BLOCK
5
20
100
AcDbEntity
100
AcDbBlockBegin
2
*MODEL_SPACE
0
ENDBLK
5
21
100
AcDbEntity
100
AcDbBlockEnd
0
BLOCK
5
1C
100
AcDbEntity
100
AcDbBlockBegin
2
*PAPER_SPACE
0
ENDBLK
5
1D
100
AcDbEntity
100
AcDbBlockEnd
0
ENDSEC
0
SECTION
2
ENTITIES
0
SPLINE
5
100
100
AcDbEntity
8
0
100
AcDbSpline
70
4
71
5
72
16
73
10
74
0
42
0.000000001
43
0.0000000001
44
0.0000000001
40
0
40
0
40
0
40
0
40
0
40
0
40
0.20000000000000001
40
0.40000000000000002
40
0.60000000000000009
40
0.80000000000000004
40
1
40
1
40
1
40
1
40
1
40
1
41
1
41
1
41
1
41
1
41
1
41
1
41
1
41
1
41
1
41
1
10
0
20
-0.055000000000000049
30
0
10
0
20
0.069400000000207365
30
0
10
0
20
0.31820000000056603
30
0
10
0
20
0.69140000000093593
30
0
10
0
20
1.1890000000011365
30
0
10
0
20
1.8110000000010393
30
0
10
0
20
2.3086000000007481
30
0
10
0
20
2.6818000000004227
30
0
10
0
20
2.9306000000001484
30
0
10
0
20
3.0549999999999997
30
0
0
SPLINE
5
101
100
AcDbEntity
8
0
100
AcDbSpline
70
4
71
5
72
16
73
10
74
0
42
0.000000001
43
0.0000000001
44
0.0000000001
40
0
40
0
40
0
40
0
40
0
40
0
40
0.20000000000000001
40
0.40000000000000002
40
0.60000000000000009
40
0.80000000000000004
40
1
40
1
40
1
40
1
40
1
40
1
41
1
41
1
41
1
41
1
41
1
41
1
41
1
41
1
41
1
41
1
10
10
20
-0.055000000000000049
30
0
10
9.9999999999997495
20
0.069400000000207365
30
0
10
9.9999999999993197
20
0.31820000000056603
30
0
10
9.9999999999989129
20
0.69140000000093593
30
0
10
9.9999999999987672
20
1.1890000000011365
30
0
10
9.9999999999990248
20
1.8110000000010393
30
0
10
9.9999999999993889
20
2.3086000000007481
30
0
10
9.9999999999996998
20
2.6818000000004227
30
0
10
9.9999999999999005
20
2.9306000000001484
30
0
10
10
20
3.0549999999999997
30
0
0
SPLINE
5
102
100
AcDbEntity
8
0
100
AcDbSpline
70
4
71
5
72
16
73
10
74
0
42
0.000000001
43
0.0000000001
44
0.0000000001
40
0
40
0
40
0
40
0
40
0
40
0
40
0.20000000000000001
40
0.40000000000000002
40
0.60000000000000009
40
0.80000000000000004
40
1
40
1
40
1
40
1
40
1
40
1
41
1
41
1
41
1
41
1
41
1
41
1
41
1
41
1
41
1
41
1
10
0
20
1.5274999999999999
30
0
10
0.40000000000047375
20
1.5274999999999856
30
0
10
1.2000000000012774
20
1.5274999999999614
30
0
10
2.4000000000020547
20
1.527499999999943
30
0
10
4.0000000000023546
20
1.5274999999999479
30
0
10
6.0000000000019584
20
1.5274999999999812
30
0
10
7.6000000000012928
20
1.5275000000000025
30
0
10
8.800000000000697
20
1.5275000000000083
30
0
10
9.6000000000002395
20
1.5275000000000039
30
0
10
10
20
1.5274999999999999
30
0
0
SPLINE
5
103
100
AcDbEntity
8
0
100
AcDbSpline
70
4
71
5
72
111
73
105
74
0
42
0.000000001
43
0.0000000001
44
0.0000000001
40
0
40
0
40
0
40
0
40
0
40
0
40
0.01
40
0.02
40
0.029999999999999999
40
0.040000000000000001
40
0.050000000000000003
40
0.060000000000000005
40
0.070000000000000007
40
0.080000000000000002
40
0.089999999999999997
40
0.099999999999999992
40
0.10999999999999999
40
0.11999999999999998
40
0.12999999999999998
40
0.13999999999999999
40
0.14999999999999999
40
0.16
40
0.17000000000000001
40
0.18000000000000002
40
0.19000000000000003
40
0.20000000000000004
40
0.21000000000000005
40
0.22000000000000006
40
0.23000000000000007
40
0.24000000000000007
40
0.25000000000000006
40
0.26000000000000006
40
0.27000000000000007
40
0.28000000000000008
40
0.29000000000000009
40
0.3000000000000001
40
0.31000000000000011
40
0.32000000000000012
40
0.33000000000000013
40
0.34000000000000014
40
0.35000000000000014
40
0.36000000000000015
40
0.37000000000000016
40
0.38000000000000017
40
0.39000000000000018
40
0.40000000000000019
40
0.4100000000000002
40
0.42000000000000021
40
0.43000000000000022
40
0.44000000000000022
40
0.45000000000000023
40
0.46000000000000024
40
0.47000000000000025
40
0.48000000000000026
40
0.49000000000000027
40
0.50000000000000022
40
0.51000000000000023
40
0.52000000000000024
40
0.53000000000000025
40
0.54000000000000026
40
0.55000000000000027
40
0.56000000000000028
40
0.57000000000000028
40
0.58000000000000029
40
0.5900000000000003
40
0.60000000000000031
40
0.61000000000000032
40
0.62000000000000033
40
0.63000000000000034
40
0.64000000000000035
40
0.65000000000000036
40
0.66000000000000036
40
0.67000000000000037
40
0.68000000000000038
40
0.69000000000000039
40
0.7000000000000004
40
0.71000000000000041
40
0.72000000000000042
40
0.73000000000000043
40
0.74000000000000044
40
0.75000000000000044
40
0.76000000000000045
40
0.77000000000000046
40
0.78000000000000047
40
0.79000000000000048
40
0.80000000000000049
40
0.8100000000000005
40
0.82000000000000051
40
0.83000000000000052
40
0.84000000000000052
40
0.85000000000000053
40
0.86000000000000054
40
0.87000000000000055
40
0.88000000000000056
40
0.89000000000000057
40
0.90000000000000058
40
0.91000000000000059
40
0.9200000000000006
40
0.9300000000000006
40
0.94000000000000061
40
0.95000000000000062
40
0.96000000000000063
40
0.97000000000000064
40
0.98000000000000065
40
0.99000000000000066
40
1
40
1
40
1
40
1
40
1
40
1
41
1
41
1
41
1
41
1
41
1
41
1
41
1
41
1
41
1
41
1
41
1
41
1
41
1
41
1
41
1
41
1
41
1
41
1
41
1
41
1
41
1
41
1
41
1
41
1
41
1
41
1
41
1
41
1
41
1
41
1
41
1
41
1
41
1
41
1
41
1
41
1
41
1
41
1
41
1
41
1
41
1
41
1
41
1
41
1
41
1
41
1
41
1
41
1
41
1
41
1
41
1
41
1
41
1
41
1
41
1
41
1
41
1
41
1
41
1
41
1
41
1
41
1
41
1
41
1
41
1
41
1
41
1
41
1
41
1
41
1
41
1
41
1
41
1
41
1
41
1
41
1
41
1
41
1
41
1
41
1
41
1
41
1
41
1
41
1
41
1
41
1
41
1
41
1
41
1
41
1
41
1
41
1
41
1
41
1
41
1
41
1
41
1
41
1
41
1
41
1
41
1
41
1
41
1
41
1
41
1
10
0
20
-0.055000000000000049
30
0
10
0.018624719887722293
20
-0.045211063174272516
30
0
10
0.056047429832962362
20
-0.025781039765348547
30
0
10
0.11270129894972218
20
0.0029204122766867189
30
0
10
0.18927962350486632
20
0.040301985172580934
30
0
10
0.28669956287209253
20
0.085373067398430452
30
0
10
0.38570778159733338
20
0.12826234696004318
30
0
10
0.48608365287997229
20
0.16790963295991609
30
0
10
0.58746207684774909
20
0.20256816042577178
30
0
10
0.68928385060153552
20
0.22956499571100117
30
0
10
0.79090608353495917
20
0.24588354921874941
30
0
10
0.89173414624495806
20
0.24885778568814609
30
0
10
0.99134917941053768
20
0.23684139932814344
30
0
10
1.0896304204680911
20
0.20985577886783305
30
0
10
1.1868990060175566
20
0.17033461842756739
30
0
10
1.2837596386642072
20
0.12247990553248136
30
0
10
1.3809179512774028
20
0.071496433694971953
30
0
10
1.4789998492357794
20
0.02285785125499349
30
0
10
1.5783856239967431
20
-0.018410683469706087
30
0
10
1.6789970569326615
20
-0.048534076664689757
30
0
10
1.7804085959805858
20
-0.065166149519649469
30
0
10
1.882036892954104
20
-0.067402933477102106
30
0
10
1.9833085498649683
20
-0.055868596630069364
30
0
10
2.0838255860354442
20
-0.032737648832466028
30
0
10
2.1835617721359672
20
-0.0018752630261661893
30
0
10
2.2827761413618504
20
0.031874394537423738
30
0
10
2.3818741665365697
20
0.063541205408979964
30
0
10
2.4812836642003
20
0.088861673739820957
30
0
10
2.5813328183232782
20
0.10505532337819772
30
0
10
2.6821056798178011
20
0.11179580901040953
30
0
10
2.7834863892928139
20
0.11069130209054129
30
0
10
2.8852439800257739
20
0.10445067079724996
30
0
10
2.9871043720024293
20
0.096145953432475312
30
0
10
3.088824735318866
20
0.0884640972920296
30
0
10
3.1902746992807858
20
0.082885587732085375
30
0
10
3.2914234360054668
20
0.07979634375467802
30
0
10
3.3923134620817548
20
0.078730831669335172
30
0
10
3.4930392497463485
20
0.078565938702542165
30
0
10
3.5937238034032419
20
0.077739502232966703
30
0
10
3.6944962618891934
20
0.074446066549416615
30
0
10
3.795466761185379
20
0.067077836162396112
30
0
10
3.8967013827507495
20
0.05467901006611163
30
0
10
3.9981968499574778
20
0.037398770164475577
30
0
10
4.0998557124330812
20
0.016938556715138279
30
0
10
4.2014600858124744
20
-0.0029779775820463362
30
0
10
4.3027402105006685
20
-0.0176772180804993
30
0
10
4.403444821554416
20
-0.022636563540301118
30
0
10
4.503410224937455
20
-0.014566220968541082
30
0
10
4.6026314128652768
20
0.0074806525494164455
30
0
10
4.7013283540328379
20
0.041063385940928905
30
0
10
4.7998530980615222
20
0.081458283494749928
30
0
10
4.8986015679045085
20
0.12270078770296899
30
0
10
4.9979233063439663
20
0.15865218051711569
30
0
10
5.0980328565666468
20
0.1840503205900379
30
0
10
5.1989182152614308
20
0.19558179514878615
30
0
10
5.3004055240780161
20
0.19199697378821345
30
0
10
5.4022265553320148
20
0.17421586589804006
30
0
10
5.5040846779173256
20
0.14542780623234386
30
0
10
5.6057223952006821
20
0.11122059092849469
30
0
10
5.706985520657307
20
0.079628681739114665
30
0
10
5.807802385731752
20
0.059116842988939336
30
0
10
5.9081658766352128
20
0.056606183782662085
30
0
10
6.0081146065541846
20
0.075539599543647973
30
0
10
6.1077141494536944
20
0.11379866673256464
30
0
10
6.2070392461556612
20
0.16205083943804835
30
0
10
6.3061704780231667
20
0.20749997640674517
30
0
10
6.4051899659721521
20
0.23729828688572732
30
0
10
6.504177431965803
20
0.24204582432971083
30
0
10
6.6032061320198663
20
0.21934780072556323
30
0
10
6.7023387677733428
20
0.17708903756534858
30
0
10
6.8016212709229427
20
0.12897066169996624
30
0
10
6.9010766538840107
20
0.090330598387231772
30
0
10
7.0006988480064622
20
0.073866388116691439
30
0
10
7.1004464640283054
20
0.085381791228163556
30
0
10
7.2002367407593884
20
0.11956567159096235
30
0
10
7.2999727367741158
20
0.16422062160995457
30
0
10
7.3995702477491898
20
0.20442438412581213
30
0
10
7.4989849247938185
20
0.22672351508214272
30
0
10
7.5982391105550731
20
0.22329127700244095
30
0
10
7.697449436375587
20
0.19616496198411654
30
0
10
7.7967825861652473
20
0.15399408059388159
30
0
10
7.8964105844815862
20
0.10873047876422462
30
0
10
7.9964658965708688
20
0.072322372669874235
30
0
10
8.0969974521292833
20
0.053454153789618902
30
0
10
8.1979238640256256
20
0.054137237097558459
30
0
10
8.2990824751327725
20
0.071474608548570018
30
0
10
8.4002815245214197
20
0.0995915234343904
30
0
10
8.5013509801763814
20
0.13149898788591469
30
0
10
8.6021943089505459
20
0.16099346493336514
30
0
10
8.7028388681511206
20
0.18451631391347853
30
0
10
8.8033874173106046
20
0.20053467469821784
30
0
10
8.9039705094560677
20
0.2089475965626125
30
0
10
9.004699069735457
20
0.21048785660060398
30
0
10
9.105615770447443
20
0.20611734003816148
30
0
10
9.2066500311045658
20
0.19645074200526091
30
0
10
9.307654870584237
20
0.18184463591776329
30
0
10
9.4084406802013092
20
0.16245984998054089
30
0
10
9.5088096181246033
20
0.13833298495118129
30
0
10
9.6085908919269922
20
0.10944575884609314
30
0
10
9.7076723367980762
20
0.075790089101656383
30
0
10
9.8059865563280884
20
0.037362283351170311
30
0
10
9.883997573242306
20
0.0028024776392940381
30
0
10
9.9421407416907748
20
-0.025264074787266028
30
0
10
9.9807406197377961
20
-0.044929036858037806
30
0
10
10
20
-0.055000000000000049
30
0
0
SPLINE
5
104
100
AcDbEntity
8
0
100
AcDbSpline
70
4
71
5
72
111
73
105
74
0
42
0.000000001
43
0.0000000001
44
0.0000000001
40
0
40
0
40
0
40
0
40
0
40
0
40
0.01
40
0.02
40
0.029999999999999999
40
0.040000000000000001
40
0.050000000000000003
40
0.060000000000000005
40
0.070000000000000007
40
0.080000000000000002
40
0.089999999999999997
40
0.099999999999999992
40
0.10999999999999999
40
0.11999999999999998
40
0.12999999999999998
40
0.13999999999999999
40
0.14999999999999999
40
0.16
40
0.17000000000000001
40
0.18000000000000002
40
0.19000000000000003
40
0.20000000000000004
40
0.21000000000000005
40
0.22000000000000006
40
0.23000000000000007
40
0.24000000000000007
40
0.25000000000000006
40
0.26000000000000006
40
0.27000000000000007
40
0.28000000000000008
40
0.29000000000000009
40
0.3000000000000001
40
0.31000000000000011
40
0.32000000000000012
40
0.33000000000000013
40
0.34000000000000014
40
0.35000000000000014
40
0.36000000000000015
40
0.37000000000000016
40
0.38000000000000017
40
0.39000000000000018
40
0.40000000000000019
40
0.4100000000000002
40
0.42000000000000021
40
0.43000000000000022
40
0.44000000000000022
40
0.45000000000000023
40
0.46000000000000024
40
0.47000000000000025
40
0.48000000000000026
40
0.49000000000000027
40
0.50000000000000022
40
0.51000000000000023
40
0.52000000000000024
40
0.53000000000000025
40
0.54000000000000026
40
0.55000000000000027
40
0.56000000000000028
40
0.57000000000000028
40
0.58000000000000029
40
0.5900000000000003
40
0.60000000000000031
40
0.61000000000000032
40
0.62000000000000033
40
0.63000000000000034
40
0.64000000000000035
40
0.65000000000000036
40
0.66000000000000036
40
0.67000000000000037
40
0.68000000000000038
40
0.69000000000000039
40
0.7000000000000004
40
0.71000000000000041
40
0.72000000000000042
40
0.73000000000000043
40
0.74000000000000044
40
0.75000000000000044
40
0.76000000000000045
40
0.77000000000000046
40
0.78000000000000047
40
0.79000000000000048
40
0.80000000000000049
40
0.8100000000000005
40
0.82000000000000051
40
0.83000000000000052
40
0.84000000000000052
40
0.85000000000000053
40
0.86000000000000054
40
0.87000000000000055
40
0.88000000000000056
40
0.89000000000000057
40
0.90000000000000058
40
0.91000000000000059
40
0.9200000000000006
40
0.9300000000000006
40
0.94000000000000061
40
0.95000000000000062
40
0.96000000000000063
40
0.97000000000000064
40
0.98000000000000065
40
0.99000000000000066
40
1
40
1
40
1
40
1
40
1
40
1
41
1
41
1
41
1
41
1
41
1
41
1
41
1
41
1
41
1
41
1
41
1
41
1
41
1
41
1
41
1
41
1
41
1
41
1
41
1
41
1
41
1
41
1
41
1
41
1
41
1
41
1
41
1
41
1
41
1
41
1
41
1
41
1
41
1
41
1
41
1
41
1
41
1
41
1
41
1
41
1
41
1
41
1
41
1
41
1
41
1
41
1
41
1
41
1
41
1
41
1
41
1
41
1
41
1
41
1
41
1
41
1
41
1
41
1
41
1
41
1
41
1
41
1
41
1
41
1
41
1
41
1
41
1
41
1
41
1
41
1
41
1
41
1
41
1
41
1
41
1
41
1
41
1
41
1
41
1
41
1
41
1
41
1
41
1
41
1
41
1
41
1
41
1
41
1
41
1
41
1
41
1
41
1
41
1
41
1
41
1
41
1
41
1
41
1
41
1
41
1
41
1
41
1
41
1
41
1
41
1
10
0
20
3.0549999999999997
30
0
10
0.018253377343919588
20
3.0378587829410679
30
0
10
0.054950990105384526
20
3.0048038510432602
30
0
10
0.11056997784987503
20
2.9589039413485563
30
0
10
0.18587400054508318
20
2.9050703975230263
30
0
10
0.28188671607830906
20
2.8499837656711451
30
0
10
0.379702346012883
20
2.8068775929011966
30
0
10
0.47915830845670937
20
2.7752878175308031
30
0
10
0.57998572715516217
20
2.7544440077307799
30
0
10
0.68177103701342945
20
2.7431531908033135
30
0
10
0.78401798079752072
20
2.7400115407999874
30
0
10
0.88623267575317888
20
2.7436882978466253
30
0
10
0.98800294104872055
20
2.7531976546693322
30
0
10
1.0890752208813674
20
2.7681473034433663
30
0
10
1.1894454888172938
20
2.789072847800349
30
0
10
1.2892886937149781
20
2.8168332702107031
30
0
10
1.3888685429936998
20
2.8519006575814543
30
0
10
1.488452515723746
20
2.8936616605488013
30
0
10
1.5882288881285769
20
2.9397719254679728
30
0
10
1.6882117098659266
20
2.9853313799682146
30
0
10
1.7882909167400225
20
3.0240725720961015
30
0
10
1.8882994594228113
20
3.0497733769293061
30
0
10
1.9880756808713242
20
3.0576259177351361
30
0
10
2.0875245768842539
20
3.0455420101165349
30
0
10
2.1866878272046106
20
3.0157066696284787
30
0
10
2.2857101478567734
20
2.9733879006033881
30
0
10
2.3847926270343702
20
2.9254156432580656
30
0
10
2.4841500738669913
20
2.8787433901049497
30
0
10
2.5839682093878142
20
2.8390577560118579
30
0
10
2.6843569192695478
20
2.8091503666331281
30
0
10
2.7853439554674568
20
2.7894572385556637
30
0
10
2.8868763922479523
20
2.7789735609998614
30
0
10
2.9888184043145838
20
2.7760516198301595
30
0
10
3.0909525899321251
20
2.7792118168194162
30
0
10
3.1929742521145683
20
2.7880423270287622
30
0
10
3.2945603091561053
20
2.8028100213318883
30
0
10
3.395445867863506
20
2.8239232615444898
30
0
10
3.4954993313791753
20
2.8514425424672476
30
0
10
3.5947953855447867
20
2.8845832595910008
30
0
10
3.6936966448756077
20
2.92118755143794
30
0
10
3.7927141872039276
20
2.9581892997826778
30
0
10
3.8923594767311953
20
2.9921230469651889
30
0
10
3.9929968485048315
20
3.0196207765155392
30
0
10
4.0947016748274603
20
3.037903790982881
30
0
10
4.1970997187814181
20
3.0453040465373005
30
0
10
4.299556212701507
20
3.0412055279442289
30
0
10
4.4013882540296452
20
3.0259477906497079
30
0
10
4.5020677490660175
20
3.0007436190609398
30
0
10
4.601430543170876
20
2.9675920588226896
30
0
10
4.6998771678089764
20
2.9291920868216454
30
0
10
4.7981254064996124
20
2.8887121834278267
30
0
10
4.8969704062350115
20
2.8495628009381484
30
0
10
4.9970405823952184
20
2.8151679622313202
30
0
10
5.0985587142451116
20
2.7887372168110689
30
0
10
5.2010909985129672
20
2.7730376085270647
30
0
10
5.303818017883005
20
2.7701277033946301
30
0
10
5.4058201189957176
20
2.7810871955078058
30
0
10
5.506353206465155
20
2.8057535668521312
30
0
10
5.6051382920501123
20
2.8424409623462066
30
0
10
5.702618109222529
20
2.8877052012499727
30
0
10
5.799649123547149
20
2.9369222428644512
30
0
10
5.8972228614138995
20
2.9848251155761356
30
0
10
5.996174152368793
20
3.0260567199639676
30
0
10
6.0968999076985195
20
3.0557139981155048
30
0
10
6.199059332712725
20
3.0699005622157021
30
0
10
6.3018435751888155
20
3.0661276859606583
30
0
10
6.4042644837760605
20
3.0437176294081576
30
0
10
6.5054331749574787
20
3.0041957962015866
30
0
10
6.6048499249742711
20
2.9517154989436594
30
0
10
6.7026696334985782
20
2.8933957746431553
30
0
10
6.799471661403075
20
2.8377631321958807
30
0
10
6.8960519598069281
20
2.7932842964397082
30
0
10
6.9932044271108387
20
2.7668451049084721
30
0
10
7.0915128325528567
20
2.7622971588986394
30
0
10
7.1911220212581028
20
2.7788499970407421
30
0
10
7.2918542567406028
20
2.8121215610073333
30
0
10
7.3933470011917155
20
2.8553577275266373
30
0
10
7.4951839531475963
20
2.9005914327052751
30
0
10
7.5970262168911153
20
2.9398202500246113
30
0
10
7.6987506537133665
20
2.966191752458939
30
0
10
7.8003734113775316
20
2.974751461234622
30
0
10
7.9019630842364776
20
2.9631775274231389
30
0
10
8.0035585661776274
20
2.9325068834198182
30
0
10
8.1050829795434023
20
2.8879020883751263
30
0
10
8.2062646265886201
20
2.8393062711336583
30
0
10
8.30674937677726
20
2.7986709037913386
30
0
10
8.4062079910676673
20
2.7772728411915071
30
0
10
8.5044440923178914
20
2.7830280398768896
30
0
10
8.6015048073639004
20
2.81773520602228
30
0
10
8.6977822833506551
20
2.8745427823718526
30
0
10
8.7938688006411052
20
2.941377994852203
30
0
10
8.8904225408419553
20
3.0041200139429081
30
0
10
8.9880264120952713
20
3.0499366019638838
30
0
10
9.0870567105245019
20
3.0703922515054853
30
0
10
9.1875290427335816
20
3.065080897709016
30
0
10
9.2891812123561657
20
3.0397961855219311
30
0
10
9.39158469824687
20
3.0040423586679892
30
0
10
9.4942467247268638
20
2.9687626798941107
30
0
10
9.5967142488281851
20
2.9440217812067306
30
0
10
9.6986824917683716
20
2.9365882459790562
30
0
10
9.7999699678455929
20
2.9504899955707304
30
0
10
9.8803826860578834
20
2.9802902178590744
30
0
10
9.9403315782308042
20
3.0134441721488221
30
0
10
9.9801372372856854
20
3.0403478847109526
30
0
10
10
20
3.0549999999999997
30
0
0
ENDSEC
0
SECTION
2
OBJECTS
0
DICTIONARY
5
C
100
AcDbDictionary
3
ACAD_GROUP
350
D
3
ACAD_MLINESTYLE
350
17
0
DICTIONARY
5
D
100
AcDbDictionary
0
DICTIONARY
5
1A
330
C
100
AcDbDictionary
0
DICTIONARY
5
17
100
AcDbDictionary
0
ENDSEC
0
EOF
