0
SECTION
2
HEADER
9
$INSUNITS
70
4
9
$ACADVER
1
AC1014
9
$HANDSEED
5
FFFF
0
ENDSEC
0
SECTION
2
TABLES
0
TABLE
2
VPORT
5
8
100
AcDbSymbolTable
0
ENDTAB
0
TABLE
2
LTYPE
5
5
100
AcDbSymbolTable
0
LTYPE
5
14
100
AcDbSymbolTableRecord
100
AcDbLinetypeTableRecord
2
BYBLOCK
70
0
0
LTYPE
5
15
100
AcDbSymbolTableRecord
100
AcDbLinetypeTableRecord
2
BYLAYER
70
0
0
ENDTAB
0
TABLE
2
LAYER
5
2
100
AcDbSymbolTable
70
2
0
LAYER
5
50
100
AcDbSymbolTableRecord
100
AcDbLayerTableRecord
2
0
70
0
6
CONTINUOUS
0
ENDTAB
0
TABLE
2
STYLE
5
3
100
AcDbSymbolTable
70
1
0
STYLE
5
11
100
AcDbSymbolTableRecord
100
AcDbTextStyleTableRecord
2
STANDARD
70
0
0
ENDTAB
0
TABLE
2
VIEW
5
6
100
AcDbSymbolTable
70
0
0
ENDTAB
0
TABLE
2
UCS
5
7
100
AcDbSymbolTable
70
0
0
ENDTAB
0
TABLE
2
APPID
5
9
100
AcDbSymbolTable
70
2
0
APPID
5
12
100
AcDbSymbolTableRecord
100
AcDbRegAppTableRecord
2
ACAD
70
0
0
ENDTAB
0
TABLE
2
DIMSTYLE
5
A
100
AcDbSymbolTable
70
1
0
ENDTAB
0
TABLE
2
BLOCK_RECORD
5
1
100
AcDbSymbolTable
70
1
0
BLOCK_RECORD
5
1F
100
AcDbSymbolTableRecord
100
AcDbBlockTableRecord
2
*MODEL_SPACE
0
BLOCK_RECORD
5
1B
100
AcDbSymbolTableRecord
100
AcDbBlockTableRecord
2
*PAPER_SPACE
0
ENDTAB
0
ENDSEC
0
SECTION
2
BLOCKS
0
BLOCK
5
20
100
AcDbEntity
100
AcDbBlockBegin
2
*MODEL_SPACE
0
ENDBLK
5
21
100
AcDbEntity
100
AcDbBlockEnd
0
BLOCK
5
1C
100
AcDbEntity
100
AcDbBlockBegin
2
*PAPER_SPACE
0
ENDBLK
5
1D
100
AcDbEntity
100
AcDbBlockEnd
0
ENDSEC
0
SECTION
2
ENTITIES
0
SPLINE
5
100
100
AcDbEntity
8
0
100
AcDbSpline
70
4
71
5
72
16
73
10
74
0
42
0.000000001
43
0.0000000001
44
0.0000000001
40
0
40
0
40
0
40
0
40
0
40
0
40
0.20000000000000001
40
0.40000000000000002
40
0.60000000000000009
40
0.80000000000000004
40
1
40
1
40
1
40
1
40
1
40
1
41
1
41
1
41
1
41
1
41
1
41
1
41
1
41
1
41
1
41
1
10
0
20
-0.055000000000000049
30
0
10
0
20
0.069400000000207365
30
0
10
0
20
0.31820000000056603
30
0
10
0
20
0.69140000000093593
30
0
10
0
20
1.1890000000011365
30
0
10
0
20
1.8110000000010393
30
0
10
0
20
2.3086000000007481
30
0
10
0
20
2.6818000000004227
30
0
10
0
20
2.9306000000001484
30
0
10
0
20
3.0549999999999997
30
0
0
SPLINE
5
101
100
AcDbEntity
8
0
100
AcDbSpline
70
4
71
5
72
16
73
10
74
0
42
0.000000001
43
0.0000000001
44
0.0000000001
40
0
40
0
40
0
40
0
40
0
40
0
40
0.20000000000000001
40
0.40000000000000002
40
0.60000000000000009
40
0.80000000000000004
40
1
40
1
40
1
40
1
40
1
40
1
41
1
41
1
41
1
41
1
41
1
41
1
41
1
41
1
41
1
41
1
10
10
20
-0.055000000000000049
30
0
10
9.9999999999997495
20
0.069400000000207365
30
0
10
9.9999999999993197
20
0.31820000000056603
30
0
10
9.9999999999989129
20
0.69140000000093593
30
0
10
9.9999999999987672
20
1.1890000000011365
30
0
10
9.9999999999990248
20
1.8110000000010393
30
0
10
9.9999999999993889
20
2.3086000000007481
30
0
10
9.9999999999996998
20
2.6818000000004227
30
0
10
9.9999999999999005
20
2.9306000000001484
30
0
10
10
20
3.0549999999999997
30
0
0
SPLINE
5
102
100
AcDbEntity
8
0
100
AcDbSpline
70
4
71
5
72
16
73
10
74
0
42
0.000000001
43
0.0000000001
44
0.0000000001
40
0
40
0
40
0
40
0
40
0
40
0
40
0.20000000000000001
40
0.40000000000000002
40
0.60000000000000009
40
0.80000000000000004
40
1
40
1
40
1
40
1
40
1
40
1
41
1
41
1
41
1
41
1
41
1
41
1
41
1
41
1
41
1
41
1
10
0
20
1.5274999999999999
30
0
10
0.40000000000047375
20
1.5274999999999856
30
0
10
1.2000000000012774
20
1.5274999999999614
30
0
10
2.4000000000020547
20
1.527499999999943
30
0
10
4.0000000000023546
20
1.5274999999999479
30
0
10
6.0000000000019584
20
1.5274999999999812
30
0
10
7.6000000000012928
20
1.5275000000000025
30
0
10
8.800000000000697
20
1.5275000000000083
30
0
10
9.6000000000002395
20
1.5275000000000039
30
0
10
10
20
1.5274999999999999
30
0
0
SPLINE
5
103
100
AcDbEntity
8
0
100
AcDbSpline
70
4
71
5
72
111
73
105
74
0
42
0.000000001
43
0.0000000001
44
0.0000000001
40
0
40
0
40
0
40
0
40
0
40
0
40
0.01
40
0.02
40
0.029999999999999999
40
0.040000000000000001
40
0.050000000000000003
40
0.060000000000000005
40
0.070000000000000007
40
0.080000000000000002
40
0.089999999999999997
40
0.099999999999999992
40
0.10999999999999999
40
0.11999999999999998
40
0.12999999999999998
40
0.13999999999999999
40
0.14999999999999999
40
0.16
40
0.17000000000000001
40
0.18000000000000002
40
0.19000000000000003
40
0.20000000000000004
40
0.21000000000000005
40
0.22000000000000006
40
0.23000000000000007
40
0.24000000000000007
40
0.25000000000000006
40
0.26000000000000006
40
0.27000000000000007
40
0.28000000000000008
40
0.29000000000000009
40
0.3000000000000001
40
0.31000000000000011
40
0.32000000000000012
40
0.33000000000000013
40
0.34000000000000014
40
0.35000000000000014
40
0.36000000000000015
40
0.37000000000000016
40
0.38000000000000017
40
0.39000000000000018
40
0.40000000000000019
40
0.4100000000000002
40
0.42000000000000021
40
0.43000000000000022
40
0.44000000000000022
40
0.45000000000000023
40
0.46000000000000024
40
0.47000000000000025
40
0.48000000000000026
40
0.49000000000000027
40
0.50000000000000022
40
0.51000000000000023
40
0.52000000000000024
40
0.53000000000000025
40
0.54000000000000026
40
0.55000000000000027
40
0.56000000000000028
40
0.57000000000000028
40
0.58000000000000029
40
0.5900000000000003
40
0.60000000000000031
40
0.61000000000000032
40
0.62000000000000033
40
0.63000000000000034
40
0.64000000000000035
40
0.65000000000000036
40
0.66000000000000036
40
0.67000000000000037
40
0.68000000000000038
40
0.69000000000000039
40
0.7000000000000004
40
0.71000000000000041
40
0.72000000000000042
40
0.73000000000000043
40
0.74000000000000044
40
0.75000000000000044
40
0.76000000000000045
40
0.77000000000000046
40
0.78000000000000047
40
0.79000000000000048
40
0.80000000000000049
40
0.8100000000000005
40
0.82000000000000051
40
0.83000000000000052
40
0.84000000000000052
40
0.85000000000000053
40
0.86000000000000054
40
0.87000000000000055
40
0.88000000000000056
40
0.89000000000000057
40
0.90000000000000058
40
0.91000000000000059
40
0.9200000000000006
40
0.9300000000000006
40
0.94000000000000061
40
0.95000000000000062
40
0.96000000000000063
40
0.97000000000000064
40
0.98000000000000065
40
0.99000000000000066
40
1
40
1
40
1
40
1
40
1
40
1
41
1
41
1
41
1
41
1
41
1
41
1
41
1
41
1
41
1
41
1
41
1
41
1
41
1
41
1
41
1
41
1
41
1
41
1
41
1
41
1
41
1
41
1
41
1
41
1
41
1
41
1
41
1
41
1
41
1
41
1
41
1
41
1
41
1
41
1
41
1
41
1
41
1
41
1
41
1
41
1
41
1
41
1
41
1
41
1
41
1
41
1
41
1
41
1
41
1
41
1
41
1
41
1
41
1
41
1
41
1
41
1
41
1
41
1
41
1
41
1
41
1
41
1
41
1
41
1
41
1
41
1
41
1
41
1
41
1
41
1
41
1
41
1
41
1
41
1
41
1
41
1
41
1
41
1
41
1
41
1
41
1
41
1
41
1
41
1
41
1
41
1
41
1
41
1
41
1
41
1
41
1
41
1
41
1
41
1
41
1
41
1
41
1
41
1
41
1
41
1
41
1
41
1
41
1
41
1
41
1
10
0
20
-0.055000000000000049
30
0
10
0.020215391827688153
20
-0.040156794711947726
30
0
10
0.060626602244140515
20
-0.012494094731766957
30
0
10
0.12118469779391164
20
0.022928808045098281
30
0
10
0.20181136902050051
20
0.058015207174939652
30
0
10
0.30240632274965573
20
0.081991111440204018
30
0
10
0.40283526904194056
20
0.087181786422043175
30
0
10
0.50314301668944661
20
0.075791995592326675
30
0
10
0.6034046209154198
20
0.05152033443997845
30
0
10
0.70373220606434361
20
0.019902451497762895
30
0
10
0.80424918738645979
20
-0.012767597425733081
30
0
10
0.90506511813879875
20
-0.040486123497740605
30
0
10
1.0062508181850236
20
-0.05858190004339018
30
0
10
1.1078121577379363
20
-0.064803107606892563
30
0
10
1.2096677550078354
20
-0.060270062868343049
30
0
10
1.3116889559625697
20
-0.048228047149372441
30
0
10
1.413737484562819
20
-0.032898748585601226
30
0
10
1.5157020338326122
20
-0.018331383479613775
30
0
10
1.6175398004739636
20
-0.0071700662478198394
30
0
10
1.7193027845032718
20
0.00029530807799132535
30
0
10
1.8210766784202568
20
0.0053625303915240657
30
0
10
1.9229273375133638
20
0.010343435461472412
30
0
10
2.024849672299267
20
0.017933406042669634
30
0
10
2.1267028698877382
20
0.030565640820418054
30
0
10
2.2281904415940876
20
0.049896807009179131
30
0
10
2.3289838538271481
20
0.076786234538136891
30
0
10
2.4288271845711225
20
0.1111801211303292
30
0
10
2.5276384564777468
20
0.15205398103675322
30
0
10
2.6256381274066305
20
0.19727889421487493
30
0
10
2.7233845127760636
20
0.2436810922360769
30
0
10
2.8215571464407181
20
0.28759699796652388
30
0
10
2.9207810677580417
20
0.32534743267677035
30
0
10
3.0214473698146898
20
0.3537217563276861
30
0
10
3.1235057832850917
20
0.37050974717739688
30
0
10
3.2263587886262228
20
0.37485533807202021
30
0
10
3.3291513346619093
20
0.36690373474506865
30
0
10
3.4310093457699731
20
0.34754842551108744
30
0
10
3.5312782385471229
20
0.31815864524989723
30
0
10
3.6298089993058609
20
0.28027048445747738
30
0
10
3.7270693123490393
20
0.23544041861705017
30
0
10
3.8238421093091963
20
0.18548477156349502
30
0
10
3.9210012553340796
20
0.13265434346200597
30
0
10
4.0192687900473247
20
0.079808257676239225
30
0
10
4.1189512767764462
20
0.030651970834875773
30
0
10
4.2197718083757385
20
-0.010243202084371484
30
0
10
4.3211347362044625
20
-0.038356008489184613
30
0
10
4.4223334032984134
20
-0.05002104553113533
30
0
10
4.5227680792490004
20
-0.043227847562160873
30
0
10
4.6221877235783797
20
-0.018541952445421166
30
0
10
4.7208350601798426
20
0.020389131398737541
30
0
10
4.8192249661005944
20
0.067883409151521579
30
0
10
4.9179779452027876
20
0.1170249891425748
30
0
10
5.0176392039774047
20
0.16055963920018981
30
0
10
5.1184871186671295
20
0.19175161161392407
30
0
10
5.2203962376428379
20
0.2052475545692124
30
0
10
5.3229868106034752
20
0.19778430195919572
30
0
10
5.4257383826819838
20
0.16898817419095852
30
0
10
5.5281122096357329
20
0.12200142305081833
30
0
10
5.6296818110183855
20
0.064512972303572114
30
0
10
5.7302220090380382
20
0.0085803724244502694
30
0
10
5.8296726228210662
20
-0.032783563294127953
30
0
10
5.9281264551174626
20
-0.048555490380187173
30
0
10
6.0258056023877673
20
-0.032575479610545424
30
0
10
6.1230479556289952
20
0.012937375136787692
30
0
10
6.2202733745656253
20
0.076060335575545507
30
0
10
6.3178981637272535
20
0.14033428439031792
30
0
10
6.4162562617234435
20
0.18885645653495878
30
0
10
6.5155225326261359
20
0.20861751523214012
30
0
10
6.6156238324601429
20
0.19515684461380828
30
0
10
6.7161883595335192
20
0.1558404825385436
30
0
10
6.8167130941818579
20
0.10483236042956671
30
0
10
6.9167087232751454
20
0.058996206689622591
30
0
10
7.0158460152396298
20
0.033583995838916331
30
0
10
7.114118601188828
20
0.03767722623883616
30
0
10
7.211948733157568
20
0.070732814466978461
30
0
10
7.309959663793915
20
0.12585106156964215
30
0
10
7.4087854500398187
20
0.19224972646386818
30
0
10
7.5088716027375737
20
0.25800453459581213
30
0
10
7.6102672317486411
20
0.31276317709865109
30
0
10
7.7124557868676114
20
0.35021770857504769
30
0
10
7.8146253688161158
20
0.36731482410057215
30
0
10
7.9159107835740317
20
0.36371483176392444
30
0
10
8.015636594627777
20
0.3411632667404183
30
0
10
8.113582462022924
20
0.30288768687829076
30
0
10
8.2101722088610387
20
0.25302501340381345
30
0
10
8.3061959965032006
20
0.19633661062177787
30
0
10
8.4025869950817249
20
0.13788812673706097
30
0
10
8.5001774695125523
20
0.082743126456359561
30
0
10
8.5994628269894591
20
0.03565146331946728
30
0
10
8.7003641829050498
20
0.0007384154502207284
30
0
10
8.8024140408306
20
-0.018898750952349781
30
0
10
8.9049399728870053
20
-0.021599776879316152
30
0
10
9.0072465728587989
20
-0.0075375035486441172
30
0
10
9.1088034941649614
20
0.020852116501857712
30
0
10
9.2094155920503447
20
0.058530243103184741
30
0
10
9.3091273163147363
20
0.098839148454724843
30
0
10
9.4081421082955128
20
0.1344148894043542
30
0
10
9.5067371077886555
20
0.15811502143935618
30
0
10
9.6051779192503357
20
0.16396606767365979
30
0
10
9.7036390526202769
20
0.14802876149429695
30
0
10
9.8022259016216289
20
0.10794021584191052
30
0
10
9.8812377970565848
20
0.055614158070828229
30
0
10
9.9405846959863791
20
0.0048040131474480115
30
0
10
9.9801883836859311
20
-0.034208767437826991
30
0
10
10
20
-0.055000000000000049
30
0
0
SPLINE
5
104
100
AcDbEntity
8
0
100
AcDbSpline
70
4
71
5
72
111
73
105
74
0
42
0.000000001
43
0.0000000001
44
0.0000000001
40
0
40
0
40
0
40
0
40
0
40
0
40
0.01
40
0.02
40
0.029999999999999999
40
0.040000000000000001
40
0.050000000000000003
40
0.060000000000000005
40
0.070000000000000007
40
0.080000000000000002
40
0.089999999999999997
40
0.099999999999999992
40
0.10999999999999999
40
0.11999999999999998
40
0.12999999999999998
40
0.13999999999999999
40
0.14999999999999999
40
0.16
40
0.17000000000000001
40
0.18000000000000002
40
0.19000000000000003
40
0.20000000000000004
40
0.21000000000000005
40
0.22000000000000006
40
0.23000000000000007
40
0.24000000000000007
40
0.25000000000000006
40
0.26000000000000006
40
0.27000000000000007
40
0.28000000000000008
40
0.29000000000000009
40
0.3000000000000001
40
0.31000000000000011
40
0.32000000000000012
40
0.33000000000000013
40
0.34000000000000014
40
0.35000000000000014
40
0.36000000000000015
40
0.37000000000000016
40
0.38000000000000017
40
0.39000000000000018
40
0.40000000000000019
40
0.4100000000000002
40
0.42000000000000021
40
0.43000000000000022
40
0.44000000000000022
40
0.45000000000000023
40
0.46000000000000024
40
0.47000000000000025
40
0.48000000000000026
40
0.49000000000000027
40
0.50000000000000022
40
0.51000000000000023
40
0.52000000000000024
40
0.53000000000000025
40
0.54000000000000026
40
0.55000000000000027
40
0.56000000000000028
40
0.57000000000000028
40
0.58000000000000029
40
0.5900000000000003
40
0.60000000000000031
40
0.61000000000000032
40
0.62000000000000033
40
0.63000000000000034
40
0.64000000000000035
40
0.65000000000000036
40
0.66000000000000036
40
0.67000000000000037
40
0.68000000000000038
40
0.69000000000000039
40
0.7000000000000004
40
0.71000000000000041
40
0.72000000000000042
40
0.73000000000000043
40
0.74000000000000044
40
0.75000000000000044
40
0.76000000000000045
40
0.77000000000000046
40
0.78000000000000047
40
0.79000000000000048
40
0.80000000000000049
40
0.8100000000000005
40
0.82000000000000051
40
0.83000000000000052
40
0.84000000000000052
40
0.85000000000000053
40
0.86000000000000054
40
0.87000000000000055
40
0.88000000000000056
40
0.89000000000000057
40
0.90000000000000058
40
0.91000000000000059
40
0.9200000000000006
40
0.9300000000000006
40
0.94000000000000061
40
0.95000000000000062
40
0.96000000000000063
40
0.97000000000000064
40
0.98000000000000065
40
0.99000000000000066
40
1
40
1
40
1
40
1
40
1
40
1
41
1
41
1
41
1
41
1
41
1
41
1
41
1
41
1
41
1
41
1
41
1
41
1
41
1
41
1
41
1
41
1
41
1
41
1
41
1
41
1
41
1
41
1
41
1
41
1
41
1
41
1
41
1
41
1
41
1
41
1
41
1
41
1
41
1
41
1
41
1
41
1
41
1
41
1
41
1
41
1
41
1
41
1
41
1
41
1
41
1
41
1
41
1
41
1
41
1
41
1
41
1
41
1
41
1
41
1
41
1
41
1
41
1
41
1
41
1
41
1
41
1
41
1
41
1
41
1
41
1
41
1
41
1
41
1
41
1
41
1
41
1
41
1
41
1
41
1
41
1
41
1
41
1
41
1
41
1
41
1
41
1
41
1
41
1
41
1
41
1
41
1
41
1
41
1
41
1
41
1
41
1
41
1
41
1
41
1
41
1
41
1
41
1
41
1
41
1
41
1
41
1
41
1
41
1
41
1
41
1
10
0
20
3.0549999999999997
30
0
10
0.02104374057465485
20
3.0684266844453605
30
0
10
0.062990632883987818
20
3.091809768775363
30
0
10
0.12548920300209171
20
3.1164734022186131
30
0
10
0.20797697163005333
20
3.1285340781097788
30
0
10
0.30969691550991069
20
3.1099175530370533
30
0
10
0.41007776096346671
20
3.0607093467836215
30
0
10
0.50922138384386273
20
2.9870982357324434
30
0
10
0.6072996907112268
20
2.8995116868808815
30
0
10
0.70456814556382596
20
2.8133614292741753
30
0
10
0.8013204814824948
20
2.7452791267956203
30
0
10
0.8978480733371772
20
2.7097156926749837
30
0
10
0.99439690401704262
20
2.7153378299449962
30
0
10
1.0911270087599176
20
2.7616541043885108
30
0
10
1.1880668283775924
20
2.8351420563801444
30
0
10
1.2851614936137212
20
2.9146928979197932
30
0
10
1.3823249347892919
20
2.9774360836491871
30
0
10
1.4794930680464615
20
3.0046737472862857
30
0
10
1.5766708459011114
20
2.9872006830789033
30
0
10
1.6739966999561073
20
2.9323698464115693
30
0
10
1.7716909608094236
20
2.8594822085705824
30
0
10
1.8699774402558413
20
2.7924171634867467
30
0
10
1.9690097100437465
20
2.7528662113197866
30
0
10
2.0688053892507932
20
2.7540781624679731
30
0
10
2.1691515407358546
20
2.7924423712428164
30
0
10
2.2696614707221947
20
2.850630090752817
30
0
10
2.3698944835921987
20
2.9055882186476496
30
0
10
2.4694603882960502
20
2.9353007146247689
30
0
10
2.5681191516707509
20
2.9253216301016409
30
0
10
2.6659111084548841
20
2.8772846729795014
30
0
10
2.7631185331492065
20
2.8063150009660203
30
0
10
2.8601547280862727
20
2.733708751485926
30
0
10
2.9574730151681243
20
2.6808188668588557
30
0
10
3.0554752617506646
20
2.6631534635913456
30
0
10
3.1544013098095998
20
2.6826120523995431
30
0
10
3.2543102198064116
20
2.7281529639742002
30
0
10
3.35513241401264
20
2.7827563638933084
30
0
10
3.4567016434506792
20
2.8288490214855457
30
0
10
3.5587938241078101
20
2.8536948861882099
30
0
10
3.6611662738130839
20
2.8564522423812355
30
0
10
3.763581640449198
20
2.8472908786077262
30
0
10
3.8658183381044342
20
2.8407856343461653
30
0
10
3.9676859640990569
20
2.8507118152449507
30
0
10
4.0690366353655243
20
2.8848978389732416
30
0
10
4.1697832410072371
20
2.9384500123775932
30
0
10
4.2698874779038523
20
2.9962394258989389
30
0
10
4.3693356519514834
20
3.0395218307704992
30
0
10
4.4681164074920829
20
3.0515267230765941
30
0
10
4.5662020622884105
20
3.0228184672990066
30
0
10
4.6635173105412999
20
2.9584173691635032
30
0
10
4.7599712235998286
20
2.8754149620402032
30
0
10
4.8555163872017353
20
2.7962175097042721
30
0
10
4.9502039981254278
20
2.742915982957066
30
0
10
5.0442305817342694
20
2.731785272043914
30
0
10
5.1380131202250281
20
2.7662660762774101
30
0
10
5.2321583516175298
20
2.8361388832907473
30
0
10
5.327313841796518
20
2.9238166763595066
30
0
10
5.4240457949848562
20
3.0088802756224675
30
0
10
5.522715151297632
20
3.0730748096572036
30
0
10
5.6233324251367458
20
3.1057079393820097
30
0
10
5.7254889971627776
20
3.1070260836319403
30
0
10
5.8285557211125969
20
3.0841178456911273
30
0
10
5.9318442579934736
20
3.0479631480833187
30
0
10
6.0347695097581582
20
3.0102140941237447
30
0
10
6.1370437151686561
20
2.9796642711047729
30
0
10
6.238750287638327
20
2.9602781280209225
30
0
10
6.3401706628774237
20
2.9526092071180932
30
0
10
6.4416577091642813
20
2.9544939664510088
30
0
10
6.5435035490964832
20
2.9620278548726331
30
0
10
6.6457784642464492
20
2.9704336227807393
30
0
10
6.7482953376890729
20
2.9749176428463691
30
0
10
6.8507474939148167
20
2.9713702226081935
30
0
10
6.9528086935423961
20
2.9571676324356861
30
0
10
7.0542368599212759
20
2.9318068823381132
30
0
10
7.1550046527495681
20
2.8979240583026988
30
0
10
7.2553017146314192
20
2.8608739725242156
30
0
10
7.3554242020283009
20
2.8271093953106909
30
0
10
7.455692187166961
20
2.8028340647725036
30
0
10
7.5563646647031053
20
2.792684826550401
30
0
10
7.6575333004758859
20
2.7980514563393521
30
0
10
7.7591205421141805
20
2.8170472569588667
30
0
10
7.860959742276683
20
2.8457727707096798
30
0
10
7.9628541354029885
20
2.8792294239417831
30
0
10
8.0646384398400723
20
2.9123183907331534
30
0
10
8.1662544697955859
20
2.9409476602720455
30
0
10
8.2677470462410731
20
2.9623805162907093
30
0
10
8.3692144370938273
20
2.9751223983192716
30
0
10
8.4707714128072134
20
2.9789667708111169
30
0
10
8.5725104749556884
20
2.9749436108486655
30
0
10
8.6744552542307769
20
2.9653925769167202
30
0
10
8.7765674992825424
20
2.953508179854389
30
0
10
8.8787752508312128
20
2.9427019012360995
30
0
10
8.9809946588777549
20
2.9360038996450855
30
0
10
9.0831530684576851
20
2.9354923499826335
30
0
10
9.185215136443194
20
2.9415951526985711
30
0
10
9.287177974462967
20
2.9534020807647341
30
0
10
9.3890593755599578
20
2.969192956048583
30
0
10
9.4908883382994862
20
2.9868966416145621
30
0
10
9.5926949063175186
20
3.0045651353551333
30
0
10
9.6944995784711079
20
3.0208776096239491
30
0
10
9.7963144917101648
20
3.035050222022428
30
0
10
9.877779509554605
20
3.0443615007149187
30
0
10
9.9388865395241517
20
3.0501467090918384
30
0
10
9.9796282341175839
20
3.0534709885283395
30
0
10
10
20
3.0549999999999997
30
0
0
ENDSEC
0
SECTION
2
OBJECTS
0
DICTIONARY
5
C
100
AcDbDictionary
3
ACAD_GROUP
350
D
3
ACAD_MLINESTYLE
350
17
0
DICTIONARY
5
D
100
AcDbDictionary
0
DICTIONARY
5
1A
330
C
100
AcDbDictionary
0
DICTIONARY
5
17
100
AcDbDictionary
0
ENDSEC
0
EOF
