0
SECTION
2
HEADER
9
$INSUNITS
70
4
9
$ACADVER
1
AC1014
9
$HANDSEED
5
FFFF
0
ENDSEC
0
SECTION
2
TABLES
0
TABLE
2
VPORT
5
8
100
AcDbSymbolTable
0
ENDTAB
0
TABLE
2
LTYPE
5
5
100
AcDbSymbolTable
0
LTYPE
5
14
100
AcDbSymbolTableRecord
100
AcDbLinetypeTableRecord
2
BYBLOCK
70
0
0
LTYPE
5
15
100
AcDbSymbolTableRecord
100
AcDbLinetypeTableRecord
2
BYLAYER
70
0
0
ENDTAB
0
TABLE
2
LAYER
5
2
100
AcDbSymbolTable
70
2
0
LAYER
5
50
100
AcDbSymbolTableRecord
100
AcDbLayerTableRecord
2
0
70
0
6
CONTINUOUS
0
ENDTAB
0
TABLE
2
STYLE
5
3
100
AcDbSymbolTable
70
1
0
STYLE
5
11
100
AcDbSymbolTableRecord
100
AcDbTextStyleTableRecord
2
STANDARD
70
0
0
ENDTAB
0
TABLE
2
VIEW
5
6
100
AcDbSymbolTable
70
0
0
ENDTAB
0
TABLE
2
UCS
5
7
100
AcDbSymbolTable
70
0
0
ENDTAB
0
TABLE
2
APPID
5
9
100
AcDbSymbolTable
70
2
0
APPID
5
12
100
AcDbSymbolTableRecord
100
AcDbRegAppTableRecord
2
ACAD
70
0
0
ENDTAB
0
TABLE
2
DIMSTYLE
5
A
100
AcDbSymbolTable
70
1
0
ENDTAB
0
TABLE
2
BLOCK_RECORD
5
1
100
AcDbSymbolTable
70
1
0
BLOCK_RECORD
5
1F
100
AcDbSymbolTableRecord
100
AcDbBlockTableRecord
2
*MODEL_SPACE
0
BLOCK_RECORD
5
1B
100
AcDbSymbolTableRecord
100
AcDbBlockTableRecord
2
*PAPER_SPACE
0
ENDTAB
0
ENDSEC
0
SECTION
2
BLOCKS
0
BLOCK
5
20
100
AcDbEntity
100
AcDbBlockBegin
2
*MODEL_SPACE
0
ENDBLK
5
21
100
AcDbEntity
100
AcDbBlockEnd
0
BLOCK
5
1C
100
AcDbEntity
100
AcDbBlockBegin
2
*PAPER_SPACE
0
ENDBLK
5
1D
100
AcDbEntity
100
AcDbBlockEnd
0
ENDSEC
0
SECTION
2
ENTITIES
0
SPLINE
5
100
100
AcDbEntity
8
0
100
AcDbSpline
70
4
71
5
72
16
73
10
74
0
42
0.000000001
43
0.0000000001
44
0.0000000001
40
0
40
0
40
0
40
0
40
0
40
0
40
0.20000000000000001
40
0.40000000000000002
40
0.60000000000000009
40
0.80000000000000004
40
1
40
1
40
1
40
1
40
1
40
1
41
1
41
1
41
1
41
1
41
1
41
1
41
1
41
1
41
1
41
1
10
0
20
-0.055000000000000049
30
0
10
0
20
0.069400000000207365
30
0
10
0
20
0.31820000000056603
30
0
10
0
20
0.69140000000093593
30
0
10
0
20
1.1890000000011365
30
0
10
0
20
1.8110000000010393
30
0
10
0
20
2.3086000000007481
30
0
10
0
20
2.6818000000004227
30
0
10
0
20
2.9306000000001484
30
0
10
0
20
3.0549999999999997
30
0
0
SPLINE
5
101
100
AcDbEntity
8
0
100
AcDbSpline
70
4
71
5
72
16
73
10
74
0
42
0.000000001
43
0.0000000001
44
0.0000000001
40
0
40
0
40
0
40
0
40
0
40
0
40
0.20000000000000001
40
0.40000000000000002
40
0.60000000000000009
40
0.80000000000000004
40
1
40
1
40
1
40
1
40
1
40
1
41
1
41
1
41
1
41
1
41
1
41
1
41
1
41
1
41
1
41
1
10
10
20
-0.055000000000000049
30
0
10
9.9999999999997495
20
0.069400000000207365
30
0
10
9.9999999999993197
20
0.31820000000056603
30
0
10
9.9999999999989129
20
0.69140000000093593
30
0
10
9.9999999999987672
20
1.1890000000011365
30
0
10
9.9999999999990248
20
1.8110000000010393
30
0
10
9.9999999999993889
20
2.3086000000007481
30
0
10
9.9999999999996998
20
2.6818000000004227
30
0
10
9.9999999999999005
20
2.9306000000001484
30
0
10
10
20
3.0549999999999997
30
0
0
SPLINE
5
102
100
AcDbEntity
8
0
100
AcDbSpline
70
4
71
5
72
16
73
10
74
0
42
0.000000001
43
0.0000000001
44
0.0000000001
40
0
40
0
40
0
40
0
40
0
40
0
40
0.20000000000000001
40
0.40000000000000002
40
0.60000000000000009
40
0.80000000000000004
40
1
40
1
40
1
40
1
40
1
40
1
41
1
41
1
41
1
41
1
41
1
41
1
41
1
41
1
41
1
41
1
10
0
20
1.5274999999999999
30
0
10
0.40000000000047375
20
1.5274999999999856
30
0
10
1.2000000000012774
20
1.5274999999999614
30
0
10
2.4000000000020547
20
1.527499999999943
30
0
10
4.0000000000023546
20
1.5274999999999479
30
0
10
6.0000000000019584
20
1.5274999999999812
30
0
10
7.6000000000012928
20
1.5275000000000025
30
0
10
8.800000000000697
20
1.5275000000000083
30
0
10
9.6000000000002395
20
1.5275000000000039
30
0
10
10
20
1.5274999999999999
30
0
0
SPLINE
5
103
100
AcDbEntity
8
0
100
AcDbSpline
70
4
71
5
72
111
73
105
74
0
42
0.000000001
43
0.0000000001
44
0.0000000001
40
0
40
0
40
0
40
0
40
0
40
0
40
0.01
40
0.02
40
0.029999999999999999
40
0.040000000000000001
40
0.050000000000000003
40
0.060000000000000005
40
0.070000000000000007
40
0.080000000000000002
40
0.089999999999999997
40
0.099999999999999992
40
0.10999999999999999
40
0.11999999999999998
40
0.12999999999999998
40
0.13999999999999999
40
0.14999999999999999
40
0.16
40
0.17000000000000001
40
0.18000000000000002
40
0.19000000000000003
40
0.20000000000000004
40
0.21000000000000005
40
0.22000000000000006
40
0.23000000000000007
40
0.24000000000000007
40
0.25000000000000006
40
0.26000000000000006
40
0.27000000000000007
40
0.28000000000000008
40
0.29000000000000009
40
0.3000000000000001
40
0.31000000000000011
40
0.32000000000000012
40
0.33000000000000013
40
0.34000000000000014
40
0.35000000000000014
40
0.36000000000000015
40
0.37000000000000016
40
0.38000000000000017
40
0.39000000000000018
40
0.40000000000000019
40
0.4100000000000002
40
0.42000000000000021
40
0.43000000000000022
40
0.44000000000000022
40
0.45000000000000023
40
0.46000000000000024
40
0.47000000000000025
40
0.48000000000000026
40
0.49000000000000027
40
0.50000000000000022
40
0.51000000000000023
40
0.52000000000000024
40
0.53000000000000025
40
0.54000000000000026
40
0.55000000000000027
40
0.56000000000000028
40
0.57000000000000028
40
0.58000000000000029
40
0.5900000000000003
40
0.60000000000000031
40
0.61000000000000032
40
0.62000000000000033
40
0.63000000000000034
40
0.64000000000000035
40
0.65000000000000036
40
0.66000000000000036
40
0.67000000000000037
40
0.68000000000000038
40
0.69000000000000039
40
0.7000000000000004
40
0.71000000000000041
40
0.72000000000000042
40
0.73000000000000043
40
0.74000000000000044
40
0.75000000000000044
40
0.76000000000000045
40
0.77000000000000046
40
0.78000000000000047
40
0.79000000000000048
40
0.80000000000000049
40
0.8100000000000005
40
0.82000000000000051
40
0.83000000000000052
40
0.84000000000000052
40
0.85000000000000053
40
0.86000000000000054
40
0.87000000000000055
40
0.88000000000000056
40
0.89000000000000057
40
0.90000000000000058
40
0.91000000000000059
40
0.9200000000000006
40
0.9300000000000006
40
0.94000000000000061
40
0.95000000000000062
40
0.96000000000000063
40
0.97000000000000064
40
0.98000000000000065
40
0.99000000000000066
40
1
40
1
40
1
40
1
40
1
40
1
41
1
41
1
41
1
41
1
41
1
41
1
41
1
41
1
41
1
41
1
41
1
41
1
41
1
41
1
41
1
41
1
41
1
41
1
41
1
41
1
41
1
41
1
41
1
41
1
41
1
41
1
41
1
41
1
41
1
41
1
41
1
41
1
41
1
41
1
41
1
41
1
41
1
41
1
41
1
41
1
41
1
41
1
41
1
41
1
41
1
41
1
41
1
41
1
41
1
41
1
41
1
41
1
41
1
41
1
41
1
41
1
41
1
41
1
41
1
41
1
41
1
41
1
41
1
41
1
41
1
41
1
41
1
41
1
41
1
41
1
41
1
41
1
41
1
41
1
41
1
41
1
41
1
41
1
41
1
41
1
41
1
41
1
41
1
41
1
41
1
41
1
41
1
41
1
41
1
41
1
41
1
41
1
41
1
41
1
41
1
41
1
41
1
41
1
41
1
41
1
41
1
41
1
41
1
41
1
41
1
10
0
20
-0.055000000000000049
30
0
10
0.018861116685451776
20
-0.033356725943521938
30
0
10
0.056692227010949718
20
0.0074384582588466665
30
0
10
0.11376552276522711
20
0.061157238160369318
30
0
10
0.19051662250354329
20
0.11783102464464168
30
0
10
0.28753627453104913
20
0.1642359084598477
30
0
10
0.38561120312167324
20
0.18765687139503573
30
0
10
0.48468942434862705
20
0.19104685330971652
30
0
10
0.58468392242589129
20
0.17928697899416307
30
0
10
0.68546247612487743
20
0.15987134839383976
30
0
10
0.78685171270574239
20
0.14139799599900255
30
0
10
0.88864373934055774
20
0.13172059317444607
30
0
10
0.99060141962227055
20
0.13617314629971555
30
0
10
1.0924651709155357
20
0.15586621268129136
30
0
10
1.1939564992209748
20
0.18567284209142854
30
0
10
1.2948219670828489
20
0.21659597442782616
30
0
10
1.3948803565797605
20
0.2385304695990827
30
0
10
1.4940698082015471
20
0.24291842879273468
30
0
10
1.5924925775219723
20
0.22536688366020224
30
0
10
1.690467553329023
20
0.18850831952959912
30
0
10
1.7884349095775367
20
0.13979754095354013
30
0
10
1.8868534089842743
20
0.08902889559236625
30
0
10
1.9860974187098968
20
0.045901624975901716
30
0
10
2.0863608371659796
20
0.017692616339345671
30
0
10
2.187539897099255
20
0.0065451689876215909
30
0
10
2.2893202228264604
20
0.010570603141059379
30
0
10
2.3912931869196568
20
0.025504727947968531
30
0
10
2.4930633127338804
20
0.046183454809054017
30
0
10
2.5943561089190186
20
0.068055380092167272
30
0
10
2.6951347384036914
20
0.088781646994014307
30
0
10
2.7955327731271682
20
0.1077220014288153
30
0
10
2.8957743247919119
20
0.12527127019267253
30
0
10
2.9960983240939898
20
0.14224787253325338
30
0
10
3.0966822647568408
20
0.15926848014085865
30
0
10
3.1975629003887103
20
0.17610757043969277
30
0
10
3.2986745801627593
20
0.19181330457946111
30
0
10
3.3998919877510647
20
0.20485186037793518
30
0
10
3.5010711403706853
20
0.21324179886551298
30
0
10
3.6020912638477909
20
0.2146900697450641
30
0
10
3.702895852056058
20
0.20673307125746984
30
0
10
3.8034773211092303
20
0.18748866828353233
30
0
10
3.9038621216741771
20
0.15641048659243223
30
0
10
4.004095759281241
20
0.11502667335185977
30
0
10
4.1042277562981058
20
0.067722294064992333
30
0
10
4.2042969677240736
20
0.022404946446530349
30
0
10
4.3043272897910771
20
-0.011830939368003748
30
0
10
4.4043229088009799
20
-0.026949466036346424
30
0
10
4.5042638788444247
20
-0.018223183854796147
30
0
10
4.6041011547805368
20
0.013448442172233226
30
0
10
4.7037529335323143
20
0.059439299199258153
30
0
10
4.8031330172425637
20
0.106959833568567
30
0
10
4.9021780481990307
20
0.14241424014257625
30
0
10
5.0008751124817792
20
0.15482784500999042
30
0
10
5.0992893684948299
20
0.13925983884127971
30
0
10
5.1975912831535336
20
0.10018647019154282
30
0
10
5.2960057058532195
20
0.048145821480934735
30
0
10
5.3947619251889591
20
-0.0035451541255243873
30
0
10
5.4940426436980481
20
-0.042132462207154289
30
0
10
5.5939350623537178
20
-0.05866266864106888
30
0
10
5.694376472007403
20
-0.051481196492727171
30
0
10
5.7952094597821722
20
-0.024528353283418076
30
0
10
5.8962430349936206
20
0.014652482401159969
30
0
10
5.9973119874380636
20
0.056804213936905129
30
0
10
6.0983360401826765
20
0.092875856160824236
30
0
10
6.1993817727130214
20
0.11595947544352642
30
0
10
6.3005861900832123
20
0.12173606738976678
30
0
10
6.4020762809960798
20
0.10888995970964691
30
0
10
6.5038910821324478
20
0.079521248723684018
30
0
10
6.6059002866034913
20
0.039597561179471524
30
0
10
6.7077307868459366
20
-0.00070897842505630729
30
0
10
6.8088993739439783
20
-0.029791359635916018
30
0
10
6.9089397786889863
20
-0.037302384992657305
30
0
10
7.0075294253788503
20
-0.016819297506986564
30
0
10
7.1046219356501927
20
0.031340870716111607
30
0
10
7.2005614742770421
20
0.097754901671842531
30
0
10
7.2959331183709288
20
0.16805095459457015
30
0
10
7.391430692242464
20
0.22661599453090431
30
0
10
7.487715446292956
20
0.26057675558602217
30
0
10
7.5852847018968808
20
0.2634249970440985
30
0
10
7.6843199896485732
20
0.23943796518105517
30
0
10
7.7847360453686996
20
0.20021839929512508
30
0
10
7.8862554298164236
20
0.16026975091463141
30
0
10
7.9884742010514556
20
0.13281976510843227
30
0
10
8.0909306645120829
20
0.12575760510666245
30
0
10
8.1931743195521065
20
0.13693888126072915
30
0
10
8.2948135338961198
20
0.15726821522827733
30
0
10
8.3955599139309491
20
0.17467971960470977
30
0
10
8.4952748065362247
20
0.1778328969459296
30
0
10
8.5940130084697444
20
0.15984008049551818
30
0
10
8.6920731676170835
20
0.12222125833913103
30
0
10
8.7899022268600042
20
0.072305781483682025
30
0
10
8.8879942183142386
20
0.020341534968209007
30
0
10
8.9867887687630308
20
-0.023346587367567652
30
0
10
9.086575188042552
20
-0.051080017658907143
30
0
10
9.1873795617445371
20
-0.060968636982707762
30
0
10
9.2890230539958676
20
-0.055727979159710325
30
0
10
9.3912036715973812
20
-0.040899495569545814
30
0
10
9.4935703360137875
20
-0.02326945509551849
30
0
10
9.5957985520271905
20
-0.0092389704136212163
30
0
10
9.6976696966758311
20
-0.0031243393111851829
30
0
10
9.7990536844443632
20
-0.007492227303249238
30
0
10
9.8797190454314538
20
-0.020400733727296821
30
0
10
9.9399599069976787
20
-0.035567423195112094
30
0
10
9.9800057562712823
20
-0.04811620389584912
30
0
10
10
20
-0.055000000000000049
30
0
0
SPLINE
5
104
100
AcDbEntity
8
0
100
AcDbSpline
70
4
71
5
72
111
73
105
74
0
42
0.000000001
43
0.0000000001
44
0.0000000001
40
0
40
0
40
0
40
0
40
0
40
0
40
0.01
40
0.02
40
0.029999999999999999
40
0.040000000000000001
40
0.050000000000000003
40
0.060000000000000005
40
0.070000000000000007
40
0.080000000000000002
40
0.089999999999999997
40
0.099999999999999992
40
0.10999999999999999
40
0.11999999999999998
40
0.12999999999999998
40
0.13999999999999999
40
0.14999999999999999
40
0.16
40
0.17000000000000001
40
0.18000000000000002
40
0.19000000000000003
40
0.20000000000000004
40
0.21000000000000005
40
0.22000000000000006
40
0.23000000000000007
40
0.24000000000000007
40
0.25000000000000006
40
0.26000000000000006
40
0.27000000000000007
40
0.28000000000000008
40
0.29000000000000009
40
0.3000000000000001
40
0.31000000000000011
40
0.32000000000000012
40
0.33000000000000013
40
0.34000000000000014
40
0.35000000000000014
40
0.36000000000000015
40
0.37000000000000016
40
0.38000000000000017
40
0.39000000000000018
40
0.40000000000000019
40
0.4100000000000002
40
0.42000000000000021
40
0.43000000000000022
40
0.44000000000000022
40
0.45000000000000023
40
0.46000000000000024
40
0.47000000000000025
40
0.48000000000000026
40
0.49000000000000027
40
0.50000000000000022
40
0.51000000000000023
40
0.52000000000000024
40
0.53000000000000025
40
0.54000000000000026
40
0.55000000000000027
40
0.56000000000000028
40
0.57000000000000028
40
0.58000000000000029
40
0.5900000000000003
40
0.60000000000000031
40
0.61000000000000032
40
0.62000000000000033
40
0.63000000000000034
40
0.64000000000000035
40
0.65000000000000036
40
0.66000000000000036
40
0.67000000000000037
40
0.68000000000000038
40
0.69000000000000039
40
0.7000000000000004
40
0.71000000000000041
40
0.72000000000000042
40
0.73000000000000043
40
0.74000000000000044
40
0.75000000000000044
40
0.76000000000000045
40
0.77000000000000046
40
0.78000000000000047
40
0.79000000000000048
40
0.80000000000000049
40
0.8100000000000005
40
0.82000000000000051
40
0.83000000000000052
40
0.84000000000000052
40
0.85000000000000053
40
0.86000000000000054
40
0.87000000000000055
40
0.88000000000000056
40
0.89000000000000057
40
0.90000000000000058
40
0.91000000000000059
40
0.9200000000000006
40
0.9300000000000006
40
0.94000000000000061
40
0.95000000000000062
40
0.96000000000000063
40
0.97000000000000064
40
0.98000000000000065
40
0.99000000000000066
40
1
40
1
40
1
40
1
40
1
40
1
41
1
41
1
41
1
41
1
41
1
41
1
41
1
41
1
41
1
41
1
41
1
41
1
41
1
41
1
41
1
41
1
41
1
41
1
41
1
41
1
41
1
41
1
41
1
41
1
41
1
41
1
41
1
41
1
41
1
41
1
41
1
41
1
41
1
41
1
41
1
41
1
41
1
41
1
41
1
41
1
41
1
41
1
41
1
41
1
41
1
41
1
41
1
41
1
41
1
41
1
41
1
41
1
41
1
41
1
41
1
41
1
41
1
41
1
41
1
41
1
41
1
41
1
41
1
41
1
41
1
41
1
41
1
41
1
41
1
41
1
41
1
41
1
41
1
41
1
41
1
41
1
41
1
41
1
41
1
41
1
41
1
41
1
41
1
41
1
41
1
41
1
41
1
41
1
41
1
41
1
41
1
41
1
41
1
41
1
41
1
41
1
41
1
41
1
41
1
41
1
41
1
41
1
41
1
41
1
41
1
10
0
20
3.0549999999999997
30
0
10
0.018872887866375879
20
3.0328935362893028
30
0
10
0.056684107671621832
20
2.9908377888250874
30
0
10
0.11359727251020765
20
2.9342257012865995
30
0
10
0.18987420120686382
20
2.8716881461738493
30
0
10
0.28588036859776222
20
2.8149614919533796
30
0
10
0.38256190946701085
20
2.7792696927309759
30
0
10
0.47994991108183344
20
2.7637740607971928
30
0
10
0.57809399386233817
20
2.7670659855208104
30
0
10
0.67707281203892244
20
2.787008340734932
30
0
10
0.77695347120940861
20
2.8206985287108592
30
0
10
0.8777408080339032
20
2.8644707439738597
30
0
10
0.97932630142498245
20
2.9138656627317543
30
0
10
1.0814456395602774
20
2.9636553774267931
30
0
10
1.1836102572305034
20
3.0077348672142827
30
0
10
1.2852203977225385
20
3.0399067125321624
30
0
10
1.3857182194311077
20
3.0548593947113467
30
0
10
1.4847331138376807
20
3.0491127219119911
30
0
10
1.5822170517293532
20
3.0219039821106994
30
0
10
1.6786193349534799
20
2.976295928258474
30
0
10
1.7747181202245614
20
2.9183459795289202
30
0
10
1.871396163103072
20
2.8559354381933288
30
0
10
1.9694260951274347
20
2.7977096093582858
30
0
10
2.0692744074154965
20
2.7519930059970976
30
0
10
2.1708394332060923
20
2.7256614014111986
30
0
10
2.2735403953009312
20
2.7233520031743401
30
0
10
2.3765515645385107
20
2.7468653141979154
30
0
10
2.4789950051363689
20
2.7944304013055183
30
0
10
2.5801380369552689
20
2.8601874613989979
30
0
10
2.6796209819182124
20
2.9331544666364087
30
0
10
2.7774295851431114
20
2.9995085973815252
30
0
10
2.8738015698092436
20
3.0456020431161344
30
0
10
2.9691551465855315
20
3.0608927148205995
30
0
10
3.0640101994235476
20
3.0405409793924076
30
0
10
3.1589082680233336
20
2.9890911736301016
30
0
10
3.2543574121701706
20
2.9187377276460866
30
0
10
3.3507921131863929
20
2.8451485984726679
30
0
10
3.4485251512721904
20
2.7838988064026724
30
0
10
3.5477097000271574
20
2.7470246643116099
30
0
10
3.6482799147852374
20
2.7386096530652098
30
0
10
3.7499661588069442
20
2.7543090821943723
30
0
10
3.8523879362485873
20
2.7851180089960885
30
0
10
3.9551289931254625
20
2.8201221519300299
30
0
10
4.0578134168468853
20
2.8494059144397261
30
0
10
4.160196705545232
20
2.867525066489403
30
0
10
4.2621840008252727
20
2.8740164993922992
30
0
10
4.3637902572412814
20
2.8715515566106049
30
0
10
4.4651178913542831
20
2.8647501041875758
30
0
10
4.566326180965719
20
2.8587870116344414
30
0
10
4.6676070280243982
20
2.8579298270752016
30
0
10
4.7691446109452649
20
2.864923076527889
30
0
10
4.8710703032913187
20
2.8808786291872028
30
0
10
4.9734152023763194
20
2.9049621496502533
30
0
10
5.0760720112176489
20
2.9342565394432767
30
0
10
5.1787313170883555
20
2.9633092473050588
30
0
10
5.2809638959309986
20
2.9853120596721356
30
0
10
5.3823486809060395
20
2.9937766329180722
30
0
10
5.4825906820353145
20
2.9841109967351391
30
0
10
5.5816317191394118
20
2.9550930036402443
30
0
10
5.6797942103751931
20
2.9107690461841331
30
0
10
5.7776564302786753
20
2.8589308567305487
30
0
10
5.8758767647305019
20
2.8089345514012614
30
0
10
5.9750283118894307
20
2.769671683199423
30
0
10
6.0754458628240151
20
2.7476511409792255
30
0
10
6.1770243851100748
20
2.744583362510185
30
0
10
6.2793205693341383
20
2.7581259947394705
30
0
10
6.3817467130759784
20
2.7836039884804316
30
0
10
6.4837388064776604
20
2.8154405290838986
30
0
10
6.5849237423624762
20
2.8486217832094378
30
0
10
6.6853175113535945
20
2.8803729439550398
30
0
10
6.7852263157488499
20
2.9096464652908853
30
0
10
6.8850945715824752
20
2.936217494086991
30
0
10
6.9853680919034549
20
2.9598860130291254
30
0
10
7.0863588999253544
20
2.9797061749894462
30
0
10
7.1880882146166361
20
2.9930141185055588
30
0
10
7.2903575849933508
20
2.9965026247542852
30
0
10
7.3928558743707278
20
2.9876092616942342
30
0
10
7.4952543931567659
20
2.9658159584389194
30
0
10
7.5973049738080594
20
2.9339376888008872
30
0
10
7.6989422967503973
20
2.8995521725404174
30
0
10
7.8002241676705708
20
2.8724258620759233
30
0
10
7.9012638793840608
20
2.8617470544237933
30
0
10
8.0021658882414073
20
2.8734467833722084
30
0
10
8.1029592936945249
20
2.9074416271385566
30
0
10
8.2035344506412642
20
2.9550153752116075
30
0
10
8.3037125994083194
20
3.0027102414352909
30
0
10
8.4033132588081738
20
3.0361058958372338
30
0
10
8.5022220792230492
20
3.0436207609497585
30
0
10
8.60045935678788
20
3.0203469414450894
30
0
10
8.6982460330854465
20
2.971757178172802
30
0
10
8.7959214594639832
20
2.9099255410205811
30
0
10
8.8938645474804687
20
2.8499150724605538
30
0
10
8.9924125502706751
20
2.8060564796328444
30
0
10
9.0917834697715083
20
2.7883865935623842
30
0
10
9.1919897416788139
20
2.7987105981830505
30
0
10
9.2928892692878797
20
2.8325762785912079
30
0
10
9.3942462914476792
20
2.8816722584959158
30
0
10
9.4957889860746381
20
2.9360841053432685
30
0
10
9.5972675895975961
20
2.9865768996433264
30
0
10
9.6985145427992201
20
3.026953385078933
30
0
10
9.7994299047011459
20
3.0535185936569493
30
0
10
9.8798569473900884
20
3.0622440598989424
30
0
10
9.9399981190501645
20
3.0614682873629913
30
0
10
9.9800126386945891
20
3.0576982360053719
30
0
10
10
20
3.0549999999999997
30
0
0
ENDSEC
0
SECTION
2
OBJECTS
0
DICTIONARY
5
C
100
AcDbDictionary
3
ACAD_GROUP
350
D
3
ACAD_MLINESTYLE
350
17
0
DICTIONARY
5
D
100
AcDbDictionary
0
DICTIONARY
5
1A
330
C
100
AcDbDictionary
0
DICTIONARY
5
17
100
AcDbDictionary
0
ENDSEC
0
EOF
