0
SECTION
2
HEADER
9
$INSUNITS
70
4
9
$ACADVER
1
AC1014
9
$HANDSEED
5
FFFF
0
ENDSEC
0
SECTION
2
TABLES
0
TABLE
2
VPORT
5
8
100
AcDbSymbolTable
0
ENDTAB
0
TABLE
2
LTYPE
5
5
100
AcDbSymbolTable
0
LTYPE
5
14
100
AcDbSymbolTableRecord
100
AcDbLinetypeTableRecord
2
BYBLOCK
70
0
0
LTYPE
5
15
100
AcDbSymbolTableRecord
100
AcDbLinetypeTableRecord
2
BYLAYER
70
0
0
ENDTAB
0
TABLE
2
LAYER
5
2
100
AcDbSymbolTable
70
2
0
LAYER
5
50
100
AcDbSymbolTableRecord
100
AcDbLayerTableRecord
2
0
70
0
6
CONTINUOUS
0
ENDTAB
0
TABLE
2
STYLE
5
3
100
AcDbSymbolTable
70
1
0
STYLE
5
11
100
AcDbSymbolTableRecord
100
AcDbTextStyleTableRecord
2
STANDARD
70
0
0
ENDTAB
0
TABLE
2
VIEW
5
6
100
AcDbSymbolTable
70
0
0
ENDTAB
0
TABLE
2
UCS
5
7
100
AcDbSymbolTable
70
0
0
ENDTAB
0
TABLE
2
APPID
5
9
100
AcDbSymbolTable
70
2
0
APPID
5
12
100
AcDbSymbolTableRecord
100
AcDbRegAppTableRecord
2
ACAD
70
0
0
ENDTAB
0
TABLE
2
DIMSTYLE
5
A
100
AcDbSymbolTable
70
1
0
ENDTAB
0
TABLE
2
BLOCK_RECORD
5
1
100
AcDbSymbolTable
70
1
0
BLOCK_RECORD
5
1F
100
AcDbSymbolTableRecord
100
AcDbBlockTableRecord
2
*MODEL_SPACE
0
BLOCK_RECORD
5
1B
100
AcDbSymbolTableRecord
100
AcDbBlockTableRecord
2
*PAPER_SPACE
0
ENDTAB
0
ENDSEC
0
SECTION
2
BLOCKS
0
BLOCK
5
20
100
AcDbEntity
100
AcDbBlockBegin
2
*MODEL_SPACE
0
ENDBLK
5
21
100
AcDbEntity
100
AcDbBlockEnd
0
BLOCK
5
1C
100
AcDbEntity
100
AcDbBlockBegin
2
*PAPER_SPACE
0
ENDBLK
5
1D
100
AcDbEntity
100
AcDbBlockEnd
0
ENDSEC
0
SECTION
2
ENTITIES
0
SPLINE
5
100
100
AcDbEntity
8
0
100
AcDbSpline
70
4
71
5
72
16
73
10
74
0
42
0.000000001
43
0.0000000001
44
0.0000000001
40
0
40
0
40
0
40
0
40
0
40
0
40
0.20000000000000001
40
0.40000000000000002
40
0.60000000000000009
40
0.80000000000000004
40
1
40
1
40
1
40
1
40
1
40
1
41
1
41
1
41
1
41
1
41
1
41
1
41
1
41
1
41
1
41
1
10
0
20
-0.055000000000000049
30
0
10
0
20
0.069400000000207365
30
0
10
0
20
0.31820000000056603
30
0
10
0
20
0.69140000000093593
30
0
10
0
20
1.1890000000011365
30
0
10
0
20
1.8110000000010393
30
0
10
0
20
2.3086000000007481
30
0
10
0
20
2.6818000000004227
30
0
10
0
20
2.9306000000001484
30
0
10
0
20
3.0549999999999997
30
0
0
SPLINE
5
101
100
AcDbEntity
8
0
100
AcDbSpline
70
4
71
5
72
16
73
10
74
0
42
0.000000001
43
0.0000000001
44
0.0000000001
40
0
40
0
40
0
40
0
40
0
40
0
40
0.20000000000000001
40
0.40000000000000002
40
0.60000000000000009
40
0.80000000000000004
40
1
40
1
40
1
40
1
40
1
40
1
41
1
41
1
41
1
41
1
41
1
41
1
41
1
41
1
41
1
41
1
10
10
20
-0.055000000000000049
30
0
10
9.9999999999997495
20
0.069400000000207365
30
0
10
9.9999999999993197
20
0.31820000000056603
30
0
10
9.9999999999989129
20
0.69140000000093593
30
0
10
9.9999999999987672
20
1.1890000000011365
30
0
10
9.9999999999990248
20
1.8110000000010393
30
0
10
9.9999999999993889
20
2.3086000000007481
30
0
10
9.9999999999996998
20
2.6818000000004227
30
0
10
9.9999999999999005
20
2.9306000000001484
30
0
10
10
20
3.0549999999999997
30
0
0
SPLINE
5
102
100
AcDbEntity
8
0
100
AcDbSpline
70
4
71
5
72
16
73
10
74
0
42
0.000000001
43
0.0000000001
44
0.0000000001
40
0
40
0
40
0
40
0
40
0
40
0
40
0.20000000000000001
40
0.40000000000000002
40
0.60000000000000009
40
0.80000000000000004
40
1
40
1
40
1
40
1
40
1
40
1
41
1
41
1
41
1
41
1
41
1
41
1
41
1
41
1
41
1
41
1
10
0
20
1.5274999999999999
30
0
10
0.40000000000047375
20
1.5274999999999856
30
0
10
1.2000000000012774
20
1.5274999999999614
30
0
10
2.4000000000020547
20
1.527499999999943
30
0
10
4.0000000000023546
20
1.5274999999999479
30
0
10
6.0000000000019584
20
1.5274999999999812
30
0
10
7.6000000000012928
20
1.5275000000000025
30
0
10
8.800000000000697
20
1.5275000000000083
30
0
10
9.6000000000002395
20
1.5275000000000039
30
0
10
10
20
1.5274999999999999
30
0
0
SPLINE
5
103
100
AcDbEntity
8
0
100
AcDbSpline
70
4
71
5
72
61
73
55
74
0
42
0.000000001
43
0.0000000001
44
0.0000000001
40
0
40
0
40
0
40
0
40
0
40
0
40
0.02
40
0.040000000000000001
40
0.059999999999999998
40
0.080000000000000002
40
0.10000000000000001
40
0.12000000000000001
40
0.14000000000000001
40
0.16
40
0.17999999999999999
40
0.19999999999999998
40
0.21999999999999997
40
0.23999999999999996
40
0.25999999999999995
40
0.27999999999999997
40
0.29999999999999999
40
0.32000000000000001
40
0.34000000000000002
40
0.36000000000000004
40
0.38000000000000006
40
0.40000000000000008
40
0.4200000000000001
40
0.44000000000000011
40
0.46000000000000013
40
0.48000000000000015
40
0.50000000000000011
40
0.52000000000000013
40
0.54000000000000015
40
0.56000000000000016
40
0.58000000000000018
40
0.6000000000000002
40
0.62000000000000022
40
0.64000000000000024
40
0.66000000000000025
40
0.68000000000000027
40
0.70000000000000029
40
0.72000000000000031
40
0.74000000000000032
40
0.76000000000000034
40
0.78000000000000036
40
0.80000000000000038
40
0.8200000000000004
40
0.84000000000000041
40
0.86000000000000043
40
0.88000000000000045
40
0.90000000000000047
40
0.92000000000000048
40
0.9400000000000005
40
0.96000000000000052
40
0.98000000000000054
40
1
40
1
40
1
40
1
40
1
40
1
41
1
41
1
41
1
41
1
41
1
41
1
41
1
41
1
41
1
41
1
41
1
41
1
41
1
41
1
41
1
41
1
41
1
41
1
41
1
41
1
41
1
41
1
41
1
41
1
41
1
41
1
41
1
41
1
41
1
41
1
41
1
41
1
41
1
41
1
41
1
41
1
41
1
41
1
41
1
41
1
41
1
41
1
41
1
41
1
41
1
41
1
41
1
41
1
41
1
41
1
41
1
41
1
41
1
41
1
41
1
10
0
20
-0.055000000000000049
30
0
10
0.040495035335412405
20
-0.059519965636282549
30
0
10
0.12146318421910601
20
-0.067373191261760321
30
0
10
0.24284964228152839
20
-0.075592899467992719
30
0
10
0.40456663597614229
20
-0.079427725930454871
30
0
10
0.6064941698149513
20
-0.07257478799155323
30
0
10
0.80820580343589521
20
-0.05480915531892018
30
0
10
1.0097078373296566
20
-0.027631274633834274
30
0
10
1.2110113136796752
20
0.0064148022611890294
30
0
10
1.4121335418189604
20
0.043500694559240334
30
0
10
1.6131042916218807
20
0.079104246860713379
30
0
10
1.8139720604811922
20
0.10856542580783722
30
0
10
2.0148098953045306
20
0.1276529425240813
30
0
10
2.2157225518137396
20
0.13313077543168009
30
0
10
2.4168501175314279
20
0.12331620135271204
30
0
10
2.6183251739972304
20
0.098388522592817274
30
0
10
2.8202317923617222
20
0.060741637011730777
30
0
10
3.0225656972171304
20
0.015277792279781151
30
0
10
3.2251891291237031
20
-0.030154387960905499
30
0
10
3.4278008280312977
20
-0.064697302260566178
30
0
10
3.630035361670918
20
-0.077498960102615227
30
0
10
3.8315530208933684
20
-0.060545621163917998
30
0
10
4.0321289150690873
20
-0.011387568810987696
30
0
10
4.2317529919056076
20
0.063649516318394966
30
0
10
4.4306953457895384
20
0.14769881832201359
30
0
10
4.6293711207475781
20
0.21977337810007508
30
0
10
4.8282279891412863
20
0.26031810712610504
30
0
10
5.0276288838247876
20
0.25684561501093139
30
0
10
5.2277277148819854
20
0.21014142334608329
30
0
10
5.4283737193191293
20
0.13853219577198464
30
0
10
5.6292195303280144
20
0.068882287000771522
30
0
10
5.8298075805933456
20
0.028882319813191563
30
0
10
6.029662886744898
20
0.039165404899694715
30
0
10
6.2283867410512048
20
0.10474129566652576
30
0
10
6.4257391007025833
20
0.20887255756741702
30
0
10
6.6216390370518958
20
0.32289373234163726
30
0
10
6.8161753011037529
20
0.41424624968730611
30
0
10
7.0096127601081264
20
0.45509327406006356
30
0
10
7.2024027568326581
20
0.43090778860899326
30
0
10
7.3951876587586165
20
0.34849876909133387
30
0
10
7.5886824355485407
20
0.22845637383308467
30
0
10
7.7835626357576935
20
0.098354403314155986
30
0
10
7.9803474661663687
20
-0.014423687991113963
30
0
10
8.1792902362625561
20
-0.089427861470742623
30
0
10
8.3802497925327568
20
-0.12079364649058989
30
0
10
8.5827936076304425
20
-0.11400062421816209
30
0
10
8.7863225650255217
20
-0.081605562342554602
30
0
10
8.9901882856007322
20
-0.039337158360717578
30
0
10
9.1938113131696007
20
-0.0021148529158798242
30
0
10
9.3968044978944629
20
0.020071382741452634
30
0
10
9.5989384650637781
20
0.021307205621822332
30
0
10
9.7598674963576375
20
0.0031917211166448732
30
0
10
9.8801102161552539
20
-0.021563434973186267
30
0
10
9.9600703514108986
20
-0.04302768570502126
30
0
10
10
20
-0.055000000000000049
30
0
0
SPLINE
5
104
100
AcDbEntity
8
0
100
AcDbSpline
70
4
71
5
72
61
73
55
74
0
42
0.000000001
43
0.0000000001
44
0.0000000001
40
0
40
0
40
0
40
0
40
0
40
0
40
0.02
40
0.040000000000000001
40
0.059999999999999998
40
0.080000000000000002
40
0.10000000000000001
40
0.12000000000000001
40
0.14000000000000001
40
0.16
40
0.17999999999999999
40
0.19999999999999998
40
0.21999999999999997
40
0.23999999999999996
40
0.25999999999999995
40
0.27999999999999997
40
0.29999999999999999
40
0.32000000000000001
40
0.34000000000000002
40
0.36000000000000004
40
0.38000000000000006
40
0.40000000000000008
40
0.4200000000000001
40
0.44000000000000011
40
0.46000000000000013
40
0.48000000000000015
40
0.50000000000000011
40
0.52000000000000013
40
0.54000000000000015
40
0.56000000000000016
40
0.58000000000000018
40
0.6000000000000002
40
0.62000000000000022
40
0.64000000000000024
40
0.66000000000000025
40
0.68000000000000027
40
0.70000000000000029
40
0.72000000000000031
40
0.74000000000000032
40
0.76000000000000034
40
0.78000000000000036
40
0.80000000000000038
40
0.8200000000000004
40
0.84000000000000041
40
0.86000000000000043
40
0.88000000000000045
40
0.90000000000000047
40
0.92000000000000048
40
0.9400000000000005
40
0.96000000000000052
40
0.98000000000000054
40
1
40
1
40
1
40
1
40
1
40
1
41
1
41
1
41
1
41
1
41
1
41
1
41
1
41
1
41
1
41
1
41
1
41
1
41
1
41
1
41
1
41
1
41
1
41
1
41
1
41
1
41
1
41
1
41
1
41
1
41
1
41
1
41
1
41
1
41
1
41
1
41
1
41
1
41
1
41
1
41
1
41
1
41
1
41
1
41
1
41
1
41
1
41
1
41
1
41
1
41
1
41
1
41
1
41
1
41
1
41
1
41
1
41
1
41
1
41
1
41
1
10
0
20
3.0549999999999997
30
0
10
0.040048060130478506
20
3.0502647996185601
30
0
10
0.12016799873918486
20
3.0412902999850862
30
0
10
0.24041936204282552
20
3.0293162593738225
30
0
10
0.40089751402038964
20
3.0163281811691078
30
0
10
0.60172552815308067
20
3.0049278751424136
30
0
10
0.80275882586733038
20
2.9979595562740267
30
0
10
1.0039466685065273
20
2.9946036517571617
30
0
10
1.2052035292943488
20
2.993475776515409
30
0
10
1.4064009083803011
20
2.9924928922029643
30
0
10
1.6074082806691128
20
2.9895165124099172
30
0
10
1.8081336040088312
20
2.98298857737336
30
0
10
2.0085632490322678
20
2.9725588305536395
30
0
10
2.2088042594747885
20
2.9597472618079781
30
0
10
2.4091206435728103
20
2.9485166689218079
30
0
10
2.6098213249234088
20
2.9436028849861291
30
0
10
2.8111522727949607
20
2.9489094880773603
30
0
10
3.01318959835766
20
2.9659146915357
30
0
10
3.21572574512175
20
2.9919803620277992
30
0
10
3.4181751477709934
20
3.0189385297439753
30
0
10
3.6197880746575937
20
3.0360846786571765
30
0
10
3.8198496190432287
20
3.0329561533232074
30
0
10
4.0178793397485242
20
3.0021241950819872
30
0
10
4.2138425984827572
20
2.9421410108940904
30
0
10
4.4083251466040245
20
2.8599927354805672
30
0
10
4.6022683784006411
20
2.7676347652680446
30
0
10
4.796737862781443
20
2.6789756633340196
30
0
10
4.9926780433522326
20
2.6066758467455777
30
0
10
5.1906766016256611
20
2.5590759669734728
30
0
10
5.390713114914937
20
2.5369182716925138
30
0
10
5.5923337202548176
20
2.5356855707663755
30
0
10
5.7948381301020735
20
2.5481031036681618
30
0
10
5.997461690932834
20
2.5665777648836592
30
0
10
6.199558303013804
20
2.5856456432781343
30
0
10
6.4007855427910858
20
2.6044603753246944
30
0
10
6.6010464048855946
20
2.6251691309409972
30
0
10
6.8004284411444695
20
2.6512435533460597
30
0
10
6.9991444166183747
20
2.685830274852294
30
0
10
7.1974727828427785
20
2.7300978104178268
30
0
10
7.3956983755084229
20
2.7815688465457789
30
0
10
7.594088315327431
20
2.8354836831450214
30
0
10
7.792868201943433
20
2.8861676745909355
30
0
10
7.9921978389311441
20
2.9284037392667646
30
0
10
8.1921475877429089
20
2.958779627876881
30
0
10
8.3926725670667981
20
2.9771135820279842
30
0
10
8.5936456658612812
20
2.9855998792349059
30
0
10
8.7948924638834285
20
2.9878777468140272
30
0
10
8.996225391648661
20
2.9881305389060904
30
0
10
9.1974779047510271
20
2.990180536923368
30
0
10
9.398539318574791
20
2.9965691057572301
30
0
10
9.5993438965265181
20
3.0088053290174832
30
0
10
9.7597561436922007
20
3.0238682329439301
30
0
10
9.8799304797856671
20
3.0382394262023555
30
0
10
9.9599868090323298
20
3.0491855827357961
30
0
10
10
20
3.0549999999999997
30
0
0
ENDSEC
0
SECTION
2
OBJECTS
0
DICTIONARY
5
C
100
AcDbDictionary
3
ACAD_GROUP
350
D
3
ACAD_MLINESTYLE
350
17
0
DICTIONARY
5
D
100
AcDbDictionary
0
DICTIONARY
5
1A
330
C
100
AcDbDictionary
0
DICTIONARY
5
17
100
AcDbDictionary
0
ENDSEC
0
EOF
