0
SECTION
2
HEADER
9
$INSUNITS
70
4
9
$ACADVER
1
AC1014
9
$HANDSEED
5
FFFF
0
ENDSEC
0
SECTION
2
TABLES
0
TABLE
2
VPORT
5
8
100
AcDbSymbolTable
0
ENDTAB
0
TABLE
2
LTYPE
5
5
100
AcDbSymbolTable
0
LTYPE
5
14
100
AcDbSymbolTableRecord
100
AcDbLinetypeTableRecord
2
BYBLOCK
70
0
0
LTYPE
5
15
100
AcDbSymbolTableRecord
100
AcDbLinetypeTableRecord
2
BYLAYER
70
0
0
ENDTAB
0
TABLE
2
LAYER
5
2
100
AcDbSymbolTable
70
2
0
LAYER
5
50
100
AcDbSymbolTableRecord
100
AcDbLayerTableRecord
2
0
70
0
6
CONTINUOUS
0
ENDTAB
0
TABLE
2
STYLE
5
3
100
AcDbSymbolTable
70
1
0
STYLE
5
11
100
AcDbSymbolTableRecord
100
AcDbTextStyleTableRecord
2
STANDARD
70
0
0
ENDTAB
0
TABLE
2
VIEW
5
6
100
AcDbSymbolTable
70
0
0
ENDTAB
0
TABLE
2
UCS
5
7
100
AcDbSymbolTable
70
0
0
ENDTAB
0
TABLE
2
APPID
5
9
100
AcDbSymbolTable
70
2
0
APPID
5
12
100
AcDbSymbolTableRecord
100
AcDbRegAppTableRecord
2
ACAD
70
0
0
ENDTAB
0
TABLE
2
DIMSTYLE
5
A
100
AcDbSymbolTable
70
1
0
ENDTAB
0
TABLE
2
BLOCK_RECORD
5
1
100
AcDbSymbolTable
70
1
0
BLOCK_RECORD
5
1F
100
AcDbSymbolTableRecord
100
AcDbBlockTableRecord
2
*MODEL_SPACE
0
BLOCK_RECORD
5
1B
100
AcDbSymbolTableRecord
100
AcDbBlockTableRecord
2
*PAPER_SPACE
0
ENDTAB
0
ENDSEC
0
SECTION
2
BLOCKS
0
BLOCK
5
20
100
AcDbEntity
100
AcDbBlockBegin
2
*MODEL_SPACE
0
ENDBLK
5
21
100
AcDbEntity
100
AcDbBlockEnd
0
BLOCK
5
1C
100
AcDbEntity
100
AcDbBlockBegin
2
*PAPER_SPACE
0
ENDBLK
5
1D
100
AcDbEntity
100
AcDbBlockEnd
0
ENDSEC
0
SECTION
2
ENTITIES
0
SPLINE
5
100
100
AcDbEntity
8
0
100
AcDbSpline
70
4
71
5
72
16
73
10
74
0
42
0.000000001
43
0.0000000001
44
0.0000000001
40
0
40
0
40
0
40
0
40
0
40
0
40
0.20000000000000001
40
0.40000000000000002
40
0.60000000000000009
40
0.80000000000000004
40
1
40
1
40
1
40
1
40
1
40
1
41
1
41
1
41
1
41
1
41
1
41
1
41
1
41
1
41
1
41
1
10
0
20
-0.055000000000000049
30
0
10
0
20
0.069400000000207365
30
0
10
0
20
0.31820000000056603
30
0
10
0
20
0.69140000000093593
30
0
10
0
20
1.1890000000011365
30
0
10
0
20
1.8110000000010393
30
0
10
0
20
2.3086000000007481
30
0
10
0
20
2.6818000000004227
30
0
10
0
20
2.9306000000001484
30
0
10
0
20
3.0549999999999997
30
0
0
SPLINE
5
101
100
AcDbEntity
8
0
100
AcDbSpline
70
4
71
5
72
16
73
10
74
0
42
0.000000001
43
0.0000000001
44
0.0000000001
40
0
40
0
40
0
40
0
40
0
40
0
40
0.20000000000000001
40
0.40000000000000002
40
0.60000000000000009
40
0.80000000000000004
40
1
40
1
40
1
40
1
40
1
40
1
41
1
41
1
41
1
41
1
41
1
41
1
41
1
41
1
41
1
41
1
10
10
20
-0.055000000000000049
30
0
10
9.9999999999997495
20
0.069400000000207365
30
0
10
9.9999999999993197
20
0.31820000000056603
30
0
10
9.9999999999989129
20
0.69140000000093593
30
0
10
9.9999999999987672
20
1.1890000000011365
30
0
10
9.9999999999990248
20
1.8110000000010393
30
0
10
9.9999999999993889
20
2.3086000000007481
30
0
10
9.9999999999996998
20
2.6818000000004227
30
0
10
9.9999999999999005
20
2.9306000000001484
30
0
10
10
20
3.0549999999999997
30
0
0
SPLINE
5
102
100
AcDbEntity
8
0
100
AcDbSpline
70
4
71
5
72
16
73
10
74
0
42
0.000000001
43
0.0000000001
44
0.0000000001
40
0
40
0
40
0
40
0
40
0
40
0
40
0.20000000000000001
40
0.40000000000000002
40
0.60000000000000009
40
0.80000000000000004
40
1
40
1
40
1
40
1
40
1
40
1
41
1
41
1
41
1
41
1
41
1
41
1
41
1
41
1
41
1
41
1
10
0
20
1.5274999999999999
30
0
10
0.40000000000047375
20
1.5274999999999856
30
0
10
1.2000000000012774
20
1.5274999999999614
30
0
10
2.4000000000020547
20
1.527499999999943
30
0
10
4.0000000000023546
20
1.5274999999999479
30
0
10
6.0000000000019584
20
1.5274999999999812
30
0
10
7.6000000000012928
20
1.5275000000000025
30
0
10
8.800000000000697
20
1.5275000000000083
30
0
10
9.6000000000002395
20
1.5275000000000039
30
0
10
10
20
1.5274999999999999
30
0
0
SPLINE
5
103
100
AcDbEntity
8
0
100
AcDbSpline
70
4
71
5
72
111
73
105
74
0
42
0.000000001
43
0.0000000001
44
0.0000000001
40
0
40
0
40
0
40
0
40
0
40
0
40
0.01
40
0.02
40
0.029999999999999999
40
0.040000000000000001
40
0.050000000000000003
40
0.060000000000000005
40
0.070000000000000007
40
0.080000000000000002
40
0.089999999999999997
40
0.099999999999999992
40
0.10999999999999999
40
0.11999999999999998
40
0.12999999999999998
40
0.13999999999999999
40
0.14999999999999999
40
0.16
40
0.17000000000000001
40
0.18000000000000002
40
0.19000000000000003
40
0.20000000000000004
40
0.21000000000000005
40
0.22000000000000006
40
0.23000000000000007
40
0.24000000000000007
40
0.25000000000000006
40
0.26000000000000006
40
0.27000000000000007
40
0.28000000000000008
40
0.29000000000000009
40
0.3000000000000001
40
0.31000000000000011
40
0.32000000000000012
40
0.33000000000000013
40
0.34000000000000014
40
0.35000000000000014
40
0.36000000000000015
40
0.37000000000000016
40
0.38000000000000017
40
0.39000000000000018
40
0.40000000000000019
40
0.4100000000000002
40
0.42000000000000021
40
0.43000000000000022
40
0.44000000000000022
40
0.45000000000000023
40
0.46000000000000024
40
0.47000000000000025
40
0.48000000000000026
40
0.49000000000000027
40
0.50000000000000022
40
0.51000000000000023
40
0.52000000000000024
40
0.53000000000000025
40
0.54000000000000026
40
0.55000000000000027
40
0.56000000000000028
40
0.57000000000000028
40
0.58000000000000029
40
0.5900000000000003
40
0.60000000000000031
40
0.61000000000000032
40
0.62000000000000033
40
0.63000000000000034
40
0.64000000000000035
40
0.65000000000000036
40
0.66000000000000036
40
0.67000000000000037
40
0.68000000000000038
40
0.69000000000000039
40
0.7000000000000004
40
0.71000000000000041
40
0.72000000000000042
40
0.73000000000000043
40
0.74000000000000044
40
0.75000000000000044
40
0.76000000000000045
40
0.77000000000000046
40
0.78000000000000047
40
0.79000000000000048
40
0.80000000000000049
40
0.8100000000000005
40
0.82000000000000051
40
0.83000000000000052
40
0.84000000000000052
40
0.85000000000000053
40
0.86000000000000054
40
0.87000000000000055
40
0.88000000000000056
40
0.89000000000000057
40
0.90000000000000058
40
0.91000000000000059
40
0.9200000000000006
40
0.9300000000000006
40
0.94000000000000061
40
0.95000000000000062
40
0.96000000000000063
40
0.97000000000000064
40
0.98000000000000065
40
0.99000000000000066
40
1
40
1
40
1
40
1
40
1
40
1
41
1
41
1
41
1
41
1
41
1
41
1
41
1
41
1
41
1
41
1
41
1
41
1
41
1
41
1
41
1
41
1
41
1
41
1
41
1
41
1
41
1
41
1
41
1
41
1
41
1
41
1
41
1
41
1
41
1
41
1
41
1
41
1
41
1
41
1
41
1
41
1
41
1
41
1
41
1
41
1
41
1
41
1
41
1
41
1
41
1
41
1
41
1
41
1
41
1
41
1
41
1
41
1
41
1
41
1
41
1
41
1
41
1
41
1
41
1
41
1
41
1
41
1
41
1
41
1
41
1
41
1
41
1
41
1
41
1
41
1
41
1
41
1
41
1
41
1
41
1
41
1
41
1
41
1
41
1
41
1
41
1
41
1
41
1
41
1
41
1
41
1
41
1
41
1
41
1
41
1
41
1
41
1
41
1
41
1
41
1
41
1
41
1
41
1
41
1
41
1
41
1
41
1
41
1
41
1
41
1
10
0
20
-0.055000000000000049
30
0
10
0.019918821678133559
20
-0.046763398111961084
30
0
10
0.059771879273599442
20
-0.030859078831499649
30
0
10
0.11959770836702646
20
-0.008709253822765467
30
0
10
0.19945798109264504
20
0.017409986247650125
30
0
10
0.29944057503597199
20
0.044484569820835609
30
0
10
0.39958953163616906
20
0.066336276966668495
30
0
10
0.49992295639717799
20
0.08367252051917394
30
0
10
0.60047094420225333
20
0.097676689945872419
30
0
10
0.70127853842468824
20
0.11012754749017928
30
0
10
0.80238555024381364
20
0.12286695066184791
30
0
10
0.90380612796906368
20
0.13726135332561606
30
0
10
1.0055088791813911
20
0.15367736561025067
30
0
10
1.1073956363482291
20
0.17092314269091541
30
0
10
1.2092838285273348
20
0.18578074250736012
30
0
10
1.3109551156737025
20
0.19419146761331901
30
0
10
1.4122016627777565
20
0.19238685713350079
30
0
10
1.5128718873246336
20
0.17799591281657007
30
0
10
1.6129197506002526
20
0.15126601621455732
30
0
10
1.7124429907736998
20
0.11593737065228342
30
0
10
1.8116371386661774
20
0.07753150411071362
30
0
10
1.9107578566441519
20
0.041873251899495922
30
0
10
2.010080246109283
20
0.013570298573900625
30
0
10
2.1098591937293985
20
-0.0055985060725192749
30
0
10
2.210290109344434
20
-0.017945385913340318
30
0
10
2.3114826425822703
20
-0.027735635120626247
30
0
10
2.4134317270675827
20
-0.039280596226313483
30
0
10
2.5159925572529507
20
-0.055045651926304798
30
0
10
2.6188468448904749
20
-0.073510838891248084
30
0
10
2.7214931700222245
20
-0.087842579681348065
30
0
10
2.8233711337675698
20
-0.08922611817539465
30
0
10
2.9239731896975938
20
-0.06974769589508531
30
0
10
3.0229541547678189
20
-0.025240879972107048
30
0
10
3.120258498952571
20
0.041355490800157685
30
0
10
3.2161885511429706
20
0.11838292356520398
30
0
10
3.3112580757515224
20
0.19020324238800582
30
0
10
3.4060802640028109
20
0.24092224210245261
30
0
10
3.5012426345554539
20
0.25849763818350752
30
0
10
3.5971867627026994
20
0.23871716658650854
30
0
10
3.6940879950787164
20
0.1891463565945867
30
0
10
3.7919286960978682
20
0.12460788248652993
30
0
10
3.8905677889908734
20
0.062834811169004648
30
0
10
3.9898127651307389
20
0.019973736343653313
30
0
10
4.0894879329579652
20
0.0063519753335584198
30
0
10
4.1895113859054645
20
0.021592355753218662
30
0
10
4.2898676938471789
20
0.057586602472043599
30
0
10
4.3905702217333431
20
0.10225246876127111
30
0
10
4.4916264685352072
20
0.14305802526184869
30
0
10
4.5930037571783462
20
0.17052760316168009
30
0
10
4.6945903945301026
20
0.18206728993853449
30
0
10
4.796234095461541
20
0.18028577577701824
30
0
10
4.8977868128147763
20
0.17085682954943537
30
0
10
4.9991473470922063
20
0.16054733278403618
30
0
10
5.1003046835337953
20
0.15518273684683387
30
0
10
5.2013817352434817
20
0.15762225999767479
30
0
10
5.3025646770903059
20
0.16820723559823808
30
0
10
5.4040306186876474
20
0.18523185144957388
30
0
10
5.5058772362174926
20
0.20540801910093678
30
0
10
5.608048456846026
20
0.22432183472195932
30
0
10
5.7102703866961804
20
0.23691943351242783
30
0
10
5.8121614999106308
20
0.23846909016513379
30
0
10
5.9133360186295914
20
0.22552236751123764
30
0
10
6.0135062755316593
20
0.19683138377157464
30
0
10
6.1125938472034616
20
0.1543906903267325
30
0
10
6.2108127914687516
20
0.10412170472549782
30
0
10
6.3085521929707209
20
0.05403027062445636
30
0
10
6.4062790105893308
20
0.012617521933772507
30
0
10
6.5044341311817169
20
-0.01279117847774097
30
0
10
6.6033291302115416
20
-0.017717313122865331
30
0
10
6.7030488089982923
20
-0.0021050400986476676
30
0
10
6.8035158163905765
20
0.030684468661671366
30
0
10
6.9045488053767032
20
0.074769407908863605
30
0
10
7.0059222920353896
20
0.12268588342505278
30
0
10
7.1074272762630599
20
0.16630082677180244
30
0
10
7.2089272315152506
20
0.19775223896205588
30
0
10
7.3103269699854758
20
0.21061574418997792
30
0
10
7.4115451850022804
20
0.20109591993457537
30
0
10
7.5124870464392046
20
0.16914201162690989
30
0
10
7.6130134461475771
20
0.11975574206033923
30
0
10
7.712921312365614
20
0.063761964133149357
30
0
10
7.8120104384740117
20
0.014470019553150915
30
0
10
7.9101427224561318
20
-0.015298017849112234
30
0
10
8.0073028148705845
20
-0.016260610311381696
30
0
10
8.1036618162144762
20
0.014165666642751276
30
0
10
8.1996295619378206
20
0.069141018472775886
30
0
10
8.2957365612192788
20
0.13617573423758775
30
0
10
8.3925275127838947
20
0.20047116265105511
30
0
10
8.4904482713400959
20
0.24848459133172215
30
0
10
8.5897405934105642
20
0.27125600114520515
30
0
10
8.6903199001392082
20
0.26822336423344229
30
0
10
8.7918669853038711
20
0.24495963443986288
30
0
10
8.8939393352592582
20
0.21035273578282199
30
0
10
8.9960760261927231
20
0.17396991302165993
30
0
10
9.0979036825582913
20
0.14338602309941806
30
0
10
9.1992464120801358
20
0.12141568463977589
30
0
10
9.3000809089319141
20
0.10724862628975532
30
0
10
9.4004856041218527
20
0.097736043350790447
30
0
10
9.5005921257189136
20
0.088618454142965264
30
0
10
9.600535740845956
20
0.07577959291816308
30
0
10
9.7004064932185123
20
0.056482561138284711
30
0
10
9.8002584114988949
20
0.029088655165038779
30
0
10
9.8801464718899261
20
4.3622957042698546e-05
30
0
10
9.9400702351716852
20
-0.025871729769355395
30
0
10
9.9800228401412543
20
-0.044984584266528502
30
0
10
10
20
-0.055000000000000049
30
0
0
SPLINE
5
104
100
AcDbEntity
8
0
100
AcDbSpline
70
4
71
5
72
111
73
105
74
0
42
0.000000001
43
0.0000000001
44
0.0000000001
40
0
40
0
40
0
40
0
40
0
40
0
40
0.01
40
0.02
40
0.029999999999999999
40
0.040000000000000001
40
0.050000000000000003
40
0.060000000000000005
40
0.070000000000000007
40
0.080000000000000002
40
0.089999999999999997
40
0.099999999999999992
40
0.10999999999999999
40
0.11999999999999998
40
0.12999999999999998
40
0.13999999999999999
40
0.14999999999999999
40
0.16
40
0.17000000000000001
40
0.18000000000000002
40
0.19000000000000003
40
0.20000000000000004
40
0.21000000000000005
40
0.22000000000000006
40
0.23000000000000007
40
0.24000000000000007
40
0.25000000000000006
40
0.26000000000000006
40
0.27000000000000007
40
0.28000000000000008
40
0.29000000000000009
40
0.3000000000000001
40
0.31000000000000011
40
0.32000000000000012
40
0.33000000000000013
40
0.34000000000000014
40
0.35000000000000014
40
0.36000000000000015
40
0.37000000000000016
40
0.38000000000000017
40
0.39000000000000018
40
0.40000000000000019
40
0.4100000000000002
40
0.42000000000000021
40
0.43000000000000022
40
0.44000000000000022
40
0.45000000000000023
40
0.46000000000000024
40
0.47000000000000025
40
0.48000000000000026
40
0.49000000000000027
40
0.50000000000000022
40
0.51000000000000023
40
0.52000000000000024
40
0.53000000000000025
40
0.54000000000000026
40
0.55000000000000027
40
0.56000000000000028
40
0.57000000000000028
40
0.58000000000000029
40
0.5900000000000003
40
0.60000000000000031
40
0.61000000000000032
40
0.62000000000000033
40
0.63000000000000034
40
0.64000000000000035
40
0.65000000000000036
40
0.66000000000000036
40
0.67000000000000037
40
0.68000000000000038
40
0.69000000000000039
40
0.7000000000000004
40
0.71000000000000041
40
0.72000000000000042
40
0.73000000000000043
40
0.74000000000000044
40
0.75000000000000044
40
0.76000000000000045
40
0.77000000000000046
40
0.78000000000000047
40
0.79000000000000048
40
0.80000000000000049
40
0.8100000000000005
40
0.82000000000000051
40
0.83000000000000052
40
0.84000000000000052
40
0.85000000000000053
40
0.86000000000000054
40
0.87000000000000055
40
0.88000000000000056
40
0.89000000000000057
40
0.90000000000000058
40
0.91000000000000059
40
0.9200000000000006
40
0.9300000000000006
40
0.94000000000000061
40
0.95000000000000062
40
0.96000000000000063
40
0.97000000000000064
40
0.98000000000000065
40
0.99000000000000066
40
1
40
1
40
1
40
1
40
1
40
1
41
1
41
1
41
1
41
1
41
1
41
1
41
1
41
1
41
1
41
1
41
1
41
1
41
1
41
1
41
1
41
1
41
1
41
1
41
1
41
1
41
1
41
1
41
1
41
1
41
1
41
1
41
1
41
1
41
1
41
1
41
1
41
1
41
1
41
1
41
1
41
1
41
1
41
1
41
1
41
1
41
1
41
1
41
1
41
1
41
1
41
1
41
1
41
1
41
1
41
1
41
1
41
1
41
1
41
1
41
1
41
1
41
1
41
1
41
1
41
1
41
1
41
1
41
1
41
1
41
1
41
1
41
1
41
1
41
1
41
1
41
1
41
1
41
1
41
1
41
1
41
1
41
1
41
1
41
1
41
1
41
1
41
1
41
1
41
1
41
1
41
1
41
1
41
1
41
1
41
1
41
1
41
1
41
1
41
1
41
1
41
1
41
1
41
1
41
1
41
1
41
1
41
1
41
1
41
1
41
1
10
0
20
3.0549999999999997
30
0
10
0.018990076006903733
20
3.0396834198131883
30
0
10
0.057062773460748659
20
3.0101476971696606
30
0
10
0.11444945588405406
20
2.9691364702232104
30
0
10
0.19152039600245471
20
2.9210402399862097
30
0
10
0.28877910918625344
20
2.872007872550661
30
0
10
0.38694026123583719
20
2.8343823983105554
30
0
10
0.48596794302776447
20
2.8088062961120426
30
0
10
0.58580172732815561
20
2.7963166652272675
30
0
10
0.686350234416227
20
2.7985340143774255
30
0
10
0.78748701762206896
20
2.8167775176250553
30
0
10
0.88904705825672492
20
2.8510403606849466
30
0
10
0.99082250610051315
20
2.8989743336585261
30
0
10
1.0925598780979127
20
2.9549584598842267
30
0
10
1.193953473315104
20
3.008890704806555
30
0
10
1.2946890297416889
20
3.0488124508463255
30
0
10
1.3944915364318675
20
3.0638525752488706
30
0
10
1.4931723666034626
20
3.0471164475710149
30
0
10
1.5906749343226532
20
2.9984642655644977
30
0
10
1.6871259489248294
20
2.9277055280708684
30
0
10
1.7827910078891653
20
2.8508068263548729
30
0
10
1.8780238174903665
20
2.785696879134484
30
0
10
1.9732168688387945
20
2.7480288944257976
30
0
10
2.068753632507236
20
2.7473937222554912
30
0
10
2.1649547350113028
20
2.7822289266752556
30
0
10
2.2620592245892572
20
2.8418504704773722
30
0
10
2.3602198932325034
20
2.9110337135335045
30
0
10
2.4594923954350758
20
2.9739374942113277
30
0
10
2.5598303399160867
20
3.017897462744318
30
0
10
2.6610691540060079
20
3.0382826327435235
30
0
10
2.762953584851362
20
3.0383203781214196
30
0
10
2.865192231650826
20
3.0255910020536918
30
0
10
2.9675062157623016
20
3.0094239381662113
30
0
10
3.0696753508901304
20
2.9981443910367438
30
0
10
3.1715978274510248
20
2.9958254697584903
30
0
10
3.2732772270128034
20
3.0022720460506145
30
0
10
3.3747769998023935
20
3.0145185650810093
30
0
10
3.4761842043135154
20
3.027850998946894
30
0
10
3.5775720602235621
20
3.0369979610421112
30
0
10
3.6789562064878605
20
3.0373199255221319
30
0
10
3.7803002788528546
20
3.0254932153073248
30
0
10
3.8815363073558249
20
2.9999934429595152
30
0
10
3.9825802589811223
20
2.9616966357724333
30
0
10
4.0833492041039152
20
2.9143249620066189
30
0
10
4.1837788223841086
20
2.8652416174772748
30
0
10
4.2838313731171356
20
2.8236622156610824
30
0
10
4.3835013349235572
20
2.7984134012492135
30
0
10
4.4828223023453937
20
2.7957562767831834
30
0
10
4.5818724405315709
20
2.8173895852213802
30
0
10
4.6807830520567242
20
2.857829052670561
30
0
10
4.77972392510594
20
2.9067833579995406
30
0
10
4.8788839518065048
20
2.9524477864824816
30
0
10
4.9784537800148048
20
2.9846107728170415
30
0
10
5.0786067525946574
20
2.9975391355386027
30
0
10
5.1794827858362247
20
2.9937384317040494
30
0
10
5.2811555525294605
20
2.9816205418672652
30
0
10
5.3835968411643371
20
2.9716436273312996
30
0
10
5.4866392813038534
20
2.9728753100035039
30
0
10
5.589945375050613
20
2.9896003856093021
30
0
10
5.6929586190930443
20
3.0173191460822215
30
0
10
5.7950332793763479
20
3.0457006403075648
30
0
10
5.8955872804071117
20
3.0624825304033303
30
0
10
5.9942495569941361
20
3.0570854098652904
30
0
10
6.0910038876115111
20
3.0242284990210155
30
0
10
6.1863504822219975
20
2.9678684493985603
30
0
10
6.2811210959392918
20
2.8981857143085774
30
0
10
6.3762766240603259
20
2.8282020571468269
30
0
10
6.4727031741493199
20
2.7703943186780111
30
0
10
6.5710270213013864
20
2.7336305374916616
30
0
10
6.6713746152087889
20
2.7191460760470516
30
0
10
6.7734381848450553
20
2.7218728569402053
30
0
10
6.8766504860186632
20
2.7336615115607108
30
0
10
6.980326638279454
20
2.745970062741709
30
0
10
7.0838126293804935
20
2.7525718175589065
30
0
10
7.1866490594485253
20
2.7527830197621093
30
0
10
7.2885802142853002
20
2.7501846750939443
30
0
10
7.3895268227667055
20
2.7503401395688676
30
0
10
7.4895722469684758
20
2.7588222837589713
30
0
10
7.5889414903460173
20
2.7791993059684437
30
0
10
7.6879877776183143
20
2.8108023276843159
30
0
10
7.7871183904237444
20
2.8497703224764148
30
0
10
7.886715720147107
20
2.8904565940912748
30
0
10
7.9870574904073077
20
2.9267250139182792
30
0
10
8.0882429798522004
20
2.9532441293557632
30
0
10
8.1901014362213012
20
2.9669099269685777
30
0
10
8.2922837617758098
20
2.9667257469689314
30
0
10
8.3943782286774908
20
2.9534697466069124
30
0
10
8.4960186015480623
20
2.9294408654693891
30
0
10
8.5969932356656873
20
2.8981688948832094
30
0
10
8.6973599117849574
20
2.8641515862187799
30
0
10
8.7973563076946579
20
2.8322319507823974
30
0
10
8.8973025293751711
20
2.8069663091612984
30
0
10
8.9975062158333543
20
2.7919920430226215
30
0
10
9.0981675350772413
20
2.7894028574487213
30
0
10
9.1992815112063973
20
2.7990981791304863
30
0
10
9.3006939741535444
20
2.8193886526094012
30
0
10
9.4021610758414003
20
2.8476302606860822
30
0
10
9.5034071176456028
20
2.8808439348354771
30
0
10
9.6041837484856263
20
2.9163483132158512
30
0
10
9.7043266502128684
20
2.952366254549502
30
0
10
9.8037373013674038
20
2.9878293464679602
30
0
10
9.8826409419140013
20
3.0153299639798048
30
0
10
9.9414599496732006
20
3.0353862664908871
30
0
10
9.9805132173366484
20
3.0485042390237735
30
0
10
10
20
3.0549999999999997
30
0
0
ENDSEC
0
SECTION
2
OBJECTS
0
DICTIONARY
5
C
100
AcDbDictionary
3
ACAD_GROUP
350
D
3
ACAD_MLINESTYLE
350
17
0
DICTIONARY
5
D
100
AcDbDictionary
0
DICTIONARY
5
1A
330
C
100
AcDbDictionary
0
DICTIONARY
5
17
100
AcDbDictionary
0
ENDSEC
0
EOF
