0
SECTION
2
HEADER
9
$INSUNITS
70
4
9
$ACADVER
1
AC1014
9
$HANDSEED
5
FFFF
0
ENDSEC
0
SECTION
2
TABLES
0
TABLE
2
VPORT
5
8
100
AcDbSymbolTable
0
ENDTAB
0
TABLE
2
LTYPE
5
5
100
AcDbSymbolTable
0
LTYPE
5
14
100
AcDbSymbolTableRecord
100
AcDbLinetypeTableRecord
2
BYBLOCK
70
0
0
LTYPE
5
15
100
AcDbSymbolTableRecord
100
AcDbLinetypeTableRecord
2
BYLAYER
70
0
0
ENDTAB
0
TABLE
2
LAYER
5
2
100
AcDbSymbolTable
70
2
0
LAYER
5
50
100
AcDbSymbolTableRecord
100
AcDbLayerTableRecord
2
0
70
0
6
CONTINUOUS
0
ENDTAB
0
TABLE
2
STYLE
5
3
100
AcDbSymbolTable
70
1
0
STYLE
5
11
100
AcDbSymbolTableRecord
100
AcDbTextStyleTableRecord
2
STANDARD
70
0
0
ENDTAB
0
TABLE
2
VIEW
5
6
100
AcDbSymbolTable
70
0
0
ENDTAB
0
TABLE
2
UCS
5
7
100
AcDbSymbolTable
70
0
0
ENDTAB
0
TABLE
2
APPID
5
9
100
AcDbSymbolTable
70
2
0
APPID
5
12
100
AcDbSymbolTableRecord
100
AcDbRegAppTableRecord
2
ACAD
70
0
0
ENDTAB
0
TABLE
2
DIMSTYLE
5
A
100
AcDbSymbolTable
70
1
0
ENDTAB
0
TABLE
2
BLOCK_RECORD
5
1
100
AcDbSymbolTable
70
1
0
BLOCK_RECORD
5
1F
100
AcDbSymbolTableRecord
100
AcDbBlockTableRecord
2
*MODEL_SPACE
0
BLOCK_RECORD
5
1B
100
AcDbSymbolTableRecord
100
AcDbBlockTableRecord
2
*PAPER_SPACE
0
ENDTAB
0
ENDSEC
0
SECTION
2
BLOCKS
0
BLOCK
5
20
100
AcDbEntity
100
AcDbBlockBegin
2
*MODEL_SPACE
0
ENDBLK
5
21
100
AcDbEntity
100
AcDbBlockEnd
0
BLOCK
5
1C
100
AcDbEntity
100
AcDbBlockBegin
2
*PAPER_SPACE
0
ENDBLK
5
1D
100
AcDbEntity
100
AcDbBlockEnd
0
ENDSEC
0
SECTION
2
ENTITIES
0
SPLINE
5
100
100
AcDbEntity
8
0
100
AcDbSpline
70
4
71
5
72
16
73
10
74
0
42
0.000000001
43
0.0000000001
44
0.0000000001
40
0
40
0
40
0
40
0
40
0
40
0
40
0.20000000000000001
40
0.40000000000000002
40
0.60000000000000009
40
0.80000000000000004
40
1
40
1
40
1
40
1
40
1
40
1
41
1
41
1
41
1
41
1
41
1
41
1
41
1
41
1
41
1
41
1
10
0
20
-0.055000000000000049
30
0
10
0
20
0.069400000000207365
30
0
10
0
20
0.31820000000056603
30
0
10
0
20
0.69140000000093593
30
0
10
0
20
1.1890000000011365
30
0
10
0
20
1.8110000000010393
30
0
10
0
20
2.3086000000007481
30
0
10
0
20
2.6818000000004227
30
0
10
0
20
2.9306000000001484
30
0
10
0
20
3.0549999999999997
30
0
0
SPLINE
5
101
100
AcDbEntity
8
0
100
AcDbSpline
70
4
71
5
72
16
73
10
74
0
42
0.000000001
43
0.0000000001
44
0.0000000001
40
0
40
0
40
0
40
0
40
0
40
0
40
0.20000000000000001
40
0.40000000000000002
40
0.60000000000000009
40
0.80000000000000004
40
1
40
1
40
1
40
1
40
1
40
1
41
1
41
1
41
1
41
1
41
1
41
1
41
1
41
1
41
1
41
1
10
10
20
-0.055000000000000049
30
0
10
9.9999999999997495
20
0.069400000000207365
30
0
10
9.9999999999993197
20
0.31820000000056603
30
0
10
9.9999999999989129
20
0.69140000000093593
30
0
10
9.9999999999987672
20
1.1890000000011365
30
0
10
9.9999999999990248
20
1.8110000000010393
30
0
10
9.9999999999993889
20
2.3086000000007481
30
0
10
9.9999999999996998
20
2.6818000000004227
30
0
10
9.9999999999999005
20
2.9306000000001484
30
0
10
10
20
3.0549999999999997
30
0
0
SPLINE
5
102
100
AcDbEntity
8
0
100
AcDbSpline
70
4
71
5
72
16
73
10
74
0
42
0.000000001
43
0.0000000001
44
0.0000000001
40
0
40
0
40
0
40
0
40
0
40
0
40
0.20000000000000001
40
0.40000000000000002
40
0.60000000000000009
40
0.80000000000000004
40
1
40
1
40
1
40
1
40
1
40
1
41
1
41
1
41
1
41
1
41
1
41
1
41
1
41
1
41
1
41
1
10
0
20
1.5274999999999999
30
0
10
0.40000000000047375
20
1.5274999999999856
30
0
10
1.2000000000012774
20
1.5274999999999614
30
0
10
2.4000000000020547
20
1.527499999999943
30
0
10
4.0000000000023546
20
1.5274999999999479
30
0
10
6.0000000000019584
20
1.5274999999999812
30
0
10
7.6000000000012928
20
1.5275000000000025
30
0
10
8.800000000000697
20
1.5275000000000083
30
0
10
9.6000000000002395
20
1.5275000000000039
30
0
10
10
20
1.5274999999999999
30
0
0
SPLINE
5
103
100
AcDbEntity
8
0
100
AcDbSpline
70
4
71
5
72
111
73
105
74
0
42
0.000000001
43
0.0000000001
44
0.0000000001
40
0
40
0
40
0
40
0
40
0
40
0
40
0.01
40
0.02
40
0.029999999999999999
40
0.040000000000000001
40
0.050000000000000003
40
0.060000000000000005
40
0.070000000000000007
40
0.080000000000000002
40
0.089999999999999997
40
0.099999999999999992
40
0.10999999999999999
40
0.11999999999999998
40
0.12999999999999998
40
0.13999999999999999
40
0.14999999999999999
40
0.16
40
0.17000000000000001
40
0.18000000000000002
40
0.19000000000000003
40
0.20000000000000004
40
0.21000000000000005
40
0.22000000000000006
40
0.23000000000000007
40
0.24000000000000007
40
0.25000000000000006
40
0.26000000000000006
40
0.27000000000000007
40
0.28000000000000008
40
0.29000000000000009
40
0.3000000000000001
40
0.31000000000000011
40
0.32000000000000012
40
0.33000000000000013
40
0.34000000000000014
40
0.35000000000000014
40
0.36000000000000015
40
0.37000000000000016
40
0.38000000000000017
40
0.39000000000000018
40
0.40000000000000019
40
0.4100000000000002
40
0.42000000000000021
40
0.43000000000000022
40
0.44000000000000022
40
0.45000000000000023
40
0.46000000000000024
40
0.47000000000000025
40
0.48000000000000026
40
0.49000000000000027
40
0.50000000000000022
40
0.51000000000000023
40
0.52000000000000024
40
0.53000000000000025
40
0.54000000000000026
40
0.55000000000000027
40
0.56000000000000028
40
0.57000000000000028
40
0.58000000000000029
40
0.5900000000000003
40
0.60000000000000031
40
0.61000000000000032
40
0.62000000000000033
40
0.63000000000000034
40
0.64000000000000035
40
0.65000000000000036
40
0.66000000000000036
40
0.67000000000000037
40
0.68000000000000038
40
0.69000000000000039
40
0.7000000000000004
40
0.71000000000000041
40
0.72000000000000042
40
0.73000000000000043
40
0.74000000000000044
40
0.75000000000000044
40
0.76000000000000045
40
0.77000000000000046
40
0.78000000000000047
40
0.79000000000000048
40
0.80000000000000049
40
0.8100000000000005
40
0.82000000000000051
40
0.83000000000000052
40
0.84000000000000052
40
0.85000000000000053
40
0.86000000000000054
40
0.87000000000000055
40
0.88000000000000056
40
0.89000000000000057
40
0.90000000000000058
40
0.91000000000000059
40
0.9200000000000006
40
0.9300000000000006
40
0.94000000000000061
40
0.95000000000000062
40
0.96000000000000063
40
0.97000000000000064
40
0.98000000000000065
40
0.99000000000000066
40
1
40
1
40
1
40
1
40
1
40
1
41
1
41
1
41
1
41
1
41
1
41
1
41
1
41
1
41
1
41
1
41
1
41
1
41
1
41
1
41
1
41
1
41
1
41
1
41
1
41
1
41
1
41
1
41
1
41
1
41
1
41
1
41
1
41
1
41
1
41
1
41
1
41
1
41
1
41
1
41
1
41
1
41
1
41
1
41
1
41
1
41
1
41
1
41
1
41
1
41
1
41
1
41
1
41
1
41
1
41
1
41
1
41
1
41
1
41
1
41
1
41
1
41
1
41
1
41
1
41
1
41
1
41
1
41
1
41
1
41
1
41
1
41
1
41
1
41
1
41
1
41
1
41
1
41
1
41
1
41
1
41
1
41
1
41
1
41
1
41
1
41
1
41
1
41
1
41
1
41
1
41
1
41
1
41
1
41
1
41
1
41
1
41
1
41
1
41
1
41
1
41
1
41
1
41
1
41
1
41
1
41
1
41
1
41
1
41
1
41
1
10
0
20
-0.055000000000000049
30
0
10
0.020052275803761479
20
-0.054505387269194842
30
0
10
0.060143581519430792
20
-0.052784433674616237
30
0
10
0.12024080242826259
20
-0.048007820090502876
30
0
10
0.20029094194048833
20
-0.037247910053034489
30
0
10
0.30022461416863422
20
-0.016737318977679785
30
0
10
0.40003984909195112
20
0.010053537756079931
30
0
10
0.49975788203935345
20
0.041557681755905934
30
0
10
0.5994141968704394
20
0.075158578392697406
30
0
10
0.69906214121225907
20
0.10692329922629444
30
0
10
0.79876422473727338
20
0.13257985141831441
30
0
10
0.89858340082341215
20
0.1484950457843448
30
0
10
0.99857434141270363
20
0.15265670801188636
30
0
10
1.0987747445877969
20
0.14564512124736342
30
0
10
1.1991965251151995
20
0.13163797034079727
30
0
10
1.2998256895262732
20
0.11669542730476837
30
0
10
1.4006222816695471
20
0.10700815344507114
30
0
10
1.5015203355659033
20
0.10716677173934047
30
0
10
1.6024276894474996
20
0.11840450757236073
30
0
10
1.7032261618196298
20
0.13689625936712446
30
0
10
1.8037969160278493
20
0.15594395578928782
30
0
10
1.9040456616815771
20
0.16811918230403983
30
0
10
2.0039275855667023
20
0.1674008024729271
30
0
10
2.1034732204396569
20
0.15136146675541506
30
0
10
2.2028117353853012
20
0.12320560499408706
30
0
10
2.302122319289801
20
0.089602669848703687
30
0
10
2.4015878843507634
20
0.058659026762316595
30
0
10
2.5013480965242185
20
0.037845385605128457
30
0
10
2.6014522414781398
20
0.031928717383238339
30
0
10
2.7018132952308296
20
0.04094057556276634
30
0
10
2.8022665482013909
20
0.061691540584954976
30
0
10
2.9026270375964329
20
0.089241281519461091
30
0
10
3.002746999247063
20
0.11837594125889647
30
0
10
3.1025742523978304
20
0.14510000419932756
30
0
10
3.2022076543027698
20
0.16807199712536583
30
0
10
3.3018306512010112
20
0.18765130229680266
30
0
10
3.4016475638145134
20
0.20499973123347029
30
0
10
3.5018192106327701
20
0.2211680698991646
30
0
10
3.6023980222268586
20
0.23617813269266871
30
0
10
3.7032654464349251
20
0.24813652242426379
30
0
10
3.8042074179481649
20
0.25429428489957329
30
0
10
3.9049879650450721
20
0.2520817719009335
30
0
10
4.0054224124550899
20
0.24013485067383811
30
0
10
4.1054532542566999
20
0.21936673903331011
30
0
10
4.2052179799934031
20
0.19390543600032759
30
0
10
4.3049577397265191
20
0.16938873433200208
30
0
10
4.404932585943957
20
0.15136588889879871
30
0
10
4.5053355577218523
20
0.14368549138855405
30
0
10
4.6062042367953611
20
0.14682780486130295
30
0
10
4.7073417067012535
20
0.15642906335824214
30
0
10
4.8084240905612097
20
0.16557060400105217
30
0
10
4.9091005478946554
20
0.16691863006174373
30
0
10
5.0090938097638107
20
0.15486885123520472
30
0
10
5.1083057843754345
20
0.12780767341478452
30
0
10
5.2069059909957902
20
0.089987950213725604
30
0
10
5.3052224083783237
20
0.048988221588604636
30
0
10
5.4036465241352802
20
0.013488020930841598
30
0
10
5.5025336194270613
20
-0.0090609020822432513
30
0
10
5.602103732464224
20
-0.014754326068352953
30
0
10
5.7023459923689757
20
-0.0054643224716203771
30
0
10
5.8030954607347578
20
0.013373807220843879
30
0
10
5.9041059929070183
20
0.034876820282783619
30
0
10
6.0051237997430684
20
0.052837736469787532
30
0
10
6.1059623763499893
20
0.06390750253019338
30
0
10
6.2065721320139513
20
0.069581611457595033
30
0
10
6.3069946885973867
20
0.074055400314049183
30
0
10
6.4073219035373903
20
0.082236403810755393
30
0
10
6.5076537414591211
20
0.097742093204831432
30
0
10
6.608055286851787
20
0.12080205006223456
30
0
10
6.7085179931270194
20
0.14648690920875843
30
0
10
6.8089815791106361
20
0.16734172596737276
30
0
10
6.9093520683911338
20
0.17577083219303702
30
0
10
7.0095211908512622
20
0.16645281233284584
30
0
10
7.1093853700454526
20
0.13889162648908235
30
0
10
7.2088643688557603
20
0.099487667385796383
30
0
10
7.3079130068054541
20
0.058407346337800731
30
0
10
7.4065336411234304
20
0.026838119164391241
30
0
10
7.5047880290372291
20
0.014129083946032992
30
0
10
7.6028103187625007
20
0.024906930808509524
30
0
10
7.7008172701283728
20
0.056404511736635729
30
0
10
7.7990576998452275
20
0.10109447437087538
30
0
10
7.8977646038696827
20
0.14909217300898228
30
0
10
7.9971059219178304
20
0.19065581786971705
30
0
10
8.0971366487368464
20
0.21861665456020407
30
0
10
8.1977480870549364
20
0.23091794146848715
30
0
10
8.2987280404961847
20
0.22926950317488104
30
0
10
8.3998237989200764
20
0.21770745743986281
30
0
10
8.500803957815311
20
0.20119202228049946
30
0
10
8.6015209695543344
20
0.18418651810081738
30
0
10
8.7019727735267889
20
0.16925451570227945
30
0
10
8.8022520994018638
20
0.15744260386549278
30
0
10
8.902496373854941
20
0.14865242057629258
30
0
10
9.0028377297284905
20
0.14201469036387965
30
0
10
9.1033523203187769
20
0.13626427577058495
30
0
10
9.2040117386343141
20
0.13010749269430832
30
0
10
9.3047148490881586
20
0.1222780870817145
30
0
10
9.4053177054810426
20
0.1116015253246008
30
0
10
9.5056638778261977
20
0.097055414641779997
30
0
10
9.6056152223466249
20
0.077833527871718433
30
0
10
9.7050806835723087
20
0.053403152146196439
30
0
10
9.80400562071679
20
0.023446300021199892
30
0
10
9.8826915470936889
20
-0.0050656208724384217
30
0
10
9.9414466216546558
20
-0.029029621764498376
30
0
10
9.9805014164466179
20
-0.046152123512998987
30
0
10
10
20
-0.055000000000000049
30
0
0
SPLINE
5
104
100
AcDbEntity
8
0
100
AcDbSpline
70
4
71
5
72
111
73
105
74
0
42
0.000000001
43
0.0000000001
44
0.0000000001
40
0
40
0
40
0
40
0
40
0
40
0
40
0.01
40
0.02
40
0.029999999999999999
40
0.040000000000000001
40
0.050000000000000003
40
0.060000000000000005
40
0.070000000000000007
40
0.080000000000000002
40
0.089999999999999997
40
0.099999999999999992
40
0.10999999999999999
40
0.11999999999999998
40
0.12999999999999998
40
0.13999999999999999
40
0.14999999999999999
40
0.16
40
0.17000000000000001
40
0.18000000000000002
40
0.19000000000000003
40
0.20000000000000004
40
0.21000000000000005
40
0.22000000000000006
40
0.23000000000000007
40
0.24000000000000007
40
0.25000000000000006
40
0.26000000000000006
40
0.27000000000000007
40
0.28000000000000008
40
0.29000000000000009
40
0.3000000000000001
40
0.31000000000000011
40
0.32000000000000012
40
0.33000000000000013
40
0.34000000000000014
40
0.35000000000000014
40
0.36000000000000015
40
0.37000000000000016
40
0.38000000000000017
40
0.39000000000000018
40
0.40000000000000019
40
0.4100000000000002
40
0.42000000000000021
40
0.43000000000000022
40
0.44000000000000022
40
0.45000000000000023
40
0.46000000000000024
40
0.47000000000000025
40
0.48000000000000026
40
0.49000000000000027
40
0.50000000000000022
40
0.51000000000000023
40
0.52000000000000024
40
0.53000000000000025
40
0.54000000000000026
40
0.55000000000000027
40
0.56000000000000028
40
0.57000000000000028
40
0.58000000000000029
40
0.5900000000000003
40
0.60000000000000031
40
0.61000000000000032
40
0.62000000000000033
40
0.63000000000000034
40
0.64000000000000035
40
0.65000000000000036
40
0.66000000000000036
40
0.67000000000000037
40
0.68000000000000038
40
0.69000000000000039
40
0.7000000000000004
40
0.71000000000000041
40
0.72000000000000042
40
0.73000000000000043
40
0.74000000000000044
40
0.75000000000000044
40
0.76000000000000045
40
0.77000000000000046
40
0.78000000000000047
40
0.79000000000000048
40
0.80000000000000049
40
0.8100000000000005
40
0.82000000000000051
40
0.83000000000000052
40
0.84000000000000052
40
0.85000000000000053
40
0.86000000000000054
40
0.87000000000000055
40
0.88000000000000056
40
0.89000000000000057
40
0.90000000000000058
40
0.91000000000000059
40
0.9200000000000006
40
0.9300000000000006
40
0.94000000000000061
40
0.95000000000000062
40
0.96000000000000063
40
0.97000000000000064
40
0.98000000000000065
40
0.99000000000000066
40
1
40
1
40
1
40
1
40
1
40
1
41
1
41
1
41
1
41
1
41
1
41
1
41
1
41
1
41
1
41
1
41
1
41
1
41
1
41
1
41
1
41
1
41
1
41
1
41
1
41
1
41
1
41
1
41
1
41
1
41
1
41
1
41
1
41
1
41
1
41
1
41
1
41
1
41
1
41
1
41
1
41
1
41
1
41
1
41
1
41
1
41
1
41
1
41
1
41
1
41
1
41
1
41
1
41
1
41
1
41
1
41
1
41
1
41
1
41
1
41
1
41
1
41
1
41
1
41
1
41
1
41
1
41
1
41
1
41
1
41
1
41
1
41
1
41
1
41
1
41
1
41
1
41
1
41
1
41
1
41
1
41
1
41
1
41
1
41
1
41
1
41
1
41
1
41
1
41
1
41
1
41
1
41
1
41
1
41
1
41
1
41
1
41
1
41
1
41
1
41
1
41
1
41
1
41
1
41
1
41
1
41
1
41
1
41
1
41
1
41
1
10
0
20
3.0549999999999997
30
0
10
0.019755745321125628
20
3.0468300035395779
30
0
10
0.059290658140618582
20
3.0308912994835451
30
0
10
0.11866329435549
20
3.0081871170136214
30
0
10
0.1979673622109861
20
2.9803229518440388
30
0
10
0.29733759922428321
20
2.9496126879444917
30
0
10
0.39696538093110667
20
2.9233367961464394
30
0
10
0.49688545767525449
20
2.9021233347369142
30
0
10
0.59715533150059874
20
2.8870124403265827
30
0
10
0.6978619337954256
20
2.879574634064662
30
0
10
0.79907765935605468
20
2.8812527049292838
30
0
10
0.90081461555017517
20
2.8926771057838163
30
0
10
1.0029801636304994
20
2.9129992947791372
30
0
10
1.1053303076102297
20
2.9391966526081159
30
0
10
1.207428170580487
20
2.965443407380814
30
0
10
1.3087747278161035
20
2.9847396390213428
30
0
10
1.40893661063867
20
2.9904977055026927
30
0
10
1.5076720311064649
20
2.9781132719934957
30
0
10
1.605064552656378
20
2.9466164572208093
30
0
10
1.7016338721477138
20
2.9000838746288471
30
0
10
1.7981257410873199
20
2.8457152665537038
30
0
10
1.895323185168287
20
2.7921272174471468
30
0
10
1.9938470272866702
20
2.7475476642629388
30
0
10
2.0939670799298611
20
2.7180946985634256
30
0
10
2.1953917368990239
20
2.7059039962744622
30
0
10
2.2974697298729159
20
2.7100539381629769
30
0
10
2.3994145984112203
20
2.7276434367824005
30
0
10
2.5005207200867083
20
2.7548126569015814
30
0
10
2.6003830798918166
20
2.7877875198722526
30
0
10
2.6991151186051803
20
2.8239121427937519
30
0
10
2.797170195010672
20
2.8612787891504459
30
0
10
2.8951647635601145
20
2.8983629771401809
30
0
10
2.9936989931622944
20
2.9336493353527375
30
0
10
3.093183280345448
20
2.9652793160011988
30
0
10
3.1936491865624879
20
2.990641081539172
30
0
10
3.2948607571244404
20
3.0070734918486841
30
0
10
3.396443349619787
20
3.0126334397746177
30
0
10
3.4980064681970964
20
3.0068462681904058
30
0
10
3.5992679949447854
20
2.9914510777360763
30
0
10
3.7001808881284215
20
2.9711858816995145
30
0
10
3.8008582595040559
20
2.9520985623819689
30
0
10
3.9014943317391388
20
2.939803836241595
30
0
10
4.0022873335120419
20
2.9377741664541199
30
0
10
4.1033608135917614
20
2.9455829705068992
30
0
10
4.2046877671003289
20
2.9572545929964238
30
0
10
4.3061326301926268
20
2.9641628030133331
30
0
10
4.4074909738610231
20
2.9578712346201064
30
0
10
4.5085297722938957
20
2.9329246610120796
30
0
10
4.6090279276967081
20
2.8898257316439899
30
0
10
4.7088151689468525
20
2.8374697810011091
30
0
10
4.8077889226381902
20
2.7890103947592291
30
0
10
4.9059329167847894
20
2.7581596183881238
30
0
10
5.0033348322380879
20
2.7553551596443855
30
0
10
5.1002052387043388
20
2.7839107219341717
30
0
10
5.196893766658409
20
2.8363721253818186
30
0
10
5.2938119881604484
20
2.898959173920717
30
0
10
5.3913598114495143
20
2.9557217646390082
30
0
10
5.4898489126431302
20
2.9928926234995235
30
0
10
5.5894311795747367
20
3.0029467859888377
30
0
10
5.6900147378758756
20
2.9893532091174668
30
0
10
5.7913315369769958
20
2.9629488779361473
30
0
10
5.8930199437771771
20
2.9374915421133343
30
0
10
5.9947025060594754
20
2.9254601229831385
30
0
10
6.0960643211054668
20
2.9338619684825966
30
0
10
6.196934980242526
20
2.959732701942972
30
0
10
6.2972694191134835
20
2.9935882948761972
30
0
10
6.3971234288527707
20
3.0232764904027243
30
0
10
6.4966312700237889
20
3.0377072055900349
30
0
10
6.5959822877539995
20
3.0305709006000559
30
0
10
6.6953984545482728
20
3.0042368711518845
30
0
10
6.7950951132213033
20
2.9668078894472809
30
0
10
6.8952415371550284
20
2.9289639440092747
30
0
10
6.9959209672293472
20
2.9008622664359134
30
0
10
7.0970921088143317
20
2.8890681122437085
30
0
10
7.198546397432839
20
2.8933223750988302
30
0
10
7.2999909818753208
20
2.9085521368086242
30
0
10
7.4011365684894574
20
2.9270792106702332
30
0
10
7.5017830225010851
20
2.9407484037324845
30
0
10
7.6019069984455614
20
2.943101628235969
30
0
10
7.7017459442662446
20
2.9314977902487191
30
0
10
7.8016658343532042
20
2.9064582147736906
30
0
10
7.9020314155836981
20
2.8710529047102389
30
0
10
8.0030768095781539
20
2.8302711651971002
30
0
10
8.1047729771921446
20
2.7904058685470372
30
0
10
8.2067044950964032
20
2.7584178923944003
30
0
10
8.3082571044567359
20
2.7408034099446335
30
0
10
8.4087982756984498
20
2.7424592986862151
30
0
10
8.5078568714715228
20
2.7655779835470309
30
0
10
8.6053113161031156
20
2.8084595355279012
30
0
10
8.7015513219922465
20
2.8645529449559417
30
0
10
8.7972729140811285
20
2.9246370161304833
30
0
10
8.8932982285354427
20
2.9787849518329339
30
0
10
8.9903828231940004
20
3.0184472151874524
30
0
10
9.0890356940567436
20
3.0383990705246506
30
0
10
9.1893138421462695
20
3.0389776429233488
30
0
10
9.2909290630847199
20
3.0247139455044536
30
0
10
9.393383691582784
20
3.0026300643145074
30
0
10
9.4960965567646856
20
2.9806487786477547
30
0
10
9.5985312966017133
20
2.9659782650994337
30
0
10
9.7003282520074965
20
2.9634486505459274
30
0
10
9.801272928168574
20
2.9759397421052043
30
0
10
9.8812611038457163
20
2.9990991154064424
30
0
10
9.9408046069287401
20
3.0240871989398417
30
0
10
9.9803013554284039
20
3.0441314769082313
30
0
10
10
20
3.0549999999999997
30
0
0
ENDSEC
0
SECTION
2
OBJECTS
0
DICTIONARY
5
C
100
AcDbDictionary
3
ACAD_GROUP
350
D
3
ACAD_MLINESTYLE
350
17
0
DICTIONARY
5
D
100
AcDbDictionary
0
DICTIONARY
5
1A
330
C
100
AcDbDictionary
0
DICTIONARY
5
17
100
AcDbDictionary
0
ENDSEC
0
EOF
