0
SECTION
2
HEADER
9
$INSUNITS
70
4
9
$ACADVER
1
AC1014
9
$HANDSEED
5
FFFF
0
ENDSEC
0
SECTION
2
TABLES
0
TABLE
2
VPORT
5
8
100
AcDbSymbolTable
0
ENDTAB
0
TABLE
2
LTYPE
5
5
100
AcDbSymbolTable
0
LTYPE
5
14
100
AcDbSymbolTableRecord
100
AcDbLinetypeTableRecord
2
BYBLOCK
70
0
0
LTYPE
5
15
100
AcDbSymbolTableRecord
100
AcDbLinetypeTableRecord
2
BYLAYER
70
0
0
ENDTAB
0
TABLE
2
LAYER
5
2
100
AcDbSymbolTable
70
2
0
LAYER
5
50
100
AcDbSymbolTableRecord
100
AcDbLayerTableRecord
2
0
70
0
6
CONTINUOUS
0
ENDTAB
0
TABLE
2
STYLE
5
3
100
AcDbSymbolTable
70
1
0
STYLE
5
11
100
AcDbSymbolTableRecord
100
AcDbTextStyleTableRecord
2
STANDARD
70
0
0
ENDTAB
0
TABLE
2
VIEW
5
6
100
AcDbSymbolTable
70
0
0
ENDTAB
0
TABLE
2
UCS
5
7
100
AcDbSymbolTable
70
0
0
ENDTAB
0
TABLE
2
APPID
5
9
100
AcDbSymbolTable
70
2
0
APPID
5
12
100
AcDbSymbolTableRecord
100
AcDbRegAppTableRecord
2
ACAD
70
0
0
ENDTAB
0
TABLE
2
DIMSTYLE
5
A
100
AcDbSymbolTable
70
1
0
ENDTAB
0
TABLE
2
BLOCK_RECORD
5
1
100
AcDbSymbolTable
70
1
0
BLOCK_RECORD
5
1F
100
AcDbSymbolTableRecord
100
AcDbBlockTableRecord
2
*MODEL_SPACE
0
BLOCK_RECORD
5
1B
100
AcDbSymbolTableRecord
100
AcDbBlockTableRecord
2
*PAPER_SPACE
0
ENDTAB
0
ENDSEC
0
SECTION
2
BLOCKS
0
BLOCK
5
20
100
AcDbEntity
100
AcDbBlockBegin
2
*MODEL_SPACE
0
ENDBLK
5
21
100
AcDbEntity
100
AcDbBlockEnd
0
BLOCK
5
1C
100
AcDbEntity
100
AcDbBlockBegin
2
*PAPER_SPACE
0
ENDBLK
5
1D
100
AcDbEntity
100
AcDbBlockEnd
0
ENDSEC
0
SECTION
2
ENTITIES
0
SPLINE
5
100
100
AcDbEntity
8
0
100
AcDbSpline
70
4
71
5
72
16
73
10
74
0
42
0.000000001
43
0.0000000001
44
0.0000000001
40
0
40
0
40
0
40
0
40
0
40
0
40
0.20000000000000001
40
0.40000000000000002
40
0.60000000000000009
40
0.80000000000000004
40
1
40
1
40
1
40
1
40
1
40
1
41
1
41
1
41
1
41
1
41
1
41
1
41
1
41
1
41
1
41
1
10
0
20
-0.055000000000000049
30
0
10
0
20
0.069400000000207365
30
0
10
0
20
0.31820000000056603
30
0
10
0
20
0.69140000000093593
30
0
10
0
20
1.1890000000011365
30
0
10
0
20
1.8110000000010393
30
0
10
0
20
2.3086000000007481
30
0
10
0
20
2.6818000000004227
30
0
10
0
20
2.9306000000001484
30
0
10
0
20
3.0549999999999997
30
0
0
SPLINE
5
101
100
AcDbEntity
8
0
100
AcDbSpline
70
4
71
5
72
16
73
10
74
0
42
0.000000001
43
0.0000000001
44
0.0000000001
40
0
40
0
40
0
40
0
40
0
40
0
40
0.20000000000000001
40
0.40000000000000002
40
0.60000000000000009
40
0.80000000000000004
40
1
40
1
40
1
40
1
40
1
40
1
41
1
41
1
41
1
41
1
41
1
41
1
41
1
41
1
41
1
41
1
10
10
20
-0.055000000000000049
30
0
10
9.9999999999997495
20
0.069400000000207365
30
0
10
9.9999999999993197
20
0.31820000000056603
30
0
10
9.9999999999989129
20
0.69140000000093593
30
0
10
9.9999999999987672
20
1.1890000000011365
30
0
10
9.9999999999990248
20
1.8110000000010393
30
0
10
9.9999999999993889
20
2.3086000000007481
30
0
10
9.9999999999996998
20
2.6818000000004227
30
0
10
9.9999999999999005
20
2.9306000000001484
30
0
10
10
20
3.0549999999999997
30
0
0
SPLINE
5
102
100
AcDbEntity
8
0
100
AcDbSpline
70
4
71
5
72
16
73
10
74
0
42
0.000000001
43
0.0000000001
44
0.0000000001
40
0
40
0
40
0
40
0
40
0
40
0
40
0.20000000000000001
40
0.40000000000000002
40
0.60000000000000009
40
0.80000000000000004
40
1
40
1
40
1
40
1
40
1
40
1
41
1
41
1
41
1
41
1
41
1
41
1
41
1
41
1
41
1
41
1
10
0
20
1.5274999999999999
30
0
10
0.40000000000047375
20
1.5274999999999856
30
0
10
1.2000000000012774
20
1.5274999999999614
30
0
10
2.4000000000020547
20
1.527499999999943
30
0
10
4.0000000000023546
20
1.5274999999999479
30
0
10
6.0000000000019584
20
1.5274999999999812
30
0
10
7.6000000000012928
20
1.5275000000000025
30
0
10
8.800000000000697
20
1.5275000000000083
30
0
10
9.6000000000002395
20
1.5275000000000039
30
0
10
10
20
1.5274999999999999
30
0
0
SPLINE
5
103
100
AcDbEntity
8
0
100
AcDbSpline
70
4
71
5
72
111
73
105
74
0
42
0.000000001
43
0.0000000001
44
0.0000000001
40
0
40
0
40
0
40
0
40
0
40
0
40
0.01
40
0.02
40
0.029999999999999999
40
0.040000000000000001
40
0.050000000000000003
40
0.060000000000000005
40
0.070000000000000007
40
0.080000000000000002
40
0.089999999999999997
40
0.099999999999999992
40
0.10999999999999999
40
0.11999999999999998
40
0.12999999999999998
40
0.13999999999999999
40
0.14999999999999999
40
0.16
40
0.17000000000000001
40
0.18000000000000002
40
0.19000000000000003
40
0.20000000000000004
40
0.21000000000000005
40
0.22000000000000006
40
0.23000000000000007
40
0.24000000000000007
40
0.25000000000000006
40
0.26000000000000006
40
0.27000000000000007
40
0.28000000000000008
40
0.29000000000000009
40
0.3000000000000001
40
0.31000000000000011
40
0.32000000000000012
40
0.33000000000000013
40
0.34000000000000014
40
0.35000000000000014
40
0.36000000000000015
40
0.37000000000000016
40
0.38000000000000017
40
0.39000000000000018
40
0.40000000000000019
40
0.4100000000000002
40
0.42000000000000021
40
0.43000000000000022
40
0.44000000000000022
40
0.45000000000000023
40
0.46000000000000024
40
0.47000000000000025
40
0.48000000000000026
40
0.49000000000000027
40
0.50000000000000022
40
0.51000000000000023
40
0.52000000000000024
40
0.53000000000000025
40
0.54000000000000026
40
0.55000000000000027
40
0.56000000000000028
40
0.57000000000000028
40
0.58000000000000029
40
0.5900000000000003
40
0.60000000000000031
40
0.61000000000000032
40
0.62000000000000033
40
0.63000000000000034
40
0.64000000000000035
40
0.65000000000000036
40
0.66000000000000036
40
0.67000000000000037
40
0.68000000000000038
40
0.69000000000000039
40
0.7000000000000004
40
0.71000000000000041
40
0.72000000000000042
40
0.73000000000000043
40
0.74000000000000044
40
0.75000000000000044
40
0.76000000000000045
40
0.77000000000000046
40
0.78000000000000047
40
0.79000000000000048
40
0.80000000000000049
40
0.8100000000000005
40
0.82000000000000051
40
0.83000000000000052
40
0.84000000000000052
40
0.85000000000000053
40
0.86000000000000054
40
0.87000000000000055
40
0.88000000000000056
40
0.89000000000000057
40
0.90000000000000058
40
0.91000000000000059
40
0.9200000000000006
40
0.9300000000000006
40
0.94000000000000061
40
0.95000000000000062
40
0.96000000000000063
40
0.97000000000000064
40
0.98000000000000065
40
0.99000000000000066
40
1
40
1
40
1
40
1
40
1
40
1
41
1
41
1
41
1
41
1
41
1
41
1
41
1
41
1
41
1
41
1
41
1
41
1
41
1
41
1
41
1
41
1
41
1
41
1
41
1
41
1
41
1
41
1
41
1
41
1
41
1
41
1
41
1
41
1
41
1
41
1
41
1
41
1
41
1
41
1
41
1
41
1
41
1
41
1
41
1
41
1
41
1
41
1
41
1
41
1
41
1
41
1
41
1
41
1
41
1
41
1
41
1
41
1
41
1
41
1
41
1
41
1
41
1
41
1
41
1
41
1
41
1
41
1
41
1
41
1
41
1
41
1
41
1
41
1
41
1
41
1
41
1
41
1
41
1
41
1
41
1
41
1
41
1
41
1
41
1
41
1
41
1
41
1
41
1
41
1
41
1
41
1
41
1
41
1
41
1
41
1
41
1
41
1
41
1
41
1
41
1
41
1
41
1
41
1
41
1
41
1
41
1
41
1
41
1
41
1
41
1
10
0
20
-0.055000000000000049
30
0
10
0.019809790901325564
20
-0.04585364606059842
30
0
10
0.059490498478441289
20
-0.028378993058125742
30
0
10
0.11919493783727432
20
-0.0046211795898106391
30
0
10
0.19916766688435786
20
0.022146786094631776
30
0
10
0.29973099793985403
20
0.047478583624313689
30
0
10
0.40084924554222157
20
0.064851593473421426
30
0
10
0.50243712347793379
20
0.074610254881214338
30
0
10
0.60435162848343216
20
0.07733505286037598
30
0
10
0.70637892950450021
20
0.073899697462630712
30
0
10
0.80829063828264003
20
0.065376942754294523
30
0
10
0.90989985886033675
20
0.0529455773176188
30
0
10
1.0111147975004529
20
0.037801434644865392
30
0
10
1.1119993487853908
20
0.021056641405321
30
0
10
1.2128138918024218
20
0.0036726382346623189
30
0
10
1.3138872929544498
20
-0.013330923371959858
30
0
10
1.4154999273136746
20
-0.028679413381147881
30
0
10
1.5177698482740098
20
-0.040665445427046212
30
0
10
1.6205203019867331
20
-0.046907253749899007
30
0
10
1.7232063354740705
20
-0.044298698180071108
30
0
10
1.8251366508618583
20
-0.029890048540896341
30
0
10
1.9256637975880062
20
-0.0016819297961328369
30
0
10
2.0243730363201351
20
0.040614995300949169
30
0
10
2.1213039854211573
20
0.094643278396527752
30
0
10
2.2170583703655264
20
0.15503973210233762
30
0
10
2.3125275847552942
20
0.21498587756688545
30
0
10
2.4086827112765303
20
0.26744573001567346
30
0
10
2.5063437761691416
20
0.30650655739319904
30
0
10
2.6059490991334853
20
0.32872223805421208
30
0
10
2.7073490315862414
20
0.33432624384764897
30
0
10
2.8100204748668807
20
0.32617536634087063
30
0
10
2.9132595434265314
20
0.30882397721019705
30
0
10
3.016375862069367
20
0.28755992622469378
30
0
10
3.1189013287823677
20
0.26743430549446345
30
0
10
3.2207478327740806
20
0.25236456739480784
30
0
10
3.3220658165689292
20
0.24478487382843558
30
0
10
3.423136045131991
20
0.24518502126483688
30
0
10
3.5242540674518619
20
0.251782275832304
30
0
10
3.6256050343020596
20
0.25992107781091017
30
0
10
3.7271823332270184
20
0.26224667513597288
30
0
10
3.8288600524307097
20
0.25129430977439482
30
0
10
3.9304413478704054
20
0.22181319126281016
30
0
10
4.0317125940433494
20
0.17291484289448406
30
0
10
4.1325037135879956
20
0.11096638097971297
30
0
10
4.2327176105510409
20
0.049992827357084726
30
0
10
4.3322860442257234
20
0.0064726953705817897
30
0
10
4.4311381954407709
20
-0.0049172611429839103
30
0
10
4.5291689917608231
20
0.024446925417306729
30
0
10
4.6261960546265541
20
0.091969489524016401
30
0
10
4.7219586317208311
20
0.18200444356776452
30
0
10
4.8162239482175631
20
0.27254495537800738
30
0
10
4.9088725736626158
20
0.34025028722131984
30
0
10
4.999992454282455
20
0.36613867564089264
30
0
10
5.0899687672387541
20
0.34098110631692036
30
0
10
5.1795772773945945
20
0.27087221238235365
30
0
10
5.269795425992351
20
0.17215493877824195
30
0
10
5.361618536884861
20
0.066455796139395756
30
0
10
5.4558633257025271
20
-0.024539653254136151
30
0
10
5.5530013424252616
20
-0.083695040182111338
30
0
10
5.6529182404788578
20
-0.10455131182081925
30
0
10
5.7549616452323278
20
-0.091522957204154154
30
0
10
5.858216491778899
20
-0.055355754650854211
30
0
10
5.9617257034599556
20
-0.0098226280122727661
30
0
10
6.0647101512117398
20
0.031823097159662583
30
0
10
6.1668466798354906
20
0.0609480669463974
30
0
10
6.2682442855645988
20
0.074226892125528243
30
0
10
6.3692444772410761
20
0.072245419331283298
30
0
10
6.470269779812174
20
0.058762175292990999
30
0
10
6.5716659835376312
20
0.039673367462965001
30
0
10
6.6735125127516906
20
0.022172158898012745
30
0
10
6.7756451879944102
20
0.013468784961129987
30
0
10
6.8777654641698582
20
0.019423553162999617
30
0
10
6.9795233974295527
20
0.043125417677412334
30
0
10
7.0806069074715303
20
0.083670489539131712
30
0
10
7.1808403158135299
20
0.13438959120424732
30
0
10
7.280186251098522
20
0.1848328305820548
30
0
10
7.3787224093476222
20
0.2235964987870715
30
0
10
7.4766278622807727
20
0.24097502171007901
30
0
10
7.5741636214537866
20
0.23143041872629472
30
0
10
7.6716603641471828
20
0.19680216250972005
30
0
10
7.7694729550230077
20
0.14478793652173963
30
0
10
7.8679273152670799
20
0.08604947178258654
30
0
10
7.9672666158465741
20
0.031678988089650188
30
0
10
8.0676048899992328
20
-0.0092535022737493308
30
0
10
8.1688592332659553
20
-0.032772318400259834
30
0
10
8.2707872515998879
20
-0.039700289151956586
30
0
10
8.3730719410922951
20
-0.033791524221461061
30
0
10
8.4753941768218262
20
-0.020325072011635137
30
0
10
8.5775042433625437
20
-0.0046010730771014422
30
0
10
8.6793094581064683
20
0.0097594249047896139
30
0
10
8.7808502212458439
20
0.020830560054341491
30
0
10
8.8822422285187042
20
0.027865004901029573
30
0
10
8.9836289391172333
20
0.030951866887388622
30
0
10
9.085132411130763
20
0.030615770152282257
30
0
10
9.1867979335550469
20
0.027405812039965786
30
0
10
9.2886061860712292
20
0.021826297133667329
30
0
10
9.3904978913889163
20
0.014337373350545957
30
0
10
9.492394276301285
20
0.0053304768850476244
30
0
10
9.5942187695582639
20
-0.0048849269969843297
30
0
10
9.6959195357480503
20
-0.016101437001966042
30
0
10
9.7974658287823111
20
-0.028194571716577355
30
0
10
9.8785669561487062
20
-0.038520296621041998
30
0
10
9.9393140864026215
20
-0.046621409391706906
30
0
10
9.9797771922211407
20
-0.05218070994524731
30
0
10
10
20
-0.055000000000000049
30
0
0
SPLINE
5
104
100
AcDbEntity
8
0
100
AcDbSpline
70
4
71
5
72
111
73
105
74
0
42
0.000000001
43
0.0000000001
44
0.0000000001
40
0
40
0
40
0
40
0
40
0
40
0
40
0.01
40
0.02
40
0.029999999999999999
40
0.040000000000000001
40
0.050000000000000003
40
0.060000000000000005
40
0.070000000000000007
40
0.080000000000000002
40
0.089999999999999997
40
0.099999999999999992
40
0.10999999999999999
40
0.11999999999999998
40
0.12999999999999998
40
0.13999999999999999
40
0.14999999999999999
40
0.16
40
0.17000000000000001
40
0.18000000000000002
40
0.19000000000000003
40
0.20000000000000004
40
0.21000000000000005
40
0.22000000000000006
40
0.23000000000000007
40
0.24000000000000007
40
0.25000000000000006
40
0.26000000000000006
40
0.27000000000000007
40
0.28000000000000008
40
0.29000000000000009
40
0.3000000000000001
40
0.31000000000000011
40
0.32000000000000012
40
0.33000000000000013
40
0.34000000000000014
40
0.35000000000000014
40
0.36000000000000015
40
0.37000000000000016
40
0.38000000000000017
40
0.39000000000000018
40
0.40000000000000019
40
0.4100000000000002
40
0.42000000000000021
40
0.43000000000000022
40
0.44000000000000022
40
0.45000000000000023
40
0.46000000000000024
40
0.47000000000000025
40
0.48000000000000026
40
0.49000000000000027
40
0.50000000000000022
40
0.51000000000000023
40
0.52000000000000024
40
0.53000000000000025
40
0.54000000000000026
40
0.55000000000000027
40
0.56000000000000028
40
0.57000000000000028
40
0.58000000000000029
40
0.5900000000000003
40
0.60000000000000031
40
0.61000000000000032
40
0.62000000000000033
40
0.63000000000000034
40
0.64000000000000035
40
0.65000000000000036
40
0.66000000000000036
40
0.67000000000000037
40
0.68000000000000038
40
0.69000000000000039
40
0.7000000000000004
40
0.71000000000000041
40
0.72000000000000042
40
0.73000000000000043
40
0.74000000000000044
40
0.75000000000000044
40
0.76000000000000045
40
0.77000000000000046
40
0.78000000000000047
40
0.79000000000000048
40
0.80000000000000049
40
0.8100000000000005
40
0.82000000000000051
40
0.83000000000000052
40
0.84000000000000052
40
0.85000000000000053
40
0.86000000000000054
40
0.87000000000000055
40
0.88000000000000056
40
0.89000000000000057
40
0.90000000000000058
40
0.91000000000000059
40
0.9200000000000006
40
0.9300000000000006
40
0.94000000000000061
40
0.95000000000000062
40
0.96000000000000063
40
0.97000000000000064
40
0.98000000000000065
40
0.99000000000000066
40
1
40
1
40
1
40
1
40
1
40
1
41
1
41
1
41
1
41
1
41
1
41
1
41
1
41
1
41
1
41
1
41
1
41
1
41
1
41
1
41
1
41
1
41
1
41
1
41
1
41
1
41
1
41
1
41
1
41
1
41
1
41
1
41
1
41
1
41
1
41
1
41
1
41
1
41
1
41
1
41
1
41
1
41
1
41
1
41
1
41
1
41
1
41
1
41
1
41
1
41
1
41
1
41
1
41
1
41
1
41
1
41
1
41
1
41
1
41
1
41
1
41
1
41
1
41
1
41
1
41
1
41
1
41
1
41
1
41
1
41
1
41
1
41
1
41
1
41
1
41
1
41
1
41
1
41
1
41
1
41
1
41
1
41
1
41
1
41
1
41
1
41
1
41
1
41
1
41
1
41
1
41
1
41
1
41
1
41
1
41
1
41
1
41
1
41
1
41
1
41
1
41
1
41
1
41
1
41
1
41
1
41
1
41
1
41
1
41
1
41
1
10
0
20
3.0549999999999997
30
0
10
0.020928443281580496
20
3.0585251928302108
30
0
10
0.062632566922738733
20
3.0636686063229424
30
0
10
0.12473046196134735
20
3.0656627778280936
30
0
10
0.20661093962338073
20
3.0568781918389734
30
0
10
0.30746117556147512
20
3.0273320562788602
30
0
10
0.40689532102507669
20
2.9807658232787171
30
0
10
0.50508261028780721
20
2.9202757147256126
30
0
10
0.60230722258401859
20
2.8510562853928501
30
0
10
0.69899354413534065
20
2.7808560609280835
30
0
10
0.7956272047685633
20
2.7184152345569705
30
0
10
0.89268138904855188
20
2.6720037765227329
30
0
10
0.99053946320377695
20
2.6478918649518626
30
0
10
1.0894230429423766
20
2.6489166321396573
30
0
10
1.1893071224676508
20
2.6728213071731117
30
0
10
1.2899999335857502
20
2.7135031184700216
30
0
10
1.3912374254529769
20
2.7625302856617049
30
0
10
1.4927740741077393
20
2.8105679769898173
30
0
10
1.5944714950775341
20
2.8488252143001249
30
0
10
1.6963981630850631
20
2.8705370834118602
30
0
10
1.798720655744803
20
2.8715864514344371
30
0
10
1.9015791006616349
20
2.8510760234702035
30
0
10
2.0049704808659503
20
2.8118962341175107
30
0
10
2.1086236568272834
20
2.761353559553763
30
0
10
2.2118914262364613
20
2.7116197529568571
30
0
10
2.3139741837448584
20
2.6764502720941366
30
0
10
2.4141334966962456
20
2.6680018152762313
30
0
10
2.51190243384411
20
2.6937246188624568
30
0
10
2.607313771265142
20
2.7529585973514021
30
0
10
2.7010731742903338
20
2.8344151135282076
30
0
10
2.7942653915334965
20
2.9211665595591771
30
0
10
2.8881075709976338
20
2.994865303291534
30
0
10
2.9836769133029613
20
3.0404087399989725
30
0
10
3.0816670449022423
20
3.050064242359932
30
0
10
3.1820848919530271
20
3.0287551411810805
30
0
10
3.2844110999634948
20
2.9902354580967394
30
0
10
3.3878415119143632
20
2.9516837886029217
30
0
10
3.4915032018426579
20
2.928762564621481
30
0
10
3.5946743538586827
20
2.9306809543240151
30
0
10
3.6970206788698863
20
2.9547178557143439
30
0
10
3.7985159494633525
20
2.9900836939490931
30
0
10
3.8993351896983715
20
3.0225792086341241
30
0
10
3.9997578966833132
20
3.0389650482924417
30
0
10
4.1000671997027318
20
3.0314481897344479
30
0
10
4.200450558562375
20
3.0021354417168156
30
0
10
4.3010241621136611
20
2.9595414461111802
30
0
10
4.4018580867308827
20
2.915058045072445
30
0
10
4.503000812851667
20
2.8794657817954339
30
0
10
4.604504694240851
20
2.8593710311093496
30
0
10
4.7064491120467444
20
2.8538302416636467
30
0
10
4.8088963932138444
20
2.8571953723771086
30
0
10
4.911847739580983
20
2.8618398822701456
30
0
10
5.0152025849708304
20
2.8608338583652038
30
0
10
5.118708385184334
20
2.8508584840178077
30
0
10
5.221937903404708
20
2.8343793621494462
30
0
10
5.3244288777531708
20
2.8172087912589721
30
0
10
5.4258113640519179
20
2.8065388865391383
30
0
10
5.525927800391047
20
2.8088949517673125
30
0
10
5.624984734460444
20
2.8278855520768649
30
0
10
5.7236020719951419
20
2.8627854960804653
30
0
10
5.8225550510720634
20
2.9097794156904095
30
0
10
5.9225622888147562
20
2.9627303883760199
30
0
10
6.0240719285970528
20
3.0141446316862335
30
0
10
6.1270100091694735
20
3.0560273153906032
30
0
10
6.23066380007152
20
3.0808548991356877
30
0
10
6.3340196668444442
20
3.0827154413733333
30
0
10
6.4360367805564067
20
3.058509997979288
30
0
10
6.5359217993877685
20
3.0089559594389477
30
0
10
6.6334610319373057
20
2.9400963722868538
30
0
10
6.7291322098917767
20
2.863175440193622
30
0
10
6.8237971161031759
20
2.791513545966342
30
0
10
6.9184834192676288
20
2.7379941502805711
30
0
10
7.0141385538978227
20
2.7124095206292309
30
0
10
7.1113774504652678
20
2.7186203339436994
30
0
10
7.210286180915344
20
2.7525145858010043
30
0
10
7.3106062497499549
20
2.8050802796866843
30
0
10
7.4118760869115405
20
2.8649181526279142
30
0
10
7.5135852636395413
20
2.9209002706104337
30
0
10
7.615331827347573
20
2.96492617229688
30
0
10
7.7169531586284155
20
2.9941703626662042
30
0
10
7.8184495820717892
20
3.0094851844664152
30
0
10
7.9199290922884273
20
3.0141923385143587
30
0
10
8.0215456477289919
20
3.0127590069898318
30
0
10
8.123436423038358
20
3.0094479623088741
30
0
10
8.225671253200229
20
3.007213663827129
30
0
10
8.3282577802118745
20
3.0077244216184091
30
0
10
8.4311371398937407
20
3.0111822184443495
30
0
10
8.5341850593056581
20
3.0162798927937375
30
0
10
8.6372064529078045
20
3.0199585083185303
30
0
10
8.739946444103202
20
3.0177113805784641
30
0
10
8.8421325664073755
20
3.0049398968964991
30
0
10
8.9435122103552249
20
2.9781542761755246
30
0
10
9.0438883098293097
20
2.9361008017613539
30
0
10
9.1431646621110048
20
2.8812501475618895
30
0
10
9.2413547957740292
20
2.8199323476178364
30
0
10
9.3385427426924768
20
2.7606945009768196
30
0
10
9.4348551852035492
20
2.7130706422740136
30
0
10
9.5304305918518999
20
2.6862600434321493
30
0
10
9.6253859112974176
20
2.6876660370444845
30
0
10
9.7197966462972936
20
2.7220821982427252
30
0
10
9.8137092079607715
20
2.7924134596621291
30
0
10
9.8884591235448074
20
2.8785472705300945
30
0
10
9.9443113162983341
20
2.9601593438747278
30
0
10
9.9814526774780852
20
3.0221265712979015
30
0
10
10
20
3.0549999999999997
30
0
0
ENDSEC
0
SECTION
2
OBJECTS
0
DICTIONARY
5
C
100
AcDbDictionary
3
ACAD_GROUP
350
D
3
ACAD_MLINESTYLE
350
17
0
DICTIONARY
5
D
100
AcDbDictionary
0
DICTIONARY
5
1A
330
C
100
AcDbDictionary
0
DICTIONARY
5
17
100
AcDbDictionary
0
ENDSEC
0
EOF
