0
SECTION
2
HEADER
9
$INSUNITS
70
4
9
$ACADVER
1
AC1014
9
$HANDSEED
5
FFFF
0
ENDSEC
0
SECTION
2
TABLES
0
TABLE
2
VPORT
5
8
100
AcDbSymbolTable
0
ENDTAB
0
TABLE
2
LTYPE
5
5
100
AcDbSymbolTable
0
LTYPE
5
14
100
AcDbSymbolTableRecord
100
AcDbLinetypeTableRecord
2
BYBLOCK
70
0
0
LTYPE
5
15
100
AcDbSymbolTableRecord
100
AcDbLinetypeTableRecord
2
BYLAYER
70
0
0
ENDTAB
0
TABLE
2
LAYER
5
2
100
AcDbSymbolTable
70
2
0
LAYER
5
50
100
AcDbSymbolTableRecord
100
AcDbLayerTableRecord
2
0
70
0
6
CONTINUOUS
0
ENDTAB
0
TABLE
2
STYLE
5
3
100
AcDbSymbolTable
70
1
0
STYLE
5
11
100
AcDbSymbolTableRecord
100
AcDbTextStyleTableRecord
2
STANDARD
70
0
0
ENDTAB
0
TABLE
2
VIEW
5
6
100
AcDbSymbolTable
70
0
0
ENDTAB
0
TABLE
2
UCS
5
7
100
AcDbSymbolTable
70
0
0
ENDTAB
0
TABLE
2
APPID
5
9
100
AcDbSymbolTable
70
2
0
APPID
5
12
100
AcDbSymbolTableRecord
100
AcDbRegAppTableRecord
2
ACAD
70
0
0
ENDTAB
0
TABLE
2
DIMSTYLE
5
A
100
AcDbSymbolTable
70
1
0
ENDTAB
0
TABLE
2
BLOCK_RECORD
5
1
100
AcDbSymbolTable
70
1
0
BLOCK_RECORD
5
1F
100
AcDbSymbolTableRecord
100
AcDbBlockTableRecord
2
*MODEL_SPACE
0
BLOCK_RECORD
5
1B
100
AcDbSymbolTableRecord
100
AcDbBlockTableRecord
2
*PAPER_SPACE
0
ENDTAB
0
ENDSEC
0
SECTION
2
BLOCKS
0
BLOCK
5
20
100
AcDbEntity
100
AcDbBlockBegin
2
*MODEL_SPACE
0
ENDBLK
5
21
100
AcDbEntity
100
AcDbBlockEnd
0
BLOCK
5
1C
100
AcDbEntity
100
AcDbBlockBegin
2
*PAPER_SPACE
0
ENDBLK
5
1D
100
AcDbEntity
100
AcDbBlockEnd
0
ENDSEC
0
SECTION
2
ENTITIES
0
SPLINE
5
100
100
AcDbEntity
8
0
100
AcDbSpline
70
4
71
5
72
16
73
10
74
0
42
0.000000001
43
0.0000000001
44
0.0000000001
40
0
40
0
40
0
40
0
40
0
40
0
40
0.20000000000000001
40
0.40000000000000002
40
0.60000000000000009
40
0.80000000000000004
40
1
40
1
40
1
40
1
40
1
40
1
41
1
41
1
41
1
41
1
41
1
41
1
41
1
41
1
41
1
41
1
10
0
20
-0.055000000000000049
30
0
10
0
20
0.069400000000207365
30
0
10
0
20
0.31820000000056603
30
0
10
0
20
0.69140000000093593
30
0
10
0
20
1.1890000000011365
30
0
10
0
20
1.8110000000010393
30
0
10
0
20
2.3086000000007481
30
0
10
0
20
2.6818000000004227
30
0
10
0
20
2.9306000000001484
30
0
10
0
20
3.0549999999999997
30
0
0
SPLINE
5
101
100
AcDbEntity
8
0
100
AcDbSpline
70
4
71
5
72
16
73
10
74
0
42
0.000000001
43
0.0000000001
44
0.0000000001
40
0
40
0
40
0
40
0
40
0
40
0
40
0.20000000000000001
40
0.40000000000000002
40
0.60000000000000009
40
0.80000000000000004
40
1
40
1
40
1
40
1
40
1
40
1
41
1
41
1
41
1
41
1
41
1
41
1
41
1
41
1
41
1
41
1
10
10
20
-0.055000000000000049
30
0
10
9.9999999999997495
20
0.069400000000207365
30
0
10
9.9999999999993197
20
0.31820000000056603
30
0
10
9.9999999999989129
20
0.69140000000093593
30
0
10
9.9999999999987672
20
1.1890000000011365
30
0
10
9.9999999999990248
20
1.8110000000010393
30
0
10
9.9999999999993889
20
2.3086000000007481
30
0
10
9.9999999999996998
20
2.6818000000004227
30
0
10
9.9999999999999005
20
2.9306000000001484
30
0
10
10
20
3.0549999999999997
30
0
0
SPLINE
5
102
100
AcDbEntity
8
0
100
AcDbSpline
70
4
71
5
72
16
73
10
74
0
42
0.000000001
43
0.0000000001
44
0.0000000001
40
0
40
0
40
0
40
0
40
0
40
0
40
0.20000000000000001
40
0.40000000000000002
40
0.60000000000000009
40
0.80000000000000004
40
1
40
1
40
1
40
1
40
1
40
1
41
1
41
1
41
1
41
1
41
1
41
1
41
1
41
1
41
1
41
1
10
0
20
1.5274999999999999
30
0
10
0.40000000000047375
20
1.5274999999999856
30
0
10
1.2000000000012774
20
1.5274999999999614
30
0
10
2.4000000000020547
20
1.527499999999943
30
0
10
4.0000000000023546
20
1.5274999999999479
30
0
10
6.0000000000019584
20
1.5274999999999812
30
0
10
7.6000000000012928
20
1.5275000000000025
30
0
10
8.800000000000697
20
1.5275000000000083
30
0
10
9.6000000000002395
20
1.5275000000000039
30
0
10
10
20
1.5274999999999999
30
0
0
SPLINE
5
103
100
AcDbEntity
8
0
100
AcDbSpline
70
4
71
5
72
61
73
55
74
0
42
0.000000001
43
0.0000000001
44
0.0000000001
40
0
40
0
40
0
40
0
40
0
40
0
40
0.02
40
0.040000000000000001
40
0.059999999999999998
40
0.080000000000000002
40
0.10000000000000001
40
0.12000000000000001
40
0.14000000000000001
40
0.16
40
0.17999999999999999
40
0.19999999999999998
40
0.21999999999999997
40
0.23999999999999996
40
0.25999999999999995
40
0.27999999999999997
40
0.29999999999999999
40
0.32000000000000001
40
0.34000000000000002
40
0.36000000000000004
40
0.38000000000000006
40
0.40000000000000008
40
0.4200000000000001
40
0.44000000000000011
40
0.46000000000000013
40
0.48000000000000015
40
0.50000000000000011
40
0.52000000000000013
40
0.54000000000000015
40
0.56000000000000016
40
0.58000000000000018
40
0.6000000000000002
40
0.62000000000000022
40
0.64000000000000024
40
0.66000000000000025
40
0.68000000000000027
40
0.70000000000000029
40
0.72000000000000031
40
0.74000000000000032
40
0.76000000000000034
40
0.78000000000000036
40
0.80000000000000038
40
0.8200000000000004
40
0.84000000000000041
40
0.86000000000000043
40
0.88000000000000045
40
0.90000000000000047
40
0.92000000000000048
40
0.9400000000000005
40
0.96000000000000052
40
0.98000000000000054
40
1
40
1
40
1
40
1
40
1
40
1
41
1
41
1
41
1
41
1
41
1
41
1
41
1
41
1
41
1
41
1
41
1
41
1
41
1
41
1
41
1
41
1
41
1
41
1
41
1
41
1
41
1
41
1
41
1
41
1
41
1
41
1
41
1
41
1
41
1
41
1
41
1
41
1
41
1
41
1
41
1
41
1
41
1
41
1
41
1
41
1
41
1
41
1
41
1
41
1
41
1
41
1
41
1
41
1
41
1
41
1
41
1
41
1
41
1
41
1
41
1
10
0
20
-0.055000000000000049
30
0
10
0.040581662123255098
20
-0.050776338525614216
30
0
10
0.12170858929178201
20
-0.042434515869831275
30
0
10
0.24328978716566971
20
-0.030238248330397524
30
0
10
0.40517953716134436
20
-0.01461020052207488
30
0
10
0.60719244761427493
20
0.0036366438636728699
30
0
10
0.80890254543872464
20
0.019896972422279544
30
0
10
1.0104034635029893
20
0.032785738774238765
30
0
10
1.2118534522087794
20
0.039973111156444495
30
0
10
1.4134882866597067
20
0.038021480270792322
30
0
10
1.6155456715631749
20
0.023987869720877405
30
0
10
1.8181922118304659
20
-0.0030062354923859756
30
0
10
2.021451868546885
20
-0.040274521516958858
30
0
10
2.225127400382156
20
-0.079826465442927957
30
0
10
2.4287416244411015
20
-0.10729161087209976
30
0
10
2.631663084902367
20
-0.10678436789467256
30
0
10
2.8332172062179666
20
-0.065386301604853855
30
0
10
3.0327999365171627
20
0.022468549551577822
30
0
10
3.2299971730206272
20
0.14996886936501957
30
0
10
3.4246822574502351
20
0.29487099538064915
30
0
10
3.6169841798382873
20
0.42770046414858609
30
0
10
3.8072720262436737
20
0.51854426897609107
30
0
10
3.9961343009748909
20
0.54442396929413472
30
0
10
4.1843601040115006
20
0.49633954595985896
30
0
10
4.3729228019966229
20
0.38674901487472391
30
0
10
4.5628331792824603
20
0.24198942318093306
30
0
10
4.7549940707302039
20
0.094603987707479631
30
0
10
4.9500460771519688
20
-0.024577523767304144
30
0
10
5.1482350468441238
20
-0.093559339364967811
30
0
10
5.3492211915900132
20
-0.10844373761336693
30
0
10
5.5522229648658259
20
-0.080229606329924028
30
0
10
5.7562621166902783
20
-0.02778944613379486
30
0
10
5.960381669996365
20
0.028041962958474807
30
0
10
6.1638585749224539
20
0.070412389526152946
30
0
10
6.3664619478289097
20
0.093480351817685339
30
0
10
6.5683520067742496
20
0.10030964119407307
30
0
10
6.769898020783506
20
0.098677353173020968
30
0
10
6.9715209203494499
20
0.097526825610836393
30
0
10
7.1735346383906737
20
0.10335908903290436
30
0
10
7.3759646269991492
20
0.11611196558435842
30
0
10
7.5786207871867637
20
0.13089816013040698
30
0
10
7.7812092038204845
20
0.140639796107842
30
0
10
7.9834312955621467
20
0.13841439063466482
30
0
10
8.1850847652396848
20
0.11983826414888965
30
0
10
8.3861731078960275
20
0.085661182136975877
30
0
10
8.5868557272549424
20
0.040490000364402999
30
0
10
8.7873848575054119
20
-0.008806967788294354
30
0
10
8.9880470528715541
20
-0.054585706112692568
30
0
10
9.1891040878338295
20
-0.089924613567299722
30
0
10
9.3907308661867379
20
-0.11020069762472849
30
0
10
9.5930304096237009
20
-0.11269041151989728
30
0
10
9.7554487312066769
20
-0.099383231547231568
30
0
10
9.8775950933165717
20
-0.080609229506576285
30
0
10
9.9591737412994554
20
-0.064187379961783572
30
0
10
10
20
-0.055000000000000049
30
0
0
SPLINE
5
104
100
AcDbEntity
8
0
100
AcDbSpline
70
4
71
5
72
61
73
55
74
0
42
0.000000001
43
0.0000000001
44
0.0000000001
40
0
40
0
40
0
40
0
40
0
40
0
40
0.02
40
0.040000000000000001
40
0.059999999999999998
40
0.080000000000000002
40
0.10000000000000001
40
0.12000000000000001
40
0.14000000000000001
40
0.16
40
0.17999999999999999
40
0.19999999999999998
40
0.21999999999999997
40
0.23999999999999996
40
0.25999999999999995
40
0.27999999999999997
40
0.29999999999999999
40
0.32000000000000001
40
0.34000000000000002
40
0.36000000000000004
40
0.38000000000000006
40
0.40000000000000008
40
0.4200000000000001
40
0.44000000000000011
40
0.46000000000000013
40
0.48000000000000015
40
0.50000000000000011
40
0.52000000000000013
40
0.54000000000000015
40
0.56000000000000016
40
0.58000000000000018
40
0.6000000000000002
40
0.62000000000000022
40
0.64000000000000024
40
0.66000000000000025
40
0.68000000000000027
40
0.70000000000000029
40
0.72000000000000031
40
0.74000000000000032
40
0.76000000000000034
40
0.78000000000000036
40
0.80000000000000038
40
0.8200000000000004
40
0.84000000000000041
40
0.86000000000000043
40
0.88000000000000045
40
0.90000000000000047
40
0.92000000000000048
40
0.9400000000000005
40
0.96000000000000052
40
0.98000000000000054
40
1
40
1
40
1
40
1
40
1
40
1
41
1
41
1
41
1
41
1
41
1
41
1
41
1
41
1
41
1
41
1
41
1
41
1
41
1
41
1
41
1
41
1
41
1
41
1
41
1
41
1
41
1
41
1
41
1
41
1
41
1
41
1
41
1
41
1
41
1
41
1
41
1
41
1
41
1
41
1
41
1
41
1
41
1
41
1
41
1
41
1
41
1
41
1
41
1
41
1
41
1
41
1
41
1
41
1
41
1
41
1
41
1
41
1
41
1
41
1
41
1
10
0
20
3.0549999999999997
30
0
10
0.042127755695084243
20
3.0773551797479506
30
0
10
0.1260460635120505
20
3.1170714380153806
30
0
10
0.25091191123561996
20
3.1616634357170299
30
0
10
0.41537519055783467
20
3.1911358749344436
30
0
10
0.61762161784690484
20
3.1790226536152515
30
0
10
0.81667381990696541
20
3.1212244475402389
30
0
10
1.0128180404114817
20
3.024409055236049
30
0
10
1.2065430557335479
20
2.8998912651958526
30
0
10
1.3985857407353901
20
2.7646396948578689
30
0
10
1.5898155704600518
20
2.6380423559233268
30
0
10
1.7811290135075928
20
2.5389402838297501
30
0
10
1.9733381013626321
20
2.4824799648015223
30
0
10
2.1670665502173216
20
2.4772197712230706
30
0
10
2.362628358878081
20
2.5216195890580169
30
0
10
2.5600642721354809
20
2.606105833417419
30
0
10
2.7592008556529453
20
2.7159168272813314
30
0
10
2.9597006595940218
20
2.8336883482896531
30
0
10
3.1611162591106847
20
2.9420663544984045
30
0
10
3.3629405189890846
20
3.0264937297337564
30
0
10
3.56467048380614
20
3.0764103901056492
30
0
10
3.7658724225165523
20
3.0860242574425927
30
0
10
3.966249607060365
20
3.0553323587034131
30
0
10
4.165702567142695
20
2.9908504705663375
30
0
10
4.3644106334562158
20
2.9070156853469986
30
0
10
4.5627490916013391
20
2.8226580769821128
30
0
10
4.7611769962740027
20
2.7566424260255511
30
0
10
4.9601320369961828
20
2.7236150785606639
30
0
10
5.159930257344536
20
2.7301184172843787
30
0
10
5.3606431825485572
20
2.7694358066662463
30
0
10
5.5621428133313202
20
2.8254718249006499
30
0
10
5.7641851487519862
20
2.878646222146926
30
0
10
5.9664817520665583
20
2.911261577905131
30
0
10
6.1687724316486729
20
2.9126918487032811
30
0
10
6.3709071588567809
20
2.8857128145200708
30
0
10
6.5728350725168836
20
2.8427884883581358
30
0
10
6.7745758481321978
20
2.8005386526425187
30
0
10
6.9761972842520814
20
2.7747391274634321
30
0
10
7.1777907989278162
20
2.7753652345134623
30
0
10
7.3794469329248171
20
2.8009000506067983
30
0
10
7.5812432243112831
20
2.8416188482319833
30
0
10
7.7832339901384939
20
2.8839706204951816
30
0
10
7.9854391094769914
20
2.9146079062214536
30
0
10
8.1878337028165582
20
2.924440690546767
30
0
10
8.3903357795916111
20
2.9130155326744984
30
0
10
8.5928244255162678
20
2.8863757305524014
30
0
10
8.7951600278193336
20
2.8544595119165543
30
0
10
8.9972037484718381
20
2.8286734409543319
30
0
10
9.1988371943442289
20
2.8194105512416803
30
0
10
9.3999823524801673
20
2.8335571207933046
30
0
10
9.6005934295661088
20
2.8751849573308013
30
0
10
9.7606373789831284
20
2.9320656151871289
30
0
10
9.8804171060003778
20
2.9882693711703485
30
0
10
9.9601577813223123
20
3.0317538993580233
30
0
10
10
20
3.0549999999999997
30
0
0
ENDSEC
0
SECTION
2
OBJECTS
0
DICTIONARY
5
C
100
AcDbDictionary
3
ACAD_GROUP
350
D
3
ACAD_MLINESTYLE
350
17
0
DICTIONARY
5
D
100
AcDbDictionary
0
DICTIONARY
5
1A
330
C
100
AcDbDictionary
0
DICTIONARY
5
17
100
AcDbDictionary
0
ENDSEC
0
EOF
