0
SECTION
2
HEADER
9
$INSUNITS
70
4
9
$ACADVER
1
AC1014
9
$HANDSEED
5
FFFF
0
ENDSEC
0
SECTION
2
TABLES
0
TABLE
2
VPORT
5
8
100
AcDbSymbolTable
0
ENDTAB
0
TABLE
2
LTYPE
5
5
100
AcDbSymbolTable
0
LTYPE
5
14
100
AcDbSymbolTableRecord
100
AcDbLinetypeTableRecord
2
BYBLOCK
70
0
0
LTYPE
5
15
100
AcDbSymbolTableRecord
100
AcDbLinetypeTableRecord
2
BYLAYER
70
0
0
ENDTAB
0
TABLE
2
LAYER
5
2
100
AcDbSymbolTable
70
2
0
LAYER
5
50
100
AcDbSymbolTableRecord
100
AcDbLayerTableRecord
2
0
70
0
6
CONTINUOUS
0
ENDTAB
0
TABLE
2
STYLE
5
3
100
AcDbSymbolTable
70
1
0
STYLE
5
11
100
AcDbSymbolTableRecord
100
AcDbTextStyleTableRecord
2
STANDARD
70
0
0
ENDTAB
0
TABLE
2
VIEW
5
6
100
AcDbSymbolTable
70
0
0
ENDTAB
0
TABLE
2
UCS
5
7
100
AcDbSymbolTable
70
0
0
ENDTAB
0
TABLE
2
APPID
5
9
100
AcDbSymbolTable
70
2
0
APPID
5
12
100
AcDbSymbolTableRecord
100
AcDbRegAppTableRecord
2
ACAD
70
0
0
ENDTAB
0
TABLE
2
DIMSTYLE
5
A
100
AcDbSymbolTable
70
1
0
ENDTAB
0
TABLE
2
BLOCK_RECORD
5
1
100
AcDbSymbolTable
70
1
0
BLOCK_RECORD
5
1F
100
AcDbSymbolTableRecord
100
AcDbBlockTableRecord
2
*MODEL_SPACE
0
BLOCK_RECORD
5
1B
100
AcDbSymbolTableRecord
100
AcDbBlockTableRecord
2
*PAPER_SPACE
0
ENDTAB
0
ENDSEC
0
SECTION
2
BLOCKS
0
BLOCK
5
20
100
AcDbEntity
100
AcDbBlockBegin
2
*MODEL_SPACE
0
ENDBLK
5
21
100
AcDbEntity
100
AcDbBlockEnd
0
BLOCK
5
1C
100
AcDbEntity
100
AcDbBlockBegin
2
*PAPER_SPACE
0
ENDBLK
5
1D
100
AcDbEntity
100
AcDbBlockEnd
0
ENDSEC
0
SECTION
2
ENTITIES
0
SPLINE
5
100
100
AcDbEntity
8
0
100
AcDbSpline
70
4
71
5
72
16
73
10
74
0
42
0.000000001
43
0.0000000001
44
0.0000000001
40
0
40
0
40
0
40
0
40
0
40
0
40
0.20000000000000001
40
0.40000000000000002
40
0.60000000000000009
40
0.80000000000000004
40
1
40
1
40
1
40
1
40
1
40
1
41
1
41
1
41
1
41
1
41
1
41
1
41
1
41
1
41
1
41
1
10
0
20
-0.055000000000000049
30
0
10
0
20
0.069400000000207365
30
0
10
0
20
0.31820000000056603
30
0
10
0
20
0.69140000000093593
30
0
10
0
20
1.1890000000011365
30
0
10
0
20
1.8110000000010393
30
0
10
0
20
2.3086000000007481
30
0
10
0
20
2.6818000000004227
30
0
10
0
20
2.9306000000001484
30
0
10
0
20
3.0549999999999997
30
0
0
SPLINE
5
101
100
AcDbEntity
8
0
100
AcDbSpline
70
4
71
5
72
16
73
10
74
0
42
0.000000001
43
0.0000000001
44
0.0000000001
40
0
40
0
40
0
40
0
40
0
40
0
40
0.20000000000000001
40
0.40000000000000002
40
0.60000000000000009
40
0.80000000000000004
40
1
40
1
40
1
40
1
40
1
40
1
41
1
41
1
41
1
41
1
41
1
41
1
41
1
41
1
41
1
41
1
10
10
20
-0.055000000000000049
30
0
10
9.9999999999997495
20
0.069400000000207365
30
0
10
9.9999999999993197
20
0.31820000000056603
30
0
10
9.9999999999989129
20
0.69140000000093593
30
0
10
9.9999999999987672
20
1.1890000000011365
30
0
10
9.9999999999990248
20
1.8110000000010393
30
0
10
9.9999999999993889
20
2.3086000000007481
30
0
10
9.9999999999996998
20
2.6818000000004227
30
0
10
9.9999999999999005
20
2.9306000000001484
30
0
10
10
20
3.0549999999999997
30
0
0
SPLINE
5
102
100
AcDbEntity
8
0
100
AcDbSpline
70
4
71
5
72
16
73
10
74
0
42
0.000000001
43
0.0000000001
44
0.0000000001
40
0
40
0
40
0
40
0
40
0
40
0
40
0.20000000000000001
40
0.40000000000000002
40
0.60000000000000009
40
0.80000000000000004
40
1
40
1
40
1
40
1
40
1
40
1
41
1
41
1
41
1
41
1
41
1
41
1
41
1
41
1
41
1
41
1
10
0
20
1.5274999999999999
30
0
10
0.40000000000047375
20
1.5274999999999856
30
0
10
1.2000000000012774
20
1.5274999999999614
30
0
10
2.4000000000020547
20
1.527499999999943
30
0
10
4.0000000000023546
20
1.5274999999999479
30
0
10
6.0000000000019584
20
1.5274999999999812
30
0
10
7.6000000000012928
20
1.5275000000000025
30
0
10
8.800000000000697
20
1.5275000000000083
30
0
10
9.6000000000002395
20
1.5275000000000039
30
0
10
10
20
1.5274999999999999
30
0
0
SPLINE
5
103
100
AcDbEntity
8
0
100
AcDbSpline
70
4
71
5
72
111
73
105
74
0
42
0.000000001
43
0.0000000001
44
0.0000000001
40
0
40
0
40
0
40
0
40
0
40
0
40
0.01
40
0.02
40
0.029999999999999999
40
0.040000000000000001
40
0.050000000000000003
40
0.060000000000000005
40
0.070000000000000007
40
0.080000000000000002
40
0.089999999999999997
40
0.099999999999999992
40
0.10999999999999999
40
0.11999999999999998
40
0.12999999999999998
40
0.13999999999999999
40
0.14999999999999999
40
0.16
40
0.17000000000000001
40
0.18000000000000002
40
0.19000000000000003
40
0.20000000000000004
40
0.21000000000000005
40
0.22000000000000006
40
0.23000000000000007
40
0.24000000000000007
40
0.25000000000000006
40
0.26000000000000006
40
0.27000000000000007
40
0.28000000000000008
40
0.29000000000000009
40
0.3000000000000001
40
0.31000000000000011
40
0.32000000000000012
40
0.33000000000000013
40
0.34000000000000014
40
0.35000000000000014
40
0.36000000000000015
40
0.37000000000000016
40
0.38000000000000017
40
0.39000000000000018
40
0.40000000000000019
40
0.4100000000000002
40
0.42000000000000021
40
0.43000000000000022
40
0.44000000000000022
40
0.45000000000000023
40
0.46000000000000024
40
0.47000000000000025
40
0.48000000000000026
40
0.49000000000000027
40
0.50000000000000022
40
0.51000000000000023
40
0.52000000000000024
40
0.53000000000000025
40
0.54000000000000026
40
0.55000000000000027
40
0.56000000000000028
40
0.57000000000000028
40
0.58000000000000029
40
0.5900000000000003
40
0.60000000000000031
40
0.61000000000000032
40
0.62000000000000033
40
0.63000000000000034
40
0.64000000000000035
40
0.65000000000000036
40
0.66000000000000036
40
0.67000000000000037
40
0.68000000000000038
40
0.69000000000000039
40
0.7000000000000004
40
0.71000000000000041
40
0.72000000000000042
40
0.73000000000000043
40
0.74000000000000044
40
0.75000000000000044
40
0.76000000000000045
40
0.77000000000000046
40
0.78000000000000047
40
0.79000000000000048
40
0.80000000000000049
40
0.8100000000000005
40
0.82000000000000051
40
0.83000000000000052
40
0.84000000000000052
40
0.85000000000000053
40
0.86000000000000054
40
0.87000000000000055
40
0.88000000000000056
40
0.89000000000000057
40
0.90000000000000058
40
0.91000000000000059
40
0.9200000000000006
40
0.9300000000000006
40
0.94000000000000061
40
0.95000000000000062
40
0.96000000000000063
40
0.97000000000000064
40
0.98000000000000065
40
0.99000000000000066
40
1
40
1
40
1
40
1
40
1
40
1
41
1
41
1
41
1
41
1
41
1
41
1
41
1
41
1
41
1
41
1
41
1
41
1
41
1
41
1
41
1
41
1
41
1
41
1
41
1
41
1
41
1
41
1
41
1
41
1
41
1
41
1
41
1
41
1
41
1
41
1
41
1
41
1
41
1
41
1
41
1
41
1
41
1
41
1
41
1
41
1
41
1
41
1
41
1
41
1
41
1
41
1
41
1
41
1
41
1
41
1
41
1
41
1
41
1
41
1
41
1
41
1
41
1
41
1
41
1
41
1
41
1
41
1
41
1
41
1
41
1
41
1
41
1
41
1
41
1
41
1
41
1
41
1
41
1
41
1
41
1
41
1
41
1
41
1
41
1
41
1
41
1
41
1
41
1
41
1
41
1
41
1
41
1
41
1
41
1
41
1
41
1
41
1
41
1
41
1
41
1
41
1
41
1
41
1
41
1
41
1
41
1
41
1
41
1
41
1
41
1
10
0
20
-0.055000000000000049
30
0
10
0.019337811901382434
20
-0.02508041937665368
30
0
10
0.057989587173254732
20
0.031104085209373699
30
0
10
0.11589570893620739
20
0.10441696967978023
30
0
10
0.19296072711067536
20
0.18023532126211228
30
0
10
0.28907208554162916
20
0.2389557501913942
30
0
10
0.38501903172912955
20
0.26314717884581684
30
0
10
0.48091403456835002
20
0.25591192574043775
30
0
10
0.57694204177494957
20
0.22238654237337493
30
0
10
0.67338778105612573
20
0.17045634996470713
30
0
10
0.77058273253136134
20
0.10969423000793295
30
0
10
0.86883563259067709
20
0.049919759472799446
30
0
10
0.96836461782199201
20
-0.00017092541361580122
30
0
10
1.0692376215168424
20
-0.034271151557055353
30
0
10
1.1712863443961967
20
-0.050116393184364144
30
0
10
1.2741560802310625
20
-0.04910348510842899
30
0
10
1.3774133812853901
20
-0.035023849221528937
30
0
10
1.4806381384851341
20
-0.013066907808695648
30
0
10
1.5835153758227951
20
0.011252668742468497
30
0
10
1.6859448104753865
20
0.033226040082045494
30
0
10
1.7879986064352131
20
0.049299008879768659
30
0
10
1.8898455868146931
20
0.057230075378739621
30
0
10
1.9916862067874763
20
0.056326763033719682
30
0
10
2.0936850917106669
20
0.047625064566120506
30
0
10
2.1958991051055703
20
0.034161799065401871
30
0
10
2.2983037026045854
20
0.02002105199860349
30
0
10
2.4008277916108831
20
0.0092790664981043693
30
0
10
2.503385246124894
20
0.0049957612074709411
30
0
10
2.6059083106656287
20
0.0081631278345951179
30
0
10
2.7083788330437208
20
0.016734301275695487
30
0
10
2.8108098947793487
20
0.026927551236189586
30
0
10
2.9132283648155384
20
0.03449038721634088
30
0
10
3.0156579378899302
20
0.035928963153379866
30
0
10
3.1181000808757449
20
0.029866496793647744
30
0
10
3.2205213947076805
20
0.018011718678767667
30
0
10
3.3228778069611837
20
0.0038269266337768678
30
0
10
3.4251357070018891
20
-0.0085692569928818244
30
0
10
3.5272917775053294
20
-0.01552229099139751
30
0
10
3.6293992614661068
20
-0.015110051660976145
30
0
10
3.7315731088202213
20
-0.007849572201302427
30
0
10
3.8339367188776108
20
0.0042604770209507849
30
0
10
3.9365759172851247
20
0.018410759230362565
30
0
10
4.0394969393340077
20
0.03173369885010878
30
0
10
4.1425661800584477
20
0.042095866207214158
30
0
10
4.245514482887959
20
0.04860870907279273
30
0
10
4.3480433927780124
20
0.051593067570237891
30
0
10
4.4499147615858679
20
0.052719260762696576
30
0
10
4.5510321498266029
20
0.054976493396295886
30
0
10
4.6515622238150049
20
0.062961596933931177
30
0
10
4.7518960060219051
20
0.082073805807520439
30
0
10
4.8524581281010013
20
0.11674075807395665
30
0
10
4.9535458780529344
20
0.16877008527738144
30
0
10
5.055181638041776
20
0.23594739573362961
30
0
10
5.1568963771260892
20
0.30979034077477718
30
0
10
5.2578047686749265
20
0.37672144072142799
30
0
10
5.3569176842818509
20
0.42199693841703939
30
0
10
5.4534015196622923
20
0.43302933569799257
30
0
10
5.546827565201518
20
0.40256811416311106
30
0
10
5.637503878813801
20
0.33290343354362084
30
0
10
5.726464792027067
20
0.23585697358217245
30
0
10
5.815106173190415
20
0.1284201296581691
30
0
10
5.904917626960783
20
0.029582025225618095
30
0
10
5.9971738893487414
20
-0.043339590785990832
30
0
10
6.0926466591904411
20
-0.078124897850160205
30
0
10
6.1912989704298571
20
-0.071268432434604873
30
0
10
6.2925061323478362
20
-0.026363923839368079
30
0
10
6.3952852571710048
20
0.047595270672491849
30
0
10
6.4985218926663348
20
0.13788052305150264
30
0
10
6.6011966599446081
20
0.2297068729952205
30
0
10
6.7026148641728849
20
0.30789685721525056
30
0
10
6.8023806436538328
20
0.3589399677846421
30
0
10
6.9003672866393622
20
0.37304080466177192
30
0
10
6.9966895092380845
20
0.34620621372511384
30
0
10
7.0916742703922688
20
0.28224479602715263
30
0
10
7.1858345128514394
20
0.19500976706876891
30
0
10
7.2797774607527739
20
0.10397884413279612
30
0
10
7.3741131496114676
20
0.029723240245746237
30
0
10
7.4693580854734352
20
-0.01082437240335286
30
0
10
7.5658518506467018
20
-0.0084648030505127588
30
0
10
7.6636403156585162
20
0.032490448373379124
30
0
10
7.7625230284690163
20
0.096748931591002979
30
0
10
7.8621707974996893
20
0.16411138499923583
30
0
10
7.962225441360312
20
0.21466490297518459
30
0
10
8.0623964860913091
20
0.2337735851080375
30
0
10
8.1625852794097913
20
0.21857951057308661
30
0
10
8.2628732622665311
20
0.17709731085825822
30
0
10
8.3634303614084438
20
0.12296010010344324
30
0
10
8.4644445376331827
20
0.071318273931366874
30
0
10
8.5660500795425811
20
0.034668021698700535
30
0
10
8.6682376310163551
20
0.017691507608372646
30
0
10
8.7708665867696567
20
0.017645517746035122
30
0
10
8.8737314724803564
20
0.027685266253886617
30
0
10
8.9766131167124126
20
0.039346124782819583
30
0
10
9.0793321782899632
20
0.045192372424497605
30
0
10
9.1818118254959913
20
0.041860644950353916
30
0
10
9.2840653132048629
20
0.029662185959743091
30
0
10
9.3861619233936047
20
0.011184206502005956
30
0
10
9.4881998493922346
20
-0.0097845554930023077
30
0
10
9.5902771915002152
20
-0.029423382557543148
30
0
10
9.6924611240301282
20
-0.045113576304184
30
0
10
9.7947912985346477
20
-0.055310057394531167
30
0
10
9.8767884120868707
20
-0.058449276021268398
30
0
10
9.9383639784253059
20
-0.057866747571449675
30
0
10
9.979448901979648
20
-0.056173121309377419
30
0
10
10
20
-0.055000000000000049
30
0
0
SPLINE
5
104
100
AcDbEntity
8
0
100
AcDbSpline
70
4
71
5
72
111
73
105
74
0
42
0.000000001
43
0.0000000001
44
0.0000000001
40
0
40
0
40
0
40
0
40
0
40
0
40
0.01
40
0.02
40
0.029999999999999999
40
0.040000000000000001
40
0.050000000000000003
40
0.060000000000000005
40
0.070000000000000007
40
0.080000000000000002
40
0.089999999999999997
40
0.099999999999999992
40
0.10999999999999999
40
0.11999999999999998
40
0.12999999999999998
40
0.13999999999999999
40
0.14999999999999999
40
0.16
40
0.17000000000000001
40
0.18000000000000002
40
0.19000000000000003
40
0.20000000000000004
40
0.21000000000000005
40
0.22000000000000006
40
0.23000000000000007
40
0.24000000000000007
40
0.25000000000000006
40
0.26000000000000006
40
0.27000000000000007
40
0.28000000000000008
40
0.29000000000000009
40
0.3000000000000001
40
0.31000000000000011
40
0.32000000000000012
40
0.33000000000000013
40
0.34000000000000014
40
0.35000000000000014
40
0.36000000000000015
40
0.37000000000000016
40
0.38000000000000017
40
0.39000000000000018
40
0.40000000000000019
40
0.4100000000000002
40
0.42000000000000021
40
0.43000000000000022
40
0.44000000000000022
40
0.45000000000000023
40
0.46000000000000024
40
0.47000000000000025
40
0.48000000000000026
40
0.49000000000000027
40
0.50000000000000022
40
0.51000000000000023
40
0.52000000000000024
40
0.53000000000000025
40
0.54000000000000026
40
0.55000000000000027
40
0.56000000000000028
40
0.57000000000000028
40
0.58000000000000029
40
0.5900000000000003
40
0.60000000000000031
40
0.61000000000000032
40
0.62000000000000033
40
0.63000000000000034
40
0.64000000000000035
40
0.65000000000000036
40
0.66000000000000036
40
0.67000000000000037
40
0.68000000000000038
40
0.69000000000000039
40
0.7000000000000004
40
0.71000000000000041
40
0.72000000000000042
40
0.73000000000000043
40
0.74000000000000044
40
0.75000000000000044
40
0.76000000000000045
40
0.77000000000000046
40
0.78000000000000047
40
0.79000000000000048
40
0.80000000000000049
40
0.8100000000000005
40
0.82000000000000051
40
0.83000000000000052
40
0.84000000000000052
40
0.85000000000000053
40
0.86000000000000054
40
0.87000000000000055
40
0.88000000000000056
40
0.89000000000000057
40
0.90000000000000058
40
0.91000000000000059
40
0.9200000000000006
40
0.9300000000000006
40
0.94000000000000061
40
0.95000000000000062
40
0.96000000000000063
40
0.97000000000000064
40
0.98000000000000065
40
0.99000000000000066
40
1
40
1
40
1
40
1
40
1
40
1
41
1
41
1
41
1
41
1
41
1
41
1
41
1
41
1
41
1
41
1
41
1
41
1
41
1
41
1
41
1
41
1
41
1
41
1
41
1
41
1
41
1
41
1
41
1
41
1
41
1
41
1
41
1
41
1
41
1
41
1
41
1
41
1
41
1
41
1
41
1
41
1
41
1
41
1
41
1
41
1
41
1
41
1
41
1
41
1
41
1
41
1
41
1
41
1
41
1
41
1
41
1
41
1
41
1
41
1
41
1
41
1
41
1
41
1
41
1
41
1
41
1
41
1
41
1
41
1
41
1
41
1
41
1
41
1
41
1
41
1
41
1
41
1
41
1
41
1
41
1
41
1
41
1
41
1
41
1
41
1
41
1
41
1
41
1
41
1
41
1
41
1
41
1
41
1
41
1
41
1
41
1
41
1
41
1
41
1
41
1
41
1
41
1
41
1
41
1
41
1
41
1
41
1
41
1
41
1
41
1
10
0
20
3.0549999999999997
30
0
10
0.020769626798374973
20
3.0692215625567569
30
0
10
0.062202033000761804
20
3.093391724542867
30
0
10
0.12403010161666742
20
3.1168279876697094
30
0
10
0.20582632776535867
20
3.1224349879054083
30
0
10
0.3069880505090154
20
3.0879471205269415
30
0
10
0.40702232325533683
20
3.0157365531772742
30
0
10
0.50584255481200291
20
2.9133586518201748
30
0
10
0.60330414917947339
20
2.7934940981680931
30
0
10
0.69919356208834871
20
2.6750311697803433
30
0
10
0.79330829883677845
20
2.5788255067064418
30
0
10
0.88553006512577925
20
2.5238278302165895
30
0
10
0.97590563325399238
20
2.5228426012585468
30
0
10
1.0647128815222615
20
2.5789660968442552
30
0
10
1.1525632013417226
20
2.6803786739133937
30
0
10
1.2403076511967175
20
2.8040009318880661
30
0
10
1.3288738988675375
20
2.9222741450995269
30
0
10
1.4191236922740955
20
3.0090137837923496
30
0
10
1.5117067373633375
20
3.0454236524667806
30
0
10
1.6069041652334402
20
3.0265806270394497
30
0
10
1.7045109214510976
20
2.9661568167823638
30
0
10
1.8040078790678848
20
2.8880683665563582
30
0
10
1.9047046934801128
20
2.8194223826859561
30
0
10
2.005892335194758
20
2.7830730877623209
30
0
10
2.1069947888305252
20
2.790098462909945
30
0
10
2.2077117412092715
20
2.8329937139889201
30
0
10
2.3079615305027925
20
2.8931817960994515
30
0
10
2.4078343804141769
20
2.9478685107445441
30
0
10
2.5075417114686696
20
2.9770120628078263
30
0
10
2.607367556792195
20
2.9705446019206705
30
0
10
2.7076182154609985
20
2.9346391230055406
30
0
10
2.8085624580932529
20
2.8848542900395047
30
0
10
2.9103705625429264
20
2.8400069646095467
30
0
10
3.0130570095642839
20
2.8159821382716039
30
0
10
3.1164139279540555
20
2.819079568028342
30
0
10
3.2199704083896141
20
2.8409750025337228
30
0
10
3.3231350042605134
20
2.8656140247812587
30
0
10
3.4253237996264243
20
2.8751024773885039
30
0
10
3.5260860675284373
20
2.8555765119160585
30
0
10
3.6252497056195319
20
2.8040337573646918
30
0
10
3.7229996011001765
20
2.7317710036735843
30
0
10
3.8197479699518078
20
2.6572804757378337
30
0
10
3.9160402386539781
20
2.6009023787920911
30
0
10
4.0124489863909947
20
2.5789794545425626
30
0
10
4.1094683959066867
20
2.5977704177079728
30
0
10
4.2074219986715136
20
2.6487817362608341
30
0
10
4.3064866907915613
20
2.7152648048315928
30
0
10
4.4067044792919745
20
2.7776198256781988
30
0
10
4.5079990346190577
20
2.8191016771055786
30
0
10
4.6101897229960072
20
2.8316680527314739
30
0
10
4.7130077529460443
20
2.8210048192915407
30
0
10
4.8161283526167882
20
2.8006574320541193
30
0
10
4.9192019222160397
20
2.7867600840631783
30
0
10
5.0218856781159964
20
2.7928217141046643
30
0
10
5.1238747783717811
20
2.8238276189121199
30
0
10
5.2249344983094357
20
2.8726415867102073
30
0
10
5.3249329704011554
20
2.9255692752377089
30
0
10
5.4238765297544074
20
2.9666438247139162
30
0
10
5.5219386871867968
20
2.982177823708632
30
0
10
5.6195047470412227
20
2.9657472143987214
30
0
10
5.7171705791840939
20
2.9213178929422345
30
0
10
5.815576746147709
20
2.8591542938556644
30
0
10
5.9152643106885874
20
2.7928251064303362
30
0
10
6.0165306469135587
20
2.7358801374831025
30
0
10
6.1192650776056219
20
2.698435997949308
30
0
10
6.2228522306148548
20
2.6844902569438474
30
0
10
6.3264384433771506
20
2.6936177029236523
30
0
10
6.429161805237352
20
2.7221295232056875
30
0
10
6.5303779756066236
20
2.7644017830411851
30
0
10
6.6299311485911891
20
2.8142174413931
30
0
10
6.728266176002319
20
2.8658179638800672
30
0
10
6.8261467165108138
20
2.9141143363467004
30
0
10
6.9244442771751213
20
2.955080439933627
30
0
10
7.0239120029747912
20
2.9860429548076279
30
0
10
7.1249346321355942
20
3.0060907387565434
30
0
10
7.2273827534063164
20
3.0162030270967999
30
0
10
7.3308246828368482
20
3.0185204329880899
30
0
10
7.4346836107279133
20
3.0157372718406723
30
0
10
7.538404015485467
20
3.0104910087849426
30
0
10
7.641643190573725
20
3.0046472345325199
30
0
10
7.7443523642448264
20
2.9989919591190977
30
0
10
7.8466576487119353
20
2.9936507844738367
30
0
10
7.9487833875508906
20
2.9883532880417136
30
0
10
8.0509652613232383
20
2.98273769423432
30
0
10
8.1533513848698451
20
2.9766909515507929
30
0
10
8.255973178140696
20
2.9704653818592015
30
0
10
8.3587905643224829
20
2.964552368632857
30
0
10
8.4617176421417639
20
2.9596242417563472
30
0
10
8.5646544035890102
20
2.9564452536949442
30
0
10
8.6675206126195263
20
2.9558036373850132
30
0
10
8.7702657203051242
20
2.9583986201540546
30
0
10
8.8728633345797139
20
2.9647113014478164
30
0
10
8.9753106301182584
20
2.974872226820644
30
0
10
9.0776254779676577
20
2.9885475820924561
30
0
10
9.1798452008126237
20
3.0047723058093534
30
0
10
9.2820204459785653
20
3.0221048065199057
30
0
10
9.3842079378776901
20
3.0388764388979492
30
0
10
9.4864634522078628
20
3.053413630487674
30
0
10
9.5888350214540115
20
3.0642611549811387
30
0
10
9.6913551844501189
20
3.0704321145151283
30
0
10
9.7940432069038579
20
3.0713426137716029
30
0
10
9.8763356185153803
20
3.0676290307332739
30
0
10
9.9381362051454722
20
3.0623026388396384
30
0
10
9.9793727152634499
20
3.0576224254567315
30
0
10
10
20
3.0549999999999997
30
0
0
ENDSEC
0
SECTION
2
OBJECTS
0
DICTIONARY
5
C
100
AcDbDictionary
3
ACAD_GROUP
350
D
3
ACAD_MLINESTYLE
350
17
0
DICTIONARY
5
D
100
AcDbDictionary
0
DICTIONARY
5
1A
330
C
100
AcDbDictionary
0
DICTIONARY
5
17
100
AcDbDictionary
0
ENDSEC
0
EOF
