0
SECTION
2
HEADER
9
$INSUNITS
70
4
9
$ACADVER
1
AC1014
9
$HANDSEED
5
FFFF
0
ENDSEC
0
SECTION
2
TABLES
0
TABLE
2
VPORT
5
8
100
AcDbSymbolTable
0
ENDTAB
0
TABLE
2
LTYPE
5
5
100
AcDbSymbolTable
0
LTYPE
5
14
100
AcDbSymbolTableRecord
100
AcDbLinetypeTableRecord
2
BYBLOCK
70
0
0
LTYPE
5
15
100
AcDbSymbolTableRecord
100
AcDbLinetypeTableRecord
2
BYLAYER
70
0
0
ENDTAB
0
TABLE
2
LAYER
5
2
100
AcDbSymbolTable
70
2
0
LAYER
5
50
100
AcDbSymbolTableRecord
100
AcDbLayerTableRecord
2
0
70
0
6
CONTINUOUS
0
ENDTAB
0
TABLE
2
STYLE
5
3
100
AcDbSymbolTable
70
1
0
STYLE
5
11
100
AcDbSymbolTableRecord
100
AcDbTextStyleTableRecord
2
STANDARD
70
0
0
ENDTAB
0
TABLE
2
VIEW
5
6
100
AcDbSymbolTable
70
0
0
ENDTAB
0
TABLE
2
UCS
5
7
100
AcDbSymbolTable
70
0
0
ENDTAB
0
TABLE
2
APPID
5
9
100
AcDbSymbolTable
70
2
0
APPID
5
12
100
AcDbSymbolTableRecord
100
AcDbRegAppTableRecord
2
ACAD
70
0
0
ENDTAB
0
TABLE
2
DIMSTYLE
5
A
100
AcDbSymbolTable
70
1
0
ENDTAB
0
TABLE
2
BLOCK_RECORD
5
1
100
AcDbSymbolTable
70
1
0
BLOCK_RECORD
5
1F
100
AcDbSymbolTableRecord
100
AcDbBlockTableRecord
2
*MODEL_SPACE
0
BLOCK_RECORD
5
1B
100
AcDbSymbolTableRecord
100
AcDbBlockTableRecord
2
*PAPER_SPACE
0
ENDTAB
0
ENDSEC
0
SECTION
2
BLOCKS
0
BLOCK
5
20
100
AcDbEntity
100
AcDbBlockBegin
2
*MODEL_SPACE
0
ENDBLK
5
21
100
AcDbEntity
100
AcDbBlockEnd
0
BLOCK
5
1C
100
AcDbEntity
100
AcDbBlockBegin
2
*PAPER_SPACE
0
ENDBLK
5
1D
100
AcDbEntity
100
AcDbBlockEnd
0
ENDSEC
0
SECTION
2
ENTITIES
0
SPLINE
5
100
100
AcDbEntity
8
0
100
AcDbSpline
70
4
71
5
72
16
73
10
74
0
42
0.000000001
43
0.0000000001
44
0.0000000001
40
0
40
0
40
0
40
0
40
0
40
0
40
0.20000000000000001
40
0.40000000000000002
40
0.60000000000000009
40
0.80000000000000004
40
1
40
1
40
1
40
1
40
1
40
1
41
1
41
1
41
1
41
1
41
1
41
1
41
1
41
1
41
1
41
1
10
0
20
-0.055000000000000049
30
0
10
0
20
0.069400000000207365
30
0
10
0
20
0.31820000000056603
30
0
10
0
20
0.69140000000093593
30
0
10
0
20
1.1890000000011365
30
0
10
0
20
1.8110000000010393
30
0
10
0
20
2.3086000000007481
30
0
10
0
20
2.6818000000004227
30
0
10
0
20
2.9306000000001484
30
0
10
0
20
3.0549999999999997
30
0
0
SPLINE
5
101
100
AcDbEntity
8
0
100
AcDbSpline
70
4
71
5
72
16
73
10
74
0
42
0.000000001
43
0.0000000001
44
0.0000000001
40
0
40
0
40
0
40
0
40
0
40
0
40
0.20000000000000001
40
0.40000000000000002
40
0.60000000000000009
40
0.80000000000000004
40
1
40
1
40
1
40
1
40
1
40
1
41
1
41
1
41
1
41
1
41
1
41
1
41
1
41
1
41
1
41
1
10
10
20
-0.055000000000000049
30
0
10
9.9999999999997495
20
0.069400000000207365
30
0
10
9.9999999999993197
20
0.31820000000056603
30
0
10
9.9999999999989129
20
0.69140000000093593
30
0
10
9.9999999999987672
20
1.1890000000011365
30
0
10
9.9999999999990248
20
1.8110000000010393
30
0
10
9.9999999999993889
20
2.3086000000007481
30
0
10
9.9999999999996998
20
2.6818000000004227
30
0
10
9.9999999999999005
20
2.9306000000001484
30
0
10
10
20
3.0549999999999997
30
0
0
SPLINE
5
102
100
AcDbEntity
8
0
100
AcDbSpline
70
4
71
5
72
16
73
10
74
0
42
0.000000001
43
0.0000000001
44
0.0000000001
40
0
40
0
40
0
40
0
40
0
40
0
40
0.20000000000000001
40
0.40000000000000002
40
0.60000000000000009
40
0.80000000000000004
40
1
40
1
40
1
40
1
40
1
40
1
41
1
41
1
41
1
41
1
41
1
41
1
41
1
41
1
41
1
41
1
10
0
20
1.5274999999999999
30
0
10
0.40000000000047375
20
1.5274999999999856
30
0
10
1.2000000000012774
20
1.5274999999999614
30
0
10
2.4000000000020547
20
1.527499999999943
30
0
10
4.0000000000023546
20
1.5274999999999479
30
0
10
6.0000000000019584
20
1.5274999999999812
30
0
10
7.6000000000012928
20
1.5275000000000025
30
0
10
8.800000000000697
20
1.5275000000000083
30
0
10
9.6000000000002395
20
1.5275000000000039
30
0
10
10
20
1.5274999999999999
30
0
0
SPLINE
5
103
100
AcDbEntity
8
0
100
AcDbSpline
70
4
71
5
72
111
73
105
74
0
42
0.000000001
43
0.0000000001
44
0.0000000001
40
0
40
0
40
0
40
0
40
0
40
0
40
0.01
40
0.02
40
0.029999999999999999
40
0.040000000000000001
40
0.050000000000000003
40
0.060000000000000005
40
0.070000000000000007
40
0.080000000000000002
40
0.089999999999999997
40
0.099999999999999992
40
0.10999999999999999
40
0.11999999999999998
40
0.12999999999999998
40
0.13999999999999999
40
0.14999999999999999
40
0.16
40
0.17000000000000001
40
0.18000000000000002
40
0.19000000000000003
40
0.20000000000000004
40
0.21000000000000005
40
0.22000000000000006
40
0.23000000000000007
40
0.24000000000000007
40
0.25000000000000006
40
0.26000000000000006
40
0.27000000000000007
40
0.28000000000000008
40
0.29000000000000009
40
0.3000000000000001
40
0.31000000000000011
40
0.32000000000000012
40
0.33000000000000013
40
0.34000000000000014
40
0.35000000000000014
40
0.36000000000000015
40
0.37000000000000016
40
0.38000000000000017
40
0.39000000000000018
40
0.40000000000000019
40
0.4100000000000002
40
0.42000000000000021
40
0.43000000000000022
40
0.44000000000000022
40
0.45000000000000023
40
0.46000000000000024
40
0.47000000000000025
40
0.48000000000000026
40
0.49000000000000027
40
0.50000000000000022
40
0.51000000000000023
40
0.52000000000000024
40
0.53000000000000025
40
0.54000000000000026
40
0.55000000000000027
40
0.56000000000000028
40
0.57000000000000028
40
0.58000000000000029
40
0.5900000000000003
40
0.60000000000000031
40
0.61000000000000032
40
0.62000000000000033
40
0.63000000000000034
40
0.64000000000000035
40
0.65000000000000036
40
0.66000000000000036
40
0.67000000000000037
40
0.68000000000000038
40
0.69000000000000039
40
0.7000000000000004
40
0.71000000000000041
40
0.72000000000000042
40
0.73000000000000043
40
0.74000000000000044
40
0.75000000000000044
40
0.76000000000000045
40
0.77000000000000046
40
0.78000000000000047
40
0.79000000000000048
40
0.80000000000000049
40
0.8100000000000005
40
0.82000000000000051
40
0.83000000000000052
40
0.84000000000000052
40
0.85000000000000053
40
0.86000000000000054
40
0.87000000000000055
40
0.88000000000000056
40
0.89000000000000057
40
0.90000000000000058
40
0.91000000000000059
40
0.9200000000000006
40
0.9300000000000006
40
0.94000000000000061
40
0.95000000000000062
40
0.96000000000000063
40
0.97000000000000064
40
0.98000000000000065
40
0.99000000000000066
40
1
40
1
40
1
40
1
40
1
40
1
41
1
41
1
41
1
41
1
41
1
41
1
41
1
41
1
41
1
41
1
41
1
41
1
41
1
41
1
41
1
41
1
41
1
41
1
41
1
41
1
41
1
41
1
41
1
41
1
41
1
41
1
41
1
41
1
41
1
41
1
41
1
41
1
41
1
41
1
41
1
41
1
41
1
41
1
41
1
41
1
41
1
41
1
41
1
41
1
41
1
41
1
41
1
41
1
41
1
41
1
41
1
41
1
41
1
41
1
41
1
41
1
41
1
41
1
41
1
41
1
41
1
41
1
41
1
41
1
41
1
41
1
41
1
41
1
41
1
41
1
41
1
41
1
41
1
41
1
41
1
41
1
41
1
41
1
41
1
41
1
41
1
41
1
41
1
41
1
41
1
41
1
41
1
41
1
41
1
41
1
41
1
41
1
41
1
41
1
41
1
41
1
41
1
41
1
41
1
41
1
41
1
41
1
41
1
41
1
41
1
10
0
20
-0.055000000000000049
30
0
10
0.020194789650475622
20
-0.044434020825495552
30
0
10
0.060671863553907468
20
-0.02501327379076114
30
0
10
0.12164996601803377
20
-0.0010159528959220491
30
0
10
0.20347910371834224
20
0.020712640174279595
30
0
10
0.30660841125638949
20
0.031371031115205512
30
0
10
0.41048212325259215
20
0.027403000443913108
30
0
10
0.5149048049641427
20
0.012526780424834474
30
0
10
0.61954518838477657
20
-0.0069440684919379863
30
0
10
0.72392023946229056
20
-0.021834137262648524
30
0
10
0.82751801073835674
20
-0.022745107505474871
30
0
10
0.92991065325271993
20
-0.0025115805131359654
30
0
10
1.03086033961246
20
0.041546350264625609
30
0
10
1.1304541418805283
20
0.10463121239293108
30
0
10
1.2291429362517634
20
0.17389399980175552
30
0
10
1.3275527080628535
20
0.23353547867708191
30
0
10
1.4263360639296998
20
0.26895460962175438
30
0
10
1.5260179263530445
20
0.27092113253870936
30
0
10
1.6268196468814273
20
0.24058168314158024
30
0
10
1.7285679098709692
20
0.19146966044775474
30
0
10
1.8308607037808444
20
0.14266946472058462
30
0
10
1.9331911637260069
20
0.11330552104068989
30
0
10
2.0350797710721453
20
0.11704295041901766
30
0
10
2.1362225457463011
20
0.15530683967885253
30
0
10
2.2365667060197461
20
0.21530560564807247
30
0
10
2.3362350826454694
20
0.27758854441277747
30
0
10
2.435483342013705
20
0.32180811960294015
30
0
10
2.5346441744771626
20
0.3326422009552224
30
0
10
2.6340770780114111
20
0.30698348933114489
30
0
10
2.7341162103923331
20
0.25610823192661014
30
0
10
2.835023647723427
20
0.19810052345613738
30
0
10
2.9369371882681383
20
0.15212252695192582
30
0
10
3.0398288459119689
20
0.13255388329049897
30
0
10
3.143438088847418
20
0.14172552804774641
30
0
10
3.2472872103251094
20
0.16832471990299913
30
0
10
3.350824081131659
20
0.19499859584953255
30
0
10
3.4535414123734314
20
0.20414164350589642
30
0
10
3.5550922937009939
20
0.183688571810048
30
0
10
3.6554397908210712
20
0.13468701254886961
30
0
10
3.7548571322929227
20
0.07072821265963368
30
0
10
3.8538006881039251
20
0.010553427063156545
30
0
10
3.9528172711798124
20
-0.02773902363954095
30
0
10
4.0524417680578555
20
-0.032383597079968886
30
0
10
4.1530882173029244
20
-0.0055516148024747228
30
0
10
4.2549881758039625
20
0.037459888268630892
30
0
10
4.3581781394601773
20
0.076475186340473886
30
0
10
4.4624680932278862
20
0.092985036645309105
30
0
10
4.5674283349644904
20
0.07653742701403439
30
0
10
4.6723415972422924
20
0.033331340765290374
30
0
10
4.7763015868948457
20
-0.016669306073204618
30
0
10
4.8783859659335436
20
-0.048768391395055399
30
0
10
4.977812082490976
20
-0.040980257388521686
30
0
10
5.0740870072220092
20
0.018596152181689966
30
0
10
5.1671933817668867
20
0.12249608878012166
30
0
10
5.2575332361555276
20
0.2481694662634637
30
0
10
5.3458004928713549
20
0.36622016165278737
30
0
10
5.4328766292663975
20
0.44749658366065259
30
0
10
5.5197191489897079
20
0.47023519108056272
30
0
10
5.6072476115058256
20
0.4282046333410332
30
0
10
5.6962480028023768
20
0.33526531780436492
30
0
10
5.787348797145162
20
0.21650579260048874
30
0
10
5.8809865009154709
20
0.10167411722438857
30
0
10
5.9773726991381215
20
0.017427546554863331
30
0
10
6.0764660983149028
20
-0.019255801945266604
30
0
10
6.1779272335899975
20
-0.0098772371981546529
30
0
10
6.2811873853981481
20
0.029866730474516805
30
0
10
6.3855484584393238
20
0.077818772033456593
30
0
10
6.4902729606402367
20
0.11204883373428469
30
0
10
6.5946765622735573
20
0.11770446802269283
30
0
10
6.6982236219521232
20
0.094529288319234669
30
0
10
6.800559786032915
20
0.052875901122765911
30
0
10
6.9015383899983966
20
0.0085754199311268552
30
0
10
7.001248974241868
20
-0.02176719229717803
30
0
10
7.1000456828255292
20
-0.025675339283467751
30
0
10
7.1985741855295169
20
0.00043343333162531363
30
0
10
7.2975821933235716
20
0.053218981973265481
30
0
10
7.3977320914516458
20
0.12433791519700971
30
0
10
7.4994127462458247
20
0.20237890474434594
30
0
10
7.6025515393130503
20
0.27478617576263625
30
0
10
7.7064258168414419
20
0.32979286692405635
30
0
10
7.8099586937773067
20
0.35776191826687587
30
0
10
7.9120197316649135
20
0.3525607821478296
30
0
10
8.0117157024102124
20
0.31286044742407382
30
0
10
8.108704250016725
20
0.24362097412943023
30
0
10
8.2034440500247694
20
0.15706067723478428
30
0
10
8.2968921679087195
20
0.069067751642479774
30
0
10
8.3902538799559583
20
-0.0039321062979531408
30
0
10
8.484706179036257
20
-0.048382458800101502
30
0
10
8.5811474085021366
20
-0.056655039425283937
30
0
10
8.679896260654985
20
-0.030874003094809793
30
0
10
8.7807940239550746
20
0.019522757939500882
30
0
10
8.8833732512292727
20
0.081246368432868921
30
0
10
8.9870053856438883
20
0.14032161555376813
30
0
10
9.0910517446525372
20
0.18523381539927947
30
0
10
9.1950271970643218
20
0.21046106341851781
30
0
10
9.2985903664652838
20
0.21537394718861289
30
0
10
9.4015100589787171
20
0.20250934948561242
30
0
10
9.5036403394657292
20
0.17607696363214745
30
0
10
9.604891824695402
20
0.14035167036401014
30
0
10
9.7052052126088029
20
0.09816444360319436
30
0
10
9.8045453639711493
20
0.051220771427122669
30
0
10
9.8832251246385798
20
0.010541925008297183
30
0
10
9.9417868092636485
20
-0.021595771295818685
30
0
10
9.9806287929723823
20
-0.043744636510511949
30
0
10
10
20
-0.055000000000000049
30
0
0
SPLINE
5
104
100
AcDbEntity
8
0
100
AcDbSpline
70
4
71
5
72
111
73
105
74
0
42
0.000000001
43
0.0000000001
44
0.0000000001
40
0
40
0
40
0
40
0
40
0
40
0
40
0.01
40
0.02
40
0.029999999999999999
40
0.040000000000000001
40
0.050000000000000003
40
0.060000000000000005
40
0.070000000000000007
40
0.080000000000000002
40
0.089999999999999997
40
0.099999999999999992
40
0.10999999999999999
40
0.11999999999999998
40
0.12999999999999998
40
0.13999999999999999
40
0.14999999999999999
40
0.16
40
0.17000000000000001
40
0.18000000000000002
40
0.19000000000000003
40
0.20000000000000004
40
0.21000000000000005
40
0.22000000000000006
40
0.23000000000000007
40
0.24000000000000007
40
0.25000000000000006
40
0.26000000000000006
40
0.27000000000000007
40
0.28000000000000008
40
0.29000000000000009
40
0.3000000000000001
40
0.31000000000000011
40
0.32000000000000012
40
0.33000000000000013
40
0.34000000000000014
40
0.35000000000000014
40
0.36000000000000015
40
0.37000000000000016
40
0.38000000000000017
40
0.39000000000000018
40
0.40000000000000019
40
0.4100000000000002
40
0.42000000000000021
40
0.43000000000000022
40
0.44000000000000022
40
0.45000000000000023
40
0.46000000000000024
40
0.47000000000000025
40
0.48000000000000026
40
0.49000000000000027
40
0.50000000000000022
40
0.51000000000000023
40
0.52000000000000024
40
0.53000000000000025
40
0.54000000000000026
40
0.55000000000000027
40
0.56000000000000028
40
0.57000000000000028
40
0.58000000000000029
40
0.5900000000000003
40
0.60000000000000031
40
0.61000000000000032
40
0.62000000000000033
40
0.63000000000000034
40
0.64000000000000035
40
0.65000000000000036
40
0.66000000000000036
40
0.67000000000000037
40
0.68000000000000038
40
0.69000000000000039
40
0.7000000000000004
40
0.71000000000000041
40
0.72000000000000042
40
0.73000000000000043
40
0.74000000000000044
40
0.75000000000000044
40
0.76000000000000045
40
0.77000000000000046
40
0.78000000000000047
40
0.79000000000000048
40
0.80000000000000049
40
0.8100000000000005
40
0.82000000000000051
40
0.83000000000000052
40
0.84000000000000052
40
0.85000000000000053
40
0.86000000000000054
40
0.87000000000000055
40
0.88000000000000056
40
0.89000000000000057
40
0.90000000000000058
40
0.91000000000000059
40
0.9200000000000006
40
0.9300000000000006
40
0.94000000000000061
40
0.95000000000000062
40
0.96000000000000063
40
0.97000000000000064
40
0.98000000000000065
40
0.99000000000000066
40
1
40
1
40
1
40
1
40
1
40
1
41
1
41
1
41
1
41
1
41
1
41
1
41
1
41
1
41
1
41
1
41
1
41
1
41
1
41
1
41
1
41
1
41
1
41
1
41
1
41
1
41
1
41
1
41
1
41
1
41
1
41
1
41
1
41
1
41
1
41
1
41
1
41
1
41
1
41
1
41
1
41
1
41
1
41
1
41
1
41
1
41
1
41
1
41
1
41
1
41
1
41
1
41
1
41
1
41
1
41
1
41
1
41
1
41
1
41
1
41
1
41
1
41
1
41
1
41
1
41
1
41
1
41
1
41
1
41
1
41
1
41
1
41
1
41
1
41
1
41
1
41
1
41
1
41
1
41
1
41
1
41
1
41
1
41
1
41
1
41
1
41
1
41
1
41
1
41
1
41
1
41
1
41
1
41
1
41
1
41
1
41
1
41
1
41
1
41
1
41
1
41
1
41
1
41
1
41
1
41
1
41
1
41
1
41
1
41
1
41
1
10
0
20
3.0549999999999997
30
0
10
0.018619042693708152
20
3.0324134814002814
30
0
10
0.055985916746194853
20
2.9896751776023516
30
0
10
0.11242259141112368
20
2.9328718504663391
30
0
10
0.18844436482922217
20
2.8717453377669697
30
0
10
0.28474721387987656
20
2.819338183872361
30
0
10
0.38228734583930846
20
2.7898662762208888
30
0
10
0.48098641294475081
20
2.7811593833332711
30
0
10
0.58071442135537299
20
2.7896271141833928
30
0
10
0.68127166784602156
20
2.8097524835808132
30
0
10
0.78241656445121888
20
2.8349508189873718
30
0
10
0.88390286917173189
20
2.8587089385000262
30
0
10
0.98551476774339686
20
2.8756598230566324
30
0
10
1.0871003903162202
20
2.8826124536287296
30
0
10
1.1886125736661628
20
2.8797933014532311
30
0
10
1.2900784552387301
20
2.8700034072554539
30
0
10
1.3915582628882439
20
2.8574555455478872
30
0
10
1.493107339561017
20
2.8467142743463691
30
0
10
1.5947381756681425
20
2.8416180406246911
30
0
10
1.6963787328671367
20
2.8441415300669211
30
0
10
1.7979086391733414
20
2.8546745829808589
30
0
10
1.8992006848699923
20
2.8723987837345
30
0
10
2.0001603678221946
20
2.8956275375722322
30
0
10
2.1007663008681794
20
2.9221608746193568
30
0
10
2.2011102319873022
20
2.9496335267468647
30
0
10
2.301354228210259
20
2.9757358499198707
30
0
10
2.401687785908551
20
2.9984344164120302
30
0
10
2.5022851897246778
20
3.0161914443419446
30
0
10
2.6032623234364047
20
3.0281884858117207
30
0
10
2.7046349121297157
20
3.0345391483809916
30
0
10
2.8063430030743817
20
3.035999435932542
30
0
10
2.9082740810491945
20
3.0336867167684547
30
0
10
3.0102865712178808
20
3.0287999169148323
30
0
10
3.1122333441405163
20
3.0223296967247331
30
0
10
3.2139846270783274
20
3.0148007513460264
30
0
10
3.3154424062063281
20
3.0063442344022571
30
0
10
3.4165563435731268
20
2.9967386356553884
30
0
10
3.5173375352707099
20
2.9854717633006556
30
0
10
3.6178769875191752
20
2.9717718221826699
30
0
10
3.7183509667422636
20
2.954715372923034
30
0
10
3.8189613438277958
20
2.933686922284358
30
0
10
3.9198823863981724
20
2.9088184705467404
30
0
10
4.0212087895855895
20
2.8813874447287944
30
0
10
4.1228943315411666
20
2.8543500181118491
30
0
10
4.2247212454784915
20
2.8324629655121036
30
0
10
4.3263920285166355
20
2.8208186836050957
30
0
10
4.4276052857743258
20
2.8235593272401549
30
0
10
4.5281327400156837
20
2.8426417855863244
30
0
10
4.6279077618777205
20
2.8762927202904627
30
0
10
4.7270707590401004
20
2.9185080665631693
30
0
10
4.8258938127722342
20
2.9613738891202788
30
0
10
4.9247276081298779
20
2.9969236046222889
30
0
10
5.0239401606518932
20
3.0190493628792554
30
0
10
5.1238577182130989
20
3.0256964650522269
30
0
10
5.2247091916456672
20
3.0199902730821346
30
0
10
5.3265936432773078
20
3.0077790356601848
30
0
10
5.4294389388878717
20
2.9957089949689317
30
0
10
5.5329736514725747
20
2.989240308559066
30
0
10
5.6366697192962478
20
2.9903322750846928
30
0
10
5.7397739207064973
20
2.9964369853022408
30
0
10
5.8415242350214092
20
3.0024718504165939
30
0
10
5.9413409145947602
20
3.0022212634717684
30
0
10
6.0390015706535882
20
2.9898772393673676
30
0
10
6.134886151528061
20
2.9617317727578438
30
0
10
6.2299716367125537
20
2.9170592659665706
30
0
10
6.3254409778521516
20
2.857637077415359
30
0
10
6.4223727195084752
20
2.787611507807974
30
0
10
6.5214207345979514
20
2.7131845533370713
30
0
10
6.6224442456996693
20
2.642476740378096
30
0
10
6.7243233811342655
20
2.5850170289316536
30
0
10
6.8254893353677755
20
2.5499861411577052
30
0
10
6.9243540959371348
20
2.5446006065259223
30
0
10
7.019756241204699
20
2.5725427705029635
30
0
10
7.1114547355118685
20
2.6321289897094671
30
0
10
7.2004360488448969
20
2.7153188261977919
30
0
10
7.2883782713345475
20
2.8104203326469639
30
0
10
7.3772481614847223
20
2.9042128110092111
30
0
10
7.4688258249501356
20
2.9843903533990273
30
0
10
7.5643079063289775
20
3.0416503793744947
30
0
10
7.663755599034646
20
3.0724911752913209
30
0
10
7.7662576842472753
20
3.0787289421356219
30
0
10
7.8704069587399781
20
3.0655599464652767
30
0
10
7.9746912595682415
20
3.040048554348147
30
0
10
8.0778874318591996
20
3.0095262099719857
30
0
10
8.1795372732612464
20
2.979807418297193
30
0
10
8.2798428699161715
20
2.9549476947469411
30
0
10
8.3793795415045587
20
2.9375109240050659
30
0
10
8.4788629858930005
20
2.9286593134016141
30
0
10
8.5789101079798602
20
2.9283280945911443
30
0
10
8.6797605334151395
20
2.9353332729310626
30
0
10
8.7813296994619918
20
2.9477268017290443
30
0
10
8.8833469906266682
20
2.9631996075834106
30
0
10
8.9854670539005532
20
2.9794775152828681
30
0
10
9.0873867872696241
20
2.9946997716661459
30
0
10
9.1889744063748751
20
3.0078587198000859
30
0
10
9.2902419749031271
20
3.0186558265120715
30
0
10
9.3912926457253292
20
3.0272678677713709
30
0
10
9.4922764530188779
20
3.0341429921442122
30
0
10
9.5933436390475251
20
3.0397891934346206
30
0
10
9.6945961023257876
20
3.0445533465645527
30
0
10
9.7960942560052313
20
3.0486411822119361
30
0
10
9.8775135881569192
20
3.0514536029402572
30
0
10
9.9387067592265126
20
3.0533208911950043
30
0
10
9.9795593894463384
20
3.0544582195676928
30
0
10
10
20
3.0549999999999997
30
0
0
ENDSEC
0
SECTION
2
OBJECTS
0
DICTIONARY
5
C
100
AcDbDictionary
3
ACAD_GROUP
350
D
3
ACAD_MLINESTYLE
350
17
0
DICTIONARY
5
D
100
AcDbDictionary
0
DICTIONARY
5
1A
330
C
100
AcDbDictionary
0
DICTIONARY
5
17
100
AcDbDictionary
0
ENDSEC
0
EOF
