0
SECTION
2
HEADER
9
$INSUNITS
70
4
9
$ACADVER
1
AC1014
9
$HANDSEED
5
FFFF
0
ENDSEC
0
SECTION
2
TABLES
0
TABLE
2
VPORT
5
8
100
AcDbSymbolTable
0
ENDTAB
0
TABLE
2
LTYPE
5
5
100
AcDbSymbolTable
0
LTYPE
5
14
100
AcDbSymbolTableRecord
100
AcDbLinetypeTableRecord
2
BYBLOCK
70
0
0
LTYPE
5
15
100
AcDbSymbolTableRecord
100
AcDbLinetypeTableRecord
2
BYLAYER
70
0
0
ENDTAB
0
TABLE
2
LAYER
5
2
100
AcDbSymbolTable
70
2
0
LAYER
5
50
100
AcDbSymbolTableRecord
100
AcDbLayerTableRecord
2
0
70
0
6
CONTINUOUS
0
ENDTAB
0
TABLE
2
STYLE
5
3
100
AcDbSymbolTable
70
1
0
STYLE
5
11
100
AcDbSymbolTableRecord
100
AcDbTextStyleTableRecord
2
STANDARD
70
0
0
ENDTAB
0
TABLE
2
VIEW
5
6
100
AcDbSymbolTable
70
0
0
ENDTAB
0
TABLE
2
UCS
5
7
100
AcDbSymbolTable
70
0
0
ENDTAB
0
TABLE
2
APPID
5
9
100
AcDbSymbolTable
70
2
0
APPID
5
12
100
AcDbSymbolTableRecord
100
AcDbRegAppTableRecord
2
ACAD
70
0
0
ENDTAB
0
TABLE
2
DIMSTYLE
5
A
100
AcDbSymbolTable
70
1
0
ENDTAB
0
TABLE
2
BLOCK_RECORD
5
1
100
AcDbSymbolTable
70
1
0
BLOCK_RECORD
5
1F
100
AcDbSymbolTableRecord
100
AcDbBlockTableRecord
2
*MODEL_SPACE
0
BLOCK_RECORD
5
1B
100
AcDbSymbolTableRecord
100
AcDbBlockTableRecord
2
*PAPER_SPACE
0
ENDTAB
0
ENDSEC
0
SECTION
2
BLOCKS
0
BLOCK
5
20
100
AcDbEntity
100
AcDbBlockBegin
2
*MODEL_SPACE
0
ENDBLK
5
21
100
AcDbEntity
100
AcDbBlockEnd
0
BLOCK
5
1C
100
AcDbEntity
100
AcDbBlockBegin
2
*PAPER_SPACE
0
ENDBLK
5
1D
100
AcDbEntity
100
AcDbBlockEnd
0
ENDSEC
0
SECTION
2
ENTITIES
0
SPLINE
5
100
100
AcDbEntity
8
0
100
AcDbSpline
70
4
71
5
72
16
73
10
74
0
42
0.000000001
43
0.0000000001
44
0.0000000001
40
0
40
0
40
0
40
0
40
0
40
0
40
0.20000000000000001
40
0.40000000000000002
40
0.60000000000000009
40
0.80000000000000004
40
1
40
1
40
1
40
1
40
1
40
1
41
1
41
1
41
1
41
1
41
1
41
1
41
1
41
1
41
1
41
1
10
0
20
-0.055000000000000049
30
0
10
0
20
0.069400000000207365
30
0
10
0
20
0.31820000000056603
30
0
10
0
20
0.69140000000093593
30
0
10
0
20
1.1890000000011365
30
0
10
0
20
1.8110000000010393
30
0
10
0
20
2.3086000000007481
30
0
10
0
20
2.6818000000004227
30
0
10
0
20
2.9306000000001484
30
0
10
0
20
3.0549999999999997
30
0
0
SPLINE
5
101
100
AcDbEntity
8
0
100
AcDbSpline
70
4
71
5
72
16
73
10
74
0
42
0.000000001
43
0.0000000001
44
0.0000000001
40
0
40
0
40
0
40
0
40
0
40
0
40
0.20000000000000001
40
0.40000000000000002
40
0.60000000000000009
40
0.80000000000000004
40
1
40
1
40
1
40
1
40
1
40
1
41
1
41
1
41
1
41
1
41
1
41
1
41
1
41
1
41
1
41
1
10
10
20
-0.055000000000000049
30
0
10
9.9999999999997495
20
0.069400000000207365
30
0
10
9.9999999999993197
20
0.31820000000056603
30
0
10
9.9999999999989129
20
0.69140000000093593
30
0
10
9.9999999999987672
20
1.1890000000011365
30
0
10
9.9999999999990248
20
1.8110000000010393
30
0
10
9.9999999999993889
20
2.3086000000007481
30
0
10
9.9999999999996998
20
2.6818000000004227
30
0
10
9.9999999999999005
20
2.9306000000001484
30
0
10
10
20
3.0549999999999997
30
0
0
SPLINE
5
102
100
AcDbEntity
8
0
100
AcDbSpline
70
4
71
5
72
16
73
10
74
0
42
0.000000001
43
0.0000000001
44
0.0000000001
40
0
40
0
40
0
40
0
40
0
40
0
40
0.20000000000000001
40
0.40000000000000002
40
0.60000000000000009
40
0.80000000000000004
40
1
40
1
40
1
40
1
40
1
40
1
41
1
41
1
41
1
41
1
41
1
41
1
41
1
41
1
41
1
41
1
10
0
20
1.5274999999999999
30
0
10
0.40000000000047375
20
1.5274999999999856
30
0
10
1.2000000000012774
20
1.5274999999999614
30
0
10
2.4000000000020547
20
1.527499999999943
30
0
10
4.0000000000023546
20
1.5274999999999479
30
0
10
6.0000000000019584
20
1.5274999999999812
30
0
10
7.6000000000012928
20
1.5275000000000025
30
0
10
8.800000000000697
20
1.5275000000000083
30
0
10
9.6000000000002395
20
1.5275000000000039
30
0
10
10
20
1.5274999999999999
30
0
0
SPLINE
5
103
100
AcDbEntity
8
0
100
AcDbSpline
70
4
71
5
72
111
73
105
74
0
42
0.000000001
43
0.0000000001
44
0.0000000001
40
0
40
0
40
0
40
0
40
0
40
0
40
0.01
40
0.02
40
0.029999999999999999
40
0.040000000000000001
40
0.050000000000000003
40
0.060000000000000005
40
0.070000000000000007
40
0.080000000000000002
40
0.089999999999999997
40
0.099999999999999992
40
0.10999999999999999
40
0.11999999999999998
40
0.12999999999999998
40
0.13999999999999999
40
0.14999999999999999
40
0.16
40
0.17000000000000001
40
0.18000000000000002
40
0.19000000000000003
40
0.20000000000000004
40
0.21000000000000005
40
0.22000000000000006
40
0.23000000000000007
40
0.24000000000000007
40
0.25000000000000006
40
0.26000000000000006
40
0.27000000000000007
40
0.28000000000000008
40
0.29000000000000009
40
0.3000000000000001
40
0.31000000000000011
40
0.32000000000000012
40
0.33000000000000013
40
0.34000000000000014
40
0.35000000000000014
40
0.36000000000000015
40
0.37000000000000016
40
0.38000000000000017
40
0.39000000000000018
40
0.40000000000000019
40
0.4100000000000002
40
0.42000000000000021
40
0.43000000000000022
40
0.44000000000000022
40
0.45000000000000023
40
0.46000000000000024
40
0.47000000000000025
40
0.48000000000000026
40
0.49000000000000027
40
0.50000000000000022
40
0.51000000000000023
40
0.52000000000000024
40
0.53000000000000025
40
0.54000000000000026
40
0.55000000000000027
40
0.56000000000000028
40
0.57000000000000028
40
0.58000000000000029
40
0.5900000000000003
40
0.60000000000000031
40
0.61000000000000032
40
0.62000000000000033
40
0.63000000000000034
40
0.64000000000000035
40
0.65000000000000036
40
0.66000000000000036
40
0.67000000000000037
40
0.68000000000000038
40
0.69000000000000039
40
0.7000000000000004
40
0.71000000000000041
40
0.72000000000000042
40
0.73000000000000043
40
0.74000000000000044
40
0.75000000000000044
40
0.76000000000000045
40
0.77000000000000046
40
0.78000000000000047
40
0.79000000000000048
40
0.80000000000000049
40
0.8100000000000005
40
0.82000000000000051
40
0.83000000000000052
40
0.84000000000000052
40
0.85000000000000053
40
0.86000000000000054
40
0.87000000000000055
40
0.88000000000000056
40
0.89000000000000057
40
0.90000000000000058
40
0.91000000000000059
40
0.9200000000000006
40
0.9300000000000006
40
0.94000000000000061
40
0.95000000000000062
40
0.96000000000000063
40
0.97000000000000064
40
0.98000000000000065
40
0.99000000000000066
40
1
40
1
40
1
40
1
40
1
40
1
41
1
41
1
41
1
41
1
41
1
41
1
41
1
41
1
41
1
41
1
41
1
41
1
41
1
41
1
41
1
41
1
41
1
41
1
41
1
41
1
41
1
41
1
41
1
41
1
41
1
41
1
41
1
41
1
41
1
41
1
41
1
41
1
41
1
41
1
41
1
41
1
41
1
41
1
41
1
41
1
41
1
41
1
41
1
41
1
41
1
41
1
41
1
41
1
41
1
41
1
41
1
41
1
41
1
41
1
41
1
41
1
41
1
41
1
41
1
41
1
41
1
41
1
41
1
41
1
41
1
41
1
41
1
41
1
41
1
41
1
41
1
41
1
41
1
41
1
41
1
41
1
41
1
41
1
41
1
41
1
41
1
41
1
41
1
41
1
41
1
41
1
41
1
41
1
41
1
41
1
41
1
41
1
41
1
41
1
41
1
41
1
41
1
41
1
41
1
41
1
41
1
41
1
41
1
41
1
41
1
10
0
20
-0.055000000000000049
30
0
10
0.019552237915198504
20
-0.030636710210170212
30
0
10
0.058726835473845371
20
0.014789325513620834
30
0
10
0.11769909655448108
20
0.07302677194959957
30
0
10
0.19674957981927282
20
0.13087004985345657
30
0
10
0.29625218742083509
20
0.1708425183207013
30
0
10
0.39640817966095865
20
0.18055039904234199
30
0
10
0.49714466015191366
20
0.16415998014400102
30
0
10
0.5983399085051373
20
0.12862390152844436
30
0
10
0.6998100723429912
20
0.084437953056300044
30
0
10
0.80134995749175997
20
0.043418984700803805
30
0
10
0.90277544331945525
20
0.016394474753315302
30
0
10
1.0039647878299722
20
0.010950809641241148
30
0
10
1.1049016336826636
20
0.029093874526680316
30
0
10
1.2057140186249378
20
0.065113954310420399
30
0
10
1.306609447892394
20
0.10878769689799439
30
0
10
1.4078126562839202
20
0.14843633404845483
30
0
10
1.5095039445344307
20
0.17396695177052812
30
0
10
1.6117536398910579
20
0.18008196327765863
30
0
10
1.7144684778416963
20
0.16895972630612224
30
0
10
1.8174608284023599
20
0.14741529890547406
30
0
10
1.9205102377884622
20
0.12442964752731538
30
0
10
2.0234243022763283
20
0.1086546584489925
30
0
10
2.1261081847701386
20
0.10566064732070288
30
0
10
2.2286048203238495
20
0.11611955247197976
30
0
10
2.3310299231679146
20
0.1374520961048811
30
0
10
2.4335213498733097
20
0.16493745694896864
30
0
10
2.5361880041482951
20
0.19299454747476413
30
0
10
2.63904665083881
20
0.21647941017024999
30
0
10
2.7420051211984493
20
0.23166483141333991
30
0
10
2.8449324317710993
20
0.23646421834795855
30
0
10
2.9477140457957676
20
0.23089746382660015
30
0
10
3.0503040558636392
20
0.21730611529730509
30
0
10
3.1528006977214025
20
0.20105353575327903
30
0
10
3.2554269492317891
20
0.18957160291063366
30
0
10
3.3584148659374828
20
0.18982968591796906
30
0
10
3.4619090338413043
20
0.20604317733994104
30
0
10
3.5658769958062764
20
0.23768071413561451
30
0
10
3.6699795919536857
20
0.27634804098109289
30
0
10
3.7736378900969889
20
0.30795582597250287
30
0
10
3.8762086337128436
20
0.31774836463834233
30
0
10
3.9771323998556434
20
0.2946755031699661
30
0
10
4.076079137185614
20
0.23553460556886335
30
0
10
4.1731308189731582
20
0.15050888152494316
30
0
10
4.2687036244387055
20
0.059329750078462362
30
0
10
4.3633960306897599
20
-0.015141500069834765
30
0
10
4.4578563654635426
20
-0.052786327690221568
30
0
10
4.5526549697880592
20
-0.041598781815304936
30
0
10
4.6481228997165349
20
0.014911317712181691
30
0
10
4.7443388933145059
20
0.098887940193944673
30
0
10
4.8412339085692917
20
0.18597087005376878
30
0
10
4.9386645050594495
20
0.25148528031380479
30
0
10
5.0364926748146077
20
0.27670601379152582
30
0
10
5.1346780908051359
20
0.25654775092366089
30
0
10
5.2333127343882158
20
0.20164677556640132
30
0
10
5.3325520253442455
20
0.13066800861929145
30
0
10
5.4325681498087395
20
0.064606003127395284
30
0
10
5.5334977125566622
20
0.020796426141432879
30
0
10
5.6353840484690041
20
0.0058309806048055081
30
0
10
5.738147605654853
20
0.012979649070324164
30
0
10
5.8416187362541301
20
0.029096600038939949
30
0
10
5.9455573316607762
20
0.039814593152379743
30
0
10
6.0496773236790968
20
0.034787395964008268
30
0
10
6.1536699098000103
20
0.014454074886670269
30
0
10
6.2572240852992964
20
-0.0097259693982096398
30
0
10
6.3600427931183052
20
-0.022225080647764371
30
0
10
6.4618602106000615
20
-0.0088122071203478869
30
0
10
6.5624587966467862
20
0.038136930276592512
30
0
10
6.6616859705976008
20
0.11255592158593423
30
0
10
6.7594728836998303
20
0.19659465551292277
30
0
10
6.8558528629589315
20
0.26787484803252626
30
0
10
6.9509827475289327
20
0.30542621123194136
30
0
10
7.0451570720567558
20
0.29546398102537669
30
0
10
7.1388401774297456
20
0.23896111116299798
30
0
10
7.2326340847248218
20
0.15184441743826449
30
0
10
7.3271773108158627
20
0.057047760228656895
30
0
10
7.423060154269745
20
-0.021444243810894558
30
0
10
7.5207371754104351
20
-0.064982558615399783
30
0
10
7.620431481351658
20
-0.067359480655460935
30
0
10
7.7220710266021726
20
-0.038860699230580262
30
0
10
7.8253553244630725
20
0.0018261849909099982
30
0
10
7.9298013347787668
20
0.03410714740274489
30
0
10
8.0347986832554987
20
0.04201673252890796
30
0
10
8.1396576966698362
20
0.022125908840216542
30
0
10
8.2436704629028625
20
-0.013727864946398249
30
0
10
8.3461915110748635
20
-0.046585666335685505
30
0
10
8.4467190231893312
20
-0.056529533045082153
30
0
10
8.544966416877795
20
-0.028979186767126058
30
0
10
8.6409611699787305
20
0.037476456975164697
30
0
10
8.735046187722757
20
0.12984283769367522
30
0
10
8.8277633859282645
20
0.22769172061551671
30
0
10
8.9197667055540997
20
0.30807944750333349
30
0
10
9.0117252502594862
20
0.35115019862631164
30
0
10
9.1042259933873488
20
0.34579536422902757
30
0
10
9.1976903646526083
20
0.29427317033569772
30
0
10
9.2924105173850915
20
0.20789920208911708
30
0
10
9.3885731048466301
20
0.10368819685455552
30
0
10
9.4862881086822775
20
0.00056755771372540343
30
0
10
9.5856147299666201
20
-0.084071999552157994
30
0
10
9.6865904235708449
20
-0.13837597315655359
30
0
10
9.7892373735694633
20
-0.15533390557006982
30
0
10
9.8727001996686994
20
-0.13620695814929545
30
0
10
9.9360553576016368
20
-0.10295532406094808
30
0
10
9.9786289777261974
20
-0.072385438253074613
30
0
10
10
20
-0.055000000000000049
30
0
0
SPLINE
5
104
100
AcDbEntity
8
0
100
AcDbSpline
70
4
71
5
72
111
73
105
74
0
42
0.000000001
43
0.0000000001
44
0.0000000001
40
0
40
0
40
0
40
0
40
0
40
0
40
0.01
40
0.02
40
0.029999999999999999
40
0.040000000000000001
40
0.050000000000000003
40
0.060000000000000005
40
0.070000000000000007
40
0.080000000000000002
40
0.089999999999999997
40
0.099999999999999992
40
0.10999999999999999
40
0.11999999999999998
40
0.12999999999999998
40
0.13999999999999999
40
0.14999999999999999
40
0.16
40
0.17000000000000001
40
0.18000000000000002
40
0.19000000000000003
40
0.20000000000000004
40
0.21000000000000005
40
0.22000000000000006
40
0.23000000000000007
40
0.24000000000000007
40
0.25000000000000006
40
0.26000000000000006
40
0.27000000000000007
40
0.28000000000000008
40
0.29000000000000009
40
0.3000000000000001
40
0.31000000000000011
40
0.32000000000000012
40
0.33000000000000013
40
0.34000000000000014
40
0.35000000000000014
40
0.36000000000000015
40
0.37000000000000016
40
0.38000000000000017
40
0.39000000000000018
40
0.40000000000000019
40
0.4100000000000002
40
0.42000000000000021
40
0.43000000000000022
40
0.44000000000000022
40
0.45000000000000023
40
0.46000000000000024
40
0.47000000000000025
40
0.48000000000000026
40
0.49000000000000027
40
0.50000000000000022
40
0.51000000000000023
40
0.52000000000000024
40
0.53000000000000025
40
0.54000000000000026
40
0.55000000000000027
40
0.56000000000000028
40
0.57000000000000028
40
0.58000000000000029
40
0.5900000000000003
40
0.60000000000000031
40
0.61000000000000032
40
0.62000000000000033
40
0.63000000000000034
40
0.64000000000000035
40
0.65000000000000036
40
0.66000000000000036
40
0.67000000000000037
40
0.68000000000000038
40
0.69000000000000039
40
0.7000000000000004
40
0.71000000000000041
40
0.72000000000000042
40
0.73000000000000043
40
0.74000000000000044
40
0.75000000000000044
40
0.76000000000000045
40
0.77000000000000046
40
0.78000000000000047
40
0.79000000000000048
40
0.80000000000000049
40
0.8100000000000005
40
0.82000000000000051
40
0.83000000000000052
40
0.84000000000000052
40
0.85000000000000053
40
0.86000000000000054
40
0.87000000000000055
40
0.88000000000000056
40
0.89000000000000057
40
0.90000000000000058
40
0.91000000000000059
40
0.9200000000000006
40
0.9300000000000006
40
0.94000000000000061
40
0.95000000000000062
40
0.96000000000000063
40
0.97000000000000064
40
0.98000000000000065
40
0.99000000000000066
40
1
40
1
40
1
40
1
40
1
40
1
41
1
41
1
41
1
41
1
41
1
41
1
41
1
41
1
41
1
41
1
41
1
41
1
41
1
41
1
41
1
41
1
41
1
41
1
41
1
41
1
41
1
41
1
41
1
41
1
41
1
41
1
41
1
41
1
41
1
41
1
41
1
41
1
41
1
41
1
41
1
41
1
41
1
41
1
41
1
41
1
41
1
41
1
41
1
41
1
41
1
41
1
41
1
41
1
41
1
41
1
41
1
41
1
41
1
41
1
41
1
41
1
41
1
41
1
41
1
41
1
41
1
41
1
41
1
41
1
41
1
41
1
41
1
41
1
41
1
41
1
41
1
41
1
41
1
41
1
41
1
41
1
41
1
41
1
41
1
41
1
41
1
41
1
41
1
41
1
41
1
41
1
41
1
41
1
41
1
41
1
41
1
41
1
41
1
41
1
41
1
41
1
41
1
41
1
41
1
41
1
41
1
41
1
41
1
41
1
41
1
10
0
20
3.0549999999999997
30
0
10
0.021128131329490454
20
3.0712548640266011
30
0
10
0.063217170219347377
20
3.0997572832769436
30
0
10
0.12584905697202628
20
3.130488869868441
30
0
10
0.20835473518904246
20
3.1474173231618972
30
0
10
0.30982301872199058
20
3.1295929053445355
30
0
10
0.40965525037136874
20
3.076121979116675
30
0
10
0.50790811933638647
20
2.9936796370288397
30
0
10
0.60467740493495825
20
2.8934930629884379
30
0
10
0.70010738634642233
20
2.7922201362360299
30
0
10
0.79439191521481511
20
2.708153894706772
30
0
10
0.88777545711150774
20
2.657814007083092
30
0
10
0.98055535660258775
20
2.6522122799220367
30
0
10
1.0730809226596234
20
2.6936636733265589
30
0
10
1.1657608941796849
20
2.7712938767345023
30
0
10
1.25901649978323
20
2.8649773976546218
30
0
10
1.3532230465222748
20
2.9512274894001438
30
0
10
1.4486514201056302
20
3.0087030250035109
30
0
10
1.5454184613957092
20
3.0232404322147195
30
0
10
1.6434116492501962
20
2.9946500792812087
30
0
10
1.7423072942032083
20
2.9368489965492079
30
0
10
1.8416914242774247
20
2.8705613799067087
30
0
10
1.9411585770842756
20
2.8177204687932287
30
0
10
2.0404089866555162
20
2.7957280910234319
30
0
10
2.1393720873779696
20
2.8104474195109619
30
0
10
2.2382281687430576
20
2.8544384277618802
30
0
10
2.337278244058675
20
2.9131297014727053
30
0
10
2.4368459916588683
20
2.9692521541060275
30
0
10
2.5371764476237586
20
3.0075897305518446
30
0
10
2.6383128027787706
20
3.0205149642966509
30
0
10
2.7400621947919084
20
3.0100329877843155
30
0
10
2.842117932669308
20
2.9835642038216004
30
0
10
2.9441509315256011
20
2.9510230556763677
30
0
10
3.0459031369111451
20
2.9216632979829549
30
0
10
3.147305225306253
20
2.9003311219464689
30
0
10
3.2484909710546921
20
2.886539197501969
30
0
10
3.3496837118657719
20
2.8771122419515787
30
0
10
3.4511106517552053
20
2.8680169442651109
30
0
10
3.5529167836221283
20
2.8562954510665723
30
0
10
3.6550521931870552
20
2.8425114674110405
30
0
10
3.7572785510781044
20
2.8307328613478933
30
0
10
3.859284977896178
20
2.826229147806262
30
0
10
3.9607784799526153
20
2.8337026011213196
30
0
10
4.0615736204629442
20
2.8555310912086322
30
0
10
4.1617103901049202
20
2.8894311189153314
30
0
10
4.261431026196882
20
2.9290282245262884
30
0
10
4.3610690674618731
20
2.9662364793660929
30
0
10
4.4609604689639344
20
2.9931845190735173
30
0
10
4.5613558535163659
20
3.0041151199137843
30
0
10
4.6623067064404884
20
2.9978302055319817
30
0
10
4.7636815671586472
20
2.9774181734325667
30
0
10
4.8652625275652923
20
2.9482918008790571
30
0
10
4.9668212657156303
20
2.916675466271712
30
0
10
5.0681946818579302
20
2.888052332548587
30
0
10
5.1693830066214019
20
2.8652631930665899
30
0
10
5.2705211573662991
20
2.848680277283377
30
0
10
5.3717910631142898
20
2.8373671102380005
30
0
10
5.4733489959590322
20
2.829965710952727
30
0
10
5.5752551826797179
20
2.8256018755582115
30
0
10
5.6773805991134036
20
2.8250252784190826
30
0
10
5.7794599129781474
20
2.8301307360161028
30
0
10
5.881192755933804
20
2.8429372362549659
30
0
10
5.9823323299618067
20
2.8647106360173149
30
0
10
6.0827716492880137
20
2.8951088731447348
30
0
10
6.1826508988093751
20
2.9311003020364423
30
0
10
6.2822835963900889
20
2.9678377452360909
30
0
10
6.3820473505240871
20
2.9999140427341442
30
0
10
6.4822836044726531
20
3.0225227371550716
30
0
10
6.5832012173973524
20
3.0325723874835671
30
0
10
6.6847584070724366
20
3.0300477236223329
30
0
10
6.786728384049975
20
3.0172868060102194
30
0
10
6.8888009456146184
20
2.9978509473150012
30
0
10
6.9906731356287377
20
2.9755180873838851
30
0
10
7.092140793200171
20
2.9532677044640949
30
0
10
7.1931996463128192
20
2.9321539417273881
30
0
10
7.2939903249282798
20
2.9119926282980222
30
0
10
7.3947284954405657
20
2.892218500901131
30
0
10
7.4956399646563803
20
2.8726912047896311
30
0
10
7.5968947617747231
20
2.854498803441242
30
0
10
7.6985387586963032
20
2.840829392796949
30
0
10
7.8005198568123566
20
2.8356037031513419
30
0
10
7.9027182040886483
20
2.8420023741103813
30
0
10
8.0049747222380976
20
2.861057546665347
30
0
10
8.1071206697450151
20
2.8901563581954166
30
0
10
8.2090057492220936
20
2.9217465559504623
30
0
10
8.3105007682564462
20
2.9461059298608157
30
0
10
8.4115013197997648
20
2.953989108451947
30
0
10
8.5119310858113622
20
2.9392314098072116
30
0
10
8.6117453498379817
20
2.9015789779152708
30
0
10
8.7109343532903161
20
2.8488261491871958
30
0
10
8.8095257034085215
20
2.7932443351557543
30
0
10
8.9075869535036478
20
2.7485250189169923
30
0
10
9.0052279956378811
20
2.7265624416011836
30
0
10
9.102603910897102
20
2.7342223041977549
30
0
10
9.1999166683250237
20
2.7703442663460591
30
0
10
9.2973934219623473
20
2.8281684390595223
30
0
10
9.395265981561737
20
2.8974999326726056
30
0
10
9.4937496218798465
20
2.9669897284669835
30
0
10
9.5930226864445292
20
3.0263186119644345
30
0
10
9.6932044151960088
20
3.0685482864367404
30
0
10
9.7943656737074249
20
3.0895485821051478
30
0
10
9.8761064189344747
20
3.0877139722781828
30
0
10
9.937873684470226
20
3.0755512865447967
30
0
10
9.9792570329835719
20
3.0626493375777231
30
0
10
10
20
3.0549999999999997
30
0
0
ENDSEC
0
SECTION
2
OBJECTS
0
DICTIONARY
5
C
100
AcDbDictionary
3
ACAD_GROUP
350
D
3
ACAD_MLINESTYLE
350
17
0
DICTIONARY
5
D
100
AcDbDictionary
0
DICTIONARY
5
1A
330
C
100
AcDbDictionary
0
DICTIONARY
5
17
100
AcDbDictionary
0
ENDSEC
0
EOF
