0
SECTION
2
HEADER
9
$INSUNITS
70
4
9
$ACADVER
1
AC1014
9
$HANDSEED
5
FFFF
0
ENDSEC
0
SECTION
2
TABLES
0
TABLE
2
VPORT
5
8
100
AcDbSymbolTable
0
ENDTAB
0
TABLE
2
LTYPE
5
5
100
AcDbSymbolTable
0
LTYPE
5
14
100
AcDbSymbolTableRecord
100
AcDbLinetypeTableRecord
2
BYBLOCK
70
0
0
LTYPE
5
15
100
AcDbSymbolTableRecord
100
AcDbLinetypeTableRecord
2
BYLAYER
70
0
0
ENDTAB
0
TABLE
2
LAYER
5
2
100
AcDbSymbolTable
70
2
0
LAYER
5
50
100
AcDbSymbolTableRecord
100
AcDbLayerTableRecord
2
0
70
0
6
CONTINUOUS
0
ENDTAB
0
TABLE
2
STYLE
5
3
100
AcDbSymbolTable
70
1
0
STYLE
5
11
100
AcDbSymbolTableRecord
100
AcDbTextStyleTableRecord
2
STANDARD
70
0
0
ENDTAB
0
TABLE
2
VIEW
5
6
100
AcDbSymbolTable
70
0
0
ENDTAB
0
TABLE
2
UCS
5
7
100
AcDbSymbolTable
70
0
0
ENDTAB
0
TABLE
2
APPID
5
9
100
AcDbSymbolTable
70
2
0
APPID
5
12
100
AcDbSymbolTableRecord
100
AcDbRegAppTableRecord
2
ACAD
70
0
0
ENDTAB
0
TABLE
2
DIMSTYLE
5
A
100
AcDbSymbolTable
70
1
0
ENDTAB
0
TABLE
2
BLOCK_RECORD
5
1
100
AcDbSymbolTable
70
1
0
BLOCK_RECORD
5
1F
100
AcDbSymbolTableRecord
100
AcDbBlockTableRecord
2
*MODEL_SPACE
0
BLOCK_RECORD
5
1B
100
AcDbSymbolTableRecord
100
AcDbBlockTableRecord
2
*PAPER_SPACE
0
ENDTAB
0
ENDSEC
0
SECTION
2
BLOCKS
0
BLOCK
5
20
100
AcDbEntity
100
AcDbBlockBegin
2
*MODEL_SPACE
0
ENDBLK
5
21
100
AcDbEntity
100
AcDbBlockEnd
0
BLOCK
5
1C
100
AcDbEntity
100
AcDbBlockBegin
2
*PAPER_SPACE
0
ENDBLK
5
1D
100
AcDbEntity
100
AcDbBlockEnd
0
ENDSEC
0
SECTION
2
ENTITIES
0
SPLINE
5
100
100
AcDbEntity
8
0
100
AcDbSpline
70
4
71
5
72
16
73
10
74
0
42
0.000000001
43
0.0000000001
44
0.0000000001
40
0
40
0
40
0
40
0
40
0
40
0
40
0.20000000000000001
40
0.40000000000000002
40
0.60000000000000009
40
0.80000000000000004
40
1
40
1
40
1
40
1
40
1
40
1
41
1
41
1
41
1
41
1
41
1
41
1
41
1
41
1
41
1
41
1
10
0
20
-0.055000000000000049
30
0
10
0
20
0.069400000000207365
30
0
10
0
20
0.31820000000056603
30
0
10
0
20
0.69140000000093593
30
0
10
0
20
1.1890000000011365
30
0
10
0
20
1.8110000000010393
30
0
10
0
20
2.3086000000007481
30
0
10
0
20
2.6818000000004227
30
0
10
0
20
2.9306000000001484
30
0
10
0
20
3.0549999999999997
30
0
0
SPLINE
5
101
100
AcDbEntity
8
0
100
AcDbSpline
70
4
71
5
72
16
73
10
74
0
42
0.000000001
43
0.0000000001
44
0.0000000001
40
0
40
0
40
0
40
0
40
0
40
0
40
0.20000000000000001
40
0.40000000000000002
40
0.60000000000000009
40
0.80000000000000004
40
1
40
1
40
1
40
1
40
1
40
1
41
1
41
1
41
1
41
1
41
1
41
1
41
1
41
1
41
1
41
1
10
10
20
-0.055000000000000049
30
0
10
9.9999999999997495
20
0.069400000000207365
30
0
10
9.9999999999993197
20
0.31820000000056603
30
0
10
9.9999999999989129
20
0.69140000000093593
30
0
10
9.9999999999987672
20
1.1890000000011365
30
0
10
9.9999999999990248
20
1.8110000000010393
30
0
10
9.9999999999993889
20
2.3086000000007481
30
0
10
9.9999999999996998
20
2.6818000000004227
30
0
10
9.9999999999999005
20
2.9306000000001484
30
0
10
10
20
3.0549999999999997
30
0
0
SPLINE
5
102
100
AcDbEntity
8
0
100
AcDbSpline
70
4
71
5
72
16
73
10
74
0
42
0.000000001
43
0.0000000001
44
0.0000000001
40
0
40
0
40
0
40
0
40
0
40
0
40
0.20000000000000001
40
0.40000000000000002
40
0.60000000000000009
40
0.80000000000000004
40
1
40
1
40
1
40
1
40
1
40
1
41
1
41
1
41
1
41
1
41
1
41
1
41
1
41
1
41
1
41
1
10
0
20
1.5274999999999999
30
0
10
0.40000000000047375
20
1.5274999999999856
30
0
10
1.2000000000012774
20
1.5274999999999614
30
0
10
2.4000000000020547
20
1.527499999999943
30
0
10
4.0000000000023546
20
1.5274999999999479
30
0
10
6.0000000000019584
20
1.5274999999999812
30
0
10
7.6000000000012928
20
1.5275000000000025
30
0
10
8.800000000000697
20
1.5275000000000083
30
0
10
9.6000000000002395
20
1.5275000000000039
30
0
10
10
20
1.5274999999999999
30
0
0
SPLINE
5
103
100
AcDbEntity
8
0
100
AcDbSpline
70
4
71
5
72
61
73
55
74
0
42
0.000000001
43
0.0000000001
44
0.0000000001
40
0
40
0
40
0
40
0
40
0
40
0
40
0.02
40
0.040000000000000001
40
0.059999999999999998
40
0.080000000000000002
40
0.10000000000000001
40
0.12000000000000001
40
0.14000000000000001
40
0.16
40
0.17999999999999999
40
0.19999999999999998
40
0.21999999999999997
40
0.23999999999999996
40
0.25999999999999995
40
0.27999999999999997
40
0.29999999999999999
40
0.32000000000000001
40
0.34000000000000002
40
0.36000000000000004
40
0.38000000000000006
40
0.40000000000000008
40
0.4200000000000001
40
0.44000000000000011
40
0.46000000000000013
40
0.48000000000000015
40
0.50000000000000011
40
0.52000000000000013
40
0.54000000000000015
40
0.56000000000000016
40
0.58000000000000018
40
0.6000000000000002
40
0.62000000000000022
40
0.64000000000000024
40
0.66000000000000025
40
0.68000000000000027
40
0.70000000000000029
40
0.72000000000000031
40
0.74000000000000032
40
0.76000000000000034
40
0.78000000000000036
40
0.80000000000000038
40
0.8200000000000004
40
0.84000000000000041
40
0.86000000000000043
40
0.88000000000000045
40
0.90000000000000047
40
0.92000000000000048
40
0.9400000000000005
40
0.96000000000000052
40
0.98000000000000054
40
1
40
1
40
1
40
1
40
1
40
1
41
1
41
1
41
1
41
1
41
1
41
1
41
1
41
1
41
1
41
1
41
1
41
1
41
1
41
1
41
1
41
1
41
1
41
1
41
1
41
1
41
1
41
1
41
1
41
1
41
1
41
1
41
1
41
1
41
1
41
1
41
1
41
1
41
1
41
1
41
1
41
1
41
1
41
1
41
1
41
1
41
1
41
1
41
1
41
1
41
1
41
1
41
1
41
1
41
1
41
1
41
1
41
1
41
1
41
1
41
1
10
0
20
-0.055000000000000049
30
0
10
0.039760219648930853
20
-0.020821626883555312
30
0
10
0.11928580673646144
20
0.042697130679900788
30
0
10
0.23858963073136275
20
0.1234613404600963
30
0
10
0.3976923029429999
20
0.20209984513769083
30
0
10
0.59662322299071491
20
0.25289855076412898
30
0
10
0.79560972822736842
20
0.25912078940209327
30
0
10
0.99465768093951001
20
0.22677305444626403
30
0
10
1.1937767292776416
20
0.16598459727198822
30
0
10
1.3929812309472065
20
0.092162714424877196
30
0
10
1.5922913731991333
20
0.022728790061128629
30
0
10
1.7917342666779472
20
-0.026230679209020738
30
0
10
1.991345142254731
20
-0.043323505902220644
30
0
10
2.1911683422350898
20
-0.025124443901209124
30
0
10
2.3912589076612401
20
0.020241702087378747
30
0
10
2.5916688195552156
20
0.077593603164758204
30
0
10
2.7924326948668776
20
0.12948747024771728
30
0
10
2.9935534556773442
20
0.16092573724431425
30
0
10
3.1949883408288744
20
0.16402576957685311
30
0
10
3.3966335033941712
20
0.14293811734361664
30
0
10
3.598358376394172
20
0.10939471627291167
30
0
10
3.8000415305411628
20
0.077985060160568373
30
0
10
4.0016058578671601
20
0.061553151867672941
30
0
10
4.2030544140984976
20
0.066520998661683914
30
0
10
4.4045054213104944
20
0.088287733199566842
30
0
10
4.6061198021849918
20
0.11566841553165563
30
0
10
4.8080288201654335
20
0.13528715793904011
30
0
10
5.0102630519082272
20
0.13592363545374372
30
0
10
5.2126773330660487
20
0.1130068126809753
30
0
10
5.4148860568439314
20
0.072709404628820196
30
0
10
5.6164104220507287
20
0.027674057631772577
30
0
10
5.8168180958530114
20
-0.0069167399565431206
30
0
10
6.015862238594857
20
-0.01732601068626121
30
0
10
6.2136294129478831
20
0.0046260572241261034
30
0
10
6.4106611887176843
20
0.057916750585491256
30
0
10
6.6077238110970953
20
0.13511275943885231
30
0
10
6.80560036427641
20
0.22473376548473936
30
0
10
7.0048761167013796
20
0.31375727019207256
30
0
10
7.2057228739467192
20
0.39007525423912703
30
0
10
7.4076924805824182
20
0.4449197589370093
30
0
10
7.6099705779288538
20
0.47272043217598891
30
0
10
7.8116202374906081
20
0.47103654058243871
30
0
10
8.0118259212234655
20
0.44046304515694584
30
0
10
8.2101442787694161
20
0.38457307549336678
30
0
10
8.406733541915699
20
0.30980843903766059
30
0
10
8.6021663261177519
20
0.22438751030187862
30
0
10
8.797263895614778
20
0.13726678269250128
30
0
10
8.992922258073401
20
0.057079144630588038
30
0
10
9.1899441673753639
20
-0.0089035759144871791
30
0
10
9.3888627989477129
20
-0.055860581620932194
30
0
10
9.5899928616498222
20
-0.080947578508355877
30
0
10
9.7527892324799872
20
-0.082410697088705701
30
0
10
9.8759725403745051
20
-0.072848187896119035
30
0
10
9.9585771182874687
20
-0.061738506583024419
30
0
10
10
20
-0.055000000000000049
30
0
0
SPLINE
5
104
100
AcDbEntity
8
0
100
AcDbSpline
70
4
71
5
72
61
73
55
74
0
42
0.000000001
43
0.0000000001
44
0.0000000001
40
0
40
0
40
0
40
0
40
0
40
0
40
0.02
40
0.040000000000000001
40
0.059999999999999998
40
0.080000000000000002
40
0.10000000000000001
40
0.12000000000000001
40
0.14000000000000001
40
0.16
40
0.17999999999999999
40
0.19999999999999998
40
0.21999999999999997
40
0.23999999999999996
40
0.25999999999999995
40
0.27999999999999997
40
0.29999999999999999
40
0.32000000000000001
40
0.34000000000000002
40
0.36000000000000004
40
0.38000000000000006
40
0.40000000000000008
40
0.4200000000000001
40
0.44000000000000011
40
0.46000000000000013
40
0.48000000000000015
40
0.50000000000000011
40
0.52000000000000013
40
0.54000000000000015
40
0.56000000000000016
40
0.58000000000000018
40
0.6000000000000002
40
0.62000000000000022
40
0.64000000000000024
40
0.66000000000000025
40
0.68000000000000027
40
0.70000000000000029
40
0.72000000000000031
40
0.74000000000000032
40
0.76000000000000034
40
0.78000000000000036
40
0.80000000000000038
40
0.8200000000000004
40
0.84000000000000041
40
0.86000000000000043
40
0.88000000000000045
40
0.90000000000000047
40
0.92000000000000048
40
0.9400000000000005
40
0.96000000000000052
40
0.98000000000000054
40
1
40
1
40
1
40
1
40
1
40
1
41
1
41
1
41
1
41
1
41
1
41
1
41
1
41
1
41
1
41
1
41
1
41
1
41
1
41
1
41
1
41
1
41
1
41
1
41
1
41
1
41
1
41
1
41
1
41
1
41
1
41
1
41
1
41
1
41
1
41
1
41
1
41
1
41
1
41
1
41
1
41
1
41
1
41
1
41
1
41
1
41
1
41
1
41
1
41
1
41
1
41
1
41
1
41
1
41
1
41
1
41
1
41
1
41
1
41
1
41
1
10
0
20
3.0549999999999997
30
0
10
0.040437840984506965
20
3.0597881713940915
30
0
10
0.12127614303995422
20
3.0676456806640964
30
0
10
0.24242145617474525
20
3.0742754211705843
30
0
10
0.40372411614343379
20
3.0727955061146242
30
0
10
0.60498305640031969
20
3.054201767000829
30
0
10
0.80588809173918519
20
3.0203026744686761
30
0
10
1.0064712629312926
20
2.9740225698123393
30
0
10
1.2067871717700716
20
2.9203018913989292
30
0
10
1.406918428940203
20
2.866566368815457
30
0
10
1.6069614833603476
20
2.8210817467687264
30
0
10
1.8070129622815443
20
2.7913602195750813
30
0
10
2.0071559624640218
20
2.7825635745378885
30
0
10
2.2074460392518676
20
2.7958626684281738
30
0
10
2.407898087624285
20
2.8269155523487295
30
0
10
2.6085015711617903
20
2.868125898096769
30
0
10
2.8092349308915705
20
2.9107901858194496
30
0
10
3.0100800186646537
20
2.9472545861544752
30
0
10
3.2110370658020306
20
2.9731315404523522
30
0
10
3.4121379137082046
20
2.9893218181417218
30
0
10
3.6134229694563147
20
2.9998126769971956
30
0
10
3.8149193471262621
20
3.0096400351532706
30
0
10
4.0166193118805333
20
3.0228417038842443
30
0
10
4.2184567176939245
20
3.0403013247281256
30
0
10
4.420289244234838
20
3.0579508783297764
30
0
10
4.6219505380933903
20
3.0694122386357909
30
0
10
4.823298666121131
20
3.0683798527748465
30
0
10
5.0242637929425706
20
3.0510046465071259
30
0
10
5.2249014975662131
20
3.0185052013759703
30
0
10
5.425429098992983
20
2.9790490490671488
30
0
10
5.6261270852263472
20
2.9437861556916856
30
0
10
5.8272515496113648
20
2.9233623580397805
30
0
10
6.0289462888065888
20
2.9244157109651239
30
0
10
6.2311457267120742
20
2.9456846290045395
30
0
10
6.4335078791091673
20
2.9753976026640556
30
0
10
6.6355441736593441
20
2.9969970896166327
30
0
10
6.8367293174793877
20
2.9940564126054081
30
0
10
7.0366142977065547
20
2.9552478995497653
30
0
10
7.2349484646937645
20
2.879901502464608
30
0
10
7.4317673194807998
20
2.78152940593609
30
0
10
7.627306591757983
20
2.6812312775017109
30
0
10
7.8219398023772015
20
2.6024266431591014
30
0
10
8.01610788021849
20
2.5651814297349067
30
0
10
8.210250727811367
20
2.5804694747496231
30
0
10
8.4047429152074589
20
2.6451071184098347
30
0
10
8.5998997942796294
20
2.7462442176288446
30
0
10
8.7959784685324802
20
2.8651609805920315
30
0
10
8.9931805229277142
20
2.9813294085752502
30
0
10
9.191653906033542
20
3.0763072864817902
30
0
10
9.3914947727134592
20
3.137832236923932
30
0
10
9.5927583638692422
20
3.158648910815669
30
0
10
9.7549277782577821
20
3.1398841513749511
30
0
10
9.8772094742397893
20
3.1053816255200264
30
0
10
9.9590213647779642
20
3.0733061653453833
30
0
10
10
20
3.0549999999999997
30
0
0
ENDSEC
0
SECTION
2
OBJECTS
0
DICTIONARY
5
C
100
AcDbDictionary
3
ACAD_GROUP
350
D
3
ACAD_MLINESTYLE
350
17
0
DICTIONARY
5
D
100
AcDbDictionary
0
DICTIONARY
5
1A
330
C
100
AcDbDictionary
0
DICTIONARY
5
17
100
AcDbDictionary
0
ENDSEC
0
EOF
