0
SECTION
2
HEADER
9
$INSUNITS
70
4
9
$ACADVER
1
AC1014
9
$HANDSEED
5
FFFF
0
ENDSEC
0
SECTION
2
TABLES
0
TABLE
2
VPORT
5
8
100
AcDbSymbolTable
0
ENDTAB
0
TABLE
2
LTYPE
5
5
100
AcDbSymbolTable
0
LTYPE
5
14
100
AcDbSymbolTableRecord
100
AcDbLinetypeTableRecord
2
BYBLOCK
70
0
0
LTYPE
5
15
100
AcDbSymbolTableRecord
100
AcDbLinetypeTableRecord
2
BYLAYER
70
0
0
ENDTAB
0
TABLE
2
LAYER
5
2
100
AcDbSymbolTable
70
2
0
LAYER
5
50
100
AcDbSymbolTableRecord
100
AcDbLayerTableRecord
2
0
70
0
6
CONTINUOUS
0
ENDTAB
0
TABLE
2
STYLE
5
3
100
AcDbSymbolTable
70
1
0
STYLE
5
11
100
AcDbSymbolTableRecord
100
AcDbTextStyleTableRecord
2
STANDARD
70
0
0
ENDTAB
0
TABLE
2
VIEW
5
6
100
AcDbSymbolTable
70
0
0
ENDTAB
0
TABLE
2
UCS
5
7
100
AcDbSymbolTable
70
0
0
ENDTAB
0
TABLE
2
APPID
5
9
100
AcDbSymbolTable
70
2
0
APPID
5
12
100
AcDbSymbolTableRecord
100
AcDbRegAppTableRecord
2
ACAD
70
0
0
ENDTAB
0
TABLE
2
DIMSTYLE
5
A
100
AcDbSymbolTable
70
1
0
ENDTAB
0
TABLE
2
BLOCK_RECORD
5
1
100
AcDbSymbolTable
70
1
0
BLOCK_RECORD
5
1F
100
AcDbSymbolTableRecord
100
AcDbBlockTableRecord
2
*MODEL_SPACE
0
BLOCK_RECORD
5
1B
100
AcDbSymbolTableRecord
100
AcDbBlockTableRecord
2
*PAPER_SPACE
0
ENDTAB
0
ENDSEC
0
SECTION
2
BLOCKS
0
BLOCK
5
20
100
AcDbEntity
100
AcDbBlockBegin
2
*MODEL_SPACE
0
ENDBLK
5
21
100
AcDbEntity
100
AcDbBlockEnd
0
BLOCK
5
1C
100
AcDbEntity
100
AcDbBlockBegin
2
*PAPER_SPACE
0
ENDBLK
5
1D
100
AcDbEntity
100
AcDbBlockEnd
0
ENDSEC
0
SECTION
2
ENTITIES
0
SPLINE
5
100
100
AcDbEntity
8
0
100
AcDbSpline
70
4
71
5
72
16
73
10
74
0
42
0.000000001
43
0.0000000001
44
0.0000000001
40
0
40
0
40
0
40
0
40
0
40
0
40
0.20000000000000001
40
0.40000000000000002
40
0.60000000000000009
40
0.80000000000000004
40
1
40
1
40
1
40
1
40
1
40
1
41
1
41
1
41
1
41
1
41
1
41
1
41
1
41
1
41
1
41
1
10
0
20
-0.055000000000000049
30
0
10
0
20
0.069400000000207365
30
0
10
0
20
0.31820000000056603
30
0
10
0
20
0.69140000000093593
30
0
10
0
20
1.1890000000011365
30
0
10
0
20
1.8110000000010393
30
0
10
0
20
2.3086000000007481
30
0
10
0
20
2.6818000000004227
30
0
10
0
20
2.9306000000001484
30
0
10
0
20
3.0549999999999997
30
0
0
SPLINE
5
101
100
AcDbEntity
8
0
100
AcDbSpline
70
4
71
5
72
16
73
10
74
0
42
0.000000001
43
0.0000000001
44
0.0000000001
40
0
40
0
40
0
40
0
40
0
40
0
40
0.20000000000000001
40
0.40000000000000002
40
0.60000000000000009
40
0.80000000000000004
40
1
40
1
40
1
40
1
40
1
40
1
41
1
41
1
41
1
41
1
41
1
41
1
41
1
41
1
41
1
41
1
10
10
20
-0.055000000000000049
30
0
10
9.9999999999997495
20
0.069400000000207365
30
0
10
9.9999999999993197
20
0.31820000000056603
30
0
10
9.9999999999989129
20
0.69140000000093593
30
0
10
9.9999999999987672
20
1.1890000000011365
30
0
10
9.9999999999990248
20
1.8110000000010393
30
0
10
9.9999999999993889
20
2.3086000000007481
30
0
10
9.9999999999996998
20
2.6818000000004227
30
0
10
9.9999999999999005
20
2.9306000000001484
30
0
10
10
20
3.0549999999999997
30
0
0
SPLINE
5
102
100
AcDbEntity
8
0
100
AcDbSpline
70
4
71
5
72
16
73
10
74
0
42
0.000000001
43
0.0000000001
44
0.0000000001
40
0
40
0
40
0
40
0
40
0
40
0
40
0.20000000000000001
40
0.40000000000000002
40
0.60000000000000009
40
0.80000000000000004
40
1
40
1
40
1
40
1
40
1
40
1
41
1
41
1
41
1
41
1
41
1
41
1
41
1
41
1
41
1
41
1
10
0
20
1.5274999999999999
30
0
10
0.40000000000047375
20
1.5274999999999856
30
0
10
1.2000000000012774
20
1.5274999999999614
30
0
10
2.4000000000020547
20
1.527499999999943
30
0
10
4.0000000000023546
20
1.5274999999999479
30
0
10
6.0000000000019584
20
1.5274999999999812
30
0
10
7.6000000000012928
20
1.5275000000000025
30
0
10
8.800000000000697
20
1.5275000000000083
30
0
10
9.6000000000002395
20
1.5275000000000039
30
0
10
10
20
1.5274999999999999
30
0
0
SPLINE
5
103
100
AcDbEntity
8
0
100
AcDbSpline
70
4
71
5
72
61
73
55
74
0
42
0.000000001
43
0.0000000001
44
0.0000000001
40
0
40
0
40
0
40
0
40
0
40
0
40
0.02
40
0.040000000000000001
40
0.059999999999999998
40
0.080000000000000002
40
0.10000000000000001
40
0.12000000000000001
40
0.14000000000000001
40
0.16
40
0.17999999999999999
40
0.19999999999999998
40
0.21999999999999997
40
0.23999999999999996
40
0.25999999999999995
40
0.27999999999999997
40
0.29999999999999999
40
0.32000000000000001
40
0.34000000000000002
40
0.36000000000000004
40
0.38000000000000006
40
0.40000000000000008
40
0.4200000000000001
40
0.44000000000000011
40
0.46000000000000013
40
0.48000000000000015
40
0.50000000000000011
40
0.52000000000000013
40
0.54000000000000015
40
0.56000000000000016
40
0.58000000000000018
40
0.6000000000000002
40
0.62000000000000022
40
0.64000000000000024
40
0.66000000000000025
40
0.68000000000000027
40
0.70000000000000029
40
0.72000000000000031
40
0.74000000000000032
40
0.76000000000000034
40
0.78000000000000036
40
0.80000000000000038
40
0.8200000000000004
40
0.84000000000000041
40
0.86000000000000043
40
0.88000000000000045
40
0.90000000000000047
40
0.92000000000000048
40
0.9400000000000005
40
0.96000000000000052
40
0.98000000000000054
40
1
40
1
40
1
40
1
40
1
40
1
41
1
41
1
41
1
41
1
41
1
41
1
41
1
41
1
41
1
41
1
41
1
41
1
41
1
41
1
41
1
41
1
41
1
41
1
41
1
41
1
41
1
41
1
41
1
41
1
41
1
41
1
41
1
41
1
41
1
41
1
41
1
41
1
41
1
41
1
41
1
41
1
41
1
41
1
41
1
41
1
41
1
41
1
41
1
41
1
41
1
41
1
41
1
41
1
41
1
41
1
41
1
41
1
41
1
41
1
41
1
10
0
20
-0.055000000000000049
30
0
10
0.039923450538602814
20
-0.045838584491408499
30
0
10
0.11979270363623648
20
-0.028055041094518642
30
0
10
0.23966363933597362
20
-0.0029975868634866038
30
0
10
0.39962575313535875
20
0.027174506277990593
30
0
10
0.5998015679769747
20
0.05936915209216917
30
0
10
0.80019819670727022
20
0.085691791753601781
30
0
10
1.0008102513024231
20
0.10545524866443069
30
0
10
1.2016281451135062
20
0.11752600725233987
30
0
10
1.4026368989601039
20
0.12021788953174815
30
0
10
1.6038134675127975
20
0.11214635353029397
30
0
10
1.8051240175530137
20
0.093087281977707492
30
0
10
2.0065212595043538
20
0.064822306694951787
30
0
10
2.2079415625425098
20
0.032028592841205364
30
0
10
2.4093025451454997
20
0.0030640736134600745
30
0
10
2.6105165517980513
20
-0.012697617415865687
30
0
10
2.8115038032720379
20
-0.0074614623778348765
30
0
10
3.0122054268970788
20
0.02242150465408389
30
0
10
3.2125971855732787
20
0.073735889653031045
30
0
10
3.4127013219365354
20
0.13409636864451935
30
0
10
3.6125653262547925
20
0.18686206394750951
30
0
10
3.8122422526950634
20
0.21571350720051899
30
0
10
4.0117708733022548
20
0.20927652287426782
30
0
10
4.2111549894896392
20
0.16591745582007708
30
0
10
4.4103455543124701
20
0.097977900840807916
30
0
10
4.6092746588570748
20
0.025483985649345234
30
0
10
4.8078870542678569
20
-0.02962501992008712
30
0
10
5.0061723115971422
20
-0.049410971185616687
30
0
10
5.2041975353352923
20
-0.025897832157276569
30
0
10
5.4021380261050069
20
0.033246121877054891
30
0
10
5.6002247784691308
20
0.1106882891340784
30
0
10
5.798694416640819
20
0.18506653108097676
30
0
10
5.9977381387336184
20
0.236750313118607
30
0
10
6.1974512811708244
20
0.25351968632449756
30
0
10
6.3977815705762433
20
0.23637453087183735
30
0
10
6.5985799692166296
20
0.19535531626887026
30
0
10
6.7996522984780414
20
0.14528897587399831
30
0
10
7.0008103571788416
20
0.10158184480833492
30
0
10
7.2019233285748854
20
0.075991082795399192
30
0
10
7.4029688760938104
20
0.072418080772874524
30
0
10
7.6039918105297142
20
0.088918914983087349
30
0
10
7.8050630686730802
20
0.11968618631907119
30
0
10
8.0062389553604252
20
0.15702029493938041
30
0
10
8.207519625258028
20
0.19331813427680242
30
0
10
8.4088095550863304
20
0.22299595772423025
30
0
10
8.6099497910464837
20
0.24210907756434746
30
0
10
8.810748268384792
20
0.24803667244776517
30
0
10
9.0110104582128994
20
0.23914789616935733
30
0
10
9.2105705141359611
20
0.2144755007339805
30
0
10
9.4093204002457913
20
0.17339947991671778
30
0
10
9.6071965762272846
20
0.11557702607387553
30
0
10
9.764774323071574
20
0.055804522546283486
30
0
10
9.8825468174307112
20
0.003361288229635597
30
0
10
9.9608793498597787
20
-0.034982613468351714
30
0
10
10
20
-0.055000000000000049
30
0
0
SPLINE
5
104
100
AcDbEntity
8
0
100
AcDbSpline
70
4
71
5
72
61
73
55
74
0
42
0.000000001
43
0.0000000001
44
0.0000000001
40
0
40
0
40
0
40
0
40
0
40
0
40
0.02
40
0.040000000000000001
40
0.059999999999999998
40
0.080000000000000002
40
0.10000000000000001
40
0.12000000000000001
40
0.14000000000000001
40
0.16
40
0.17999999999999999
40
0.19999999999999998
40
0.21999999999999997
40
0.23999999999999996
40
0.25999999999999995
40
0.27999999999999997
40
0.29999999999999999
40
0.32000000000000001
40
0.34000000000000002
40
0.36000000000000004
40
0.38000000000000006
40
0.40000000000000008
40
0.4200000000000001
40
0.44000000000000011
40
0.46000000000000013
40
0.48000000000000015
40
0.50000000000000011
40
0.52000000000000013
40
0.54000000000000015
40
0.56000000000000016
40
0.58000000000000018
40
0.6000000000000002
40
0.62000000000000022
40
0.64000000000000024
40
0.66000000000000025
40
0.68000000000000027
40
0.70000000000000029
40
0.72000000000000031
40
0.74000000000000032
40
0.76000000000000034
40
0.78000000000000036
40
0.80000000000000038
40
0.8200000000000004
40
0.84000000000000041
40
0.86000000000000043
40
0.88000000000000045
40
0.90000000000000047
40
0.92000000000000048
40
0.9400000000000005
40
0.96000000000000052
40
0.98000000000000054
40
1
40
1
40
1
40
1
40
1
40
1
41
1
41
1
41
1
41
1
41
1
41
1
41
1
41
1
41
1
41
1
41
1
41
1
41
1
41
1
41
1
41
1
41
1
41
1
41
1
41
1
41
1
41
1
41
1
41
1
41
1
41
1
41
1
41
1
41
1
41
1
41
1
41
1
41
1
41
1
41
1
41
1
41
1
41
1
41
1
41
1
41
1
41
1
41
1
41
1
41
1
41
1
41
1
41
1
41
1
41
1
41
1
41
1
41
1
41
1
41
1
10
0
20
3.0549999999999997
30
0
10
0.039716882409686488
20
3.0365577619578765
30
0
10
0.11920678070735663
20
3.0022399992238906
30
0
10
0.23861002854072239
20
2.9584634931846305
30
0
10
0.3981513796419559
20
2.915505146488881
30
0
10
0.59812565160468312
20
2.8869230057914796
30
0
10
0.79860292506037978
20
2.8816506570401161
30
0
10
0.9994922692291468
20
2.8959957881753251
30
0
10
1.2006404610481691
20
2.9237289731816833
30
0
10
1.4018157946228424
20
2.9554227574034755
30
0
10
1.602760475263304
20
2.9805793064962751
30
0
10
1.8032432093324258
20
2.9897660228933254
30
0
10
2.003111539704622
20
2.9767405479369771
30
0
10
2.2023449810313123
20
2.9406086475959219
30
0
10
2.4011067441083904
20
2.8879234094342046
30
0
10
2.5996712164975868
20
2.8296357227934172
30
0
10
2.7983533921520114
20
2.7781254069146355
30
0
10
2.9974375674625646
20
2.7442005705335197
30
0
10
3.1971067252917793
20
2.734126804039172
30
0
10
3.3973702787035736
20
2.7465824749407117
30
0
10
3.5981143278345979
20
2.7751779615221306
30
0
10
3.7991530067691652
20
2.8110257295471692
30
0
10
4.0002791763141801
20
2.8452819698787706
30
0
10
4.2013153052297705
20
2.871699642404915
30
0
10
4.4021642440645783
20
2.8891772750555056
30
0
10
4.6027946108952973
20
2.9001125208653717
30
0
10
4.8032263707177263
20
2.9087641179066233
30
0
10
5.003516495471624
20
2.9196226112945856
30
0
10
5.2037447147967857
20
2.935766828224557
30
0
10
5.4039992975470295
20
2.9572589371859803
30
0
10
5.6043630177095505
20
2.9820977650253959
30
0
10
5.8048990272202783
20
3.0071308090013549
30
0
10
6.005636873452266
20
3.028972937996838
30
0
10
6.2065580126053197
20
3.0449320275493874
30
0
10
6.4075824023998118
20
3.0539016161376189
30
0
10
6.608598088407768
20
3.0558716794403731
30
0
10
6.8094898659918277
20
3.0514732482052369
30
0
10
7.0101678573211341
20
3.0415186092376163
30
0
10
7.2105970992426185
20
3.0265305266684175
30
0
10
7.4108242282342163
20
3.0063150577449234
30
0
10
7.6109413336454779
20
2.9804778118234254
30
0
10
7.8110523901449449
20
2.9489031271706527
30
0
10
8.0112392141370332
20
2.9122398439248136
30
0
10
8.2115265828392197
20
2.872404518725538
30
0
10
8.4118504238819138
20
2.8330286313437973
30
0
10
8.6120874099451115
20
2.7987909126629429
30
0
10
8.8120816219820011
20
2.7748018402278447
30
0
10
9.0116719459863255
20
2.7659765858503556
30
0
10
9.2107197464589579
20
2.7763972202566438
30
0
10
9.409134717799132
20
2.8087208427885879
30
0
10
9.6068636501451401
20
2.8645066615895183
30
0
10
9.7644776318041213
20
2.9284972704306518
30
0
10
9.8823645603196031
20
2.9874783137040888
30
0
10
9.9608121381558661
20
3.0316793750486095
30
0
10
10
20
3.0549999999999997
30
0
0
ENDSEC
0
SECTION
2
OBJECTS
0
DICTIONARY
5
C
100
AcDbDictionary
3
ACAD_GROUP
350
D
3
ACAD_MLINESTYLE
350
17
0
DICTIONARY
5
D
100
AcDbDictionary
0
DICTIONARY
5
1A
330
C
100
AcDbDictionary
0
DICTIONARY
5
17
100
AcDbDictionary
0
ENDSEC
0
EOF
