0
SECTION
2
HEADER
9
$INSUNITS
70
4
9
$ACADVER
1
AC1014
9
$HANDSEED
5
FFFF
0
ENDSEC
0
SECTION
2
TABLES
0
TABLE
2
VPORT
5
8
100
AcDbSymbolTable
0
ENDTAB
0
TABLE
2
LTYPE
5
5
100
AcDbSymbolTable
0
LTYPE
5
14
100
AcDbSymbolTableRecord
100
AcDbLinetypeTableRecord
2
BYBLOCK
70
0
0
LTYPE
5
15
100
AcDbSymbolTableRecord
100
AcDbLinetypeTableRecord
2
BYLAYER
70
0
0
ENDTAB
0
TABLE
2
LAYER
5
2
100
AcDbSymbolTable
70
2
0
LAYER
5
50
100
AcDbSymbolTableRecord
100
AcDbLayerTableRecord
2
0
70
0
6
CONTINUOUS
0
ENDTAB
0
TABLE
2
STYLE
5
3
100
AcDbSymbolTable
70
1
0
STYLE
5
11
100
AcDbSymbolTableRecord
100
AcDbTextStyleTableRecord
2
STANDARD
70
0
0
ENDTAB
0
TABLE
2
VIEW
5
6
100
AcDbSymbolTable
70
0
0
ENDTAB
0
TABLE
2
UCS
5
7
100
AcDbSymbolTable
70
0
0
ENDTAB
0
TABLE
2
APPID
5
9
100
AcDbSymbolTable
70
2
0
APPID
5
12
100
AcDbSymbolTableRecord
100
AcDbRegAppTableRecord
2
ACAD
70
0
0
ENDTAB
0
TABLE
2
DIMSTYLE
5
A
100
AcDbSymbolTable
70
1
0
ENDTAB
0
TABLE
2
BLOCK_RECORD
5
1
100
AcDbSymbolTable
70
1
0
BLOCK_RECORD
5
1F
100
AcDbSymbolTableRecord
100
AcDbBlockTableRecord
2
*MODEL_SPACE
0
BLOCK_RECORD
5
1B
100
AcDbSymbolTableRecord
100
AcDbBlockTableRecord
2
*PAPER_SPACE
0
ENDTAB
0
ENDSEC
0
SECTION
2
BLOCKS
0
BLOCK
5
20
100
AcDbEntity
100
AcDbBlockBegin
2
*MODEL_SPACE
0
ENDBLK
5
21
100
AcDbEntity
100
AcDbBlockEnd
0
BLOCK
5
1C
100
AcDbEntity
100
AcDbBlockBegin
2
*PAPER_SPACE
0
ENDBLK
5
1D
100
AcDbEntity
100
AcDbBlockEnd
0
ENDSEC
0
SECTION
2
ENTITIES
0
SPLINE
5
100
100
AcDbEntity
8
0
100
AcDbSpline
70
4
71
5
72
16
73
10
74
0
42
0.000000001
43
0.0000000001
44
0.0000000001
40
0
40
0
40
0
40
0
40
0
40
0
40
0.20000000000000001
40
0.40000000000000002
40
0.60000000000000009
40
0.80000000000000004
40
1
40
1
40
1
40
1
40
1
40
1
41
1
41
1
41
1
41
1
41
1
41
1
41
1
41
1
41
1
41
1
10
0
20
-0.055000000000000049
30
0
10
0
20
0.069400000000207365
30
0
10
0
20
0.31820000000056603
30
0
10
0
20
0.69140000000093593
30
0
10
0
20
1.1890000000011365
30
0
10
0
20
1.8110000000010393
30
0
10
0
20
2.3086000000007481
30
0
10
0
20
2.6818000000004227
30
0
10
0
20
2.9306000000001484
30
0
10
0
20
3.0549999999999997
30
0
0
SPLINE
5
101
100
AcDbEntity
8
0
100
AcDbSpline
70
4
71
5
72
16
73
10
74
0
42
0.000000001
43
0.0000000001
44
0.0000000001
40
0
40
0
40
0
40
0
40
0
40
0
40
0.20000000000000001
40
0.40000000000000002
40
0.60000000000000009
40
0.80000000000000004
40
1
40
1
40
1
40
1
40
1
40
1
41
1
41
1
41
1
41
1
41
1
41
1
41
1
41
1
41
1
41
1
10
10
20
-0.055000000000000049
30
0
10
9.9999999999997495
20
0.069400000000207365
30
0
10
9.9999999999993197
20
0.31820000000056603
30
0
10
9.9999999999989129
20
0.69140000000093593
30
0
10
9.9999999999987672
20
1.1890000000011365
30
0
10
9.9999999999990248
20
1.8110000000010393
30
0
10
9.9999999999993889
20
2.3086000000007481
30
0
10
9.9999999999996998
20
2.6818000000004227
30
0
10
9.9999999999999005
20
2.9306000000001484
30
0
10
10
20
3.0549999999999997
30
0
0
SPLINE
5
102
100
AcDbEntity
8
0
100
AcDbSpline
70
4
71
5
72
16
73
10
74
0
42
0.000000001
43
0.0000000001
44
0.0000000001
40
0
40
0
40
0
40
0
40
0
40
0
40
0.20000000000000001
40
0.40000000000000002
40
0.60000000000000009
40
0.80000000000000004
40
1
40
1
40
1
40
1
40
1
40
1
41
1
41
1
41
1
41
1
41
1
41
1
41
1
41
1
41
1
41
1
10
0
20
1.5274999999999999
30
0
10
0.40000000000047375
20
1.5274999999999856
30
0
10
1.2000000000012774
20
1.5274999999999614
30
0
10
2.4000000000020547
20
1.527499999999943
30
0
10
4.0000000000023546
20
1.5274999999999479
30
0
10
6.0000000000019584
20
1.5274999999999812
30
0
10
7.6000000000012928
20
1.5275000000000025
30
0
10
8.800000000000697
20
1.5275000000000083
30
0
10
9.6000000000002395
20
1.5275000000000039
30
0
10
10
20
1.5274999999999999
30
0
0
SPLINE
5
103
100
AcDbEntity
8
0
100
AcDbSpline
70
4
71
5
72
111
73
105
74
0
42
0.000000001
43
0.0000000001
44
0.0000000001
40
0
40
0
40
0
40
0
40
0
40
0
40
0.01
40
0.02
40
0.029999999999999999
40
0.040000000000000001
40
0.050000000000000003
40
0.060000000000000005
40
0.070000000000000007
40
0.080000000000000002
40
0.089999999999999997
40
0.099999999999999992
40
0.10999999999999999
40
0.11999999999999998
40
0.12999999999999998
40
0.13999999999999999
40
0.14999999999999999
40
0.16
40
0.17000000000000001
40
0.18000000000000002
40
0.19000000000000003
40
0.20000000000000004
40
0.21000000000000005
40
0.22000000000000006
40
0.23000000000000007
40
0.24000000000000007
40
0.25000000000000006
40
0.26000000000000006
40
0.27000000000000007
40
0.28000000000000008
40
0.29000000000000009
40
0.3000000000000001
40
0.31000000000000011
40
0.32000000000000012
40
0.33000000000000013
40
0.34000000000000014
40
0.35000000000000014
40
0.36000000000000015
40
0.37000000000000016
40
0.38000000000000017
40
0.39000000000000018
40
0.40000000000000019
40
0.4100000000000002
40
0.42000000000000021
40
0.43000000000000022
40
0.44000000000000022
40
0.45000000000000023
40
0.46000000000000024
40
0.47000000000000025
40
0.48000000000000026
40
0.49000000000000027
40
0.50000000000000022
40
0.51000000000000023
40
0.52000000000000024
40
0.53000000000000025
40
0.54000000000000026
40
0.55000000000000027
40
0.56000000000000028
40
0.57000000000000028
40
0.58000000000000029
40
0.5900000000000003
40
0.60000000000000031
40
0.61000000000000032
40
0.62000000000000033
40
0.63000000000000034
40
0.64000000000000035
40
0.65000000000000036
40
0.66000000000000036
40
0.67000000000000037
40
0.68000000000000038
40
0.69000000000000039
40
0.7000000000000004
40
0.71000000000000041
40
0.72000000000000042
40
0.73000000000000043
40
0.74000000000000044
40
0.75000000000000044
40
0.76000000000000045
40
0.77000000000000046
40
0.78000000000000047
40
0.79000000000000048
40
0.80000000000000049
40
0.8100000000000005
40
0.82000000000000051
40
0.83000000000000052
40
0.84000000000000052
40
0.85000000000000053
40
0.86000000000000054
40
0.87000000000000055
40
0.88000000000000056
40
0.89000000000000057
40
0.90000000000000058
40
0.91000000000000059
40
0.9200000000000006
40
0.9300000000000006
40
0.94000000000000061
40
0.95000000000000062
40
0.96000000000000063
40
0.97000000000000064
40
0.98000000000000065
40
0.99000000000000066
40
1
40
1
40
1
40
1
40
1
40
1
41
1
41
1
41
1
41
1
41
1
41
1
41
1
41
1
41
1
41
1
41
1
41
1
41
1
41
1
41
1
41
1
41
1
41
1
41
1
41
1
41
1
41
1
41
1
41
1
41
1
41
1
41
1
41
1
41
1
41
1
41
1
41
1
41
1
41
1
41
1
41
1
41
1
41
1
41
1
41
1
41
1
41
1
41
1
41
1
41
1
41
1
41
1
41
1
41
1
41
1
41
1
41
1
41
1
41
1
41
1
41
1
41
1
41
1
41
1
41
1
41
1
41
1
41
1
41
1
41
1
41
1
41
1
41
1
41
1
41
1
41
1
41
1
41
1
41
1
41
1
41
1
41
1
41
1
41
1
41
1
41
1
41
1
41
1
41
1
41
1
41
1
41
1
41
1
41
1
41
1
41
1
41
1
41
1
41
1
41
1
41
1
41
1
41
1
41
1
41
1
41
1
41
1
41
1
41
1
41
1
10
0
20
-0.055000000000000049
30
0
10
0.020094699381831508
20
-0.04187121086068598
30
0
10
0.060323166962920963
20
-0.017508760952583264
30
0
10
0.12078307524661328
20
0.013349457561360909
30
0
10
0.20163073429874562
20
0.043121602040962825
30
0
10
0.30307382702118546
20
0.061937980380553995
30
0
10
0.40487829535502556
20
0.064050199966282445
30
0
10
0.50699968542778728
20
0.052842062749943193
30
0
10
0.60936334163297878
20
0.034011596334036977
30
0
10
0.71185782889030091
20
0.015994916991112385
30
0
10
0.81434803943855916
20
0.007660610984938249
30
0
10
0.91668711313638973
20
0.016084531043276104
30
0
10
1.0187288882365171
20
0.044445795972907695
30
0
10
1.1203399122637834
20
0.089513191997938085
30
0
10
1.2214122418658531
20
0.14036752062964697
30
0
10
1.3218782245031817
20
0.18291695687561793
30
0
10
1.4217260207085272
20
0.20375599375231918
30
0
10
1.5210128693870053
20
0.19402789785786123
30
0
10
1.6198840724076486
20
0.15387917932761039
30
0
10
1.7185752461824233
20
0.094862912330915344
30
0
10
1.8173497128427571
20
0.034073480117314731
30
0
10
1.9164442127183499
20
-0.010572987097897573
30
0
10
2.0160143042061112
20
-0.025289610865302077
30
0
10
2.1160729386348613
20
-0.0057779761775901325
30
0
10
2.2164523563960725
20
0.039079796558001985
30
0
10
2.3168972506235814
20
0.093192166387642689
30
0
10
2.4171437340131798
20
0.13814600722195811
30
0
10
2.5170000148468494
20
0.15830142097559227
30
0
10
2.6164352038379124
20
0.14629189132594306
30
0
10
2.7156384378305942
20
0.10688750353382229
30
0
10
2.8149177252339364
20
0.051891207742149816
30
0
10
2.9146177298456308
20
-0.0038956966739888423
30
0
10
3.0150332178429151
20
-0.046968032504730084
30
0
10
3.1163173831041551
20
-0.069656642128310589
30
0
10
3.2184127828226079
20
-0.073517488774886425
30
0
10
3.3211257968517134
20
-0.065420103193401594
30
0
10
3.4241858678081338
20
-0.05437993725183668
30
0
10
3.5273075103973217
20
-0.048322373154060072
30
0
10
3.630258315924574
20
-0.050363213451938407
30
0
10
3.7329017063712526
20
-0.05690888203253687
30
0
10
3.8351635260484378
20
-0.061136115381460118
30
0
10
3.9370110004113079
20
-0.055629370207501722
30
0
10
4.0384296973590903
20
-0.035089260549339779
30
0
10
4.1393945169309534
20
0.00036331075536178456
30
0
10
4.2398666763730546
20
0.04429365678375221
30
0
10
4.3398338760311903
20
0.087194589318065702
30
0
10
4.4393438244481338
20
0.11886665490528053
30
0
10
4.5385334217345594
20
0.13094800346001045
30
0
10
4.6376768063058842
20
0.11985299558033569
30
0
10
4.7371666311205098
20
0.087887765827922737
30
0
10
4.8373912393380252
20
0.041287383678294952
30
0
10
4.9386298199508003
20
-0.011029356995945663
30
0
10
5.0409537141088627
20
-0.058979432165899556
30
0
10
5.1440925611972386
20
-0.092748514292661427
30
0
10
5.2474295567773455
20
-0.10413793219531028
30
0
10
5.3501919527795234
20
-0.087585212101964655
30
0
10
5.4516010987596877
20
-0.041383496993534809
30
0
10
5.5510255942121365
20
0.031425511984222006
30
0
10
5.6481654388238303
20
0.12140887987051432
30
0
10
5.7430938442490689
20
0.21383865179497696
30
0
10
5.8361579357190507
20
0.29234567210317053
30
0
10
5.9279187066584242
20
0.34195212038662687
30
0
10
6.0190747651794947
20
0.3521818522740538
30
0
10
6.110393845458054
20
0.32055958530357243
30
0
10
6.2026388118896412
20
0.25466323144162956
30
0
10
6.2964828898680363
20
0.16810172031528198
30
0
10
6.3924273913140608
20
0.077431005550270285
30
0
10
6.4907157146674415
20
-0.0013410004092932865
30
0
10
6.5912549509245579
20
-0.055965714422043955
30
0
10
6.6935173551022604
20
-0.081580020367359757
30
0
10
6.7967224840027187
20
-0.079427546021451509
30
0
10
6.9000447733472736
20
-0.055164267624677667
30
0
10
7.0028104017993211
20
-0.017316081341446951
30
0
10
7.1047021819250942
20
0.02432573696373707
30
0
10
7.2059517401210815
20
0.060279070186727735
30
0
10
7.3070887757097527
20
0.08258535399022536
30
0
10
7.4086959182654688
20
0.086060935855019949
30
0
10
7.5111696552223268
20
0.069471482498469739
30
0
10
7.6144599067951759
20
0.036892410630842878
30
0
10
7.717872349986477
20
-0.0014408504342137045
30
0
10
7.8204088784889834
20
-0.032578077076374189
30
0
10
7.921068420107539
20
-0.044002186881114479
30
0
10
8.0191472199861771
20
-0.02672818038646417
30
0
10
8.1145761217923997
20
0.021195008779857943
30
0
10
8.2081315756240887
20
0.092501400506203244
30
0
10
8.3010541299466105
20
0.1746719401690057
30
0
10
8.3947523615625403
20
0.2530133940750941
30
0
10
8.4904680057738791
20
0.31413776839277707
30
0
10
8.5889707401436528
20
0.34913727144478313
30
0
10
8.6902045715331546
20
0.35725262686564019
30
0
10
8.7935121738746425
20
0.34366044374401494
30
0
10
8.8979112529730529
20
0.31673138923253047
30
0
10
9.0023510780638727
20
0.28548992871261508
30
0
10
9.1059794903559848
20
0.25696768546901416
30
0
10
9.2083993510135631
20
0.23366369792138703
30
0
10
9.3095522705211593
20
0.21476274257819286
30
0
10
9.4096079506903045
20
0.19729776257762152
30
0
10
9.5088530996951981
20
0.17731528742691199
30
0
10
9.6075772601563081
20
0.1510753529584673
30
0
10
9.7059696552507475
20
0.11613138602291284
30
0
10
9.8041450962812995
20
0.07100661936882173
30
0
10
9.8825574526274611
20
0.026179097608812867
30
0
10
9.9413033676473184
20
-0.012459451231974056
30
0
10
9.9804391491444768
20
-0.040448194499874746
30
0
10
10
20
-0.055000000000000049
30
0
0
SPLINE
5
104
100
AcDbEntity
8
0
100
AcDbSpline
70
4
71
5
72
111
73
105
74
0
42
0.000000001
43
0.0000000001
44
0.0000000001
40
0
40
0
40
0
40
0
40
0
40
0
40
0.01
40
0.02
40
0.029999999999999999
40
0.040000000000000001
40
0.050000000000000003
40
0.060000000000000005
40
0.070000000000000007
40
0.080000000000000002
40
0.089999999999999997
40
0.099999999999999992
40
0.10999999999999999
40
0.11999999999999998
40
0.12999999999999998
40
0.13999999999999999
40
0.14999999999999999
40
0.16
40
0.17000000000000001
40
0.18000000000000002
40
0.19000000000000003
40
0.20000000000000004
40
0.21000000000000005
40
0.22000000000000006
40
0.23000000000000007
40
0.24000000000000007
40
0.25000000000000006
40
0.26000000000000006
40
0.27000000000000007
40
0.28000000000000008
40
0.29000000000000009
40
0.3000000000000001
40
0.31000000000000011
40
0.32000000000000012
40
0.33000000000000013
40
0.34000000000000014
40
0.35000000000000014
40
0.36000000000000015
40
0.37000000000000016
40
0.38000000000000017
40
0.39000000000000018
40
0.40000000000000019
40
0.4100000000000002
40
0.42000000000000021
40
0.43000000000000022
40
0.44000000000000022
40
0.45000000000000023
40
0.46000000000000024
40
0.47000000000000025
40
0.48000000000000026
40
0.49000000000000027
40
0.50000000000000022
40
0.51000000000000023
40
0.52000000000000024
40
0.53000000000000025
40
0.54000000000000026
40
0.55000000000000027
40
0.56000000000000028
40
0.57000000000000028
40
0.58000000000000029
40
0.5900000000000003
40
0.60000000000000031
40
0.61000000000000032
40
0.62000000000000033
40
0.63000000000000034
40
0.64000000000000035
40
0.65000000000000036
40
0.66000000000000036
40
0.67000000000000037
40
0.68000000000000038
40
0.69000000000000039
40
0.7000000000000004
40
0.71000000000000041
40
0.72000000000000042
40
0.73000000000000043
40
0.74000000000000044
40
0.75000000000000044
40
0.76000000000000045
40
0.77000000000000046
40
0.78000000000000047
40
0.79000000000000048
40
0.80000000000000049
40
0.8100000000000005
40
0.82000000000000051
40
0.83000000000000052
40
0.84000000000000052
40
0.85000000000000053
40
0.86000000000000054
40
0.87000000000000055
40
0.88000000000000056
40
0.89000000000000057
40
0.90000000000000058
40
0.91000000000000059
40
0.9200000000000006
40
0.9300000000000006
40
0.94000000000000061
40
0.95000000000000062
40
0.96000000000000063
40
0.97000000000000064
40
0.98000000000000065
40
0.99000000000000066
40
1
40
1
40
1
40
1
40
1
40
1
41
1
41
1
41
1
41
1
41
1
41
1
41
1
41
1
41
1
41
1
41
1
41
1
41
1
41
1
41
1
41
1
41
1
41
1
41
1
41
1
41
1
41
1
41
1
41
1
41
1
41
1
41
1
41
1
41
1
41
1
41
1
41
1
41
1
41
1
41
1
41
1
41
1
41
1
41
1
41
1
41
1
41
1
41
1
41
1
41
1
41
1
41
1
41
1
41
1
41
1
41
1
41
1
41
1
41
1
41
1
41
1
41
1
41
1
41
1
41
1
41
1
41
1
41
1
41
1
41
1
41
1
41
1
41
1
41
1
41
1
41
1
41
1
41
1
41
1
41
1
41
1
41
1
41
1
41
1
41
1
41
1
41
1
41
1
41
1
41
1
41
1
41
1
41
1
41
1
41
1
41
1
41
1
41
1
41
1
41
1
41
1
41
1
41
1
41
1
41
1
41
1
41
1
41
1
41
1
41
1
10
0
20
3.0549999999999997
30
0
10
0.019413962367547229
20
3.0531157692811051
30
0
10
0.058301802547738424
20
3.0479285267755807
30
0
10
0.11681330830257303
20
3.0358913871437037
30
0
10
0.1951882061899515
20
3.011327345467794
30
0
10
0.29374540517404668
20
2.967023477954835
30
0
10
0.39285867233272798
20
2.9109002524627337
30
0
10
0.49246229291684995
20
2.8465470019092454
30
0
10
0.59244683685973354
20
2.7799158186269723
30
0
10
0.69264630086680934
20
2.7200593141619676
30
0
10
0.79286269709529777
20
2.6769582806218146
30
0
10
0.89289327030571819
20
2.6591632626027817
30
0
10
0.9925569847564677
20
2.6714491146112218
30
0
10
1.0917208087267753
20
2.7125846198419494
30
0
10
1.1903275288169002
20
2.7727201235702519
30
0
10
1.2883954761563587
20
2.8368679456836761
30
0
10
1.3860156026961032
20
2.8887745228156185
30
0
10
1.4833505657162729
20
2.9147805100976347
30
0
10
1.5806307374734891
20
2.9073880936432364
30
0
10
1.6781575198911649
20
2.8697396713755725
30
0
10
1.7762522239152427
20
2.812793896982094
30
0
10
1.8751963593209693
20
2.7511688391069566
30
0
10
1.9751714503945808
20
2.6993003529532444
30
0
10
2.0762067575621348
20
2.6678092522326069
30
0
10
2.1781035492658414
20
2.6589010609187183
30
0
10
2.2805011486282822
20
2.6679789927638331
30
0
10
2.3829848270523319
20
2.6871382012422362
30
0
10
2.4851827974616785
20
2.7081152163640771
30
0
10
2.5868607084033481
20
2.7252670523659068
30
0
10
2.6880358730295084
20
2.7390579506973891
30
0
10
2.7888946409948803
20
2.7540594997233563
30
0
10
2.889679057214654
20
2.7760786358101082
30
0
10
2.9905818919858831
20
2.8095340276893306
30
0
10
3.0916438120325003
20
2.8548650847234769
30
0
10
3.1926343875751408
20
2.9055570000570552
30
0
10
3.2931704871295633
20
2.9509320328623252
30
0
10
3.3928557317152745
20
2.9794603636052956
30
0
10
3.4914155160863931
20
2.9819478295713608
30
0
10
3.5888266980832206
20
2.9546278477937942
30
0
10
3.6854690978390185
20
2.9026951178733134
30
0
10
3.7819699278969749
20
2.8374924103626924
30
0
10
3.8790239730414111
20
2.7731697445936296
30
0
10
3.9772148941268473
20
2.7234256721392809
30
0
10
4.0768534834578514
20
2.6984651304140934
30
0
10
4.1777633614262486
20
2.7012140342548943
30
0
10
4.279406001447736
20
2.728421515021453
30
0
10
4.3810964911611077
20
2.7730977364027987
30
0
10
4.4821949593145529
20
2.8265450881945404
30
0
10
4.5822936984092184
20
2.880451531956838
30
0
10
4.6814440364676022
20
2.9292351772076923
30
0
10
4.7800447978177703
20
2.9698991683243685
30
0
10
4.8786629930393017
20
3.0013589855261924
30
0
10
4.9778725982480516
20
3.0239464581671562
30
0
10
5.0780983194073563
20
3.0388591054403329
30
0
10
5.1794246848070085
20
3.047585763896516
30
0
10
5.2816550131492885
20
3.0516915923845662
30
0
10
5.3844366538652535
20
3.0527089526070701
30
0
10
5.4873656702381268
20
3.0519907600824823
30
0
10
5.5900953905191075
20
3.0505820511444268
30
0
10
5.6924557476549911
20
3.0490767588524506
30
0
10
5.794420023094605
20
3.0475631051485594
30
0
10
5.8960508762977177
20
3.0455799624088349
30
0
10
5.9974536689231259
20
3.0420667796036645
30
0
10
6.098727144601761
20
3.0353210378282043
30
0
10
6.1999141796317332
20
3.0229376329365065
30
0
10
6.3010089460008176
20
3.0025466386821451
30
0
10
6.401965597777453
20
2.9725733941635579
30
0
10
6.5027064534282655
20
2.9329839384485923
30
0
10
6.6031301386985461
20
2.8860533844354408
30
0
10
6.7031203709884624
20
2.8370817818883869
30
0
10
6.8025863647066966
20
2.7929533050087048
30
0
10
6.9015024885501397
20
2.760745363986874
30
0
10
6.9999482814458531
20
2.74631912972806
30
0
10
7.0981482890469909
20
2.7529181183550748
30
0
10
7.1965123103891306
20
2.7797596862141782
30
0
10
7.2955059927658983
20
2.8229475494012912
30
0
10
7.3955219059746833
20
2.8763841159486985
30
0
10
7.4967492088039922
20
2.9326820093269168
30
0
10
7.5990465660147208
20
2.9840731030122161
30
0
10
7.7018058492840158
20
3.023322705004285
30
0
10
7.8041794201439707
20
3.0444726498472097
30
0
10
7.9053185636713703
20
3.0435865412579215
30
0
10
8.0046052789343278
20
3.0194833814101383
30
0
10
8.1018927768852738
20
2.9745057638505354
30
0
10
8.197726161794499
20
2.915196663282825
30
0
10
8.2930563348755939
20
2.8505136917727256
30
0
10
8.3889757254875992
20
2.7901535388362975
30
0
10
8.4864388919240366
20
2.7427949336308428
30
0
10
8.5860057886816961
20
2.7144698695014489
30
0
10
8.6875319092557497
20
2.7066289364000076
30
0
10
8.7903635005147098
20
2.7171245548637484
30
0
10
8.893602651055863
20
2.7415993128160321
30
0
10
8.9963492537264873
20
2.7747369533619395
30
0
10
9.0979487079742274
20
2.8115536307673783
30
0
10
9.1982480085853062
20
2.8487170457876081
30
0
10
9.2974704598982818
20
2.8842550560669422
30
0
10
9.3960763175385207
20
2.9172021257555976
30
0
10
9.4946277858068946
20
2.9472675290648187
30
0
10
9.5936546415979969
20
2.9744995711323674
30
0
10
9.6935131606978135
20
2.9989390999276444
30
0
10
9.7944154087758442
20
3.0206093264297484
30
0
10
9.876057003975923
20
3.0357408821844545
30
0
10
9.937821236322204
20
3.045851723651511
30
0
10
9.9792342665647542
20
3.0520422480273983
30
0
10
10
20
3.0549999999999997
30
0
0
ENDSEC
0
SECTION
2
OBJECTS
0
DICTIONARY
5
C
100
AcDbDictionary
3
ACAD_GROUP
350
D
3
ACAD_MLINESTYLE
350
17
0
DICTIONARY
5
D
100
AcDbDictionary
0
DICTIONARY
5
1A
330
C
100
AcDbDictionary
0
DICTIONARY
5
17
100
AcDbDictionary
0
ENDSEC
0
EOF
