0
SECTION
2
HEADER
9
$INSUNITS
70
4
9
$ACADVER
1
AC1014
9
$HANDSEED
5
FFFF
0
ENDSEC
0
SECTION
2
TABLES
0
TABLE
2
VPORT
5
8
100
AcDbSymbolTable
0
ENDTAB
0
TABLE
2
LTYPE
5
5
100
AcDbSymbolTable
0
LTYPE
5
14
100
AcDbSymbolTableRecord
100
AcDbLinetypeTableRecord
2
BYBLOCK
70
0
0
LTYPE
5
15
100
AcDbSymbolTableRecord
100
AcDbLinetypeTableRecord
2
BYLAYER
70
0
0
ENDTAB
0
TABLE
2
LAYER
5
2
100
AcDbSymbolTable
70
2
0
LAYER
5
50
100
AcDbSymbolTableRecord
100
AcDbLayerTableRecord
2
0
70
0
6
CONTINUOUS
0
ENDTAB
0
TABLE
2
STYLE
5
3
100
AcDbSymbolTable
70
1
0
STYLE
5
11
100
AcDbSymbolTableRecord
100
AcDbTextStyleTableRecord
2
STANDARD
70
0
0
ENDTAB
0
TABLE
2
VIEW
5
6
100
AcDbSymbolTable
70
0
0
ENDTAB
0
TABLE
2
UCS
5
7
100
AcDbSymbolTable
70
0
0
ENDTAB
0
TABLE
2
APPID
5
9
100
AcDbSymbolTable
70
2
0
APPID
5
12
100
AcDbSymbolTableRecord
100
AcDbRegAppTableRecord
2
ACAD
70
0
0
ENDTAB
0
TABLE
2
DIMSTYLE
5
A
100
AcDbSymbolTable
70
1
0
ENDTAB
0
TABLE
2
BLOCK_RECORD
5
1
100
AcDbSymbolTable
70
1
0
BLOCK_RECORD
5
1F
100
AcDbSymbolTableRecord
100
AcDbBlockTableRecord
2
*MODEL_SPACE
0
BLOCK_RECORD
5
1B
100
AcDbSymbolTableRecord
100
AcDbBlockTableRecord
2
*PAPER_SPACE
0
ENDTAB
0
ENDSEC
0
SECTION
2
BLOCKS
0
BLOCK
5
20
100
AcDbEntity
100
AcDbBlockBegin
2
*MODEL_SPACE
0
ENDBLK
5
21
100
AcDbEntity
100
AcDbBlockEnd
0
BLOCK
5
1C
100
AcDbEntity
100
AcDbBlockBegin
2
*PAPER_SPACE
0
ENDBLK
5
1D
100
AcDbEntity
100
AcDbBlockEnd
0
ENDSEC
0
SECTION
2
ENTITIES
0
SPLINE
5
100
100
AcDbEntity
8
0
100
AcDbSpline
70
4
71
5
72
16
73
10
74
0
42
0.000000001
43
0.0000000001
44
0.0000000001
40
0
40
0
40
0
40
0
40
0
40
0
40
0.20000000000000001
40
0.40000000000000002
40
0.60000000000000009
40
0.80000000000000004
40
1
40
1
40
1
40
1
40
1
40
1
41
1
41
1
41
1
41
1
41
1
41
1
41
1
41
1
41
1
41
1
10
0
20
0
30
0
10
0
20
0.12000000000003158
30
0
10
0
20
0.36000000000007704
30
0
10
0
20
0.72000000000009301
30
0
10
0
20
1.2000000000000313
30
0
10
0
20
1.7999999999999146
30
0
10
0
20
2.2799999999998684
30
0
10
0
20
2.6399999999999042
30
0
10
0
20
2.8799999999999617
30
0
10
0
20
3
30
0
0
SPLINE
5
101
100
AcDbEntity
8
0
100
AcDbSpline
70
4
71
5
72
16
73
10
74
0
42
0.000000001
43
0.0000000001
44
0.0000000001
40
0
40
0
40
0
40
0
40
0
40
0
40
0.20000000000000001
40
0.40000000000000002
40
0.60000000000000009
40
0.80000000000000004
40
1
40
1
40
1
40
1
40
1
40
1
41
1
41
1
41
1
41
1
41
1
41
1
41
1
41
1
41
1
41
1
10
10
20
0
30
0
10
9.9999999999997495
20
0.12000000000003158
30
0
10
9.9999999999993197
20
0.36000000000007704
30
0
10
9.9999999999989129
20
0.72000000000009301
30
0
10
9.9999999999987672
20
1.2000000000000313
30
0
10
9.9999999999990248
20
1.7999999999999146
30
0
10
9.9999999999993889
20
2.2799999999998684
30
0
10
9.9999999999996998
20
2.6399999999999042
30
0
10
9.9999999999999005
20
2.8799999999999617
30
0
10
10
20
3
30
0
0
SPLINE
5
102
100
AcDbEntity
8
0
100
AcDbSpline
70
4
71
5
72
16
73
10
74
0
42
0.000000001
43
0.0000000001
44
0.0000000001
40
0
40
0
40
0
40
0
40
0
40
0
40
0.20000000000000001
40
0.40000000000000002
40
0.60000000000000009
40
0.80000000000000004
40
1
40
1
40
1
40
1
40
1
40
1
41
1
41
1
41
1
41
1
41
1
41
1
41
1
41
1
41
1
41
1
10
0
20
1.5
30
0
10
0.40000000000047375
20
1.499999999999694
30
0
10
1.2000000000012774
20
1.4999999999991638
30
0
10
2.4000000000020547
20
1.4999999999986278
30
0
10
4.0000000000023546
20
1.4999999999983737
30
0
10
6.0000000000019584
20
1.4999999999985913
30
0
10
7.6000000000012928
20
1.4999999999990359
30
0
10
8.800000000000697
20
1.4999999999994786
30
0
10
9.6000000000002395
20
1.4999999999998188
30
0
10
10
20
1.5
30
0
0
SPLINE
5
103
100
AcDbEntity
8
0
100
AcDbSpline
70
4
71
5
72
61
73
55
74
0
42
0.000000001
43
0.0000000001
44
0.0000000001
40
0
40
0
40
0
40
0
40
0
40
0
40
0.02
40
0.040000000000000001
40
0.059999999999999998
40
0.080000000000000002
40
0.10000000000000001
40
0.12000000000000001
40
0.14000000000000001
40
0.16
40
0.17999999999999999
40
0.19999999999999998
40
0.21999999999999997
40
0.23999999999999996
40
0.25999999999999995
40
0.27999999999999997
40
0.29999999999999999
40
0.32000000000000001
40
0.34000000000000002
40
0.36000000000000004
40
0.38000000000000006
40
0.40000000000000008
40
0.4200000000000001
40
0.44000000000000011
40
0.46000000000000013
40
0.48000000000000015
40
0.50000000000000011
40
0.52000000000000013
40
0.54000000000000015
40
0.56000000000000016
40
0.58000000000000018
40
0.6000000000000002
40
0.62000000000000022
40
0.64000000000000024
40
0.66000000000000025
40
0.68000000000000027
40
0.70000000000000029
40
0.72000000000000031
40
0.74000000000000032
40
0.76000000000000034
40
0.78000000000000036
40
0.80000000000000038
40
0.8200000000000004
40
0.84000000000000041
40
0.86000000000000043
40
0.88000000000000045
40
0.90000000000000047
40
0.92000000000000048
40
0.9400000000000005
40
0.96000000000000052
40
0.98000000000000054
40
1
40
1
40
1
40
1
40
1
40
1
41
1
41
1
41
1
41
1
41
1
41
1
41
1
41
1
41
1
41
1
41
1
41
1
41
1
41
1
41
1
41
1
41
1
41
1
41
1
41
1
41
1
41
1
41
1
41
1
41
1
41
1
41
1
41
1
41
1
41
1
41
1
41
1
41
1
41
1
41
1
41
1
41
1
41
1
41
1
41
1
41
1
41
1
41
1
41
1
41
1
41
1
41
1
41
1
41
1
41
1
41
1
41
1
41
1
41
1
41
1
10
0
20
0
30
0
10
0.040684957870422131
20
-0.010962039309611716
30
0
10
0.12197720942263222
20
-0.030180483583103702
30
0
10
0.24368259404744216
20
-0.05089121295237823
30
0
10
0.40549015244467179
20
-0.062261361620398928
30
0
10
0.60697788749185055
20
-0.050016980926203158
30
0
10
0.80771329708269035
20
-0.013278231773903509
30
0
10
1.0077374611811536
20
0.043954978268227328
30
0
10
1.2071211043260992
20
0.11491387710432124
30
0
10
1.4059721956989795
20
0.18942119618274023
30
0
10
1.6044317422099217
20
0.2559671612831857
30
0
10
1.80267005597779
20
0.30369502879258337
30
0
10
2.000882915546752
20
0.32441871447740522
30
0
10
2.1992879036053594
20
0.31463820109423379
30
0
10
2.3981205961457412
20
0.27755355872892895
30
0
10
2.597590054480361
20
0.22099943393522295
30
0
10
2.7978344623079945
20
0.15540828858219469
30
0
10
2.9988764617062174
20
0.091770479706479183
30
0
10
3.2005784834564639
20
0.039602563886218092
30
0
10
3.4025971609748931
20
0.0049005951092604338
30
0
10
3.6044914191076138
20
-0.0094070380368175728
30
0
10
3.8058314911962858
20
-0.0030029371947603101
30
0
10
4.0063066348933054
20
0.022267425323949798
30
0
10
4.2058357504114019
20
0.062838887360340365
30
0
10
4.4046714609205733
20
0.11387063061880241
30
0
10
4.6032606269198002
20
0.16986937047555997
30
0
10
4.8021115342005993
20
0.22530683350575365
30
0
10
5.0016591649719091
20
0.27523728877406567
30
0
10
5.2021304770022772
20
0.31591928744736431
30
0
10
5.4034111473354791
20
0.34542989410662084
30
0
10
5.6051703371764567
20
0.36315532921800309
30
0
10
5.8069833269835955
20
0.36929054803152667
30
0
10
6.0084534767867588
20
0.36434501264423313
30
0
10
6.2093370203930007
20
0.34863205089960803
30
0
10
6.4096597506965356
20
0.32180845030302108
30
0
10
6.6096177412220332
20
0.28367331629072146
30
0
10
6.8094856202212517
20
0.23493116894169899
30
0
10
7.0095232613625837
20
0.17795381645588537
30
0
10
7.2098809588538852
20
0.11758597988686503
30
0
10
7.4105112890787144
20
0.061829470793955579
30
0
10
7.611241182671094
20
0.019776994490691591
30
0
10
7.8118374970551745
20
-0.00035456819957007941
30
0
10
8.0120740433268445
20
0.0068013804951425547
30
0
10
8.2117997714668682
20
0.041711554887708328
30
0
10
8.411001498282225
20
0.098115242233540539
30
0
10
8.6097623605481068
20
0.1653048315633551
30
0
10
8.8082256864397426
20
0.23019525516593364
30
0
10
9.0065572114589205
20
0.27945306168407413
30
0
10
9.2049076561829537
20
0.30162496152530788
30
0
10
9.4033763875177705
20
0.28919397726048379
30
0
10
9.6020227944770546
20
0.23771122291105312
30
0
10
9.7611054768275416
20
0.16355906703763345
30
0
10
9.880514887150099
20
0.089102358793656675
30
0
10
9.9601644192356193
20
0.031095613169754968
30
0
10
10
20
0
30
0
0
SPLINE
5
104
100
AcDbEntity
8
0
100
AcDbSpline
70
4
71
5
72
61
73
55
74
0
42
0.000000001
43
0.0000000001
44
0.0000000001
40
0
40
0
40
0
40
0
40
0
40
0
40
0.02
40
0.040000000000000001
40
0.059999999999999998
40
0.080000000000000002
40
0.10000000000000001
40
0.12000000000000001
40
0.14000000000000001
40
0.16
40
0.17999999999999999
40
0.19999999999999998
40
0.21999999999999997
40
0.23999999999999996
40
0.25999999999999995
40
0.27999999999999997
40
0.29999999999999999
40
0.32000000000000001
40
0.34000000000000002
40
0.36000000000000004
40
0.38000000000000006
40
0.40000000000000008
40
0.4200000000000001
40
0.44000000000000011
40
0.46000000000000013
40
0.48000000000000015
40
0.50000000000000011
40
0.52000000000000013
40
0.54000000000000015
40
0.56000000000000016
40
0.58000000000000018
40
0.6000000000000002
40
0.62000000000000022
40
0.64000000000000024
40
0.66000000000000025
40
0.68000000000000027
40
0.70000000000000029
40
0.72000000000000031
40
0.74000000000000032
40
0.76000000000000034
40
0.78000000000000036
40
0.80000000000000038
40
0.8200000000000004
40
0.84000000000000041
40
0.86000000000000043
40
0.88000000000000045
40
0.90000000000000047
40
0.92000000000000048
40
0.9400000000000005
40
0.96000000000000052
40
0.98000000000000054
40
1
40
1
40
1
40
1
40
1
40
1
41
1
41
1
41
1
41
1
41
1
41
1
41
1
41
1
41
1
41
1
41
1
41
1
41
1
41
1
41
1
41
1
41
1
41
1
41
1
41
1
41
1
41
1
41
1
41
1
41
1
41
1
41
1
41
1
41
1
41
1
41
1
41
1
41
1
41
1
41
1
41
1
41
1
41
1
41
1
41
1
41
1
41
1
41
1
41
1
41
1
41
1
41
1
41
1
41
1
41
1
41
1
41
1
41
1
41
1
41
1
10
0
20
3
30
0
10
0.040007378473790607
20
2.9990298319065372
30
0
10
0.12005360283899255
20
2.9969931973918298
30
0
10
0.240217342184494
20
2.9936493535523727
30
0
10
0.40062458526422473
20
2.9886127099523319
30
0
10
0.60143257536954953
20
2.9812582345154164
30
0
10
0.80249033401024283
20
2.972563132558089
30
0
10
1.0036986501286391
20
2.9619666304878223
30
0
10
1.2048907780760856
20
2.9485336859846667
30
0
10
1.405816351536064
20
2.9308669986470144
30
0
10
1.6062127317273933
20
2.9074896081297537
30
0
10
1.8058752178662036
20
2.8772207077340815
30
0
10
2.0047272094511026
20
2.8395528421928291
30
0
10
2.2028920657148316
20
2.7950344411200154
30
0
10
2.4007609564747652
20
2.745641255862004
30
0
10
2.5988466767530265
20
2.6945045221246744
30
0
10
2.7976422731718777
20
2.645654054924758
30
0
10
2.9974774654355989
20
2.6037594553051013
30
0
10
3.1983767024812133
20
2.5738717097456423
30
0
10
3.3999128608567188
20
2.561172285366291
30
0
10
3.6014051316919895
20
2.5699327559171814
30
0
10
3.8021199996845811
20
2.6024631817453017
30
0
10
4.001470579810114
20
2.6580612683158193
30
0
10
4.1992174031014731
20
2.7319492054273615
30
0
10
4.3956679967265284
20
2.8142160586174301
30
0
10
4.5914753364777932
20
2.8924932438479112
30
0
10
4.7874404351376816
20
2.9545810673112793
30
0
10
4.9843109795104503
20
2.9911426327796145
30
0
10
5.1825885069369839
20
2.9982589697506992
30
0
10
5.3823129559019076
20
2.9803701041991082
30
0
10
5.5831890884773436
20
2.9474302516506938
30
0
10
5.7847377461189868
20
2.9116501795705849
30
0
10
5.9864391773805163
20
2.8843538932799424
30
0
10
6.1878756626237843
20
2.8728866375664608
30
0
10
6.3888848391179778
20
2.8772245059032118
30
0
10
6.5894975220842111
20
2.892209944600963
30
0
10
6.7898615261893491
20
2.9101447581599964
30
0
10
6.9901703923636678
20
2.9232674654887285
30
0
10
7.1905915249552601
20
2.9262242007456818
30
0
10
7.3911910714614066
20
2.9186908386907442
30
0
10
7.5919583731830294
20
2.9039094520212689
30
0
10
7.7928350616303135
20
2.8870396078348199
30
0
10
7.9937424294797186
20
2.8735753618583892
30
0
10
8.1946091440729631
20
2.8677565969881296
30
0
10
8.3953996426140627
20
2.870926490971037
30
0
10
8.5961061356018167
20
2.8822521985434761
30
0
10
8.7967395461638471
20
2.899512043129675
30
0
10
8.9973208860937852
20
2.9198551615921469
30
0
10
9.1978725213874455
20
2.9405667901228698
30
0
10
9.3984093957914023
20
2.9598402705314282
30
0
10
9.5989404451719551
20
2.9765998324306646
30
0
10
9.7593642010949679
20
2.9875697690207859
30
0
10
9.8796820773685603
20
2.9943480823869133
30
0
10
9.9598940213793004
20
2.9982233028216547
30
0
10
10
20
3
30
0
0
ENDSEC
0
SECTION
2
OBJECTS
0
DICTIONARY
5
C
100
AcDbDictionary
3
ACAD_GROUP
350
D
3
ACAD_MLINESTYLE
350
17
0
DICTIONARY
5
D
100
AcDbDictionary
0
DICTIONARY
5
1A
330
C
100
AcDbDictionary
0
DICTIONARY
5
17
100
AcDbDictionary
0
ENDSEC
0
EOF
