0
SECTION
2
HEADER
9
$INSUNITS
70
4
9
$ACADVER
1
AC1014
9
$HANDSEED
5
FFFF
0
ENDSEC
0
SECTION
2
TABLES
0
TABLE
2
VPORT
5
8
100
AcDbSymbolTable
0
ENDTAB
0
TABLE
2
LTYPE
5
5
100
AcDbSymbolTable
0
LTYPE
5
14
100
AcDbSymbolTableRecord
100
AcDbLinetypeTableRecord
2
BYBLOCK
70
0
0
LTYPE
5
15
100
AcDbSymbolTableRecord
100
AcDbLinetypeTableRecord
2
BYLAYER
70
0
0
ENDTAB
0
TABLE
2
LAYER
5
2
100
AcDbSymbolTable
70
2
0
LAYER
5
50
100
AcDbSymbolTableRecord
100
AcDbLayerTableRecord
2
0
70
0
6
CONTINUOUS
0
ENDTAB
0
TABLE
2
STYLE
5
3
100
AcDbSymbolTable
70
1
0
STYLE
5
11
100
AcDbSymbolTableRecord
100
AcDbTextStyleTableRecord
2
STANDARD
70
0
0
ENDTAB
0
TABLE
2
VIEW
5
6
100
AcDbSymbolTable
70
0
0
ENDTAB
0
TABLE
2
UCS
5
7
100
AcDbSymbolTable
70
0
0
ENDTAB
0
TABLE
2
APPID
5
9
100
AcDbSymbolTable
70
2
0
APPID
5
12
100
AcDbSymbolTableRecord
100
AcDbRegAppTableRecord
2
ACAD
70
0
0
ENDTAB
0
TABLE
2
DIMSTYLE
5
A
100
AcDbSymbolTable
70
1
0
ENDTAB
0
TABLE
2
BLOCK_RECORD
5
1
100
AcDbSymbolTable
70
1
0
BLOCK_RECORD
5
1F
100
AcDbSymbolTableRecord
100
AcDbBlockTableRecord
2
*MODEL_SPACE
0
BLOCK_RECORD
5
1B
100
AcDbSymbolTableRecord
100
AcDbBlockTableRecord
2
*PAPER_SPACE
0
ENDTAB
0
ENDSEC
0
SECTION
2
BLOCKS
0
BLOCK
5
20
100
AcDbEntity
100
AcDbBlockBegin
2
*MODEL_SPACE
0
ENDBLK
5
21
100
AcDbEntity
100
AcDbBlockEnd
0
BLOCK
5
1C
100
AcDbEntity
100
AcDbBlockBegin
2
*PAPER_SPACE
0
ENDBLK
5
1D
100
AcDbEntity
100
AcDbBlockEnd
0
ENDSEC
0
SECTION
2
ENTITIES
0
SPLINE
5
100
100
AcDbEntity
8
0
100
AcDbSpline
70
4
71
5
72
16
73
10
74
0
42
0.000000001
43
0.0000000001
44
0.0000000001
40
0
40
0
40
0
40
0
40
0
40
0
40
0.20000000000000001
40
0.40000000000000002
40
0.60000000000000009
40
0.80000000000000004
40
1
40
1
40
1
40
1
40
1
40
1
41
1
41
1
41
1
41
1
41
1
41
1
41
1
41
1
41
1
41
1
10
0
20
0
30
0
10
0
20
0.12000000000003158
30
0
10
0
20
0.36000000000007704
30
0
10
0
20
0.72000000000009301
30
0
10
0
20
1.2000000000000313
30
0
10
0
20
1.7999999999999146
30
0
10
0
20
2.2799999999998684
30
0
10
0
20
2.6399999999999042
30
0
10
0
20
2.8799999999999617
30
0
10
0
20
3
30
0
0
SPLINE
5
101
100
AcDbEntity
8
0
100
AcDbSpline
70
4
71
5
72
16
73
10
74
0
42
0.000000001
43
0.0000000001
44
0.0000000001
40
0
40
0
40
0
40
0
40
0
40
0
40
0.20000000000000001
40
0.40000000000000002
40
0.60000000000000009
40
0.80000000000000004
40
1
40
1
40
1
40
1
40
1
40
1
41
1
41
1
41
1
41
1
41
1
41
1
41
1
41
1
41
1
41
1
10
10
20
0
30
0
10
9.9999999999997495
20
0.12000000000003158
30
0
10
9.9999999999993197
20
0.36000000000007704
30
0
10
9.9999999999989129
20
0.72000000000009301
30
0
10
9.9999999999987672
20
1.2000000000000313
30
0
10
9.9999999999990248
20
1.7999999999999146
30
0
10
9.9999999999993889
20
2.2799999999998684
30
0
10
9.9999999999996998
20
2.6399999999999042
30
0
10
9.9999999999999005
20
2.8799999999999617
30
0
10
10
20
3
30
0
0
SPLINE
5
102
100
AcDbEntity
8
0
100
AcDbSpline
70
4
71
5
72
16
73
10
74
0
42
0.000000001
43
0.0000000001
44
0.0000000001
40
0
40
0
40
0
40
0
40
0
40
0
40
0.20000000000000001
40
0.40000000000000002
40
0.60000000000000009
40
0.80000000000000004
40
1
40
1
40
1
40
1
40
1
40
1
41
1
41
1
41
1
41
1
41
1
41
1
41
1
41
1
41
1
41
1
10
0
20
1.5
30
0
10
0.40000000000047375
20
1.499999999999694
30
0
10
1.2000000000012774
20
1.4999999999991638
30
0
10
2.4000000000020547
20
1.4999999999986278
30
0
10
4.0000000000023546
20
1.4999999999983737
30
0
10
6.0000000000019584
20
1.4999999999985913
30
0
10
7.6000000000012928
20
1.4999999999990359
30
0
10
8.800000000000697
20
1.4999999999994786
30
0
10
9.6000000000002395
20
1.4999999999998188
30
0
10
10
20
1.5
30
0
0
SPLINE
5
103
100
AcDbEntity
8
0
100
AcDbSpline
70
4
71
5
72
61
73
55
74
0
42
0.000000001
43
0.0000000001
44
0.0000000001
40
0
40
0
40
0
40
0
40
0
40
0
40
0.02
40
0.040000000000000001
40
0.059999999999999998
40
0.080000000000000002
40
0.10000000000000001
40
0.12000000000000001
40
0.14000000000000001
40
0.16
40
0.17999999999999999
40
0.19999999999999998
40
0.21999999999999997
40
0.23999999999999996
40
0.25999999999999995
40
0.27999999999999997
40
0.29999999999999999
40
0.32000000000000001
40
0.34000000000000002
40
0.36000000000000004
40
0.38000000000000006
40
0.40000000000000008
40
0.4200000000000001
40
0.44000000000000011
40
0.46000000000000013
40
0.48000000000000015
40
0.50000000000000011
40
0.52000000000000013
40
0.54000000000000015
40
0.56000000000000016
40
0.58000000000000018
40
0.6000000000000002
40
0.62000000000000022
40
0.64000000000000024
40
0.66000000000000025
40
0.68000000000000027
40
0.70000000000000029
40
0.72000000000000031
40
0.74000000000000032
40
0.76000000000000034
40
0.78000000000000036
40
0.80000000000000038
40
0.8200000000000004
40
0.84000000000000041
40
0.86000000000000043
40
0.88000000000000045
40
0.90000000000000047
40
0.92000000000000048
40
0.9400000000000005
40
0.96000000000000052
40
0.98000000000000054
40
1
40
1
40
1
40
1
40
1
40
1
41
1
41
1
41
1
41
1
41
1
41
1
41
1
41
1
41
1
41
1
41
1
41
1
41
1
41
1
41
1
41
1
41
1
41
1
41
1
41
1
41
1
41
1
41
1
41
1
41
1
41
1
41
1
41
1
41
1
41
1
41
1
41
1
41
1
41
1
41
1
41
1
41
1
41
1
41
1
41
1
41
1
41
1
41
1
41
1
41
1
41
1
41
1
41
1
41
1
41
1
41
1
41
1
41
1
41
1
41
1
10
0
20
0
30
0
10
0.040227559375548345
20
0.0076135539317772963
30
0
10
0.12066581615399724
20
0.022379151061074104
30
0
10
0.24127261500003855
20
0.043143024516827243
30
0
10
0.40198044502339275
20
0.068057255752364751
30
0
10
0.60270625821249113
20
0.094406539477652207
30
0
10
0.80330309698318936
20
0.11545266981821579
30
0
10
1.0038314057811395
20
0.13019189076427726
30
0
10
1.2043927565994068
20
0.13695537000138311
30
0
10
1.4051394826149568
20
0.13326445233449796
30
0
10
1.6062252729756821
20
0.11706261431987969
30
0
10
1.8077563188988082
20
0.08794089986210625
30
0
10
2.009743030610875
20
0.048338746209463899
30
0
10
2.2120492503795983
20
0.0048338485728059068
30
0
10
2.4143478340017799
20
-0.030794644206977102
30
0
10
2.6162166469411545
20
-0.045349104619278498
30
0
10
2.8172294604014447
20
-0.0278451175690358
30
0
10
3.0170468830629957
20
0.02689990886618842
30
0
10
3.2155116716546592
20
0.11440526569200343
30
0
10
3.4127305847180205
20
0.2174462759664828
30
0
10
3.6089870869059366
20
0.31265004269952124
30
0
10
3.8046660976259519
20
0.37641252532431713
30
0
10
4.0001745291176052
20
0.39106853799086122
30
0
10
4.1958637392057989
20
0.35096629759747588
30
0
10
4.3919511421081401
20
0.26861110018207573
30
0
10
4.5885501223280016
20
0.167591960524687
30
0
10
4.785699301974776
20
0.075614560935061581
30
0
10
4.9833921623659281
20
0.017390497140659433
30
0
10
5.181605569737485
20
0.0078616434722665468
30
0
10
5.3803307822346831
20
0.044515779755613834
30
0
10
5.579567730653114
20
0.11259554513273751
30
0
10
5.7793163053330145
20
0.19130060272765032
30
0
10
5.9795686106809489
20
0.25972059007969889
30
0
10
6.1803010151356519
20
0.30262535814962321
30
0
10
6.3814656110384718
20
0.31699683896086617
30
0
10
6.5829909247362748
20
0.30878324074089963
30
0
10
6.7847836707377693
20
0.28866351822932912
30
0
10
6.9867298966493134
20
0.26813482129135846
30
0
10
7.1886966930398311
20
0.25557919133176527
30
0
10
7.3905325922840746
20
0.25203807525357025
30
0
10
7.5920896637113078
20
0.25337489810719943
30
0
10
7.7932468945920554
20
0.25284548302826781
30
0
10
7.9939333680600297
20
0.24352478136316308
30
0
10
8.1941511970460681
20
0.22075998461658897
30
0
10
8.3940000147826037
20
0.184703742790647
30
0
10
8.5936464633324068
20
0.13902312950942619
30
0
10
8.7932922998654419
20
0.089503220348733425
30
0
10
8.9931429619104915
20
0.042689643329997598
30
0
10
9.193376372495873
20
0.0045340180599493145
30
0
10
9.3941105054097012
20
-0.021006097402940974
30
0
10
9.5954148833900259
20
-0.031593196522622075
30
0
10
9.7569416909273947
20
-0.027183585098616007
30
0
10
9.8783633613301252
20
-0.016470161434420542
30
0
10
9.9594339806553336
20
-0.0060383126188587686
30
0
10
10
20
0
30
0
0
SPLINE
5
104
100
AcDbEntity
8
0
100
AcDbSpline
70
4
71
5
72
61
73
55
74
0
42
0.000000001
43
0.0000000001
44
0.0000000001
40
0
40
0
40
0
40
0
40
0
40
0
40
0.02
40
0.040000000000000001
40
0.059999999999999998
40
0.080000000000000002
40
0.10000000000000001
40
0.12000000000000001
40
0.14000000000000001
40
0.16
40
0.17999999999999999
40
0.19999999999999998
40
0.21999999999999997
40
0.23999999999999996
40
0.25999999999999995
40
0.27999999999999997
40
0.29999999999999999
40
0.32000000000000001
40
0.34000000000000002
40
0.36000000000000004
40
0.38000000000000006
40
0.40000000000000008
40
0.4200000000000001
40
0.44000000000000011
40
0.46000000000000013
40
0.48000000000000015
40
0.50000000000000011
40
0.52000000000000013
40
0.54000000000000015
40
0.56000000000000016
40
0.58000000000000018
40
0.6000000000000002
40
0.62000000000000022
40
0.64000000000000024
40
0.66000000000000025
40
0.68000000000000027
40
0.70000000000000029
40
0.72000000000000031
40
0.74000000000000032
40
0.76000000000000034
40
0.78000000000000036
40
0.80000000000000038
40
0.8200000000000004
40
0.84000000000000041
40
0.86000000000000043
40
0.88000000000000045
40
0.90000000000000047
40
0.92000000000000048
40
0.9400000000000005
40
0.96000000000000052
40
0.98000000000000054
40
1
40
1
40
1
40
1
40
1
40
1
41
1
41
1
41
1
41
1
41
1
41
1
41
1
41
1
41
1
41
1
41
1
41
1
41
1
41
1
41
1
41
1
41
1
41
1
41
1
41
1
41
1
41
1
41
1
41
1
41
1
41
1
41
1
41
1
41
1
41
1
41
1
41
1
41
1
41
1
41
1
41
1
41
1
41
1
41
1
41
1
41
1
41
1
41
1
41
1
41
1
41
1
41
1
41
1
41
1
41
1
41
1
41
1
41
1
41
1
41
1
10
0
20
3
30
0
10
0.040491986735451548
20
3.0100796187534202
30
0
10
0.12142632632881145
20
3.0275201238038769
30
0
10
0.24267893412680536
20
3.0455246505849414
30
0
10
0.40405108034091008
20
3.0532078848554738
30
0
10
0.60527051547421096
20
3.0363122043000046
30
0
10
0.80599889507650313
20
2.99514534311401
30
0
10
1.0062470979242182
20
2.9342399712962508
30
0
10
1.2060345857671364
20
2.8612539205112779
30
0
10
1.4053919200419771
20
2.787701852917321
30
0
10
1.6043664925236838
20
2.7263720406015421
30
0
10
1.8030282261296151
20
2.6888315788298902
30
0
10
2.0014753273787376
20
2.6829018101167019
30
0
10
2.1998401617182255
20
2.7101259648433205
30
0
10
2.3982950013524915
20
2.7632560725032573
30
0
10
2.5970255881638211
20
2.8296730732741353
30
0
10
2.7962049867933576
20
2.8947488514064585
30
0
10
2.9959672056605049
20
2.9452351106421295
30
0
10
3.1963810556731653
20
2.9726107981032883
30
0
10
3.3974230805146934
20
2.9765432742983129
30
0
10
3.5989955631290611
20
2.9623729615517744
30
0
10
3.8009451573468649
20
2.9384997702248494
30
0
10
4.0030811532763924
20
2.9138231056956254
30
0
10
4.2051936731566339
20
2.8951472593908942
30
0
10
4.4070720685435072
20
2.8846419377261774
30
0
10
4.6085385285563119
20
2.8810115715039641
30
0
10
4.8094819816660914
20
2.880610112785527
30
0
10
5.009891188821145
20
2.8785663060828903
30
0
10
5.2098904382453117
20
2.8699057540679989
30
0
10
5.4097688994404223
20
2.8506566670831432
30
0
10
5.6098732278335328
20
2.8184795375563216
30
0
10
5.8105049336362304
20
2.773334256955045
30
0
10
6.0118179934092728
20
2.7181120792557101
30
0
10
6.2137111963937226
20
2.6593531091567311
30
0
10
6.4157357057173066
20
2.6077609432667312
30
0
10
6.6172753911121447
20
2.575232492059957
30
0
10
6.8177149920917266
20
2.5720274850312173
30
0
10
7.0166090837701098
20
2.6039548395030767
30
0
10
7.2138595959715861
20
2.6693733557788208
30
0
10
7.4098661148957241
20
2.7567325041216844
30
0
10
7.6053225872135375
20
2.8490604633116359
30
0
10
7.8010386631526245
20
2.9279691057322093
30
0
10
7.9977517963829534
20
2.9778436665851475
30
0
10
8.1959440303178184
20
2.9899392228148698
30
0
10
8.3956539696022361
20
2.9665865670301357
30
0
10
8.5965989875243451
20
2.9180047655207666
30
0
10
8.7982991626355371
20
2.8590715950482726
30
0
10
9.0001999317779884
20
2.8061250125917825
30
0
10
9.2017949772442318
20
2.7737579334109315
30
0
10
9.4027489637322663
20
2.7716155645298102
30
0
10
9.6028624952719994
20
2.8054143339444599
30
0
10
9.7622024300689318
20
2.8634434932125368
30
0
10
9.8812708618907354
20
2.9247932115524815
30
0
10
9.960455934320315
20
2.9736113494486633
30
0
10
10
20
3
30
0
0
ENDSEC
0
SECTION
2
OBJECTS
0
DICTIONARY
5
C
100
AcDbDictionary
3
ACAD_GROUP
350
D
3
ACAD_MLINESTYLE
350
17
0
DICTIONARY
5
D
100
AcDbDictionary
0
DICTIONARY
5
1A
330
C
100
AcDbDictionary
0
DICTIONARY
5
17
100
AcDbDictionary
0
ENDSEC
0
EOF
