0
SECTION
2
HEADER
9
$INSUNITS
70
4
9
$ACADVER
1
AC1014
9
$HANDSEED
5
FFFF
0
ENDSEC
0
SECTION
2
TABLES
0
TABLE
2
VPORT
5
8
100
AcDbSymbolTable
0
ENDTAB
0
TABLE
2
LTYPE
5
5
100
AcDbSymbolTable
0
LTYPE
5
14
100
AcDbSymbolTableRecord
100
AcDbLinetypeTableRecord
2
BYBLOCK
70
0
0
LTYPE
5
15
100
AcDbSymbolTableRecord
100
AcDbLinetypeTableRecord
2
BYLAYER
70
0
0
ENDTAB
0
TABLE
2
LAYER
5
2
100
AcDbSymbolTable
70
2
0
LAYER
5
50
100
AcDbSymbolTableRecord
100
AcDbLayerTableRecord
2
0
70
0
6
CONTINUOUS
0
ENDTAB
0
TABLE
2
STYLE
5
3
100
AcDbSymbolTable
70
1
0
STYLE
5
11
100
AcDbSymbolTableRecord
100
AcDbTextStyleTableRecord
2
STANDARD
70
0
0
ENDTAB
0
TABLE
2
VIEW
5
6
100
AcDbSymbolTable
70
0
0
ENDTAB
0
TABLE
2
UCS
5
7
100
AcDbSymbolTable
70
0
0
ENDTAB
0
TABLE
2
APPID
5
9
100
AcDbSymbolTable
70
2
0
APPID
5
12
100
AcDbSymbolTableRecord
100
AcDbRegAppTableRecord
2
ACAD
70
0
0
ENDTAB
0
TABLE
2
DIMSTYLE
5
A
100
AcDbSymbolTable
70
1
0
ENDTAB
0
TABLE
2
BLOCK_RECORD
5
1
100
AcDbSymbolTable
70
1
0
BLOCK_RECORD
5
1F
100
AcDbSymbolTableRecord
100
AcDbBlockTableRecord
2
*MODEL_SPACE
0
BLOCK_RECORD
5
1B
100
AcDbSymbolTableRecord
100
AcDbBlockTableRecord
2
*PAPER_SPACE
0
ENDTAB
0
ENDSEC
0
SECTION
2
BLOCKS
0
BLOCK
5
20
100
AcDbEntity
100
AcDbBlockBegin
2
*MODEL_SPACE
0
ENDBLK
5
21
100
AcDbEntity
100
AcDbBlockEnd
0
BLOCK
5
1C
100
AcDbEntity
100
AcDbBlockBegin
2
*PAPER_SPACE
0
ENDBLK
5
1D
100
AcDbEntity
100
AcDbBlockEnd
0
ENDSEC
0
SECTION
2
ENTITIES
0
SPLINE
5
100
100
AcDbEntity
8
0
100
AcDbSpline
70
4
71
5
72
16
73
10
74
0
42
0.000000001
43
0.0000000001
44
0.0000000001
40
0
40
0
40
0
40
0
40
0
40
0
40
0.20000000000000001
40
0.40000000000000002
40
0.60000000000000009
40
0.80000000000000004
40
1
40
1
40
1
40
1
40
1
40
1
41
1
41
1
41
1
41
1
41
1
41
1
41
1
41
1
41
1
41
1
10
0
20
0
30
0
10
0
20
0.12000000000003158
30
0
10
0
20
0.36000000000007704
30
0
10
0
20
0.72000000000009301
30
0
10
0
20
1.2000000000000313
30
0
10
0
20
1.7999999999999146
30
0
10
0
20
2.2799999999998684
30
0
10
0
20
2.6399999999999042
30
0
10
0
20
2.8799999999999617
30
0
10
0
20
3
30
0
0
SPLINE
5
101
100
AcDbEntity
8
0
100
AcDbSpline
70
4
71
5
72
16
73
10
74
0
42
0.000000001
43
0.0000000001
44
0.0000000001
40
0
40
0
40
0
40
0
40
0
40
0
40
0.20000000000000001
40
0.40000000000000002
40
0.60000000000000009
40
0.80000000000000004
40
1
40
1
40
1
40
1
40
1
40
1
41
1
41
1
41
1
41
1
41
1
41
1
41
1
41
1
41
1
41
1
10
10
20
0
30
0
10
9.9999999999997495
20
0.12000000000003158
30
0
10
9.9999999999993197
20
0.36000000000007704
30
0
10
9.9999999999989129
20
0.72000000000009301
30
0
10
9.9999999999987672
20
1.2000000000000313
30
0
10
9.9999999999990248
20
1.7999999999999146
30
0
10
9.9999999999993889
20
2.2799999999998684
30
0
10
9.9999999999996998
20
2.6399999999999042
30
0
10
9.9999999999999005
20
2.8799999999999617
30
0
10
10
20
3
30
0
0
SPLINE
5
102
100
AcDbEntity
8
0
100
AcDbSpline
70
4
71
5
72
16
73
10
74
0
42
0.000000001
43
0.0000000001
44
0.0000000001
40
0
40
0
40
0
40
0
40
0
40
0
40
0.20000000000000001
40
0.40000000000000002
40
0.60000000000000009
40
0.80000000000000004
40
1
40
1
40
1
40
1
40
1
40
1
41
1
41
1
41
1
41
1
41
1
41
1
41
1
41
1
41
1
41
1
10
0
20
1.5
30
0
10
0.40000000000047375
20
1.499999999999694
30
0
10
1.2000000000012774
20
1.4999999999991638
30
0
10
2.4000000000020547
20
1.4999999999986278
30
0
10
4.0000000000023546
20
1.4999999999983737
30
0
10
6.0000000000019584
20
1.4999999999985913
30
0
10
7.6000000000012928
20
1.4999999999990359
30
0
10
8.800000000000697
20
1.4999999999994786
30
0
10
9.6000000000002395
20
1.4999999999998188
30
0
10
10
20
1.5
30
0
0
SPLINE
5
103
100
AcDbEntity
8
0
100
AcDbSpline
70
4
71
5
72
111
73
105
74
0
42
0.000000001
43
0.0000000001
44
0.0000000001
40
0
40
0
40
0
40
0
40
0
40
0
40
0.01
40
0.02
40
0.029999999999999999
40
0.040000000000000001
40
0.050000000000000003
40
0.060000000000000005
40
0.070000000000000007
40
0.080000000000000002
40
0.089999999999999997
40
0.099999999999999992
40
0.10999999999999999
40
0.11999999999999998
40
0.12999999999999998
40
0.13999999999999999
40
0.14999999999999999
40
0.16
40
0.17000000000000001
40
0.18000000000000002
40
0.19000000000000003
40
0.20000000000000004
40
0.21000000000000005
40
0.22000000000000006
40
0.23000000000000007
40
0.24000000000000007
40
0.25000000000000006
40
0.26000000000000006
40
0.27000000000000007
40
0.28000000000000008
40
0.29000000000000009
40
0.3000000000000001
40
0.31000000000000011
40
0.32000000000000012
40
0.33000000000000013
40
0.34000000000000014
40
0.35000000000000014
40
0.36000000000000015
40
0.37000000000000016
40
0.38000000000000017
40
0.39000000000000018
40
0.40000000000000019
40
0.4100000000000002
40
0.42000000000000021
40
0.43000000000000022
40
0.44000000000000022
40
0.45000000000000023
40
0.46000000000000024
40
0.47000000000000025
40
0.48000000000000026
40
0.49000000000000027
40
0.50000000000000022
40
0.51000000000000023
40
0.52000000000000024
40
0.53000000000000025
40
0.54000000000000026
40
0.55000000000000027
40
0.56000000000000028
40
0.57000000000000028
40
0.58000000000000029
40
0.5900000000000003
40
0.60000000000000031
40
0.61000000000000032
40
0.62000000000000033
40
0.63000000000000034
40
0.64000000000000035
40
0.65000000000000036
40
0.66000000000000036
40
0.67000000000000037
40
0.68000000000000038
40
0.69000000000000039
40
0.7000000000000004
40
0.71000000000000041
40
0.72000000000000042
40
0.73000000000000043
40
0.74000000000000044
40
0.75000000000000044
40
0.76000000000000045
40
0.77000000000000046
40
0.78000000000000047
40
0.79000000000000048
40
0.80000000000000049
40
0.8100000000000005
40
0.82000000000000051
40
0.83000000000000052
40
0.84000000000000052
40
0.85000000000000053
40
0.86000000000000054
40
0.87000000000000055
40
0.88000000000000056
40
0.89000000000000057
40
0.90000000000000058
40
0.91000000000000059
40
0.9200000000000006
40
0.9300000000000006
40
0.94000000000000061
40
0.95000000000000062
40
0.96000000000000063
40
0.97000000000000064
40
0.98000000000000065
40
0.99000000000000066
40
1
40
1
40
1
40
1
40
1
40
1
41
1
41
1
41
1
41
1
41
1
41
1
41
1
41
1
41
1
41
1
41
1
41
1
41
1
41
1
41
1
41
1
41
1
41
1
41
1
41
1
41
1
41
1
41
1
41
1
41
1
41
1
41
1
41
1
41
1
41
1
41
1
41
1
41
1
41
1
41
1
41
1
41
1
41
1
41
1
41
1
41
1
41
1
41
1
41
1
41
1
41
1
41
1
41
1
41
1
41
1
41
1
41
1
41
1
41
1
41
1
41
1
41
1
41
1
41
1
41
1
41
1
41
1
41
1
41
1
41
1
41
1
41
1
41
1
41
1
41
1
41
1
41
1
41
1
41
1
41
1
41
1
41
1
41
1
41
1
41
1
41
1
41
1
41
1
41
1
41
1
41
1
41
1
41
1
41
1
41
1
41
1
41
1
41
1
41
1
41
1
41
1
41
1
41
1
41
1
41
1
41
1
41
1
41
1
41
1
41
1
10
0
20
0
30
0
10
0.021117447497374309
20
-0.013094497353578885
30
0
10
0.063208588683437997
20
-0.035679059465314703
30
0
10
0.12591404282254398
20
-0.058742495342599808
30
0
10
0.20865862652555384
20
-0.067864356230065287
30
0
10
0.31063582310884985
20
-0.044112161200810573
30
0
10
0.41111311693527913
20
0.012057798871186954
30
0
10
0.50999987911235667
20
0.095175318655543475
30
0
10
0.60714359060714851
20
0.19602854568443701
30
0
10
0.70232345569278642
20
0.30097623600895856
30
0
10
0.79536917512085048
20
0.3946307372768646
30
0
10
0.88626490447786477
20
0.46221887256603894
30
0
10
0.97526908124276834
20
0.49218047794502395
30
0
10
1.0630044332266828
20
0.47840402395673542
30
0
10
1.1506203872667045
20
0.42329571540651811
30
0
10
1.2395776128655565
20
0.33651986995061584
30
0
10
1.3312981357112115
20
0.23213202189059645
30
0
10
1.4268447110048732
20
0.12619617803025279
30
0
10
1.5266202449651334
20
0.034297365827058675
30
0
10
1.6299805806688219
20
-0.031129025174346753
30
0
10
1.7351296701986803
20
-0.062660677381179392
30
0
10
1.8397901276637032
20
-0.057318519179546695
30
0
10
1.9417582737622652
20
-0.016486156366034423
30
0
10
2.0394496476784401
20
0.054444596608339148
30
0
10
2.1325814205072242
20
0.14610847853524808
30
0
10
2.222328902799116
20
0.2460426810862486
30
0
10
2.3106456358176111
20
0.34081228993213153
30
0
10
2.3997861817485751
20
0.41782712793893173
30
0
10
2.4917389730295918
20
0.46731664291258934
30
0
10
2.5877172128932422
20
0.48416068420902203
30
0
10
2.687571365529581
20
0.46999583684081164
30
0
10
2.7902023749628451
20
0.43135918174344012
30
0
10
2.894046601901008
20
0.37754003332287983
30
0
10
2.9975371440531968
20
0.31853029758053897
30
0
10
3.0995693446015524
20
0.2629541831712145
30
0
10
3.1999802339974952
20
0.21595147087373115
30
0
10
3.2992618859244245
20
0.17977631116837967
30
0
10
3.3982550590567722
20
0.15446746146775822
30
0
10
3.497849450355202
20
0.13849132912792422
30
0
10
3.5986834916615065
20
0.12939323970872987
30
0
10
3.700838008205392
20
0.12444982760619532
30
0
10
3.8040058328129018
20
0.12098784421683459
30
0
10
3.9076714557224768
20
0.11670252221329513
30
0
10
4.0112831146924961
20
0.10996440379079424
30
0
10
4.1144365229882949
20
0.10015906976435646
30
0
10
4.2170291546829004
20
0.087934192978093323
30
0
10
4.3191592861924901
20
0.074645116468939954
30
0
10
4.4210453332411435
20
0.061852963600684895
30
0
10
4.5229408232361612
20
0.050836633677600988
30
0
10
4.6250435498502149
20
0.042019705736470958
30
0
10
4.7274309861616723
20
0.034675525164978425
30
0
10
4.830097051953949
20
0.027623823616759084
30
0
10
4.9329729168408107
20
0.019803748633602916
30
0
10
5.0359534793583336
20
0.010825060706645757
30
0
10
5.1389226999501574
20
0.0016964304837543999
30
0
10
5.2417749235973918
20
-0.0050823257079767765
30
0
10
5.3444248126847738
20
-0.0066266086293487111
30
0
10
5.4468209647134351
20
-0.00057153695115199255
30
0
10
5.5489557238795584
20
0.014068497471270563
30
0
10
5.6508823411664801
20
0.03571418919851347
30
0
10
5.752707279060373
20
0.060344661941835749
30
0
10
5.8545567824433533
20
0.083030136753154668
30
0
10
5.9565486597333592
20
0.099160398561685056
30
0
10
6.0587654146073149
20
0.10564384276153316
30
0
10
6.1612181968199859
20
0.10249920007300478
30
0
10
6.2638522018914031
20
0.092620497039717975
30
0
10
6.3665818855055516
20
0.080217987937301422
30
0
10
6.4693188489014588
20
0.069590719347188842
30
0
10
6.571999527195266
20
0.063892300456895978
30
0
10
6.6746210999898175
20
0.063570830845425266
30
0
10
6.7772280868454358
20
0.066802194418643074
30
0
10
6.8798789664201756
20
0.070743227999626263
30
0
10
6.9826179794245622
20
0.072553434796332542
30
0
10
7.085447707289509
20
0.070433371509407469
30
0
10
7.1882936078835158
20
0.064864537530005859
30
0
10
7.2910411571152594
20
0.057886765647169387
30
0
10
7.3935867231673589
20
0.051996608513539481
30
0
10
7.4958843128628931
20
0.049167460143526132
30
0
10
7.5979925815997627
20
0.049843566336591094
30
0
10
7.7001259256929968
20
0.05187502888736744
30
0
10
7.8025573582563821
20
0.051925224858387103
30
0
10
7.9055138740584177
20
0.047003021695957589
30
0
10
8.0090777271464511
20
0.035900645215697996
30
0
10
8.113077818147671
20
0.020784000179917397
30
0
10
8.2170059422699158
20
0.0084028883499594042
30
0
10
8.3201966527246789
20
0.0073122863724775109
30
0
10
8.4219926984753251
20
0.025298835392278403
30
0
10
8.5219067876892893
20
0.066892929993668401
30
0
10
8.6198064003985131
20
0.1304591770644993
30
0
10
8.7160233135420757
20
0.2066396223222231
30
0
10
8.8111676308336264
20
0.28208901776500722
30
0
10
8.9059870613817669
20
0.34240182478106662
30
0
10
9.0012090158503923
20
0.37534470979970597
30
0
10
9.0973890938296726
20
0.37398208070561667
30
0
10
9.1947593970070418
20
0.33978799971485346
30
0
10
9.2933115622702598
20
0.28019642362040914
30
0
10
9.3928755885036068
20
0.20625100065414484
30
0
10
9.493200856582968
20
0.13019692022257942
30
0
10
9.5940344959559791
20
0.063151928366312074
30
0
10
9.6952053250614547
20
0.012599208431505143
30
0
10
9.7966114048493207
20
-0.017008161952342997
30
0
10
9.8778834096831876
20
-0.022156079142448895
30
0
10
9.9389125104216305
20
-0.015260585637346757
30
0
10
9.9796319424268027
20
-0.0058835306771453993
30
0
10
10
20
0
30
0
0
SPLINE
5
104
100
AcDbEntity
8
0
100
AcDbSpline
70
4
71
5
72
111
73
105
74
0
42
0.000000001
43
0.0000000001
44
0.0000000001
40
0
40
0
40
0
40
0
40
0
40
0
40
0.01
40
0.02
40
0.029999999999999999
40
0.040000000000000001
40
0.050000000000000003
40
0.060000000000000005
40
0.070000000000000007
40
0.080000000000000002
40
0.089999999999999997
40
0.099999999999999992
40
0.10999999999999999
40
0.11999999999999998
40
0.12999999999999998
40
0.13999999999999999
40
0.14999999999999999
40
0.16
40
0.17000000000000001
40
0.18000000000000002
40
0.19000000000000003
40
0.20000000000000004
40
0.21000000000000005
40
0.22000000000000006
40
0.23000000000000007
40
0.24000000000000007
40
0.25000000000000006
40
0.26000000000000006
40
0.27000000000000007
40
0.28000000000000008
40
0.29000000000000009
40
0.3000000000000001
40
0.31000000000000011
40
0.32000000000000012
40
0.33000000000000013
40
0.34000000000000014
40
0.35000000000000014
40
0.36000000000000015
40
0.37000000000000016
40
0.38000000000000017
40
0.39000000000000018
40
0.40000000000000019
40
0.4100000000000002
40
0.42000000000000021
40
0.43000000000000022
40
0.44000000000000022
40
0.45000000000000023
40
0.46000000000000024
40
0.47000000000000025
40
0.48000000000000026
40
0.49000000000000027
40
0.50000000000000022
40
0.51000000000000023
40
0.52000000000000024
40
0.53000000000000025
40
0.54000000000000026
40
0.55000000000000027
40
0.56000000000000028
40
0.57000000000000028
40
0.58000000000000029
40
0.5900000000000003
40
0.60000000000000031
40
0.61000000000000032
40
0.62000000000000033
40
0.63000000000000034
40
0.64000000000000035
40
0.65000000000000036
40
0.66000000000000036
40
0.67000000000000037
40
0.68000000000000038
40
0.69000000000000039
40
0.7000000000000004
40
0.71000000000000041
40
0.72000000000000042
40
0.73000000000000043
40
0.74000000000000044
40
0.75000000000000044
40
0.76000000000000045
40
0.77000000000000046
40
0.78000000000000047
40
0.79000000000000048
40
0.80000000000000049
40
0.8100000000000005
40
0.82000000000000051
40
0.83000000000000052
40
0.84000000000000052
40
0.85000000000000053
40
0.86000000000000054
40
0.87000000000000055
40
0.88000000000000056
40
0.89000000000000057
40
0.90000000000000058
40
0.91000000000000059
40
0.9200000000000006
40
0.9300000000000006
40
0.94000000000000061
40
0.95000000000000062
40
0.96000000000000063
40
0.97000000000000064
40
0.98000000000000065
40
0.99000000000000066
40
1
40
1
40
1
40
1
40
1
40
1
41
1
41
1
41
1
41
1
41
1
41
1
41
1
41
1
41
1
41
1
41
1
41
1
41
1
41
1
41
1
41
1
41
1
41
1
41
1
41
1
41
1
41
1
41
1
41
1
41
1
41
1
41
1
41
1
41
1
41
1
41
1
41
1
41
1
41
1
41
1
41
1
41
1
41
1
41
1
41
1
41
1
41
1
41
1
41
1
41
1
41
1
41
1
41
1
41
1
41
1
41
1
41
1
41
1
41
1
41
1
41
1
41
1
41
1
41
1
41
1
41
1
41
1
41
1
41
1
41
1
41
1
41
1
41
1
41
1
41
1
41
1
41
1
41
1
41
1
41
1
41
1
41
1
41
1
41
1
41
1
41
1
41
1
41
1
41
1
41
1
41
1
41
1
41
1
41
1
41
1
41
1
41
1
41
1
41
1
41
1
41
1
41
1
41
1
41
1
41
1
41
1
41
1
41
1
41
1
41
1
10
0
20
3
30
0
10
0.016121438895771868
20
2.979778323048202
30
0
10
0.04881527446929982
20
2.9401605886995448
30
0
10
0.099208875636148941
20
2.8832109535446682
30
0
10
0.169106701469635
20
2.8122319115816992
30
0
10
0.26091389808644738
20
2.731992945950803
30
0
10
0.3569286402227268
20
2.6608989436691974
30
0
10
0.4566855209384636
20
2.6002949615239821
30
0
10
0.5594211517748392
20
2.5523527143773621
30
0
10
0.66394916948588067
20
2.5204862770189602
30
0
10
0.76879860075545248
20
2.50866147925711
30
0
10
0.87252893029383971
20
2.5199794662912738
30
0
10
0.97400813668552888
20
2.5553846756644294
30
0
10
1.0726729532191308
20
2.6125167811731078
30
0
10
1.1688816436024356
20
2.6839986565343308
30
0
10
1.2637095725201268
20
2.759015875581051
30
0
10
1.3585573512323601
20
2.8259743375057012
30
0
10
1.4548040339070021
20
2.8749436039860039
30
0
10
1.5534798038044315
20
2.8998721839991823
30
0
10
1.6548355658596179
20
2.9016893433001663
30
0
10
1.7583523250467623
20
2.8877420786122192
30
0
10
1.8631122968752241
20
2.8682560751493167
30
0
10
1.9680786042879777
20
2.8535119112602758
30
0
10
2.072385800495359
20
2.8510257858227002
30
0
10
2.1756930267695327
20
2.8619745277910265
30
0
10
2.278137807060669
20
2.8821102349373415
30
0
10
2.3801158921722405
20
2.9046006754252418
30
0
10
2.4821126019544484
20
2.9223177892775496
30
0
10
2.5845238616260389
20
2.9301948043806862
30
0
10
2.6874527575146718
20
2.9279744120308049
30
0
10
2.7907709501346822
20
2.9190945007862981
30
0
10
2.8942346659595182
20
2.9087879419852096
30
0
10
2.9975819968189512
20
2.9024505934604354
30
0
10
3.1006369686852842
20
2.9039134872998424
30
0
10
3.2034136722921818
20
2.9137101910829797
30
0
10
3.3060471197613861
20
2.9298939242548574
30
0
10
3.4087184262393704
20
2.9489227091213777
30
0
10
3.5115844524823054
20
2.9665129219250046
30
0
10
3.6147002625843374
20
2.9785166616534187
30
0
10
3.7179598124238615
20
2.9817546196609976
30
0
10
3.8211817981065703
20
2.974407953417852
30
0
10
3.9241860316397554
20
2.9564993650947513
30
0
10
4.0268663713115131
20
2.930240460193327
30
0
10
4.1292817440453513
20
2.9006744175817802
30
0
10
4.2316875606018041
20
2.8754556397434925
30
0
10
4.3343948041361422
20
2.8622544727798349
30
0
10
4.4376522617106708
20
2.8664102989610014
30
0
10
4.541535113782313
20
2.8888430235603462
30
0
10
4.6457934907969447
20
2.9229942069261887
30
0
10
4.7498487436586343
20
2.9551863066956763
30
0
10
4.8530115762710899
20
2.970029074546825
30
0
10
4.9546578097964096
20
2.9549263850519769
30
0
10
5.0543987441831977
20
2.9043011306348578
30
0
10
5.1523092359108276
20
2.8255302663530424
30
0
10
5.2489008921955307
20
2.7375529556282192
30
0
10
5.3448832754432534
20
2.6634518843558812
30
0
10
5.4409771353597005
20
2.6244525167156363
30
0
10
5.5377250173394099
20
2.6340004597739206
30
0
10
5.6352577245845499
20
2.690205261715878
30
0
10
5.7332376212494829
20
2.7745578754444571
30
0
10
5.831089401008434
20
2.8607519906537027
30
0
10
5.9281678228192947
20
2.9213305887681562
30
0
10
6.0239409541972329
20
2.9347806742039246
30
0
10
6.1181901812438291
20
2.8934525444806742
30
0
10
6.2111300059010341
20
2.8079554336040911
30
0
10
6.303251725363185
20
2.6995527334379217
30
0
10
6.3952154047260921
20
2.5946791595383334
30
0
10
6.4877213568653458
20
2.5184977497988843
30
0
10
6.5813940924566561
20
2.4891640195718017
30
0
10
6.6766510855507111
20
2.510993774912516
30
0
10
6.7736926858300102
20
2.5771017542522658
30
0
10
6.8725093927488023
20
2.6732565834624973
30
0
10
6.972879680269747
20
2.781372573256216
30
0
10
7.0743789428522881
20
2.8829915319557959
30
0
10
7.1763648799885793
20
2.9631769509169241
30
0
10
7.2780869064910902
20
3.0116631026153833
30
0
10
7.3788341478084121
20
3.0229879646547761
30
0
10
7.4780774234373437
20
2.9970425267752319
30
0
10
7.5755988214348138
20
2.9392773936544989
30
0
10
7.6716654702350002
20
2.8615034893453393
30
0
10
7.7669147552951543
20
2.7793868332702072
30
0
10
7.8621626355151788
20
2.7091459253912964
30
0
10
7.9582306601804582
20
2.6643308912352399
30
0
10
8.0557818002357724
20
2.6529863654458636
30
0
10
8.1551111552088393
20
2.6736056268718045
30
0
10
8.256136697302157
20
2.7161425528920153
30
0
10
8.3585368635693271
20
2.7666293333665353
30
0
10
8.4618478197347269
20
2.8109212447415493
30
0
10
8.5655708202412946
20
2.8383905452627243
30
0
10
8.6692912153691157
20
2.8466681281654975
30
0
10
8.7727143009202511
20
2.8409680896599063
30
0
10
8.8756504862983157
20
2.8303280792658798
30
0
10
8.9780169102264935
20
2.8247070428719661
30
0
10
9.0798309131312553
20
2.8319466460991229
30
0
10
9.1812106694690705
20
2.8542280793423735
30
0
10
9.2823467341412762
20
2.8888519386947884
30
0
10
9.3834672480371069
20
2.930178954410247
30
0
10
9.484804553847944
20
2.9712044863989915
30
0
10
9.5865628653529384
20
3.0052122140903519
30
0
10
9.6888811743068324
20
3.0275862488626855
30
0
10
9.7918416328589224
20
3.0356080673376962
30
0
10
9.8747566532759876
20
3.0294480620731994
30
0
10
9.9372564222514317
20
3.0175530327587161
30
0
10
9.9790622544399668
20
3.0063898572566785
30
0
10
10
20
3
30
0
0
ENDSEC
0
SECTION
2
OBJECTS
0
DICTIONARY
5
C
100
AcDbDictionary
3
ACAD_GROUP
350
D
3
ACAD_MLINESTYLE
350
17
0
DICTIONARY
5
D
100
AcDbDictionary
0
DICTIONARY
5
1A
330
C
100
AcDbDictionary
0
DICTIONARY
5
17
100
AcDbDictionary
0
ENDSEC
0
EOF
