0
SECTION
2
HEADER
9
$INSUNITS
70
4
9
$ACADVER
1
AC1014
9
$HANDSEED
5
FFFF
0
ENDSEC
0
SECTION
2
TABLES
0
TABLE
2
VPORT
5
8
100
AcDbSymbolTable
0
ENDTAB
0
TABLE
2
LTYPE
5
5
100
AcDbSymbolTable
0
LTYPE
5
14
100
AcDbSymbolTableRecord
100
AcDbLinetypeTableRecord
2
BYBLOCK
70
0
0
LTYPE
5
15
100
AcDbSymbolTableRecord
100
AcDbLinetypeTableRecord
2
BYLAYER
70
0
0
ENDTAB
0
TABLE
2
LAYER
5
2
100
AcDbSymbolTable
70
2
0
LAYER
5
50
100
AcDbSymbolTableRecord
100
AcDbLayerTableRecord
2
0
70
0
6
CONTINUOUS
0
ENDTAB
0
TABLE
2
STYLE
5
3
100
AcDbSymbolTable
70
1
0
STYLE
5
11
100
AcDbSymbolTableRecord
100
AcDbTextStyleTableRecord
2
STANDARD
70
0
0
ENDTAB
0
TABLE
2
VIEW
5
6
100
AcDbSymbolTable
70
0
0
ENDTAB
0
TABLE
2
UCS
5
7
100
AcDbSymbolTable
70
0
0
ENDTAB
0
TABLE
2
APPID
5
9
100
AcDbSymbolTable
70
2
0
APPID
5
12
100
AcDbSymbolTableRecord
100
AcDbRegAppTableRecord
2
ACAD
70
0
0
ENDTAB
0
TABLE
2
DIMSTYLE
5
A
100
AcDbSymbolTable
70
1
0
ENDTAB
0
TABLE
2
BLOCK_RECORD
5
1
100
AcDbSymbolTable
70
1
0
BLOCK_RECORD
5
1F
100
AcDbSymbolTableRecord
100
AcDbBlockTableRecord
2
*MODEL_SPACE
0
BLOCK_RECORD
5
1B
100
AcDbSymbolTableRecord
100
AcDbBlockTableRecord
2
*PAPER_SPACE
0
ENDTAB
0
ENDSEC
0
SECTION
2
BLOCKS
0
BLOCK
5
20
100
AcDbEntity
100
AcDbBlockBegin
2
*MODEL_SPACE
0
ENDBLK
5
21
100
AcDbEntity
100
AcDbBlockEnd
0
BLOCK
5
1C
100
AcDbEntity
100
AcDbBlockBegin
2
*PAPER_SPACE
0
ENDBLK
5
1D
100
AcDbEntity
100
AcDbBlockEnd
0
ENDSEC
0
SECTION
2
ENTITIES
0
SPLINE
5
100
100
AcDbEntity
8
0
100
AcDbSpline
70
4
71
5
72
16
73
10
74
0
42
0.000000001
43
0.0000000001
44
0.0000000001
40
0
40
0
40
0
40
0
40
0
40
0
40
0.20000000000000001
40
0.40000000000000002
40
0.60000000000000009
40
0.80000000000000004
40
1
40
1
40
1
40
1
40
1
40
1
41
1
41
1
41
1
41
1
41
1
41
1
41
1
41
1
41
1
41
1
10
0
20
0
30
0
10
0
20
0.12000000000003158
30
0
10
0
20
0.36000000000007704
30
0
10
0
20
0.72000000000009301
30
0
10
0
20
1.2000000000000313
30
0
10
0
20
1.7999999999999146
30
0
10
0
20
2.2799999999998684
30
0
10
0
20
2.6399999999999042
30
0
10
0
20
2.8799999999999617
30
0
10
0
20
3
30
0
0
SPLINE
5
101
100
AcDbEntity
8
0
100
AcDbSpline
70
4
71
5
72
16
73
10
74
0
42
0.000000001
43
0.0000000001
44
0.0000000001
40
0
40
0
40
0
40
0
40
0
40
0
40
0.20000000000000001
40
0.40000000000000002
40
0.60000000000000009
40
0.80000000000000004
40
1
40
1
40
1
40
1
40
1
40
1
41
1
41
1
41
1
41
1
41
1
41
1
41
1
41
1
41
1
41
1
10
10
20
0
30
0
10
9.9999999999997495
20
0.12000000000003158
30
0
10
9.9999999999993197
20
0.36000000000007704
30
0
10
9.9999999999989129
20
0.72000000000009301
30
0
10
9.9999999999987672
20
1.2000000000000313
30
0
10
9.9999999999990248
20
1.7999999999999146
30
0
10
9.9999999999993889
20
2.2799999999998684
30
0
10
9.9999999999996998
20
2.6399999999999042
30
0
10
9.9999999999999005
20
2.8799999999999617
30
0
10
10
20
3
30
0
0
SPLINE
5
102
100
AcDbEntity
8
0
100
AcDbSpline
70
4
71
5
72
16
73
10
74
0
42
0.000000001
43
0.0000000001
44
0.0000000001
40
0
40
0
40
0
40
0
40
0
40
0
40
0.20000000000000001
40
0.40000000000000002
40
0.60000000000000009
40
0.80000000000000004
40
1
40
1
40
1
40
1
40
1
40
1
41
1
41
1
41
1
41
1
41
1
41
1
41
1
41
1
41
1
41
1
10
0
20
1.5
30
0
10
0.40000000000047375
20
1.499999999999694
30
0
10
1.2000000000012774
20
1.4999999999991638
30
0
10
2.4000000000020547
20
1.4999999999986278
30
0
10
4.0000000000023546
20
1.4999999999983737
30
0
10
6.0000000000019584
20
1.4999999999985913
30
0
10
7.6000000000012928
20
1.4999999999990359
30
0
10
8.800000000000697
20
1.4999999999994786
30
0
10
9.6000000000002395
20
1.4999999999998188
30
0
10
10
20
1.5
30
0
0
SPLINE
5
103
100
AcDbEntity
8
0
100
AcDbSpline
70
4
71
5
72
61
73
55
74
0
42
0.000000001
43
0.0000000001
44
0.0000000001
40
0
40
0
40
0
40
0
40
0
40
0
40
0.02
40
0.040000000000000001
40
0.059999999999999998
40
0.080000000000000002
40
0.10000000000000001
40
0.12000000000000001
40
0.14000000000000001
40
0.16
40
0.17999999999999999
40
0.19999999999999998
40
0.21999999999999997
40
0.23999999999999996
40
0.25999999999999995
40
0.27999999999999997
40
0.29999999999999999
40
0.32000000000000001
40
0.34000000000000002
40
0.36000000000000004
40
0.38000000000000006
40
0.40000000000000008
40
0.4200000000000001
40
0.44000000000000011
40
0.46000000000000013
40
0.48000000000000015
40
0.50000000000000011
40
0.52000000000000013
40
0.54000000000000015
40
0.56000000000000016
40
0.58000000000000018
40
0.6000000000000002
40
0.62000000000000022
40
0.64000000000000024
40
0.66000000000000025
40
0.68000000000000027
40
0.70000000000000029
40
0.72000000000000031
40
0.74000000000000032
40
0.76000000000000034
40
0.78000000000000036
40
0.80000000000000038
40
0.8200000000000004
40
0.84000000000000041
40
0.86000000000000043
40
0.88000000000000045
40
0.90000000000000047
40
0.92000000000000048
40
0.9400000000000005
40
0.96000000000000052
40
0.98000000000000054
40
1
40
1
40
1
40
1
40
1
40
1
41
1
41
1
41
1
41
1
41
1
41
1
41
1
41
1
41
1
41
1
41
1
41
1
41
1
41
1
41
1
41
1
41
1
41
1
41
1
41
1
41
1
41
1
41
1
41
1
41
1
41
1
41
1
41
1
41
1
41
1
41
1
41
1
41
1
41
1
41
1
41
1
41
1
41
1
41
1
41
1
41
1
41
1
41
1
41
1
41
1
41
1
41
1
41
1
41
1
41
1
41
1
41
1
41
1
41
1
41
1
10
0
20
0
30
0
10
0.040042023930930273
20
0.00579300810966509
30
0
10
0.12015411194274744
20
0.016427209837650229
30
0
10
0.24040636477594141
20
0.029523054111825361
30
0
10
0.40091104999891813
20
0.041269669694550093
30
0
10
0.60181208858931534
20
0.046798089121859253
30
0
10
0.80295093268368745
20
0.044320212840990685
30
0
10
1.0042620371799769
20
0.03615943870486369
30
0
10
1.2056350412570729
20
0.026227790861212113
30
0
10
1.4069040662910934
20
0.020401016105238486
30
0
10
1.6078872489170182
20
0.024887609714874991
30
0
10
1.8084255447163029
20
0.044623608549906976
30
0
10
2.0084213717388648
20
0.081679553398887175
30
0
10
2.2078785617971994
20
0.13359921128362376
30
0
10
2.4069389558377172
20
0.1919130361658859
30
0
10
2.6058275000466038
20
0.24533280178188901
30
0
10
2.8048006848078737
20
0.2827829073421787
30
0
10
3.0040940620527929
20
0.29647217160468409
30
0
10
3.2038696651470167
20
0.28499982209279323
30
0
10
3.4041646212656862
20
0.25633944858208285
30
0
10
3.6049197011058345
20
0.22353505401300738
30
0
10
3.8060061708391317
20
0.20052387301861807
30
0
10
4.0072530039427665
20
0.19795904736099995
30
0
10
4.2084739221588148
20
0.21893040203815692
30
0
10
4.4094940641672826
20
0.25497942961575881
30
0
10
4.6101628411791085
20
0.29130854821293317
30
0
10
4.8103674080582435
20
0.31172195925038965
30
0
10
5.010045772832818
20
0.30359560878706177
30
0
10
5.2092007338410813
20
0.26298919849691954
30
0
10
5.4079121472293288
20
0.19930015351888203
30
0
10
5.6063121770025983
20
0.12957229407163198
30
0
10
5.8045621961293428
20
0.073252096319331467
30
0
10
6.0028292198769364
20
0.046804753737328217
30
0
10
6.2012624672097303
20
0.058344580752570582
30
0
10
6.3999701473725761
20
0.102354182682976
30
0
10
6.5990239911824506
20
0.16472065374091419
30
0
10
6.7984633281520317
20
0.2276120512915466
30
0
10
6.9982992374740096
20
0.27440765105154952
30
0
10
7.1985185699448087
20
0.29458586814794652
30
0
10
7.3990879576270929
20
0.28869511362529254
30
0
10
7.5999552380620941
20
0.26470879624471
30
0
10
7.8010508156782112
20
0.23433022178577728
30
0
10
8.0022890008627279
20
0.20933704540121079
30
0
10
8.2035692807232632
20
0.19789416768237159
30
0
10
8.4047776402177075
20
0.20092383868094305
30
0
10
8.6057951056096798
20
0.21415391009617521
30
0
10
8.8065062365813276
20
0.23010377489726219
30
0
10
9.0068075852173042
20
0.24007272647329447
30
0
10
9.2066163413110864
20
0.23614608630711653
30
0
10
9.4058785717022761
20
0.21312720827600898
30
0
10
9.6045628575774202
20
0.16793088802598133
30
0
10
9.7630361016200933
20
0.11283072201304241
30
0
10
9.8816224370404893
20
0.060638598155351102
30
0
10
9.9605606954537844
20
0.021017294763318137
30
0
10
10
20
0
30
0
0
SPLINE
5
104
100
AcDbEntity
8
0
100
AcDbSpline
70
4
71
5
72
61
73
55
74
0
42
0.000000001
43
0.0000000001
44
0.0000000001
40
0
40
0
40
0
40
0
40
0
40
0
40
0.02
40
0.040000000000000001
40
0.059999999999999998
40
0.080000000000000002
40
0.10000000000000001
40
0.12000000000000001
40
0.14000000000000001
40
0.16
40
0.17999999999999999
40
0.19999999999999998
40
0.21999999999999997
40
0.23999999999999996
40
0.25999999999999995
40
0.27999999999999997
40
0.29999999999999999
40
0.32000000000000001
40
0.34000000000000002
40
0.36000000000000004
40
0.38000000000000006
40
0.40000000000000008
40
0.4200000000000001
40
0.44000000000000011
40
0.46000000000000013
40
0.48000000000000015
40
0.50000000000000011
40
0.52000000000000013
40
0.54000000000000015
40
0.56000000000000016
40
0.58000000000000018
40
0.6000000000000002
40
0.62000000000000022
40
0.64000000000000024
40
0.66000000000000025
40
0.68000000000000027
40
0.70000000000000029
40
0.72000000000000031
40
0.74000000000000032
40
0.76000000000000034
40
0.78000000000000036
40
0.80000000000000038
40
0.8200000000000004
40
0.84000000000000041
40
0.86000000000000043
40
0.88000000000000045
40
0.90000000000000047
40
0.92000000000000048
40
0.9400000000000005
40
0.96000000000000052
40
0.98000000000000054
40
1
40
1
40
1
40
1
40
1
40
1
41
1
41
1
41
1
41
1
41
1
41
1
41
1
41
1
41
1
41
1
41
1
41
1
41
1
41
1
41
1
41
1
41
1
41
1
41
1
41
1
41
1
41
1
41
1
41
1
41
1
41
1
41
1
41
1
41
1
41
1
41
1
41
1
41
1
41
1
41
1
41
1
41
1
41
1
41
1
41
1
41
1
41
1
41
1
41
1
41
1
41
1
41
1
41
1
41
1
41
1
41
1
41
1
41
1
41
1
41
1
10
0
20
3
30
0
10
0.039860325250250836
20
2.9711507918538356
30
0
10
0.11953284163027321
20
2.9170322041089363
30
0
10
0.23889721517068874
20
2.8465937856124879
30
0
10
0.39776071138817848
20
2.7741690087633057
30
0
10
0.59587657123558024
20
2.7190529397910406
30
0
10
0.79358511198243176
20
2.697992951070538
30
0
10
0.99100063365103974
20
2.7081560449586868
30
0
10
1.1883143537682492
20
2.7447322710245592
30
0
10
1.3858170117345738
20
2.8003667088654183
30
0
10
1.5838322631002908
20
2.8661238398816415
30
0
10
1.7826471234778554
20
2.9325113870087538
30
0
10
1.9824417326081885
20
2.9904876456046479
30
0
10
2.1832230338104104
20
3.0324583483827454
30
0
10
2.384745897960233
20
3.0533292969658667
30
0
10
2.586609343662873
20
3.0507336396862037
30
0
10
2.7883670848944737
20
3.0251829146298141
30
0
10
2.9896339548546798
20
2.9802705587092708
30
0
10
3.190191310097191
20
2.9228237947819573
30
0
10
3.3901009541975653
20
2.8631910448990978
30
0
10
3.5896151402526804
20
2.8128250876256979
30
0
10
3.7890769451458617
20
2.7817554880815387
30
0
10
3.9888235181488874
20
2.776055358121341
30
0
10
4.1890904041835206
20
2.7954014961379698
30
0
10
4.3899091744123968
20
2.8303064130782647
30
0
10
4.5911582342357251
20
2.866220790529606
30
0
10
4.7926215456487302
20
2.8879765215840019
30
0
10
4.9940443518405351
20
2.8841353829389771
30
0
10
5.1951895582444436
20
2.851305289015476
30
0
10
5.3958950642334536
20
2.7987063639059144
30
0
10
5.5960745819212132
20
2.7429781542935476
30
0
10
5.795716839694208
20
2.7027412294032556
30
0
10
5.9948857531228263
20
2.6932242357961944
30
0
10
6.193720057268739
20
2.7209369246242376
30
0
10
6.3924343502643968
20
2.7780875050757747
30
0
10
6.5912726567530129
20
2.8479851990738547
30
0
10
6.7904612390267509
20
2.9106657357243844
30
0
10
6.9901610456554861
20
2.9484795600273177
30
0
10
7.1904215927556878
20
2.9515642721950162
30
0
10
7.3911300659892518
20
2.9237466356552382
30
0
10
7.5920714035876058
20
2.878064746324958
30
0
10
7.7929931360805673
20
2.8318374280682601
30
0
10
7.9936687446461265
20
2.8018856451067125
30
0
10
8.1939607277655551
20
2.799758492893067
30
0
10
8.3938865481720377
20
2.8267657125079211
30
0
10
8.5935762473880644
20
2.8766683120526753
30
0
10
8.7932270787622819
20
2.9385832160025371
30
0
10
8.9930592256670216
20
2.9998083654003684
30
0
10
9.193271695145345
20
3.0486404507466891
30
0
10
9.3939966586896766
20
3.0772868753933187
30
0
10
9.595312039512649
20
3.0811383944286383
30
0
10
9.7568671337110686
20
3.0625699323481532
30
0
10
9.8783215867077665
20
3.0361431746846383
30
0
10
9.9594191994144889
20
3.0129730939229442
30
0
10
10
20
3
30
0
0
ENDSEC
0
SECTION
2
OBJECTS
0
DICTIONARY
5
C
100
AcDbDictionary
3
ACAD_GROUP
350
D
3
ACAD_MLINESTYLE
350
17
0
DICTIONARY
5
D
100
AcDbDictionary
0
DICTIONARY
5
1A
330
C
100
AcDbDictionary
0
DICTIONARY
5
17
100
AcDbDictionary
0
ENDSEC
0
EOF
