0
SECTION
2
HEADER
9
$INSUNITS
70
4
9
$ACADVER
1
AC1014
9
$HANDSEED
5
FFFF
0
ENDSEC
0
SECTION
2
TABLES
0
TABLE
2
VPORT
5
8
100
AcDbSymbolTable
0
ENDTAB
0
TABLE
2
LTYPE
5
5
100
AcDbSymbolTable
0
LTYPE
5
14
100
AcDbSymbolTableRecord
100
AcDbLinetypeTableRecord
2
BYBLOCK
70
0
0
LTYPE
5
15
100
AcDbSymbolTableRecord
100
AcDbLinetypeTableRecord
2
BYLAYER
70
0
0
ENDTAB
0
TABLE
2
LAYER
5
2
100
AcDbSymbolTable
70
2
0
LAYER
5
50
100
AcDbSymbolTableRecord
100
AcDbLayerTableRecord
2
0
70
0
6
CONTINUOUS
0
ENDTAB
0
TABLE
2
STYLE
5
3
100
AcDbSymbolTable
70
1
0
STYLE
5
11
100
AcDbSymbolTableRecord
100
AcDbTextStyleTableRecord
2
STANDARD
70
0
0
ENDTAB
0
TABLE
2
VIEW
5
6
100
AcDbSymbolTable
70
0
0
ENDTAB
0
TABLE
2
UCS
5
7
100
AcDbSymbolTable
70
0
0
ENDTAB
0
TABLE
2
APPID
5
9
100
AcDbSymbolTable
70
2
0
APPID
5
12
100
AcDbSymbolTableRecord
100
AcDbRegAppTableRecord
2
ACAD
70
0
0
ENDTAB
0
TABLE
2
DIMSTYLE
5
A
100
AcDbSymbolTable
70
1
0
ENDTAB
0
TABLE
2
BLOCK_RECORD
5
1
100
AcDbSymbolTable
70
1
0
BLOCK_RECORD
5
1F
100
AcDbSymbolTableRecord
100
AcDbBlockTableRecord
2
*MODEL_SPACE
0
BLOCK_RECORD
5
1B
100
AcDbSymbolTableRecord
100
AcDbBlockTableRecord
2
*PAPER_SPACE
0
ENDTAB
0
ENDSEC
0
SECTION
2
BLOCKS
0
BLOCK
5
20
100
AcDbEntity
100
AcDbBlockBegin
2
*MODEL_SPACE
0
ENDBLK
5
21
100
AcDbEntity
100
AcDbBlockEnd
0
BLOCK
5
1C
100
AcDbEntity
100
AcDbBlockBegin
2
*PAPER_SPACE
0
ENDBLK
5
1D
100
AcDbEntity
100
AcDbBlockEnd
0
ENDSEC
0
SECTION
2
ENTITIES
0
SPLINE
5
100
100
AcDbEntity
8
0
100
AcDbSpline
70
4
71
5
72
16
73
10
74
0
42
0.000000001
43
0.0000000001
44
0.0000000001
40
0
40
0
40
0
40
0
40
0
40
0
40
0.20000000000000001
40
0.40000000000000002
40
0.60000000000000009
40
0.80000000000000004
40
1
40
1
40
1
40
1
40
1
40
1
41
1
41
1
41
1
41
1
41
1
41
1
41
1
41
1
41
1
41
1
10
0
20
0
30
0
10
0
20
0.12000000000003158
30
0
10
0
20
0.36000000000007704
30
0
10
0
20
0.72000000000009301
30
0
10
0
20
1.2000000000000313
30
0
10
0
20
1.7999999999999146
30
0
10
0
20
2.2799999999998684
30
0
10
0
20
2.6399999999999042
30
0
10
0
20
2.8799999999999617
30
0
10
0
20
3
30
0
0
SPLINE
5
101
100
AcDbEntity
8
0
100
AcDbSpline
70
4
71
5
72
16
73
10
74
0
42
0.000000001
43
0.0000000001
44
0.0000000001
40
0
40
0
40
0
40
0
40
0
40
0
40
0.20000000000000001
40
0.40000000000000002
40
0.60000000000000009
40
0.80000000000000004
40
1
40
1
40
1
40
1
40
1
40
1
41
1
41
1
41
1
41
1
41
1
41
1
41
1
41
1
41
1
41
1
10
10
20
0
30
0
10
9.9999999999997495
20
0.12000000000003158
30
0
10
9.9999999999993197
20
0.36000000000007704
30
0
10
9.9999999999989129
20
0.72000000000009301
30
0
10
9.9999999999987672
20
1.2000000000000313
30
0
10
9.9999999999990248
20
1.7999999999999146
30
0
10
9.9999999999993889
20
2.2799999999998684
30
0
10
9.9999999999996998
20
2.6399999999999042
30
0
10
9.9999999999999005
20
2.8799999999999617
30
0
10
10
20
3
30
0
0
SPLINE
5
102
100
AcDbEntity
8
0
100
AcDbSpline
70
4
71
5
72
16
73
10
74
0
42
0.000000001
43
0.0000000001
44
0.0000000001
40
0
40
0
40
0
40
0
40
0
40
0
40
0.20000000000000001
40
0.40000000000000002
40
0.60000000000000009
40
0.80000000000000004
40
1
40
1
40
1
40
1
40
1
40
1
41
1
41
1
41
1
41
1
41
1
41
1
41
1
41
1
41
1
41
1
10
0
20
1.5
30
0
10
0.40000000000047375
20
1.499999999999694
30
0
10
1.2000000000012774
20
1.4999999999991638
30
0
10
2.4000000000020547
20
1.4999999999986278
30
0
10
4.0000000000023546
20
1.4999999999983737
30
0
10
6.0000000000019584
20
1.4999999999985913
30
0
10
7.6000000000012928
20
1.4999999999990359
30
0
10
8.800000000000697
20
1.4999999999994786
30
0
10
9.6000000000002395
20
1.4999999999998188
30
0
10
10
20
1.5
30
0
0
SPLINE
5
103
100
AcDbEntity
8
0
100
AcDbSpline
70
4
71
5
72
61
73
55
74
0
42
0.000000001
43
0.0000000001
44
0.0000000001
40
0
40
0
40
0
40
0
40
0
40
0
40
0.02
40
0.040000000000000001
40
0.059999999999999998
40
0.080000000000000002
40
0.10000000000000001
40
0.12000000000000001
40
0.14000000000000001
40
0.16
40
0.17999999999999999
40
0.19999999999999998
40
0.21999999999999997
40
0.23999999999999996
40
0.25999999999999995
40
0.27999999999999997
40
0.29999999999999999
40
0.32000000000000001
40
0.34000000000000002
40
0.36000000000000004
40
0.38000000000000006
40
0.40000000000000008
40
0.4200000000000001
40
0.44000000000000011
40
0.46000000000000013
40
0.48000000000000015
40
0.50000000000000011
40
0.52000000000000013
40
0.54000000000000015
40
0.56000000000000016
40
0.58000000000000018
40
0.6000000000000002
40
0.62000000000000022
40
0.64000000000000024
40
0.66000000000000025
40
0.68000000000000027
40
0.70000000000000029
40
0.72000000000000031
40
0.74000000000000032
40
0.76000000000000034
40
0.78000000000000036
40
0.80000000000000038
40
0.8200000000000004
40
0.84000000000000041
40
0.86000000000000043
40
0.88000000000000045
40
0.90000000000000047
40
0.92000000000000048
40
0.9400000000000005
40
0.96000000000000052
40
0.98000000000000054
40
1
40
1
40
1
40
1
40
1
40
1
41
1
41
1
41
1
41
1
41
1
41
1
41
1
41
1
41
1
41
1
41
1
41
1
41
1
41
1
41
1
41
1
41
1
41
1
41
1
41
1
41
1
41
1
41
1
41
1
41
1
41
1
41
1
41
1
41
1
41
1
41
1
41
1
41
1
41
1
41
1
41
1
41
1
41
1
41
1
41
1
41
1
41
1
41
1
41
1
41
1
41
1
41
1
41
1
41
1
41
1
41
1
41
1
41
1
41
1
41
1
10
0
20
0
30
0
10
0.040502068959315088
20
-0.016058121064616553
30
0
10
0.12146944009186368
20
-0.043353976619554806
30
0
10
0.2428101981379745
20
-0.069836527570151713
30
0
10
0.40437711992849895
20
-0.076205913402547495
30
0
10
0.6059404377978681
20
-0.037281833204458173
30
0
10
0.80702731341232226
20
0.044278126558750276
30
0
10
1.0074769492406217
20
0.15984331440873331
30
0
10
1.2070209332464268
20
0.29483635587413437
30
0
10
1.4052599990971217
20
0.42736506228161825
30
0
10
1.6017910710013659
20
0.53324388245566989
30
0
10
1.7963283295481198
20
0.59076791910817261
30
0
10
1.9888293403179826
20
0.58566791731175893
30
0
10
2.1796137902464658
20
0.51581176361228653
30
0
10
2.3695021281722086
20
0.39656921938543538
30
0
10
2.5596013434561686
20
0.25438804297012474
30
0
10
2.7510761911616557
20
0.11985851212841207
30
0
10
2.94491531764643
20
0.02067880678743881
30
0
10
3.1417235632413205
20
-0.024653749856538322
30
0
10
3.3414398445866826
20
-0.01523806737230725
30
0
10
3.5434572675294929
20
0.035178938332441928
30
0
10
3.7468862741874482
20
0.10520226406990515
30
0
10
3.9507779043395317
20
0.17163462788299597
30
0
10
4.1543455600337644
20
0.21534905866540249
30
0
10
4.357233265057654
20
0.22829849389890247
30
0
10
4.5594603056954934
20
0.21242296590770304
30
0
10
4.7612672783705365
20
0.17606271651709787
30
0
10
4.9629928802450607
20
0.13118419530489697
30
0
10
5.1649451091765588
20
0.090379819219956914
30
0
10
5.3672569117334001
20
0.063705266363997093
30
0
10
5.5698999803842861
20
0.057834541283761698
30
0
10
5.7727331783358835
20
0.075763018440344831
30
0
10
5.975538599610509
20
0.11626383134391537
30
0
10
6.1780625557438098
20
0.17353879159927915
30
0
10
6.3800543856004079
20
0.23650085112403293
30
0
10
6.5813042530698764
20
0.29144221244858526
30
0
10
6.7816796452737682
20
0.32508446620654996
30
0
10
6.9811639286017027
20
0.32756242005012903
30
0
10
7.1798912312276144
20
0.29528482809763212
30
0
10
7.3781916357518282
20
0.23428706155177423
30
0
10
7.5765096535397261
20
0.15711429948049888
30
0
10
7.7753117455858733
20
0.079122146740418078
30
0
10
7.9749957211074909
20
0.014920283808537618
30
0
10
8.1758041730680517
20
-0.025068383526685393
30
0
10
8.3777226527488153
20
-0.038571169595307021
30
0
10
8.5805398326256306
20
-0.029712600375175729
30
0
10
8.7839282557006708
20
-0.0065286054149999943
30
0
10
8.9875180792192051
20
0.021266761781549855
30
0
10
9.1909720039169596
20
0.044567582735883696
30
0
10
9.3940639566199415
20
0.057264817487786876
30
0
10
9.5966602030323163
20
0.05574825149074765
30
0
10
9.7582876409913499
20
0.041733631478322
30
0
10
9.8792458081328771
20
0.023765207121452456
30
0
10
9.9597680287228538
20
0.0084738041328664207
30
0
10
10
20
0
30
0
0
SPLINE
5
104
100
AcDbEntity
8
0
100
AcDbSpline
70
4
71
5
72
61
73
55
74
0
42
0.000000001
43
0.0000000001
44
0.0000000001
40
0
40
0
40
0
40
0
40
0
40
0
40
0.02
40
0.040000000000000001
40
0.059999999999999998
40
0.080000000000000002
40
0.10000000000000001
40
0.12000000000000001
40
0.14000000000000001
40
0.16
40
0.17999999999999999
40
0.19999999999999998
40
0.21999999999999997
40
0.23999999999999996
40
0.25999999999999995
40
0.27999999999999997
40
0.29999999999999999
40
0.32000000000000001
40
0.34000000000000002
40
0.36000000000000004
40
0.38000000000000006
40
0.40000000000000008
40
0.4200000000000001
40
0.44000000000000011
40
0.46000000000000013
40
0.48000000000000015
40
0.50000000000000011
40
0.52000000000000013
40
0.54000000000000015
40
0.56000000000000016
40
0.58000000000000018
40
0.6000000000000002
40
0.62000000000000022
40
0.64000000000000024
40
0.66000000000000025
40
0.68000000000000027
40
0.70000000000000029
40
0.72000000000000031
40
0.74000000000000032
40
0.76000000000000034
40
0.78000000000000036
40
0.80000000000000038
40
0.8200000000000004
40
0.84000000000000041
40
0.86000000000000043
40
0.88000000000000045
40
0.90000000000000047
40
0.92000000000000048
40
0.9400000000000005
40
0.96000000000000052
40
0.98000000000000054
40
1
40
1
40
1
40
1
40
1
40
1
41
1
41
1
41
1
41
1
41
1
41
1
41
1
41
1
41
1
41
1
41
1
41
1
41
1
41
1
41
1
41
1
41
1
41
1
41
1
41
1
41
1
41
1
41
1
41
1
41
1
41
1
41
1
41
1
41
1
41
1
41
1
41
1
41
1
41
1
41
1
41
1
41
1
41
1
41
1
41
1
41
1
41
1
41
1
41
1
41
1
41
1
41
1
41
1
41
1
41
1
41
1
41
1
41
1
41
1
41
1
10
0
20
3
30
0
10
0.042587722303858648
20
3.0246062567641947
30
0
10
0.12730687663502208
20
3.0686164003699434
30
0
10
0.25301673225686649
20
3.1190244395966111
30
0
10
0.41789038136490214
20
3.1550010441240213
30
0
10
0.61949129596054631
20
3.148916874368183
30
0
10
0.81684398930231428
20
3.0950008753119485
30
0
10
1.0104469018536653
20
2.9998411342693974
30
0
10
1.201147219628075
20
2.8746128317349795
30
0
10
1.3902200507932159
20
2.7361156896713461
30
0
10
1.5791225464206293
20
2.6035625126487676
30
0
10
1.7692672249898467
20
2.4956145932455955
30
0
10
1.9617785273444368
20
2.4272073928426217
30
0
10
2.1572778991646615
20
2.4067265084861531
30
0
10
2.3555979238870255
20
2.4323136329740427
30
0
10
2.5559846529159946
20
2.4941566138537681
30
0
10
2.7574031420827105
20
2.5780564344767014
30
0
10
2.9588160779645718
20
2.6686332321262656
30
0
10
3.1594519796414162
20
2.7524694419312428
30
0
10
3.3591339849357666
20
2.8218212377258647
30
0
10
3.5581612912422393
20
2.8739919006569044
30
0
10
3.7570836915000791
20
2.909650036704102
30
0
10
3.9565069640053316
20
2.9314817970882183
30
0
10
4.1569003626013403
20
2.9427945199426486
30
0
10
4.3583648889134361
20
2.9459262632553891
30
0
10
4.5606962616221942
20
2.9423335898231757
30
0
10
4.7635245462887257
20
2.9331233640832588
30
0
10
4.9664301218536009
20
2.9194526719764937
30
0
10
5.1690625633129317
20
2.902936943293005
30
0
10
5.3712760597062568
20
2.8861787387418723
30
0
10
5.5730960077940033
20
2.8721330770281872
30
0
10
5.7746536491471652
20
2.8632670654472756
30
0
10
5.9761314700473278
20
2.8607586580518425
30
0
10
6.177705981934154
20
2.8637486635341221
30
0
10
6.3794871072538593
20
2.8683717520735912
30
0
10
6.5815155023160692
20
2.8692368832916011
30
0
10
6.78376760927706
20
2.8611953479316949
30
0
10
6.9861574284617314
20
2.8410381304995158
30
0
10
7.1885402387645314
20
2.8091538791493993
30
0
10
7.3907133030117702
20
2.7714105113511223
30
0
10
7.59245832567201
20
2.7369242165144874
30
0
10
7.7935863975231108
20
2.7155623976531156
30
0
10
7.9939824636470664
20
2.7155307876027637
30
0
10
8.193649349101884
20
2.7409591079490387
30
0
10
8.3927545416066671
20
2.7893765163509752
30
0
10
8.5915788909660122
20
2.8535879640897424
30
0
10
8.7904628757160079
20
2.9236646287767787
30
0
10
8.9897535442165442
20
2.9888981572654871
30
0
10
9.1897522147011266
20
3.0397315800937004
30
0
10
9.3906590921291606
20
3.0697959199127673
30
0
10
9.5925919086916362
20
3.0753346073924499
30
0
10
9.7550047974646468
20
3.0586707502971051
30
0
10
9.8773098651228182
20
3.0340477381506696
30
0
10
9.959066615425531
20
3.0122468347464926
30
0
10
10
20
3
30
0
0
ENDSEC
0
SECTION
2
OBJECTS
0
DICTIONARY
5
C
100
AcDbDictionary
3
ACAD_GROUP
350
D
3
ACAD_MLINESTYLE
350
17
0
DICTIONARY
5
D
100
AcDbDictionary
0
DICTIONARY
5
1A
330
C
100
AcDbDictionary
0
DICTIONARY
5
17
100
AcDbDictionary
0
ENDSEC
0
EOF
