0
SECTION
2
HEADER
9
$INSUNITS
70
4
9
$ACADVER
1
AC1014
9
$HANDSEED
5
FFFF
0
ENDSEC
0
SECTION
2
TABLES
0
TABLE
2
VPORT
5
8
100
AcDbSymbolTable
0
ENDTAB
0
TABLE
2
LTYPE
5
5
100
AcDbSymbolTable
0
LTYPE
5
14
100
AcDbSymbolTableRecord
100
AcDbLinetypeTableRecord
2
BYBLOCK
70
0
0
LTYPE
5
15
100
AcDbSymbolTableRecord
100
AcDbLinetypeTableRecord
2
BYLAYER
70
0
0
ENDTAB
0
TABLE
2
LAYER
5
2
100
AcDbSymbolTable
70
2
0
LAYER
5
50
100
AcDbSymbolTableRecord
100
AcDbLayerTableRecord
2
0
70
0
6
CONTINUOUS
0
ENDTAB
0
TABLE
2
STYLE
5
3
100
AcDbSymbolTable
70
1
0
STYLE
5
11
100
AcDbSymbolTableRecord
100
AcDbTextStyleTableRecord
2
STANDARD
70
0
0
ENDTAB
0
TABLE
2
VIEW
5
6
100
AcDbSymbolTable
70
0
0
ENDTAB
0
TABLE
2
UCS
5
7
100
AcDbSymbolTable
70
0
0
ENDTAB
0
TABLE
2
APPID
5
9
100
AcDbSymbolTable
70
2
0
APPID
5
12
100
AcDbSymbolTableRecord
100
AcDbRegAppTableRecord
2
ACAD
70
0
0
ENDTAB
0
TABLE
2
DIMSTYLE
5
A
100
AcDbSymbolTable
70
1
0
ENDTAB
0
TABLE
2
BLOCK_RECORD
5
1
100
AcDbSymbolTable
70
1
0
BLOCK_RECORD
5
1F
100
AcDbSymbolTableRecord
100
AcDbBlockTableRecord
2
*MODEL_SPACE
0
BLOCK_RECORD
5
1B
100
AcDbSymbolTableRecord
100
AcDbBlockTableRecord
2
*PAPER_SPACE
0
ENDTAB
0
ENDSEC
0
SECTION
2
BLOCKS
0
BLOCK
5
20
100
AcDbEntity
100
AcDbBlockBegin
2
*MODEL_SPACE
0
ENDBLK
5
21
100
AcDbEntity
100
AcDbBlockEnd
0
BLOCK
5
1C
100
AcDbEntity
100
AcDbBlockBegin
2
*PAPER_SPACE
0
ENDBLK
5
1D
100
AcDbEntity
100
AcDbBlockEnd
0
ENDSEC
0
SECTION
2
ENTITIES
0
SPLINE
5
100
100
AcDbEntity
8
0
100
AcDbSpline
70
4
71
5
72
16
73
10
74
0
42
0.000000001
43
0.0000000001
44
0.0000000001
40
0
40
0
40
0
40
0
40
0
40
0
40
0.20000000000000001
40
0.40000000000000002
40
0.60000000000000009
40
0.80000000000000004
40
1
40
1
40
1
40
1
40
1
40
1
41
1
41
1
41
1
41
1
41
1
41
1
41
1
41
1
41
1
41
1
10
0
20
0
30
0
10
0
20
0.12000000000003158
30
0
10
0
20
0.36000000000007704
30
0
10
0
20
0.72000000000009301
30
0
10
0
20
1.2000000000000313
30
0
10
0
20
1.7999999999999146
30
0
10
0
20
2.2799999999998684
30
0
10
0
20
2.6399999999999042
30
0
10
0
20
2.8799999999999617
30
0
10
0
20
3
30
0
0
SPLINE
5
101
100
AcDbEntity
8
0
100
AcDbSpline
70
4
71
5
72
16
73
10
74
0
42
0.000000001
43
0.0000000001
44
0.0000000001
40
0
40
0
40
0
40
0
40
0
40
0
40
0.20000000000000001
40
0.40000000000000002
40
0.60000000000000009
40
0.80000000000000004
40
1
40
1
40
1
40
1
40
1
40
1
41
1
41
1
41
1
41
1
41
1
41
1
41
1
41
1
41
1
41
1
10
10
20
0
30
0
10
9.9999999999997495
20
0.12000000000003158
30
0
10
9.9999999999993197
20
0.36000000000007704
30
0
10
9.9999999999989129
20
0.72000000000009301
30
0
10
9.9999999999987672
20
1.2000000000000313
30
0
10
9.9999999999990248
20
1.7999999999999146
30
0
10
9.9999999999993889
20
2.2799999999998684
30
0
10
9.9999999999996998
20
2.6399999999999042
30
0
10
9.9999999999999005
20
2.8799999999999617
30
0
10
10
20
3
30
0
0
SPLINE
5
102
100
AcDbEntity
8
0
100
AcDbSpline
70
4
71
5
72
16
73
10
74
0
42
0.000000001
43
0.0000000001
44
0.0000000001
40
0
40
0
40
0
40
0
40
0
40
0
40
0.20000000000000001
40
0.40000000000000002
40
0.60000000000000009
40
0.80000000000000004
40
1
40
1
40
1
40
1
40
1
40
1
41
1
41
1
41
1
41
1
41
1
41
1
41
1
41
1
41
1
41
1
10
0
20
1.5
30
0
10
0.40000000000047375
20
1.499999999999694
30
0
10
1.2000000000012774
20
1.4999999999991638
30
0
10
2.4000000000020547
20
1.4999999999986278
30
0
10
4.0000000000023546
20
1.4999999999983737
30
0
10
6.0000000000019584
20
1.4999999999985913
30
0
10
7.6000000000012928
20
1.4999999999990359
30
0
10
8.800000000000697
20
1.4999999999994786
30
0
10
9.6000000000002395
20
1.4999999999998188
30
0
10
10
20
1.5
30
0
0
SPLINE
5
103
100
AcDbEntity
8
0
100
AcDbSpline
70
4
71
5
72
61
73
55
74
0
42
0.000000001
43
0.0000000001
44
0.0000000001
40
0
40
0
40
0
40
0
40
0
40
0
40
0.02
40
0.040000000000000001
40
0.059999999999999998
40
0.080000000000000002
40
0.10000000000000001
40
0.12000000000000001
40
0.14000000000000001
40
0.16
40
0.17999999999999999
40
0.19999999999999998
40
0.21999999999999997
40
0.23999999999999996
40
0.25999999999999995
40
0.27999999999999997
40
0.29999999999999999
40
0.32000000000000001
40
0.34000000000000002
40
0.36000000000000004
40
0.38000000000000006
40
0.40000000000000008
40
0.4200000000000001
40
0.44000000000000011
40
0.46000000000000013
40
0.48000000000000015
40
0.50000000000000011
40
0.52000000000000013
40
0.54000000000000015
40
0.56000000000000016
40
0.58000000000000018
40
0.6000000000000002
40
0.62000000000000022
40
0.64000000000000024
40
0.66000000000000025
40
0.68000000000000027
40
0.70000000000000029
40
0.72000000000000031
40
0.74000000000000032
40
0.76000000000000034
40
0.78000000000000036
40
0.80000000000000038
40
0.8200000000000004
40
0.84000000000000041
40
0.86000000000000043
40
0.88000000000000045
40
0.90000000000000047
40
0.92000000000000048
40
0.9400000000000005
40
0.96000000000000052
40
0.98000000000000054
40
1
40
1
40
1
40
1
40
1
40
1
41
1
41
1
41
1
41
1
41
1
41
1
41
1
41
1
41
1
41
1
41
1
41
1
41
1
41
1
41
1
41
1
41
1
41
1
41
1
41
1
41
1
41
1
41
1
41
1
41
1
41
1
41
1
41
1
41
1
41
1
41
1
41
1
41
1
41
1
41
1
41
1
41
1
41
1
41
1
41
1
41
1
41
1
41
1
41
1
41
1
41
1
41
1
41
1
41
1
41
1
41
1
41
1
41
1
41
1
41
1
10
0
20
0
30
0
10
0.040798879118876766
20
-0.0025557873570497235
30
0
10
0.12236750497797523
20
-0.0066086675493182007
30
0
10
0.24463304724636745
20
-0.0095118958976603777
30
0
10
0.40747885804287221
20
-0.0070266171933515897
30
0
10
0.61074410684019598
20
0.0065077743061517108
30
0
10
0.813716903385163
20
0.02992877239623986
30
0
10
1.0163974117763905
20
0.062123891475348504
30
0
10
1.2187863069936422
20
0.10120295886871419
30
0
10
1.4208864176620097
20
0.14431530368179984
30
0
10
1.6227228096091966
20
0.18781721191550421
30
0
10
1.8243627757107066
20
0.22740093425993346
30
0
10
2.0259338154585893
20
0.25826356236005649
30
0
10
2.2276476315931211
20
0.27519433880489319
30
0
10
2.4298073025746554
20
0.27287695462724693
30
0
10
2.6326974074086413
20
0.24758724580571004
30
0
10
2.8364817865434273
20
0.19884488428596941
30
0
10
3.0411063209691527
20
0.13090858151077675
30
0
10
3.2461797659661351
20
0.054777477243600714
30
0
10
3.450921393481226
20
-0.011294938332025268
30
0
10
3.6543886943986417
20
-0.04738742243587072
30
0
10
3.8556700549644058
20
-0.036813392001547311
30
0
10
4.054078729333142
20
0.029125268061238635
30
0
10
4.2493759633223629
20
0.1453052592648866
30
0
10
4.4418900201757436
20
0.29054076400745238
30
0
10
4.6323299593601472
20
0.43571922604534086
30
0
10
4.8216556011665128
20
0.55007331213139099
30
0
10
5.0109268401502041
20
0.60809285582902062
30
0
10
5.2011605059076924
20
0.59637799277126324
30
0
10
5.3931887958867346
20
0.51996592467697622
30
0
10
5.5876152093076668
20
0.39645722816610057
30
0
10
5.784765553189767
20
0.25082128474771326
30
0
10
5.9846379734267128
20
0.10991753821311061
30
0
10
6.18685729757558
20
-0.0027327663084925477
30
0
10
6.3906133789421213
20
-0.072608778168481214
30
0
10
6.5948554874674139
20
-0.093526159839685874
30
0
10
6.798504939439912
20
-0.066539048224875441
30
0
10
7.0006608742574938
20
0.00097993035914474124
30
0
10
7.2008092838732285
20
0.096316088336695097
30
0
10
7.3990314834892166
20
0.20234595670801545
30
0
10
7.595822730516276
20
0.30039993682169347
30
0
10
7.7919126425704279
20
0.3730942950879354
30
0
10
7.9880840335151486
20
0.40721640898725125
30
0
10
8.1849967135411035
20
0.39650508650724925
30
0
10
8.3829982209590863
20
0.34474303649316035
30
0
10
8.5821887306821534
20
0.26299270560907267
30
0
10
8.7824998095594502
20
0.16652551455451314
30
0
10
8.9837683680142746
20
0.071841358350279869
30
0
10
9.185810540921354
20
-0.006262652010384351
30
0
10
9.3885001438301749
20
-0.057864632076399025
30
0
10
9.5917616354157929
20
-0.077118321682718483
30
0
10
9.7547972594506813
20
-0.064336717610319727
30
0
10
9.8773077739806183
20
-0.038488591784165263
30
0
10
9.9590852852384852
20
-0.014033373969866514
30
0
10
10
20
0
30
0
0
SPLINE
5
104
100
AcDbEntity
8
0
100
AcDbSpline
70
4
71
5
72
61
73
55
74
0
42
0.000000001
43
0.0000000001
44
0.0000000001
40
0
40
0
40
0
40
0
40
0
40
0
40
0.02
40
0.040000000000000001
40
0.059999999999999998
40
0.080000000000000002
40
0.10000000000000001
40
0.12000000000000001
40
0.14000000000000001
40
0.16
40
0.17999999999999999
40
0.19999999999999998
40
0.21999999999999997
40
0.23999999999999996
40
0.25999999999999995
40
0.27999999999999997
40
0.29999999999999999
40
0.32000000000000001
40
0.34000000000000002
40
0.36000000000000004
40
0.38000000000000006
40
0.40000000000000008
40
0.4200000000000001
40
0.44000000000000011
40
0.46000000000000013
40
0.48000000000000015
40
0.50000000000000011
40
0.52000000000000013
40
0.54000000000000015
40
0.56000000000000016
40
0.58000000000000018
40
0.6000000000000002
40
0.62000000000000022
40
0.64000000000000024
40
0.66000000000000025
40
0.68000000000000027
40
0.70000000000000029
40
0.72000000000000031
40
0.74000000000000032
40
0.76000000000000034
40
0.78000000000000036
40
0.80000000000000038
40
0.8200000000000004
40
0.84000000000000041
40
0.86000000000000043
40
0.88000000000000045
40
0.90000000000000047
40
0.92000000000000048
40
0.9400000000000005
40
0.96000000000000052
40
0.98000000000000054
40
1
40
1
40
1
40
1
40
1
40
1
41
1
41
1
41
1
41
1
41
1
41
1
41
1
41
1
41
1
41
1
41
1
41
1
41
1
41
1
41
1
41
1
41
1
41
1
41
1
41
1
41
1
41
1
41
1
41
1
41
1
41
1
41
1
41
1
41
1
41
1
41
1
41
1
41
1
41
1
41
1
41
1
41
1
41
1
41
1
41
1
41
1
41
1
41
1
41
1
41
1
41
1
41
1
41
1
41
1
41
1
41
1
41
1
41
1
41
1
41
1
10
0
20
3
30
0
10
0.039954102617407547
20
2.9856283082654271
30
0
10
0.11991430391660474
20
2.958603847550811
30
0
10
0.24001059468129884
20
2.9232239447485489
30
0
10
0.40045115788132579
20
2.8863708643051749
30
0
10
0.60151050945347606
20
2.8571217663136297
30
0
10
0.80304140535960788
20
2.8434694758609824
30
0
10
1.0049681995798612
20
2.8429253603935303
30
0
10
1.2071628736080064
20
2.8512778865147319
30
0
10
1.4094328468407911
20
2.8621906076155055
30
0
10
1.6115761514633797
20
2.8689873151596936
30
0
10
1.8134360646900145
20
2.8664169620516549
30
0
10
2.0149541574795076
20
2.852373038595962
30
0
10
2.2162285744890786
20
2.8297686180867703
30
0
10
2.4175582580568551
20
2.8079934753743006
30
0
10
2.6192986898573141
20
2.7987424284413995
30
0
10
2.8217262730450337
20
2.8121072650321759
30
0
10
3.0249053508478201
20
2.8527387705692502
30
0
10
3.2285395817078104
20
2.915567291255722
30
0
10
3.4318698229773958
20
2.9828460535328007
30
0
10
3.6339329367516178
20
3.0314333542249718
30
0
10
3.8337897997613517
20
3.0392168176900269
30
0
10
4.030755982807416
20
2.9915768451521396
30
0
10
4.2246530580770152
20
2.8885236410418584
30
0
10
4.4159895470596835
20
2.7495841129532037
30
0
10
4.6057018896802715
20
2.6046527144633824
30
0
10
4.7949490610037309
20
2.4865684518730631
30
0
10
4.9848845705979699
20
2.4229042306275659
30
0
10
5.1764445082128514
20
2.4283941139388694
30
0
10
5.3701114949642577
20
2.4962201490465867
30
0
10
5.5659934469770249
20
2.6047638223026581
30
0
10
5.7639242394448198
20
2.72536696762347
30
0
10
5.9635569480255946
20
2.829934886718664
30
0
10
6.1644566372475786
20
2.8980754307658567
30
0
10
6.3662006838903507
20
2.9258257041887892
30
0
10
6.5684093791608404
20
2.9220527347569187
30
0
10
6.7707613627533938
20
2.9023805311901296
30
0
10
6.9730152725631767
20
2.8838724490987406
30
0
10
7.1750271047119814
20
2.8796832826271372
30
0
10
7.3767746250733781
20
2.8929832202674852
30
0
10
7.5783245751030766
20
2.9192849536228342
30
0
10
7.7797923710328645
20
2.9499749642066209
30
0
10
7.9813040167433345
20
2.9754531341375601
30
0
10
8.1829584762347292
20
2.9883201223670026
30
0
10
8.3847862529268564
20
2.98684688556683
30
0
10
8.5867642603298862
20
2.9737190783995366
30
0
10
8.7888359239065821
20
2.9543338790809726
30
0
10
8.9909294133025792
20
2.9352567842589039
30
0
10
9.1929763264520261
20
2.922639353982226
30
0
10
9.3949309252303763
20
2.9205893130620115
30
0
10
9.5967661618942532
20
2.9315327409315284
30
0
10
9.7581281726108475
20
2.9516381409295613
30
0
10
9.879088042144982
20
2.9732716824430798
30
0
10
9.9597005770294782
20
2.9906053471267096
30
0
10
10
20
3
30
0
0
ENDSEC
0
SECTION
2
OBJECTS
0
DICTIONARY
5
C
100
AcDbDictionary
3
ACAD_GROUP
350
D
3
ACAD_MLINESTYLE
350
17
0
DICTIONARY
5
D
100
AcDbDictionary
0
DICTIONARY
5
1A
330
C
100
AcDbDictionary
0
DICTIONARY
5
17
100
AcDbDictionary
0
ENDSEC
0
EOF
