0
SECTION
2
HEADER
9
$INSUNITS
70
4
9
$ACADVER
1
AC1014
9
$HANDSEED
5
FFFF
0
ENDSEC
0
SECTION
2
TABLES
0
TABLE
2
VPORT
5
8
100
AcDbSymbolTable
0
ENDTAB
0
TABLE
2
LTYPE
5
5
100
AcDbSymbolTable
0
LTYPE
5
14
100
AcDbSymbolTableRecord
100
AcDbLinetypeTableRecord
2
BYBLOCK
70
0
0
LTYPE
5
15
100
AcDbSymbolTableRecord
100
AcDbLinetypeTableRecord
2
BYLAYER
70
0
0
ENDTAB
0
TABLE
2
LAYER
5
2
100
AcDbSymbolTable
70
2
0
LAYER
5
50
100
AcDbSymbolTableRecord
100
AcDbLayerTableRecord
2
0
70
0
6
CONTINUOUS
0
ENDTAB
0
TABLE
2
STYLE
5
3
100
AcDbSymbolTable
70
1
0
STYLE
5
11
100
AcDbSymbolTableRecord
100
AcDbTextStyleTableRecord
2
STANDARD
70
0
0
ENDTAB
0
TABLE
2
VIEW
5
6
100
AcDbSymbolTable
70
0
0
ENDTAB
0
TABLE
2
UCS
5
7
100
AcDbSymbolTable
70
0
0
ENDTAB
0
TABLE
2
APPID
5
9
100
AcDbSymbolTable
70
2
0
APPID
5
12
100
AcDbSymbolTableRecord
100
AcDbRegAppTableRecord
2
ACAD
70
0
0
ENDTAB
0
TABLE
2
DIMSTYLE
5
A
100
AcDbSymbolTable
70
1
0
ENDTAB
0
TABLE
2
BLOCK_RECORD
5
1
100
AcDbSymbolTable
70
1
0
BLOCK_RECORD
5
1F
100
AcDbSymbolTableRecord
100
AcDbBlockTableRecord
2
*MODEL_SPACE
0
BLOCK_RECORD
5
1B
100
AcDbSymbolTableRecord
100
AcDbBlockTableRecord
2
*PAPER_SPACE
0
ENDTAB
0
ENDSEC
0
SECTION
2
BLOCKS
0
BLOCK
5
20
100
AcDbEntity
100
AcDbBlockBegin
2
*MODEL_SPACE
0
ENDBLK
5
21
100
AcDbEntity
100
AcDbBlockEnd
0
BLOCK
5
1C
100
AcDbEntity
100
AcDbBlockBegin
2
*PAPER_SPACE
0
ENDBLK
5
1D
100
AcDbEntity
100
AcDbBlockEnd
0
ENDSEC
0
SECTION
2
ENTITIES
0
SPLINE
5
100
100
AcDbEntity
8
0
100
AcDbSpline
70
4
71
5
72
16
73
10
74
0
42
0.000000001
43
0.0000000001
44
0.0000000001
40
0
40
0
40
0
40
0
40
0
40
0
40
0.20000000000000001
40
0.40000000000000002
40
0.60000000000000009
40
0.80000000000000004
40
1
40
1
40
1
40
1
40
1
40
1
41
1
41
1
41
1
41
1
41
1
41
1
41
1
41
1
41
1
41
1
10
0
20
0
30
0
10
0
20
0.12000000000003158
30
0
10
0
20
0.36000000000007704
30
0
10
0
20
0.72000000000009301
30
0
10
0
20
1.2000000000000313
30
0
10
0
20
1.7999999999999146
30
0
10
0
20
2.2799999999998684
30
0
10
0
20
2.6399999999999042
30
0
10
0
20
2.8799999999999617
30
0
10
0
20
3
30
0
0
SPLINE
5
101
100
AcDbEntity
8
0
100
AcDbSpline
70
4
71
5
72
16
73
10
74
0
42
0.000000001
43
0.0000000001
44
0.0000000001
40
0
40
0
40
0
40
0
40
0
40
0
40
0.20000000000000001
40
0.40000000000000002
40
0.60000000000000009
40
0.80000000000000004
40
1
40
1
40
1
40
1
40
1
40
1
41
1
41
1
41
1
41
1
41
1
41
1
41
1
41
1
41
1
41
1
10
10
20
0
30
0
10
9.9999999999997495
20
0.12000000000003158
30
0
10
9.9999999999993197
20
0.36000000000007704
30
0
10
9.9999999999989129
20
0.72000000000009301
30
0
10
9.9999999999987672
20
1.2000000000000313
30
0
10
9.9999999999990248
20
1.7999999999999146
30
0
10
9.9999999999993889
20
2.2799999999998684
30
0
10
9.9999999999996998
20
2.6399999999999042
30
0
10
9.9999999999999005
20
2.8799999999999617
30
0
10
10
20
3
30
0
0
SPLINE
5
102
100
AcDbEntity
8
0
100
AcDbSpline
70
4
71
5
72
16
73
10
74
0
42
0.000000001
43
0.0000000001
44
0.0000000001
40
0
40
0
40
0
40
0
40
0
40
0
40
0.20000000000000001
40
0.40000000000000002
40
0.60000000000000009
40
0.80000000000000004
40
1
40
1
40
1
40
1
40
1
40
1
41
1
41
1
41
1
41
1
41
1
41
1
41
1
41
1
41
1
41
1
10
0
20
1.5
30
0
10
0.40000000000047375
20
1.499999999999694
30
0
10
1.2000000000012774
20
1.4999999999991638
30
0
10
2.4000000000020547
20
1.4999999999986278
30
0
10
4.0000000000023546
20
1.4999999999983737
30
0
10
6.0000000000019584
20
1.4999999999985913
30
0
10
7.6000000000012928
20
1.4999999999990359
30
0
10
8.800000000000697
20
1.4999999999994786
30
0
10
9.6000000000002395
20
1.4999999999998188
30
0
10
10
20
1.5
30
0
0
SPLINE
5
103
100
AcDbEntity
8
0
100
AcDbSpline
70
4
71
5
72
61
73
55
74
0
42
0.000000001
43
0.0000000001
44
0.0000000001
40
0
40
0
40
0
40
0
40
0
40
0
40
0.02
40
0.040000000000000001
40
0.059999999999999998
40
0.080000000000000002
40
0.10000000000000001
40
0.12000000000000001
40
0.14000000000000001
40
0.16
40
0.17999999999999999
40
0.19999999999999998
40
0.21999999999999997
40
0.23999999999999996
40
0.25999999999999995
40
0.27999999999999997
40
0.29999999999999999
40
0.32000000000000001
40
0.34000000000000002
40
0.36000000000000004
40
0.38000000000000006
40
0.40000000000000008
40
0.4200000000000001
40
0.44000000000000011
40
0.46000000000000013
40
0.48000000000000015
40
0.50000000000000011
40
0.52000000000000013
40
0.54000000000000015
40
0.56000000000000016
40
0.58000000000000018
40
0.6000000000000002
40
0.62000000000000022
40
0.64000000000000024
40
0.66000000000000025
40
0.68000000000000027
40
0.70000000000000029
40
0.72000000000000031
40
0.74000000000000032
40
0.76000000000000034
40
0.78000000000000036
40
0.80000000000000038
40
0.8200000000000004
40
0.84000000000000041
40
0.86000000000000043
40
0.88000000000000045
40
0.90000000000000047
40
0.92000000000000048
40
0.9400000000000005
40
0.96000000000000052
40
0.98000000000000054
40
1
40
1
40
1
40
1
40
1
40
1
41
1
41
1
41
1
41
1
41
1
41
1
41
1
41
1
41
1
41
1
41
1
41
1
41
1
41
1
41
1
41
1
41
1
41
1
41
1
41
1
41
1
41
1
41
1
41
1
41
1
41
1
41
1
41
1
41
1
41
1
41
1
41
1
41
1
41
1
41
1
41
1
41
1
41
1
41
1
41
1
41
1
41
1
41
1
41
1
41
1
41
1
41
1
41
1
41
1
41
1
41
1
41
1
41
1
41
1
41
1
10
0
20
0
30
0
10
0.039815789816176277
20
0.013416336798639152
30
0
10
0.11954390437870153
20
0.037957211882536847
30
0
10
0.23942568294475014
20
0.067893096020503974
30
0
10
0.39984762855683109
20
0.094048076262080671
30
0
10
0.60130605091322264
20
0.10443354812106619
30
0
10
0.80358638661030435
20
0.09448034526760761
30
0
10
1.0064679509957142
20
0.068190163039030749
30
0
10
1.2095786780377979
20
0.032322957113150141
30
0
10
1.4123605129705235
20
-0.0029649303808081742
30
0
10
1.6142069510354879
20
-0.026448243196715113
30
0
10
1.8145970376080702
20
-0.028095836722111016
30
0
10
2.0132281646335874
20
-0.0013191899725790062
30
0
10
2.2101561181236029
20
0.054671098116893906
30
0
10
2.4059153148881984
20
0.13280590605654335
30
0
10
2.6013076210454855
20
0.22108211773792863
30
0
10
2.7972102738891964
20
0.30520087226748949
30
0
10
2.9943758342442974
20
0.37131611685779159
30
0
10
3.1932378974807305
20
0.40871086429743286
30
0
10
3.3937065531714214
20
0.41257838394990087
30
0
10
3.5953272432584416
20
0.38332735929624745
30
0
10
3.7974474770600053
20
0.3258158368169734
30
0
10
3.9993801000124818
20
0.24862548692435654
30
0
10
4.2005675187038927
20
0.16332822348992448
30
0
10
4.4007464285602245
20
0.083771987616247406
30
0
10
4.5998875224387845
20
0.023721997333517025
30
0
10
4.7981348066338194
20
-0.0054944410208654553
30
0
10
4.9957455125071579
20
0.0026331963549900451
30
0
10
5.1930303566468563
20
0.047456842173973335
30
0
10
5.3902932860781503
20
0.11868638744218755
30
0
10
5.5878096994794237
20
0.20020708991832936
30
0
10
5.7858056770462909
20
0.2739827959206127
30
0
10
5.9844361912601745
20
0.32397862997024324
30
0
10
6.1837647633999353
20
0.3399416052977921
30
0
10
6.3837390041834832
20
0.32162220459825552
30
0
10
6.584226217841433
20
0.27617231594111669
30
0
10
6.7850532014430698
20
0.21504682730809199
30
0
10
6.9860448597144558
20
0.15106900048252672
30
0
10
7.1870621753802553
20
0.095501728159898394
30
0
10
7.3880434749817976
20
0.05493034311585681
30
0
10
7.5889849055968996
20
0.031937783883448354
30
0
10
7.7899168942489556
20
0.026036786090977804
30
0
10
7.9908820066293682
20
0.034502012447664862
30
0
10
8.1919126505018909
20
0.053230930612265429
30
0
10
8.3930077930696534
20
0.077604104312265262
30
0
10
8.5941416005590625
20
0.10283197026847693
30
0
10
8.7952734500730791
20
0.12427485591232384
30
0
10
8.9963574161864184
20
0.13777431842127946
30
0
10
9.1973518951556521
20
0.13997800485443215
30
0
10
9.3982293447184393
20
0.12867718118637786
30
0
10
9.5989735212623923
20
0.10257453556637762
30
0
10
9.759455914193186
20
0.069350714998061197
30
0
10
9.8797530759569963
20
0.037406179693223275
30
0
10
9.9599224765228662
20
0.012988882883493123
30
0
10
10
20
0
30
0
0
SPLINE
5
104
100
AcDbEntity
8
0
100
AcDbSpline
70
4
71
5
72
61
73
55
74
0
42
0.000000001
43
0.0000000001
44
0.0000000001
40
0
40
0
40
0
40
0
40
0
40
0
40
0.02
40
0.040000000000000001
40
0.059999999999999998
40
0.080000000000000002
40
0.10000000000000001
40
0.12000000000000001
40
0.14000000000000001
40
0.16
40
0.17999999999999999
40
0.19999999999999998
40
0.21999999999999997
40
0.23999999999999996
40
0.25999999999999995
40
0.27999999999999997
40
0.29999999999999999
40
0.32000000000000001
40
0.34000000000000002
40
0.36000000000000004
40
0.38000000000000006
40
0.40000000000000008
40
0.4200000000000001
40
0.44000000000000011
40
0.46000000000000013
40
0.48000000000000015
40
0.50000000000000011
40
0.52000000000000013
40
0.54000000000000015
40
0.56000000000000016
40
0.58000000000000018
40
0.6000000000000002
40
0.62000000000000022
40
0.64000000000000024
40
0.66000000000000025
40
0.68000000000000027
40
0.70000000000000029
40
0.72000000000000031
40
0.74000000000000032
40
0.76000000000000034
40
0.78000000000000036
40
0.80000000000000038
40
0.8200000000000004
40
0.84000000000000041
40
0.86000000000000043
40
0.88000000000000045
40
0.90000000000000047
40
0.92000000000000048
40
0.9400000000000005
40
0.96000000000000052
40
0.98000000000000054
40
1
40
1
40
1
40
1
40
1
40
1
41
1
41
1
41
1
41
1
41
1
41
1
41
1
41
1
41
1
41
1
41
1
41
1
41
1
41
1
41
1
41
1
41
1
41
1
41
1
41
1
41
1
41
1
41
1
41
1
41
1
41
1
41
1
41
1
41
1
41
1
41
1
41
1
41
1
41
1
41
1
41
1
41
1
41
1
41
1
41
1
41
1
41
1
41
1
41
1
41
1
41
1
41
1
41
1
41
1
41
1
41
1
41
1
41
1
41
1
41
1
10
0
20
3
30
0
10
0.040222387492156661
20
2.9911432997791758
30
0
10
0.12067624244844441
20
2.9744861417482631
30
0
10
0.24138426485474387
20
2.9526691371302096
30
0
10
0.40238280968253703
20
2.9299213462892784
30
0
10
0.60372050863164872
20
2.9119110273079722
30
0
10
0.80514333569494434
20
2.9038479778220956
30
0
10
1.0066422489720401
20
2.9047470778022162
30
0
10
1.2082018808982056
20
2.9129327789861588
30
0
10
1.4097990131279672
20
2.9258703407025339
30
0
10
1.6114062137544682
20
2.9404912772921139
30
0
10
1.8129953256979705
20
2.9535026574954282
30
0
10
2.014540989441838
20
2.9617031757330921
30
0
10
2.2160241945325603
20
2.962292634168425
30
0
10
2.4174357208337836
20
2.9531951311429032
30
0
10
2.6187772799007329
20
2.933488568692848
30
0
10
2.8200629585758459
20
2.9038503075568727
30
0
10
3.0213203032387224
20
2.8669613703926706
30
0
10
3.2225922426448808
20
2.8280256833152349
30
0
10
3.4239368397229732
20
2.7949837342216362
30
0
10
3.6254080826381587
20
2.7760328419651343
30
0
10
3.8270377773599771
20
2.7773074168086569
30
0
10
4.0288179575432812
20
2.8006313061106907
30
0
10
4.2306806720026859
20
2.8409086291198276
30
0
10
4.4324854885948515
20
2.8845888072874262
30
0
10
4.634056954678857
20
2.9150147415489109
30
0
10
4.8352172507997055
20
2.9171476051390903
30
0
10
5.0358191513897808
20
2.882251122767379
30
0
10
5.2357824818662504
20
2.8132673961593202
30
0
10
5.435118598975837
20
2.7279518615649101
30
0
10
5.6338940923287897
20
2.6507861375046993
30
0
10
5.8322020055194326
20
2.6062388799546374
30
0
10
6.0301315498958887
20
2.611807637199155
30
0
10
6.227735432528597
20
2.670437894063916
30
0
10
6.4250071690259993
20
2.7652471186620202
30
0
10
6.6219215447326381
20
2.8687782870169891
30
0
10
6.8184681284600561
20
2.9506120277902443
30
0
10
7.0146866171597733
20
2.9854583985773568
30
0
10
7.2107035708631608
20
2.9613799000343417
30
0
10
7.406762927678459
20
2.8870558160414133
30
0
10
7.6031626232708414
20
2.7840414403772318
30
0
10
7.8001972476377706
20
2.6800040639925875
30
0
10
7.9980983234372927
20
2.6015991804612622
30
0
10
8.1969757144053776
20
2.5675284481633214
30
0
10
8.3967575156163434
20
2.5814322295861967
30
0
10
8.5972437448105943
20
2.635949123426371
30
0
10
8.798160536771034
20
2.7168243162135224
30
0
10
8.9992139340257022
20
2.806980592610588
30
0
10
9.2001436531208185
20
2.8905872770934318
30
0
10
9.4007771256389319
20
2.957145664667963
30
0
10
9.6010117260008521
20
3.0004111012264216
30
0
10
9.7608398402071721
20
3.0139253459262756
30
0
10
9.8805013636607271
20
3.0117479791532213
30
0
10
9.9601826342700068
20
3.0048274793012322
30
0
10
10
20
3
30
0
0
ENDSEC
0
SECTION
2
OBJECTS
0
DICTIONARY
5
C
100
AcDbDictionary
3
ACAD_GROUP
350
D
3
ACAD_MLINESTYLE
350
17
0
DICTIONARY
5
D
100
AcDbDictionary
0
DICTIONARY
5
1A
330
C
100
AcDbDictionary
0
DICTIONARY
5
17
100
AcDbDictionary
0
ENDSEC
0
EOF
