0
SECTION
2
HEADER
9
$INSUNITS
70
4
9
$ACADVER
1
AC1014
9
$HANDSEED
5
FFFF
0
ENDSEC
0
SECTION
2
TABLES
0
TABLE
2
VPORT
5
8
100
AcDbSymbolTable
0
ENDTAB
0
TABLE
2
LTYPE
5
5
100
AcDbSymbolTable
0
LTYPE
5
14
100
AcDbSymbolTableRecord
100
AcDbLinetypeTableRecord
2
BYBLOCK
70
0
0
LTYPE
5
15
100
AcDbSymbolTableRecord
100
AcDbLinetypeTableRecord
2
BYLAYER
70
0
0
ENDTAB
0
TABLE
2
LAYER
5
2
100
AcDbSymbolTable
70
2
0
LAYER
5
50
100
AcDbSymbolTableRecord
100
AcDbLayerTableRecord
2
0
70
0
6
CONTINUOUS
0
ENDTAB
0
TABLE
2
STYLE
5
3
100
AcDbSymbolTable
70
1
0
STYLE
5
11
100
AcDbSymbolTableRecord
100
AcDbTextStyleTableRecord
2
STANDARD
70
0
0
ENDTAB
0
TABLE
2
VIEW
5
6
100
AcDbSymbolTable
70
0
0
ENDTAB
0
TABLE
2
UCS
5
7
100
AcDbSymbolTable
70
0
0
ENDTAB
0
TABLE
2
APPID
5
9
100
AcDbSymbolTable
70
2
0
APPID
5
12
100
AcDbSymbolTableRecord
100
AcDbRegAppTableRecord
2
ACAD
70
0
0
ENDTAB
0
TABLE
2
DIMSTYLE
5
A
100
AcDbSymbolTable
70
1
0
ENDTAB
0
TABLE
2
BLOCK_RECORD
5
1
100
AcDbSymbolTable
70
1
0
BLOCK_RECORD
5
1F
100
AcDbSymbolTableRecord
100
AcDbBlockTableRecord
2
*MODEL_SPACE
0
BLOCK_RECORD
5
1B
100
AcDbSymbolTableRecord
100
AcDbBlockTableRecord
2
*PAPER_SPACE
0
ENDTAB
0
ENDSEC
0
SECTION
2
BLOCKS
0
BLOCK
5
20
100
AcDbEntity
100
AcDbBlockBegin
2
*MODEL_SPACE
0
ENDBLK
5
21
100
AcDbEntity
100
AcDbBlockEnd
0
BLOCK
5
1C
100
AcDbEntity
100
AcDbBlockBegin
2
*PAPER_SPACE
0
ENDBLK
5
1D
100
AcDbEntity
100
AcDbBlockEnd
0
ENDSEC
0
SECTION
2
ENTITIES
0
SPLINE
5
100
100
AcDbEntity
8
0
100
AcDbSpline
70
4
71
5
72
16
73
10
74
0
42
0.000000001
43
0.0000000001
44
0.0000000001
40
0
40
0
40
0
40
0
40
0
40
0
40
0.20000000000000001
40
0.40000000000000002
40
0.60000000000000009
40
0.80000000000000004
40
1
40
1
40
1
40
1
40
1
40
1
41
1
41
1
41
1
41
1
41
1
41
1
41
1
41
1
41
1
41
1
10
0
20
0
30
0
10
0
20
0.12000000000003158
30
0
10
0
20
0.36000000000007704
30
0
10
0
20
0.72000000000009301
30
0
10
0
20
1.2000000000000313
30
0
10
0
20
1.7999999999999146
30
0
10
0
20
2.2799999999998684
30
0
10
0
20
2.6399999999999042
30
0
10
0
20
2.8799999999999617
30
0
10
0
20
3
30
0
0
SPLINE
5
101
100
AcDbEntity
8
0
100
AcDbSpline
70
4
71
5
72
16
73
10
74
0
42
0.000000001
43
0.0000000001
44
0.0000000001
40
0
40
0
40
0
40
0
40
0
40
0
40
0.20000000000000001
40
0.40000000000000002
40
0.60000000000000009
40
0.80000000000000004
40
1
40
1
40
1
40
1
40
1
40
1
41
1
41
1
41
1
41
1
41
1
41
1
41
1
41
1
41
1
41
1
10
10
20
0
30
0
10
9.9999999999997495
20
0.12000000000003158
30
0
10
9.9999999999993197
20
0.36000000000007704
30
0
10
9.9999999999989129
20
0.72000000000009301
30
0
10
9.9999999999987672
20
1.2000000000000313
30
0
10
9.9999999999990248
20
1.7999999999999146
30
0
10
9.9999999999993889
20
2.2799999999998684
30
0
10
9.9999999999996998
20
2.6399999999999042
30
0
10
9.9999999999999005
20
2.8799999999999617
30
0
10
10
20
3
30
0
0
SPLINE
5
102
100
AcDbEntity
8
0
100
AcDbSpline
70
4
71
5
72
16
73
10
74
0
42
0.000000001
43
0.0000000001
44
0.0000000001
40
0
40
0
40
0
40
0
40
0
40
0
40
0.20000000000000001
40
0.40000000000000002
40
0.60000000000000009
40
0.80000000000000004
40
1
40
1
40
1
40
1
40
1
40
1
41
1
41
1
41
1
41
1
41
1
41
1
41
1
41
1
41
1
41
1
10
0
20
1.5
30
0
10
0.40000000000047375
20
1.499999999999694
30
0
10
1.2000000000012774
20
1.4999999999991638
30
0
10
2.4000000000020547
20
1.4999999999986278
30
0
10
4.0000000000023546
20
1.4999999999983737
30
0
10
6.0000000000019584
20
1.4999999999985913
30
0
10
7.6000000000012928
20
1.4999999999990359
30
0
10
8.800000000000697
20
1.4999999999994786
30
0
10
9.6000000000002395
20
1.4999999999998188
30
0
10
10
20
1.5
30
0
0
SPLINE
5
103
100
AcDbEntity
8
0
100
AcDbSpline
70
4
71
5
72
111
73
105
74
0
42
0.000000001
43
0.0000000001
44
0.0000000001
40
0
40
0
40
0
40
0
40
0
40
0
40
0.01
40
0.02
40
0.029999999999999999
40
0.040000000000000001
40
0.050000000000000003
40
0.060000000000000005
40
0.070000000000000007
40
0.080000000000000002
40
0.089999999999999997
40
0.099999999999999992
40
0.10999999999999999
40
0.11999999999999998
40
0.12999999999999998
40
0.13999999999999999
40
0.14999999999999999
40
0.16
40
0.17000000000000001
40
0.18000000000000002
40
0.19000000000000003
40
0.20000000000000004
40
0.21000000000000005
40
0.22000000000000006
40
0.23000000000000007
40
0.24000000000000007
40
0.25000000000000006
40
0.26000000000000006
40
0.27000000000000007
40
0.28000000000000008
40
0.29000000000000009
40
0.3000000000000001
40
0.31000000000000011
40
0.32000000000000012
40
0.33000000000000013
40
0.34000000000000014
40
0.35000000000000014
40
0.36000000000000015
40
0.37000000000000016
40
0.38000000000000017
40
0.39000000000000018
40
0.40000000000000019
40
0.4100000000000002
40
0.42000000000000021
40
0.43000000000000022
40
0.44000000000000022
40
0.45000000000000023
40
0.46000000000000024
40
0.47000000000000025
40
0.48000000000000026
40
0.49000000000000027
40
0.50000000000000022
40
0.51000000000000023
40
0.52000000000000024
40
0.53000000000000025
40
0.54000000000000026
40
0.55000000000000027
40
0.56000000000000028
40
0.57000000000000028
40
0.58000000000000029
40
0.5900000000000003
40
0.60000000000000031
40
0.61000000000000032
40
0.62000000000000033
40
0.63000000000000034
40
0.64000000000000035
40
0.65000000000000036
40
0.66000000000000036
40
0.67000000000000037
40
0.68000000000000038
40
0.69000000000000039
40
0.7000000000000004
40
0.71000000000000041
40
0.72000000000000042
40
0.73000000000000043
40
0.74000000000000044
40
0.75000000000000044
40
0.76000000000000045
40
0.77000000000000046
40
0.78000000000000047
40
0.79000000000000048
40
0.80000000000000049
40
0.8100000000000005
40
0.82000000000000051
40
0.83000000000000052
40
0.84000000000000052
40
0.85000000000000053
40
0.86000000000000054
40
0.87000000000000055
40
0.88000000000000056
40
0.89000000000000057
40
0.90000000000000058
40
0.91000000000000059
40
0.9200000000000006
40
0.9300000000000006
40
0.94000000000000061
40
0.95000000000000062
40
0.96000000000000063
40
0.97000000000000064
40
0.98000000000000065
40
0.99000000000000066
40
1
40
1
40
1
40
1
40
1
40
1
41
1
41
1
41
1
41
1
41
1
41
1
41
1
41
1
41
1
41
1
41
1
41
1
41
1
41
1
41
1
41
1
41
1
41
1
41
1
41
1
41
1
41
1
41
1
41
1
41
1
41
1
41
1
41
1
41
1
41
1
41
1
41
1
41
1
41
1
41
1
41
1
41
1
41
1
41
1
41
1
41
1
41
1
41
1
41
1
41
1
41
1
41
1
41
1
41
1
41
1
41
1
41
1
41
1
41
1
41
1
41
1
41
1
41
1
41
1
41
1
41
1
41
1
41
1
41
1
41
1
41
1
41
1
41
1
41
1
41
1
41
1
41
1
41
1
41
1
41
1
41
1
41
1
41
1
41
1
41
1
41
1
41
1
41
1
41
1
41
1
41
1
41
1
41
1
41
1
41
1
41
1
41
1
41
1
41
1
41
1
41
1
41
1
41
1
41
1
41
1
41
1
41
1
41
1
41
1
41
1
10
0
20
0
30
0
10
0.020048805295115379
20
0.00047782127385678563
30
0
10
0.060134072470271457
20
0.0021392185650378364
30
0
10
0.12022494299715078
20
0.0067485776563862105
30
0
10
0.20027203108613156
20
0.017129615111428097
30
0
10
0.30021067734485296
20
0.036915964645251986
30
0
10
0.40003895207415624
20
0.062759546943410766
30
0
10
0.4997766381164318
20
0.093148861022705129
30
0
10
0.59945679275178188
20
0.12555995445625778
30
0
10
0.6991291141002941
20
0.15619920835484888
30
0
10
0.79885183705129004
20
0.1809461396297673
30
0
10
0.89868361528438179
20
0.19629665581178518
30
0
10
0.99867539736375011
20
0.20031023219689642
30
0
10
1.0988623308722325
20
0.19354748690903123
30
0
10
1.1992555647546381
20
0.1800378873718593
30
0
10
1.2998421222770851
20
0.16562500193253785
30
0
10
1.4005848336060698
20
0.15627861289134376
30
0
10
1.5014222743903098
20
0.15642610639743382
30
0
10
1.6022685822853293
20
0.16725965968197756
30
0
10
1.703013588547482
20
0.18509416681092872
30
0
10
1.8035464604265061
20
0.20347191820206062
30
0
10
1.9037792000073142
20
0.21522854166772859
30
0
10
2.0036699090667494
20
0.21455449260695203
30
0
10
2.1032468709055556
20
0.19910051937234038
30
0
10
2.2026303940602601
20
0.17194981835850676
30
0
10
2.3019875599143309
20
0.13953349003702731
30
0
10
2.4014890003731724
20
0.10967144701982731
30
0
10
2.5012650876787443
20
0.08957320862029608
30
0
10
2.6013619791396208
20
0.083842714002502816
30
0
10
2.7016987118229627
20
0.092515969474518039
30
0
10
2.8021217970560572
20
0.11251976406253172
30
0
10
2.9024587683605505
20
0.13909006784435296
30
0
10
3.0025717476573757
20
0.16719704604961383
30
0
10
3.1024118247490362
20
0.19298309527025193
30
0
10
3.2020708878477149
20
0.21515030689521752
30
0
10
3.30171980995949
20
0.23404346312562474
30
0
10
3.4015490295772306
20
0.25078264789224913
30
0
10
3.5017085529399266
20
0.26638228498242345
30
0
10
3.6022475105875396
20
0.2808661157165816
30
0
10
3.7030557116461544
20
0.29241080497266581
30
0
10
3.8039338444489266
20
0.29836610925208717
30
0
10
3.9046620384614217
20
0.29625247250680065
30
0
10
4.0050680805839987
20
0.28475093415819042
30
0
10
4.1050979501506424
20
0.26473406229293678
30
0
10
4.204879376338357
20
0.24017627095452099
30
0
10
4.3046369935534239
20
0.21651418047608734
30
0
10
4.4046132589714126
20
0.19910370076447748
30
0
10
4.5049883515644424
20
0.1916644788726943
30
0
10
4.6057978758307989
20
0.1946744171796439
30
0
10
4.7068587254486367
20
0.20393654646677609
30
0
10
4.8078690189910853
20
0.21278010454553634
30
0
10
4.9085014173969039
20
0.21412595354583025
30
0
10
5.0084969286641421
20
0.20255680471821397
30
0
10
5.107763110545581
20
0.17649203004379943
30
0
10
5.2064574006672064
20
0.14001715984425264
30
0
10
5.3048857138109087
20
0.10044220402711988
30
0
10
5.403413532097999
20
0.06614758636773399
30
0
10
5.5023728103307583
20
0.044335490405350106
30
0
10
5.6019694847832113
20
0.038789615799971769
30
0
10
5.7021939116839899
20
0.047716731703101284
30
0
10
5.8028924100474208
20
0.065877770867367388
30
0
10
5.9038353111717221
20
0.086630170514757285
30
0
10
6.0047856237531079
20
0.10397841760724527
30
0
10
6.105568884176642
20
0.1146762014225641
30
0
10
6.2061384059613864
20
0.12015345099732906
30
0
10
6.3065328369323357
20
0.12445427544335547
30
0
10
6.406837860263856
20
0.13231740782395471
30
0
10
6.5071468846831717
20
0.14724312051565142
30
0
10
6.6075209943628384
20
0.16947441852325507
30
0
10
6.707952567233991
20
0.19427108091874445
30
0
10
6.8083855434625828
20
0.21444099588151158
30
0
10
6.9087323066114354
20
0.22264551324677831
30
0
10
7.0088917594336122
20
0.2137326587661339
30
0
10
7.1087670320973011
20
0.18719248284698234
30
0
10
7.2082829040650065
20
0.14918219773639069
30
0
10
7.3073968326794336
20
0.10951512153857659
30
0
10
7.4061106478816727
20
0.079000864167563717
30
0
10
7.5044817088477007
20
0.06668124898705162
30
0
10
7.6026350479124361
20
0.07704439449502315
30
0
10
7.7007730996238859
20
0.10743001815310239
30
0
10
7.7991284807527315
20
0.1505679467093031
30
0
10
7.8979191241092073
20
0.19690700285112286
30
0
10
7.997302221472907
20
0.23703197977660337
30
0
10
8.0973293421929231
20
0.2640172917073953
30
0
10
8.1978990514564938
20
0.27587904677366215
30
0
10
8.2988132508251304
20
0.27427043503573856
30
0
10
8.3998359425856002
20
0.26309199033740138
30
0
10
8.5007509784996724
20
0.24713618874819282
30
0
10
8.6014204463701276
20
0.23071514654332725
30
0
10
8.7018422563869784
20
0.21630466298730475
30
0
10
8.8021028598253483
20
0.20491399044954031
30
0
10
8.9023304980712847
20
0.19644584858729097
30
0
10
9.0026485413335795
20
0.19005821867670186
30
0
10
9.1031282231805672
20
0.18452702857244896
30
0
10
9.2037432029813111
20
0.1786018432427014
30
0
10
9.304399183078619
20
0.17105985863970358
30
0
10
9.4049618518084266
20
0.16076743123520279
30
0
10
9.5052851833778291
20
0.14673811367530115
30
0
10
9.6052401210484302
20
0.12819393671850546
30
0
10
9.7047415542039808
20
0.10462072343761794
30
0
10
9.8037384243111205
20
0.075711597405417552
30
0
10
9.8825120774531356
20
0.048194671680772794
30
0
10
9.9413501846418946
20
0.025065918849892795
30
0
10
9.9804679941594454
20
0.0085397984521199746
30
0
10
10
20
0
30
0
0
SPLINE
5
104
100
AcDbEntity
8
0
100
AcDbSpline
70
4
71
5
72
111
73
105
74
0
42
0.000000001
43
0.0000000001
44
0.0000000001
40
0
40
0
40
0
40
0
40
0
40
0
40
0.01
40
0.02
40
0.029999999999999999
40
0.040000000000000001
40
0.050000000000000003
40
0.060000000000000005
40
0.070000000000000007
40
0.080000000000000002
40
0.089999999999999997
40
0.099999999999999992
40
0.10999999999999999
40
0.11999999999999998
40
0.12999999999999998
40
0.13999999999999999
40
0.14999999999999999
40
0.16
40
0.17000000000000001
40
0.18000000000000002
40
0.19000000000000003
40
0.20000000000000004
40
0.21000000000000005
40
0.22000000000000006
40
0.23000000000000007
40
0.24000000000000007
40
0.25000000000000006
40
0.26000000000000006
40
0.27000000000000007
40
0.28000000000000008
40
0.29000000000000009
40
0.3000000000000001
40
0.31000000000000011
40
0.32000000000000012
40
0.33000000000000013
40
0.34000000000000014
40
0.35000000000000014
40
0.36000000000000015
40
0.37000000000000016
40
0.38000000000000017
40
0.39000000000000018
40
0.40000000000000019
40
0.4100000000000002
40
0.42000000000000021
40
0.43000000000000022
40
0.44000000000000022
40
0.45000000000000023
40
0.46000000000000024
40
0.47000000000000025
40
0.48000000000000026
40
0.49000000000000027
40
0.50000000000000022
40
0.51000000000000023
40
0.52000000000000024
40
0.53000000000000025
40
0.54000000000000026
40
0.55000000000000027
40
0.56000000000000028
40
0.57000000000000028
40
0.58000000000000029
40
0.5900000000000003
40
0.60000000000000031
40
0.61000000000000032
40
0.62000000000000033
40
0.63000000000000034
40
0.64000000000000035
40
0.65000000000000036
40
0.66000000000000036
40
0.67000000000000037
40
0.68000000000000038
40
0.69000000000000039
40
0.7000000000000004
40
0.71000000000000041
40
0.72000000000000042
40
0.73000000000000043
40
0.74000000000000044
40
0.75000000000000044
40
0.76000000000000045
40
0.77000000000000046
40
0.78000000000000047
40
0.79000000000000048
40
0.80000000000000049
40
0.8100000000000005
40
0.82000000000000051
40
0.83000000000000052
40
0.84000000000000052
40
0.85000000000000053
40
0.86000000000000054
40
0.87000000000000055
40
0.88000000000000056
40
0.89000000000000057
40
0.90000000000000058
40
0.91000000000000059
40
0.9200000000000006
40
0.9300000000000006
40
0.94000000000000061
40
0.95000000000000062
40
0.96000000000000063
40
0.97000000000000064
40
0.98000000000000065
40
0.99000000000000066
40
1
40
1
40
1
40
1
40
1
40
1
41
1
41
1
41
1
41
1
41
1
41
1
41
1
41
1
41
1
41
1
41
1
41
1
41
1
41
1
41
1
41
1
41
1
41
1
41
1
41
1
41
1
41
1
41
1
41
1
41
1
41
1
41
1
41
1
41
1
41
1
41
1
41
1
41
1
41
1
41
1
41
1
41
1
41
1
41
1
41
1
41
1
41
1
41
1
41
1
41
1
41
1
41
1
41
1
41
1
41
1
41
1
41
1
41
1
41
1
41
1
41
1
41
1
41
1
41
1
41
1
41
1
41
1
41
1
41
1
41
1
41
1
41
1
41
1
41
1
41
1
41
1
41
1
41
1
41
1
41
1
41
1
41
1
41
1
41
1
41
1
41
1
41
1
41
1
41
1
41
1
41
1
41
1
41
1
41
1
41
1
41
1
41
1
41
1
41
1
41
1
41
1
41
1
41
1
41
1
41
1
41
1
41
1
41
1
41
1
41
1
10
0
20
3
30
0
10
0.019773104222054087
20
2.9921201032023497
30
0
10
0.059341001663186725
20
2.976746834622046
30
0
10
0.11875791521324766
20
2.9548465131181127
30
0
10
0.1981106191197933
20
2.9279655697140088
30
0
10
0.29752398208561426
20
2.8983331881621517
30
0
10
0.39717624121574369
20
2.8729738190439646
30
0
10
0.49710018419201113
20
2.8524949962099893
30
0
10
0.59735008719461724
20
2.8379031651197346
30
0
10
0.69800795408267013
20
2.8307171844876811
30
0
10
0.79914221947584552
20
2.8323319687810993
30
0
10
0.90076489387774805
20
2.8433583411078178
30
0
10
1.002789837726858
20
2.8629790293194031
30
0
10
1.1049891457298313
20
2.8882789478522017
30
0
10
1.2069539854312452
20
2.9136350299545413
30
0
10
1.3082169021485153
20
2.9322872129216049
30
0
10
1.4083715342760874
20
2.9378706702953066
30
0
10
1.5071906939442901
20
2.925934254757927
30
0
10
1.604751315071401
20
2.8955312573546359
30
0
10
1.7015393342450824
20
2.8505949255077718
30
0
10
1.7982533584493219
20
2.7980847480569562
30
0
10
1.8956271565124978
20
2.7463306515352404
30
0
10
1.994242719718391
20
2.7032869748652772
30
0
10
2.0943527138666127
20
2.6748630706894065
30
0
10
2.1956838940387415
20
2.6631161576948248
30
0
10
2.2976269068460917
20
2.6671524767359358
30
0
10
2.3994458996977821
20
2.6841659427461622
30
0
10
2.5004807547903085
20
2.7104252198069463
30
0
10
2.6003525856701466
20
2.742282201116522
30
0
10
2.6991675846923071
20
2.777169677990587
30
0
10
2.797349952515706
20
2.8132440797428595
30
0
10
2.8954763218763087
20
2.8490328293134541
30
0
10
2.9941079479121018
20
2.8830733675180067
30
0
10
3.0936280684390693
20
2.91357194153285
30
0
10
3.1940655734099783
20
2.9380100147756023
30
0
10
3.2951998035044667
20
2.9538253865979893
30
0
10
3.3966805761646093
20
2.9591501237935036
30
0
10
3.4981429837925337
20
2.9535333283885974
30
0
10
3.5993234095846689
20
2.938659346735311
30
0
10
3.7001776968843809
20
2.9191019125598445
30
0
10
3.8008111370307307
20
2.9006940776286649
30
0
10
3.9014048825205432
20
2.8888497157500321
30
0
10
4.0021440477548245
20
2.8869155667208002
30
0
10
4.1031444341059347
20
2.8944801834735583
30
0
10
4.2043817007611448
20
2.9057791016931152
30
0
10
4.3057302052015984
20
2.9124871727771762
30
0
10
4.406999825300848
20
2.9064580360697296
30
0
10
4.5079732906769348
20
2.882419477692717
30
0
10
4.6084437147467234
20
2.8408358167283416
30
0
10
4.70825077107538
20
2.7902835238522847
30
0
10
4.807296990135618
20
2.7434703517725905
30
0
10
4.9055655379738541
20
2.7136504021611616
30
0
10
5.0031371744220099
20
2.71091820022062
30
0
10
5.1002083437148036
20
2.738487513281243
30
0
10
5.1971068232910378
20
2.7891564366575841
30
0
10
5.2942191282650608
20
2.8495984476842229
30
0
10
5.3919210437223821
20
2.9043929411082967
30
0
10
5.4905055270413472
20
2.9402347637749147
30
0
10
5.5901150521982421
20
2.9498767096104457
30
0
10
5.6906629243458964
20
2.9367036372759081
30
0
10
5.7918974895705597
20
2.911190128366028
30
0
10
5.893479449929945
20
2.8866210353539801
30
0
10
5.9950549483513633
20
2.8750348142197786
30
0
10
6.0963291741656338
20
2.8831735755865946
30
0
10
6.1971431329260849
20
2.9081542300529613
30
0
10
6.2974552929535861
20
2.9408183230811078
30
0
10
6.3973185641664534
20
2.9694403329076295
30
0
10
6.4968591202843875
20
2.9833270984082305
30
0
10
6.5962543527573576
20
2.9764063542965333
30
0
10
6.6957116267785981
20
2.9509776658547726
30
0
10
6.7954317317162189
20
2.9148614061131859
30
0
10
6.8955721843648323
20
2.8783588886697036
30
0
10
6.9962100718089291
20
2.851263051306852
30
0
10
7.0973061614713941
20
2.8398967788949694
30
0
10
7.1986653280189721
20
2.8440044088394885
30
0
10
7.3000141870502544
20
2.8586972631519041
30
0
10
7.4010829285339135
20
2.8765758574336173
30
0
10
7.5016852016496394
20
2.8897801647742911
30
0
10
7.6017997805018078
20
2.8920810837445643
30
0
10
7.7016490381384717
20
2.8809228600353598
30
0
10
7.801575368634758
20
2.8567968662260919
30
0
10
7.9019198394590715
20
2.8226527212675401
30
0
10
8.0029011537533083
20
2.7832951890604232
30
0
10
8.1044918445372911
20
2.7447936327217386
30
0
10
8.2063026658921263
20
2.7138732583362106
30
0
10
8.30775798039428
20
2.6968178245560686
30
0
10
8.4082649477457991
20
2.6983709218765695
30
0
10
8.5073819414410927
20
2.7206638068856059
30
0
10
8.6049944308759585
20
2.7620681483007243
30
0
10
8.701467698979819
20
2.8162561450440986
30
0
10
8.7974550615190168
20
2.8743073487284749
30
0
10
8.8937280578099873
20
2.9266173645443194
30
0
10
8.9909955903138314
20
2.9649145987506218
30
0
10
9.0897343033478233
20
2.9841535565754822
30
0
10
9.189996413149446
20
2.9846726796843641
30
0
10
9.2915112225005387
20
2.9708555024338663
30
0
10
9.3938118837391968
20
2.9494907387088363
30
0
10
9.4963535982179277
20
2.9282337913552481
30
0
10
9.5986338683023469
20
2.9140459233706713
30
0
10
9.7003159090201034
20
2.9115896307906168
30
0
10
9.8011988161775907
20
2.9236454457391687
30
0
10
9.8811855419657064
20
2.946009867787303
30
0
10
9.9407559436272059
20
2.9701431338630053
30
0
10
9.9802830615240481
20
2.9895026089923538
30
0
10
10
20
3
30
0
0
ENDSEC
0
SECTION
2
OBJECTS
0
DICTIONARY
5
C
100
AcDbDictionary
3
ACAD_GROUP
350
D
3
ACAD_MLINESTYLE
350
17
0
DICTIONARY
5
D
100
AcDbDictionary
0
DICTIONARY
5
1A
330
C
100
AcDbDictionary
0
DICTIONARY
5
17
100
AcDbDictionary
0
ENDSEC
0
EOF
