0
SECTION
2
HEADER
9
$INSUNITS
70
4
9
$ACADVER
1
AC1014
9
$HANDSEED
5
FFFF
0
ENDSEC
0
SECTION
2
TABLES
0
TABLE
2
VPORT
5
8
100
AcDbSymbolTable
0
ENDTAB
0
TABLE
2
LTYPE
5
5
100
AcDbSymbolTable
0
LTYPE
5
14
100
AcDbSymbolTableRecord
100
AcDbLinetypeTableRecord
2
BYBLOCK
70
0
0
LTYPE
5
15
100
AcDbSymbolTableRecord
100
AcDbLinetypeTableRecord
2
BYLAYER
70
0
0
ENDTAB
0
TABLE
2
LAYER
5
2
100
AcDbSymbolTable
70
2
0
LAYER
5
50
100
AcDbSymbolTableRecord
100
AcDbLayerTableRecord
2
0
70
0
6
CONTINUOUS
0
ENDTAB
0
TABLE
2
STYLE
5
3
100
AcDbSymbolTable
70
1
0
STYLE
5
11
100
AcDbSymbolTableRecord
100
AcDbTextStyleTableRecord
2
STANDARD
70
0
0
ENDTAB
0
TABLE
2
VIEW
5
6
100
AcDbSymbolTable
70
0
0
ENDTAB
0
TABLE
2
UCS
5
7
100
AcDbSymbolTable
70
0
0
ENDTAB
0
TABLE
2
APPID
5
9
100
AcDbSymbolTable
70
2
0
APPID
5
12
100
AcDbSymbolTableRecord
100
AcDbRegAppTableRecord
2
ACAD
70
0
0
ENDTAB
0
TABLE
2
DIMSTYLE
5
A
100
AcDbSymbolTable
70
1
0
ENDTAB
0
TABLE
2
BLOCK_RECORD
5
1
100
AcDbSymbolTable
70
1
0
BLOCK_RECORD
5
1F
100
AcDbSymbolTableRecord
100
AcDbBlockTableRecord
2
*MODEL_SPACE
0
BLOCK_RECORD
5
1B
100
AcDbSymbolTableRecord
100
AcDbBlockTableRecord
2
*PAPER_SPACE
0
ENDTAB
0
ENDSEC
0
SECTION
2
BLOCKS
0
BLOCK
5
20
100
AcDbEntity
100
AcDbBlockBegin
2
*MODEL_SPACE
0
ENDBLK
5
21
100
AcDbEntity
100
AcDbBlockEnd
0
BLOCK
5
1C
100
AcDbEntity
100
AcDbBlockBegin
2
*PAPER_SPACE
0
ENDBLK
5
1D
100
AcDbEntity
100
AcDbBlockEnd
0
ENDSEC
0
SECTION
2
ENTITIES
0
SPLINE
5
100
100
AcDbEntity
8
0
100
AcDbSpline
70
4
71
5
72
16
73
10
74
0
42
0.000000001
43
0.0000000001
44
0.0000000001
40
0
40
0
40
0
40
0
40
0
40
0
40
0.20000000000000001
40
0.40000000000000002
40
0.60000000000000009
40
0.80000000000000004
40
1
40
1
40
1
40
1
40
1
40
1
41
1
41
1
41
1
41
1
41
1
41
1
41
1
41
1
41
1
41
1
10
0
20
0
30
0
10
0
20
0.12000000000003158
30
0
10
0
20
0.36000000000007704
30
0
10
0
20
0.72000000000009301
30
0
10
0
20
1.2000000000000313
30
0
10
0
20
1.7999999999999146
30
0
10
0
20
2.2799999999998684
30
0
10
0
20
2.6399999999999042
30
0
10
0
20
2.8799999999999617
30
0
10
0
20
3
30
0
0
SPLINE
5
101
100
AcDbEntity
8
0
100
AcDbSpline
70
4
71
5
72
16
73
10
74
0
42
0.000000001
43
0.0000000001
44
0.0000000001
40
0
40
0
40
0
40
0
40
0
40
0
40
0.20000000000000001
40
0.40000000000000002
40
0.60000000000000009
40
0.80000000000000004
40
1
40
1
40
1
40
1
40
1
40
1
41
1
41
1
41
1
41
1
41
1
41
1
41
1
41
1
41
1
41
1
10
10
20
0
30
0
10
9.9999999999997495
20
0.12000000000003158
30
0
10
9.9999999999993197
20
0.36000000000007704
30
0
10
9.9999999999989129
20
0.72000000000009301
30
0
10
9.9999999999987672
20
1.2000000000000313
30
0
10
9.9999999999990248
20
1.7999999999999146
30
0
10
9.9999999999993889
20
2.2799999999998684
30
0
10
9.9999999999996998
20
2.6399999999999042
30
0
10
9.9999999999999005
20
2.8799999999999617
30
0
10
10
20
3
30
0
0
SPLINE
5
102
100
AcDbEntity
8
0
100
AcDbSpline
70
4
71
5
72
16
73
10
74
0
42
0.000000001
43
0.0000000001
44
0.0000000001
40
0
40
0
40
0
40
0
40
0
40
0
40
0.20000000000000001
40
0.40000000000000002
40
0.60000000000000009
40
0.80000000000000004
40
1
40
1
40
1
40
1
40
1
40
1
41
1
41
1
41
1
41
1
41
1
41
1
41
1
41
1
41
1
41
1
10
0
20
1.5
30
0
10
0.40000000000047375
20
1.499999999999694
30
0
10
1.2000000000012774
20
1.4999999999991638
30
0
10
2.4000000000020547
20
1.4999999999986278
30
0
10
4.0000000000023546
20
1.4999999999983737
30
0
10
6.0000000000019584
20
1.4999999999985913
30
0
10
7.6000000000012928
20
1.4999999999990359
30
0
10
8.800000000000697
20
1.4999999999994786
30
0
10
9.6000000000002395
20
1.4999999999998188
30
0
10
10
20
1.5
30
0
0
SPLINE
5
103
100
AcDbEntity
8
0
100
AcDbSpline
70
4
71
5
72
111
73
105
74
0
42
0.000000001
43
0.0000000001
44
0.0000000001
40
0
40
0
40
0
40
0
40
0
40
0
40
0.01
40
0.02
40
0.029999999999999999
40
0.040000000000000001
40
0.050000000000000003
40
0.060000000000000005
40
0.070000000000000007
40
0.080000000000000002
40
0.089999999999999997
40
0.099999999999999992
40
0.10999999999999999
40
0.11999999999999998
40
0.12999999999999998
40
0.13999999999999999
40
0.14999999999999999
40
0.16
40
0.17000000000000001
40
0.18000000000000002
40
0.19000000000000003
40
0.20000000000000004
40
0.21000000000000005
40
0.22000000000000006
40
0.23000000000000007
40
0.24000000000000007
40
0.25000000000000006
40
0.26000000000000006
40
0.27000000000000007
40
0.28000000000000008
40
0.29000000000000009
40
0.3000000000000001
40
0.31000000000000011
40
0.32000000000000012
40
0.33000000000000013
40
0.34000000000000014
40
0.35000000000000014
40
0.36000000000000015
40
0.37000000000000016
40
0.38000000000000017
40
0.39000000000000018
40
0.40000000000000019
40
0.4100000000000002
40
0.42000000000000021
40
0.43000000000000022
40
0.44000000000000022
40
0.45000000000000023
40
0.46000000000000024
40
0.47000000000000025
40
0.48000000000000026
40
0.49000000000000027
40
0.50000000000000022
40
0.51000000000000023
40
0.52000000000000024
40
0.53000000000000025
40
0.54000000000000026
40
0.55000000000000027
40
0.56000000000000028
40
0.57000000000000028
40
0.58000000000000029
40
0.5900000000000003
40
0.60000000000000031
40
0.61000000000000032
40
0.62000000000000033
40
0.63000000000000034
40
0.64000000000000035
40
0.65000000000000036
40
0.66000000000000036
40
0.67000000000000037
40
0.68000000000000038
40
0.69000000000000039
40
0.7000000000000004
40
0.71000000000000041
40
0.72000000000000042
40
0.73000000000000043
40
0.74000000000000044
40
0.75000000000000044
40
0.76000000000000045
40
0.77000000000000046
40
0.78000000000000047
40
0.79000000000000048
40
0.80000000000000049
40
0.8100000000000005
40
0.82000000000000051
40
0.83000000000000052
40
0.84000000000000052
40
0.85000000000000053
40
0.86000000000000054
40
0.87000000000000055
40
0.88000000000000056
40
0.89000000000000057
40
0.90000000000000058
40
0.91000000000000059
40
0.9200000000000006
40
0.9300000000000006
40
0.94000000000000061
40
0.95000000000000062
40
0.96000000000000063
40
0.97000000000000064
40
0.98000000000000065
40
0.99000000000000066
40
1
40
1
40
1
40
1
40
1
40
1
41
1
41
1
41
1
41
1
41
1
41
1
41
1
41
1
41
1
41
1
41
1
41
1
41
1
41
1
41
1
41
1
41
1
41
1
41
1
41
1
41
1
41
1
41
1
41
1
41
1
41
1
41
1
41
1
41
1
41
1
41
1
41
1
41
1
41
1
41
1
41
1
41
1
41
1
41
1
41
1
41
1
41
1
41
1
41
1
41
1
41
1
41
1
41
1
41
1
41
1
41
1
41
1
41
1
41
1
41
1
41
1
41
1
41
1
41
1
41
1
41
1
41
1
41
1
41
1
41
1
41
1
41
1
41
1
41
1
41
1
41
1
41
1
41
1
41
1
41
1
41
1
41
1
41
1
41
1
41
1
41
1
41
1
41
1
41
1
41
1
41
1
41
1
41
1
41
1
41
1
41
1
41
1
41
1
41
1
41
1
41
1
41
1
41
1
41
1
41
1
41
1
41
1
41
1
41
1
41
1
10
0
20
0
30
0
10
0.018982281950900279
20
0.015929211175496741
30
0
10
0.057124581070075515
20
0.046733488329439792
30
0
10
0.11487123422542264
20
0.089777461135253298
30
0
10
0.19293336454488075
20
0.14084357318412785
30
0
10
0.29226196239331698
20
0.19405206287262208
30
0
10
0.39325977431334336
20
0.23640466684356037
30
0
10
0.49576167824922746
20
0.26744346242472083
30
0
10
0.59949194374584469
20
0.28641648441286993
30
0
10
0.70403362383151269
20
0.29218812135328187
30
0
10
0.80891478004052297
20
0.28401879520463236
30
0
10
0.91370183334152266
20
0.26241734533092576
30
0
10
1.0180846232575138
20
0.2298879116693196
30
0
10
1.1219782404085494
20
0.19190721593516863
30
0
10
1.2255787816442438
20
0.15726041080629288
30
0
10
1.3291966829679167
20
0.13530327757091243
30
0
10
1.4331096199168958
20
0.13347128653196477
30
0
10
1.5374260251046135
20
0.15499135279704698
30
0
10
1.641900686904076
20
0.19579236926911592
30
0
10
1.7459169132840229
20
0.24416523929847339
30
0
10
1.8487659601293336
20
0.28537288682186884
30
0
10
1.9498763399812309
20
0.3053588190483047
30
0
10
2.0490296659181806
20
0.29439914747910634
30
0
10
2.146664284264606
20
0.25179876268857793
30
0
10
2.2438237061545077
20
0.18617660977055525
30
0
10
2.341744617560348
20
0.11116037634813547
30
0
10
2.4415226122505915
20
0.04220143146214772
30
0
10
2.5437887828751564
20
-0.006800395116501174
30
0
10
2.6482780910055443
20
-0.027434995702542889
30
0
10
2.7538184682782214
20
-0.018134802340663829
30
0
10
2.858878147564786
20
0.018067213103644484
30
0
10
2.9619976111136319
20
0.07491973543084228
30
0
10
3.0622163760048524
20
0.14458943653853534
30
0
10
3.1596312623563088
20
0.21941618014858877
30
0
10
3.2552921617878798
20
0.2925373232128583
30
0
10
3.35069731438089
20
0.3577699707225469
30
0
10
3.4473919315443529
20
0.40970134495587013
30
0
10
3.5465664746678662
20
0.44374034616737362
30
0
10
3.6485515471025343
20
0.45607204783259109
30
0
10
3.7527506301460001
20
0.44407995310965487
30
0
10
3.858069072584986
20
0.40724417157801757
30
0
10
3.9632247535215903
20
0.34802041245136506
30
0
10
4.0670786586379801
20
0.27249850037975115
30
0
10
4.1690273144294778
20
0.19173259763663475
30
0
10
4.2690191440387624
20
0.11995746090076809
30
0
10
4.367361833895397
20
0.071233799070052853
30
0
10
4.4645912188154933
20
0.056399635473525181
30
0
10
4.5613238313192532
20
0.080297281480985819
30
0
10
4.6580939636986898
20
0.13786680066602805
30
0
10
4.755307602177842
20
0.21562924415751106
30
0
10
4.8532671545979698
20
0.29614814761232744
30
0
10
4.9521741032575166
20
0.36172448092141235
30
0
10
5.0521406661982073
20
0.39806564493125224
30
0
10
5.1531977273979823
20
0.398810610764605
30
0
10
5.2553034318338678
20
0.36625670936566823
30
0
10
5.3583497632127495
20
0.30854871820887553
30
0
10
5.4621702770095748
20
0.23784893869946916
30
0
10
5.566546155039731
20
0.16813255628246626
30
0
10
5.6712158104036634
20
0.11308384551763237
30
0
10
5.7758693777497907
20
0.084270909457080087
30
0
10
5.8801367358187022
20
0.089606396726520085
30
0
10
5.9835745000273546
20
0.13161636996073342
30
0
10
6.0856600520409216
20
0.20600288582066961
30
0
10
6.1857652117631741
20
0.29950911501659305
30
0
10
6.2832925137410705
20
0.39325356977531856
30
0
10
6.3778341557326392
20
0.4669522054052081
30
0
10
6.4693361730282923
20
0.5030194098024463
30
0
10
6.5582312357468711
20
0.49029346709323829
30
0
10
6.6456592858689802
20
0.4290043210333131
30
0
10
6.7332773097457608
20
0.32976447436658141
30
0
10
6.8228596759260816
20
0.20945518203301552
30
0
10
6.9159567418254229
20
0.088055549602237659
30
0
10
7.0135451322771205
20
-0.014847725077397796
30
0
10
7.1156435139204435
20
-0.08357706017964911
30
0
10
7.2210534902276784
20
-0.1093840964077108
30
0
10
7.3278889772814821
20
-0.089766537577787547
30
0
10
7.4340317396407674
20
-0.028279049373737465
30
0
10
7.5375832857865399
20
0.06597647382086097
30
0
10
7.6373943274550928
20
0.17840191643200334
30
0
10
7.733302989622973
20
0.29022785962183728
30
0
10
7.8258226708696021
20
0.38209950670555626
30
0
10
7.9159516070032909
20
0.43718908777754473
30
0
10
8.0049352831004086
20
0.44445047999917192
30
0
10
8.0940461415607263
20
0.40193059743766807
30
0
10
8.1843645651273995
20
0.31973615005790351
30
0
10
8.2767450780873446
20
0.21547359586849199
30
0
10
8.3717746604231369
20
0.11013867414772169
30
0
10
8.4697291535541979
20
0.023667936468317188
30
0
10
8.5705412334925946
20
-0.028973960846607569
30
0
10
8.6737352063807567
20
-0.042939708005397592
30
0
10
8.7785350294923958
20
-0.022412762670879129
30
0
10
8.8840408101910384
20
0.022961044531284829
30
0
10
8.9893859344658438
20
0.080877821974029152
30
0
10
9.0938957377163838
20
0.13940105806530545
30
0
10
9.19726297898913
20
0.19014415752046437
30
0
10
9.2994729989654807
20
0.22785191178240152
30
0
10
9.4007014522120045
20
0.24956765838767903
30
0
10
9.5012221905545466
20
0.25395303642175959
30
0
10
9.6013106027882227
20
0.24054245628062704
30
0
10
9.7011498962789631
20
0.20903229268364604
30
0
10
9.8008500836969112
20
0.15924778619012217
30
0
10
9.8805429327282361
20
0.10473618673905956
30
0
10
9.9402829743591781
20
0.055583347288896121
30
0
10
9.9800965167606197
20
0.019140211720562839
30
0
10
10
20
0
30
0
0
SPLINE
5
104
100
AcDbEntity
8
0
100
AcDbSpline
70
4
71
5
72
111
73
105
74
0
42
0.000000001
43
0.0000000001
44
0.0000000001
40
0
40
0
40
0
40
0
40
0
40
0
40
0.01
40
0.02
40
0.029999999999999999
40
0.040000000000000001
40
0.050000000000000003
40
0.060000000000000005
40
0.070000000000000007
40
0.080000000000000002
40
0.089999999999999997
40
0.099999999999999992
40
0.10999999999999999
40
0.11999999999999998
40
0.12999999999999998
40
0.13999999999999999
40
0.14999999999999999
40
0.16
40
0.17000000000000001
40
0.18000000000000002
40
0.19000000000000003
40
0.20000000000000004
40
0.21000000000000005
40
0.22000000000000006
40
0.23000000000000007
40
0.24000000000000007
40
0.25000000000000006
40
0.26000000000000006
40
0.27000000000000007
40
0.28000000000000008
40
0.29000000000000009
40
0.3000000000000001
40
0.31000000000000011
40
0.32000000000000012
40
0.33000000000000013
40
0.34000000000000014
40
0.35000000000000014
40
0.36000000000000015
40
0.37000000000000016
40
0.38000000000000017
40
0.39000000000000018
40
0.40000000000000019
40
0.4100000000000002
40
0.42000000000000021
40
0.43000000000000022
40
0.44000000000000022
40
0.45000000000000023
40
0.46000000000000024
40
0.47000000000000025
40
0.48000000000000026
40
0.49000000000000027
40
0.50000000000000022
40
0.51000000000000023
40
0.52000000000000024
40
0.53000000000000025
40
0.54000000000000026
40
0.55000000000000027
40
0.56000000000000028
40
0.57000000000000028
40
0.58000000000000029
40
0.5900000000000003
40
0.60000000000000031
40
0.61000000000000032
40
0.62000000000000033
40
0.63000000000000034
40
0.64000000000000035
40
0.65000000000000036
40
0.66000000000000036
40
0.67000000000000037
40
0.68000000000000038
40
0.69000000000000039
40
0.7000000000000004
40
0.71000000000000041
40
0.72000000000000042
40
0.73000000000000043
40
0.74000000000000044
40
0.75000000000000044
40
0.76000000000000045
40
0.77000000000000046
40
0.78000000000000047
40
0.79000000000000048
40
0.80000000000000049
40
0.8100000000000005
40
0.82000000000000051
40
0.83000000000000052
40
0.84000000000000052
40
0.85000000000000053
40
0.86000000000000054
40
0.87000000000000055
40
0.88000000000000056
40
0.89000000000000057
40
0.90000000000000058
40
0.91000000000000059
40
0.9200000000000006
40
0.9300000000000006
40
0.94000000000000061
40
0.95000000000000062
40
0.96000000000000063
40
0.97000000000000064
40
0.98000000000000065
40
0.99000000000000066
40
1
40
1
40
1
40
1
40
1
40
1
41
1
41
1
41
1
41
1
41
1
41
1
41
1
41
1
41
1
41
1
41
1
41
1
41
1
41
1
41
1
41
1
41
1
41
1
41
1
41
1
41
1
41
1
41
1
41
1
41
1
41
1
41
1
41
1
41
1
41
1
41
1
41
1
41
1
41
1
41
1
41
1
41
1
41
1
41
1
41
1
41
1
41
1
41
1
41
1
41
1
41
1
41
1
41
1
41
1
41
1
41
1
41
1
41
1
41
1
41
1
41
1
41
1
41
1
41
1
41
1
41
1
41
1
41
1
41
1
41
1
41
1
41
1
41
1
41
1
41
1
41
1
41
1
41
1
41
1
41
1
41
1
41
1
41
1
41
1
41
1
41
1
41
1
41
1
41
1
41
1
41
1
41
1
41
1
41
1
41
1
41
1
41
1
41
1
41
1
41
1
41
1
41
1
41
1
41
1
41
1
41
1
41
1
41
1
41
1
41
1
10
0
20
3
30
0
10
0.020365712300939184
20
2.996222616079959
30
0
10
0.061078445394636631
20
2.9890470445362398
30
0
10
0.1220914695586678
20
2.9794213017758686
30
0
10
0.20333000747918389
20
2.9688623553082034
30
0
10
0.30469769383156325
20
2.9592793196592582
30
0
10
0.40590458057350259
20
2.9527740463797731
30
0
10
0.5069899170632447
20
2.9482750087384235
30
0
10
0.60801985225293476
20
2.9439773669062252
30
0
10
0.70909207487735904
20
2.9372160188859757
30
0
10
0.81030341056575417
20
2.9253400003521843
30
0
10
0.91171866398783274
20
2.9065524644843861
30
0
10
1.0133407259444498
20
2.8807182730772589
30
0
10
1.1150760312866634
20
2.8502929560990298
30
0
10
1.2167137975050411
20
2.8208912044012644
30
0
10
1.3180013858932642
20
2.7993369403402402
30
0
10
1.4187117382090884
20
2.7919227720758539
30
0
10
1.5187100037893191
20
2.8026866517792657
30
0
10
1.6180296042973843
20
2.831451091259173
30
0
10
1.7169171759963566
20
2.8726496245970075
30
0
10
1.8157304014118361
20
2.9178774642656506
30
0
10
1.9148544640217211
20
2.9579706449309673
30
0
10
2.0146143486175845
20
2.9851902572717792
30
0
10
2.115181727918114
20
2.9955438507509129
30
0
10
2.2165051637225517
20
2.990516250080236
30
0
10
2.3183922083920039
20
2.974961263167045
30
0
10
2.4205755338993282
20
2.9553919123863395
30
0
10
2.5227823472455171
20
2.938199774252344
30
0
10
2.6248090205125592
20
2.9277129182289081
30
0
10
2.7265731029422549
20
2.9249115181369389
30
0
10
2.8280769399982071
20
2.9286701519594054
30
0
10
2.9293850631339309
20
2.9366277782405072
30
0
10
3.0305967297913323
20
2.9461453431749876
30
0
10
3.1318193541225225
20
2.9553619321259577
30
0
10
3.2331455683768437
20
2.9637669264482787
30
0
10
3.3346429327754428
20
2.9715468159558678
30
0
10
3.4363399092066289
20
2.9791554196851457
30
0
10
3.5382157120395985
20
2.9868380913236332
30
0
10
3.6401826978650336
20
2.9940731872332211
30
0
10
3.742091730339121
20
2.9994016850171192
30
0
10
3.8437750560616335
20
3.0009520148711957
30
0
10
3.9450822841942017
20
2.9968122132765522
30
0
10
4.0459156634242355
20
2.9854481888881068
30
0
10
4.1462741305793607
20
2.9661397135168381
30
0
10
4.2462619803077564
20
2.9392645083389506
30
0
10
4.3460531826183626
20
2.9063415803317389
30
0
10
4.4458678291026468
20
2.8701888751313125
30
0
10
4.5459422436093879
20
2.8349248003524159
30
0
10
4.6465053004340664
20
2.8063054393333342
30
0
10
4.7477395560715223
20
2.7909271004326368
30
0
10
4.8497297194454951
20
2.7942094386145637
30
0
10
4.9524088165182718
20
2.8185289192540326
30
0
10
5.0555170359467949
20
2.8616439281807464
30
0
10
5.158525963656504
20
2.9141218388295131
30
0
10
5.2606975108760414
20
2.960781103935056
30
0
10
5.3612528680054536
20
2.9854169296018167
30
0
10
5.4595175018986524
20
2.9748363460551355
30
0
10
5.5550602461566099
20
2.9226515965543829
30
0
10
5.647874140472986
20
2.8344842946625053
30
0
10
5.7383683651008504
20
2.7268612735972813
30
0
10
5.8272186514549373
20
2.621399427204691
30
0
10
5.9152590659467039
20
2.5403554856511712
30
0
10
6.0033575227668114
20
2.5016568331794358
30
0
10
6.0922968104123729
20
2.5140535582144392
30
0
10
6.182657441092358
20
2.5724950246248635
30
0
10
6.2748294379635166
20
2.6628125527281448
30
0
10
6.3690198038105486
20
2.7659653067241532
30
0
10
6.4652599830301227
20
2.8626300347471529
30
0
10
6.5634166972214523
20
2.937225651489813
30
0
10
6.6631923980909491
20
2.983236933472964
30
0
10
6.7641738331622907
20
3.0026960079489271
30
0
10
6.8659042350556279
20
3.002664318385075
30
0
10
6.9679510673804304
20
2.9925518117879282
30
0
10
7.0699690416433461
20
2.981312036434447
30
0
10
7.1717818311460793
20
2.974131929244912
30
0
10
7.2733653195906269
20
2.9723856228147039
30
0
10
7.3747877887288311
20
2.9750744952587556
30
0
10
7.4761624764378096
20
2.979815205120488
30
0
10
7.5775983517375467
20
2.9839519445212135
30
0
10
7.6791431081515746
20
2.985776821244281
30
0
10
7.7807880807603036
20
2.984592924427349
30
0
10
7.8824917229947467
20
2.9804146248701007
30
0
10
7.9841971617674794
20
2.9737910412551924
30
0
10
8.0858513705814499
20
2.9655796550100533
30
0
10
8.1874258761165262
20
2.9567379423844953
30
0
10
8.2889151393285125
20
2.9481461824624771
30
0
10
8.3903307973413916
20
2.9404445022415575
30
0
10
8.4916974198225788
20
2.933858651931109
30
0
10
8.5930475487452149
20
2.9280435526293469
30
0
10
8.6944172905789081
20
2.9218832286881313
30
0
10
8.7958375888848508
20
2.9139243050082437
30
0
10
8.8973252143949768
20
2.9028604024914477
30
0
10
8.9988738162064834
20
2.887999459613221
30
0
10
9.1004450003360056
20
2.8697357573601949
30
0
10
9.2019591888496386
20
2.8500284641435587
30
0
10
9.3033103249811369
20
2.8318869418621571
30
0
10
9.404380875923497
20
2.8188436537510118
30
0
10
9.505056585307365
20
2.814436545601728
30
0
10
9.605241631445379
20
2.8216773323713862
30
0
10
9.7048727760613467
20
2.8425542666469905
30
0
10
9.8039122120439597
20
2.8782578036034305
30
0
10
9.8826554924571663
20
2.9191521562486806
30
0
10
9.9414355908509862
20
2.9568455333488282
30
0
10
9.9804990721471523
20
2.9850950729774057
30
0
10
10
20
3
30
0
0
ENDSEC
0
SECTION
2
OBJECTS
0
DICTIONARY
5
C
100
AcDbDictionary
3
ACAD_GROUP
350
D
3
ACAD_MLINESTYLE
350
17
0
DICTIONARY
5
D
100
AcDbDictionary
0
DICTIONARY
5
1A
330
C
100
AcDbDictionary
0
DICTIONARY
5
17
100
AcDbDictionary
0
ENDSEC
0
EOF
