0
SECTION
2
HEADER
9
$INSUNITS
70
4
9
$ACADVER
1
AC1014
9
$HANDSEED
5
FFFF
0
ENDSEC
0
SECTION
2
TABLES
0
TABLE
2
VPORT
5
8
100
AcDbSymbolTable
0
ENDTAB
0
TABLE
2
LTYPE
5
5
100
AcDbSymbolTable
0
LTYPE
5
14
100
AcDbSymbolTableRecord
100
AcDbLinetypeTableRecord
2
BYBLOCK
70
0
0
LTYPE
5
15
100
AcDbSymbolTableRecord
100
AcDbLinetypeTableRecord
2
BYLAYER
70
0
0
ENDTAB
0
TABLE
2
LAYER
5
2
100
AcDbSymbolTable
70
2
0
LAYER
5
50
100
AcDbSymbolTableRecord
100
AcDbLayerTableRecord
2
0
70
0
6
CONTINUOUS
0
ENDTAB
0
TABLE
2
STYLE
5
3
100
AcDbSymbolTable
70
1
0
STYLE
5
11
100
AcDbSymbolTableRecord
100
AcDbTextStyleTableRecord
2
STANDARD
70
0
0
ENDTAB
0
TABLE
2
VIEW
5
6
100
AcDbSymbolTable
70
0
0
ENDTAB
0
TABLE
2
UCS
5
7
100
AcDbSymbolTable
70
0
0
ENDTAB
0
TABLE
2
APPID
5
9
100
AcDbSymbolTable
70
2
0
APPID
5
12
100
AcDbSymbolTableRecord
100
AcDbRegAppTableRecord
2
ACAD
70
0
0
ENDTAB
0
TABLE
2
DIMSTYLE
5
A
100
AcDbSymbolTable
70
1
0
ENDTAB
0
TABLE
2
BLOCK_RECORD
5
1
100
AcDbSymbolTable
70
1
0
BLOCK_RECORD
5
1F
100
AcDbSymbolTableRecord
100
AcDbBlockTableRecord
2
*MODEL_SPACE
0
BLOCK_RECORD
5
1B
100
AcDbSymbolTableRecord
100
AcDbBlockTableRecord
2
*PAPER_SPACE
0
ENDTAB
0
ENDSEC
0
SECTION
2
BLOCKS
0
BLOCK
5
20
100
AcDbEntity
100
AcDbBlockBegin
2
*MODEL_SPACE
0
ENDBLK
5
21
100
AcDbEntity
100
AcDbBlockEnd
0
BLOCK
5
1C
100
AcDbEntity
100
AcDbBlockBegin
2
*PAPER_SPACE
0
ENDBLK
5
1D
100
AcDbEntity
100
AcDbBlockEnd
0
ENDSEC
0
SECTION
2
ENTITIES
0
SPLINE
5
100
100
AcDbEntity
8
0
100
AcDbSpline
70
4
71
5
72
16
73
10
74
0
42
0.000000001
43
0.0000000001
44
0.0000000001
40
0
40
0
40
0
40
0
40
0
40
0
40
0.20000000000000001
40
0.40000000000000002
40
0.60000000000000009
40
0.80000000000000004
40
1
40
1
40
1
40
1
40
1
40
1
41
1
41
1
41
1
41
1
41
1
41
1
41
1
41
1
41
1
41
1
10
0
20
0
30
0
10
0
20
0.12000000000003158
30
0
10
0
20
0.36000000000007704
30
0
10
0
20
0.72000000000009301
30
0
10
0
20
1.2000000000000313
30
0
10
0
20
1.7999999999999146
30
0
10
0
20
2.2799999999998684
30
0
10
0
20
2.6399999999999042
30
0
10
0
20
2.8799999999999617
30
0
10
0
20
3
30
0
0
SPLINE
5
101
100
AcDbEntity
8
0
100
AcDbSpline
70
4
71
5
72
16
73
10
74
0
42
0.000000001
43
0.0000000001
44
0.0000000001
40
0
40
0
40
0
40
0
40
0
40
0
40
0.20000000000000001
40
0.40000000000000002
40
0.60000000000000009
40
0.80000000000000004
40
1
40
1
40
1
40
1
40
1
40
1
41
1
41
1
41
1
41
1
41
1
41
1
41
1
41
1
41
1
41
1
10
10
20
0
30
0
10
9.9999999999997495
20
0.12000000000003158
30
0
10
9.9999999999993197
20
0.36000000000007704
30
0
10
9.9999999999989129
20
0.72000000000009301
30
0
10
9.9999999999987672
20
1.2000000000000313
30
0
10
9.9999999999990248
20
1.7999999999999146
30
0
10
9.9999999999993889
20
2.2799999999998684
30
0
10
9.9999999999996998
20
2.6399999999999042
30
0
10
9.9999999999999005
20
2.8799999999999617
30
0
10
10
20
3
30
0
0
SPLINE
5
102
100
AcDbEntity
8
0
100
AcDbSpline
70
4
71
5
72
16
73
10
74
0
42
0.000000001
43
0.0000000001
44
0.0000000001
40
0
40
0
40
0
40
0
40
0
40
0
40
0.20000000000000001
40
0.40000000000000002
40
0.60000000000000009
40
0.80000000000000004
40
1
40
1
40
1
40
1
40
1
40
1
41
1
41
1
41
1
41
1
41
1
41
1
41
1
41
1
41
1
41
1
10
0
20
1.5
30
0
10
0.40000000000047375
20
1.499999999999694
30
0
10
1.2000000000012774
20
1.4999999999991638
30
0
10
2.4000000000020547
20
1.4999999999986278
30
0
10
4.0000000000023546
20
1.4999999999983737
30
0
10
6.0000000000019584
20
1.4999999999985913
30
0
10
7.6000000000012928
20
1.4999999999990359
30
0
10
8.800000000000697
20
1.4999999999994786
30
0
10
9.6000000000002395
20
1.4999999999998188
30
0
10
10
20
1.5
30
0
0
SPLINE
5
103
100
AcDbEntity
8
0
100
AcDbSpline
70
4
71
5
72
111
73
105
74
0
42
0.000000001
43
0.0000000001
44
0.0000000001
40
0
40
0
40
0
40
0
40
0
40
0
40
0.01
40
0.02
40
0.029999999999999999
40
0.040000000000000001
40
0.050000000000000003
40
0.060000000000000005
40
0.070000000000000007
40
0.080000000000000002
40
0.089999999999999997
40
0.099999999999999992
40
0.10999999999999999
40
0.11999999999999998
40
0.12999999999999998
40
0.13999999999999999
40
0.14999999999999999
40
0.16
40
0.17000000000000001
40
0.18000000000000002
40
0.19000000000000003
40
0.20000000000000004
40
0.21000000000000005
40
0.22000000000000006
40
0.23000000000000007
40
0.24000000000000007
40
0.25000000000000006
40
0.26000000000000006
40
0.27000000000000007
40
0.28000000000000008
40
0.29000000000000009
40
0.3000000000000001
40
0.31000000000000011
40
0.32000000000000012
40
0.33000000000000013
40
0.34000000000000014
40
0.35000000000000014
40
0.36000000000000015
40
0.37000000000000016
40
0.38000000000000017
40
0.39000000000000018
40
0.40000000000000019
40
0.4100000000000002
40
0.42000000000000021
40
0.43000000000000022
40
0.44000000000000022
40
0.45000000000000023
40
0.46000000000000024
40
0.47000000000000025
40
0.48000000000000026
40
0.49000000000000027
40
0.50000000000000022
40
0.51000000000000023
40
0.52000000000000024
40
0.53000000000000025
40
0.54000000000000026
40
0.55000000000000027
40
0.56000000000000028
40
0.57000000000000028
40
0.58000000000000029
40
0.5900000000000003
40
0.60000000000000031
40
0.61000000000000032
40
0.62000000000000033
40
0.63000000000000034
40
0.64000000000000035
40
0.65000000000000036
40
0.66000000000000036
40
0.67000000000000037
40
0.68000000000000038
40
0.69000000000000039
40
0.7000000000000004
40
0.71000000000000041
40
0.72000000000000042
40
0.73000000000000043
40
0.74000000000000044
40
0.75000000000000044
40
0.76000000000000045
40
0.77000000000000046
40
0.78000000000000047
40
0.79000000000000048
40
0.80000000000000049
40
0.8100000000000005
40
0.82000000000000051
40
0.83000000000000052
40
0.84000000000000052
40
0.85000000000000053
40
0.86000000000000054
40
0.87000000000000055
40
0.88000000000000056
40
0.89000000000000057
40
0.90000000000000058
40
0.91000000000000059
40
0.9200000000000006
40
0.9300000000000006
40
0.94000000000000061
40
0.95000000000000062
40
0.96000000000000063
40
0.97000000000000064
40
0.98000000000000065
40
0.99000000000000066
40
1
40
1
40
1
40
1
40
1
40
1
41
1
41
1
41
1
41
1
41
1
41
1
41
1
41
1
41
1
41
1
41
1
41
1
41
1
41
1
41
1
41
1
41
1
41
1
41
1
41
1
41
1
41
1
41
1
41
1
41
1
41
1
41
1
41
1
41
1
41
1
41
1
41
1
41
1
41
1
41
1
41
1
41
1
41
1
41
1
41
1
41
1
41
1
41
1
41
1
41
1
41
1
41
1
41
1
41
1
41
1
41
1
41
1
41
1
41
1
41
1
41
1
41
1
41
1
41
1
41
1
41
1
41
1
41
1
41
1
41
1
41
1
41
1
41
1
41
1
41
1
41
1
41
1
41
1
41
1
41
1
41
1
41
1
41
1
41
1
41
1
41
1
41
1
41
1
41
1
41
1
41
1
41
1
41
1
41
1
41
1
41
1
41
1
41
1
41
1
41
1
41
1
41
1
41
1
41
1
41
1
41
1
41
1
41
1
41
1
41
1
10
0
20
0
30
0
10
0.018217026407446272
20
0.040276571754533544
30
0
10
0.054765725414235342
20
0.11569845122329066
30
0
10
0.1099327087351504
20
0.21343773518937945
30
0
10
0.18417670075179191
20
0.31296246973483594
30
0
10
0.2781173010922256
20
0.38691523084756457
30
0
10
0.37315975256768941
20
0.413036050225984
30
0
10
0.46923460958973551
20
0.39667923268984939
30
0
10
0.56622763095215123
20
0.34664883667360702
30
0
10
0.6639609301527567
20
0.27658059233389315
30
0
10
0.76222124988080275
20
0.20309368806695605
30
0
10
0.8608071970524549
20
0.14261165282015326
30
0
10
0.95957378323464626
20
0.10843107610986004
30
0
10
1.0584706374140724
20
0.10808057632834742
30
0
10
1.1576015774190582
20
0.13956960190031345
30
0
10
1.2571918706863119
20
0.19252091260727106
30
0
10
1.3574955236925459
20
0.25254140924527929
30
0
10
1.4587154450295592
20
0.30480066279384471
30
0
10
1.560929308644454
20
0.3375496830397402
30
0
10
1.6639854758337069
20
0.34662578844616576
30
0
10
1.7675361285480817
20
0.33517631738054005
30
0
10
1.8711598004241905
20
0.31020765745199613
30
0
10
1.9744615626849347
20
0.27998248363840395
30
0
10
2.0771724913781342
20
0.25130463628597671
30
0
10
2.1792749676842331
20
0.22624601539906675
30
0
10
2.2809513935196248
20
0.20305175729145147
30
0
10
2.3824771197202912
20
0.17838390509672439
30
0
10
2.4841294431088241
20
0.14917808812139402
30
0
10
2.5860959030463055
20
0.11452010834754181
30
0
10
2.6883670733749159
20
0.077887588888001152
30
0
10
2.7907890401895474
20
0.045621433124510419
30
0
10
2.8931436667635424
20
0.024743649776461582
30
0
10
2.995219691068896
20
0.020984663626965355
30
0
10
3.0968861933403375
20
0.036769660490803144
30
0
10
3.1981691003189585
20
0.069091059908122671
30
0
10
3.2992110957958842
20
0.11115604288967218
30
0
10
3.4002258783925572
20
0.15421519059940109
30
0
10
3.501454557219335
20
0.18932045227903377
30
0
10
3.6031211731603441
20
0.20911816791357768
30
0
10
3.7053886300773096
20
0.20961108210982113
30
0
10
3.8083364425594795
20
0.19010440470694559
30
0
10
3.9119367813993473
20
0.15320790130721973
30
0
10
4.016033896381912
20
0.10475694454705857
30
0
10
4.1203154821065908
20
0.053915375313332542
30
0
10
4.2243065352802303
20
0.012779672330616129
30
0
10
4.3274878411652935
20
-0.0067054767298169553
30
0
10
4.4294048602560139
20
0.0043297900240012776
30
0
10
4.5297702281916115
20
0.049003893017400969
30
0
10
4.62859300281026
20
0.12116491722977298
30
0
10
4.7262194899335439
20
0.20459258193328403
30
0
10
4.8231534370977771
20
0.278962692637436
30
0
10
4.9199152123024463
20
0.32461779465011498
30
0
10
5.0168932925890628
20
0.32757434623940657
30
0
10
5.11418072056059
20
0.28499008283569038
30
0
10
5.2114725694114359
20
0.20876738277723644
30
0
10
5.3082898817328772
20
0.11918798424551641
30
0
10
5.4041604474742932
20
0.039859415845088154
30
0
10
5.4988174220997168
20
-0.0078623294383130659
30
0
10
5.5923879063699067
20
-0.010187223305931237
30
0
10
5.6855928481759861
20
0.033567682054654463
30
0
10
5.7794582375396644
20
0.11444665171911657
30
0
10
5.8750283251485129
20
0.21738188647039658
30
0
10
5.9730621822951493
20
0.32478560838206355
30
0
10
6.0737735563784838
20
0.419904881755924
30
0
10
6.1764585409774568
20
0.49080956869329906
30
0
10
6.2797505302140433
20
0.53077810477700305
30
0
10
6.3820804807642819
20
0.53744531103612059
30
0
10
6.4820842921503576
20
0.51237646413211935
30
0
10
6.5789983963433478
20
0.46043353752205396
30
0
10
6.6731489239675152
20
0.3893175061213911
30
0
10
6.7656884402061106
20
0.308375391011244
30
0
10
6.8581731474839032
20
0.22730059914650744
30
0
10
6.9521779364407967
20
0.15480682866950995
30
0
10
7.0489349742903107
20
0.097452950699934163
30
0
10
7.1488651752901422
20
0.058056565803919241
30
0
10
7.2515415457140442
20
0.035660272768817003
30
0
10
7.3560656695304303
20
0.026972458048695001
30
0
10
7.4613419379024704
20
0.027434106740954877
30
0
10
7.5663681398310061
20
0.032367867255104286
30
0
10
7.6705822191317283
20
0.038265671737581421
30
0
10
7.7738786653672323
20
0.043166692112713533
30
0
10
7.8764303636633457
20
0.046473643152261365
30
0
10
7.9785678236520958
20
0.048966913052399558
30
0
10
8.0806414792598282
20
0.05268679462967929
30
0
10
8.1828738890634831
20
0.061004328800714276
30
0
10
8.2853473789939134
20
0.077638584224204818
30
0
10
8.3880290159667208
20
0.10543769406895943
30
0
10
8.4907821273325137
20
0.1452055521060566
30
0
10
8.5933845208121369
20
0.19458477127744453
30
0
10
8.6955407591141167
20
0.24670873641438926
30
0
10
8.7969438698112281
20
0.29217647141611358
30
0
10
8.8973406885823376
20
0.32132281630802906
30
0
10
8.9965966088304796
20
0.32639997306477686
30
0
10
9.0947591523568061
20
0.3037557655331326
30
0
10
9.192126222949689
20
0.25612862769084704
30
0
10
9.2891683559714995
20
0.19086248747127255
30
0
10
9.386446793759962
20
0.1179969635418873
30
0
10
9.484531391177013
20
0.04836630645963777
30
0
10
9.5839226792388725
20
-0.0082144989022789223
30
0
10
9.6849614025452837
20
-0.045038297034616363
30
0
10
9.7878488107223678
20
-0.058144554547323583
30
0
10
9.8717182958531087
20
-0.048063650602526646
30
0
10
9.9355123308447162
20
-0.02864345038603576
30
0
10
9.9784380504819925
20
-0.010426208347251394
30
0
10
10
20
0
30
0
0
SPLINE
5
104
100
AcDbEntity
8
0
100
AcDbSpline
70
4
71
5
72
111
73
105
74
0
42
0.000000001
43
0.0000000001
44
0.0000000001
40
0
40
0
40
0
40
0
40
0
40
0
40
0.01
40
0.02
40
0.029999999999999999
40
0.040000000000000001
40
0.050000000000000003
40
0.060000000000000005
40
0.070000000000000007
40
0.080000000000000002
40
0.089999999999999997
40
0.099999999999999992
40
0.10999999999999999
40
0.11999999999999998
40
0.12999999999999998
40
0.13999999999999999
40
0.14999999999999999
40
0.16
40
0.17000000000000001
40
0.18000000000000002
40
0.19000000000000003
40
0.20000000000000004
40
0.21000000000000005
40
0.22000000000000006
40
0.23000000000000007
40
0.24000000000000007
40
0.25000000000000006
40
0.26000000000000006
40
0.27000000000000007
40
0.28000000000000008
40
0.29000000000000009
40
0.3000000000000001
40
0.31000000000000011
40
0.32000000000000012
40
0.33000000000000013
40
0.34000000000000014
40
0.35000000000000014
40
0.36000000000000015
40
0.37000000000000016
40
0.38000000000000017
40
0.39000000000000018
40
0.40000000000000019
40
0.4100000000000002
40
0.42000000000000021
40
0.43000000000000022
40
0.44000000000000022
40
0.45000000000000023
40
0.46000000000000024
40
0.47000000000000025
40
0.48000000000000026
40
0.49000000000000027
40
0.50000000000000022
40
0.51000000000000023
40
0.52000000000000024
40
0.53000000000000025
40
0.54000000000000026
40
0.55000000000000027
40
0.56000000000000028
40
0.57000000000000028
40
0.58000000000000029
40
0.5900000000000003
40
0.60000000000000031
40
0.61000000000000032
40
0.62000000000000033
40
0.63000000000000034
40
0.64000000000000035
40
0.65000000000000036
40
0.66000000000000036
40
0.67000000000000037
40
0.68000000000000038
40
0.69000000000000039
40
0.7000000000000004
40
0.71000000000000041
40
0.72000000000000042
40
0.73000000000000043
40
0.74000000000000044
40
0.75000000000000044
40
0.76000000000000045
40
0.77000000000000046
40
0.78000000000000047
40
0.79000000000000048
40
0.80000000000000049
40
0.8100000000000005
40
0.82000000000000051
40
0.83000000000000052
40
0.84000000000000052
40
0.85000000000000053
40
0.86000000000000054
40
0.87000000000000055
40
0.88000000000000056
40
0.89000000000000057
40
0.90000000000000058
40
0.91000000000000059
40
0.9200000000000006
40
0.9300000000000006
40
0.94000000000000061
40
0.95000000000000062
40
0.96000000000000063
40
0.97000000000000064
40
0.98000000000000065
40
0.99000000000000066
40
1
40
1
40
1
40
1
40
1
40
1
41
1
41
1
41
1
41
1
41
1
41
1
41
1
41
1
41
1
41
1
41
1
41
1
41
1
41
1
41
1
41
1
41
1
41
1
41
1
41
1
41
1
41
1
41
1
41
1
41
1
41
1
41
1
41
1
41
1
41
1
41
1
41
1
41
1
41
1
41
1
41
1
41
1
41
1
41
1
41
1
41
1
41
1
41
1
41
1
41
1
41
1
41
1
41
1
41
1
41
1
41
1
41
1
41
1
41
1
41
1
41
1
41
1
41
1
41
1
41
1
41
1
41
1
41
1
41
1
41
1
41
1
41
1
41
1
41
1
41
1
41
1
41
1
41
1
41
1
41
1
41
1
41
1
41
1
41
1
41
1
41
1
41
1
41
1
41
1
41
1
41
1
41
1
41
1
41
1
41
1
41
1
41
1
41
1
41
1
41
1
41
1
41
1
41
1
41
1
41
1
41
1
41
1
41
1
41
1
41
1
10
0
20
3
30
0
10
0.021537937636628583
20
3.0179892684490839
30
0
10
0.064412913019451512
20
3.0495426611130467
30
0
10
0.1281226793085555
20
3.0835971127505331
30
0
10
0.21186341955842297
20
3.1024492242336867
30
0
10
0.31452580753740622
20
3.0828909767857375
30
0
10
0.4151636172162701
20
3.0236852030075587
30
0
10
0.51375705874379163
20
2.9317596363830134
30
0
10
0.6102726486645077
20
2.8188212262970538
30
0
10
0.70466697139421841
20
2.7020732298627803
30
0
10
0.79695520923277863
20
2.6005767414064307
30
0
10
0.88727016538478753
20
2.5321529710322799
30
0
10
0.97593066536750928
20
2.509904202714099
30
0
10
1.0634931054093533
20
2.5392921079836173
30
0
10
1.1508436255709362
20
2.6139533001409414
30
0
10
1.2390740471813619
20
2.7181677512603737
30
0
10
1.3292821082373658
20
2.8316864729283298
30
0
10
1.4223912219639883
20
2.9338819290876579
30
0
10
1.5189737770915008
20
3.0079608279848817
30
0
10
1.619044678593353
20
3.0456734535237304
30
0
10
1.7219522789954687
20
3.0502323681219994
30
0
10
1.8266749515928398
20
3.0316268795779906
30
0
10
1.9320674684137009
20
3.002912834937205
30
0
10
2.0371078454090989
20
2.9764149121218333
30
0
10
2.1411892963700709
20
2.9592738864131678
30
0
10
2.2442402245919517
20
2.951608045967129
30
0
10
2.3465131608285805
20
2.9497158899654305
30
0
10
2.4484408602371182
20
2.9482858106592058
30
0
10
2.5504775029364195
20
2.9427567415775382
30
0
10
2.6529173586374517
20
2.9322127692471827
30
0
10
2.7558366553664149
20
2.9197120912539627
30
0
10
2.8591686911430574
20
2.9099433948397069
30
0
10
2.9627431043838435
20
2.9075137280190577
30
0
10
3.0663385664839735
20
2.9151871927474993
30
0
10
3.1697325912626488
20
2.9316219260657457
30
0
10
3.2727376885174433
20
2.9518903715494789
30
0
10
3.3752259130810645
20
2.9695378359584641
30
0
10
3.4771596062046179
20
2.9782189453545338
30
0
10
3.5786142165223089
20
2.9733804302944304
30
0
10
3.6798184901523912
20
2.9542561523745512
30
0
10
3.7810898930833181
20
2.9233858503337222
30
0
10
3.8827430646375771
20
2.8854310637723368
30
0
10
3.9850042975789228
20
2.8462212052611644
30
0
10
4.0879303885260807
20
2.8117267249229205
30
0
10
4.1913072266539491
20
2.7870045084406634
30
0
10
4.2947463110442765
20
2.7757700554902054
30
0
10
4.3978127104442972
20
2.7800784570550379
30
0
10
4.5001419188724681
20
2.7999654303514672
30
0
10
4.6015613826263122
20
2.8331039574340928
30
0
10
4.7022102186680019
20
2.8744521988535561
30
0
10
4.8024299025527188
20
2.9174144788663083
30
0
10
4.9026541565999775
20
2.9550047590345101
30
0
10
5.0032999438096484
20
2.9810020052810371
30
0
10
5.1046563778349263
20
2.9911249507923716
30
0
10
5.2067790063562338
20
2.9841556032813781
30
0
10
5.3095491992697932
20
2.961416006429094
30
0
10
5.4127288065098957
20
2.9263004562657406
30
0
10
5.5160159771442254
20
2.8837782220856227
30
0
10
5.6191016404699887
20
2.8399337461205221
30
0
10
5.7217220131643112
20
2.8014228053246706
30
0
10
5.8236825910946477
20
2.774507079471296
30
0
10
5.9248875200993094
20
2.7641040425926802
30
0
10
6.0253629202138272
20
2.7728982545776737
30
0
10
6.125292354075035
20
2.8002647441903767
30
0
10
6.2250175772956879
20
2.8417738687443768
30
0
10
6.3249343738669968
20
2.8905275978207885
30
0
10
6.4254035781236194
20
2.9381836999288202
30
0
10
6.5266620063543366
20
2.9760934251493403
30
0
10
6.6287193923227701
20
2.9964101557822378
30
0
10
6.7313053975389172
20
2.993143112941949
30
0
10
6.8339670255712601
20
2.9628865662546473
30
0
10
6.9361392382583542
20
2.9056941578367641
30
0
10
7.0372255775777184
20
2.8257230611540418
30
0
10
7.13667567239363
20
2.7323975065144768
30
0
10
7.2340598202859745
20
2.6399227057078916
30
0
10
7.3291320075459767
20
2.5639143322172684
30
0
10
7.4218982484170315
20
2.5186251521408325
30
0
10
7.5126777100838051
20
2.5140351693533587
30
0
10
7.602179456814361
20
2.552753563542006
30
0
10
7.6915362339816786
20
2.6277163312554301
30
0
10
7.7820341860229014
20
2.7257492956068905
30
0
10
7.8748816619175335
20
2.8304516787435881
30
0
10
7.9709487263801684
20
2.9254439975942113
30
0
10
8.0705516824484835
20
2.9972182977927551
30
0
10
8.1731342768273585
20
3.0387793635548617
30
0
10
8.2774807964059942
20
3.0493231834315582
30
0
10
8.3821269722699512
20
3.0324161935934653
30
0
10
8.4857164266327878
20
2.9946507177853947
30
0
10
8.5873571395705852
20
2.9441356923541444
30
0
10
8.6870378112726314
20
2.8889765939902308
30
0
10
8.7854045786995734
20
2.8366354476829221
30
0
10
8.8834392850993122
20
2.7934629390887316
30
0
10
8.982164676644242
20
2.7641449679070091
30
0
10
9.0823567192883292
20
2.7512368536139649
30
0
10
9.1842056836308892
20
2.7545208123179314
30
0
10
9.2874193552396545
20
2.7716407006869699
30
0
10
9.3914152194530267
20
2.7989842759725398
30
0
10
9.4954826448495222
20
2.8324845247123265
30
0
10
9.5989550068588656
20
2.8684418281637516
30
0
10
9.7013844508646745
20
2.9043716289502197
30
0
10
9.8025042940762965
20
2.9387910656333105
30
0
10
9.8822458611812518
20
2.9645240957160683
30
0
10
9.941383056204554
20
2.9826993366631038
30
0
10
9.9805105661215183
20
2.9943164036813612
30
0
10
10
20
3
30
0
0
ENDSEC
0
SECTION
2
OBJECTS
0
DICTIONARY
5
C
100
AcDbDictionary
3
ACAD_GROUP
350
D
3
ACAD_MLINESTYLE
350
17
0
DICTIONARY
5
D
100
AcDbDictionary
0
DICTIONARY
5
1A
330
C
100
AcDbDictionary
0
DICTIONARY
5
17
100
AcDbDictionary
0
ENDSEC
0
EOF
