0
SECTION
2
HEADER
9
$INSUNITS
70
4
9
$ACADVER
1
AC1014
9
$HANDSEED
5
FFFF
0
ENDSEC
0
SECTION
2
TABLES
0
TABLE
2
VPORT
5
8
100
AcDbSymbolTable
0
ENDTAB
0
TABLE
2
LTYPE
5
5
100
AcDbSymbolTable
0
LTYPE
5
14
100
AcDbSymbolTableRecord
100
AcDbLinetypeTableRecord
2
BYBLOCK
70
0
0
LTYPE
5
15
100
AcDbSymbolTableRecord
100
AcDbLinetypeTableRecord
2
BYLAYER
70
0
0
ENDTAB
0
TABLE
2
LAYER
5
2
100
AcDbSymbolTable
70
2
0
LAYER
5
50
100
AcDbSymbolTableRecord
100
AcDbLayerTableRecord
2
0
70
0
6
CONTINUOUS
0
ENDTAB
0
TABLE
2
STYLE
5
3
100
AcDbSymbolTable
70
1
0
STYLE
5
11
100
AcDbSymbolTableRecord
100
AcDbTextStyleTableRecord
2
STANDARD
70
0
0
ENDTAB
0
TABLE
2
VIEW
5
6
100
AcDbSymbolTable
70
0
0
ENDTAB
0
TABLE
2
UCS
5
7
100
AcDbSymbolTable
70
0
0
ENDTAB
0
TABLE
2
APPID
5
9
100
AcDbSymbolTable
70
2
0
APPID
5
12
100
AcDbSymbolTableRecord
100
AcDbRegAppTableRecord
2
ACAD
70
0
0
ENDTAB
0
TABLE
2
DIMSTYLE
5
A
100
AcDbSymbolTable
70
1
0
ENDTAB
0
TABLE
2
BLOCK_RECORD
5
1
100
AcDbSymbolTable
70
1
0
BLOCK_RECORD
5
1F
100
AcDbSymbolTableRecord
100
AcDbBlockTableRecord
2
*MODEL_SPACE
0
BLOCK_RECORD
5
1B
100
AcDbSymbolTableRecord
100
AcDbBlockTableRecord
2
*PAPER_SPACE
0
ENDTAB
0
ENDSEC
0
SECTION
2
BLOCKS
0
BLOCK
5
20
100
AcDbEntity
100
AcDbBlockBegin
2
*MODEL_SPACE
0
ENDBLK
5
21
100
AcDbEntity
100
AcDbBlockEnd
0
BLOCK
5
1C
100
AcDbEntity
100
AcDbBlockBegin
2
*PAPER_SPACE
0
ENDBLK
5
1D
100
AcDbEntity
100
AcDbBlockEnd
0
ENDSEC
0
SECTION
2
ENTITIES
0
SPLINE
5
100
100
AcDbEntity
8
0
100
AcDbSpline
70
4
71
5
72
16
73
10
74
0
42
0.000000001
43
0.0000000001
44
0.0000000001
40
0
40
0
40
0
40
0
40
0
40
0
40
0.20000000000000001
40
0.40000000000000002
40
0.60000000000000009
40
0.80000000000000004
40
1
40
1
40
1
40
1
40
1
40
1
41
1
41
1
41
1
41
1
41
1
41
1
41
1
41
1
41
1
41
1
10
0
20
0
30
0
10
0
20
0.12000000000003158
30
0
10
0
20
0.36000000000007704
30
0
10
0
20
0.72000000000009301
30
0
10
0
20
1.2000000000000313
30
0
10
0
20
1.7999999999999146
30
0
10
0
20
2.2799999999998684
30
0
10
0
20
2.6399999999999042
30
0
10
0
20
2.8799999999999617
30
0
10
0
20
3
30
0
0
SPLINE
5
101
100
AcDbEntity
8
0
100
AcDbSpline
70
4
71
5
72
16
73
10
74
0
42
0.000000001
43
0.0000000001
44
0.0000000001
40
0
40
0
40
0
40
0
40
0
40
0
40
0.20000000000000001
40
0.40000000000000002
40
0.60000000000000009
40
0.80000000000000004
40
1
40
1
40
1
40
1
40
1
40
1
41
1
41
1
41
1
41
1
41
1
41
1
41
1
41
1
41
1
41
1
10
10
20
0
30
0
10
9.9999999999997495
20
0.12000000000003158
30
0
10
9.9999999999993197
20
0.36000000000007704
30
0
10
9.9999999999989129
20
0.72000000000009301
30
0
10
9.9999999999987672
20
1.2000000000000313
30
0
10
9.9999999999990248
20
1.7999999999999146
30
0
10
9.9999999999993889
20
2.2799999999998684
30
0
10
9.9999999999996998
20
2.6399999999999042
30
0
10
9.9999999999999005
20
2.8799999999999617
30
0
10
10
20
3
30
0
0
SPLINE
5
102
100
AcDbEntity
8
0
100
AcDbSpline
70
4
71
5
72
16
73
10
74
0
42
0.000000001
43
0.0000000001
44
0.0000000001
40
0
40
0
40
0
40
0
40
0
40
0
40
0.20000000000000001
40
0.40000000000000002
40
0.60000000000000009
40
0.80000000000000004
40
1
40
1
40
1
40
1
40
1
40
1
41
1
41
1
41
1
41
1
41
1
41
1
41
1
41
1
41
1
41
1
10
0
20
1.5
30
0
10
0.40000000000047375
20
1.499999999999694
30
0
10
1.2000000000012774
20
1.4999999999991638
30
0
10
2.4000000000020547
20
1.4999999999986278
30
0
10
4.0000000000023546
20
1.4999999999983737
30
0
10
6.0000000000019584
20
1.4999999999985913
30
0
10
7.6000000000012928
20
1.4999999999990359
30
0
10
8.800000000000697
20
1.4999999999994786
30
0
10
9.6000000000002395
20
1.4999999999998188
30
0
10
10
20
1.5
30
0
0
SPLINE
5
103
100
AcDbEntity
8
0
100
AcDbSpline
70
4
71
5
72
111
73
105
74
0
42
0.000000001
43
0.0000000001
44
0.0000000001
40
0
40
0
40
0
40
0
40
0
40
0
40
0.01
40
0.02
40
0.029999999999999999
40
0.040000000000000001
40
0.050000000000000003
40
0.060000000000000005
40
0.070000000000000007
40
0.080000000000000002
40
0.089999999999999997
40
0.099999999999999992
40
0.10999999999999999
40
0.11999999999999998
40
0.12999999999999998
40
0.13999999999999999
40
0.14999999999999999
40
0.16
40
0.17000000000000001
40
0.18000000000000002
40
0.19000000000000003
40
0.20000000000000004
40
0.21000000000000005
40
0.22000000000000006
40
0.23000000000000007
40
0.24000000000000007
40
0.25000000000000006
40
0.26000000000000006
40
0.27000000000000007
40
0.28000000000000008
40
0.29000000000000009
40
0.3000000000000001
40
0.31000000000000011
40
0.32000000000000012
40
0.33000000000000013
40
0.34000000000000014
40
0.35000000000000014
40
0.36000000000000015
40
0.37000000000000016
40
0.38000000000000017
40
0.39000000000000018
40
0.40000000000000019
40
0.4100000000000002
40
0.42000000000000021
40
0.43000000000000022
40
0.44000000000000022
40
0.45000000000000023
40
0.46000000000000024
40
0.47000000000000025
40
0.48000000000000026
40
0.49000000000000027
40
0.50000000000000022
40
0.51000000000000023
40
0.52000000000000024
40
0.53000000000000025
40
0.54000000000000026
40
0.55000000000000027
40
0.56000000000000028
40
0.57000000000000028
40
0.58000000000000029
40
0.5900000000000003
40
0.60000000000000031
40
0.61000000000000032
40
0.62000000000000033
40
0.63000000000000034
40
0.64000000000000035
40
0.65000000000000036
40
0.66000000000000036
40
0.67000000000000037
40
0.68000000000000038
40
0.69000000000000039
40
0.7000000000000004
40
0.71000000000000041
40
0.72000000000000042
40
0.73000000000000043
40
0.74000000000000044
40
0.75000000000000044
40
0.76000000000000045
40
0.77000000000000046
40
0.78000000000000047
40
0.79000000000000048
40
0.80000000000000049
40
0.8100000000000005
40
0.82000000000000051
40
0.83000000000000052
40
0.84000000000000052
40
0.85000000000000053
40
0.86000000000000054
40
0.87000000000000055
40
0.88000000000000056
40
0.89000000000000057
40
0.90000000000000058
40
0.91000000000000059
40
0.9200000000000006
40
0.9300000000000006
40
0.94000000000000061
40
0.95000000000000062
40
0.96000000000000063
40
0.97000000000000064
40
0.98000000000000065
40
0.99000000000000066
40
1
40
1
40
1
40
1
40
1
40
1
41
1
41
1
41
1
41
1
41
1
41
1
41
1
41
1
41
1
41
1
41
1
41
1
41
1
41
1
41
1
41
1
41
1
41
1
41
1
41
1
41
1
41
1
41
1
41
1
41
1
41
1
41
1
41
1
41
1
41
1
41
1
41
1
41
1
41
1
41
1
41
1
41
1
41
1
41
1
41
1
41
1
41
1
41
1
41
1
41
1
41
1
41
1
41
1
41
1
41
1
41
1
41
1
41
1
41
1
41
1
41
1
41
1
41
1
41
1
41
1
41
1
41
1
41
1
41
1
41
1
41
1
41
1
41
1
41
1
41
1
41
1
41
1
41
1
41
1
41
1
41
1
41
1
41
1
41
1
41
1
41
1
41
1
41
1
41
1
41
1
41
1
41
1
41
1
41
1
41
1
41
1
41
1
41
1
41
1
41
1
41
1
41
1
41
1
41
1
41
1
41
1
41
1
41
1
41
1
41
1
10
0
20
0
30
0
10
0.019975767696641406
20
0.0070555939328049719
30
0
10
0.059968880043280395
20
0.020800868339630435
30
0
10
0.12008327973514363
20
0.040321042962033142
30
0
10
0.2004853129139729
20
0.064152081772298697
30
0
10
0.3013982156042907
20
0.09025072189814623
30
0
10
0.40270460211774212
20
0.11257104931019957
30
0
10
0.50437049244858201
20
0.13094036390556998
30
0
10
0.60633876928203079
20
0.14507104796279571
30
0
10
0.70852401390835584
20
0.15453960551884049
30
0
10
0.81082742914747274
20
0.15896730718133889
30
0
10
0.91315122948652716
20
0.15819853339638504
30
0
10
1.0154127843751515
20
0.15246979822496218
30
0
10
1.1175599094527016
20
0.14260695816204336
30
0
10
1.2195826169600912
20
0.13014026952510532
30
0
10
1.321502745023063
20
0.11693229317490655
30
0
10
1.4233662833667193
20
0.10485192476341254
30
0
10
1.5252343718274846
20
0.095450510943972083
30
0
10
1.6271755887435344
20
0.089590248340847667
30
0
10
1.7292555621180437
20
0.087238109431846872
30
0
10
1.8315205888592683
20
0.087791744891348431
30
0
10
1.9339804922377049
20
0.090325155885060959
30
0
10
2.0365954120814096
20
0.093843137038215826
30
0
10
2.1392521759519529
20
0.097585681730138318
30
0
10
2.2417742822828961
20
0.1011305096111331
30
0
10
2.3439899235771704
20
0.10413152922066994
30
0
10
2.4457925904782218
20
0.10610775420531773
30
0
10
2.5471932780548059
20
0.10627636696719359
30
0
10
2.6484039924563803
20
0.1032107090313821
30
0
10
2.7498043503995691
20
0.095153537719285128
30
0
10
2.851778566075498
20
0.08102834422808998
30
0
10
2.9545760115857127
20
0.061366956925918287
30
0
10
3.058184250859612
20
0.039059784467963314
30
0
10
3.1621420161136706
20
0.02070659146284385
30
0
10
3.2656113628546999
20
0.0154809917229489
30
0
10
3.3676449192678213
20
0.032178333497188308
30
0
10
3.4674075199257071
20
0.076618900446406901
30
0
10
3.5643922549081513
20
0.14928026062533561
30
0
10
3.6587003975892936
20
0.24188152123269446
30
0
10
3.7509791586985006
20
0.33926289142071175
30
0
10
3.842187448967211
20
0.42385874955053143
30
0
10
3.9334117074896833
20
0.47949301898380092
30
0
10
4.0256707187953076
20
0.49514532737237721
30
0
10
4.1197020104694735
20
0.46947695366403724
30
0
10
4.2158301958033659
20
0.4126548552246585
30
0
10
4.3140679933085933
20
0.34082236061207799
30
0
10
4.4141732379859597
20
0.27186390346404815
30
0
10
4.5157233474799732
20
0.22083655788935511
30
0
10
4.6181817579314828
20
0.19512536343946438
30
0
10
4.7209688661822282
20
0.19094614375667585
30
0
10
4.8235345427726237
20
0.19809459731294166
30
0
10
4.9254340554007161
20
0.20382413772198901
30
0
10
5.0263962477067601
20
0.1968177668803977
30
0
10
5.1264103515309429
20
0.17168833133815756
30
0
10
5.2257570765768975
20
0.1314667188441512
30
0
10
5.3248758699711001
20
0.083913606791265194
30
0
10
5.4242583726600033
20
0.038851736465543171
30
0
10
5.5243372589725324
20
0.0052560786004433209
30
0
10
5.6253636371741225
20
-0.011928704431118308
30
0
10
5.7273310745464627
20
-0.013685295824310242
30
0
10
5.8300587694193347
20
-0.0044254716294444569
30
0
10
5.9332480298742185
20
0.0098337993253880505
30
0
10
6.0365483789486412
20
0.023401881859614976
30
0
10
6.1396214292390558
20
0.033173930091007296
30
0
10
6.2421986782929126
20
0.039490018167150795
30
0
10
6.3441177279800796
20
0.044308633277110682
30
0
10
6.4453700089778909
20
0.049883019761922769
30
0
10
6.5461299994990352
20
0.057427902343228011
30
0
10
6.6468263020804175
20
0.065325646265828485
30
0
10
6.748069640758569
20
0.069255964116506114
30
0
10
6.8504224383064276
20
0.06458796882132492
30
0
10
6.9541924234831329
20
0.048337239218045405
30
0
10
7.0592525691069543
20
0.02097350907054835
30
0
10
7.1647601792922675
20
-0.010899198196683469
30
0
10
7.2693024787097951
20
-0.035698159648525206
30
0
10
7.3713559371204349
20
-0.040861243472898885
30
0
10
7.4696757224752384
20
-0.016206448755184049
30
0
10
7.5636667929658099
20
0.042860244660060845
30
0
10
7.6538822117304512
20
0.13102086879246322
30
0
10
7.7418403424463831
20
0.23471826458602252
30
0
10
7.8295173846393844
20
0.33668754932392458
30
0
10
7.9189366501207106
20
0.41963843738934714
30
0
10
8.0117325142757636
20
0.47015405041875485
30
0
10
8.1086900516660485
20
0.48282033498420518
30
0
10
8.2093970275989339
20
0.46332004497091744
30
0
10
8.3127174525075489
20
0.42397178916651934
30
0
10
8.4171874244431049
20
0.37998697412333632
30
0
10
8.5214218538232327
20
0.34561781696511884
30
0
10
8.624560535575629
20
0.32996482461263521
30
0
10
8.7265640287133852
20
0.33410344773793843
30
0
10
8.8278686817681304
20
0.35387818404332239
30
0
10
8.9291277943787133
20
0.38191280875844102
30
0
10
9.0309368075841476
20
0.40981372795833626
30
0
10
9.1335238136016255
20
0.43055238789221456
30
0
10
9.2365896879597447
20
0.43991666723987366
30
0
10
9.3395176630721632
20
0.43559917815001209
30
0
10
9.4415140010853378
20
0.41674486747702294
30
0
10
9.5417656803131994
20
0.38334645487884822
30
0
10
9.6396155248784154
20
0.33563396017595365
30
0
10
9.7346411903567862
20
0.27372384660143112
30
0
10
9.8265854009277991
20
0.19770715510941955
30
0
10
9.8975753041162271
20
0.12564419111459366
30
0
10
9.9493559823869955
20
0.065278847733749257
30
0
10
9.9832269155597082
20
0.022227564607671571
30
0
10
10
20
0
30
0
0
SPLINE
5
104
100
AcDbEntity
8
0
100
AcDbSpline
70
4
71
5
72
111
73
105
74
0
42
0.000000001
43
0.0000000001
44
0.0000000001
40
0
40
0
40
0
40
0
40
0
40
0
40
0.01
40
0.02
40
0.029999999999999999
40
0.040000000000000001
40
0.050000000000000003
40
0.060000000000000005
40
0.070000000000000007
40
0.080000000000000002
40
0.089999999999999997
40
0.099999999999999992
40
0.10999999999999999
40
0.11999999999999998
40
0.12999999999999998
40
0.13999999999999999
40
0.14999999999999999
40
0.16
40
0.17000000000000001
40
0.18000000000000002
40
0.19000000000000003
40
0.20000000000000004
40
0.21000000000000005
40
0.22000000000000006
40
0.23000000000000007
40
0.24000000000000007
40
0.25000000000000006
40
0.26000000000000006
40
0.27000000000000007
40
0.28000000000000008
40
0.29000000000000009
40
0.3000000000000001
40
0.31000000000000011
40
0.32000000000000012
40
0.33000000000000013
40
0.34000000000000014
40
0.35000000000000014
40
0.36000000000000015
40
0.37000000000000016
40
0.38000000000000017
40
0.39000000000000018
40
0.40000000000000019
40
0.4100000000000002
40
0.42000000000000021
40
0.43000000000000022
40
0.44000000000000022
40
0.45000000000000023
40
0.46000000000000024
40
0.47000000000000025
40
0.48000000000000026
40
0.49000000000000027
40
0.50000000000000022
40
0.51000000000000023
40
0.52000000000000024
40
0.53000000000000025
40
0.54000000000000026
40
0.55000000000000027
40
0.56000000000000028
40
0.57000000000000028
40
0.58000000000000029
40
0.5900000000000003
40
0.60000000000000031
40
0.61000000000000032
40
0.62000000000000033
40
0.63000000000000034
40
0.64000000000000035
40
0.65000000000000036
40
0.66000000000000036
40
0.67000000000000037
40
0.68000000000000038
40
0.69000000000000039
40
0.7000000000000004
40
0.71000000000000041
40
0.72000000000000042
40
0.73000000000000043
40
0.74000000000000044
40
0.75000000000000044
40
0.76000000000000045
40
0.77000000000000046
40
0.78000000000000047
40
0.79000000000000048
40
0.80000000000000049
40
0.8100000000000005
40
0.82000000000000051
40
0.83000000000000052
40
0.84000000000000052
40
0.85000000000000053
40
0.86000000000000054
40
0.87000000000000055
40
0.88000000000000056
40
0.89000000000000057
40
0.90000000000000058
40
0.91000000000000059
40
0.9200000000000006
40
0.9300000000000006
40
0.94000000000000061
40
0.95000000000000062
40
0.96000000000000063
40
0.97000000000000064
40
0.98000000000000065
40
0.99000000000000066
40
1
40
1
40
1
40
1
40
1
40
1
41
1
41
1
41
1
41
1
41
1
41
1
41
1
41
1
41
1
41
1
41
1
41
1
41
1
41
1
41
1
41
1
41
1
41
1
41
1
41
1
41
1
41
1
41
1
41
1
41
1
41
1
41
1
41
1
41
1
41
1
41
1
41
1
41
1
41
1
41
1
41
1
41
1
41
1
41
1
41
1
41
1
41
1
41
1
41
1
41
1
41
1
41
1
41
1
41
1
41
1
41
1
41
1
41
1
41
1
41
1
41
1
41
1
41
1
41
1
41
1
41
1
41
1
41
1
41
1
41
1
41
1
41
1
41
1
41
1
41
1
41
1
41
1
41
1
41
1
41
1
41
1
41
1
41
1
41
1
41
1
41
1
41
1
41
1
41
1
41
1
41
1
41
1
41
1
41
1
41
1
41
1
41
1
41
1
41
1
41
1
41
1
41
1
41
1
41
1
41
1
41
1
41
1
41
1
41
1
41
1
10
0
20
3
30
0
10
0.022223604143083459
20
3.0209177300560026
30
0
10
0.066356808999572817
20
3.0580100324230086
30
0
10
0.1316146035999872
20
3.0994187464380731
30
0
10
0.2167406850835491
20
3.1261685606075194
30
0
10
0.32003027074020851
20
3.113315523317425
30
0
10
0.42027281781558834
20
3.0577002659006225
30
0
10
0.51761194256665444
20
2.9663397716029198
30
0
10
0.61229064241407105
20
2.8511310503176679
30
0
10
0.7046708634543053
20
2.7294314934688604
30
0
10
0.79521842983468916
20
2.6204604103852076
30
0
10
0.88449156528765283
20
2.5423282434510428
30
0
10
0.97313006328626162
20
2.5086490915833153
30
0
10
1.0618397031642104
20
2.5257259128657541
30
0
10
1.1513902940768139
20
2.5884720500272378
30
0
10
1.2425442650015286
20
2.6825385486887239
30
0
10
1.3359592242403888
20
2.788934104536704
30
0
10
1.4320936784188334
20
2.8879706858475007
30
0
10
1.5311228133450219
20
2.9631965368944484
30
0
10
1.6328221442652477
20
3.0060381423116587
30
0
10
1.736555191041693
20
3.0178344025808541
30
0
10
1.8414865074088147
20
3.0059924236894342
30
0
10
1.9467574117610018
20
2.9812490770430546
30
0
10
2.0516580575026961
20
2.9547044852552795
30
0
10
2.1558460593056461
20
2.9344425585649656
30
0
10
2.2593703850759232
20
2.9243267171867382
30
0
10
2.362492897564004
20
2.9251783150208741
30
0
10
2.4655585977545802
20
2.9353048881616264
30
0
10
2.5688591738051576
20
2.9512975849527434
30
0
10
2.6724664552060204
20
2.9686990082231057
30
0
10
2.7762505725373634
20
2.9827867646421709
30
0
10
2.8799895338299613
20
2.9893499396762886
30
0
10
2.9834522419549385
20
2.9855013855177615
30
0
10
3.0864868243938974
20
2.9704065116570937
30
0
10
3.1891216736656052
20
2.9462305260840163
30
0
10
3.2915206460777924
20
2.9172904472791679
30
0
10
3.3939109623579657
20
2.8888885744035124
30
0
10
3.4965203755873131
20
2.86625257000156
30
0
10
3.5995113122977278
20
2.8534427484870131
30
0
10
3.7029139164357741
20
2.8522410272171039
30
0
10
3.8066610787198711
20
2.8622457085622455
30
0
10
3.9106275929278889
20
2.8809866952348155
30
0
10
4.0146664237204241
20
2.9040698324344136
30
0
10
4.1186492018725565
20
2.9252190712636232
30
0
10
4.2224961134672672
20
2.9366157711364731
30
0
10
4.3261417893592151
20
2.9309972314240658
30
0
10
4.4295057531470752
20
2.9036906861202305
30
0
10
4.5324658457180824
20
2.8544177773325323
30
0
10
4.6348191574417541
20
2.7898049030705776
30
0
10
4.7362847212070198
20
2.7236204350229727
30
0
10
4.8365977212760622
20
2.6720005597784198
30
0
10
4.9355898674817835
20
2.6495029933077352
30
0
10
5.0332654669280465
20
2.665223536631542
30
0
10
5.1299030074378376
20
2.7179440529321175
30
0
10
5.2260672859876642
20
2.7948261999957196
30
0
10
5.3224409434194806
20
2.8773430277137741
30
0
10
5.4196910454521294
20
2.9457676831208413
30
0
10
5.5183291056681618
20
2.9840155690253196
30
0
10
5.6185562624615812
20
2.9848613052245283
30
0
10
5.7201674324359031
20
2.9534211336556209
30
0
10
5.8227331329024299
20
2.9022249226614028
30
0
10
5.9257483410748808
20
2.84736320404879
30
0
10
6.0287825208271526
20
2.804419448050754
30
0
10
6.1316565917893016
20
2.7840182437997991
30
0
10
6.2345212726878332
20
2.789059470506543
30
0
10
6.3376681703485058
20
2.8167900016957699
30
0
10
6.4413829303373751
20
2.8599480922704656
30
0
10
6.5457982112321575
20
2.9083122268705641
30
0
10
6.6507069231053872
20
2.94997874484342
30
0
10
6.7555380743971671
20
2.9730922641299888
30
0
10
6.8595455384426343
20
2.9679266159351232
30
0
10
6.9619476592298497
20
2.9290467592874276
30
0
10
7.0620765915892472
20
2.8570873338679443
30
0
10
7.1595488488920589
20
2.7615760748018814
30
0
10
7.2543067501423444
20
2.6591909494296067
30
0
10
7.3465758202451914
20
2.5693161458444451
30
0
10
7.4368506266972148
20
2.5102978330600516
30
0
10
7.5258634852343844
20
2.4956811275678499
30
0
10
7.6145739872108686
20
2.5298042298595105
30
0
10
7.7041066574991
20
2.6057562682588391
30
0
10
7.7955588601927586
20
2.7096017788625555
30
0
10
7.8898359045344515
20
2.823378385505471
30
0
10
7.9874695648578431
20
2.9286274850636937
30
0
10
8.0884567004795098
20
3.0095816829378554
30
0
10
8.192053543947722
20
3.0568064038316987
30
0
10
8.2970307292780205
20
3.0668566690312646
30
0
10
8.4019860343331914
20
3.0414710882041138
30
0
10
8.505633510819834
20
2.9869240346385451
30
0
10
8.6071093951218351
20
2.9133342794618016
30
0
10
8.7062518448733357
20
2.8339392212472783
30
0
10
8.8034011617843273
20
2.7629000022821808
30
0
10
8.899220647371811
20
2.7131888558619126
30
0
10
8.9945084891257689
20
2.6944155325687658
30
0
10
9.0900170380569278
20
2.7107450854264004
30
0
10
9.1862595681522929
20
2.7585908992506001
30
0
10
9.2835487915046038
20
2.8287458694251515
30
0
10
9.3820473425315143
20
2.9087262622066401
30
0
10
9.4818146315472749
20
2.9850898122453433
30
0
10
9.582853287749769
20
3.0456399420718983
30
0
10
9.685160597686103
20
3.082002837350009
30
0
10
9.7887355812530501
20
3.089243543108227
30
0
10
9.8726085964116876
20
3.069751700966477
30
0
10
9.9360828662060907
20
3.0405474878020593
30
0
10
9.9786521109212938
20
3.0145961221516253
30
0
10
10
20
3
30
0
0
ENDSEC
0
SECTION
2
OBJECTS
0
DICTIONARY
5
C
100
AcDbDictionary
3
ACAD_GROUP
350
D
3
ACAD_MLINESTYLE
350
17
0
DICTIONARY
5
D
100
AcDbDictionary
0
DICTIONARY
5
1A
330
C
100
AcDbDictionary
0
DICTIONARY
5
17
100
AcDbDictionary
0
ENDSEC
0
EOF
