0
SECTION
2
HEADER
9
$INSUNITS
70
4
9
$ACADVER
1
AC1014
9
$HANDSEED
5
FFFF
0
ENDSEC
0
SECTION
2
TABLES
0
TABLE
2
VPORT
5
8
100
AcDbSymbolTable
0
ENDTAB
0
TABLE
2
LTYPE
5
5
100
AcDbSymbolTable
0
LTYPE
5
14
100
AcDbSymbolTableRecord
100
AcDbLinetypeTableRecord
2
BYBLOCK
70
0
0
LTYPE
5
15
100
AcDbSymbolTableRecord
100
AcDbLinetypeTableRecord
2
BYLAYER
70
0
0
ENDTAB
0
TABLE
2
LAYER
5
2
100
AcDbSymbolTable
70
2
0
LAYER
5
50
100
AcDbSymbolTableRecord
100
AcDbLayerTableRecord
2
0
70
0
6
CONTINUOUS
0
ENDTAB
0
TABLE
2
STYLE
5
3
100
AcDbSymbolTable
70
1
0
STYLE
5
11
100
AcDbSymbolTableRecord
100
AcDbTextStyleTableRecord
2
STANDARD
70
0
0
ENDTAB
0
TABLE
2
VIEW
5
6
100
AcDbSymbolTable
70
0
0
ENDTAB
0
TABLE
2
UCS
5
7
100
AcDbSymbolTable
70
0
0
ENDTAB
0
TABLE
2
APPID
5
9
100
AcDbSymbolTable
70
2
0
APPID
5
12
100
AcDbSymbolTableRecord
100
AcDbRegAppTableRecord
2
ACAD
70
0
0
ENDTAB
0
TABLE
2
DIMSTYLE
5
A
100
AcDbSymbolTable
70
1
0
ENDTAB
0
TABLE
2
BLOCK_RECORD
5
1
100
AcDbSymbolTable
70
1
0
BLOCK_RECORD
5
1F
100
AcDbSymbolTableRecord
100
AcDbBlockTableRecord
2
*MODEL_SPACE
0
BLOCK_RECORD
5
1B
100
AcDbSymbolTableRecord
100
AcDbBlockTableRecord
2
*PAPER_SPACE
0
ENDTAB
0
ENDSEC
0
SECTION
2
BLOCKS
0
BLOCK
5
20
100
AcDbEntity
100
AcDbBlockBegin
2
*MODEL_SPACE
0
ENDBLK
5
21
100
AcDbEntity
100
AcDbBlockEnd
0
BLOCK
5
1C
100
AcDbEntity
100
AcDbBlockBegin
2
*PAPER_SPACE
0
ENDBLK
5
1D
100
AcDbEntity
100
AcDbBlockEnd
0
ENDSEC
0
SECTION
2
ENTITIES
0
SPLINE
5
100
100
AcDbEntity
8
0
100
AcDbSpline
70
4
71
5
72
16
73
10
74
0
42
0.000000001
43
0.0000000001
44
0.0000000001
40
0
40
0
40
0
40
0
40
0
40
0
40
0.20000000000000001
40
0.40000000000000002
40
0.60000000000000009
40
0.80000000000000004
40
1
40
1
40
1
40
1
40
1
40
1
41
1
41
1
41
1
41
1
41
1
41
1
41
1
41
1
41
1
41
1
10
0
20
0
30
0
10
0
20
0.12000000000003158
30
0
10
0
20
0.36000000000007704
30
0
10
0
20
0.72000000000009301
30
0
10
0
20
1.2000000000000313
30
0
10
0
20
1.7999999999999146
30
0
10
0
20
2.2799999999998684
30
0
10
0
20
2.6399999999999042
30
0
10
0
20
2.8799999999999617
30
0
10
0
20
3
30
0
0
SPLINE
5
101
100
AcDbEntity
8
0
100
AcDbSpline
70
4
71
5
72
16
73
10
74
0
42
0.000000001
43
0.0000000001
44
0.0000000001
40
0
40
0
40
0
40
0
40
0
40
0
40
0.20000000000000001
40
0.40000000000000002
40
0.60000000000000009
40
0.80000000000000004
40
1
40
1
40
1
40
1
40
1
40
1
41
1
41
1
41
1
41
1
41
1
41
1
41
1
41
1
41
1
41
1
10
10
20
0
30
0
10
9.9999999999997495
20
0.12000000000003158
30
0
10
9.9999999999993197
20
0.36000000000007704
30
0
10
9.9999999999989129
20
0.72000000000009301
30
0
10
9.9999999999987672
20
1.2000000000000313
30
0
10
9.9999999999990248
20
1.7999999999999146
30
0
10
9.9999999999993889
20
2.2799999999998684
30
0
10
9.9999999999996998
20
2.6399999999999042
30
0
10
9.9999999999999005
20
2.8799999999999617
30
0
10
10
20
3
30
0
0
SPLINE
5
102
100
AcDbEntity
8
0
100
AcDbSpline
70
4
71
5
72
16
73
10
74
0
42
0.000000001
43
0.0000000001
44
0.0000000001
40
0
40
0
40
0
40
0
40
0
40
0
40
0.20000000000000001
40
0.40000000000000002
40
0.60000000000000009
40
0.80000000000000004
40
1
40
1
40
1
40
1
40
1
40
1
41
1
41
1
41
1
41
1
41
1
41
1
41
1
41
1
41
1
41
1
10
0
20
1.5
30
0
10
0.40000000000047375
20
1.499999999999694
30
0
10
1.2000000000012774
20
1.4999999999991638
30
0
10
2.4000000000020547
20
1.4999999999986278
30
0
10
4.0000000000023546
20
1.4999999999983737
30
0
10
6.0000000000019584
20
1.4999999999985913
30
0
10
7.6000000000012928
20
1.4999999999990359
30
0
10
8.800000000000697
20
1.4999999999994786
30
0
10
9.6000000000002395
20
1.4999999999998188
30
0
10
10
20
1.5
30
0
0
SPLINE
5
103
100
AcDbEntity
8
0
100
AcDbSpline
70
4
71
5
72
111
73
105
74
0
42
0.000000001
43
0.0000000001
44
0.0000000001
40
0
40
0
40
0
40
0
40
0
40
0
40
0.01
40
0.02
40
0.029999999999999999
40
0.040000000000000001
40
0.050000000000000003
40
0.060000000000000005
40
0.070000000000000007
40
0.080000000000000002
40
0.089999999999999997
40
0.099999999999999992
40
0.10999999999999999
40
0.11999999999999998
40
0.12999999999999998
40
0.13999999999999999
40
0.14999999999999999
40
0.16
40
0.17000000000000001
40
0.18000000000000002
40
0.19000000000000003
40
0.20000000000000004
40
0.21000000000000005
40
0.22000000000000006
40
0.23000000000000007
40
0.24000000000000007
40
0.25000000000000006
40
0.26000000000000006
40
0.27000000000000007
40
0.28000000000000008
40
0.29000000000000009
40
0.3000000000000001
40
0.31000000000000011
40
0.32000000000000012
40
0.33000000000000013
40
0.34000000000000014
40
0.35000000000000014
40
0.36000000000000015
40
0.37000000000000016
40
0.38000000000000017
40
0.39000000000000018
40
0.40000000000000019
40
0.4100000000000002
40
0.42000000000000021
40
0.43000000000000022
40
0.44000000000000022
40
0.45000000000000023
40
0.46000000000000024
40
0.47000000000000025
40
0.48000000000000026
40
0.49000000000000027
40
0.50000000000000022
40
0.51000000000000023
40
0.52000000000000024
40
0.53000000000000025
40
0.54000000000000026
40
0.55000000000000027
40
0.56000000000000028
40
0.57000000000000028
40
0.58000000000000029
40
0.5900000000000003
40
0.60000000000000031
40
0.61000000000000032
40
0.62000000000000033
40
0.63000000000000034
40
0.64000000000000035
40
0.65000000000000036
40
0.66000000000000036
40
0.67000000000000037
40
0.68000000000000038
40
0.69000000000000039
40
0.7000000000000004
40
0.71000000000000041
40
0.72000000000000042
40
0.73000000000000043
40
0.74000000000000044
40
0.75000000000000044
40
0.76000000000000045
40
0.77000000000000046
40
0.78000000000000047
40
0.79000000000000048
40
0.80000000000000049
40
0.8100000000000005
40
0.82000000000000051
40
0.83000000000000052
40
0.84000000000000052
40
0.85000000000000053
40
0.86000000000000054
40
0.87000000000000055
40
0.88000000000000056
40
0.89000000000000057
40
0.90000000000000058
40
0.91000000000000059
40
0.9200000000000006
40
0.9300000000000006
40
0.94000000000000061
40
0.95000000000000062
40
0.96000000000000063
40
0.97000000000000064
40
0.98000000000000065
40
0.99000000000000066
40
1
40
1
40
1
40
1
40
1
40
1
41
1
41
1
41
1
41
1
41
1
41
1
41
1
41
1
41
1
41
1
41
1
41
1
41
1
41
1
41
1
41
1
41
1
41
1
41
1
41
1
41
1
41
1
41
1
41
1
41
1
41
1
41
1
41
1
41
1
41
1
41
1
41
1
41
1
41
1
41
1
41
1
41
1
41
1
41
1
41
1
41
1
41
1
41
1
41
1
41
1
41
1
41
1
41
1
41
1
41
1
41
1
41
1
41
1
41
1
41
1
41
1
41
1
41
1
41
1
41
1
41
1
41
1
41
1
41
1
41
1
41
1
41
1
41
1
41
1
41
1
41
1
41
1
41
1
41
1
41
1
41
1
41
1
41
1
41
1
41
1
41
1
41
1
41
1
41
1
41
1
41
1
41
1
41
1
41
1
41
1
41
1
41
1
41
1
41
1
41
1
41
1
41
1
41
1
41
1
41
1
41
1
41
1
41
1
41
1
41
1
10
0
20
0
30
0
10
0.020213290129888671
20
0.00047753522673895244
30
0
10
0.060641187059563555
20
0.0024575909885684315
30
0
10
0.12128698248497506
20
0.0085026738721199011
30
0
10
0.20215594421456434
20
0.022713409059855555
30
0
10
0.30325638046046594
20
0.050307222106330297
30
0
10
0.4043742314426701
20
0.086452259581888818
30
0
10
0.50551585635306995
20
0.12859433056812358
30
0
10
0.60669183597826282
20
0.17244155404270056
30
0
10
0.70791806659828371
20
0.21162334777486744
30
0
10
0.80921654356335093
20
0.23949997929185643
30
0
10
0.91061646932031903
20
0.25091538922333761
30
0
10
1.0121546326858089
20
0.24388745919983718
30
0
10
1.1138775193435027
20
0.22152322029895882
30
0
10
1.2158386486061015
20
0.19327382060117834
30
0
10
1.3180622647491311
20
0.17112208093216882
30
0
10
1.4205080433989474
20
0.16612749702253993
30
0
10
1.523039699823763
20
0.18508085192868035
30
0
10
1.6253817203671121
20
0.22653104105049349
30
0
10
1.7271122046180336
20
0.27885305112297565
30
0
10
1.8277841283092622
20
0.32574970202220638
30
0
10
1.9270302814869777
20
0.35072365714474873
30
0
10
2.0246664828193035
20
0.34164737771137954
30
0
10
2.1208149176676057
20
0.29601388695125141
30
0
10
2.2159585932994554
20
0.2236426636475573
30
0
10
2.3107734801668012
20
0.14106304312042939
30
0
10
2.405998548622879
20
0.067320669053342524
30
0
10
2.5022917249864878
20
0.019251890389279949
30
0
10
2.6000899957297738
20
0.0069229151817380343
30
0
10
2.6994727132747958
20
0.029166394433840698
30
0
10
2.8002607340342638
20
0.077065062423685271
30
0
10
2.9021096401686046
20
0.13723427912941411
30
0
10
3.0046043934992124
20
0.1951550861633046
30
0
10
3.1073548767289267
20
0.23853540372984489
30
0
10
3.2100866605264584
20
0.26051573247733395
30
0
10
3.3126143627934592
20
0.25886900725950601
30
0
10
3.4148190902486126
20
0.23537312088990692
30
0
10
3.5166255675299589
20
0.1950967812611818
30
0
10
3.6179766962561599
20
0.14578157502879133
30
0
10
3.7188172954394769
20
0.097017933665377004
30
0
10
3.8191276394672351
20
0.058426184408640877
30
0
10
3.9189527233662873
20
0.037901584249012521
30
0
10
4.0184295294875589
20
0.039947740821219532
30
0
10
4.117823857718065
20
0.063703326399693963
30
0
10
4.2175373101155307
20
0.10189770103694015
30
0
10
4.3179786438403873
20
0.14411419906390155
30
0
10
4.4194484385233848
20
0.1795468704519092
30
0
10
4.5220289953982391
20
0.19979151870796516
30
0
10
4.6254472802107873
20
0.20200407117236241
30
0
10
4.7290240323078745
20
0.1907405905787814
30
0
10
4.8319449940630186
20
0.174649908163929
30
0
10
4.9334950791442322
20
0.16387442460285179
30
0
10
5.0332813182575276
20
0.16735319395479376
30
0
10
5.1315220239926518
20
0.18974240283585592
30
0
10
5.2291051532103836
20
0.22990753323272833
30
0
10
5.327168352690502
20
0.28283466833114768
30
0
10
5.4267649664937565
20
0.34082919678487911
30
0
10
5.5285265246417028
20
0.39497633356176348
30
0
10
5.6322532656614968
20
0.43653879139349083
30
0
10
5.7367687492826125
20
0.45821592791997801
30
0
10
5.840475013445884
20
0.45480401177910379
30
0
10
5.9417969097414014
20
0.42404520851591987
30
0
10
6.0396253447962946
20
0.36725614098165305
30
0
10
6.1338692967533861
20
0.29040663537896561
30
0
10
6.2255796329475777
20
0.20375805166757519
30
0
10
6.3164005617118866
20
0.11932203009216034
30
0
10
6.4081799280046337
20
0.048827321925742385
30
0
10
6.5025191095597759
20
0.0015007846136992813
30
0
10
6.6003404195579947
20
-0.018117748625176556
30
0
10
6.7014695775525066
20
-0.012254433058541949
30
0
10
6.8050166323612613
20
0.012324998829991935
30
0
10
6.9097353683581737
20
0.046425575410544956
30
0
10
7.0143803560385294
20
0.080528314586191682
30
0
10
7.1180886970597008
20
0.10700607915235735
30
0
10
7.2206818685409759
20
0.12197228081455253
30
0
10
7.3224149188621972
20
0.12451825265465902
30
0
10
7.4237785760022392
20
0.11623771526045995
30
0
10
7.5252921367414221
20
0.10062002797585604
30
0
10
7.627274572459708
20
0.082553568625454432
30
0
10
7.7297053452266242
20
0.067622235969370809
30
0
10
7.8323780715676143
20
0.060909298348884068
30
0
10
7.935008686602032
20
0.065797554121208635
30
0
10
8.0373509303567374
20
0.082948706179688594
30
0
10
8.1393339170804193
20
0.10877818507676663
30
0
10
8.241104525883042
20
0.13559054263531894
30
0
10
8.342895827047915
20
0.1545736722375349
30
0
10
8.4449290055212689
20
0.15831098298220592
30
0
10
8.5473139468574733
20
0.14315273384831614
30
0
10
8.6499209531429919
20
0.112461640591857
30
0
10
8.7523751384274959
20
0.076438560720246199
30
0
10
8.854195512282967
20
0.047983036883947255
30
0
10
8.9549013967026951
20
0.039423886001446903
30
0
10
9.0541210715038627
20
0.059248149272102459
30
0
10
9.1517267058150136
20
0.1079623790558522
30
0
10
9.2478444153400083
20
0.17794534164614267
30
0
10
9.3427579645349503
20
0.25667987597925068
30
0
10
9.4368411298483039
20
0.32908113199963684
30
0
10
9.5304823696659895
20
0.38005312394929669
30
0
10
9.6240031992709145
20
0.39728472097939715
30
0
10
9.717611121135171
20
0.37282460743931167
30
0
10
9.8114328618319977
20
0.30183962650799373
30
0
10
9.8867111597419228
20
0.20593949881667878
30
0
10
9.9433036023898485
20
0.1116608308864428
30
0
10
9.9810912997022889
20
0.038875742832370608
30
0
10
10
20
0
30
0
0
SPLINE
5
104
100
AcDbEntity
8
0
100
AcDbSpline
70
4
71
5
72
111
73
105
74
0
42
0.000000001
43
0.0000000001
44
0.0000000001
40
0
40
0
40
0
40
0
40
0
40
0
40
0.01
40
0.02
40
0.029999999999999999
40
0.040000000000000001
40
0.050000000000000003
40
0.060000000000000005
40
0.070000000000000007
40
0.080000000000000002
40
0.089999999999999997
40
0.099999999999999992
40
0.10999999999999999
40
0.11999999999999998
40
0.12999999999999998
40
0.13999999999999999
40
0.14999999999999999
40
0.16
40
0.17000000000000001
40
0.18000000000000002
40
0.19000000000000003
40
0.20000000000000004
40
0.21000000000000005
40
0.22000000000000006
40
0.23000000000000007
40
0.24000000000000007
40
0.25000000000000006
40
0.26000000000000006
40
0.27000000000000007
40
0.28000000000000008
40
0.29000000000000009
40
0.3000000000000001
40
0.31000000000000011
40
0.32000000000000012
40
0.33000000000000013
40
0.34000000000000014
40
0.35000000000000014
40
0.36000000000000015
40
0.37000000000000016
40
0.38000000000000017
40
0.39000000000000018
40
0.40000000000000019
40
0.4100000000000002
40
0.42000000000000021
40
0.43000000000000022
40
0.44000000000000022
40
0.45000000000000023
40
0.46000000000000024
40
0.47000000000000025
40
0.48000000000000026
40
0.49000000000000027
40
0.50000000000000022
40
0.51000000000000023
40
0.52000000000000024
40
0.53000000000000025
40
0.54000000000000026
40
0.55000000000000027
40
0.56000000000000028
40
0.57000000000000028
40
0.58000000000000029
40
0.5900000000000003
40
0.60000000000000031
40
0.61000000000000032
40
0.62000000000000033
40
0.63000000000000034
40
0.64000000000000035
40
0.65000000000000036
40
0.66000000000000036
40
0.67000000000000037
40
0.68000000000000038
40
0.69000000000000039
40
0.7000000000000004
40
0.71000000000000041
40
0.72000000000000042
40
0.73000000000000043
40
0.74000000000000044
40
0.75000000000000044
40
0.76000000000000045
40
0.77000000000000046
40
0.78000000000000047
40
0.79000000000000048
40
0.80000000000000049
40
0.8100000000000005
40
0.82000000000000051
40
0.83000000000000052
40
0.84000000000000052
40
0.85000000000000053
40
0.86000000000000054
40
0.87000000000000055
40
0.88000000000000056
40
0.89000000000000057
40
0.90000000000000058
40
0.91000000000000059
40
0.9200000000000006
40
0.9300000000000006
40
0.94000000000000061
40
0.95000000000000062
40
0.96000000000000063
40
0.97000000000000064
40
0.98000000000000065
40
0.99000000000000066
40
1
40
1
40
1
40
1
40
1
40
1
41
1
41
1
41
1
41
1
41
1
41
1
41
1
41
1
41
1
41
1
41
1
41
1
41
1
41
1
41
1
41
1
41
1
41
1
41
1
41
1
41
1
41
1
41
1
41
1
41
1
41
1
41
1
41
1
41
1
41
1
41
1
41
1
41
1
41
1
41
1
41
1
41
1
41
1
41
1
41
1
41
1
41
1
41
1
41
1
41
1
41
1
41
1
41
1
41
1
41
1
41
1
41
1
41
1
41
1
41
1
41
1
41
1
41
1
41
1
41
1
41
1
41
1
41
1
41
1
41
1
41
1
41
1
41
1
41
1
41
1
41
1
41
1
41
1
41
1
41
1
41
1
41
1
41
1
41
1
41
1
41
1
41
1
41
1
41
1
41
1
41
1
41
1
41
1
41
1
41
1
41
1
41
1
41
1
41
1
41
1
41
1
41
1
41
1
41
1
41
1
41
1
41
1
41
1
41
1
41
1
10
0
20
3
30
0
10
0.021484129784921369
20
3.0066787154788606
30
0
10
0.064205407816161075
20
3.0183270138100426
30
0
10
0.1275463743151104
20
3.0306720401315612
30
0
10
0.21051890534354911
20
3.0368757651226401
30
0
10
0.31181824080911386
20
3.0278240103364444
30
0
10
0.41086611838183246
20
3.0028487845314138
30
0
10
0.50799248833854682
20
2.9637223386438363
30
0
10
0.60375275572858611
20
2.9134250710291503
30
0
10
0.6989709896718157
20
2.8563973816994679
30
0
10
0.79455836863806018
20
2.7979313560302059
30
0
10
0.8913484684213695
20
2.7436207679592735
30
0
10
0.98992176690903033
20
2.6987853720329742
30
0
10
1.0904446667820742
20
2.6679150434327403
30
0
10
1.1924750259866281
20
2.6540807494603849
30
0
10
1.2951836141258333
20
2.6587224490712105
30
0
10
1.3976154949248933
20
2.6814740097523986
30
0
10
1.4989378541825757
20
2.7199705205596754
30
0
10
1.5986915991333728
20
2.7696689506559045
30
0
10
1.6970469281661547
20
2.8236419766467682
30
0
10
1.7945867795874781
20
2.8739694247404515
30
0
10
1.8920858256261983
20
2.9131330487139357
30
0
10
1.9902872541218581
20
2.9354428937521919
30
0
10
2.0896898116895972
20
2.9383761197447793
30
0
10
2.1903054180724131
20
2.9241564847417751
30
0
10
2.2918028099890666
20
2.8982187906704904
30
0
10
2.3936876427226403
20
2.8673819922364259
30
0
10
2.4954710114727545
20
2.8381107661217775
30
0
10
2.5968390901713585
20
2.8147793017399914
30
0
10
2.6978325426969278
20
2.7978257866973006
30
0
10
2.7987140226153597
20
2.7852021146515966
30
0
10
2.8998214061899725
20
2.7739734522434483
30
0
10
3.0014269560333928
20
2.7618545935880698
30
0
10
3.1035925447306574
20
2.7487901202310141
30
0
10
3.206030321224516
20
2.7384707982794372
30
0
10
3.3082617232250282
20
2.736350838970143
30
0
10
3.4097745747761228
20
2.7476823685766361
30
0
10
3.5101767787002434
20
2.7756016572084508
30
0
10
3.6093609075627731
20
2.8190582456863811
30
0
10
3.7076372278159511
20
2.8711947063527585
30
0
10
3.8055516888394978
20
2.9222143686900242
30
0
10
3.9037284783725203
20
2.9619008154494866
30
0
10
4.0027044900322064
20
2.9822494772289816
30
0
10
4.1027644342394396
20
2.9800986902278441
30
0
10
4.2037832207608776
20
2.9596356188600339
30
0
10
4.3053850912096907
20
2.9295974175372175
30
0
10
4.4070956980861933
20
2.9005937913736517
30
0
10
4.5084935852043637
20
2.8824309708999079
30
0
10
4.6093692446555474
20
2.8813301105779598
30
0
10
4.7098601989240283
20
2.8974888269507435
30
0
10
4.8102942824702968
20
2.9269016681122721
30
0
10
4.9110504372897612
20
2.9629005993556983
30
0
10
5.0124177246211277
20
2.9977765675975294
30
0
10
5.1144438706778441
20
3.0244195542638845
30
0
10
5.2168206345393786
20
3.0377925564687103
30
0
10
5.3190554528310949
20
3.0349341263731739
30
0
10
5.4206189702292686
20
3.015126076528134
30
0
10
5.521094008666152
20
2.979960421626064
30
0
10
5.6203421941720393
20
2.9335417000052892
30
0
10
5.7186076310130654
20
2.8823564911223016
30
0
10
5.8163587143340667
20
2.8338633878429578
30
0
10
5.9141676655793436
20
2.7952525593879463
30
0
10
6.0125784523097217
20
2.7721795203937489
30
0
10
6.1119725484697032
20
2.767414694055498
30
0
10
6.2124563680422362
20
2.7798027862881525
30
0
10
6.3139280627495982
20
2.805547059958049
30
0
10
6.4161255674938831
20
2.8392736032500205
30
0
10
6.5186821762634581
20
2.8751441548997509
30
0
10
6.6211778431412149
20
2.908029078143382
30
0
10
6.7231950477980789
20
2.9344108082098002
30
0
10
6.8243844337467685
20
2.9519287475007348
30
0
10
6.9245332340998296
20
2.9590931448339699
30
0
10
7.023624675241912
20
2.9549647894557678
30
0
10
7.1219202140072992
20
2.9387768774653762
30
0
10
7.2199738295178815
20
2.9098066012073369
30
0
10
7.3184214699081265
20
2.8681079452209595
30
0
10
7.4178017438318209
20
2.8151342020178456
30
0
10
7.5183761964426132
20
2.754337937105269
30
0
10
7.6199216475295897
20
2.6919389210129161
30
0
10
7.7216181092927112
20
2.6371510694984663
30
0
10
7.8223927166538374
20
2.5998690042580015
30
0
10
7.921208636953927
20
2.5886476414177482
30
0
10
8.0173610985973571
20
2.6086724653008124
30
0
10
8.1108040323492077
20
2.6594848280716112
30
0
10
8.2023633899230362
20
2.7335509427512861
30
0
10
8.2933480580676626
20
2.8192694727220209
30
0
10
8.3852454534266272
20
2.9033572927244924
30
0
10
8.4793724942093558
20
2.9735600369062314
30
0
10
8.5765729861627911
20
3.0210286938850492
30
0
10
8.6768233701457547
20
3.0433509757364341
30
0
10
8.7794193239473639
20
3.0434361533523582
30
0
10
8.8833000761318743
20
3.0274123036196903
30
0
10
8.9873313333474876
20
3.0028300044330445
30
0
10
9.0905924863819276
20
2.9768109238001887
30
0
10
9.1926964007455929
20
2.9540294666046529
30
0
10
9.2936894936361938
20
2.9370221581849441
30
0
10
9.3938954938046102
20
2.9268142419259453
30
0
10
9.4937782700040625
20
2.9234359453885057
30
0
10
9.5937995118206487
20
2.9264753259053311
30
0
10
9.6942711759149596
20
2.935639671684001
30
0
10
9.7953786273170103
20
2.9507561528547877
30
0
10
9.8768475667362452
20
2.9675386749756143
30
0
10
9.9382909286948653
20
2.9827492250898162
30
0
10
9.9794050042847751
20
2.9940554332798546
30
0
10
10
20
3
30
0
0
ENDSEC
0
SECTION
2
OBJECTS
0
DICTIONARY
5
C
100
AcDbDictionary
3
ACAD_GROUP
350
D
3
ACAD_MLINESTYLE
350
17
0
DICTIONARY
5
D
100
AcDbDictionary
0
DICTIONARY
5
1A
330
C
100
AcDbDictionary
0
DICTIONARY
5
17
100
AcDbDictionary
0
ENDSEC
0
EOF
