0
SECTION
2
HEADER
9
$INSUNITS
70
4
9
$ACADVER
1
AC1014
9
$HANDSEED
5
FFFF
0
ENDSEC
0
SECTION
2
TABLES
0
TABLE
2
VPORT
5
8
100
AcDbSymbolTable
0
ENDTAB
0
TABLE
2
LTYPE
5
5
100
AcDbSymbolTable
0
LTYPE
5
14
100
AcDbSymbolTableRecord
100
AcDbLinetypeTableRecord
2
BYBLOCK
70
0
0
LTYPE
5
15
100
AcDbSymbolTableRecord
100
AcDbLinetypeTableRecord
2
BYLAYER
70
0
0
ENDTAB
0
TABLE
2
LAYER
5
2
100
AcDbSymbolTable
70
2
0
LAYER
5
50
100
AcDbSymbolTableRecord
100
AcDbLayerTableRecord
2
0
70
0
6
CONTINUOUS
0
ENDTAB
0
TABLE
2
STYLE
5
3
100
AcDbSymbolTable
70
1
0
STYLE
5
11
100
AcDbSymbolTableRecord
100
AcDbTextStyleTableRecord
2
STANDARD
70
0
0
ENDTAB
0
TABLE
2
VIEW
5
6
100
AcDbSymbolTable
70
0
0
ENDTAB
0
TABLE
2
UCS
5
7
100
AcDbSymbolTable
70
0
0
ENDTAB
0
TABLE
2
APPID
5
9
100
AcDbSymbolTable
70
2
0
APPID
5
12
100
AcDbSymbolTableRecord
100
AcDbRegAppTableRecord
2
ACAD
70
0
0
ENDTAB
0
TABLE
2
DIMSTYLE
5
A
100
AcDbSymbolTable
70
1
0
ENDTAB
0
TABLE
2
BLOCK_RECORD
5
1
100
AcDbSymbolTable
70
1
0
BLOCK_RECORD
5
1F
100
AcDbSymbolTableRecord
100
AcDbBlockTableRecord
2
*MODEL_SPACE
0
BLOCK_RECORD
5
1B
100
AcDbSymbolTableRecord
100
AcDbBlockTableRecord
2
*PAPER_SPACE
0
ENDTAB
0
ENDSEC
0
SECTION
2
BLOCKS
0
BLOCK
5
20
100
AcDbEntity
100
AcDbBlockBegin
2
*MODEL_SPACE
0
ENDBLK
5
21
100
AcDbEntity
100
AcDbBlockEnd
0
BLOCK
5
1C
100
AcDbEntity
100
AcDbBlockBegin
2
*PAPER_SPACE
0
ENDBLK
5
1D
100
AcDbEntity
100
AcDbBlockEnd
0
ENDSEC
0
SECTION
2
ENTITIES
0
SPLINE
5
100
100
AcDbEntity
8
0
100
AcDbSpline
70
4
71
5
72
16
73
10
74
0
42
0.000000001
43
0.0000000001
44
0.0000000001
40
0
40
0
40
0
40
0
40
0
40
0
40
0.20000000000000001
40
0.40000000000000002
40
0.60000000000000009
40
0.80000000000000004
40
1
40
1
40
1
40
1
40
1
40
1
41
1
41
1
41
1
41
1
41
1
41
1
41
1
41
1
41
1
41
1
10
0
20
0
30
0
10
0
20
0.12000000000003158
30
0
10
0
20
0.36000000000007704
30
0
10
0
20
0.72000000000009301
30
0
10
0
20
1.2000000000000313
30
0
10
0
20
1.7999999999999146
30
0
10
0
20
2.2799999999998684
30
0
10
0
20
2.6399999999999042
30
0
10
0
20
2.8799999999999617
30
0
10
0
20
3
30
0
0
SPLINE
5
101
100
AcDbEntity
8
0
100
AcDbSpline
70
4
71
5
72
16
73
10
74
0
42
0.000000001
43
0.0000000001
44
0.0000000001
40
0
40
0
40
0
40
0
40
0
40
0
40
0.20000000000000001
40
0.40000000000000002
40
0.60000000000000009
40
0.80000000000000004
40
1
40
1
40
1
40
1
40
1
40
1
41
1
41
1
41
1
41
1
41
1
41
1
41
1
41
1
41
1
41
1
10
10
20
0
30
0
10
9.9999999999997495
20
0.12000000000003158
30
0
10
9.9999999999993197
20
0.36000000000007704
30
0
10
9.9999999999989129
20
0.72000000000009301
30
0
10
9.9999999999987672
20
1.2000000000000313
30
0
10
9.9999999999990248
20
1.7999999999999146
30
0
10
9.9999999999993889
20
2.2799999999998684
30
0
10
9.9999999999996998
20
2.6399999999999042
30
0
10
9.9999999999999005
20
2.8799999999999617
30
0
10
10
20
3
30
0
0
SPLINE
5
102
100
AcDbEntity
8
0
100
AcDbSpline
70
4
71
5
72
16
73
10
74
0
42
0.000000001
43
0.0000000001
44
0.0000000001
40
0
40
0
40
0
40
0
40
0
40
0
40
0.20000000000000001
40
0.40000000000000002
40
0.60000000000000009
40
0.80000000000000004
40
1
40
1
40
1
40
1
40
1
40
1
41
1
41
1
41
1
41
1
41
1
41
1
41
1
41
1
41
1
41
1
10
0
20
1.5
30
0
10
0.40000000000047375
20
1.499999999999694
30
0
10
1.2000000000012774
20
1.4999999999991638
30
0
10
2.4000000000020547
20
1.4999999999986278
30
0
10
4.0000000000023546
20
1.4999999999983737
30
0
10
6.0000000000019584
20
1.4999999999985913
30
0
10
7.6000000000012928
20
1.4999999999990359
30
0
10
8.800000000000697
20
1.4999999999994786
30
0
10
9.6000000000002395
20
1.4999999999998188
30
0
10
10
20
1.5
30
0
0
SPLINE
5
103
100
AcDbEntity
8
0
100
AcDbSpline
70
4
71
5
72
111
73
105
74
0
42
0.000000001
43
0.0000000001
44
0.0000000001
40
0
40
0
40
0
40
0
40
0
40
0
40
0.01
40
0.02
40
0.029999999999999999
40
0.040000000000000001
40
0.050000000000000003
40
0.060000000000000005
40
0.070000000000000007
40
0.080000000000000002
40
0.089999999999999997
40
0.099999999999999992
40
0.10999999999999999
40
0.11999999999999998
40
0.12999999999999998
40
0.13999999999999999
40
0.14999999999999999
40
0.16
40
0.17000000000000001
40
0.18000000000000002
40
0.19000000000000003
40
0.20000000000000004
40
0.21000000000000005
40
0.22000000000000006
40
0.23000000000000007
40
0.24000000000000007
40
0.25000000000000006
40
0.26000000000000006
40
0.27000000000000007
40
0.28000000000000008
40
0.29000000000000009
40
0.3000000000000001
40
0.31000000000000011
40
0.32000000000000012
40
0.33000000000000013
40
0.34000000000000014
40
0.35000000000000014
40
0.36000000000000015
40
0.37000000000000016
40
0.38000000000000017
40
0.39000000000000018
40
0.40000000000000019
40
0.4100000000000002
40
0.42000000000000021
40
0.43000000000000022
40
0.44000000000000022
40
0.45000000000000023
40
0.46000000000000024
40
0.47000000000000025
40
0.48000000000000026
40
0.49000000000000027
40
0.50000000000000022
40
0.51000000000000023
40
0.52000000000000024
40
0.53000000000000025
40
0.54000000000000026
40
0.55000000000000027
40
0.56000000000000028
40
0.57000000000000028
40
0.58000000000000029
40
0.5900000000000003
40
0.60000000000000031
40
0.61000000000000032
40
0.62000000000000033
40
0.63000000000000034
40
0.64000000000000035
40
0.65000000000000036
40
0.66000000000000036
40
0.67000000000000037
40
0.68000000000000038
40
0.69000000000000039
40
0.7000000000000004
40
0.71000000000000041
40
0.72000000000000042
40
0.73000000000000043
40
0.74000000000000044
40
0.75000000000000044
40
0.76000000000000045
40
0.77000000000000046
40
0.78000000000000047
40
0.79000000000000048
40
0.80000000000000049
40
0.8100000000000005
40
0.82000000000000051
40
0.83000000000000052
40
0.84000000000000052
40
0.85000000000000053
40
0.86000000000000054
40
0.87000000000000055
40
0.88000000000000056
40
0.89000000000000057
40
0.90000000000000058
40
0.91000000000000059
40
0.9200000000000006
40
0.9300000000000006
40
0.94000000000000061
40
0.95000000000000062
40
0.96000000000000063
40
0.97000000000000064
40
0.98000000000000065
40
0.99000000000000066
40
1
40
1
40
1
40
1
40
1
40
1
41
1
41
1
41
1
41
1
41
1
41
1
41
1
41
1
41
1
41
1
41
1
41
1
41
1
41
1
41
1
41
1
41
1
41
1
41
1
41
1
41
1
41
1
41
1
41
1
41
1
41
1
41
1
41
1
41
1
41
1
41
1
41
1
41
1
41
1
41
1
41
1
41
1
41
1
41
1
41
1
41
1
41
1
41
1
41
1
41
1
41
1
41
1
41
1
41
1
41
1
41
1
41
1
41
1
41
1
41
1
41
1
41
1
41
1
41
1
41
1
41
1
41
1
41
1
41
1
41
1
41
1
41
1
41
1
41
1
41
1
41
1
41
1
41
1
41
1
41
1
41
1
41
1
41
1
41
1
41
1
41
1
41
1
41
1
41
1
41
1
41
1
41
1
41
1
41
1
41
1
41
1
41
1
41
1
41
1
41
1
41
1
41
1
41
1
41
1
41
1
41
1
41
1
41
1
41
1
41
1
10
0
20
0
30
0
10
0.021552086244141934
20
-0.017327579243161612
30
0
10
0.064453101720019987
20
-0.047586448346531918
30
0
10
0.12819515582422389
20
-0.079785672153741827
30
0
10
0.21196540794653546
20
-0.09633735077382645
30
0
10
0.3146454621815164
20
-0.074208448295187246
30
0
10
0.41529191507254232
20
-0.01278640583389558
30
0
10
0.5139051267501431
20
0.080904233884360244
30
0
10
0.61048582287933006
20
0.19499090071953054
30
0
10
0.70504008388166617
20
0.31203559314627671
30
0
10
0.7976270893442432
20
0.4127501887108439
30
0
10
0.88840050797054348
20
0.4791628728849579
30
0
10
0.97765621105664824
20
0.4981601218609793
30
0
10
1.0658686074260708
20
0.46449434560522262
30
0
10
1.1537545653929255
20
0.3849966251425469
30
0
10
1.2421813927544672
20
0.27606104914851876
30
0
10
1.3320259944365078
20
0.15899743375751763
30
0
10
1.4240470957653995
20
0.056015498003205856
30
0
10
1.5187589773601717
20
-0.013877046041844499
30
0
10
1.6162876665911079
20
-0.039360935884748025
30
0
10
1.7162854007964081
20
-0.019851544339317091
30
0
10
1.8180926429509769
20
0.037697166891736036
30
0
10
1.9208652741507763
20
0.12109326490627904
30
0
10
2.0237120477063182
20
0.21550349992244028
30
0
10
2.1258351209780351
20
0.30603877266422763
30
0
10
2.2266459200235236
20
0.37997845509533235
30
0
10
2.3257802162127525
20
0.42740695362661574
30
0
10
2.4231322759623986
20
0.44215403093631034
30
0
10
2.5188764603851772
20
0.42253386720829811
30
0
10
2.61350665725482
20
0.37237073752575911
30
0
10
2.7078310202690963
20
0.30130577671991982
30
0
10
2.8027751336990518
20
0.22202275375456693
30
0
10
2.8992124288820085
20
0.14791139951695803
30
0
10
2.9977833307021209
20
0.090553617003749642
30
0
10
3.0987206092307948
20
0.057302376626007692
30
0
10
3.201667500048325
20
0.04876810381268247
30
0
10
3.3058945571378313
20
0.060771063449016477
30
0
10
3.4105254949670565
20
0.086378955123804002
30
0
10
3.5147526799078643
20
0.1178597583004565
30
0
10
3.618073042891583
20
0.14878873737353926
30
0
10
3.7204684368049041
20
0.17574039826873328
30
0
10
3.8222264510065185
20
0.1973009649506493
30
0
10
3.9237963437029713
20
0.21334506650521609
30
0
10
4.0256388728144081
20
0.22426020450355205
30
0
10
4.1280616222875128
20
0.23007995482393712
30
0
10
4.2311142078447199
20
0.23001156278484036
30
0
10
4.3346781594528769
20
0.22321412183894732
30
0
10
4.4385242270120173
20
0.20940413712054809
30
0
10
4.5423796857095091
20
0.18943559275149055
30
0
10
4.6459979873380117
20
0.16611700411772648
30
0
10
4.7492035008938718
20
0.14413020708159596
30
0
10
4.8518930536244769
20
0.12863645476163163
30
0
10
4.9540502188560325
20
0.12413933449883927
30
0
10
5.0557498753759367
20
0.13337197425332342
30
0
10
5.157178340207321
20
0.15585736034497424
30
0
10
5.258599624389789
20
0.18793654893060296
30
0
10
5.3602814296497145
20
0.22402137081172546
30
0
10
5.4624282857053474
20
0.25750389753262304
30
0
10
5.5651211841983166
20
0.28178673935045756
30
0
10
5.6682307193260488
20
0.2913103002030859
30
0
10
5.7714564108701447
20
0.2823277475522849
30
0
10
5.8744352260389849
20
0.25346616048311088
30
0
10
5.9768324748625954
20
0.20643231119356881
30
0
10
6.0784315947961245
20
0.14649150242272932
30
0
10
6.1792461268579322
20
0.083479984470860719
30
0
10
6.2794716911000883
20
0.029603503792443985
30
0
10
6.3793933610387814
20
-0.0035858283871645449
30
0
10
6.479305385121096
20
-0.0080772967830376463
30
0
10
6.5794320892023519
20
0.017970108656466172
30
0
10
6.6798318330982411
20
0.066660641588540556
30
0
10
6.7804327704177041
20
0.12342039172217997
30
0
10
6.8811006647169943
20
0.17160530051810699
30
0
10
6.9816974455002576
20
0.19673291137088797
30
0
10
7.0821396516824633
20
0.19052290637212949
30
0
10
7.1824673435667279
20
0.15593468669053367
30
0
10
7.2828206566297116
20
0.1041246322517364
30
0
10
7.3833966271856841
20
0.049758996718495485
30
0
10
7.4844126935652175
20
0.0067707535230952416
30
0
10
7.5860678788940579
20
-0.015779942588675593
30
0
10
7.6885037418154507
20
-0.018654858789394456
30
0
10
7.7917774062847309
20
-0.0094888761036459029
30
0
10
7.8958368045675211
20
0.0015074180125841095
30
0
10
8.0004952191080889
20
0.0053615742661852058
30
0
10
8.1054056665348799
20
-0.001625832473775346
30
0
10
8.2100361769019319
20
-0.013984167903014537
30
0
10
8.3137842625377232
20
-0.021146120959356241
30
0
10
8.4160930901145399
20
-0.011583295124309598
30
0
10
8.5165622712620994
20
0.023254212105753229
30
0
10
8.615072095120528
20
0.084517116678866605
30
0
10
8.711869260628184
20
0.16291740817285658
30
0
10
8.807436797565412
20
0.24342583854746208
30
0
10
8.9023904348168124
20
0.30902060617583099
30
0
10
8.9973643740393854
20
0.34482265826233816
30
0
10
9.0929027142168337
20
0.34201686643142631
30
0
10
9.1893453930264357
20
0.30200554070807045
30
0
10
9.2868692615933508
20
0.23362187202269874
30
0
10
9.3855321458842482
20
0.15021970806356247
30
0
10
9.4853164246288948
20
0.066755691002208933
30
0
10
9.5861711871829289
20
-0.0029956334080031765
30
0
10
9.688059089001456
20
-0.049622084799733512
30
0
10
9.7909582291955015
20
-0.067563672328275093
30
0
10
9.8740772110994133
20
-0.05673303933153441
30
0
10
9.9368644258997634
20
-0.034034389464434156
30
0
10
9.9789216313307953
20
-0.012424372248077908
30
0
10
10
20
0
30
0
0
SPLINE
5
104
100
AcDbEntity
8
0
100
AcDbSpline
70
4
71
5
72
111
73
105
74
0
42
0.000000001
43
0.0000000001
44
0.0000000001
40
0
40
0
40
0
40
0
40
0
40
0
40
0.01
40
0.02
40
0.029999999999999999
40
0.040000000000000001
40
0.050000000000000003
40
0.060000000000000005
40
0.070000000000000007
40
0.080000000000000002
40
0.089999999999999997
40
0.099999999999999992
40
0.10999999999999999
40
0.11999999999999998
40
0.12999999999999998
40
0.13999999999999999
40
0.14999999999999999
40
0.16
40
0.17000000000000001
40
0.18000000000000002
40
0.19000000000000003
40
0.20000000000000004
40
0.21000000000000005
40
0.22000000000000006
40
0.23000000000000007
40
0.24000000000000007
40
0.25000000000000006
40
0.26000000000000006
40
0.27000000000000007
40
0.28000000000000008
40
0.29000000000000009
40
0.3000000000000001
40
0.31000000000000011
40
0.32000000000000012
40
0.33000000000000013
40
0.34000000000000014
40
0.35000000000000014
40
0.36000000000000015
40
0.37000000000000016
40
0.38000000000000017
40
0.39000000000000018
40
0.40000000000000019
40
0.4100000000000002
40
0.42000000000000021
40
0.43000000000000022
40
0.44000000000000022
40
0.45000000000000023
40
0.46000000000000024
40
0.47000000000000025
40
0.48000000000000026
40
0.49000000000000027
40
0.50000000000000022
40
0.51000000000000023
40
0.52000000000000024
40
0.53000000000000025
40
0.54000000000000026
40
0.55000000000000027
40
0.56000000000000028
40
0.57000000000000028
40
0.58000000000000029
40
0.5900000000000003
40
0.60000000000000031
40
0.61000000000000032
40
0.62000000000000033
40
0.63000000000000034
40
0.64000000000000035
40
0.65000000000000036
40
0.66000000000000036
40
0.67000000000000037
40
0.68000000000000038
40
0.69000000000000039
40
0.7000000000000004
40
0.71000000000000041
40
0.72000000000000042
40
0.73000000000000043
40
0.74000000000000044
40
0.75000000000000044
40
0.76000000000000045
40
0.77000000000000046
40
0.78000000000000047
40
0.79000000000000048
40
0.80000000000000049
40
0.8100000000000005
40
0.82000000000000051
40
0.83000000000000052
40
0.84000000000000052
40
0.85000000000000053
40
0.86000000000000054
40
0.87000000000000055
40
0.88000000000000056
40
0.89000000000000057
40
0.90000000000000058
40
0.91000000000000059
40
0.9200000000000006
40
0.9300000000000006
40
0.94000000000000061
40
0.95000000000000062
40
0.96000000000000063
40
0.97000000000000064
40
0.98000000000000065
40
0.99000000000000066
40
1
40
1
40
1
40
1
40
1
40
1
41
1
41
1
41
1
41
1
41
1
41
1
41
1
41
1
41
1
41
1
41
1
41
1
41
1
41
1
41
1
41
1
41
1
41
1
41
1
41
1
41
1
41
1
41
1
41
1
41
1
41
1
41
1
41
1
41
1
41
1
41
1
41
1
41
1
41
1
41
1
41
1
41
1
41
1
41
1
41
1
41
1
41
1
41
1
41
1
41
1
41
1
41
1
41
1
41
1
41
1
41
1
41
1
41
1
41
1
41
1
41
1
41
1
41
1
41
1
41
1
41
1
41
1
41
1
41
1
41
1
41
1
41
1
41
1
41
1
41
1
41
1
41
1
41
1
41
1
41
1
41
1
41
1
41
1
41
1
41
1
41
1
41
1
41
1
41
1
41
1
41
1
41
1
41
1
41
1
41
1
41
1
41
1
41
1
41
1
41
1
41
1
41
1
41
1
41
1
41
1
41
1
41
1
41
1
41
1
41
1
10
0
20
3
30
0
10
0.021263750797436889
20
3.0102351955359148
30
0
10
0.063665177144002952
20
3.0281575832442007
30
0
10
0.12688908684667891
20
3.0473969706144959
30
0
10
0.21043108562350279
20
3.0577602052405632
30
0
10
0.31361780666235495
20
3.0459403099331768
30
0
10
0.4156260564038049
20
3.0115260799799062
30
0
10
0.51658024581383077
20
2.9588441508050627
30
0
10
0.61669116857028428
20
2.8952397598091539
30
0
10
0.71626808501376527
20
2.8313980437581403
30
0
10
0.81566464126375404
20
2.7787219969371506
30
0
10
0.91523210125323762
20
2.747008154688626
30
0
10
1.0152713158102982
20
2.7421308106718518
30
0
10
1.1159815557652237
20
2.7634293949094908
30
0
10
1.2174214278550202
20
2.8020754442443381
30
0
10
1.3195447518036874
20
2.8452068988572106
30
0
10
1.4222277473396294
20
2.8795077555259647
30
0
10
1.5252992088126986
20
2.8947534735281462
30
0
10
1.6285701114846509
20
2.8879554265593259
30
0
10
1.7318610338160205
20
2.8654397672372749
30
0
10
1.8350186158818365
20
2.8382571682746907
30
0
10
1.9379354454527429
20
2.8185556682037767
30
0
10
2.0405654921371026
20
2.8159301930975404
30
0
10
2.1429489688598951
20
2.8329311462330411
30
0
10
2.245207096638949
20
2.8639070225697774
30
0
10
2.3474922336119808
20
2.8991116587394208
30
0
10
2.4499457214640334
20
2.9277136285341667
30
0
10
2.5526585892961577
20
2.9409287789187881
30
0
10
2.6556164370808517
20
2.9358795178738291
30
0
10
2.7587090534268004
20
2.9160264490867966
30
0
10
2.8617994049417645
20
2.8882809947022485
30
0
10
2.9647806329855841
20
2.8609589801372
30
0
10
3.0676283108670814
20
2.8415672348529899
30
0
10
3.1704789864237859
20
2.8342195401324179
30
0
10
3.2735746130598908
20
2.8394737752472254
30
0
10
3.3771414884194022
20
2.8554492681943748
30
0
10
3.4812841686181004
20
2.8785491767574016
30
0
10
3.5858856271982238
20
2.9043204829517477
30
0
10
3.6904719473634753
20
2.9283198432820297
30
0
10
3.7943732685574796
20
2.9464097576529467
30
0
10
3.8969449161163512
20
2.9549199135106634
30
0
10
3.9977693872953726
20
2.950855685886149
30
0
10
4.0968625518634534
20
2.9320891767082449
30
0
10
4.194889010333517
20
2.897553253103176
30
0
10
4.2928521861285303
20
2.8476174807080734
30
0
10
4.3917739421926614
20
2.7844604537063242
30
0
10
4.492372137466643
20
2.7124648815262198
30
0
10
4.594752728324206
20
2.6385578030144425
30
0
10
4.6980579919273939
20
2.5727020191240531
30
0
10
4.8008696463863654
20
2.5258405611930392
30
0
10
4.9016634385939142
20
2.5076696729583912
30
0
10
4.999247091655854
20
2.5244622746972629
30
0
10
5.0932005280096524
20
2.5768935281366834
30
0
10
5.1843286860866371
20
2.657793538347311
30
0
10
5.2742197596801557
20
2.754734795219929
30
0
10
5.3648005071733582
20
2.8526503466782787
30
0
10
5.4578705854325786
20
2.9365267656871961
30
0
10
5.5546967255094213
20
2.9938635659205253
30
0
10
5.6554541376593361
20
3.0177358325305423
30
0
10
5.7592840047413008
20
3.0074025141972256
30
0
10
5.8647990590144836
20
2.9670532082826
30
0
10
5.9704747511215608
20
2.9051523151229057
30
0
10
6.0750508201194613
20
2.8334263599014076
30
0
10
6.1780212905207428
20
2.7662952084522492
30
0
10
6.2795411991333951
20
2.7184561332547585
30
0
10
6.3801088211237147
20
2.7018960860336416
30
0
10
6.4803132662098299
20
2.7229206371884618
30
0
10
6.5805740512115962
20
2.7795464580895919
30
0
10
6.6808343523132407
20
2.8577637041889052
30
0
10
6.7806671082741543
20
2.9358798880551289
30
0
10
6.8794762877452387
20
2.9905842810272358
30
0
10
6.9766711249488536
20
3.0026775062587547
30
0
10
7.0718382970009834
20
2.9623627653494378
30
0
10
7.1649494650391503
20
2.8762216319790617
30
0
10
7.2563283064802189
20
2.7637474338544314
30
0
10
7.34654052256551
20
2.6506677077227607
30
0
10
7.4363091282182827
20
2.563163742433201
30
0
10
7.5264207558698439
20
2.5221168207358535
30
0
10
7.6176323678342905
20
2.536379025066251
30
0
10
7.7105892072378666
20
2.5995692776284578
30
0
10
7.805777150845115
20
2.6959059667760847
30
0
10
7.9034676024120785
20
2.804298265551366
30
0
10
8.0036663538180068
20
2.9030960157332757
30
0
10
8.1060579299701629
20
2.9746242160448699
30
0
10
8.2099589947327676
20
3.0096225678418262
30
0
10
8.3144765779891987
20
3.0058765812929455
30
0
10
8.4186620210257885
20
2.967093061015571
30
0
10
8.5216604110863887
20
2.9016631860876529
30
0
10
8.6228760955440826
20
2.8215320823195267
30
0
10
8.7220883590383274
20
2.740858493875125
30
0
10
8.8193627756630946
20
2.6739209825054386
30
0
10
8.9149928080772103
20
2.6331084889702834
30
0
10
9.0094302154631851
20
2.6269297428737115
30
0
10
9.1032192891152715
20
2.6578893619597914
30
0
10
9.1969325870197665
20
2.7207727435460187
30
0
10
9.2911426243214592
20
2.8051699271259336
30
0
10
9.3863908622186401
20
2.8976352077165819
30
0
10
9.4831567942092452
20
2.9840343705354027
30
0
10
9.5818291062278629
20
3.0516933344358392
30
0
10
9.6826702244865466
20
3.0919424436871723
30
0
10
9.7858353182629951
20
3.0996648322550664
30
0
10
9.8702883013754157
20
3.0777647616203225
30
0
10
9.934719683084829
20
3.0451700191693849
30
0
10
9.9781590437144523
20
3.0162543009467235
30
0
10
10
20
3
30
0
0
ENDSEC
0
SECTION
2
OBJECTS
0
DICTIONARY
5
C
100
AcDbDictionary
3
ACAD_GROUP
350
D
3
ACAD_MLINESTYLE
350
17
0
DICTIONARY
5
D
100
AcDbDictionary
0
DICTIONARY
5
1A
330
C
100
AcDbDictionary
0
DICTIONARY
5
17
100
AcDbDictionary
0
ENDSEC
0
EOF
