0
SECTION
2
HEADER
9
$INSUNITS
70
4
9
$ACADVER
1
AC1014
9
$HANDSEED
5
FFFF
0
ENDSEC
0
SECTION
2
TABLES
0
TABLE
2
VPORT
5
8
100
AcDbSymbolTable
0
ENDTAB
0
TABLE
2
LTYPE
5
5
100
AcDbSymbolTable
0
LTYPE
5
14
100
AcDbSymbolTableRecord
100
AcDbLinetypeTableRecord
2
BYBLOCK
70
0
0
LTYPE
5
15
100
AcDbSymbolTableRecord
100
AcDbLinetypeTableRecord
2
BYLAYER
70
0
0
ENDTAB
0
TABLE
2
LAYER
5
2
100
AcDbSymbolTable
70
2
0
LAYER
5
50
100
AcDbSymbolTableRecord
100
AcDbLayerTableRecord
2
0
70
0
6
CONTINUOUS
0
ENDTAB
0
TABLE
2
STYLE
5
3
100
AcDbSymbolTable
70
1
0
STYLE
5
11
100
AcDbSymbolTableRecord
100
AcDbTextStyleTableRecord
2
STANDARD
70
0
0
ENDTAB
0
TABLE
2
VIEW
5
6
100
AcDbSymbolTable
70
0
0
ENDTAB
0
TABLE
2
UCS
5
7
100
AcDbSymbolTable
70
0
0
ENDTAB
0
TABLE
2
APPID
5
9
100
AcDbSymbolTable
70
2
0
APPID
5
12
100
AcDbSymbolTableRecord
100
AcDbRegAppTableRecord
2
ACAD
70
0
0
ENDTAB
0
TABLE
2
DIMSTYLE
5
A
100
AcDbSymbolTable
70
1
0
ENDTAB
0
TABLE
2
BLOCK_RECORD
5
1
100
AcDbSymbolTable
70
1
0
BLOCK_RECORD
5
1F
100
AcDbSymbolTableRecord
100
AcDbBlockTableRecord
2
*MODEL_SPACE
0
BLOCK_RECORD
5
1B
100
AcDbSymbolTableRecord
100
AcDbBlockTableRecord
2
*PAPER_SPACE
0
ENDTAB
0
ENDSEC
0
SECTION
2
BLOCKS
0
BLOCK
5
20
100
AcDbEntity
100
AcDbBlockBegin
2
*MODEL_SPACE
0
ENDBLK
5
21
100
AcDbEntity
100
AcDbBlockEnd
0
BLOCK
5
1C
100
AcDbEntity
100
AcDbBlockBegin
2
*PAPER_SPACE
0
ENDBLK
5
1D
100
AcDbEntity
100
AcDbBlockEnd
0
ENDSEC
0
SECTION
2
ENTITIES
0
SPLINE
5
100
100
AcDbEntity
8
0
100
AcDbSpline
70
4
71
5
72
16
73
10
74
0
42
0.000000001
43
0.0000000001
44
0.0000000001
40
0
40
0
40
0
40
0
40
0
40
0
40
0.20000000000000001
40
0.40000000000000002
40
0.60000000000000009
40
0.80000000000000004
40
1
40
1
40
1
40
1
40
1
40
1
41
1
41
1
41
1
41
1
41
1
41
1
41
1
41
1
41
1
41
1
10
0
20
0
30
0
10
0
20
0.12000000000003158
30
0
10
0
20
0.36000000000007704
30
0
10
0
20
0.72000000000009301
30
0
10
0
20
1.2000000000000313
30
0
10
0
20
1.7999999999999146
30
0
10
0
20
2.2799999999998684
30
0
10
0
20
2.6399999999999042
30
0
10
0
20
2.8799999999999617
30
0
10
0
20
3
30
0
0
SPLINE
5
101
100
AcDbEntity
8
0
100
AcDbSpline
70
4
71
5
72
16
73
10
74
0
42
0.000000001
43
0.0000000001
44
0.0000000001
40
0
40
0
40
0
40
0
40
0
40
0
40
0.20000000000000001
40
0.40000000000000002
40
0.60000000000000009
40
0.80000000000000004
40
1
40
1
40
1
40
1
40
1
40
1
41
1
41
1
41
1
41
1
41
1
41
1
41
1
41
1
41
1
41
1
10
10
20
0
30
0
10
9.9999999999997495
20
0.12000000000003158
30
0
10
9.9999999999993197
20
0.36000000000007704
30
0
10
9.9999999999989129
20
0.72000000000009301
30
0
10
9.9999999999987672
20
1.2000000000000313
30
0
10
9.9999999999990248
20
1.7999999999999146
30
0
10
9.9999999999993889
20
2.2799999999998684
30
0
10
9.9999999999996998
20
2.6399999999999042
30
0
10
9.9999999999999005
20
2.8799999999999617
30
0
10
10
20
3
30
0
0
SPLINE
5
102
100
AcDbEntity
8
0
100
AcDbSpline
70
4
71
5
72
16
73
10
74
0
42
0.000000001
43
0.0000000001
44
0.0000000001
40
0
40
0
40
0
40
0
40
0
40
0
40
0.20000000000000001
40
0.40000000000000002
40
0.60000000000000009
40
0.80000000000000004
40
1
40
1
40
1
40
1
40
1
40
1
41
1
41
1
41
1
41
1
41
1
41
1
41
1
41
1
41
1
41
1
10
0
20
1.5
30
0
10
0.40000000000047375
20
1.499999999999694
30
0
10
1.2000000000012774
20
1.4999999999991638
30
0
10
2.4000000000020547
20
1.4999999999986278
30
0
10
4.0000000000023546
20
1.4999999999983737
30
0
10
6.0000000000019584
20
1.4999999999985913
30
0
10
7.6000000000012928
20
1.4999999999990359
30
0
10
8.800000000000697
20
1.4999999999994786
30
0
10
9.6000000000002395
20
1.4999999999998188
30
0
10
10
20
1.5
30
0
0
SPLINE
5
103
100
AcDbEntity
8
0
100
AcDbSpline
70
4
71
5
72
111
73
105
74
0
42
0.000000001
43
0.0000000001
44
0.0000000001
40
0
40
0
40
0
40
0
40
0
40
0
40
0.01
40
0.02
40
0.029999999999999999
40
0.040000000000000001
40
0.050000000000000003
40
0.060000000000000005
40
0.070000000000000007
40
0.080000000000000002
40
0.089999999999999997
40
0.099999999999999992
40
0.10999999999999999
40
0.11999999999999998
40
0.12999999999999998
40
0.13999999999999999
40
0.14999999999999999
40
0.16
40
0.17000000000000001
40
0.18000000000000002
40
0.19000000000000003
40
0.20000000000000004
40
0.21000000000000005
40
0.22000000000000006
40
0.23000000000000007
40
0.24000000000000007
40
0.25000000000000006
40
0.26000000000000006
40
0.27000000000000007
40
0.28000000000000008
40
0.29000000000000009
40
0.3000000000000001
40
0.31000000000000011
40
0.32000000000000012
40
0.33000000000000013
40
0.34000000000000014
40
0.35000000000000014
40
0.36000000000000015
40
0.37000000000000016
40
0.38000000000000017
40
0.39000000000000018
40
0.40000000000000019
40
0.4100000000000002
40
0.42000000000000021
40
0.43000000000000022
40
0.44000000000000022
40
0.45000000000000023
40
0.46000000000000024
40
0.47000000000000025
40
0.48000000000000026
40
0.49000000000000027
40
0.50000000000000022
40
0.51000000000000023
40
0.52000000000000024
40
0.53000000000000025
40
0.54000000000000026
40
0.55000000000000027
40
0.56000000000000028
40
0.57000000000000028
40
0.58000000000000029
40
0.5900000000000003
40
0.60000000000000031
40
0.61000000000000032
40
0.62000000000000033
40
0.63000000000000034
40
0.64000000000000035
40
0.65000000000000036
40
0.66000000000000036
40
0.67000000000000037
40
0.68000000000000038
40
0.69000000000000039
40
0.7000000000000004
40
0.71000000000000041
40
0.72000000000000042
40
0.73000000000000043
40
0.74000000000000044
40
0.75000000000000044
40
0.76000000000000045
40
0.77000000000000046
40
0.78000000000000047
40
0.79000000000000048
40
0.80000000000000049
40
0.8100000000000005
40
0.82000000000000051
40
0.83000000000000052
40
0.84000000000000052
40
0.85000000000000053
40
0.86000000000000054
40
0.87000000000000055
40
0.88000000000000056
40
0.89000000000000057
40
0.90000000000000058
40
0.91000000000000059
40
0.9200000000000006
40
0.9300000000000006
40
0.94000000000000061
40
0.95000000000000062
40
0.96000000000000063
40
0.97000000000000064
40
0.98000000000000065
40
0.99000000000000066
40
1
40
1
40
1
40
1
40
1
40
1
41
1
41
1
41
1
41
1
41
1
41
1
41
1
41
1
41
1
41
1
41
1
41
1
41
1
41
1
41
1
41
1
41
1
41
1
41
1
41
1
41
1
41
1
41
1
41
1
41
1
41
1
41
1
41
1
41
1
41
1
41
1
41
1
41
1
41
1
41
1
41
1
41
1
41
1
41
1
41
1
41
1
41
1
41
1
41
1
41
1
41
1
41
1
41
1
41
1
41
1
41
1
41
1
41
1
41
1
41
1
41
1
41
1
41
1
41
1
41
1
41
1
41
1
41
1
41
1
41
1
41
1
41
1
41
1
41
1
41
1
41
1
41
1
41
1
41
1
41
1
41
1
41
1
41
1
41
1
41
1
41
1
41
1
41
1
41
1
41
1
41
1
41
1
41
1
41
1
41
1
41
1
41
1
41
1
41
1
41
1
41
1
41
1
41
1
41
1
41
1
41
1
41
1
41
1
41
1
41
1
10
0
20
0
30
0
10
0.019582642573224163
20
0.023486421966205439
30
0
10
0.058813559350122627
20
0.06727821929774129
30
0
10
0.11785682902705737
20
0.12342279712543863
30
0
10
0.19697504503117169
20
0.17919270240825863
30
0
10
0.2965181829566475
20
0.21774377170053322
30
0
10
0.39667292429953871
20
0.22712519408196608
30
0
10
0.49737113328471216
20
0.21135079996112457
30
0
10
0.5984990174689524
20
0.17711998365729384
30
0
10
0.69988475581850884
20
0.13454301245317313
30
0
10
0.80133660959622577
20
0.094999700085602823
30
0
10
0.90268243445634211
20
0.068919563509728068
30
0
10
1.0038082187778763
20
0.063615058536826502
30
0
10
1.1046981361274801
20
0.081034304803968032
30
0
10
1.2054710319887827
20
0.11570192227033183
30
0
10
1.3063200480965902
20
0.15779143526903688
30
0
10
1.4074546738129743
20
0.19606395227425272
30
0
10
1.5090432875601734
20
0.2207922920671348
30
0
10
1.6111522816180912
20
0.2268380385946473
30
0
10
1.7136956926064697
20
0.21624772093136232
30
0
10
1.816499303999678
20
0.19554209190922847
30
0
10
1.9193578689498767
20
0.17334547293211752
30
0
10
2.0220917919453543
20
0.15799084842830255
30
0
10
2.1246113715957566
20
0.15489347552002772
30
0
10
2.2269555192809412
20
0.16476319930764771
30
0
10
2.3292316036475444
20
0.18516831519415702
30
0
10
2.431568233209668
20
0.21160121916852317
30
0
10
2.5340675700475894
20
0.2387035616649828
30
0
10
2.6367469630315061
20
0.26150356839361349
30
0
10
2.739521045767908
20
0.27637341775846036
30
0
10
2.8422671353165407
20
0.28125213232695856
30
0
10
2.9448769114558253
20
0.27609514578075833
30
0
10
3.0473053581122178
20
0.26308913472050605
30
0
10
3.1496408188787068
20
0.24732011015600588
30
0
10
3.2520916429797762
20
0.23594199183891656
30
0
10
3.3548774232180003
20
0.23573117905422292
30
0
10
3.4581385314448196
20
0.2508784443524813
30
0
10
3.5618522821561536
20
0.28107266397051656
30
0
10
3.6657111866491432
20
0.31849157004462703
30
0
10
3.7691757684794474
20
0.34962006393830336
30
0
10
3.8716409708823014
20
0.36014884238022232
30
0
10
3.9725750250601428
20
0.33919334235830956
30
0
10
4.0716552556721561
20
0.28325786584276935
30
0
10
4.1689420894578895
20
0.20167787158450054
30
0
10
4.2648184791704766
20
0.11336274311104991
30
0
10
4.3598432912644105
20
0.040436493409560528
30
0
10
4.4546277934496086
20
0.0025846327792651957
30
0
10
4.5497143466605721
20
0.011806835017491824
30
0
10
4.6454250920514211
20
0.06526410983750032
30
0
10
4.7418414910998328
20
0.14594565084672306
30
0
10
4.8389036859303287
20
0.23035828192192948
30
0
10
4.9364788606040371
20
0.29450810925150561
30
0
10
5.034436635336375
20
0.32002274193165825
30
0
10
5.1327349264474664
20
0.30155719070274617
30
0
10
5.2314557435168627
20
0.2491289722240006
30
0
10
5.3307412313833433
20
0.18067175982852082
30
0
10
5.4307503714139429
20
0.1165182579258949
30
0
10
5.5316102626207471
20
0.073580736434619903
30
0
10
5.6333628999513312
20
0.058541963590760873
30
0
10
5.7359361844600016
20
0.065117602102251856
30
0
10
5.8391740245062573
20
0.080700190454338475
30
0
10
5.9428544519769124
20
0.091371144578471661
30
0
10
6.0467121641832824
20
0.086968463093985302
30
0
10
6.150459884196108
20
0.067566517086716557
30
0
10
6.2538074500005738
20
0.044048624374756221
30
0
10
6.3564767213286117
20
0.031376429145784722
30
0
10
6.4582175016639551
20
0.043417356300662846
30
0
10
6.5588233270420995
20
0.087822965355332072
30
0
10
6.6581466971097321
20
0.15919101597381491
30
0
10
6.7561170483415056
20
0.24044809785497678
30
0
10
6.8527591329660975
20
0.30997795573368031
30
0
10
6.9482138837984655
20
0.34734488510427008
30
0
10
7.0427527196166375
20
0.33893326322456097
30
0
10
7.1368084170108865
20
0.28524142451486761
30
0
10
7.2309481522222789
20
0.20146443658760715
30
0
10
7.3257766661912527
20
0.109735764980486
30
0
10
7.4218556634288779
20
0.033351197974742335
30
0
10
7.5196201259812758
20
-0.009463120518092066
30
0
10
7.6192875203825103
20
-0.012413987855691887
30
0
10
7.7207954180760332
20
0.014759166378298211
30
0
10
7.8238641770999902
20
0.054071372767505246
30
0
10
7.9280405013640269
20
0.085577934974153266
30
0
10
8.0327495295877185
20
0.093708860497454582
30
0
10
8.1373403905993698
20
0.074856254259628316
30
0
10
8.2411434033681736
20
0.040280275387653032
30
0
10
8.3435465092245913
20
0.0082537340938356706
30
0
10
8.4440721086013237
20
-0.0019048121360677607
30
0
10
8.5424451049653385
20
0.024065680554325009
30
0
10
8.6386858314406823
20
0.087838881485963194
30
0
10
8.7331161487460651
20
0.17696576340237696
30
0
10
8.8262482130957984
20
0.2716839999245011
30
0
10
8.9187015778166376
20
0.349709109385682
30
0
10
9.0111106976504036
20
0.39170569191643889
30
0
10
9.1040323583370011
20
0.3867877378761807
30
0
10
9.1978653900241945
20
0.33707955313194732
30
0
10
9.2928851296655584
20
0.25354265784100005
30
0
10
9.3892664732490534
20
0.15268881132339593
30
0
10
9.4871115359608922
20
0.052895251519101051
30
0
10
9.5864746244905348
20
-0.028967518111060919
30
0
10
9.6873901003478711
20
-0.081417821340036056
30
0
10
9.7898782960608628
20
-0.097660830245495503
30
0
10
9.8731345889859199
20
-0.0789610512147116
30
0
10
9.9362899925894848
20
-0.046607640429916192
30
0
10
9.9787105113651826
20
-0.016893406518496225
30
0
10
10
20
0
30
0
0
SPLINE
5
104
100
AcDbEntity
8
0
100
AcDbSpline
70
4
71
5
72
111
73
105
74
0
42
0.000000001
43
0.0000000001
44
0.0000000001
40
0
40
0
40
0
40
0
40
0
40
0
40
0.01
40
0.02
40
0.029999999999999999
40
0.040000000000000001
40
0.050000000000000003
40
0.060000000000000005
40
0.070000000000000007
40
0.080000000000000002
40
0.089999999999999997
40
0.099999999999999992
40
0.10999999999999999
40
0.11999999999999998
40
0.12999999999999998
40
0.13999999999999999
40
0.14999999999999999
40
0.16
40
0.17000000000000001
40
0.18000000000000002
40
0.19000000000000003
40
0.20000000000000004
40
0.21000000000000005
40
0.22000000000000006
40
0.23000000000000007
40
0.24000000000000007
40
0.25000000000000006
40
0.26000000000000006
40
0.27000000000000007
40
0.28000000000000008
40
0.29000000000000009
40
0.3000000000000001
40
0.31000000000000011
40
0.32000000000000012
40
0.33000000000000013
40
0.34000000000000014
40
0.35000000000000014
40
0.36000000000000015
40
0.37000000000000016
40
0.38000000000000017
40
0.39000000000000018
40
0.40000000000000019
40
0.4100000000000002
40
0.42000000000000021
40
0.43000000000000022
40
0.44000000000000022
40
0.45000000000000023
40
0.46000000000000024
40
0.47000000000000025
40
0.48000000000000026
40
0.49000000000000027
40
0.50000000000000022
40
0.51000000000000023
40
0.52000000000000024
40
0.53000000000000025
40
0.54000000000000026
40
0.55000000000000027
40
0.56000000000000028
40
0.57000000000000028
40
0.58000000000000029
40
0.5900000000000003
40
0.60000000000000031
40
0.61000000000000032
40
0.62000000000000033
40
0.63000000000000034
40
0.64000000000000035
40
0.65000000000000036
40
0.66000000000000036
40
0.67000000000000037
40
0.68000000000000038
40
0.69000000000000039
40
0.7000000000000004
40
0.71000000000000041
40
0.72000000000000042
40
0.73000000000000043
40
0.74000000000000044
40
0.75000000000000044
40
0.76000000000000045
40
0.77000000000000046
40
0.78000000000000047
40
0.79000000000000048
40
0.80000000000000049
40
0.8100000000000005
40
0.82000000000000051
40
0.83000000000000052
40
0.84000000000000052
40
0.85000000000000053
40
0.86000000000000054
40
0.87000000000000055
40
0.88000000000000056
40
0.89000000000000057
40
0.90000000000000058
40
0.91000000000000059
40
0.9200000000000006
40
0.9300000000000006
40
0.94000000000000061
40
0.95000000000000062
40
0.96000000000000063
40
0.97000000000000064
40
0.98000000000000065
40
0.99000000000000066
40
1
40
1
40
1
40
1
40
1
40
1
41
1
41
1
41
1
41
1
41
1
41
1
41
1
41
1
41
1
41
1
41
1
41
1
41
1
41
1
41
1
41
1
41
1
41
1
41
1
41
1
41
1
41
1
41
1
41
1
41
1
41
1
41
1
41
1
41
1
41
1
41
1
41
1
41
1
41
1
41
1
41
1
41
1
41
1
41
1
41
1
41
1
41
1
41
1
41
1
41
1
41
1
41
1
41
1
41
1
41
1
41
1
41
1
41
1
41
1
41
1
41
1
41
1
41
1
41
1
41
1
41
1
41
1
41
1
41
1
41
1
41
1
41
1
41
1
41
1
41
1
41
1
41
1
41
1
41
1
41
1
41
1
41
1
41
1
41
1
41
1
41
1
41
1
41
1
41
1
41
1
41
1
41
1
41
1
41
1
41
1
41
1
41
1
41
1
41
1
41
1
41
1
41
1
41
1
41
1
41
1
41
1
41
1
41
1
41
1
41
1
10
0
20
3
30
0
10
0.021061252601120954
20
3.0157977319109524
30
0
10
0.06302632863029399
20
3.0435056884491836
30
0
10
0.12550165492126403
20
3.0734049959642809
30
0
10
0.2078573627249754
20
3.0899426003950339
30
0
10
0.30923558145840335
20
3.0727964603696134
30
0
10
0.40907335409434231
20
3.0210740118523551
30
0
10
0.50742372380599243
20
2.941259109336789
30
0
10
0.60437630143746657
20
2.8442527989489892
30
0
10
0.70006612377278765
20
2.7462426516601433
30
0
10
0.79467506824066214
20
2.665008150059724
30
0
10
0.88843319166753543
20
2.6165840519251353
30
0
10
0.9816212249268913
20
2.6116199060534413
30
0
10
1.0745701049672687
20
2.6522506720950711
30
0
10
1.1676683175652984
20
2.7277410748996385
30
0
10
1.2613161953709655
20
2.8184416347774222
30
0
10
1.3558700499443743
20
2.9015088616776619
30
0
10
1.4515858663868588
20
2.9563033321457466
30
0
10
1.5485718740610712
20
2.9692845706345179
30
0
10
1.6467157005086674
20
2.9406962911448709
30
0
10
1.7457070418115395
20
2.8842929578329364
30
0
10
1.8451519866613628
20
2.8202844179390487
30
0
10
1.9446672115085213
20
2.7698731344397896
30
0
10
2.0439717908160357
20
2.7497055122057361
30
0
10
2.1430058124841804
20
2.7649900640710845
30
0
10
2.2419429888249747
20
2.8082172779812025
30
0
10
2.3410682272465682
20
2.8651242084367161
30
0
10
2.4406849480764086
20
2.9190014483867994
30
0
10
2.5410201361035312
20
2.9552720644721449
30
0
10
2.6421067094996236
20
2.9669176165320166
30
0
10
2.7437594464021591
20
2.9561175203042089
30
0
10
2.8456894422806904
20
2.9301736786396084
30
0
10
2.9475896432395796
20
2.8986908617857847
30
0
10
3.0492220031748301
20
2.8705374716056347
30
0
10
3.150528429698531
20
2.8502033752948917
30
0
10
3.2516374334917937
20
2.8371026627425726
30
0
10
3.3527587542886872
20
2.8281108596363422
30
0
10
3.454103285557093
20
2.8193346869176832
30
0
10
3.5558029938717448
20
2.80797244481374
30
0
10
3.6578054346037812
20
2.7946822065457271
30
0
10
3.7598856524833129
20
2.7834386426091111
30
0
10
3.861753269027937
20
2.779331969323056
30
0
10
3.9631368816159487
20
2.7868595822789821
30
0
10
4.0638674801387067
20
2.8082348428754744
30
0
10
4.1639880945665695
20
2.8411378926429167
30
0
10
4.2637274768607849
20
2.8793657511515001
30
0
10
4.3633976448975034
20
2.9151059855883652
30
0
10
4.4633107654198483
20
2.9407991982081549
30
0
10
4.5636974735972968
20
2.95096800281953
30
0
10
4.6646009134483375
20
2.9445716743140347
30
0
10
4.7658961061585101
20
2.9246503987504999
30
0
10
4.8673789472943678
20
2.8964539853507487
30
0
10
4.968837216295797
20
2.8659797166255307
30
0
10
5.0701209881289682
20
2.8384777596685447
30
0
10
5.1712336549768576
20
2.8166252398211036
30
0
10
5.272302164020509
20
2.8007474670203809
30
0
10
5.3734961612135388
20
2.7899228185563301
30
0
10
5.4749602278024332
20
2.7828407929426864
30
0
10
5.5767483156489872
20
2.7786742177610919
30
0
10
5.678737550277063
20
2.7781718560427016
30
0
10
5.7806799384029581
20
2.7831685314591263
30
0
10
5.8822959011252909
20
2.7956092027788877
30
0
10
5.9833567965091845
20
2.8167024139096979
30
0
10
6.0837652382840659
20
2.846095650134381
30
0
10
6.183654295770423
20
2.8808405817188043
30
0
10
6.2833170469760429
20
2.9162546140737637
30
0
10
6.3831053851641979
20
2.9471255274862482
30
0
10
6.4833366210530556
20
2.9688309489476845
30
0
10
6.5842035679987445
20
2.9784143199150117
30
0
10
6.6856653246185296
20
2.9758889248768234
30
0
10
6.7875099895680382
20
2.9635215612076049
30
0
10
6.8894485660359672
20
2.944750375932188
30
0
10
6.9911993493424394
20
2.9232139737956189
30
0
10
7.092573044987649
20
2.9017734901946231
30
0
10
7.193566351393919
20
2.8814318412620721
30
0
10
7.2943102757410294
20
2.8620037449803242
30
0
10
7.3950054710097142
20
2.8429396789316366
30
0
10
7.4958619158033288
20
2.8241035280467464
30
0
10
7.5970377114287126
20
2.8065476442687185
30
0
10
7.698575693567971
20
2.7933506654271776
30
0
10
7.8004277845991021
20
2.788296298889251
30
0
10
7.9024828827164377
20
2.7944562429832187
30
0
10
8.0045932689942738
20
2.8128311208841499
30
0
10
8.1066019109778065
20
2.8409126286909587
30
0
10
8.208368523618164
20
2.8714252401009199
30
0
10
8.3097721962345616
20
2.8949897057116933
30
0
10
8.4107148904990083
20
2.9026767069606487
30
0
10
8.5111246183557743
20
2.8885218190944983
30
0
10
8.6109587984582703
20
2.8522436175078578
30
0
10
8.7102074827797562
20
2.8013425949066391
30
0
10
8.8088957218305932
20
2.747667413287032
30
0
10
8.9070860806786865
20
2.7044501880047416
30
0
10
9.0048809917423878
20
2.6831955279793678
30
0
10
9.1024255115487325
20
2.6905578159816028
30
0
10
9.1999090663513847
20
2.7254279475152039
30
0
10
9.2975450078016806
20
2.7812721183891664
30
0
10
9.3955512111916519
20
2.8482329202809775
30
0
10
9.4941300870140548
20
2.9153358358098607
30
0
10
9.5934492975270214
20
2.9726075369859233
30
0
10
9.6936208932777852
20
3.0133467493487776
30
0
10
9.7947114821999328
20
3.0335630837459848
30
0
10
9.8763455694103595
20
3.031722799890249
30
0
10
9.9380043414323893
20
3.0199157513117862
30
0
10
9.97930269610133
20
3.0074108360685892
30
0
10
10
20
3
30
0
0
ENDSEC
0
SECTION
2
OBJECTS
0
DICTIONARY
5
C
100
AcDbDictionary
3
ACAD_GROUP
350
D
3
ACAD_MLINESTYLE
350
17
0
DICTIONARY
5
D
100
AcDbDictionary
0
DICTIONARY
5
1A
330
C
100
AcDbDictionary
0
DICTIONARY
5
17
100
AcDbDictionary
0
ENDSEC
0
EOF
