0
SECTION
2
HEADER
9
$INSUNITS
70
4
9
$ACADVER
1
AC1014
9
$HANDSEED
5
FFFF
0
ENDSEC
0
SECTION
2
TABLES
0
TABLE
2
VPORT
5
8
100
AcDbSymbolTable
0
ENDTAB
0
TABLE
2
LTYPE
5
5
100
AcDbSymbolTable
0
LTYPE
5
14
100
AcDbSymbolTableRecord
100
AcDbLinetypeTableRecord
2
BYBLOCK
70
0
0
LTYPE
5
15
100
AcDbSymbolTableRecord
100
AcDbLinetypeTableRecord
2
BYLAYER
70
0
0
ENDTAB
0
TABLE
2
LAYER
5
2
100
AcDbSymbolTable
70
2
0
LAYER
5
50
100
AcDbSymbolTableRecord
100
AcDbLayerTableRecord
2
0
70
0
6
CONTINUOUS
0
ENDTAB
0
TABLE
2
STYLE
5
3
100
AcDbSymbolTable
70
1
0
STYLE
5
11
100
AcDbSymbolTableRecord
100
AcDbTextStyleTableRecord
2
STANDARD
70
0
0
ENDTAB
0
TABLE
2
VIEW
5
6
100
AcDbSymbolTable
70
0
0
ENDTAB
0
TABLE
2
UCS
5
7
100
AcDbSymbolTable
70
0
0
ENDTAB
0
TABLE
2
APPID
5
9
100
AcDbSymbolTable
70
2
0
APPID
5
12
100
AcDbSymbolTableRecord
100
AcDbRegAppTableRecord
2
ACAD
70
0
0
ENDTAB
0
TABLE
2
DIMSTYLE
5
A
100
AcDbSymbolTable
70
1
0
ENDTAB
0
TABLE
2
BLOCK_RECORD
5
1
100
AcDbSymbolTable
70
1
0
BLOCK_RECORD
5
1F
100
AcDbSymbolTableRecord
100
AcDbBlockTableRecord
2
*MODEL_SPACE
0
BLOCK_RECORD
5
1B
100
AcDbSymbolTableRecord
100
AcDbBlockTableRecord
2
*PAPER_SPACE
0
ENDTAB
0
ENDSEC
0
SECTION
2
BLOCKS
0
BLOCK
5
20
100
AcDbEntity
100
AcDbBlockBegin
2
*MODEL_SPACE
0
ENDBLK
5
21
100
AcDbEntity
100
AcDbBlockEnd
0
BLOCK
5
1C
100
AcDbEntity
100
AcDbBlockBegin
2
*PAPER_SPACE
0
ENDBLK
5
1D
100
AcDbEntity
100
AcDbBlockEnd
0
ENDSEC
0
SECTION
2
ENTITIES
0
SPLINE
5
100
100
AcDbEntity
8
0
100
AcDbSpline
70
4
71
5
72
16
73
10
74
0
42
0.000000001
43
0.0000000001
44
0.0000000001
40
0
40
0
40
0
40
0
40
0
40
0
40
0.20000000000000001
40
0.40000000000000002
40
0.60000000000000009
40
0.80000000000000004
40
1
40
1
40
1
40
1
40
1
40
1
41
1
41
1
41
1
41
1
41
1
41
1
41
1
41
1
41
1
41
1
10
0
20
0
30
0
10
0
20
0.12000000000003158
30
0
10
0
20
0.36000000000007704
30
0
10
0
20
0.72000000000009301
30
0
10
0
20
1.2000000000000313
30
0
10
0
20
1.7999999999999146
30
0
10
0
20
2.2799999999998684
30
0
10
0
20
2.6399999999999042
30
0
10
0
20
2.8799999999999617
30
0
10
0
20
3
30
0
0
SPLINE
5
101
100
AcDbEntity
8
0
100
AcDbSpline
70
4
71
5
72
16
73
10
74
0
42
0.000000001
43
0.0000000001
44
0.0000000001
40
0
40
0
40
0
40
0
40
0
40
0
40
0.20000000000000001
40
0.40000000000000002
40
0.60000000000000009
40
0.80000000000000004
40
1
40
1
40
1
40
1
40
1
40
1
41
1
41
1
41
1
41
1
41
1
41
1
41
1
41
1
41
1
41
1
10
10
20
0
30
0
10
9.9999999999997495
20
0.12000000000003158
30
0
10
9.9999999999993197
20
0.36000000000007704
30
0
10
9.9999999999989129
20
0.72000000000009301
30
0
10
9.9999999999987672
20
1.2000000000000313
30
0
10
9.9999999999990248
20
1.7999999999999146
30
0
10
9.9999999999993889
20
2.2799999999998684
30
0
10
9.9999999999996998
20
2.6399999999999042
30
0
10
9.9999999999999005
20
2.8799999999999617
30
0
10
10
20
3
30
0
0
SPLINE
5
102
100
AcDbEntity
8
0
100
AcDbSpline
70
4
71
5
72
16
73
10
74
0
42
0.000000001
43
0.0000000001
44
0.0000000001
40
0
40
0
40
0
40
0
40
0
40
0
40
0.20000000000000001
40
0.40000000000000002
40
0.60000000000000009
40
0.80000000000000004
40
1
40
1
40
1
40
1
40
1
40
1
41
1
41
1
41
1
41
1
41
1
41
1
41
1
41
1
41
1
41
1
10
0
20
1.5
30
0
10
0.40000000000047375
20
1.499999999999694
30
0
10
1.2000000000012774
20
1.4999999999991638
30
0
10
2.4000000000020547
20
1.4999999999986278
30
0
10
4.0000000000023546
20
1.4999999999983737
30
0
10
6.0000000000019584
20
1.4999999999985913
30
0
10
7.6000000000012928
20
1.4999999999990359
30
0
10
8.800000000000697
20
1.4999999999994786
30
0
10
9.6000000000002395
20
1.4999999999998188
30
0
10
10
20
1.5
30
0
0
SPLINE
5
103
100
AcDbEntity
8
0
100
AcDbSpline
70
4
71
5
72
61
73
55
74
0
42
0.000000001
43
0.0000000001
44
0.0000000001
40
0
40
0
40
0
40
0
40
0
40
0
40
0.02
40
0.040000000000000001
40
0.059999999999999998
40
0.080000000000000002
40
0.10000000000000001
40
0.12000000000000001
40
0.14000000000000001
40
0.16
40
0.17999999999999999
40
0.19999999999999998
40
0.21999999999999997
40
0.23999999999999996
40
0.25999999999999995
40
0.27999999999999997
40
0.29999999999999999
40
0.32000000000000001
40
0.34000000000000002
40
0.36000000000000004
40
0.38000000000000006
40
0.40000000000000008
40
0.4200000000000001
40
0.44000000000000011
40
0.46000000000000013
40
0.48000000000000015
40
0.50000000000000011
40
0.52000000000000013
40
0.54000000000000015
40
0.56000000000000016
40
0.58000000000000018
40
0.6000000000000002
40
0.62000000000000022
40
0.64000000000000024
40
0.66000000000000025
40
0.68000000000000027
40
0.70000000000000029
40
0.72000000000000031
40
0.74000000000000032
40
0.76000000000000034
40
0.78000000000000036
40
0.80000000000000038
40
0.8200000000000004
40
0.84000000000000041
40
0.86000000000000043
40
0.88000000000000045
40
0.90000000000000047
40
0.92000000000000048
40
0.9400000000000005
40
0.96000000000000052
40
0.98000000000000054
40
1
40
1
40
1
40
1
40
1
40
1
41
1
41
1
41
1
41
1
41
1
41
1
41
1
41
1
41
1
41
1
41
1
41
1
41
1
41
1
41
1
41
1
41
1
41
1
41
1
41
1
41
1
41
1
41
1
41
1
41
1
41
1
41
1
41
1
41
1
41
1
41
1
41
1
41
1
41
1
41
1
41
1
41
1
41
1
41
1
41
1
41
1
41
1
41
1
41
1
41
1
41
1
41
1
41
1
41
1
41
1
41
1
41
1
41
1
41
1
41
1
10
0
20
0
30
0
10
0.039441625565423168
20
0.034913329461485301
30
0
10
0.11839363560295081
20
0.099574084244485328
30
0
10
0.23702792629763142
20
0.18106755592476795
30
0
10
0.39561981006773378
20
0.25870955111148297
30
0
10
0.59452617484605064
20
0.30514914414503197
30
0
10
0.79403186071497533
20
0.30441386880873866
30
0
10
0.99400000945367928
20
0.26355465619296725
30
0
10
1.1942010513360348
20
0.19444484468779247
30
0
10
1.3942865114513032
20
0.11514136769469634
30
0
10
1.5938725866492542
20
0.045989792070655705
30
0
10
1.7926260434811558
20
0.0056175663132767041
30
0
10
1.9903506281009156
20
0.0069092427388867759
30
0
10
2.1870706533281652
20
0.053107318135368856
30
0
10
2.3831243001432538
20
0.13347993361635005
30
0
10
2.5790420639467495
20
0.22858791837032882
30
0
10
2.7754169257453123
20
0.31591974928365152
30
0
10
2.9727744638638054
20
0.37553208764325985
30
0
10
3.1714505474879306
20
0.39534182753392932
30
0
10
3.3714451133603305
20
0.37750738321826321
30
0
10
3.5725051812663553
20
0.33437030968797266
30
0
10
3.7742399040869437
20
0.28294770563051924
30
0
10
3.9762259254309615
20
0.23983528705200249
30
0
10
4.1781118855676365
20
0.21620804414169992
30
0
10
4.3797359659992825
20
0.21205886771963442
30
0
10
4.5810829055176789
20
0.21948832158085274
30
0
10
4.7822214346867913
20
0.22708471028152521
30
0
10
4.9832480281945273
20
0.22397266897223916
30
0
10
5.1842302636766817
20
0.20384046676598763
30
0
10
5.3851445813920753
20
0.16941272523624562
30
0
10
5.5859131169897269
20
0.12953433335695091
30
0
10
5.7864485839890261
20
0.095655325106019304
30
0
10
5.9866969794627343
20
0.078498336659734977
30
0
10
6.1866794618464791
20
0.084749451316294272
30
0
10
6.3865396435683355
20
0.11346080244229467
30
0
10
6.5864879844557436
20
0.15817044301150374
30
0
10
6.7867399423197536
20
0.20938273915974911
30
0
10
6.9874555133378369
20
0.25693033062075121
30
0
10
7.1886802156237639
20
0.29232937984443791
30
0
10
7.3902793839342626
20
0.3112829410882727
30
0
10
7.5920048285983421
20
0.31291937275181736
30
0
10
7.7935691303195176
20
0.29883701281260061
30
0
10
7.9947173921322161
20
0.2722246620828897
30
0
10
8.1952991896911307
20
0.23696144571500455
30
0
10
8.3953431630595912
20
0.19671263794139196
30
0
10
8.59500733161806
20
0.15482950880049057
30
0
10
8.7945265552473213
20
0.11427186700454572
30
0
10
8.9941610766066447
20
0.077520438366517674
30
0
10
9.1941452481335286
20
0.046494005352598747
30
0
10
9.3946347172982634
20
0.022458205001455483
30
0
10
9.5957214553631172
20
0.0061575564481240672
30
0
10
9.7571047092690186
20
-0.00040683885498771948
30
0
10
9.8784375499616477
20
-0.0016382301642927624
30
0
10
9.9594573158260218
20
-0.00081937382514964921
30
0
10
10
20
0
30
0
0
SPLINE
5
104
100
AcDbEntity
8
0
100
AcDbSpline
70
4
71
5
72
61
73
55
74
0
42
0.000000001
43
0.0000000001
44
0.0000000001
40
0
40
0
40
0
40
0
40
0
40
0
40
0.02
40
0.040000000000000001
40
0.059999999999999998
40
0.080000000000000002
40
0.10000000000000001
40
0.12000000000000001
40
0.14000000000000001
40
0.16
40
0.17999999999999999
40
0.19999999999999998
40
0.21999999999999997
40
0.23999999999999996
40
0.25999999999999995
40
0.27999999999999997
40
0.29999999999999999
40
0.32000000000000001
40
0.34000000000000002
40
0.36000000000000004
40
0.38000000000000006
40
0.40000000000000008
40
0.4200000000000001
40
0.44000000000000011
40
0.46000000000000013
40
0.48000000000000015
40
0.50000000000000011
40
0.52000000000000013
40
0.54000000000000015
40
0.56000000000000016
40
0.58000000000000018
40
0.6000000000000002
40
0.62000000000000022
40
0.64000000000000024
40
0.66000000000000025
40
0.68000000000000027
40
0.70000000000000029
40
0.72000000000000031
40
0.74000000000000032
40
0.76000000000000034
40
0.78000000000000036
40
0.80000000000000038
40
0.8200000000000004
40
0.84000000000000041
40
0.86000000000000043
40
0.88000000000000045
40
0.90000000000000047
40
0.92000000000000048
40
0.9400000000000005
40
0.96000000000000052
40
0.98000000000000054
40
1
40
1
40
1
40
1
40
1
40
1
41
1
41
1
41
1
41
1
41
1
41
1
41
1
41
1
41
1
41
1
41
1
41
1
41
1
41
1
41
1
41
1
41
1
41
1
41
1
41
1
41
1
41
1
41
1
41
1
41
1
41
1
41
1
41
1
41
1
41
1
41
1
41
1
41
1
41
1
41
1
41
1
41
1
41
1
41
1
41
1
41
1
41
1
41
1
41
1
41
1
41
1
41
1
41
1
41
1
41
1
41
1
41
1
41
1
41
1
41
1
10
0
20
3
30
0
10
0.040420015125765818
20
3.0061357601096086
30
0
10
0.12117510293368922
20
3.016168474087495
30
0
10
0.24205290732730919
20
3.024501126880379
30
0
10
0.40271332640046864
20
3.0221697364663127
30
0
10
0.60270054300258868
20
2.9973996562275667
30
0
10
0.80188782622139332
20
2.9525032103130933
30
0
10
1.0003545246199077
20
2.8910093658009925
30
0
10
1.1982353283746374
20
2.8188670696739631
30
0
10
1.3957347532795463
20
2.7450710383891641
30
0
10
1.5930929576901856
20
2.6798233565732339
30
0
10
1.7905518977878225
20
2.6327134465349
30
0
10
1.9883209745253214
20
2.6108641934207562
30
0
10
2.1865437932868343
20
2.6171476749728622
30
0
10
2.3852616859503799
20
2.6481950170823638
30
0
10
2.5844395665477595
20
2.696356727940397
30
0
10
2.7839949803774715
20
2.751863633404994
30
0
10
2.9838261867679798
20
2.8049353704108131
30
0
10
3.1838397528170637
20
2.8478445388235203
30
0
10
3.3839805228152899
20
2.8771770806614549
30
0
10
3.5842226289168702
20
2.8929846079353276
30
0
10
3.7845574509019615
20
2.8976938716931806
30
0
10
3.9849825697864381
20
2.8951038346675908
30
0
10
4.1854906914210304
20
2.8893680107596786
30
0
10
4.3860575912049846
20
2.883938574484894
30
0
10
4.5866488717005671
20
2.8814114303199672
30
0
10
4.7872280845525541
20
2.8834425703775732
30
0
10
4.9877644491703315
20
2.8906310525470937
30
0
10
5.1882405123755575
20
2.9024243850054621
30
0
10
5.3886605104808165
20
2.9169806619048488
30
0
10
5.5890438629880537
20
2.9317274287089603
30
0
10
5.7894178232403224
20
2.943956211404084
30
0
10
5.9898104030982724
20
2.9514098422542139
30
0
10
6.1902433286544003
20
2.952858764982639
30
0
10
6.3907245949987068
20
2.9487249204138344
30
0
10
6.5912513503378367
20
2.940598795827456
30
0
10
6.7918132687607127
20
2.930705881458437
30
0
10
6.9923957322475498
20
2.9213906414828994
30
0
10
7.1929830511216055
20
2.91460111807474
30
0
10
7.3935617342424722
20
2.9113529305653651
30
0
10
7.594121107684451
20
2.9119067071450324
30
0
10
7.79465383389745
20
2.9159700265229835
30
0
10
7.9951564831209767
20
2.9228891014908958
30
0
10
8.1956300789436458
20
2.9318424442839035
30
0
10
8.3960807082591344
20
2.9420359672622611
30
0
10
8.5965178771158897
20
2.9527295919891676
30
0
10
8.7969528261179448
20
2.9632597737481241
30
0
10
8.9973968632859052
20
2.9730638025478857
30
0
10
9.1978596995549733
20
2.9817034147785364
30
0
10
9.3983477570832861
20
2.9888895815428089
30
0
10
9.5988648300716743
20
2.9944519611376301
30
0
10
9.7593031808532018
20
2.9975367969719917
30
0
10
9.879646091972436
20
2.9990712238661281
30
0
10
9.9598809833338073
20
2.9997480889623218
30
0
10
10
20
3
30
0
0
ENDSEC
0
SECTION
2
OBJECTS
0
DICTIONARY
5
C
100
AcDbDictionary
3
ACAD_GROUP
350
D
3
ACAD_MLINESTYLE
350
17
0
DICTIONARY
5
D
100
AcDbDictionary
0
DICTIONARY
5
1A
330
C
100
AcDbDictionary
0
DICTIONARY
5
17
100
AcDbDictionary
0
ENDSEC
0
EOF
