0
SECTION
2
HEADER
9
$INSUNITS
70
4
9
$ACADVER
1
AC1014
9
$HANDSEED
5
FFFF
0
ENDSEC
0
SECTION
2
TABLES
0
TABLE
2
VPORT
5
8
100
AcDbSymbolTable
0
ENDTAB
0
TABLE
2
LTYPE
5
5
100
AcDbSymbolTable
0
LTYPE
5
14
100
AcDbSymbolTableRecord
100
AcDbLinetypeTableRecord
2
BYBLOCK
70
0
0
LTYPE
5
15
100
AcDbSymbolTableRecord
100
AcDbLinetypeTableRecord
2
BYLAYER
70
0
0
ENDTAB
0
TABLE
2
LAYER
5
2
100
AcDbSymbolTable
70
2
0
LAYER
5
50
100
AcDbSymbolTableRecord
100
AcDbLayerTableRecord
2
0
70
0
6
CONTINUOUS
0
ENDTAB
0
TABLE
2
STYLE
5
3
100
AcDbSymbolTable
70
1
0
STYLE
5
11
100
AcDbSymbolTableRecord
100
AcDbTextStyleTableRecord
2
STANDARD
70
0
0
ENDTAB
0
TABLE
2
VIEW
5
6
100
AcDbSymbolTable
70
0
0
ENDTAB
0
TABLE
2
UCS
5
7
100
AcDbSymbolTable
70
0
0
ENDTAB
0
TABLE
2
APPID
5
9
100
AcDbSymbolTable
70
2
0
APPID
5
12
100
AcDbSymbolTableRecord
100
AcDbRegAppTableRecord
2
ACAD
70
0
0
ENDTAB
0
TABLE
2
DIMSTYLE
5
A
100
AcDbSymbolTable
70
1
0
ENDTAB
0
TABLE
2
BLOCK_RECORD
5
1
100
AcDbSymbolTable
70
1
0
BLOCK_RECORD
5
1F
100
AcDbSymbolTableRecord
100
AcDbBlockTableRecord
2
*MODEL_SPACE
0
BLOCK_RECORD
5
1B
100
AcDbSymbolTableRecord
100
AcDbBlockTableRecord
2
*PAPER_SPACE
0
ENDTAB
0
ENDSEC
0
SECTION
2
BLOCKS
0
BLOCK
5
20
100
AcDbEntity
100
AcDbBlockBegin
2
*MODEL_SPACE
0
ENDBLK
5
21
100
AcDbEntity
100
AcDbBlockEnd
0
BLOCK
5
1C
100
AcDbEntity
100
AcDbBlockBegin
2
*PAPER_SPACE
0
ENDBLK
5
1D
100
AcDbEntity
100
AcDbBlockEnd
0
ENDSEC
0
SECTION
2
ENTITIES
0
SPLINE
5
100
100
AcDbEntity
8
0
100
AcDbSpline
70
4
71
5
72
16
73
10
74
0
42
0.000000001
43
0.0000000001
44
0.0000000001
40
0
40
0
40
0
40
0
40
0
40
0
40
0.20000000000000001
40
0.40000000000000002
40
0.60000000000000009
40
0.80000000000000004
40
1
40
1
40
1
40
1
40
1
40
1
41
1
41
1
41
1
41
1
41
1
41
1
41
1
41
1
41
1
41
1
10
0
20
0
30
0
10
0
20
0.12000000000003158
30
0
10
0
20
0.36000000000007704
30
0
10
0
20
0.72000000000009301
30
0
10
0
20
1.2000000000000313
30
0
10
0
20
1.7999999999999146
30
0
10
0
20
2.2799999999998684
30
0
10
0
20
2.6399999999999042
30
0
10
0
20
2.8799999999999617
30
0
10
0
20
3
30
0
0
SPLINE
5
101
100
AcDbEntity
8
0
100
AcDbSpline
70
4
71
5
72
16
73
10
74
0
42
0.000000001
43
0.0000000001
44
0.0000000001
40
0
40
0
40
0
40
0
40
0
40
0
40
0.20000000000000001
40
0.40000000000000002
40
0.60000000000000009
40
0.80000000000000004
40
1
40
1
40
1
40
1
40
1
40
1
41
1
41
1
41
1
41
1
41
1
41
1
41
1
41
1
41
1
41
1
10
10
20
0
30
0
10
9.9999999999997495
20
0.12000000000003158
30
0
10
9.9999999999993197
20
0.36000000000007704
30
0
10
9.9999999999989129
20
0.72000000000009301
30
0
10
9.9999999999987672
20
1.2000000000000313
30
0
10
9.9999999999990248
20
1.7999999999999146
30
0
10
9.9999999999993889
20
2.2799999999998684
30
0
10
9.9999999999996998
20
2.6399999999999042
30
0
10
9.9999999999999005
20
2.8799999999999617
30
0
10
10
20
3
30
0
0
SPLINE
5
102
100
AcDbEntity
8
0
100
AcDbSpline
70
4
71
5
72
16
73
10
74
0
42
0.000000001
43
0.0000000001
44
0.0000000001
40
0
40
0
40
0
40
0
40
0
40
0
40
0.20000000000000001
40
0.40000000000000002
40
0.60000000000000009
40
0.80000000000000004
40
1
40
1
40
1
40
1
40
1
40
1
41
1
41
1
41
1
41
1
41
1
41
1
41
1
41
1
41
1
41
1
10
0
20
1.5
30
0
10
0.40000000000047375
20
1.499999999999694
30
0
10
1.2000000000012774
20
1.4999999999991638
30
0
10
2.4000000000020547
20
1.4999999999986278
30
0
10
4.0000000000023546
20
1.4999999999983737
30
0
10
6.0000000000019584
20
1.4999999999985913
30
0
10
7.6000000000012928
20
1.4999999999990359
30
0
10
8.800000000000697
20
1.4999999999994786
30
0
10
9.6000000000002395
20
1.4999999999998188
30
0
10
10
20
1.5
30
0
0
SPLINE
5
103
100
AcDbEntity
8
0
100
AcDbSpline
70
4
71
5
72
61
73
55
74
0
42
0.000000001
43
0.0000000001
44
0.0000000001
40
0
40
0
40
0
40
0
40
0
40
0
40
0.02
40
0.040000000000000001
40
0.059999999999999998
40
0.080000000000000002
40
0.10000000000000001
40
0.12000000000000001
40
0.14000000000000001
40
0.16
40
0.17999999999999999
40
0.19999999999999998
40
0.21999999999999997
40
0.23999999999999996
40
0.25999999999999995
40
0.27999999999999997
40
0.29999999999999999
40
0.32000000000000001
40
0.34000000000000002
40
0.36000000000000004
40
0.38000000000000006
40
0.40000000000000008
40
0.4200000000000001
40
0.44000000000000011
40
0.46000000000000013
40
0.48000000000000015
40
0.50000000000000011
40
0.52000000000000013
40
0.54000000000000015
40
0.56000000000000016
40
0.58000000000000018
40
0.6000000000000002
40
0.62000000000000022
40
0.64000000000000024
40
0.66000000000000025
40
0.68000000000000027
40
0.70000000000000029
40
0.72000000000000031
40
0.74000000000000032
40
0.76000000000000034
40
0.78000000000000036
40
0.80000000000000038
40
0.8200000000000004
40
0.84000000000000041
40
0.86000000000000043
40
0.88000000000000045
40
0.90000000000000047
40
0.92000000000000048
40
0.9400000000000005
40
0.96000000000000052
40
0.98000000000000054
40
1
40
1
40
1
40
1
40
1
40
1
41
1
41
1
41
1
41
1
41
1
41
1
41
1
41
1
41
1
41
1
41
1
41
1
41
1
41
1
41
1
41
1
41
1
41
1
41
1
41
1
41
1
41
1
41
1
41
1
41
1
41
1
41
1
41
1
41
1
41
1
41
1
41
1
41
1
41
1
41
1
41
1
41
1
41
1
41
1
41
1
41
1
41
1
41
1
41
1
41
1
41
1
41
1
41
1
41
1
41
1
41
1
41
1
41
1
41
1
41
1
10
0
20
0
30
0
10
0.040461712956902346
20
-0.00435694632404739
30
0
10
0.12136476775579309
20
-0.011927660891311602
30
0
10
0.24265823669557368
20
-0.019854186613050443
30
0
10
0.40426055506779568
20
-0.023559429296417796
30
0
10
0.60606020563178697
20
-0.016971181248060189
30
0
10
0.80765918947151327
20
0.00013167021982859965
30
0
10
1.0090633023829698
20
0.026306784163928499
30
0
10
1.2102827101439173
20
0.059109116660723646
30
0
10
1.4113333455771544
20
0.094857587368630064
30
0
10
1.6122427063793308
20
0.1292008031543358
30
0
10
1.813055715977675
20
0.15765143185171029
30
0
10
2.0138402009939571
20
0.17613026698231915
30
0
10
2.2146935335620217
20
0.18151012180072773
30
0
10
2.4157462101931655
20
0.1721525919494995
30
0
10
2.6171220169002614
20
0.14820980196459083
30
0
10
2.818899813034939
20
0.11196567358421941
30
0
10
3.0210763138608638
20
0.068124642309245947
30
0
10
3.2235242659816388
20
0.024230431134231824
30
0
10
3.425963685852242
20
-0.009251441528570447
30
0
10
3.6280540387052556
20
-0.021834671936941764
30
0
10
3.8294780741517407
20
-0.0057457887761498518
30
0
10
4.0300250154166459
20
0.041436786163358802
30
0
10
4.2296832271668885
20
0.11370692506693339
30
0
10
4.4287029275495415
20
0.19484710197450289
30
0
10
4.6274708497686525
20
0.26460112918376844
30
0
10
4.8264049693764042
20
0.30404630342270317
30
0
10
5.0258449706482402
20
0.3010469672376892
30
0
10
5.2259366642083638
20
0.25621908832922208
30
0
10
5.4265411443182812
20
0.18716059306593125
30
0
10
5.6273349069687253
20
0.11979496779590924
30
0
10
5.8278907458859983
20
0.080902924363156464
30
0
10
6.0277643087594832
20
0.090491859280809245
30
0
10
6.2265813695551211
20
0.15355205445644793
30
0
10
6.4241154036745316
20
0.25400336448129296
30
0
10
6.6202887377744926
20
0.36414934911551133
30
0
10
6.8151826445735342
20
0.452488617660327
30
0
10
7.0090438188849475
20
0.49205896783300684
30
0
10
7.2022943370349104
20
0.46875492309315259
30
0
10
7.3955365070377734
20
0.38913852551977596
30
0
10
7.589441530603426
20
0.27313913621119906
30
0
10
7.7846438637800253
20
0.14744679736167501
30
0
10
7.9816312320566922
20
0.038562791893870872
30
0
10
8.1806411467459768
20
-0.033756707039664401
30
0
10
8.3815405459310757
20
-0.063888189989231486
30
0
10
8.5839235950609112
20
-0.057152793769146476
30
0
10
8.7872283696687319
20
-0.025707945160225114
30
0
10
8.9908469985659636
20
0.015234245396424692
30
0
10
9.1942365417299143
20
0.051256310024717956
30
0
10
9.3970344548109281
20
0.072711274270151852
30
0
10
9.5990258812392977
20
0.073885847413289546
30
0
10
9.759888831003094
20
0.056337747014122058
30
0
10
9.88010999771749
20
0.03236922300261591
30
0
10
9.9600682051524529
20
0.011589800157810108
30
0
10
10
20
0
30
0
0
SPLINE
5
104
100
AcDbEntity
8
0
100
AcDbSpline
70
4
71
5
72
61
73
55
74
0
42
0.000000001
43
0.0000000001
44
0.0000000001
40
0
40
0
40
0
40
0
40
0
40
0
40
0.02
40
0.040000000000000001
40
0.059999999999999998
40
0.080000000000000002
40
0.10000000000000001
40
0.12000000000000001
40
0.14000000000000001
40
0.16
40
0.17999999999999999
40
0.19999999999999998
40
0.21999999999999997
40
0.23999999999999996
40
0.25999999999999995
40
0.27999999999999997
40
0.29999999999999999
40
0.32000000000000001
40
0.34000000000000002
40
0.36000000000000004
40
0.38000000000000006
40
0.40000000000000008
40
0.4200000000000001
40
0.44000000000000011
40
0.46000000000000013
40
0.48000000000000015
40
0.50000000000000011
40
0.52000000000000013
40
0.54000000000000015
40
0.56000000000000016
40
0.58000000000000018
40
0.6000000000000002
40
0.62000000000000022
40
0.64000000000000024
40
0.66000000000000025
40
0.68000000000000027
40
0.70000000000000029
40
0.72000000000000031
40
0.74000000000000032
40
0.76000000000000034
40
0.78000000000000036
40
0.80000000000000038
40
0.8200000000000004
40
0.84000000000000041
40
0.86000000000000043
40
0.88000000000000045
40
0.90000000000000047
40
0.92000000000000048
40
0.9400000000000005
40
0.96000000000000052
40
0.98000000000000054
40
1
40
1
40
1
40
1
40
1
40
1
41
1
41
1
41
1
41
1
41
1
41
1
41
1
41
1
41
1
41
1
41
1
41
1
41
1
41
1
41
1
41
1
41
1
41
1
41
1
41
1
41
1
41
1
41
1
41
1
41
1
41
1
41
1
41
1
41
1
41
1
41
1
41
1
41
1
41
1
41
1
41
1
41
1
41
1
41
1
41
1
41
1
41
1
41
1
41
1
41
1
41
1
41
1
41
1
41
1
41
1
41
1
41
1
41
1
41
1
41
1
10
0
20
3
30
0
10
0.040044604148293979
20
2.9954295204356867
30
0
10
0.1201560890779106
20
2.9867675343585449
30
0
10
0.24039014667406178
20
2.9752114793014499
30
0
10
0.40083596835616142
20
2.9626790841621453
30
0
10
0.60160866197459761
20
2.9516833392421238
30
0
10
0.80257335755904591
20
2.944968328180972
30
0
10
1.0036826047688225
20
2.9417424313281804
30
0
10
1.204856433373118
20
2.9406687039672912
30
0
10
1.4059746534378021
20
2.9397348633929061
30
0
10
1.6069151194053788
20
2.9368740664295725
30
0
10
1.8075916079394048
20
2.9305790344110019
30
0
10
2.0079911979717089
20
2.9205086242807177
30
0
10
2.208213690079762
20
2.9081260978845584
30
0
10
2.4085058480883159
20
2.8972568623429984
30
0
10
2.6091568100140283
20
2.8924785893363847
30
0
10
2.8103971743266971
20
2.8975699023558059
30
0
10
3.0122989095078587
20
2.9139697611714963
30
0
10
3.2146692347665158
20
2.93914857876366
30
0
10
3.4169613819164582
20
2.9652278899758211
30
0
10
3.6184740505135378
20
2.9818644161324053
30
0
10
3.8185377782610139
20
2.9789385552142376
30
0
10
4.0167019205361498
20
2.9492557347618567
30
0
10
4.21293183222671
20
2.8913874547687959
30
0
10
4.4077741767950265
20
2.8120695876866058
30
0
10
4.6021099197932527
20
2.7228626721813809
30
0
10
4.7969367073046847
20
2.6372214627386352
30
0
10
4.9931390833507079
20
2.5673962580345795
30
0
10
5.1912671965010526
20
2.5214520008831736
30
0
10
5.3913016435973136
20
2.5000986018812501
30
0
10
5.5928176002303323
20
2.4989620305612488
30
0
10
5.7951597043237912
20
2.5110020048582471
30
0
10
5.9976125712674966
20
2.5288726869888398
30
0
10
6.1995720480809933
20
2.5472907401574512
30
0
10
6.4007184301467213
20
2.5654408889915854
30
0
10
6.6009616690756969
20
2.5854029140630685
30
0
10
6.8003843169034441
20
2.6105380380370291
30
0
10
6.9991858261666007
20
2.6438932443838707
30
0
10
7.197626704152591
20
2.6866023013229281
30
0
10
7.3959728686818851
20
2.7362731581483333
30
0
10
7.5944733202078449
20
2.7883069216904213
30
0
10
7.7933380705594786
20
2.8372203330532475
30
0
10
7.9927156563142088
20
2.8779726530192691
30
0
10
8.1926711911052124
20
2.9072697974920114
30
0
10
8.393162530847464
20
2.9249396649774622
30
0
10
8.5940711002178194
20
2.933102914569377
30
0
10
8.7952343573400285
20
2.9352751200994605
30
0
10
8.9964775942190887
20
2.9354963652379853
30
0
10
9.197645746468714
20
2.9374569876160543
30
0
10
9.3986357810284211
20
2.9436100412343853
30
0
10
9.5993864991593032
20
2.9554123455500769
30
0
10
9.7597714674803431
20
2.9699486958324695
30
0
10
9.8799345600655446
20
2.9838203284348812
30
0
10
9.9599874869170613
20
2.994386963557977
30
0
10
10
20
3
30
0
0
ENDSEC
0
SECTION
2
OBJECTS
0
DICTIONARY
5
C
100
AcDbDictionary
3
ACAD_GROUP
350
D
3
ACAD_MLINESTYLE
350
17
0
DICTIONARY
5
D
100
AcDbDictionary
0
DICTIONARY
5
1A
330
C
100
AcDbDictionary
0
DICTIONARY
5
17
100
AcDbDictionary
0
ENDSEC
0
EOF
