0
SECTION
2
HEADER
9
$INSUNITS
70
4
9
$ACADVER
1
AC1014
9
$HANDSEED
5
FFFF
0
ENDSEC
0
SECTION
2
TABLES
0
TABLE
2
VPORT
5
8
100
AcDbSymbolTable
0
ENDTAB
0
TABLE
2
LTYPE
5
5
100
AcDbSymbolTable
0
LTYPE
5
14
100
AcDbSymbolTableRecord
100
AcDbLinetypeTableRecord
2
BYBLOCK
70
0
0
LTYPE
5
15
100
AcDbSymbolTableRecord
100
AcDbLinetypeTableRecord
2
BYLAYER
70
0
0
ENDTAB
0
TABLE
2
LAYER
5
2
100
AcDbSymbolTable
70
2
0
LAYER
5
50
100
AcDbSymbolTableRecord
100
AcDbLayerTableRecord
2
0
70
0
6
CONTINUOUS
0
ENDTAB
0
TABLE
2
STYLE
5
3
100
AcDbSymbolTable
70
1
0
STYLE
5
11
100
AcDbSymbolTableRecord
100
AcDbTextStyleTableRecord
2
STANDARD
70
0
0
ENDTAB
0
TABLE
2
VIEW
5
6
100
AcDbSymbolTable
70
0
0
ENDTAB
0
TABLE
2
UCS
5
7
100
AcDbSymbolTable
70
0
0
ENDTAB
0
TABLE
2
APPID
5
9
100
AcDbSymbolTable
70
2
0
APPID
5
12
100
AcDbSymbolTableRecord
100
AcDbRegAppTableRecord
2
ACAD
70
0
0
ENDTAB
0
TABLE
2
DIMSTYLE
5
A
100
AcDbSymbolTable
70
1
0
ENDTAB
0
TABLE
2
BLOCK_RECORD
5
1
100
AcDbSymbolTable
70
1
0
BLOCK_RECORD
5
1F
100
AcDbSymbolTableRecord
100
AcDbBlockTableRecord
2
*MODEL_SPACE
0
BLOCK_RECORD
5
1B
100
AcDbSymbolTableRecord
100
AcDbBlockTableRecord
2
*PAPER_SPACE
0
ENDTAB
0
ENDSEC
0
SECTION
2
BLOCKS
0
BLOCK
5
20
100
AcDbEntity
100
AcDbBlockBegin
2
*MODEL_SPACE
0
ENDBLK
5
21
100
AcDbEntity
100
AcDbBlockEnd
0
BLOCK
5
1C
100
AcDbEntity
100
AcDbBlockBegin
2
*PAPER_SPACE
0
ENDBLK
5
1D
100
AcDbEntity
100
AcDbBlockEnd
0
ENDSEC
0
SECTION
2
ENTITIES
0
SPLINE
5
100
100
AcDbEntity
8
0
100
AcDbSpline
70
4
71
5
72
16
73
10
74
0
42
0.000000001
43
0.0000000001
44
0.0000000001
40
0
40
0
40
0
40
0
40
0
40
0
40
0.20000000000000001
40
0.40000000000000002
40
0.60000000000000009
40
0.80000000000000004
40
1
40
1
40
1
40
1
40
1
40
1
41
1
41
1
41
1
41
1
41
1
41
1
41
1
41
1
41
1
41
1
10
0
20
0
30
0
10
0
20
0.12000000000003158
30
0
10
0
20
0.36000000000007704
30
0
10
0
20
0.72000000000009301
30
0
10
0
20
1.2000000000000313
30
0
10
0
20
1.7999999999999146
30
0
10
0
20
2.2799999999998684
30
0
10
0
20
2.6399999999999042
30
0
10
0
20
2.8799999999999617
30
0
10
0
20
3
30
0
0
SPLINE
5
101
100
AcDbEntity
8
0
100
AcDbSpline
70
4
71
5
72
16
73
10
74
0
42
0.000000001
43
0.0000000001
44
0.0000000001
40
0
40
0
40
0
40
0
40
0
40
0
40
0.20000000000000001
40
0.40000000000000002
40
0.60000000000000009
40
0.80000000000000004
40
1
40
1
40
1
40
1
40
1
40
1
41
1
41
1
41
1
41
1
41
1
41
1
41
1
41
1
41
1
41
1
10
10
20
0
30
0
10
9.9999999999997495
20
0.12000000000003158
30
0
10
9.9999999999993197
20
0.36000000000007704
30
0
10
9.9999999999989129
20
0.72000000000009301
30
0
10
9.9999999999987672
20
1.2000000000000313
30
0
10
9.9999999999990248
20
1.7999999999999146
30
0
10
9.9999999999993889
20
2.2799999999998684
30
0
10
9.9999999999996998
20
2.6399999999999042
30
0
10
9.9999999999999005
20
2.8799999999999617
30
0
10
10
20
3
30
0
0
SPLINE
5
102
100
AcDbEntity
8
0
100
AcDbSpline
70
4
71
5
72
16
73
10
74
0
42
0.000000001
43
0.0000000001
44
0.0000000001
40
0
40
0
40
0
40
0
40
0
40
0
40
0.20000000000000001
40
0.40000000000000002
40
0.60000000000000009
40
0.80000000000000004
40
1
40
1
40
1
40
1
40
1
40
1
41
1
41
1
41
1
41
1
41
1
41
1
41
1
41
1
41
1
41
1
10
0
20
1.5
30
0
10
0.40000000000047375
20
1.499999999999694
30
0
10
1.2000000000012774
20
1.4999999999991638
30
0
10
2.4000000000020547
20
1.4999999999986278
30
0
10
4.0000000000023546
20
1.4999999999983737
30
0
10
6.0000000000019584
20
1.4999999999985913
30
0
10
7.6000000000012928
20
1.4999999999990359
30
0
10
8.800000000000697
20
1.4999999999994786
30
0
10
9.6000000000002395
20
1.4999999999998188
30
0
10
10
20
1.5
30
0
0
SPLINE
5
103
100
AcDbEntity
8
0
100
AcDbSpline
70
4
71
5
72
111
73
105
74
0
42
0.000000001
43
0.0000000001
44
0.0000000001
40
0
40
0
40
0
40
0
40
0
40
0
40
0.01
40
0.02
40
0.029999999999999999
40
0.040000000000000001
40
0.050000000000000003
40
0.060000000000000005
40
0.070000000000000007
40
0.080000000000000002
40
0.089999999999999997
40
0.099999999999999992
40
0.10999999999999999
40
0.11999999999999998
40
0.12999999999999998
40
0.13999999999999999
40
0.14999999999999999
40
0.16
40
0.17000000000000001
40
0.18000000000000002
40
0.19000000000000003
40
0.20000000000000004
40
0.21000000000000005
40
0.22000000000000006
40
0.23000000000000007
40
0.24000000000000007
40
0.25000000000000006
40
0.26000000000000006
40
0.27000000000000007
40
0.28000000000000008
40
0.29000000000000009
40
0.3000000000000001
40
0.31000000000000011
40
0.32000000000000012
40
0.33000000000000013
40
0.34000000000000014
40
0.35000000000000014
40
0.36000000000000015
40
0.37000000000000016
40
0.38000000000000017
40
0.39000000000000018
40
0.40000000000000019
40
0.4100000000000002
40
0.42000000000000021
40
0.43000000000000022
40
0.44000000000000022
40
0.45000000000000023
40
0.46000000000000024
40
0.47000000000000025
40
0.48000000000000026
40
0.49000000000000027
40
0.50000000000000022
40
0.51000000000000023
40
0.52000000000000024
40
0.53000000000000025
40
0.54000000000000026
40
0.55000000000000027
40
0.56000000000000028
40
0.57000000000000028
40
0.58000000000000029
40
0.5900000000000003
40
0.60000000000000031
40
0.61000000000000032
40
0.62000000000000033
40
0.63000000000000034
40
0.64000000000000035
40
0.65000000000000036
40
0.66000000000000036
40
0.67000000000000037
40
0.68000000000000038
40
0.69000000000000039
40
0.7000000000000004
40
0.71000000000000041
40
0.72000000000000042
40
0.73000000000000043
40
0.74000000000000044
40
0.75000000000000044
40
0.76000000000000045
40
0.77000000000000046
40
0.78000000000000047
40
0.79000000000000048
40
0.80000000000000049
40
0.8100000000000005
40
0.82000000000000051
40
0.83000000000000052
40
0.84000000000000052
40
0.85000000000000053
40
0.86000000000000054
40
0.87000000000000055
40
0.88000000000000056
40
0.89000000000000057
40
0.90000000000000058
40
0.91000000000000059
40
0.9200000000000006
40
0.9300000000000006
40
0.94000000000000061
40
0.95000000000000062
40
0.96000000000000063
40
0.97000000000000064
40
0.98000000000000065
40
0.99000000000000066
40
1
40
1
40
1
40
1
40
1
40
1
41
1
41
1
41
1
41
1
41
1
41
1
41
1
41
1
41
1
41
1
41
1
41
1
41
1
41
1
41
1
41
1
41
1
41
1
41
1
41
1
41
1
41
1
41
1
41
1
41
1
41
1
41
1
41
1
41
1
41
1
41
1
41
1
41
1
41
1
41
1
41
1
41
1
41
1
41
1
41
1
41
1
41
1
41
1
41
1
41
1
41
1
41
1
41
1
41
1
41
1
41
1
41
1
41
1
41
1
41
1
41
1
41
1
41
1
41
1
41
1
41
1
41
1
41
1
41
1
41
1
41
1
41
1
41
1
41
1
41
1
41
1
41
1
41
1
41
1
41
1
41
1
41
1
41
1
41
1
41
1
41
1
41
1
41
1
41
1
41
1
41
1
41
1
41
1
41
1
41
1
41
1
41
1
41
1
41
1
41
1
41
1
41
1
41
1
41
1
41
1
41
1
41
1
41
1
41
1
41
1
10
0
20
0
30
0
10
0.019861181682050331
20
0.022885862968160222
30
0
10
0.059602646270433962
20
0.065450363165900097
30
0
10
0.11927214678433087
20
0.11967544615132827
30
0
10
0.19894610708497726
20
0.17272900281884512
30
0
10
0.29872749337767135
20
0.20762132454529764
30
0
10
0.39869131074822067
20
0.21307801268730148
30
0
10
0.49882439415391161
20
0.19310440706813864
30
0
10
0.599104695099407
20
0.15439315803161088
30
0
10
0.69949893744425184
20
0.10702429301522196
30
0
10
0.79997212417579266
20
0.062360862946984258
30
0
10
0.90049718602551998
20
0.030912610904783051
30
0
10
1.0010645423822004
20
0.020218118194093311
30
0
10
1.1016917984710475
20
0.032701719130182244
30
0
10
1.2024331574426719
20
0.063581276254371641
30
0
10
1.3033616452768748
20
0.10365666649877889
30
0
10
1.4045514783731825
20
0.14206877530737871
30
0
10
1.506060626489977
20
0.16903057353507975
30
0
10
1.607912719369549
20
0.17865623991757912
30
0
10
1.7100808114456036
20
0.17150788307223086
30
0
10
1.8125029531863524
20
0.1523705257207002
30
0
10
1.9150962421589957
20
0.12823821152181858
30
0
10
2.0177712057023243
20
0.10628889496296047
30
0
10
2.1204465614711721
20
0.091709267121941121
30
0
10
2.2230622123212864
20
0.086047261180289353
30
0
10
2.3255816094791735
20
0.088341656936600121
30
0
10
2.4279961797105925
20
0.09590254164600924
30
0
10
2.5303275804116465
20
0.10520552768915509
30
0
10
2.6326341835472098
20
0.11278528814274873
30
0
10
2.7350052866856349
20
0.11596930305633101
30
0
10
2.8375273902569429
20
0.11310062655411561
30
0
10
2.9402536060974258
20
0.10390573716366534
30
0
10
3.043176577433468
20
0.089714446963628597
30
0
10
3.146188381559853
20
0.073963073189754452
30
0
10
3.2490870161925098
20
0.061796392700117324
30
0
10
3.3516463372542677
20
0.05848717578425168
30
0
10
3.4536740716291026
20
0.068051125073186447
30
0
10
3.5550668726780894
20
0.091982433372125028
30
0
10
3.6558858300477786
20
0.12744469248120679
30
0
10
3.7563437046317389
20
0.16773646799961001
30
0
10
3.8567192552292999
20
0.2046215785128673
30
0
10
3.9572886970067906
20
0.2302277160989184
30
0
10
4.0582581958881372
20
0.238903092214206
30
0
10
4.1596759282642006
20
0.22963478254389458
30
0
10
4.261440510832462
20
0.2058432464320587
30
0
10
4.3633787044845231
20
0.17328785820594747
30
0
10
4.4653057059115051
20
0.138456752660016
30
0
10
4.5670858458971981
20
0.10692115890411365
30
0
10
4.6687100965719521
20
0.081294368537876152
30
0
10
4.7702796836750849
20
0.061457797966977229
30
0
10
4.8719425863310564
20
0.045930489276757573
30
0
10
4.9738425893262654
20
0.032930901411769811
30
0
10
5.0760683403494884
20
0.021445624349875583
30
0
10
5.1785890355869935
20
0.012603703032838169
30
0
10
5.2812810215207771
20
0.0089562208628878991
30
0
10
5.3839841488247906
20
0.013078298572248685
30
0
10
5.4865495352113456
20
0.026349762260480157
30
0
10
5.5888878549483065
20
0.047767556481322762
30
0
10
5.6910255317057992
20
0.072460231464006195
30
0
10
5.7930668101035012
20
0.093495324447164366
30
0
10
5.8951422905934558
20
0.10415189385379162
30
0
10
5.9973620508183476
20
0.10004287722451259
30
0
10
6.0997673886812711
20
0.081267890411486521
30
0
10
6.202281589819119
20
0.054649743821026289
30
0
10
6.3047425106625852
20
0.030651860548480993
30
0
10
6.4069372119186374
20
0.020130460132703622
30
0
10
6.5086358013317032
20
0.031218141012090549
30
0
10
6.6096255630659773
20
0.065990104258857596
30
0
10
6.7097450347275611
20
0.11767833414988166
30
0
10
6.8089175878508836
20
0.17432636305193763
30
0
10
6.9071856338665603
20
0.22201919675704523
30
0
10
7.0047435267432903
20
0.24824174515069894
30
0
10
7.1019737690764364
20
0.24525428066157484
30
0
10
7.1994744585566597
20
0.21326225822248854
30
0
10
7.2978932771552589
20
0.15836263362687894
30
0
10
7.3977693865896903
20
0.0907116787671393
30
0
10
7.4993722998204522
20
0.022610932315772936
30
0
10
7.6025418987463667
20
-0.03336703997277226
30
0
10
7.7065275207387627
20
-0.066276859979377004
30
0
10
7.8102553012672224
20
-0.068072849649208012
30
0
10
7.9126001241789501
20
-0.034926703943433425
30
0
10
8.0126480467223899
20
0.031551716231935596
30
0
10
8.1099808079212394
20
0.1228572528375077
30
0
10
8.2048987748035138
20
0.22279033434008993
30
0
10
8.2981538148646479
20
0.3119996826172462
30
0
10
8.3907319471548352
20
0.37193616863198831
30
0
10
8.4836108833224628
20
0.38919544195563921
30
0
10
8.5775426493658316
20
0.35932204141201957
30
0
10
8.6727876856380011
20
0.29183459629057623
30
0
10
8.769201618281711
20
0.20610776616214546
30
0
10
8.8663871475501672
20
0.12561671652992357
30
0
10
8.9638279215985861
20
0.072513096359581752
30
0
10
9.0610192754750756
20
0.06260123760903942
30
0
10
9.1576268631291686
20
0.098786483619350385
30
0
10
9.2535054105488417
20
0.17167841800181255
30
0
10
9.3486353994954392
20
0.26431402019008432
30
0
10
9.4430839156866302
20
0.35572163118562755
30
0
10
9.5369580795812041
20
0.42471863302810298
30
0
10
9.6303555879443241
20
0.45419577418224011
30
0
10
9.7233379770422683
20
0.43312790698140874
30
0
10
9.8159436515039111
20
0.35479828346802122
30
0
10
9.8897418581602956
20
0.24369712614765365
30
0
10
9.9449324119761293
20
0.13263303436698975
30
0
10
9.9816558479984021
20
0.046265229944058558
30
0
10
10
20
0
30
0
0
SPLINE
5
104
100
AcDbEntity
8
0
100
AcDbSpline
70
4
71
5
72
111
73
105
74
0
42
0.000000001
43
0.0000000001
44
0.0000000001
40
0
40
0
40
0
40
0
40
0
40
0
40
0.01
40
0.02
40
0.029999999999999999
40
0.040000000000000001
40
0.050000000000000003
40
0.060000000000000005
40
0.070000000000000007
40
0.080000000000000002
40
0.089999999999999997
40
0.099999999999999992
40
0.10999999999999999
40
0.11999999999999998
40
0.12999999999999998
40
0.13999999999999999
40
0.14999999999999999
40
0.16
40
0.17000000000000001
40
0.18000000000000002
40
0.19000000000000003
40
0.20000000000000004
40
0.21000000000000005
40
0.22000000000000006
40
0.23000000000000007
40
0.24000000000000007
40
0.25000000000000006
40
0.26000000000000006
40
0.27000000000000007
40
0.28000000000000008
40
0.29000000000000009
40
0.3000000000000001
40
0.31000000000000011
40
0.32000000000000012
40
0.33000000000000013
40
0.34000000000000014
40
0.35000000000000014
40
0.36000000000000015
40
0.37000000000000016
40
0.38000000000000017
40
0.39000000000000018
40
0.40000000000000019
40
0.4100000000000002
40
0.42000000000000021
40
0.43000000000000022
40
0.44000000000000022
40
0.45000000000000023
40
0.46000000000000024
40
0.47000000000000025
40
0.48000000000000026
40
0.49000000000000027
40
0.50000000000000022
40
0.51000000000000023
40
0.52000000000000024
40
0.53000000000000025
40
0.54000000000000026
40
0.55000000000000027
40
0.56000000000000028
40
0.57000000000000028
40
0.58000000000000029
40
0.5900000000000003
40
0.60000000000000031
40
0.61000000000000032
40
0.62000000000000033
40
0.63000000000000034
40
0.64000000000000035
40
0.65000000000000036
40
0.66000000000000036
40
0.67000000000000037
40
0.68000000000000038
40
0.69000000000000039
40
0.7000000000000004
40
0.71000000000000041
40
0.72000000000000042
40
0.73000000000000043
40
0.74000000000000044
40
0.75000000000000044
40
0.76000000000000045
40
0.77000000000000046
40
0.78000000000000047
40
0.79000000000000048
40
0.80000000000000049
40
0.8100000000000005
40
0.82000000000000051
40
0.83000000000000052
40
0.84000000000000052
40
0.85000000000000053
40
0.86000000000000054
40
0.87000000000000055
40
0.88000000000000056
40
0.89000000000000057
40
0.90000000000000058
40
0.91000000000000059
40
0.9200000000000006
40
0.9300000000000006
40
0.94000000000000061
40
0.95000000000000062
40
0.96000000000000063
40
0.97000000000000064
40
0.98000000000000065
40
0.99000000000000066
40
1
40
1
40
1
40
1
40
1
40
1
41
1
41
1
41
1
41
1
41
1
41
1
41
1
41
1
41
1
41
1
41
1
41
1
41
1
41
1
41
1
41
1
41
1
41
1
41
1
41
1
41
1
41
1
41
1
41
1
41
1
41
1
41
1
41
1
41
1
41
1
41
1
41
1
41
1
41
1
41
1
41
1
41
1
41
1
41
1
41
1
41
1
41
1
41
1
41
1
41
1
41
1
41
1
41
1
41
1
41
1
41
1
41
1
41
1
41
1
41
1
41
1
41
1
41
1
41
1
41
1
41
1
41
1
41
1
41
1
41
1
41
1
41
1
41
1
41
1
41
1
41
1
41
1
41
1
41
1
41
1
41
1
41
1
41
1
41
1
41
1
41
1
41
1
41
1
41
1
41
1
41
1
41
1
41
1
41
1
41
1
41
1
41
1
41
1
41
1
41
1
41
1
41
1
41
1
41
1
41
1
41
1
41
1
41
1
41
1
41
1
10
0
20
3
30
0
10
0.017911588128040029
20
2.9742446149702277
30
0
10
0.05393359288373923
20
2.9253021621601767
30
0
10
0.10856308153514446
20
2.8595933346041225
30
0
10
0.18259559150998
20
2.787394644633352
30
0
10
0.27710693500177047
20
2.7224899352686291
30
0
10
0.37353383289834619
20
2.6818853103245424
30
0
10
0.4717633641502168
20
2.6634458470254319
30
0
10
0.57160838775934597
20
2.663656326562776
30
0
10
0.67278069282062258
20
2.6770712576518547
30
0
10
0.7749194000430617
20
2.6971467954487154
30
0
10
0.87763920491736203
20
2.7175553887900934
30
0
10
0.9805733773349794
20
2.7333979899087857
30
0
10
1.0834161158221558
20
2.742335504967734
30
0
10
1.185972590232375
20
2.746079538101585
30
0
10
1.2881452841781043
20
2.7490914030064202
30
0
10
1.3899063052452652
20
2.7566812307320481
30
0
10
1.4912742196501829
20
2.773281451290821
30
0
10
1.592289862716612
20
2.8007221584822299
30
0
10
1.6929903702662719
20
2.8363024163889854
30
0
10
1.7934200552601334
20
2.8742308424935197
30
0
10
1.8936444283587248
20
2.9073598970946692
30
0
10
1.9937636295092425
20
2.9288292565306535
30
0
10
2.0939248932117587
20
2.933709946531784
30
0
10
2.1943388022153103
20
2.9207505778128766
30
0
10
2.2952192285266655
20
2.891805741743946
30
0
10
2.3967187112496315
20
2.8511213795081582
30
0
10
2.4988652679221999
20
2.8046740828254393
30
0
10
2.6014989757752143
20
2.7594888681032277
30
0
10
2.7042072524476963
20
2.72296779255411
30
0
10
2.8064609893555401
20
2.7017971113210542
30
0
10
2.9077539377561674
20
2.700835814579551
30
0
10
3.0077380798234472
20
2.7220416061558943
30
0
10
3.1063672568710943
20
2.7633058904854568
30
0
10
3.2040189878484862
20
2.8175341873003368
30
0
10
3.3013193377646566
20
2.8750968939192663
30
0
10
3.3989864505762957
20
2.9260662150826251
30
0
10
3.4976664922164469
20
2.9625442512309021
30
0
10
3.5977742200126857
20
2.9809283146350647
30
0
10
3.6993275144782962
20
2.984275452327843
30
0
10
3.8020561897168381
20
2.9795603551870702
30
0
10
3.9055162211308354
20
2.9748066393537043
30
0
10
4.0092003752791356
20
2.9763386049169767
30
0
10
4.1126537122308973
20
2.9858133092781247
30
0
10
4.2155772077464881
20
2.9978221402527492
30
0
10
4.3178009866133209
20
3.003581825559877
30
0
10
4.4192670464096242
20
2.9942902303705483
30
0
10
4.5200082064037765
20
2.9644033693719827
30
0
10
4.6201293126373502
20
2.9154283342643996
30
0
10
4.7197857998007482
20
2.8580462408992107
30
0
10
4.8191548493475702
20
2.8070078131238505
30
0
10
4.9184067103156979
20
2.7769540030756135
30
0
10
5.0176776685007507
20
2.7781040506892141
30
0
10
5.1170382938914569
20
2.8114638144556285
30
0
10
5.2164756225318936
20
2.8658321956458783
30
0
10
5.3159425703499501
20
2.9239278542587948
30
0
10
5.4153998430921222
20
2.9674130494245192
30
0
10
5.5148580045795459
20
2.9821270070740717
30
0
10
5.6144259430311285
20
2.9637409956670431
30
0
10
5.7143377579489032
20
2.9217396054343823
30
0
10
5.8148486231747754
20
2.8728130467902298
30
0
10
5.9161424491116161
20
2.8353295784565642
30
0
10
6.0182414222737517
20
2.8236727094025156
30
0
10
6.1208995072813064
20
2.8419785061076794
30
0
10
6.2235478788631458
20
2.8800853287339927
30
0
10
6.3254918407406766
20
2.9204883794836949
30
0
10
6.4260799164813349
20
2.9440096453206173
30
0
10
6.5248722961131875
20
2.935589029470822
30
0
10
6.6218366991758817
20
2.8909127921632924
30
0
10
6.7174480958441816
20
2.8199116172576804
30
0
10
6.8124747397329211
20
2.7399642888714979
30
0
10
6.9078174023560921
20
2.6708365726741938
30
0
10
7.0043290793479107
20
2.6290077298041998
30
0
10
7.1026399628970163
20
2.6220963229327596
30
0
10
7.202988721810943
20
2.6436888186434482
30
0
10
7.3052797933419598
20
2.679196895038054
30
0
10
7.4091293246974175
20
2.7113238192061888
30
0
10
7.5139174299145663
20
2.7254893587622058
30
0
10
7.6188324515831276
20
2.7157076015597079
30
0
10
7.7229332812095253
20
2.689008052472992
30
0
10
7.825322278823716
20
2.6595949852319736
30
0
10
7.9253133543228591
20
2.6439375903072793
30
0
10
8.0225889625659441
20
2.6557748471977938
30
0
10
8.1173927327226583
20
2.7005203900022501
30
0
10
8.2106122324851114
20
2.7718846926017338
30
0
10
8.3034626642094924
20
2.8567653953444898
30
0
10
8.3972361911766242
20
2.9387859595731207
30
0
10
8.4930219377996856
20
3.0024076779221414
30
0
10
8.5914469523567689
20
3.0366910575175865
30
0
10
8.6923847441743103
20
3.0394971575936292
30
0
10
8.7951762339548321
20
3.015328487009092
30
0
10
8.8988825824623188
20
2.9727844571055426
30
0
10
9.0025252959051265
20
2.9221670508234854
30
0
10
9.1053338984194703
20
2.8730053652271232
30
0
10
9.2069841265527188
20
2.8316690929864134
30
0
10
9.3074812427481337
20
2.8020345994888647
30
0
10
9.4070496394036791
20
2.7860963135820755
30
0
10
9.5060212838290816
20
2.7845922964467809
30
0
10
9.6047224450074715
20
2.7976333696280897
30
0
10
9.7033677140639547
20
2.825300158946205
30
0
10
9.80208665228791
20
2.8676310288246611
30
0
10
9.8811722227586802
20
2.9132393168821662
30
0
10
9.9405581999901607
20
2.9540511841830952
30
0
10
9.9801807499731758
20
2.9841944959584685
30
0
10
10
20
3
30
0
0
ENDSEC
0
SECTION
2
OBJECTS
0
DICTIONARY
5
C
100
AcDbDictionary
3
ACAD_GROUP
350
D
3
ACAD_MLINESTYLE
350
17
0
DICTIONARY
5
D
100
AcDbDictionary
0
DICTIONARY
5
1A
330
C
100
AcDbDictionary
0
DICTIONARY
5
17
100
AcDbDictionary
0
ENDSEC
0
EOF
