0
SECTION
2
HEADER
9
$INSUNITS
70
4
9
$ACADVER
1
AC1014
9
$HANDSEED
5
FFFF
0
ENDSEC
0
SECTION
2
TABLES
0
TABLE
2
VPORT
5
8
100
AcDbSymbolTable
0
ENDTAB
0
TABLE
2
LTYPE
5
5
100
AcDbSymbolTable
0
LTYPE
5
14
100
AcDbSymbolTableRecord
100
AcDbLinetypeTableRecord
2
BYBLOCK
70
0
0
LTYPE
5
15
100
AcDbSymbolTableRecord
100
AcDbLinetypeTableRecord
2
BYLAYER
70
0
0
ENDTAB
0
TABLE
2
LAYER
5
2
100
AcDbSymbolTable
70
2
0
LAYER
5
50
100
AcDbSymbolTableRecord
100
AcDbLayerTableRecord
2
0
70
0
6
CONTINUOUS
0
ENDTAB
0
TABLE
2
STYLE
5
3
100
AcDbSymbolTable
70
1
0
STYLE
5
11
100
AcDbSymbolTableRecord
100
AcDbTextStyleTableRecord
2
STANDARD
70
0
0
ENDTAB
0
TABLE
2
VIEW
5
6
100
AcDbSymbolTable
70
0
0
ENDTAB
0
TABLE
2
UCS
5
7
100
AcDbSymbolTable
70
0
0
ENDTAB
0
TABLE
2
APPID
5
9
100
AcDbSymbolTable
70
2
0
APPID
5
12
100
AcDbSymbolTableRecord
100
AcDbRegAppTableRecord
2
ACAD
70
0
0
ENDTAB
0
TABLE
2
DIMSTYLE
5
A
100
AcDbSymbolTable
70
1
0
ENDTAB
0
TABLE
2
BLOCK_RECORD
5
1
100
AcDbSymbolTable
70
1
0
BLOCK_RECORD
5
1F
100
AcDbSymbolTableRecord
100
AcDbBlockTableRecord
2
*MODEL_SPACE
0
BLOCK_RECORD
5
1B
100
AcDbSymbolTableRecord
100
AcDbBlockTableRecord
2
*PAPER_SPACE
0
ENDTAB
0
ENDSEC
0
SECTION
2
BLOCKS
0
BLOCK
5
20
100
AcDbEntity
100
AcDbBlockBegin
2
*MODEL_SPACE
0
ENDBLK
5
21
100
AcDbEntity
100
AcDbBlockEnd
0
BLOCK
5
1C
100
AcDbEntity
100
AcDbBlockBegin
2
*PAPER_SPACE
0
ENDBLK
5
1D
100
AcDbEntity
100
AcDbBlockEnd
0
ENDSEC
0
SECTION
2
ENTITIES
0
SPLINE
5
100
100
AcDbEntity
8
0
100
AcDbSpline
70
4
71
5
72
16
73
10
74
0
42
0.000000001
43
0.0000000001
44
0.0000000001
40
0
40
0
40
0
40
0
40
0
40
0
40
0.20000000000000001
40
0.40000000000000002
40
0.60000000000000009
40
0.80000000000000004
40
1
40
1
40
1
40
1
40
1
40
1
41
1
41
1
41
1
41
1
41
1
41
1
41
1
41
1
41
1
41
1
10
0
20
0
30
0
10
0
20
0.12000000000003158
30
0
10
0
20
0.36000000000007704
30
0
10
0
20
0.72000000000009301
30
0
10
0
20
1.2000000000000313
30
0
10
0
20
1.7999999999999146
30
0
10
0
20
2.2799999999998684
30
0
10
0
20
2.6399999999999042
30
0
10
0
20
2.8799999999999617
30
0
10
0
20
3
30
0
0
SPLINE
5
101
100
AcDbEntity
8
0
100
AcDbSpline
70
4
71
5
72
16
73
10
74
0
42
0.000000001
43
0.0000000001
44
0.0000000001
40
0
40
0
40
0
40
0
40
0
40
0
40
0.20000000000000001
40
0.40000000000000002
40
0.60000000000000009
40
0.80000000000000004
40
1
40
1
40
1
40
1
40
1
40
1
41
1
41
1
41
1
41
1
41
1
41
1
41
1
41
1
41
1
41
1
10
10
20
0
30
0
10
9.9999999999997495
20
0.12000000000003158
30
0
10
9.9999999999993197
20
0.36000000000007704
30
0
10
9.9999999999989129
20
0.72000000000009301
30
0
10
9.9999999999987672
20
1.2000000000000313
30
0
10
9.9999999999990248
20
1.7999999999999146
30
0
10
9.9999999999993889
20
2.2799999999998684
30
0
10
9.9999999999996998
20
2.6399999999999042
30
0
10
9.9999999999999005
20
2.8799999999999617
30
0
10
10
20
3
30
0
0
SPLINE
5
102
100
AcDbEntity
8
0
100
AcDbSpline
70
4
71
5
72
16
73
10
74
0
42
0.000000001
43
0.0000000001
44
0.0000000001
40
0
40
0
40
0
40
0
40
0
40
0
40
0.20000000000000001
40
0.40000000000000002
40
0.60000000000000009
40
0.80000000000000004
40
1
40
1
40
1
40
1
40
1
40
1
41
1
41
1
41
1
41
1
41
1
41
1
41
1
41
1
41
1
41
1
10
0
20
1.5
30
0
10
0.40000000000047375
20
1.499999999999694
30
0
10
1.2000000000012774
20
1.4999999999991638
30
0
10
2.4000000000020547
20
1.4999999999986278
30
0
10
4.0000000000023546
20
1.4999999999983737
30
0
10
6.0000000000019584
20
1.4999999999985913
30
0
10
7.6000000000012928
20
1.4999999999990359
30
0
10
8.800000000000697
20
1.4999999999994786
30
0
10
9.6000000000002395
20
1.4999999999998188
30
0
10
10
20
1.5
30
0
0
SPLINE
5
103
100
AcDbEntity
8
0
100
AcDbSpline
70
4
71
5
72
61
73
55
74
0
42
0.000000001
43
0.0000000001
44
0.0000000001
40
0
40
0
40
0
40
0
40
0
40
0
40
0.02
40
0.040000000000000001
40
0.059999999999999998
40
0.080000000000000002
40
0.10000000000000001
40
0.12000000000000001
40
0.14000000000000001
40
0.16
40
0.17999999999999999
40
0.19999999999999998
40
0.21999999999999997
40
0.23999999999999996
40
0.25999999999999995
40
0.27999999999999997
40
0.29999999999999999
40
0.32000000000000001
40
0.34000000000000002
40
0.36000000000000004
40
0.38000000000000006
40
0.40000000000000008
40
0.4200000000000001
40
0.44000000000000011
40
0.46000000000000013
40
0.48000000000000015
40
0.50000000000000011
40
0.52000000000000013
40
0.54000000000000015
40
0.56000000000000016
40
0.58000000000000018
40
0.6000000000000002
40
0.62000000000000022
40
0.64000000000000024
40
0.66000000000000025
40
0.68000000000000027
40
0.70000000000000029
40
0.72000000000000031
40
0.74000000000000032
40
0.76000000000000034
40
0.78000000000000036
40
0.80000000000000038
40
0.8200000000000004
40
0.84000000000000041
40
0.86000000000000043
40
0.88000000000000045
40
0.90000000000000047
40
0.92000000000000048
40
0.9400000000000005
40
0.96000000000000052
40
0.98000000000000054
40
1
40
1
40
1
40
1
40
1
40
1
41
1
41
1
41
1
41
1
41
1
41
1
41
1
41
1
41
1
41
1
41
1
41
1
41
1
41
1
41
1
41
1
41
1
41
1
41
1
41
1
41
1
41
1
41
1
41
1
41
1
41
1
41
1
41
1
41
1
41
1
41
1
41
1
41
1
41
1
41
1
41
1
41
1
41
1
41
1
41
1
41
1
41
1
41
1
41
1
41
1
41
1
41
1
41
1
41
1
41
1
41
1
41
1
41
1
41
1
41
1
10
0
20
0
30
0
10
0.039928927039279347
20
0.0088340493460478814
30
0
10
0.11980758716387396
20
0.025982588671664177
30
0
10
0.23968799548172579
20
0.0501467213653305
30
0
10
0.3996534575445565
20
0.07924616699895283
30
0
10
0.59981802279176832
20
0.11030170680401161
30
0
10
0.80018813243941356
20
0.1356990779853231
30
0
10
1.0007587758061682
20
0.15477475563484525
30
0
10
1.2015210369327405
20
0.16643428237729452
30
0
10
1.4024609845822891
20
0.16904935416836658
30
0
10
1.6035571849447938
20
0.1612817019672978
30
0
10
1.8047781714416149
20
0.14291103325072096
30
0
10
2.0060799590881002
20
0.11565105355297695
30
0
10
2.2074033695874666
20
0.084005679095462055
30
0
10
2.4086717656722754
20
0.056031829126319918
30
0
10
2.6098035676837994
20
0.040773151979794579
30
0
10
2.8107244849472184
20
0.045757853654563828
30
0
10
3.0113796450057269
20
0.074520278708615786
30
0
10
3.2117463302255125
20
0.12398664174487163
30
0
10
3.4118450902660244
20
0.18222954168573471
30
0
10
3.6117200354432444
20
0.23319570145375668
30
0
10
3.811420485974184
20
0.26112759344387321
30
0
10
4.0109824788535917
20
0.25502800498744183
30
0
10
4.2104095432581259
20
0.21327882179845237
30
0
10
4.4096559068780978
20
0.14775858423897997
30
0
10
4.6086581247203044
20
0.07778894631017623
30
0
10
4.8073645490173238
20
0.02455253914595195
30
0
10
5.0057653595260128
20
0.0053816155683038026
30
0
10
5.2039230804501049
20
0.028004503132415672
30
0
10
5.4020013235909738
20
0.085041351851743885
30
0
10
5.6002158170981042
20
0.15976649209425986
30
0
10
5.7987875727536711
20
0.23155747795519238
30
0
10
5.9978951878614044
20
0.28145771594477947
30
0
10
6.1976276819216514
20
0.29766522014733671
30
0
10
6.3979361779818191
20
0.28113957102264242
30
0
10
6.5986814434131471
20
0.2415648458352784
30
0
10
6.7996820930182
20
0.19324662250255148
30
0
10
7.0007623466468853
20
0.15105190773255997
30
0
10
7.2018000391852723
20
0.12632977518445881
30
0
10
7.4027743641869908
20
0.12285146414809975
30
0
10
7.6037272798681164
20
0.13874808857917953
30
0
10
7.8047251978071444
20
0.1684216240127748
30
0
10
8.0058209031330581
20
0.2044459568405238
30
0
10
8.2070148117762169
20
0.23948327630725241
30
0
10
8.4082179514656232
20
0.26814138505649715
30
0
10
8.6092819989090188
20
0.28661005663281441
30
0
10
8.810027623297966
20
0.29235636097537793
30
0
10
9.0102731132780676
20
0.28380329025413881
30
0
10
9.2098634370536008
20
0.26001532960286466
30
0
10
9.408697554771555
20
0.22039307324821553
30
0
10
9.6067160542545498
20
0.16460496008859182
30
0
10
9.7644557008863178
20
0.10692823719649637
30
0
10
9.8823769033202673
20
0.056320626873354214
30
0
10
9.9608206921919002
20
0.019317638751989066
30
0
10
10
20
0
30
0
0
SPLINE
5
104
100
AcDbEntity
8
0
100
AcDbSpline
70
4
71
5
72
61
73
55
74
0
42
0.000000001
43
0.0000000001
44
0.0000000001
40
0
40
0
40
0
40
0
40
0
40
0
40
0.02
40
0.040000000000000001
40
0.059999999999999998
40
0.080000000000000002
40
0.10000000000000001
40
0.12000000000000001
40
0.14000000000000001
40
0.16
40
0.17999999999999999
40
0.19999999999999998
40
0.21999999999999997
40
0.23999999999999996
40
0.25999999999999995
40
0.27999999999999997
40
0.29999999999999999
40
0.32000000000000001
40
0.34000000000000002
40
0.36000000000000004
40
0.38000000000000006
40
0.40000000000000008
40
0.4200000000000001
40
0.44000000000000011
40
0.46000000000000013
40
0.48000000000000015
40
0.50000000000000011
40
0.52000000000000013
40
0.54000000000000015
40
0.56000000000000016
40
0.58000000000000018
40
0.6000000000000002
40
0.62000000000000022
40
0.64000000000000024
40
0.66000000000000025
40
0.68000000000000027
40
0.70000000000000029
40
0.72000000000000031
40
0.74000000000000032
40
0.76000000000000034
40
0.78000000000000036
40
0.80000000000000038
40
0.8200000000000004
40
0.84000000000000041
40
0.86000000000000043
40
0.88000000000000045
40
0.90000000000000047
40
0.92000000000000048
40
0.9400000000000005
40
0.96000000000000052
40
0.98000000000000054
40
1
40
1
40
1
40
1
40
1
40
1
41
1
41
1
41
1
41
1
41
1
41
1
41
1
41
1
41
1
41
1
41
1
41
1
41
1
41
1
41
1
41
1
41
1
41
1
41
1
41
1
41
1
41
1
41
1
41
1
41
1
41
1
41
1
41
1
41
1
41
1
41
1
41
1
41
1
41
1
41
1
41
1
41
1
41
1
41
1
41
1
41
1
41
1
41
1
41
1
41
1
41
1
41
1
41
1
41
1
41
1
41
1
41
1
41
1
41
1
41
1
10
0
20
3
30
0
10
0.039736276373030573
20
2.982209067466695
30
0
10
0.1192611378079677
20
2.9491033690476147
30
0
10
0.23870535598501749
20
2.9068733195593035
30
0
10
0.3982783704803422
20
2.8654332794738231
30
0
10
0.5982549084878831
20
2.837862997652878
30
0
10
0.79870016518039799
20
2.8327801577318978
30
0
10
0.99952939177212397
20
2.8466226625575453
30
0
10
1.2005997806812738
20
2.8733807044211854
30
0
10
1.4016953817185465
20
2.9039594069028651
30
0
10
1.6025759373009461
20
2.928231472570122
30
0
10
1.8030258836934032
20
2.9370968177613928
30
0
10
2.0029031350707469
20
2.9245328184360249
30
0
10
2.2021885726892925
20
2.8896745506046932
30
0
10
2.4010343256065756
20
2.8388429810962479
30
0
10
2.5996962150513809
20
2.7826048349680823
30
0
10
2.7984679101045415
20
2.7329057242931349
30
0
10
2.99761445016434
20
2.7001748539162715
30
0
10
3.1973063615884274
20
2.690456356957772
30
0
10
3.397552335728375
20
2.7024735684221945
30
0
10
3.5982461464421513
20
2.7300620547004724
30
0
10
3.7992144959994754
20
2.7646475523707359
30
0
10
4.0002642839578604
20
2.7976980295241209
30
0
10
4.2012300368440485
20
2.8231860053217135
30
0
10
4.4020212472331179
20
2.8400473271213338
30
0
10
4.6026087305997754
20
2.8505935181827793
30
0
10
4.8030111600544689
20
2.8589322234735342
30
0
10
5.0032816774150559
20
2.8693957506642995
30
0
10
5.2034945877076089
20
2.8849568500969096
30
0
10
5.4037320841969363
20
2.9056789856943888
30
0
10
5.6040712078570056
20
2.9296339693635511
30
0
10
5.8045707244010458
20
2.9537820872465086
30
0
10
6.0052581244127552
20
2.9748581207066711
30
0
10
6.206116182112055
20
2.9902635491260101
30
0
10
6.4070704425303671
20
2.9989292363618292
30
0
10
6.6080167113765507
20
3.0008448679151667
30
0
10
6.8088477359316268
20
2.9966190816605351
30
0
10
7.0094798131284852
20
2.9870356786610803
30
0
10
7.2098802761365075
20
2.9726000247306401
30
0
10
7.4100924764633955
20
2.9531245204343044
30
0
10
7.6102022052750842
20
2.9282256714694106
30
0
10
7.810306372005476
20
2.8977875686391834
30
0
10
8.0104812674371022
20
2.8624314134627991
30
0
10
8.2107500995747777
20
2.8240007899967958
30
0
10
8.4110531810570102
20
2.7859968635329739
30
0
10
8.6112754266386879
20
2.7529355462470022
30
0
10
8.8112712798645703
20
2.7297520680234637
30
0
10
9.0108902781232239
20
2.7211951025027021
30
0
10
9.2100028553017115
20
2.7312112506403903
30
0
10
9.4085245686197165
20
2.7623705992863683
30
0
10
9.6064056762354255
20
2.8161809873532766
30
0
10
9.7641790645291806
20
2.8779229771240162
30
0
10
9.8822069567092292
20
2.9348384840973578
30
0
10
9.9607580188542304
20
2.9774941590536708
30
0
10
10
20
3
30
0
0
ENDSEC
0
SECTION
2
OBJECTS
0
DICTIONARY
5
C
100
AcDbDictionary
3
ACAD_GROUP
350
D
3
ACAD_MLINESTYLE
350
17
0
DICTIONARY
5
D
100
AcDbDictionary
0
DICTIONARY
5
1A
330
C
100
AcDbDictionary
0
DICTIONARY
5
17
100
AcDbDictionary
0
ENDSEC
0
EOF
