0
SECTION
2
HEADER
9
$INSUNITS
70
4
9
$ACADVER
1
AC1014
9
$HANDSEED
5
FFFF
0
ENDSEC
0
SECTION
2
TABLES
0
TABLE
2
VPORT
5
8
100
AcDbSymbolTable
0
ENDTAB
0
TABLE
2
LTYPE
5
5
100
AcDbSymbolTable
0
LTYPE
5
14
100
AcDbSymbolTableRecord
100
AcDbLinetypeTableRecord
2
BYBLOCK
70
0
0
LTYPE
5
15
100
AcDbSymbolTableRecord
100
AcDbLinetypeTableRecord
2
BYLAYER
70
0
0
ENDTAB
0
TABLE
2
LAYER
5
2
100
AcDbSymbolTable
70
2
0
LAYER
5
50
100
AcDbSymbolTableRecord
100
AcDbLayerTableRecord
2
0
70
0
6
CONTINUOUS
0
ENDTAB
0
TABLE
2
STYLE
5
3
100
AcDbSymbolTable
70
1
0
STYLE
5
11
100
AcDbSymbolTableRecord
100
AcDbTextStyleTableRecord
2
STANDARD
70
0
0
ENDTAB
0
TABLE
2
VIEW
5
6
100
AcDbSymbolTable
70
0
0
ENDTAB
0
TABLE
2
UCS
5
7
100
AcDbSymbolTable
70
0
0
ENDTAB
0
TABLE
2
APPID
5
9
100
AcDbSymbolTable
70
2
0
APPID
5
12
100
AcDbSymbolTableRecord
100
AcDbRegAppTableRecord
2
ACAD
70
0
0
ENDTAB
0
TABLE
2
DIMSTYLE
5
A
100
AcDbSymbolTable
70
1
0
ENDTAB
0
TABLE
2
BLOCK_RECORD
5
1
100
AcDbSymbolTable
70
1
0
BLOCK_RECORD
5
1F
100
AcDbSymbolTableRecord
100
AcDbBlockTableRecord
2
*MODEL_SPACE
0
BLOCK_RECORD
5
1B
100
AcDbSymbolTableRecord
100
AcDbBlockTableRecord
2
*PAPER_SPACE
0
ENDTAB
0
ENDSEC
0
SECTION
2
BLOCKS
0
BLOCK
5
20
100
AcDbEntity
100
AcDbBlockBegin
2
*MODEL_SPACE
0
ENDBLK
5
21
100
AcDbEntity
100
AcDbBlockEnd
0
BLOCK
5
1C
100
AcDbEntity
100
AcDbBlockBegin
2
*PAPER_SPACE
0
ENDBLK
5
1D
100
AcDbEntity
100
AcDbBlockEnd
0
ENDSEC
0
SECTION
2
ENTITIES
0
SPLINE
5
100
100
AcDbEntity
8
0
100
AcDbSpline
70
4
71
5
72
16
73
10
74
0
42
0.000000001
43
0.0000000001
44
0.0000000001
40
0
40
0
40
0
40
0
40
0
40
0
40
0.20000000000000001
40
0.40000000000000002
40
0.60000000000000009
40
0.80000000000000004
40
1
40
1
40
1
40
1
40
1
40
1
41
1
41
1
41
1
41
1
41
1
41
1
41
1
41
1
41
1
41
1
10
0
20
0
30
0
10
0
20
0.12000000000003158
30
0
10
0
20
0.36000000000007704
30
0
10
0
20
0.72000000000009301
30
0
10
0
20
1.2000000000000313
30
0
10
0
20
1.7999999999999146
30
0
10
0
20
2.2799999999998684
30
0
10
0
20
2.6399999999999042
30
0
10
0
20
2.8799999999999617
30
0
10
0
20
3
30
0
0
SPLINE
5
101
100
AcDbEntity
8
0
100
AcDbSpline
70
4
71
5
72
16
73
10
74
0
42
0.000000001
43
0.0000000001
44
0.0000000001
40
0
40
0
40
0
40
0
40
0
40
0
40
0.20000000000000001
40
0.40000000000000002
40
0.60000000000000009
40
0.80000000000000004
40
1
40
1
40
1
40
1
40
1
40
1
41
1
41
1
41
1
41
1
41
1
41
1
41
1
41
1
41
1
41
1
10
10
20
0
30
0
10
9.9999999999997495
20
0.12000000000003158
30
0
10
9.9999999999993197
20
0.36000000000007704
30
0
10
9.9999999999989129
20
0.72000000000009301
30
0
10
9.9999999999987672
20
1.2000000000000313
30
0
10
9.9999999999990248
20
1.7999999999999146
30
0
10
9.9999999999993889
20
2.2799999999998684
30
0
10
9.9999999999996998
20
2.6399999999999042
30
0
10
9.9999999999999005
20
2.8799999999999617
30
0
10
10
20
3
30
0
0
SPLINE
5
102
100
AcDbEntity
8
0
100
AcDbSpline
70
4
71
5
72
16
73
10
74
0
42
0.000000001
43
0.0000000001
44
0.0000000001
40
0
40
0
40
0
40
0
40
0
40
0
40
0.20000000000000001
40
0.40000000000000002
40
0.60000000000000009
40
0.80000000000000004
40
1
40
1
40
1
40
1
40
1
40
1
41
1
41
1
41
1
41
1
41
1
41
1
41
1
41
1
41
1
41
1
10
0
20
1.5
30
0
10
0.40000000000047375
20
1.499999999999694
30
0
10
1.2000000000012774
20
1.4999999999991638
30
0
10
2.4000000000020547
20
1.4999999999986278
30
0
10
4.0000000000023546
20
1.4999999999983737
30
0
10
6.0000000000019584
20
1.4999999999985913
30
0
10
7.6000000000012928
20
1.4999999999990359
30
0
10
8.800000000000697
20
1.4999999999994786
30
0
10
9.6000000000002395
20
1.4999999999998188
30
0
10
10
20
1.5
30
0
0
SPLINE
5
103
100
AcDbEntity
8
0
100
AcDbSpline
70
4
71
5
72
61
73
55
74
0
42
0.000000001
43
0.0000000001
44
0.0000000001
40
0
40
0
40
0
40
0
40
0
40
0
40
0.02
40
0.040000000000000001
40
0.059999999999999998
40
0.080000000000000002
40
0.10000000000000001
40
0.12000000000000001
40
0.14000000000000001
40
0.16
40
0.17999999999999999
40
0.19999999999999998
40
0.21999999999999997
40
0.23999999999999996
40
0.25999999999999995
40
0.27999999999999997
40
0.29999999999999999
40
0.32000000000000001
40
0.34000000000000002
40
0.36000000000000004
40
0.38000000000000006
40
0.40000000000000008
40
0.4200000000000001
40
0.44000000000000011
40
0.46000000000000013
40
0.48000000000000015
40
0.50000000000000011
40
0.52000000000000013
40
0.54000000000000015
40
0.56000000000000016
40
0.58000000000000018
40
0.6000000000000002
40
0.62000000000000022
40
0.64000000000000024
40
0.66000000000000025
40
0.68000000000000027
40
0.70000000000000029
40
0.72000000000000031
40
0.74000000000000032
40
0.76000000000000034
40
0.78000000000000036
40
0.80000000000000038
40
0.8200000000000004
40
0.84000000000000041
40
0.86000000000000043
40
0.88000000000000045
40
0.90000000000000047
40
0.92000000000000048
40
0.9400000000000005
40
0.96000000000000052
40
0.98000000000000054
40
1
40
1
40
1
40
1
40
1
40
1
41
1
41
1
41
1
41
1
41
1
41
1
41
1
41
1
41
1
41
1
41
1
41
1
41
1
41
1
41
1
41
1
41
1
41
1
41
1
41
1
41
1
41
1
41
1
41
1
41
1
41
1
41
1
41
1
41
1
41
1
41
1
41
1
41
1
41
1
41
1
41
1
41
1
41
1
41
1
41
1
41
1
41
1
41
1
41
1
41
1
41
1
41
1
41
1
41
1
41
1
41
1
41
1
41
1
41
1
41
1
10
0
20
0
30
0
10
0.041301615917868156
20
-0.018090370521942352
30
0
10
0.12379088328967397
20
-0.04997711084112718
30
0
10
0.24718289311008809
20
-0.084925084555941124
30
0
10
0.41102132637965083
20
-0.10574248830605106
30
0
10
0.61467142704176903
20
-0.089801990641605725
30
0
10
0.81715511616078029
20
-0.035104547604414414
30
0
10
1.0184394131729513
20
0.051843726655703685
30
0
10
1.2184709994222684
20
0.15998640468554035
30
0
10
1.4171765761558655
20
0.27285069244988475
30
0
10
1.6145300067851371
20
0.37194692569619331
30
0
10
1.810615127254992
20
0.43986159263312263
30
0
10
2.0056896167546352
20
0.46344703349051264
30
0
10
2.2002509110930824
20
0.43702802364681242
30
0
10
2.395096174132278
20
0.36548605873914219
30
0
10
2.5911179662138761
20
0.2613311929895864
30
0
10
2.789108118147233
20
0.14194747654950116
30
0
10
2.9895556615001539
20
0.026781487149224931
30
0
10
3.1924528202005726
20
-0.065418368808736832
30
0
10
3.3970791833168485
20
-0.11943229545521769
30
0
10
3.6022813086328527
20
-0.12509821242389235
30
0
10
3.8067760255175771
20
-0.078815069595661813
30
0
10
4.0094416452439967
20
0.014970139989253655
30
0
10
4.2096211112902706
20
0.14214634946541677
30
0
10
4.4074025035627171
20
0.27763172458380647
30
0
10
4.6033682758828007
20
0.39220970300079822
30
0
10
4.7983659504617764
20
0.45901673276115562
30
0
10
4.9932702284117454
20
0.46022922922559706
30
0
10
5.1887524467737389
20
0.39353363245104434
30
0
10
5.3850372642792541
20
0.27914420922289745
30
0
10
5.5820290366144203
20
0.1506208145810323
30
0
10
5.7794477053772848
20
0.045326369835703872
30
0
10
5.9769631401410148
20
-0.0052037837899237228
30
0
10
6.1743240699688915
20
0.015679932141827935
30
0
10
6.3715048596971204
20
0.098958409566181835
30
0
10
6.5686535900570284
20
0.21767386921911736
30
0
10
6.7660168509507308
20
0.33674763080509545
30
0
10
6.9638714546233071
20
0.42231371187209865
30
0
10
7.1624571839395053
20
0.45059835247492824
30
0
10
7.3618990672475988
20
0.41872230748906236
30
0
10
7.562218621696168
20
0.34027656352029056
30
0
10
7.7633636170898326
20
0.23781841563008149
30
0
10
7.9652315399846803
20
0.13629216721348761
30
0
10
8.1676947214382007
20
0.056460145573025283
30
0
10
8.3706267357702728
20
0.0073133808608731631
30
0
10
8.5739094096582811
20
-0.012096439947071345
30
0
10
8.7774357285010751
20
-0.0089896264435190432
30
0
10
8.9811142920416227
20
0.0061894053826170407
30
0
10
9.1848729428928184
20
0.022977746653065706
30
0
10
9.3886633494402059
20
0.034271221774015148
30
0
10
9.5924566752054048
20
0.035882669047860416
30
0
10
9.7554821370144413
20
0.027752506608387413
30
0
10
9.877743913795145
20
0.016053484218095049
30
0
10
9.9592485131994106
20
0.0057658592883251371
30
0
10
10
20
0
30
0
0
SPLINE
5
104
100
AcDbEntity
8
0
100
AcDbSpline
70
4
71
5
72
61
73
55
74
0
42
0.000000001
43
0.0000000001
44
0.0000000001
40
0
40
0
40
0
40
0
40
0
40
0
40
0.02
40
0.040000000000000001
40
0.059999999999999998
40
0.080000000000000002
40
0.10000000000000001
40
0.12000000000000001
40
0.14000000000000001
40
0.16
40
0.17999999999999999
40
0.19999999999999998
40
0.21999999999999997
40
0.23999999999999996
40
0.25999999999999995
40
0.27999999999999997
40
0.29999999999999999
40
0.32000000000000001
40
0.34000000000000002
40
0.36000000000000004
40
0.38000000000000006
40
0.40000000000000008
40
0.4200000000000001
40
0.44000000000000011
40
0.46000000000000013
40
0.48000000000000015
40
0.50000000000000011
40
0.52000000000000013
40
0.54000000000000015
40
0.56000000000000016
40
0.58000000000000018
40
0.6000000000000002
40
0.62000000000000022
40
0.64000000000000024
40
0.66000000000000025
40
0.68000000000000027
40
0.70000000000000029
40
0.72000000000000031
40
0.74000000000000032
40
0.76000000000000034
40
0.78000000000000036
40
0.80000000000000038
40
0.8200000000000004
40
0.84000000000000041
40
0.86000000000000043
40
0.88000000000000045
40
0.90000000000000047
40
0.92000000000000048
40
0.9400000000000005
40
0.96000000000000052
40
0.98000000000000054
40
1
40
1
40
1
40
1
40
1
40
1
41
1
41
1
41
1
41
1
41
1
41
1
41
1
41
1
41
1
41
1
41
1
41
1
41
1
41
1
41
1
41
1
41
1
41
1
41
1
41
1
41
1
41
1
41
1
41
1
41
1
41
1
41
1
41
1
41
1
41
1
41
1
41
1
41
1
41
1
41
1
41
1
41
1
41
1
41
1
41
1
41
1
41
1
41
1
41
1
41
1
41
1
41
1
41
1
41
1
41
1
41
1
41
1
41
1
41
1
41
1
10
0
20
3
30
0
10
0.037737707031886066
20
2.9612860259989269
30
0
10
0.11338709003891985
20
2.8879108278034362
30
0
10
0.22738306835669009
20
2.7900061915426249
30
0
10
0.38042221990652658
20
2.6837996060529843
30
0
10
0.5734489940538009
20
2.591197903096325
30
0
10
0.7681581584551771
20
2.5374117681535484
30
0
10
0.96445271136773214
20
2.5196112218675077
30
0
10
1.1621679550941075
20
2.5330188625527272
30
0
10
1.3610472224254484
20
2.5702134624455035
30
0
10
1.5607772395217177
20
2.6221796033241245
30
0
10
1.7610346746868444
20
2.6796838816573616
30
0
10
1.9615302913907404
20
2.7345839406343817
30
0
10
2.1620506347331254
20
2.781059628703809
30
0
10
2.3625100866829847
20
2.8171635130180754
30
0
10
2.5629249997594172
20
2.8439831212503632
30
0
10
2.7633709475718797
20
2.8642891518569553
30
0
10
2.9639449763929528
20
2.8813299461843389
30
0
10
3.1647280921299092
20
2.8976488174772252
30
0
10
3.3657417681125272
20
2.9136773685423059
30
0
10
3.5669571138056377
20
2.9282428703977912
30
0
10
3.7683148842889351
20
2.939462211623276
30
0
10
3.9697419166045327
20
2.9455212800214166
30
0
10
4.1711683596684983
20
2.9454524423398363
30
0
10
4.3725462727567423
20
2.9400453765885306
30
0
10
4.5738503865751987
20
2.9314019558823414
30
0
10
4.7750756980342404
20
2.9222689582283801
30
0
10
4.9762364115444351
20
2.9154416033022108
30
0
10
5.1773639819652288
20
2.9131597624230192
30
0
10
5.3785066198375766
20
2.9164481855147222
30
0
10
5.5797158661868673
20
2.9251998654132616
30
0
10
5.7810318522742552
20
2.9383550142975361
30
0
10
5.9824685598437135
20
2.9540391480842305
30
0
10
6.184000026616836
20
2.9697249041625726
30
0
10
6.3855433432664563
20
2.9823575972244489
30
0
10
6.5869866607968586
20
2.9888792362531333
30
0
10
6.788220867456074
20
2.9867815020501673
30
0
10
6.9891703799364757
20
2.9746583178590651
30
0
10
7.1898233561360847
20
2.952741487949651
30
0
10
7.3902650904708338
20
2.9235019347264775
30
0
10
7.5906401349607258
20
2.8908643455177114
30
0
10
7.7911109227942532
20
2.8593548317914665
30
0
10
7.9918174131967747
20
2.8332691043732754
30
0
10
8.1928370415646707
20
2.8158462888451172
30
0
10
8.3941423017112484
20
2.8083991048085393
30
0
10
8.595629854251607
20
2.8107733094313962
30
0
10
8.7971522517383569
20
2.8218556795318799
30
0
10
8.9985485946499715
20
2.8400615295391356
30
0
10
9.1996754902124227
20
2.863827693139172
30
0
10
9.4004381394797747
20
2.8921059674775536
30
0
10
9.6007805091939886
20
2.9242633545582915
30
0
10
9.7606963184856088
20
2.9528353141144175
30
0
10
9.8804279265523451
20
2.9758149981471171
30
0
10
9.9601578359470615
20
2.9918235403732147
30
0
10
10
20
3
30
0
0
ENDSEC
0
SECTION
2
OBJECTS
0
DICTIONARY
5
C
100
AcDbDictionary
3
ACAD_GROUP
350
D
3
ACAD_MLINESTYLE
350
17
0
DICTIONARY
5
D
100
AcDbDictionary
0
DICTIONARY
5
1A
330
C
100
AcDbDictionary
0
DICTIONARY
5
17
100
AcDbDictionary
0
ENDSEC
0
EOF
