0
SECTION
2
HEADER
9
$INSUNITS
70
4
9
$ACADVER
1
AC1014
9
$HANDSEED
5
FFFF
0
ENDSEC
0
SECTION
2
TABLES
0
TABLE
2
VPORT
5
8
100
AcDbSymbolTable
0
ENDTAB
0
TABLE
2
LTYPE
5
5
100
AcDbSymbolTable
0
LTYPE
5
14
100
AcDbSymbolTableRecord
100
AcDbLinetypeTableRecord
2
BYBLOCK
70
0
0
LTYPE
5
15
100
AcDbSymbolTableRecord
100
AcDbLinetypeTableRecord
2
BYLAYER
70
0
0
ENDTAB
0
TABLE
2
LAYER
5
2
100
AcDbSymbolTable
70
2
0
LAYER
5
50
100
AcDbSymbolTableRecord
100
AcDbLayerTableRecord
2
0
70
0
6
CONTINUOUS
0
ENDTAB
0
TABLE
2
STYLE
5
3
100
AcDbSymbolTable
70
1
0
STYLE
5
11
100
AcDbSymbolTableRecord
100
AcDbTextStyleTableRecord
2
STANDARD
70
0
0
ENDTAB
0
TABLE
2
VIEW
5
6
100
AcDbSymbolTable
70
0
0
ENDTAB
0
TABLE
2
UCS
5
7
100
AcDbSymbolTable
70
0
0
ENDTAB
0
TABLE
2
APPID
5
9
100
AcDbSymbolTable
70
2
0
APPID
5
12
100
AcDbSymbolTableRecord
100
AcDbRegAppTableRecord
2
ACAD
70
0
0
ENDTAB
0
TABLE
2
DIMSTYLE
5
A
100
AcDbSymbolTable
70
1
0
ENDTAB
0
TABLE
2
BLOCK_RECORD
5
1
100
AcDbSymbolTable
70
1
0
BLOCK_RECORD
5
1F
100
AcDbSymbolTableRecord
100
AcDbBlockTableRecord
2
*MODEL_SPACE
0
BLOCK_RECORD
5
1B
100
AcDbSymbolTableRecord
100
AcDbBlockTableRecord
2
*PAPER_SPACE
0
ENDTAB
0
ENDSEC
0
SECTION
2
BLOCKS
0
BLOCK
5
20
100
AcDbEntity
100
AcDbBlockBegin
2
*MODEL_SPACE
0
ENDBLK
5
21
100
AcDbEntity
100
AcDbBlockEnd
0
BLOCK
5
1C
100
AcDbEntity
100
AcDbBlockBegin
2
*PAPER_SPACE
0
ENDBLK
5
1D
100
AcDbEntity
100
AcDbBlockEnd
0
ENDSEC
0
SECTION
2
ENTITIES
0
SPLINE
5
100
100
AcDbEntity
8
0
100
AcDbSpline
70
4
71
5
72
16
73
10
74
0
42
0.000000001
43
0.0000000001
44
0.0000000001
40
0
40
0
40
0
40
0
40
0
40
0
40
0.20000000000000001
40
0.40000000000000002
40
0.60000000000000009
40
0.80000000000000004
40
1
40
1
40
1
40
1
40
1
40
1
41
1
41
1
41
1
41
1
41
1
41
1
41
1
41
1
41
1
41
1
10
0
20
0
30
0
10
0
20
0.12000000000003158
30
0
10
0
20
0.36000000000007704
30
0
10
0
20
0.72000000000009301
30
0
10
0
20
1.2000000000000313
30
0
10
0
20
1.7999999999999146
30
0
10
0
20
2.2799999999998684
30
0
10
0
20
2.6399999999999042
30
0
10
0
20
2.8799999999999617
30
0
10
0
20
3
30
0
0
SPLINE
5
101
100
AcDbEntity
8
0
100
AcDbSpline
70
4
71
5
72
16
73
10
74
0
42
0.000000001
43
0.0000000001
44
0.0000000001
40
0
40
0
40
0
40
0
40
0
40
0
40
0.20000000000000001
40
0.40000000000000002
40
0.60000000000000009
40
0.80000000000000004
40
1
40
1
40
1
40
1
40
1
40
1
41
1
41
1
41
1
41
1
41
1
41
1
41
1
41
1
41
1
41
1
10
10
20
0
30
0
10
9.9999999999997495
20
0.12000000000003158
30
0
10
9.9999999999993197
20
0.36000000000007704
30
0
10
9.9999999999989129
20
0.72000000000009301
30
0
10
9.9999999999987672
20
1.2000000000000313
30
0
10
9.9999999999990248
20
1.7999999999999146
30
0
10
9.9999999999993889
20
2.2799999999998684
30
0
10
9.9999999999996998
20
2.6399999999999042
30
0
10
9.9999999999999005
20
2.8799999999999617
30
0
10
10
20
3
30
0
0
SPLINE
5
102
100
AcDbEntity
8
0
100
AcDbSpline
70
4
71
5
72
16
73
10
74
0
42
0.000000001
43
0.0000000001
44
0.0000000001
40
0
40
0
40
0
40
0
40
0
40
0
40
0.20000000000000001
40
0.40000000000000002
40
0.60000000000000009
40
0.80000000000000004
40
1
40
1
40
1
40
1
40
1
40
1
41
1
41
1
41
1
41
1
41
1
41
1
41
1
41
1
41
1
41
1
10
0
20
1.5
30
0
10
0.40000000000047375
20
1.499999999999694
30
0
10
1.2000000000012774
20
1.4999999999991638
30
0
10
2.4000000000020547
20
1.4999999999986278
30
0
10
4.0000000000023546
20
1.4999999999983737
30
0
10
6.0000000000019584
20
1.4999999999985913
30
0
10
7.6000000000012928
20
1.4999999999990359
30
0
10
8.800000000000697
20
1.4999999999994786
30
0
10
9.6000000000002395
20
1.4999999999998188
30
0
10
10
20
1.5
30
0
0
SPLINE
5
103
100
AcDbEntity
8
0
100
AcDbSpline
70
4
71
5
72
111
73
105
74
0
42
0.000000001
43
0.0000000001
44
0.0000000001
40
0
40
0
40
0
40
0
40
0
40
0
40
0.01
40
0.02
40
0.029999999999999999
40
0.040000000000000001
40
0.050000000000000003
40
0.060000000000000005
40
0.070000000000000007
40
0.080000000000000002
40
0.089999999999999997
40
0.099999999999999992
40
0.10999999999999999
40
0.11999999999999998
40
0.12999999999999998
40
0.13999999999999999
40
0.14999999999999999
40
0.16
40
0.17000000000000001
40
0.18000000000000002
40
0.19000000000000003
40
0.20000000000000004
40
0.21000000000000005
40
0.22000000000000006
40
0.23000000000000007
40
0.24000000000000007
40
0.25000000000000006
40
0.26000000000000006
40
0.27000000000000007
40
0.28000000000000008
40
0.29000000000000009
40
0.3000000000000001
40
0.31000000000000011
40
0.32000000000000012
40
0.33000000000000013
40
0.34000000000000014
40
0.35000000000000014
40
0.36000000000000015
40
0.37000000000000016
40
0.38000000000000017
40
0.39000000000000018
40
0.40000000000000019
40
0.4100000000000002
40
0.42000000000000021
40
0.43000000000000022
40
0.44000000000000022
40
0.45000000000000023
40
0.46000000000000024
40
0.47000000000000025
40
0.48000000000000026
40
0.49000000000000027
40
0.50000000000000022
40
0.51000000000000023
40
0.52000000000000024
40
0.53000000000000025
40
0.54000000000000026
40
0.55000000000000027
40
0.56000000000000028
40
0.57000000000000028
40
0.58000000000000029
40
0.5900000000000003
40
0.60000000000000031
40
0.61000000000000032
40
0.62000000000000033
40
0.63000000000000034
40
0.64000000000000035
40
0.65000000000000036
40
0.66000000000000036
40
0.67000000000000037
40
0.68000000000000038
40
0.69000000000000039
40
0.7000000000000004
40
0.71000000000000041
40
0.72000000000000042
40
0.73000000000000043
40
0.74000000000000044
40
0.75000000000000044
40
0.76000000000000045
40
0.77000000000000046
40
0.78000000000000047
40
0.79000000000000048
40
0.80000000000000049
40
0.8100000000000005
40
0.82000000000000051
40
0.83000000000000052
40
0.84000000000000052
40
0.85000000000000053
40
0.86000000000000054
40
0.87000000000000055
40
0.88000000000000056
40
0.89000000000000057
40
0.90000000000000058
40
0.91000000000000059
40
0.9200000000000006
40
0.9300000000000006
40
0.94000000000000061
40
0.95000000000000062
40
0.96000000000000063
40
0.97000000000000064
40
0.98000000000000065
40
0.99000000000000066
40
1
40
1
40
1
40
1
40
1
40
1
41
1
41
1
41
1
41
1
41
1
41
1
41
1
41
1
41
1
41
1
41
1
41
1
41
1
41
1
41
1
41
1
41
1
41
1
41
1
41
1
41
1
41
1
41
1
41
1
41
1
41
1
41
1
41
1
41
1
41
1
41
1
41
1
41
1
41
1
41
1
41
1
41
1
41
1
41
1
41
1
41
1
41
1
41
1
41
1
41
1
41
1
41
1
41
1
41
1
41
1
41
1
41
1
41
1
41
1
41
1
41
1
41
1
41
1
41
1
41
1
41
1
41
1
41
1
41
1
41
1
41
1
41
1
41
1
41
1
41
1
41
1
41
1
41
1
41
1
41
1
41
1
41
1
41
1
41
1
41
1
41
1
41
1
41
1
41
1
41
1
41
1
41
1
41
1
41
1
41
1
41
1
41
1
41
1
41
1
41
1
41
1
41
1
41
1
41
1
41
1
41
1
41
1
41
1
41
1
41
1
10
0
20
0
30
0
10
0.019824413835051992
20
0.017277470166581332
30
0
10
0.059547075639726887
20
0.049070425204536305
30
0
10
0.11935257235358143
20
0.088473848125814061
30
0
10
0.19953630090453453
20
0.12443749331278979
30
0
10
0.30047990894343779
20
0.14253256869044947
30
0
10
0.40206298189113621
20
0.13609705321488699
30
0
10
0.50413643124639829
20
0.10979489516462387
30
0
10
0.6064502202395452
20
0.071453198464431086
30
0
10
0.70863149313274099
20
0.03274051609143519
30
0
10
0.8102716089908335
20
0.0062315311691853083
30
0
10
0.91101065511171198
20
0.0025486634090792709
30
0
10
1.0106202830997475
20
0.02757466051181949
30
0
10
1.1090934629797826
20
0.079398674115240556
30
0
10
1.2067136982695914
20
0.14604677630933102
30
0
10
1.3039291906929411
20
0.21064943107053438
30
0
10
1.4012434444322928
20
0.25598177128407579
30
0
10
1.4990994753713931
20
0.26925163860510315
30
0
10
1.597767130014812
20
0.24676268685453556
30
0
10
1.6972278454436096
20
0.19869608008708389
30
0
10
1.7972646785527391
20
0.14326149117155687
30
0
10
1.8975531656267466
20
0.10080926253061007
30
0
10
1.9977521612410172
20
0.087924166617740079
30
0
10
2.0975938192637074
20
0.11160556482893091
30
0
10
2.1969762588833133
20
0.16318713463616635
30
0
10
2.2959248047976484
20
0.22448580494861234
30
0
10
2.3945506053002283
20
0.27415824727641136
30
0
10
2.4930099407858357
20
0.29408123553553722
30
0
10
2.5914640616529852
20
0.27548533334807074
30
0
10
2.6900367042258511
20
0.22583839430519639
30
0
10
2.7888141958396666
20
0.16301030667370897
30
0
10
2.8878485196887178
20
0.10864164732492355
30
0
10
2.9871593624823318
20
0.081628231720198091
30
0
10
3.086736387202726
20
0.091958069408589027
30
0
10
3.1865418586241994
20
0.13332823079120956
30
0
10
3.2865082744451612
20
0.18838274621397244
30
0
10
3.386535710417069
20
0.23558680350769187
30
0
10
3.4864883968749121
20
0.25569706091897504
30
0
10
3.586193529822868
20
0.23799427794796421
30
0
10
3.6854340162871093
20
0.1876994522740178
30
0
10
3.7839970744011708
20
0.1212717364173039
30
0
10
3.8817291741400393
20
0.060034266174032451
30
0
10
3.9785921777299893
20
0.024170567150373634
30
0
10
4.0747113255511671
20
0.027074634242252867
30
0
10
4.1704467468282562
20
0.068230106195480755
30
0
10
4.2663147751800388
20
0.13602715116793315
30
0
10
4.3628712656019362
20
0.2131973109181742
30
0
10
4.4606023343883994
20
0.28157689472226971
30
0
10
4.5598242220774043
20
0.32665833568103603
30
0
10
4.6605485305486312
20
0.34346182216751514
30
0
10
4.7625033682072653
20
0.33618645325839935
30
0
10
4.8652535242894492
20
0.31389779891845226
30
0
10
4.9682935272587985
20
0.28727174569178487
30
0
10
5.0711455873570248
20
0.26521899892565209
30
0
10
5.1734712777526077
20
0.25076234371123712
30
0
10
5.275089383876078
20
0.2416342766778862
30
0
10
5.3759509235975607
20
0.23293269684514772
30
0
10
5.4761291078540033
20
0.219190652107004
30
0
10
5.5758009192708862
20
0.19650894300271379
30
0
10
5.6752381084303121
20
0.16512598700049225
30
0
10
5.7747565431032024
20
0.12869375498550448
30
0
10
5.8746556386861712
20
0.092558671943049869
30
0
10
5.9751579019178074
20
0.062326193070889539
30
0
10
6.0763554990095123
20
0.042425799126921682
30
0
10
6.1781354652425788
20
0.03437018978874834
30
0
10
6.2802345964130657
20
0.037164828479576716
30
0
10
6.3823329065879975
20
0.048381928799041463
30
0
10
6.4841366717127453
20
0.06503650832645988
30
0
10
6.5854601424002812
20
0.084485931596347111
30
0
10
6.6863228090354143
20
0.10547345435772092
30
0
10
6.7868973417097109
20
0.12764450470856806
30
0
10
6.8874316340909347
20
0.15080111702849394
30
0
10
6.9881787495484158
20
0.17422207367385928
30
0
10
7.0893263673667439
20
0.19601542554193008
30
0
10
7.1909189496099311
20
0.21229636035878308
30
0
10
7.2928769793491908
20
0.21844358474063422
30
0
10
7.3950283698208006
20
0.21060467577726683
30
0
10
7.4971353697549734
20
0.18712629951373372
30
0
10
7.5989235168719276
20
0.14998690596989805
30
0
10
7.7001091393514383
20
0.10631369034835358
30
0
10
7.8004510772873505
20
0.066013775379808778
30
0
10
7.899802663871073
20
0.039305072507678021
30
0
10
7.9981641776190129
20
0.034272464606742825
30
0
10
8.0957340359833125
20
0.054440646125159052
30
0
10
8.1929637666725359
20
0.096259881582928586
30
0
10
8.2904274823923121
20
0.15142197318174183
30
0
10
8.3886897254757393
20
0.20924528837817125
30
0
10
8.4881703001358151
20
0.25907601688402443
30
0
10
8.5890186239499169
20
0.2925817557238613
30
0
10
8.6909616845361519
20
0.30635960803581025
30
0
10
8.7934442524104242
20
0.30101454050685644
30
0
10
8.8958034886476351
20
0.27981826289725059
30
0
10
8.9974321433868081
20
0.24751487967103261
30
0
10
9.0979444490413748
20
0.20907627535529924
30
0
10
9.1973467540216713
20
0.16845137145941369
30
0
10
9.295932557234579
20
0.12867085549631127
30
0
10
9.3941706065881529
20
0.091992165730970049
30
0
10
9.4925945451902347
20
0.060029299233997663
30
0
10
9.5916946418334419
20
0.03388750026194437
30
0
10
9.6918014148064273
20
0.014298370659921008
30
0
10
9.7931112428162521
20
0.0016984857976049348
30
0
10
9.8752000998099216
20
-0.0026177657672566417
30
0
10
9.9373667448484237
20
-0.0025816307929165906
30
0
10
9.9790778095680359
20
-0.0011029719296005924
30
0
10
10
20
0
30
0
0
SPLINE
5
104
100
AcDbEntity
8
0
100
AcDbSpline
70
4
71
5
72
111
73
105
74
0
42
0.000000001
43
0.0000000001
44
0.0000000001
40
0
40
0
40
0
40
0
40
0
40
0
40
0.01
40
0.02
40
0.029999999999999999
40
0.040000000000000001
40
0.050000000000000003
40
0.060000000000000005
40
0.070000000000000007
40
0.080000000000000002
40
0.089999999999999997
40
0.099999999999999992
40
0.10999999999999999
40
0.11999999999999998
40
0.12999999999999998
40
0.13999999999999999
40
0.14999999999999999
40
0.16
40
0.17000000000000001
40
0.18000000000000002
40
0.19000000000000003
40
0.20000000000000004
40
0.21000000000000005
40
0.22000000000000006
40
0.23000000000000007
40
0.24000000000000007
40
0.25000000000000006
40
0.26000000000000006
40
0.27000000000000007
40
0.28000000000000008
40
0.29000000000000009
40
0.3000000000000001
40
0.31000000000000011
40
0.32000000000000012
40
0.33000000000000013
40
0.34000000000000014
40
0.35000000000000014
40
0.36000000000000015
40
0.37000000000000016
40
0.38000000000000017
40
0.39000000000000018
40
0.40000000000000019
40
0.4100000000000002
40
0.42000000000000021
40
0.43000000000000022
40
0.44000000000000022
40
0.45000000000000023
40
0.46000000000000024
40
0.47000000000000025
40
0.48000000000000026
40
0.49000000000000027
40
0.50000000000000022
40
0.51000000000000023
40
0.52000000000000024
40
0.53000000000000025
40
0.54000000000000026
40
0.55000000000000027
40
0.56000000000000028
40
0.57000000000000028
40
0.58000000000000029
40
0.5900000000000003
40
0.60000000000000031
40
0.61000000000000032
40
0.62000000000000033
40
0.63000000000000034
40
0.64000000000000035
40
0.65000000000000036
40
0.66000000000000036
40
0.67000000000000037
40
0.68000000000000038
40
0.69000000000000039
40
0.7000000000000004
40
0.71000000000000041
40
0.72000000000000042
40
0.73000000000000043
40
0.74000000000000044
40
0.75000000000000044
40
0.76000000000000045
40
0.77000000000000046
40
0.78000000000000047
40
0.79000000000000048
40
0.80000000000000049
40
0.8100000000000005
40
0.82000000000000051
40
0.83000000000000052
40
0.84000000000000052
40
0.85000000000000053
40
0.86000000000000054
40
0.87000000000000055
40
0.88000000000000056
40
0.89000000000000057
40
0.90000000000000058
40
0.91000000000000059
40
0.9200000000000006
40
0.9300000000000006
40
0.94000000000000061
40
0.95000000000000062
40
0.96000000000000063
40
0.97000000000000064
40
0.98000000000000065
40
0.99000000000000066
40
1
40
1
40
1
40
1
40
1
40
1
41
1
41
1
41
1
41
1
41
1
41
1
41
1
41
1
41
1
41
1
41
1
41
1
41
1
41
1
41
1
41
1
41
1
41
1
41
1
41
1
41
1
41
1
41
1
41
1
41
1
41
1
41
1
41
1
41
1
41
1
41
1
41
1
41
1
41
1
41
1
41
1
41
1
41
1
41
1
41
1
41
1
41
1
41
1
41
1
41
1
41
1
41
1
41
1
41
1
41
1
41
1
41
1
41
1
41
1
41
1
41
1
41
1
41
1
41
1
41
1
41
1
41
1
41
1
41
1
41
1
41
1
41
1
41
1
41
1
41
1
41
1
41
1
41
1
41
1
41
1
41
1
41
1
41
1
41
1
41
1
41
1
41
1
41
1
41
1
41
1
41
1
41
1
41
1
41
1
41
1
41
1
41
1
41
1
41
1
41
1
41
1
41
1
41
1
41
1
41
1
41
1
41
1
41
1
41
1
41
1
10
0
20
3
30
0
10
0.019337050487407238
20
2.9870987965270039
30
0
10
0.058090669384076386
20
2.9622888173661681
30
0
10
0.1164596507893674
20
2.9280511452987734
30
0
10
0.19476214924402793
20
2.8883563629523761
30
0
10
0.29342624664547778
20
2.848712396116468
30
0
10
0.39284762328760592
20
2.8191774025148879
30
0
10
0.49296809024506494
20
2.8000168612140568
30
0
10
0.59369054675653032
20
2.7916586777469354
30
0
10
0.69486760823635674
20
2.7947612272060711
30
0
10
0.79632409600231835
20
2.8096422025248815
30
0
10
0.89788177351580711
20
2.8356651407848994
30
0
10
0.99938329572561113
20
2.8706391281505796
30
0
10
1.1007164231762581
20
2.9102156463150375
30
0
10
1.2018383657337051
20
2.9472747400466455
30
0
10
1.302750521562871
20
2.9738403312503121
30
0
10
1.4034727458218599
20
2.9830229395921686
30
0
10
1.5040181477468062
20
2.9709284256936899
30
0
10
1.6043668910042306
20
2.9386386695364806
30
0
10
1.7044425705190243
20
2.8940080203681191
30
0
10
1.8041563401603755
20
2.8485394600757115
30
0
10
1.9034489228622278
20
2.8144213284718376
30
0
10
2.0023330618108579
20
2.8015209893397057
30
0
10
2.1009366719312408
20
2.8143584397666248
30
0
10
2.199543400318154
20
2.8491895764338104
30
0
10
2.2984997650673709
20
2.8969454028064634
30
0
10
2.3981251763162605
20
2.9460458548156816
30
0
10
2.4986205978150489
20
2.9852642720999558
30
0
10
2.5999783668774601
20
3.0065563139482294
30
0
10
2.7018895778146943
20
3.0079438703151746
30
0
10
2.8038797091174739
20
2.9918100254053615
30
0
10
2.9054476299955971
20
2.9631389481678578
30
0
10
3.0062012007703256
20
2.9277982513160579
30
0
10
3.1059992520955144
20
2.8907578710387338
30
0
10
3.2050771554209345
20
2.8544673468463526
30
0
10
3.3038906383773563
20
2.8199089141006182
30
0
10
3.4029732697997721
20
2.7875222793759153
30
0
10
3.5027898296201334
20
2.7581663224468098
30
0
10
3.6035891869540397
20
2.7340904023756236
30
0
10
3.7052634541365421
20
2.7198329452728509
30
0
10
3.807461531535699
20
2.7204416119008079
30
0
10
3.9096965172158287
20
2.7397308883905325
30
0
10
4.0114536541826924
20
2.7785937517181925
30
0
10
4.1123018505466478
20
2.8331292668834895
30
0
10
4.2119925630829433
20
2.8933073491929346
30
0
10
4.3104438272508032
20
2.9463346490099713
30
0
10
4.4077347069008397
20
2.9796214197355146
30
0
10
4.5040954889377058
20
2.983869046312742
30
0
10
4.5999006790768746
20
2.9561811253428196
30
0
10
4.6956583702369157
20
2.9029613736796329
30
0
10
4.7919158717368857
20
2.8363112793725516
30
0
10
4.8891696185878732
20
2.7707042054247903
30
0
10
4.9877706444277736
20
2.7194802100960338
30
0
10
5.0878383319324385
20
2.6915949300091651
30
0
10
5.1891532354074901
20
2.687783407669504
30
0
10
5.2912693019229726
20
2.7027671375445705
30
0
10
5.3936528075753571
20
2.7281995510301895
30
0
10
5.4958129195833276
20
2.7553702338726103
30
0
10
5.5974330759154824
20
2.7779570919357073
30
0
10
5.6985094932281521
20
2.7949029361995334
30
0
10
5.7992474180417819
20
2.808574516677274
30
0
10
5.8999472352383044
20
2.8227205149560315
30
0
10
6.0008946440036404
20
2.8405105819836498
30
0
10
6.1022485402995468
20
2.8625270192656878
30
0
10
6.2039314195288489
20
2.8848108548433098
30
0
10
6.3057164092083937
20
2.9010719028971845
30
0
10
6.4073133762943337
20
2.9048895321583661
30
0
10
6.5084538459237518
20
2.8918654600577525
30
0
10
6.6089798171989909
20
2.861915426027001
30
0
10
6.7089212709021515
20
2.8211686154389555
30
0
10
6.8084350697486915
20
2.7791102640366114
30
0
10
6.9077529825903969
20
2.7460234692948249
30
0
10
7.0071268798439714
20
2.7303645962245837
30
0
10
7.1067738234966775
20
2.7360590477875188
30
0
10
7.2068249882641222
20
2.7601327108664684
30
0
10
7.3073382936178302
20
2.7953297008782743
30
0
10
7.4083069565052213
20
2.8324492444167628
30
0
10
7.5096698068887493
20
2.8627412794414724
30
0
10
7.6113202149785861
20
2.8803838836522573
30
0
10
7.7131172646884325
20
2.8846198627148771
30
0
10
7.8149148039073779
20
2.8781984594752492
30
0
10
7.9165901650323942
20
2.8660947006295019
30
0
10
8.0180709770077172
20
2.8541504677612122
30
0
10
8.1193675882046499
20
2.8476891162454083
30
0
10
8.2205889289600265
20
2.85032455183108
30
0
10
8.3218789629652576
20
2.8638825626989348
30
0
10
8.4233613957994695
20
2.8881432536273417
30
0
10
8.5250856258774217
20
2.9207130926714227
30
0
10
8.6269616324828036
20
2.9566956855320585
30
0
10
8.7287322026593372
20
2.9888959088243978
30
0
10
8.8300650867251171
20
3.009632721683154
30
0
10
8.9306273366850935
20
3.0123433518733194
30
0
10
9.0301612199896333
20
2.993139096483616
30
0
10
9.1285723931783362
20
2.9526942389501882
30
0
10
9.2259710410438149
20
2.8969854680669087
30
0
10
9.3225959217000103
20
2.8352192374376299
30
0
10
9.4187608208644722
20
2.778291885185213
30
0
10
9.5147937044922557
20
2.7370848228323648
30
0
10
9.6109753658926458
20
2.7207235659575781
30
0
10
9.7074890783237748
20
2.7351682989623027
30
0
10
9.8044458115822142
20
2.7840157513276669
30
0
10
9.8824094554564006
20
2.8520322244847387
30
0
10
9.9411144332634187
20
2.919585010745374
30
0
10
9.980354278485958
20
2.9719700224688244
30
0
10
10
20
3
30
0
0
ENDSEC
0
SECTION
2
OBJECTS
0
DICTIONARY
5
C
100
AcDbDictionary
3
ACAD_GROUP
350
D
3
ACAD_MLINESTYLE
350
17
0
DICTIONARY
5
D
100
AcDbDictionary
0
DICTIONARY
5
1A
330
C
100
AcDbDictionary
0
DICTIONARY
5
17
100
AcDbDictionary
0
ENDSEC
0
EOF
