0
SECTION
2
HEADER
9
$INSUNITS
70
4
9
$ACADVER
1
AC1014
9
$HANDSEED
5
FFFF
0
ENDSEC
0
SECTION
2
TABLES
0
TABLE
2
VPORT
5
8
100
AcDbSymbolTable
0
ENDTAB
0
TABLE
2
LTYPE
5
5
100
AcDbSymbolTable
0
LTYPE
5
14
100
AcDbSymbolTableRecord
100
AcDbLinetypeTableRecord
2
BYBLOCK
70
0
0
LTYPE
5
15
100
AcDbSymbolTableRecord
100
AcDbLinetypeTableRecord
2
BYLAYER
70
0
0
ENDTAB
0
TABLE
2
LAYER
5
2
100
AcDbSymbolTable
70
2
0
LAYER
5
50
100
AcDbSymbolTableRecord
100
AcDbLayerTableRecord
2
0
70
0
6
CONTINUOUS
0
ENDTAB
0
TABLE
2
STYLE
5
3
100
AcDbSymbolTable
70
1
0
STYLE
5
11
100
AcDbSymbolTableRecord
100
AcDbTextStyleTableRecord
2
STANDARD
70
0
0
ENDTAB
0
TABLE
2
VIEW
5
6
100
AcDbSymbolTable
70
0
0
ENDTAB
0
TABLE
2
UCS
5
7
100
AcDbSymbolTable
70
0
0
ENDTAB
0
TABLE
2
APPID
5
9
100
AcDbSymbolTable
70
2
0
APPID
5
12
100
AcDbSymbolTableRecord
100
AcDbRegAppTableRecord
2
ACAD
70
0
0
ENDTAB
0
TABLE
2
DIMSTYLE
5
A
100
AcDbSymbolTable
70
1
0
ENDTAB
0
TABLE
2
BLOCK_RECORD
5
1
100
AcDbSymbolTable
70
1
0
BLOCK_RECORD
5
1F
100
AcDbSymbolTableRecord
100
AcDbBlockTableRecord
2
*MODEL_SPACE
0
BLOCK_RECORD
5
1B
100
AcDbSymbolTableRecord
100
AcDbBlockTableRecord
2
*PAPER_SPACE
0
ENDTAB
0
ENDSEC
0
SECTION
2
BLOCKS
0
BLOCK
5
20
100
AcDbEntity
100
AcDbBlockBegin
2
*MODEL_SPACE
0
ENDBLK
5
21
100
AcDbEntity
100
AcDbBlockEnd
0
BLOCK
5
1C
100
AcDbEntity
100
AcDbBlockBegin
2
*PAPER_SPACE
0
ENDBLK
5
1D
100
AcDbEntity
100
AcDbBlockEnd
0
ENDSEC
0
SECTION
2
ENTITIES
0
SPLINE
5
100
100
AcDbEntity
8
0
100
AcDbSpline
70
4
71
5
72
16
73
10
74
0
42
0.000000001
43
0.0000000001
44
0.0000000001
40
0
40
0
40
0
40
0
40
0
40
0
40
0.20000000000000001
40
0.40000000000000002
40
0.60000000000000009
40
0.80000000000000004
40
1
40
1
40
1
40
1
40
1
40
1
41
1
41
1
41
1
41
1
41
1
41
1
41
1
41
1
41
1
41
1
10
0
20
0
30
0
10
0
20
0.12000000000003158
30
0
10
0
20
0.36000000000007704
30
0
10
0
20
0.72000000000009301
30
0
10
0
20
1.2000000000000313
30
0
10
0
20
1.7999999999999146
30
0
10
0
20
2.2799999999998684
30
0
10
0
20
2.6399999999999042
30
0
10
0
20
2.8799999999999617
30
0
10
0
20
3
30
0
0
SPLINE
5
101
100
AcDbEntity
8
0
100
AcDbSpline
70
4
71
5
72
16
73
10
74
0
42
0.000000001
43
0.0000000001
44
0.0000000001
40
0
40
0
40
0
40
0
40
0
40
0
40
0.20000000000000001
40
0.40000000000000002
40
0.60000000000000009
40
0.80000000000000004
40
1
40
1
40
1
40
1
40
1
40
1
41
1
41
1
41
1
41
1
41
1
41
1
41
1
41
1
41
1
41
1
10
10
20
0
30
0
10
9.9999999999997495
20
0.12000000000003158
30
0
10
9.9999999999993197
20
0.36000000000007704
30
0
10
9.9999999999989129
20
0.72000000000009301
30
0
10
9.9999999999987672
20
1.2000000000000313
30
0
10
9.9999999999990248
20
1.7999999999999146
30
0
10
9.9999999999993889
20
2.2799999999998684
30
0
10
9.9999999999996998
20
2.6399999999999042
30
0
10
9.9999999999999005
20
2.8799999999999617
30
0
10
10
20
3
30
0
0
SPLINE
5
102
100
AcDbEntity
8
0
100
AcDbSpline
70
4
71
5
72
16
73
10
74
0
42
0.000000001
43
0.0000000001
44
0.0000000001
40
0
40
0
40
0
40
0
40
0
40
0
40
0.20000000000000001
40
0.40000000000000002
40
0.60000000000000009
40
0.80000000000000004
40
1
40
1
40
1
40
1
40
1
40
1
41
1
41
1
41
1
41
1
41
1
41
1
41
1
41
1
41
1
41
1
10
0
20
1.5
30
0
10
0.40000000000047375
20
1.499999999999694
30
0
10
1.2000000000012774
20
1.4999999999991638
30
0
10
2.4000000000020547
20
1.4999999999986278
30
0
10
4.0000000000023546
20
1.4999999999983737
30
0
10
6.0000000000019584
20
1.4999999999985913
30
0
10
7.6000000000012928
20
1.4999999999990359
30
0
10
8.800000000000697
20
1.4999999999994786
30
0
10
9.6000000000002395
20
1.4999999999998188
30
0
10
10
20
1.5
30
0
0
SPLINE
5
103
100
AcDbEntity
8
0
100
AcDbSpline
70
4
71
5
72
61
73
55
74
0
42
0.000000001
43
0.0000000001
44
0.0000000001
40
0
40
0
40
0
40
0
40
0
40
0
40
0.02
40
0.040000000000000001
40
0.059999999999999998
40
0.080000000000000002
40
0.10000000000000001
40
0.12000000000000001
40
0.14000000000000001
40
0.16
40
0.17999999999999999
40
0.19999999999999998
40
0.21999999999999997
40
0.23999999999999996
40
0.25999999999999995
40
0.27999999999999997
40
0.29999999999999999
40
0.32000000000000001
40
0.34000000000000002
40
0.36000000000000004
40
0.38000000000000006
40
0.40000000000000008
40
0.4200000000000001
40
0.44000000000000011
40
0.46000000000000013
40
0.48000000000000015
40
0.50000000000000011
40
0.52000000000000013
40
0.54000000000000015
40
0.56000000000000016
40
0.58000000000000018
40
0.6000000000000002
40
0.62000000000000022
40
0.64000000000000024
40
0.66000000000000025
40
0.68000000000000027
40
0.70000000000000029
40
0.72000000000000031
40
0.74000000000000032
40
0.76000000000000034
40
0.78000000000000036
40
0.80000000000000038
40
0.8200000000000004
40
0.84000000000000041
40
0.86000000000000043
40
0.88000000000000045
40
0.90000000000000047
40
0.92000000000000048
40
0.9400000000000005
40
0.96000000000000052
40
0.98000000000000054
40
1
40
1
40
1
40
1
40
1
40
1
41
1
41
1
41
1
41
1
41
1
41
1
41
1
41
1
41
1
41
1
41
1
41
1
41
1
41
1
41
1
41
1
41
1
41
1
41
1
41
1
41
1
41
1
41
1
41
1
41
1
41
1
41
1
41
1
41
1
41
1
41
1
41
1
41
1
41
1
41
1
41
1
41
1
41
1
41
1
41
1
41
1
41
1
41
1
41
1
41
1
41
1
41
1
41
1
41
1
41
1
41
1
41
1
41
1
41
1
41
1
10
0
20
0
30
0
10
0.039239840512946628
20
0.0081253608791554237
30
0
10
0.11782872921668275
20
0.024853042247237122
30
0
10
0.2360396844514232
20
0.051375416760187122
30
0
10
0.39430997011975322
20
0.089602383579132555
30
0
10
0.59322081703376472
20
0.14165359380999021
30
0
10
0.79314103392869861
20
0.19644032267770078
30
0
10
0.9939397712164032
20
0.25087395737926438
30
0
10
1.1953962614792251
20
0.29980365067040465
30
0
10
1.3971746040540776
20
0.33543347653123023
30
0
10
1.5988897862990781
20
0.34960564955932427
30
0
10
1.8001761254041446
20
0.33616273813702796
30
0
10
2.0007547812678261
20
0.2932832492657827
30
0
10
2.2005019531664147
20
0.22584347536102445
30
0
10
2.3995169014736923
20
0.14777358578139302
30
0
10
2.5980382854250994
20
0.077362582451434375
30
0
10
2.7963613952259747
20
0.032605549713290737
30
0
10
2.9947547716772762
20
0.026504585374916963
30
0
10
3.1933782592426789
20
0.062455152607723767
30
0
10
3.3921970170749205
20
0.12936373969856702
30
0
10
3.5910574184920216
20
0.207309197436645
30
0
10
3.7897660756833225
20
0.27340458959714814
30
0
10
3.9881686667003176
20
0.30764684388181118
30
0
10
4.1862263325291096
20
0.29860498469954327
30
0
10
4.3841002915463188
20
0.24965651135776673
30
0
10
4.5820760817464476
20
0.17452557701043714
30
0
10
4.7804794717953465
20
0.092254156267958576
30
0
10
4.9795939263734157
20
0.022318487409031043
30
0
10
5.1795811086119699
20
-0.020128685622734246
30
0
10
5.3803897656538098
20
-0.029563325817971768
30
0
10
5.5818113605992252
20
-0.0082780899025569517
30
0
10
5.7835504062041529
20
0.036154259208662692
30
0
10
5.9852899239542161
20
0.093156990539927223
30
0
10
6.1867572630928178
20
0.15148841810878461
30
0
10
6.3877940652858465
20
0.20164702820048977
30
0
10
6.5883432989146451
20
0.23636190567222576
30
0
10
6.7884302375219541
20
0.25093104024162982
30
0
10
6.9881459368705512
20
0.24363606777314872
30
0
10
7.18762974635513
20
0.21610140844647063
30
0
10
7.3870527135915109
20
0.17377260262973049
30
0
10
7.5865939252951264
20
0.1243902176608193
30
0
10
7.7864167368552444
20
0.076365005903273983
30
0
10
7.9866446313208943
20
0.0371711857168434
30
0
10
8.1873380058400276
20
0.011778481181965552
30
0
10
8.3884680498404265
20
0.00093300232859454106
30
0
10
8.5899410771454541
20
0.0022099262580341571
30
0
10
8.791625926968571
20
0.01123786538907199
30
0
10
8.9933802584419578
20
0.022860281273423749
30
0
10
9.1950769433375186
20
0.032306927177823637
30
0
10
9.39663127879275
20
0.036396952665437618
30
0
10
9.5979930181400945
20
0.033244284545804526
30
0
10
9.7589084757276972
20
0.02418239855715458
30
0
10
9.8794936527648005
20
0.013573073916151143
30
0
10
9.95983872515054
20
0.0048066181711657364
30
0
10
10
20
0
30
0
0
SPLINE
5
104
100
AcDbEntity
8
0
100
AcDbSpline
70
4
71
5
72
61
73
55
74
0
42
0.000000001
43
0.0000000001
44
0.0000000001
40
0
40
0
40
0
40
0
40
0
40
0
40
0.02
40
0.040000000000000001
40
0.059999999999999998
40
0.080000000000000002
40
0.10000000000000001
40
0.12000000000000001
40
0.14000000000000001
40
0.16
40
0.17999999999999999
40
0.19999999999999998
40
0.21999999999999997
40
0.23999999999999996
40
0.25999999999999995
40
0.27999999999999997
40
0.29999999999999999
40
0.32000000000000001
40
0.34000000000000002
40
0.36000000000000004
40
0.38000000000000006
40
0.40000000000000008
40
0.4200000000000001
40
0.44000000000000011
40
0.46000000000000013
40
0.48000000000000015
40
0.50000000000000011
40
0.52000000000000013
40
0.54000000000000015
40
0.56000000000000016
40
0.58000000000000018
40
0.6000000000000002
40
0.62000000000000022
40
0.64000000000000024
40
0.66000000000000025
40
0.68000000000000027
40
0.70000000000000029
40
0.72000000000000031
40
0.74000000000000032
40
0.76000000000000034
40
0.78000000000000036
40
0.80000000000000038
40
0.8200000000000004
40
0.84000000000000041
40
0.86000000000000043
40
0.88000000000000045
40
0.90000000000000047
40
0.92000000000000048
40
0.9400000000000005
40
0.96000000000000052
40
0.98000000000000054
40
1
40
1
40
1
40
1
40
1
40
1
41
1
41
1
41
1
41
1
41
1
41
1
41
1
41
1
41
1
41
1
41
1
41
1
41
1
41
1
41
1
41
1
41
1
41
1
41
1
41
1
41
1
41
1
41
1
41
1
41
1
41
1
41
1
41
1
41
1
41
1
41
1
41
1
41
1
41
1
41
1
41
1
41
1
41
1
41
1
41
1
41
1
41
1
41
1
41
1
41
1
41
1
41
1
41
1
41
1
41
1
41
1
41
1
41
1
41
1
41
1
10
0
20
3
30
0
10
0.03898832223437762
20
2.9824453718689869
30
0
10
0.11706465596529979
20
2.9485774541595662
30
0
10
0.2344782233400228
20
2.9014995919458073
30
0
10
0.39162817846857384
20
2.8461820004876359
30
0
10
0.58905251957508775
20
2.7894297698101864
30
0
10
0.78742801079974722
20
2.7449434511674542
30
0
10
0.9866798415558744
20
2.7124278668727566
30
0
10
1.1866811116178513
20
2.6913579084980355
30
0
10
1.3872369602738095
20
2.6809111300030746
30
0
10
1.5881175768180804
20
2.6799590319508058
30
0
10
1.7890940732442346
20
2.6870623031654177
30
0
10
1.9899736889202659
20
2.7004617404861495
30
0
10
2.1906344214293876
20
2.7180739910755087
30
0
10
2.3910625749665986
20
2.7374729858202658
30
0
10
2.5913210432155758
20
2.7561770603902422
30
0
10
2.791514485274357
20
2.7719491266913279
30
0
10
2.9917555382922862
20
2.7830954042510521
30
0
10
3.1921311933122625
20
2.7887594903899253
30
0
10
3.3926675630927203
20
2.7892385944183333
30
0
10
3.5933449438839475
20
2.7856953888027949
30
0
10
3.7941147564169815
20
2.7798482314514654
30
0
10
3.9949157629735192
20
2.7736704965639341
30
0
10
4.1956904038104783
20
2.7690885394066838
30
0
10
4.3964014481734175
20
2.7676764141026244
30
0
10
4.5970288393414762
20
2.7705656355434916
30
0
10
4.7975660835310521
20
2.7783597236563873
30
0
10
4.9980168446253632
20
2.7910448896063937
30
0
10
5.1983914951944419
20
2.8079020192435369
30
0
10
5.3987036830043946
20
2.8274121123777367
30
0
10
5.5989705273915158
20
2.8476846258759423
30
0
10
5.7992128617089165
20
2.8668895587130123
30
0
10
5.9994554717090498
20
2.8836883146681211
30
0
10
6.1997273421771268
20
2.8976653197622397
30
0
10
6.4000619262917722
20
2.9097637842512687
30
0
10
6.6004893529643756
20
2.9215750462677721
30
0
10
6.8010285935953405
20
2.9346253896394914
30
0
10
7.0016796428054189
20
2.9496661437345746
30
0
10
7.2024155855299012
20
2.965956242199383
30
0
10
7.4031748022234778
20
2.9805569647051682
30
0
10
7.6038769891944593
20
2.9894848377861316
30
0
10
7.8044390032268529
20
2.9888517828230294
30
0
10
8.004790671040606
20
2.9760030193894238
30
0
10
8.2048908298619612
20
2.9506737251832202
30
0
10
8.404742812207493
20
2.9161016412072929
30
0
10
8.6043814053055137
20
2.8778774469612656
30
0
10
8.8038604551904243
20
2.8428455202062208
30
0
10
9.0032403277134403
20
2.8179931691260856
30
0
10
9.2025753908698142
20
2.809339123721883
30
0
10
9.4019016876468005
20
2.8208395678274818
30
0
10
9.6012408045461495
20
2.8548297819529473
30
0
10
9.7607309383697114
20
2.9009175868305501
30
0
10
9.8803607310391151
20
2.9462676755416153
30
0
10
9.9601193411675002
20
2.9812909162051726
30
0
10
10
20
3
30
0
0
ENDSEC
0
SECTION
2
OBJECTS
0
DICTIONARY
5
C
100
AcDbDictionary
3
ACAD_GROUP
350
D
3
ACAD_MLINESTYLE
350
17
0
DICTIONARY
5
D
100
AcDbDictionary
0
DICTIONARY
5
1A
330
C
100
AcDbDictionary
0
DICTIONARY
5
17
100
AcDbDictionary
0
ENDSEC
0
EOF
