0
SECTION
2
HEADER
9
$INSUNITS
70
4
9
$ACADVER
1
AC1014
9
$HANDSEED
5
FFFF
0
ENDSEC
0
SECTION
2
TABLES
0
TABLE
2
VPORT
5
8
100
AcDbSymbolTable
0
ENDTAB
0
TABLE
2
LTYPE
5
5
100
AcDbSymbolTable
0
LTYPE
5
14
100
AcDbSymbolTableRecord
100
AcDbLinetypeTableRecord
2
BYBLOCK
70
0
0
LTYPE
5
15
100
AcDbSymbolTableRecord
100
AcDbLinetypeTableRecord
2
BYLAYER
70
0
0
ENDTAB
0
TABLE
2
LAYER
5
2
100
AcDbSymbolTable
70
2
0
LAYER
5
50
100
AcDbSymbolTableRecord
100
AcDbLayerTableRecord
2
0
70
0
6
CONTINUOUS
0
ENDTAB
0
TABLE
2
STYLE
5
3
100
AcDbSymbolTable
70
1
0
STYLE
5
11
100
AcDbSymbolTableRecord
100
AcDbTextStyleTableRecord
2
STANDARD
70
0
0
ENDTAB
0
TABLE
2
VIEW
5
6
100
AcDbSymbolTable
70
0
0
ENDTAB
0
TABLE
2
UCS
5
7
100
AcDbSymbolTable
70
0
0
ENDTAB
0
TABLE
2
APPID
5
9
100
AcDbSymbolTable
70
2
0
APPID
5
12
100
AcDbSymbolTableRecord
100
AcDbRegAppTableRecord
2
ACAD
70
0
0
ENDTAB
0
TABLE
2
DIMSTYLE
5
A
100
AcDbSymbolTable
70
1
0
ENDTAB
0
TABLE
2
BLOCK_RECORD
5
1
100
AcDbSymbolTable
70
1
0
BLOCK_RECORD
5
1F
100
AcDbSymbolTableRecord
100
AcDbBlockTableRecord
2
*MODEL_SPACE
0
BLOCK_RECORD
5
1B
100
AcDbSymbolTableRecord
100
AcDbBlockTableRecord
2
*PAPER_SPACE
0
ENDTAB
0
ENDSEC
0
SECTION
2
BLOCKS
0
BLOCK
5
20
100
AcDbEntity
100
AcDbBlockBegin
2
*MODEL_SPACE
0
ENDBLK
5
21
100
AcDbEntity
100
AcDbBlockEnd
0
BLOCK
5
1C
100
AcDbEntity
100
AcDbBlockBegin
2
*PAPER_SPACE
0
ENDBLK
5
1D
100
AcDbEntity
100
AcDbBlockEnd
0
ENDSEC
0
SECTION
2
ENTITIES
0
SPLINE
5
100
100
AcDbEntity
8
0
100
AcDbSpline
70
4
71
5
72
16
73
10
74
0
42
0.000000001
43
0.0000000001
44
0.0000000001
40
0
40
0
40
0
40
0
40
0
40
0
40
0.20000000000000001
40
0.40000000000000002
40
0.60000000000000009
40
0.80000000000000004
40
1
40
1
40
1
40
1
40
1
40
1
41
1
41
1
41
1
41
1
41
1
41
1
41
1
41
1
41
1
41
1
10
0
20
0
30
0
10
0
20
0.12000000000003158
30
0
10
0
20
0.36000000000007704
30
0
10
0
20
0.72000000000009301
30
0
10
0
20
1.2000000000000313
30
0
10
0
20
1.7999999999999146
30
0
10
0
20
2.2799999999998684
30
0
10
0
20
2.6399999999999042
30
0
10
0
20
2.8799999999999617
30
0
10
0
20
3
30
0
0
SPLINE
5
101
100
AcDbEntity
8
0
100
AcDbSpline
70
4
71
5
72
16
73
10
74
0
42
0.000000001
43
0.0000000001
44
0.0000000001
40
0
40
0
40
0
40
0
40
0
40
0
40
0.20000000000000001
40
0.40000000000000002
40
0.60000000000000009
40
0.80000000000000004
40
1
40
1
40
1
40
1
40
1
40
1
41
1
41
1
41
1
41
1
41
1
41
1
41
1
41
1
41
1
41
1
10
10
20
0
30
0
10
9.9999999999997495
20
0.12000000000003158
30
0
10
9.9999999999993197
20
0.36000000000007704
30
0
10
9.9999999999989129
20
0.72000000000009301
30
0
10
9.9999999999987672
20
1.2000000000000313
30
0
10
9.9999999999990248
20
1.7999999999999146
30
0
10
9.9999999999993889
20
2.2799999999998684
30
0
10
9.9999999999996998
20
2.6399999999999042
30
0
10
9.9999999999999005
20
2.8799999999999617
30
0
10
10
20
3
30
0
0
SPLINE
5
102
100
AcDbEntity
8
0
100
AcDbSpline
70
4
71
5
72
16
73
10
74
0
42
0.000000001
43
0.0000000001
44
0.0000000001
40
0
40
0
40
0
40
0
40
0
40
0
40
0.20000000000000001
40
0.40000000000000002
40
0.60000000000000009
40
0.80000000000000004
40
1
40
1
40
1
40
1
40
1
40
1
41
1
41
1
41
1
41
1
41
1
41
1
41
1
41
1
41
1
41
1
10
0
20
1.5
30
0
10
0.40000000000047375
20
1.499999999999694
30
0
10
1.2000000000012774
20
1.4999999999991638
30
0
10
2.4000000000020547
20
1.4999999999986278
30
0
10
4.0000000000023546
20
1.4999999999983737
30
0
10
6.0000000000019584
20
1.4999999999985913
30
0
10
7.6000000000012928
20
1.4999999999990359
30
0
10
8.800000000000697
20
1.4999999999994786
30
0
10
9.6000000000002395
20
1.4999999999998188
30
0
10
10
20
1.5
30
0
0
SPLINE
5
103
100
AcDbEntity
8
0
100
AcDbSpline
70
4
71
5
72
61
73
55
74
0
42
0.000000001
43
0.0000000001
44
0.0000000001
40
0
40
0
40
0
40
0
40
0
40
0
40
0.02
40
0.040000000000000001
40
0.059999999999999998
40
0.080000000000000002
40
0.10000000000000001
40
0.12000000000000001
40
0.14000000000000001
40
0.16
40
0.17999999999999999
40
0.19999999999999998
40
0.21999999999999997
40
0.23999999999999996
40
0.25999999999999995
40
0.27999999999999997
40
0.29999999999999999
40
0.32000000000000001
40
0.34000000000000002
40
0.36000000000000004
40
0.38000000000000006
40
0.40000000000000008
40
0.4200000000000001
40
0.44000000000000011
40
0.46000000000000013
40
0.48000000000000015
40
0.50000000000000011
40
0.52000000000000013
40
0.54000000000000015
40
0.56000000000000016
40
0.58000000000000018
40
0.6000000000000002
40
0.62000000000000022
40
0.64000000000000024
40
0.66000000000000025
40
0.68000000000000027
40
0.70000000000000029
40
0.72000000000000031
40
0.74000000000000032
40
0.76000000000000034
40
0.78000000000000036
40
0.80000000000000038
40
0.8200000000000004
40
0.84000000000000041
40
0.86000000000000043
40
0.88000000000000045
40
0.90000000000000047
40
0.92000000000000048
40
0.9400000000000005
40
0.96000000000000052
40
0.98000000000000054
40
1
40
1
40
1
40
1
40
1
40
1
41
1
41
1
41
1
41
1
41
1
41
1
41
1
41
1
41
1
41
1
41
1
41
1
41
1
41
1
41
1
41
1
41
1
41
1
41
1
41
1
41
1
41
1
41
1
41
1
41
1
41
1
41
1
41
1
41
1
41
1
41
1
41
1
41
1
41
1
41
1
41
1
41
1
41
1
41
1
41
1
41
1
41
1
41
1
41
1
41
1
41
1
41
1
41
1
41
1
41
1
41
1
41
1
41
1
41
1
41
1
10
0
20
0
30
0
10
0.039989797071492111
20
0.018930086925723507
30
0
10
0.1199949793643717
20
0.054328511382056563
30
0
10
0.24007951733643978
20
0.10004088862986016
30
0
10
0.40034586299687147
20
0.14621067994384795
30
0
10
0.60093208130551767
20
0.17974074190754374
30
0
10
0.80176227749887752
20
0.19054184191367896
30
0
10
1.0028170804617684
20
0.18159315307993293
30
0
10
1.2040634255090892
20
0.15793936383938001
30
0
10
1.405451131720673
20
0.12720245677958941
30
0
10
1.6069255592325826
20
0.097842182767943403
30
0
10
1.8084402024156492
20
0.077432475521286223
30
0
10
2.0099690201667544
20
0.070959003552143574
30
0
10
2.2115196072505792
20
0.079036747733296192
30
0
10
2.4131441785735968
20
0.096333055516746563
30
0
10
2.6149056157131034
20
0.11439242657862131
30
0
10
2.8168447918641921
20
0.12430322934046183
30
0
10
3.0189486406812263
20
0.11935295883797382
30
0
10
3.2211148518446722
20
0.097849409385528358
30
0
10
3.4231261566241598
20
0.065432985818871373
30
0
10
3.6247250173017083
20
0.031907666560387259
30
0
10
3.8256820052431557
20
0.0084585864317384997
30
0
10
4.0258637964616923
20
0.0048081406837941721
30
0
10
4.2253081266667669
20
0.026210102675378998
30
0
10
4.4242770552477815
20
0.071046509299030031
30
0
10
4.6231478322738164
20
0.13309646703644154
30
0
10
4.8223188603914551
20
0.2033358041552617
30
0
10
5.0221129459631575
20
0.27188379274868812
30
0
10
5.2226746812777876
20
0.3299386821413583
30
0
10
5.4238897902636936
20
0.37155690213264864
30
0
10
5.6255023248242821
20
0.39370763937182862
30
0
10
5.8272162838042352
20
0.39651908864723784
30
0
10
6.0287982155856206
20
0.3834028612645613
30
0
10
6.2301906472501623
20
0.36137290954981033
30
0
10
6.4315886147478443
20
0.34090313030803315
30
0
10
6.633275407777667
20
0.33298834010241607
30
0
10
6.835480185704772
20
0.34642163487571187
30
0
10
7.0382368625757081
20
0.38516531555192751
30
0
10
7.241219168434637
20
0.4452460836389972
30
0
10
7.4436537296623841
20
0.513109588543885
30
0
10
7.644594505601451
20
0.570687845908318
30
0
10
7.8431526423099927
20
0.59962863389749133
30
0
10
8.0387319072165937
20
0.58564506765553181
30
0
10
8.2312901460141301
20
0.52329760638970202
30
0
10
8.421506932305169
20
0.41917138712754887
30
0
10
8.6105182564712219
20
0.28762980642022584
30
0
10
8.7997146832007971
20
0.14765541978379787
30
0
10
8.9905140545553444
20
0.019258213379093378
30
0
10
9.1841489788529831
20
-0.079869335900110416
30
0
10
9.3814375975318089
20
-0.13796021608256756
30
0
10
9.5828614388622508
20
-0.14807173659332715
30
0
10
9.7474963299718436
20
-0.11505791561379305
30
0
10
9.8729713352233244
20
-0.06669997539688334
30
0
10
9.9575091445729917
20
-0.023980179448963114
30
0
10
10
20
0
30
0
0
SPLINE
5
104
100
AcDbEntity
8
0
100
AcDbSpline
70
4
71
5
72
61
73
55
74
0
42
0.000000001
43
0.0000000001
44
0.0000000001
40
0
40
0
40
0
40
0
40
0
40
0
40
0.02
40
0.040000000000000001
40
0.059999999999999998
40
0.080000000000000002
40
0.10000000000000001
40
0.12000000000000001
40
0.14000000000000001
40
0.16
40
0.17999999999999999
40
0.19999999999999998
40
0.21999999999999997
40
0.23999999999999996
40
0.25999999999999995
40
0.27999999999999997
40
0.29999999999999999
40
0.32000000000000001
40
0.34000000000000002
40
0.36000000000000004
40
0.38000000000000006
40
0.40000000000000008
40
0.4200000000000001
40
0.44000000000000011
40
0.46000000000000013
40
0.48000000000000015
40
0.50000000000000011
40
0.52000000000000013
40
0.54000000000000015
40
0.56000000000000016
40
0.58000000000000018
40
0.6000000000000002
40
0.62000000000000022
40
0.64000000000000024
40
0.66000000000000025
40
0.68000000000000027
40
0.70000000000000029
40
0.72000000000000031
40
0.74000000000000032
40
0.76000000000000034
40
0.78000000000000036
40
0.80000000000000038
40
0.8200000000000004
40
0.84000000000000041
40
0.86000000000000043
40
0.88000000000000045
40
0.90000000000000047
40
0.92000000000000048
40
0.9400000000000005
40
0.96000000000000052
40
0.98000000000000054
40
1
40
1
40
1
40
1
40
1
40
1
41
1
41
1
41
1
41
1
41
1
41
1
41
1
41
1
41
1
41
1
41
1
41
1
41
1
41
1
41
1
41
1
41
1
41
1
41
1
41
1
41
1
41
1
41
1
41
1
41
1
41
1
41
1
41
1
41
1
41
1
41
1
41
1
41
1
41
1
41
1
41
1
41
1
41
1
41
1
41
1
41
1
41
1
41
1
41
1
41
1
41
1
41
1
41
1
41
1
41
1
41
1
41
1
41
1
41
1
41
1
10
0
20
3
30
0
10
0.040696695786113506
20
3.0059380457381724
30
0
10
0.1220284481926924
20
3.0163315829567487
30
0
10
0.24384115667724776
20
3.0274741645657044
30
0
10
0.40588804281585478
20
3.033430226770621
30
0
10
0.60785345291467685
20
3.026596358266278
30
0
10
0.80929926015694698
20
3.0072195914603741
30
0
10
1.0103738810831695
20
2.9788019743403185
30
0
10
1.2113282754779098
20
2.9472655631542626
30
0
10
1.4125364152977617
20
2.9214371531755812
30
0
10
1.6143748253576393
20
2.9102686559195821
30
0
10
1.8171060204819913
20
2.9201413432440204
30
0
10
2.0207647275787908
20
2.9522501570098458
30
0
10
2.2250319528180795
20
2.9996700644388996
30
0
10
2.4291432541599152
20
3.0453153383563638
30
0
10
2.6321234548588124
20
3.0683054035039188
30
0
10
2.8329978623356098
20
3.0497677510538339
30
0
10
3.0310046577745502
20
2.9785820176288542
30
0
10
3.2258251526252
20
2.8578096951812619
30
0
10
3.4177544849502088
20
2.7089591181968116
30
0
10
3.6075026094914513
20
2.5628857729756316
30
0
10
3.7960401906146028
20
2.4523454316907305
30
0
10
3.9844265118187669
20
2.403771290943018
30
0
10
4.1736489763102949
20
2.4297125547693397
30
0
10
4.3644481110459044
20
2.5200362494120512
30
0
10
4.5573156009612728
20
2.649241561187047
30
0
10
4.7525063108728647
20
2.7848600246294493
30
0
10
4.9500425368947321
20
2.895762748103055
30
0
10
5.1497255551141414
20
2.9597696548075669
30
0
10
5.3511311970057793
20
2.9734637565620843
30
0
10
5.5536901632764826
20
2.9487899730880236
30
0
10
5.7567924955646124
20
2.9056086097181666
30
0
10
5.9598873674460693
20
2.8654215853676557
30
0
10
6.1625768888226196
20
2.8450740482027075
30
0
10
6.3647336044237015
20
2.8492762540700762
30
0
10
6.5664452436654184
20
2.8729010343051837
30
0
10
6.7679202865356558
20
2.9055563658018775
30
0
10
6.9694053471946802
20
2.9354563410586469
30
0
10
7.1711023244687597
20
2.9533566136909535
30
0
10
7.3730736485391324
20
2.9570515522440033
30
0
10
7.5752707058735229
20
2.9498468773881359
30
0
10
7.7775828280528323
20
2.9380225587674067
30
0
10
7.9798795308857056
20
2.928624309994365
30
0
10
8.1820539368477121
20
2.927204626886668
30
0
10
8.3840698950630923
20
2.9353595365772471
30
0
10
8.5859474090218377
20
2.9515706248161639
30
0
10
8.7877416468470333
20
2.9723890805947715
30
0
10
8.9895242350607631
20
2.9934984647649592
30
0
10
9.1913639775168363
20
3.0108066025791
30
0
10
9.3933069476194078
20
3.0215751905518644
30
0
10
9.5953803490991731
20
3.0241876500298241
30
0
10
9.7571541616793347
20
3.0191147226940407
30
0
10
9.8785511754793784
20
3.0111673974781334
30
0
10
9.9595121241816162
20
3.0040291369356575
30
0
10
10
20
3
30
0
0
ENDSEC
0
SECTION
2
OBJECTS
0
DICTIONARY
5
C
100
AcDbDictionary
3
ACAD_GROUP
350
D
3
ACAD_MLINESTYLE
350
17
0
DICTIONARY
5
D
100
AcDbDictionary
0
DICTIONARY
5
1A
330
C
100
AcDbDictionary
0
DICTIONARY
5
17
100
AcDbDictionary
0
ENDSEC
0
EOF
