0
SECTION
2
HEADER
9
$INSUNITS
70
4
9
$ACADVER
1
AC1014
9
$HANDSEED
5
FFFF
0
ENDSEC
0
SECTION
2
TABLES
0
TABLE
2
VPORT
5
8
100
AcDbSymbolTable
0
ENDTAB
0
TABLE
2
LTYPE
5
5
100
AcDbSymbolTable
0
LTYPE
5
14
100
AcDbSymbolTableRecord
100
AcDbLinetypeTableRecord
2
BYBLOCK
70
0
0
LTYPE
5
15
100
AcDbSymbolTableRecord
100
AcDbLinetypeTableRecord
2
BYLAYER
70
0
0
ENDTAB
0
TABLE
2
LAYER
5
2
100
AcDbSymbolTable
70
2
0
LAYER
5
50
100
AcDbSymbolTableRecord
100
AcDbLayerTableRecord
2
0
70
0
6
CONTINUOUS
0
ENDTAB
0
TABLE
2
STYLE
5
3
100
AcDbSymbolTable
70
1
0
STYLE
5
11
100
AcDbSymbolTableRecord
100
AcDbTextStyleTableRecord
2
STANDARD
70
0
0
ENDTAB
0
TABLE
2
VIEW
5
6
100
AcDbSymbolTable
70
0
0
ENDTAB
0
TABLE
2
UCS
5
7
100
AcDbSymbolTable
70
0
0
ENDTAB
0
TABLE
2
APPID
5
9
100
AcDbSymbolTable
70
2
0
APPID
5
12
100
AcDbSymbolTableRecord
100
AcDbRegAppTableRecord
2
ACAD
70
0
0
ENDTAB
0
TABLE
2
DIMSTYLE
5
A
100
AcDbSymbolTable
70
1
0
ENDTAB
0
TABLE
2
BLOCK_RECORD
5
1
100
AcDbSymbolTable
70
1
0
BLOCK_RECORD
5
1F
100
AcDbSymbolTableRecord
100
AcDbBlockTableRecord
2
*MODEL_SPACE
0
BLOCK_RECORD
5
1B
100
AcDbSymbolTableRecord
100
AcDbBlockTableRecord
2
*PAPER_SPACE
0
ENDTAB
0
ENDSEC
0
SECTION
2
BLOCKS
0
BLOCK
5
20
100
AcDbEntity
100
AcDbBlockBegin
2
*MODEL_SPACE
0
ENDBLK
5
21
100
AcDbEntity
100
AcDbBlockEnd
0
BLOCK
5
1C
100
AcDbEntity
100
AcDbBlockBegin
2
*PAPER_SPACE
0
ENDBLK
5
1D
100
AcDbEntity
100
AcDbBlockEnd
0
ENDSEC
0
SECTION
2
ENTITIES
0
SPLINE
5
100
100
AcDbEntity
8
0
100
AcDbSpline
70
4
71
5
72
16
73
10
74
0
42
0.000000001
43
0.0000000001
44
0.0000000001
40
0
40
0
40
0
40
0
40
0
40
0
40
0.20000000000000001
40
0.40000000000000002
40
0.60000000000000009
40
0.80000000000000004
40
1
40
1
40
1
40
1
40
1
40
1
41
1
41
1
41
1
41
1
41
1
41
1
41
1
41
1
41
1
41
1
10
0
20
0
30
0
10
0
20
0.12000000000003158
30
0
10
0
20
0.36000000000007704
30
0
10
0
20
0.72000000000009301
30
0
10
0
20
1.2000000000000313
30
0
10
0
20
1.7999999999999146
30
0
10
0
20
2.2799999999998684
30
0
10
0
20
2.6399999999999042
30
0
10
0
20
2.8799999999999617
30
0
10
0
20
3
30
0
0
SPLINE
5
101
100
AcDbEntity
8
0
100
AcDbSpline
70
4
71
5
72
16
73
10
74
0
42
0.000000001
43
0.0000000001
44
0.0000000001
40
0
40
0
40
0
40
0
40
0
40
0
40
0.20000000000000001
40
0.40000000000000002
40
0.60000000000000009
40
0.80000000000000004
40
1
40
1
40
1
40
1
40
1
40
1
41
1
41
1
41
1
41
1
41
1
41
1
41
1
41
1
41
1
41
1
10
10
20
0
30
0
10
9.9999999999997495
20
0.12000000000003158
30
0
10
9.9999999999993197
20
0.36000000000007704
30
0
10
9.9999999999989129
20
0.72000000000009301
30
0
10
9.9999999999987672
20
1.2000000000000313
30
0
10
9.9999999999990248
20
1.7999999999999146
30
0
10
9.9999999999993889
20
2.2799999999998684
30
0
10
9.9999999999996998
20
2.6399999999999042
30
0
10
9.9999999999999005
20
2.8799999999999617
30
0
10
10
20
3
30
0
0
SPLINE
5
102
100
AcDbEntity
8
0
100
AcDbSpline
70
4
71
5
72
16
73
10
74
0
42
0.000000001
43
0.0000000001
44
0.0000000001
40
0
40
0
40
0
40
0
40
0
40
0
40
0.20000000000000001
40
0.40000000000000002
40
0.60000000000000009
40
0.80000000000000004
40
1
40
1
40
1
40
1
40
1
40
1
41
1
41
1
41
1
41
1
41
1
41
1
41
1
41
1
41
1
41
1
10
0
20
1.5
30
0
10
0.40000000000047375
20
1.499999999999694
30
0
10
1.2000000000012774
20
1.4999999999991638
30
0
10
2.4000000000020547
20
1.4999999999986278
30
0
10
4.0000000000023546
20
1.4999999999983737
30
0
10
6.0000000000019584
20
1.4999999999985913
30
0
10
7.6000000000012928
20
1.4999999999990359
30
0
10
8.800000000000697
20
1.4999999999994786
30
0
10
9.6000000000002395
20
1.4999999999998188
30
0
10
10
20
1.5
30
0
0
SPLINE
5
103
100
AcDbEntity
8
0
100
AcDbSpline
70
4
71
5
72
61
73
55
74
0
42
0.000000001
43
0.0000000001
44
0.0000000001
40
0
40
0
40
0
40
0
40
0
40
0
40
0.02
40
0.040000000000000001
40
0.059999999999999998
40
0.080000000000000002
40
0.10000000000000001
40
0.12000000000000001
40
0.14000000000000001
40
0.16
40
0.17999999999999999
40
0.19999999999999998
40
0.21999999999999997
40
0.23999999999999996
40
0.25999999999999995
40
0.27999999999999997
40
0.29999999999999999
40
0.32000000000000001
40
0.34000000000000002
40
0.36000000000000004
40
0.38000000000000006
40
0.40000000000000008
40
0.4200000000000001
40
0.44000000000000011
40
0.46000000000000013
40
0.48000000000000015
40
0.50000000000000011
40
0.52000000000000013
40
0.54000000000000015
40
0.56000000000000016
40
0.58000000000000018
40
0.6000000000000002
40
0.62000000000000022
40
0.64000000000000024
40
0.66000000000000025
40
0.68000000000000027
40
0.70000000000000029
40
0.72000000000000031
40
0.74000000000000032
40
0.76000000000000034
40
0.78000000000000036
40
0.80000000000000038
40
0.8200000000000004
40
0.84000000000000041
40
0.86000000000000043
40
0.88000000000000045
40
0.90000000000000047
40
0.92000000000000048
40
0.9400000000000005
40
0.96000000000000052
40
0.98000000000000054
40
1
40
1
40
1
40
1
40
1
40
1
41
1
41
1
41
1
41
1
41
1
41
1
41
1
41
1
41
1
41
1
41
1
41
1
41
1
41
1
41
1
41
1
41
1
41
1
41
1
41
1
41
1
41
1
41
1
41
1
41
1
41
1
41
1
41
1
41
1
41
1
41
1
41
1
41
1
41
1
41
1
41
1
41
1
41
1
41
1
41
1
41
1
41
1
41
1
41
1
41
1
41
1
41
1
41
1
41
1
41
1
41
1
41
1
41
1
41
1
41
1
10
0
20
0
30
0
10
0.040265150830133142
20
0.0059636562045490334
30
0
10
0.12080239182481099
20
0.016857956090227055
30
0
10
0.24162907133166955
20
0.03010034845496809
30
0
10
0.40277297373585363
20
0.041554890051858584
30
0
10
0.60427025684605773
20
0.045843426038772103
30
0
10
0.80582856629645994
20
0.041067747805574102
30
0
10
1.0074349293490386
20
0.029185616171182888
30
0
10
1.2090675032551681
20
0.013504187930615341
30
0
10
1.4106933230253391
20
-0.0010165645023536122
30
0
10
1.6122682431673163
20
-0.0089834052305016975
30
0
10
1.8137366147452822
20
-0.0057560229603273363
30
0
10
2.0150313734490273
20
0.011384672757450127
30
0
10
2.2160731347042528
20
0.041982647980902218
30
0
10
2.4167719026580441
20
0.081389399847675695
30
0
10
2.617061787171739
20
0.12300141846167394
30
0
10
2.8169346470247576
20
0.16032161336720102
30
0
10
3.0164724828419738
20
0.18902849531082166
30
0
10
3.2158847673871538
20
0.20918012507847983
30
0
10
3.4155321558044549
20
0.22699037422093241
30
0
10
3.6157871910767616
20
0.25127855053609754
30
0
10
3.8169035203695199
20
0.29023657274845333
30
0
10
4.0188867190315376
20
0.34817520426156817
30
0
10
4.2213520343261415
20
0.42204045683582792
30
0
10
4.4234205214038509
20
0.49867054464299188
30
0
10
4.6240249519120233
20
0.56009856242939737
30
0
10
4.8221875214817658
20
0.58828301572293418
30
0
10
5.0173014800563829
20
0.56994680666765296
30
0
10
5.2094279687807123
20
0.50162698111625081
30
0
10
5.3995419874234383
20
0.39394921049350196
30
0
10
5.5891317714209396
20
0.26596712541593936
30
0
10
5.7798494646879437
20
0.1402815864730787
30
0
10
5.9731334406857464
20
0.03775203103451872
30
0
10
6.1698644016494484
20
-0.027331190305963701
30
0
10
6.3699472828621051
20
-0.053050197559261256
30
0
10
6.5725684119613534
20
-0.04682625609579557
30
0
10
6.7765440297879298
20
-0.021188784366868541
30
0
10
6.9806406998203094
20
0.010079678904868754
30
0
10
7.1838948792539723
20
0.035805553335356767
30
0
10
7.3859659944732776
20
0.051671750100528893
30
0
10
7.5869899307764435
20
0.058584896576554107
30
0
10
7.7873840563832548
20
0.06046948461201216
30
0
10
7.9876688506480056
20
0.062257732906429497
30
0
10
8.188286984806405
20
0.067848223544382857
30
0
10
8.389412603406738
20
0.077950366340697977
30
0
10
8.5910109096938889
20
0.090849098068332759
30
0
10
8.7929127850776805
20
0.10334493129177685
30
0
10
8.9948837432795621
20
0.11162855515272838
30
0
10
9.19669444186788
20
0.11217288122261895
30
0
10
9.3981920924420663
20
0.10263909714460648
30
0
10
9.5992861781106669
20
0.081649367080449398
30
0
10
9.759802881054684
20
0.055155682794911641
30
0
10
9.8799823149514889
20
0.029734969576599615
30
0
10
9.9600095095600381
20
0.010322537098978528
30
0
10
10
20
0
30
0
0
SPLINE
5
104
100
AcDbEntity
8
0
100
AcDbSpline
70
4
71
5
72
61
73
55
74
0
42
0.000000001
43
0.0000000001
44
0.0000000001
40
0
40
0
40
0
40
0
40
0
40
0
40
0.02
40
0.040000000000000001
40
0.059999999999999998
40
0.080000000000000002
40
0.10000000000000001
40
0.12000000000000001
40
0.14000000000000001
40
0.16
40
0.17999999999999999
40
0.19999999999999998
40
0.21999999999999997
40
0.23999999999999996
40
0.25999999999999995
40
0.27999999999999997
40
0.29999999999999999
40
0.32000000000000001
40
0.34000000000000002
40
0.36000000000000004
40
0.38000000000000006
40
0.40000000000000008
40
0.4200000000000001
40
0.44000000000000011
40
0.46000000000000013
40
0.48000000000000015
40
0.50000000000000011
40
0.52000000000000013
40
0.54000000000000015
40
0.56000000000000016
40
0.58000000000000018
40
0.6000000000000002
40
0.62000000000000022
40
0.64000000000000024
40
0.66000000000000025
40
0.68000000000000027
40
0.70000000000000029
40
0.72000000000000031
40
0.74000000000000032
40
0.76000000000000034
40
0.78000000000000036
40
0.80000000000000038
40
0.8200000000000004
40
0.84000000000000041
40
0.86000000000000043
40
0.88000000000000045
40
0.90000000000000047
40
0.92000000000000048
40
0.9400000000000005
40
0.96000000000000052
40
0.98000000000000054
40
1
40
1
40
1
40
1
40
1
40
1
41
1
41
1
41
1
41
1
41
1
41
1
41
1
41
1
41
1
41
1
41
1
41
1
41
1
41
1
41
1
41
1
41
1
41
1
41
1
41
1
41
1
41
1
41
1
41
1
41
1
41
1
41
1
41
1
41
1
41
1
41
1
41
1
41
1
41
1
41
1
41
1
41
1
41
1
41
1
41
1
41
1
41
1
41
1
41
1
41
1
41
1
41
1
41
1
41
1
41
1
41
1
41
1
41
1
41
1
41
1
10
0
20
3
30
0
10
0.042423098529626155
20
3.0100572732926745
30
0
10
0.12685673695557936
20
3.0275818869261228
30
0
10
0.25226951036225587
20
3.0460989908387264
30
0
10
0.41700963244588507
20
3.0552388591819084
30
0
10
0.61889623159048524
20
3.0410622638134788
30
0
10
0.81703090995367034
20
3.0023332992409206
30
0
10
1.0119973745716333
20
2.9412240186407961
30
0
10
1.2047859712219102
20
2.8614396516623923
30
0
10
1.3968798674916076
20
2.7685804819560387
30
0
10
1.5899056021580895
20
2.6696130982452333
30
0
10
1.7853092527730987
20
2.5723867821415443
30
0
10
1.9840153552968953
20
2.48514008089658
30
0
10
2.1861087991110959
20
2.4160032408757219
30
0
10
2.390459219184653
20
2.3725286859973771
30
0
10
2.5952134637006634
20
2.3607238520466529
30
0
10
2.7983503447998492
20
2.3840462486525409
30
0
10
2.9982140870828204
20
2.4423985862095683
30
0
10
3.1940527236645639
20
2.5311292715114635
30
0
10
3.3865690468383263
20
2.6399764426938939
30
0
10
3.5774025588657743
20
2.7554313562602673
30
0
10
3.7686075561754686
20
2.8631029391528635
30
0
10
3.9621170676480091
20
2.9501488492794046
30
0
10
4.1592521388511958
20
3.0075176989153745
30
0
10
4.3601079035977595
20
3.0327073143800964
30
0
10
4.5638272733980916
20
3.0288203651150285
30
0
10
4.7690625907812123
20
3.0028212373875345
30
0
10
4.9743799955361645
20
2.9640742952042141
30
0
10
5.1786667555987451
20
2.9227847168863126
30
0
10
5.3815920382808304
20
2.8884526141095024
30
0
10
5.5834169983063022
20
2.86872768761347
30
0
10
5.7847174532966728
20
2.8683456627658659
30
0
10
5.9861355681834532
20
2.8879914954334551
30
0
10
6.1881268976678916
20
2.9232653892609211
30
0
10
6.3906897522988038
20
2.9633677362733075
30
0
10
6.5934996177403002
20
2.9944659444877217
30
0
10
6.7960710821243211
20
3.003361187571485
30
0
10
6.9979095106462665
20
2.9810578182522107
30
0
10
7.1986661409486716
20
2.9263556543956204
30
0
10
7.3982941040197483
20
2.8495270804942856
30
0
10
7.5969694840786772
20
2.7677476006425228
30
0
10
7.7950101756157437
20
2.7004655909528577
30
0
10
7.9927956270456608
20
2.6647703316382505
30
0
10
8.1906874146188393
20
2.6708361040765887
30
0
10
8.3889468990769043
20
2.7171040876872392
30
0
10
8.5877508548972674
20
2.7934752753206684
30
0
10
8.7872102656686231
20
2.8847455317097346
30
0
10
8.9873878582783995
20
2.9739658703432892
30
0
10
9.1883157679959755
20
3.045755236890419
30
0
10
9.3900136673990051
20
3.0898272025610045
30
0
10
9.59249220869469
20
3.1001133096939997
30
0
10
9.7551028424576973
20
3.078922570266982
30
0
10
9.8774141172521848
20
3.0460574600802079
30
0
10
9.95911188591338
20
3.0166088920401375
30
0
10
10
20
3
30
0
0
ENDSEC
0
SECTION
2
OBJECTS
0
DICTIONARY
5
C
100
AcDbDictionary
3
ACAD_GROUP
350
D
3
ACAD_MLINESTYLE
350
17
0
DICTIONARY
5
D
100
AcDbDictionary
0
DICTIONARY
5
1A
330
C
100
AcDbDictionary
0
DICTIONARY
5
17
100
AcDbDictionary
0
ENDSEC
0
EOF
