0
SECTION
2
HEADER
9
$INSUNITS
70
4
9
$ACADVER
1
AC1014
9
$HANDSEED
5
FFFF
0
ENDSEC
0
SECTION
2
TABLES
0
TABLE
2
VPORT
5
8
100
AcDbSymbolTable
0
ENDTAB
0
TABLE
2
LTYPE
5
5
100
AcDbSymbolTable
0
LTYPE
5
14
100
AcDbSymbolTableRecord
100
AcDbLinetypeTableRecord
2
BYBLOCK
70
0
0
LTYPE
5
15
100
AcDbSymbolTableRecord
100
AcDbLinetypeTableRecord
2
BYLAYER
70
0
0
ENDTAB
0
TABLE
2
LAYER
5
2
100
AcDbSymbolTable
70
2
0
LAYER
5
50
100
AcDbSymbolTableRecord
100
AcDbLayerTableRecord
2
0
70
0
6
CONTINUOUS
0
ENDTAB
0
TABLE
2
STYLE
5
3
100
AcDbSymbolTable
70
1
0
STYLE
5
11
100
AcDbSymbolTableRecord
100
AcDbTextStyleTableRecord
2
STANDARD
70
0
0
ENDTAB
0
TABLE
2
VIEW
5
6
100
AcDbSymbolTable
70
0
0
ENDTAB
0
TABLE
2
UCS
5
7
100
AcDbSymbolTable
70
0
0
ENDTAB
0
TABLE
2
APPID
5
9
100
AcDbSymbolTable
70
2
0
APPID
5
12
100
AcDbSymbolTableRecord
100
AcDbRegAppTableRecord
2
ACAD
70
0
0
ENDTAB
0
TABLE
2
DIMSTYLE
5
A
100
AcDbSymbolTable
70
1
0
ENDTAB
0
TABLE
2
BLOCK_RECORD
5
1
100
AcDbSymbolTable
70
1
0
BLOCK_RECORD
5
1F
100
AcDbSymbolTableRecord
100
AcDbBlockTableRecord
2
*MODEL_SPACE
0
BLOCK_RECORD
5
1B
100
AcDbSymbolTableRecord
100
AcDbBlockTableRecord
2
*PAPER_SPACE
0
ENDTAB
0
ENDSEC
0
SECTION
2
BLOCKS
0
BLOCK
5
20
100
AcDbEntity
100
AcDbBlockBegin
2
*MODEL_SPACE
0
ENDBLK
5
21
100
AcDbEntity
100
AcDbBlockEnd
0
BLOCK
5
1C
100
AcDbEntity
100
AcDbBlockBegin
2
*PAPER_SPACE
0
ENDBLK
5
1D
100
AcDbEntity
100
AcDbBlockEnd
0
ENDSEC
0
SECTION
2
ENTITIES
0
SPLINE
5
100
100
AcDbEntity
8
0
100
AcDbSpline
70
4
71
5
72
16
73
10
74
0
42
0.000000001
43
0.0000000001
44
0.0000000001
40
0
40
0
40
0
40
0
40
0
40
0
40
0.20000000000000001
40
0.40000000000000002
40
0.60000000000000009
40
0.80000000000000004
40
1
40
1
40
1
40
1
40
1
40
1
41
1
41
1
41
1
41
1
41
1
41
1
41
1
41
1
41
1
41
1
10
0
20
0
30
0
10
0
20
0.12000000000003158
30
0
10
0
20
0.36000000000007704
30
0
10
0
20
0.72000000000009301
30
0
10
0
20
1.2000000000000313
30
0
10
0
20
1.7999999999999146
30
0
10
0
20
2.2799999999998684
30
0
10
0
20
2.6399999999999042
30
0
10
0
20
2.8799999999999617
30
0
10
0
20
3
30
0
0
SPLINE
5
101
100
AcDbEntity
8
0
100
AcDbSpline
70
4
71
5
72
16
73
10
74
0
42
0.000000001
43
0.0000000001
44
0.0000000001
40
0
40
0
40
0
40
0
40
0
40
0
40
0.20000000000000001
40
0.40000000000000002
40
0.60000000000000009
40
0.80000000000000004
40
1
40
1
40
1
40
1
40
1
40
1
41
1
41
1
41
1
41
1
41
1
41
1
41
1
41
1
41
1
41
1
10
10
20
0
30
0
10
9.9999999999997495
20
0.12000000000003158
30
0
10
9.9999999999993197
20
0.36000000000007704
30
0
10
9.9999999999989129
20
0.72000000000009301
30
0
10
9.9999999999987672
20
1.2000000000000313
30
0
10
9.9999999999990248
20
1.7999999999999146
30
0
10
9.9999999999993889
20
2.2799999999998684
30
0
10
9.9999999999996998
20
2.6399999999999042
30
0
10
9.9999999999999005
20
2.8799999999999617
30
0
10
10
20
3
30
0
0
SPLINE
5
102
100
AcDbEntity
8
0
100
AcDbSpline
70
4
71
5
72
16
73
10
74
0
42
0.000000001
43
0.0000000001
44
0.0000000001
40
0
40
0
40
0
40
0
40
0
40
0
40
0.20000000000000001
40
0.40000000000000002
40
0.60000000000000009
40
0.80000000000000004
40
1
40
1
40
1
40
1
40
1
40
1
41
1
41
1
41
1
41
1
41
1
41
1
41
1
41
1
41
1
41
1
10
0
20
1.5
30
0
10
0.40000000000047375
20
1.499999999999694
30
0
10
1.2000000000012774
20
1.4999999999991638
30
0
10
2.4000000000020547
20
1.4999999999986278
30
0
10
4.0000000000023546
20
1.4999999999983737
30
0
10
6.0000000000019584
20
1.4999999999985913
30
0
10
7.6000000000012928
20
1.4999999999990359
30
0
10
8.800000000000697
20
1.4999999999994786
30
0
10
9.6000000000002395
20
1.4999999999998188
30
0
10
10
20
1.5
30
0
0
SPLINE
5
103
100
AcDbEntity
8
0
100
AcDbSpline
70
4
71
5
72
61
73
55
74
0
42
0.000000001
43
0.0000000001
44
0.0000000001
40
0
40
0
40
0
40
0
40
0
40
0
40
0.02
40
0.040000000000000001
40
0.059999999999999998
40
0.080000000000000002
40
0.10000000000000001
40
0.12000000000000001
40
0.14000000000000001
40
0.16
40
0.17999999999999999
40
0.19999999999999998
40
0.21999999999999997
40
0.23999999999999996
40
0.25999999999999995
40
0.27999999999999997
40
0.29999999999999999
40
0.32000000000000001
40
0.34000000000000002
40
0.36000000000000004
40
0.38000000000000006
40
0.40000000000000008
40
0.4200000000000001
40
0.44000000000000011
40
0.46000000000000013
40
0.48000000000000015
40
0.50000000000000011
40
0.52000000000000013
40
0.54000000000000015
40
0.56000000000000016
40
0.58000000000000018
40
0.6000000000000002
40
0.62000000000000022
40
0.64000000000000024
40
0.66000000000000025
40
0.68000000000000027
40
0.70000000000000029
40
0.72000000000000031
40
0.74000000000000032
40
0.76000000000000034
40
0.78000000000000036
40
0.80000000000000038
40
0.8200000000000004
40
0.84000000000000041
40
0.86000000000000043
40
0.88000000000000045
40
0.90000000000000047
40
0.92000000000000048
40
0.9400000000000005
40
0.96000000000000052
40
0.98000000000000054
40
1
40
1
40
1
40
1
40
1
40
1
41
1
41
1
41
1
41
1
41
1
41
1
41
1
41
1
41
1
41
1
41
1
41
1
41
1
41
1
41
1
41
1
41
1
41
1
41
1
41
1
41
1
41
1
41
1
41
1
41
1
41
1
41
1
41
1
41
1
41
1
41
1
41
1
41
1
41
1
41
1
41
1
41
1
41
1
41
1
41
1
41
1
41
1
41
1
41
1
41
1
41
1
41
1
41
1
41
1
41
1
41
1
41
1
41
1
41
1
41
1
10
0
20
0
30
0
10
0.039636387572665382
20
8.6155603597394632e-05
30
0
10
0.11900087222047395
20
0.0021858556929265703
30
0
10
0.23832272803727633
20
0.011117586575583285
30
0
10
0.39796914911990228
20
0.034598338104188317
30
0
10
0.5984210210140708
20
0.082406804475110854
30
0
10
0.7996915003511571
20
0.14610679370225915
30
0
10
1.0016273366253139
20
0.22050805874394969
30
0
10
1.2039701142695651
20
0.29688865103258855
30
0
10
1.4063298481288298
20
0.36211977025238351
30
0
10
1.6082696760292501
20
0.40217345139289651
30
0
10
1.8093901441109654
20
0.40562310451458994
30
0
10
2.009412639818537
20
0.36709689196259132
30
0
10
2.208265900403946
20
0.29089265476470016
30
0
10
2.4061649013343924
20
0.19419193012063946
30
0
10
2.6035039653476217
20
0.10056362793686885
30
0
10
2.8007575934331506
20
0.033867119627254041
30
0
10
2.9983785571279062
20
0.011998115478982151
30
0
10
3.1966975124263666
20
0.040717999585078497
30
0
10
3.3958207909553173
20
0.10733872831744361
30
0
10
3.5956903680866548
20
0.18830346294946246
30
0
10
3.7961444067668793
20
0.25681884531920085
30
0
10
3.9969773901322925
20
0.29048060298139294
30
0
10
4.1979999215470833
20
0.27884615498612547
30
0
10
4.3990995231937715
20
0.23122813905680334
30
0
10
4.6002221626858137
20
0.16890630164106996
30
0
10
4.8013527877007656
20
0.11713775702714332
30
0
10
5.0024963751072695
20
0.097283721370483828
30
0
10
5.2036587622562465
20
0.11882477312205027
30
0
10
5.4048277872716994
20
0.171555982674714
30
0
10
5.6059753026705206
20
0.23374593003360367
30
0
10
5.8070589231100751
20
0.28013903532420853
30
0
10
6.0080238649460371
20
0.28992033753342006
30
0
10
6.2088046370219399
20
0.25488700130889697
30
0
10
6.4093269780958098
20
0.18704274743012345
30
0
10
6.6095163443639349
20
0.11009170917816
30
0
10
6.8093061989682937
20
0.051467800644241994
30
0
10
7.008646362268701
20
0.034260204661974547
30
0
10
7.2075114721258871
20
0.068990193825955018
30
0
10
7.405909228757368
20
0.14594864394625584
30
0
10
7.6038816676268608
20
0.24287879023203782
30
0
10
7.8015067608657764
20
0.33205881442652818
30
0
10
7.9989000196486568
20
0.38759809641339038
30
0
10
8.1962161700433569
20
0.39262223175949917
30
0
10
8.3936510192625633
20
0.34657927280821532
30
0
10
8.5914220732279176
20
0.2607120547036203
30
0
10
8.7897491824913985
20
0.15351987401679859
30
0
10
8.9888349936669503
20
0.046211064562925785
30
0
10
9.1888458899831775
20
-0.041744763322774041
30
0
10
9.389891389597766
20
-0.097335404028982761
30
0
10
9.5920350802929271
20
-0.11287603294584404
30
0
10
9.754652712412339
20
-0.090238749673101776
30
0
10
9.8771275309430369
20
-0.052995464926689419
30
0
10
9.9590046388898035
20
-0.019165352340257479
30
0
10
10
20
0
30
0
0
SPLINE
5
104
100
AcDbEntity
8
0
100
AcDbSpline
70
4
71
5
72
61
73
55
74
0
42
0.000000001
43
0.0000000001
44
0.0000000001
40
0
40
0
40
0
40
0
40
0
40
0
40
0.02
40
0.040000000000000001
40
0.059999999999999998
40
0.080000000000000002
40
0.10000000000000001
40
0.12000000000000001
40
0.14000000000000001
40
0.16
40
0.17999999999999999
40
0.19999999999999998
40
0.21999999999999997
40
0.23999999999999996
40
0.25999999999999995
40
0.27999999999999997
40
0.29999999999999999
40
0.32000000000000001
40
0.34000000000000002
40
0.36000000000000004
40
0.38000000000000006
40
0.40000000000000008
40
0.4200000000000001
40
0.44000000000000011
40
0.46000000000000013
40
0.48000000000000015
40
0.50000000000000011
40
0.52000000000000013
40
0.54000000000000015
40
0.56000000000000016
40
0.58000000000000018
40
0.6000000000000002
40
0.62000000000000022
40
0.64000000000000024
40
0.66000000000000025
40
0.68000000000000027
40
0.70000000000000029
40
0.72000000000000031
40
0.74000000000000032
40
0.76000000000000034
40
0.78000000000000036
40
0.80000000000000038
40
0.8200000000000004
40
0.84000000000000041
40
0.86000000000000043
40
0.88000000000000045
40
0.90000000000000047
40
0.92000000000000048
40
0.9400000000000005
40
0.96000000000000052
40
0.98000000000000054
40
1
40
1
40
1
40
1
40
1
40
1
41
1
41
1
41
1
41
1
41
1
41
1
41
1
41
1
41
1
41
1
41
1
41
1
41
1
41
1
41
1
41
1
41
1
41
1
41
1
41
1
41
1
41
1
41
1
41
1
41
1
41
1
41
1
41
1
41
1
41
1
41
1
41
1
41
1
41
1
41
1
41
1
41
1
41
1
41
1
41
1
41
1
41
1
41
1
41
1
41
1
41
1
41
1
41
1
41
1
41
1
41
1
41
1
41
1
41
1
41
1
10
0
20
3
30
0
10
0.039937029622936007
20
2.9827558284316895
30
0
10
0.11980120035880393
20
2.9504158932641871
30
0
10
0.23956779109920012
20
2.9083512087902874
30
0
10
0.39919720789255736
20
2.8651638462664266
30
0
10
0.59864181386566984
20
2.8323884954666276
30
0
10
0.79801498930155934
20
2.8198699820689703
30
0
10
0.99735858462777593
20
2.8256370206900856
30
0
10
1.1967426029450219
20
2.8463457180443035
30
0
10
1.3962727521343514
20
2.8769083486123526
30
0
10
1.5960602662937753
20
2.9113567855928295
30
0
10
1.7961913685491999
20
2.9437172649639889
30
0
10
1.9966966421255041
20
2.9688834259320513
30
0
10
2.1975207002903789
20
2.9834842886181385
30
0
10
2.3984904090076231
20
2.9867792550025873
30
0
10
2.5993743828000948
20
2.9798373943211178
30
0
10
2.799943711227344
20
2.96469502884886
30
0
10
3.0000322084922333
20
2.9435246230438206
30
0
10
3.199596964977637
20
2.9178006265425487
30
0
10
3.3987791558698244
20
2.887464475724919
30
0
10
3.5978242862386232
20
2.8518278611256682
30
0
10
3.7970027479911703
20
2.8104731473181319
30
0
10
3.9965300484442183
20
2.7641604113217557
30
0
10
4.1964878802068259
20
2.7157220008285754
30
0
10
4.3967423489462751
20
2.6710014563392219
30
0
10
4.5970326176812195
20
2.6371455622898221
30
0
10
4.7970617377435874
20
2.6208623574642727
30
0
10
4.9965869012354185
20
2.6266827583612691
30
0
10
5.1955091172182346
20
2.655235770181239
30
0
10
5.3939659369463024
20
2.7014527975873697
30
0
10
5.5922440971697531
20
2.7567746604172387
30
0
10
5.7906899405180354
20
2.8114054081698008
30
0
10
5.9896199588789569
20
2.8565679817752025
30
0
10
6.1892334068876647
20
2.8867040512315523
30
0
10
6.3895179755446332
20
2.9018568855169651
30
0
10
6.5903129997150378
20
2.9059259963368755
30
0
10
6.7913799267454946
20
2.9047324312292155
30
0
10
6.992470330806384
20
2.9041460297766708
30
0
10
7.193393801927968
20
2.9082202534839228
30
0
10
7.3940889057704728
20
2.9172334085115939
30
0
10
7.5945879043672591
20
2.9288943951408286
30
0
10
7.7949778534958325
20
2.9396558497073446
30
0
10
7.9953630670224571
20
2.9459889651242435
30
0
10
8.1958274186930637
20
2.9456608200385914
30
0
10
8.3963957762787587
20
2.9390480743044685
30
0
10
8.5970489591678483
20
2.9284114120410103
30
0
10
8.7977397924299048
20
2.9171291854509414
30
0
10
8.9984086844879201
20
2.9089488734755244
30
0
10
9.1989993147545182
20
2.9072348564923347
30
0
10
9.3994743886657997
20
2.9142112966229332
30
0
10
9.5998118226494142
20
2.9311925649346406
30
0
10
9.7599630069064212
20
2.9532941185312911
30
0
10
9.8800080607518623
20
2.974750447170921
30
0
10
9.9600077454451181
20
2.9912222231964702
30
0
10
10
20
3
30
0
0
ENDSEC
0
SECTION
2
OBJECTS
0
DICTIONARY
5
C
100
AcDbDictionary
3
ACAD_GROUP
350
D
3
ACAD_MLINESTYLE
350
17
0
DICTIONARY
5
D
100
AcDbDictionary
0
DICTIONARY
5
1A
330
C
100
AcDbDictionary
0
DICTIONARY
5
17
100
AcDbDictionary
0
ENDSEC
0
EOF
