0
SECTION
2
HEADER
9
$INSUNITS
70
4
9
$ACADVER
1
AC1014
9
$HANDSEED
5
FFFF
0
ENDSEC
0
SECTION
2
TABLES
0
TABLE
2
VPORT
5
8
100
AcDbSymbolTable
0
ENDTAB
0
TABLE
2
LTYPE
5
5
100
AcDbSymbolTable
0
LTYPE
5
14
100
AcDbSymbolTableRecord
100
AcDbLinetypeTableRecord
2
BYBLOCK
70
0
0
LTYPE
5
15
100
AcDbSymbolTableRecord
100
AcDbLinetypeTableRecord
2
BYLAYER
70
0
0
ENDTAB
0
TABLE
2
LAYER
5
2
100
AcDbSymbolTable
70
2
0
LAYER
5
50
100
AcDbSymbolTableRecord
100
AcDbLayerTableRecord
2
0
70
0
6
CONTINUOUS
0
ENDTAB
0
TABLE
2
STYLE
5
3
100
AcDbSymbolTable
70
1
0
STYLE
5
11
100
AcDbSymbolTableRecord
100
AcDbTextStyleTableRecord
2
STANDARD
70
0
0
ENDTAB
0
TABLE
2
VIEW
5
6
100
AcDbSymbolTable
70
0
0
ENDTAB
0
TABLE
2
UCS
5
7
100
AcDbSymbolTable
70
0
0
ENDTAB
0
TABLE
2
APPID
5
9
100
AcDbSymbolTable
70
2
0
APPID
5
12
100
AcDbSymbolTableRecord
100
AcDbRegAppTableRecord
2
ACAD
70
0
0
ENDTAB
0
TABLE
2
DIMSTYLE
5
A
100
AcDbSymbolTable
70
1
0
ENDTAB
0
TABLE
2
BLOCK_RECORD
5
1
100
AcDbSymbolTable
70
1
0
BLOCK_RECORD
5
1F
100
AcDbSymbolTableRecord
100
AcDbBlockTableRecord
2
*MODEL_SPACE
0
BLOCK_RECORD
5
1B
100
AcDbSymbolTableRecord
100
AcDbBlockTableRecord
2
*PAPER_SPACE
0
ENDTAB
0
ENDSEC
0
SECTION
2
BLOCKS
0
BLOCK
5
20
100
AcDbEntity
100
AcDbBlockBegin
2
*MODEL_SPACE
0
ENDBLK
5
21
100
AcDbEntity
100
AcDbBlockEnd
0
BLOCK
5
1C
100
AcDbEntity
100
AcDbBlockBegin
2
*PAPER_SPACE
0
ENDBLK
5
1D
100
AcDbEntity
100
AcDbBlockEnd
0
ENDSEC
0
SECTION
2
ENTITIES
0
SPLINE
5
100
100
AcDbEntity
8
0
100
AcDbSpline
70
4
71
5
72
16
73
10
74
0
42
0.000000001
43
0.0000000001
44
0.0000000001
40
0
40
0
40
0
40
0
40
0
40
0
40
0.20000000000000001
40
0.40000000000000002
40
0.60000000000000009
40
0.80000000000000004
40
1
40
1
40
1
40
1
40
1
40
1
41
1
41
1
41
1
41
1
41
1
41
1
41
1
41
1
41
1
41
1
10
0
20
0
30
0
10
0
20
0.12000000000003158
30
0
10
0
20
0.36000000000007704
30
0
10
0
20
0.72000000000009301
30
0
10
0
20
1.2000000000000313
30
0
10
0
20
1.7999999999999146
30
0
10
0
20
2.2799999999998684
30
0
10
0
20
2.6399999999999042
30
0
10
0
20
2.8799999999999617
30
0
10
0
20
3
30
0
0
SPLINE
5
101
100
AcDbEntity
8
0
100
AcDbSpline
70
4
71
5
72
16
73
10
74
0
42
0.000000001
43
0.0000000001
44
0.0000000001
40
0
40
0
40
0
40
0
40
0
40
0
40
0.20000000000000001
40
0.40000000000000002
40
0.60000000000000009
40
0.80000000000000004
40
1
40
1
40
1
40
1
40
1
40
1
41
1
41
1
41
1
41
1
41
1
41
1
41
1
41
1
41
1
41
1
10
10
20
0
30
0
10
9.9999999999997495
20
0.12000000000003158
30
0
10
9.9999999999993197
20
0.36000000000007704
30
0
10
9.9999999999989129
20
0.72000000000009301
30
0
10
9.9999999999987672
20
1.2000000000000313
30
0
10
9.9999999999990248
20
1.7999999999999146
30
0
10
9.9999999999993889
20
2.2799999999998684
30
0
10
9.9999999999996998
20
2.6399999999999042
30
0
10
9.9999999999999005
20
2.8799999999999617
30
0
10
10
20
3
30
0
0
SPLINE
5
102
100
AcDbEntity
8
0
100
AcDbSpline
70
4
71
5
72
16
73
10
74
0
42
0.000000001
43
0.0000000001
44
0.0000000001
40
0
40
0
40
0
40
0
40
0
40
0
40
0.20000000000000001
40
0.40000000000000002
40
0.60000000000000009
40
0.80000000000000004
40
1
40
1
40
1
40
1
40
1
40
1
41
1
41
1
41
1
41
1
41
1
41
1
41
1
41
1
41
1
41
1
10
0
20
1.5
30
0
10
0.40000000000047375
20
1.499999999999694
30
0
10
1.2000000000012774
20
1.4999999999991638
30
0
10
2.4000000000020547
20
1.4999999999986278
30
0
10
4.0000000000023546
20
1.4999999999983737
30
0
10
6.0000000000019584
20
1.4999999999985913
30
0
10
7.6000000000012928
20
1.4999999999990359
30
0
10
8.800000000000697
20
1.4999999999994786
30
0
10
9.6000000000002395
20
1.4999999999998188
30
0
10
10
20
1.5
30
0
0
SPLINE
5
103
100
AcDbEntity
8
0
100
AcDbSpline
70
4
71
5
72
61
73
55
74
0
42
0.000000001
43
0.0000000001
44
0.0000000001
40
0
40
0
40
0
40
0
40
0
40
0
40
0.02
40
0.040000000000000001
40
0.059999999999999998
40
0.080000000000000002
40
0.10000000000000001
40
0.12000000000000001
40
0.14000000000000001
40
0.16
40
0.17999999999999999
40
0.19999999999999998
40
0.21999999999999997
40
0.23999999999999996
40
0.25999999999999995
40
0.27999999999999997
40
0.29999999999999999
40
0.32000000000000001
40
0.34000000000000002
40
0.36000000000000004
40
0.38000000000000006
40
0.40000000000000008
40
0.4200000000000001
40
0.44000000000000011
40
0.46000000000000013
40
0.48000000000000015
40
0.50000000000000011
40
0.52000000000000013
40
0.54000000000000015
40
0.56000000000000016
40
0.58000000000000018
40
0.6000000000000002
40
0.62000000000000022
40
0.64000000000000024
40
0.66000000000000025
40
0.68000000000000027
40
0.70000000000000029
40
0.72000000000000031
40
0.74000000000000032
40
0.76000000000000034
40
0.78000000000000036
40
0.80000000000000038
40
0.8200000000000004
40
0.84000000000000041
40
0.86000000000000043
40
0.88000000000000045
40
0.90000000000000047
40
0.92000000000000048
40
0.9400000000000005
40
0.96000000000000052
40
0.98000000000000054
40
1
40
1
40
1
40
1
40
1
40
1
41
1
41
1
41
1
41
1
41
1
41
1
41
1
41
1
41
1
41
1
41
1
41
1
41
1
41
1
41
1
41
1
41
1
41
1
41
1
41
1
41
1
41
1
41
1
41
1
41
1
41
1
41
1
41
1
41
1
41
1
41
1
41
1
41
1
41
1
41
1
41
1
41
1
41
1
41
1
41
1
41
1
41
1
41
1
41
1
41
1
41
1
41
1
41
1
41
1
41
1
41
1
41
1
41
1
41
1
41
1
10
0
20
0
30
0
10
0.040303570316440662
20
0.012084396329963954
30
0
10
0.12093800369745047
20
0.034326217017086172
30
0
10
0.2419715327582804
20
0.061907980009306973
30
0
10
0.40351342974388132
20
0.087114645560812026
30
0
10
0.60570540377103343
20
0.099872229739597487
30
0
10
0.80813528742648955
20
0.095557160739468794
30
0
10
1.0107490435141735
20
0.077571313092362551
30
0
10
1.2134553004849293
20
0.051675749124908625
30
0
10
1.4161174095493665
20
0.026482583848414662
30
0
10
1.6185847067031809
20
0.011228510693778048
30
0
10
1.820722508305836
20
0.013629923002656289
30
0
10
2.0224415627523533
20
0.037788180993122429
30
0
10
2.2237302715957794
20
0.081870778752910503
30
0
10
2.4246789205260981
20
0.13643303855240763
30
0
10
2.6254338814194975
20
0.18833440625759232
30
0
10
2.8261572821717658
20
0.22422108580302633
30
0
10
3.0269863372663246
20
0.23403566634507517
30
0
10
3.2279888896028308
20
0.21483818712574904
30
0
10
3.4291317783734221
20
0.17358745366046402
30
0
10
3.6303389827888788
20
0.12253945994895377
30
0
10
3.8315420414875305
20
0.075337109892985435
30
0
10
4.0327298534498865
20
0.043028488386063567
30
0
10
4.2340072082838311
20
0.029673087700613322
30
0
10
4.435625197137866
20
0.029406348995850116
30
0
10
4.6378581011963655
20
0.03168833201083765
30
0
10
4.8408949209483243
20
0.025692990998834441
30
0
10
5.0447336874895505
20
0.0047071687079098838
30
0
10
5.2490538724396929
20
-0.028716881964930902
30
0
10
5.4531593836623049
20
-0.060202795413545333
30
0
10
5.656187694577457
20
-0.070789804883130678
30
0
10
5.8572824413969107
20
-0.042877434250778855
30
0
10
6.0557692982626623
20
0.033827610916924489
30
0
10
6.2513567861937593
20
0.15515320573238758
30
0
10
6.4442444832922092
20
0.29960813681733528
30
0
10
6.6349705198812128
20
0.43750526776290311
30
0
10
6.8243081924477345
20
0.5378933812658504
30
0
10
7.0131446246573148
20
0.57622334580914947
30
0
10
7.2023658537380388
20
0.54200573774215755
30
0
10
7.3927440830476696
20
0.44567100089913869
30
0
10
7.5849064870577436
20
0.31080643224414983
30
0
10
7.7792992296725272
20
0.16736815102271238
30
0
10
7.9761511521221191
20
0.044405249843653925
30
0
10
8.1754408117803088
20
-0.036680866156923321
30
0
10
8.376851112766726
20
-0.069985394148681324
30
0
10
8.5798553136070055
20
-0.061783116513693247
30
0
10
8.7838183877765932
20
-0.025895662729612884
30
0
10
8.9880934308688296
20
0.02048641548280156
30
0
10
9.1921179358507317
20
0.061077268053981858
30
0
10
9.3955158808128072
20
0.084949383977476506
30
0
10
9.5980645683210017
20
0.085640800212544457
30
0
10
9.7593359857513526
20
0.065086739166771768
30
0
10
9.8798419517808966
20
0.037337110345208438
30
0
10
9.9599804520265103
20
0.013358786130483205
30
0
10
10
20
0
30
0
0
SPLINE
5
104
100
AcDbEntity
8
0
100
AcDbSpline
70
4
71
5
72
61
73
55
74
0
42
0.000000001
43
0.0000000001
44
0.0000000001
40
0
40
0
40
0
40
0
40
0
40
0
40
0.02
40
0.040000000000000001
40
0.059999999999999998
40
0.080000000000000002
40
0.10000000000000001
40
0.12000000000000001
40
0.14000000000000001
40
0.16
40
0.17999999999999999
40
0.19999999999999998
40
0.21999999999999997
40
0.23999999999999996
40
0.25999999999999995
40
0.27999999999999997
40
0.29999999999999999
40
0.32000000000000001
40
0.34000000000000002
40
0.36000000000000004
40
0.38000000000000006
40
0.40000000000000008
40
0.4200000000000001
40
0.44000000000000011
40
0.46000000000000013
40
0.48000000000000015
40
0.50000000000000011
40
0.52000000000000013
40
0.54000000000000015
40
0.56000000000000016
40
0.58000000000000018
40
0.6000000000000002
40
0.62000000000000022
40
0.64000000000000024
40
0.66000000000000025
40
0.68000000000000027
40
0.70000000000000029
40
0.72000000000000031
40
0.74000000000000032
40
0.76000000000000034
40
0.78000000000000036
40
0.80000000000000038
40
0.8200000000000004
40
0.84000000000000041
40
0.86000000000000043
40
0.88000000000000045
40
0.90000000000000047
40
0.92000000000000048
40
0.9400000000000005
40
0.96000000000000052
40
0.98000000000000054
40
1
40
1
40
1
40
1
40
1
40
1
41
1
41
1
41
1
41
1
41
1
41
1
41
1
41
1
41
1
41
1
41
1
41
1
41
1
41
1
41
1
41
1
41
1
41
1
41
1
41
1
41
1
41
1
41
1
41
1
41
1
41
1
41
1
41
1
41
1
41
1
41
1
41
1
41
1
41
1
41
1
41
1
41
1
41
1
41
1
41
1
41
1
41
1
41
1
41
1
41
1
41
1
41
1
41
1
41
1
41
1
41
1
41
1
41
1
41
1
41
1
10
0
20
3
30
0
10
0.042200760798015706
20
3.0228600831436814
30
0
10
0.12632863038321651
20
3.0636268675001044
30
0
10
0.25169947212972488
20
3.1099167029498065
30
0
10
0.41721765668489286
20
3.1418981289440016
30
0
10
0.62141754126873006
20
3.1334360550705194
30
0
10
0.82305263830670627
20
3.0801388976958055
30
0
10
1.0223955742277016
20
2.9893127922208613
30
0
10
1.2199127668524836
20
2.8734049022487991
30
0
10
1.416299602271021
20
2.7508780983564893
30
0
10
1.612347628568096
20
2.6421300470760993
30
0
10
1.8088261483477202
20
2.5658321229693848
30
0
10
2.0063594532091553
20
2.5351432156718294
30
0
10
2.205303049275058
20
2.5538768037176918
30
0
10
2.405626769452565
20
2.612906558889676
30
0
10
2.607057227741258
20
2.6953916736327348
30
0
10
2.8092130505306523
20
2.7817596329397465
30
0
10
3.011740276198942
20
2.8546939983011059
30
0
10
3.214452540083061
20
2.9042939652370645
30
0
10
3.4174557442316678
20
2.9326936023702128
30
0
10
3.6209950170389842
20
2.9489175675710837
30
0
10
3.8253123314176523
20
2.9641281882790596
30
0
10
4.0305067716864365
20
2.9869421257292954
30
0
10
4.2363780332970338
20
3.018230966747149
30
0
10
4.4423214600770526
20
3.0475445963166541
30
0
10
4.6475392453269944
20
3.059431884221917
30
0
10
4.8512204592921782
20
3.0388255027519717
30
0
10
5.0527222552604423
20
2.9763727593475497
30
0
10
5.2517761568444659
20
2.8747745291162605
30
0
10
5.4486049641436338
20
2.7516590967464314
30
0
10
5.6437629245900522
20
2.6319000658519318
30
0
10
5.838024993819606
20
2.5416975965166717
30
0
10
6.0322588798846946
20
2.5022228774042725
30
0
10
6.227301456846015
20
2.5228490898274676
30
0
10
6.4238434812141998
20
2.5962905116928163
30
0
10
6.6223824741300525
20
2.7047532259348595
30
0
10
6.8231641436106596
20
2.824728185970085
30
0
10
7.0261318522185414
20
2.9321816865857113
30
0
10
7.2308618326099836
20
3.0078257697336963
30
0
10
7.4365324371582222
20
3.0416158832840807
30
0
10
7.6421285741267999
20
3.0308874258121694
30
0
10
7.8466271545844366
20
2.979164215450683
30
0
10
8.0491791718147745
20
2.8947306241848523
30
0
10
8.2493182452340221
20
2.7893109138514207
30
0
10
8.4470819726693058
20
2.6767432354583427
30
0
10
8.6428377932839275
20
2.5718118437733932
30
0
10
8.8371572589056058
20
2.4890313420325363
30
0
10
9.0306755553448568
20
2.441490105365256
30
0
10
9.2239492358744037
20
2.4395712680202615
30
0
10
9.417339644649811
20
2.4899970744362481
30
0
10
9.6110653839346938
20
2.5967320047827345
30
0
10
9.7664001490095114
20
2.7286723317379682
30
0
10
9.8831164489455947
20
2.8540627271165602
30
0
10
9.9610228868991424
20
2.9493973889219216
30
0
10
10
20
3
30
0
0
ENDSEC
0
SECTION
2
OBJECTS
0
DICTIONARY
5
C
100
AcDbDictionary
3
ACAD_GROUP
350
D
3
ACAD_MLINESTYLE
350
17
0
DICTIONARY
5
D
100
AcDbDictionary
0
DICTIONARY
5
1A
330
C
100
AcDbDictionary
0
DICTIONARY
5
17
100
AcDbDictionary
0
ENDSEC
0
EOF
