0
SECTION
2
HEADER
9
$INSUNITS
70
4
9
$ACADVER
1
AC1014
9
$HANDSEED
5
FFFF
0
ENDSEC
0
SECTION
2
TABLES
0
TABLE
2
VPORT
5
8
100
AcDbSymbolTable
0
ENDTAB
0
TABLE
2
LTYPE
5
5
100
AcDbSymbolTable
0
LTYPE
5
14
100
AcDbSymbolTableRecord
100
AcDbLinetypeTableRecord
2
BYBLOCK
70
0
0
LTYPE
5
15
100
AcDbSymbolTableRecord
100
AcDbLinetypeTableRecord
2
BYLAYER
70
0
0
ENDTAB
0
TABLE
2
LAYER
5
2
100
AcDbSymbolTable
70
2
0
LAYER
5
50
100
AcDbSymbolTableRecord
100
AcDbLayerTableRecord
2
0
70
0
6
CONTINUOUS
0
ENDTAB
0
TABLE
2
STYLE
5
3
100
AcDbSymbolTable
70
1
0
STYLE
5
11
100
AcDbSymbolTableRecord
100
AcDbTextStyleTableRecord
2
STANDARD
70
0
0
ENDTAB
0
TABLE
2
VIEW
5
6
100
AcDbSymbolTable
70
0
0
ENDTAB
0
TABLE
2
UCS
5
7
100
AcDbSymbolTable
70
0
0
ENDTAB
0
TABLE
2
APPID
5
9
100
AcDbSymbolTable
70
2
0
APPID
5
12
100
AcDbSymbolTableRecord
100
AcDbRegAppTableRecord
2
ACAD
70
0
0
ENDTAB
0
TABLE
2
DIMSTYLE
5
A
100
AcDbSymbolTable
70
1
0
ENDTAB
0
TABLE
2
BLOCK_RECORD
5
1
100
AcDbSymbolTable
70
1
0
BLOCK_RECORD
5
1F
100
AcDbSymbolTableRecord
100
AcDbBlockTableRecord
2
*MODEL_SPACE
0
BLOCK_RECORD
5
1B
100
AcDbSymbolTableRecord
100
AcDbBlockTableRecord
2
*PAPER_SPACE
0
ENDTAB
0
ENDSEC
0
SECTION
2
BLOCKS
0
BLOCK
5
20
100
AcDbEntity
100
AcDbBlockBegin
2
*MODEL_SPACE
0
ENDBLK
5
21
100
AcDbEntity
100
AcDbBlockEnd
0
BLOCK
5
1C
100
AcDbEntity
100
AcDbBlockBegin
2
*PAPER_SPACE
0
ENDBLK
5
1D
100
AcDbEntity
100
AcDbBlockEnd
0
ENDSEC
0
SECTION
2
ENTITIES
0
SPLINE
5
100
100
AcDbEntity
8
0
100
AcDbSpline
70
4
71
5
72
16
73
10
74
0
42
0.000000001
43
0.0000000001
44
0.0000000001
40
0
40
0
40
0
40
0
40
0
40
0
40
0.20000000000000001
40
0.40000000000000002
40
0.60000000000000009
40
0.80000000000000004
40
1
40
1
40
1
40
1
40
1
40
1
41
1
41
1
41
1
41
1
41
1
41
1
41
1
41
1
41
1
41
1
10
0
20
0
30
0
10
0
20
0.12000000000003158
30
0
10
0
20
0.36000000000007704
30
0
10
0
20
0.72000000000009301
30
0
10
0
20
1.2000000000000313
30
0
10
0
20
1.7999999999999146
30
0
10
0
20
2.2799999999998684
30
0
10
0
20
2.6399999999999042
30
0
10
0
20
2.8799999999999617
30
0
10
0
20
3
30
0
0
SPLINE
5
101
100
AcDbEntity
8
0
100
AcDbSpline
70
4
71
5
72
16
73
10
74
0
42
0.000000001
43
0.0000000001
44
0.0000000001
40
0
40
0
40
0
40
0
40
0
40
0
40
0.20000000000000001
40
0.40000000000000002
40
0.60000000000000009
40
0.80000000000000004
40
1
40
1
40
1
40
1
40
1
40
1
41
1
41
1
41
1
41
1
41
1
41
1
41
1
41
1
41
1
41
1
10
10
20
0
30
0
10
9.9999999999997495
20
0.12000000000003158
30
0
10
9.9999999999993197
20
0.36000000000007704
30
0
10
9.9999999999989129
20
0.72000000000009301
30
0
10
9.9999999999987672
20
1.2000000000000313
30
0
10
9.9999999999990248
20
1.7999999999999146
30
0
10
9.9999999999993889
20
2.2799999999998684
30
0
10
9.9999999999996998
20
2.6399999999999042
30
0
10
9.9999999999999005
20
2.8799999999999617
30
0
10
10
20
3
30
0
0
SPLINE
5
102
100
AcDbEntity
8
0
100
AcDbSpline
70
4
71
5
72
16
73
10
74
0
42
0.000000001
43
0.0000000001
44
0.0000000001
40
0
40
0
40
0
40
0
40
0
40
0
40
0.20000000000000001
40
0.40000000000000002
40
0.60000000000000009
40
0.80000000000000004
40
1
40
1
40
1
40
1
40
1
40
1
41
1
41
1
41
1
41
1
41
1
41
1
41
1
41
1
41
1
41
1
10
0
20
1.5
30
0
10
0.40000000000047375
20
1.499999999999694
30
0
10
1.2000000000012774
20
1.4999999999991638
30
0
10
2.4000000000020547
20
1.4999999999986278
30
0
10
4.0000000000023546
20
1.4999999999983737
30
0
10
6.0000000000019584
20
1.4999999999985913
30
0
10
7.6000000000012928
20
1.4999999999990359
30
0
10
8.800000000000697
20
1.4999999999994786
30
0
10
9.6000000000002395
20
1.4999999999998188
30
0
10
10
20
1.5
30
0
0
SPLINE
5
103
100
AcDbEntity
8
0
100
AcDbSpline
70
4
71
5
72
61
73
55
74
0
42
0.000000001
43
0.0000000001
44
0.0000000001
40
0
40
0
40
0
40
0
40
0
40
0
40
0.02
40
0.040000000000000001
40
0.059999999999999998
40
0.080000000000000002
40
0.10000000000000001
40
0.12000000000000001
40
0.14000000000000001
40
0.16
40
0.17999999999999999
40
0.19999999999999998
40
0.21999999999999997
40
0.23999999999999996
40
0.25999999999999995
40
0.27999999999999997
40
0.29999999999999999
40
0.32000000000000001
40
0.34000000000000002
40
0.36000000000000004
40
0.38000000000000006
40
0.40000000000000008
40
0.4200000000000001
40
0.44000000000000011
40
0.46000000000000013
40
0.48000000000000015
40
0.50000000000000011
40
0.52000000000000013
40
0.54000000000000015
40
0.56000000000000016
40
0.58000000000000018
40
0.6000000000000002
40
0.62000000000000022
40
0.64000000000000024
40
0.66000000000000025
40
0.68000000000000027
40
0.70000000000000029
40
0.72000000000000031
40
0.74000000000000032
40
0.76000000000000034
40
0.78000000000000036
40
0.80000000000000038
40
0.8200000000000004
40
0.84000000000000041
40
0.86000000000000043
40
0.88000000000000045
40
0.90000000000000047
40
0.92000000000000048
40
0.9400000000000005
40
0.96000000000000052
40
0.98000000000000054
40
1
40
1
40
1
40
1
40
1
40
1
41
1
41
1
41
1
41
1
41
1
41
1
41
1
41
1
41
1
41
1
41
1
41
1
41
1
41
1
41
1
41
1
41
1
41
1
41
1
41
1
41
1
41
1
41
1
41
1
41
1
41
1
41
1
41
1
41
1
41
1
41
1
41
1
41
1
41
1
41
1
41
1
41
1
41
1
41
1
41
1
41
1
41
1
41
1
41
1
41
1
41
1
41
1
41
1
41
1
41
1
41
1
41
1
41
1
41
1
41
1
10
0
20
0
30
0
10
0.040284742016357913
20
-0.0024371551852498054
30
0
10
0.12084966809726055
20
-0.0061893985711953745
30
0
10
0.24168338354075969
20
-0.0084515481028100657
30
0
10
0.40276763743881894
20
-0.0047310557786907808
30
0
10
0.60407498295541839
20
0.010841524033871373
30
0
10
0.80532742050344774
20
0.03637141667849586
30
0
10
1.0065112501237941
20
0.069898262996814009
30
0
10
1.2076036218021666
20
0.10811144970787018
30
0
10
1.4085706293223235
20
0.14603445256834191
30
0
10
1.6093807538244254
20
0.17804617968948117
30
0
10
1.8100180411724027
20
0.19886918306284782
30
0
10
2.0104951061050458
20
0.20455953045920738
30
0
10
2.2108669976510682
20
0.19352472628689116
30
0
10
2.4112428015452174
20
0.1674633505294103
30
0
10
2.6117513778312826
20
0.13058743727293809
30
0
10
2.8125088327592533
20
0.08893014441959074
30
0
10
3.013586004370767
20
0.049620204491400727
30
0
10
3.2149742624761779
20
0.020190030888137828
30
0
10
3.4165562838249479
20
0.0078277549013423316
30
0
10
3.6181539461787811
20
0.017984636162450614
30
0
10
3.8195723190298252
20
0.052975302309051508
30
0
10
4.0206438403759313
20
0.11065053295013243
30
0
10
4.2212752719128401
20
0.18284667163192442
30
0
10
4.4214855454772701
20
0.25443304564814534
30
0
10
4.6213541476807229
20
0.30802628069882809
30
0
10
4.8209762736119819
20
0.32830764130293733
30
0
10
5.0204169552424922
20
0.30634952529046011
30
0
10
5.2196621582741995
20
0.24429048953057581
30
0
10
5.418580881659639
20
0.15891687868711529
30
0
10
5.61699736436384
20
0.074411432892360269
30
0
10
5.8147546793838458
20
0.015959663141043193
30
0
10
6.0117805146060679
20
0.0031351862971926727
30
0
10
6.2081548212348139
20
0.043138844780412182
30
0
10
6.4041696816555804
20
0.12472116627208275
30
0
10
6.600235942549217
20
0.22563616566838415
30
0
10
6.7967980552897531
20
0.31936921788002787
30
0
10
6.9942454863728685
20
0.38216288908642099
30
0
10
7.1928266083414361
20
0.39982426062180076
30
0
10
7.3925581328136749
20
0.37490449691734129
30
0
10
7.5932844879131745
20
0.32126370516154756
30
0
10
7.7947405271597736
20
0.25835139677841751
30
0
10
7.9966127994951428
20
0.20559368348871293
30
0
10
8.198600888730903
20
0.17677959902683721
30
0
10
8.4004796044551995
20
0.17432864994512187
30
0
10
8.6020875354275113
20
0.19233005072305051
30
0
10
8.8033145452466073
20
0.21970827032881396
30
0
10
9.0040898333192381
20
0.24331563815416418
30
0
10
9.2043698383843644
20
0.25106898079032614
30
0
10
9.4041264387843633
20
0.23500695655445925
30
0
10
9.6033436788445918
20
0.19040061287378574
30
0
10
9.7622802522161667
20
0.13003058086670677
30
0
10
9.8812359969321477
20
0.070539230391282695
30
0
10
9.9604302600830081
20
0.024565258166399637
30
0
10
10
20
0
30
0
0
SPLINE
5
104
100
AcDbEntity
8
0
100
AcDbSpline
70
4
71
5
72
61
73
55
74
0
42
0.000000001
43
0.0000000001
44
0.0000000001
40
0
40
0
40
0
40
0
40
0
40
0
40
0.02
40
0.040000000000000001
40
0.059999999999999998
40
0.080000000000000002
40
0.10000000000000001
40
0.12000000000000001
40
0.14000000000000001
40
0.16
40
0.17999999999999999
40
0.19999999999999998
40
0.21999999999999997
40
0.23999999999999996
40
0.25999999999999995
40
0.27999999999999997
40
0.29999999999999999
40
0.32000000000000001
40
0.34000000000000002
40
0.36000000000000004
40
0.38000000000000006
40
0.40000000000000008
40
0.4200000000000001
40
0.44000000000000011
40
0.46000000000000013
40
0.48000000000000015
40
0.50000000000000011
40
0.52000000000000013
40
0.54000000000000015
40
0.56000000000000016
40
0.58000000000000018
40
0.6000000000000002
40
0.62000000000000022
40
0.64000000000000024
40
0.66000000000000025
40
0.68000000000000027
40
0.70000000000000029
40
0.72000000000000031
40
0.74000000000000032
40
0.76000000000000034
40
0.78000000000000036
40
0.80000000000000038
40
0.8200000000000004
40
0.84000000000000041
40
0.86000000000000043
40
0.88000000000000045
40
0.90000000000000047
40
0.92000000000000048
40
0.9400000000000005
40
0.96000000000000052
40
0.98000000000000054
40
1
40
1
40
1
40
1
40
1
40
1
41
1
41
1
41
1
41
1
41
1
41
1
41
1
41
1
41
1
41
1
41
1
41
1
41
1
41
1
41
1
41
1
41
1
41
1
41
1
41
1
41
1
41
1
41
1
41
1
41
1
41
1
41
1
41
1
41
1
41
1
41
1
41
1
41
1
41
1
41
1
41
1
41
1
41
1
41
1
41
1
41
1
41
1
41
1
41
1
41
1
41
1
41
1
41
1
41
1
41
1
41
1
41
1
41
1
41
1
41
1
10
0
20
3
30
0
10
0.039887121856029203
20
2.980348138006371
30
0
10
0.11967514433010157
20
2.9434783147784245
30
0
10
0.23939851433057821
20
2.8954752791281817
30
0
10
0.39911240072374515
20
2.8460841709534597
30
0
10
0.59889357428325196
20
2.8083478587175517
30
0
10
0.79881583749857521
20
2.7934612241356938
30
0
10
0.9988833347742444
20
2.7990430736414309
30
0
10
1.1991026104424214
20
2.8210562272877713
30
0
10
1.399483155351311
20
2.8533684291439378
30
0
10
1.6000348221824816
20
2.8889741857311071
30
0
10
1.8007652229278253
20
2.921224577663331
30
0
10
2.0016771244333929
20
2.9450505439318682
30
0
10
2.2027658279665037
20
2.9582003941296264
30
0
10
2.4040165339104025
20
2.9624562785075232
30
0
10
2.605402580612914
20
2.9617938742923156
30
0
10
2.8068836254492382
20
2.960557465925429
30
0
10
3.008403856662544
20
2.9616561734902436
30
0
10
3.2098900355724211
20
2.9646924886671737
30
0
10
3.4112498791141865
20
2.9642693637020057
30
0
10
3.6123800824841807
20
2.9528627220306625
30
0
10
3.8131739409885848
20
2.9235553735364181
30
0
10
4.0135291850506425
20
2.8727650213422189
30
0
10
4.2133555729939633
20
2.8031161316807802
30
0
10
4.4125830941104338
20
2.7258858688869294
30
0
10
4.6111782078225962
20
2.6566574821158619
30
0
10
4.8091598630495804
20
2.6113469313687636
30
0
10
5.0066154709135757
20
2.6021250074289037
30
0
10
5.2037177309031062
20
2.6332999299867366
30
0
10
5.4007395355150614
20
2.6974115892749047
30
0
10
5.5979994690038062
20
2.7795703389887243
30
0
10
5.7958095436318544
20
2.861529012988882
30
0
10
5.9944218246638652
20
2.9258624833515299
30
0
10
6.1939760589068182
20
2.9600542473783049
30
0
10
6.3944447537294815
20
2.9607596209893758
30
0
10
6.5956709020084805
20
2.9316746796734101
30
0
10
6.7974077265583919
20
2.8812631860062483
30
0
10
6.999357401940177
20
2.8205499095287907
30
0
10
7.2012100012906419
20
2.7608972667224005
30
0
10
7.4026823176571588
20
2.7117873947526427
30
0
10
7.6035420230407027
20
2.6804830313713031
30
0
10
7.8036319230934925
20
2.6716901090726495
30
0
10
8.0028942573890749
20
2.6872150482877433
30
0
10
8.2013955314696556
20
2.7256102276937315
30
0
10
8.3993507021195022
20
2.7818310335767134
30
0
10
8.5970722264843698
20
2.8484613210367611
30
0
10
8.7949203633394717
20
2.9169114303360604
30
0
10
8.993252907584889
20
2.9786286311554249
30
0
10
9.1923758285237263
20
3.0262861786799142
30
0
10
9.3924916858715193
20
3.0550253594458172
30
0
10
9.5937196680711914
20
3.0619794560285052
30
0
10
9.7556380604920463
20
3.048995025104106
30
0
10
9.8776113172201221
20
3.0286281800845338
30
0
10
9.9591642080932399
20
3.0103295187651815
30
0
10
10
20
3
30
0
0
ENDSEC
0
SECTION
2
OBJECTS
0
DICTIONARY
5
C
100
AcDbDictionary
3
ACAD_GROUP
350
D
3
ACAD_MLINESTYLE
350
17
0
DICTIONARY
5
D
100
AcDbDictionary
0
DICTIONARY
5
1A
330
C
100
AcDbDictionary
0
DICTIONARY
5
17
100
AcDbDictionary
0
ENDSEC
0
EOF
