0
SECTION
2
HEADER
9
$INSUNITS
70
4
9
$ACADVER
1
AC1014
9
$HANDSEED
5
FFFF
0
ENDSEC
0
SECTION
2
TABLES
0
TABLE
2
VPORT
5
8
100
AcDbSymbolTable
0
ENDTAB
0
TABLE
2
LTYPE
5
5
100
AcDbSymbolTable
0
LTYPE
5
14
100
AcDbSymbolTableRecord
100
AcDbLinetypeTableRecord
2
BYBLOCK
70
0
0
LTYPE
5
15
100
AcDbSymbolTableRecord
100
AcDbLinetypeTableRecord
2
BYLAYER
70
0
0
ENDTAB
0
TABLE
2
LAYER
5
2
100
AcDbSymbolTable
70
2
0
LAYER
5
50
100
AcDbSymbolTableRecord
100
AcDbLayerTableRecord
2
0
70
0
6
CONTINUOUS
0
ENDTAB
0
TABLE
2
STYLE
5
3
100
AcDbSymbolTable
70
1
0
STYLE
5
11
100
AcDbSymbolTableRecord
100
AcDbTextStyleTableRecord
2
STANDARD
70
0
0
ENDTAB
0
TABLE
2
VIEW
5
6
100
AcDbSymbolTable
70
0
0
ENDTAB
0
TABLE
2
UCS
5
7
100
AcDbSymbolTable
70
0
0
ENDTAB
0
TABLE
2
APPID
5
9
100
AcDbSymbolTable
70
2
0
APPID
5
12
100
AcDbSymbolTableRecord
100
AcDbRegAppTableRecord
2
ACAD
70
0
0
ENDTAB
0
TABLE
2
DIMSTYLE
5
A
100
AcDbSymbolTable
70
1
0
ENDTAB
0
TABLE
2
BLOCK_RECORD
5
1
100
AcDbSymbolTable
70
1
0
BLOCK_RECORD
5
1F
100
AcDbSymbolTableRecord
100
AcDbBlockTableRecord
2
*MODEL_SPACE
0
BLOCK_RECORD
5
1B
100
AcDbSymbolTableRecord
100
AcDbBlockTableRecord
2
*PAPER_SPACE
0
ENDTAB
0
ENDSEC
0
SECTION
2
BLOCKS
0
BLOCK
5
20
100
AcDbEntity
100
AcDbBlockBegin
2
*MODEL_SPACE
0
ENDBLK
5
21
100
AcDbEntity
100
AcDbBlockEnd
0
BLOCK
5
1C
100
AcDbEntity
100
AcDbBlockBegin
2
*PAPER_SPACE
0
ENDBLK
5
1D
100
AcDbEntity
100
AcDbBlockEnd
0
ENDSEC
0
SECTION
2
ENTITIES
0
SPLINE
5
100
100
AcDbEntity
8
0
100
AcDbSpline
70
4
71
5
72
16
73
10
74
0
42
0.000000001
43
0.0000000001
44
0.0000000001
40
0
40
0
40
0
40
0
40
0
40
0
40
0.20000000000000001
40
0.40000000000000002
40
0.60000000000000009
40
0.80000000000000004
40
1
40
1
40
1
40
1
40
1
40
1
41
1
41
1
41
1
41
1
41
1
41
1
41
1
41
1
41
1
41
1
10
0
20
0
30
0
10
0
20
0.12000000000003158
30
0
10
0
20
0.36000000000007704
30
0
10
0
20
0.72000000000009301
30
0
10
0
20
1.2000000000000313
30
0
10
0
20
1.7999999999999146
30
0
10
0
20
2.2799999999998684
30
0
10
0
20
2.6399999999999042
30
0
10
0
20
2.8799999999999617
30
0
10
0
20
3
30
0
0
SPLINE
5
101
100
AcDbEntity
8
0
100
AcDbSpline
70
4
71
5
72
16
73
10
74
0
42
0.000000001
43
0.0000000001
44
0.0000000001
40
0
40
0
40
0
40
0
40
0
40
0
40
0.20000000000000001
40
0.40000000000000002
40
0.60000000000000009
40
0.80000000000000004
40
1
40
1
40
1
40
1
40
1
40
1
41
1
41
1
41
1
41
1
41
1
41
1
41
1
41
1
41
1
41
1
10
10
20
0
30
0
10
9.9999999999997495
20
0.12000000000003158
30
0
10
9.9999999999993197
20
0.36000000000007704
30
0
10
9.9999999999989129
20
0.72000000000009301
30
0
10
9.9999999999987672
20
1.2000000000000313
30
0
10
9.9999999999990248
20
1.7999999999999146
30
0
10
9.9999999999993889
20
2.2799999999998684
30
0
10
9.9999999999996998
20
2.6399999999999042
30
0
10
9.9999999999999005
20
2.8799999999999617
30
0
10
10
20
3
30
0
0
SPLINE
5
102
100
AcDbEntity
8
0
100
AcDbSpline
70
4
71
5
72
16
73
10
74
0
42
0.000000001
43
0.0000000001
44
0.0000000001
40
0
40
0
40
0
40
0
40
0
40
0
40
0.20000000000000001
40
0.40000000000000002
40
0.60000000000000009
40
0.80000000000000004
40
1
40
1
40
1
40
1
40
1
40
1
41
1
41
1
41
1
41
1
41
1
41
1
41
1
41
1
41
1
41
1
10
0
20
1.5
30
0
10
0.40000000000047375
20
1.499999999999694
30
0
10
1.2000000000012774
20
1.4999999999991638
30
0
10
2.4000000000020547
20
1.4999999999986278
30
0
10
4.0000000000023546
20
1.4999999999983737
30
0
10
6.0000000000019584
20
1.4999999999985913
30
0
10
7.6000000000012928
20
1.4999999999990359
30
0
10
8.800000000000697
20
1.4999999999994786
30
0
10
9.6000000000002395
20
1.4999999999998188
30
0
10
10
20
1.5
30
0
0
SPLINE
5
103
100
AcDbEntity
8
0
100
AcDbSpline
70
4
71
5
72
61
73
55
74
0
42
0.000000001
43
0.0000000001
44
0.0000000001
40
0
40
0
40
0
40
0
40
0
40
0
40
0.02
40
0.040000000000000001
40
0.059999999999999998
40
0.080000000000000002
40
0.10000000000000001
40
0.12000000000000001
40
0.14000000000000001
40
0.16
40
0.17999999999999999
40
0.19999999999999998
40
0.21999999999999997
40
0.23999999999999996
40
0.25999999999999995
40
0.27999999999999997
40
0.29999999999999999
40
0.32000000000000001
40
0.34000000000000002
40
0.36000000000000004
40
0.38000000000000006
40
0.40000000000000008
40
0.4200000000000001
40
0.44000000000000011
40
0.46000000000000013
40
0.48000000000000015
40
0.50000000000000011
40
0.52000000000000013
40
0.54000000000000015
40
0.56000000000000016
40
0.58000000000000018
40
0.6000000000000002
40
0.62000000000000022
40
0.64000000000000024
40
0.66000000000000025
40
0.68000000000000027
40
0.70000000000000029
40
0.72000000000000031
40
0.74000000000000032
40
0.76000000000000034
40
0.78000000000000036
40
0.80000000000000038
40
0.8200000000000004
40
0.84000000000000041
40
0.86000000000000043
40
0.88000000000000045
40
0.90000000000000047
40
0.92000000000000048
40
0.9400000000000005
40
0.96000000000000052
40
0.98000000000000054
40
1
40
1
40
1
40
1
40
1
40
1
41
1
41
1
41
1
41
1
41
1
41
1
41
1
41
1
41
1
41
1
41
1
41
1
41
1
41
1
41
1
41
1
41
1
41
1
41
1
41
1
41
1
41
1
41
1
41
1
41
1
41
1
41
1
41
1
41
1
41
1
41
1
41
1
41
1
41
1
41
1
41
1
41
1
41
1
41
1
41
1
41
1
41
1
41
1
41
1
41
1
41
1
41
1
41
1
41
1
41
1
41
1
41
1
41
1
41
1
41
1
10
0
20
0
30
0
10
0.040406695763019647
20
-0.009733021285186912
30
0
10
0.12117391591643542
20
-0.027039916727407666
30
0
10
0.24218623189572211
20
-0.046522801463658212
30
0
10
0.40325877871048549
20
-0.059536770638661397
30
0
10
0.60414250428155725
20
-0.05469484167861241
30
0
10
0.80458628452036018
20
-0.030320045858072565
30
0
10
1.0046255111449724
20
0.010372218786789334
30
0
10
1.2043205677875777
20
0.061947566212840068
30
0
10
1.4037631048893908
20
0.11621685269926353
30
0
10
1.6030636763759478
20
0.16400354017973687
30
0
10
1.8023397852043541
20
0.19686519339795955
30
0
10
2.0017038195397352
20
0.20882877264003347
30
0
10
2.2012510068966931
20
0.19813541743345559
30
0
10
2.4010473935706251
20
0.16896552804169129
30
0
10
2.6011290206024547
20
0.12927220226216768
30
0
10
2.8015009242737046
20
0.088651371920990374
30
0
10
3.0021361497454286
20
0.056208880438796363
30
0
10
3.2029745767866062
20
0.038419384961440969
30
0
10
3.4039219613778222
20
0.037010747662898066
30
0
10
3.6048741752293214
20
0.05013722908114155
30
0
10
3.8057413314227198
20
0.073514065210593463
30
0
10
4.0064716742160522
20
0.10155653685440851
30
0
10
4.2070763436161212
20
0.12851719088041921
30
0
10
4.4076520124830267
20
0.14960814463529257
30
0
10
4.6083308505176444
20
0.16150307464735941
30
0
10
4.8092321861168532
20
0.16286964645842048
30
0
10
5.0104143267837919
20
0.15487640211949946
30
0
10
5.211824338532737
20
0.14176192655115527
30
0
10
5.4132535940375748
20
0.13126062219570006
30
0
10
5.6144131986414223
20
0.13218254623657491
30
0
10
5.815004553474151
20
0.15209320636698154
30
0
10
6.0147904628383477
20
0.19500862953231027
30
0
10
6.2136689527114388
20
0.25894854921289057
30
0
10
6.4117382443187463
20
0.33389645326343537
30
0
10
6.6092306141412314
20
0.40565314505002664
30
0
10
6.8064544433021368
20
0.45933203051844551
30
0
10
7.0037335997633061
20
0.48296925911832378
30
0
10
7.2013476592389338
20
0.47112862308826936
30
0
10
7.399472800833804
20
0.42841862573076839
30
0
10
7.5981966607447058
20
0.36589793788526603
30
0
10
7.7975316427890107
20
0.29762398495781972
30
0
10
7.9974285806562948
20
0.23715106788015933
30
0
10
8.1977900574994322
20
0.1940701036221999
30
0
10
8.3984836930981537
20
0.17047146601772256
30
0
10
8.5993573387015303
20
0.16294399548978589
30
0
10
8.8002542737123886
20
0.16462413038646814
30
0
10
9.0010283578111974
20
0.16721400283601012
30
0
10
9.2015592482141724
20
0.16301008298568606
30
0
10
9.4017675635834035
20
0.14691779078083747
30
0
10
9.6016063627495551
20
0.11590998777752662
30
0
10
9.7611635094567291
20
0.077982115502518545
30
0
10
9.8806516140148748
20
0.041942309205852124
30
0
10
9.9602305112064062
20
0.014542913239440746
30
0
10
10
20
0
30
0
0
SPLINE
5
104
100
AcDbEntity
8
0
100
AcDbSpline
70
4
71
5
72
61
73
55
74
0
42
0.000000001
43
0.0000000001
44
0.0000000001
40
0
40
0
40
0
40
0
40
0
40
0
40
0.02
40
0.040000000000000001
40
0.059999999999999998
40
0.080000000000000002
40
0.10000000000000001
40
0.12000000000000001
40
0.14000000000000001
40
0.16
40
0.17999999999999999
40
0.19999999999999998
40
0.21999999999999997
40
0.23999999999999996
40
0.25999999999999995
40
0.27999999999999997
40
0.29999999999999999
40
0.32000000000000001
40
0.34000000000000002
40
0.36000000000000004
40
0.38000000000000006
40
0.40000000000000008
40
0.4200000000000001
40
0.44000000000000011
40
0.46000000000000013
40
0.48000000000000015
40
0.50000000000000011
40
0.52000000000000013
40
0.54000000000000015
40
0.56000000000000016
40
0.58000000000000018
40
0.6000000000000002
40
0.62000000000000022
40
0.64000000000000024
40
0.66000000000000025
40
0.68000000000000027
40
0.70000000000000029
40
0.72000000000000031
40
0.74000000000000032
40
0.76000000000000034
40
0.78000000000000036
40
0.80000000000000038
40
0.8200000000000004
40
0.84000000000000041
40
0.86000000000000043
40
0.88000000000000045
40
0.90000000000000047
40
0.92000000000000048
40
0.9400000000000005
40
0.96000000000000052
40
0.98000000000000054
40
1
40
1
40
1
40
1
40
1
40
1
41
1
41
1
41
1
41
1
41
1
41
1
41
1
41
1
41
1
41
1
41
1
41
1
41
1
41
1
41
1
41
1
41
1
41
1
41
1
41
1
41
1
41
1
41
1
41
1
41
1
41
1
41
1
41
1
41
1
41
1
41
1
41
1
41
1
41
1
41
1
41
1
41
1
41
1
41
1
41
1
41
1
41
1
41
1
41
1
41
1
41
1
41
1
41
1
41
1
41
1
41
1
41
1
41
1
41
1
41
1
10
0
20
3
30
0
10
0.040101483739978211
20
2.9879289879020381
30
0
10
0.12031721142799441
20
2.96565129860761
30
0
10
0.24067908374901403
20
2.9378277852920629
30
0
10
0.40123819022078516
20
2.9119229596412124
30
0
10
0.60206063839154877
20
2.8977523788501482
30
0
10
0.80299376013987678
20
2.9003808763137933
30
0
10
1.0040114152011372
20
2.9169321126120917
30
0
10
1.2050695362185471
20
2.9425461515574938
30
0
10
1.4061018784432922
20
2.969901936063895
30
0
10
1.6070390745018899
20
2.9910418280342768
30
0
10
1.8078274439954205
20
2.9991678159144266
30
0
10
2.0084475874612089
20
2.9904235096613778
30
0
10
2.208933934604929
20
2.9657508039882083
30
0
10
2.4093918464138304
20
2.932554483458091
30
0
10
2.6099522762583423
20
2.9013821041441812
30
0
10
2.8107282817235935
20
2.8827623000572182
30
0
10
3.0117717246492894
20
2.8840414548194833
30
0
10
3.2130276666045066
20
2.9060859699527337
30
0
10
3.4142953600823667
20
2.9403888330617223
30
0
10
3.6153081795548085
20
2.9735388753479333
30
0
10
3.8158083386411561
20
2.9913585010304566
30
0
10
4.0156218988676873
20
2.9830720766783028
30
0
10
4.2147376646747858
20
2.9456747607802032
30
0
10
4.4133739150437927
20
2.8876441774639034
30
0
10
4.6118789275028007
20
2.8236783968376495
30
0
10
4.8106419725242731
20
2.7699900962734674
30
0
10
5.0100014544948834
20
2.7394638005108991
30
0
10
5.210152023514425
20
2.7367122451572006
30
0
10
5.4110579164381809
20
2.7535882269988434
30
0
10
5.6125140741399377
20
2.7749110646037241
30
0
10
5.8142004609306071
20
2.7837837313960616
30
0
10
6.0157384116938539
20
2.7669470551144713
30
0
10
6.2167463008566139
20
2.720375896582782
30
0
10
6.4168942870025418
20
2.6540758398999076
30
0
10
6.6159397805300362
20
2.5859609621720048
30
0
10
6.8137648742991601
20
2.5364170745777255
30
0
10
7.010412423555179
20
2.5226817467219083
30
0
10
7.2061253271137957
20
2.5531445287941508
30
0
10
7.4013788294986576
20
2.6220936613176384
30
0
10
7.5967643477635916
20
2.7148442577660674
30
0
10
7.7928806332092462
20
2.812362139051066
30
0
10
7.9902211418680524
20
2.8961030072504386
30
0
10
8.189065407320907
20
2.9526631259859766
30
0
10
8.3893610668578749
20
2.9787776233113088
30
0
10
8.5908139422634715
20
2.9787918106431466
30
0
10
8.7929868123804074
20
2.9618172861690968
30
0
10
8.9953948757521207
20
2.939008755354763
30
0
10
9.1976015954853825
20
2.9208197834246037
30
0
10
9.3993165666132068
20
2.9142093427804001
30
0
10
9.6003673853923441
20
2.9233076298632326
30
0
10
9.7606086325678358
20
2.944785028634302
30
0
10
9.8804401247693736
20
2.9691741335463462
30
0
10
9.9601725764449434
20
2.9891116889094809
30
0
10
10
20
3
30
0
0
ENDSEC
0
SECTION
2
OBJECTS
0
DICTIONARY
5
C
100
AcDbDictionary
3
ACAD_GROUP
350
D
3
ACAD_MLINESTYLE
350
17
0
DICTIONARY
5
D
100
AcDbDictionary
0
DICTIONARY
5
1A
330
C
100
AcDbDictionary
0
DICTIONARY
5
17
100
AcDbDictionary
0
ENDSEC
0
EOF
