0
SECTION
2
HEADER
9
$INSUNITS
70
4
9
$ACADVER
1
AC1014
9
$HANDSEED
5
FFFF
0
ENDSEC
0
SECTION
2
TABLES
0
TABLE
2
VPORT
5
8
100
AcDbSymbolTable
0
ENDTAB
0
TABLE
2
LTYPE
5
5
100
AcDbSymbolTable
0
LTYPE
5
14
100
AcDbSymbolTableRecord
100
AcDbLinetypeTableRecord
2
BYBLOCK
70
0
0
LTYPE
5
15
100
AcDbSymbolTableRecord
100
AcDbLinetypeTableRecord
2
BYLAYER
70
0
0
ENDTAB
0
TABLE
2
LAYER
5
2
100
AcDbSymbolTable
70
2
0
LAYER
5
50
100
AcDbSymbolTableRecord
100
AcDbLayerTableRecord
2
0
70
0
6
CONTINUOUS
0
ENDTAB
0
TABLE
2
STYLE
5
3
100
AcDbSymbolTable
70
1
0
STYLE
5
11
100
AcDbSymbolTableRecord
100
AcDbTextStyleTableRecord
2
STANDARD
70
0
0
ENDTAB
0
TABLE
2
VIEW
5
6
100
AcDbSymbolTable
70
0
0
ENDTAB
0
TABLE
2
UCS
5
7
100
AcDbSymbolTable
70
0
0
ENDTAB
0
TABLE
2
APPID
5
9
100
AcDbSymbolTable
70
2
0
APPID
5
12
100
AcDbSymbolTableRecord
100
AcDbRegAppTableRecord
2
ACAD
70
0
0
ENDTAB
0
TABLE
2
DIMSTYLE
5
A
100
AcDbSymbolTable
70
1
0
ENDTAB
0
TABLE
2
BLOCK_RECORD
5
1
100
AcDbSymbolTable
70
1
0
BLOCK_RECORD
5
1F
100
AcDbSymbolTableRecord
100
AcDbBlockTableRecord
2
*MODEL_SPACE
0
BLOCK_RECORD
5
1B
100
AcDbSymbolTableRecord
100
AcDbBlockTableRecord
2
*PAPER_SPACE
0
ENDTAB
0
ENDSEC
0
SECTION
2
BLOCKS
0
BLOCK
5
20
100
AcDbEntity
100
AcDbBlockBegin
2
*MODEL_SPACE
0
ENDBLK
5
21
100
AcDbEntity
100
AcDbBlockEnd
0
BLOCK
5
1C
100
AcDbEntity
100
AcDbBlockBegin
2
*PAPER_SPACE
0
ENDBLK
5
1D
100
AcDbEntity
100
AcDbBlockEnd
0
ENDSEC
0
SECTION
2
ENTITIES
0
SPLINE
5
100
100
AcDbEntity
8
0
100
AcDbSpline
70
4
71
5
72
16
73
10
74
0
42
0.000000001
43
0.0000000001
44
0.0000000001
40
0
40
0
40
0
40
0
40
0
40
0
40
0.20000000000000001
40
0.40000000000000002
40
0.60000000000000009
40
0.80000000000000004
40
1
40
1
40
1
40
1
40
1
40
1
41
1
41
1
41
1
41
1
41
1
41
1
41
1
41
1
41
1
41
1
10
0
20
0
30
0
10
0
20
0.12000000000003158
30
0
10
0
20
0.36000000000007704
30
0
10
0
20
0.72000000000009301
30
0
10
0
20
1.2000000000000313
30
0
10
0
20
1.7999999999999146
30
0
10
0
20
2.2799999999998684
30
0
10
0
20
2.6399999999999042
30
0
10
0
20
2.8799999999999617
30
0
10
0
20
3
30
0
0
SPLINE
5
101
100
AcDbEntity
8
0
100
AcDbSpline
70
4
71
5
72
16
73
10
74
0
42
0.000000001
43
0.0000000001
44
0.0000000001
40
0
40
0
40
0
40
0
40
0
40
0
40
0.20000000000000001
40
0.40000000000000002
40
0.60000000000000009
40
0.80000000000000004
40
1
40
1
40
1
40
1
40
1
40
1
41
1
41
1
41
1
41
1
41
1
41
1
41
1
41
1
41
1
41
1
10
10
20
0
30
0
10
9.9999999999997495
20
0.12000000000003158
30
0
10
9.9999999999993197
20
0.36000000000007704
30
0
10
9.9999999999989129
20
0.72000000000009301
30
0
10
9.9999999999987672
20
1.2000000000000313
30
0
10
9.9999999999990248
20
1.7999999999999146
30
0
10
9.9999999999993889
20
2.2799999999998684
30
0
10
9.9999999999996998
20
2.6399999999999042
30
0
10
9.9999999999999005
20
2.8799999999999617
30
0
10
10
20
3
30
0
0
SPLINE
5
102
100
AcDbEntity
8
0
100
AcDbSpline
70
4
71
5
72
16
73
10
74
0
42
0.000000001
43
0.0000000001
44
0.0000000001
40
0
40
0
40
0
40
0
40
0
40
0
40
0.20000000000000001
40
0.40000000000000002
40
0.60000000000000009
40
0.80000000000000004
40
1
40
1
40
1
40
1
40
1
40
1
41
1
41
1
41
1
41
1
41
1
41
1
41
1
41
1
41
1
41
1
10
0
20
1.5
30
0
10
0.40000000000047375
20
1.499999999999694
30
0
10
1.2000000000012774
20
1.4999999999991638
30
0
10
2.4000000000020547
20
1.4999999999986278
30
0
10
4.0000000000023546
20
1.4999999999983737
30
0
10
6.0000000000019584
20
1.4999999999985913
30
0
10
7.6000000000012928
20
1.4999999999990359
30
0
10
8.800000000000697
20
1.4999999999994786
30
0
10
9.6000000000002395
20
1.4999999999998188
30
0
10
10
20
1.5
30
0
0
SPLINE
5
103
100
AcDbEntity
8
0
100
AcDbSpline
70
4
71
5
72
61
73
55
74
0
42
0.000000001
43
0.0000000001
44
0.0000000001
40
0
40
0
40
0
40
0
40
0
40
0
40
0.02
40
0.040000000000000001
40
0.059999999999999998
40
0.080000000000000002
40
0.10000000000000001
40
0.12000000000000001
40
0.14000000000000001
40
0.16
40
0.17999999999999999
40
0.19999999999999998
40
0.21999999999999997
40
0.23999999999999996
40
0.25999999999999995
40
0.27999999999999997
40
0.29999999999999999
40
0.32000000000000001
40
0.34000000000000002
40
0.36000000000000004
40
0.38000000000000006
40
0.40000000000000008
40
0.4200000000000001
40
0.44000000000000011
40
0.46000000000000013
40
0.48000000000000015
40
0.50000000000000011
40
0.52000000000000013
40
0.54000000000000015
40
0.56000000000000016
40
0.58000000000000018
40
0.6000000000000002
40
0.62000000000000022
40
0.64000000000000024
40
0.66000000000000025
40
0.68000000000000027
40
0.70000000000000029
40
0.72000000000000031
40
0.74000000000000032
40
0.76000000000000034
40
0.78000000000000036
40
0.80000000000000038
40
0.8200000000000004
40
0.84000000000000041
40
0.86000000000000043
40
0.88000000000000045
40
0.90000000000000047
40
0.92000000000000048
40
0.9400000000000005
40
0.96000000000000052
40
0.98000000000000054
40
1
40
1
40
1
40
1
40
1
40
1
41
1
41
1
41
1
41
1
41
1
41
1
41
1
41
1
41
1
41
1
41
1
41
1
41
1
41
1
41
1
41
1
41
1
41
1
41
1
41
1
41
1
41
1
41
1
41
1
41
1
41
1
41
1
41
1
41
1
41
1
41
1
41
1
41
1
41
1
41
1
41
1
41
1
41
1
41
1
41
1
41
1
41
1
41
1
41
1
41
1
41
1
41
1
41
1
41
1
41
1
41
1
41
1
41
1
41
1
41
1
10
0
20
0
30
0
10
0.039544203849543012
20
0.016171053273867995
30
0
10
0.11879732172758332
20
0.045889679772948798
30
0
10
0.23817113264082745
20
0.082597126274548988
30
0
10
0.3983250952619482
20
0.11578960410723235
30
0
10
0.60010904951107247
20
0.13183762250206865
30
0
10
0.80330743696389129
20
0.12498258615291664
30
0
10
1.0075618967441597
20
0.10037131626937126
30
0
10
1.2122677706970757
20
0.066696130793648278
30
0
10
1.4165186943837025
20
0.036989642929712019
30
0
10
1.6193203705009007
20
0.025407747366331803
30
0
10
1.8197980780832459
20
0.044104653713052354
30
0
10
2.0174015458373522
20
0.10014919225463659
30
0
10
2.2121237591696334
20
0.19222749767391684
30
0
10
2.4046806805337213
20
0.30794311061055352
30
0
10
2.5962063259446855
20
0.42851103250753592
30
0
10
2.7879850934897865
20
0.53288772908228843
30
0
10
2.9811653157902791
20
0.60217813469697778
30
0
10
3.1764927777929843
20
0.62376140404603908
30
0
10
3.3740022772635041
20
0.59599763059687849
30
0
10
3.573214497782256
20
0.52595788294490287
30
0
10
3.7733770137804283
20
0.42652496630093634
30
0
10
3.9736936797303075
20
0.31371263500426605
30
0
10
4.1735469038534196
20
0.20396229108558009
30
0
10
4.3727541481262611
20
0.1112995099805397
30
0
10
4.5714669075334884
20
0.046318370708265395
30
0
10
4.7700209351545215
20
0.01546456196719259
30
0
10
4.9688008121531073
20
0.020132851708877384
30
0
10
5.1681067139990517
20
0.055984097868889512
30
0
10
5.3679991268576233
20
0.11174371480039938
30
0
10
5.5683544592021903
20
0.17209142373929487
30
0
10
5.7689563465808869
20
0.22118512877475474
30
0
10
5.9695763294127264
20
0.24607049959989807
30
0
10
6.1700538835618977
20
0.239892280097457
30
0
10
6.37039002319346
20
0.20586729179535856
30
0
10
6.5707056289730881
20
0.15444642384230881
30
0
10
6.7711775844723476
20
0.099389955487787493
30
0
10
6.9719814680522472
20
0.054145921365685863
30
0
10
7.1732347900963846
20
0.028307209302003835
30
0
10
7.3749312566271961
20
0.023488599035564037
30
0
10
7.5769706856299246
20
0.035187506611759289
30
0
10
7.7792031199860929
20
0.0555281026614051
30
0
10
7.9814683539822209
20
0.07571914101062889
30
0
10
8.1836359507477354
20
0.08854339220850066
30
0
10
8.3856487721536421
20
0.091060864511319214
30
0
10
8.5875079634508538
20
0.0837265153878268
30
0
10
8.78925245813803
20
0.069171795446859474
30
0
10
8.9909404619072273
20
0.051107395059687866
30
0
10
9.1926304448317087
20
0.033195210526854944
30
0
10
9.3943616247038033
20
0.017890205385774655
30
0
10
9.5961572358097982
20
0.0066471157976159823
30
0
10
9.7576545021418308
20
0.0014800931090669918
30
0
10
9.8788133131858089
20
-0.00013744272218920068
30
0
10
9.9596017829288392
20
-0.00021295292542327531
30
0
10
10
20
0
30
0
0
SPLINE
5
104
100
AcDbEntity
8
0
100
AcDbSpline
70
4
71
5
72
61
73
55
74
0
42
0.000000001
43
0.0000000001
44
0.0000000001
40
0
40
0
40
0
40
0
40
0
40
0
40
0.02
40
0.040000000000000001
40
0.059999999999999998
40
0.080000000000000002
40
0.10000000000000001
40
0.12000000000000001
40
0.14000000000000001
40
0.16
40
0.17999999999999999
40
0.19999999999999998
40
0.21999999999999997
40
0.23999999999999996
40
0.25999999999999995
40
0.27999999999999997
40
0.29999999999999999
40
0.32000000000000001
40
0.34000000000000002
40
0.36000000000000004
40
0.38000000000000006
40
0.40000000000000008
40
0.4200000000000001
40
0.44000000000000011
40
0.46000000000000013
40
0.48000000000000015
40
0.50000000000000011
40
0.52000000000000013
40
0.54000000000000015
40
0.56000000000000016
40
0.58000000000000018
40
0.6000000000000002
40
0.62000000000000022
40
0.64000000000000024
40
0.66000000000000025
40
0.68000000000000027
40
0.70000000000000029
40
0.72000000000000031
40
0.74000000000000032
40
0.76000000000000034
40
0.78000000000000036
40
0.80000000000000038
40
0.8200000000000004
40
0.84000000000000041
40
0.86000000000000043
40
0.88000000000000045
40
0.90000000000000047
40
0.92000000000000048
40
0.9400000000000005
40
0.96000000000000052
40
0.98000000000000054
40
1
40
1
40
1
40
1
40
1
40
1
41
1
41
1
41
1
41
1
41
1
41
1
41
1
41
1
41
1
41
1
41
1
41
1
41
1
41
1
41
1
41
1
41
1
41
1
41
1
41
1
41
1
41
1
41
1
41
1
41
1
41
1
41
1
41
1
41
1
41
1
41
1
41
1
41
1
41
1
41
1
41
1
41
1
41
1
41
1
41
1
41
1
41
1
41
1
41
1
41
1
41
1
41
1
41
1
41
1
41
1
41
1
41
1
41
1
41
1
41
1
10
0
20
3
30
0
10
0.040501065785650853
20
3.0084517674795586
30
0
10
0.12147558675199899
20
3.0231369613290742
30
0
10
0.24285453632935991
20
3.0385096807701464
30
0
10
0.40452736460387412
20
3.0456882400630922
30
0
10
0.60634352025152394
20
3.0330803615724786
30
0
10
0.80789011090157459
20
3.000836379465154
30
0
10
1.0091785799347572
20
2.9529022699271259
30
0
10
1.2102288008152073
20
2.8959523758716488
30
0
10
1.4110712248366326
20
2.8399854296830638
30
0
10
1.6117449798558687
20
2.7958807123688789
30
0
10
1.812296152014383
20
2.7730484738554444
30
0
10
2.012776015002085
20
2.777092608019232
30
0
10
2.2132393212271286
20
2.8073428983693427
30
0
10
2.4137425226994407
20
2.8547548253990995
30
0
10
2.6143408206493297
20
2.9059053137863877
30
0
10
2.8150852983314421
20
2.9466942352877661
30
0
10
3.0160199602081943
20
2.9660701035849399
30
0
10
3.2171789079859709
20
2.9599418267477358
30
0
10
3.4185831050518907
20
2.9344847868145401
30
0
10
3.620233434658398
20
2.901582622323557
30
0
10
3.8221035496919322
20
2.8747339124198894
30
0
10
4.0241335378958425
20
2.8649242652285163
30
0
10
4.2262212611543779
20
2.876197108332248
30
0
10
4.4282199988255835
20
2.9022425513891212
30
0
10
4.6299839656960158
20
2.931298605531742
30
0
10
4.8314109030613261
20
2.950354431900025
30
0
10
5.0324827096905693
20
2.9494141819774695
30
0
10
5.2333145254174918
20
2.9262083764809304
30
0
10
5.4341786490876025
20
2.8893457596817989
30
0
10
5.6353901839267584
20
2.8525960644693975
30
0
10
5.8372062540947267
20
2.8301217133687988
30
0
10
6.0397266342406937
20
2.8316395007210109
30
0
10
6.2427775625179196
20
2.8569166517336604
30
0
10
6.4458499275082275
20
2.8926016897009554
30
0
10
6.6482759127710098
20
2.9193802267114655
30
0
10
6.8493753754145983
20
2.9178355413683814
30
0
10
7.0486054072315287
20
2.8744083384593804
30
0
10
7.2457288583025612
20
2.7882734387700103
30
0
10
7.4409130618038315
20
2.6749032516360742
30
0
10
7.6345891302614666
20
2.5583406056153892
30
0
10
7.8273512886769003
20
2.4653217044891611
30
0
10
8.0198428182433368
20
2.4188241510534354
30
0
10
8.2126437436054402
20
2.4315239402291504
30
0
10
8.4061699225767974
20
2.5002230232888181
30
0
10
8.6007091353567215
20
2.6109615379585547
30
0
10
8.7964451019675884
20
2.7431925988081955
30
0
10
8.9934858860785702
20
2.8743148967494032
30
0
10
9.1918899875775768
20
2.9839944138322929
30
0
10
9.3916937226485668
20
3.0587119850719486
30
0
10
9.592916625459484
20
3.0904641793655481
30
0
10
9.7550363748970046
20
3.0783462895296729
30
0
10
9.8772685447066184
20
3.0475930139600562
30
0
10
9.9590419638867704
20
3.0174681174084843
30
0
10
10
20
3
30
0
0
ENDSEC
0
SECTION
2
OBJECTS
0
DICTIONARY
5
C
100
AcDbDictionary
3
ACAD_GROUP
350
D
3
ACAD_MLINESTYLE
350
17
0
DICTIONARY
5
D
100
AcDbDictionary
0
DICTIONARY
5
1A
330
C
100
AcDbDictionary
0
DICTIONARY
5
17
100
AcDbDictionary
0
ENDSEC
0
EOF
