0
SECTION
2
HEADER
9
$INSUNITS
70
4
9
$ACADVER
1
AC1014
9
$HANDSEED
5
FFFF
0
ENDSEC
0
SECTION
2
TABLES
0
TABLE
2
VPORT
5
8
100
AcDbSymbolTable
0
ENDTAB
0
TABLE
2
LTYPE
5
5
100
AcDbSymbolTable
0
LTYPE
5
14
100
AcDbSymbolTableRecord
100
AcDbLinetypeTableRecord
2
BYBLOCK
70
0
0
LTYPE
5
15
100
AcDbSymbolTableRecord
100
AcDbLinetypeTableRecord
2
BYLAYER
70
0
0
ENDTAB
0
TABLE
2
LAYER
5
2
100
AcDbSymbolTable
70
2
0
LAYER
5
50
100
AcDbSymbolTableRecord
100
AcDbLayerTableRecord
2
0
70
0
6
CONTINUOUS
0
ENDTAB
0
TABLE
2
STYLE
5
3
100
AcDbSymbolTable
70
1
0
STYLE
5
11
100
AcDbSymbolTableRecord
100
AcDbTextStyleTableRecord
2
STANDARD
70
0
0
ENDTAB
0
TABLE
2
VIEW
5
6
100
AcDbSymbolTable
70
0
0
ENDTAB
0
TABLE
2
UCS
5
7
100
AcDbSymbolTable
70
0
0
ENDTAB
0
TABLE
2
APPID
5
9
100
AcDbSymbolTable
70
2
0
APPID
5
12
100
AcDbSymbolTableRecord
100
AcDbRegAppTableRecord
2
ACAD
70
0
0
ENDTAB
0
TABLE
2
DIMSTYLE
5
A
100
AcDbSymbolTable
70
1
0
ENDTAB
0
TABLE
2
BLOCK_RECORD
5
1
100
AcDbSymbolTable
70
1
0
BLOCK_RECORD
5
1F
100
AcDbSymbolTableRecord
100
AcDbBlockTableRecord
2
*MODEL_SPACE
0
BLOCK_RECORD
5
1B
100
AcDbSymbolTableRecord
100
AcDbBlockTableRecord
2
*PAPER_SPACE
0
ENDTAB
0
ENDSEC
0
SECTION
2
BLOCKS
0
BLOCK
5
20
100
AcDbEntity
100
AcDbBlockBegin
2
*MODEL_SPACE
0
ENDBLK
5
21
100
AcDbEntity
100
AcDbBlockEnd
0
BLOCK
5
1C
100
AcDbEntity
100
AcDbBlockBegin
2
*PAPER_SPACE
0
ENDBLK
5
1D
100
AcDbEntity
100
AcDbBlockEnd
0
ENDSEC
0
SECTION
2
ENTITIES
0
SPLINE
5
100
100
AcDbEntity
8
0
100
AcDbSpline
70
4
71
5
72
16
73
10
74
0
42
0.000000001
43
0.0000000001
44
0.0000000001
40
0
40
0
40
0
40
0
40
0
40
0
40
0.20000000000000001
40
0.40000000000000002
40
0.60000000000000009
40
0.80000000000000004
40
1
40
1
40
1
40
1
40
1
40
1
41
1
41
1
41
1
41
1
41
1
41
1
41
1
41
1
41
1
41
1
10
0
20
0
30
0
10
0
20
0.12000000000003158
30
0
10
0
20
0.36000000000007704
30
0
10
0
20
0.72000000000009301
30
0
10
0
20
1.2000000000000313
30
0
10
0
20
1.7999999999999146
30
0
10
0
20
2.2799999999998684
30
0
10
0
20
2.6399999999999042
30
0
10
0
20
2.8799999999999617
30
0
10
0
20
3
30
0
0
SPLINE
5
101
100
AcDbEntity
8
0
100
AcDbSpline
70
4
71
5
72
16
73
10
74
0
42
0.000000001
43
0.0000000001
44
0.0000000001
40
0
40
0
40
0
40
0
40
0
40
0
40
0.20000000000000001
40
0.40000000000000002
40
0.60000000000000009
40
0.80000000000000004
40
1
40
1
40
1
40
1
40
1
40
1
41
1
41
1
41
1
41
1
41
1
41
1
41
1
41
1
41
1
41
1
10
10
20
0
30
0
10
9.9999999999997495
20
0.12000000000003158
30
0
10
9.9999999999993197
20
0.36000000000007704
30
0
10
9.9999999999989129
20
0.72000000000009301
30
0
10
9.9999999999987672
20
1.2000000000000313
30
0
10
9.9999999999990248
20
1.7999999999999146
30
0
10
9.9999999999993889
20
2.2799999999998684
30
0
10
9.9999999999996998
20
2.6399999999999042
30
0
10
9.9999999999999005
20
2.8799999999999617
30
0
10
10
20
3
30
0
0
SPLINE
5
102
100
AcDbEntity
8
0
100
AcDbSpline
70
4
71
5
72
16
73
10
74
0
42
0.000000001
43
0.0000000001
44
0.0000000001
40
0
40
0
40
0
40
0
40
0
40
0
40
0.20000000000000001
40
0.40000000000000002
40
0.60000000000000009
40
0.80000000000000004
40
1
40
1
40
1
40
1
40
1
40
1
41
1
41
1
41
1
41
1
41
1
41
1
41
1
41
1
41
1
41
1
10
0
20
1.5
30
0
10
0.40000000000047375
20
1.499999999999694
30
0
10
1.2000000000012774
20
1.4999999999991638
30
0
10
2.4000000000020547
20
1.4999999999986278
30
0
10
4.0000000000023546
20
1.4999999999983737
30
0
10
6.0000000000019584
20
1.4999999999985913
30
0
10
7.6000000000012928
20
1.4999999999990359
30
0
10
8.800000000000697
20
1.4999999999994786
30
0
10
9.6000000000002395
20
1.4999999999998188
30
0
10
10
20
1.5
30
0
0
SPLINE
5
103
100
AcDbEntity
8
0
100
AcDbSpline
70
4
71
5
72
111
73
105
74
0
42
0.000000001
43
0.0000000001
44
0.0000000001
40
0
40
0
40
0
40
0
40
0
40
0
40
0.01
40
0.02
40
0.029999999999999999
40
0.040000000000000001
40
0.050000000000000003
40
0.060000000000000005
40
0.070000000000000007
40
0.080000000000000002
40
0.089999999999999997
40
0.099999999999999992
40
0.10999999999999999
40
0.11999999999999998
40
0.12999999999999998
40
0.13999999999999999
40
0.14999999999999999
40
0.16
40
0.17000000000000001
40
0.18000000000000002
40
0.19000000000000003
40
0.20000000000000004
40
0.21000000000000005
40
0.22000000000000006
40
0.23000000000000007
40
0.24000000000000007
40
0.25000000000000006
40
0.26000000000000006
40
0.27000000000000007
40
0.28000000000000008
40
0.29000000000000009
40
0.3000000000000001
40
0.31000000000000011
40
0.32000000000000012
40
0.33000000000000013
40
0.34000000000000014
40
0.35000000000000014
40
0.36000000000000015
40
0.37000000000000016
40
0.38000000000000017
40
0.39000000000000018
40
0.40000000000000019
40
0.4100000000000002
40
0.42000000000000021
40
0.43000000000000022
40
0.44000000000000022
40
0.45000000000000023
40
0.46000000000000024
40
0.47000000000000025
40
0.48000000000000026
40
0.49000000000000027
40
0.50000000000000022
40
0.51000000000000023
40
0.52000000000000024
40
0.53000000000000025
40
0.54000000000000026
40
0.55000000000000027
40
0.56000000000000028
40
0.57000000000000028
40
0.58000000000000029
40
0.5900000000000003
40
0.60000000000000031
40
0.61000000000000032
40
0.62000000000000033
40
0.63000000000000034
40
0.64000000000000035
40
0.65000000000000036
40
0.66000000000000036
40
0.67000000000000037
40
0.68000000000000038
40
0.69000000000000039
40
0.7000000000000004
40
0.71000000000000041
40
0.72000000000000042
40
0.73000000000000043
40
0.74000000000000044
40
0.75000000000000044
40
0.76000000000000045
40
0.77000000000000046
40
0.78000000000000047
40
0.79000000000000048
40
0.80000000000000049
40
0.8100000000000005
40
0.82000000000000051
40
0.83000000000000052
40
0.84000000000000052
40
0.85000000000000053
40
0.86000000000000054
40
0.87000000000000055
40
0.88000000000000056
40
0.89000000000000057
40
0.90000000000000058
40
0.91000000000000059
40
0.9200000000000006
40
0.9300000000000006
40
0.94000000000000061
40
0.95000000000000062
40
0.96000000000000063
40
0.97000000000000064
40
0.98000000000000065
40
0.99000000000000066
40
1
40
1
40
1
40
1
40
1
40
1
41
1
41
1
41
1
41
1
41
1
41
1
41
1
41
1
41
1
41
1
41
1
41
1
41
1
41
1
41
1
41
1
41
1
41
1
41
1
41
1
41
1
41
1
41
1
41
1
41
1
41
1
41
1
41
1
41
1
41
1
41
1
41
1
41
1
41
1
41
1
41
1
41
1
41
1
41
1
41
1
41
1
41
1
41
1
41
1
41
1
41
1
41
1
41
1
41
1
41
1
41
1
41
1
41
1
41
1
41
1
41
1
41
1
41
1
41
1
41
1
41
1
41
1
41
1
41
1
41
1
41
1
41
1
41
1
41
1
41
1
41
1
41
1
41
1
41
1
41
1
41
1
41
1
41
1
41
1
41
1
41
1
41
1
41
1
41
1
41
1
41
1
41
1
41
1
41
1
41
1
41
1
41
1
41
1
41
1
41
1
41
1
41
1
41
1
41
1
41
1
41
1
41
1
41
1
41
1
41
1
10
0
20
0
30
0
10
0.019666900468732942
20
0.016271014527348179
30
0
10
0.059073293536165868
20
0.046465892120992003
30
0
10
0.11840065962445909
20
0.084716751527725842
30
0
10
0.1979394374728721
20
0.12163271266656889
30
0
10
0.29806819820525221
20
0.14486369386357001
30
0
10
0.39883926135535019
20
0.1468883723244285
30
0
10
0.50012611816105657
20
0.13113943117001109
30
0
10
0.60171731675765361
20
0.1033568487289736
30
0
10
0.70329525751601996
20
0.072164422975881354
30
0
10
0.8045088347882533
20
0.047133809376336919
30
0
10
0.90504637580457559
20
0.036840622548981398
30
0
10
1.0047075405382555
20
0.046948412857434646
30
0
10
1.1034779022949635
20
0.078220854194400224
30
0
10
1.2015963556601681
20
0.12472616823978851
30
0
10
1.2994518801512978
20
0.17661539023692249
30
0
10
1.3974873436433779
20
0.22271172567279801
30
0
10
1.4960999689979007
20
0.25319005309902542
30
0
10
1.5955449259827159
20
0.26217118578282228
30
0
10
1.6958328044069737
20
0.25048430582111753
30
0
10
1.7968013480936065
20
0.2236312251402271
30
0
10
1.89819312837643
20
0.18958702263588909
30
0
10
1.9997310026832229
20
0.15666155343593838
30
0
10
2.10119440362008
20
0.13133812564868136
30
0
10
2.2024955088614546
20
0.1161149415631358
30
0
10
2.3036430863557791
20
0.11051766406276795
30
0
10
2.4047058549200502
20
0.11212435901059019
30
0
10
2.505776410357941
20
0.1175769839045688
30
0
10
2.6069341632045346
20
0.12361444825960634
30
0
10
2.7082108817314277
20
0.12804872002469436
30
0
10
2.809602506722833
20
0.12970422823617422
30
0
10
2.9110788039529445
20
0.12841357811980109
30
0
10
3.0125936446047978
20
0.12498096324528798
30
0
10
3.1140953948372845
20
0.12118729931360828
30
0
10
3.2155361247149861
20
0.11969935444460179
30
0
10
3.3168708857918054
20
0.12331228434491601
30
0
10
3.4180578207821419
20
0.13423458596984852
30
0
10
3.5190582640051993
20
0.1534005163757429
30
0
10
3.6198361259642189
20
0.17966709497443129
30
0
10
3.7203597304560883
20
0.2093691720606132
30
0
10
3.8206142460496189
20
0.23752078294357049
30
0
10
3.9206134136149813
20
0.25880791539816
30
0
10
4.0204100250134163
20
0.26862416333697781
30
0
10
4.1201105789668784
20
0.26417752334190714
30
0
10
4.2198772308564712
20
0.24529570338499251
30
0
10
4.3198786238849447
20
0.21389509365579165
30
0
10
4.4202466395136959
20
0.17365831379620433
30
0
10
4.5210340769414818
20
0.12961085933159361
30
0
10
4.6221642272060901
20
0.087790271660457053
30
0
10
4.7234071560972266
20
0.054730635909299094
30
0
10
4.8244631250891565
20
0.036326899409318075
30
0
10
4.9250319689488684
20
0.036742249383726028
30
0
10
5.0248837483123339
20
0.05739582878529112
30
0
10
5.1239388177745591
20
0.095683019014726589
30
0
10
5.2223128980971456
20
0.14453088907641895
30
0
10
5.3202465974661237
20
0.19461484239479748
30
0
10
5.4180542957717739
20
0.2361515172959221
30
0
10
5.5160664046959678
20
0.26079513964326523
30
0
10
5.6145722526548827
20
0.26363782209209147
30
0
10
5.7137693573727164
20
0.24472779254151283
30
0
10
5.8137573709707677
20
0.20776833680958373
30
0
10
5.9145252747381827
20
0.15917140266217183
30
0
10
6.0159432041954268
20
0.10697239570631673
30
0
10
6.1177473556284454
20
0.059813074440305189
30
0
10
6.2195420954645284
20
0.025875657887322746
30
0
10
6.3208943134032323
20
0.011775058519257612
30
0
10
6.4214194025820914
20
0.021397362798325985
30
0
10
6.5208652760923815
20
0.054869310158973013
30
0
10
6.6192095429006166
20
0.10720726941726352
30
0
10
6.7167138380127431
20
0.16789922818886033
30
0
10
6.8138022880675688
20
0.2242200497598473
30
0
10
6.9109653347405855
20
0.26402913361264946
30
0
10
7.008655592197619
20
0.27869282560096403
30
0
10
7.1071827015994682
20
0.26613601585295754
30
0
10
7.2066211357154017
20
0.23332560313666426
30
0
10
7.3068808369336571
20
0.19215723621874953
30
0
10
7.4077660249673336
20
0.15578846839395138
30
0
10
7.5090375060063366
20
0.13489407727754396
30
0
10
7.6104756141420751
20
0.13374267934993506
30
0
10
7.711936682517468
20
0.14694816795196272
30
0
10
7.8133289296509396
20
0.16389366858438592
30
0
10
7.9145940210012977
20
0.17267424246602975
30
0
10
8.0156871674120804
20
0.1640521315547859
30
0
10
8.1165562802472593
20
0.13580232334633574
30
0
10
8.2171261990108242
20
0.095729650272315184
30
0
10
8.3173150032142544
20
0.05677141979778693
30
0
10
8.417046703813126
20
0.032946455534443031
30
0
10
8.5162649607615091
20
0.035153605923463865
30
0
10
8.6149472602559953
20
0.066622801561919007
30
0
10
8.7131162817355374
20
0.11973046860753166
30
0
10
8.8108340749077296
20
0.18070024684942229
30
0
10
8.9081984181095049
20
0.23335239622824352
30
0
10
9.0053382967384366
20
0.26317525251441759
30
0
10
9.1024099179838558
20
0.26136285027883666
30
0
10
9.199592121745285
20
0.22857879310751583
30
0
10
9.2970727308193872
20
0.17210816254437541
30
0
10
9.3950353786003387
20
0.10334183318281887
30
0
10
9.4936460005528964
20
0.035114535816821724
30
0
10
9.593039819931926
20
-0.020838984806116713
30
0
10
9.6933071215724826
20
-0.056626096799715267
30
0
10
9.794501504850718
20
-0.067549675502234452
30
0
10
9.8762198821615055
20
-0.054519636328282953
30
0
10
9.9379416027209473
20
-0.032155807445800211
30
0
10
9.9792818031690516
20
-0.011651165243321732
30
0
10
10
20
0
30
0
0
SPLINE
5
104
100
AcDbEntity
8
0
100
AcDbSpline
70
4
71
5
72
111
73
105
74
0
42
0.000000001
43
0.0000000001
44
0.0000000001
40
0
40
0
40
0
40
0
40
0
40
0
40
0.01
40
0.02
40
0.029999999999999999
40
0.040000000000000001
40
0.050000000000000003
40
0.060000000000000005
40
0.070000000000000007
40
0.080000000000000002
40
0.089999999999999997
40
0.099999999999999992
40
0.10999999999999999
40
0.11999999999999998
40
0.12999999999999998
40
0.13999999999999999
40
0.14999999999999999
40
0.16
40
0.17000000000000001
40
0.18000000000000002
40
0.19000000000000003
40
0.20000000000000004
40
0.21000000000000005
40
0.22000000000000006
40
0.23000000000000007
40
0.24000000000000007
40
0.25000000000000006
40
0.26000000000000006
40
0.27000000000000007
40
0.28000000000000008
40
0.29000000000000009
40
0.3000000000000001
40
0.31000000000000011
40
0.32000000000000012
40
0.33000000000000013
40
0.34000000000000014
40
0.35000000000000014
40
0.36000000000000015
40
0.37000000000000016
40
0.38000000000000017
40
0.39000000000000018
40
0.40000000000000019
40
0.4100000000000002
40
0.42000000000000021
40
0.43000000000000022
40
0.44000000000000022
40
0.45000000000000023
40
0.46000000000000024
40
0.47000000000000025
40
0.48000000000000026
40
0.49000000000000027
40
0.50000000000000022
40
0.51000000000000023
40
0.52000000000000024
40
0.53000000000000025
40
0.54000000000000026
40
0.55000000000000027
40
0.56000000000000028
40
0.57000000000000028
40
0.58000000000000029
40
0.5900000000000003
40
0.60000000000000031
40
0.61000000000000032
40
0.62000000000000033
40
0.63000000000000034
40
0.64000000000000035
40
0.65000000000000036
40
0.66000000000000036
40
0.67000000000000037
40
0.68000000000000038
40
0.69000000000000039
40
0.7000000000000004
40
0.71000000000000041
40
0.72000000000000042
40
0.73000000000000043
40
0.74000000000000044
40
0.75000000000000044
40
0.76000000000000045
40
0.77000000000000046
40
0.78000000000000047
40
0.79000000000000048
40
0.80000000000000049
40
0.8100000000000005
40
0.82000000000000051
40
0.83000000000000052
40
0.84000000000000052
40
0.85000000000000053
40
0.86000000000000054
40
0.87000000000000055
40
0.88000000000000056
40
0.89000000000000057
40
0.90000000000000058
40
0.91000000000000059
40
0.9200000000000006
40
0.9300000000000006
40
0.94000000000000061
40
0.95000000000000062
40
0.96000000000000063
40
0.97000000000000064
40
0.98000000000000065
40
0.99000000000000066
40
1
40
1
40
1
40
1
40
1
40
1
41
1
41
1
41
1
41
1
41
1
41
1
41
1
41
1
41
1
41
1
41
1
41
1
41
1
41
1
41
1
41
1
41
1
41
1
41
1
41
1
41
1
41
1
41
1
41
1
41
1
41
1
41
1
41
1
41
1
41
1
41
1
41
1
41
1
41
1
41
1
41
1
41
1
41
1
41
1
41
1
41
1
41
1
41
1
41
1
41
1
41
1
41
1
41
1
41
1
41
1
41
1
41
1
41
1
41
1
41
1
41
1
41
1
41
1
41
1
41
1
41
1
41
1
41
1
41
1
41
1
41
1
41
1
41
1
41
1
41
1
41
1
41
1
41
1
41
1
41
1
41
1
41
1
41
1
41
1
41
1
41
1
41
1
41
1
41
1
41
1
41
1
41
1
41
1
41
1
41
1
41
1
41
1
41
1
41
1
41
1
41
1
41
1
41
1
41
1
41
1
41
1
41
1
41
1
41
1
41
1
10
0
20
3
30
0
10
0.019352122003850031
20
2.9830308273629731
30
0
10
0.058136500954207651
20
2.9511324768736333
30
0
10
0.11655347305073323
20
2.9094049042448704
30
0
10
0.19492366484080717
20
2.8660103109166668
30
0
10
0.29367444199286546
20
2.8317937527228203
30
0
10
0.39317228689379174
20
2.8164579849115996
30
0
10
0.49333432264087901
20
2.8176867931954326
30
0
10
0.59402256232946704
20
2.8316244101908232
30
0
10
0.69502750472272146
20
2.8524197761023413
30
0
10
0.79610965564553482
20
2.8733364982568133
30
0
10
0.89704456443850433
20
2.8879581251391091
30
0
10
0.99766688159133265
20
2.8913661568995681
30
0
10
1.0979141886413581
20
2.8813136547935643
30
0
10
1.1978728298821362
20
2.8594481052840877
30
0
10
1.2977211723359683
20
2.8299847029668603
30
0
10
1.3976706911049166
20
2.7983253717654488
30
0
10
1.4979076444339583
20
2.769693239609754
30
0
10
1.5985350588946687
20
2.7477736928785368
30
0
10
1.6995129790623769
20
2.7333161074166594
30
0
10
1.8007061776021496
20
2.7252163139032892
30
0
10
1.9019339819772441
20
2.7216496249558797
30
0
10
2.0030189657399982
20
2.7211743728038873
30
0
10
2.1038368367368014
20
2.7238712830458884
30
0
10
2.2043638213820191
20
2.732403506733085
30
0
10
2.3046381457243297
20
2.7503567505597655
30
0
10
2.4047234755100795
20
2.7806353543639379
30
0
10
2.504672112379891
20
2.8238633073117336
30
0
10
2.6044872224518429
20
2.876721749803437
30
0
10
2.7040884689701361
20
2.9304806113239197
30
0
10
2.8033583021655231
20
2.9740571314156621
30
0
10
2.9021850291204982
20
2.9968941862680025
30
0
10
3.0005070614338472
20
2.9919043477001495
30
0
10
3.0983567604567219
20
2.958392274704376
30
0
10
3.1959042990805924
20
2.9049767517914775
30
0
10
3.2934015059977853
20
2.8456292046708369
30
0
10
3.3911267269800405
20
2.7957890823136773
30
0
10
3.4893282013949007
20
2.7683595797879872
30
0
10
3.588170658017384
20
2.7699658249377634
30
0
10
3.6876735473037456
20
2.7965298901469642
30
0
10
3.7877464401962109
20
2.8367563831353371
30
0
10
3.8882347163208748
20
2.8764357049759086
30
0
10
3.9889621924801322
20
2.9025461583443861
30
0
10
4.0897735065373189
20
2.9072282419788289
30
0
10
4.1905806374879369
20
2.8923825270229169
30
0
10
4.2913540753052999
20
2.8665340996765694
30
0
10
4.3921075256928335
20
2.8408427905721991
30
0
10
4.4928850752603378
20
2.8253613489125842
30
0
10
4.5937470786710835
20
2.8253253600490136
30
0
10
4.6947573184647613
20
2.8370595316369536
30
0
10
4.7959557207898893
20
2.851364828103784
30
0
10
4.8973302506868501
20
2.8574271593261811
30
0
10
4.9987888756390042
20
2.8465466215845545
30
0
10
5.1001318935837965
20
2.8159162959340729
30
0
10
5.20102282884279
20
2.7724569062385029
30
0
10
5.3010840859236126
20
2.7288174970314385
30
0
10
5.3999935417215461
20
2.6992988897182331
30
0
10
5.497581686699256
20
2.6957800444878091
30
0
10
5.5939266121245801
20
2.7237062738370503
30
0
10
5.6894554967093782
20
2.7778741489735919
30
0
10
5.784802708338229
20
2.8461302333661234
30
0
10
5.8806645452892123
20
2.9132021860936468
30
0
10
5.9776495926709199
20
2.9646196673857932
30
0
10
6.0761438890784643
20
2.9902744350288701
30
0
10
6.1761360158179848
20
2.988971987993299
30
0
10
6.2772972649231047
20
2.9666502897930869
30
0
10
6.3791296107863973
20
2.9329167548706248
30
0
10
6.4810942194782548
20
2.8980623771334981
30
0
10
6.5827400080853993
20
2.8700884980791774
30
0
10
6.6838531790418712
20
2.8511766920490778
30
0
10
6.7844241724093068
20
2.8389440715394647
30
0
10
6.8845748673086931
20
2.8287245757011132
30
0
10
6.9844984984088132
20
2.8155497548847608
30
0
10
7.0843968616658231
20
2.7961278974749271
30
0
10
7.1844119513587401
20
2.7711588527736879
30
0
10
7.2846256977153878
20
2.7442759545010533
30
0
10
7.385071997083803
20
2.720416046869591
30
0
10
7.4857443599175308
20
2.7043521942520359
30
0
10
7.5866054093686994
20
2.6992472228857096
30
0
10
7.6875954687938535
20
2.7049624426076164
30
0
10
7.7886424117649735
20
2.7189437269637335
30
0
10
7.8896714286743661
20
2.7374967389259055
30
0
10
7.9906149681872769
20
2.7569464776925541
30
0
10
8.0914222941720872
20
2.7747936773975654
30
0
10
8.1920700568567089
20
2.7910111277598522
30
0
10
8.2925595146130142
20
2.8071798598248336
30
0
10
8.3929124771958783
20
2.8254245362117754
30
0
10
8.4931677717830762
20
2.8474050363256058
30
0
10
8.5933773877576218
20
2.8733223860674038
30
0
10
8.6936030742223718
20
2.9008148039666444
30
0
10
8.7939066785980184
20
2.9259965603567055
30
0
10
8.894340151832715
20
2.9446363717854358
30
0
10
8.9949355375589395
20
2.9532966462449357
30
0
10
9.0956952557778337
20
2.9504621398517865
30
0
10
9.1965814276677698
20
2.9377488298117411
30
0
10
9.2975280538040135
20
2.9190205578818369
30
0
10
9.3984542691374031
20
2.8994052859391317
30
0
10
9.4992772088477988
20
2.8843479364097657
30
0
10
9.5999249977009633
20
2.8786508363485703
30
0
10
9.7003497932943556
20
2.8855119159041291
30
0
10
9.8005230241102499
20
2.9068417671110351
30
0
10
9.8804490049755973
20
2.9362405101740703
30
0
10
9.9402718137065911
20
2.965367978761404
30
0
10
9.9800996162248765
20
2.9879317501607265
30
0
10
10
20
3
30
0
0
ENDSEC
0
SECTION
2
OBJECTS
0
DICTIONARY
5
C
100
AcDbDictionary
3
ACAD_GROUP
350
D
3
ACAD_MLINESTYLE
350
17
0
DICTIONARY
5
D
100
AcDbDictionary
0
DICTIONARY
5
1A
330
C
100
AcDbDictionary
0
DICTIONARY
5
17
100
AcDbDictionary
0
ENDSEC
0
EOF
