0
SECTION
2
HEADER
9
$INSUNITS
70
4
9
$ACADVER
1
AC1014
9
$HANDSEED
5
FFFF
0
ENDSEC
0
SECTION
2
TABLES
0
TABLE
2
VPORT
5
8
100
AcDbSymbolTable
0
ENDTAB
0
TABLE
2
LTYPE
5
5
100
AcDbSymbolTable
0
LTYPE
5
14
100
AcDbSymbolTableRecord
100
AcDbLinetypeTableRecord
2
BYBLOCK
70
0
0
LTYPE
5
15
100
AcDbSymbolTableRecord
100
AcDbLinetypeTableRecord
2
BYLAYER
70
0
0
ENDTAB
0
TABLE
2
LAYER
5
2
100
AcDbSymbolTable
70
2
0
LAYER
5
50
100
AcDbSymbolTableRecord
100
AcDbLayerTableRecord
2
0
70
0
6
CONTINUOUS
0
ENDTAB
0
TABLE
2
STYLE
5
3
100
AcDbSymbolTable
70
1
0
STYLE
5
11
100
AcDbSymbolTableRecord
100
AcDbTextStyleTableRecord
2
STANDARD
70
0
0
ENDTAB
0
TABLE
2
VIEW
5
6
100
AcDbSymbolTable
70
0
0
ENDTAB
0
TABLE
2
UCS
5
7
100
AcDbSymbolTable
70
0
0
ENDTAB
0
TABLE
2
APPID
5
9
100
AcDbSymbolTable
70
2
0
APPID
5
12
100
AcDbSymbolTableRecord
100
AcDbRegAppTableRecord
2
ACAD
70
0
0
ENDTAB
0
TABLE
2
DIMSTYLE
5
A
100
AcDbSymbolTable
70
1
0
ENDTAB
0
TABLE
2
BLOCK_RECORD
5
1
100
AcDbSymbolTable
70
1
0
BLOCK_RECORD
5
1F
100
AcDbSymbolTableRecord
100
AcDbBlockTableRecord
2
*MODEL_SPACE
0
BLOCK_RECORD
5
1B
100
AcDbSymbolTableRecord
100
AcDbBlockTableRecord
2
*PAPER_SPACE
0
ENDTAB
0
ENDSEC
0
SECTION
2
BLOCKS
0
BLOCK
5
20
100
AcDbEntity
100
AcDbBlockBegin
2
*MODEL_SPACE
0
ENDBLK
5
21
100
AcDbEntity
100
AcDbBlockEnd
0
BLOCK
5
1C
100
AcDbEntity
100
AcDbBlockBegin
2
*PAPER_SPACE
0
ENDBLK
5
1D
100
AcDbEntity
100
AcDbBlockEnd
0
ENDSEC
0
SECTION
2
ENTITIES
0
SPLINE
5
100
100
AcDbEntity
8
0
100
AcDbSpline
70
4
71
5
72
16
73
10
74
0
42
0.000000001
43
0.0000000001
44
0.0000000001
40
0
40
0
40
0
40
0
40
0
40
0
40
0.20000000000000001
40
0.40000000000000002
40
0.60000000000000009
40
0.80000000000000004
40
1
40
1
40
1
40
1
40
1
40
1
41
1
41
1
41
1
41
1
41
1
41
1
41
1
41
1
41
1
41
1
10
0
20
0
30
0
10
0
20
0.12000000000003158
30
0
10
0
20
0.36000000000007704
30
0
10
0
20
0.72000000000009301
30
0
10
0
20
1.2000000000000313
30
0
10
0
20
1.7999999999999146
30
0
10
0
20
2.2799999999998684
30
0
10
0
20
2.6399999999999042
30
0
10
0
20
2.8799999999999617
30
0
10
0
20
3
30
0
0
SPLINE
5
101
100
AcDbEntity
8
0
100
AcDbSpline
70
4
71
5
72
16
73
10
74
0
42
0.000000001
43
0.0000000001
44
0.0000000001
40
0
40
0
40
0
40
0
40
0
40
0
40
0.20000000000000001
40
0.40000000000000002
40
0.60000000000000009
40
0.80000000000000004
40
1
40
1
40
1
40
1
40
1
40
1
41
1
41
1
41
1
41
1
41
1
41
1
41
1
41
1
41
1
41
1
10
10
20
0
30
0
10
9.9999999999997495
20
0.12000000000003158
30
0
10
9.9999999999993197
20
0.36000000000007704
30
0
10
9.9999999999989129
20
0.72000000000009301
30
0
10
9.9999999999987672
20
1.2000000000000313
30
0
10
9.9999999999990248
20
1.7999999999999146
30
0
10
9.9999999999993889
20
2.2799999999998684
30
0
10
9.9999999999996998
20
2.6399999999999042
30
0
10
9.9999999999999005
20
2.8799999999999617
30
0
10
10
20
3
30
0
0
SPLINE
5
102
100
AcDbEntity
8
0
100
AcDbSpline
70
4
71
5
72
16
73
10
74
0
42
0.000000001
43
0.0000000001
44
0.0000000001
40
0
40
0
40
0
40
0
40
0
40
0
40
0.20000000000000001
40
0.40000000000000002
40
0.60000000000000009
40
0.80000000000000004
40
1
40
1
40
1
40
1
40
1
40
1
41
1
41
1
41
1
41
1
41
1
41
1
41
1
41
1
41
1
41
1
10
0
20
1.5
30
0
10
0.40000000000047375
20
1.499999999999694
30
0
10
1.2000000000012774
20
1.4999999999991638
30
0
10
2.4000000000020547
20
1.4999999999986278
30
0
10
4.0000000000023546
20
1.4999999999983737
30
0
10
6.0000000000019584
20
1.4999999999985913
30
0
10
7.6000000000012928
20
1.4999999999990359
30
0
10
8.800000000000697
20
1.4999999999994786
30
0
10
9.6000000000002395
20
1.4999999999998188
30
0
10
10
20
1.5
30
0
0
SPLINE
5
103
100
AcDbEntity
8
0
100
AcDbSpline
70
4
71
5
72
111
73
105
74
0
42
0.000000001
43
0.0000000001
44
0.0000000001
40
0
40
0
40
0
40
0
40
0
40
0
40
0.01
40
0.02
40
0.029999999999999999
40
0.040000000000000001
40
0.050000000000000003
40
0.060000000000000005
40
0.070000000000000007
40
0.080000000000000002
40
0.089999999999999997
40
0.099999999999999992
40
0.10999999999999999
40
0.11999999999999998
40
0.12999999999999998
40
0.13999999999999999
40
0.14999999999999999
40
0.16
40
0.17000000000000001
40
0.18000000000000002
40
0.19000000000000003
40
0.20000000000000004
40
0.21000000000000005
40
0.22000000000000006
40
0.23000000000000007
40
0.24000000000000007
40
0.25000000000000006
40
0.26000000000000006
40
0.27000000000000007
40
0.28000000000000008
40
0.29000000000000009
40
0.3000000000000001
40
0.31000000000000011
40
0.32000000000000012
40
0.33000000000000013
40
0.34000000000000014
40
0.35000000000000014
40
0.36000000000000015
40
0.37000000000000016
40
0.38000000000000017
40
0.39000000000000018
40
0.40000000000000019
40
0.4100000000000002
40
0.42000000000000021
40
0.43000000000000022
40
0.44000000000000022
40
0.45000000000000023
40
0.46000000000000024
40
0.47000000000000025
40
0.48000000000000026
40
0.49000000000000027
40
0.50000000000000022
40
0.51000000000000023
40
0.52000000000000024
40
0.53000000000000025
40
0.54000000000000026
40
0.55000000000000027
40
0.56000000000000028
40
0.57000000000000028
40
0.58000000000000029
40
0.5900000000000003
40
0.60000000000000031
40
0.61000000000000032
40
0.62000000000000033
40
0.63000000000000034
40
0.64000000000000035
40
0.65000000000000036
40
0.66000000000000036
40
0.67000000000000037
40
0.68000000000000038
40
0.69000000000000039
40
0.7000000000000004
40
0.71000000000000041
40
0.72000000000000042
40
0.73000000000000043
40
0.74000000000000044
40
0.75000000000000044
40
0.76000000000000045
40
0.77000000000000046
40
0.78000000000000047
40
0.79000000000000048
40
0.80000000000000049
40
0.8100000000000005
40
0.82000000000000051
40
0.83000000000000052
40
0.84000000000000052
40
0.85000000000000053
40
0.86000000000000054
40
0.87000000000000055
40
0.88000000000000056
40
0.89000000000000057
40
0.90000000000000058
40
0.91000000000000059
40
0.9200000000000006
40
0.9300000000000006
40
0.94000000000000061
40
0.95000000000000062
40
0.96000000000000063
40
0.97000000000000064
40
0.98000000000000065
40
0.99000000000000066
40
1
40
1
40
1
40
1
40
1
40
1
41
1
41
1
41
1
41
1
41
1
41
1
41
1
41
1
41
1
41
1
41
1
41
1
41
1
41
1
41
1
41
1
41
1
41
1
41
1
41
1
41
1
41
1
41
1
41
1
41
1
41
1
41
1
41
1
41
1
41
1
41
1
41
1
41
1
41
1
41
1
41
1
41
1
41
1
41
1
41
1
41
1
41
1
41
1
41
1
41
1
41
1
41
1
41
1
41
1
41
1
41
1
41
1
41
1
41
1
41
1
41
1
41
1
41
1
41
1
41
1
41
1
41
1
41
1
41
1
41
1
41
1
41
1
41
1
41
1
41
1
41
1
41
1
41
1
41
1
41
1
41
1
41
1
41
1
41
1
41
1
41
1
41
1
41
1
41
1
41
1
41
1
41
1
41
1
41
1
41
1
41
1
41
1
41
1
41
1
41
1
41
1
41
1
41
1
41
1
41
1
41
1
41
1
41
1
41
1
41
1
10
0
20
0
30
0
10
0.019790068046253467
20
0.0098495331393418165
30
0
10
0.059399742120844062
20
0.028739578747912664
30
0
10
0.11890286723775739
20
0.054647583918253077
30
0
10
0.1984176237427078
20
0.084336684871692602
30
0
10
0.29810696697330635
20
0.11334763619730319
30
0
10
0.39809332063450437
20
0.13423952665963304
30
0
10
0.49837871056319899
20
0.14698067044149996
30
0
10
0.59896628395454932
20
0.15152431311465686
30
0
10
0.6998606887503227
20
0.14780304143931813
30
0
10
0.80105353382706734
20
0.13603034353263471
30
0
10
0.90250844982720713
20
0.11701008204719725
30
0
10
1.0041466349669241
20
0.092436726301800748
30
0
10
1.1058313525238945
20
0.065215447996998299
30
0
10
1.2073551088210051
20
0.039731663416655509
30
0
10
1.3084925210080298
20
0.020870286707336309
30
0
10
1.4090515938034465
20
0.013067462232281734
30
0
10
1.5089241786862182
20
0.019372956940373463
30
0
10
1.6081401397568695
20
0.04045395464672457
30
0
10
1.7069105379550942
20
0.073775116655658959
30
0
10
1.8055452332927109
20
0.11480573801148317
30
0
10
1.9043791759021911
20
0.15808439536891467
30
0
10
2.003696152135404
20
0.19832916121836849
30
0
10
2.103651905552403
20
0.23154639202056485
30
0
10
2.2042021621669514
20
0.25609019242254094
30
0
10
2.3051796862796374
20
0.27208361735346065
30
0
10
2.4063669604702334
20
0.2808954731737674
30
0
10
2.5075689749395962
20
0.28460015567902613
30
0
10
2.6086894201797861
20
0.28543823799358886
30
0
10
2.709795709083914
20
0.28529741348802812
30
0
10
2.8110329212788905
20
0.28554798457789643
30
0
10
2.9125452650684789
20
0.28684701926097578
30
0
10
3.0143984598859586
20
0.28897126340169893
30
0
10
3.1164929397239396
20
0.29059699113933329
30
0
10
3.2185064882219052
20
0.28921958651784341
30
0
10
3.3200276075006223
20
0.281944053076083
30
0
10
3.4206715146077786
20
0.2661994062453909
30
0
10
3.5201957790493701
20
0.24044500269630131
30
0
10
3.6186327326503784
20
0.20496878204088298
30
0
10
3.716364655179774
20
0.16238005316390014
30
0
10
3.8139525073710931
20
0.11677983379664129
30
0
10
3.9119985880760129
20
0.073122607073374854
30
0
10
4.0110000276200877
20
0.036506591025842465
30
0
10
4.1111967331977777
20
0.011488751872215219
30
0
10
4.2124487850994585
20
0.0014075427590007532
30
0
10
4.3143818397943452
20
0.0079629472552424207
30
0
10
4.4165104035116904
20
0.030737848672593278
30
0
10
4.5183646847408072
20
0.066806863533703603
30
0
10
4.6196271605920343
20
0.1101513675618129
30
0
10
4.7202313465309444
20
0.15161726218701932
30
0
10
4.8202686123670038
20
0.18141864270387592
30
0
10
4.9199190958904184
20
0.19137878616664802
30
0
10
5.0193764111088646
20
0.17712371611678918
30
0
10
5.1187677651488492
20
0.14065061222894104
30
0
10
5.2180979706015487
20
0.091675164741451542
30
0
10
5.3173065823669088
20
0.043568164385186646
30
0
10
5.4163095976433508
20
0.0099890164431420455
30
0
10
5.5150456153458567
20
0.0013923489339858692
30
0
10
5.6135237211071729
20
0.021249934901815301
30
0
10
5.7118599625710296
20
0.063386817799617398
30
0
10
5.8102377931204163
20
0.11630624019093573
30
0
10
5.9088774429521029
20
0.16673971191972919
30
0
10
6.0080018764468912
20
0.20341551676808375
30
0
10
6.107804182961738
20
0.22091925605536758
30
0
10
6.2084144762621101
20
0.22299340512839111
30
0
10
6.3098733442801116
20
0.21845219152328932
30
0
10
6.4121031147036813
20
0.21752965509311917
30
0
10
6.514883086980011
20
0.22821398861480952
30
0
10
6.6178155129422187
20
0.25223838957679628
30
0
10
6.7203172719973017
20
0.28223830455370502
30
0
10
6.8217678065282827
20
0.30637609192459908
30
0
10
6.9216437808260984
20
0.31223779479122682
30
0
10
7.019650683148714
20
0.29079448744838843
30
0
10
7.1158751399916333
20
0.2408424990310325
30
0
10
7.2108700786799771
20
0.17171074170708672
30
0
10
7.3054423301767297
20
0.09816159439763826
30
0
10
7.4004833646176831
20
0.03642711581463625
30
0
10
7.4967822862456659
20
-0.00022485651343918863
30
0
10
7.5948486960864647
20
-0.0056584061227374395
30
0
10
7.6947247346525627
20
0.014660322471280013
30
0
10
7.7961060714464487
20
0.048068458104225283
30
0
10
7.8984704566595347
20
0.079335793115530934
30
0
10
8.0012031917541933
20
0.095197643931086623
30
0
10
8.1037241982764865
20
0.088957948392720337
30
0
10
8.2056133115934564
20
0.064986087909631743
30
0
10
8.3066059096142091
20
0.03444158073918769
30
0
10
8.40659004786834
20
0.011061089204433784
30
0
10
8.5056027001029069
20
0.0069759145464712074
30
0
10
8.6038275100874948
20
0.028398401535902444
30
0
10
8.7015890898677828
20
0.071694815135882869
30
0
10
8.7992810405874451
20
0.12698021729367198
30
0
10
8.8972973531666781
20
0.18134954940828032
30
0
10
8.995961970348203
20
0.2222665616151609
30
0
10
9.0954604309320644
20
0.24083133891687092
30
0
10
9.1957668910272901
20
0.23524905292516471
30
0
10
9.2967016707792087
20
0.20901935484219533
30
0
10
9.3979934190631482
20
0.16894134264962804
30
0
10
9.4993395836478633
20
0.1231862721642585
30
0
10
9.6004674105342662
20
0.079347731494820106
30
0
10
9.7011951439529547
20
0.042488502036062768
30
0
10
9.8014140700208667
20
0.015638115359400191
30
0
10
9.8811388374680558
20
0.0033736105101009398
30
0
10
9.9406710455877718
20
-0.00041620021695610074
30
0
10
9.9802430393390047
20
-0.00053930525076376968
30
0
10
10
20
0
30
0
0
SPLINE
5
104
100
AcDbEntity
8
0
100
AcDbSpline
70
4
71
5
72
111
73
105
74
0
42
0.000000001
43
0.0000000001
44
0.0000000001
40
0
40
0
40
0
40
0
40
0
40
0
40
0.01
40
0.02
40
0.029999999999999999
40
0.040000000000000001
40
0.050000000000000003
40
0.060000000000000005
40
0.070000000000000007
40
0.080000000000000002
40
0.089999999999999997
40
0.099999999999999992
40
0.10999999999999999
40
0.11999999999999998
40
0.12999999999999998
40
0.13999999999999999
40
0.14999999999999999
40
0.16
40
0.17000000000000001
40
0.18000000000000002
40
0.19000000000000003
40
0.20000000000000004
40
0.21000000000000005
40
0.22000000000000006
40
0.23000000000000007
40
0.24000000000000007
40
0.25000000000000006
40
0.26000000000000006
40
0.27000000000000007
40
0.28000000000000008
40
0.29000000000000009
40
0.3000000000000001
40
0.31000000000000011
40
0.32000000000000012
40
0.33000000000000013
40
0.34000000000000014
40
0.35000000000000014
40
0.36000000000000015
40
0.37000000000000016
40
0.38000000000000017
40
0.39000000000000018
40
0.40000000000000019
40
0.4100000000000002
40
0.42000000000000021
40
0.43000000000000022
40
0.44000000000000022
40
0.45000000000000023
40
0.46000000000000024
40
0.47000000000000025
40
0.48000000000000026
40
0.49000000000000027
40
0.50000000000000022
40
0.51000000000000023
40
0.52000000000000024
40
0.53000000000000025
40
0.54000000000000026
40
0.55000000000000027
40
0.56000000000000028
40
0.57000000000000028
40
0.58000000000000029
40
0.5900000000000003
40
0.60000000000000031
40
0.61000000000000032
40
0.62000000000000033
40
0.63000000000000034
40
0.64000000000000035
40
0.65000000000000036
40
0.66000000000000036
40
0.67000000000000037
40
0.68000000000000038
40
0.69000000000000039
40
0.7000000000000004
40
0.71000000000000041
40
0.72000000000000042
40
0.73000000000000043
40
0.74000000000000044
40
0.75000000000000044
40
0.76000000000000045
40
0.77000000000000046
40
0.78000000000000047
40
0.79000000000000048
40
0.80000000000000049
40
0.8100000000000005
40
0.82000000000000051
40
0.83000000000000052
40
0.84000000000000052
40
0.85000000000000053
40
0.86000000000000054
40
0.87000000000000055
40
0.88000000000000056
40
0.89000000000000057
40
0.90000000000000058
40
0.91000000000000059
40
0.9200000000000006
40
0.9300000000000006
40
0.94000000000000061
40
0.95000000000000062
40
0.96000000000000063
40
0.97000000000000064
40
0.98000000000000065
40
0.99000000000000066
40
1
40
1
40
1
40
1
40
1
40
1
41
1
41
1
41
1
41
1
41
1
41
1
41
1
41
1
41
1
41
1
41
1
41
1
41
1
41
1
41
1
41
1
41
1
41
1
41
1
41
1
41
1
41
1
41
1
41
1
41
1
41
1
41
1
41
1
41
1
41
1
41
1
41
1
41
1
41
1
41
1
41
1
41
1
41
1
41
1
41
1
41
1
41
1
41
1
41
1
41
1
41
1
41
1
41
1
41
1
41
1
41
1
41
1
41
1
41
1
41
1
41
1
41
1
41
1
41
1
41
1
41
1
41
1
41
1
41
1
41
1
41
1
41
1
41
1
41
1
41
1
41
1
41
1
41
1
41
1
41
1
41
1
41
1
41
1
41
1
41
1
41
1
41
1
41
1
41
1
41
1
41
1
41
1
41
1
41
1
41
1
41
1
41
1
41
1
41
1
41
1
41
1
41
1
41
1
41
1
41
1
41
1
41
1
41
1
41
1
41
1
10
0
20
3
30
0
10
0.019444652290699384
20
2.9945283025515828
30
0
10
0.058394121187098552
20
2.983324034592882
30
0
10
0.11699881698629318
20
2.9657350427270024
30
0
10
0.19549945931998378
20
2.9407173648251312
30
0
10
0.29421943965576891
20
2.9071007096622208
30
0
10
0.39351037695621649
20
2.8719322225446602
30
0
10
0.49332523750824775
20
2.8368079695885355
30
0
10
0.59358551339717069
20
2.8043726411293939
30
0
10
0.69417220031253601
20
2.778645527038174
30
0
10
0.79494121240144566
20
2.7639050574658701
30
0
10
0.89574031444427049
20
2.7634886956304432
30
0
10
0.99642556868021082
20
2.7786083468452896
30
0
10
1.0968778206313052
20
2.8071917163083695
30
0
10
1.1970196424001192
20
2.8426187178048883
30
0
10
1.2968144883325226
20
2.8758902121833247
30
0
10
1.3962651985827093
20
2.8978999478071108
30
0
10
1.4954128588822404
20
2.9016945370613061
30
0
10
1.5943353328110221
20
2.8846790042148491
30
0
10
1.6931465132920867
20
2.8510122808085909
30
0
10
1.7919795699001808
20
2.8092090633244142
30
0
10
1.8909696183075981
20
2.7695518896451214
30
0
10
1.9902363717370521
20
2.7415273805349427
30
0
10
2.0898673257468139
20
2.7313594705977415
30
0
10
2.1898992657037568
20
2.7392125085348207
30
0
10
2.2903217869140833
20
2.7607509532110663
30
0
10
2.3910830927206019
20
2.7891202351347175
30
0
10
2.492094745269684
20
2.8167970267864666
30
0
10
2.5932372919331708
20
2.8374424356946455
30
0
10
2.6943642569982691
20
2.8478923971479144
30
0
10
2.79532879336083
20
2.8475889493526854
30
0
10
2.8960118631037379
20
2.8378102334637805
30
0
10
2.9963502514118829
20
2.8209714803141148
30
0
10
3.0963638383411025
20
2.7999046817734587
30
0
10
3.1961855411726994
20
2.7771268399657592
30
0
10
3.2960073183590035
20
2.7548790768258029
30
0
10
3.3960235051571215
20
2.735194365780786
30
0
10
3.4963746102165456
20
2.7199564248997774
30
0
10
3.5970921061028758
20
2.7109577543486947
30
0
10
3.6980394122304943
20
2.7099701853241518
30
0
10
3.7989827129034284
20
2.7183381173543539
30
0
10
3.8996660363683944
20
2.736555687131542
30
0
10
3.9998847943993998
20
2.7638486923905061
30
0
10
4.0995598738413488
20
2.7977551779059393
30
0
10
4.1988118879450864
20
2.8337015466321769
30
0
10
4.2978849297207686
20
2.8662243629860344
30
0
10
4.3970702570448239
20
2.8901900838506562
30
0
10
4.4966295374432539
20
2.9020263700099882
30
0
10
4.5967194584170628
20
2.9009244382074391
30
0
10
4.6973124573123455
20
2.8901236055006252
30
0
10
4.7982546166569513
20
2.875309510850685
30
0
10
4.8993276897817593
20
2.862925129026257
30
0
10
5.0003095310772139
20
2.8585156072359097
30
0
10
5.1010352446180978
20
2.8650561671011818
30
0
10
5.2014578881455549
20
2.881292216810587
30
0
10
5.3016210268742503
20
2.903268630146842
30
0
10
5.4016314773584986
20
2.9258548758687879
30
0
10
5.5016320263177363
20
2.9442644322257694
30
0
10
5.6017742026637363
20
2.9555906341326716
30
0
10
5.7021910183709235
20
2.9602976082104311
30
0
10
5.8029731562985187
20
2.9608324689027055
30
0
10
5.9041446742072656
20
2.9602698651573074
30
0
10
6.0056396552797207
20
2.9609669040962543
30
0
10
6.1072765348266991
20
2.9631631784587036
30
0
10
6.2087385784362459
20
2.9637445556916124
30
0
10
6.309664780798264
20
2.9580310012554518
30
0
10
6.4097366853263624
20
2.9414418430452822
30
0
10
6.5087644774712414
20
2.9111649356154978
30
0
10
6.6067787432646741
20
2.8679227309385249
30
0
10
6.7041047824156905
20
2.8174188652633108
30
0
10
6.8012293722111972
20
2.7679470884656454
30
0
10
6.8986826565062191
20
2.7282801333843718
30
0
10
6.9969135380143657
20
2.7054381088176389
30
0
10
7.0961696453857925
20
2.702541382971881
30
0
10
7.1963701667900084
20
2.7165316043144561
30
0
10
7.297219385877125
20
2.7403377074540689
30
0
10
7.3983262579972493
20
2.7651535848449238
30
0
10
7.4993218842398086
20
2.782676603218952
30
0
10
7.5999774271018596
20
2.78735516377365
30
0
10
7.7003231222328781
20
2.7786542509467518
30
0
10
7.8005476425290556
20
2.7596863216560159
30
0
10
7.9008957308226044
20
2.7358162259060688
30
0
10
8.0015669720704956
20
2.7132803147576072
30
0
10
8.1026130627415025
20
2.6977941599810777
30
0
10
8.2038384301441134
20
2.6931826526225855
30
0
10
8.3049112840181607
20
2.7014274150729878
30
0
10
8.4054722529558266
20
2.7226899364454682
30
0
10
8.505242523086519
20
2.7553485525932917
30
0
10
8.6041353622618288
20
2.7960142645909905
30
0
10
8.7023574381850981
20
2.8395940433929341
30
0
10
8.8002923284985037
20
2.8803355439415883
30
0
10
8.898393791727699
20
2.91282633374635
30
0
10
8.997074850187964
20
2.9330167552523982
30
0
10
9.0965999846333787
20
2.9392185421951482
30
0
10
9.196972239261731
20
2.9331563130605147
30
0
10
9.2980038561773242
20
2.9189700876279607
30
0
10
9.3993914176835904
20
2.9021666247806799
30
0
10
9.5007891679995851
20
2.8885918105420565
30
0
10
9.6018832442753048
20
2.8833919107579877
30
0
10
9.7024650117079112
20
2.8899867758609474
30
0
10
9.8024095421967914
20
2.9104227351355467
30
0
10
9.8818056512684684
20
2.9386579204945749
30
0
10
9.9410287846111416
20
2.9666707747264356
30
0
10
9.9803669204079739
20
2.9883839369185905
30
0
10
10
20
3
30
0
0
ENDSEC
0
SECTION
2
OBJECTS
0
DICTIONARY
5
C
100
AcDbDictionary
3
ACAD_GROUP
350
D
3
ACAD_MLINESTYLE
350
17
0
DICTIONARY
5
D
100
AcDbDictionary
0
DICTIONARY
5
1A
330
C
100
AcDbDictionary
0
DICTIONARY
5
17
100
AcDbDictionary
0
ENDSEC
0
EOF
