0
SECTION
2
HEADER
9
$INSUNITS
70
4
9
$ACADVER
1
AC1014
9
$HANDSEED
5
FFFF
0
ENDSEC
0
SECTION
2
TABLES
0
TABLE
2
VPORT
5
8
100
AcDbSymbolTable
0
ENDTAB
0
TABLE
2
LTYPE
5
5
100
AcDbSymbolTable
0
LTYPE
5
14
100
AcDbSymbolTableRecord
100
AcDbLinetypeTableRecord
2
BYBLOCK
70
0
0
LTYPE
5
15
100
AcDbSymbolTableRecord
100
AcDbLinetypeTableRecord
2
BYLAYER
70
0
0
ENDTAB
0
TABLE
2
LAYER
5
2
100
AcDbSymbolTable
70
2
0
LAYER
5
50
100
AcDbSymbolTableRecord
100
AcDbLayerTableRecord
2
0
70
0
6
CONTINUOUS
0
ENDTAB
0
TABLE
2
STYLE
5
3
100
AcDbSymbolTable
70
1
0
STYLE
5
11
100
AcDbSymbolTableRecord
100
AcDbTextStyleTableRecord
2
STANDARD
70
0
0
ENDTAB
0
TABLE
2
VIEW
5
6
100
AcDbSymbolTable
70
0
0
ENDTAB
0
TABLE
2
UCS
5
7
100
AcDbSymbolTable
70
0
0
ENDTAB
0
TABLE
2
APPID
5
9
100
AcDbSymbolTable
70
2
0
APPID
5
12
100
AcDbSymbolTableRecord
100
AcDbRegAppTableRecord
2
ACAD
70
0
0
ENDTAB
0
TABLE
2
DIMSTYLE
5
A
100
AcDbSymbolTable
70
1
0
ENDTAB
0
TABLE
2
BLOCK_RECORD
5
1
100
AcDbSymbolTable
70
1
0
BLOCK_RECORD
5
1F
100
AcDbSymbolTableRecord
100
AcDbBlockTableRecord
2
*MODEL_SPACE
0
BLOCK_RECORD
5
1B
100
AcDbSymbolTableRecord
100
AcDbBlockTableRecord
2
*PAPER_SPACE
0
ENDTAB
0
ENDSEC
0
SECTION
2
BLOCKS
0
BLOCK
5
20
100
AcDbEntity
100
AcDbBlockBegin
2
*MODEL_SPACE
0
ENDBLK
5
21
100
AcDbEntity
100
AcDbBlockEnd
0
BLOCK
5
1C
100
AcDbEntity
100
AcDbBlockBegin
2
*PAPER_SPACE
0
ENDBLK
5
1D
100
AcDbEntity
100
AcDbBlockEnd
0
ENDSEC
0
SECTION
2
ENTITIES
0
SPLINE
5
100
100
AcDbEntity
8
0
100
AcDbSpline
70
4
71
5
72
16
73
10
74
0
42
0.000000001
43
0.0000000001
44
0.0000000001
40
0
40
0
40
0
40
0
40
0
40
0
40
0.20000000000000001
40
0.40000000000000002
40
0.60000000000000009
40
0.80000000000000004
40
1
40
1
40
1
40
1
40
1
40
1
41
1
41
1
41
1
41
1
41
1
41
1
41
1
41
1
41
1
41
1
10
0
20
0
30
0
10
0
20
0.12000000000003158
30
0
10
0
20
0.36000000000007704
30
0
10
0
20
0.72000000000009301
30
0
10
0
20
1.2000000000000313
30
0
10
0
20
1.7999999999999146
30
0
10
0
20
2.2799999999998684
30
0
10
0
20
2.6399999999999042
30
0
10
0
20
2.8799999999999617
30
0
10
0
20
3
30
0
0
SPLINE
5
101
100
AcDbEntity
8
0
100
AcDbSpline
70
4
71
5
72
16
73
10
74
0
42
0.000000001
43
0.0000000001
44
0.0000000001
40
0
40
0
40
0
40
0
40
0
40
0
40
0.20000000000000001
40
0.40000000000000002
40
0.60000000000000009
40
0.80000000000000004
40
1
40
1
40
1
40
1
40
1
40
1
41
1
41
1
41
1
41
1
41
1
41
1
41
1
41
1
41
1
41
1
10
10
20
0
30
0
10
9.9999999999997495
20
0.12000000000003158
30
0
10
9.9999999999993197
20
0.36000000000007704
30
0
10
9.9999999999989129
20
0.72000000000009301
30
0
10
9.9999999999987672
20
1.2000000000000313
30
0
10
9.9999999999990248
20
1.7999999999999146
30
0
10
9.9999999999993889
20
2.2799999999998684
30
0
10
9.9999999999996998
20
2.6399999999999042
30
0
10
9.9999999999999005
20
2.8799999999999617
30
0
10
10
20
3
30
0
0
SPLINE
5
102
100
AcDbEntity
8
0
100
AcDbSpline
70
4
71
5
72
16
73
10
74
0
42
0.000000001
43
0.0000000001
44
0.0000000001
40
0
40
0
40
0
40
0
40
0
40
0
40
0.20000000000000001
40
0.40000000000000002
40
0.60000000000000009
40
0.80000000000000004
40
1
40
1
40
1
40
1
40
1
40
1
41
1
41
1
41
1
41
1
41
1
41
1
41
1
41
1
41
1
41
1
10
0
20
1.5
30
0
10
0.40000000000047375
20
1.499999999999694
30
0
10
1.2000000000012774
20
1.4999999999991638
30
0
10
2.4000000000020547
20
1.4999999999986278
30
0
10
4.0000000000023546
20
1.4999999999983737
30
0
10
6.0000000000019584
20
1.4999999999985913
30
0
10
7.6000000000012928
20
1.4999999999990359
30
0
10
8.800000000000697
20
1.4999999999994786
30
0
10
9.6000000000002395
20
1.4999999999998188
30
0
10
10
20
1.5
30
0
0
SPLINE
5
103
100
AcDbEntity
8
0
100
AcDbSpline
70
4
71
5
72
111
73
105
74
0
42
0.000000001
43
0.0000000001
44
0.0000000001
40
0
40
0
40
0
40
0
40
0
40
0
40
0.01
40
0.02
40
0.029999999999999999
40
0.040000000000000001
40
0.050000000000000003
40
0.060000000000000005
40
0.070000000000000007
40
0.080000000000000002
40
0.089999999999999997
40
0.099999999999999992
40
0.10999999999999999
40
0.11999999999999998
40
0.12999999999999998
40
0.13999999999999999
40
0.14999999999999999
40
0.16
40
0.17000000000000001
40
0.18000000000000002
40
0.19000000000000003
40
0.20000000000000004
40
0.21000000000000005
40
0.22000000000000006
40
0.23000000000000007
40
0.24000000000000007
40
0.25000000000000006
40
0.26000000000000006
40
0.27000000000000007
40
0.28000000000000008
40
0.29000000000000009
40
0.3000000000000001
40
0.31000000000000011
40
0.32000000000000012
40
0.33000000000000013
40
0.34000000000000014
40
0.35000000000000014
40
0.36000000000000015
40
0.37000000000000016
40
0.38000000000000017
40
0.39000000000000018
40
0.40000000000000019
40
0.4100000000000002
40
0.42000000000000021
40
0.43000000000000022
40
0.44000000000000022
40
0.45000000000000023
40
0.46000000000000024
40
0.47000000000000025
40
0.48000000000000026
40
0.49000000000000027
40
0.50000000000000022
40
0.51000000000000023
40
0.52000000000000024
40
0.53000000000000025
40
0.54000000000000026
40
0.55000000000000027
40
0.56000000000000028
40
0.57000000000000028
40
0.58000000000000029
40
0.5900000000000003
40
0.60000000000000031
40
0.61000000000000032
40
0.62000000000000033
40
0.63000000000000034
40
0.64000000000000035
40
0.65000000000000036
40
0.66000000000000036
40
0.67000000000000037
40
0.68000000000000038
40
0.69000000000000039
40
0.7000000000000004
40
0.71000000000000041
40
0.72000000000000042
40
0.73000000000000043
40
0.74000000000000044
40
0.75000000000000044
40
0.76000000000000045
40
0.77000000000000046
40
0.78000000000000047
40
0.79000000000000048
40
0.80000000000000049
40
0.8100000000000005
40
0.82000000000000051
40
0.83000000000000052
40
0.84000000000000052
40
0.85000000000000053
40
0.86000000000000054
40
0.87000000000000055
40
0.88000000000000056
40
0.89000000000000057
40
0.90000000000000058
40
0.91000000000000059
40
0.9200000000000006
40
0.9300000000000006
40
0.94000000000000061
40
0.95000000000000062
40
0.96000000000000063
40
0.97000000000000064
40
0.98000000000000065
40
0.99000000000000066
40
1
40
1
40
1
40
1
40
1
40
1
41
1
41
1
41
1
41
1
41
1
41
1
41
1
41
1
41
1
41
1
41
1
41
1
41
1
41
1
41
1
41
1
41
1
41
1
41
1
41
1
41
1
41
1
41
1
41
1
41
1
41
1
41
1
41
1
41
1
41
1
41
1
41
1
41
1
41
1
41
1
41
1
41
1
41
1
41
1
41
1
41
1
41
1
41
1
41
1
41
1
41
1
41
1
41
1
41
1
41
1
41
1
41
1
41
1
41
1
41
1
41
1
41
1
41
1
41
1
41
1
41
1
41
1
41
1
41
1
41
1
41
1
41
1
41
1
41
1
41
1
41
1
41
1
41
1
41
1
41
1
41
1
41
1
41
1
41
1
41
1
41
1
41
1
41
1
41
1
41
1
41
1
41
1
41
1
41
1
41
1
41
1
41
1
41
1
41
1
41
1
41
1
41
1
41
1
41
1
41
1
41
1
41
1
41
1
41
1
41
1
10
0
20
0
30
0
10
0.020195612625813618
20
-0.0018230954025029041
30
0
10
0.060568876627687458
20
-0.0042893232746012873
30
0
10
0.12107488879663286
20
-0.004448757321128342
30
0
10
0.2016417872068752
20
0.0024194681629994483
30
0
10
0.30217405860438407
20
0.022396121544053581
30
0
10
0.40254003692181917
20
0.052519434275599741
30
0
10
0.50275995211240776
20
0.09029608822331496
30
0
10
0.60286770192822647
20
0.13154974525870111
30
0
10
0.70291411360822298
20
0.1700392356308294
30
0
10
0.80296044899947061
20
0.19909867490144084
30
0
10
0.90307218157495517
20
0.21323919781267683
30
0
10
1.0033126074917105
20
0.20974602065290907
30
0
10
1.1037366839329954
20
0.19032418695075856
30
0
10
1.2043843412576469
20
0.16260088926833227
30
0
10
1.3052609577525851
20
0.13708299856513467
30
0
10
1.4063176749296997
20
0.12421812051061931
30
0
10
1.5074327500965292
20
0.13147698225938503
30
0
10
1.6083900819284034
20
0.16028719347196058
30
0
10
1.7088655289491017
20
0.20341982934807529
30
0
10
1.8085201514463589
20
0.24875914852737463
30
0
10
1.9070875897271597
20
0.28269878332959059
30
0
10
2.0044624721410713
20
0.29364511209755689
30
0
10
2.1007913214380589
20
0.27555156762753547
30
0
10
2.1965544868322819
20
0.23122882005135181
30
0
10
2.2924054955223827
20
0.16935378920495131
30
0
10
2.3890217622064052
20
0.10174802767749352
30
0
10
2.4869467290014384
20
0.040501795363938761
30
0
10
2.5864455597880105
20
-0.004707991845535821
30
0
10
2.6873283829557892
20
-0.029722792873983894
30
0
10
2.7890903187130247
20
-0.034936475171759282
30
0
10
2.8910930074957921
20
-0.023787317535138179
30
0
10
2.9927338697485291
20
-0.0014319054776011949
30
0
10
3.09361478294554
20
0.026629112900548178
30
0
10
3.1937265504365664
20
0.055976681882496063
30
0
10
3.2933337417659398
20
0.083285392353938129
30
0
10
3.3928381856722649
20
0.10622483806916933
30
0
10
3.4926485709818311
20
0.12340352213170044
30
0
10
3.5930515211020744
20
0.1342922052711919
30
0
10
3.6940711340295258
20
0.13916542920540623
30
0
10
3.7955450864356961
20
0.13886631891762649
30
0
10
3.8972162275419375
20
0.1345610386193162
30
0
10
3.9988186777071215
20
0.12749650002688298
30
0
10
4.1001657542602636
20
0.11875833908020481
30
0
10
4.2012384503974767
20
0.10902443913948122
30
0
10
4.3021277224338856
20
0.098837969242183618
30
0
10
4.402974723931286
20
0.088889539611473167
30
0
10
4.5039123847926996
20
0.080289744951279912
30
0
10
4.6050052036325049
20
0.074860492458181507
30
0
10
4.7061931891058331
20
0.075378617602799347
30
0
10
4.8073428073541971
20
0.084624298140558274
30
0
10
4.9082947932767169
20
0.10445265786976811
30
0
10
5.0089121666460006
20
0.13488972359397727
30
0
10
5.1091303559405956
20
0.17313928476317061
30
0
10
5.2090001940021855
20
0.21284782769863753
30
0
10
5.3086475586072126
20
0.24627017145439606
30
0
10
5.4082388076106032
20
0.26625322215629454
30
0
10
5.5079444962867772
20
0.26823651209653104
30
0
10
5.6079027838030822
20
0.25236867499230181
30
0
10
5.7081859601552063
20
0.22523121746025609
30
0
10
5.8088114644016819
20
0.19657469297978963
30
0
10
5.9097499231786044
20
0.17633752717928569
30
0
10
6.0109342128926455
20
0.17165662339117171
30
0
10
6.1122682365699079
20
0.18365129419520651
30
0
10
6.2136352976021882
20
0.20495970296547233
30
0
10
6.3149017566141739
20
0.22403534016995474
30
0
10
6.4159207889190739
20
0.2289446830807729
30
0
10
6.5165367523658349
20
0.21117617840791605
30
0
10
6.6165877473972747
20
0.16986305132677598
30
0
10
6.7159135095003544
20
0.11459419437798068
30
0
10
6.8143918597917876
20
0.060289546492776319
30
0
10
6.9119722806455144
20
0.023005476172542998
30
0
10
7.008709428943984
20
0.015478267515634437
30
0
10
7.1047995861441926
20
0.042552039169542602
30
0
10
7.2006077632480503
20
0.097300566466460514
30
0
10
7.2965850181855361
20
0.16586943122837275
30
0
10
7.3931943428650779
20
0.23163594153759226
30
0
10
7.4908321312870605
20
0.27970793472422883
30
0
10
7.5897542164306353
20
0.30109080853851294
30
0
10
7.6899925509742397
20
0.29750483063052591
30
0
10
7.7913919074795253
20
0.27794774010554602
30
0
10
7.8936572944543739
20
0.25453648365622378
30
0
10
7.9963973838643287
20
0.23858039722526109
30
0
10
8.0991696457118394
20
0.2366249708204054
30
0
10
8.2015244186481659
20
0.24632009193392115
30
0
10
8.3030618389308923
20
0.2596344686244732
30
0
10
8.4034893257807362
20
0.26632781546331163
30
0
10
8.5026784538885245
20
0.25730832724632996
30
0
10
8.6007232949811083
20
0.22807934383300391
30
0
10
8.6979951560215962
20
0.18203644721885698
30
0
10
8.795024238428061
20
0.12757897229600679
30
0
10
8.8923860905864558
20
0.075375764319712421
30
0
10
8.9905842745194224
20
0.03552961183345444
30
0
10
9.0899393185352224
20
0.014890422619548916
30
0
10
9.1904622477890534
20
0.014019727309361286
30
0
10
9.291929656567099
20
0.028679716298683954
30
0
10
9.3939772042960978
20
0.051735995713211552
30
0
10
9.496186894841653
20
0.074919853342419906
30
0
10
9.5981757736512865
20
0.09062547220894264
30
0
10
9.6996871520697407
20
0.093755330702121262
30
0
10
9.8005679241566277
20
0.081270395535650658
30
0
10
9.8807068701017524
20
0.057576936436176195
30
0
10
9.9404815631919448
20
0.031873306070389643
30
0
10
9.9801849262779498
20
0.011212020550959049
30
0
10
10
20
0
30
0
0
SPLINE
5
104
100
AcDbEntity
8
0
100
AcDbSpline
70
4
71
5
72
111
73
105
74
0
42
0.000000001
43
0.0000000001
44
0.0000000001
40
0
40
0
40
0
40
0
40
0
40
0
40
0.01
40
0.02
40
0.029999999999999999
40
0.040000000000000001
40
0.050000000000000003
40
0.060000000000000005
40
0.070000000000000007
40
0.080000000000000002
40
0.089999999999999997
40
0.099999999999999992
40
0.10999999999999999
40
0.11999999999999998
40
0.12999999999999998
40
0.13999999999999999
40
0.14999999999999999
40
0.16
40
0.17000000000000001
40
0.18000000000000002
40
0.19000000000000003
40
0.20000000000000004
40
0.21000000000000005
40
0.22000000000000006
40
0.23000000000000007
40
0.24000000000000007
40
0.25000000000000006
40
0.26000000000000006
40
0.27000000000000007
40
0.28000000000000008
40
0.29000000000000009
40
0.3000000000000001
40
0.31000000000000011
40
0.32000000000000012
40
0.33000000000000013
40
0.34000000000000014
40
0.35000000000000014
40
0.36000000000000015
40
0.37000000000000016
40
0.38000000000000017
40
0.39000000000000018
40
0.40000000000000019
40
0.4100000000000002
40
0.42000000000000021
40
0.43000000000000022
40
0.44000000000000022
40
0.45000000000000023
40
0.46000000000000024
40
0.47000000000000025
40
0.48000000000000026
40
0.49000000000000027
40
0.50000000000000022
40
0.51000000000000023
40
0.52000000000000024
40
0.53000000000000025
40
0.54000000000000026
40
0.55000000000000027
40
0.56000000000000028
40
0.57000000000000028
40
0.58000000000000029
40
0.5900000000000003
40
0.60000000000000031
40
0.61000000000000032
40
0.62000000000000033
40
0.63000000000000034
40
0.64000000000000035
40
0.65000000000000036
40
0.66000000000000036
40
0.67000000000000037
40
0.68000000000000038
40
0.69000000000000039
40
0.7000000000000004
40
0.71000000000000041
40
0.72000000000000042
40
0.73000000000000043
40
0.74000000000000044
40
0.75000000000000044
40
0.76000000000000045
40
0.77000000000000046
40
0.78000000000000047
40
0.79000000000000048
40
0.80000000000000049
40
0.8100000000000005
40
0.82000000000000051
40
0.83000000000000052
40
0.84000000000000052
40
0.85000000000000053
40
0.86000000000000054
40
0.87000000000000055
40
0.88000000000000056
40
0.89000000000000057
40
0.90000000000000058
40
0.91000000000000059
40
0.9200000000000006
40
0.9300000000000006
40
0.94000000000000061
40
0.95000000000000062
40
0.96000000000000063
40
0.97000000000000064
40
0.98000000000000065
40
0.99000000000000066
40
1
40
1
40
1
40
1
40
1
40
1
41
1
41
1
41
1
41
1
41
1
41
1
41
1
41
1
41
1
41
1
41
1
41
1
41
1
41
1
41
1
41
1
41
1
41
1
41
1
41
1
41
1
41
1
41
1
41
1
41
1
41
1
41
1
41
1
41
1
41
1
41
1
41
1
41
1
41
1
41
1
41
1
41
1
41
1
41
1
41
1
41
1
41
1
41
1
41
1
41
1
41
1
41
1
41
1
41
1
41
1
41
1
41
1
41
1
41
1
41
1
41
1
41
1
41
1
41
1
41
1
41
1
41
1
41
1
41
1
41
1
41
1
41
1
41
1
41
1
41
1
41
1
41
1
41
1
41
1
41
1
41
1
41
1
41
1
41
1
41
1
41
1
41
1
41
1
41
1
41
1
41
1
41
1
41
1
41
1
41
1
41
1
41
1
41
1
41
1
41
1
41
1
41
1
41
1
41
1
41
1
41
1
41
1
41
1
41
1
41
1
10
0
20
3
30
0
10
0.019333275946706467
20
2.9683037323422341
30
0
10
0.058003267428732422
20
2.9093000174778467
30
0
10
0.11601857296944215
20
2.8339607464043515
30
0
10
0.19339295757117919
20
2.7598466635875414
30
0
10
0.29014526040484778
20
2.7102854294153995
30
0
10
0.38693167085352642
20
2.7013408113527824
30
0
10
0.48375160740212036
20
2.7280043891462675
30
0
10
0.58060435186472414
20
2.7819952591200892
30
0
10
0.67748809406393495
20
2.8506035596222397
30
0
10
0.77440793091150273
20
2.9188618638864035
30
0
10
0.87138500636722105
20
2.9722602687336015
30
0
10
0.96846626496025845
20
2.9994219460374536
30
0
10
1.0657317036058016
20
2.9944594765118175
30
0
10
1.1633084280824451
20
2.9603250333101174
30
0
10
1.2613516844546593
20
2.9072109684472003
30
0
10
1.3600116135501672
20
2.8487393098134941
30
0
10
1.4594028200860159
20
2.7987051042255393
30
0
10
1.5595765816704674
20
2.767927764951033
30
0
10
1.6604823524598498
20
2.760214466818947
30
0
10
1.7619770659855591
20
2.7725138225522046
30
0
10
1.8638660370985791
20
2.797864651086257
30
0
10
1.9659353490371323
20
2.8275912925980462
30
0
10
2.0679855987740927
20
2.8536183865504547
30
0
10
2.169870449424649
20
2.8712128405026203
30
0
10
2.2715048587542115
20
2.8790506205517556
30
0
10
2.372857570065138
20
2.8779471127162948
30
0
10
2.4739492802998071
20
2.869982484822204
30
0
10
2.5748470464817617
20
2.857533007457929
30
0
10
2.6756640068598356
20
2.8421662656123301
30
0
10
2.7765340423028899
20
2.8247135921197888
30
0
10
2.8775793758620996
20
2.8057469344343384
30
0
10
2.9788788091856739
20
2.7859396604422453
30
0
10
3.0804394529812806
20
2.7664321228311728
30
0
10
3.1821571209456896
20
2.7493088435064506
30
0
10
3.2838552958724603
20
2.7371736112564475
30
0
10
3.3853426851688266
20
2.732505066488085
30
0
10
3.4864660533313945
20
2.737069196194144
30
0
10
3.5871613530187512
20
2.7513489122614749
30
0
10
3.6875153947916965
20
2.7738563449415437
30
0
10
3.7877168691300285
20
2.8016863672905972
30
0
10
3.8879918522474832
20
2.8312472531590926
30
0
10
3.9885433748100252
20
2.8589388848696657
30
0
10
4.0894925979918959
20
2.881828362986758
30
0
10
4.1908104184184838
20
2.8983924050927357
30
0
10
4.2923668037326328
20
2.9083850972628253
30
0
10
4.3939937886614659
20
2.912599664830855
30
0
10
4.4955442132740817
20
2.9126711260353155
30
0
10
4.5969507627806827
20
2.9108571572671229
30
0
10
4.6982889995181285
20
2.9098430563896067
30
0
10
4.7997105516925851
20
2.9120686411857228
30
0
10
4.901370298120554
20
2.9190302015613723
30
0
10
5.0033565176257291
20
2.9306026824154854
30
0
10
5.1056180374647759
20
2.9443254112121697
30
0
10
5.207897340998465
20
2.9547761834261816
30
0
10
5.3098336772640318
20
2.9555217307555237
30
0
10
5.4110626987833585
20
2.9410285388535788
30
0
10
5.5113145123019329
20
2.9085187523513483
30
0
10
5.6105190944547569
20
2.8600134306627254
30
0
10
5.7088894314764618
20
2.803828192446586
30
0
10
5.8068078165342785
20
2.7512692601501931
30
0
10
5.9047292199906938
20
2.7137394118736458
30
0
10
6.003078864425337
20
2.69971483009666
30
0
10
6.1021507193127897
20
2.7117127304085757
30
0
10
6.2020098494691034
20
2.7434342467045454
30
0
10
6.3025593964872106
20
2.7834824295382745
30
0
10
6.4036028000870164
20
2.8189069231630866
30
0
10
6.5049072682283757
20
2.8387681364931105
30
0
10
6.6062677568387462
20
2.8377954859598624
30
0
10
6.7075676930644059
20
2.8197235860975627
30
0
10
6.8087616191339562
20
2.7935778883008244
30
0
10
6.9098612281327654
20
2.7702061769334261
30
0
10
7.0109200128257854
20
2.7588191513498006
30
0
10
7.1120188804598765
20
2.7632951005307
30
0
10
7.2132504092344121
20
2.77924944027479
30
0
10
7.3146947439945915
20
2.7979575693398955
30
0
10
7.4163953463091783
20
2.8097749043198181
30
0
10
7.5183364466857485
20
2.8075643188026049
30
0
10
7.6204158424966684
20
2.7905507585066855
30
0
10
7.7224312810092819
20
2.7667137507262796
30
0
10
7.82413177697752
20
2.7480439056966306
30
0
10
7.9252613788914958
20
2.7466083895959459
30
0
10
8.0256036562562123
20
2.7705954695434269
30
0
10
8.1250310934896337
20
2.8196752686351099
30
0
10
8.2235361068699451
20
2.8828149313143503
30
0
10
8.3212029856720111
20
2.9438384664021111
30
0
10
8.4181901751868402
20
2.9857220006550316
30
0
10
8.5147084981822125
20
2.9952119428662027
30
0
10
8.6110012381580319
20
2.9677169013676159
30
0
10
8.707323191537002
20
2.9108740505987463
30
0
10
8.8039181707630032
20
2.8395105864360786
30
0
10
8.9009966142100225
20
2.7716162026169195
30
0
10
8.9987130715842074
20
2.7239179579590953
30
0
10
9.0971438709378223
20
2.707646416659395
30
0
10
9.1962642072332716
20
2.7241562184357697
30
0
10
9.2959770785310081
20
2.7675981450760521
30
0
10
9.3961426448327643
20
2.8276401347745788
30
0
10
9.4966075440621172
20
2.8921808136920228
30
0
10
9.5972338691365184
20
2.9500336915565994
30
0
10
9.6979292255555691
20
2.9937077255082967
30
0
10
9.7986383621639881
20
3.0187325131213809
30
0
10
9.8791945588227588
20
3.0220472095086146
30
0
10
9.9396013192200936
20
3.0148059244309504
30
0
10
9.9798678758534063
20
3.0056557463280646
30
0
10
10
20
3
30
0
0
ENDSEC
0
SECTION
2
OBJECTS
0
DICTIONARY
5
C
100
AcDbDictionary
3
ACAD_GROUP
350
D
3
ACAD_MLINESTYLE
350
17
0
DICTIONARY
5
D
100
AcDbDictionary
0
DICTIONARY
5
1A
330
C
100
AcDbDictionary
0
DICTIONARY
5
17
100
AcDbDictionary
0
ENDSEC
0
EOF
