0
SECTION
2
HEADER
9
$INSUNITS
70
4
9
$ACADVER
1
AC1014
9
$HANDSEED
5
FFFF
0
ENDSEC
0
SECTION
2
TABLES
0
TABLE
2
VPORT
5
8
100
AcDbSymbolTable
0
ENDTAB
0
TABLE
2
LTYPE
5
5
100
AcDbSymbolTable
0
LTYPE
5
14
100
AcDbSymbolTableRecord
100
AcDbLinetypeTableRecord
2
BYBLOCK
70
0
0
LTYPE
5
15
100
AcDbSymbolTableRecord
100
AcDbLinetypeTableRecord
2
BYLAYER
70
0
0
ENDTAB
0
TABLE
2
LAYER
5
2
100
AcDbSymbolTable
70
2
0
LAYER
5
50
100
AcDbSymbolTableRecord
100
AcDbLayerTableRecord
2
0
70
0
6
CONTINUOUS
0
ENDTAB
0
TABLE
2
STYLE
5
3
100
AcDbSymbolTable
70
1
0
STYLE
5
11
100
AcDbSymbolTableRecord
100
AcDbTextStyleTableRecord
2
STANDARD
70
0
0
ENDTAB
0
TABLE
2
VIEW
5
6
100
AcDbSymbolTable
70
0
0
ENDTAB
0
TABLE
2
UCS
5
7
100
AcDbSymbolTable
70
0
0
ENDTAB
0
TABLE
2
APPID
5
9
100
AcDbSymbolTable
70
2
0
APPID
5
12
100
AcDbSymbolTableRecord
100
AcDbRegAppTableRecord
2
ACAD
70
0
0
ENDTAB
0
TABLE
2
DIMSTYLE
5
A
100
AcDbSymbolTable
70
1
0
ENDTAB
0
TABLE
2
BLOCK_RECORD
5
1
100
AcDbSymbolTable
70
1
0
BLOCK_RECORD
5
1F
100
AcDbSymbolTableRecord
100
AcDbBlockTableRecord
2
*MODEL_SPACE
0
BLOCK_RECORD
5
1B
100
AcDbSymbolTableRecord
100
AcDbBlockTableRecord
2
*PAPER_SPACE
0
ENDTAB
0
ENDSEC
0
SECTION
2
BLOCKS
0
BLOCK
5
20
100
AcDbEntity
100
AcDbBlockBegin
2
*MODEL_SPACE
0
ENDBLK
5
21
100
AcDbEntity
100
AcDbBlockEnd
0
BLOCK
5
1C
100
AcDbEntity
100
AcDbBlockBegin
2
*PAPER_SPACE
0
ENDBLK
5
1D
100
AcDbEntity
100
AcDbBlockEnd
0
ENDSEC
0
SECTION
2
ENTITIES
0
SPLINE
5
100
100
AcDbEntity
8
0
100
AcDbSpline
70
4
71
5
72
16
73
10
74
0
42
0.000000001
43
0.0000000001
44
0.0000000001
40
0
40
0
40
0
40
0
40
0
40
0
40
0.20000000000000001
40
0.40000000000000002
40
0.60000000000000009
40
0.80000000000000004
40
1
40
1
40
1
40
1
40
1
40
1
41
1
41
1
41
1
41
1
41
1
41
1
41
1
41
1
41
1
41
1
10
0
20
0
30
0
10
0
20
0.12000000000003158
30
0
10
0
20
0.36000000000007704
30
0
10
0
20
0.72000000000009301
30
0
10
0
20
1.2000000000000313
30
0
10
0
20
1.7999999999999146
30
0
10
0
20
2.2799999999998684
30
0
10
0
20
2.6399999999999042
30
0
10
0
20
2.8799999999999617
30
0
10
0
20
3
30
0
0
SPLINE
5
101
100
AcDbEntity
8
0
100
AcDbSpline
70
4
71
5
72
16
73
10
74
0
42
0.000000001
43
0.0000000001
44
0.0000000001
40
0
40
0
40
0
40
0
40
0
40
0
40
0.20000000000000001
40
0.40000000000000002
40
0.60000000000000009
40
0.80000000000000004
40
1
40
1
40
1
40
1
40
1
40
1
41
1
41
1
41
1
41
1
41
1
41
1
41
1
41
1
41
1
41
1
10
10
20
0
30
0
10
9.9999999999997495
20
0.12000000000003158
30
0
10
9.9999999999993197
20
0.36000000000007704
30
0
10
9.9999999999989129
20
0.72000000000009301
30
0
10
9.9999999999987672
20
1.2000000000000313
30
0
10
9.9999999999990248
20
1.7999999999999146
30
0
10
9.9999999999993889
20
2.2799999999998684
30
0
10
9.9999999999996998
20
2.6399999999999042
30
0
10
9.9999999999999005
20
2.8799999999999617
30
0
10
10
20
3
30
0
0
SPLINE
5
102
100
AcDbEntity
8
0
100
AcDbSpline
70
4
71
5
72
16
73
10
74
0
42
0.000000001
43
0.0000000001
44
0.0000000001
40
0
40
0
40
0
40
0
40
0
40
0
40
0.20000000000000001
40
0.40000000000000002
40
0.60000000000000009
40
0.80000000000000004
40
1
40
1
40
1
40
1
40
1
40
1
41
1
41
1
41
1
41
1
41
1
41
1
41
1
41
1
41
1
41
1
10
0
20
1.5
30
0
10
0.40000000000047375
20
1.499999999999694
30
0
10
1.2000000000012774
20
1.4999999999991638
30
0
10
2.4000000000020547
20
1.4999999999986278
30
0
10
4.0000000000023546
20
1.4999999999983737
30
0
10
6.0000000000019584
20
1.4999999999985913
30
0
10
7.6000000000012928
20
1.4999999999990359
30
0
10
8.800000000000697
20
1.4999999999994786
30
0
10
9.6000000000002395
20
1.4999999999998188
30
0
10
10
20
1.5
30
0
0
SPLINE
5
103
100
AcDbEntity
8
0
100
AcDbSpline
70
4
71
5
72
61
73
55
74
0
42
0.000000001
43
0.0000000001
44
0.0000000001
40
0
40
0
40
0
40
0
40
0
40
0
40
0.02
40
0.040000000000000001
40
0.059999999999999998
40
0.080000000000000002
40
0.10000000000000001
40
0.12000000000000001
40
0.14000000000000001
40
0.16
40
0.17999999999999999
40
0.19999999999999998
40
0.21999999999999997
40
0.23999999999999996
40
0.25999999999999995
40
0.27999999999999997
40
0.29999999999999999
40
0.32000000000000001
40
0.34000000000000002
40
0.36000000000000004
40
0.38000000000000006
40
0.40000000000000008
40
0.4200000000000001
40
0.44000000000000011
40
0.46000000000000013
40
0.48000000000000015
40
0.50000000000000011
40
0.52000000000000013
40
0.54000000000000015
40
0.56000000000000016
40
0.58000000000000018
40
0.6000000000000002
40
0.62000000000000022
40
0.64000000000000024
40
0.66000000000000025
40
0.68000000000000027
40
0.70000000000000029
40
0.72000000000000031
40
0.74000000000000032
40
0.76000000000000034
40
0.78000000000000036
40
0.80000000000000038
40
0.8200000000000004
40
0.84000000000000041
40
0.86000000000000043
40
0.88000000000000045
40
0.90000000000000047
40
0.92000000000000048
40
0.9400000000000005
40
0.96000000000000052
40
0.98000000000000054
40
1
40
1
40
1
40
1
40
1
40
1
41
1
41
1
41
1
41
1
41
1
41
1
41
1
41
1
41
1
41
1
41
1
41
1
41
1
41
1
41
1
41
1
41
1
41
1
41
1
41
1
41
1
41
1
41
1
41
1
41
1
41
1
41
1
41
1
41
1
41
1
41
1
41
1
41
1
41
1
41
1
41
1
41
1
41
1
41
1
41
1
41
1
41
1
41
1
41
1
41
1
41
1
41
1
41
1
41
1
41
1
41
1
41
1
41
1
41
1
41
1
10
0
20
0
30
0
10
0.041223891538882527
20
-0.012120061359671936
30
0
10
0.12354596988529443
20
-0.032589836585156844
30
0
10
0.24665197233928934
20
-0.051983333508323834
30
0
10
0.41003859503629586
20
-0.055205326281151233
30
0
10
0.61302420273075531
20
-0.022518773640913828
30
0
10
0.81479780211607356
20
0.043673729081798444
30
0
10
1.0154342725628049
20
0.13687286190800899
30
0
10
1.2150624890694073
20
0.24605464155723358
30
0
10
1.4138776578152186
20
0.354785163945464
30
0
10
1.6121197652077321
20
0.44501012700495002
30
0
10
1.8100542125230812
20
0.50057053625950132
30
0
10
2.0079518095931084
20
0.510781136132476
30
0
10
2.2060688822100722
20
0.47409695241845157
30
0
10
2.4046278742383151
20
0.40148061081595332
30
0
10
2.6038152847371308
20
0.31103621198706782
30
0
10
2.8037789254920304
20
0.22294839426247215
30
0
10
3.0046252607544011
20
0.15435017777890436
30
0
10
3.206416708622192
20
0.11413939768869862
30
0
10
3.409168470387534
20
0.098011740034352701
30
0
10
3.6128322580147394
20
0.094069614936966708
30
0
10
3.8172795430319102
20
0.088274784820466634
30
0
10
4.0222859739648653
20
0.069777940352927115
30
0
10
4.2275121967776483
20
0.036702356335361543
30
0
10
4.4324940322235218
20
0.00060998472885668382
30
0
10
4.6367155453147229
20
-0.020601388916125434
30
0
10
4.8396758199311476
20
-0.0089672825927441767
30
0
10
5.0409561489958179
20
0.047330110407899396
30
0
10
5.2402919362532252
20
0.14684545378432629
30
0
10
5.4376287037552249
20
0.2707399863446166
30
0
10
5.6331068609364952
20
0.39149277467282684
30
0
10
5.8270582291304054
20
0.47980849955541616
30
0
10
6.0199967097961622
20
0.51203838216303799
30
0
10
6.2126163092295963
20
0.47781528793982109
30
0
10
6.4057741056780282
20
0.38640782145913483
30
0
10
6.600334722773046
20
0.25943809533626355
30
0
10
6.7970264470621018
20
0.12478062920034527
30
0
10
6.9962919977077362
20
0.010015248446230399
30
0
10
7.1981422791103009
20
-0.063886843040049893
30
0
10
7.4020037029065691
20
-0.089096989462381454
30
0
10
7.6069388636965405
20
-0.067919653526764781
30
0
10
7.8118733510846319
20
-0.0096698502870742262
30
0
10
8.0158162554438874
20
0.072356748886684891
30
0
10
8.2180914400203005
20
0.16400664059996123
30
0
10
8.4185419618291348
20
0.25315059579325205
30
0
10
8.6173762171384709
20
0.329496502260262
30
0
10
8.8150365792310268
20
0.38459779180906561
30
0
10
9.0120615786423777
20
0.41179054376151747
30
0
10
9.2089482551010331
20
0.40617227317036075
30
0
10
9.4060229258095429
20
0.36455187316982107
30
0
10
9.6034815141944083
20
0.28507764378781059
30
0
10
9.7618328325184027
20
0.19052208615068941
30
0
10
9.8808268374843404
20
0.10207426244899802
30
0
10
9.9602585495588478
20
0.035322510764168771
30
0
10
10
20
0
30
0
0
SPLINE
5
104
100
AcDbEntity
8
0
100
AcDbSpline
70
4
71
5
72
61
73
55
74
0
42
0.000000001
43
0.0000000001
44
0.0000000001
40
0
40
0
40
0
40
0
40
0
40
0
40
0.02
40
0.040000000000000001
40
0.059999999999999998
40
0.080000000000000002
40
0.10000000000000001
40
0.12000000000000001
40
0.14000000000000001
40
0.16
40
0.17999999999999999
40
0.19999999999999998
40
0.21999999999999997
40
0.23999999999999996
40
0.25999999999999995
40
0.27999999999999997
40
0.29999999999999999
40
0.32000000000000001
40
0.34000000000000002
40
0.36000000000000004
40
0.38000000000000006
40
0.40000000000000008
40
0.4200000000000001
40
0.44000000000000011
40
0.46000000000000013
40
0.48000000000000015
40
0.50000000000000011
40
0.52000000000000013
40
0.54000000000000015
40
0.56000000000000016
40
0.58000000000000018
40
0.6000000000000002
40
0.62000000000000022
40
0.64000000000000024
40
0.66000000000000025
40
0.68000000000000027
40
0.70000000000000029
40
0.72000000000000031
40
0.74000000000000032
40
0.76000000000000034
40
0.78000000000000036
40
0.80000000000000038
40
0.8200000000000004
40
0.84000000000000041
40
0.86000000000000043
40
0.88000000000000045
40
0.90000000000000047
40
0.92000000000000048
40
0.9400000000000005
40
0.96000000000000052
40
0.98000000000000054
40
1
40
1
40
1
40
1
40
1
40
1
41
1
41
1
41
1
41
1
41
1
41
1
41
1
41
1
41
1
41
1
41
1
41
1
41
1
41
1
41
1
41
1
41
1
41
1
41
1
41
1
41
1
41
1
41
1
41
1
41
1
41
1
41
1
41
1
41
1
41
1
41
1
41
1
41
1
41
1
41
1
41
1
41
1
41
1
41
1
41
1
41
1
41
1
41
1
41
1
41
1
41
1
41
1
41
1
41
1
41
1
41
1
41
1
41
1
41
1
41
1
10
0
20
3
30
0
10
0.040383939976291597
20
3.0054596398954208
30
0
10
0.12114107182046982
20
3.0151085737880825
30
0
10
0.24224452501422858
20
3.0257709057141029
30
0
10
0.40365126691483372
20
3.0323605139400032
30
0
10
0.60530501691356131
20
3.0282783116749101
30
0
10
0.80686317081327386
20
3.0131092032122684
30
0
10
1.0083441577913195
20
2.9893490587631488
30
0
10
1.2097791740782073
20
2.9612164138248569
30
0
10
1.4112149265047103
20
2.9350265830493791
30
0
10
1.6126995215258002
20
2.9174501822659149
30
0
10
1.8142687651192713
20
2.9138216658900311
30
0
10
2.0159326622916671
20
2.9264777022258448
30
0
10
2.2176608941545037
20
2.9529571401029724
30
0
10
2.4193711198601098
20
2.9845841751582327
30
0
10
2.6209539036242262
20
3.009940684171315
30
0
10
2.8222954617357505
20
3.0180705252299433
30
0
10
3.0233006857800087
20
3.001671738175772
30
0
10
3.2239173089980699
20
2.9605640309207626
30
0
10
3.4241561408214305
20
2.9042967260775274
30
0
10
3.6240765536563919
20
2.8474661411686886
30
0
10
3.8237753131283418
20
2.8056489828697351
30
0
10
4.0233741567932801
20
2.791231857755756
30
0
10
4.2230081981560135
20
2.8089850366644113
30
0
10
4.4228134460476207
20
2.8525807563006209
30
0
10
4.6229097413798845
20
2.9092158451305323
30
0
10
4.8233835838732233
20
2.9635200832748461
30
0
10
5.0242718589567552
20
3.0016190289658669
30
0
10
5.2255428570604678
20
3.0153862303670116
30
0
10
5.4270846028041406
20
3.0058877868789509
30
0
10
5.628749533166526
20
2.9800568069446962
30
0
10
5.8303948367688063
20
2.9479930554517186
30
0
10
6.0319222062830686
20
2.920110921681816
30
0
10
6.2333231350108855
20
2.9041746510195434
30
0
10
6.4347066884739963
20
2.9029136267321682
30
0
10
6.6362271720303383
20
2.9152553962810224
30
0
10
6.8380219686542221
20
2.9371087706230314
30
0
10
7.0401493338582908
20
2.9623215149669138
30
0
10
7.2425168985631414
20
2.9835348376906481
30
0
10
7.4448414197747894
20
2.9931425717103592
30
0
10
7.6467446044835663
20
2.9845016487759501
30
0
10
7.8478312468964138
20
2.9531592221215099
30
0
10
8.0477697678152964
20
2.8979819837744762
30
0
10
8.2463822463325229
20
2.8225636937323162
30
0
10
8.4436984982713508
20
2.7358193853720554
30
0
10
8.6398833924546903
20
2.6498276596653039
30
0
10
8.835184845216471
20
2.5781093628207481
30
0
10
9.0298754205106473
20
2.5337914701400077
30
0
10
9.2241934154611478
20
2.5276994465706637
30
0
10
9.4182941666408535
20
2.5668319793774712
30
0
10
9.6122720082645223
20
2.655340210449519
30
0
10
9.7673933651942431
20
2.7672319591615571
30
0
10
9.8837072392937699
20
2.874530178801713
30
0
10
9.9612377569307995
20
2.9564460869519724
30
0
10
10
20
3
30
0
0
ENDSEC
0
SECTION
2
OBJECTS
0
DICTIONARY
5
C
100
AcDbDictionary
3
ACAD_GROUP
350
D
3
ACAD_MLINESTYLE
350
17
0
DICTIONARY
5
D
100
AcDbDictionary
0
DICTIONARY
5
1A
330
C
100
AcDbDictionary
0
DICTIONARY
5
17
100
AcDbDictionary
0
ENDSEC
0
EOF
