0
SECTION
2
HEADER
9
$INSUNITS
70
4
9
$ACADVER
1
AC1014
9
$HANDSEED
5
FFFF
0
ENDSEC
0
SECTION
2
TABLES
0
TABLE
2
VPORT
5
8
100
AcDbSymbolTable
0
ENDTAB
0
TABLE
2
LTYPE
5
5
100
AcDbSymbolTable
0
LTYPE
5
14
100
AcDbSymbolTableRecord
100
AcDbLinetypeTableRecord
2
BYBLOCK
70
0
0
LTYPE
5
15
100
AcDbSymbolTableRecord
100
AcDbLinetypeTableRecord
2
BYLAYER
70
0
0
ENDTAB
0
TABLE
2
LAYER
5
2
100
AcDbSymbolTable
70
2
0
LAYER
5
50
100
AcDbSymbolTableRecord
100
AcDbLayerTableRecord
2
0
70
0
6
CONTINUOUS
0
ENDTAB
0
TABLE
2
STYLE
5
3
100
AcDbSymbolTable
70
1
0
STYLE
5
11
100
AcDbSymbolTableRecord
100
AcDbTextStyleTableRecord
2
STANDARD
70
0
0
ENDTAB
0
TABLE
2
VIEW
5
6
100
AcDbSymbolTable
70
0
0
ENDTAB
0
TABLE
2
UCS
5
7
100
AcDbSymbolTable
70
0
0
ENDTAB
0
TABLE
2
APPID
5
9
100
AcDbSymbolTable
70
2
0
APPID
5
12
100
AcDbSymbolTableRecord
100
AcDbRegAppTableRecord
2
ACAD
70
0
0
ENDTAB
0
TABLE
2
DIMSTYLE
5
A
100
AcDbSymbolTable
70
1
0
ENDTAB
0
TABLE
2
BLOCK_RECORD
5
1
100
AcDbSymbolTable
70
1
0
BLOCK_RECORD
5
1F
100
AcDbSymbolTableRecord
100
AcDbBlockTableRecord
2
*MODEL_SPACE
0
BLOCK_RECORD
5
1B
100
AcDbSymbolTableRecord
100
AcDbBlockTableRecord
2
*PAPER_SPACE
0
ENDTAB
0
ENDSEC
0
SECTION
2
BLOCKS
0
BLOCK
5
20
100
AcDbEntity
100
AcDbBlockBegin
2
*MODEL_SPACE
0
ENDBLK
5
21
100
AcDbEntity
100
AcDbBlockEnd
0
BLOCK
5
1C
100
AcDbEntity
100
AcDbBlockBegin
2
*PAPER_SPACE
0
ENDBLK
5
1D
100
AcDbEntity
100
AcDbBlockEnd
0
ENDSEC
0
SECTION
2
ENTITIES
0
SPLINE
5
100
100
AcDbEntity
8
0
100
AcDbSpline
70
4
71
5
72
16
73
10
74
0
42
0.000000001
43
0.0000000001
44
0.0000000001
40
0
40
0
40
0
40
0
40
0
40
0
40
0.20000000000000001
40
0.40000000000000002
40
0.60000000000000009
40
0.80000000000000004
40
1
40
1
40
1
40
1
40
1
40
1
41
1
41
1
41
1
41
1
41
1
41
1
41
1
41
1
41
1
41
1
10
0
20
0
30
0
10
0
20
0.12000000000003158
30
0
10
0
20
0.36000000000007704
30
0
10
0
20
0.72000000000009301
30
0
10
0
20
1.2000000000000313
30
0
10
0
20
1.7999999999999146
30
0
10
0
20
2.2799999999998684
30
0
10
0
20
2.6399999999999042
30
0
10
0
20
2.8799999999999617
30
0
10
0
20
3
30
0
0
SPLINE
5
101
100
AcDbEntity
8
0
100
AcDbSpline
70
4
71
5
72
16
73
10
74
0
42
0.000000001
43
0.0000000001
44
0.0000000001
40
0
40
0
40
0
40
0
40
0
40
0
40
0.20000000000000001
40
0.40000000000000002
40
0.60000000000000009
40
0.80000000000000004
40
1
40
1
40
1
40
1
40
1
40
1
41
1
41
1
41
1
41
1
41
1
41
1
41
1
41
1
41
1
41
1
10
10
20
0
30
0
10
9.9999999999997495
20
0.12000000000003158
30
0
10
9.9999999999993197
20
0.36000000000007704
30
0
10
9.9999999999989129
20
0.72000000000009301
30
0
10
9.9999999999987672
20
1.2000000000000313
30
0
10
9.9999999999990248
20
1.7999999999999146
30
0
10
9.9999999999993889
20
2.2799999999998684
30
0
10
9.9999999999996998
20
2.6399999999999042
30
0
10
9.9999999999999005
20
2.8799999999999617
30
0
10
10
20
3
30
0
0
SPLINE
5
102
100
AcDbEntity
8
0
100
AcDbSpline
70
4
71
5
72
16
73
10
74
0
42
0.000000001
43
0.0000000001
44
0.0000000001
40
0
40
0
40
0
40
0
40
0
40
0
40
0.20000000000000001
40
0.40000000000000002
40
0.60000000000000009
40
0.80000000000000004
40
1
40
1
40
1
40
1
40
1
40
1
41
1
41
1
41
1
41
1
41
1
41
1
41
1
41
1
41
1
41
1
10
0
20
1.5
30
0
10
0.40000000000047375
20
1.499999999999694
30
0
10
1.2000000000012774
20
1.4999999999991638
30
0
10
2.4000000000020547
20
1.4999999999986278
30
0
10
4.0000000000023546
20
1.4999999999983737
30
0
10
6.0000000000019584
20
1.4999999999985913
30
0
10
7.6000000000012928
20
1.4999999999990359
30
0
10
8.800000000000697
20
1.4999999999994786
30
0
10
9.6000000000002395
20
1.4999999999998188
30
0
10
10
20
1.5
30
0
0
SPLINE
5
103
100
AcDbEntity
8
0
100
AcDbSpline
70
4
71
5
72
61
73
55
74
0
42
0.000000001
43
0.0000000001
44
0.0000000001
40
0
40
0
40
0
40
0
40
0
40
0
40
0.02
40
0.040000000000000001
40
0.059999999999999998
40
0.080000000000000002
40
0.10000000000000001
40
0.12000000000000001
40
0.14000000000000001
40
0.16
40
0.17999999999999999
40
0.19999999999999998
40
0.21999999999999997
40
0.23999999999999996
40
0.25999999999999995
40
0.27999999999999997
40
0.29999999999999999
40
0.32000000000000001
40
0.34000000000000002
40
0.36000000000000004
40
0.38000000000000006
40
0.40000000000000008
40
0.4200000000000001
40
0.44000000000000011
40
0.46000000000000013
40
0.48000000000000015
40
0.50000000000000011
40
0.52000000000000013
40
0.54000000000000015
40
0.56000000000000016
40
0.58000000000000018
40
0.6000000000000002
40
0.62000000000000022
40
0.64000000000000024
40
0.66000000000000025
40
0.68000000000000027
40
0.70000000000000029
40
0.72000000000000031
40
0.74000000000000032
40
0.76000000000000034
40
0.78000000000000036
40
0.80000000000000038
40
0.8200000000000004
40
0.84000000000000041
40
0.86000000000000043
40
0.88000000000000045
40
0.90000000000000047
40
0.92000000000000048
40
0.9400000000000005
40
0.96000000000000052
40
0.98000000000000054
40
1
40
1
40
1
40
1
40
1
40
1
41
1
41
1
41
1
41
1
41
1
41
1
41
1
41
1
41
1
41
1
41
1
41
1
41
1
41
1
41
1
41
1
41
1
41
1
41
1
41
1
41
1
41
1
41
1
41
1
41
1
41
1
41
1
41
1
41
1
41
1
41
1
41
1
41
1
41
1
41
1
41
1
41
1
41
1
41
1
41
1
41
1
41
1
41
1
41
1
41
1
41
1
41
1
41
1
41
1
41
1
41
1
41
1
41
1
41
1
41
1
10
0
20
0
30
0
10
0.040908832782649569
20
-0.016061857134411689
30
0
10
0.12259799407596936
20
-0.044215833631379056
30
0
10
0.24474622249550304
20
-0.074537530112026323
30
0
10
0.40683900382216043
20
-0.091132877932206688
30
0
10
0.60818326353360397
20
-0.07316779825308152
30
0
10
0.80830346732523328
20
-0.019700553015080891
30
0
10
1.0072986459891873
20
0.06274613542114614
30
0
10
1.205337949020211
20
0.16314646776321906
30
0
10
1.402677488826114
20
0.26493326242189008
30
0
10
1.5996144975277873
20
0.34978827599508311
30
0
10
1.7964437159909319
20
0.40126271263418839
30
0
10
1.9934125742896383
20
0.40849921647690962
30
0
10
2.1906777418401941
20
0.36984307569535513
30
0
10
2.3882583062484213
20
0.29674499460020448
30
0
10
2.5860910473321779
20
0.20878469093139246
30
0
10
2.7840879226346016
20
0.12848277339652656
30
0
10
2.9821941106991368
20
0.076114103493742452
30
0
10
3.1804424626582111
20
0.064720505792682362
30
0
10
3.379018765197725
20
0.094480102550437636
30
0
10
3.5781809229551822
20
0.15589263748217932
30
0
10
3.7781663809554065
20
0.23372377141036005
30
0
10
3.9791011404073799
20
0.31070493496803547
30
0
10
4.1809138505789791
20
0.37121904407980622
30
0
10
4.3832312065547825
20
0.40528232388440244
30
0
10
4.5855038743940959
20
0.40833939506890893
30
0
10
4.7871554877305025
20
0.38060802265009885
30
0
10
4.9877253438875604
20
0.32661247537542515
30
0
10
5.1870091003397061
20
0.25462066877734041
30
0
10
5.3852140887414643
20
0.17621417694701552
30
0
10
5.5828228775060289
20
0.10413706660269072
30
0
10
5.7804406211713317
20
0.050079574135384254
30
0
10
5.9786458587593287
20
0.022422127548318287
30
0
10
6.1778465547585384
20
0.024129264204061935
30
0
10
6.3781158010399857
20
0.050189878704974066
30
0
10
6.5792759418668307
20
0.090305465405437546
30
0
10
6.7810089619402696
20
0.13211722015543279
30
0
10
6.9829584813844878
20
0.16428567358959284
30
0
10
7.1848317292402388
20
0.17951156089060383
30
0
10
7.3865106036459274
20
0.17791568335782942
30
0
10
7.5880082934831661
20
0.16483931551373956
30
0
10
7.7894128754582024
20
0.14818430503732025
30
0
10
7.9908354609825372
20
0.1359074611152491
30
0
10
8.1923574571056754
20
0.13349996403912773
30
0
10
8.3939756530707328
20
0.1413384785140073
30
0
10
8.5956242171839268
20
0.1560101835527623
30
0
10
8.7972000655610021
20
0.17180790471202317
30
0
10
8.9985868984299859
20
0.18215701140204121
30
0
10
9.1996796807475718
20
0.18106375286696658
30
0
10
9.4004091245670338
20
0.16456527713850511
30
0
10
9.6007344340367755
20
0.130319744065233
30
0
10
9.7606555714917036
20
0.087812089554428055
30
0
10
9.8804029695084647
20
0.047271560060353116
30
0
10
9.9601486438777656
20
0.016398236729662997
30
0
10
10
20
0
30
0
0
SPLINE
5
104
100
AcDbEntity
8
0
100
AcDbSpline
70
4
71
5
72
61
73
55
74
0
42
0.000000001
43
0.0000000001
44
0.0000000001
40
0
40
0
40
0
40
0
40
0
40
0
40
0.02
40
0.040000000000000001
40
0.059999999999999998
40
0.080000000000000002
40
0.10000000000000001
40
0.12000000000000001
40
0.14000000000000001
40
0.16
40
0.17999999999999999
40
0.19999999999999998
40
0.21999999999999997
40
0.23999999999999996
40
0.25999999999999995
40
0.27999999999999997
40
0.29999999999999999
40
0.32000000000000001
40
0.34000000000000002
40
0.36000000000000004
40
0.38000000000000006
40
0.40000000000000008
40
0.4200000000000001
40
0.44000000000000011
40
0.46000000000000013
40
0.48000000000000015
40
0.50000000000000011
40
0.52000000000000013
40
0.54000000000000015
40
0.56000000000000016
40
0.58000000000000018
40
0.6000000000000002
40
0.62000000000000022
40
0.64000000000000024
40
0.66000000000000025
40
0.68000000000000027
40
0.70000000000000029
40
0.72000000000000031
40
0.74000000000000032
40
0.76000000000000034
40
0.78000000000000036
40
0.80000000000000038
40
0.8200000000000004
40
0.84000000000000041
40
0.86000000000000043
40
0.88000000000000045
40
0.90000000000000047
40
0.92000000000000048
40
0.9400000000000005
40
0.96000000000000052
40
0.98000000000000054
40
1
40
1
40
1
40
1
40
1
40
1
41
1
41
1
41
1
41
1
41
1
41
1
41
1
41
1
41
1
41
1
41
1
41
1
41
1
41
1
41
1
41
1
41
1
41
1
41
1
41
1
41
1
41
1
41
1
41
1
41
1
41
1
41
1
41
1
41
1
41
1
41
1
41
1
41
1
41
1
41
1
41
1
41
1
41
1
41
1
41
1
41
1
41
1
41
1
41
1
41
1
41
1
41
1
41
1
41
1
41
1
41
1
41
1
41
1
41
1
41
1
10
0
20
3
30
0
10
0.040480461461758287
20
3.0046589705933942
30
0
10
0.12138893032144057
20
3.0126304284756928
30
0
10
0.24259427102013051
20
3.0205481548717539
30
0
10
0.40388646517539106
20
3.0230210297612992
30
0
10
0.60498622692188109
20
3.0129079954037397
30
0
10
0.80560084469233351
20
2.9904541002386891
30
0
10
1.0057924958031745
20
2.9574245600141902
30
0
10
1.2056665973683018
20
2.916807831487469
30
0
10
1.4053821491167642
20
2.8731092294984424
30
0
10
1.6051199270990137
20
2.831528964398033
30
0
10
1.8050516604773525
20
2.7971671871787778
30
0
10
2.005309063746
20
2.7742236294878886
30
0
10
2.2059523234200489
20
2.7651873682432999
30
0
10
2.4069400765289588
20
2.7700548563670147
30
0
10
2.6081658560893439
20
2.7868909235979982
30
0
10
2.8094930146535986
20
2.8123533842338388
30
0
10
3.0107897221866606
20
2.8422273471200024
30
0
10
3.2119647951949921
20
2.8719509555919194
30
0
10
3.4130007654353549
20
2.8971465671327841
30
0
10
3.6139303122922737
20
2.9141822486630446
30
0
10
3.8148152419624908
20
2.9207452932711235
30
0
10
4.0157248784036268
20
2.9163916977668052
30
0
10
4.2167141064193983
20
2.9031637068893508
30
0
10
4.4178033645335102
20
2.8860350667023695
30
0
10
4.6189864543397761
20
2.8711668188160666
30
0
10
4.8202364344971986
20
2.8642778764916272
30
0
10
5.0215122581579958
20
2.8690299433596831
30
0
10
5.2227648663264468
20
2.8852673088127108
30
0
10
5.423943993545091
20
2.9076963750702305
30
0
10
5.625009393038308
20
2.9285956317524029
30
0
10
5.8259421746757978
20
2.9402261453070047
30
0
10
6.0267552447258961
20
2.9372534286409064
30
0
10
6.2275063216547384
20
2.9194052906941961
30
0
10
6.4283038254702944
20
2.8933526113317214
30
0
10
6.6292639684086936
20
2.8690309516787544
30
0
10
6.8304718095730452
20
2.8564707351663805
30
0
10
7.0319429280365728
20
2.8625858120271079
30
0
10
7.233579520930018
20
2.8876195695931033
30
0
10
7.4351438184556518
20
2.9227688849443805
30
0
10
7.6363310709412513
20
2.9546867485907082
30
0
10
7.8368318017965137
20
2.9692296677369838
30
0
10
8.0363954114447012
20
2.9553259448468054
30
0
10
8.2348997814937235
20
2.9091883891620833
30
0
10
8.4323992676536363
20
2.8372250856178343
30
0
10
8.6290638219834985
20
2.7523579958796023
30
0
10
8.8251325706180381
20
2.6712151635349413
30
0
10
9.0208628961706445
20
2.6110505692441337
30
0
10
9.2164794906372514
20
2.5866561213752775
30
0
10
9.4121293324099078
20
2.6076431391925317
30
0
10
9.6079009720033515
20
2.6797310053442476
30
0
10
9.7646506579018038
20
2.7804878235676926
30
0
10
9.882293873535291
20
2.8806758568138964
30
0
10
9.9607586328056374
20
2.9584027865264662
30
0
10
10
20
3
30
0
0
ENDSEC
0
SECTION
2
OBJECTS
0
DICTIONARY
5
C
100
AcDbDictionary
3
ACAD_GROUP
350
D
3
ACAD_MLINESTYLE
350
17
0
DICTIONARY
5
D
100
AcDbDictionary
0
DICTIONARY
5
1A
330
C
100
AcDbDictionary
0
DICTIONARY
5
17
100
AcDbDictionary
0
ENDSEC
0
EOF
