0
SECTION
2
HEADER
9
$INSUNITS
70
4
9
$ACADVER
1
AC1014
9
$HANDSEED
5
FFFF
0
ENDSEC
0
SECTION
2
TABLES
0
TABLE
2
VPORT
5
8
100
AcDbSymbolTable
0
ENDTAB
0
TABLE
2
LTYPE
5
5
100
AcDbSymbolTable
0
LTYPE
5
14
100
AcDbSymbolTableRecord
100
AcDbLinetypeTableRecord
2
BYBLOCK
70
0
0
LTYPE
5
15
100
AcDbSymbolTableRecord
100
AcDbLinetypeTableRecord
2
BYLAYER
70
0
0
ENDTAB
0
TABLE
2
LAYER
5
2
100
AcDbSymbolTable
70
2
0
LAYER
5
50
100
AcDbSymbolTableRecord
100
AcDbLayerTableRecord
2
0
70
0
6
CONTINUOUS
0
ENDTAB
0
TABLE
2
STYLE
5
3
100
AcDbSymbolTable
70
1
0
STYLE
5
11
100
AcDbSymbolTableRecord
100
AcDbTextStyleTableRecord
2
STANDARD
70
0
0
ENDTAB
0
TABLE
2
VIEW
5
6
100
AcDbSymbolTable
70
0
0
ENDTAB
0
TABLE
2
UCS
5
7
100
AcDbSymbolTable
70
0
0
ENDTAB
0
TABLE
2
APPID
5
9
100
AcDbSymbolTable
70
2
0
APPID
5
12
100
AcDbSymbolTableRecord
100
AcDbRegAppTableRecord
2
ACAD
70
0
0
ENDTAB
0
TABLE
2
DIMSTYLE
5
A
100
AcDbSymbolTable
70
1
0
ENDTAB
0
TABLE
2
BLOCK_RECORD
5
1
100
AcDbSymbolTable
70
1
0
BLOCK_RECORD
5
1F
100
AcDbSymbolTableRecord
100
AcDbBlockTableRecord
2
*MODEL_SPACE
0
BLOCK_RECORD
5
1B
100
AcDbSymbolTableRecord
100
AcDbBlockTableRecord
2
*PAPER_SPACE
0
ENDTAB
0
ENDSEC
0
SECTION
2
BLOCKS
0
BLOCK
5
20
100
AcDbEntity
100
AcDbBlockBegin
2
*MODEL_SPACE
0
ENDBLK
5
21
100
AcDbEntity
100
AcDbBlockEnd
0
BLOCK
5
1C
100
AcDbEntity
100
AcDbBlockBegin
2
*PAPER_SPACE
0
ENDBLK
5
1D
100
AcDbEntity
100
AcDbBlockEnd
0
ENDSEC
0
SECTION
2
ENTITIES
0
SPLINE
5
100
100
AcDbEntity
8
0
100
AcDbSpline
70
4
71
5
72
16
73
10
74
0
42
0.000000001
43
0.0000000001
44
0.0000000001
40
0
40
0
40
0
40
0
40
0
40
0
40
0.20000000000000001
40
0.40000000000000002
40
0.60000000000000009
40
0.80000000000000004
40
1
40
1
40
1
40
1
40
1
40
1
41
1
41
1
41
1
41
1
41
1
41
1
41
1
41
1
41
1
41
1
10
0
20
0
30
0
10
0
20
0.12000000000003158
30
0
10
0
20
0.36000000000007704
30
0
10
0
20
0.72000000000009301
30
0
10
0
20
1.2000000000000313
30
0
10
0
20
1.7999999999999146
30
0
10
0
20
2.2799999999998684
30
0
10
0
20
2.6399999999999042
30
0
10
0
20
2.8799999999999617
30
0
10
0
20
3
30
0
0
SPLINE
5
101
100
AcDbEntity
8
0
100
AcDbSpline
70
4
71
5
72
16
73
10
74
0
42
0.000000001
43
0.0000000001
44
0.0000000001
40
0
40
0
40
0
40
0
40
0
40
0
40
0.20000000000000001
40
0.40000000000000002
40
0.60000000000000009
40
0.80000000000000004
40
1
40
1
40
1
40
1
40
1
40
1
41
1
41
1
41
1
41
1
41
1
41
1
41
1
41
1
41
1
41
1
10
10
20
0
30
0
10
9.9999999999997495
20
0.12000000000003158
30
0
10
9.9999999999993197
20
0.36000000000007704
30
0
10
9.9999999999989129
20
0.72000000000009301
30
0
10
9.9999999999987672
20
1.2000000000000313
30
0
10
9.9999999999990248
20
1.7999999999999146
30
0
10
9.9999999999993889
20
2.2799999999998684
30
0
10
9.9999999999996998
20
2.6399999999999042
30
0
10
9.9999999999999005
20
2.8799999999999617
30
0
10
10
20
3
30
0
0
SPLINE
5
102
100
AcDbEntity
8
0
100
AcDbSpline
70
4
71
5
72
16
73
10
74
0
42
0.000000001
43
0.0000000001
44
0.0000000001
40
0
40
0
40
0
40
0
40
0
40
0
40
0.20000000000000001
40
0.40000000000000002
40
0.60000000000000009
40
0.80000000000000004
40
1
40
1
40
1
40
1
40
1
40
1
41
1
41
1
41
1
41
1
41
1
41
1
41
1
41
1
41
1
41
1
10
0
20
1.5
30
0
10
0.40000000000047375
20
1.499999999999694
30
0
10
1.2000000000012774
20
1.4999999999991638
30
0
10
2.4000000000020547
20
1.4999999999986278
30
0
10
4.0000000000023546
20
1.4999999999983737
30
0
10
6.0000000000019584
20
1.4999999999985913
30
0
10
7.6000000000012928
20
1.4999999999990359
30
0
10
8.800000000000697
20
1.4999999999994786
30
0
10
9.6000000000002395
20
1.4999999999998188
30
0
10
10
20
1.5
30
0
0
SPLINE
5
103
100
AcDbEntity
8
0
100
AcDbSpline
70
4
71
5
72
111
73
105
74
0
42
0.000000001
43
0.0000000001
44
0.0000000001
40
0
40
0
40
0
40
0
40
0
40
0
40
0.01
40
0.02
40
0.029999999999999999
40
0.040000000000000001
40
0.050000000000000003
40
0.060000000000000005
40
0.070000000000000007
40
0.080000000000000002
40
0.089999999999999997
40
0.099999999999999992
40
0.10999999999999999
40
0.11999999999999998
40
0.12999999999999998
40
0.13999999999999999
40
0.14999999999999999
40
0.16
40
0.17000000000000001
40
0.18000000000000002
40
0.19000000000000003
40
0.20000000000000004
40
0.21000000000000005
40
0.22000000000000006
40
0.23000000000000007
40
0.24000000000000007
40
0.25000000000000006
40
0.26000000000000006
40
0.27000000000000007
40
0.28000000000000008
40
0.29000000000000009
40
0.3000000000000001
40
0.31000000000000011
40
0.32000000000000012
40
0.33000000000000013
40
0.34000000000000014
40
0.35000000000000014
40
0.36000000000000015
40
0.37000000000000016
40
0.38000000000000017
40
0.39000000000000018
40
0.40000000000000019
40
0.4100000000000002
40
0.42000000000000021
40
0.43000000000000022
40
0.44000000000000022
40
0.45000000000000023
40
0.46000000000000024
40
0.47000000000000025
40
0.48000000000000026
40
0.49000000000000027
40
0.50000000000000022
40
0.51000000000000023
40
0.52000000000000024
40
0.53000000000000025
40
0.54000000000000026
40
0.55000000000000027
40
0.56000000000000028
40
0.57000000000000028
40
0.58000000000000029
40
0.5900000000000003
40
0.60000000000000031
40
0.61000000000000032
40
0.62000000000000033
40
0.63000000000000034
40
0.64000000000000035
40
0.65000000000000036
40
0.66000000000000036
40
0.67000000000000037
40
0.68000000000000038
40
0.69000000000000039
40
0.7000000000000004
40
0.71000000000000041
40
0.72000000000000042
40
0.73000000000000043
40
0.74000000000000044
40
0.75000000000000044
40
0.76000000000000045
40
0.77000000000000046
40
0.78000000000000047
40
0.79000000000000048
40
0.80000000000000049
40
0.8100000000000005
40
0.82000000000000051
40
0.83000000000000052
40
0.84000000000000052
40
0.85000000000000053
40
0.86000000000000054
40
0.87000000000000055
40
0.88000000000000056
40
0.89000000000000057
40
0.90000000000000058
40
0.91000000000000059
40
0.9200000000000006
40
0.9300000000000006
40
0.94000000000000061
40
0.95000000000000062
40
0.96000000000000063
40
0.97000000000000064
40
0.98000000000000065
40
0.99000000000000066
40
1
40
1
40
1
40
1
40
1
40
1
41
1
41
1
41
1
41
1
41
1
41
1
41
1
41
1
41
1
41
1
41
1
41
1
41
1
41
1
41
1
41
1
41
1
41
1
41
1
41
1
41
1
41
1
41
1
41
1
41
1
41
1
41
1
41
1
41
1
41
1
41
1
41
1
41
1
41
1
41
1
41
1
41
1
41
1
41
1
41
1
41
1
41
1
41
1
41
1
41
1
41
1
41
1
41
1
41
1
41
1
41
1
41
1
41
1
41
1
41
1
41
1
41
1
41
1
41
1
41
1
41
1
41
1
41
1
41
1
41
1
41
1
41
1
41
1
41
1
41
1
41
1
41
1
41
1
41
1
41
1
41
1
41
1
41
1
41
1
41
1
41
1
41
1
41
1
41
1
41
1
41
1
41
1
41
1
41
1
41
1
41
1
41
1
41
1
41
1
41
1
41
1
41
1
41
1
41
1
41
1
41
1
41
1
41
1
41
1
41
1
10
0
20
0
30
0
10
0.019759106947204383
20
0.0050468432091145491
30
0
10
0.059309556920951183
20
0.015299187452282721
30
0
10
0.11873194017189606
20
0.031153668723109474
30
0
10
0.19815523211852792
20
0.053245136536514172
30
0
10
0.29775650422923139
20
0.082205573181679176
30
0
10
0.39767884306496981
20
0.11178933471242998
30
0
10
0.49791984514304755
20
0.14054691227082505
30
0
10
0.59847525953376746
20
0.16606593332395644
30
0
10
0.69933860066866682
20
0.18471035424507304
30
0
10
0.80049172870658447
20
0.19283315903148174
30
0
10
0.90189520073496854
20
0.18802568531306779
30
0
10
1.0034788041881171
20
0.17033558765127871
30
0
10
1.1051317376708114
20
0.14354213356896317
30
0
10
1.2066936343626244
20
0.11629120132343093
30
0
10
1.3079722854163423
20
0.099129429687305051
30
0
10
1.4087604929318798
20
0.10162309314948005
30
0
10
1.508853359351823
20
0.12952007225586717
30
0
10
1.6080651039578164
20
0.18171764785105574
30
0
10
1.7062469325787659
20
0.24780834061382931
30
0
10
1.8033175763059017
20
0.31247746410789762
30
0
10
1.8992924855073423
20
0.3593850228446015
30
0
10
1.9943145915972686
20
0.37530037745393519
30
0
10
2.0886821921172634
20
0.35399666951877012
30
0
10
2.1828843211828128
20
0.30061373763932553
30
0
10
2.2775026468379105
20
0.22794173627437156
30
0
10
2.3731082227203775
20
0.15232102915807524
30
0
10
2.4701547275255957
20
0.089510004662921278
30
0
10
2.5688853871765356
20
0.050962853283439823
30
0
10
2.669202698737418
20
0.038921529961171215
30
0
10
2.7707296935162895
20
0.047694416644007295
30
0
10
2.8729477445095908
20
0.067424949921886967
30
0
10
2.9753135501468146
20
0.087161372977737461
30
0
10
3.0773758021976914
20
0.09797358455615171
30
0
10
3.1789150184497532
20
0.096673890734565296
30
0
10
3.2799199836581172
20
0.085119939059444677
30
0
10
3.3805138202356968
20
0.068151994797310531
30
0
10
3.4808960103495568
20
0.051955450109958494
30
0
10
3.5812801984827516
20
0.042327772851094292
30
0
10
3.6818275917211132
20
0.04277502416076405
30
0
10
3.7826336066841169
20
0.054416837918920005
30
0
10
3.883727585932069
20
0.076321756846061919
30
0
10
3.9850670452022459
20
0.10567576415279308
30
0
10
4.0865361751012461
20
0.13805617274835677
30
0
10
4.1879371969538326
20
0.16756298758395002
30
0
10
4.2890375959177831
20
0.1879672090425559
30
0
10
4.389625276923022
20
0.19399363296383415
30
0
10
4.4895624667277447
20
0.18259727519594987
30
0
10
4.5888367545191935
20
0.15415287003202721
30
0
10
4.6876225577960282
20
0.11392539955987455
30
0
10
4.7862159632855672
20
0.070194088824008682
30
0
10
4.8849567377392527
20
0.032044304729373856
30
0
10
4.9841527949824105
20
0.0072103796103046179
30
0
10
5.0840085649319029
20
5.2691376827943368e-05
30
0
10
5.1845386364361694
20
0.0090647091930618259
30
0
10
5.2856118527391267
20
0.028498008696960165
30
0
10
5.387017702881721
20
0.050685093773976883
30
0
10
5.4885259803198903
20
0.068161285349364414
30
0
10
5.5899466867515093
20
0.075769385152884366
30
0
10
5.6911966534607172
20
0.07304262470154918
30
0
10
5.7922760066482271
20
0.063011546140600658
30
0
10
5.8932338676783296
20
0.050587181879172972
30
0
10
5.9941376079626476
20
0.041083091811683244
30
0
10
6.0950413868188305
20
0.038711537197134847
30
0
10
6.1959529302037097
20
0.045003400603148246
30
0
10
6.2968503147637467
20
0.05933776077701839
30
0
10
6.3977016616800508
20
0.079594730743854245
30
0
10
6.4984838295630727
20
0.10276261360327346
30
0
10
6.5992013594483021
20
0.12556226494769174
30
0
10
6.6999058068886015
20
0.14506739449908029
30
0
10
6.8006713863844146
20
0.15904188518550247
30
0
10
6.9015698780083747
20
0.16627480718508936
30
0
10
7.0026460088854723
20
0.16691138612357051
30
0
10
7.103892164462394
20
0.16279950449039488
30
0
10
7.2052246173213943
20
0.15779508546858695
30
0
10
7.3065178957923971
20
0.15649664892139181
30
0
10
7.4076380977570828
20
0.1629990856178431
30
0
10
7.508475981524855
20
0.1796749548571871
30
0
10
7.6089815632732636
20
0.20586251798968641
30
0
10
7.7091940939039549
20
0.23682156083972894
30
0
10
7.8092151800072118
20
0.26587120563001576
30
0
10
7.9091858291944899
20
0.28633726812957705
30
0
10
8.0092620213539814
20
0.29351629953078084
30
0
10
8.1095909539215256
20
0.28676192733459527
30
0
10
8.2102869440829771
20
0.27115400793019467
30
0
10
8.3114093628621237
20
0.25468339004995322
30
0
10
8.4129392708638377
20
0.24572735405951895
30
0
10
8.5147586664628836
20
0.25051602164040732
30
0
10
8.6166235119426773
20
0.27036612118664266
30
0
10
8.7181541349445766
20
0.29970364012569572
30
0
10
8.8189327369350217
20
0.32917871763135453
30
0
10
8.9185910000545991
20
0.34826100342468536
30
0
10
9.0168975255619479
20
0.34793445686894359
30
0
10
9.1138547955707043
20
0.32358378486279271
30
0
10
9.2097641949505622
20
0.27710386429194539
30
0
10
9.3051178847534004
20
0.21469013069903758
30
0
10
9.4005129083969088
20
0.14518431819042157
30
0
10
9.4965562880277385
20
0.078197906900449018
30
0
10
9.593775088678381
20
0.022351828678297617
30
0
10
9.6925212874019522
20
-0.016590637082518098
30
0
10
9.7930047980592239
20
-0.035189979977890369
30
0
10
9.8748649921086979
20
-0.03242356310917284
30
0
10
9.9371042719769207
20
-0.020169708628631718
30
0
10
9.9789722385728918
20
-0.0074771249256355221
30
0
10
10
20
0
30
0
0
SPLINE
5
104
100
AcDbEntity
8
0
100
AcDbSpline
70
4
71
5
72
111
73
105
74
0
42
0.000000001
43
0.0000000001
44
0.0000000001
40
0
40
0
40
0
40
0
40
0
40
0
40
0.01
40
0.02
40
0.029999999999999999
40
0.040000000000000001
40
0.050000000000000003
40
0.060000000000000005
40
0.070000000000000007
40
0.080000000000000002
40
0.089999999999999997
40
0.099999999999999992
40
0.10999999999999999
40
0.11999999999999998
40
0.12999999999999998
40
0.13999999999999999
40
0.14999999999999999
40
0.16
40
0.17000000000000001
40
0.18000000000000002
40
0.19000000000000003
40
0.20000000000000004
40
0.21000000000000005
40
0.22000000000000006
40
0.23000000000000007
40
0.24000000000000007
40
0.25000000000000006
40
0.26000000000000006
40
0.27000000000000007
40
0.28000000000000008
40
0.29000000000000009
40
0.3000000000000001
40
0.31000000000000011
40
0.32000000000000012
40
0.33000000000000013
40
0.34000000000000014
40
0.35000000000000014
40
0.36000000000000015
40
0.37000000000000016
40
0.38000000000000017
40
0.39000000000000018
40
0.40000000000000019
40
0.4100000000000002
40
0.42000000000000021
40
0.43000000000000022
40
0.44000000000000022
40
0.45000000000000023
40
0.46000000000000024
40
0.47000000000000025
40
0.48000000000000026
40
0.49000000000000027
40
0.50000000000000022
40
0.51000000000000023
40
0.52000000000000024
40
0.53000000000000025
40
0.54000000000000026
40
0.55000000000000027
40
0.56000000000000028
40
0.57000000000000028
40
0.58000000000000029
40
0.5900000000000003
40
0.60000000000000031
40
0.61000000000000032
40
0.62000000000000033
40
0.63000000000000034
40
0.64000000000000035
40
0.65000000000000036
40
0.66000000000000036
40
0.67000000000000037
40
0.68000000000000038
40
0.69000000000000039
40
0.7000000000000004
40
0.71000000000000041
40
0.72000000000000042
40
0.73000000000000043
40
0.74000000000000044
40
0.75000000000000044
40
0.76000000000000045
40
0.77000000000000046
40
0.78000000000000047
40
0.79000000000000048
40
0.80000000000000049
40
0.8100000000000005
40
0.82000000000000051
40
0.83000000000000052
40
0.84000000000000052
40
0.85000000000000053
40
0.86000000000000054
40
0.87000000000000055
40
0.88000000000000056
40
0.89000000000000057
40
0.90000000000000058
40
0.91000000000000059
40
0.9200000000000006
40
0.9300000000000006
40
0.94000000000000061
40
0.95000000000000062
40
0.96000000000000063
40
0.97000000000000064
40
0.98000000000000065
40
0.99000000000000066
40
1
40
1
40
1
40
1
40
1
40
1
41
1
41
1
41
1
41
1
41
1
41
1
41
1
41
1
41
1
41
1
41
1
41
1
41
1
41
1
41
1
41
1
41
1
41
1
41
1
41
1
41
1
41
1
41
1
41
1
41
1
41
1
41
1
41
1
41
1
41
1
41
1
41
1
41
1
41
1
41
1
41
1
41
1
41
1
41
1
41
1
41
1
41
1
41
1
41
1
41
1
41
1
41
1
41
1
41
1
41
1
41
1
41
1
41
1
41
1
41
1
41
1
41
1
41
1
41
1
41
1
41
1
41
1
41
1
41
1
41
1
41
1
41
1
41
1
41
1
41
1
41
1
41
1
41
1
41
1
41
1
41
1
41
1
41
1
41
1
41
1
41
1
41
1
41
1
41
1
41
1
41
1
41
1
41
1
41
1
41
1
41
1
41
1
41
1
41
1
41
1
41
1
41
1
41
1
41
1
41
1
41
1
41
1
41
1
41
1
41
1
10
0
20
3
30
0
10
0.020039302327593236
20
2.9854947328389922
30
0
10
0.060155202603132771
20
2.9586087946772928
30
0
10
0.12044094091026658
20
2.9246537162393276
30
0
10
0.20104572859757008
20
2.8921296621498249
30
0
10
0.30216319308589584
20
2.8722317263750634
30
0
10
0.40360702342298499
20
2.8715878620624502
30
0
10
0.5053069937089032
20
2.8871870561978259
30
0
10
0.60714513924685487
20
2.913970438665654
30
0
10
0.70894603047304094
20
2.9444046634959031
30
0
10
0.81052121322149506
20
2.9701837146869012
30
0
10
0.91171211070385605
20
2.9838672192003179
30
0
10
1.0124317793417101
20
2.9804804483731671
30
0
10
1.112711231150175
20
2.9592772204062454
30
0
10
1.2127321496503374
20
2.9250140052359712
30
0
10
1.3127547255727336
20
2.8854528527432581
30
0
10
1.4130545003400554
20
2.8491879113710872
30
0
10
1.5138580142812375
20
2.8234302308100512
30
0
10
1.6152737219989401
20
2.8116198629361771
30
0
10
1.7172401386200142
20
2.8116648779945002
30
0
10
1.8195919505317426
20
2.8184432839932199
30
0
10
1.9221149912317657
20
2.8259179070580283
30
0
10
2.024602259362247
20
2.8292531663299063
30
0
10
2.1269170230111829
20
2.8272753175021381
30
0
10
2.2290295751934948
20
2.8237228625246851
30
0
10
2.3309648985105098
20
2.8244506880514164
30
0
10
2.4327630662888828
20
2.8351996602789113
30
0
10
2.5344391197051088
20
2.8593718795943017
30
0
10
2.6359325137534433
20
2.8952597264903641
30
0
10
2.7370963934057264
20
2.9353131532486381
30
0
10
2.8377671508373754
20
2.9695339947967843
30
0
10
2.9378200318649332
20
2.9881141473438735
30
0
10
3.0372235563870866
20
2.9841091965494453
30
0
10
3.1361107756139006
20
2.9567381924565144
30
0
10
3.2347874893221835
20
2.9122187384536802
30
0
10
3.3336318861493912
20
2.8603098934337421
30
0
10
3.4330158216174818
20
2.811730592926331
30
0
10
3.5332240903639454
20
2.7754518465374014
30
0
10
3.6343585222205901
20
2.755504735571269
30
0
10
3.7363015976184992
20
2.7497761928201427
30
0
10
3.8388060112743405
20
2.7530038167297324
30
0
10
3.941560024560673
20
2.7590024341370163
30
0
10
4.0442572270230572
20
2.7629394804417502
30
0
10
4.146676992830912
20
2.7642110254401508
30
0
10
4.2487145969611024
20
2.7668122972049853
30
0
10
4.350341357391291
20
2.7763509611768473
30
0
10
4.4515810335100428
20
2.7977434876036948
30
0
10
4.5524824816287195
20
2.8329712994638987
30
0
10
4.6530870620640581
20
2.8779854765419284
30
0
10
4.753425824318926
20
2.9232891510063967
30
0
10
4.8535439970792424
20
2.9578467797838837
30
0
10
4.9535205966806197
20
2.9722780445905954
30
0
10
5.0534840185483931
20
2.9618822420226238
30
0
10
5.1536442102487934
20
2.9308763282670753
30
0
10
5.2542572151986118
20
2.8914370765276924
30
0
10
5.3555350083281237
20
2.8583518453115255
30
0
10
5.4575641662619443
20
2.8446390637752361
30
0
10
5.5602352902297909
20
2.857370135654083
30
0
10
5.663131893042558
20
2.891915144444039
30
0
10
5.7655959738808811
20
2.9334862599356351
30
0
10
5.8669119013262794
20
2.9636444285909365
30
0
10
5.9664630734534461
20
2.965614993143721
30
0
10
6.0638823505852466
20
2.9294620063361614
30
0
10
6.1592492276073019
20
2.8589153032240149
30
0
10
6.2530449795109995
20
2.7694742228567675
30
0
10
6.345982718471177
20
2.6820303947166724
30
0
10
6.4388730820496267
20
2.6176934093120701
30
0
10
6.5324834790257746
20
2.5925743085326802
30
0
10
6.6273802031014286
20
2.6114858275319324
30
0
10
6.7238450397020797
20
2.6658062535319105
30
0
10
6.8219427546341818
20
2.7395294485116013
30
0
10
6.9215553292393839
20
2.8136400612601391
30
0
10
7.0224297984217312
20
2.8709199108724888
30
0
10
7.1242192196736021
20
2.9011315698680429
30
0
10
7.2265292916796486
20
2.9043183184314354
30
0
10
7.3289724572168726
20
2.8867726171008421
30
0
10
7.4312239977181793
20
2.8580701324580433
30
0
10
7.5330713694171063
20
2.8279063705182605
30
0
10
7.6344807328160424
20
2.8024992686756129
30
0
10
7.7356093593019812
20
2.7828862255906497
30
0
10
7.8367042174310608
20
2.7674447792857664
30
0
10
7.9380203183863145
20
2.7536325375807231
30
0
10
8.0397391367085884
20
2.7398287154646486
30
0
10
8.1418679002403653
20
2.7276351808091874
30
0
10
8.2442135978388578
20
2.722231666437398
30
0
10
8.3464770808415309
20
2.7296197466960819
30
0
10
8.4483217984739341
20
2.7544547749137758
30
0
10
8.5494465313046231
20
2.7979502284371978
30
0
10
8.6496715131589266
20
2.8549939044421868
30
0
10
8.7489602470501318
20
2.9145221945360982
30
0
10
8.8473711845911645
20
2.9633057507396905
30
0
10
8.9450274604361368
20
2.988957216359271
30
0
10
9.0420812600987599
20
2.9829536295572727
30
0
10
9.1386757666784959
20
2.9443893223755593
30
0
10
9.2349255149706124
20
2.8807375268374762
30
0
10
9.33092369755785
20
2.8045527995384569
30
0
10
9.4267426382401602
20
2.7311435371026844
30
0
10
9.5224370343350202
20
2.6759581448044187
30
0
10
9.6180459849050095
20
2.6518456170635103
30
0
10
9.7135955812358858
20
2.6671413407282123
30
0
10
9.8091014763585491
20
2.7268989077036943
30
0
10
9.8854775040260208
20
2.8122587807530701
30
0
10
9.9427445676580497
20
2.8977725228176476
30
0
10
9.9809159636305242
20
2.9643323710408156
30
0
10
10
20
3
30
0
0
ENDSEC
0
SECTION
2
OBJECTS
0
DICTIONARY
5
C
100
AcDbDictionary
3
ACAD_GROUP
350
D
3
ACAD_MLINESTYLE
350
17
0
DICTIONARY
5
D
100
AcDbDictionary
0
DICTIONARY
5
1A
330
C
100
AcDbDictionary
0
DICTIONARY
5
17
100
AcDbDictionary
0
ENDSEC
0
EOF
