0
SECTION
2
HEADER
9
$INSUNITS
70
4
9
$ACADVER
1
AC1014
9
$HANDSEED
5
FFFF
0
ENDSEC
0
SECTION
2
TABLES
0
TABLE
2
VPORT
5
8
100
AcDbSymbolTable
0
ENDTAB
0
TABLE
2
LTYPE
5
5
100
AcDbSymbolTable
0
LTYPE
5
14
100
AcDbSymbolTableRecord
100
AcDbLinetypeTableRecord
2
BYBLOCK
70
0
0
LTYPE
5
15
100
AcDbSymbolTableRecord
100
AcDbLinetypeTableRecord
2
BYLAYER
70
0
0
ENDTAB
0
TABLE
2
LAYER
5
2
100
AcDbSymbolTable
70
2
0
LAYER
5
50
100
AcDbSymbolTableRecord
100
AcDbLayerTableRecord
2
0
70
0
6
CONTINUOUS
0
ENDTAB
0
TABLE
2
STYLE
5
3
100
AcDbSymbolTable
70
1
0
STYLE
5
11
100
AcDbSymbolTableRecord
100
AcDbTextStyleTableRecord
2
STANDARD
70
0
0
ENDTAB
0
TABLE
2
VIEW
5
6
100
AcDbSymbolTable
70
0
0
ENDTAB
0
TABLE
2
UCS
5
7
100
AcDbSymbolTable
70
0
0
ENDTAB
0
TABLE
2
APPID
5
9
100
AcDbSymbolTable
70
2
0
APPID
5
12
100
AcDbSymbolTableRecord
100
AcDbRegAppTableRecord
2
ACAD
70
0
0
ENDTAB
0
TABLE
2
DIMSTYLE
5
A
100
AcDbSymbolTable
70
1
0
ENDTAB
0
TABLE
2
BLOCK_RECORD
5
1
100
AcDbSymbolTable
70
1
0
BLOCK_RECORD
5
1F
100
AcDbSymbolTableRecord
100
AcDbBlockTableRecord
2
*MODEL_SPACE
0
BLOCK_RECORD
5
1B
100
AcDbSymbolTableRecord
100
AcDbBlockTableRecord
2
*PAPER_SPACE
0
ENDTAB
0
ENDSEC
0
SECTION
2
BLOCKS
0
BLOCK
5
20
100
AcDbEntity
100
AcDbBlockBegin
2
*MODEL_SPACE
0
ENDBLK
5
21
100
AcDbEntity
100
AcDbBlockEnd
0
BLOCK
5
1C
100
AcDbEntity
100
AcDbBlockBegin
2
*PAPER_SPACE
0
ENDBLK
5
1D
100
AcDbEntity
100
AcDbBlockEnd
0
ENDSEC
0
SECTION
2
ENTITIES
0
SPLINE
5
100
100
AcDbEntity
8
0
100
AcDbSpline
70
4
71
5
72
16
73
10
74
0
42
0.000000001
43
0.0000000001
44
0.0000000001
40
0
40
0
40
0
40
0
40
0
40
0
40
0.20000000000000001
40
0.40000000000000002
40
0.60000000000000009
40
0.80000000000000004
40
1
40
1
40
1
40
1
40
1
40
1
41
1
41
1
41
1
41
1
41
1
41
1
41
1
41
1
41
1
41
1
10
0
20
0
30
0
10
0
20
0.12000000000003158
30
0
10
0
20
0.36000000000007704
30
0
10
0
20
0.72000000000009301
30
0
10
0
20
1.2000000000000313
30
0
10
0
20
1.7999999999999146
30
0
10
0
20
2.2799999999998684
30
0
10
0
20
2.6399999999999042
30
0
10
0
20
2.8799999999999617
30
0
10
0
20
3
30
0
0
SPLINE
5
101
100
AcDbEntity
8
0
100
AcDbSpline
70
4
71
5
72
16
73
10
74
0
42
0.000000001
43
0.0000000001
44
0.0000000001
40
0
40
0
40
0
40
0
40
0
40
0
40
0.20000000000000001
40
0.40000000000000002
40
0.60000000000000009
40
0.80000000000000004
40
1
40
1
40
1
40
1
40
1
40
1
41
1
41
1
41
1
41
1
41
1
41
1
41
1
41
1
41
1
41
1
10
10
20
0
30
0
10
9.9999999999997495
20
0.12000000000003158
30
0
10
9.9999999999993197
20
0.36000000000007704
30
0
10
9.9999999999989129
20
0.72000000000009301
30
0
10
9.9999999999987672
20
1.2000000000000313
30
0
10
9.9999999999990248
20
1.7999999999999146
30
0
10
9.9999999999993889
20
2.2799999999998684
30
0
10
9.9999999999996998
20
2.6399999999999042
30
0
10
9.9999999999999005
20
2.8799999999999617
30
0
10
10
20
3
30
0
0
SPLINE
5
102
100
AcDbEntity
8
0
100
AcDbSpline
70
4
71
5
72
16
73
10
74
0
42
0.000000001
43
0.0000000001
44
0.0000000001
40
0
40
0
40
0
40
0
40
0
40
0
40
0.20000000000000001
40
0.40000000000000002
40
0.60000000000000009
40
0.80000000000000004
40
1
40
1
40
1
40
1
40
1
40
1
41
1
41
1
41
1
41
1
41
1
41
1
41
1
41
1
41
1
41
1
10
0
20
1.5
30
0
10
0.40000000000047375
20
1.499999999999694
30
0
10
1.2000000000012774
20
1.4999999999991638
30
0
10
2.4000000000020547
20
1.4999999999986278
30
0
10
4.0000000000023546
20
1.4999999999983737
30
0
10
6.0000000000019584
20
1.4999999999985913
30
0
10
7.6000000000012928
20
1.4999999999990359
30
0
10
8.800000000000697
20
1.4999999999994786
30
0
10
9.6000000000002395
20
1.4999999999998188
30
0
10
10
20
1.5
30
0
0
SPLINE
5
103
100
AcDbEntity
8
0
100
AcDbSpline
70
4
71
5
72
61
73
55
74
0
42
0.000000001
43
0.0000000001
44
0.0000000001
40
0
40
0
40
0
40
0
40
0
40
0
40
0.02
40
0.040000000000000001
40
0.059999999999999998
40
0.080000000000000002
40
0.10000000000000001
40
0.12000000000000001
40
0.14000000000000001
40
0.16
40
0.17999999999999999
40
0.19999999999999998
40
0.21999999999999997
40
0.23999999999999996
40
0.25999999999999995
40
0.27999999999999997
40
0.29999999999999999
40
0.32000000000000001
40
0.34000000000000002
40
0.36000000000000004
40
0.38000000000000006
40
0.40000000000000008
40
0.4200000000000001
40
0.44000000000000011
40
0.46000000000000013
40
0.48000000000000015
40
0.50000000000000011
40
0.52000000000000013
40
0.54000000000000015
40
0.56000000000000016
40
0.58000000000000018
40
0.6000000000000002
40
0.62000000000000022
40
0.64000000000000024
40
0.66000000000000025
40
0.68000000000000027
40
0.70000000000000029
40
0.72000000000000031
40
0.74000000000000032
40
0.76000000000000034
40
0.78000000000000036
40
0.80000000000000038
40
0.8200000000000004
40
0.84000000000000041
40
0.86000000000000043
40
0.88000000000000045
40
0.90000000000000047
40
0.92000000000000048
40
0.9400000000000005
40
0.96000000000000052
40
0.98000000000000054
40
1
40
1
40
1
40
1
40
1
40
1
41
1
41
1
41
1
41
1
41
1
41
1
41
1
41
1
41
1
41
1
41
1
41
1
41
1
41
1
41
1
41
1
41
1
41
1
41
1
41
1
41
1
41
1
41
1
41
1
41
1
41
1
41
1
41
1
41
1
41
1
41
1
41
1
41
1
41
1
41
1
41
1
41
1
41
1
41
1
41
1
41
1
41
1
41
1
41
1
41
1
41
1
41
1
41
1
41
1
41
1
41
1
41
1
41
1
41
1
41
1
10
0
20
0
30
0
10
0.039739105152154647
20
0.026114529218515897
30
0
10
0.11920635030707499
20
0.075058591819293308
30
0
10
0.23837432309127887
20
0.1386197210127354
30
0
10
0.39719911633208604
20
0.20364492525173736
30
0
10
0.59562871414504326
20
0.25248959694395051
30
0
10
0.79398228943580273
20
0.27032814267063399
30
0
10
0.99231110182250781
20
0.26012879657523141
30
0
10
1.1907006803726647
20
0.22691910514815611
30
0
10
1.3892806457804139
20
0.17837399998762948
30
0
10
1.5881948751903587
20
0.12359337010111562
30
0
10
1.7875705293298771
20
0.071823287469261657
30
0
10
1.9874869074096586
20
0.031186132350907139
30
0
10
2.1879455353444195
20
0.0074352886902915747
30
0
10
2.3888360616071584
20
0.002611151495810152
30
0
10
2.5899808483946356
20
0.015591131624764982
30
0
10
2.7911839447384135
20
0.042750111219284084
30
0
10
2.9922788451328097
20
0.078569875898433936
30
0
10
3.1931757256847106
20
0.11627139766089846
30
0
10
3.3939120060266124
20
0.14841271527062044
30
0
10
3.5945991478590584
20
0.16818994336339343
30
0
10
3.7953658849155762
20
0.17075885925877818
30
0
10
3.9963025751714696
20
0.15456317993657467
30
0
10
4.1974056510315254
20
0.12264650761661104
30
0
10
4.3985200666788646
20
0.084043827987957245
30
0
10
4.5994101620139141
20
0.050729500143467318
30
0
10
4.7998325406919937
20
0.034497700098034108
30
0
10
4.9996081950006239
20
0.043866709480498964
30
0
10
5.198694940953871
20
0.080972541007320445
30
0
10
5.3972604335208443
20
0.13843416924024127
30
0
10
5.5956015471120688
20
0.20315431788488558
30
0
10
5.7940638988640467
20
0.26011266808426298
30
0
10
5.9929609384505964
20
0.29618195288544191
30
0
10
6.1924945301472576
20
0.30387144062097854
30
0
10
6.3926710066840853
20
0.28529231341960271
30
0
10
6.5933609974260232
20
0.24909188629105974
30
0
10
6.7943635190871632
20
0.20717894087905783
30
0
10
6.9954685270442329
20
0.17152407134744582
30
0
10
7.1965193992184613
20
0.15096155163942226
30
0
10
7.3974772715994188
20
0.14790167102391466
30
0
10
7.5983817093413739
20
0.15999531217977189
30
0
10
7.7993092923382568
20
0.1818958832897109
30
0
10
8.0003331180937352
20
0.20697507203918336
30
0
10
8.2014819030909933
20
0.22905396901112432
30
0
10
8.4026992651834682
20
0.24412418275272535
30
0
10
8.6038701945787146
20
0.24989567559437156
30
0
10
8.8048473850499693
20
0.24534962109518782
30
0
10
9.0054773939821438
20
0.23029488751755367
30
0
10
9.2056271091171791
20
0.20492258793055462
30
0
10
9.4052093769194798
20
0.16937253323815377
30
0
10
9.6041729035468801
20
0.12374587257358861
30
0
10
9.762829041313811
20
0.079235101077225548
30
0
10
9.8815283214454439
20
0.041362390794463737
30
0
10
9.9605311168520778
20
0.014119813779371142
30
0
10
10
20
0
30
0
0
SPLINE
5
104
100
AcDbEntity
8
0
100
AcDbSpline
70
4
71
5
72
61
73
55
74
0
42
0.000000001
43
0.0000000001
44
0.0000000001
40
0
40
0
40
0
40
0
40
0
40
0
40
0.02
40
0.040000000000000001
40
0.059999999999999998
40
0.080000000000000002
40
0.10000000000000001
40
0.12000000000000001
40
0.14000000000000001
40
0.16
40
0.17999999999999999
40
0.19999999999999998
40
0.21999999999999997
40
0.23999999999999996
40
0.25999999999999995
40
0.27999999999999997
40
0.29999999999999999
40
0.32000000000000001
40
0.34000000000000002
40
0.36000000000000004
40
0.38000000000000006
40
0.40000000000000008
40
0.4200000000000001
40
0.44000000000000011
40
0.46000000000000013
40
0.48000000000000015
40
0.50000000000000011
40
0.52000000000000013
40
0.54000000000000015
40
0.56000000000000016
40
0.58000000000000018
40
0.6000000000000002
40
0.62000000000000022
40
0.64000000000000024
40
0.66000000000000025
40
0.68000000000000027
40
0.70000000000000029
40
0.72000000000000031
40
0.74000000000000032
40
0.76000000000000034
40
0.78000000000000036
40
0.80000000000000038
40
0.8200000000000004
40
0.84000000000000041
40
0.86000000000000043
40
0.88000000000000045
40
0.90000000000000047
40
0.92000000000000048
40
0.9400000000000005
40
0.96000000000000052
40
0.98000000000000054
40
1
40
1
40
1
40
1
40
1
40
1
41
1
41
1
41
1
41
1
41
1
41
1
41
1
41
1
41
1
41
1
41
1
41
1
41
1
41
1
41
1
41
1
41
1
41
1
41
1
41
1
41
1
41
1
41
1
41
1
41
1
41
1
41
1
41
1
41
1
41
1
41
1
41
1
41
1
41
1
41
1
41
1
41
1
41
1
41
1
41
1
41
1
41
1
41
1
41
1
41
1
41
1
41
1
41
1
41
1
41
1
41
1
41
1
41
1
41
1
41
1
10
0
20
3
30
0
10
0.039665748783750482
20
2.9655288557224475
30
0
10
0.11898801620079334
20
2.9013136703805205
30
0
10
0.23794372732798288
20
2.8191721394569869
30
0
10
0.3964959221185218
20
2.7380316140971157
30
0
10
0.5946013969793944
20
2.683076926633337
30
0
10
0.79264520221385426
20
2.6719210962883659
30
0
10
0.99067398370330528
20
2.6990565422196284
30
0
10
1.1887655534207568
20
2.7552037694491931
30
0
10
1.3870378148030336
20
2.826196764671141
30
0
10
1.5856273528938409
20
2.8959506663020047
30
0
10
1.7846668462439368
20
2.9495732785543609
30
0
10
1.9842626132649457
20
2.9764934746865568
30
0
10
2.184472707877803
20
2.9734352970627236
30
0
10
2.3852828368207559
20
2.9478984801195915
30
0
10
2.5866159823122676
20
2.9138707733274809
30
0
10
2.788344581409822
20
2.8869774604425702
30
0
10
2.9903015295615005
20
2.8797853931639845
30
0
10
3.1922917662377728
20
2.8971671220756745
30
0
10
3.3941029287119884
20
2.9312682597651856
30
0
10
3.595532825620094
20
2.9666923285806508
30
0
10
3.7964175833427967
20
2.9861353126606378
30
0
10
3.9966598086720313
20
2.9758713742245826
30
0
10
4.196256532729711
20
2.9312500259964276
30
0
10
4.3953285619269531
20
2.8623660295743698
30
0
10
4.594071719481402
20
2.7880874059267349
30
0
10
4.7927072341359578
20
2.7299380860797227
30
0
10
4.9914320519461643
20
2.7059862435291238
30
0
10
5.1903703207644156
20
2.7248632854006938
30
0
10
5.3895210563085341
20
2.779330091397751
30
0
10
5.5888060947281035
20
2.8518179370329073
30
0
10
5.7881215593969513
20
2.920401357094601
30
0
10
5.9873887709642108
20
2.964669554471659
30
0
10
6.1866034984473846
20
2.9714725791684775
30
0
10
6.3858912690247038
20
2.941189379882557
30
0
10
6.5854479733403757
20
2.8839141029422031
30
0
10
6.7854740360277486
20
2.8150556218205129
30
0
10
6.9861098577102041
20
2.7511213142258084
30
0
10
7.187373156716558
20
2.7055377420586146
30
0
10
7.389088279728611
20
2.6841595353494334
30
0
10
7.5909594893091716
20
2.6868508772835291
30
0
10
7.7926535177753458
20
2.7094678191881023
30
0
10
7.9938791100487574
20
2.7456899334763052
30
0
10
8.1944667119778298
20
2.7888898001026381
30
0
10
8.3944515992560937
20
2.8340316929510241
30
0
10
8.5940172791464562
20
2.8774647797612598
30
0
10
8.7934351309725063
20
2.916652258736371
30
0
10
8.9930054126572045
20
2.9499268314786091
30
0
10
9.1929985404280892
20
2.9762392863654648
30
0
10
9.3935942600041251
20
2.9949078849424127
30
0
10
9.5948986964371077
20
3.0055365213094638
30
0
10
9.7565508088975292
20
3.0074592611094584
30
0
10
9.8781395234669471
20
3.0051770193652723
30
0
10
9.9593539591499063
20
3.0020013664582548
30
0
10
10
20
3
30
0
0
ENDSEC
0
SECTION
2
OBJECTS
0
DICTIONARY
5
C
100
AcDbDictionary
3
ACAD_GROUP
350
D
3
ACAD_MLINESTYLE
350
17
0
DICTIONARY
5
D
100
AcDbDictionary
0
DICTIONARY
5
1A
330
C
100
AcDbDictionary
0
DICTIONARY
5
17
100
AcDbDictionary
0
ENDSEC
0
EOF
