0
SECTION
2
HEADER
9
$INSUNITS
70
4
9
$ACADVER
1
AC1014
9
$HANDSEED
5
FFFF
0
ENDSEC
0
SECTION
2
TABLES
0
TABLE
2
VPORT
5
8
100
AcDbSymbolTable
0
ENDTAB
0
TABLE
2
LTYPE
5
5
100
AcDbSymbolTable
0
LTYPE
5
14
100
AcDbSymbolTableRecord
100
AcDbLinetypeTableRecord
2
BYBLOCK
70
0
0
LTYPE
5
15
100
AcDbSymbolTableRecord
100
AcDbLinetypeTableRecord
2
BYLAYER
70
0
0
ENDTAB
0
TABLE
2
LAYER
5
2
100
AcDbSymbolTable
70
2
0
LAYER
5
50
100
AcDbSymbolTableRecord
100
AcDbLayerTableRecord
2
0
70
0
6
CONTINUOUS
0
ENDTAB
0
TABLE
2
STYLE
5
3
100
AcDbSymbolTable
70
1
0
STYLE
5
11
100
AcDbSymbolTableRecord
100
AcDbTextStyleTableRecord
2
STANDARD
70
0
0
ENDTAB
0
TABLE
2
VIEW
5
6
100
AcDbSymbolTable
70
0
0
ENDTAB
0
TABLE
2
UCS
5
7
100
AcDbSymbolTable
70
0
0
ENDTAB
0
TABLE
2
APPID
5
9
100
AcDbSymbolTable
70
2
0
APPID
5
12
100
AcDbSymbolTableRecord
100
AcDbRegAppTableRecord
2
ACAD
70
0
0
ENDTAB
0
TABLE
2
DIMSTYLE
5
A
100
AcDbSymbolTable
70
1
0
ENDTAB
0
TABLE
2
BLOCK_RECORD
5
1
100
AcDbSymbolTable
70
1
0
BLOCK_RECORD
5
1F
100
AcDbSymbolTableRecord
100
AcDbBlockTableRecord
2
*MODEL_SPACE
0
BLOCK_RECORD
5
1B
100
AcDbSymbolTableRecord
100
AcDbBlockTableRecord
2
*PAPER_SPACE
0
ENDTAB
0
ENDSEC
0
SECTION
2
BLOCKS
0
BLOCK
5
20
100
AcDbEntity
100
AcDbBlockBegin
2
*MODEL_SPACE
0
ENDBLK
5
21
100
AcDbEntity
100
AcDbBlockEnd
0
BLOCK
5
1C
100
AcDbEntity
100
AcDbBlockBegin
2
*PAPER_SPACE
0
ENDBLK
5
1D
100
AcDbEntity
100
AcDbBlockEnd
0
ENDSEC
0
SECTION
2
ENTITIES
0
SPLINE
5
100
100
AcDbEntity
8
0
100
AcDbSpline
70
4
71
5
72
16
73
10
74
0
42
0.000000001
43
0.0000000001
44
0.0000000001
40
0
40
0
40
0
40
0
40
0
40
0
40
0.20000000000000001
40
0.40000000000000002
40
0.60000000000000009
40
0.80000000000000004
40
1
40
1
40
1
40
1
40
1
40
1
41
1
41
1
41
1
41
1
41
1
41
1
41
1
41
1
41
1
41
1
10
0
20
0
30
0
10
0
20
0.12000000000003158
30
0
10
0
20
0.36000000000007704
30
0
10
0
20
0.72000000000009301
30
0
10
0
20
1.2000000000000313
30
0
10
0
20
1.7999999999999146
30
0
10
0
20
2.2799999999998684
30
0
10
0
20
2.6399999999999042
30
0
10
0
20
2.8799999999999617
30
0
10
0
20
3
30
0
0
SPLINE
5
101
100
AcDbEntity
8
0
100
AcDbSpline
70
4
71
5
72
16
73
10
74
0
42
0.000000001
43
0.0000000001
44
0.0000000001
40
0
40
0
40
0
40
0
40
0
40
0
40
0.20000000000000001
40
0.40000000000000002
40
0.60000000000000009
40
0.80000000000000004
40
1
40
1
40
1
40
1
40
1
40
1
41
1
41
1
41
1
41
1
41
1
41
1
41
1
41
1
41
1
41
1
10
10
20
0
30
0
10
9.9999999999997495
20
0.12000000000003158
30
0
10
9.9999999999993197
20
0.36000000000007704
30
0
10
9.9999999999989129
20
0.72000000000009301
30
0
10
9.9999999999987672
20
1.2000000000000313
30
0
10
9.9999999999990248
20
1.7999999999999146
30
0
10
9.9999999999993889
20
2.2799999999998684
30
0
10
9.9999999999996998
20
2.6399999999999042
30
0
10
9.9999999999999005
20
2.8799999999999617
30
0
10
10
20
3
30
0
0
SPLINE
5
102
100
AcDbEntity
8
0
100
AcDbSpline
70
4
71
5
72
16
73
10
74
0
42
0.000000001
43
0.0000000001
44
0.0000000001
40
0
40
0
40
0
40
0
40
0
40
0
40
0.20000000000000001
40
0.40000000000000002
40
0.60000000000000009
40
0.80000000000000004
40
1
40
1
40
1
40
1
40
1
40
1
41
1
41
1
41
1
41
1
41
1
41
1
41
1
41
1
41
1
41
1
10
0
20
1.5
30
0
10
0.40000000000047375
20
1.499999999999694
30
0
10
1.2000000000012774
20
1.4999999999991638
30
0
10
2.4000000000020547
20
1.4999999999986278
30
0
10
4.0000000000023546
20
1.4999999999983737
30
0
10
6.0000000000019584
20
1.4999999999985913
30
0
10
7.6000000000012928
20
1.4999999999990359
30
0
10
8.800000000000697
20
1.4999999999994786
30
0
10
9.6000000000002395
20
1.4999999999998188
30
0
10
10
20
1.5
30
0
0
SPLINE
5
103
100
AcDbEntity
8
0
100
AcDbSpline
70
4
71
5
72
61
73
55
74
0
42
0.000000001
43
0.0000000001
44
0.0000000001
40
0
40
0
40
0
40
0
40
0
40
0
40
0.02
40
0.040000000000000001
40
0.059999999999999998
40
0.080000000000000002
40
0.10000000000000001
40
0.12000000000000001
40
0.14000000000000001
40
0.16
40
0.17999999999999999
40
0.19999999999999998
40
0.21999999999999997
40
0.23999999999999996
40
0.25999999999999995
40
0.27999999999999997
40
0.29999999999999999
40
0.32000000000000001
40
0.34000000000000002
40
0.36000000000000004
40
0.38000000000000006
40
0.40000000000000008
40
0.4200000000000001
40
0.44000000000000011
40
0.46000000000000013
40
0.48000000000000015
40
0.50000000000000011
40
0.52000000000000013
40
0.54000000000000015
40
0.56000000000000016
40
0.58000000000000018
40
0.6000000000000002
40
0.62000000000000022
40
0.64000000000000024
40
0.66000000000000025
40
0.68000000000000027
40
0.70000000000000029
40
0.72000000000000031
40
0.74000000000000032
40
0.76000000000000034
40
0.78000000000000036
40
0.80000000000000038
40
0.8200000000000004
40
0.84000000000000041
40
0.86000000000000043
40
0.88000000000000045
40
0.90000000000000047
40
0.92000000000000048
40
0.9400000000000005
40
0.96000000000000052
40
0.98000000000000054
40
1
40
1
40
1
40
1
40
1
40
1
41
1
41
1
41
1
41
1
41
1
41
1
41
1
41
1
41
1
41
1
41
1
41
1
41
1
41
1
41
1
41
1
41
1
41
1
41
1
41
1
41
1
41
1
41
1
41
1
41
1
41
1
41
1
41
1
41
1
41
1
41
1
41
1
41
1
41
1
41
1
41
1
41
1
41
1
41
1
41
1
41
1
41
1
41
1
41
1
41
1
41
1
41
1
41
1
41
1
41
1
41
1
41
1
41
1
41
1
41
1
10
0
20
0
30
0
10
0.038992898085625984
20
0.021806284725988549
30
0
10
0.11706860629230638
20
0.063307973370371071
30
0
10
0.23445190402586299
20
0.11922789005737308
30
0
10
0.39150279586985559
20
0.18111406860572032
30
0
10
0.58870883686979281
20
0.23759712643634739
30
0
10
0.7867820013457173
20
0.27402935962513625
30
0
10
0.98566877059253133
20
0.29213016636990391
30
0
10
1.1852778386618117
20
0.29480947722197465
30
0
10
1.3854686163055443
20
0.28653614049059223
30
0
10
1.5860704775300725
20
0.27252705434472124
30
0
10
1.7869039832108826
20
0.2578620326938546
30
0
10
1.9878015460439284
20
0.24661322443751607
30
0
10
2.1886278645854667
20
0.24099558995423442
30
0
10
2.389301810163635
20
0.24042485030836672
30
0
10
2.5897884223863028
20
0.24240341552799244
30
0
10
2.7900891977898636
20
0.24350774059411512
30
0
10
2.9902331045239143
20
0.24034358890113838
30
0
10
3.1902673886736794
20
0.23049569440732223
30
0
10
3.390248505866519
20
0.21353196868475419
30
0
10
3.5902340422726331
20
0.1905808153978619
30
0
10
3.7902747681430329
20
0.16384387610944615
30
0
10
3.9904065152224111
20
0.13613437067716361
30
0
10
4.1906423545314784
20
0.11041006131378865
30
0
10
4.3909638761044949
20
0.089300504719049753
30
0
10
4.5913329977943143
20
0.074899224122841696
30
0
10
4.7917046165855917
20
0.068569710422156302
30
0
10
4.9920390320667725
20
0.070740682804573907
30
0
10
5.1923142211286324
20
0.080711661060147433
30
0
10
5.3925388948790207
20
0.09642802276512534
30
0
10
5.5927421733317377
20
0.11503982406510625
30
0
10
5.7929624429833311
20
0.13348620159324065
30
0
10
5.9932364757329326
20
0.14907356792030818
30
0
10
6.1935886062976113
20
0.16004726491868029
30
0
10
6.3940194082438753
20
0.16619465152402593
30
0
10
6.5945125912023697
20
0.16837723524037551
30
0
10
6.7950424375831764
20
0.16803170362368353
30
0
10
6.9955810373669491
20
0.16668241264031697
30
0
10
7.1961055287945559
20
0.16545428768273485
30
0
10
7.3966055255708945
20
0.16457246718753527
30
0
10
7.5970794521875176
20
0.16362080588075048
30
0
10
7.7975306663487913
20
0.16181483041440115
30
0
10
7.9979636697846139
20
0.15826862962517335
30
0
10
8.1983803048740516
20
0.15226277103131683
30
0
10
8.3987759089171465
20
0.14351497139441161
30
0
10
8.5991413133179293
20
0.13207056010826745
30
0
10
8.7994648913620956
20
0.11818991699728282
30
0
10
8.9997345810592151
20
0.10223774692312913
30
0
10
9.1999399156640909
20
0.084572081279879252
30
0
10
9.4000740581279931
20
0.065433388063891054
30
0
10
9.6001330363049888
20
0.044967696467864422
30
0
10
9.7601185920287605
20
0.027593363956295493
30
0
10
9.8800728592396982
20
0.014011042436816293
30
0
10
9.9600268698846826
20
0.004711178051927431
30
0
10
10
20
0
30
0
0
SPLINE
5
104
100
AcDbEntity
8
0
100
AcDbSpline
70
4
71
5
72
61
73
55
74
0
42
0.000000001
43
0.0000000001
44
0.0000000001
40
0
40
0
40
0
40
0
40
0
40
0
40
0.02
40
0.040000000000000001
40
0.059999999999999998
40
0.080000000000000002
40
0.10000000000000001
40
0.12000000000000001
40
0.14000000000000001
40
0.16
40
0.17999999999999999
40
0.19999999999999998
40
0.21999999999999997
40
0.23999999999999996
40
0.25999999999999995
40
0.27999999999999997
40
0.29999999999999999
40
0.32000000000000001
40
0.34000000000000002
40
0.36000000000000004
40
0.38000000000000006
40
0.40000000000000008
40
0.4200000000000001
40
0.44000000000000011
40
0.46000000000000013
40
0.48000000000000015
40
0.50000000000000011
40
0.52000000000000013
40
0.54000000000000015
40
0.56000000000000016
40
0.58000000000000018
40
0.6000000000000002
40
0.62000000000000022
40
0.64000000000000024
40
0.66000000000000025
40
0.68000000000000027
40
0.70000000000000029
40
0.72000000000000031
40
0.74000000000000032
40
0.76000000000000034
40
0.78000000000000036
40
0.80000000000000038
40
0.8200000000000004
40
0.84000000000000041
40
0.86000000000000043
40
0.88000000000000045
40
0.90000000000000047
40
0.92000000000000048
40
0.9400000000000005
40
0.96000000000000052
40
0.98000000000000054
40
1
40
1
40
1
40
1
40
1
40
1
41
1
41
1
41
1
41
1
41
1
41
1
41
1
41
1
41
1
41
1
41
1
41
1
41
1
41
1
41
1
41
1
41
1
41
1
41
1
41
1
41
1
41
1
41
1
41
1
41
1
41
1
41
1
41
1
41
1
41
1
41
1
41
1
41
1
41
1
41
1
41
1
41
1
41
1
41
1
41
1
41
1
41
1
41
1
41
1
41
1
41
1
41
1
41
1
41
1
41
1
41
1
41
1
41
1
41
1
41
1
10
0
20
3
30
0
10
0.039679030628669676
20
2.9830590828309296
30
0
10
0.11906345583925598
20
2.9510332118940696
30
0
10
0.23821918551827409
20
2.9085622889699483
30
0
10
0.397251778488662
20
2.8630774716231429
30
0
10
0.59630603836432883
20
2.8245864912334966
30
0
10
0.79562190117017506
20
2.8037679614111899
30
0
10
0.99519474979135991
20
2.7991783255554825
30
0
10
1.1950161694296393
20
2.8083628918997281
30
0
10
1.3950728585043075
20
2.8275754036198562
30
0
10
1.5953447158962488
20
2.8523482748692075
30
0
10
1.795802908938936
20
2.8780790176500526
30
0
10
1.9964078885276191
20
2.900611630317786
30
0
10
2.197107466585257
20
2.9168164833350092
30
0
10
2.3978346265229917
20
2.9251851669181308
30
0
10
2.5985205658717536
20
2.9255282432539333
30
0
10
2.79910797932415
20
2.9186607987185904
30
0
10
2.9995642851100794
20
2.9060955764158534
30
0
10
3.199894911882609
20
2.8897354294106901
30
0
10
3.4001567236502455
20
2.8715672346695715
30
0
10
3.6004322558922421
20
2.8535480494237513
30
0
10
3.8008038901878951
20
2.8374917634850885
30
0
10
4.0013281254247142
20
2.8249553994933168
30
0
10
4.2020096285565174
20
2.8171245963886857
30
0
10
4.402775601289127
20
2.8146992626146714
30
0
10
4.6035133854983865
20
2.8179369853428216
30
0
10
4.8041077287729514
20
2.8266946394844754
30
0
10
5.0044778952356985
20
2.8404691190713303
30
0
10
5.2046154795781696
20
2.8584379194448268
30
0
10
5.4046205140783314
20
2.8794968885921119
30
0
10
5.6046476843574036
20
2.9022050107537245
30
0
10
5.8048541978316717
20
2.9247287874078705
30
0
10
6.0053474894470824
20
2.9447886264784424
30
0
10
6.2061319533776107
20
2.9595964277220626
30
0
10
6.4070584694228341
20
2.9658142957674052
30
0
10
6.6078950859990577
20
2.9603489487120949
30
0
10
6.8083950108476312
20
2.941132965967709
30
0
10
7.0083648183591043
20
2.9079017279644881
30
0
10
7.2077342875313031
20
2.8630039748326208
30
0
10
7.4066212819292323
20
2.8121290183724144
30
0
10
7.6052587615649969
20
2.7627419881522179
30
0
10
7.8039268372201498
20
2.7226015328606366
30
0
10
8.0028833229236227
20
2.6982533920922638
30
0
10
8.2022944429412732
20
2.69352047282664
30
0
10
8.4021666011896823
20
2.7080193913768937
30
0
10
8.6023922248971694
20
2.7383857307790143
30
0
10
8.8027938462214479
20
2.779457358558763
30
0
10
9.0031685072040517
20
2.8254644006171907
30
0
10
9.2033321601329572
20
2.8712200412564255
30
0
10
9.4031633986573535
20
2.9132928588769951
30
0
10
9.6025900877514374
20
2.9496350791532318
30
0
10
9.7617795422400118
20
2.9733153505056165
30
0
10
9.8809686549436009
20
2.9878940870633923
30
0
10
9.9603379104997032
20
2.9962002034541655
30
0
10
10
20
3
30
0
0
ENDSEC
0
SECTION
2
OBJECTS
0
DICTIONARY
5
C
100
AcDbDictionary
3
ACAD_GROUP
350
D
3
ACAD_MLINESTYLE
350
17
0
DICTIONARY
5
D
100
AcDbDictionary
0
DICTIONARY
5
1A
330
C
100
AcDbDictionary
0
DICTIONARY
5
17
100
AcDbDictionary
0
ENDSEC
0
EOF
