0
SECTION
2
HEADER
9
$INSUNITS
70
4
9
$ACADVER
1
AC1014
9
$HANDSEED
5
FFFF
0
ENDSEC
0
SECTION
2
TABLES
0
TABLE
2
VPORT
5
8
100
AcDbSymbolTable
0
ENDTAB
0
TABLE
2
LTYPE
5
5
100
AcDbSymbolTable
0
LTYPE
5
14
100
AcDbSymbolTableRecord
100
AcDbLinetypeTableRecord
2
BYBLOCK
70
0
0
LTYPE
5
15
100
AcDbSymbolTableRecord
100
AcDbLinetypeTableRecord
2
BYLAYER
70
0
0
ENDTAB
0
TABLE
2
LAYER
5
2
100
AcDbSymbolTable
70
2
0
LAYER
5
50
100
AcDbSymbolTableRecord
100
AcDbLayerTableRecord
2
0
70
0
6
CONTINUOUS
0
ENDTAB
0
TABLE
2
STYLE
5
3
100
AcDbSymbolTable
70
1
0
STYLE
5
11
100
AcDbSymbolTableRecord
100
AcDbTextStyleTableRecord
2
STANDARD
70
0
0
ENDTAB
0
TABLE
2
VIEW
5
6
100
AcDbSymbolTable
70
0
0
ENDTAB
0
TABLE
2
UCS
5
7
100
AcDbSymbolTable
70
0
0
ENDTAB
0
TABLE
2
APPID
5
9
100
AcDbSymbolTable
70
2
0
APPID
5
12
100
AcDbSymbolTableRecord
100
AcDbRegAppTableRecord
2
ACAD
70
0
0
ENDTAB
0
TABLE
2
DIMSTYLE
5
A
100
AcDbSymbolTable
70
1
0
ENDTAB
0
TABLE
2
BLOCK_RECORD
5
1
100
AcDbSymbolTable
70
1
0
BLOCK_RECORD
5
1F
100
AcDbSymbolTableRecord
100
AcDbBlockTableRecord
2
*MODEL_SPACE
0
BLOCK_RECORD
5
1B
100
AcDbSymbolTableRecord
100
AcDbBlockTableRecord
2
*PAPER_SPACE
0
ENDTAB
0
ENDSEC
0
SECTION
2
BLOCKS
0
BLOCK
5
20
100
AcDbEntity
100
AcDbBlockBegin
2
*MODEL_SPACE
0
ENDBLK
5
21
100
AcDbEntity
100
AcDbBlockEnd
0
BLOCK
5
1C
100
AcDbEntity
100
AcDbBlockBegin
2
*PAPER_SPACE
0
ENDBLK
5
1D
100
AcDbEntity
100
AcDbBlockEnd
0
ENDSEC
0
SECTION
2
ENTITIES
0
SPLINE
5
100
100
AcDbEntity
8
0
100
AcDbSpline
70
4
71
5
72
16
73
10
74
0
42
0.000000001
43
0.0000000001
44
0.0000000001
40
0
40
0
40
0
40
0
40
0
40
0
40
0.20000000000000001
40
0.40000000000000002
40
0.60000000000000009
40
0.80000000000000004
40
1
40
1
40
1
40
1
40
1
40
1
41
1
41
1
41
1
41
1
41
1
41
1
41
1
41
1
41
1
41
1
10
0
20
0
30
0
10
0
20
0.12000000000003158
30
0
10
0
20
0.36000000000007704
30
0
10
0
20
0.72000000000009301
30
0
10
0
20
1.2000000000000313
30
0
10
0
20
1.7999999999999146
30
0
10
0
20
2.2799999999998684
30
0
10
0
20
2.6399999999999042
30
0
10
0
20
2.8799999999999617
30
0
10
0
20
3
30
0
0
SPLINE
5
101
100
AcDbEntity
8
0
100
AcDbSpline
70
4
71
5
72
16
73
10
74
0
42
0.000000001
43
0.0000000001
44
0.0000000001
40
0
40
0
40
0
40
0
40
0
40
0
40
0.20000000000000001
40
0.40000000000000002
40
0.60000000000000009
40
0.80000000000000004
40
1
40
1
40
1
40
1
40
1
40
1
41
1
41
1
41
1
41
1
41
1
41
1
41
1
41
1
41
1
41
1
10
10
20
0
30
0
10
9.9999999999997495
20
0.12000000000003158
30
0
10
9.9999999999993197
20
0.36000000000007704
30
0
10
9.9999999999989129
20
0.72000000000009301
30
0
10
9.9999999999987672
20
1.2000000000000313
30
0
10
9.9999999999990248
20
1.7999999999999146
30
0
10
9.9999999999993889
20
2.2799999999998684
30
0
10
9.9999999999996998
20
2.6399999999999042
30
0
10
9.9999999999999005
20
2.8799999999999617
30
0
10
10
20
3
30
0
0
SPLINE
5
102
100
AcDbEntity
8
0
100
AcDbSpline
70
4
71
5
72
16
73
10
74
0
42
0.000000001
43
0.0000000001
44
0.0000000001
40
0
40
0
40
0
40
0
40
0
40
0
40
0.20000000000000001
40
0.40000000000000002
40
0.60000000000000009
40
0.80000000000000004
40
1
40
1
40
1
40
1
40
1
40
1
41
1
41
1
41
1
41
1
41
1
41
1
41
1
41
1
41
1
41
1
10
0
20
1.5
30
0
10
0.40000000000047375
20
1.499999999999694
30
0
10
1.2000000000012774
20
1.4999999999991638
30
0
10
2.4000000000020547
20
1.4999999999986278
30
0
10
4.0000000000023546
20
1.4999999999983737
30
0
10
6.0000000000019584
20
1.4999999999985913
30
0
10
7.6000000000012928
20
1.4999999999990359
30
0
10
8.800000000000697
20
1.4999999999994786
30
0
10
9.6000000000002395
20
1.4999999999998188
30
0
10
10
20
1.5
30
0
0
SPLINE
5
103
100
AcDbEntity
8
0
100
AcDbSpline
70
4
71
5
72
61
73
55
74
0
42
0.000000001
43
0.0000000001
44
0.0000000001
40
0
40
0
40
0
40
0
40
0
40
0
40
0.02
40
0.040000000000000001
40
0.059999999999999998
40
0.080000000000000002
40
0.10000000000000001
40
0.12000000000000001
40
0.14000000000000001
40
0.16
40
0.17999999999999999
40
0.19999999999999998
40
0.21999999999999997
40
0.23999999999999996
40
0.25999999999999995
40
0.27999999999999997
40
0.29999999999999999
40
0.32000000000000001
40
0.34000000000000002
40
0.36000000000000004
40
0.38000000000000006
40
0.40000000000000008
40
0.4200000000000001
40
0.44000000000000011
40
0.46000000000000013
40
0.48000000000000015
40
0.50000000000000011
40
0.52000000000000013
40
0.54000000000000015
40
0.56000000000000016
40
0.58000000000000018
40
0.6000000000000002
40
0.62000000000000022
40
0.64000000000000024
40
0.66000000000000025
40
0.68000000000000027
40
0.70000000000000029
40
0.72000000000000031
40
0.74000000000000032
40
0.76000000000000034
40
0.78000000000000036
40
0.80000000000000038
40
0.8200000000000004
40
0.84000000000000041
40
0.86000000000000043
40
0.88000000000000045
40
0.90000000000000047
40
0.92000000000000048
40
0.9400000000000005
40
0.96000000000000052
40
0.98000000000000054
40
1
40
1
40
1
40
1
40
1
40
1
41
1
41
1
41
1
41
1
41
1
41
1
41
1
41
1
41
1
41
1
41
1
41
1
41
1
41
1
41
1
41
1
41
1
41
1
41
1
41
1
41
1
41
1
41
1
41
1
41
1
41
1
41
1
41
1
41
1
41
1
41
1
41
1
41
1
41
1
41
1
41
1
41
1
41
1
41
1
41
1
41
1
41
1
41
1
41
1
41
1
41
1
41
1
41
1
41
1
41
1
41
1
41
1
41
1
41
1
41
1
10
0
20
0
30
0
10
0.040124120091913004
20
0.015768360392761336
30
0
10
0.1203789253506435
20
0.045098647461141894
30
0
10
0.24078082848407922
20
0.082474765030532582
30
0
10
0.40135611530484755
20
0.11906243979359556
30
0
10
0.6021397590178974
20
0.14312627789897991
30
0
10
0.80298419979546987
20
0.14683233488939779
30
0
10
1.0038817650072871
20
0.13287126678136618
30
0
10
1.2048194614924921
20
0.10579983085565581
30
0
10
1.405777639550899
20
0.072499115304259759
30
0
10
1.6067322597868636
20
0.040807019446376158
30
0
10
1.8076570730257699
20
0.018176390780638665
30
0
10
2.0085258570348716
20
0.010338442518870573
30
0
10
2.2093145543595987
20
0.019925669437779008
30
0
10
2.4100036598949357
20
0.045200677871626772
30
0
10
2.610585760019517
20
0.081581645524507446
30
0
10
2.8110730746074402
20
0.12306803351665251
30
0
10
3.0115047246465512
20
0.16368221006419006
30
0
10
3.2119549354490564
20
0.19894088369606572
30
0
10
3.4125388361327613
20
0.22720968346057108
30
0
10
3.6133757834085589
20
0.24879804594804492
30
0
10
3.8145541722235454
20
0.26516321544677302
30
0
10
4.0160967711225206
20
0.2780876903078523
30
0
10
4.2179230097139566
20
0.28884463326479315
30
0
10
4.4198198627605585
20
0.29743957860244857
30
0
10
4.621520636998361
20
0.30292939224170962
30
0
10
4.8227779152235568
20
0.30366240611376949
30
0
10
5.0234359287260002
20
0.29755631585212117
30
0
10
5.2235098683862695
20
0.28233598902553475
30
0
10
5.423243860857716
20
0.25585274525117674
30
0
10
5.6229901871542012
20
0.21697019317446875
30
0
10
5.823103418461355
20
0.16643229103094814
30
0
10
6.0238324885869279
20
0.10768005395482387
30
0
10
6.2252051280044896
20
0.047843685608157771
30
0
10
6.4269391318888136
20
-0.001753973849201271
30
0
10
6.6285769901355094
20
-0.028929793877882807
30
0
10
6.8296008118036822
20
-0.02368467959795538
30
0
10
7.0295509703193906
20
0.018786919228067085
30
0
10
7.2281516237274337
20
0.094711219667029597
30
0
10
7.425409011216586
20
0.1895158668346188
30
0
10
7.6215279105376972
20
0.28312466452644541
30
0
10
7.8168487906885815
20
0.35442796635626739
30
0
10
8.0117779619851888
20
0.38600236664102716
30
0
10
8.2067197132128484
20
0.3688763823032829
30
0
10
8.4020112297949261
20
0.306884927203042
30
0
10
8.5979300799839411
20
0.21266483455950552
30
0
10
8.7946976678806319
20
0.10411325501162089
30
0
10
8.992484031979636
20
0.00066814376874733364
30
0
10
9.19141195364619
20
-0.08028073129531188
30
0
10
9.3915610607559348
20
-0.12716802631951968
30
0
10
9.5929769661708324
20
-0.13315704141765003
30
0
10
9.7551398307466943
20
-0.10254500265495499
30
0
10
9.8773437991719977
20
-0.059196654295004911
30
0
10
9.9590715299776527
20
-0.021241575247609255
30
0
10
10
20
0
30
0
0
SPLINE
5
104
100
AcDbEntity
8
0
100
AcDbSpline
70
4
71
5
72
61
73
55
74
0
42
0.000000001
43
0.0000000001
44
0.0000000001
40
0
40
0
40
0
40
0
40
0
40
0
40
0.02
40
0.040000000000000001
40
0.059999999999999998
40
0.080000000000000002
40
0.10000000000000001
40
0.12000000000000001
40
0.14000000000000001
40
0.16
40
0.17999999999999999
40
0.19999999999999998
40
0.21999999999999997
40
0.23999999999999996
40
0.25999999999999995
40
0.27999999999999997
40
0.29999999999999999
40
0.32000000000000001
40
0.34000000000000002
40
0.36000000000000004
40
0.38000000000000006
40
0.40000000000000008
40
0.4200000000000001
40
0.44000000000000011
40
0.46000000000000013
40
0.48000000000000015
40
0.50000000000000011
40
0.52000000000000013
40
0.54000000000000015
40
0.56000000000000016
40
0.58000000000000018
40
0.6000000000000002
40
0.62000000000000022
40
0.64000000000000024
40
0.66000000000000025
40
0.68000000000000027
40
0.70000000000000029
40
0.72000000000000031
40
0.74000000000000032
40
0.76000000000000034
40
0.78000000000000036
40
0.80000000000000038
40
0.8200000000000004
40
0.84000000000000041
40
0.86000000000000043
40
0.88000000000000045
40
0.90000000000000047
40
0.92000000000000048
40
0.9400000000000005
40
0.96000000000000052
40
0.98000000000000054
40
1
40
1
40
1
40
1
40
1
40
1
41
1
41
1
41
1
41
1
41
1
41
1
41
1
41
1
41
1
41
1
41
1
41
1
41
1
41
1
41
1
41
1
41
1
41
1
41
1
41
1
41
1
41
1
41
1
41
1
41
1
41
1
41
1
41
1
41
1
41
1
41
1
41
1
41
1
41
1
41
1
41
1
41
1
41
1
41
1
41
1
41
1
41
1
41
1
41
1
41
1
41
1
41
1
41
1
41
1
41
1
41
1
41
1
41
1
41
1
41
1
10
0
20
3
30
0
10
0.039789758590572551
20
2.9964395079600519
30
0
10
0.11940756825500848
20
2.9887139192106078
30
0
10
0.23894916016360043
20
2.9753117239443676
30
0
10
0.39856785422608509
20
2.9538121245983802
30
0
10
0.59846706361406588
20
2.921249108454147
30
0
10
0.79871860172038578
20
2.8841062353551461
30
0
10
0.9992742485732129
20
2.8446214746660239
30
0
10
1.2000525298656763
20
2.8065446422727245
30
0
10
1.4009300055607437
20
2.7755281074931162
30
0
10
1.6017653563923175
20
2.7575842558761559
30
0
10
1.8024235679830669
20
2.7575339490216724
30
0
10
2.0028000079106159
20
2.7774632970685316
30
0
10
2.2028447787527132
20
2.8151531703828017
30
0
10
2.402586640935823
20
2.8625562086793046
30
0
10
2.602113810939306
20
2.9087315567215861
30
0
10
2.801555407039177
20
2.9427223882826885
30
0
10
3.0010627736098683
20
2.9564477902161719
30
0
10
3.2007909603342672
20
2.9476053553266004
30
0
10
3.4008801016329375
20
2.9225533462824558
30
0
10
3.6014285554245671
20
2.8925069916639772
30
0
10
3.8024658344149413
20
2.8697688715107521
30
0
10
4.0039257394437504
20
2.8639723076586909
30
0
10
4.2056184563010248
20
2.8782690838658227
30
0
10
4.4072046804781051
20
2.9056526201991701
30
0
10
4.6082893615130178
20
2.9333372192803187
30
0
10
4.8085137493571208
20
2.9470040725914122
30
0
10
5.0076471392561404
20
2.9350517968799359
30
0
10
5.2056813005679867
20
2.8929369068966997
30
0
10
5.4029179889418231
20
2.8272464970653783
30
0
10
5.5998403310569858
20
2.7513936082577128
30
0
10
5.7969918717645905
20
2.6816070991432861
30
0
10
5.994852355731636
20
2.6328016430986616
30
0
10
6.1937163269565252
20
2.614544983583091
30
0
10
6.3935659557634512
20
2.6268435877679712
30
0
10
6.5941696160298058
20
2.6629252528581961
30
0
10
6.7951849292926836
20
2.712160486139557
30
0
10
6.9962601448314574
20
2.7629286484481042
30
0
10
7.1971352611200246
20
2.8054819693520399
30
0
10
7.3977457250786225
20
2.8348678096175055
30
0
10
7.5981621269244846
20
2.8499517596359354
30
0
10
7.7985272738429483
20
2.852378895697897
30
0
10
7.9989944241318742
20
2.8455659576507126
30
0
10
8.1996652344357663
20
2.8336877758152945
30
0
10
8.4005273994381078
20
2.8206660639462511
30
0
10
8.6014871443092247
20
2.8100788571244619
30
0
10
8.8024020386585651
20
2.8050739115494494
30
0
10
9.0031134547901654
20
2.808279891325316
30
0
10
9.2034792835199504
20
2.8217159957550946
30
0
10
9.4034060662146661
20
2.8467031991397045
30
0
10
9.6028385729021988
20
2.8840130044676848
30
0
10
9.7619677384699095
20
2.9240119044711648
30
0
10
9.8810764335994996
20
2.9597684397244723
30
0
10
9.960376442527334
20
2.9861632869198118
30
0
10
10
20
3
30
0
0
ENDSEC
0
SECTION
2
OBJECTS
0
DICTIONARY
5
C
100
AcDbDictionary
3
ACAD_GROUP
350
D
3
ACAD_MLINESTYLE
350
17
0
DICTIONARY
5
D
100
AcDbDictionary
0
DICTIONARY
5
1A
330
C
100
AcDbDictionary
0
DICTIONARY
5
17
100
AcDbDictionary
0
ENDSEC
0
EOF
