0
SECTION
2
HEADER
9
$INSUNITS
70
4
9
$ACADVER
1
AC1014
9
$HANDSEED
5
FFFF
0
ENDSEC
0
SECTION
2
TABLES
0
TABLE
2
VPORT
5
8
100
AcDbSymbolTable
0
ENDTAB
0
TABLE
2
LTYPE
5
5
100
AcDbSymbolTable
0
LTYPE
5
14
100
AcDbSymbolTableRecord
100
AcDbLinetypeTableRecord
2
BYBLOCK
70
0
0
LTYPE
5
15
100
AcDbSymbolTableRecord
100
AcDbLinetypeTableRecord
2
BYLAYER
70
0
0
ENDTAB
0
TABLE
2
LAYER
5
2
100
AcDbSymbolTable
70
2
0
LAYER
5
50
100
AcDbSymbolTableRecord
100
AcDbLayerTableRecord
2
0
70
0
6
CONTINUOUS
0
ENDTAB
0
TABLE
2
STYLE
5
3
100
AcDbSymbolTable
70
1
0
STYLE
5
11
100
AcDbSymbolTableRecord
100
AcDbTextStyleTableRecord
2
STANDARD
70
0
0
ENDTAB
0
TABLE
2
VIEW
5
6
100
AcDbSymbolTable
70
0
0
ENDTAB
0
TABLE
2
UCS
5
7
100
AcDbSymbolTable
70
0
0
ENDTAB
0
TABLE
2
APPID
5
9
100
AcDbSymbolTable
70
2
0
APPID
5
12
100
AcDbSymbolTableRecord
100
AcDbRegAppTableRecord
2
ACAD
70
0
0
ENDTAB
0
TABLE
2
DIMSTYLE
5
A
100
AcDbSymbolTable
70
1
0
ENDTAB
0
TABLE
2
BLOCK_RECORD
5
1
100
AcDbSymbolTable
70
1
0
BLOCK_RECORD
5
1F
100
AcDbSymbolTableRecord
100
AcDbBlockTableRecord
2
*MODEL_SPACE
0
BLOCK_RECORD
5
1B
100
AcDbSymbolTableRecord
100
AcDbBlockTableRecord
2
*PAPER_SPACE
0
ENDTAB
0
ENDSEC
0
SECTION
2
BLOCKS
0
BLOCK
5
20
100
AcDbEntity
100
AcDbBlockBegin
2
*MODEL_SPACE
0
ENDBLK
5
21
100
AcDbEntity
100
AcDbBlockEnd
0
BLOCK
5
1C
100
AcDbEntity
100
AcDbBlockBegin
2
*PAPER_SPACE
0
ENDBLK
5
1D
100
AcDbEntity
100
AcDbBlockEnd
0
ENDSEC
0
SECTION
2
ENTITIES
0
SPLINE
5
100
100
AcDbEntity
8
0
100
AcDbSpline
70
4
71
5
72
16
73
10
74
0
42
0.000000001
43
0.0000000001
44
0.0000000001
40
0
40
0
40
0
40
0
40
0
40
0
40
0.20000000000000001
40
0.40000000000000002
40
0.60000000000000009
40
0.80000000000000004
40
1
40
1
40
1
40
1
40
1
40
1
41
1
41
1
41
1
41
1
41
1
41
1
41
1
41
1
41
1
41
1
10
0
20
0
30
0
10
0
20
0.12000000000003158
30
0
10
0
20
0.36000000000007704
30
0
10
0
20
0.72000000000009301
30
0
10
0
20
1.2000000000000313
30
0
10
0
20
1.7999999999999146
30
0
10
0
20
2.2799999999998684
30
0
10
0
20
2.6399999999999042
30
0
10
0
20
2.8799999999999617
30
0
10
0
20
3
30
0
0
SPLINE
5
101
100
AcDbEntity
8
0
100
AcDbSpline
70
4
71
5
72
16
73
10
74
0
42
0.000000001
43
0.0000000001
44
0.0000000001
40
0
40
0
40
0
40
0
40
0
40
0
40
0.20000000000000001
40
0.40000000000000002
40
0.60000000000000009
40
0.80000000000000004
40
1
40
1
40
1
40
1
40
1
40
1
41
1
41
1
41
1
41
1
41
1
41
1
41
1
41
1
41
1
41
1
10
10
20
0
30
0
10
9.9999999999997495
20
0.12000000000003158
30
0
10
9.9999999999993197
20
0.36000000000007704
30
0
10
9.9999999999989129
20
0.72000000000009301
30
0
10
9.9999999999987672
20
1.2000000000000313
30
0
10
9.9999999999990248
20
1.7999999999999146
30
0
10
9.9999999999993889
20
2.2799999999998684
30
0
10
9.9999999999996998
20
2.6399999999999042
30
0
10
9.9999999999999005
20
2.8799999999999617
30
0
10
10
20
3
30
0
0
SPLINE
5
102
100
AcDbEntity
8
0
100
AcDbSpline
70
4
71
5
72
16
73
10
74
0
42
0.000000001
43
0.0000000001
44
0.0000000001
40
0
40
0
40
0
40
0
40
0
40
0
40
0.20000000000000001
40
0.40000000000000002
40
0.60000000000000009
40
0.80000000000000004
40
1
40
1
40
1
40
1
40
1
40
1
41
1
41
1
41
1
41
1
41
1
41
1
41
1
41
1
41
1
41
1
10
0
20
1.5
30
0
10
0.40000000000047375
20
1.499999999999694
30
0
10
1.2000000000012774
20
1.4999999999991638
30
0
10
2.4000000000020547
20
1.4999999999986278
30
0
10
4.0000000000023546
20
1.4999999999983737
30
0
10
6.0000000000019584
20
1.4999999999985913
30
0
10
7.6000000000012928
20
1.4999999999990359
30
0
10
8.800000000000697
20
1.4999999999994786
30
0
10
9.6000000000002395
20
1.4999999999998188
30
0
10
10
20
1.5
30
0
0
SPLINE
5
103
100
AcDbEntity
8
0
100
AcDbSpline
70
4
71
5
72
111
73
105
74
0
42
0.000000001
43
0.0000000001
44
0.0000000001
40
0
40
0
40
0
40
0
40
0
40
0
40
0.01
40
0.02
40
0.029999999999999999
40
0.040000000000000001
40
0.050000000000000003
40
0.060000000000000005
40
0.070000000000000007
40
0.080000000000000002
40
0.089999999999999997
40
0.099999999999999992
40
0.10999999999999999
40
0.11999999999999998
40
0.12999999999999998
40
0.13999999999999999
40
0.14999999999999999
40
0.16
40
0.17000000000000001
40
0.18000000000000002
40
0.19000000000000003
40
0.20000000000000004
40
0.21000000000000005
40
0.22000000000000006
40
0.23000000000000007
40
0.24000000000000007
40
0.25000000000000006
40
0.26000000000000006
40
0.27000000000000007
40
0.28000000000000008
40
0.29000000000000009
40
0.3000000000000001
40
0.31000000000000011
40
0.32000000000000012
40
0.33000000000000013
40
0.34000000000000014
40
0.35000000000000014
40
0.36000000000000015
40
0.37000000000000016
40
0.38000000000000017
40
0.39000000000000018
40
0.40000000000000019
40
0.4100000000000002
40
0.42000000000000021
40
0.43000000000000022
40
0.44000000000000022
40
0.45000000000000023
40
0.46000000000000024
40
0.47000000000000025
40
0.48000000000000026
40
0.49000000000000027
40
0.50000000000000022
40
0.51000000000000023
40
0.52000000000000024
40
0.53000000000000025
40
0.54000000000000026
40
0.55000000000000027
40
0.56000000000000028
40
0.57000000000000028
40
0.58000000000000029
40
0.5900000000000003
40
0.60000000000000031
40
0.61000000000000032
40
0.62000000000000033
40
0.63000000000000034
40
0.64000000000000035
40
0.65000000000000036
40
0.66000000000000036
40
0.67000000000000037
40
0.68000000000000038
40
0.69000000000000039
40
0.7000000000000004
40
0.71000000000000041
40
0.72000000000000042
40
0.73000000000000043
40
0.74000000000000044
40
0.75000000000000044
40
0.76000000000000045
40
0.77000000000000046
40
0.78000000000000047
40
0.79000000000000048
40
0.80000000000000049
40
0.8100000000000005
40
0.82000000000000051
40
0.83000000000000052
40
0.84000000000000052
40
0.85000000000000053
40
0.86000000000000054
40
0.87000000000000055
40
0.88000000000000056
40
0.89000000000000057
40
0.90000000000000058
40
0.91000000000000059
40
0.9200000000000006
40
0.9300000000000006
40
0.94000000000000061
40
0.95000000000000062
40
0.96000000000000063
40
0.97000000000000064
40
0.98000000000000065
40
0.99000000000000066
40
1
40
1
40
1
40
1
40
1
40
1
41
1
41
1
41
1
41
1
41
1
41
1
41
1
41
1
41
1
41
1
41
1
41
1
41
1
41
1
41
1
41
1
41
1
41
1
41
1
41
1
41
1
41
1
41
1
41
1
41
1
41
1
41
1
41
1
41
1
41
1
41
1
41
1
41
1
41
1
41
1
41
1
41
1
41
1
41
1
41
1
41
1
41
1
41
1
41
1
41
1
41
1
41
1
41
1
41
1
41
1
41
1
41
1
41
1
41
1
41
1
41
1
41
1
41
1
41
1
41
1
41
1
41
1
41
1
41
1
41
1
41
1
41
1
41
1
41
1
41
1
41
1
41
1
41
1
41
1
41
1
41
1
41
1
41
1
41
1
41
1
41
1
41
1
41
1
41
1
41
1
41
1
41
1
41
1
41
1
41
1
41
1
41
1
41
1
41
1
41
1
41
1
41
1
41
1
41
1
41
1
41
1
41
1
41
1
41
1
41
1
10
0
20
0
30
0
10
0.019950174091067186
20
0.0070304871235684387
30
0
10
0.059872375352575606
20
0.020794666696437623
30
0
10
0.11982123632675504
20
0.040550560310382004
30
0
10
0.19988419181734554
20
0.065110638955707567
30
0
10
0.30018362765165596
20
0.092660881104164261
30
0
10
0.40071013758825624
20
0.11651874089381432
30
0
10
0.50147618503540503
20
0.13560343160744887
30
0
10
0.60250250166535491
20
0.14810992209953597
30
0
10
0.70381980373474251
20
0.15134510434799256
30
0
10
0.80544625792676572
20
0.14283347271754632
30
0
10
0.90736483046335625
20
0.12143000004185425
30
0
10
1.0095015205460509
20
0.088383402363414243
30
0
10
1.1117011899341289
20
0.048532162885637553
30
0
10
1.2137100753226513
20
0.011131542536478663
30
0
10
1.3152281806148385
20
-0.013097124605481179
30
0
10
1.4159569965497065
20
-0.014696552603562028
30
0
10
1.5156477602000982
20
0.011841997133406864
30
0
10
1.614152385319271
20
0.065069265311846036
30
0
10
1.7114647995120935
20
0.13460257238573184
30
0
10
1.8077036961444612
20
0.20536654430931839
30
0
10
1.903102128947916
20
0.26109417676565833
30
0
10
1.9979947783066343
20
0.28812980557551715
30
0
10
2.0928057382245195
20
0.27906402899740929
30
0
10
2.1880375836626511
20
0.23655507550463106
30
0
10
2.2841887485186803
20
0.17040128957796069
30
0
10
2.381671535582254
20
0.094526404687562834
30
0
10
2.4807256953062851
20
0.02393663886417937
30
0
10
2.581343285160786
20
-0.028164748654649567
30
0
10
2.6831637214934858
20
-0.053707682942971825
30
0
10
2.785584076647333
20
-0.049790426733097873
30
0
10
2.8879147673601189
20
-0.017981202611947147
30
0
10
2.9895224563524945
20
0.036101175084473407
30
0
10
3.0899717459128864
20
0.10337432141601355
30
0
10
3.1891850168320572
20
0.17166360742916845
30
0
10
3.2873587020337336
20
0.22798155388152952
30
0
10
3.3848535308935057
20
0.26094448333813125
30
0
10
3.4820917267936284
20
0.26325798940974576
30
0
10
3.5794570295789323
20
0.23391069839670844
30
0
10
3.677178633300457
20
0.18118781351507168
30
0
10
3.7753468169129158
20
0.11960820000789545
30
0
10
3.8739563642805717
20
0.065680529556988873
30
0
10
3.9729410707618449
20
0.033883946748335128
30
0
10
4.0722102179073429
20
0.03297106413690986
30
0
10
4.171688599388399
20
0.061063454817621141
30
0
10
4.2713277533188148
20
0.10772421255426534
30
0
10
4.3711058012427255
20
0.15845464642449417
30
0
10
4.471031987344384
20
0.19854871701668303
30
0
10
4.571147237208657
20
0.21685925575119092
30
0
10
4.6715316137746585
20
0.21050810480463797
30
0
10
4.7722793635092478
20
0.18394483742759193
30
0
10
4.8734629853342053
20
0.14579839965469849
30
0
10
4.9750984140769887
20
0.10637551601897008
30
0
10
5.0771151519584148
20
0.075062252822772291
30
0
10
5.1793102548011527
20
0.057326983999647044
30
0
10
5.281401335275957
20
0.054825091829952946
30
0
10
5.3831083204312531
20
0.066487481151750627
30
0
10
5.4842285918386482
20
0.089283975582482605
30
0
10
5.5847081499209841
20
0.11910383571352293
30
0
10
5.6847323451919616
20
0.15163101608334634
30
0
10
5.7846401069531534
20
0.18277275242987942
30
0
10
5.8848087755761629
20
0.2089864641258059
30
0
10
5.9855457370734122
20
0.22765809758527722
30
0
10
6.086985175848703
20
0.23742587833749657
30
0
10
6.1889614136716116
20
0.2386166126259501
30
0
10
6.291114167746362
20
0.23270785117464532
30
0
10
6.3930286172459692
20
0.22164883267884639
30
0
10
6.4943650568221036
20
0.20722111575608856
30
0
10
6.5949885978406009
20
0.19040603506868942
30
0
10
6.6951107556793961
20
0.1706853288508797
30
0
10
6.7951436482113401
20
0.14688637588855244
30
0
10
6.8955384713101555
20
0.11811021896429735
30
0
10
6.9966284893732746
20
0.084638799164721168
30
0
10
7.0984730130074283
20
0.048830056453588323
30
0
10
7.2006927218682755
20
0.016078626025425584
30
0
10
7.3026618854063141
20
-0.0068471509945007263
30
0
10
7.4037119135853278
20
-0.013552708093846927
30
0
10
7.5033292480505622
20
0.00027960805945786776
30
0
10
7.6013590023832425
20
0.035137023179592421
30
0
10
7.698197088212499
20
0.08602801933954668
30
0
10
7.794571581782737
20
0.14464934342272326
30
0
10
7.8913369546849097
20
0.20143285106828845
30
0
10
7.9892592577369062
20
0.24767716229800854
30
0
10
8.0888151581256906
20
0.27754891863772868
30
0
10
8.1899580596935664
20
0.29039435686866583
30
0
10
8.292268326960226
20
0.28942842589196832
30
0
10
8.3951441421748267
20
0.28004000502326798
30
0
10
8.4979784287296205
20
0.26823063332751412
30
0
10
8.6003399574435662
20
0.25900968210561559
30
0
10
8.7021572893631483
20
0.25477500545914328
30
0
10
8.8036002400796072
20
0.2558409629237931
30
0
10
8.9049542915772903
20
0.26101368703544192
30
0
10
9.0064993479523121
20
0.26814354013602926
30
0
10
9.1083829425745577
20
0.27469570779322428
30
0
10
9.2105063069509399
20
0.27828632054230673
30
0
10
9.3126046683721846
20
0.27672267737755479
30
0
10
9.4143179675399669
20
0.26807123158141871
30
0
10
9.5152632756118223
20
0.2507124769691445
30
0
10
9.6151107426681364
20
0.22340816848203238
30
0
10
9.7136454060191433
20
0.1853441529845212
30
0
10
9.8107374933035718
20
0.13603452323154644
30
0
10
9.8872060989652404
20
0.087400064300097974
30
0
10
9.943870272311722
20
0.045722557549529877
30
0
10
9.9813409907296702
20
0.015626095999180977
30
0
10
10
20
0
30
0
0
SPLINE
5
104
100
AcDbEntity
8
0
100
AcDbSpline
70
4
71
5
72
111
73
105
74
0
42
0.000000001
43
0.0000000001
44
0.0000000001
40
0
40
0
40
0
40
0
40
0
40
0
40
0.01
40
0.02
40
0.029999999999999999
40
0.040000000000000001
40
0.050000000000000003
40
0.060000000000000005
40
0.070000000000000007
40
0.080000000000000002
40
0.089999999999999997
40
0.099999999999999992
40
0.10999999999999999
40
0.11999999999999998
40
0.12999999999999998
40
0.13999999999999999
40
0.14999999999999999
40
0.16
40
0.17000000000000001
40
0.18000000000000002
40
0.19000000000000003
40
0.20000000000000004
40
0.21000000000000005
40
0.22000000000000006
40
0.23000000000000007
40
0.24000000000000007
40
0.25000000000000006
40
0.26000000000000006
40
0.27000000000000007
40
0.28000000000000008
40
0.29000000000000009
40
0.3000000000000001
40
0.31000000000000011
40
0.32000000000000012
40
0.33000000000000013
40
0.34000000000000014
40
0.35000000000000014
40
0.36000000000000015
40
0.37000000000000016
40
0.38000000000000017
40
0.39000000000000018
40
0.40000000000000019
40
0.4100000000000002
40
0.42000000000000021
40
0.43000000000000022
40
0.44000000000000022
40
0.45000000000000023
40
0.46000000000000024
40
0.47000000000000025
40
0.48000000000000026
40
0.49000000000000027
40
0.50000000000000022
40
0.51000000000000023
40
0.52000000000000024
40
0.53000000000000025
40
0.54000000000000026
40
0.55000000000000027
40
0.56000000000000028
40
0.57000000000000028
40
0.58000000000000029
40
0.5900000000000003
40
0.60000000000000031
40
0.61000000000000032
40
0.62000000000000033
40
0.63000000000000034
40
0.64000000000000035
40
0.65000000000000036
40
0.66000000000000036
40
0.67000000000000037
40
0.68000000000000038
40
0.69000000000000039
40
0.7000000000000004
40
0.71000000000000041
40
0.72000000000000042
40
0.73000000000000043
40
0.74000000000000044
40
0.75000000000000044
40
0.76000000000000045
40
0.77000000000000046
40
0.78000000000000047
40
0.79000000000000048
40
0.80000000000000049
40
0.8100000000000005
40
0.82000000000000051
40
0.83000000000000052
40
0.84000000000000052
40
0.85000000000000053
40
0.86000000000000054
40
0.87000000000000055
40
0.88000000000000056
40
0.89000000000000057
40
0.90000000000000058
40
0.91000000000000059
40
0.9200000000000006
40
0.9300000000000006
40
0.94000000000000061
40
0.95000000000000062
40
0.96000000000000063
40
0.97000000000000064
40
0.98000000000000065
40
0.99000000000000066
40
1
40
1
40
1
40
1
40
1
40
1
41
1
41
1
41
1
41
1
41
1
41
1
41
1
41
1
41
1
41
1
41
1
41
1
41
1
41
1
41
1
41
1
41
1
41
1
41
1
41
1
41
1
41
1
41
1
41
1
41
1
41
1
41
1
41
1
41
1
41
1
41
1
41
1
41
1
41
1
41
1
41
1
41
1
41
1
41
1
41
1
41
1
41
1
41
1
41
1
41
1
41
1
41
1
41
1
41
1
41
1
41
1
41
1
41
1
41
1
41
1
41
1
41
1
41
1
41
1
41
1
41
1
41
1
41
1
41
1
41
1
41
1
41
1
41
1
41
1
41
1
41
1
41
1
41
1
41
1
41
1
41
1
41
1
41
1
41
1
41
1
41
1
41
1
41
1
41
1
41
1
41
1
41
1
41
1
41
1
41
1
41
1
41
1
41
1
41
1
41
1
41
1
41
1
41
1
41
1
41
1
41
1
41
1
41
1
41
1
41
1
10
0
20
3
30
0
10
0.019774093132385574
20
2.9824431724109064
30
0
10
0.059355397993915135
20
2.949655344702975
30
0
10
0.11882671095229046
20
2.9074510768146178
30
0
10
0.19832053966144686
20
2.8651360150120282
30
0
10
0.29801333641954875
20
2.8350738864573781
30
0
10
0.39801414612502367
20
2.8265305249590527
30
0
10
0.49828768567984849
20
2.8368598490334724
30
0
10
0.59877499027200165
20
2.8616404296976317
30
0
10
0.69938715808624596
20
2.894208006385198
30
0
10
0.80002307394441574
20
2.9268722228474209
30
0
10
0.90058751351578126
20
2.9521598257419046
30
0
10
1.0010090641039413
20
2.9640453198837053
30
0
10
1.1012582366333357
20
2.9591939225534301
30
0
10
1.2013652427415824
20
2.9381836257418885
30
0
10
1.3014005857696338
20
2.9044145695364616
30
0
10
1.4014559623153193
20
2.8630383210433981
30
0
10
1.5016251138086716
20
2.8198832035889549
30
0
10
1.6019845952517291
20
2.7803772932551651
30
0
10
1.702574876684479
20
2.7484855972630351
30
0
10
1.8034054795090255
20
2.7267177585151456
30
0
10
1.9044597086233948
20
2.7161153358073187
30
0
10
2.0056995770187145
20
2.716252969745919
30
0
10
2.1070704932740809
20
2.7252158688538919
30
0
10
2.2085064189367851
20
2.7396330335209846
30
0
10
2.3099418445050364
20
2.7556373343727829
30
0
10
2.4113238199611344
20
2.7698030606856188
30
0
10
2.5126232230053724
20
2.7800487944365004
30
0
10
2.6138481018648676
20
2.7866563092817493
30
0
10
2.7150511387385965
20
2.7929499595690293
30
0
10
2.8162945776502291
20
2.8034612598904429
30
0
10
2.9176180121901192
20
2.8222877565086382
30
0
10
3.0190076582086158
20
2.851480585214575
30
0
10
3.1203588984920003
20
2.8891770581435052
30
0
10
3.2214598376710848
20
2.9285658021989396
30
0
10
3.3220703819195867
20
2.9606999086132246
30
0
10
3.4219905803864741
20
2.9768501021364759
30
0
10
3.5211283009795222
20
2.9708948421826986
30
0
10
3.6195786820255171
20
2.9420296530721428
30
0
10
3.7176637578570801
20
2.8963237315250838
30
0
10
3.815812899154305
20
2.8436082982735962
30
0
10
3.9144655884255029
20
2.7950339732716225
30
0
10
4.0139692098112993
20
2.7604512088192035
30
0
10
4.1144701892227111
20
2.7456701607157652
30
0
10
4.2158334888495128
20
2.7503442308656729
30
0
10
4.3177550924698558
20
2.7701930925442992
30
0
10
4.4198552487721869
20
2.7987860309524231
30
0
10
4.5217748244036375
20
2.8294085995494549
30
0
10
4.623280298492209
20
2.8570918993727079
30
0
10
4.7243346291111195
20
2.8799670090114784
30
0
10
4.8250287347999912
20
2.8978846179544688
30
0
10
4.9255334811619447
20
2.9114057031855949
30
0
10
5.0260453793810287
20
2.9207454628442302
30
0
10
5.1267310268697912
20
2.9245059710537773
30
0
10
5.2276846651753726
20
2.9192217694451603
30
0
10
5.3289316171408609
20
2.9013355232469578
30
0
10
5.4304222581129027
20
2.8688494519681025
30
0
10
5.532032210354795
20
2.8228843354845994
30
0
10
5.6335538195069743
20
2.7698059059374405
30
0
10
5.7347108764835095
20
2.7213951296223837
30
0
10
5.8352217155740513
20
2.6906886127688514
30
0
10
5.9348553116745562
20
2.6885139644948932
30
0
10
6.0334844369805749
20
2.7201356574926634
30
0
10
6.1311538711144014
20
2.7809229584159971
30
0
10
6.2280963944056769
20
2.855526242547354
30
0
10
6.3246425984171779
20
2.9241973559333481
30
0
10
6.4211518857591408
20
2.9677179818177502
30
0
10
6.517938103944136
20
2.9726054940958675
30
0
10
6.6151901982840791
20
2.9368610265005115
30
0
10
6.7129168071600933
20
2.8735101913876173
30
0
10
6.8110107705289789
20
2.8033362754267834
30
0
10
6.9092973934454927
20
2.7490428345467643
30
0
10
7.0075883377828667
20
2.7289789466969987
30
0
10
7.1057346027541382
20
2.7507762269935281
30
0
10
7.2036756101471653
20
2.8057969810417416
30
0
10
7.3014210389880505
20
2.8757768610261962
30
0
10
7.3990371433318822
20
2.9386516226485266
30
0
10
7.496631387924932
20
2.9747358915647037
30
0
10
7.594337860475072
20
2.9726478389211195
30
0
10
7.692302291299705
20
2.9356329109582466
30
0
10
7.7906703975331055
20
2.8766761729256869
30
0
10
7.8895762619284229
20
2.8133241323890443
30
0
10
7.9891307156857083
20
2.7625116512468955
30
0
10
8.0894096606139119
20
2.7356273210772182
30
0
10
8.1904425090204001
20
2.7328334950435602
30
0
10
8.292199215227896
20
2.7463627990135948
30
0
10
8.3945772648936181
20
2.7647967763660231
30
0
10
8.497388367075926
20
2.7770109651888291
30
0
10
8.6003458215068935
20
2.7762135900739908
30
0
10
8.7030498489148993
20
2.7640737542374962
30
0
10
8.8050688782877007
20
2.747812750639512
30
0
10
8.9060236493934752
20
2.737105168224061
30
0
10
9.00566914517497
20
2.7410850771888406
30
0
10
9.1039801878828097
20
2.7652336568131841
30
0
10
9.2012280510926843
20
2.8085258845392378
30
0
10
9.2978827057677087
20
2.8654064849723246
30
0
10
9.3945236547862407
20
2.9275349396344086
30
0
10
9.4917464924462465
20
2.9856363668482198
30
0
10
9.5900739185267927
20
3.0312575369001751
30
0
10
9.6898577830139043
20
3.058695435445153
30
0
10
9.7913071146003645
20
3.0645630201650969
30
0
10
9.8738824118243134
20
3.0506459473847136
30
0
10
9.9366255868331184
20
3.0294904470851733
30
0
10
9.9788150780240663
20
3.0106239472823821
30
0
10
10
20
3
30
0
0
ENDSEC
0
SECTION
2
OBJECTS
0
DICTIONARY
5
C
100
AcDbDictionary
3
ACAD_GROUP
350
D
3
ACAD_MLINESTYLE
350
17
0
DICTIONARY
5
D
100
AcDbDictionary
0
DICTIONARY
5
1A
330
C
100
AcDbDictionary
0
DICTIONARY
5
17
100
AcDbDictionary
0
ENDSEC
0
EOF
