0
SECTION
2
HEADER
9
$INSUNITS
70
4
9
$ACADVER
1
AC1014
9
$HANDSEED
5
FFFF
0
ENDSEC
0
SECTION
2
TABLES
0
TABLE
2
VPORT
5
8
100
AcDbSymbolTable
0
ENDTAB
0
TABLE
2
LTYPE
5
5
100
AcDbSymbolTable
0
LTYPE
5
14
100
AcDbSymbolTableRecord
100
AcDbLinetypeTableRecord
2
BYBLOCK
70
0
0
LTYPE
5
15
100
AcDbSymbolTableRecord
100
AcDbLinetypeTableRecord
2
BYLAYER
70
0
0
ENDTAB
0
TABLE
2
LAYER
5
2
100
AcDbSymbolTable
70
2
0
LAYER
5
50
100
AcDbSymbolTableRecord
100
AcDbLayerTableRecord
2
0
70
0
6
CONTINUOUS
0
ENDTAB
0
TABLE
2
STYLE
5
3
100
AcDbSymbolTable
70
1
0
STYLE
5
11
100
AcDbSymbolTableRecord
100
AcDbTextStyleTableRecord
2
STANDARD
70
0
0
ENDTAB
0
TABLE
2
VIEW
5
6
100
AcDbSymbolTable
70
0
0
ENDTAB
0
TABLE
2
UCS
5
7
100
AcDbSymbolTable
70
0
0
ENDTAB
0
TABLE
2
APPID
5
9
100
AcDbSymbolTable
70
2
0
APPID
5
12
100
AcDbSymbolTableRecord
100
AcDbRegAppTableRecord
2
ACAD
70
0
0
ENDTAB
0
TABLE
2
DIMSTYLE
5
A
100
AcDbSymbolTable
70
1
0
ENDTAB
0
TABLE
2
BLOCK_RECORD
5
1
100
AcDbSymbolTable
70
1
0
BLOCK_RECORD
5
1F
100
AcDbSymbolTableRecord
100
AcDbBlockTableRecord
2
*MODEL_SPACE
0
BLOCK_RECORD
5
1B
100
AcDbSymbolTableRecord
100
AcDbBlockTableRecord
2
*PAPER_SPACE
0
ENDTAB
0
ENDSEC
0
SECTION
2
BLOCKS
0
BLOCK
5
20
100
AcDbEntity
100
AcDbBlockBegin
2
*MODEL_SPACE
0
ENDBLK
5
21
100
AcDbEntity
100
AcDbBlockEnd
0
BLOCK
5
1C
100
AcDbEntity
100
AcDbBlockBegin
2
*PAPER_SPACE
0
ENDBLK
5
1D
100
AcDbEntity
100
AcDbBlockEnd
0
ENDSEC
0
SECTION
2
ENTITIES
0
SPLINE
5
100
100
AcDbEntity
8
0
100
AcDbSpline
70
4
71
5
72
16
73
10
74
0
42
0.000000001
43
0.0000000001
44
0.0000000001
40
0
40
0
40
0
40
0
40
0
40
0
40
0.20000000000000001
40
0.40000000000000002
40
0.60000000000000009
40
0.80000000000000004
40
1
40
1
40
1
40
1
40
1
40
1
41
1
41
1
41
1
41
1
41
1
41
1
41
1
41
1
41
1
41
1
10
0
20
0
30
0
10
0
20
0.12000000000003158
30
0
10
0
20
0.36000000000007704
30
0
10
0
20
0.72000000000009301
30
0
10
0
20
1.2000000000000313
30
0
10
0
20
1.7999999999999146
30
0
10
0
20
2.2799999999998684
30
0
10
0
20
2.6399999999999042
30
0
10
0
20
2.8799999999999617
30
0
10
0
20
3
30
0
0
SPLINE
5
101
100
AcDbEntity
8
0
100
AcDbSpline
70
4
71
5
72
16
73
10
74
0
42
0.000000001
43
0.0000000001
44
0.0000000001
40
0
40
0
40
0
40
0
40
0
40
0
40
0.20000000000000001
40
0.40000000000000002
40
0.60000000000000009
40
0.80000000000000004
40
1
40
1
40
1
40
1
40
1
40
1
41
1
41
1
41
1
41
1
41
1
41
1
41
1
41
1
41
1
41
1
10
10
20
0
30
0
10
9.9999999999997495
20
0.12000000000003158
30
0
10
9.9999999999993197
20
0.36000000000007704
30
0
10
9.9999999999989129
20
0.72000000000009301
30
0
10
9.9999999999987672
20
1.2000000000000313
30
0
10
9.9999999999990248
20
1.7999999999999146
30
0
10
9.9999999999993889
20
2.2799999999998684
30
0
10
9.9999999999996998
20
2.6399999999999042
30
0
10
9.9999999999999005
20
2.8799999999999617
30
0
10
10
20
3
30
0
0
SPLINE
5
102
100
AcDbEntity
8
0
100
AcDbSpline
70
4
71
5
72
16
73
10
74
0
42
0.000000001
43
0.0000000001
44
0.0000000001
40
0
40
0
40
0
40
0
40
0
40
0
40
0.20000000000000001
40
0.40000000000000002
40
0.60000000000000009
40
0.80000000000000004
40
1
40
1
40
1
40
1
40
1
40
1
41
1
41
1
41
1
41
1
41
1
41
1
41
1
41
1
41
1
41
1
10
0
20
1.5
30
0
10
0.40000000000047375
20
1.499999999999694
30
0
10
1.2000000000012774
20
1.4999999999991638
30
0
10
2.4000000000020547
20
1.4999999999986278
30
0
10
4.0000000000023546
20
1.4999999999983737
30
0
10
6.0000000000019584
20
1.4999999999985913
30
0
10
7.6000000000012928
20
1.4999999999990359
30
0
10
8.800000000000697
20
1.4999999999994786
30
0
10
9.6000000000002395
20
1.4999999999998188
30
0
10
10
20
1.5
30
0
0
SPLINE
5
103
100
AcDbEntity
8
0
100
AcDbSpline
70
4
71
5
72
61
73
55
74
0
42
0.000000001
43
0.0000000001
44
0.0000000001
40
0
40
0
40
0
40
0
40
0
40
0
40
0.02
40
0.040000000000000001
40
0.059999999999999998
40
0.080000000000000002
40
0.10000000000000001
40
0.12000000000000001
40
0.14000000000000001
40
0.16
40
0.17999999999999999
40
0.19999999999999998
40
0.21999999999999997
40
0.23999999999999996
40
0.25999999999999995
40
0.27999999999999997
40
0.29999999999999999
40
0.32000000000000001
40
0.34000000000000002
40
0.36000000000000004
40
0.38000000000000006
40
0.40000000000000008
40
0.4200000000000001
40
0.44000000000000011
40
0.46000000000000013
40
0.48000000000000015
40
0.50000000000000011
40
0.52000000000000013
40
0.54000000000000015
40
0.56000000000000016
40
0.58000000000000018
40
0.6000000000000002
40
0.62000000000000022
40
0.64000000000000024
40
0.66000000000000025
40
0.68000000000000027
40
0.70000000000000029
40
0.72000000000000031
40
0.74000000000000032
40
0.76000000000000034
40
0.78000000000000036
40
0.80000000000000038
40
0.8200000000000004
40
0.84000000000000041
40
0.86000000000000043
40
0.88000000000000045
40
0.90000000000000047
40
0.92000000000000048
40
0.9400000000000005
40
0.96000000000000052
40
0.98000000000000054
40
1
40
1
40
1
40
1
40
1
40
1
41
1
41
1
41
1
41
1
41
1
41
1
41
1
41
1
41
1
41
1
41
1
41
1
41
1
41
1
41
1
41
1
41
1
41
1
41
1
41
1
41
1
41
1
41
1
41
1
41
1
41
1
41
1
41
1
41
1
41
1
41
1
41
1
41
1
41
1
41
1
41
1
41
1
41
1
41
1
41
1
41
1
41
1
41
1
41
1
41
1
41
1
41
1
41
1
41
1
41
1
41
1
41
1
41
1
41
1
41
1
10
0
20
0
30
0
10
0.039776314142416981
20
0.032970710083822387
30
0
10
0.11933375684503963
20
0.094244197016091907
30
0
10
0.23868436414769004
20
0.17215066330405637
30
0
10
0.39784741256425343
20
0.24799986639099172
30
0
10
0.59685039820869679
20
0.29698214580561277
30
0
10
0.79590537095530034
20
0.30295751763259848
30
0
10
0.99501781597122174
20
0.27172485324653811
30
0
10
1.1941967605582597
20
0.2130647261304118
30
0
10
1.3934556391843547
20
0.14184980211722864
30
0
10
1.5928133271678622
20
0.074890021587070033
30
0
10
1.7922951519007988
20
0.027701795811300341
30
0
10
1.9919339944969479
20
0.011267479908802018
30
0
10
2.191771213228467
20
0.028872526700017203
30
0
10
2.3918580869876189
20
0.072661442428782988
30
0
10
2.5922429676956105
20
0.12798672173553896
30
0
10
2.7929579607168136
20
0.17802600235427496
30
0
10
2.9940055785188218
20
0.20832242682996766
30
0
10
3.1953456879464355
20
0.21128933711564091
30
0
10
3.3968812210067978
20
0.19094032649721523
30
0
10
3.5984903086221709
20
0.15858652849893046
30
0
10
3.8000597026866094
20
0.12829163570274213
30
0
10
4.0015176136310373
20
0.11243555525687951
30
0
10
4.2028671294162718
20
0.11721171111362774
30
0
10
4.4042189051060916
20
0.13819215291008236
30
0
10
4.6057235157053453
20
0.16460101633495755
30
0
10
4.8075039157525037
20
0.18354524252310589
30
0
10
5.0095890527741593
20
0.18420340885370726
30
0
10
5.2118439613013674
20
0.16214700174523289
30
0
10
5.4139088440611793
20
0.12330420346004795
30
0
10
5.6153362944474461
20
0.079855427113257257
30
0
10
5.815721841593148
20
0.046440935899208877
30
0
10
6.0148339636251267
20
0.036318389976535456
30
0
10
6.2127518552950187
20
0.057407086427738716
30
0
10
6.4099803739132968
20
0.10874937523338379
30
0
10
6.607235451824705
20
0.18318790540091004
30
0
10
6.805249343304892
20
0.26965317637048059
30
0
10
7.004569872664959
20
0.35557869069285075
30
0
10
7.2053588057584941
20
0.42927213280682175
30
0
10
7.4071981660822015
20
0.48225876085011921
30
0
10
7.6093270531594879
20
0.50914891878072022
30
0
10
7.8108695179929866
20
0.50757338144787922
30
0
10
8.0110627282297688
20
0.47809561680696194
30
0
10
8.2094911056965341
20
0.42415739386366058
30
0
10
8.4063018619987826
20
0.35197780295091219
30
0
10
8.6020305114052888
20
0.26949783392971854
30
0
10
8.797445307634824
20
0.18537411488002228
30
0
10
8.993384533998503
20
0.1079515748630781
30
0
10
9.1905989867060445
20
0.044258090305941793
30
0
10
9.3895871431712212
20
-0.0010486377341357455
30
0
10
9.5906432885451078
20
-0.025220129338871494
30
0
10
9.7532577602649813
20
-0.026576200622251824
30
0
10
9.8762341870500361
20
-0.017291692525588702
30
0
10
9.9586695495843056
20
-0.0065264850253973893
30
0
10
10
20
0
30
0
0
SPLINE
5
104
100
AcDbEntity
8
0
100
AcDbSpline
70
4
71
5
72
61
73
55
74
0
42
0.000000001
43
0.0000000001
44
0.0000000001
40
0
40
0
40
0
40
0
40
0
40
0
40
0.02
40
0.040000000000000001
40
0.059999999999999998
40
0.080000000000000002
40
0.10000000000000001
40
0.12000000000000001
40
0.14000000000000001
40
0.16
40
0.17999999999999999
40
0.19999999999999998
40
0.21999999999999997
40
0.23999999999999996
40
0.25999999999999995
40
0.27999999999999997
40
0.29999999999999999
40
0.32000000000000001
40
0.34000000000000002
40
0.36000000000000004
40
0.38000000000000006
40
0.40000000000000008
40
0.4200000000000001
40
0.44000000000000011
40
0.46000000000000013
40
0.48000000000000015
40
0.50000000000000011
40
0.52000000000000013
40
0.54000000000000015
40
0.56000000000000016
40
0.58000000000000018
40
0.6000000000000002
40
0.62000000000000022
40
0.64000000000000024
40
0.66000000000000025
40
0.68000000000000027
40
0.70000000000000029
40
0.72000000000000031
40
0.74000000000000032
40
0.76000000000000034
40
0.78000000000000036
40
0.80000000000000038
40
0.8200000000000004
40
0.84000000000000041
40
0.86000000000000043
40
0.88000000000000045
40
0.90000000000000047
40
0.92000000000000048
40
0.9400000000000005
40
0.96000000000000052
40
0.98000000000000054
40
1
40
1
40
1
40
1
40
1
40
1
41
1
41
1
41
1
41
1
41
1
41
1
41
1
41
1
41
1
41
1
41
1
41
1
41
1
41
1
41
1
41
1
41
1
41
1
41
1
41
1
41
1
41
1
41
1
41
1
41
1
41
1
41
1
41
1
41
1
41
1
41
1
41
1
41
1
41
1
41
1
41
1
41
1
41
1
41
1
41
1
41
1
41
1
41
1
41
1
41
1
41
1
41
1
41
1
41
1
41
1
41
1
41
1
41
1
41
1
41
1
10
0
20
3
30
0
10
0.040408440157053381
20
3.0046223600965543
30
0
10
0.12119050253088173
20
3.012209247078776
30
0
10
0.24225914209073565
20
3.018616057401315
30
0
10
0.40347495229614017
20
3.01720512693328
30
0
10
0.60465064491912113
20
2.9992914123381862
30
0
10
0.80549667669866476
20
2.9666135879922333
30
0
10
1.0060428770994378
20
2.9219896420184428
30
0
10
1.2063400717860859
20
2.8701794514296757
30
0
10
1.4064651826127008
20
2.8183400635754041
30
0
10
1.6065080472126223
20
2.7744420066271802
30
0
10
1.8065586861802629
20
2.7457324160121281
30
0
10
2.0066945275267249
20
2.7371950557920171
30
0
10
2.2069673667531138
20
2.749970743066668
30
0
10
2.4073910991158858
20
2.7798839629538397
30
0
10
2.6079558816363386
20
2.8196150666363682
30
0
10
2.8086415741990347
20
2.8607713594119843
30
0
10
3.0094312016966156
20
2.8959669316578585
30
0
10
3.2103248816162129
20
2.9209562511686906
30
0
10
3.4113522432734249
20
2.9365933534821416
30
0
10
3.6125510073122147
20
2.9467168823996914
30
0
10
3.8139466080622286
20
2.9561842966607479
30
0
10
4.0155320732289335
20
2.9688977406520589
30
0
10
4.2172461584679946
20
2.9857318199139145
30
0
10
4.418956499961463
20
3.0027823423175333
30
0
10
4.6205080390877153
20
3.0139016992037861
30
0
10
4.8217681943459629
20
3.0129983224687824
30
0
10
5.022671377929683
20
2.9963382522187687
30
0
10
5.2232684090481643
20
2.9650506334310305
30
0
10
5.4237612467375644
20
2.926980890431313
30
0
10
5.6244114771635223
20
2.8928828155120039
30
0
10
5.8254585431741113
20
2.8730500556972438
30
0
10
6.0270376220093835
20
2.8739297562986459
30
0
10
6.2290895449320525
20
2.8943878835504306
30
0
10
6.43129666384948
20
2.9231200318705226
30
0
10
6.6332033241997248
20
2.9441495845437506
30
0
10
6.8343186233454132
20
2.9415841856696363
30
0
10
7.0342220012022505
20
2.9044228840192021
30
0
10
7.2326766878587625
20
2.8318937305140395
30
0
10
7.4297135560358534
20
2.736972390276144
30
0
10
7.625551523023181
20
2.6400361835543622
30
0
10
7.8205388934634161
20
2.5637441077520866
30
0
10
8.0150876431619746
20
2.5275417145590664
30
0
10
8.2096094803989885
20
2.5421107192096404
30
0
10
8.4044554569669749
20
2.6044220507484135
30
0
10
8.5999213706952364
20
2.7020629774847671
30
0
10
8.7962486358060872
20
2.8169292080529686
30
0
10
8.9936266922040673
20
2.929157494033924
30
0
10
9.1921946641173484
20
3.0209055778784162
30
0
10
9.3920429728432744
20
3.0803141627870416
30
0
10
9.5932235768419396
20
3.1003650924264488
30
0
10
9.7552530544099465
20
3.0821618231041481
30
0
10
9.8773882566964559
20
3.0487573626750235
30
0
10
9.9590840340490363
20
3.0177146308499658
30
0
10
10
20
3
30
0
0
ENDSEC
0
SECTION
2
OBJECTS
0
DICTIONARY
5
C
100
AcDbDictionary
3
ACAD_GROUP
350
D
3
ACAD_MLINESTYLE
350
17
0
DICTIONARY
5
D
100
AcDbDictionary
0
DICTIONARY
5
1A
330
C
100
AcDbDictionary
0
DICTIONARY
5
17
100
AcDbDictionary
0
ENDSEC
0
EOF
