0
SECTION
2
HEADER
9
$INSUNITS
70
4
9
$ACADVER
1
AC1014
9
$HANDSEED
5
FFFF
0
ENDSEC
0
SECTION
2
TABLES
0
TABLE
2
VPORT
5
8
100
AcDbSymbolTable
0
ENDTAB
0
TABLE
2
LTYPE
5
5
100
AcDbSymbolTable
0
LTYPE
5
14
100
AcDbSymbolTableRecord
100
AcDbLinetypeTableRecord
2
BYBLOCK
70
0
0
LTYPE
5
15
100
AcDbSymbolTableRecord
100
AcDbLinetypeTableRecord
2
BYLAYER
70
0
0
ENDTAB
0
TABLE
2
LAYER
5
2
100
AcDbSymbolTable
70
2
0
LAYER
5
50
100
AcDbSymbolTableRecord
100
AcDbLayerTableRecord
2
0
70
0
6
CONTINUOUS
0
ENDTAB
0
TABLE
2
STYLE
5
3
100
AcDbSymbolTable
70
1
0
STYLE
5
11
100
AcDbSymbolTableRecord
100
AcDbTextStyleTableRecord
2
STANDARD
70
0
0
ENDTAB
0
TABLE
2
VIEW
5
6
100
AcDbSymbolTable
70
0
0
ENDTAB
0
TABLE
2
UCS
5
7
100
AcDbSymbolTable
70
0
0
ENDTAB
0
TABLE
2
APPID
5
9
100
AcDbSymbolTable
70
2
0
APPID
5
12
100
AcDbSymbolTableRecord
100
AcDbRegAppTableRecord
2
ACAD
70
0
0
ENDTAB
0
TABLE
2
DIMSTYLE
5
A
100
AcDbSymbolTable
70
1
0
ENDTAB
0
TABLE
2
BLOCK_RECORD
5
1
100
AcDbSymbolTable
70
1
0
BLOCK_RECORD
5
1F
100
AcDbSymbolTableRecord
100
AcDbBlockTableRecord
2
*MODEL_SPACE
0
BLOCK_RECORD
5
1B
100
AcDbSymbolTableRecord
100
AcDbBlockTableRecord
2
*PAPER_SPACE
0
ENDTAB
0
ENDSEC
0
SECTION
2
BLOCKS
0
BLOCK
5
20
100
AcDbEntity
100
AcDbBlockBegin
2
*MODEL_SPACE
0
ENDBLK
5
21
100
AcDbEntity
100
AcDbBlockEnd
0
BLOCK
5
1C
100
AcDbEntity
100
AcDbBlockBegin
2
*PAPER_SPACE
0
ENDBLK
5
1D
100
AcDbEntity
100
AcDbBlockEnd
0
ENDSEC
0
SECTION
2
ENTITIES
0
SPLINE
5
100
100
AcDbEntity
8
0
100
AcDbSpline
70
4
71
5
72
16
73
10
74
0
42
0.000000001
43
0.0000000001
44
0.0000000001
40
0
40
0
40
0
40
0
40
0
40
0
40
0.20000000000000001
40
0.40000000000000002
40
0.60000000000000009
40
0.80000000000000004
40
1
40
1
40
1
40
1
40
1
40
1
41
1
41
1
41
1
41
1
41
1
41
1
41
1
41
1
41
1
41
1
10
0
20
0
30
0
10
0
20
0.12000000000003158
30
0
10
0
20
0.36000000000007704
30
0
10
0
20
0.72000000000009301
30
0
10
0
20
1.2000000000000313
30
0
10
0
20
1.7999999999999146
30
0
10
0
20
2.2799999999998684
30
0
10
0
20
2.6399999999999042
30
0
10
0
20
2.8799999999999617
30
0
10
0
20
3
30
0
0
SPLINE
5
101
100
AcDbEntity
8
0
100
AcDbSpline
70
4
71
5
72
16
73
10
74
0
42
0.000000001
43
0.0000000001
44
0.0000000001
40
0
40
0
40
0
40
0
40
0
40
0
40
0.20000000000000001
40
0.40000000000000002
40
0.60000000000000009
40
0.80000000000000004
40
1
40
1
40
1
40
1
40
1
40
1
41
1
41
1
41
1
41
1
41
1
41
1
41
1
41
1
41
1
41
1
10
10
20
0
30
0
10
9.9999999999997495
20
0.12000000000003158
30
0
10
9.9999999999993197
20
0.36000000000007704
30
0
10
9.9999999999989129
20
0.72000000000009301
30
0
10
9.9999999999987672
20
1.2000000000000313
30
0
10
9.9999999999990248
20
1.7999999999999146
30
0
10
9.9999999999993889
20
2.2799999999998684
30
0
10
9.9999999999996998
20
2.6399999999999042
30
0
10
9.9999999999999005
20
2.8799999999999617
30
0
10
10
20
3
30
0
0
SPLINE
5
102
100
AcDbEntity
8
0
100
AcDbSpline
70
4
71
5
72
16
73
10
74
0
42
0.000000001
43
0.0000000001
44
0.0000000001
40
0
40
0
40
0
40
0
40
0
40
0
40
0.20000000000000001
40
0.40000000000000002
40
0.60000000000000009
40
0.80000000000000004
40
1
40
1
40
1
40
1
40
1
40
1
41
1
41
1
41
1
41
1
41
1
41
1
41
1
41
1
41
1
41
1
10
0
20
1.5
30
0
10
0.40000000000047375
20
1.499999999999694
30
0
10
1.2000000000012774
20
1.4999999999991638
30
0
10
2.4000000000020547
20
1.4999999999986278
30
0
10
4.0000000000023546
20
1.4999999999983737
30
0
10
6.0000000000019584
20
1.4999999999985913
30
0
10
7.6000000000012928
20
1.4999999999990359
30
0
10
8.800000000000697
20
1.4999999999994786
30
0
10
9.6000000000002395
20
1.4999999999998188
30
0
10
10
20
1.5
30
0
0
SPLINE
5
103
100
AcDbEntity
8
0
100
AcDbSpline
70
4
71
5
72
111
73
105
74
0
42
0.000000001
43
0.0000000001
44
0.0000000001
40
0
40
0
40
0
40
0
40
0
40
0
40
0.01
40
0.02
40
0.029999999999999999
40
0.040000000000000001
40
0.050000000000000003
40
0.060000000000000005
40
0.070000000000000007
40
0.080000000000000002
40
0.089999999999999997
40
0.099999999999999992
40
0.10999999999999999
40
0.11999999999999998
40
0.12999999999999998
40
0.13999999999999999
40
0.14999999999999999
40
0.16
40
0.17000000000000001
40
0.18000000000000002
40
0.19000000000000003
40
0.20000000000000004
40
0.21000000000000005
40
0.22000000000000006
40
0.23000000000000007
40
0.24000000000000007
40
0.25000000000000006
40
0.26000000000000006
40
0.27000000000000007
40
0.28000000000000008
40
0.29000000000000009
40
0.3000000000000001
40
0.31000000000000011
40
0.32000000000000012
40
0.33000000000000013
40
0.34000000000000014
40
0.35000000000000014
40
0.36000000000000015
40
0.37000000000000016
40
0.38000000000000017
40
0.39000000000000018
40
0.40000000000000019
40
0.4100000000000002
40
0.42000000000000021
40
0.43000000000000022
40
0.44000000000000022
40
0.45000000000000023
40
0.46000000000000024
40
0.47000000000000025
40
0.48000000000000026
40
0.49000000000000027
40
0.50000000000000022
40
0.51000000000000023
40
0.52000000000000024
40
0.53000000000000025
40
0.54000000000000026
40
0.55000000000000027
40
0.56000000000000028
40
0.57000000000000028
40
0.58000000000000029
40
0.5900000000000003
40
0.60000000000000031
40
0.61000000000000032
40
0.62000000000000033
40
0.63000000000000034
40
0.64000000000000035
40
0.65000000000000036
40
0.66000000000000036
40
0.67000000000000037
40
0.68000000000000038
40
0.69000000000000039
40
0.7000000000000004
40
0.71000000000000041
40
0.72000000000000042
40
0.73000000000000043
40
0.74000000000000044
40
0.75000000000000044
40
0.76000000000000045
40
0.77000000000000046
40
0.78000000000000047
40
0.79000000000000048
40
0.80000000000000049
40
0.8100000000000005
40
0.82000000000000051
40
0.83000000000000052
40
0.84000000000000052
40
0.85000000000000053
40
0.86000000000000054
40
0.87000000000000055
40
0.88000000000000056
40
0.89000000000000057
40
0.90000000000000058
40
0.91000000000000059
40
0.9200000000000006
40
0.9300000000000006
40
0.94000000000000061
40
0.95000000000000062
40
0.96000000000000063
40
0.97000000000000064
40
0.98000000000000065
40
0.99000000000000066
40
1
40
1
40
1
40
1
40
1
40
1
41
1
41
1
41
1
41
1
41
1
41
1
41
1
41
1
41
1
41
1
41
1
41
1
41
1
41
1
41
1
41
1
41
1
41
1
41
1
41
1
41
1
41
1
41
1
41
1
41
1
41
1
41
1
41
1
41
1
41
1
41
1
41
1
41
1
41
1
41
1
41
1
41
1
41
1
41
1
41
1
41
1
41
1
41
1
41
1
41
1
41
1
41
1
41
1
41
1
41
1
41
1
41
1
41
1
41
1
41
1
41
1
41
1
41
1
41
1
41
1
41
1
41
1
41
1
41
1
41
1
41
1
41
1
41
1
41
1
41
1
41
1
41
1
41
1
41
1
41
1
41
1
41
1
41
1
41
1
41
1
41
1
41
1
41
1
41
1
41
1
41
1
41
1
41
1
41
1
41
1
41
1
41
1
41
1
41
1
41
1
41
1
41
1
41
1
41
1
41
1
41
1
41
1
41
1
41
1
41
1
10
0
20
0
30
0
10
0.019905078308513027
20
0.020817754892520642
30
0
10
0.059765809960582943
20
0.059929332482426899
30
0
10
0.11970863235455793
20
0.1110248787918495
30
0
10
0.19993589641474158
20
0.16400637164592832
30
0
10
0.30072599161181929
20
0.20540662779973479
30
0
10
0.40202217886100039
20
0.22325864285988989
30
0
10
0.50382418664167705
20
0.2201316560252872
30
0
10
0.60613134663894219
20
0.20034018226373773
30
0
10
0.70894203305799186
20
0.17033342682255975
30
0
10
0.81224303648043661
20
0.13745011756766773
30
0
10
0.91599856782337119
20
0.10869912788180602
30
0
10
1.0201407710332744
20
0.089588074658681835
30
0
10
1.1245563496953868
20
0.082796212744261632
30
0
10
1.2290844417513223
20
0.087319027571181013
30
0
10
1.3335605191326985
20
0.099711181323890646
30
0
10
1.43785680065592
20
0.11504257880769383
30
0
10
1.5419178878257931
20
0.12794571861707363
30
0
10
1.6458132050318131
20
0.13367021269577747
30
0
10
1.7497305323660528
20
0.12896040397785385
30
0
10
1.8538830747889037
20
0.11254447182478129
30
0
10
1.9584325531151725
20
0.085819931633670854
30
0
10
2.0634157095881118
20
0.053243550859180401
30
0
10
2.1686447230582542
20
0.023389406308690283
30
0
10
2.2737319565189438
20
0.0072532130766225101
30
0
10
2.3781950570776282
20
0.014891618682156446
30
0
10
2.4815392650091868
20
0.052414323623105753
30
0
10
2.5833457659189722
20
0.1191544493704266
30
0
10
2.6833662455933842
20
0.20391208077991546
30
0
10
2.781539715113635
20
0.28859514257319435
30
0
10
2.8779899499037596
20
0.3533189186646713
30
0
10
2.973033130302146
20
0.38123198992280904
30
0
10
3.0671738230103935
20
0.36293322481321305
30
0
10
3.1611251788654569
20
0.30240564280912474
30
0
10
3.2557094943389675
20
0.21454257439889335
30
0
10
3.3517177768413648
20
0.11951684129220459
30
0
10
3.4497742736227326
20
0.037965215980829095
30
0
10
3.5502174561764797
20
-0.013680586925925171
30
0
10
3.6529280610225463
20
-0.029119790701193166
30
0
10
3.757359943884226
20
-0.012856159194466702
30
0
10
3.8627670485282017
20
0.024362386265307404
30
0
10
3.9683853213361653
20
0.068774513364405002
30
0
10
4.0736144010287507
20
0.10715098927831539
30
0
10
4.1782464987206769
20
0.13077763811808832
30
0
10
4.2824103878313471
20
0.13601478261281638
30
0
10
4.3863957471434825
20
0.12334053601130089
30
0
10
4.4905136925626365
20
0.096907139748430682
30
0
10
4.5949483564998657
20
0.063849107855880341
30
0
10
4.6995959217558161
20
0.033800128640934277
30
0
10
4.8041721049300747
20
0.016619817956504985
30
0
10
4.9083479140144668
20
0.019916922404036305
30
0
10
5.0118707135978955
20
0.046757480159849568
30
0
10
5.1147016437177593
20
0.093029479035001278
30
0
10
5.2171170488184533
20
0.14570393237886117
30
0
10
5.3195314104116598
20
0.18822459912781814
30
0
10
5.4223393195705185
20
0.20545629287504194
30
0
10
5.5257617388216316
20
0.18840316148869027
30
0
10
5.6296632090771537
20
0.13996581651588869
30
0
10
5.7334660267639173
20
0.077338739979479709
30
0
10
5.8363711638515401
20
0.02394421005477497
30
0
10
5.9375321457553474
20
0.0028656193777874491
30
0
10
6.0362356061098099
20
0.030308860384303291
30
0
10
6.1321072508611119
20
0.10757110402683871
30
0
10
6.225210745405124
20
0.21869477718590921
30
0
10
6.3159454872990146
20
0.3386946229333655
30
0
10
6.4049892862110367
20
0.43936884388942321
30
0
10
6.4932240224054567
20
0.49617542872791603
30
0
10
6.5816668464089396
20
0.49442567957059202
30
0
10
6.6714040691758649
20
0.43639190532298472
30
0
10
6.7634471044566293
20
0.33683420590167001
30
0
10
6.8585882311079196
20
0.21779171495075092
30
0
10
6.9572440567581175
20
0.10346526244818485
30
0
10
7.0593317904818766
20
0.01546720501928992
30
0
10
7.1640616842490434
20
-0.03309258465939495
30
0
10
7.2700739710732334
20
-0.038527153525452981
30
0
10
7.3758091805460193
20
-0.0039933258486245515
30
0
10
7.4798200886406256
20
0.062055848603090463
30
0
10
7.5810839156265972
20
0.14782194973248025
30
0
10
7.6793762871884033
20
0.23998399600460077
30
0
10
7.7751460262069871
20
0.32517746686562776
30
0
10
7.8692692882959934
20
0.39129697701286664
30
0
10
7.9628399320719652
20
0.42893571070804631
30
0
10
8.0569571714956236
20
0.43260488888010407
30
0
10
8.1524836927714421
20
0.40246018084289265
30
0
10
8.2499599126483858
20
0.34391357440961717
30
0
10
8.3496239352652992
20
0.26591509632824339
30
0
10
8.4513945023374202
20
0.17962320457408365
30
0
10
8.5548796835515475
20
0.096946948563850707
30
0
10
8.6593480925605029
20
0.029068401085580529
30
0
10
8.7638230587882138
20
-0.014705852589326742
30
0
10
8.8672757431037894
20
-0.027720355865882038
30
0
10
8.9687986587649462
20
-0.0069226244219904153
30
0
10
9.0677695370840148
20
0.046404391078638405
30
0
10
9.1640641964965237
20
0.12543661261087435
30
0
10
9.258007887315383
20
0.21882526730690119
30
0
10
9.3502089606611669
20
0.31267871555770765
30
0
10
9.441426641204302
20
0.39228605692696827
30
0
10
9.5324329415509617
20
0.44383426398913683
30
0
10
9.623857345672544
20
0.45640092772172042
30
0
10
9.7161061503604795
20
0.42290280851340356
30
0
10
9.809427154577774
20
0.33904952450426995
30
0
10
9.885039023507991
20
0.2300021621287657
30
0
10
9.9423035149929788
20
0.12430004471449996
30
0
10
9.9807266948931161
20
0.043204595790595247
30
0
10
10
20
0
30
0
0
SPLINE
5
104
100
AcDbEntity
8
0
100
AcDbSpline
70
4
71
5
72
111
73
105
74
0
42
0.000000001
43
0.0000000001
44
0.0000000001
40
0
40
0
40
0
40
0
40
0
40
0
40
0.01
40
0.02
40
0.029999999999999999
40
0.040000000000000001
40
0.050000000000000003
40
0.060000000000000005
40
0.070000000000000007
40
0.080000000000000002
40
0.089999999999999997
40
0.099999999999999992
40
0.10999999999999999
40
0.11999999999999998
40
0.12999999999999998
40
0.13999999999999999
40
0.14999999999999999
40
0.16
40
0.17000000000000001
40
0.18000000000000002
40
0.19000000000000003
40
0.20000000000000004
40
0.21000000000000005
40
0.22000000000000006
40
0.23000000000000007
40
0.24000000000000007
40
0.25000000000000006
40
0.26000000000000006
40
0.27000000000000007
40
0.28000000000000008
40
0.29000000000000009
40
0.3000000000000001
40
0.31000000000000011
40
0.32000000000000012
40
0.33000000000000013
40
0.34000000000000014
40
0.35000000000000014
40
0.36000000000000015
40
0.37000000000000016
40
0.38000000000000017
40
0.39000000000000018
40
0.40000000000000019
40
0.4100000000000002
40
0.42000000000000021
40
0.43000000000000022
40
0.44000000000000022
40
0.45000000000000023
40
0.46000000000000024
40
0.47000000000000025
40
0.48000000000000026
40
0.49000000000000027
40
0.50000000000000022
40
0.51000000000000023
40
0.52000000000000024
40
0.53000000000000025
40
0.54000000000000026
40
0.55000000000000027
40
0.56000000000000028
40
0.57000000000000028
40
0.58000000000000029
40
0.5900000000000003
40
0.60000000000000031
40
0.61000000000000032
40
0.62000000000000033
40
0.63000000000000034
40
0.64000000000000035
40
0.65000000000000036
40
0.66000000000000036
40
0.67000000000000037
40
0.68000000000000038
40
0.69000000000000039
40
0.7000000000000004
40
0.71000000000000041
40
0.72000000000000042
40
0.73000000000000043
40
0.74000000000000044
40
0.75000000000000044
40
0.76000000000000045
40
0.77000000000000046
40
0.78000000000000047
40
0.79000000000000048
40
0.80000000000000049
40
0.8100000000000005
40
0.82000000000000051
40
0.83000000000000052
40
0.84000000000000052
40
0.85000000000000053
40
0.86000000000000054
40
0.87000000000000055
40
0.88000000000000056
40
0.89000000000000057
40
0.90000000000000058
40
0.91000000000000059
40
0.9200000000000006
40
0.9300000000000006
40
0.94000000000000061
40
0.95000000000000062
40
0.96000000000000063
40
0.97000000000000064
40
0.98000000000000065
40
0.99000000000000066
40
1
40
1
40
1
40
1
40
1
40
1
41
1
41
1
41
1
41
1
41
1
41
1
41
1
41
1
41
1
41
1
41
1
41
1
41
1
41
1
41
1
41
1
41
1
41
1
41
1
41
1
41
1
41
1
41
1
41
1
41
1
41
1
41
1
41
1
41
1
41
1
41
1
41
1
41
1
41
1
41
1
41
1
41
1
41
1
41
1
41
1
41
1
41
1
41
1
41
1
41
1
41
1
41
1
41
1
41
1
41
1
41
1
41
1
41
1
41
1
41
1
41
1
41
1
41
1
41
1
41
1
41
1
41
1
41
1
41
1
41
1
41
1
41
1
41
1
41
1
41
1
41
1
41
1
41
1
41
1
41
1
41
1
41
1
41
1
41
1
41
1
41
1
41
1
41
1
41
1
41
1
41
1
41
1
41
1
41
1
41
1
41
1
41
1
41
1
41
1
41
1
41
1
41
1
41
1
41
1
41
1
41
1
41
1
41
1
41
1
41
1
10
0
20
3
30
0
10
0.020392787405306902
20
2.9987038886552564
30
0
10
0.061183533170170071
20
2.9961826162486855
30
0
10
0.12238516524843672
20
2.9926135705489325
30
0
10
0.20401836834337039
20
2.9882805335859146
30
0
10
0.30610863108795178
20
2.9835132103438107
30
0
10
0.40823865057216535
20
2.9792106539423657
30
0
10
0.5103905416276453
20
2.9750072689297498
30
0
10
0.61253409916011547
20
2.97028557583252
30
0
10
0.71462499739051599
20
2.9641404522546648
30
0
10
0.8166176759267838
20
2.9556552608432747
30
0
10
0.91847748101208726
20
2.94416211227152
30
0
10
1.0201921881021923
20
2.9294891330680568
30
0
10
1.1217859257021132
20
2.9122584213357761
30
0
10
1.2233256856081451
20
2.8940273409699695
30
0
10
1.3248965996154352
20
2.8767657508198146
30
0
10
1.4265808585096595
20
2.8624138307263411
30
0
10
1.5284369484530249
20
2.8524389512387867
30
0
10
1.6304746337954903
20
2.8473207252901989
30
0
10
1.7326448002428632
20
2.8462963557006131
30
0
10
1.8348692800157409
20
2.8478268953773278
30
0
10
1.9370643358079556
20
2.8499317568718445
30
0
10
2.0391642875436093
20
2.8505685764349704
30
0
10
2.1411507442806292
20
2.8480092985472059
30
0
10
2.2430598679579954
20
2.8411597093680867
30
0
10
2.3449533751804785
20
2.8297299450513664
30
0
10
2.4468966723795944
20
2.8144843083167546
30
0
10
2.548936882683198
20
2.7973661848225904
30
0
10
2.6510742070800735
20
2.7819043960443017
30
0
10
2.7532616927613729
20
2.7726380710638017
30
0
10
2.8554352465610155
20
2.7735644040353087
30
0
10
2.9575379099117556
20
2.7867202728952147
30
0
10
3.0595414191472465
20
2.8109789267806318
30
0
10
3.1614814369302096
20
2.8400832907242206
30
0
10
3.2634320446410352
20
2.8639594478104624
30
0
10
3.3654402606390339
20
2.8722312582923375
30
0
10
3.4674671516224018
20
2.8572762035511556
30
0
10
3.5693377198852376
20
2.8170468588572035
30
0
10
3.6706578677941009
20
2.7590672039933524
30
0
10
3.7709001916298739
20
2.698201685062267
30
0
10
3.8695617032600187
20
2.6516916665655392
30
0
10
3.9663076715530305
20
2.6348428347139281
30
0
10
4.0611011121696468
20
2.6569399517742736
30
0
10
4.1543893298535313
20
2.7158093901956271
30
0
10
4.2470159133056491
20
2.7991433488293338
30
0
10
4.3399866972061183
20
2.8894759333665707
30
0
10
4.4342737856145593
20
2.9681496522397728
30
0
10
4.5306201332329374
20
3.0194145306962739
30
0
10
4.6293045522106615
20
3.0351550261989098
30
0
10
4.7300525463040834
20
3.0170966927903971
30
0
10
4.8322702488905129
20
2.9732982324056154
30
0
10
4.9352183369117677
20
2.91577660322127
30
0
10
5.0381957254190226
20
2.8577859029993253
30
0
10
5.1407527129359822
20
2.8109986461919663
30
0
10
5.2427762357819514
20
2.7835858271367298
30
0
10
5.3443453278084183
20
2.7801317398642515
30
0
10
5.445634186552482
20
2.8010305594583977
30
0
10
5.5468062926816568
20
2.8422921472362894
30
0
10
5.6478878180960095
20
2.8946771799828301
30
0
10
5.7487421782696053
20
2.9449560774820087
30
0
10
5.8491665289378165
20
2.9794609877418625
30
0
10
5.9489601024614123
20
2.9872458978434353
30
0
10
6.0479958654685815
20
2.9629728563459699
30
0
10
6.1463106369624896
20
2.9109777364095244
30
0
10
6.2441108739693449
20
2.8447570456906179
30
0
10
6.3416867286413536
20
2.7816244050526051
30
0
10
6.4393475837695018
20
2.7384557355573085
30
0
10
6.5373556697191635
20
2.7274289492223276
30
0
10
6.6358440463031272
20
2.7507078288638764
30
0
10
6.7347979972500926
20
2.7992296513586128
30
0
10
6.8341417002970628
20
2.8583579957124488
30
0
10
6.9338052182152552
20
2.9121296161298953
30
0
10
7.0337893218261138
20
2.9476727920634072
30
0
10
7.134255385896024
20
2.9604938324346186
30
0
10
7.2355247367697331
20
2.956263591479551
30
0
10
7.3379010454851397
20
2.9454437543641427
30
0
10
7.4415186807202662
20
2.9392215484870965
30
0
10
7.546205584914178
20
2.9454002703448552
30
0
10
7.6512793544185778
20
2.9631511312104051
30
0
10
7.7555929824439573
20
2.9824938112248942
30
0
10
7.8578914685338708
20
2.9898342648942751
30
0
10
7.9571068238338052
20
2.9721973085513214
30
0
10
8.0526412243647894
20
2.9214849041750446
30
0
10
8.1447463655777739
20
2.8399658877017253
30
0
10
8.2344797880350136
20
2.7400264351482302
30
0
10
8.3233068107009043
20
2.6390672611893056
30
0
10
8.4128022868168166
20
2.5557715673857793
30
0
10
8.5043153515418961
20
2.5058599451396923
30
0
10
8.5986408160349885
20
2.4979491792682449
30
0
10
8.6957132320908173
20
2.5296873015840342
30
0
10
8.7948977021875905
20
2.5913949827504998
30
0
10
8.8952509059308866
20
2.6693312231695487
30
0
10
8.9957951792917754
20
2.7491226338608548
30
0
10
9.0957823152065558
20
2.8190657449340528
30
0
10
9.1949745341359286
20
2.8736381679608032
30
0
10
9.2935215302556138
20
2.9121143650333545
30
0
10
9.3918223758430095
20
2.9369970090527375
30
0
10
9.4903913942093627
20
2.952499123547998
30
0
10
9.5897264306286836
20
2.9630492441193605
30
0
10
9.6901654866537079
20
2.9716721469556182
30
0
10
9.7919086479695547
20
2.9801590785874685
30
0
10
9.8744266889290877
20
2.9875627497465
30
0
10
9.9369618891584182
20
2.993594845981209
30
0
10
9.978939400669546
20
2.9978294251220339
30
0
10
10
20
3
30
0
0
ENDSEC
0
SECTION
2
OBJECTS
0
DICTIONARY
5
C
100
AcDbDictionary
3
ACAD_GROUP
350
D
3
ACAD_MLINESTYLE
350
17
0
DICTIONARY
5
D
100
AcDbDictionary
0
DICTIONARY
5
1A
330
C
100
AcDbDictionary
0
DICTIONARY
5
17
100
AcDbDictionary
0
ENDSEC
0
EOF
