0
SECTION
2
HEADER
9
$INSUNITS
70
4
9
$ACADVER
1
AC1014
9
$HANDSEED
5
FFFF
0
ENDSEC
0
SECTION
2
TABLES
0
TABLE
2
VPORT
5
8
100
AcDbSymbolTable
0
ENDTAB
0
TABLE
2
LTYPE
5
5
100
AcDbSymbolTable
0
LTYPE
5
14
100
AcDbSymbolTableRecord
100
AcDbLinetypeTableRecord
2
BYBLOCK
70
0
0
LTYPE
5
15
100
AcDbSymbolTableRecord
100
AcDbLinetypeTableRecord
2
BYLAYER
70
0
0
ENDTAB
0
TABLE
2
LAYER
5
2
100
AcDbSymbolTable
70
2
0
LAYER
5
50
100
AcDbSymbolTableRecord
100
AcDbLayerTableRecord
2
0
70
0
6
CONTINUOUS
0
ENDTAB
0
TABLE
2
STYLE
5
3
100
AcDbSymbolTable
70
1
0
STYLE
5
11
100
AcDbSymbolTableRecord
100
AcDbTextStyleTableRecord
2
STANDARD
70
0
0
ENDTAB
0
TABLE
2
VIEW
5
6
100
AcDbSymbolTable
70
0
0
ENDTAB
0
TABLE
2
UCS
5
7
100
AcDbSymbolTable
70
0
0
ENDTAB
0
TABLE
2
APPID
5
9
100
AcDbSymbolTable
70
2
0
APPID
5
12
100
AcDbSymbolTableRecord
100
AcDbRegAppTableRecord
2
ACAD
70
0
0
ENDTAB
0
TABLE
2
DIMSTYLE
5
A
100
AcDbSymbolTable
70
1
0
ENDTAB
0
TABLE
2
BLOCK_RECORD
5
1
100
AcDbSymbolTable
70
1
0
BLOCK_RECORD
5
1F
100
AcDbSymbolTableRecord
100
AcDbBlockTableRecord
2
*MODEL_SPACE
0
BLOCK_RECORD
5
1B
100
AcDbSymbolTableRecord
100
AcDbBlockTableRecord
2
*PAPER_SPACE
0
ENDTAB
0
ENDSEC
0
SECTION
2
BLOCKS
0
BLOCK
5
20
100
AcDbEntity
100
AcDbBlockBegin
2
*MODEL_SPACE
0
ENDBLK
5
21
100
AcDbEntity
100
AcDbBlockEnd
0
BLOCK
5
1C
100
AcDbEntity
100
AcDbBlockBegin
2
*PAPER_SPACE
0
ENDBLK
5
1D
100
AcDbEntity
100
AcDbBlockEnd
0
ENDSEC
0
SECTION
2
ENTITIES
0
SPLINE
5
100
100
AcDbEntity
8
0
100
AcDbSpline
70
4
71
5
72
16
73
10
74
0
42
0.000000001
43
0.0000000001
44
0.0000000001
40
0
40
0
40
0
40
0
40
0
40
0
40
0.20000000000000001
40
0.40000000000000002
40
0.60000000000000009
40
0.80000000000000004
40
1
40
1
40
1
40
1
40
1
40
1
41
1
41
1
41
1
41
1
41
1
41
1
41
1
41
1
41
1
41
1
10
0
20
0
30
0
10
0
20
0.12000000000003158
30
0
10
0
20
0.36000000000007704
30
0
10
0
20
0.72000000000009301
30
0
10
0
20
1.2000000000000313
30
0
10
0
20
1.7999999999999146
30
0
10
0
20
2.2799999999998684
30
0
10
0
20
2.6399999999999042
30
0
10
0
20
2.8799999999999617
30
0
10
0
20
3
30
0
0
SPLINE
5
101
100
AcDbEntity
8
0
100
AcDbSpline
70
4
71
5
72
16
73
10
74
0
42
0.000000001
43
0.0000000001
44
0.0000000001
40
0
40
0
40
0
40
0
40
0
40
0
40
0.20000000000000001
40
0.40000000000000002
40
0.60000000000000009
40
0.80000000000000004
40
1
40
1
40
1
40
1
40
1
40
1
41
1
41
1
41
1
41
1
41
1
41
1
41
1
41
1
41
1
41
1
10
10
20
0
30
0
10
9.9999999999997495
20
0.12000000000003158
30
0
10
9.9999999999993197
20
0.36000000000007704
30
0
10
9.9999999999989129
20
0.72000000000009301
30
0
10
9.9999999999987672
20
1.2000000000000313
30
0
10
9.9999999999990248
20
1.7999999999999146
30
0
10
9.9999999999993889
20
2.2799999999998684
30
0
10
9.9999999999996998
20
2.6399999999999042
30
0
10
9.9999999999999005
20
2.8799999999999617
30
0
10
10
20
3
30
0
0
SPLINE
5
102
100
AcDbEntity
8
0
100
AcDbSpline
70
4
71
5
72
16
73
10
74
0
42
0.000000001
43
0.0000000001
44
0.0000000001
40
0
40
0
40
0
40
0
40
0
40
0
40
0.20000000000000001
40
0.40000000000000002
40
0.60000000000000009
40
0.80000000000000004
40
1
40
1
40
1
40
1
40
1
40
1
41
1
41
1
41
1
41
1
41
1
41
1
41
1
41
1
41
1
41
1
10
0
20
1.5
30
0
10
0.40000000000047375
20
1.499999999999694
30
0
10
1.2000000000012774
20
1.4999999999991638
30
0
10
2.4000000000020547
20
1.4999999999986278
30
0
10
4.0000000000023546
20
1.4999999999983737
30
0
10
6.0000000000019584
20
1.4999999999985913
30
0
10
7.6000000000012928
20
1.4999999999990359
30
0
10
8.800000000000697
20
1.4999999999994786
30
0
10
9.6000000000002395
20
1.4999999999998188
30
0
10
10
20
1.5
30
0
0
SPLINE
5
103
100
AcDbEntity
8
0
100
AcDbSpline
70
4
71
5
72
61
73
55
74
0
42
0.000000001
43
0.0000000001
44
0.0000000001
40
0
40
0
40
0
40
0
40
0
40
0
40
0.02
40
0.040000000000000001
40
0.059999999999999998
40
0.080000000000000002
40
0.10000000000000001
40
0.12000000000000001
40
0.14000000000000001
40
0.16
40
0.17999999999999999
40
0.19999999999999998
40
0.21999999999999997
40
0.23999999999999996
40
0.25999999999999995
40
0.27999999999999997
40
0.29999999999999999
40
0.32000000000000001
40
0.34000000000000002
40
0.36000000000000004
40
0.38000000000000006
40
0.40000000000000008
40
0.4200000000000001
40
0.44000000000000011
40
0.46000000000000013
40
0.48000000000000015
40
0.50000000000000011
40
0.52000000000000013
40
0.54000000000000015
40
0.56000000000000016
40
0.58000000000000018
40
0.6000000000000002
40
0.62000000000000022
40
0.64000000000000024
40
0.66000000000000025
40
0.68000000000000027
40
0.70000000000000029
40
0.72000000000000031
40
0.74000000000000032
40
0.76000000000000034
40
0.78000000000000036
40
0.80000000000000038
40
0.8200000000000004
40
0.84000000000000041
40
0.86000000000000043
40
0.88000000000000045
40
0.90000000000000047
40
0.92000000000000048
40
0.9400000000000005
40
0.96000000000000052
40
0.98000000000000054
40
1
40
1
40
1
40
1
40
1
40
1
41
1
41
1
41
1
41
1
41
1
41
1
41
1
41
1
41
1
41
1
41
1
41
1
41
1
41
1
41
1
41
1
41
1
41
1
41
1
41
1
41
1
41
1
41
1
41
1
41
1
41
1
41
1
41
1
41
1
41
1
41
1
41
1
41
1
41
1
41
1
41
1
41
1
41
1
41
1
41
1
41
1
41
1
41
1
41
1
41
1
41
1
41
1
41
1
41
1
41
1
41
1
41
1
41
1
41
1
41
1
10
0
20
0
30
0
10
0.040358071320541672
20
-0.00059897888686956369
30
0
10
0.12107377300968919
20
-0.0011576013173344637
30
0
10
0.24214600278389864
20
-7.7515554606738605e-05
30
0
10
0.40357299441152616
20
0.0052010214674022915
30
0
10
0.60535139152289008
20
0.018001944160177318
30
0
10
0.80712165927722523
20
0.036394072511132962
30
0
10
1.0088782588233189
20
0.059137938078789185
30
0
10
1.2106118991835464
20
0.084139662277832095
30
0
10
1.412308800743789
20
0.10826087455582842
30
0
10
1.6139559224901823
20
0.12800278756020872
30
0
10
1.8155460666331598
20
0.1401637225502064
30
0
10
2.0170828447989506
20
0.14249299209513505
30
0
10
2.2185861883944553
20
0.13438113427347328
30
0
10
2.4200963674615235
20
0.11744578706062192
30
0
10
2.6216606641956401
20
0.09482868746334619
30
0
10
2.8233209823118246
20
0.070584283609176568
30
0
10
3.0251016584272565
20
0.04903909318073791
30
0
10
3.2269958343644096
20
0.034159047132370307
30
0
10
3.4289561673042264
20
0.028931137779772149
30
0
10
3.6309182675840619
20
0.034969147232301975
30
0
10
3.8328215884169472
20
0.052061544133673157
30
0
10
4.0346299017253342
20
0.077801899649900835
30
0
10
4.2363552422411725
20
0.10702580828270458
30
0
10
4.4380708627076126
20
0.13177392878995697
30
0
10
4.639867936151604
20
0.1438411012008321
30
0
10
4.8418180064571743
20
0.13709621480071685
30
0
10
5.043936219676409
20
0.10968929301006014
30
0
10
5.2461369537767224
20
0.066800817562698456
30
0
10
5.448214254432294
20
0.021700942526780738
30
0
10
5.6499166314723395
20
-0.0095490722132383927
30
0
10
5.8510095935600051
20
-0.01259292093211817
30
0
10
6.0513379952677653
20
0.02079139888492983
30
0
10
6.2509004539751034
20
0.087316349435489632
30
0
10
6.4498819599120019
20
0.17001811446576834
30
0
10
6.6485568253432072
20
0.24598202899758087
30
0
10
6.8472121690431482
20
0.29252704703230092
30
0
10
7.0460683086741565
20
0.2935734098483116
30
0
10
7.2451887696410333
20
0.24693920171116626
30
0
10
7.44443019985777
20
0.16820216349100314
30
0
10
7.6435371966172081
20
0.082163235070532581
30
0
10
7.8422149224953097
20
0.016194528608161805
30
0
10
8.040206874310357
20
-0.0068195661669026297
30
0
10
8.2373785478396542
20
0.023869059819270483
30
0
10
8.4337744075062897
20
0.10174762740540107
30
0
10
8.6295549741020618
20
0.20918103564565585
30
0
10
8.8249514041954811
20
0.32191129563377496
30
0
10
9.0202143260743135
20
0.41409038384294328
30
0
10
9.2155632458125005
20
0.4632753125704101
30
0
10
9.4111414109839924
20
0.45487162590302826
30
0
10
9.6070348157628445
20
0.38017421902524207
30
0
10
9.7640354232251063
20
0.26401103415136434
30
0
10
9.8819528324797705
20
0.14456654064673749
30
0
10
9.9606385860349764
20
0.050581442261221229
30
0
10
10
20
0
30
0
0
SPLINE
5
104
100
AcDbEntity
8
0
100
AcDbSpline
70
4
71
5
72
61
73
55
74
0
42
0.000000001
43
0.0000000001
44
0.0000000001
40
0
40
0
40
0
40
0
40
0
40
0
40
0.02
40
0.040000000000000001
40
0.059999999999999998
40
0.080000000000000002
40
0.10000000000000001
40
0.12000000000000001
40
0.14000000000000001
40
0.16
40
0.17999999999999999
40
0.19999999999999998
40
0.21999999999999997
40
0.23999999999999996
40
0.25999999999999995
40
0.27999999999999997
40
0.29999999999999999
40
0.32000000000000001
40
0.34000000000000002
40
0.36000000000000004
40
0.38000000000000006
40
0.40000000000000008
40
0.4200000000000001
40
0.44000000000000011
40
0.46000000000000013
40
0.48000000000000015
40
0.50000000000000011
40
0.52000000000000013
40
0.54000000000000015
40
0.56000000000000016
40
0.58000000000000018
40
0.6000000000000002
40
0.62000000000000022
40
0.64000000000000024
40
0.66000000000000025
40
0.68000000000000027
40
0.70000000000000029
40
0.72000000000000031
40
0.74000000000000032
40
0.76000000000000034
40
0.78000000000000036
40
0.80000000000000038
40
0.8200000000000004
40
0.84000000000000041
40
0.86000000000000043
40
0.88000000000000045
40
0.90000000000000047
40
0.92000000000000048
40
0.9400000000000005
40
0.96000000000000052
40
0.98000000000000054
40
1
40
1
40
1
40
1
40
1
40
1
41
1
41
1
41
1
41
1
41
1
41
1
41
1
41
1
41
1
41
1
41
1
41
1
41
1
41
1
41
1
41
1
41
1
41
1
41
1
41
1
41
1
41
1
41
1
41
1
41
1
41
1
41
1
41
1
41
1
41
1
41
1
41
1
41
1
41
1
41
1
41
1
41
1
41
1
41
1
41
1
41
1
41
1
41
1
41
1
41
1
41
1
41
1
41
1
41
1
41
1
41
1
41
1
41
1
41
1
41
1
10
0
20
3
30
0
10
0.040861411131918636
20
3.0185181779755665
30
0
10
0.12245658885743048
20
3.0514262741174534
30
0
10
0.24446642147590431
20
3.0884035958695879
30
0
10
0.4063798345182853
20
3.1129212796399157
30
0
10
0.60750520459942325
20
3.1032498513161988
30
0
10
0.8074019077158836
20
3.0564026037791949
30
0
10
1.0061491656018413
20
2.9787814576629055
30
0
10
1.2038828301984059
20
2.8812074931196481
30
0
10
1.4008095938542748
20
2.7799654222498162
30
0
10
1.5971828265041907
20
2.6931817670976614
30
0
10
1.793279568256045
20
2.6373543636685151
30
0
10
1.9893770846913079
20
2.62377044843358
30
0
10
2.1857298740131395
20
2.6550810715392044
30
0
10
2.382545791094945
20
2.721458147821973
30
0
10
2.5799799151452896
20
2.8051412890557348
30
0
10
2.7781294556235099
20
2.8853471208684418
30
0
10
2.9770276535638827
20
2.9431410883206777
30
0
10
3.1766389705524096
20
2.9660826521399781
30
0
10
3.3768507139202573
20
2.9536300537400999
30
0
10
3.5775012042922159
20
2.9140409325938705
30
0
10
3.7784118642974223
20
2.8603025257298063
30
0
10
3.9794184593033464
20
2.8063572363825671
30
0
10
4.1804012743903121
20
2.7633610211902635
30
0
10
4.3813196472187173
20
2.7355201525058965
30
0
10
4.5821914962464945
20
2.7217475378941147
30
0
10
4.7830672884718641
20
2.717920122606472
30
0
10
4.9840057559613289
20
2.7189415913590893
30
0
10
5.1850497121929404
20
2.7208117203997535
30
0
10
5.3861996662092864
20
2.7228841564437136
30
0
10
5.5874261136061323
20
2.7266838600318861
30
0
10
5.7886848267569393
20
2.7344569510242307
30
0
10
5.9899311738944236
20
2.747802133919071
30
0
10
6.1911344510005062
20
2.7663088791798627
30
0
10
6.3922932741660663
20
2.7860742413156947
30
0
10
6.593422149900011
20
2.8013794255744386
30
0
10
6.7945366993823164
20
2.8065132242079338
30
0
10
6.9956392930339746
20
2.7975507623389761
30
0
10
7.1967047103997697
20
2.7741313065612827
30
0
10
7.397665112845365
20
2.7413098888392282
30
0
10
7.5984329213789863
20
2.7074054094306179
30
0
10
7.7989244241567546
20
2.6817738914018441
30
0
10
7.9990831415489794
20
2.6726115178927872
30
0
10
8.1989032900710086
20
2.6847488859848219
30
0
10
8.3984535192027998
20
2.717426285343544
30
0
10
8.5978532906104093
20
2.7658887872493847
30
0
10
8.7972491689672214
20
2.8229894594257159
30
0
10
8.9967911798762206
20
2.8807853663178733
30
0
10
9.1966093096547823
20
2.9321238822039359
30
0
10
9.3967895207629191
20
2.9722584473320506
30
0
10
9.5973825484431607
20
2.9983741769475931
30
0
10
9.7582069887694534
20
3.0069444201343987
30
0
10
9.8790256415149393
20
3.0062428986502838
30
0
10
9.9596603847357983
20
3.0026087154133974
30
0
10
10
20
3
30
0
0
ENDSEC
0
SECTION
2
OBJECTS
0
DICTIONARY
5
C
100
AcDbDictionary
3
ACAD_GROUP
350
D
3
ACAD_MLINESTYLE
350
17
0
DICTIONARY
5
D
100
AcDbDictionary
0
DICTIONARY
5
1A
330
C
100
AcDbDictionary
0
DICTIONARY
5
17
100
AcDbDictionary
0
ENDSEC
0
EOF
