0
SECTION
2
HEADER
9
$INSUNITS
70
4
9
$ACADVER
1
AC1014
9
$HANDSEED
5
FFFF
0
ENDSEC
0
SECTION
2
TABLES
0
TABLE
2
VPORT
5
8
100
AcDbSymbolTable
0
ENDTAB
0
TABLE
2
LTYPE
5
5
100
AcDbSymbolTable
0
LTYPE
5
14
100
AcDbSymbolTableRecord
100
AcDbLinetypeTableRecord
2
BYBLOCK
70
0
0
LTYPE
5
15
100
AcDbSymbolTableRecord
100
AcDbLinetypeTableRecord
2
BYLAYER
70
0
0
ENDTAB
0
TABLE
2
LAYER
5
2
100
AcDbSymbolTable
70
2
0
LAYER
5
50
100
AcDbSymbolTableRecord
100
AcDbLayerTableRecord
2
0
70
0
6
CONTINUOUS
0
ENDTAB
0
TABLE
2
STYLE
5
3
100
AcDbSymbolTable
70
1
0
STYLE
5
11
100
AcDbSymbolTableRecord
100
AcDbTextStyleTableRecord
2
STANDARD
70
0
0
ENDTAB
0
TABLE
2
VIEW
5
6
100
AcDbSymbolTable
70
0
0
ENDTAB
0
TABLE
2
UCS
5
7
100
AcDbSymbolTable
70
0
0
ENDTAB
0
TABLE
2
APPID
5
9
100
AcDbSymbolTable
70
2
0
APPID
5
12
100
AcDbSymbolTableRecord
100
AcDbRegAppTableRecord
2
ACAD
70
0
0
ENDTAB
0
TABLE
2
DIMSTYLE
5
A
100
AcDbSymbolTable
70
1
0
ENDTAB
0
TABLE
2
BLOCK_RECORD
5
1
100
AcDbSymbolTable
70
1
0
BLOCK_RECORD
5
1F
100
AcDbSymbolTableRecord
100
AcDbBlockTableRecord
2
*MODEL_SPACE
0
BLOCK_RECORD
5
1B
100
AcDbSymbolTableRecord
100
AcDbBlockTableRecord
2
*PAPER_SPACE
0
ENDTAB
0
ENDSEC
0
SECTION
2
BLOCKS
0
BLOCK
5
20
100
AcDbEntity
100
AcDbBlockBegin
2
*MODEL_SPACE
0
ENDBLK
5
21
100
AcDbEntity
100
AcDbBlockEnd
0
BLOCK
5
1C
100
AcDbEntity
100
AcDbBlockBegin
2
*PAPER_SPACE
0
ENDBLK
5
1D
100
AcDbEntity
100
AcDbBlockEnd
0
ENDSEC
0
SECTION
2
ENTITIES
0
SPLINE
5
100
100
AcDbEntity
8
0
100
AcDbSpline
70
4
71
5
72
16
73
10
74
0
42
0.000000001
43
0.0000000001
44
0.0000000001
40
0
40
0
40
0
40
0
40
0
40
0
40
0.20000000000000001
40
0.40000000000000002
40
0.60000000000000009
40
0.80000000000000004
40
1
40
1
40
1
40
1
40
1
40
1
41
1
41
1
41
1
41
1
41
1
41
1
41
1
41
1
41
1
41
1
10
0
20
0
30
0
10
0
20
0.12000000000003158
30
0
10
0
20
0.36000000000007704
30
0
10
0
20
0.72000000000009301
30
0
10
0
20
1.2000000000000313
30
0
10
0
20
1.7999999999999146
30
0
10
0
20
2.2799999999998684
30
0
10
0
20
2.6399999999999042
30
0
10
0
20
2.8799999999999617
30
0
10
0
20
3
30
0
0
SPLINE
5
101
100
AcDbEntity
8
0
100
AcDbSpline
70
4
71
5
72
16
73
10
74
0
42
0.000000001
43
0.0000000001
44
0.0000000001
40
0
40
0
40
0
40
0
40
0
40
0
40
0.20000000000000001
40
0.40000000000000002
40
0.60000000000000009
40
0.80000000000000004
40
1
40
1
40
1
40
1
40
1
40
1
41
1
41
1
41
1
41
1
41
1
41
1
41
1
41
1
41
1
41
1
10
10
20
0
30
0
10
9.9999999999997495
20
0.12000000000003158
30
0
10
9.9999999999993197
20
0.36000000000007704
30
0
10
9.9999999999989129
20
0.72000000000009301
30
0
10
9.9999999999987672
20
1.2000000000000313
30
0
10
9.9999999999990248
20
1.7999999999999146
30
0
10
9.9999999999993889
20
2.2799999999998684
30
0
10
9.9999999999996998
20
2.6399999999999042
30
0
10
9.9999999999999005
20
2.8799999999999617
30
0
10
10
20
3
30
0
0
SPLINE
5
102
100
AcDbEntity
8
0
100
AcDbSpline
70
4
71
5
72
16
73
10
74
0
42
0.000000001
43
0.0000000001
44
0.0000000001
40
0
40
0
40
0
40
0
40
0
40
0
40
0.20000000000000001
40
0.40000000000000002
40
0.60000000000000009
40
0.80000000000000004
40
1
40
1
40
1
40
1
40
1
40
1
41
1
41
1
41
1
41
1
41
1
41
1
41
1
41
1
41
1
41
1
10
0
20
1.5
30
0
10
0.40000000000047375
20
1.499999999999694
30
0
10
1.2000000000012774
20
1.4999999999991638
30
0
10
2.4000000000020547
20
1.4999999999986278
30
0
10
4.0000000000023546
20
1.4999999999983737
30
0
10
6.0000000000019584
20
1.4999999999985913
30
0
10
7.6000000000012928
20
1.4999999999990359
30
0
10
8.800000000000697
20
1.4999999999994786
30
0
10
9.6000000000002395
20
1.4999999999998188
30
0
10
10
20
1.5
30
0
0
SPLINE
5
103
100
AcDbEntity
8
0
100
AcDbSpline
70
4
71
5
72
61
73
55
74
0
42
0.000000001
43
0.0000000001
44
0.0000000001
40
0
40
0
40
0
40
0
40
0
40
0
40
0.02
40
0.040000000000000001
40
0.059999999999999998
40
0.080000000000000002
40
0.10000000000000001
40
0.12000000000000001
40
0.14000000000000001
40
0.16
40
0.17999999999999999
40
0.19999999999999998
40
0.21999999999999997
40
0.23999999999999996
40
0.25999999999999995
40
0.27999999999999997
40
0.29999999999999999
40
0.32000000000000001
40
0.34000000000000002
40
0.36000000000000004
40
0.38000000000000006
40
0.40000000000000008
40
0.4200000000000001
40
0.44000000000000011
40
0.46000000000000013
40
0.48000000000000015
40
0.50000000000000011
40
0.52000000000000013
40
0.54000000000000015
40
0.56000000000000016
40
0.58000000000000018
40
0.6000000000000002
40
0.62000000000000022
40
0.64000000000000024
40
0.66000000000000025
40
0.68000000000000027
40
0.70000000000000029
40
0.72000000000000031
40
0.74000000000000032
40
0.76000000000000034
40
0.78000000000000036
40
0.80000000000000038
40
0.8200000000000004
40
0.84000000000000041
40
0.86000000000000043
40
0.88000000000000045
40
0.90000000000000047
40
0.92000000000000048
40
0.9400000000000005
40
0.96000000000000052
40
0.98000000000000054
40
1
40
1
40
1
40
1
40
1
40
1
41
1
41
1
41
1
41
1
41
1
41
1
41
1
41
1
41
1
41
1
41
1
41
1
41
1
41
1
41
1
41
1
41
1
41
1
41
1
41
1
41
1
41
1
41
1
41
1
41
1
41
1
41
1
41
1
41
1
41
1
41
1
41
1
41
1
41
1
41
1
41
1
41
1
41
1
41
1
41
1
41
1
41
1
41
1
41
1
41
1
41
1
41
1
41
1
41
1
41
1
41
1
41
1
41
1
41
1
41
1
10
0
20
0
30
0
10
0.040513342515282456
20
-0.0091567292933064717
30
0
10
0.12149827338933328
20
-0.025419863073306521
30
0
10
0.24285040714074768
20
-0.043663563497024202
30
0
10
0.40440256460474971
20
-0.055678704998649423
30
0
10
0.60592805674793115
20
-0.050635270312243019
30
0
10
0.80704983071756509
20
-0.026977050959830547
30
0
10
1.0077910952623221
20
0.012344428492894579
30
0
10
1.2081917580133912
20
0.062332611710375338
30
0
10
1.4083126669668158
20
0.11547461213573933
30
0
10
1.60823208260258
20
0.16326476595988931
30
0
10
1.8080424899311744
20
0.1976671362083933
30
0
10
2.0078472465769153
20
0.21258720960369354
30
0
10
2.2077575291534757
20
0.20537648976680278
30
0
10
2.407888645445766
20
0.17824122879876053
30
0
10
2.608340599188097
20
0.13678999173942546
30
0
10
2.8091789300577967
20
0.088682900460653455
30
0
10
3.0104158017865021
20
0.042256266039967419
30
0
10
3.2119898299439749
20
0.0051455261639729707
30
0
10
3.4137490880475401
20
-0.017047907162696434
30
0
10
3.6154987483541672
20
-0.020991353923892928
30
0
10
3.8170463413500277
20
-0.0059245157565600073
30
0
10
4.0182467439552862
20
0.026084430454643516
30
0
10
4.2190500255415202
20
0.069787844587131831
30
0
10
4.4195407387762824
20
0.11662887934753784
30
0
10
4.6198809217100321
20
0.15697547938885656
30
0
10
4.8202596901744617
20
0.18221471230899536
30
0
10
5.0208417632347331
20
0.18683046275582069
30
0
10
5.2217133347037601
20
0.1706605659127558
30
0
10
5.4228377796678471
20
0.1406156799390188
30
0
10
5.6241074880109521
20
0.10729265741323922
30
0
10
5.8253882393260694
20
0.081967572697072749
30
0
10
6.0265647731767755
20
0.073558972241002066
30
0
10
6.2275894686024635
20
0.085340935682344243
30
0
10
6.4285193204311097
20
0.11250452800069118
30
0
10
6.6294661901410397
20
0.14590810549259736
30
0
10
6.8305553506253389
20
0.17525054714189714
30
0
10
7.0318824555900505
20
0.19232086513303998
30
0
10
7.2334675089359042
20
0.19454537943788786
30
0
10
7.4352206702367587
20
0.18745316877324297
30
0
10
7.6369792398132468
20
0.18077831776583686
30
0
10
7.8385363592617852
20
0.18526158943203905
30
0
10
8.0396718548681836
20
0.20933984864968933
30
0
10
8.2401842755556292
20
0.25551959162484872
30
0
10
8.4399158882632186
20
0.31796129448896399
30
0
10
8.6387440728345339
20
0.38557328702535743
30
0
10
8.8365776495878663
20
0.44433983622021195
30
0
10
9.0333514108657038
20
0.47986438676708798
30
0
10
9.2290214777318234
20
0.47999123503901553
30
0
10
9.4235605282531516
20
0.43688126207274974
30
0
10
9.6169540588105171
20
0.3458615724433266
30
0
10
9.770748031337833
20
0.23292867852900637
30
0
10
9.8855753799386097
20
0.12535400207590544
30
0
10
9.9618968150738496
20
0.043477951312862265
30
0
10
10
20
0
30
0
0
SPLINE
5
104
100
AcDbEntity
8
0
100
AcDbSpline
70
4
71
5
72
61
73
55
74
0
42
0.000000001
43
0.0000000001
44
0.0000000001
40
0
40
0
40
0
40
0
40
0
40
0
40
0.02
40
0.040000000000000001
40
0.059999999999999998
40
0.080000000000000002
40
0.10000000000000001
40
0.12000000000000001
40
0.14000000000000001
40
0.16
40
0.17999999999999999
40
0.19999999999999998
40
0.21999999999999997
40
0.23999999999999996
40
0.25999999999999995
40
0.27999999999999997
40
0.29999999999999999
40
0.32000000000000001
40
0.34000000000000002
40
0.36000000000000004
40
0.38000000000000006
40
0.40000000000000008
40
0.4200000000000001
40
0.44000000000000011
40
0.46000000000000013
40
0.48000000000000015
40
0.50000000000000011
40
0.52000000000000013
40
0.54000000000000015
40
0.56000000000000016
40
0.58000000000000018
40
0.6000000000000002
40
0.62000000000000022
40
0.64000000000000024
40
0.66000000000000025
40
0.68000000000000027
40
0.70000000000000029
40
0.72000000000000031
40
0.74000000000000032
40
0.76000000000000034
40
0.78000000000000036
40
0.80000000000000038
40
0.8200000000000004
40
0.84000000000000041
40
0.86000000000000043
40
0.88000000000000045
40
0.90000000000000047
40
0.92000000000000048
40
0.9400000000000005
40
0.96000000000000052
40
0.98000000000000054
40
1
40
1
40
1
40
1
40
1
40
1
41
1
41
1
41
1
41
1
41
1
41
1
41
1
41
1
41
1
41
1
41
1
41
1
41
1
41
1
41
1
41
1
41
1
41
1
41
1
41
1
41
1
41
1
41
1
41
1
41
1
41
1
41
1
41
1
41
1
41
1
41
1
41
1
41
1
41
1
41
1
41
1
41
1
41
1
41
1
41
1
41
1
41
1
41
1
41
1
41
1
41
1
41
1
41
1
41
1
41
1
41
1
41
1
41
1
41
1
41
1
10
0
20
3
30
0
10
0.04043292640201069
20
3.0020802877480768
30
0
10
0.12128183337736508
20
3.0055907554015371
30
0
10
0.24250435582200439
20
3.008906116890552
30
0
10
0.40403264806375339
20
3.0094235196610377
30
0
10
0.60577920873833091
20
3.0037628249159236
30
0
10
0.80738000306123714
20
2.9924163480336268
30
0
10
1.0088714947187147
20
2.9766432613622902
30
0
10
1.2103153187502929
20
2.9585725176732911
30
0
10
1.4118035707481416
20
2.9413901537881926
30
0
10
1.6134304738585168
20
2.9284747137775553
30
0
10
1.8152648436914056
20
2.9225599873301484
30
0
10
2.017323137110441
20
2.9249113800750659
30
0
10
2.2195399589543769
20
2.9344347543720906
30
0
10
2.4217456162536135
20
2.9469740326338223
30
0
10
2.6237255720287638
20
2.9568266909345038
30
0
10
2.8252750300422287
20
2.9581203491771006
30
0
10
3.0262534050873984
20
2.9462002856989615
30
0
10
3.2266435400419944
20
2.9191089063912234
30
0
10
3.4265958975307038
20
2.8787570368112898
30
0
10
3.6263606593588174
20
2.8297575429784398
30
0
10
3.8262309078913375
20
2.77850106862553
30
0
10
4.0264827466007667
20
2.7321471652839135
30
0
10
4.2273143096085146
20
2.6976481097857192
30
0
10
4.4287922071951709
20
2.6807791775346694
30
0
10
4.6308598640110272
20
2.6854107057462628
30
0
10
4.833337656333172
20
2.7127100438634728
30
0
10
5.0359288238928199
20
2.760441862578948
30
0
10
5.2382156476023303
20
2.8220333125307429
30
0
10
5.4396800442499593
20
2.8862767643172127
30
0
10
5.6398374824621111
20
2.940146185752937
30
0
10
5.8383607400546076
20
2.9712563155351015
30
0
10
6.0351987059155352
20
2.970350657450751
30
0
10
6.2307197194391639
20
2.9340421068522211
30
0
10
6.4257805063012698
20
2.8666874542089205
30
0
10
6.6214232650862739
20
2.7777926369419905
30
0
10
6.818618363811102
20
2.6800073576938663
30
0
10
7.0179967835761881
20
2.5869247184676052
30
0
10
7.2195687534654311
20
2.5109142445922816
30
0
10
7.4224966307904072
20
2.461095930066763
30
0
10
7.625484564173127
20
2.4433374226609392
30
0
10
7.827125558416328
20
2.4600736398963678
30
0
10
8.026253955162332
20
2.5102095398735731
30
0
10
8.2223199214287526
20
2.5889182555629517
30
0
10
8.4156860506736173
20
2.6876444386519238
30
0
10
8.6073215413032713
20
2.7955789339808783
30
0
10
8.7985593765860006
20
2.9009772317869995
30
0
10
8.9908287451326991
20
2.9925442454808504
30
0
10
9.1854025776487642
20
3.0607671568036441
30
0
10
9.3831272522570437
20
3.0993395681263722
30
0
10
9.5845017844387588
20
3.1045506590054535
30
0
10
9.7487165428257718
20
3.0805866698820927
30
0
10
9.8736640039526549
20
3.0465401515695509
30
0
10
9.9577557603515423
20
3.0167032509377645
30
0
10
10
20
3
30
0
0
ENDSEC
0
SECTION
2
OBJECTS
0
DICTIONARY
5
C
100
AcDbDictionary
3
ACAD_GROUP
350
D
3
ACAD_MLINESTYLE
350
17
0
DICTIONARY
5
D
100
AcDbDictionary
0
DICTIONARY
5
1A
330
C
100
AcDbDictionary
0
DICTIONARY
5
17
100
AcDbDictionary
0
ENDSEC
0
EOF
