0
SECTION
2
HEADER
9
$INSUNITS
70
4
9
$ACADVER
1
AC1014
9
$HANDSEED
5
FFFF
0
ENDSEC
0
SECTION
2
TABLES
0
TABLE
2
VPORT
5
8
100
AcDbSymbolTable
0
ENDTAB
0
TABLE
2
LTYPE
5
5
100
AcDbSymbolTable
0
LTYPE
5
14
100
AcDbSymbolTableRecord
100
AcDbLinetypeTableRecord
2
BYBLOCK
70
0
0
LTYPE
5
15
100
AcDbSymbolTableRecord
100
AcDbLinetypeTableRecord
2
BYLAYER
70
0
0
ENDTAB
0
TABLE
2
LAYER
5
2
100
AcDbSymbolTable
70
2
0
LAYER
5
50
100
AcDbSymbolTableRecord
100
AcDbLayerTableRecord
2
0
70
0
6
CONTINUOUS
0
ENDTAB
0
TABLE
2
STYLE
5
3
100
AcDbSymbolTable
70
1
0
STYLE
5
11
100
AcDbSymbolTableRecord
100
AcDbTextStyleTableRecord
2
STANDARD
70
0
0
ENDTAB
0
TABLE
2
VIEW
5
6
100
AcDbSymbolTable
70
0
0
ENDTAB
0
TABLE
2
UCS
5
7
100
AcDbSymbolTable
70
0
0
ENDTAB
0
TABLE
2
APPID
5
9
100
AcDbSymbolTable
70
2
0
APPID
5
12
100
AcDbSymbolTableRecord
100
AcDbRegAppTableRecord
2
ACAD
70
0
0
ENDTAB
0
TABLE
2
DIMSTYLE
5
A
100
AcDbSymbolTable
70
1
0
ENDTAB
0
TABLE
2
BLOCK_RECORD
5
1
100
AcDbSymbolTable
70
1
0
BLOCK_RECORD
5
1F
100
AcDbSymbolTableRecord
100
AcDbBlockTableRecord
2
*MODEL_SPACE
0
BLOCK_RECORD
5
1B
100
AcDbSymbolTableRecord
100
AcDbBlockTableRecord
2
*PAPER_SPACE
0
ENDTAB
0
ENDSEC
0
SECTION
2
BLOCKS
0
BLOCK
5
20
100
AcDbEntity
100
AcDbBlockBegin
2
*MODEL_SPACE
0
ENDBLK
5
21
100
AcDbEntity
100
AcDbBlockEnd
0
BLOCK
5
1C
100
AcDbEntity
100
AcDbBlockBegin
2
*PAPER_SPACE
0
ENDBLK
5
1D
100
AcDbEntity
100
AcDbBlockEnd
0
ENDSEC
0
SECTION
2
ENTITIES
0
SPLINE
5
100
100
AcDbEntity
8
0
100
AcDbSpline
70
4
71
5
72
16
73
10
74
0
42
0.000000001
43
0.0000000001
44
0.0000000001
40
0
40
0
40
0
40
0
40
0
40
0
40
0.20000000000000001
40
0.40000000000000002
40
0.60000000000000009
40
0.80000000000000004
40
1
40
1
40
1
40
1
40
1
40
1
41
1
41
1
41
1
41
1
41
1
41
1
41
1
41
1
41
1
41
1
10
0
20
0
30
0
10
0
20
0.12000000000003158
30
0
10
0
20
0.36000000000007704
30
0
10
0
20
0.72000000000009301
30
0
10
0
20
1.2000000000000313
30
0
10
0
20
1.7999999999999146
30
0
10
0
20
2.2799999999998684
30
0
10
0
20
2.6399999999999042
30
0
10
0
20
2.8799999999999617
30
0
10
0
20
3
30
0
0
SPLINE
5
101
100
AcDbEntity
8
0
100
AcDbSpline
70
4
71
5
72
16
73
10
74
0
42
0.000000001
43
0.0000000001
44
0.0000000001
40
0
40
0
40
0
40
0
40
0
40
0
40
0.20000000000000001
40
0.40000000000000002
40
0.60000000000000009
40
0.80000000000000004
40
1
40
1
40
1
40
1
40
1
40
1
41
1
41
1
41
1
41
1
41
1
41
1
41
1
41
1
41
1
41
1
10
10
20
0
30
0
10
9.9999999999997495
20
0.12000000000003158
30
0
10
9.9999999999993197
20
0.36000000000007704
30
0
10
9.9999999999989129
20
0.72000000000009301
30
0
10
9.9999999999987672
20
1.2000000000000313
30
0
10
9.9999999999990248
20
1.7999999999999146
30
0
10
9.9999999999993889
20
2.2799999999998684
30
0
10
9.9999999999996998
20
2.6399999999999042
30
0
10
9.9999999999999005
20
2.8799999999999617
30
0
10
10
20
3
30
0
0
SPLINE
5
102
100
AcDbEntity
8
0
100
AcDbSpline
70
4
71
5
72
16
73
10
74
0
42
0.000000001
43
0.0000000001
44
0.0000000001
40
0
40
0
40
0
40
0
40
0
40
0
40
0.20000000000000001
40
0.40000000000000002
40
0.60000000000000009
40
0.80000000000000004
40
1
40
1
40
1
40
1
40
1
40
1
41
1
41
1
41
1
41
1
41
1
41
1
41
1
41
1
41
1
41
1
10
0
20
1.5
30
0
10
0.40000000000047375
20
1.499999999999694
30
0
10
1.2000000000012774
20
1.4999999999991638
30
0
10
2.4000000000020547
20
1.4999999999986278
30
0
10
4.0000000000023546
20
1.4999999999983737
30
0
10
6.0000000000019584
20
1.4999999999985913
30
0
10
7.6000000000012928
20
1.4999999999990359
30
0
10
8.800000000000697
20
1.4999999999994786
30
0
10
9.6000000000002395
20
1.4999999999998188
30
0
10
10
20
1.5
30
0
0
SPLINE
5
103
100
AcDbEntity
8
0
100
AcDbSpline
70
4
71
5
72
111
73
105
74
0
42
0.000000001
43
0.0000000001
44
0.0000000001
40
0
40
0
40
0
40
0
40
0
40
0
40
0.01
40
0.02
40
0.029999999999999999
40
0.040000000000000001
40
0.050000000000000003
40
0.060000000000000005
40
0.070000000000000007
40
0.080000000000000002
40
0.089999999999999997
40
0.099999999999999992
40
0.10999999999999999
40
0.11999999999999998
40
0.12999999999999998
40
0.13999999999999999
40
0.14999999999999999
40
0.16
40
0.17000000000000001
40
0.18000000000000002
40
0.19000000000000003
40
0.20000000000000004
40
0.21000000000000005
40
0.22000000000000006
40
0.23000000000000007
40
0.24000000000000007
40
0.25000000000000006
40
0.26000000000000006
40
0.27000000000000007
40
0.28000000000000008
40
0.29000000000000009
40
0.3000000000000001
40
0.31000000000000011
40
0.32000000000000012
40
0.33000000000000013
40
0.34000000000000014
40
0.35000000000000014
40
0.36000000000000015
40
0.37000000000000016
40
0.38000000000000017
40
0.39000000000000018
40
0.40000000000000019
40
0.4100000000000002
40
0.42000000000000021
40
0.43000000000000022
40
0.44000000000000022
40
0.45000000000000023
40
0.46000000000000024
40
0.47000000000000025
40
0.48000000000000026
40
0.49000000000000027
40
0.50000000000000022
40
0.51000000000000023
40
0.52000000000000024
40
0.53000000000000025
40
0.54000000000000026
40
0.55000000000000027
40
0.56000000000000028
40
0.57000000000000028
40
0.58000000000000029
40
0.5900000000000003
40
0.60000000000000031
40
0.61000000000000032
40
0.62000000000000033
40
0.63000000000000034
40
0.64000000000000035
40
0.65000000000000036
40
0.66000000000000036
40
0.67000000000000037
40
0.68000000000000038
40
0.69000000000000039
40
0.7000000000000004
40
0.71000000000000041
40
0.72000000000000042
40
0.73000000000000043
40
0.74000000000000044
40
0.75000000000000044
40
0.76000000000000045
40
0.77000000000000046
40
0.78000000000000047
40
0.79000000000000048
40
0.80000000000000049
40
0.8100000000000005
40
0.82000000000000051
40
0.83000000000000052
40
0.84000000000000052
40
0.85000000000000053
40
0.86000000000000054
40
0.87000000000000055
40
0.88000000000000056
40
0.89000000000000057
40
0.90000000000000058
40
0.91000000000000059
40
0.9200000000000006
40
0.9300000000000006
40
0.94000000000000061
40
0.95000000000000062
40
0.96000000000000063
40
0.97000000000000064
40
0.98000000000000065
40
0.99000000000000066
40
1
40
1
40
1
40
1
40
1
40
1
41
1
41
1
41
1
41
1
41
1
41
1
41
1
41
1
41
1
41
1
41
1
41
1
41
1
41
1
41
1
41
1
41
1
41
1
41
1
41
1
41
1
41
1
41
1
41
1
41
1
41
1
41
1
41
1
41
1
41
1
41
1
41
1
41
1
41
1
41
1
41
1
41
1
41
1
41
1
41
1
41
1
41
1
41
1
41
1
41
1
41
1
41
1
41
1
41
1
41
1
41
1
41
1
41
1
41
1
41
1
41
1
41
1
41
1
41
1
41
1
41
1
41
1
41
1
41
1
41
1
41
1
41
1
41
1
41
1
41
1
41
1
41
1
41
1
41
1
41
1
41
1
41
1
41
1
41
1
41
1
41
1
41
1
41
1
41
1
41
1
41
1
41
1
41
1
41
1
41
1
41
1
41
1
41
1
41
1
41
1
41
1
41
1
41
1
41
1
41
1
41
1
41
1
41
1
41
1
41
1
10
0
20
0
30
0
10
0.018932718048940162
20
0.020889247758923039
30
0
10
0.056900238444484857
20
0.060261438005271548
30
0
10
0.11415777139557345
20
0.11210089488200373
30
0
10
0.19111375773596778
20
0.16677940568370547
30
0
10
0.28832206494358426
20
0.21152568596181109
30
0
10
0.3865197079783867
20
0.23407802166885133
30
0
10
0.4856577959933403
20
0.23729540349412792
30
0
10
0.58565447638021906
20
0.22590664641333769
30
0
10
0.68638541623014016
20
0.2071643596333852
30
0
10
0.78768777725007988
20
0.18937058184705616
30
0
10
0.88936644798201869
20
0.18009852604547605
30
0
10
0.99119908341953589
20
0.18447950140768526
30
0
10
1.0929424812455975
20
0.20355542362895188
30
0
10
1.1943360853252181
20
0.23234792656879319
30
0
10
1.2951431927347823
20
0.26216285995670724
30
0
10
1.3951949282105525
20
0.28324942334490794
30
0
10
1.4944342131552102
20
0.28736342200538756
30
0
10
1.5929576355506483
20
0.2702958636287261
30
0
10
1.6910641652990606
20
0.23462296422918413
30
0
10
1.7891655975591514
20
0.18756256303435748
30
0
10
1.8876906041826054
20
0.1385788882526445
30
0
10
1.9869884981631576
20
0.097030108142237947
30
0
10
2.0872391200853215
20
0.069914600048094133
30
0
10
2.1883439978812063
20
0.059265095900057012
30
0
10
2.2900090341349939
20
0.063240208949670085
30
0
10
2.3918525836025823
20
0.077713221464868878
30
0
10
2.4935057476465592
20
0.097698191347871777
30
0
10
2.5947130160325225
20
0.11880895895954219
30
0
10
2.6954406940962445
20
0.1387978523557363
30
0
10
2.7958136267852036
20
0.15705271920094496
30
0
10
2.89604094957431
20
0.17395945595641779
30
0
10
2.9963454533795817
20
0.1903114370131867
30
0
10
3.0968924891882539
20
0.20670650786804606
30
0
10
3.197716198452877
20
0.22293025132804839
30
0
10
3.2987554018705079
20
0.23806827992191773
30
0
10
3.3998933184740396
20
0.25064412035599581
30
0
10
3.5009957674851222
20
0.25874810048205382
30
0
10
3.6019501316978655
20
0.26016770008346335
30
0
10
3.7027036143012682
20
0.2525224392651822
30
0
10
3.8032489986615032
20
0.23399037799199382
30
0
10
3.9036108065410802
20
0.20403669035276517
30
0
10
4.0038313773976348
20
0.16412826609949244
30
0
10
4.1039568988649249
20
0.11848773442942202
30
0
10
4.204023740634323
20
0.074742341966970466
30
0
10
4.304054355332255
20
0.04167227783537969
30
0
10
4.4040527801057827
20
0.027040984387541444
30
0
10
4.5040004251914789
20
0.035421269407290269
30
0
10
4.6038513825927216
20
0.06595932284121192
30
0
10
4.7035288859840989
20
0.11033625916503892
30
0
10
4.8029519343172966
20
0.15620328051354831
30
0
10
4.9020609159411528
20
0.1904294038870793
30
0
10
5.0008435578737416
20
0.20241277433438468
30
0
10
5.0993609033239595
20
0.1873791878763946
30
0
10
5.1977729306411922
20
0.14965272371390412
30
0
10
5.2962906725381647
20
0.09941402920927514
30
0
10
5.3951292171708545
20
0.049525526713730117
30
0
10
5.4944597526629959
20
0.012303044401655373
30
0
10
5.5943634660127231
20
-0.0036183323576330687
30
0
10
5.6947806073611762
20
0.0033460012968268985
30
0
10
5.7955627622064316
20
0.029389049402773003
30
0
10
5.8965302748362642
20
0.067228164459468873
30
0
10
5.9975281275643084
20
0.10792913451013901
30
0
10
6.0984816465903435
20
0.14275757106341586
30
0
10
6.1994546160356432
20
0.16504543173839242
30
0
10
6.3005770574258229
20
0.17062071089086328
30
0
10
6.4019695304706179
20
0.15820957447884859
30
0
10
6.5036696305462485
20
0.12983639398313024
30
0
10
6.6055554257956643
20
0.091259880617930972
30
0
10
6.7072759295047248
20
0.052304690043419137
30
0
10
6.8083759897344622
20
0.024187248940960842
30
0
10
6.9084161160590885
20
0.016910426787139183
30
0
10
7.0070920677667292
20
0.036685243759888353
30
0
10
7.1043595338185259
20
0.083215654245058376
30
0
10
7.2005427617755116
20
0.14739026522417817
30
0
10
7.2961935798941742
20
0.21529871706520806
30
0
10
7.3919660442166526
20
0.27183534660679454
30
0
10
7.4884829029332849
20
0.30455321353386378
30
0
10
7.5862109800729254
20
0.30719264006859892
30
0
10
7.6853181548325358
20
0.28393902377588282
30
0
10
7.7857212896699881
20
0.24602666721741998
30
0
10
7.8871566884670461
20
0.20747592220744726
30
0
10
7.9892426716643294
20
0.18105347653741888
30
0
10
8.0915448149835019
20
0.17433737123100529
30
0
10
8.193641499278101
20
0.18520419287416473
30
0
10
8.2951678253403518
20
0.20485117368757799
30
0
10
8.3958564805123963
20
0.22162304215206816
30
0
10
8.4955805307991579
20
0.22458314803048304
30
0
10
8.5943937562603683
20
0.20711231849040507
30
0
10
8.6925768432177968
20
0.1707144597874842
30
0
10
8.7905479149745585
20
0.12248934689977045
30
0
10
8.8887681995817776
20
0.072342877217119544
30
0
10
8.9876474057293585
20
0.030240944010242563
30
0
10
9.0874540332680311
20
0.0035717872237384964
30
0
10
9.1882106633465828
20
-0.0058750301548076336
30
0
10
9.289749513895643
20
-0.00073667970421702851
30
0
10
9.3917882727062114
20
0.013629248496652667
30
0
10
9.4939992567756661
20
0.030672547830049159
30
0
10
9.5960799433650816
20
0.044221862692449758
30
0
10
9.6978266853864348
20
0.050119590695028506
30
0
10
9.7991182571233288
20
0.045892311391995635
30
0
10
9.8797388394216199
20
0.033420008950214464
30
0
10
9.9399631718941404
20
0.018769455175441672
30
0
10
9.9800055813408264
20
0.0066487573546116559
30
0
10
10
20
0
30
0
0
SPLINE
5
104
100
AcDbEntity
8
0
100
AcDbSpline
70
4
71
5
72
111
73
105
74
0
42
0.000000001
43
0.0000000001
44
0.0000000001
40
0
40
0
40
0
40
0
40
0
40
0
40
0.01
40
0.02
40
0.029999999999999999
40
0.040000000000000001
40
0.050000000000000003
40
0.060000000000000005
40
0.070000000000000007
40
0.080000000000000002
40
0.089999999999999997
40
0.099999999999999992
40
0.10999999999999999
40
0.11999999999999998
40
0.12999999999999998
40
0.13999999999999999
40
0.14999999999999999
40
0.16
40
0.17000000000000001
40
0.18000000000000002
40
0.19000000000000003
40
0.20000000000000004
40
0.21000000000000005
40
0.22000000000000006
40
0.23000000000000007
40
0.24000000000000007
40
0.25000000000000006
40
0.26000000000000006
40
0.27000000000000007
40
0.28000000000000008
40
0.29000000000000009
40
0.3000000000000001
40
0.31000000000000011
40
0.32000000000000012
40
0.33000000000000013
40
0.34000000000000014
40
0.35000000000000014
40
0.36000000000000015
40
0.37000000000000016
40
0.38000000000000017
40
0.39000000000000018
40
0.40000000000000019
40
0.4100000000000002
40
0.42000000000000021
40
0.43000000000000022
40
0.44000000000000022
40
0.45000000000000023
40
0.46000000000000024
40
0.47000000000000025
40
0.48000000000000026
40
0.49000000000000027
40
0.50000000000000022
40
0.51000000000000023
40
0.52000000000000024
40
0.53000000000000025
40
0.54000000000000026
40
0.55000000000000027
40
0.56000000000000028
40
0.57000000000000028
40
0.58000000000000029
40
0.5900000000000003
40
0.60000000000000031
40
0.61000000000000032
40
0.62000000000000033
40
0.63000000000000034
40
0.64000000000000035
40
0.65000000000000036
40
0.66000000000000036
40
0.67000000000000037
40
0.68000000000000038
40
0.69000000000000039
40
0.7000000000000004
40
0.71000000000000041
40
0.72000000000000042
40
0.73000000000000043
40
0.74000000000000044
40
0.75000000000000044
40
0.76000000000000045
40
0.77000000000000046
40
0.78000000000000047
40
0.79000000000000048
40
0.80000000000000049
40
0.8100000000000005
40
0.82000000000000051
40
0.83000000000000052
40
0.84000000000000052
40
0.85000000000000053
40
0.86000000000000054
40
0.87000000000000055
40
0.88000000000000056
40
0.89000000000000057
40
0.90000000000000058
40
0.91000000000000059
40
0.9200000000000006
40
0.9300000000000006
40
0.94000000000000061
40
0.95000000000000062
40
0.96000000000000063
40
0.97000000000000064
40
0.98000000000000065
40
0.99000000000000066
40
1
40
1
40
1
40
1
40
1
40
1
41
1
41
1
41
1
41
1
41
1
41
1
41
1
41
1
41
1
41
1
41
1
41
1
41
1
41
1
41
1
41
1
41
1
41
1
41
1
41
1
41
1
41
1
41
1
41
1
41
1
41
1
41
1
41
1
41
1
41
1
41
1
41
1
41
1
41
1
41
1
41
1
41
1
41
1
41
1
41
1
41
1
41
1
41
1
41
1
41
1
41
1
41
1
41
1
41
1
41
1
41
1
41
1
41
1
41
1
41
1
41
1
41
1
41
1
41
1
41
1
41
1
41
1
41
1
41
1
41
1
41
1
41
1
41
1
41
1
41
1
41
1
41
1
41
1
41
1
41
1
41
1
41
1
41
1
41
1
41
1
41
1
41
1
41
1
41
1
41
1
41
1
41
1
41
1
41
1
41
1
41
1
41
1
41
1
41
1
41
1
41
1
41
1
41
1
41
1
41
1
41
1
41
1
41
1
41
1
41
1
10
0
20
3
30
0
10
0.0189381219465482
20
2.978643991508962
30
0
10
0.056876364450537759
20
2.9380189532026613
30
0
10
0.11396972664232424
20
2.8833423259026949
30
0
10
0.1904662444110562
20
2.8229641058762809
30
0
10
0.28671205092357455
20
2.7682379442658425
30
0
10
0.38359729596709918
20
2.7338589580540544
30
0
10
0.48115082816293131
20
2.7190110722341352
30
0
10
0.57941874687137485
20
2.7223236267101072
30
0
10
0.67847397218773964
20
2.741717394904831
30
0
10
0.77837772286584861
20
2.774371698528828
30
0
10
0.87913223733852408
20
2.8167274529283235
30
0
10
0.98063307823227785
20
2.8644602051442747
30
0
10
1.0826292169187492
20
2.9125040180097561
30
0
10
1.1846597400191148
20
2.9549521634782616
30
0
10
1.2861619589226547
20
2.9858250935320543
30
0
10
1.3866142804819335
20
3.0000111982869542
30
0
10
1.4856723801150542
20
2.9941786791783964
30
0
10
1.5832963778547058
20
2.9676325511801451
30
0
10
1.679913316214152
20
2.9233760369343349
30
0
10
1.7762557934317689
20
2.8672894421562525
30
0
10
1.8731521471189079
20
2.8070041502602239
30
0
10
1.9713245838707458
20
2.7508763238285869
30
0
10
2.0712046576217298
20
2.7069389255883172
30
0
10
2.1726882719540113
20
2.6818126114549852
30
0
10
2.2752268374958806
20
2.6799492791376291
30
0
10
2.378044617030532
20
2.7030476471688192
30
0
10
2.4803196770466469
20
2.7493432251539311
30
0
10
2.5813687990205425
20
2.8130997284090471
30
0
10
2.6808597173467219
20
2.8836196466691169
30
0
10
2.7787820367167275
20
2.9475021808430277
30
0
10
2.8753609006098264
20
2.9915597042807409
30
0
10
2.9709898763735918
20
3.0056646905381008
30
0
10
3.0661574402344765
20
2.9852753710363293
30
0
10
3.1613723699404819
20
2.9349956507488342
30
0
10
3.2571123194373741
20
2.8667471850410831
30
0
10
3.3537852831409505
20
2.7957478896175108
30
0
10
3.4516837663673132
20
2.7370322654261892
30
0
10
3.5509486911349253
20
2.7021185988081706
30
0
10
3.6515123851706339
20
2.6946965791242055
30
0
10
3.7531171658049094
20
2.7104050290988906
30
0
10
3.8554026777078376
20
2.7404502586410544
30
0
10
3.9579769261378495
20
2.7742723159002329
30
0
10
4.0604880423060932
20
2.8023517546977645
30
0
10
4.1627103968935488
20
2.8195706340391116
30
0
10
4.2645584994558714
20
2.825572601583664
30
0
10
4.3660497116914669
20
2.8230013990409759
30
0
10
4.4672827403008437
20
2.8163484952043309
30
0
10
4.5684086992334603
20
2.8106103966945262
30
0
10
4.6696078404094017
20
2.8098772261098985
30
0
10
4.77105159686585
20
2.8167666920848431
30
0
10
4.8728608897387113
20
2.8323144945887035
30
0
10
4.9750621537835107
20
2.8556776039922842
30
0
10
5.0775518174360865
20
2.8840009700724107
30
0
10
5.1800376899554923
20
2.9119903787712973
30
0
10
5.2821181736322265
20
2.9330761369453167
30
0
10
5.3834009447031814
20
2.9410192328212497
30
0
10
5.4836129638482634
20
2.931429531055417
30
0
10
5.5827039612965814
20
2.9031877911214954
30
0
10
5.6809795396231433
20
2.8602610243341813
30
0
10
5.7789819473160478
20
2.8101975610376133
30
0
10
5.8773265366090124
20
2.7620317520728022
30
0
10
5.9765470762335058
20
2.7243238645995134
30
0
10
6.0769523756714348
20
2.7033054181750789
30
0
10
6.1784390938029237
20
2.7005596411393573
30
0
10
6.2805911720146677
20
2.7137918517562887
30
0
10
6.3828593568057199
20
2.7384732951482467
30
0
10
6.4847182155054606
20
2.7692240129469479
30
0
10
6.5858222094655394
20
2.8012248844486889
30
0
10
6.6861894498643331
20
2.8318252141079108
30
0
10
6.7861069389512627
20
2.8600289082158268
30
0
10
6.8859896503861719
20
2.8856276438645052
30
0
10
6.9862528256699994
20
2.9084299911986018
30
0
10
7.0871858094075835
20
2.9275161904118097
30
0
10
7.1888064593739838
20
2.9403075461007311
30
0
10
7.2909290623376544
20
2.9436165833026475
30
0
10
7.3932633907831384
20
2.9349787520930857
30
0
10
7.4955034334171646
20
2.9139046149670556
30
0
10
7.5974186591476753
20
2.8831214418574147
30
0
10
7.6989490872305826
20
2.8499444798596336
30
0
10
7.8001492218645847
20
2.8237902253347018
30
0
10
7.9011250203107561
20
2.8135143467070263
30
0
10
8.0019737726882116
20
2.8248289296839459
30
0
10
8.1027220730477652
20
2.8576500670259501
30
0
10
8.203266471109302
20
2.9035674281549029
30
0
10
8.3034386922562309
20
2.9495926834681425
30
0
10
8.4030689449325031
20
2.9818090009503666
30
0
10
8.5020496171253495
20
2.9890399514578085
30
0
10
8.6003995487833844
20
2.9665484710184078
30
0
10
8.6983261404342151
20
2.919622608059576
30
0
10
8.7961481614494375
20
2.8599295010941987
30
0
10
8.8942215090699186
20
2.802018862725133
30
0
10
8.9928628874475134
20
2.7597282544910207
30
0
10
9.0922766956119894
20
2.7427337011654087
30
0
10
9.192474162462748
20
2.7527565215960124
30
0
10
9.2933216926320181
20
2.7854884801685511
30
0
10
9.3945978551718383
20
2.8329000783349545
30
0
10
9.4960474952924265
20
2.8854200580142209
30
0
10
9.5974362967715017
20
2.9341387135588008
30
0
10
9.6986071398674341
20
2.9730800806915485
30
0
10
9.7994662871163349
20
2.9986802018227237
30
0
10
9.8798667630747143
20
3.0070623098040543
30
0
10
9.939998822337289
20
3.0062798663878585
30
0
10
9.9800120722684547
20
3.0026168492220284
30
0
10
10
20
3
30
0
0
ENDSEC
0
SECTION
2
OBJECTS
0
DICTIONARY
5
C
100
AcDbDictionary
3
ACAD_GROUP
350
D
3
ACAD_MLINESTYLE
350
17
0
DICTIONARY
5
D
100
AcDbDictionary
0
DICTIONARY
5
1A
330
C
100
AcDbDictionary
0
DICTIONARY
5
17
100
AcDbDictionary
0
ENDSEC
0
EOF
