0
SECTION
2
HEADER
9
$INSUNITS
70
4
9
$ACADVER
1
AC1014
9
$HANDSEED
5
FFFF
0
ENDSEC
0
SECTION
2
TABLES
0
TABLE
2
VPORT
5
8
100
AcDbSymbolTable
0
ENDTAB
0
TABLE
2
LTYPE
5
5
100
AcDbSymbolTable
0
LTYPE
5
14
100
AcDbSymbolTableRecord
100
AcDbLinetypeTableRecord
2
BYBLOCK
70
0
0
LTYPE
5
15
100
AcDbSymbolTableRecord
100
AcDbLinetypeTableRecord
2
BYLAYER
70
0
0
ENDTAB
0
TABLE
2
LAYER
5
2
100
AcDbSymbolTable
70
2
0
LAYER
5
50
100
AcDbSymbolTableRecord
100
AcDbLayerTableRecord
2
0
70
0
6
CONTINUOUS
0
ENDTAB
0
TABLE
2
STYLE
5
3
100
AcDbSymbolTable
70
1
0
STYLE
5
11
100
AcDbSymbolTableRecord
100
AcDbTextStyleTableRecord
2
STANDARD
70
0
0
ENDTAB
0
TABLE
2
VIEW
5
6
100
AcDbSymbolTable
70
0
0
ENDTAB
0
TABLE
2
UCS
5
7
100
AcDbSymbolTable
70
0
0
ENDTAB
0
TABLE
2
APPID
5
9
100
AcDbSymbolTable
70
2
0
APPID
5
12
100
AcDbSymbolTableRecord
100
AcDbRegAppTableRecord
2
ACAD
70
0
0
ENDTAB
0
TABLE
2
DIMSTYLE
5
A
100
AcDbSymbolTable
70
1
0
ENDTAB
0
TABLE
2
BLOCK_RECORD
5
1
100
AcDbSymbolTable
70
1
0
BLOCK_RECORD
5
1F
100
AcDbSymbolTableRecord
100
AcDbBlockTableRecord
2
*MODEL_SPACE
0
BLOCK_RECORD
5
1B
100
AcDbSymbolTableRecord
100
AcDbBlockTableRecord
2
*PAPER_SPACE
0
ENDTAB
0
ENDSEC
0
SECTION
2
BLOCKS
0
BLOCK
5
20
100
AcDbEntity
100
AcDbBlockBegin
2
*MODEL_SPACE
0
ENDBLK
5
21
100
AcDbEntity
100
AcDbBlockEnd
0
BLOCK
5
1C
100
AcDbEntity
100
AcDbBlockBegin
2
*PAPER_SPACE
0
ENDBLK
5
1D
100
AcDbEntity
100
AcDbBlockEnd
0
ENDSEC
0
SECTION
2
ENTITIES
0
SPLINE
5
100
100
AcDbEntity
8
0
100
AcDbSpline
70
4
71
5
72
16
73
10
74
0
42
0.000000001
43
0.0000000001
44
0.0000000001
40
0
40
0
40
0
40
0
40
0
40
0
40
0.20000000000000001
40
0.40000000000000002
40
0.60000000000000009
40
0.80000000000000004
40
1
40
1
40
1
40
1
40
1
40
1
41
1
41
1
41
1
41
1
41
1
41
1
41
1
41
1
41
1
41
1
10
0
20
0
30
0
10
0
20
0.12000000000003158
30
0
10
0
20
0.36000000000007704
30
0
10
0
20
0.72000000000009301
30
0
10
0
20
1.2000000000000313
30
0
10
0
20
1.7999999999999146
30
0
10
0
20
2.2799999999998684
30
0
10
0
20
2.6399999999999042
30
0
10
0
20
2.8799999999999617
30
0
10
0
20
3
30
0
0
SPLINE
5
101
100
AcDbEntity
8
0
100
AcDbSpline
70
4
71
5
72
16
73
10
74
0
42
0.000000001
43
0.0000000001
44
0.0000000001
40
0
40
0
40
0
40
0
40
0
40
0
40
0.20000000000000001
40
0.40000000000000002
40
0.60000000000000009
40
0.80000000000000004
40
1
40
1
40
1
40
1
40
1
40
1
41
1
41
1
41
1
41
1
41
1
41
1
41
1
41
1
41
1
41
1
10
10
20
0
30
0
10
9.9999999999997495
20
0.12000000000003158
30
0
10
9.9999999999993197
20
0.36000000000007704
30
0
10
9.9999999999989129
20
0.72000000000009301
30
0
10
9.9999999999987672
20
1.2000000000000313
30
0
10
9.9999999999990248
20
1.7999999999999146
30
0
10
9.9999999999993889
20
2.2799999999998684
30
0
10
9.9999999999996998
20
2.6399999999999042
30
0
10
9.9999999999999005
20
2.8799999999999617
30
0
10
10
20
3
30
0
0
SPLINE
5
102
100
AcDbEntity
8
0
100
AcDbSpline
70
4
71
5
72
16
73
10
74
0
42
0.000000001
43
0.0000000001
44
0.0000000001
40
0
40
0
40
0
40
0
40
0
40
0
40
0.20000000000000001
40
0.40000000000000002
40
0.60000000000000009
40
0.80000000000000004
40
1
40
1
40
1
40
1
40
1
40
1
41
1
41
1
41
1
41
1
41
1
41
1
41
1
41
1
41
1
41
1
10
0
20
1.5
30
0
10
0.40000000000047375
20
1.499999999999694
30
0
10
1.2000000000012774
20
1.4999999999991638
30
0
10
2.4000000000020547
20
1.4999999999986278
30
0
10
4.0000000000023546
20
1.4999999999983737
30
0
10
6.0000000000019584
20
1.4999999999985913
30
0
10
7.6000000000012928
20
1.4999999999990359
30
0
10
8.800000000000697
20
1.4999999999994786
30
0
10
9.6000000000002395
20
1.4999999999998188
30
0
10
10
20
1.5
30
0
0
SPLINE
5
103
100
AcDbEntity
8
0
100
AcDbSpline
70
4
71
5
72
111
73
105
74
0
42
0.000000001
43
0.0000000001
44
0.0000000001
40
0
40
0
40
0
40
0
40
0
40
0
40
0.01
40
0.02
40
0.029999999999999999
40
0.040000000000000001
40
0.050000000000000003
40
0.060000000000000005
40
0.070000000000000007
40
0.080000000000000002
40
0.089999999999999997
40
0.099999999999999992
40
0.10999999999999999
40
0.11999999999999998
40
0.12999999999999998
40
0.13999999999999999
40
0.14999999999999999
40
0.16
40
0.17000000000000001
40
0.18000000000000002
40
0.19000000000000003
40
0.20000000000000004
40
0.21000000000000005
40
0.22000000000000006
40
0.23000000000000007
40
0.24000000000000007
40
0.25000000000000006
40
0.26000000000000006
40
0.27000000000000007
40
0.28000000000000008
40
0.29000000000000009
40
0.3000000000000001
40
0.31000000000000011
40
0.32000000000000012
40
0.33000000000000013
40
0.34000000000000014
40
0.35000000000000014
40
0.36000000000000015
40
0.37000000000000016
40
0.38000000000000017
40
0.39000000000000018
40
0.40000000000000019
40
0.4100000000000002
40
0.42000000000000021
40
0.43000000000000022
40
0.44000000000000022
40
0.45000000000000023
40
0.46000000000000024
40
0.47000000000000025
40
0.48000000000000026
40
0.49000000000000027
40
0.50000000000000022
40
0.51000000000000023
40
0.52000000000000024
40
0.53000000000000025
40
0.54000000000000026
40
0.55000000000000027
40
0.56000000000000028
40
0.57000000000000028
40
0.58000000000000029
40
0.5900000000000003
40
0.60000000000000031
40
0.61000000000000032
40
0.62000000000000033
40
0.63000000000000034
40
0.64000000000000035
40
0.65000000000000036
40
0.66000000000000036
40
0.67000000000000037
40
0.68000000000000038
40
0.69000000000000039
40
0.7000000000000004
40
0.71000000000000041
40
0.72000000000000042
40
0.73000000000000043
40
0.74000000000000044
40
0.75000000000000044
40
0.76000000000000045
40
0.77000000000000046
40
0.78000000000000047
40
0.79000000000000048
40
0.80000000000000049
40
0.8100000000000005
40
0.82000000000000051
40
0.83000000000000052
40
0.84000000000000052
40
0.85000000000000053
40
0.86000000000000054
40
0.87000000000000055
40
0.88000000000000056
40
0.89000000000000057
40
0.90000000000000058
40
0.91000000000000059
40
0.9200000000000006
40
0.9300000000000006
40
0.94000000000000061
40
0.95000000000000062
40
0.96000000000000063
40
0.97000000000000064
40
0.98000000000000065
40
0.99000000000000066
40
1
40
1
40
1
40
1
40
1
40
1
41
1
41
1
41
1
41
1
41
1
41
1
41
1
41
1
41
1
41
1
41
1
41
1
41
1
41
1
41
1
41
1
41
1
41
1
41
1
41
1
41
1
41
1
41
1
41
1
41
1
41
1
41
1
41
1
41
1
41
1
41
1
41
1
41
1
41
1
41
1
41
1
41
1
41
1
41
1
41
1
41
1
41
1
41
1
41
1
41
1
41
1
41
1
41
1
41
1
41
1
41
1
41
1
41
1
41
1
41
1
41
1
41
1
41
1
41
1
41
1
41
1
41
1
41
1
41
1
41
1
41
1
41
1
41
1
41
1
41
1
41
1
41
1
41
1
41
1
41
1
41
1
41
1
41
1
41
1
41
1
41
1
41
1
41
1
41
1
41
1
41
1
41
1
41
1
41
1
41
1
41
1
41
1
41
1
41
1
41
1
41
1
41
1
41
1
41
1
41
1
41
1
41
1
41
1
41
1
41
1
10
0
20
0
30
0
10
0.020201572863867194
20
0.014310108785385614
30
0
10
0.06058647442305988
20
0.040980263389391931
30
0
10
0.12110909394363067
20
0.0751352925081403
30
0
10
0.2016964392154513
20
0.10897314102388561
30
0
10
0.30225502002153992
20
0.13211139951779263
30
0
10
0.40265883377860023
20
0.13714588837448932
30
0
10
0.5029496034290275
20
0.12619807528913857
30
0
10
0.60319720256027365
20
0.10282626143983681
30
0
10
0.70350605173681369
20
0.072357797538964791
30
0
10
0.80399113965904434
20
0.040853038230736251
30
0
10
0.90475459371064315
20
0.014096407196445088
30
0
10
1.0058624945204762
20
-0.0034066057507274629
30
0
10
1.1073205168940601
20
-0.0094728044289328697
30
0
10
1.2090529778152015
20
-0.0051641545633978186
30
0
10
1.3109399933419816
20
0.0064060369698461014
30
0
10
1.4128525783016563
20
0.021177245102272611
30
0
10
1.5146868310824493
20
0.035246532346798948
30
0
10
1.6164024214302053
20
0.046048180636749356
30
0
10
1.7180478692826731
20
0.053280647236381116
30
0
10
1.8197037235320881
20
0.058177474151476546
30
0
10
1.9214325105019956
20
0.062954610070213135
30
0
10
2.0232307587969536
20
0.07020559610207508
30
0
10
2.1249690875374396
20
0.082283737364365145
30
0
10
2.226371140238935
20
0.10080028685116824
30
0
10
2.3271288084809116
20
0.12660040296238145
30
0
10
2.4270002183577164
20
0.15965171663685909
30
0
10
2.5259049976514065
20
0.19898609862752975
30
0
10
2.6240432826021736
20
0.24257217382444432
30
0
10
2.7219340104902425
20
0.28736127788804572
30
0
10
2.8202127680083731
20
0.32982190453683058
30
0
10
2.9194670271338992
20
0.36639783516962887
30
0
10
3.0200675400783341
20
0.39397649866839579
30
0
10
3.1219755266540434
20
0.41039970939698045
30
0
10
3.2246378609405695
20
0.41481566088917154
30
0
10
3.3272565613420841
20
0.40734337484702832
30
0
10
3.4290120897078324
20
0.38882973217253525
30
0
10
3.5292870284834157
20
0.36058798154787075
30
0
10
3.6279313992580136
20
0.32410409550418073
30
0
10
3.7253763073551327
20
0.28088671676837185
30
0
10
3.8223524614520157
20
0.23269450575916206
30
0
10
3.9196794009103701
20
0.1817025519906075
30
0
10
4.0180374074308798
20
0.13066913967576183
30
0
10
4.1177216703499928
20
0.083159531310385476
30
0
10
4.2184792461221834
20
0.043575612732790731
30
0
10
4.3197552398004992
20
0.016278771839790214
30
0
10
4.4208877348966364
20
0.0048144306343477512
30
0
10
4.5213121274658192
20
0.01114168723355846
30
0
10
4.6207860702978287
20
0.034753710295667921
30
0
10
4.7195307048332777
20
0.072167896629886569
30
0
10
4.8180247927068915
20
0.11792769627301786
30
0
10
4.9168484810761601
20
0.16537609501765776
30
0
10
5.0165139486223511
20
0.20751673015893657
30
0
10
5.1172870582327192
20
0.23783900687952819
30
0
10
5.2190561204383812
20
0.25115076208022352
30
0
10
5.3214700705294646
20
0.24426472353989537
30
0
10
5.4240445541376925
20
0.21676783050404114
30
0
10
5.5262759724261921
20
0.17163409527565016
30
0
10
5.6277624587564645
20
0.11620334189456627
30
0
10
5.7282892759138022
20
0.062077660711797142
30
0
10
5.8277960114060123
20
0.021832338147395415
30
0
10
5.9263656003713567
20
0.0061696249574227872
30
0
10
6.0242028915412718
20
0.021130191643492759
30
0
10
6.1216223393172005
20
0.064726378785767105
30
0
10
6.2190176614672179
20
0.12553784570838666
30
0
10
6.316781080100812
20
0.18768921185646309
30
0
10
6.4152289039260415
20
0.23481908671641846
30
0
10
6.5145287914578978
20
0.25428357929763135
30
0
10
6.6146163462465024
20
0.24164083303672232
30
0
10
6.7151451343406796
20
0.20390235345582111
30
0
10
6.8156433704456276
20
0.15470328590113419
30
0
10
6.9156503490519716
20
0.11033097492730369
30
0
10
7.014854319197477
20
0.085554755625690315
30
0
10
7.1132446754074294
20
0.089235480647068932
30
0
10
7.2112144215509897
20
0.1209251909034602
30
0
10
7.3093475104682533
20
0.17400061723705085
30
0
10
7.4082397254467667
20
0.23806548716708123
30
0
10
7.5083112898009379
20
0.3015981182109283
30
0
10
7.6096121186239527
20
0.3545729494374345
30
0
10
7.7116607767772134
20
0.39086557044275966
30
0
10
7.8136968893442704
20
0.40750128274535347
30
0
10
7.9149084191582535
20
0.40413099951100234
30
0
10
8.0146599329075272
20
0.38242734745655849
30
0
10
8.1127403531394684
20
0.34550424304877125
30
0
10
8.2095442009991366
20
0.29736290906527968
30
0
10
8.3058121558087823
20
0.24261186542221558
30
0
10
8.4024203318553639
20
0.18615510551279718
30
0
10
8.5001511893790056
20
0.1328927271581021
30
0
10
8.5994715741475307
20
0.087416800945208456
30
0
10
8.700309340698503
20
0.053707966882375328
30
0
10
8.8022272761606644
20
0.034749480584005003
30
0
10
8.9045952901251582
20
0.032136204092717037
30
0
10
9.0067610811167391
20
0.045695113545264378
30
0
10
9.1082261169076411
20
0.073075371333181538
30
0
10
9.2088060235287479
20
0.10941897345537009
30
0
10
9.3085415660998514
20
0.14830567739874295
30
0
10
9.407622860992797
20
0.18263339275563198
30
0
10
9.5063094595325044
20
0.20551216963022528
30
0
10
9.6048504990422447
20
0.2111759210841328
30
0
10
9.703409802241266
20
0.19582037713478512
30
0
10
9.8020862631523791
20
0.15716422034964322
30
0
10
9.8811604354655174
20
0.10669663506282642
30
0
10
9.9405482619966499
20
0.057687100746234322
30
0
10
9.9801766670101539
20
0.020055470867923267
30
0
10
10
20
0
30
0
0
SPLINE
5
104
100
AcDbEntity
8
0
100
AcDbSpline
70
4
71
5
72
111
73
105
74
0
42
0.000000001
43
0.0000000001
44
0.0000000001
40
0
40
0
40
0
40
0
40
0
40
0
40
0.01
40
0.02
40
0.029999999999999999
40
0.040000000000000001
40
0.050000000000000003
40
0.060000000000000005
40
0.070000000000000007
40
0.080000000000000002
40
0.089999999999999997
40
0.099999999999999992
40
0.10999999999999999
40
0.11999999999999998
40
0.12999999999999998
40
0.13999999999999999
40
0.14999999999999999
40
0.16
40
0.17000000000000001
40
0.18000000000000002
40
0.19000000000000003
40
0.20000000000000004
40
0.21000000000000005
40
0.22000000000000006
40
0.23000000000000007
40
0.24000000000000007
40
0.25000000000000006
40
0.26000000000000006
40
0.27000000000000007
40
0.28000000000000008
40
0.29000000000000009
40
0.3000000000000001
40
0.31000000000000011
40
0.32000000000000012
40
0.33000000000000013
40
0.34000000000000014
40
0.35000000000000014
40
0.36000000000000015
40
0.37000000000000016
40
0.38000000000000017
40
0.39000000000000018
40
0.40000000000000019
40
0.4100000000000002
40
0.42000000000000021
40
0.43000000000000022
40
0.44000000000000022
40
0.45000000000000023
40
0.46000000000000024
40
0.47000000000000025
40
0.48000000000000026
40
0.49000000000000027
40
0.50000000000000022
40
0.51000000000000023
40
0.52000000000000024
40
0.53000000000000025
40
0.54000000000000026
40
0.55000000000000027
40
0.56000000000000028
40
0.57000000000000028
40
0.58000000000000029
40
0.5900000000000003
40
0.60000000000000031
40
0.61000000000000032
40
0.62000000000000033
40
0.63000000000000034
40
0.64000000000000035
40
0.65000000000000036
40
0.66000000000000036
40
0.67000000000000037
40
0.68000000000000038
40
0.69000000000000039
40
0.7000000000000004
40
0.71000000000000041
40
0.72000000000000042
40
0.73000000000000043
40
0.74000000000000044
40
0.75000000000000044
40
0.76000000000000045
40
0.77000000000000046
40
0.78000000000000047
40
0.79000000000000048
40
0.80000000000000049
40
0.8100000000000005
40
0.82000000000000051
40
0.83000000000000052
40
0.84000000000000052
40
0.85000000000000053
40
0.86000000000000054
40
0.87000000000000055
40
0.88000000000000056
40
0.89000000000000057
40
0.90000000000000058
40
0.91000000000000059
40
0.9200000000000006
40
0.9300000000000006
40
0.94000000000000061
40
0.95000000000000062
40
0.96000000000000063
40
0.97000000000000064
40
0.98000000000000065
40
0.99000000000000066
40
1
40
1
40
1
40
1
40
1
40
1
41
1
41
1
41
1
41
1
41
1
41
1
41
1
41
1
41
1
41
1
41
1
41
1
41
1
41
1
41
1
41
1
41
1
41
1
41
1
41
1
41
1
41
1
41
1
41
1
41
1
41
1
41
1
41
1
41
1
41
1
41
1
41
1
41
1
41
1
41
1
41
1
41
1
41
1
41
1
41
1
41
1
41
1
41
1
41
1
41
1
41
1
41
1
41
1
41
1
41
1
41
1
41
1
41
1
41
1
41
1
41
1
41
1
41
1
41
1
41
1
41
1
41
1
41
1
41
1
41
1
41
1
41
1
41
1
41
1
41
1
41
1
41
1
41
1
41
1
41
1
41
1
41
1
41
1
41
1
41
1
41
1
41
1
41
1
41
1
41
1
41
1
41
1
41
1
41
1
41
1
41
1
41
1
41
1
41
1
41
1
41
1
41
1
41
1
41
1
41
1
41
1
41
1
41
1
41
1
41
1
10
0
20
3
30
0
10
0.020979202856991255
20
3.0130215079072089
30
0
10
0.06280570618319338
20
3.0357058371928565
30
0
10
0.1251497524066614
20
3.0596561452077813
30
0
10
0.20748361488317474
20
3.0714353307700808
30
0
10
0.30909703019959456
20
3.0535499297268034
30
0
10
0.409454013480963
20
3.0060535294107797
30
0
10
0.50865006326552653
20
2.9349331355588806
30
0
10
0.60684625730300779
20
2.8502709357644171
30
0
10
0.7042821792277919
20
2.766984778200408
30
0
10
0.80123349679231137
20
2.7011854467459786
30
0
10
0.89797367932586469
20
2.6668673956339339
30
0
10
0.99473358150212299
20
2.6724137598039905
30
0
10
1.0916632233464321
20
2.7173113661996466
30
0
10
1.188789049715218
20
2.7884082851056995
30
0
10
1.2860596006734406
20
2.8652268785408888
30
0
10
1.3833945131038985
20
2.925618649812693
30
0
10
1.4807345332325494
20
2.9515250130152504
30
0
10
1.5780859777569611
20
2.9341652851226749
30
0
10
1.6755809339886927
20
2.880852683580394
30
0
10
1.7734271409947482
20
2.8103663834137387
30
0
10
1.8718344877649107
20
2.745842507551457
30
0
10
1.9709454607773873
20
2.7081991941337891
30
0
10
2.0707730806752118
20
2.7100580857215331
30
0
10
2.1711121914529574
20
2.7476142430185968
30
0
10
2.2715966101005884
20
2.8039563565106427
30
0
10
2.3718112157967504
20
2.8567425739570029
30
0
10
2.4713907257207528
20
2.8847660912150785
30
0
10
2.5701137312376101
20
2.8742851579373863
30
0
10
2.6680250443252005
20
2.827231627541468
30
0
10
2.7653950539633776
20
2.7584213054954683
30
0
10
2.8626157547144899
20
2.688527203342681
30
0
10
2.9601141726390603
20
2.6381281813781192
30
0
10
3.0582659742000553
20
2.6220013041256633
30
0
10
3.1572905538081657
20
2.6415864857015317
30
0
10
3.2572376563773453
20
2.6860016394430235
30
0
10
3.3580365986608252
20
2.7387128555902711
30
0
10
3.4595272963471704
20
2.7828001145794783
30
0
10
3.56149734977588
20
2.8061597748258365
30
0
10
3.6637199459344147
20
2.8083335883251399
30
0
10
3.7659752820462087
20
2.7993171998590598
30
0
10
3.8680593525482792
20
2.7932398186531149
30
0
10
3.9697974160161813
20
2.8033244919847888
30
0
10
4.0710537753067708
20
2.8369168587005071
30
0
10
4.1717476299479994
20
2.8889684235679107
30
0
10
4.2718414512157423
20
2.9446966423034278
30
0
10
4.371319403092512
20
2.9859389600155573
30
0
10
4.4701672011855456
20
2.9965840033400957
30
0
10
4.5683553585328784
20
2.9677655211226335
30
0
10
4.6658109112858615
20
2.9047388951580002
30
0
10
4.7624492748681799
20
2.82428670210414
30
0
10
4.8582290672980228
20
2.748212386581776
30
0
10
4.9532039802260588
20
2.6978309753105654
30
0
10
5.0475660835290697
20
2.6886456533562795
30
0
10
5.1417170825404597
20
2.7234667702292841
30
0
10
5.2362322036113405
20
2.7920342058918872
30
0
10
5.3317207040178571
20
2.8770956774527545
30
0
10
5.4287098150135265
20
2.9588516473090483
30
0
10
5.5275294537833783
20
3.019771766764225
30
0
10
5.6281717077024513
20
3.049954431345399
30
0
10
5.7302399877572423
20
3.0500134488028947
30
0
10
5.8331379905483765
20
3.0270308556410273
30
0
10
5.936220230572812
20
2.9917284845003103
30
0
10
6.0389438679451253
20
2.9553502053432581
30
0
10
6.1410532574115715
20
2.9262105349738587
30
0
10
6.2426359423249416
20
2.9079724520897843
30
0
10
6.3439600742895319
20
2.9010357455152502
30
0
10
6.4453562466364129
20
2.9032075936888804
30
0
10
6.5470942097473159
20
2.9106535958246167
30
0
10
6.6492309495206197
20
2.9187443824263584
30
0
10
6.7515868754392825
20
2.9228766269066742
30
0
10
6.8538738528460241
20
2.9191383961461286
30
0
10
6.9557885334121821
20
2.9050755274209665
30
0
10
7.0571088975433742
20
2.8802950273400043
30
0
10
7.1578163199831675
20
2.8474415149822536
30
0
10
7.2580914191401744
20
2.8117212712615802
30
0
10
7.3582120257070276
20
2.7793565309770516
30
0
10
7.4584759115117736
20
2.7562881969694115
30
0
10
7.5591217607743877
20
2.7469124249560988
30
0
10
7.6602300026522565
20
2.7524643371672006
30
0
10
7.7617255877474056
20
2.7710644399280993
30
0
10
7.8634518072886905
20
2.7989206441357721
30
0
10
7.9652253895417759
20
2.8312100955199577
30
0
10
8.0668937653506916
20
2.8630374845440882
30
0
10
8.1684053091539237
20
2.8904980905042592
30
0
10
8.2698030470243644
20
2.9109864981795859
30
0
10
8.3711791121461019
20
2.9230927181279984
30
0
10
8.4726402523564452
20
2.9266431288921773
30
0
10
8.5742718067842105
20
2.9226521425360992
30
0
10
8.6760945610910554
20
2.91338934154818
30
0
10
8.778072366874758
20
2.9019326790444522
30
0
10
8.8801380092112634
20
2.8915595431233703
30
0
10
8.9822135436271537
20
2.8851729779624957
30
0
10
9.0842317191795114
20
2.8847535490839777
30
0
10
9.1861601086228859
20
2.8906940381443018
30
0
10
9.2879962498526414
20
2.9021102503393212
30
0
10
9.3897568277889878
20
2.9173440324676037
30
0
10
9.4914688469608102
20
2.9344043995255347
30
0
10
9.5931602132948832
20
2.9514220340364044
30
0
10
9.6948499354669018
20
2.9671310561118949
30
0
10
9.7965492772755187
20
2.98077977230058
30
0
10
9.8779209858419357
20
2.9897486395592554
30
0
10
9.9389574894701198
20
2.9953225700038502
30
0
10
9.9796519244377127
20
2.9985262359788272
30
0
10
10
20
3
30
0
0
ENDSEC
0
SECTION
2
OBJECTS
0
DICTIONARY
5
C
100
AcDbDictionary
3
ACAD_GROUP
350
D
3
ACAD_MLINESTYLE
350
17
0
DICTIONARY
5
D
100
AcDbDictionary
0
DICTIONARY
5
1A
330
C
100
AcDbDictionary
0
DICTIONARY
5
17
100
AcDbDictionary
0
ENDSEC
0
EOF
