0
SECTION
2
HEADER
9
$INSUNITS
70
4
9
$ACADVER
1
AC1014
9
$HANDSEED
5
FFFF
0
ENDSEC
0
SECTION
2
TABLES
0
TABLE
2
VPORT
5
8
100
AcDbSymbolTable
0
ENDTAB
0
TABLE
2
LTYPE
5
5
100
AcDbSymbolTable
0
LTYPE
5
14
100
AcDbSymbolTableRecord
100
AcDbLinetypeTableRecord
2
BYBLOCK
70
0
0
LTYPE
5
15
100
AcDbSymbolTableRecord
100
AcDbLinetypeTableRecord
2
BYLAYER
70
0
0
ENDTAB
0
TABLE
2
LAYER
5
2
100
AcDbSymbolTable
70
2
0
LAYER
5
50
100
AcDbSymbolTableRecord
100
AcDbLayerTableRecord
2
0
70
0
6
CONTINUOUS
0
ENDTAB
0
TABLE
2
STYLE
5
3
100
AcDbSymbolTable
70
1
0
STYLE
5
11
100
AcDbSymbolTableRecord
100
AcDbTextStyleTableRecord
2
STANDARD
70
0
0
ENDTAB
0
TABLE
2
VIEW
5
6
100
AcDbSymbolTable
70
0
0
ENDTAB
0
TABLE
2
UCS
5
7
100
AcDbSymbolTable
70
0
0
ENDTAB
0
TABLE
2
APPID
5
9
100
AcDbSymbolTable
70
2
0
APPID
5
12
100
AcDbSymbolTableRecord
100
AcDbRegAppTableRecord
2
ACAD
70
0
0
ENDTAB
0
TABLE
2
DIMSTYLE
5
A
100
AcDbSymbolTable
70
1
0
ENDTAB
0
TABLE
2
BLOCK_RECORD
5
1
100
AcDbSymbolTable
70
1
0
BLOCK_RECORD
5
1F
100
AcDbSymbolTableRecord
100
AcDbBlockTableRecord
2
*MODEL_SPACE
0
BLOCK_RECORD
5
1B
100
AcDbSymbolTableRecord
100
AcDbBlockTableRecord
2
*PAPER_SPACE
0
ENDTAB
0
ENDSEC
0
SECTION
2
BLOCKS
0
BLOCK
5
20
100
AcDbEntity
100
AcDbBlockBegin
2
*MODEL_SPACE
0
ENDBLK
5
21
100
AcDbEntity
100
AcDbBlockEnd
0
BLOCK
5
1C
100
AcDbEntity
100
AcDbBlockBegin
2
*PAPER_SPACE
0
ENDBLK
5
1D
100
AcDbEntity
100
AcDbBlockEnd
0
ENDSEC
0
SECTION
2
ENTITIES
0
SPLINE
5
100
100
AcDbEntity
8
0
100
AcDbSpline
70
4
71
5
72
16
73
10
74
0
42
0.000000001
43
0.0000000001
44
0.0000000001
40
0
40
0
40
0
40
0
40
0
40
0
40
0.20000000000000001
40
0.40000000000000002
40
0.60000000000000009
40
0.80000000000000004
40
1
40
1
40
1
40
1
40
1
40
1
41
1
41
1
41
1
41
1
41
1
41
1
41
1
41
1
41
1
41
1
10
0
20
0
30
0
10
0
20
0.12000000000003158
30
0
10
0
20
0.36000000000007704
30
0
10
0
20
0.72000000000009301
30
0
10
0
20
1.2000000000000313
30
0
10
0
20
1.7999999999999146
30
0
10
0
20
2.2799999999998684
30
0
10
0
20
2.6399999999999042
30
0
10
0
20
2.8799999999999617
30
0
10
0
20
3
30
0
0
SPLINE
5
101
100
AcDbEntity
8
0
100
AcDbSpline
70
4
71
5
72
16
73
10
74
0
42
0.000000001
43
0.0000000001
44
0.0000000001
40
0
40
0
40
0
40
0
40
0
40
0
40
0.20000000000000001
40
0.40000000000000002
40
0.60000000000000009
40
0.80000000000000004
40
1
40
1
40
1
40
1
40
1
40
1
41
1
41
1
41
1
41
1
41
1
41
1
41
1
41
1
41
1
41
1
10
10
20
0
30
0
10
9.9999999999997495
20
0.12000000000003158
30
0
10
9.9999999999993197
20
0.36000000000007704
30
0
10
9.9999999999989129
20
0.72000000000009301
30
0
10
9.9999999999987672
20
1.2000000000000313
30
0
10
9.9999999999990248
20
1.7999999999999146
30
0
10
9.9999999999993889
20
2.2799999999998684
30
0
10
9.9999999999996998
20
2.6399999999999042
30
0
10
9.9999999999999005
20
2.8799999999999617
30
0
10
10
20
3
30
0
0
SPLINE
5
102
100
AcDbEntity
8
0
100
AcDbSpline
70
4
71
5
72
16
73
10
74
0
42
0.000000001
43
0.0000000001
44
0.0000000001
40
0
40
0
40
0
40
0
40
0
40
0
40
0.20000000000000001
40
0.40000000000000002
40
0.60000000000000009
40
0.80000000000000004
40
1
40
1
40
1
40
1
40
1
40
1
41
1
41
1
41
1
41
1
41
1
41
1
41
1
41
1
41
1
41
1
10
0
20
1.5
30
0
10
0.40000000000047375
20
1.499999999999694
30
0
10
1.2000000000012774
20
1.4999999999991638
30
0
10
2.4000000000020547
20
1.4999999999986278
30
0
10
4.0000000000023546
20
1.4999999999983737
30
0
10
6.0000000000019584
20
1.4999999999985913
30
0
10
7.6000000000012928
20
1.4999999999990359
30
0
10
8.800000000000697
20
1.4999999999994786
30
0
10
9.6000000000002395
20
1.4999999999998188
30
0
10
10
20
1.5
30
0
0
SPLINE
5
103
100
AcDbEntity
8
0
100
AcDbSpline
70
4
71
5
72
61
73
55
74
0
42
0.000000001
43
0.0000000001
44
0.0000000001
40
0
40
0
40
0
40
0
40
0
40
0
40
0.02
40
0.040000000000000001
40
0.059999999999999998
40
0.080000000000000002
40
0.10000000000000001
40
0.12000000000000001
40
0.14000000000000001
40
0.16
40
0.17999999999999999
40
0.19999999999999998
40
0.21999999999999997
40
0.23999999999999996
40
0.25999999999999995
40
0.27999999999999997
40
0.29999999999999999
40
0.32000000000000001
40
0.34000000000000002
40
0.36000000000000004
40
0.38000000000000006
40
0.40000000000000008
40
0.4200000000000001
40
0.44000000000000011
40
0.46000000000000013
40
0.48000000000000015
40
0.50000000000000011
40
0.52000000000000013
40
0.54000000000000015
40
0.56000000000000016
40
0.58000000000000018
40
0.6000000000000002
40
0.62000000000000022
40
0.64000000000000024
40
0.66000000000000025
40
0.68000000000000027
40
0.70000000000000029
40
0.72000000000000031
40
0.74000000000000032
40
0.76000000000000034
40
0.78000000000000036
40
0.80000000000000038
40
0.8200000000000004
40
0.84000000000000041
40
0.86000000000000043
40
0.88000000000000045
40
0.90000000000000047
40
0.92000000000000048
40
0.9400000000000005
40
0.96000000000000052
40
0.98000000000000054
40
1
40
1
40
1
40
1
40
1
40
1
41
1
41
1
41
1
41
1
41
1
41
1
41
1
41
1
41
1
41
1
41
1
41
1
41
1
41
1
41
1
41
1
41
1
41
1
41
1
41
1
41
1
41
1
41
1
41
1
41
1
41
1
41
1
41
1
41
1
41
1
41
1
41
1
41
1
41
1
41
1
41
1
41
1
41
1
41
1
41
1
41
1
41
1
41
1
41
1
41
1
41
1
41
1
41
1
41
1
41
1
41
1
41
1
41
1
41
1
41
1
10
0
20
0
30
0
10
0.040214942642841214
20
0.011793811348852176
30
0
10
0.12064429520148631
20
0.033956332888888767
30
0
10
0.24128672540656992
20
0.062924794848736157
30
0
10
0.40214010354460727
20
0.092993344784700685
30
0
10
0.60320734322961411
20
0.11665781975980327
30
0
10
0.80429273362410247
20
0.12747721345426133
30
0
10
1.0054314640267989
20
0.1276434122687774
30
0
10
1.2066825515767932
20
0.12086293324967737
30
0
10
1.4081339044744612
20
0.11271114267986203
30
0
10
1.6098634545238282
20
0.10922443646894853
30
0
10
1.8119005917916327
20
0.11551918087464896
30
0
10
2.0141887890460981
20
0.13443060637512241
30
0
10
2.2165442406119631
20
0.16506491224148662
30
0
10
2.4186250909965481
20
0.20158560299976533
30
0
10
2.6200515145515118
20
0.23546663857662961
30
0
10
2.8205190932410122
20
0.25755854175811876
30
0
10
3.0199105140769547
20
0.26017983962335756
30
0
10
3.2184185364981976
20
0.23929855689457616
30
0
10
3.4166359161227393
20
0.19640094453047233
30
0
10
3.6153135217455805
20
0.13705445012686951
30
0
10
3.815142296513562
20
0.069745416616142225
30
0
10
4.0165320865737844
20
0.0046192978531127207
30
0
10
4.2193773125372172
20
-0.047727467818885039
30
0
10
4.4228664826127639
20
-0.077486355349539876
30
0
10
4.6258351622319802
20
-0.076925074183956985
30
0
10
4.8270860998285299
20
-0.041717041738140385
30
0
10
5.0257108216625674
20
0.027810266256934273
30
0
10
5.2214360934701904
20
0.1252066342566257
30
0
10
5.4148884757607458
20
0.23701369486204193
30
0
10
5.6072184537458769
20
0.34632377637016071
30
0
10
5.7997902231918488
20
0.43588281222656089
30
0
10
5.9938451569995959
20
0.49138477673469427
30
0
10
6.1901809208675225
20
0.50464454361419786
30
0
10
6.3888105326442099
20
0.47696402969715551
30
0
10
6.5892043038511661
20
0.41654535753635635
30
0
10
6.7905444372629065
20
0.33577226305625069
30
0
10
6.9919758828468535
20
0.24853943752649907
30
0
10
7.1928541674892879
20
0.16760116358449834
30
0
10
7.393006494593517
20
0.10182248657521062
30
0
10
7.5925994403057198
20
0.056455015872091223
30
0
10
7.7919925029987471
20
0.033525146543196022
30
0
10
7.9915964839690865
20
0.032169158028864886
30
0
10
8.1917323624565572
20
0.048987601771941877
30
0
10
8.3924836423810394
20
0.078367827172983989
30
0
10
8.5937551068904803
20
0.11332318793086245
30
0
10
8.7953394547803558
20
0.14634697104368111
30
0
10
8.9969808269284837
20
0.17026113353915504
30
0
10
9.1984391174298672
20
0.17906216576604669
30
0
10
9.3995548500526844
20
0.16878543255269712
30
0
10
9.6002334249323091
20
0.1370942709387431
30
0
10
9.7603892972103772
20
0.093702504179235674
30
0
10
9.8802818432510016
20
0.050855464063144021
30
0
10
9.9601105562126584
20
0.017714527815796428
30
0
10
10
20
0
30
0
0
SPLINE
5
104
100
AcDbEntity
8
0
100
AcDbSpline
70
4
71
5
72
61
73
55
74
0
42
0.000000001
43
0.0000000001
44
0.0000000001
40
0
40
0
40
0
40
0
40
0
40
0
40
0.02
40
0.040000000000000001
40
0.059999999999999998
40
0.080000000000000002
40
0.10000000000000001
40
0.12000000000000001
40
0.14000000000000001
40
0.16
40
0.17999999999999999
40
0.19999999999999998
40
0.21999999999999997
40
0.23999999999999996
40
0.25999999999999995
40
0.27999999999999997
40
0.29999999999999999
40
0.32000000000000001
40
0.34000000000000002
40
0.36000000000000004
40
0.38000000000000006
40
0.40000000000000008
40
0.4200000000000001
40
0.44000000000000011
40
0.46000000000000013
40
0.48000000000000015
40
0.50000000000000011
40
0.52000000000000013
40
0.54000000000000015
40
0.56000000000000016
40
0.58000000000000018
40
0.6000000000000002
40
0.62000000000000022
40
0.64000000000000024
40
0.66000000000000025
40
0.68000000000000027
40
0.70000000000000029
40
0.72000000000000031
40
0.74000000000000032
40
0.76000000000000034
40
0.78000000000000036
40
0.80000000000000038
40
0.8200000000000004
40
0.84000000000000041
40
0.86000000000000043
40
0.88000000000000045
40
0.90000000000000047
40
0.92000000000000048
40
0.9400000000000005
40
0.96000000000000052
40
0.98000000000000054
40
1
40
1
40
1
40
1
40
1
40
1
41
1
41
1
41
1
41
1
41
1
41
1
41
1
41
1
41
1
41
1
41
1
41
1
41
1
41
1
41
1
41
1
41
1
41
1
41
1
41
1
41
1
41
1
41
1
41
1
41
1
41
1
41
1
41
1
41
1
41
1
41
1
41
1
41
1
41
1
41
1
41
1
41
1
41
1
41
1
41
1
41
1
41
1
41
1
41
1
41
1
41
1
41
1
41
1
41
1
41
1
41
1
41
1
41
1
41
1
41
1
10
0
20
3
30
0
10
0.039069057623638076
20
2.9567385863498394
30
0
10
0.11717564061911977
20
2.8752392789060401
30
0
10
0.23424092377190328
20
2.7680608077329087
30
0
10
0.39013861494144086
20
2.6553173982938012
30
0
10
0.5847222607361956
20
2.5641720607872425
30
0
10
0.77909921732307996
20
2.5211690374726583
30
0
10
0.97343567615444471
20
2.5228529727671258
30
0
10
1.168006508116743
20
2.5633653578991451
30
0
10
1.363234247718075
20
2.6336642127069125
30
0
10
1.5595941915921254
20
2.7224925569313436
30
0
10
1.7575030609832962
20
2.8175921333921754
30
0
10
1.9572075905752695
20
2.9068391273437415
30
0
10
2.1586857944054532
20
2.9793835885574076
30
0
10
2.3615082229202042
20
3.0268638405921404
30
0
10
2.5649671150926672
20
3.0440191182391181
30
0
10
2.7682701770883456
20
3.0291204279429285
30
0
10
2.9707171869425988
20
2.9845278969756928
30
0
10
3.1718721778615393
20
2.9170832086695828
30
0
10
3.3717689846595671
20
2.8389103430797475
30
0
10
3.5707908678864495
20
2.764807974288066
30
0
10
3.7694997604179008
20
2.7091636198657527
30
0
10
3.9684797052279515
20
2.6829244042285176
30
0
10
4.1681839506103415
20
2.6907908366119808
30
0
10
4.3687554731049163
20
2.7276316456614094
30
0
10
4.5700952197210007
20
2.7815721385602208
30
0
10
4.7719725862351261
20
2.8381823439746601
30
0
10
4.9741230631818327
20
2.8843781249584239
30
0
10
5.1763456282179128
20
2.9121992042391649
30
0
10
5.3786147895035041
20
2.9232975398317338
30
0
10
5.5810207549370929
20
2.9257311057604456
30
0
10
5.7836864276278881
20
2.9297389584304181
30
0
10
5.9866915375826082
20
2.9438234217990287
30
0
10
6.1899965274750413
20
2.9708453232157717
30
0
10
6.3933586364085588
20
3.0037120759932803
30
0
10
6.596414541984446
20
3.0295594682790021
30
0
10
6.7987737076968546
20
3.0344775147082119
30
0
10
7.0001077215817284
20
3.0080338800143354
30
0
10
7.2002413887776466
20
2.9478853872248751
30
0
10
7.399243596671897
20
2.8643813151066149
30
0
10
7.597358068435959
20
2.7755353755502004
30
0
10
7.7949344117059134
20
2.7020181548312197
30
0
10
7.9923590355360119
20
2.662114523671498
30
0
10
8.1899871959507848
20
2.6667825090099901
30
0
10
8.3880720932970902
20
2.7144082616280012
30
0
10
8.5867814454004527
20
2.7942118073123057
30
0
10
8.78621700661445
20
2.8899305508500421
30
0
10
8.986432922566328
20
2.9834183840286759
30
0
10
9.1874541359683413
20
3.0581903697655459
30
0
10
9.3892953929450691
20
3.1032121053309796
30
0
10
9.5919643408323925
20
3.1119768032756889
30
0
10
9.754763679172294
20
3.0874184398813913
30
0
10
9.8772366844832469
20
3.0507874151935526
30
0
10
9.9590512461995075
20
3.0182773557441211
30
0
10
10
20
3
30
0
0
ENDSEC
0
SECTION
2
OBJECTS
0
DICTIONARY
5
C
100
AcDbDictionary
3
ACAD_GROUP
350
D
3
ACAD_MLINESTYLE
350
17
0
DICTIONARY
5
D
100
AcDbDictionary
0
DICTIONARY
5
1A
330
C
100
AcDbDictionary
0
DICTIONARY
5
17
100
AcDbDictionary
0
ENDSEC
0
EOF
