0
SECTION
2
HEADER
9
$INSUNITS
70
4
9
$ACADVER
1
AC1014
9
$HANDSEED
5
FFFF
0
ENDSEC
0
SECTION
2
TABLES
0
TABLE
2
VPORT
5
8
100
AcDbSymbolTable
0
ENDTAB
0
TABLE
2
LTYPE
5
5
100
AcDbSymbolTable
0
LTYPE
5
14
100
AcDbSymbolTableRecord
100
AcDbLinetypeTableRecord
2
BYBLOCK
70
0
0
LTYPE
5
15
100
AcDbSymbolTableRecord
100
AcDbLinetypeTableRecord
2
BYLAYER
70
0
0
ENDTAB
0
TABLE
2
LAYER
5
2
100
AcDbSymbolTable
70
2
0
LAYER
5
50
100
AcDbSymbolTableRecord
100
AcDbLayerTableRecord
2
0
70
0
6
CONTINUOUS
0
ENDTAB
0
TABLE
2
STYLE
5
3
100
AcDbSymbolTable
70
1
0
STYLE
5
11
100
AcDbSymbolTableRecord
100
AcDbTextStyleTableRecord
2
STANDARD
70
0
0
ENDTAB
0
TABLE
2
VIEW
5
6
100
AcDbSymbolTable
70
0
0
ENDTAB
0
TABLE
2
UCS
5
7
100
AcDbSymbolTable
70
0
0
ENDTAB
0
TABLE
2
APPID
5
9
100
AcDbSymbolTable
70
2
0
APPID
5
12
100
AcDbSymbolTableRecord
100
AcDbRegAppTableRecord
2
ACAD
70
0
0
ENDTAB
0
TABLE
2
DIMSTYLE
5
A
100
AcDbSymbolTable
70
1
0
ENDTAB
0
TABLE
2
BLOCK_RECORD
5
1
100
AcDbSymbolTable
70
1
0
BLOCK_RECORD
5
1F
100
AcDbSymbolTableRecord
100
AcDbBlockTableRecord
2
*MODEL_SPACE
0
BLOCK_RECORD
5
1B
100
AcDbSymbolTableRecord
100
AcDbBlockTableRecord
2
*PAPER_SPACE
0
ENDTAB
0
ENDSEC
0
SECTION
2
BLOCKS
0
BLOCK
5
20
100
AcDbEntity
100
AcDbBlockBegin
2
*MODEL_SPACE
0
ENDBLK
5
21
100
AcDbEntity
100
AcDbBlockEnd
0
BLOCK
5
1C
100
AcDbEntity
100
AcDbBlockBegin
2
*PAPER_SPACE
0
ENDBLK
5
1D
100
AcDbEntity
100
AcDbBlockEnd
0
ENDSEC
0
SECTION
2
ENTITIES
0
SPLINE
5
100
100
AcDbEntity
8
0
100
AcDbSpline
70
4
71
5
72
16
73
10
74
0
42
0.000000001
43
0.0000000001
44
0.0000000001
40
0
40
0
40
0
40
0
40
0
40
0
40
0.20000000000000001
40
0.40000000000000002
40
0.60000000000000009
40
0.80000000000000004
40
1
40
1
40
1
40
1
40
1
40
1
41
1
41
1
41
1
41
1
41
1
41
1
41
1
41
1
41
1
41
1
10
0
20
0
30
0
10
0
20
0.12000000000003158
30
0
10
0
20
0.36000000000007704
30
0
10
0
20
0.72000000000009301
30
0
10
0
20
1.2000000000000313
30
0
10
0
20
1.7999999999999146
30
0
10
0
20
2.2799999999998684
30
0
10
0
20
2.6399999999999042
30
0
10
0
20
2.8799999999999617
30
0
10
0
20
3
30
0
0
SPLINE
5
101
100
AcDbEntity
8
0
100
AcDbSpline
70
4
71
5
72
16
73
10
74
0
42
0.000000001
43
0.0000000001
44
0.0000000001
40
0
40
0
40
0
40
0
40
0
40
0
40
0.20000000000000001
40
0.40000000000000002
40
0.60000000000000009
40
0.80000000000000004
40
1
40
1
40
1
40
1
40
1
40
1
41
1
41
1
41
1
41
1
41
1
41
1
41
1
41
1
41
1
41
1
10
10
20
0
30
0
10
9.9999999999997495
20
0.12000000000003158
30
0
10
9.9999999999993197
20
0.36000000000007704
30
0
10
9.9999999999989129
20
0.72000000000009301
30
0
10
9.9999999999987672
20
1.2000000000000313
30
0
10
9.9999999999990248
20
1.7999999999999146
30
0
10
9.9999999999993889
20
2.2799999999998684
30
0
10
9.9999999999996998
20
2.6399999999999042
30
0
10
9.9999999999999005
20
2.8799999999999617
30
0
10
10
20
3
30
0
0
SPLINE
5
102
100
AcDbEntity
8
0
100
AcDbSpline
70
4
71
5
72
16
73
10
74
0
42
0.000000001
43
0.0000000001
44
0.0000000001
40
0
40
0
40
0
40
0
40
0
40
0
40
0.20000000000000001
40
0.40000000000000002
40
0.60000000000000009
40
0.80000000000000004
40
1
40
1
40
1
40
1
40
1
40
1
41
1
41
1
41
1
41
1
41
1
41
1
41
1
41
1
41
1
41
1
10
0
20
1.5
30
0
10
0.40000000000047375
20
1.499999999999694
30
0
10
1.2000000000012774
20
1.4999999999991638
30
0
10
2.4000000000020547
20
1.4999999999986278
30
0
10
4.0000000000023546
20
1.4999999999983737
30
0
10
6.0000000000019584
20
1.4999999999985913
30
0
10
7.6000000000012928
20
1.4999999999990359
30
0
10
8.800000000000697
20
1.4999999999994786
30
0
10
9.6000000000002395
20
1.4999999999998188
30
0
10
10
20
1.5
30
0
0
SPLINE
5
103
100
AcDbEntity
8
0
100
AcDbSpline
70
4
71
5
72
61
73
55
74
0
42
0.000000001
43
0.0000000001
44
0.0000000001
40
0
40
0
40
0
40
0
40
0
40
0
40
0.02
40
0.040000000000000001
40
0.059999999999999998
40
0.080000000000000002
40
0.10000000000000001
40
0.12000000000000001
40
0.14000000000000001
40
0.16
40
0.17999999999999999
40
0.19999999999999998
40
0.21999999999999997
40
0.23999999999999996
40
0.25999999999999995
40
0.27999999999999997
40
0.29999999999999999
40
0.32000000000000001
40
0.34000000000000002
40
0.36000000000000004
40
0.38000000000000006
40
0.40000000000000008
40
0.4200000000000001
40
0.44000000000000011
40
0.46000000000000013
40
0.48000000000000015
40
0.50000000000000011
40
0.52000000000000013
40
0.54000000000000015
40
0.56000000000000016
40
0.58000000000000018
40
0.6000000000000002
40
0.62000000000000022
40
0.64000000000000024
40
0.66000000000000025
40
0.68000000000000027
40
0.70000000000000029
40
0.72000000000000031
40
0.74000000000000032
40
0.76000000000000034
40
0.78000000000000036
40
0.80000000000000038
40
0.8200000000000004
40
0.84000000000000041
40
0.86000000000000043
40
0.88000000000000045
40
0.90000000000000047
40
0.92000000000000048
40
0.9400000000000005
40
0.96000000000000052
40
0.98000000000000054
40
1
40
1
40
1
40
1
40
1
40
1
41
1
41
1
41
1
41
1
41
1
41
1
41
1
41
1
41
1
41
1
41
1
41
1
41
1
41
1
41
1
41
1
41
1
41
1
41
1
41
1
41
1
41
1
41
1
41
1
41
1
41
1
41
1
41
1
41
1
41
1
41
1
41
1
41
1
41
1
41
1
41
1
41
1
41
1
41
1
41
1
41
1
41
1
41
1
41
1
41
1
41
1
41
1
41
1
41
1
41
1
41
1
41
1
41
1
41
1
41
1
10
0
20
0
30
0
10
0.040314786192912726
20
-0.00011070233684215852
30
0
10
0.12095114728895021
20
0.00014100274628928118
30
0
10
0.24192605523928506
20
0.0019379029478785868
30
0
10
0.40326669014194855
20
0.007174189808901694
30
0
10
0.60500810573855301
20
0.018271551087154052
30
0
10
0.80680792114964939
20
0.033353711055509265
30
0
10
1.008651526290707
20
0.051274886721311204
30
0
10
1.2105142488425702
20
0.070102053075410203
30
0
10
1.4123591581688957
20
0.086942477434153745
30
0
10
1.6141464173139584
20
0.098649637687694663
30
0
10
1.8158423348440269
20
0.10250554749292837
30
0
10
2.0174282830697559
20
0.096894530637269549
30
0
10
2.2189103064693199
20
0.082025458060035319
30
0
10
2.4203267952686978
20
0.060517717392986135
30
0
10
2.6217334670059129
20
0.036383661698140737
30
0
10
2.8231898036574341
20
0.014114879436693994
30
0
10
3.0247453240295936
20
-0.0022440586606429702
30
0
10
3.226425052673521
20
-0.010074922115911735
30
0
10
3.4282177714667683
20
-0.0089773850572291841
30
0
10
3.6300870205925717
20
-5.1244753438542783e-05
30
0
10
3.8319798125536684
20
0.014683001483492168
30
0
10
4.0338362293095837
20
0.032890894984818182
30
0
10
4.2355984797456685
20
0.052570530347049997
30
0
10
4.4372205513152396
20
0.072525455215842263
30
0
10
4.6386787803615768
20
0.09188947820559136
30
0
10
4.8399832801725804
20
0.10974752956636301
30
0
10
5.0411872718798207
20
0.12476925079379537
30
0
10
5.2424017684237025
20
0.1347194002980481
30
0
10
5.4437949943137918
20
0.13637120803961617
30
0
10
5.6455312954562462
20
0.1270216342947372
30
0
10
5.8477166484979195
20
0.10585463700665972
30
0
10
6.050346160657031
20
0.075197057911628853
30
0
10
6.2532393715040966
20
0.042231959439498382
30
0
10
6.4560149073781865
20
0.019273321780692718
30
0
10
6.6581910682070244
20
0.019568513476436355
30
0
10
6.8592667081840499
20
0.053698232029095121
30
0
10
7.0588055059810886
20
0.12608787013541006
30
0
10
7.2565290690431627
20
0.23062130104354223
30
0
10
7.4523738597506668
20
0.34930537108958593
30
0
10
7.6464520664776288
20
0.45869842755565765
30
0
10
7.8390317427346412
20
0.53492091680374843
30
0
10
8.0305093590798702
20
0.55902672819115218
30
0
10
8.2213870080941103
20
0.52269483175768672
30
0
10
8.4122450132117308
20
0.4324297175862778
30
0
10
8.6036953105932366
20
0.30449419318606868
30
0
10
8.796337213734871
20
0.16099947825401689
30
0
10
8.9907118632162781
20
0.025538090237983577
30
0
10
9.1872579915260228
20
-0.080913455377232685
30
0
10
9.3862643536108834
20
-0.1443937483041223
30
0
10
9.5878991791427008
20
-0.15665654066165918
30
0
10
9.7513739224969811
20
-0.12225569554052448
30
0
10
9.8752092286343682
20
-0.071014966157550666
30
0
10
9.9583120796281417
20
-0.025554908621655371
30
0
10
10
20
0
30
0
0
SPLINE
5
104
100
AcDbEntity
8
0
100
AcDbSpline
70
4
71
5
72
61
73
55
74
0
42
0.000000001
43
0.0000000001
44
0.0000000001
40
0
40
0
40
0
40
0
40
0
40
0
40
0.02
40
0.040000000000000001
40
0.059999999999999998
40
0.080000000000000002
40
0.10000000000000001
40
0.12000000000000001
40
0.14000000000000001
40
0.16
40
0.17999999999999999
40
0.19999999999999998
40
0.21999999999999997
40
0.23999999999999996
40
0.25999999999999995
40
0.27999999999999997
40
0.29999999999999999
40
0.32000000000000001
40
0.34000000000000002
40
0.36000000000000004
40
0.38000000000000006
40
0.40000000000000008
40
0.4200000000000001
40
0.44000000000000011
40
0.46000000000000013
40
0.48000000000000015
40
0.50000000000000011
40
0.52000000000000013
40
0.54000000000000015
40
0.56000000000000016
40
0.58000000000000018
40
0.6000000000000002
40
0.62000000000000022
40
0.64000000000000024
40
0.66000000000000025
40
0.68000000000000027
40
0.70000000000000029
40
0.72000000000000031
40
0.74000000000000032
40
0.76000000000000034
40
0.78000000000000036
40
0.80000000000000038
40
0.8200000000000004
40
0.84000000000000041
40
0.86000000000000043
40
0.88000000000000045
40
0.90000000000000047
40
0.92000000000000048
40
0.9400000000000005
40
0.96000000000000052
40
0.98000000000000054
40
1
40
1
40
1
40
1
40
1
40
1
41
1
41
1
41
1
41
1
41
1
41
1
41
1
41
1
41
1
41
1
41
1
41
1
41
1
41
1
41
1
41
1
41
1
41
1
41
1
41
1
41
1
41
1
41
1
41
1
41
1
41
1
41
1
41
1
41
1
41
1
41
1
41
1
41
1
41
1
41
1
41
1
41
1
41
1
41
1
41
1
41
1
41
1
41
1
41
1
41
1
41
1
41
1
41
1
41
1
41
1
41
1
41
1
41
1
41
1
41
1
10
0
20
3
30
0
10
0.037277904083985909
20
2.9631094481618145
30
0
10
0.11207703592730801
20
2.8923339184137737
30
0
10
0.2250057010320311
20
2.7951874114783481
30
0
10
0.37703817218906915
20
2.683703485148119
30
0
10
0.56949659962546939
20
2.5745067351998645
30
0
10
0.76431278454902218
20
2.4955901711673287
30
0
10
0.96135817566815263
20
2.4471275438995104
30
0
10
1.1604139685912462
20
2.4292878744459805
30
0
10
1.3611394188188273
20
2.4423535301146
30
0
10
1.5631085694212703
20
2.4856289632928203
30
0
10
1.7658613599399062
20
2.5561315577176691
30
0
10
1.9689510524525302
20
2.6472519074539944
30
0
10
2.1719899781471192
20
2.7476421766741623
30
0
10
2.3747045094703969
20
2.8394034334947884
30
0
10
2.5769046235971604
20
2.9022822563642618
30
0
10
2.7784399145024565
20
2.9187945411500116
30
0
10
2.9791588060393077
20
2.8791863451773487
30
0
10
3.1788703265769365
20
2.7861247156416851
30
0
10
3.3772945035878887
20
2.6604849790730056
30
0
10
3.5741525922046447
20
2.5339832163605234
30
0
10
3.7692695084422851
20
2.4405631042892311
30
0
10
3.9626782170145942
20
2.4079031419916759
30
0
10
4.1547100097553731
20
2.4496289636608597
30
0
10
4.346127542996908
20
2.5551954772623322
30
0
10
4.537959085372882
20
2.6964326390128224
30
0
10
4.7312713001620752
20
2.8376393045700903
30
0
10
4.9269512605237917
20
2.9448984865415579
30
0
10
5.1255114675789653
20
2.9946663677200385
30
0
10
5.3268157274126802
20
2.9853304077708867
30
0
10
5.5301693497440132
20
2.93473744251955
30
0
10
5.7346091208463594
20
2.8699811070348598
30
0
10
5.9391410505101314
20
2.8192362902475971
30
0
10
6.1429766579755327
20
2.8035797508827978
30
0
10
6.345828014268962
20
2.8267141818113046
30
0
10
6.5478522293548611
20
2.8773522705306123
30
0
10
6.7494519632131684
20
2.9367922238288617
30
0
10
6.9511178820892674
20
2.9850183931891445
30
0
10
7.1532664119299216
20
3.0068832450304135
30
0
10
7.3560475888592691
20
2.9996105854358612
30
0
10
7.559378415988097
20
2.9707446983650847
30
0
10
7.7630455489629515
20
2.9331911378212459
30
0
10
7.9667862536903122
20
2.9011463532122788
30
0
10
8.1703736784897796
20
2.885903500090139
30
0
10
8.3737122741486854
20
2.8910750206200913
30
0
10
8.576817838692989
20
2.9139176788186933
30
0
10
8.7797758267986463
20
2.9477922841656272
30
0
10
8.9827070891454373
20
2.9842390496012072
30
0
10
9.1857315685440994
20
3.015148996715133
30
0
10
9.3889303473574337
20
3.0350502558828341
30
0
10
9.5923510842218516
20
3.0407218683343822
30
0
10
9.7552841443450884
20
3.0325979978081641
30
0
10
9.8775978133014632
20
3.0191555156125389
30
0
10
9.9591908409730117
20
3.0069292621712846
30
0
10
10
20
3
30
0
0
ENDSEC
0
SECTION
2
OBJECTS
0
DICTIONARY
5
C
100
AcDbDictionary
3
ACAD_GROUP
350
D
3
ACAD_MLINESTYLE
350
17
0
DICTIONARY
5
D
100
AcDbDictionary
0
DICTIONARY
5
1A
330
C
100
AcDbDictionary
0
DICTIONARY
5
17
100
AcDbDictionary
0
ENDSEC
0
EOF
