0
SECTION
2
HEADER
9
$INSUNITS
70
4
9
$ACADVER
1
AC1014
9
$HANDSEED
5
FFFF
0
ENDSEC
0
SECTION
2
TABLES
0
TABLE
2
VPORT
5
8
100
AcDbSymbolTable
0
ENDTAB
0
TABLE
2
LTYPE
5
5
100
AcDbSymbolTable
0
LTYPE
5
14
100
AcDbSymbolTableRecord
100
AcDbLinetypeTableRecord
2
BYBLOCK
70
0
0
LTYPE
5
15
100
AcDbSymbolTableRecord
100
AcDbLinetypeTableRecord
2
BYLAYER
70
0
0
ENDTAB
0
TABLE
2
LAYER
5
2
100
AcDbSymbolTable
70
2
0
LAYER
5
50
100
AcDbSymbolTableRecord
100
AcDbLayerTableRecord
2
0
70
0
6
CONTINUOUS
0
ENDTAB
0
TABLE
2
STYLE
5
3
100
AcDbSymbolTable
70
1
0
STYLE
5
11
100
AcDbSymbolTableRecord
100
AcDbTextStyleTableRecord
2
STANDARD
70
0
0
ENDTAB
0
TABLE
2
VIEW
5
6
100
AcDbSymbolTable
70
0
0
ENDTAB
0
TABLE
2
UCS
5
7
100
AcDbSymbolTable
70
0
0
ENDTAB
0
TABLE
2
APPID
5
9
100
AcDbSymbolTable
70
2
0
APPID
5
12
100
AcDbSymbolTableRecord
100
AcDbRegAppTableRecord
2
ACAD
70
0
0
ENDTAB
0
TABLE
2
DIMSTYLE
5
A
100
AcDbSymbolTable
70
1
0
ENDTAB
0
TABLE
2
BLOCK_RECORD
5
1
100
AcDbSymbolTable
70
1
0
BLOCK_RECORD
5
1F
100
AcDbSymbolTableRecord
100
AcDbBlockTableRecord
2
*MODEL_SPACE
0
BLOCK_RECORD
5
1B
100
AcDbSymbolTableRecord
100
AcDbBlockTableRecord
2
*PAPER_SPACE
0
ENDTAB
0
ENDSEC
0
SECTION
2
BLOCKS
0
BLOCK
5
20
100
AcDbEntity
100
AcDbBlockBegin
2
*MODEL_SPACE
0
ENDBLK
5
21
100
AcDbEntity
100
AcDbBlockEnd
0
BLOCK
5
1C
100
AcDbEntity
100
AcDbBlockBegin
2
*PAPER_SPACE
0
ENDBLK
5
1D
100
AcDbEntity
100
AcDbBlockEnd
0
ENDSEC
0
SECTION
2
ENTITIES
0
SPLINE
5
100
100
AcDbEntity
8
0
100
AcDbSpline
70
4
71
5
72
16
73
10
74
0
42
0.000000001
43
0.0000000001
44
0.0000000001
40
0
40
0
40
0
40
0
40
0
40
0
40
0.20000000000000001
40
0.40000000000000002
40
0.60000000000000009
40
0.80000000000000004
40
1
40
1
40
1
40
1
40
1
40
1
41
1
41
1
41
1
41
1
41
1
41
1
41
1
41
1
41
1
41
1
10
0
20
0
30
0
10
0
20
0.12000000000003158
30
0
10
0
20
0.36000000000007704
30
0
10
0
20
0.72000000000009301
30
0
10
0
20
1.2000000000000313
30
0
10
0
20
1.7999999999999146
30
0
10
0
20
2.2799999999998684
30
0
10
0
20
2.6399999999999042
30
0
10
0
20
2.8799999999999617
30
0
10
0
20
3
30
0
0
SPLINE
5
101
100
AcDbEntity
8
0
100
AcDbSpline
70
4
71
5
72
16
73
10
74
0
42
0.000000001
43
0.0000000001
44
0.0000000001
40
0
40
0
40
0
40
0
40
0
40
0
40
0.20000000000000001
40
0.40000000000000002
40
0.60000000000000009
40
0.80000000000000004
40
1
40
1
40
1
40
1
40
1
40
1
41
1
41
1
41
1
41
1
41
1
41
1
41
1
41
1
41
1
41
1
10
10
20
0
30
0
10
9.9999999999997495
20
0.12000000000003158
30
0
10
9.9999999999993197
20
0.36000000000007704
30
0
10
9.9999999999989129
20
0.72000000000009301
30
0
10
9.9999999999987672
20
1.2000000000000313
30
0
10
9.9999999999990248
20
1.7999999999999146
30
0
10
9.9999999999993889
20
2.2799999999998684
30
0
10
9.9999999999996998
20
2.6399999999999042
30
0
10
9.9999999999999005
20
2.8799999999999617
30
0
10
10
20
3
30
0
0
SPLINE
5
102
100
AcDbEntity
8
0
100
AcDbSpline
70
4
71
5
72
16
73
10
74
0
42
0.000000001
43
0.0000000001
44
0.0000000001
40
0
40
0
40
0
40
0
40
0
40
0
40
0.20000000000000001
40
0.40000000000000002
40
0.60000000000000009
40
0.80000000000000004
40
1
40
1
40
1
40
1
40
1
40
1
41
1
41
1
41
1
41
1
41
1
41
1
41
1
41
1
41
1
41
1
10
0
20
1.5
30
0
10
0.40000000000047375
20
1.499999999999694
30
0
10
1.2000000000012774
20
1.4999999999991638
30
0
10
2.4000000000020547
20
1.4999999999986278
30
0
10
4.0000000000023546
20
1.4999999999983737
30
0
10
6.0000000000019584
20
1.4999999999985913
30
0
10
7.6000000000012928
20
1.4999999999990359
30
0
10
8.800000000000697
20
1.4999999999994786
30
0
10
9.6000000000002395
20
1.4999999999998188
30
0
10
10
20
1.5
30
0
0
SPLINE
5
103
100
AcDbEntity
8
0
100
AcDbSpline
70
4
71
5
72
61
73
55
74
0
42
0.000000001
43
0.0000000001
44
0.0000000001
40
0
40
0
40
0
40
0
40
0
40
0
40
0.02
40
0.040000000000000001
40
0.059999999999999998
40
0.080000000000000002
40
0.10000000000000001
40
0.12000000000000001
40
0.14000000000000001
40
0.16
40
0.17999999999999999
40
0.19999999999999998
40
0.21999999999999997
40
0.23999999999999996
40
0.25999999999999995
40
0.27999999999999997
40
0.29999999999999999
40
0.32000000000000001
40
0.34000000000000002
40
0.36000000000000004
40
0.38000000000000006
40
0.40000000000000008
40
0.4200000000000001
40
0.44000000000000011
40
0.46000000000000013
40
0.48000000000000015
40
0.50000000000000011
40
0.52000000000000013
40
0.54000000000000015
40
0.56000000000000016
40
0.58000000000000018
40
0.6000000000000002
40
0.62000000000000022
40
0.64000000000000024
40
0.66000000000000025
40
0.68000000000000027
40
0.70000000000000029
40
0.72000000000000031
40
0.74000000000000032
40
0.76000000000000034
40
0.78000000000000036
40
0.80000000000000038
40
0.8200000000000004
40
0.84000000000000041
40
0.86000000000000043
40
0.88000000000000045
40
0.90000000000000047
40
0.92000000000000048
40
0.9400000000000005
40
0.96000000000000052
40
0.98000000000000054
40
1
40
1
40
1
40
1
40
1
40
1
41
1
41
1
41
1
41
1
41
1
41
1
41
1
41
1
41
1
41
1
41
1
41
1
41
1
41
1
41
1
41
1
41
1
41
1
41
1
41
1
41
1
41
1
41
1
41
1
41
1
41
1
41
1
41
1
41
1
41
1
41
1
41
1
41
1
41
1
41
1
41
1
41
1
41
1
41
1
41
1
41
1
41
1
41
1
41
1
41
1
41
1
41
1
41
1
41
1
41
1
41
1
41
1
41
1
41
1
41
1
10
0
20
0
30
0
10
0.039928792076011785
20
0.015816294828511074
30
0
10
0.11981275426561612
20
0.045571410262961909
30
0
10
0.23971783169023125
20
0.08457165763582962
30
0
10
0.39974963940287245
20
0.12529982365453401
30
0
10
0.60005084128375508
20
0.15771087452163823
30
0
10
0.80060490957116659
20
0.17256102549155275
30
0
10
1.001393900362145
20
0.17178348991387576
30
0
10
1.2023871437552729
20
0.1586567442820325
30
0
10
1.4035379427628978
20
0.13814843564309506
30
0
10
1.604792215271025
20
0.11596069464296654
30
0
10
1.8060970850839548
20
0.097580934768062719
30
0
10
2.0074093996893376
20
0.087339611309828133
30
0
10
2.2087044954839912
20
0.087442235547197239
30
0
10
2.4099843468757429
20
0.097063864755084092
30
0
10
2.6112672705419304
20
0.11334761068615855
30
0
10
2.8125781685171529
20
0.13234410110182537
30
0
10
3.0139387544500518
20
0.14995778341862914
30
0
10
3.215357414421816
20
0.16291559803892819
30
0
10
3.4168202466054076
20
0.16965212459709444
30
0
10
3.618300082927504
20
0.16989436621626361
30
0
10
3.8197645348101017
20
0.1643215399314516
30
0
10
4.0211842003585128
20
0.15420597970348815
30
0
10
4.2225412401603872
20
0.1410490053155625
30
0
10
4.4238365653052991
20
0.12626349243074161
30
0
10
4.625083472344599
20
0.11131213760444092
30
0
10
4.8263023859184928
20
0.097816528471697306
30
0
10
5.0275153367302972
20
0.087658344825432832
30
0
10
5.2287402490697721
20
0.083129746886572639
30
0
10
5.4299862163667907
20
0.086932562156002299
30
0
10
5.6312558738690042
20
0.10119644711070756
30
0
10
5.8325471361264185
20
0.12655882189414108
30
0
10
6.0338548851041827
20
0.1613000229685887
30
0
10
6.2351733223628738
20
0.20025563438857674
30
0
10
6.4364961071984519
20
0.23438774568638776
30
0
10
6.637805295089521
20
0.25378146553581882
30
0
10
6.8390611075260219
20
0.25030021776721545
30
0
10
7.0401924629637938
20
0.22019058335274208
30
0
10
7.2410844422814957
20
0.16715551609479271
30
0
10
7.441575010862894
20
0.10392506239844282
30
0
10
7.6414908832349759
20
0.047356623105792132
30
0
10
7.8406785493358866
20
0.014381731470691668
30
0
10
8.0390355384931542
20
0.017826279910638589
30
0
10
8.2365457008430969
20
0.061804699768674726
30
0
10
8.4333009365790765
20
0.13870356253944985
30
0
10
8.629461641712787
20
0.23343700585153743
30
0
10
8.8252257657842375
20
0.32667668652569654
30
0
10
9.0207952573949548
20
0.39840411629975175
30
0
10
9.216342263421117
20
0.43146830779773604
30
0
10
9.4119794688131577
20
0.41471946443149288
30
0
10
9.6077745964584018
20
0.34151852352286677
30
0
10
9.7645636977693471
20
0.23523204065266623
30
0
10
9.8822464969494845
20
0.12822310413816662
30
0
10
9.9607420984789172
20
0.044761445945067008
30
0
10
10
20
0
30
0
0
SPLINE
5
104
100
AcDbEntity
8
0
100
AcDbSpline
70
4
71
5
72
61
73
55
74
0
42
0.000000001
43
0.0000000001
44
0.0000000001
40
0
40
0
40
0
40
0
40
0
40
0
40
0.02
40
0.040000000000000001
40
0.059999999999999998
40
0.080000000000000002
40
0.10000000000000001
40
0.12000000000000001
40
0.14000000000000001
40
0.16
40
0.17999999999999999
40
0.19999999999999998
40
0.21999999999999997
40
0.23999999999999996
40
0.25999999999999995
40
0.27999999999999997
40
0.29999999999999999
40
0.32000000000000001
40
0.34000000000000002
40
0.36000000000000004
40
0.38000000000000006
40
0.40000000000000008
40
0.4200000000000001
40
0.44000000000000011
40
0.46000000000000013
40
0.48000000000000015
40
0.50000000000000011
40
0.52000000000000013
40
0.54000000000000015
40
0.56000000000000016
40
0.58000000000000018
40
0.6000000000000002
40
0.62000000000000022
40
0.64000000000000024
40
0.66000000000000025
40
0.68000000000000027
40
0.70000000000000029
40
0.72000000000000031
40
0.74000000000000032
40
0.76000000000000034
40
0.78000000000000036
40
0.80000000000000038
40
0.8200000000000004
40
0.84000000000000041
40
0.86000000000000043
40
0.88000000000000045
40
0.90000000000000047
40
0.92000000000000048
40
0.9400000000000005
40
0.96000000000000052
40
0.98000000000000054
40
1
40
1
40
1
40
1
40
1
40
1
41
1
41
1
41
1
41
1
41
1
41
1
41
1
41
1
41
1
41
1
41
1
41
1
41
1
41
1
41
1
41
1
41
1
41
1
41
1
41
1
41
1
41
1
41
1
41
1
41
1
41
1
41
1
41
1
41
1
41
1
41
1
41
1
41
1
41
1
41
1
41
1
41
1
41
1
41
1
41
1
41
1
41
1
41
1
41
1
41
1
41
1
41
1
41
1
41
1
41
1
41
1
41
1
41
1
41
1
41
1
10
0
20
3
30
0
10
0.039914564055255564
20
2.9947774124054298
30
0
10
0.11978309061353277
20
2.9850496280503447
30
0
10
0.23970407609285566
20
2.9726101302126082
30
0
10
0.39983526616387832
20
2.9603312423502186
30
0
10
0.60037842805840791
20
2.9518641822126952
30
0
10
0.80125394616111212
20
2.9493579795023219
30
0
10
1.0023670077641731
20
2.9509499084867024
30
0
10
1.2035581465886112
20
2.9535083544858809
30
0
10
1.404587302313399
20
2.9523209743732624
30
0
10
1.6051928218597658
20
2.9423322096536286
30
0
10
1.8051498172659697
20
2.9193677887004199
30
0
10
2.0043284594926272
20
2.8813579542117571
30
0
10
2.2027533838907623
20
2.8295843770992475
30
0
10
2.4006606375958701
20
2.769875359553426
30
0
10
2.598405178051761
20
2.7106558018417699
30
0
10
2.7963716340070381
20
2.6610653090591061
30
0
10
2.9948834789555572
20
2.6290444929620289
30
0
10
3.1941139809376895
20
2.6194551735021294
30
0
10
3.3939927470886606
20
2.6321173705494201
30
0
10
3.5942900930528827
20
2.6631713874964271
30
0
10
3.7947049232287542
20
2.7065056176619757
30
0
10
3.9949515132835116
20
2.7551579205321737
30
0
10
4.1948456706126267
20
2.802712192126307
30
0
10
4.3943942492832742
20
2.8447301687170441
30
0
10
4.5937342131717198
20
2.8784429644237215
30
0
10
4.7930685306105394
20
2.9024043887336815
30
0
10
4.9926030417810789
20
2.9161604686226523
30
0
10
5.1924839499342932
20
2.9199197362948768
30
0
10
5.3927322722273576
20
2.9142138083963918
30
0
10
5.5932777582477469
20
2.8999960583652213
30
0
10
5.793996035432647
20
2.8787556655882685
30
0
10
5.9947445336570349
20
2.852630056937584
30
0
10
6.1953985112199277
20
2.824514271895437
30
0
10
6.3958879553553816
20
2.7981893201480368
30
0
10
6.5961880298573661
20
2.777662529646459
30
0
10
6.7963084367078057
20
2.7664905809132314
30
0
10
6.9962832721938026
20
2.7671046030948467
30
0
10
7.1961607827051663
20
2.7801395645779294
30
0
10
7.3959931394595513
20
2.8037352239926183
30
0
10
7.5958318550792283
20
2.8343889540537153
30
0
10
7.7957233247405178
20
2.8678304781620554
30
0
10
7.9957042857347158
20
2.8998889859663546
30
0
10
8.1957973438374836
20
2.9273551851334645
30
0
10
8.3960062785543368
20
2.9488686940896756
30
0
10
8.5963210765226918
20
2.9644675244656793
30
0
10
8.7967231210878403
20
2.9751141053059591
30
0
10
8.9971903055208511
20
2.9822320099618023
30
0
10
9.1977021374033647
20
2.987242085874295
30
0
10
9.3982449126276375
20
2.9910934981763742
30
0
10
9.5988104030852259
20
2.9943543579769512
30
0
10
9.7592776557404051
20
2.9967181826133196
30
0
10
9.8796358241924516
20
2.9983960181172442
30
0
10
9.9598780359321246
20
2.9994723733069661
30
0
10
10
20
3
30
0
0
ENDSEC
0
SECTION
2
OBJECTS
0
DICTIONARY
5
C
100
AcDbDictionary
3
ACAD_GROUP
350
D
3
ACAD_MLINESTYLE
350
17
0
DICTIONARY
5
D
100
AcDbDictionary
0
DICTIONARY
5
1A
330
C
100
AcDbDictionary
0
DICTIONARY
5
17
100
AcDbDictionary
0
ENDSEC
0
EOF
