0
SECTION
2
HEADER
9
$INSUNITS
70
4
9
$ACADVER
1
AC1014
9
$HANDSEED
5
FFFF
0
ENDSEC
0
SECTION
2
TABLES
0
TABLE
2
VPORT
5
8
100
AcDbSymbolTable
0
ENDTAB
0
TABLE
2
LTYPE
5
5
100
AcDbSymbolTable
0
LTYPE
5
14
100
AcDbSymbolTableRecord
100
AcDbLinetypeTableRecord
2
BYBLOCK
70
0
0
LTYPE
5
15
100
AcDbSymbolTableRecord
100
AcDbLinetypeTableRecord
2
BYLAYER
70
0
0
ENDTAB
0
TABLE
2
LAYER
5
2
100
AcDbSymbolTable
70
2
0
LAYER
5
50
100
AcDbSymbolTableRecord
100
AcDbLayerTableRecord
2
0
70
0
6
CONTINUOUS
0
ENDTAB
0
TABLE
2
STYLE
5
3
100
AcDbSymbolTable
70
1
0
STYLE
5
11
100
AcDbSymbolTableRecord
100
AcDbTextStyleTableRecord
2
STANDARD
70
0
0
ENDTAB
0
TABLE
2
VIEW
5
6
100
AcDbSymbolTable
70
0
0
ENDTAB
0
TABLE
2
UCS
5
7
100
AcDbSymbolTable
70
0
0
ENDTAB
0
TABLE
2
APPID
5
9
100
AcDbSymbolTable
70
2
0
APPID
5
12
100
AcDbSymbolTableRecord
100
AcDbRegAppTableRecord
2
ACAD
70
0
0
ENDTAB
0
TABLE
2
DIMSTYLE
5
A
100
AcDbSymbolTable
70
1
0
ENDTAB
0
TABLE
2
BLOCK_RECORD
5
1
100
AcDbSymbolTable
70
1
0
BLOCK_RECORD
5
1F
100
AcDbSymbolTableRecord
100
AcDbBlockTableRecord
2
*MODEL_SPACE
0
BLOCK_RECORD
5
1B
100
AcDbSymbolTableRecord
100
AcDbBlockTableRecord
2
*PAPER_SPACE
0
ENDTAB
0
ENDSEC
0
SECTION
2
BLOCKS
0
BLOCK
5
20
100
AcDbEntity
100
AcDbBlockBegin
2
*MODEL_SPACE
0
ENDBLK
5
21
100
AcDbEntity
100
AcDbBlockEnd
0
BLOCK
5
1C
100
AcDbEntity
100
AcDbBlockBegin
2
*PAPER_SPACE
0
ENDBLK
5
1D
100
AcDbEntity
100
AcDbBlockEnd
0
ENDSEC
0
SECTION
2
ENTITIES
0
SPLINE
5
100
100
AcDbEntity
8
0
100
AcDbSpline
70
4
71
5
72
16
73
10
74
0
42
0.000000001
43
0.0000000001
44
0.0000000001
40
0
40
0
40
0
40
0
40
0
40
0
40
0.20000000000000001
40
0.40000000000000002
40
0.60000000000000009
40
0.80000000000000004
40
1
40
1
40
1
40
1
40
1
40
1
41
1
41
1
41
1
41
1
41
1
41
1
41
1
41
1
41
1
41
1
10
0
20
0
30
0
10
0
20
0.12000000000003158
30
0
10
0
20
0.36000000000007704
30
0
10
0
20
0.72000000000009301
30
0
10
0
20
1.2000000000000313
30
0
10
0
20
1.7999999999999146
30
0
10
0
20
2.2799999999998684
30
0
10
0
20
2.6399999999999042
30
0
10
0
20
2.8799999999999617
30
0
10
0
20
3
30
0
0
SPLINE
5
101
100
AcDbEntity
8
0
100
AcDbSpline
70
4
71
5
72
16
73
10
74
0
42
0.000000001
43
0.0000000001
44
0.0000000001
40
0
40
0
40
0
40
0
40
0
40
0
40
0.20000000000000001
40
0.40000000000000002
40
0.60000000000000009
40
0.80000000000000004
40
1
40
1
40
1
40
1
40
1
40
1
41
1
41
1
41
1
41
1
41
1
41
1
41
1
41
1
41
1
41
1
10
10
20
0
30
0
10
9.9999999999997495
20
0.12000000000003158
30
0
10
9.9999999999993197
20
0.36000000000007704
30
0
10
9.9999999999989129
20
0.72000000000009301
30
0
10
9.9999999999987672
20
1.2000000000000313
30
0
10
9.9999999999990248
20
1.7999999999999146
30
0
10
9.9999999999993889
20
2.2799999999998684
30
0
10
9.9999999999996998
20
2.6399999999999042
30
0
10
9.9999999999999005
20
2.8799999999999617
30
0
10
10
20
3
30
0
0
SPLINE
5
102
100
AcDbEntity
8
0
100
AcDbSpline
70
4
71
5
72
16
73
10
74
0
42
0.000000001
43
0.0000000001
44
0.0000000001
40
0
40
0
40
0
40
0
40
0
40
0
40
0.20000000000000001
40
0.40000000000000002
40
0.60000000000000009
40
0.80000000000000004
40
1
40
1
40
1
40
1
40
1
40
1
41
1
41
1
41
1
41
1
41
1
41
1
41
1
41
1
41
1
41
1
10
0
20
1.5
30
0
10
0.40000000000047375
20
1.499999999999694
30
0
10
1.2000000000012774
20
1.4999999999991638
30
0
10
2.4000000000020547
20
1.4999999999986278
30
0
10
4.0000000000023546
20
1.4999999999983737
30
0
10
6.0000000000019584
20
1.4999999999985913
30
0
10
7.6000000000012928
20
1.4999999999990359
30
0
10
8.800000000000697
20
1.4999999999994786
30
0
10
9.6000000000002395
20
1.4999999999998188
30
0
10
10
20
1.5
30
0
0
SPLINE
5
103
100
AcDbEntity
8
0
100
AcDbSpline
70
4
71
5
72
111
73
105
74
0
42
0.000000001
43
0.0000000001
44
0.0000000001
40
0
40
0
40
0
40
0
40
0
40
0
40
0.01
40
0.02
40
0.029999999999999999
40
0.040000000000000001
40
0.050000000000000003
40
0.060000000000000005
40
0.070000000000000007
40
0.080000000000000002
40
0.089999999999999997
40
0.099999999999999992
40
0.10999999999999999
40
0.11999999999999998
40
0.12999999999999998
40
0.13999999999999999
40
0.14999999999999999
40
0.16
40
0.17000000000000001
40
0.18000000000000002
40
0.19000000000000003
40
0.20000000000000004
40
0.21000000000000005
40
0.22000000000000006
40
0.23000000000000007
40
0.24000000000000007
40
0.25000000000000006
40
0.26000000000000006
40
0.27000000000000007
40
0.28000000000000008
40
0.29000000000000009
40
0.3000000000000001
40
0.31000000000000011
40
0.32000000000000012
40
0.33000000000000013
40
0.34000000000000014
40
0.35000000000000014
40
0.36000000000000015
40
0.37000000000000016
40
0.38000000000000017
40
0.39000000000000018
40
0.40000000000000019
40
0.4100000000000002
40
0.42000000000000021
40
0.43000000000000022
40
0.44000000000000022
40
0.45000000000000023
40
0.46000000000000024
40
0.47000000000000025
40
0.48000000000000026
40
0.49000000000000027
40
0.50000000000000022
40
0.51000000000000023
40
0.52000000000000024
40
0.53000000000000025
40
0.54000000000000026
40
0.55000000000000027
40
0.56000000000000028
40
0.57000000000000028
40
0.58000000000000029
40
0.5900000000000003
40
0.60000000000000031
40
0.61000000000000032
40
0.62000000000000033
40
0.63000000000000034
40
0.64000000000000035
40
0.65000000000000036
40
0.66000000000000036
40
0.67000000000000037
40
0.68000000000000038
40
0.69000000000000039
40
0.7000000000000004
40
0.71000000000000041
40
0.72000000000000042
40
0.73000000000000043
40
0.74000000000000044
40
0.75000000000000044
40
0.76000000000000045
40
0.77000000000000046
40
0.78000000000000047
40
0.79000000000000048
40
0.80000000000000049
40
0.8100000000000005
40
0.82000000000000051
40
0.83000000000000052
40
0.84000000000000052
40
0.85000000000000053
40
0.86000000000000054
40
0.87000000000000055
40
0.88000000000000056
40
0.89000000000000057
40
0.90000000000000058
40
0.91000000000000059
40
0.9200000000000006
40
0.9300000000000006
40
0.94000000000000061
40
0.95000000000000062
40
0.96000000000000063
40
0.97000000000000064
40
0.98000000000000065
40
0.99000000000000066
40
1
40
1
40
1
40
1
40
1
40
1
41
1
41
1
41
1
41
1
41
1
41
1
41
1
41
1
41
1
41
1
41
1
41
1
41
1
41
1
41
1
41
1
41
1
41
1
41
1
41
1
41
1
41
1
41
1
41
1
41
1
41
1
41
1
41
1
41
1
41
1
41
1
41
1
41
1
41
1
41
1
41
1
41
1
41
1
41
1
41
1
41
1
41
1
41
1
41
1
41
1
41
1
41
1
41
1
41
1
41
1
41
1
41
1
41
1
41
1
41
1
41
1
41
1
41
1
41
1
41
1
41
1
41
1
41
1
41
1
41
1
41
1
41
1
41
1
41
1
41
1
41
1
41
1
41
1
41
1
41
1
41
1
41
1
41
1
41
1
41
1
41
1
41
1
41
1
41
1
41
1
41
1
41
1
41
1
41
1
41
1
41
1
41
1
41
1
41
1
41
1
41
1
41
1
41
1
41
1
41
1
41
1
41
1
41
1
41
1
41
1
10
0
20
0
30
0
10
0.018712400936851649
20
0.0094620339240104757
30
0
10
0.056299539122342333
20
0.028242192960883705
30
0
10
0.11316724973612557
20
0.055980675465452462
30
0
10
0.18996507771643933
20
0.09210192322050019
30
0
10
0.28755221647089668
20
0.13564254088055122
30
0
10
0.38662700110529419
20
0.17706247590992155
30
0
10
0.48698218290643491
20
0.21533464642213204
30
0
10
0.58827460363496509
20
0.24876579757214462
30
0
10
0.68997917737520387
20
0.2747675360563418
30
0
10
0.79149348281796816
20
0.29042572074762329
30
0
10
0.89226107956816758
20
0.29317008967041419
30
0
10
0.9918909855656739
20
0.28142152300662782
30
0
10
1.0902725388254688
20
0.25521974925710855
30
0
10
1.1877093110200716
20
0.21693963794748206
30
0
10
1.2847692261162496
20
0.17065988896422352
30
0
10
1.3821135399725786
20
0.12142238736338043
30
0
10
1.4803273916783253
20
0.074519672451819868
30
0
10
1.5797636642012902
20
0.034798429676930538
30
0
10
1.6803445896828351
20
0.0058839880926494469
30
0
10
1.7816699332229622
20
-0.0099816771106853268
30
0
10
1.8831931633373842
20
-0.011952335817389168
30
0
10
1.9843786503204317
20
-0.00065605210514668299
30
0
10
2.0848566774331734
20
0.021784320676733242
30
0
10
2.1846060432551169
20
0.051622631975376289
30
0
10
2.2838704621030899
20
0.084182922323549195
30
0
10
2.3830295829368833
20
0.11467837406633058
30
0
10
2.4824827854921283
20
0.13901268144276496
30
0
10
2.5825349961211446
20
0.15452945722547048
30
0
10
2.6832623459907055
20
0.16094085611545922
30
0
10
2.7845555398485047
20
0.15981032185342875
30
0
10
2.8861983474785804
20
0.15375519033992552
30
0
10
2.987934954472852
20
0.14573553655450966
30
0
10
3.0895393361003629
20
0.13833383636655189
30
0
10
3.190890720804199
20
0.1329676392990945
30
0
10
3.2919608866192664
20
0.13000367126695642
30
0
10
3.3927899407337532
20
0.12898928533101278
30
0
10
3.4934662865297272
20
0.128839663648257
30
0
10
3.5941048207755459
20
0.12804721163704394
30
0
10
3.6948260250159963
20
0.12487027388764345
30
0
10
3.7957325494872345
20
0.11775883349998631
30
0
10
3.8968858742521091
20
0.10579229333130456
30
0
10
3.9982827447244826
20
0.089116111532267853
30
0
10
4.0998320406087538
20
0.069373164023636288
30
0
10
4.2013303555139867
20
0.050156050055977286
30
0
10
4.3025259673386849
20
0.035972639933549905
30
0
10
4.4031844070618025
20
0.031185389991539098
30
0
10
4.5031528998265422
20
0.038967976881987186
30
0
10
4.6024265694566875
20
0.060236566562549471
30
0
10
4.7012104996343078
20
0.092639307328399922
30
0
10
4.7998332344070764
20
0.13161926331197696
30
0
10
4.8986643403712318
20
0.17142153384563852
30
0
10
4.9980301933758886
20
0.20612230626670325
30
0
10
5.0981311977439532
20
0.23064349845408594
30
0
10
5.1989564111193554
20
0.24178695568214018
30
0
10
5.3003439196639093
20
0.23834480300336577
30
0
10
5.4020436788048816
20
0.22120126530458739
30
0
10
5.5037790177303334
20
0.19342921683341413
30
0
10
5.6053095062721772
20
0.16041299725804301
30
0
10
5.7064909273600968
20
0.12989928079446661
30
0
10
5.8072560665433794
20
0.11005560651187751
30
0
10
5.9075979539639514
20
0.1075669799221308
30
0
10
6.0075523598563194
20
0.12576768348350259
30
0
10
6.1071803467711856
20
0.16264002125387544
30
0
10
6.2065516565295642
20
0.20919719346578161
30
0
10
6.305741540114548
20
0.25309088435154736
30
0
10
6.404826739452294
20
0.28191195867095636
30
0
10
6.5038817844443839
20
0.28657073711768599
30
0
10
6.6029751779663659
20
0.26472862079985343
30
0
10
6.7021655630274779
20
0.22397729921404208
30
0
10
6.8014959185089303
20
0.17753964854909959
30
0
10
6.9009878118407837
20
0.14022655259680283
30
0
10
7.0006356396029759
20
0.12430567978278963
30
0
10
7.100400801140835
20
0.13539202626856459
30
0
10
7.2002060302982116
20
0.16836608928771729
30
0
10
7.2999607833162639
20
0.2114545828910179
30
0
10
7.3995863910955428
20
0.25025147396760483
30
0
10
7.4990413864576144
20
0.27176767216169512
30
0
10
7.5983465847670262
20
0.26844843302282884
30
0
10
7.6976108366244835
20
0.24226320993598927
30
0
10
7.7969897052713053
20
0.20156296652697692
30
0
10
7.8966437251150854
20
0.15788470410055205
30
0
10
7.9966964976799275
20
0.12275980684113225
30
0
10
8.0971935932600214
20
0.10456371131720738
30
0
10
8.1980589964797108
20
0.10523068702911219
30
0
10
8.2991409768649227
20
0.12196369159553563
30
0
10
8.4002606709816412
20
0.14909364278550621
30
0
10
8.5012595028336246
20
0.17987804751093892
30
0
10
8.6020474204168078
20
0.20833221671235844
30
0
10
8.7026499362764991
20
0.23102427860279046
30
0
10
8.803162938834113
20
0.24647827162943109
30
0
10
8.903708272159589
20
0.25460004667748304
30
0
10
9.0043894795403805
20
0.25609933909284344
30
0
10
9.1052464991017548
20
0.2519060511745071
30
0
10
9.2062135085367736
20
0.24261206982110062
30
0
10
9.307153205574453
20
0.22855720013477737
30
0
10
9.4078883880253539
20
0.20989085808322513
30
0
10
9.5082340789724658
20
0.18664203993624315
30
0
10
9.6080304222886319
20
0.15878734169373934
30
0
10
9.7071723631859523
20
0.12631505435800702
30
0
10
9.8055968021079831
20
0.089219305537672239
30
0
10
9.8837374597868894
20
0.055843153561692845
30
0
10
9.9420014949704196
20
0.028730528358215827
30
0
10
9.980692453675859
20
0.009730928973692014
30
0
10
10
20
0
30
0
0
SPLINE
5
104
100
AcDbEntity
8
0
100
AcDbSpline
70
4
71
5
72
111
73
105
74
0
42
0.000000001
43
0.0000000001
44
0.0000000001
40
0
40
0
40
0
40
0
40
0
40
0
40
0.01
40
0.02
40
0.029999999999999999
40
0.040000000000000001
40
0.050000000000000003
40
0.060000000000000005
40
0.070000000000000007
40
0.080000000000000002
40
0.089999999999999997
40
0.099999999999999992
40
0.10999999999999999
40
0.11999999999999998
40
0.12999999999999998
40
0.13999999999999999
40
0.14999999999999999
40
0.16
40
0.17000000000000001
40
0.18000000000000002
40
0.19000000000000003
40
0.20000000000000004
40
0.21000000000000005
40
0.22000000000000006
40
0.23000000000000007
40
0.24000000000000007
40
0.25000000000000006
40
0.26000000000000006
40
0.27000000000000007
40
0.28000000000000008
40
0.29000000000000009
40
0.3000000000000001
40
0.31000000000000011
40
0.32000000000000012
40
0.33000000000000013
40
0.34000000000000014
40
0.35000000000000014
40
0.36000000000000015
40
0.37000000000000016
40
0.38000000000000017
40
0.39000000000000018
40
0.40000000000000019
40
0.4100000000000002
40
0.42000000000000021
40
0.43000000000000022
40
0.44000000000000022
40
0.45000000000000023
40
0.46000000000000024
40
0.47000000000000025
40
0.48000000000000026
40
0.49000000000000027
40
0.50000000000000022
40
0.51000000000000023
40
0.52000000000000024
40
0.53000000000000025
40
0.54000000000000026
40
0.55000000000000027
40
0.56000000000000028
40
0.57000000000000028
40
0.58000000000000029
40
0.5900000000000003
40
0.60000000000000031
40
0.61000000000000032
40
0.62000000000000033
40
0.63000000000000034
40
0.64000000000000035
40
0.65000000000000036
40
0.66000000000000036
40
0.67000000000000037
40
0.68000000000000038
40
0.69000000000000039
40
0.7000000000000004
40
0.71000000000000041
40
0.72000000000000042
40
0.73000000000000043
40
0.74000000000000044
40
0.75000000000000044
40
0.76000000000000045
40
0.77000000000000046
40
0.78000000000000047
40
0.79000000000000048
40
0.80000000000000049
40
0.8100000000000005
40
0.82000000000000051
40
0.83000000000000052
40
0.84000000000000052
40
0.85000000000000053
40
0.86000000000000054
40
0.87000000000000055
40
0.88000000000000056
40
0.89000000000000057
40
0.90000000000000058
40
0.91000000000000059
40
0.9200000000000006
40
0.9300000000000006
40
0.94000000000000061
40
0.95000000000000062
40
0.96000000000000063
40
0.97000000000000064
40
0.98000000000000065
40
0.99000000000000066
40
1
40
1
40
1
40
1
40
1
40
1
41
1
41
1
41
1
41
1
41
1
41
1
41
1
41
1
41
1
41
1
41
1
41
1
41
1
41
1
41
1
41
1
41
1
41
1
41
1
41
1
41
1
41
1
41
1
41
1
41
1
41
1
41
1
41
1
41
1
41
1
41
1
41
1
41
1
41
1
41
1
41
1
41
1
41
1
41
1
41
1
41
1
41
1
41
1
41
1
41
1
41
1
41
1
41
1
41
1
41
1
41
1
41
1
41
1
41
1
41
1
41
1
41
1
41
1
41
1
41
1
41
1
41
1
41
1
41
1
41
1
41
1
41
1
41
1
41
1
41
1
41
1
41
1
41
1
41
1
41
1
41
1
41
1
41
1
41
1
41
1
41
1
41
1
41
1
41
1
41
1
41
1
41
1
41
1
41
1
41
1
41
1
41
1
41
1
41
1
41
1
41
1
41
1
41
1
41
1
41
1
41
1
41
1
41
1
41
1
41
1
10
0
20
3
30
0
10
0.018361103111145381
20
2.9834272021640067
30
0
10
0.055262421182300667
20
2.9514710434391782
30
0
10
0.11115172879702102
20
2.9071050989643377
30
0
10
0.18674568529390634
20
2.8550884047491869
30
0
10
0.28300488669407031
20
2.8018936646689707
30
0
10
0.38095576241092188
20
2.7603050560103517
30
0
10
0.48044536631439344
20
2.7298688471568977
30
0
10
0.58122061116317636
20
2.709831302207995
30
0
10
0.68289258122031105
20
2.6990266392579016
30
0
10
0.78499578407834403
20
2.6960868130173803
30
0
10
0.88706748969024019
20
2.6997165591941124
30
0
10
0.98872206443194854
20
2.7089576213127571
30
0
10
1.0897231314213949
20
2.7234314077465056
30
0
10
1.1900682041556081
20
2.7436608696464577
30
0
10
1.2899216704181482
20
2.7704796478816269
30
0
10
1.3895305848117814
20
2.804345561315396
30
0
10
1.4891450323656772
20
2.844664497767857
30
0
10
1.588940309128795
20
2.88916299902731
30
0
10
1.688928369702922
20
2.9330961646178908
30
0
10
1.7890055798384377
20
2.9704078773161569
30
0
10
1.889015334608404
20
2.9950933921610496
30
0
10
1.9888065260927279
20
3.002522708279697
30
0
10
2.0882909921550072
20
2.9907054679832248
30
0
10
2.1875087794060821
20
2.9617837467222454
30
0
10
2.2865959552674147
20
2.9208639144156079
30
0
10
2.3857410649302895
20
2.8745507908343164
30
0
10
2.4851450903067986
20
2.8295559437354396
30
0
10
2.5849813035729974
20
2.7913507932387454
30
0
10
2.685351575028188
20
2.7626004804141391
30
0
10
2.7862809652600475
20
2.7437053299609824
30
0
10
2.8877190921063782
20
2.7336793693786281
30
0
10
2.9895382670687458
20
2.7309235541008685
30
0
10
3.091534742620115
20
2.7340103386823129
30
0
10
3.1934237633434908
20
2.7425496695488794
30
0
10
3.2949041314403442
20
2.7568051538435729
30
0
10
3.3957293915164151
20
2.7771769732228786
30
0
10
3.4957777605301681
20
2.8037279336934673
30
0
10
3.5951201896303422
20
2.8357024928373114
30
0
10
3.6940960370052798
20
2.8710175570175247
30
0
10
3.7931825139209945
20
2.9067138005694142
30
0
10
3.8928566373390576
20
2.9394466179139043
30
0
10
3.9934576603758836
20
2.9659661065239744
30
0
10
4.0950544820491599
20
2.9835925815321223
30
0
10
4.1972965443437094
20
2.990718881847465
30
0
10
4.2995912006906174
20
2.9867518758954326
30
0
10
4.4013013152933649
20
2.9720199908103617
30
0
10
4.501934641002646
20
2.9476934827893397
30
0
10
4.6013385897377104
20
2.9157005686881399
30
0
10
4.699887703996116
20
2.8786441597388301
30
0
10
4.7982527644568593
20
2.8395800147914319
30
0
10
4.8971765066015358
20
2.8017975189465822
30
0
10
4.9972456669262382
20
2.7685996877357368
30
0
10
5.0986675474298737
20
2.7430834897179279
30
0
10
5.201036075115014
20
2.7279201850731392
30
0
10
5.3035854449825104
20
2.7250982931996122
30
0
10
5.4054562635059256
20
2.7356625371635568
30
0
10
5.5059533401782899
20
2.7594591306103791
30
0
10
5.6048154942738782
20
2.7948649682283273
30
0
10
5.702456634687846
20
2.8385583653529971
30
0
10
5.7996784286005809
20
2.8860762240213726
30
0
10
5.8974088019575523
20
2.9323333743808018
30
0
10
5.9964289396743382
20
2.9721563201969965
30
0
10
6.0971095248664531
20
3.0008091482622286
30
0
10
6.1991306929230614
20
3.014527105333288
30
0
10
6.3017351718037951
20
3.0109041334575224
30
0
10
6.4039980591275611
20
2.9892825924212114
30
0
10
6.5050876959773154
20
2.9511329297843187
30
0
10
6.6045364488701717
20
2.9004629004292193
30
0
10
6.7024901421842227
20
2.8441483536665451
30
0
10
6.7994927914903958
20
2.7904287897598912
30
0
10
6.8962910025568238
20
2.7474857646357425
30
0
10
6.9936288801626114
20
2.7219723300789807
30
0
10
7.0920522631381813
20
2.7176040422133241
30
0
10
7.1916946320878585
20
2.7336092451096365
30
0
10
7.2923875024633951
20
2.7657519553719681
30
0
10
7.3937895699752056
20
2.8075069506142141
30
0
10
7.4955099453410412
20
2.8511802863519726
30
0
10
7.5972314892515138
20
2.8890464009250598
30
0
10
7.6988404920852327
20
2.9144923409832812
30
0
10
7.8003540916609451
20
2.9227381105259931
30
0
10
7.9018386157222604
20
2.9115451503374778
30
0
10
8.0033320445169469
20
2.8819171689239296
30
0
10
8.1047630187365076
20
2.8388378677111192
30
0
10
8.2058760335058842
20
2.7919077098441498
30
0
10
8.3063372298392899
20
2.7526696949117828
30
0
10
8.4058356927470363
20
2.7320162460299047
30
0
10
8.5041853237943279
20
2.7375930821094818
30
0
10
8.6014290815078311
20
2.7711393742216379
30
0
10
8.697935157676671
20
2.8260302969009676
30
0
10
8.7942606726260735
20
2.8905884633912327
30
0
10
8.8910248599650803
20
2.9511615938048807
30
0
10
8.9887760756227593
20
2.995349418396942
30
0
10
9.0878675602364627
20
3.0150217672293307
30
0
10
9.1883129176386689
20
3.0098172207444529
30
0
10
9.2898653830737885
20
2.985343550726864
30
0
10
9.3921221124471224
20
2.9507855210199936
30
0
10
9.4946202087959755
20
2.9167088967851922
30
0
10
9.5969344205665816
20
2.892823191036376
30
0
10
9.6987788674916899
20
2.8856535183846077
30
0
10
9.7999832567352954
20
2.8990843086922298
30
0
10
9.8803665724830978
20
2.92786209101414
30
0
10
9.94031509142898
20
2.9598754520141894
30
0
10
9.9801301359996888
20
2.9858526618682797
30
0
10
10
20
3
30
0
0
ENDSEC
0
SECTION
2
OBJECTS
0
DICTIONARY
5
C
100
AcDbDictionary
3
ACAD_GROUP
350
D
3
ACAD_MLINESTYLE
350
17
0
DICTIONARY
5
D
100
AcDbDictionary
0
DICTIONARY
5
1A
330
C
100
AcDbDictionary
0
DICTIONARY
5
17
100
AcDbDictionary
0
ENDSEC
0
EOF
