0
SECTION
2
HEADER
9
$INSUNITS
70
4
9
$ACADVER
1
AC1014
9
$HANDSEED
5
FFFF
0
ENDSEC
0
SECTION
2
TABLES
0
TABLE
2
VPORT
5
8
100
AcDbSymbolTable
0
ENDTAB
0
TABLE
2
LTYPE
5
5
100
AcDbSymbolTable
0
LTYPE
5
14
100
AcDbSymbolTableRecord
100
AcDbLinetypeTableRecord
2
BYBLOCK
70
0
0
LTYPE
5
15
100
AcDbSymbolTableRecord
100
AcDbLinetypeTableRecord
2
BYLAYER
70
0
0
ENDTAB
0
TABLE
2
LAYER
5
2
100
AcDbSymbolTable
70
2
0
LAYER
5
50
100
AcDbSymbolTableRecord
100
AcDbLayerTableRecord
2
0
70
0
6
CONTINUOUS
0
ENDTAB
0
TABLE
2
STYLE
5
3
100
AcDbSymbolTable
70
1
0
STYLE
5
11
100
AcDbSymbolTableRecord
100
AcDbTextStyleTableRecord
2
STANDARD
70
0
0
ENDTAB
0
TABLE
2
VIEW
5
6
100
AcDbSymbolTable
70
0
0
ENDTAB
0
TABLE
2
UCS
5
7
100
AcDbSymbolTable
70
0
0
ENDTAB
0
TABLE
2
APPID
5
9
100
AcDbSymbolTable
70
2
0
APPID
5
12
100
AcDbSymbolTableRecord
100
AcDbRegAppTableRecord
2
ACAD
70
0
0
ENDTAB
0
TABLE
2
DIMSTYLE
5
A
100
AcDbSymbolTable
70
1
0
ENDTAB
0
TABLE
2
BLOCK_RECORD
5
1
100
AcDbSymbolTable
70
1
0
BLOCK_RECORD
5
1F
100
AcDbSymbolTableRecord
100
AcDbBlockTableRecord
2
*MODEL_SPACE
0
BLOCK_RECORD
5
1B
100
AcDbSymbolTableRecord
100
AcDbBlockTableRecord
2
*PAPER_SPACE
0
ENDTAB
0
ENDSEC
0
SECTION
2
BLOCKS
0
BLOCK
5
20
100
AcDbEntity
100
AcDbBlockBegin
2
*MODEL_SPACE
0
ENDBLK
5
21
100
AcDbEntity
100
AcDbBlockEnd
0
BLOCK
5
1C
100
AcDbEntity
100
AcDbBlockBegin
2
*PAPER_SPACE
0
ENDBLK
5
1D
100
AcDbEntity
100
AcDbBlockEnd
0
ENDSEC
0
SECTION
2
ENTITIES
0
SPLINE
5
100
100
AcDbEntity
8
0
100
AcDbSpline
70
4
71
5
72
16
73
10
74
0
42
0.000000001
43
0.0000000001
44
0.0000000001
40
0
40
0
40
0
40
0
40
0
40
0
40
0.20000000000000001
40
0.40000000000000002
40
0.60000000000000009
40
0.80000000000000004
40
1
40
1
40
1
40
1
40
1
40
1
41
1
41
1
41
1
41
1
41
1
41
1
41
1
41
1
41
1
41
1
10
0
20
0
30
0
10
0
20
0.12000000000003158
30
0
10
0
20
0.36000000000007704
30
0
10
0
20
0.72000000000009301
30
0
10
0
20
1.2000000000000313
30
0
10
0
20
1.7999999999999146
30
0
10
0
20
2.2799999999998684
30
0
10
0
20
2.6399999999999042
30
0
10
0
20
2.8799999999999617
30
0
10
0
20
3
30
0
0
SPLINE
5
101
100
AcDbEntity
8
0
100
AcDbSpline
70
4
71
5
72
16
73
10
74
0
42
0.000000001
43
0.0000000001
44
0.0000000001
40
0
40
0
40
0
40
0
40
0
40
0
40
0.20000000000000001
40
0.40000000000000002
40
0.60000000000000009
40
0.80000000000000004
40
1
40
1
40
1
40
1
40
1
40
1
41
1
41
1
41
1
41
1
41
1
41
1
41
1
41
1
41
1
41
1
10
10
20
0
30
0
10
9.9999999999997495
20
0.12000000000003158
30
0
10
9.9999999999993197
20
0.36000000000007704
30
0
10
9.9999999999989129
20
0.72000000000009301
30
0
10
9.9999999999987672
20
1.2000000000000313
30
0
10
9.9999999999990248
20
1.7999999999999146
30
0
10
9.9999999999993889
20
2.2799999999998684
30
0
10
9.9999999999996998
20
2.6399999999999042
30
0
10
9.9999999999999005
20
2.8799999999999617
30
0
10
10
20
3
30
0
0
SPLINE
5
102
100
AcDbEntity
8
0
100
AcDbSpline
70
4
71
5
72
16
73
10
74
0
42
0.000000001
43
0.0000000001
44
0.0000000001
40
0
40
0
40
0
40
0
40
0
40
0
40
0.20000000000000001
40
0.40000000000000002
40
0.60000000000000009
40
0.80000000000000004
40
1
40
1
40
1
40
1
40
1
40
1
41
1
41
1
41
1
41
1
41
1
41
1
41
1
41
1
41
1
41
1
10
0
20
1.5
30
0
10
0.40000000000047375
20
1.499999999999694
30
0
10
1.2000000000012774
20
1.4999999999991638
30
0
10
2.4000000000020547
20
1.4999999999986278
30
0
10
4.0000000000023546
20
1.4999999999983737
30
0
10
6.0000000000019584
20
1.4999999999985913
30
0
10
7.6000000000012928
20
1.4999999999990359
30
0
10
8.800000000000697
20
1.4999999999994786
30
0
10
9.6000000000002395
20
1.4999999999998188
30
0
10
10
20
1.5
30
0
0
SPLINE
5
103
100
AcDbEntity
8
0
100
AcDbSpline
70
4
71
5
72
111
73
105
74
0
42
0.000000001
43
0.0000000001
44
0.0000000001
40
0
40
0
40
0
40
0
40
0
40
0
40
0.01
40
0.02
40
0.029999999999999999
40
0.040000000000000001
40
0.050000000000000003
40
0.060000000000000005
40
0.070000000000000007
40
0.080000000000000002
40
0.089999999999999997
40
0.099999999999999992
40
0.10999999999999999
40
0.11999999999999998
40
0.12999999999999998
40
0.13999999999999999
40
0.14999999999999999
40
0.16
40
0.17000000000000001
40
0.18000000000000002
40
0.19000000000000003
40
0.20000000000000004
40
0.21000000000000005
40
0.22000000000000006
40
0.23000000000000007
40
0.24000000000000007
40
0.25000000000000006
40
0.26000000000000006
40
0.27000000000000007
40
0.28000000000000008
40
0.29000000000000009
40
0.3000000000000001
40
0.31000000000000011
40
0.32000000000000012
40
0.33000000000000013
40
0.34000000000000014
40
0.35000000000000014
40
0.36000000000000015
40
0.37000000000000016
40
0.38000000000000017
40
0.39000000000000018
40
0.40000000000000019
40
0.4100000000000002
40
0.42000000000000021
40
0.43000000000000022
40
0.44000000000000022
40
0.45000000000000023
40
0.46000000000000024
40
0.47000000000000025
40
0.48000000000000026
40
0.49000000000000027
40
0.50000000000000022
40
0.51000000000000023
40
0.52000000000000024
40
0.53000000000000025
40
0.54000000000000026
40
0.55000000000000027
40
0.56000000000000028
40
0.57000000000000028
40
0.58000000000000029
40
0.5900000000000003
40
0.60000000000000031
40
0.61000000000000032
40
0.62000000000000033
40
0.63000000000000034
40
0.64000000000000035
40
0.65000000000000036
40
0.66000000000000036
40
0.67000000000000037
40
0.68000000000000038
40
0.69000000000000039
40
0.7000000000000004
40
0.71000000000000041
40
0.72000000000000042
40
0.73000000000000043
40
0.74000000000000044
40
0.75000000000000044
40
0.76000000000000045
40
0.77000000000000046
40
0.78000000000000047
40
0.79000000000000048
40
0.80000000000000049
40
0.8100000000000005
40
0.82000000000000051
40
0.83000000000000052
40
0.84000000000000052
40
0.85000000000000053
40
0.86000000000000054
40
0.87000000000000055
40
0.88000000000000056
40
0.89000000000000057
40
0.90000000000000058
40
0.91000000000000059
40
0.9200000000000006
40
0.9300000000000006
40
0.94000000000000061
40
0.95000000000000062
40
0.96000000000000063
40
0.97000000000000064
40
0.98000000000000065
40
0.99000000000000066
40
1
40
1
40
1
40
1
40
1
40
1
41
1
41
1
41
1
41
1
41
1
41
1
41
1
41
1
41
1
41
1
41
1
41
1
41
1
41
1
41
1
41
1
41
1
41
1
41
1
41
1
41
1
41
1
41
1
41
1
41
1
41
1
41
1
41
1
41
1
41
1
41
1
41
1
41
1
41
1
41
1
41
1
41
1
41
1
41
1
41
1
41
1
41
1
41
1
41
1
41
1
41
1
41
1
41
1
41
1
41
1
41
1
41
1
41
1
41
1
41
1
41
1
41
1
41
1
41
1
41
1
41
1
41
1
41
1
41
1
41
1
41
1
41
1
41
1
41
1
41
1
41
1
41
1
41
1
41
1
41
1
41
1
41
1
41
1
41
1
41
1
41
1
41
1
41
1
41
1
41
1
41
1
41
1
41
1
41
1
41
1
41
1
41
1
41
1
41
1
41
1
41
1
41
1
41
1
41
1
41
1
41
1
41
1
41
1
41
1
41
1
10
0
20
0
30
0
10
0.019436266391376522
20
0.010227984019672388
30
0
10
0.058415806031440379
20
0.029551835840313248
30
0
10
0.11720613538291239
20
0.055141269354924423
30
0
10
0.19623539143005808
20
0.082466681006469492
30
0
10
0.2960609912147017
20
0.10554474221829765
30
0
10
0.39683100659624138
20
0.11828763202961587
30
0
10
0.4983551831875126
20
0.12219236006606099
30
0
10
0.60031604631515456
20
0.11975943512566457
30
0
10
0.70223534172922308
20
0.11475583067232756
30
0
10
0.80359035408952217
20
0.11152444465756901
30
0
10
0.90393279505523205
20
0.11427875773194743
30
0
10
1.0030057723083274
20
0.12640662715508477
30
0
10
1.1008639901124777
20
0.14976139577717212
30
0
10
1.1979862467832545
20
0.18398081399901822
30
0
10
1.2950715037762688
20
0.22686168670131249
30
0
10
1.3928445573586798
20
0.27471169030836545
30
0
10
1.4918543506182496
20
0.3227022787980045
30
0
10
1.5922841215800125
20
0.3652348647592854
30
0
10
1.693732586721338
20
0.39626155882309949
30
0
10
1.7954326641421932
20
0.41031148650479365
30
0
10
1.8965026473110838
20
0.40356312689916485
30
0
10
1.9961879459621965
20
0.37491893853457237
30
0
10
2.0941013824265049
20
0.32703960972093471
30
0
10
2.1904790871599475
20
0.26750864051169798
30
0
10
2.2859766221202764
20
0.20664528314750158
30
0
10
2.3814500234691871
20
0.15523226922443256
30
0
10
2.4777349148305254
20
0.1221767220805384
30
0
10
2.575443896507541
20
0.11242365088242232
30
0
10
2.6747109058927649
20
0.12417668764225676
30
0
10
2.7752763321398288
20
0.15051156370913826
30
0
10
2.8766634939022975
20
0.18214922875599862
30
0
10
2.9783289040473386
20
0.20992583511593099
30
0
10
3.0798126143558795
20
0.22718590441029554
30
0
10
3.1809165521574285
20
0.2327357497062027
30
0
10
3.2816642519458448
20
0.22968268655700902
30
0
10
3.3822041698535905
20
0.22323244100982126
30
0
10
3.4827300286322451
20
0.21878191462492511
30
0
10
3.5833992932269609
20
0.22002696231807989
30
0
10
3.6842387806227537
20
0.22670134609478645
30
0
10
3.7851770548668817
20
0.23568046456687863
30
0
10
3.8861014008802823
20
0.24272662971431477
30
0
10
3.9869077091098899
20
0.24405601722726589
30
0
10
4.0875498767231511
20
0.23787581690383613
30
0
10
4.1880985923290028
20
0.22621219001942053
30
0
10
4.2886934086967523
20
0.21350150062570622
30
0
10
4.3894804125262263
20
0.20474425120044615
30
0
10
4.4905535496660312
20
0.20377429122141813
30
0
10
4.5918977341643483
20
0.21157122303673381
30
0
10
4.6933221727836241
20
0.2243059896464259
30
0
10
4.7945351168730648
20
0.23528196142753807
30
0
10
4.8952315141966549
20
0.23723253229459873
30
0
10
4.9951770462507215
20
0.22451734498953654
30
0
10
5.0942913227243505
20
0.19529867174208526
30
0
10
5.1927380172914148
20
0.15389960772936501
30
0
10
5.2908390460693209
20
0.10852919061704935
30
0
10
5.3889812374224153
20
0.068811104198536518
30
0
10
5.4875236436745078
20
0.043325437736842318
30
0
10
5.5867095335684507
20
0.037282380104438607
30
0
10
5.6865631790620306
20
0.04977231607827113
30
0
10
5.7869471799949412
20
0.075475420044183089
30
0
10
5.8876401795507949
20
0.10693501554288146
30
0
10
5.9884088022730637
20
0.13667617943645644
30
0
10
6.0890785381894732
20
0.15928222537953018
30
0
10
6.1896143110051849
20
0.17377415283955105
30
0
10
6.2900810511328666
20
0.18229347678915928
30
0
10
6.3905899855420039
20
0.18834973937528304
30
0
10
6.4912492254462375
20
0.19519175945030484
30
0
10
6.5921144626052017
20
0.2042015774483856
30
0
10
6.6931344628888176
20
0.21307748012046521
30
0
10
6.7941831124330232
20
0.21738679193286392
30
0
10
6.8950990208699778
20
0.2124057119327738
30
0
10
6.9957226088993565
20
0.19487555898521663
30
0
10
7.0959336907562527
20
0.1647480010983865
30
0
10
7.1956903932268732
20
0.12706425287203665
30
0
10
7.2950190743325738
20
0.089853081586462324
30
0
10
7.3940020565582651
20
0.061879570064564307
30
0
10
7.4927663645148481
20
0.050413982388290902
30
0
10
7.5914717061794343
20
0.059072989561730779
30
0
10
7.6902997768974029
20
0.085408563864653383
30
0
10
7.7894256886424698
20
0.12275967640199838
30
0
10
7.8889886684539965
20
0.16239437412473584
30
0
10
7.9890619751431826
20
0.19558161458017645
30
0
10
8.0896254476530682
20
0.21560864342378239
30
0
10
8.190530627893768
20
0.22004587143399532
30
0
10
8.2915521276842981
20
0.20991198032701225
30
0
10
8.3924480978451488
20
0.18849513632679785
30
0
10
8.4930183582612564
20
0.16028989216509948
30
0
10
8.5931614091355755
20
0.12990681990827491
30
0
10
8.6929376915872183
20
0.10093902954643119
30
0
10
8.7925177237670127
20
0.075947065581708273
30
0
10
8.8921225781943889
20
0.056527047242885889
30
0
10
8.9919663656612716
20
0.043345652287281468
30
0
10
9.0921997468631517
20
0.036193243392757223
30
0
10
9.1928479458497439
20
0.034015715258640077
30
0
10
9.2938405114297122
20
0.035182274953658936
30
0
10
9.3950482979135028
20
0.037769516644940902
30
0
10
9.4963179785365508
20
0.039841102842079382
30
0
10
9.5975071434910184
20
0.039725420018171059
30
0
10
9.6985203280544177
20
0.036304612967287882
30
0
10
9.7993005932740509
20
0.028911721747411873
30
0
10
9.8797157136817244
20
0.019553768918370323
30
0
10
9.9399052275072766
20
0.010549160000258906
30
0
10
9.9799774320979768
20
0.0036634863081669066
30
0
10
10
20
0
30
0
0
SPLINE
5
104
100
AcDbEntity
8
0
100
AcDbSpline
70
4
71
5
72
111
73
105
74
0
42
0.000000001
43
0.0000000001
44
0.0000000001
40
0
40
0
40
0
40
0
40
0
40
0
40
0.01
40
0.02
40
0.029999999999999999
40
0.040000000000000001
40
0.050000000000000003
40
0.060000000000000005
40
0.070000000000000007
40
0.080000000000000002
40
0.089999999999999997
40
0.099999999999999992
40
0.10999999999999999
40
0.11999999999999998
40
0.12999999999999998
40
0.13999999999999999
40
0.14999999999999999
40
0.16
40
0.17000000000000001
40
0.18000000000000002
40
0.19000000000000003
40
0.20000000000000004
40
0.21000000000000005
40
0.22000000000000006
40
0.23000000000000007
40
0.24000000000000007
40
0.25000000000000006
40
0.26000000000000006
40
0.27000000000000007
40
0.28000000000000008
40
0.29000000000000009
40
0.3000000000000001
40
0.31000000000000011
40
0.32000000000000012
40
0.33000000000000013
40
0.34000000000000014
40
0.35000000000000014
40
0.36000000000000015
40
0.37000000000000016
40
0.38000000000000017
40
0.39000000000000018
40
0.40000000000000019
40
0.4100000000000002
40
0.42000000000000021
40
0.43000000000000022
40
0.44000000000000022
40
0.45000000000000023
40
0.46000000000000024
40
0.47000000000000025
40
0.48000000000000026
40
0.49000000000000027
40
0.50000000000000022
40
0.51000000000000023
40
0.52000000000000024
40
0.53000000000000025
40
0.54000000000000026
40
0.55000000000000027
40
0.56000000000000028
40
0.57000000000000028
40
0.58000000000000029
40
0.5900000000000003
40
0.60000000000000031
40
0.61000000000000032
40
0.62000000000000033
40
0.63000000000000034
40
0.64000000000000035
40
0.65000000000000036
40
0.66000000000000036
40
0.67000000000000037
40
0.68000000000000038
40
0.69000000000000039
40
0.7000000000000004
40
0.71000000000000041
40
0.72000000000000042
40
0.73000000000000043
40
0.74000000000000044
40
0.75000000000000044
40
0.76000000000000045
40
0.77000000000000046
40
0.78000000000000047
40
0.79000000000000048
40
0.80000000000000049
40
0.8100000000000005
40
0.82000000000000051
40
0.83000000000000052
40
0.84000000000000052
40
0.85000000000000053
40
0.86000000000000054
40
0.87000000000000055
40
0.88000000000000056
40
0.89000000000000057
40
0.90000000000000058
40
0.91000000000000059
40
0.9200000000000006
40
0.9300000000000006
40
0.94000000000000061
40
0.95000000000000062
40
0.96000000000000063
40
0.97000000000000064
40
0.98000000000000065
40
0.99000000000000066
40
1
40
1
40
1
40
1
40
1
40
1
41
1
41
1
41
1
41
1
41
1
41
1
41
1
41
1
41
1
41
1
41
1
41
1
41
1
41
1
41
1
41
1
41
1
41
1
41
1
41
1
41
1
41
1
41
1
41
1
41
1
41
1
41
1
41
1
41
1
41
1
41
1
41
1
41
1
41
1
41
1
41
1
41
1
41
1
41
1
41
1
41
1
41
1
41
1
41
1
41
1
41
1
41
1
41
1
41
1
41
1
41
1
41
1
41
1
41
1
41
1
41
1
41
1
41
1
41
1
41
1
41
1
41
1
41
1
41
1
41
1
41
1
41
1
41
1
41
1
41
1
41
1
41
1
41
1
41
1
41
1
41
1
41
1
41
1
41
1
41
1
41
1
41
1
41
1
41
1
41
1
41
1
41
1
41
1
41
1
41
1
41
1
41
1
41
1
41
1
41
1
41
1
41
1
41
1
41
1
41
1
41
1
41
1
41
1
41
1
41
1
10
0
20
3
30
0
10
0.020221665138708739
20
2.997620263529877
30
0
10
0.060648020165538767
20
2.9924251513830336
30
0
10
0.12123662559195439
20
2.9833255391416227
30
0
10
0.20191957380673975
20
2.9685786376837537
30
0
10
0.30261793350538713
20
2.9461134221683021
30
0
10
0.40320467912437863
20
2.9206009620737334
30
0
10
0.50376699288628746
20
2.8940061293664558
30
0
10
0.60445117729695552
20
2.8696239234774881
30
0
10
0.70547453405391813
20
2.8523559522882334
30
0
10
0.80704278026056864
20
2.8471341859642925
30
0
10
0.90926842580398537
20
2.8573673973021938
30
0
10
1.0120929034446209
20
2.8834526231386688
30
0
10
1.1151973444404901
20
2.9210848229305193
30
0
10
1.2179459645279389
20
2.9601483253795697
30
0
10
1.3195867496614095
20
2.9882063315805016
30
0
10
1.4194325183067229
20
2.9936372705547725
30
0
10
1.5170407146905494
20
2.9687538140381928
30
0
10
1.6124144617853116
20
2.9132884396819336
30
0
10
1.7061331511630629
20
2.8366574360305203
30
0
10
1.7991020582135153
20
2.7536143472885968
30
0
10
1.8923531190602292
20
2.6807920907794083
30
0
10
1.9868206989620065
20
2.6328084886877128
30
0
10
2.0831402074469856
20
2.6187738606325537
30
0
10
2.18140435974072
20
2.6380484631651155
30
0
10
2.2812949117331289
20
2.682663131132343
30
0
10
2.3822645525176269
20
2.7406324621060003
30
0
10
2.4837052416188903
20
2.7990226576285377
30
0
10
2.5851124525455593
20
2.8469577432870752
30
0
10
2.6862767263213665
20
2.8790825967912621
30
0
10
2.7872237549842636
20
2.894784717306508
30
0
10
2.888109735537669
20
2.8966517041967372
30
0
10
2.989130652887674
20
2.8891851428811717
30
0
10
3.0904298695448569
20
2.8774383080667936
30
0
10
3.1919954505363495
20
2.8656071105888996
30
0
10
3.2937104440354323
20
2.8567339022969174
30
0
10
3.3954203825068858
20
2.852547335525899
30
0
10
3.4969950541710269
20
2.8532472955024426
30
0
10
3.5983915747657824
20
2.8573231711761879
30
0
10
3.6997200329539326
20
2.8613258074215042
30
0
10
3.8011642880669743
20
2.8611248691870768
30
0
10
3.9028977966792926
20
2.8532175686315147
30
0
10
4.005002669016994
20
2.8359961447653252
30
0
10
4.1073841232595578
20
2.8110861231155351
30
0
10
4.2096957193348947
20
2.7845100879529063
30
0
10
4.3114774121958241
20
2.7643603916035171
30
0
10
4.4122868012349112
20
2.7585841112637088
30
0
10
4.5118286166077537
20
2.7727964268226613
30
0
10
4.6100950419144198
20
2.8079173437873668
30
0
10
4.7074724902855083
20
2.858355904543461
30
0
10
4.8045664962396364
20
2.9147960697491171
30
0
10
4.9020524500597515
20
2.9665603502033404
30
0
10
5.0005168315263759
20
3.0041291295294759
30
0
10
5.1003017113753728
20
3.0216048432332183
30
0
10
5.2013497378770426
20
3.0191723238491033
30
0
10
5.3033364015192221
20
3.0012575306424303
30
0
10
5.4058007178505818
20
2.974715762329561
30
0
10
5.5082743159444369
20
2.9470315351918996
30
0
10
5.6104159929530244
20
2.924465826120489
30
0
10
5.7121302433110497
20
2.9103645446273658
30
0
10
5.8134848873025513
20
2.905567229117469
30
0
10
5.9146409928524468
20
2.9086622954916752
30
0
10
6.0157802259658153
20
2.9163267728135778
30
0
10
6.1170286182942002
20
2.9235639280080266
30
0
10
6.2183957892839175
20
2.9241724223352499
30
0
10
6.3198094439538153
20
2.9123891982158874
30
0
10
6.421138583256937
20
2.8844671824174966
30
0
10
6.5222208583582209
20
2.8401330696488776
30
0
10
6.6228885597331626
20
2.7844416175184268
30
0
10
6.7229938294388134
20
2.7284130372056876
30
0
10
6.8224265539779552
20
2.6851478925109373
30
0
10
6.9211343553061191
20
2.6665466870679504
30
0
10
7.0191400243699569
20
2.6799925307490922
30
0
10
7.116564250134255
20
2.7245764130300936
30
0
10
7.2136335708770467
20
2.788937843550233
30
0
10
7.3106237795066429
20
2.8564579202722937
30
0
10
7.4078120737030231
20
2.9094394452791406
30
0
10
7.5054265173671508
20
2.9336197430294204
30
0
10
7.6035949764715207
20
2.9226847203855777
30
0
10
7.7022988809918083
20
2.8823866172526431
30
0
10
7.8014276327306522
20
2.8260037933940456
30
0
10
7.9008280631072738
20
2.770229501539955
30
0
10
8.0003556830343374
20
2.7309042691166479
30
0
10
8.0999252629581786
20
2.7188081564696831
30
0
10
8.1995614647541402
20
2.7354435390323233
30
0
10
8.2993540724186623
20
2.7756004692495431
30
0
10
8.3994136345439934
20
2.829890656372902
30
0
10
8.4998269694117692
20
2.8872904267795803
30
0
10
8.6006127268674639
20
2.9376774627182312
30
0
10
8.7016768641758606
20
2.9743722297251196
30
0
10
8.8028548625116017
20
2.9937811621006216
30
0
10
8.9039541683684238
20
2.9950406423053595
30
0
10
9.0047961297060226
20
2.9796606477277106
30
0
10
9.1052590603279011
20
2.9511747599535405
30
0
10
9.2053182827195421
20
2.91477646416834
30
0
10
9.3050182485032167
20
2.8766344720396493
30
0
10
9.404447322686412
20
2.8432190226349374
30
0
10
9.5037117488518668
20
2.8206290138589676
30
0
10
9.6029096393152287
20
2.8139079556781095
30
0
10
9.7021059108663934
20
2.8263941371868899
30
0
10
9.8013396197436933
20
2.8600854031342324
30
0
10
9.8807720925594129
20
2.9047934636574642
30
0
10
9.9403749605160101
20
2.9484569921626971
30
0
10
9.9801228752275684
20
2.9820685696562781
30
0
10
10
20
3
30
0
0
ENDSEC
0
SECTION
2
OBJECTS
0
DICTIONARY
5
C
100
AcDbDictionary
3
ACAD_GROUP
350
D
3
ACAD_MLINESTYLE
350
17
0
DICTIONARY
5
D
100
AcDbDictionary
0
DICTIONARY
5
1A
330
C
100
AcDbDictionary
0
DICTIONARY
5
17
100
AcDbDictionary
0
ENDSEC
0
EOF
