0
SECTION
2
HEADER
9
$INSUNITS
70
4
9
$ACADVER
1
AC1014
9
$HANDSEED
5
FFFF
0
ENDSEC
0
SECTION
2
TABLES
0
TABLE
2
VPORT
5
8
100
AcDbSymbolTable
0
ENDTAB
0
TABLE
2
LTYPE
5
5
100
AcDbSymbolTable
0
LTYPE
5
14
100
AcDbSymbolTableRecord
100
AcDbLinetypeTableRecord
2
BYBLOCK
70
0
0
LTYPE
5
15
100
AcDbSymbolTableRecord
100
AcDbLinetypeTableRecord
2
BYLAYER
70
0
0
ENDTAB
0
TABLE
2
LAYER
5
2
100
AcDbSymbolTable
70
2
0
LAYER
5
50
100
AcDbSymbolTableRecord
100
AcDbLayerTableRecord
2
0
70
0
6
CONTINUOUS
0
ENDTAB
0
TABLE
2
STYLE
5
3
100
AcDbSymbolTable
70
1
0
STYLE
5
11
100
AcDbSymbolTableRecord
100
AcDbTextStyleTableRecord
2
STANDARD
70
0
0
ENDTAB
0
TABLE
2
VIEW
5
6
100
AcDbSymbolTable
70
0
0
ENDTAB
0
TABLE
2
UCS
5
7
100
AcDbSymbolTable
70
0
0
ENDTAB
0
TABLE
2
APPID
5
9
100
AcDbSymbolTable
70
2
0
APPID
5
12
100
AcDbSymbolTableRecord
100
AcDbRegAppTableRecord
2
ACAD
70
0
0
ENDTAB
0
TABLE
2
DIMSTYLE
5
A
100
AcDbSymbolTable
70
1
0
ENDTAB
0
TABLE
2
BLOCK_RECORD
5
1
100
AcDbSymbolTable
70
1
0
BLOCK_RECORD
5
1F
100
AcDbSymbolTableRecord
100
AcDbBlockTableRecord
2
*MODEL_SPACE
0
BLOCK_RECORD
5
1B
100
AcDbSymbolTableRecord
100
AcDbBlockTableRecord
2
*PAPER_SPACE
0
ENDTAB
0
ENDSEC
0
SECTION
2
BLOCKS
0
BLOCK
5
20
100
AcDbEntity
100
AcDbBlockBegin
2
*MODEL_SPACE
0
ENDBLK
5
21
100
AcDbEntity
100
AcDbBlockEnd
0
BLOCK
5
1C
100
AcDbEntity
100
AcDbBlockBegin
2
*PAPER_SPACE
0
ENDBLK
5
1D
100
AcDbEntity
100
AcDbBlockEnd
0
ENDSEC
0
SECTION
2
ENTITIES
0
SPLINE
5
100
100
AcDbEntity
8
0
100
AcDbSpline
70
4
71
5
72
16
73
10
74
0
42
0.000000001
43
0.0000000001
44
0.0000000001
40
0
40
0
40
0
40
0
40
0
40
0
40
0.20000000000000001
40
0.40000000000000002
40
0.60000000000000009
40
0.80000000000000004
40
1
40
1
40
1
40
1
40
1
40
1
41
1
41
1
41
1
41
1
41
1
41
1
41
1
41
1
41
1
41
1
10
0
20
0
30
0
10
0
20
0.12000000000003158
30
0
10
0
20
0.36000000000007704
30
0
10
0
20
0.72000000000009301
30
0
10
0
20
1.2000000000000313
30
0
10
0
20
1.7999999999999146
30
0
10
0
20
2.2799999999998684
30
0
10
0
20
2.6399999999999042
30
0
10
0
20
2.8799999999999617
30
0
10
0
20
3
30
0
0
SPLINE
5
101
100
AcDbEntity
8
0
100
AcDbSpline
70
4
71
5
72
16
73
10
74
0
42
0.000000001
43
0.0000000001
44
0.0000000001
40
0
40
0
40
0
40
0
40
0
40
0
40
0.20000000000000001
40
0.40000000000000002
40
0.60000000000000009
40
0.80000000000000004
40
1
40
1
40
1
40
1
40
1
40
1
41
1
41
1
41
1
41
1
41
1
41
1
41
1
41
1
41
1
41
1
10
10
20
0
30
0
10
9.9999999999997495
20
0.12000000000003158
30
0
10
9.9999999999993197
20
0.36000000000007704
30
0
10
9.9999999999989129
20
0.72000000000009301
30
0
10
9.9999999999987672
20
1.2000000000000313
30
0
10
9.9999999999990248
20
1.7999999999999146
30
0
10
9.9999999999993889
20
2.2799999999998684
30
0
10
9.9999999999996998
20
2.6399999999999042
30
0
10
9.9999999999999005
20
2.8799999999999617
30
0
10
10
20
3
30
0
0
SPLINE
5
102
100
AcDbEntity
8
0
100
AcDbSpline
70
4
71
5
72
16
73
10
74
0
42
0.000000001
43
0.0000000001
44
0.0000000001
40
0
40
0
40
0
40
0
40
0
40
0
40
0.20000000000000001
40
0.40000000000000002
40
0.60000000000000009
40
0.80000000000000004
40
1
40
1
40
1
40
1
40
1
40
1
41
1
41
1
41
1
41
1
41
1
41
1
41
1
41
1
41
1
41
1
10
0
20
1.5
30
0
10
0.40000000000047375
20
1.499999999999694
30
0
10
1.2000000000012774
20
1.4999999999991638
30
0
10
2.4000000000020547
20
1.4999999999986278
30
0
10
4.0000000000023546
20
1.4999999999983737
30
0
10
6.0000000000019584
20
1.4999999999985913
30
0
10
7.6000000000012928
20
1.4999999999990359
30
0
10
8.800000000000697
20
1.4999999999994786
30
0
10
9.6000000000002395
20
1.4999999999998188
30
0
10
10
20
1.5
30
0
0
SPLINE
5
103
100
AcDbEntity
8
0
100
AcDbSpline
70
4
71
5
72
111
73
105
74
0
42
0.000000001
43
0.0000000001
44
0.0000000001
40
0
40
0
40
0
40
0
40
0
40
0
40
0.01
40
0.02
40
0.029999999999999999
40
0.040000000000000001
40
0.050000000000000003
40
0.060000000000000005
40
0.070000000000000007
40
0.080000000000000002
40
0.089999999999999997
40
0.099999999999999992
40
0.10999999999999999
40
0.11999999999999998
40
0.12999999999999998
40
0.13999999999999999
40
0.14999999999999999
40
0.16
40
0.17000000000000001
40
0.18000000000000002
40
0.19000000000000003
40
0.20000000000000004
40
0.21000000000000005
40
0.22000000000000006
40
0.23000000000000007
40
0.24000000000000007
40
0.25000000000000006
40
0.26000000000000006
40
0.27000000000000007
40
0.28000000000000008
40
0.29000000000000009
40
0.3000000000000001
40
0.31000000000000011
40
0.32000000000000012
40
0.33000000000000013
40
0.34000000000000014
40
0.35000000000000014
40
0.36000000000000015
40
0.37000000000000016
40
0.38000000000000017
40
0.39000000000000018
40
0.40000000000000019
40
0.4100000000000002
40
0.42000000000000021
40
0.43000000000000022
40
0.44000000000000022
40
0.45000000000000023
40
0.46000000000000024
40
0.47000000000000025
40
0.48000000000000026
40
0.49000000000000027
40
0.50000000000000022
40
0.51000000000000023
40
0.52000000000000024
40
0.53000000000000025
40
0.54000000000000026
40
0.55000000000000027
40
0.56000000000000028
40
0.57000000000000028
40
0.58000000000000029
40
0.5900000000000003
40
0.60000000000000031
40
0.61000000000000032
40
0.62000000000000033
40
0.63000000000000034
40
0.64000000000000035
40
0.65000000000000036
40
0.66000000000000036
40
0.67000000000000037
40
0.68000000000000038
40
0.69000000000000039
40
0.7000000000000004
40
0.71000000000000041
40
0.72000000000000042
40
0.73000000000000043
40
0.74000000000000044
40
0.75000000000000044
40
0.76000000000000045
40
0.77000000000000046
40
0.78000000000000047
40
0.79000000000000048
40
0.80000000000000049
40
0.8100000000000005
40
0.82000000000000051
40
0.83000000000000052
40
0.84000000000000052
40
0.85000000000000053
40
0.86000000000000054
40
0.87000000000000055
40
0.88000000000000056
40
0.89000000000000057
40
0.90000000000000058
40
0.91000000000000059
40
0.9200000000000006
40
0.9300000000000006
40
0.94000000000000061
40
0.95000000000000062
40
0.96000000000000063
40
0.97000000000000064
40
0.98000000000000065
40
0.99000000000000066
40
1
40
1
40
1
40
1
40
1
40
1
41
1
41
1
41
1
41
1
41
1
41
1
41
1
41
1
41
1
41
1
41
1
41
1
41
1
41
1
41
1
41
1
41
1
41
1
41
1
41
1
41
1
41
1
41
1
41
1
41
1
41
1
41
1
41
1
41
1
41
1
41
1
41
1
41
1
41
1
41
1
41
1
41
1
41
1
41
1
41
1
41
1
41
1
41
1
41
1
41
1
41
1
41
1
41
1
41
1
41
1
41
1
41
1
41
1
41
1
41
1
41
1
41
1
41
1
41
1
41
1
41
1
41
1
41
1
41
1
41
1
41
1
41
1
41
1
41
1
41
1
41
1
41
1
41
1
41
1
41
1
41
1
41
1
41
1
41
1
41
1
41
1
41
1
41
1
41
1
41
1
41
1
41
1
41
1
41
1
41
1
41
1
41
1
41
1
41
1
41
1
41
1
41
1
41
1
41
1
41
1
41
1
41
1
41
1
41
1
41
1
10
0
20
0
30
0
10
0.020090943814582887
20
0.012663558421938205
30
0
10
0.060309092085332257
20
0.036163531016706947
30
0
10
0.12074509681114343
20
0.065931992912120888
30
0
10
0.20154403308668983
20
0.094659053120617412
30
0
10
0.30289869163226912
20
0.11282785786875611
30
0
10
0.4045888980101241
20
0.11488620411443175
30
0
10
0.50657360723945877
20
0.1040891853408369
30
0
10
0.60878390579619479
20
0.085915462414524621
30
0
10
0.71111687327845119
20
0.068484186262409472
30
0
10
0.81344751910331425
20
0.060342433113775476
30
0
10
0.91563968193708145
20
0.068326430489910717
30
0
10
1.0175574051852696
20
0.095531560272080054
30
0
10
1.1190758911431828
20
0.138913472354286
30
0
10
1.2200932509459326
20
0.18799628333479135
30
0
10
1.3205446990996814
20
0.2292028821093986
30
0
10
1.420417331252507
20
0.24957838003990834
30
0
10
1.5197629329816245
20
0.24052098203424027
30
0
10
1.6187158384193179
20
0.20204650035365754
30
0
10
1.7174960872906211
20
0.14521129934188548
30
0
10
1.8163507342655019
20
0.086481083462737779
30
0
10
1.9155027493537058
20
0.043164526549142247
30
0
10
2.0150995536088918
20
0.028628263568779948
30
0
10
2.1151555736571845
20
0.047145400117225109
30
0
10
2.2155152486419438
20
0.090247115922559448
30
0
10
2.3159399195966972
20
0.14245118986936767
30
0
10
2.4161819309741848
20
0.1859879267963345
30
0
10
2.5160603300675182
20
0.20572019190038884
30
0
10
2.6155436948052753
20
0.19442896543525764
30
0
10
2.7148069388369853
20
0.15662044224715277
30
0
10
2.8141371985409069
20
0.10363377670972185
30
0
10
2.913856755862497
20
0.049739726979090425
30
0
10
3.0142420287250369
20
0.0079968508215588745
30
0
10
3.1154380821701895
20
-0.014113065830962878
30
0
10
3.217393008327178
20
-0.018007640217287166
30
0
10
3.3199270490486503
20
-0.010262973461147859
30
0
10
3.422788039333172
20
0.0004374386822269595
30
0
10
3.5257093719485386
20
0.0064208219309176045
30
0
10
3.6284732215947053
20
0.0045793451437593615
30
0
10
3.7309516911185527
20
-0.0017094662317108922
30
0
10
3.8330756306223392
20
-0.0059093105798452596
30
0
10
3.9348147131036577
20
-0.00086290867765936678
30
0
10
4.0361556771974456
20
0.018599083070893127
30
0
10
4.1370752246021434
20
0.052508058721254608
30
0
10
4.2375358537034167
20
0.094768625853010754
30
0
10
4.3375238977435036
20
0.13627092387210749
30
0
10
4.4370812064939251
20
0.16717889165571737
30
0
10
4.5363330641716439
20
0.17936876668699792
30
0
10
4.6355329826555511
20
0.16923481849013572
30
0
10
4.7350486397887304
20
0.13886412358000835
30
0
10
4.8352461730773939
20
0.094161028400257002
30
0
10
4.9363915834332497
20
0.043656885388482426
30
0
10
5.0385573350922392
20
-0.0029434013160942918
30
0
10
5.14149751435599
20
-0.036126213093488541
30
0
10
5.2446367027518921
20
-0.047876099071819403
30
0
10
5.3472492884224678
20
-0.032686946141509604
30
0
10
5.4486006716185518
20
0.011242702500024716
30
0
10
5.5480916459848242
20
0.081123610519583389
30
0
10
5.6454310028702483
20
0.16797739403606682
30
0
10
5.7406822956993206
20
0.25755845456680782
30
0
10
5.8341691689229211
20
0.33394795532751426
30
0
10
5.9264186879238698
20
0.38251389654408724
30
0
10
6.01808904900542
20
0.39296702257396909
30
0
10
6.1099047207339039
20
0.36276435972742055
30
0
10
6.2025864668869168
20
0.29919414330495242
30
0
10
6.2967710739435132
20
0.21546389024194779
30
0
10
6.3929333000012285
20
0.12767302060342881
30
0
10
6.4913045084375973
20
0.051399799931217238
30
0
10
6.591798055666275
20
-0.0014473050140637286
30
0
10
6.6939167445514656
20
-0.026162339398611852
30
0
10
6.7969255146825693
20
-0.023971595394128416
30
0
10
6.9000464682665292
20
-0.00038553746061277419
30
0
10
7.0026444574349114
20
0.036310575241029215
30
0
10
7.1044197629572388
20
0.076622846564896666
30
0
10
7.2055895413019035
20
0.11138685150401009
30
0
10
7.306652239836354
20
0.13292913031021605
30
0
10
7.4081570231696583
20
0.13626270786194711
30
0
10
7.5104785313631028
20
0.12021309054373519
30
0
10
7.613572819791977
20
0.08871215091378977
30
0
10
7.7167884494521308
20
0.051633542092391967
30
0
10
7.8191856252470506
20
0.021481938886123528
30
0
10
7.9198198334472387
20
0.010354437425381903
30
0
10
8.0180251380477507
20
0.02694567260747676
30
0
10
8.1137301378042093
20
0.073187973003293591
30
0
10
8.2076629672481403
20
0.14207956910646263
30
0
10
8.3009927773121213
20
0.22150624380195938
30
0
10
8.3950484967849039
20
0.29724222477991019
30
0
10
8.4910026289558402
20
0.35632118003773422
30
0
10
8.5895816911641081
20
0.3901265578121077
30
0
10
8.6907332163565734
20
0.39793643616227192
30
0
10
8.7938390714451629
20
0.38476136084597157
30
0
10
8.8979747804264271
20
0.35870176035114809
30
0
10
9.0021512852744436
20
0.32848861311749233
30
0
10
9.1055659233629775
20
0.30092801022399907
30
0
10
9.2078442446027609
20
0.27844097397369916
30
0
10
9.3089309673780054
20
0.26023832876644015
30
0
10
9.4089857652488007
20
0.24344615587056237
30
0
10
9.5082787260326587
20
0.22423345362869229
30
0
10
9.6070830922803481
20
0.19897103732470772
30
0
10
9.7055776452849187
20
0.16528242436794793
30
0
10
9.803870784826481
20
0.12173397361467481
30
0
10
9.8823872096159349
20
0.078441039972904025
30
0
10
9.9412162660351751
20
0.041110468403977828
30
0
10
9.9804097381479409
20
0.014063482862549459
30
0
10
10
20
0
30
0
0
SPLINE
5
104
100
AcDbEntity
8
0
100
AcDbSpline
70
4
71
5
72
111
73
105
74
0
42
0.000000001
43
0.0000000001
44
0.0000000001
40
0
40
0
40
0
40
0
40
0
40
0
40
0.01
40
0.02
40
0.029999999999999999
40
0.040000000000000001
40
0.050000000000000003
40
0.060000000000000005
40
0.070000000000000007
40
0.080000000000000002
40
0.089999999999999997
40
0.099999999999999992
40
0.10999999999999999
40
0.11999999999999998
40
0.12999999999999998
40
0.13999999999999999
40
0.14999999999999999
40
0.16
40
0.17000000000000001
40
0.18000000000000002
40
0.19000000000000003
40
0.20000000000000004
40
0.21000000000000005
40
0.22000000000000006
40
0.23000000000000007
40
0.24000000000000007
40
0.25000000000000006
40
0.26000000000000006
40
0.27000000000000007
40
0.28000000000000008
40
0.29000000000000009
40
0.3000000000000001
40
0.31000000000000011
40
0.32000000000000012
40
0.33000000000000013
40
0.34000000000000014
40
0.35000000000000014
40
0.36000000000000015
40
0.37000000000000016
40
0.38000000000000017
40
0.39000000000000018
40
0.40000000000000019
40
0.4100000000000002
40
0.42000000000000021
40
0.43000000000000022
40
0.44000000000000022
40
0.45000000000000023
40
0.46000000000000024
40
0.47000000000000025
40
0.48000000000000026
40
0.49000000000000027
40
0.50000000000000022
40
0.51000000000000023
40
0.52000000000000024
40
0.53000000000000025
40
0.54000000000000026
40
0.55000000000000027
40
0.56000000000000028
40
0.57000000000000028
40
0.58000000000000029
40
0.5900000000000003
40
0.60000000000000031
40
0.61000000000000032
40
0.62000000000000033
40
0.63000000000000034
40
0.64000000000000035
40
0.65000000000000036
40
0.66000000000000036
40
0.67000000000000037
40
0.68000000000000038
40
0.69000000000000039
40
0.7000000000000004
40
0.71000000000000041
40
0.72000000000000042
40
0.73000000000000043
40
0.74000000000000044
40
0.75000000000000044
40
0.76000000000000045
40
0.77000000000000046
40
0.78000000000000047
40
0.79000000000000048
40
0.80000000000000049
40
0.8100000000000005
40
0.82000000000000051
40
0.83000000000000052
40
0.84000000000000052
40
0.85000000000000053
40
0.86000000000000054
40
0.87000000000000055
40
0.88000000000000056
40
0.89000000000000057
40
0.90000000000000058
40
0.91000000000000059
40
0.9200000000000006
40
0.9300000000000006
40
0.94000000000000061
40
0.95000000000000062
40
0.96000000000000063
40
0.97000000000000064
40
0.98000000000000065
40
0.99000000000000066
40
1
40
1
40
1
40
1
40
1
40
1
41
1
41
1
41
1
41
1
41
1
41
1
41
1
41
1
41
1
41
1
41
1
41
1
41
1
41
1
41
1
41
1
41
1
41
1
41
1
41
1
41
1
41
1
41
1
41
1
41
1
41
1
41
1
41
1
41
1
41
1
41
1
41
1
41
1
41
1
41
1
41
1
41
1
41
1
41
1
41
1
41
1
41
1
41
1
41
1
41
1
41
1
41
1
41
1
41
1
41
1
41
1
41
1
41
1
41
1
41
1
41
1
41
1
41
1
41
1
41
1
41
1
41
1
41
1
41
1
41
1
41
1
41
1
41
1
41
1
41
1
41
1
41
1
41
1
41
1
41
1
41
1
41
1
41
1
41
1
41
1
41
1
41
1
41
1
41
1
41
1
41
1
41
1
41
1
41
1
41
1
41
1
41
1
41
1
41
1
41
1
41
1
41
1
41
1
41
1
41
1
41
1
41
1
41
1
41
1
41
1
10
0
20
3
30
0
10
0.019450313217714482
20
2.9981751274451973
30
0
10
0.058407273817947525
20
2.9931554471030637
30
0
10
0.11701171645671742
20
2.9815161821614016
30
0
10
0.19548903837678602
20
2.957775803246582
30
0
10
0.29413905115535144
20
2.9149710682307366
30
0
10
0.39331174621043624
20
2.8607598672768764
30
0
10
0.49294512360781034
20
2.7986161020078275
30
0
10
0.59293591200419271
20
2.7343028111225487
30
0
10
0.69312752768904051
20
2.6765787392668643
30
0
10
0.79333344248419768
20
2.6350871225817696
30
0
10
0.89336286014801503
20
2.6180771360855681
30
0
10
0.99304575383471416
20
2.6301365388416347
30
0
10
1.0922577156364806
20
2.6700291231714517
30
0
10
1.190946185378323
20
2.7281839210797845
30
0
10
1.289129815351344
20
2.7900886296089311
30
0
10
1.3868954896903967
20
2.8400338658097963
30
0
10
1.4843971221356267
20
2.8648494734326264
30
0
10
1.581851740808899
20
2.8573701187656009
30
0
10
1.6795420343984455
20
2.8207424125871339
30
0
10
1.7777681112101589
20
2.7656163645606662
30
0
10
1.8767919363945706
20
2.7061431906690929
30
0
10
1.9767812305826284
20
2.6562529906290395
30
0
10
2.0777604962118614
20
2.6261315184826768
30
0
10
2.1795409471686762
20
2.6177935808404311
30
0
10
2.2817844652065342
20
2.626744898213885
30
0
10
2.384103657071317
20
2.6453264205388205
30
0
10
2.4861524653492149
20
2.6655679358034172
30
0
10
2.5877144867910746
20
2.6820658485308044
30
0
10
2.6888088469005478
20
2.6953278808520253
30
0
10
2.7896112378878573
20
2.709794875158285
30
0
10
2.8903483496394893
20
2.7310818575245639
30
0
10
2.9911995553067792
20
2.7634418371006184
30
0
10
3.0922005412409859
20
2.8072605626962415
30
0
10
3.1931326126002002
20
2.8562006336578838
30
0
10
3.293635009492851
20
2.8999282808449509
30
0
10
3.3933355452311016
20
2.927306123709148
30
0
10
3.4919774152922467
20
2.9294758929134854
30
0
10
3.5895412561709765
20
2.9028531625526481
30
0
10
3.6863865478172473
20
2.8525253914088737
30
0
10
3.7831038160609203
20
2.7894964188604816
30
0
10
3.8803457944211099
20
2.7274590222118889
30
0
10
3.9786593409720443
20
2.6796379283436011
30
0
10
4.0783327152584148
20
2.6558360405172787
30
0
10
4.1791953667584716
20
2.6587882405245717
30
0
10
4.2807400721059548
20
2.6853005259338647
30
0
10
4.3823239543781831
20
2.7285860342471628
30
0
10
4.4833482681061554
20
2.7802344031600441
30
0
10
4.583434159569685
20
2.8322352956683519
30
0
10
4.682634066211838
20
2.8792351280013846
30
0
10
4.781323553164734
20
2.9183670473491592
30
0
10
4.880034348176526
20
2.9486082150697572
30
0
10
4.9793030468159731
20
2.9702961329531248
30
0
10
5.0795244943690658
20
2.9845963476255823
30
0
10
5.1807739370784827
20
2.9929470020673166
30
0
10
5.2828656520263344
20
2.9968578327382418
30
0
10
5.3854689677401959
20
2.9978044809733744
30
0
10
5.4882063620052923
20
2.9970888014974633
30
0
10
5.5907548851748334
20
2.9957156402357614
30
0
10
5.6929571722052188
20
2.9942563075824142
30
0
10
5.7947892960885605
20
2.9927957660788285
30
0
10
5.8963106574225534
20
2.9908893895345905
30
0
10
5.9976202240807739
20
2.9875139915087408
30
0
10
6.0988104724798422
20
2.9810256061005664
30
0
10
6.1999213823806265
20
2.9691009011938441
30
0
10
6.3009472511462139
20
2.9494502684303203
30
0
10
6.4018448358058091
20
2.9205510687325038
30
0
10
6.5025410544784723
20
2.8823676486441885
30
0
10
6.6029406505548485
20
2.8370921732558454
30
0
10
6.7029344208834649
20
2.7898379872782435
30
0
10
6.8024370788457045
20
2.7472502545001531
30
0
10
6.9014244605041233
20
2.7161619887394823
30
0
10
6.9999710439475464
20
2.7022332700775205
30
0
10
7.0982873246933611
20
2.7085975958937736
30
0
10
7.1967575264547357
20
2.7345021290344373
30
0
10
7.2958181817838286
20
2.7761882203968886
30
0
10
7.395837158305798
20
2.8277712681876932
30
0
10
7.4969914487143274
20
2.8821199133938102
30
0
10
7.5991477836610635
20
2.9317329180259106
30
0
10
7.701735214429446
20
2.9696206162075396
30
0
10
7.8039587227475513
20
2.9900243708654051
30
0
10
7.9050224984087292
20
2.9891382109003048
30
0
10
8.0043474082368746
20
2.9658198521666428
30
0
10
8.1017961438844992
20
2.9223333731116057
30
0
10
8.1978808828072651
20
2.865008601443165
30
0
10
8.2934950009855637
20
2.8025133665013238
30
0
10
8.3896642010382774
20
2.744226903138367
30
0
10
8.4872841981728033
20
2.6985385565486766
30
0
10
8.5868785500140969
20
2.671264102341111
30
0
10
8.6883091615780952
20
2.6637808768032527
30
0
10
8.7909625121291342
20
2.6739988270889437
30
0
10
8.8939968257205173
20
2.6976961337117067
30
0
10
8.9965689990206634
20
2.7297307364174417
30
0
10
9.0980665240977228
20
2.7652880675013209
30
0
10
9.1983468626236871
20
2.8011544723919037
30
0
10
9.2976194811538537
20
2.8354317113793264
30
0
10
9.3963155341361464
20
2.8671951037823113
30
0
10
9.4949613813788485
20
2.8961714412519521
30
0
10
9.5940526630791005
20
2.9224133325665713
30
0
10
9.6939224680312268
20
2.9459637435091128
30
0
10
9.7947691293286869
20
2.966847334004441
30
0
10
9.876307243314459
20
2.9814320485412722
30
0
10
9.9379596575709872
20
2.9911792366196628
30
0
10
9.9792829405780594
20
2.9971479770158509
30
0
10
10
20
3
30
0
0
ENDSEC
0
SECTION
2
OBJECTS
0
DICTIONARY
5
C
100
AcDbDictionary
3
ACAD_GROUP
350
D
3
ACAD_MLINESTYLE
350
17
0
DICTIONARY
5
D
100
AcDbDictionary
0
DICTIONARY
5
1A
330
C
100
AcDbDictionary
0
DICTIONARY
5
17
100
AcDbDictionary
0
ENDSEC
0
EOF
