0
SECTION
2
HEADER
9
$INSUNITS
70
4
9
$ACADVER
1
AC1014
9
$HANDSEED
5
FFFF
0
ENDSEC
0
SECTION
2
TABLES
0
TABLE
2
VPORT
5
8
100
AcDbSymbolTable
0
ENDTAB
0
TABLE
2
LTYPE
5
5
100
AcDbSymbolTable
0
LTYPE
5
14
100
AcDbSymbolTableRecord
100
AcDbLinetypeTableRecord
2
BYBLOCK
70
0
0
LTYPE
5
15
100
AcDbSymbolTableRecord
100
AcDbLinetypeTableRecord
2
BYLAYER
70
0
0
ENDTAB
0
TABLE
2
LAYER
5
2
100
AcDbSymbolTable
70
2
0
LAYER
5
50
100
AcDbSymbolTableRecord
100
AcDbLayerTableRecord
2
0
70
0
6
CONTINUOUS
0
ENDTAB
0
TABLE
2
STYLE
5
3
100
AcDbSymbolTable
70
1
0
STYLE
5
11
100
AcDbSymbolTableRecord
100
AcDbTextStyleTableRecord
2
STANDARD
70
0
0
ENDTAB
0
TABLE
2
VIEW
5
6
100
AcDbSymbolTable
70
0
0
ENDTAB
0
TABLE
2
UCS
5
7
100
AcDbSymbolTable
70
0
0
ENDTAB
0
TABLE
2
APPID
5
9
100
AcDbSymbolTable
70
2
0
APPID
5
12
100
AcDbSymbolTableRecord
100
AcDbRegAppTableRecord
2
ACAD
70
0
0
ENDTAB
0
TABLE
2
DIMSTYLE
5
A
100
AcDbSymbolTable
70
1
0
ENDTAB
0
TABLE
2
BLOCK_RECORD
5
1
100
AcDbSymbolTable
70
1
0
BLOCK_RECORD
5
1F
100
AcDbSymbolTableRecord
100
AcDbBlockTableRecord
2
*MODEL_SPACE
0
BLOCK_RECORD
5
1B
100
AcDbSymbolTableRecord
100
AcDbBlockTableRecord
2
*PAPER_SPACE
0
ENDTAB
0
ENDSEC
0
SECTION
2
BLOCKS
0
BLOCK
5
20
100
AcDbEntity
100
AcDbBlockBegin
2
*MODEL_SPACE
0
ENDBLK
5
21
100
AcDbEntity
100
AcDbBlockEnd
0
BLOCK
5
1C
100
AcDbEntity
100
AcDbBlockBegin
2
*PAPER_SPACE
0
ENDBLK
5
1D
100
AcDbEntity
100
AcDbBlockEnd
0
ENDSEC
0
SECTION
2
ENTITIES
0
SPLINE
5
100
100
AcDbEntity
8
0
100
AcDbSpline
70
4
71
5
72
16
73
10
74
0
42
0.000000001
43
0.0000000001
44
0.0000000001
40
0
40
0
40
0
40
0
40
0
40
0
40
0.20000000000000001
40
0.40000000000000002
40
0.60000000000000009
40
0.80000000000000004
40
1
40
1
40
1
40
1
40
1
40
1
41
1
41
1
41
1
41
1
41
1
41
1
41
1
41
1
41
1
41
1
10
0
20
0
30
0
10
0
20
0.12000000000003158
30
0
10
0
20
0.36000000000007704
30
0
10
0
20
0.72000000000009301
30
0
10
0
20
1.2000000000000313
30
0
10
0
20
1.7999999999999146
30
0
10
0
20
2.2799999999998684
30
0
10
0
20
2.6399999999999042
30
0
10
0
20
2.8799999999999617
30
0
10
0
20
3
30
0
0
SPLINE
5
101
100
AcDbEntity
8
0
100
AcDbSpline
70
4
71
5
72
16
73
10
74
0
42
0.000000001
43
0.0000000001
44
0.0000000001
40
0
40
0
40
0
40
0
40
0
40
0
40
0.20000000000000001
40
0.40000000000000002
40
0.60000000000000009
40
0.80000000000000004
40
1
40
1
40
1
40
1
40
1
40
1
41
1
41
1
41
1
41
1
41
1
41
1
41
1
41
1
41
1
41
1
10
10
20
0
30
0
10
9.9999999999997495
20
0.12000000000003158
30
0
10
9.9999999999993197
20
0.36000000000007704
30
0
10
9.9999999999989129
20
0.72000000000009301
30
0
10
9.9999999999987672
20
1.2000000000000313
30
0
10
9.9999999999990248
20
1.7999999999999146
30
0
10
9.9999999999993889
20
2.2799999999998684
30
0
10
9.9999999999996998
20
2.6399999999999042
30
0
10
9.9999999999999005
20
2.8799999999999617
30
0
10
10
20
3
30
0
0
SPLINE
5
102
100
AcDbEntity
8
0
100
AcDbSpline
70
4
71
5
72
16
73
10
74
0
42
0.000000001
43
0.0000000001
44
0.0000000001
40
0
40
0
40
0
40
0
40
0
40
0
40
0.20000000000000001
40
0.40000000000000002
40
0.60000000000000009
40
0.80000000000000004
40
1
40
1
40
1
40
1
40
1
40
1
41
1
41
1
41
1
41
1
41
1
41
1
41
1
41
1
41
1
41
1
10
0
20
1.5
30
0
10
0.40000000000047375
20
1.499999999999694
30
0
10
1.2000000000012774
20
1.4999999999991638
30
0
10
2.4000000000020547
20
1.4999999999986278
30
0
10
4.0000000000023546
20
1.4999999999983737
30
0
10
6.0000000000019584
20
1.4999999999985913
30
0
10
7.6000000000012928
20
1.4999999999990359
30
0
10
8.800000000000697
20
1.4999999999994786
30
0
10
9.6000000000002395
20
1.4999999999998188
30
0
10
10
20
1.5
30
0
0
SPLINE
5
103
100
AcDbEntity
8
0
100
AcDbSpline
70
4
71
5
72
61
73
55
74
0
42
0.000000001
43
0.0000000001
44
0.0000000001
40
0
40
0
40
0
40
0
40
0
40
0
40
0.02
40
0.040000000000000001
40
0.059999999999999998
40
0.080000000000000002
40
0.10000000000000001
40
0.12000000000000001
40
0.14000000000000001
40
0.16
40
0.17999999999999999
40
0.19999999999999998
40
0.21999999999999997
40
0.23999999999999996
40
0.25999999999999995
40
0.27999999999999997
40
0.29999999999999999
40
0.32000000000000001
40
0.34000000000000002
40
0.36000000000000004
40
0.38000000000000006
40
0.40000000000000008
40
0.4200000000000001
40
0.44000000000000011
40
0.46000000000000013
40
0.48000000000000015
40
0.50000000000000011
40
0.52000000000000013
40
0.54000000000000015
40
0.56000000000000016
40
0.58000000000000018
40
0.6000000000000002
40
0.62000000000000022
40
0.64000000000000024
40
0.66000000000000025
40
0.68000000000000027
40
0.70000000000000029
40
0.72000000000000031
40
0.74000000000000032
40
0.76000000000000034
40
0.78000000000000036
40
0.80000000000000038
40
0.8200000000000004
40
0.84000000000000041
40
0.86000000000000043
40
0.88000000000000045
40
0.90000000000000047
40
0.92000000000000048
40
0.9400000000000005
40
0.96000000000000052
40
0.98000000000000054
40
1
40
1
40
1
40
1
40
1
40
1
41
1
41
1
41
1
41
1
41
1
41
1
41
1
41
1
41
1
41
1
41
1
41
1
41
1
41
1
41
1
41
1
41
1
41
1
41
1
41
1
41
1
41
1
41
1
41
1
41
1
41
1
41
1
41
1
41
1
41
1
41
1
41
1
41
1
41
1
41
1
41
1
41
1
41
1
41
1
41
1
41
1
41
1
41
1
41
1
41
1
41
1
41
1
41
1
41
1
41
1
41
1
41
1
41
1
41
1
41
1
10
0
20
0
30
0
10
0.040208806876298846
20
0.00089068020246129732
30
0
10
0.12058505152461535
20
0.0035075726059407906
30
0
10
0.24102531117111889
20
0.0099395074697767836
30
0
10
0.40136394775625639
20
0.023531877575499894
30
0
10
0.60138315588441438
20
0.048671004761805942
30
0
10
0.80102954345804878
20
0.081289186826346574
30
0
10
1.0003669303524645
20
0.12002116053167332
30
0
10
1.1995029384236935
20
0.16256597003610582
30
0
10
1.3986002775588009
20
0.20544606997958406
30
0
10
1.597840189725503
20
0.24469273031759337
30
0
10
1.7973860691035406
20
0.27652794131135655
30
0
10
1.9973468573668931
20
0.29805001619101773
30
0
10
2.1977407182398827
20
0.30791434569447562
30
0
10
2.3984574986544187
20
0.30703494404122944
30
0
10
2.5993117495132068
20
0.29774138893124891
30
0
10
2.8000966650667558
20
0.28292045522397741
30
0
10
3.0006375458954255
20
0.26516636836095736
30
0
10
3.2008455924399959
20
0.2459260597275961
30
0
10
3.4007715253538446
20
0.22464811385274921
30
0
10
3.6005495060260593
20
0.19979056057158825
30
0
10
3.8003414773964552
20
0.16982255941094593
30
0
10
4.0002814920229088
20
0.13422724720902995
30
0
10
4.2004199625515701
20
0.094507320742935774
30
0
10
4.4006679009060754
20
0.055191330333599659
30
0
10
4.6008579233014606
20
0.022379826555877575
30
0
10
4.8008049277293416
20
0.0022981558194346218
30
0
10
5.0003667875896571
20
-0.00015160161345443622
30
0
10
5.1995051468599183
20
0.017158041270591281
30
0
10
5.3983463210214815
20
0.052125453993142501
30
0
10
5.597113903652609
20
0.09969316967956468
30
0
10
5.7960619022555262
20
0.15310979966305527
30
0
10
5.9954074673177171
20
0.20519404098838759
30
0
10
6.195264535119799
20
0.24958681905222452
30
0
10
6.3955746692773641
20
0.28203311746407234
30
0
10
6.5961681726032282
20
0.30024605060670329
30
0
10
6.796827579665452
20
0.30374510349002026
30
0
10
6.9973502720781324
20
0.29371022781066441
30
0
10
7.1976110353166032
20
0.2728319696721041
30
0
10
7.3976259475029007
20
0.24517460892143061
30
0
10
7.5975044877811504
20
0.21540724896300062
30
0
10
7.7974004689104239
20
0.18802987396904111
30
0
10
7.9974634504637097
20
0.16659922986744155
30
0
10
8.1977902390530808
20
0.15295785570006226
30
0
10
8.3983755214816398
20
0.14644349474918289
30
0
10
8.5991404082246721
20
0.14461346226056532
30
0
10
8.7999617335122657
20
0.14398279942283665
30
0
10
9.0007009156857585
20
0.1407534993622063
30
0
10
9.2012329678252325
20
0.13154683403007192
30
0
10
9.4014753664036146
20
0.11413257938447727
30
0
10
9.6013792405802825
20
0.087190596414349883
30
0
10
9.7610124342457354
20
0.057499708478089537
30
0
10
9.8805708981731293
20
0.030563874083153943
30
0
10
9.9602026195948881
20
0.010533485718638082
30
0
10
10
20
0
30
0
0
SPLINE
5
104
100
AcDbEntity
8
0
100
AcDbSpline
70
4
71
5
72
61
73
55
74
0
42
0.000000001
43
0.0000000001
44
0.0000000001
40
0
40
0
40
0
40
0
40
0
40
0
40
0.02
40
0.040000000000000001
40
0.059999999999999998
40
0.080000000000000002
40
0.10000000000000001
40
0.12000000000000001
40
0.14000000000000001
40
0.16
40
0.17999999999999999
40
0.19999999999999998
40
0.21999999999999997
40
0.23999999999999996
40
0.25999999999999995
40
0.27999999999999997
40
0.29999999999999999
40
0.32000000000000001
40
0.34000000000000002
40
0.36000000000000004
40
0.38000000000000006
40
0.40000000000000008
40
0.4200000000000001
40
0.44000000000000011
40
0.46000000000000013
40
0.48000000000000015
40
0.50000000000000011
40
0.52000000000000013
40
0.54000000000000015
40
0.56000000000000016
40
0.58000000000000018
40
0.6000000000000002
40
0.62000000000000022
40
0.64000000000000024
40
0.66000000000000025
40
0.68000000000000027
40
0.70000000000000029
40
0.72000000000000031
40
0.74000000000000032
40
0.76000000000000034
40
0.78000000000000036
40
0.80000000000000038
40
0.8200000000000004
40
0.84000000000000041
40
0.86000000000000043
40
0.88000000000000045
40
0.90000000000000047
40
0.92000000000000048
40
0.9400000000000005
40
0.96000000000000052
40
0.98000000000000054
40
1
40
1
40
1
40
1
40
1
40
1
41
1
41
1
41
1
41
1
41
1
41
1
41
1
41
1
41
1
41
1
41
1
41
1
41
1
41
1
41
1
41
1
41
1
41
1
41
1
41
1
41
1
41
1
41
1
41
1
41
1
41
1
41
1
41
1
41
1
41
1
41
1
41
1
41
1
41
1
41
1
41
1
41
1
41
1
41
1
41
1
41
1
41
1
41
1
41
1
41
1
41
1
41
1
41
1
41
1
41
1
41
1
41
1
41
1
41
1
41
1
10
0
20
3
30
0
10
0.040019702267147794
20
2.9949430044298686
30
0
10
0.12006155302969249
20
2.9853389239499522
30
0
10
0.24013166785510967
20
2.9724625352996004
30
0
10
0.40023984123790557
20
2.9583554735315638
30
0
10
0.60039977050599846
20
2.9457814796428043
30
0
10
0.80058501993967801
20
2.9381193838720949
30
0
10
1.000796732444641
20
2.9350579103255834
30
0
10
1.2010367515934381
20
2.9360638572621651
30
0
10
1.4013077802131881
20
2.9403234425506009
30
0
10
1.6016116597217462
20
2.9468121588911744
30
0
10
1.8019476494818296
20
2.954363627753108
30
0
10
2.0023107084044294
20
2.9617384390739163
30
0
10
2.2026897438795014
20
2.9676924396238253
30
0
10
2.4030659144801154
20
2.9710458773607207
30
0
10
2.6034170394490785
20
2.9708196031335801
30
0
10
2.8037219499177328
20
2.9663716926411037
30
0
10
3.00396483981703
20
2.9575335114068393
30
0
10
3.2041396802410524
20
2.9447503171759184
30
0
10
3.4042544903517036
20
2.929213362499461
30
0
10
3.6043265006492984
20
2.9124678273449476
30
0
10
3.8043774841020559
20
2.8960291930554933
30
0
10
4.004429062614169
20
2.8809995494709737
30
0
10
4.2044979794492408
20
2.8676765569910434
30
0
10
4.4045915123158572
20
2.8551817796355685
30
0
10
4.6047106189841207
20
2.8421136081943459
30
0
10
4.8048529294677049
20
2.8271819268723464
30
0
10
5.0050157599465734
20
2.8098437896549222
30
0
10
5.2051991684631647
20
2.7909533039563952
30
0
10
5.4054088444240538
20
2.7733726022599243
30
0
10
5.6056514431970905
20
2.7607855119296039
30
0
10
5.8059300615560474
20
2.7565467394150431
30
0
10
6.0062397091924824
20
2.7625291059187163
30
0
10
6.2065626331648183
20
2.7779417181235857
30
0
10
6.4068640322502581
20
2.7982278414024977
30
0
10
6.6071020366848217
20
2.8169122809020108
30
0
10
6.8072373371562813
20
2.8273727950296008
30
0
10
7.0072428446752983
20
2.8246217647584642
30
0
10
7.2071136010329599
20
2.807124907005774
30
0
10
7.4068759806989304
20
2.7785057556977089
30
0
10
7.6065741837561571
20
2.7455571543898256
30
0
10
7.8062574364532589
20
2.7163696127321009
30
0
10
8.0059670355153489
20
2.6984321812585641
30
0
10
8.2057232535157727
20
2.6967186146964464
30
0
10
8.4055127999304631
20
2.7118474778747115
30
0
10
8.6052992212474813
20
2.7413359378213507
30
0
10
8.8050326667464542
20
2.7807671728480132
30
0
10
9.0046598117686614
20
2.8249795089936685
30
0
10
9.2041337830760543
20
2.8692527161184818
30
0
10
9.4034238566389181
20
2.9104683874516124
30
0
10
9.6025119265988614
20
2.9467634950356554
30
0
10
9.761613809094527
20
2.9711272342586863
30
0
10
9.880844215461881
20
2.9866372909450773
30
0
10
9.9602885120046505
20
2.9957502740438944
30
0
10
10
20
3
30
0
0
ENDSEC
0
SECTION
2
OBJECTS
0
DICTIONARY
5
C
100
AcDbDictionary
3
ACAD_GROUP
350
D
3
ACAD_MLINESTYLE
350
17
0
DICTIONARY
5
D
100
AcDbDictionary
0
DICTIONARY
5
1A
330
C
100
AcDbDictionary
0
DICTIONARY
5
17
100
AcDbDictionary
0
ENDSEC
0
EOF
