0
SECTION
2
HEADER
9
$INSUNITS
70
4
9
$ACADVER
1
AC1014
9
$HANDSEED
5
FFFF
0
ENDSEC
0
SECTION
2
TABLES
0
TABLE
2
VPORT
5
8
100
AcDbSymbolTable
0
ENDTAB
0
TABLE
2
LTYPE
5
5
100
AcDbSymbolTable
0
LTYPE
5
14
100
AcDbSymbolTableRecord
100
AcDbLinetypeTableRecord
2
BYBLOCK
70
0
0
LTYPE
5
15
100
AcDbSymbolTableRecord
100
AcDbLinetypeTableRecord
2
BYLAYER
70
0
0
ENDTAB
0
TABLE
2
LAYER
5
2
100
AcDbSymbolTable
70
2
0
LAYER
5
50
100
AcDbSymbolTableRecord
100
AcDbLayerTableRecord
2
0
70
0
6
CONTINUOUS
0
ENDTAB
0
TABLE
2
STYLE
5
3
100
AcDbSymbolTable
70
1
0
STYLE
5
11
100
AcDbSymbolTableRecord
100
AcDbTextStyleTableRecord
2
STANDARD
70
0
0
ENDTAB
0
TABLE
2
VIEW
5
6
100
AcDbSymbolTable
70
0
0
ENDTAB
0
TABLE
2
UCS
5
7
100
AcDbSymbolTable
70
0
0
ENDTAB
0
TABLE
2
APPID
5
9
100
AcDbSymbolTable
70
2
0
APPID
5
12
100
AcDbSymbolTableRecord
100
AcDbRegAppTableRecord
2
ACAD
70
0
0
ENDTAB
0
TABLE
2
DIMSTYLE
5
A
100
AcDbSymbolTable
70
1
0
ENDTAB
0
TABLE
2
BLOCK_RECORD
5
1
100
AcDbSymbolTable
70
1
0
BLOCK_RECORD
5
1F
100
AcDbSymbolTableRecord
100
AcDbBlockTableRecord
2
*MODEL_SPACE
0
BLOCK_RECORD
5
1B
100
AcDbSymbolTableRecord
100
AcDbBlockTableRecord
2
*PAPER_SPACE
0
ENDTAB
0
ENDSEC
0
SECTION
2
BLOCKS
0
BLOCK
5
20
100
AcDbEntity
100
AcDbBlockBegin
2
*MODEL_SPACE
0
ENDBLK
5
21
100
AcDbEntity
100
AcDbBlockEnd
0
BLOCK
5
1C
100
AcDbEntity
100
AcDbBlockBegin
2
*PAPER_SPACE
0
ENDBLK
5
1D
100
AcDbEntity
100
AcDbBlockEnd
0
ENDSEC
0
SECTION
2
ENTITIES
0
SPLINE
5
100
100
AcDbEntity
8
0
100
AcDbSpline
70
4
71
5
72
16
73
10
74
0
42
0.000000001
43
0.0000000001
44
0.0000000001
40
0
40
0
40
0
40
0
40
0
40
0
40
0.20000000000000001
40
0.40000000000000002
40
0.60000000000000009
40
0.80000000000000004
40
1
40
1
40
1
40
1
40
1
40
1
41
1
41
1
41
1
41
1
41
1
41
1
41
1
41
1
41
1
41
1
10
0
20
0
30
0
10
0
20
0.12000000000003158
30
0
10
0
20
0.36000000000007704
30
0
10
0
20
0.72000000000009301
30
0
10
0
20
1.2000000000000313
30
0
10
0
20
1.7999999999999146
30
0
10
0
20
2.2799999999998684
30
0
10
0
20
2.6399999999999042
30
0
10
0
20
2.8799999999999617
30
0
10
0
20
3
30
0
0
SPLINE
5
101
100
AcDbEntity
8
0
100
AcDbSpline
70
4
71
5
72
16
73
10
74
0
42
0.000000001
43
0.0000000001
44
0.0000000001
40
0
40
0
40
0
40
0
40
0
40
0
40
0.20000000000000001
40
0.40000000000000002
40
0.60000000000000009
40
0.80000000000000004
40
1
40
1
40
1
40
1
40
1
40
1
41
1
41
1
41
1
41
1
41
1
41
1
41
1
41
1
41
1
41
1
10
10
20
0
30
0
10
9.9999999999997495
20
0.12000000000003158
30
0
10
9.9999999999993197
20
0.36000000000007704
30
0
10
9.9999999999989129
20
0.72000000000009301
30
0
10
9.9999999999987672
20
1.2000000000000313
30
0
10
9.9999999999990248
20
1.7999999999999146
30
0
10
9.9999999999993889
20
2.2799999999998684
30
0
10
9.9999999999996998
20
2.6399999999999042
30
0
10
9.9999999999999005
20
2.8799999999999617
30
0
10
10
20
3
30
0
0
SPLINE
5
102
100
AcDbEntity
8
0
100
AcDbSpline
70
4
71
5
72
16
73
10
74
0
42
0.000000001
43
0.0000000001
44
0.0000000001
40
0
40
0
40
0
40
0
40
0
40
0
40
0.20000000000000001
40
0.40000000000000002
40
0.60000000000000009
40
0.80000000000000004
40
1
40
1
40
1
40
1
40
1
40
1
41
1
41
1
41
1
41
1
41
1
41
1
41
1
41
1
41
1
41
1
10
0
20
1.5
30
0
10
0.40000000000047375
20
1.499999999999694
30
0
10
1.2000000000012774
20
1.4999999999991638
30
0
10
2.4000000000020547
20
1.4999999999986278
30
0
10
4.0000000000023546
20
1.4999999999983737
30
0
10
6.0000000000019584
20
1.4999999999985913
30
0
10
7.6000000000012928
20
1.4999999999990359
30
0
10
8.800000000000697
20
1.4999999999994786
30
0
10
9.6000000000002395
20
1.4999999999998188
30
0
10
10
20
1.5
30
0
0
SPLINE
5
103
100
AcDbEntity
8
0
100
AcDbSpline
70
4
71
5
72
111
73
105
74
0
42
0.000000001
43
0.0000000001
44
0.0000000001
40
0
40
0
40
0
40
0
40
0
40
0
40
0.01
40
0.02
40
0.029999999999999999
40
0.040000000000000001
40
0.050000000000000003
40
0.060000000000000005
40
0.070000000000000007
40
0.080000000000000002
40
0.089999999999999997
40
0.099999999999999992
40
0.10999999999999999
40
0.11999999999999998
40
0.12999999999999998
40
0.13999999999999999
40
0.14999999999999999
40
0.16
40
0.17000000000000001
40
0.18000000000000002
40
0.19000000000000003
40
0.20000000000000004
40
0.21000000000000005
40
0.22000000000000006
40
0.23000000000000007
40
0.24000000000000007
40
0.25000000000000006
40
0.26000000000000006
40
0.27000000000000007
40
0.28000000000000008
40
0.29000000000000009
40
0.3000000000000001
40
0.31000000000000011
40
0.32000000000000012
40
0.33000000000000013
40
0.34000000000000014
40
0.35000000000000014
40
0.36000000000000015
40
0.37000000000000016
40
0.38000000000000017
40
0.39000000000000018
40
0.40000000000000019
40
0.4100000000000002
40
0.42000000000000021
40
0.43000000000000022
40
0.44000000000000022
40
0.45000000000000023
40
0.46000000000000024
40
0.47000000000000025
40
0.48000000000000026
40
0.49000000000000027
40
0.50000000000000022
40
0.51000000000000023
40
0.52000000000000024
40
0.53000000000000025
40
0.54000000000000026
40
0.55000000000000027
40
0.56000000000000028
40
0.57000000000000028
40
0.58000000000000029
40
0.5900000000000003
40
0.60000000000000031
40
0.61000000000000032
40
0.62000000000000033
40
0.63000000000000034
40
0.64000000000000035
40
0.65000000000000036
40
0.66000000000000036
40
0.67000000000000037
40
0.68000000000000038
40
0.69000000000000039
40
0.7000000000000004
40
0.71000000000000041
40
0.72000000000000042
40
0.73000000000000043
40
0.74000000000000044
40
0.75000000000000044
40
0.76000000000000045
40
0.77000000000000046
40
0.78000000000000047
40
0.79000000000000048
40
0.80000000000000049
40
0.8100000000000005
40
0.82000000000000051
40
0.83000000000000052
40
0.84000000000000052
40
0.85000000000000053
40
0.86000000000000054
40
0.87000000000000055
40
0.88000000000000056
40
0.89000000000000057
40
0.90000000000000058
40
0.91000000000000059
40
0.9200000000000006
40
0.9300000000000006
40
0.94000000000000061
40
0.95000000000000062
40
0.96000000000000063
40
0.97000000000000064
40
0.98000000000000065
40
0.99000000000000066
40
1
40
1
40
1
40
1
40
1
40
1
41
1
41
1
41
1
41
1
41
1
41
1
41
1
41
1
41
1
41
1
41
1
41
1
41
1
41
1
41
1
41
1
41
1
41
1
41
1
41
1
41
1
41
1
41
1
41
1
41
1
41
1
41
1
41
1
41
1
41
1
41
1
41
1
41
1
41
1
41
1
41
1
41
1
41
1
41
1
41
1
41
1
41
1
41
1
41
1
41
1
41
1
41
1
41
1
41
1
41
1
41
1
41
1
41
1
41
1
41
1
41
1
41
1
41
1
41
1
41
1
41
1
41
1
41
1
41
1
41
1
41
1
41
1
41
1
41
1
41
1
41
1
41
1
41
1
41
1
41
1
41
1
41
1
41
1
41
1
41
1
41
1
41
1
41
1
41
1
41
1
41
1
41
1
41
1
41
1
41
1
41
1
41
1
41
1
41
1
41
1
41
1
41
1
41
1
41
1
41
1
41
1
41
1
41
1
41
1
41
1
10
0
20
0
30
0
10
0.020312659138294026
20
0.0040612252464640982
30
0
10
0.060957402381523695
20
0.011892619166305391
30
0
10
0.12198279301357078
20
0.022766540137994375
30
0
10
0.20346654351771026
20
0.035518478983529389
30
0
10
0.30551064047559884
20
0.04854875327181811
30
0
10
0.40772922528441657
20
0.058676421149975518
30
0
10
0.51009255243480001
20
0.065917657326780274
30
0
10
0.61255036425683251
20
0.070301450114455044
30
0
10
0.71502869236803024
20
0.071872861633637652
30
0
10
0.81744953482358784
20
0.070698815524717656
30
0
10
0.91974950374864983
20
0.066870810415017592
30
0
10
1.021897288191121
20
0.060514648960840058
30
0
10
1.1239153484027216
20
0.051783612693208053
30
0
10
1.225888559865784
20
0.040899184955768199
30
0
10
1.327923674372292
20
0.028347384693630989
30
0
10
1.4301144796469234
20
0.015075414080812189
30
0
10
1.5325084458690219
20
0.0026391312453315175
30
0
10
1.6350638826683261
20
-0.0065111221686146763
30
0
10
1.7376399872662593
20
-0.0091830378054843786
30
0
10
1.8400591272567033
20
-0.0025028050648272524
30
0
10
1.942157132345133
20
0.015128639649888394
30
0
10
2.0438325263252075
20
0.043207120807300173
30
0
10
2.1451103373416185
20
0.077831122821326509
30
0
10
2.2461485421980623
20
0.11208419315758335
30
0
10
2.3471672196069657
20
0.13857017121006998
30
0
10
2.4483948965775242
20
0.15157217190504288
30
0
10
2.5500124805617688
20
0.1490210075041242
30
0
10
2.6520871171313489
20
0.13538526684481916
30
0
10
2.7545538221846617
20
0.12091724431005138
30
0
10
2.8572491400638338
20
0.11725315061224709
30
0
10
2.9599297471998707
20
0.13375083263349485
30
0
10
3.0622991308798064
20
0.17406292731996478
30
0
10
3.1640258632673151
20
0.23127068810803719
30
0
10
3.2647875761088203
20
0.28978908756024868
30
0
10
3.3643275181799752
20
0.3314312320009104
30
0
10
3.4625114350954025
20
0.34051840411418566
30
0
10
3.5593754965114632
20
0.30870974588722888
30
0
10
3.6552003329309346
20
0.24164002322700978
30
0
10
3.7504707911588668
20
0.15695993837755279
30
0
10
3.8457661757791044
20
0.077118078686495686
30
0
10
3.941668619393826
20
0.02343790241954569
30
0
10
4.0386705222686654
20
0.010328111593853079
30
0
10
4.1370664957404921
20
0.037813959154422913
30
0
10
4.2369079679809687
20
0.090478785177127916
30
0
10
4.3380568241822139
20
0.14616498827952595
30
0
10
4.4402152601919251
20
0.18270393353146921
30
0
10
4.542965271863487
20
0.18467521350881558
30
0
10
4.645803573383426
20
0.15200413236517551
30
0
10
4.7481796995580705
20
0.10115762635736035
30
0
10
4.8495354451214965
20
0.055841629003497602
30
0
10
4.9493440614059674
20
0.039910266760768046
30
0
10
5.0471496646981819
20
0.070167887103277093
30
0
10
5.1426063377508333
20
0.14729698714413242
30
0
10
5.2355184492441058
20
0.2549639658844593
30
0
10
5.3258823722752329
20
0.36814519815212143
30
0
10
5.4139278480224355
20
0.45899296059463746
30
0
10
5.50015987286515
20
0.50370580998992565
30
0
10
5.5854000366770933
20
0.48896131014278565
30
0
10
5.6708295336373808
20
0.41856535305945886
30
0
10
5.7577639359680619
20
0.30829104131485907
30
0
10
5.8474345550766103
20
0.1808359065193374
30
0
10
5.940754155048503
20
0.060565804661570272
30
0
10
6.038119062023064
20
-0.031255489207485589
30
0
10
6.1391225272121659
20
-0.08240226078296177
30
0
10
6.2425609217861044
20
-0.09176113128068758
30
0
10
6.3468802084965521
20
-0.065465630091378402
30
0
10
6.4505371824259763
20
-0.014358888000328619
30
0
10
6.5523548471405855
20
0.048914209316773496
30
0
10
6.651978636776299
20
0.1130489628083281
30
0
10
6.7498976343813482
20
0.16953663924764545
30
0
10
6.8470498150895009
20
0.21235268541729274
30
0
10
6.9445293939980051
20
0.23816626257886525
30
0
10
7.0432808364400357
20
0.24627813847333141
30
0
10
7.1437298309118837
20
0.23882176020076698
30
0
10
7.2456933655001619
20
0.22032272416431153
30
0
10
7.3486569902012491
20
0.19652398956599593
30
0
10
7.451968381430464
20
0.17335564609142684
30
0
10
7.5550442115788172
20
0.1559288551183608
30
0
10
7.6576217615496986
20
0.14731693945384394
30
0
10
7.7597839220745213
20
0.14826389507294219
30
0
10
7.8617828511472556
20
0.15772399388350553
30
0
10
7.9639140813316391
20
0.17315364976062067
30
0
10
8.0663847248398959
20
0.19093026795794432
30
0
10
8.1691471975072911
20
0.20664993373304533
30
0
10
8.271932550009943
20
0.2157981500695148
30
0
10
8.3743900933934743
20
0.21457088272910835
30
0
10
8.4761985504095154
20
0.20069835278489864
30
0
10
8.5771781343492588
20
0.17416103683184925
30
0
10
8.6774302852690752
20
0.1382293298358325
30
0
10
8.777276177421486
20
0.098502107622509216
30
0
10
8.8771362040984965
20
0.061382707423704518
30
0
10
8.9774258251292789
20
0.032693519375799784
30
0
10
9.0784527145180487
20
0.01634706479873508
30
0
10
9.1802922813968451
20
0.012695690358452444
30
0
10
9.2828229480094713
20
0.019138293258449686
30
0
10
9.3858050410322118
20
0.031337119040143163
30
0
10
9.4889458073368935
20
0.044242636598846988
30
0
10
9.591967895177687
20
0.053161506086359486
30
0
10
9.6946824660839575
20
0.054903576529448522
30
0
10
9.7969777398058007
20
0.0475798649437447
30
0
10
9.8784335710260223
20
0.033709667493040212
30
0
10
9.9393032059808313
20
0.01866133037130354
30
0
10
9.979784196038354
20
0.006564532834603079
30
0
10
10
20
0
30
0
0
SPLINE
5
104
100
AcDbEntity
8
0
100
AcDbSpline
70
4
71
5
72
111
73
105
74
0
42
0.000000001
43
0.0000000001
44
0.0000000001
40
0
40
0
40
0
40
0
40
0
40
0
40
0.01
40
0.02
40
0.029999999999999999
40
0.040000000000000001
40
0.050000000000000003
40
0.060000000000000005
40
0.070000000000000007
40
0.080000000000000002
40
0.089999999999999997
40
0.099999999999999992
40
0.10999999999999999
40
0.11999999999999998
40
0.12999999999999998
40
0.13999999999999999
40
0.14999999999999999
40
0.16
40
0.17000000000000001
40
0.18000000000000002
40
0.19000000000000003
40
0.20000000000000004
40
0.21000000000000005
40
0.22000000000000006
40
0.23000000000000007
40
0.24000000000000007
40
0.25000000000000006
40
0.26000000000000006
40
0.27000000000000007
40
0.28000000000000008
40
0.29000000000000009
40
0.3000000000000001
40
0.31000000000000011
40
0.32000000000000012
40
0.33000000000000013
40
0.34000000000000014
40
0.35000000000000014
40
0.36000000000000015
40
0.37000000000000016
40
0.38000000000000017
40
0.39000000000000018
40
0.40000000000000019
40
0.4100000000000002
40
0.42000000000000021
40
0.43000000000000022
40
0.44000000000000022
40
0.45000000000000023
40
0.46000000000000024
40
0.47000000000000025
40
0.48000000000000026
40
0.49000000000000027
40
0.50000000000000022
40
0.51000000000000023
40
0.52000000000000024
40
0.53000000000000025
40
0.54000000000000026
40
0.55000000000000027
40
0.56000000000000028
40
0.57000000000000028
40
0.58000000000000029
40
0.5900000000000003
40
0.60000000000000031
40
0.61000000000000032
40
0.62000000000000033
40
0.63000000000000034
40
0.64000000000000035
40
0.65000000000000036
40
0.66000000000000036
40
0.67000000000000037
40
0.68000000000000038
40
0.69000000000000039
40
0.7000000000000004
40
0.71000000000000041
40
0.72000000000000042
40
0.73000000000000043
40
0.74000000000000044
40
0.75000000000000044
40
0.76000000000000045
40
0.77000000000000046
40
0.78000000000000047
40
0.79000000000000048
40
0.80000000000000049
40
0.8100000000000005
40
0.82000000000000051
40
0.83000000000000052
40
0.84000000000000052
40
0.85000000000000053
40
0.86000000000000054
40
0.87000000000000055
40
0.88000000000000056
40
0.89000000000000057
40
0.90000000000000058
40
0.91000000000000059
40
0.9200000000000006
40
0.9300000000000006
40
0.94000000000000061
40
0.95000000000000062
40
0.96000000000000063
40
0.97000000000000064
40
0.98000000000000065
40
0.99000000000000066
40
1
40
1
40
1
40
1
40
1
40
1
41
1
41
1
41
1
41
1
41
1
41
1
41
1
41
1
41
1
41
1
41
1
41
1
41
1
41
1
41
1
41
1
41
1
41
1
41
1
41
1
41
1
41
1
41
1
41
1
41
1
41
1
41
1
41
1
41
1
41
1
41
1
41
1
41
1
41
1
41
1
41
1
41
1
41
1
41
1
41
1
41
1
41
1
41
1
41
1
41
1
41
1
41
1
41
1
41
1
41
1
41
1
41
1
41
1
41
1
41
1
41
1
41
1
41
1
41
1
41
1
41
1
41
1
41
1
41
1
41
1
41
1
41
1
41
1
41
1
41
1
41
1
41
1
41
1
41
1
41
1
41
1
41
1
41
1
41
1
41
1
41
1
41
1
41
1
41
1
41
1
41
1
41
1
41
1
41
1
41
1
41
1
41
1
41
1
41
1
41
1
41
1
41
1
41
1
41
1
41
1
41
1
41
1
41
1
41
1
41
1
10
0
20
3
30
0
10
0.017993832472821443
20
2.9898219139522282
30
0
10
0.054180105393990693
20
2.9690065117355049
30
0
10
0.10905532887745255
20
2.9364058113484259
30
0
10
0.18341420094291014
20
2.8901817587033953
30
0
10
0.27831452177503901
20
2.8281355816702325
30
0
10
0.3750618554572932
20
2.7627968038086017
30
0
10
0.47344246747003849
20
2.6961427723705227
30
0
10
0.5731047045733888
20
2.6314162677465252
30
0
10
0.67350440090074637
20
2.5736311176923903
30
0
10
0.77399173913151698
20
2.5287326651327207
30
0
10
0.87394273377349851
20
2.502331280237851
30
0
10
0.97288273028300387
20
2.4985170878334615
30
0
10
1.070598202655562
20
2.518773576233774
30
0
10
1.1672922363281522
20
2.560506509347698
30
0
10
1.2634931440619748
20
2.6177627248008624
30
0
10
1.3598750479121213
20
2.6827449419261469
30
0
10
1.4570999139096692
20
2.7471057508524002
30
0
10
1.5556674193076243
20
2.8032406616396122
30
0
10
1.6557198146842986
20
2.8458112364991148
30
0
10
1.7570457386773073
20
2.8721711711501801
30
0
10
1.8592339956394537
20
2.8819271703962475
30
0
10
1.9617879944338252
20
2.8767738773290006
30
0
10
2.0642464006575194
20
2.8601732374720834
30
0
10
2.16632586815685
20
2.8372119723118683
30
0
10
2.2679353147991925
20
2.8138627581048326
30
0
10
2.3691128150240361
20
2.7959503454191763
30
0
10
2.4699855820049827
20
2.7881555874346637
30
0
10
2.5707223562461374
20
2.7931173634198965
30
0
10
2.6714842480639116
20
2.8102019382798371
30
0
10
2.7724040770977796
20
2.8360520666389566
30
0
10
2.8735794822756375
20
2.8658495184388593
30
0
10
2.9750604135544387
20
2.8943758205248389
30
0
10
3.0768413189170425
20
2.9170890739970807
30
0
10
3.1788451763133816
20
2.9313676221907654
30
0
10
3.2809510217319158
20
2.9365270142429449
30
0
10
3.3830336799334839
20
2.9334422369952771
30
0
10
3.4850010240196476
20
2.9243121792515856
30
0
10
3.5868286824306761
20
2.9123460514142225
30
0
10
3.6886053495021294
20
2.9015352724612726
30
0
10
3.7904779220965508
20
2.8958764440625235
30
0
10
3.8925808933582333
20
2.8985189842886019
30
0
10
3.9949702458987018
20
2.9109253509989257
30
0
10
4.0975577698574632
20
2.9320547360510156
30
0
10
4.2000386931902849
20
2.9574541941996006
30
0
10
4.3020059323066784
20
2.9806982171488454
30
0
10
4.4030736825479346
20
2.9949421570079848
30
0
10
4.5029966352760491
20
2.9944249275786596
30
0
10
4.6017933002898737
20
2.9760133649124447
30
0
10
4.6998616077787698
20
2.9406750002860562
30
0
10
4.7978033835341414
20
2.8923665372634049
30
0
10
4.8962566115406787
20
2.8369861555263136
30
0
10
4.9957231770421799
20
2.7812996437485453
30
0
10
5.0964023147785733
20
2.731887470667135
30
0
10
5.1980109198539299
20
2.6940584392489271
30
0
10
5.2999734316322442
20
2.6716141882975557
30
0
10
5.40162591638585
20
2.666642743221864
30
0
10
5.5024138339670081
20
2.6793030289258501
30
0
10
5.6020948843019411
20
2.7076057316675586
30
0
10
5.7009332271854998
20
2.747211383932997
30
0
10
5.7994932259680869
20
2.7922654343953575
30
0
10
5.898440981577763
20
2.8362121013805188
30
0
10
5.9983425023093986
20
2.8726167718644802
30
0
10
6.0994645930877835
20
2.8959818452029551
30
0
10
6.201570726993908
20
2.9025734778113121
30
0
10
6.3041055173668914
20
2.890613387242706
30
0
10
6.4063852818256297
20
2.8604723063239801
30
0
10
6.5077832403820466
20
2.8148481408256707
30
0
10
6.6079239246604153
20
2.7589894328085056
30
0
10
6.7068540130837242
20
2.7007951805916957
30
0
10
6.8048945490599877
20
2.6492058371431924
30
0
10
6.9025127114464722
20
2.6126990395591698
30
0
10
7.0001863690029502
20
2.5977465198026688
30
0
10
7.0982715925178086
20
2.6072843411555189
30
0
10
7.1968692479183005
20
2.6391811270234533
30
0
10
7.2959075622388134
20
2.6878123261101821
30
0
10
7.3952233310904782
20
2.7456166389611174
30
0
10
7.4946444601476703
20
2.804670390169504
30
0
10
7.5940698666465876
20
2.8582241344530992
30
0
10
7.6935561010411817
20
2.9023361737699482
30
0
10
7.7932597002048052
20
2.9354063178883538
30
0
10
7.893372512585497
20
2.957602852268514
30
0
10
7.994058855787384
20
2.9703280052384917
30
0
10
8.0953936347856956
20
2.9756719392910291
30
0
10
8.1972952713561966
20
2.9758620419236563
30
0
10
8.2995763421159658
20
2.972953055900871
30
0
10
8.4020010462858625
20
2.9685288325080266
30
0
10
8.504339641489187
20
2.9634055117512355
30
0
10
8.6064253030194884
20
2.9573198531183893
30
0
10
8.708206762831443
20
2.9486615413436095
30
0
10
8.8097076158548209
20
2.9352855287409527
30
0
10
8.910988461189266
20
2.9152979261681859
30
0
10
9.0121089586252161
20
2.8878266492399525
30
0
10
9.113087738830469
20
2.8538576616784561
30
0
10
9.2138695728004816
20
2.8168742552837696
30
0
10
9.3143518957087004
20
2.7819175376952643
30
0
10
9.4144059794591293
20
2.7547858445733633
30
0
10
9.5138995991426558
20
2.7412021806072584
30
0
10
9.6127203110112429
20
2.7459472504119247
30
0
10
9.710794796662567
20
2.772148094517497
30
0
10
9.808078967192964
20
2.8216872027195734
30
0
10
9.8852567950520847
20
2.8807295850707288
30
0
10
9.9427716738083944
20
2.9360664178479405
30
0
10
9.980951182102455
20
2.9778700636282647
30
0
10
10
20
3
30
0
0
ENDSEC
0
SECTION
2
OBJECTS
0
DICTIONARY
5
C
100
AcDbDictionary
3
ACAD_GROUP
350
D
3
ACAD_MLINESTYLE
350
17
0
DICTIONARY
5
D
100
AcDbDictionary
0
DICTIONARY
5
1A
330
C
100
AcDbDictionary
0
DICTIONARY
5
17
100
AcDbDictionary
0
ENDSEC
0
EOF
