0
SECTION
2
HEADER
9
$INSUNITS
70
4
9
$ACADVER
1
AC1014
9
$HANDSEED
5
FFFF
0
ENDSEC
0
SECTION
2
TABLES
0
TABLE
2
VPORT
5
8
100
AcDbSymbolTable
0
ENDTAB
0
TABLE
2
LTYPE
5
5
100
AcDbSymbolTable
0
LTYPE
5
14
100
AcDbSymbolTableRecord
100
AcDbLinetypeTableRecord
2
BYBLOCK
70
0
0
LTYPE
5
15
100
AcDbSymbolTableRecord
100
AcDbLinetypeTableRecord
2
BYLAYER
70
0
0
ENDTAB
0
TABLE
2
LAYER
5
2
100
AcDbSymbolTable
70
2
0
LAYER
5
50
100
AcDbSymbolTableRecord
100
AcDbLayerTableRecord
2
0
70
0
6
CONTINUOUS
0
ENDTAB
0
TABLE
2
STYLE
5
3
100
AcDbSymbolTable
70
1
0
STYLE
5
11
100
AcDbSymbolTableRecord
100
AcDbTextStyleTableRecord
2
STANDARD
70
0
0
ENDTAB
0
TABLE
2
VIEW
5
6
100
AcDbSymbolTable
70
0
0
ENDTAB
0
TABLE
2
UCS
5
7
100
AcDbSymbolTable
70
0
0
ENDTAB
0
TABLE
2
APPID
5
9
100
AcDbSymbolTable
70
2
0
APPID
5
12
100
AcDbSymbolTableRecord
100
AcDbRegAppTableRecord
2
ACAD
70
0
0
ENDTAB
0
TABLE
2
DIMSTYLE
5
A
100
AcDbSymbolTable
70
1
0
ENDTAB
0
TABLE
2
BLOCK_RECORD
5
1
100
AcDbSymbolTable
70
1
0
BLOCK_RECORD
5
1F
100
AcDbSymbolTableRecord
100
AcDbBlockTableRecord
2
*MODEL_SPACE
0
BLOCK_RECORD
5
1B
100
AcDbSymbolTableRecord
100
AcDbBlockTableRecord
2
*PAPER_SPACE
0
ENDTAB
0
ENDSEC
0
SECTION
2
BLOCKS
0
BLOCK
5
20
100
AcDbEntity
100
AcDbBlockBegin
2
*MODEL_SPACE
0
ENDBLK
5
21
100
AcDbEntity
100
AcDbBlockEnd
0
BLOCK
5
1C
100
AcDbEntity
100
AcDbBlockBegin
2
*PAPER_SPACE
0
ENDBLK
5
1D
100
AcDbEntity
100
AcDbBlockEnd
0
ENDSEC
0
SECTION
2
ENTITIES
0
SPLINE
5
100
100
AcDbEntity
8
0
100
AcDbSpline
70
4
71
5
72
16
73
10
74
0
42
0.000000001
43
0.0000000001
44
0.0000000001
40
0
40
0
40
0
40
0
40
0
40
0
40
0.20000000000000001
40
0.40000000000000002
40
0.60000000000000009
40
0.80000000000000004
40
1
40
1
40
1
40
1
40
1
40
1
41
1
41
1
41
1
41
1
41
1
41
1
41
1
41
1
41
1
41
1
10
0
20
0
30
0
10
0
20
0.12000000000003158
30
0
10
0
20
0.36000000000007704
30
0
10
0
20
0.72000000000009301
30
0
10
0
20
1.2000000000000313
30
0
10
0
20
1.7999999999999146
30
0
10
0
20
2.2799999999998684
30
0
10
0
20
2.6399999999999042
30
0
10
0
20
2.8799999999999617
30
0
10
0
20
3
30
0
0
SPLINE
5
101
100
AcDbEntity
8
0
100
AcDbSpline
70
4
71
5
72
16
73
10
74
0
42
0.000000001
43
0.0000000001
44
0.0000000001
40
0
40
0
40
0
40
0
40
0
40
0
40
0.20000000000000001
40
0.40000000000000002
40
0.60000000000000009
40
0.80000000000000004
40
1
40
1
40
1
40
1
40
1
40
1
41
1
41
1
41
1
41
1
41
1
41
1
41
1
41
1
41
1
41
1
10
10
20
0
30
0
10
9.9999999999997495
20
0.12000000000003158
30
0
10
9.9999999999993197
20
0.36000000000007704
30
0
10
9.9999999999989129
20
0.72000000000009301
30
0
10
9.9999999999987672
20
1.2000000000000313
30
0
10
9.9999999999990248
20
1.7999999999999146
30
0
10
9.9999999999993889
20
2.2799999999998684
30
0
10
9.9999999999996998
20
2.6399999999999042
30
0
10
9.9999999999999005
20
2.8799999999999617
30
0
10
10
20
3
30
0
0
SPLINE
5
102
100
AcDbEntity
8
0
100
AcDbSpline
70
4
71
5
72
16
73
10
74
0
42
0.000000001
43
0.0000000001
44
0.0000000001
40
0
40
0
40
0
40
0
40
0
40
0
40
0.20000000000000001
40
0.40000000000000002
40
0.60000000000000009
40
0.80000000000000004
40
1
40
1
40
1
40
1
40
1
40
1
41
1
41
1
41
1
41
1
41
1
41
1
41
1
41
1
41
1
41
1
10
0
20
1.5
30
0
10
0.40000000000047375
20
1.499999999999694
30
0
10
1.2000000000012774
20
1.4999999999991638
30
0
10
2.4000000000020547
20
1.4999999999986278
30
0
10
4.0000000000023546
20
1.4999999999983737
30
0
10
6.0000000000019584
20
1.4999999999985913
30
0
10
7.6000000000012928
20
1.4999999999990359
30
0
10
8.800000000000697
20
1.4999999999994786
30
0
10
9.6000000000002395
20
1.4999999999998188
30
0
10
10
20
1.5
30
0
0
SPLINE
5
103
100
AcDbEntity
8
0
100
AcDbSpline
70
4
71
5
72
111
73
105
74
0
42
0.000000001
43
0.0000000001
44
0.0000000001
40
0
40
0
40
0
40
0
40
0
40
0
40
0.01
40
0.02
40
0.029999999999999999
40
0.040000000000000001
40
0.050000000000000003
40
0.060000000000000005
40
0.070000000000000007
40
0.080000000000000002
40
0.089999999999999997
40
0.099999999999999992
40
0.10999999999999999
40
0.11999999999999998
40
0.12999999999999998
40
0.13999999999999999
40
0.14999999999999999
40
0.16
40
0.17000000000000001
40
0.18000000000000002
40
0.19000000000000003
40
0.20000000000000004
40
0.21000000000000005
40
0.22000000000000006
40
0.23000000000000007
40
0.24000000000000007
40
0.25000000000000006
40
0.26000000000000006
40
0.27000000000000007
40
0.28000000000000008
40
0.29000000000000009
40
0.3000000000000001
40
0.31000000000000011
40
0.32000000000000012
40
0.33000000000000013
40
0.34000000000000014
40
0.35000000000000014
40
0.36000000000000015
40
0.37000000000000016
40
0.38000000000000017
40
0.39000000000000018
40
0.40000000000000019
40
0.4100000000000002
40
0.42000000000000021
40
0.43000000000000022
40
0.44000000000000022
40
0.45000000000000023
40
0.46000000000000024
40
0.47000000000000025
40
0.48000000000000026
40
0.49000000000000027
40
0.50000000000000022
40
0.51000000000000023
40
0.52000000000000024
40
0.53000000000000025
40
0.54000000000000026
40
0.55000000000000027
40
0.56000000000000028
40
0.57000000000000028
40
0.58000000000000029
40
0.5900000000000003
40
0.60000000000000031
40
0.61000000000000032
40
0.62000000000000033
40
0.63000000000000034
40
0.64000000000000035
40
0.65000000000000036
40
0.66000000000000036
40
0.67000000000000037
40
0.68000000000000038
40
0.69000000000000039
40
0.7000000000000004
40
0.71000000000000041
40
0.72000000000000042
40
0.73000000000000043
40
0.74000000000000044
40
0.75000000000000044
40
0.76000000000000045
40
0.77000000000000046
40
0.78000000000000047
40
0.79000000000000048
40
0.80000000000000049
40
0.8100000000000005
40
0.82000000000000051
40
0.83000000000000052
40
0.84000000000000052
40
0.85000000000000053
40
0.86000000000000054
40
0.87000000000000055
40
0.88000000000000056
40
0.89000000000000057
40
0.90000000000000058
40
0.91000000000000059
40
0.9200000000000006
40
0.9300000000000006
40
0.94000000000000061
40
0.95000000000000062
40
0.96000000000000063
40
0.97000000000000064
40
0.98000000000000065
40
0.99000000000000066
40
1
40
1
40
1
40
1
40
1
40
1
41
1
41
1
41
1
41
1
41
1
41
1
41
1
41
1
41
1
41
1
41
1
41
1
41
1
41
1
41
1
41
1
41
1
41
1
41
1
41
1
41
1
41
1
41
1
41
1
41
1
41
1
41
1
41
1
41
1
41
1
41
1
41
1
41
1
41
1
41
1
41
1
41
1
41
1
41
1
41
1
41
1
41
1
41
1
41
1
41
1
41
1
41
1
41
1
41
1
41
1
41
1
41
1
41
1
41
1
41
1
41
1
41
1
41
1
41
1
41
1
41
1
41
1
41
1
41
1
41
1
41
1
41
1
41
1
41
1
41
1
41
1
41
1
41
1
41
1
41
1
41
1
41
1
41
1
41
1
41
1
41
1
41
1
41
1
41
1
41
1
41
1
41
1
41
1
41
1
41
1
41
1
41
1
41
1
41
1
41
1
41
1
41
1
41
1
41
1
41
1
41
1
41
1
41
1
41
1
41
1
10
0
20
0
30
0
10
0.020909632888039684
20
-0.0047890023252540187
30
0
10
0.062593302749802918
20
-0.013103554642488944
30
0
10
0.12471201717174071
20
-0.021785011719941339
30
0
10
0.20672327929722775
20
-0.025778435537068531
30
0
10
0.30790972586733523
20
-0.018347222140597811
30
0
10
0.40785586509399618
20
0.00085191302588386302
30
0
10
0.50673663684285808
20
0.030503313583077219
30
0
10
0.60484622278426425
20
0.068396282598403829
30
0
10
0.70262215423230623
20
0.11123168787286181
30
0
10
0.8005526894371261
20
0.15506622870996947
30
0
10
0.8990907992578796
20
0.19572090505517264
30
0
10
0.99856539070840034
20
0.22920319529284983
30
0
10
1.0990942291550929
20
0.2521225012363727
30
0
10
1.2004943401051844
20
0.26211127644440985
30
0
10
1.3023949076140326
20
0.25808041102632995
30
0
10
1.4043529414999005
20
0.24048074470422048
30
0
10
1.5059663472692528
20
0.21155003143938533
30
0
10
1.6069915852988548
20
0.1755978812181167
30
0
10
1.707449622057349
20
0.13918988193231108
30
0
10
1.807525882012784
20
0.1095663272419829
30
0
10
1.9074793537571151
20
0.093129186643015185
30
0
10
2.0075500345079798
20
0.093937826708784339
30
0
10
2.1078630960563776
20
0.11211906243180253
30
0
10
2.2083457339321466
20
0.14254073199927175
30
0
10
2.3088192630443918
20
0.17703509739425846
30
0
10
2.4090812068507015
20
0.20641647672122471
30
0
10
2.5089889168454187
20
0.22253824087631968
30
0
10
2.6085477587891699
20
0.22042069258273819
30
0
10
2.7079825853474562
20
0.20010007842578784
30
0
10
2.8076177188841873
20
0.16519822223593622
30
0
10
2.9077694869753419
20
0.12172884104696886
30
0
10
3.0086369663925976
20
0.076825587220158226
30
0
10
3.1101865221198115
20
0.037481155340117887
30
0
10
3.2120585558839494
20
0.0093489511603699459
30
0
10
3.3137331136724617
20
-0.0035059694622700281
30
0
10
3.4146798575094364
20
0.0010597112296850968
30
0
10
3.5145080889811799
20
0.022992742354088248
30
0
10
3.6131304893341492
20
0.059677705696999435
30
0
10
3.7108809454023932
20
0.10579793827387662
30
0
10
3.8083284073992525
20
0.15462055420804938
30
0
10
3.9061233282626917
20
0.19913128118180629
30
0
10
4.004833560159903
20
0.23321528588340962
30
0
10
4.1047802192557752
20
0.25284535625197668
30
0
10
4.2058860523940842
20
0.25719315344680477
30
0
10
4.3078185250299921
20
0.24793911126640689
30
0
10
4.4101212506626215
20
0.22866666779894174
30
0
10
4.5123461773778049
20
0.204221553524048
30
0
10
4.6141936684457789
20
0.18009735390451859
30
0
10
4.7156253858343096
20
0.16178154328252742
30
0
10
4.816757840835634
20
0.15390369519084912
30
0
10
4.9177745946842517
20
0.15936496327161612
30
0
10
5.01883583056674
20
0.17854695480125637
30
0
10
5.1199785999818017
20
0.20831394688389154
30
0
10
5.2210523659188182
20
0.24161490390943274
30
0
10
5.3218227422061126
20
0.26980536756425899
30
0
10
5.4220547395465593
20
0.28465853895438298
30
0
10
5.5215985908991803
20
0.28037309672164118
30
0
10
5.6204871917518995
20
0.25587556628768043
30
0
10
5.7189898971896032
20
0.21610584052822057
30
0
10
5.8174934624530419
20
0.16931716808064937
30
0
10
5.9164076462209998
20
0.12495037016118068
30
0
10
6.016065322188048
20
0.091366062263490075
30
0
10
6.1166151968670421
20
0.073445583153908062
30
0
10
6.2179463558486967
20
0.070815027672831779
30
0
10
6.3197961960030664
20
0.079725833103500343
30
0
10
6.4218381780226865
20
0.094512859415313163
30
0
10
6.5237722465912533
20
0.1091524455397411
30
0
10
6.625426102869735
20
0.11892388799512144
30
0
10
6.7268148823246214
20
0.12157328535174464
30
0
10
6.8280529718048442
20
0.11662994985080068
30
0
10
6.9292871353931389
20
0.10501704907260116
30
0
10
7.0306272588646026
20
0.088567200395166384
30
0
10
7.1320639581511429
20
0.069532754236051431
30
0
10
7.2334374787219353
20
0.050248887288597041
30
0
10
7.334530760832962
20
0.033204809444487893
30
0
10
7.4351421641837989
20
0.021054156571903862
30
0
10
7.5351573597815644
20
0.016604738297352029
30
0
10
7.6346429480531413
20
0.022924723280434232
30
0
10
7.7338592132865287
20
0.043040710267354752
30
0
10
7.8331197228846712
20
0.078903835736668634
30
0
10
7.9326781511912987
20
0.13044420601685355
30
0
10
8.0326174982947016
20
0.19473922438036004
30
0
10
8.1327063634043224
20
0.26477202520934184
30
0
10
8.2323742779955253
20
0.32954928314788667
30
0
10
8.3309422259206336
20
0.37708081818162936
30
0
10
8.4278061844333187
20
0.39684649830507046
30
0
10
8.5226263867201251
20
0.38229538640675581
30
0
10
8.6155452163050548
20
0.33374310624080999
30
0
10
8.707296860208892
20
0.25982765415739201
30
0
10
8.7989269888951291
20
0.17380506955040742
30
0
10
8.8915795002494384
20
0.090730440339071822
30
0
10
8.9862512092774836
20
0.024218967930500244
30
0
10
9.0835735715556627
20
-0.016443582694893606
30
0
10
9.1835470209327852
20
-0.029795220638787305
30
0
10
9.2856824908597417
20
-0.02051145377485691
30
0
10
9.3892001393561806
20
0.0030090267008694425
30
0
10
9.4932095423620702
20
0.030821424030589743
30
0
10
9.5968934934822308
20
0.053661586351534479
30
0
10
9.6997012679247767
20
0.065282644952900662
30
0
10
9.8013052006410089
20
0.061969710544835695
30
0
10
9.8814940141261314
20
0.045883993796158234
30
0
10
9.9409958006611134
20
0.025987517632649643
30
0
10
9.9803793222714603
20
0.0092425986143617588
30
0
10
10
20
0
30
0
0
SPLINE
5
104
100
AcDbEntity
8
0
100
AcDbSpline
70
4
71
5
72
111
73
105
74
0
42
0.000000001
43
0.0000000001
44
0.0000000001
40
0
40
0
40
0
40
0
40
0
40
0
40
0.01
40
0.02
40
0.029999999999999999
40
0.040000000000000001
40
0.050000000000000003
40
0.060000000000000005
40
0.070000000000000007
40
0.080000000000000002
40
0.089999999999999997
40
0.099999999999999992
40
0.10999999999999999
40
0.11999999999999998
40
0.12999999999999998
40
0.13999999999999999
40
0.14999999999999999
40
0.16
40
0.17000000000000001
40
0.18000000000000002
40
0.19000000000000003
40
0.20000000000000004
40
0.21000000000000005
40
0.22000000000000006
40
0.23000000000000007
40
0.24000000000000007
40
0.25000000000000006
40
0.26000000000000006
40
0.27000000000000007
40
0.28000000000000008
40
0.29000000000000009
40
0.3000000000000001
40
0.31000000000000011
40
0.32000000000000012
40
0.33000000000000013
40
0.34000000000000014
40
0.35000000000000014
40
0.36000000000000015
40
0.37000000000000016
40
0.38000000000000017
40
0.39000000000000018
40
0.40000000000000019
40
0.4100000000000002
40
0.42000000000000021
40
0.43000000000000022
40
0.44000000000000022
40
0.45000000000000023
40
0.46000000000000024
40
0.47000000000000025
40
0.48000000000000026
40
0.49000000000000027
40
0.50000000000000022
40
0.51000000000000023
40
0.52000000000000024
40
0.53000000000000025
40
0.54000000000000026
40
0.55000000000000027
40
0.56000000000000028
40
0.57000000000000028
40
0.58000000000000029
40
0.5900000000000003
40
0.60000000000000031
40
0.61000000000000032
40
0.62000000000000033
40
0.63000000000000034
40
0.64000000000000035
40
0.65000000000000036
40
0.66000000000000036
40
0.67000000000000037
40
0.68000000000000038
40
0.69000000000000039
40
0.7000000000000004
40
0.71000000000000041
40
0.72000000000000042
40
0.73000000000000043
40
0.74000000000000044
40
0.75000000000000044
40
0.76000000000000045
40
0.77000000000000046
40
0.78000000000000047
40
0.79000000000000048
40
0.80000000000000049
40
0.8100000000000005
40
0.82000000000000051
40
0.83000000000000052
40
0.84000000000000052
40
0.85000000000000053
40
0.86000000000000054
40
0.87000000000000055
40
0.88000000000000056
40
0.89000000000000057
40
0.90000000000000058
40
0.91000000000000059
40
0.9200000000000006
40
0.9300000000000006
40
0.94000000000000061
40
0.95000000000000062
40
0.96000000000000063
40
0.97000000000000064
40
0.98000000000000065
40
0.99000000000000066
40
1
40
1
40
1
40
1
40
1
40
1
41
1
41
1
41
1
41
1
41
1
41
1
41
1
41
1
41
1
41
1
41
1
41
1
41
1
41
1
41
1
41
1
41
1
41
1
41
1
41
1
41
1
41
1
41
1
41
1
41
1
41
1
41
1
41
1
41
1
41
1
41
1
41
1
41
1
41
1
41
1
41
1
41
1
41
1
41
1
41
1
41
1
41
1
41
1
41
1
41
1
41
1
41
1
41
1
41
1
41
1
41
1
41
1
41
1
41
1
41
1
41
1
41
1
41
1
41
1
41
1
41
1
41
1
41
1
41
1
41
1
41
1
41
1
41
1
41
1
41
1
41
1
41
1
41
1
41
1
41
1
41
1
41
1
41
1
41
1
41
1
41
1
41
1
41
1
41
1
41
1
41
1
41
1
41
1
41
1
41
1
41
1
41
1
41
1
41
1
41
1
41
1
41
1
41
1
41
1
41
1
41
1
41
1
41
1
41
1
41
1
10
0
20
3
30
0
10
0.021357387774241218
20
3.0112737481416536
30
0
10
0.06386527282673278
20
3.0311253487085987
30
0
10
0.12700642473280283
20
3.0528149786108609
30
0
10
0.2099531100882121
20
3.0655570357508948
30
0
10
0.31160352164514649
20
3.0551729229850464
30
0
10
0.41133245610859159
20
3.0204695463493936
30
0
10
0.50936323488335733
20
2.965428709781083
30
0
10
0.60607214265213383
20
2.896758752411368
30
0
10
0.70201737982629209
20
2.8243879033675734
30
0
10
0.79783585465694318
20
2.7592979967299995
30
0
10
0.89415078503451706
20
2.7115798460081852
30
0
10
0.9914734406986504
20
2.6883598456094804
30
0
10
1.0901113642163147
20
2.6918815214832548
30
0
10
1.1900628068801797
20
2.7172437302195354
30
0
10
1.2911008657928864
20
2.7549017106586264
30
0
10
1.3928728459930539
20
2.7935468999848405
30
0
10
1.4949948163871432
20
2.8228771548659126
30
0
10
1.5971463911370112
20
2.8363485870044758
30
0
10
1.6991702221605445
20
2.8341135563727522
30
0
10
1.801034123168618
20
2.8208671098617604
30
0
10
1.9027864532732619
20
2.8034388497837339
30
0
10
2.0045143307018378
20
2.7885046972428364
30
0
10
2.1062999995827996
20
2.7801910942184471
30
0
10
2.2081799158812743
20
2.7778836067578712
30
0
10
2.3101563270789569
20
2.7782886732322289
30
0
10
2.412207137436015
20
2.7773780497062606
30
0
10
2.514295951617378
20
2.7722910069783517
30
0
10
2.6163830588466781
20
2.76345314509721
30
0
10
2.7184330352539288
20
2.7560256443404336
30
0
10
2.8204010128907835
20
2.7570102965471426
30
0
10
2.9222201334905695
20
2.7727259216795992
30
0
10
3.0237908116593455
20
2.8063402758767291
30
0
10
3.1249638532175812
20
2.8549098670441042
30
0
10
3.225542637457318
20
2.9080681447834151
30
0
10
3.3253489332812238
20
2.9524204367060767
30
0
10
3.4242810648350117
20
2.9751271448733254
30
0
10
3.5223695355330471
20
2.9675560472633715
30
0
10
3.6198469977604337
20
2.9294958867219236
30
0
10
3.7171716090240752
20
2.8713201849811982
30
0
10
3.8148821976946685
20
2.80858385369068
30
0
10
3.91347777188387
20
2.7577514064035165
30
0
10
4.0132926465795764
20
2.7316494808858893
30
0
10
4.1143612330759041
20
2.7346440426261767
30
0
10
4.2163224592640844
20
2.7590737611700851
30
0
10
4.318603990221245
20
2.7907559285706345
30
0
10
4.4205811256178329
20
2.8136551772727842
30
0
10
4.5217366751104286
20
2.8146164748143603
30
0
10
4.6218409063598722
20
2.7886733530351471
30
0
10
4.7210605933371061
20
2.7422763805004284
30
0
10
4.8197849444358178
20
2.6881828425278078
30
0
10
4.9184916980476645
20
2.6415345409602518
30
0
10
5.0176038396918958
20
2.6156479998865327
30
0
10
5.1173356143339452
20
2.617515581274807
30
0
10
5.217586992492639
20
2.6446586132537182
30
0
10
5.3180887271667929
20
2.6890197837612217
30
0
10
5.4185169792617867
20
2.7399849371205582
30
0
10
5.5186135887803287
20
2.7875992621489369
30
0
10
5.6183183551150826
20
2.8260336477755761
30
0
10
5.7178530695781671
20
2.8559453127711669
30
0
10
5.817571371383373
20
2.8813999971075797
30
0
10
5.9178373063161649
20
2.9074702549139317
30
0
10
6.0188996488426474
20
2.9377158040248599
30
0
10
6.1207517523230281
20
2.9713749795837114
30
0
10
6.2230461877764442
20
3.0016936040977402
30
0
10
6.3252663860221316
20
3.0195797343776083
30
0
10
6.4268674995780852
20
3.0166475943030839
30
0
10
6.5274192367977619
20
2.9882368420698899
30
0
10
6.6267714821054957
20
2.937065006972484
30
0
10
6.725135513432388
20
2.8746454756932383
30
0
10
6.8229216727358626
20
2.8163343308375581
30
0
10
6.9206187551260818
20
2.7774368746780516
30
0
10
7.0186628710701964
20
2.7691117986078915
30
0
10
7.1172968852103482
20
2.7938504427244131
30
0
10
7.21647576328977
20
2.8426697876715599
30
0
10
7.3159923916678018
20
2.9003544564444135
30
0
10
7.4155741469248406
20
2.9496404597171337
30
0
10
7.5149869916952907
20
2.9756582533963902
30
0
10
7.6141453208953127
20
2.9706200326033216
30
0
10
7.7131930123096648
20
2.9373612101043669
30
0
10
7.8123968874752912
20
2.8854335376035669
30
0
10
7.912060593065549
20
2.8280276930371162
30
0
10
8.0124333201521178
20
2.77864711833156
30
0
10
8.1136144111904009
20
2.7477277670339326
30
0
10
8.2154779452275797
20
2.7397493982916812
30
0
10
8.3177577043003321
20
2.7545520216174788
30
0
10
8.4201176615094333
20
2.7882261650273139
30
0
10
8.5222249604660654
20
2.8341729391980381
30
0
10
8.6238288994602321
20
2.8840698595786503
30
0
10
8.7248156888601276
20
2.9289343658064797
30
0
10
8.8251663171000878
20
2.9603831648267831
30
0
10
8.9249289249167703
20
2.9719105179315686
30
0
10
9.0241866376468423
20
2.9600662433145692
30
0
10
9.1230247878539146
20
2.9258995824452017
30
0
10
9.2215064519497467
20
2.8756027491008131
30
0
10
9.3196792518182612
20
2.8185392437241656
30
0
10
9.4175768187555207
20
2.7656895819354737
30
0
10
9.5152223166761054
20
2.7279798042687715
30
0
10
9.6126311693147528
20
2.7145533220877081
30
0
10
9.7098138571489496
20
2.7313833261740816
30
0
10
9.806776710676985
20
2.7820742394717812
30
0
10
9.8841737335129203
20
2.8511353668475885
30
0
10
9.9421245596313366
20
2.9192303867063081
30
0
10
9.9807153661495498
20
2.9718696821163446
30
0
10
10
20
3
30
0
0
ENDSEC
0
SECTION
2
OBJECTS
0
DICTIONARY
5
C
100
AcDbDictionary
3
ACAD_GROUP
350
D
3
ACAD_MLINESTYLE
350
17
0
DICTIONARY
5
D
100
AcDbDictionary
0
DICTIONARY
5
1A
330
C
100
AcDbDictionary
0
DICTIONARY
5
17
100
AcDbDictionary
0
ENDSEC
0
EOF
