0
SECTION
2
HEADER
9
$INSUNITS
70
4
9
$ACADVER
1
AC1014
9
$HANDSEED
5
FFFF
0
ENDSEC
0
SECTION
2
TABLES
0
TABLE
2
VPORT
5
8
100
AcDbSymbolTable
0
ENDTAB
0
TABLE
2
LTYPE
5
5
100
AcDbSymbolTable
0
LTYPE
5
14
100
AcDbSymbolTableRecord
100
AcDbLinetypeTableRecord
2
BYBLOCK
70
0
0
LTYPE
5
15
100
AcDbSymbolTableRecord
100
AcDbLinetypeTableRecord
2
BYLAYER
70
0
0
ENDTAB
0
TABLE
2
LAYER
5
2
100
AcDbSymbolTable
70
2
0
LAYER
5
50
100
AcDbSymbolTableRecord
100
AcDbLayerTableRecord
2
0
70
0
6
CONTINUOUS
0
ENDTAB
0
TABLE
2
STYLE
5
3
100
AcDbSymbolTable
70
1
0
STYLE
5
11
100
AcDbSymbolTableRecord
100
AcDbTextStyleTableRecord
2
STANDARD
70
0
0
ENDTAB
0
TABLE
2
VIEW
5
6
100
AcDbSymbolTable
70
0
0
ENDTAB
0
TABLE
2
UCS
5
7
100
AcDbSymbolTable
70
0
0
ENDTAB
0
TABLE
2
APPID
5
9
100
AcDbSymbolTable
70
2
0
APPID
5
12
100
AcDbSymbolTableRecord
100
AcDbRegAppTableRecord
2
ACAD
70
0
0
ENDTAB
0
TABLE
2
DIMSTYLE
5
A
100
AcDbSymbolTable
70
1
0
ENDTAB
0
TABLE
2
BLOCK_RECORD
5
1
100
AcDbSymbolTable
70
1
0
BLOCK_RECORD
5
1F
100
AcDbSymbolTableRecord
100
AcDbBlockTableRecord
2
*MODEL_SPACE
0
BLOCK_RECORD
5
1B
100
AcDbSymbolTableRecord
100
AcDbBlockTableRecord
2
*PAPER_SPACE
0
ENDTAB
0
ENDSEC
0
SECTION
2
BLOCKS
0
BLOCK
5
20
100
AcDbEntity
100
AcDbBlockBegin
2
*MODEL_SPACE
0
ENDBLK
5
21
100
AcDbEntity
100
AcDbBlockEnd
0
BLOCK
5
1C
100
AcDbEntity
100
AcDbBlockBegin
2
*PAPER_SPACE
0
ENDBLK
5
1D
100
AcDbEntity
100
AcDbBlockEnd
0
ENDSEC
0
SECTION
2
ENTITIES
0
SPLINE
5
100
100
AcDbEntity
8
0
100
AcDbSpline
70
4
71
5
72
16
73
10
74
0
42
0.000000001
43
0.0000000001
44
0.0000000001
40
0
40
0
40
0
40
0
40
0
40
0
40
0.20000000000000001
40
0.40000000000000002
40
0.60000000000000009
40
0.80000000000000004
40
1
40
1
40
1
40
1
40
1
40
1
41
1
41
1
41
1
41
1
41
1
41
1
41
1
41
1
41
1
41
1
10
0
20
0
30
0
10
0
20
0.12000000000003158
30
0
10
0
20
0.36000000000007704
30
0
10
0
20
0.72000000000009301
30
0
10
0
20
1.2000000000000313
30
0
10
0
20
1.7999999999999146
30
0
10
0
20
2.2799999999998684
30
0
10
0
20
2.6399999999999042
30
0
10
0
20
2.8799999999999617
30
0
10
0
20
3
30
0
0
SPLINE
5
101
100
AcDbEntity
8
0
100
AcDbSpline
70
4
71
5
72
16
73
10
74
0
42
0.000000001
43
0.0000000001
44
0.0000000001
40
0
40
0
40
0
40
0
40
0
40
0
40
0.20000000000000001
40
0.40000000000000002
40
0.60000000000000009
40
0.80000000000000004
40
1
40
1
40
1
40
1
40
1
40
1
41
1
41
1
41
1
41
1
41
1
41
1
41
1
41
1
41
1
41
1
10
10
20
0
30
0
10
9.9999999999997495
20
0.12000000000003158
30
0
10
9.9999999999993197
20
0.36000000000007704
30
0
10
9.9999999999989129
20
0.72000000000009301
30
0
10
9.9999999999987672
20
1.2000000000000313
30
0
10
9.9999999999990248
20
1.7999999999999146
30
0
10
9.9999999999993889
20
2.2799999999998684
30
0
10
9.9999999999996998
20
2.6399999999999042
30
0
10
9.9999999999999005
20
2.8799999999999617
30
0
10
10
20
3
30
0
0
SPLINE
5
102
100
AcDbEntity
8
0
100
AcDbSpline
70
4
71
5
72
16
73
10
74
0
42
0.000000001
43
0.0000000001
44
0.0000000001
40
0
40
0
40
0
40
0
40
0
40
0
40
0.20000000000000001
40
0.40000000000000002
40
0.60000000000000009
40
0.80000000000000004
40
1
40
1
40
1
40
1
40
1
40
1
41
1
41
1
41
1
41
1
41
1
41
1
41
1
41
1
41
1
41
1
10
0
20
1.5
30
0
10
0.40000000000047375
20
1.499999999999694
30
0
10
1.2000000000012774
20
1.4999999999991638
30
0
10
2.4000000000020547
20
1.4999999999986278
30
0
10
4.0000000000023546
20
1.4999999999983737
30
0
10
6.0000000000019584
20
1.4999999999985913
30
0
10
7.6000000000012928
20
1.4999999999990359
30
0
10
8.800000000000697
20
1.4999999999994786
30
0
10
9.6000000000002395
20
1.4999999999998188
30
0
10
10
20
1.5
30
0
0
SPLINE
5
103
100
AcDbEntity
8
0
100
AcDbSpline
70
4
71
5
72
61
73
55
74
0
42
0.000000001
43
0.0000000001
44
0.0000000001
40
0
40
0
40
0
40
0
40
0
40
0
40
0.02
40
0.040000000000000001
40
0.059999999999999998
40
0.080000000000000002
40
0.10000000000000001
40
0.12000000000000001
40
0.14000000000000001
40
0.16
40
0.17999999999999999
40
0.19999999999999998
40
0.21999999999999997
40
0.23999999999999996
40
0.25999999999999995
40
0.27999999999999997
40
0.29999999999999999
40
0.32000000000000001
40
0.34000000000000002
40
0.36000000000000004
40
0.38000000000000006
40
0.40000000000000008
40
0.4200000000000001
40
0.44000000000000011
40
0.46000000000000013
40
0.48000000000000015
40
0.50000000000000011
40
0.52000000000000013
40
0.54000000000000015
40
0.56000000000000016
40
0.58000000000000018
40
0.6000000000000002
40
0.62000000000000022
40
0.64000000000000024
40
0.66000000000000025
40
0.68000000000000027
40
0.70000000000000029
40
0.72000000000000031
40
0.74000000000000032
40
0.76000000000000034
40
0.78000000000000036
40
0.80000000000000038
40
0.8200000000000004
40
0.84000000000000041
40
0.86000000000000043
40
0.88000000000000045
40
0.90000000000000047
40
0.92000000000000048
40
0.9400000000000005
40
0.96000000000000052
40
0.98000000000000054
40
1
40
1
40
1
40
1
40
1
40
1
41
1
41
1
41
1
41
1
41
1
41
1
41
1
41
1
41
1
41
1
41
1
41
1
41
1
41
1
41
1
41
1
41
1
41
1
41
1
41
1
41
1
41
1
41
1
41
1
41
1
41
1
41
1
41
1
41
1
41
1
41
1
41
1
41
1
41
1
41
1
41
1
41
1
41
1
41
1
41
1
41
1
41
1
41
1
41
1
41
1
41
1
41
1
41
1
41
1
41
1
41
1
41
1
41
1
41
1
41
1
10
0
20
0
30
0
10
0.040545134813155699
20
0.0040397633892415982
30
0
10
0.12160123012417334
20
0.012024642079932032
30
0
10
0.24308284870544383
20
0.023718047090338926
30
0
10
0.40485317020883249
20
0.038740788453010704
30
0
10
0.60673808876710156
20
0.056345820071333708
30
0
10
0.80833852760970393
20
0.07209783409973082
30
0
10
1.0097421846375434
20
0.084647945600421756
30
0
10
1.2110972188311522
20
0.091728358310379954
30
0
10
1.412624554848102
20
0.089988716734791321
30
0
10
1.6145472289399996
20
0.076548367255780389
30
0
10
1.817022005989869
20
0.050518544835405063
30
0
10
2.0200722766208989
20
0.014462138301950258
30
0
10
2.223514812316179
20
-0.023929851690858824
30
0
10
2.4269037597330971
20
-0.050760222859733618
30
0
10
2.6296477501846551
20
-0.05062618303865507
30
0
10
2.831114111834296
20
-0.010967468916386345
30
0
10
3.0307353245583437
20
0.073671508596654722
30
0
10
3.2281204817414006
20
0.1967994754166445
30
0
10
3.4231477993358062
20
0.33691178805258953
30
0
10
3.6159358280637739
20
0.46542705818135421
30
0
10
3.8068291263581635
20
0.55331857851512967
30
0
10
3.9963794220278577
20
0.57828165193925762
30
0
10
4.1853284340227894
20
0.53159879222143236
30
0
10
4.3745929580562368
20
0.42540538501303249
30
0
10
4.5651256194800336
20
0.28529774881829145
30
0
10
4.7577770303959701
20
0.14286236309640543
30
0
10
4.9531498216149199
20
0.027972023741062967
30
0
10
5.151472430598993
20
-0.038169958741462
30
0
10
5.3524196910171931
20
-0.051996791841217298
30
0
10
5.5552537092748953
20
-0.024267390578567555
30
0
10
5.7590531718454852
20
0.026683841330027918
30
0
10
5.9629188361022507
20
0.080688965883578517
30
0
10
6.1661740528911597
20
0.12151164020131014
30
0
10
6.3686064293051459
20
0.14362034429980461
30
0
10
6.5703687420353525
20
0.1500403796232711
30
0
10
6.7718092401588104
20
0.14833237267007454
30
0
10
6.9733235797515007
20
0.1471532408489733
30
0
10
7.1752057566665997
20
0.15276442515524719
30
0
10
7.3774786315240446
20
0.16506761377506574
30
0
10
7.579964077822769
20
0.17932865146725058
30
0
10
7.7823869294527874
20
0.18870620827464607
30
0
10
7.9844679135558216
20
0.18652025409958467
30
0
10
8.1860181333612498
20
0.16855356464838819
30
0
10
8.3870411387020454
20
0.13554662460987074
30
0
10
8.5876857370309043
20
0.091950931168485239
30
0
10
8.788187315939604
20
0.044395394143841513
30
0
10
8.9888131665416466
20
0.00025205675622024806
30
0
10
9.1898072999790585
20
-0.033809095644403916
30
0
10
9.3913326310528866
20
-0.053336362800374043
30
0
10
9.5934851551209572
20
-0.055706192740040961
30
0
10
9.7557466315784787
20
-0.042845856041350487
30
0
10
9.8777528083320192
20
-0.024719195945549333
30
0
10
9.9592279824428314
20
-0.0088675890131540026
30
0
10
10
20
0
30
0
0
SPLINE
5
104
100
AcDbEntity
8
0
100
AcDbSpline
70
4
71
5
72
61
73
55
74
0
42
0.000000001
43
0.0000000001
44
0.0000000001
40
0
40
0
40
0
40
0
40
0
40
0
40
0.02
40
0.040000000000000001
40
0.059999999999999998
40
0.080000000000000002
40
0.10000000000000001
40
0.12000000000000001
40
0.14000000000000001
40
0.16
40
0.17999999999999999
40
0.19999999999999998
40
0.21999999999999997
40
0.23999999999999996
40
0.25999999999999995
40
0.27999999999999997
40
0.29999999999999999
40
0.32000000000000001
40
0.34000000000000002
40
0.36000000000000004
40
0.38000000000000006
40
0.40000000000000008
40
0.4200000000000001
40
0.44000000000000011
40
0.46000000000000013
40
0.48000000000000015
40
0.50000000000000011
40
0.52000000000000013
40
0.54000000000000015
40
0.56000000000000016
40
0.58000000000000018
40
0.6000000000000002
40
0.62000000000000022
40
0.64000000000000024
40
0.66000000000000025
40
0.68000000000000027
40
0.70000000000000029
40
0.72000000000000031
40
0.74000000000000032
40
0.76000000000000034
40
0.78000000000000036
40
0.80000000000000038
40
0.8200000000000004
40
0.84000000000000041
40
0.86000000000000043
40
0.88000000000000045
40
0.90000000000000047
40
0.92000000000000048
40
0.9400000000000005
40
0.96000000000000052
40
0.98000000000000054
40
1
40
1
40
1
40
1
40
1
40
1
41
1
41
1
41
1
41
1
41
1
41
1
41
1
41
1
41
1
41
1
41
1
41
1
41
1
41
1
41
1
41
1
41
1
41
1
41
1
41
1
41
1
41
1
41
1
41
1
41
1
41
1
41
1
41
1
41
1
41
1
41
1
41
1
41
1
41
1
41
1
41
1
41
1
41
1
41
1
41
1
41
1
41
1
41
1
41
1
41
1
41
1
41
1
41
1
41
1
41
1
41
1
41
1
41
1
41
1
41
1
10
0
20
3
30
0
10
0.041998278583687897
20
3.0216598230209324
30
0
10
0.12567780201513093
20
3.0601453563255401
30
0
10
0.25024598306460633
20
3.1033712402954565
30
0
10
0.41443346873561965
20
3.1319826959893788
30
0
10
0.61653462706805318
20
3.1203622634713941
30
0
10
0.81563311506862302
20
3.064522726043621
30
0
10
1.0119988371675208
20
2.9709229963564834
30
0
10
1.2060925169524364
20
2.8505198432595886
30
0
10
1.3986090999647631
20
2.7197553089932751
30
0
10
1.5903686452716919
20
2.5974214222862453
30
0
10
1.7822160456998903
20
2.5017703566525737
30
0
10
1.9749155365826885
20
2.4474581816424354
30
0
10
2.1690519979007208
20
2.442722330664282
30
0
10
2.3649163867951897
20
2.4859880361849935
30
0
10
2.562541966721259
20
2.567917976339527
30
0
10
2.7617605303267685
20
2.674167418026077
30
0
10
2.9622507127802731
20
2.7879036321522559
30
0
10
3.1635896425813517
20
2.8923470710847266
30
0
10
3.3653014697163854
20
2.9734784486980494
30
0
10
3.5669168120867467
20
3.0211682864290901
30
0
10
3.7680327763038113
20
3.0299151688053745
30
0
10
3.9683755557603373
20
2.9998138397272935
30
0
10
4.1678563295336017
20
2.9372570328142484
30
0
10
4.366646076096254
20
2.8562550914035589
30
0
10
4.5650966956846588
20
2.7749874058407213
30
0
10
4.763636889762533
20
2.7116158911429089
30
0
10
4.9626740721279665
20
2.6801879590902273
30
0
10
5.1625006966284488
20
2.6868798266806149
30
0
10
5.3631803666273035
20
2.7250676103111324
30
0
10
5.5645918847670215
20
2.779177321616852
30
0
10
5.7665065624406155
20
2.8303298097140313
30
0
10
5.968655146477948
20
2.8615157025033335
30
0
10
6.1707956397836119
20
2.8626021678968083
30
0
10
6.3727893790010279
20
2.8363895377684001
30
0
10
6.5745898169428072
20
2.794937989766233
30
0
10
6.7762160534841787
20
2.754272148566002
30
0
10
6.9777317788184838
20
2.7295626008652847
30
0
10
7.1792224128644078
20
2.7303496922394839
30
0
10
7.380772226061235
20
2.7550953089992096
30
0
10
7.5824532028177352
20
2.7944006210422652
30
0
10
7.7843155727510727
20
2.8352035843245691
30
0
10
7.9863774640340726
20
2.8646610029838455
30
0
10
8.188615335995058
20
2.8740510824315675
30
0
10
8.3909526313858311
20
2.8629719935324967
30
0
10
8.5932767607489335
20
2.837260216444824
30
0
10
8.7954578411293998
20
2.8064956450701697
30
0
10
8.9973667828577604
20
2.7816644517820821
30
0
10
9.1988935457425356
20
2.7727726277964275
30
0
10
9.3999656314658786
20
2.7864488034918193
30
0
10
9.6005404822753206
20
2.826612759968353
30
0
10
9.7605861764317368
20
2.8814678803525124
30
0
10
9.8803847059209708
20
2.9356613713699558
30
0
10
9.9601456862872819
20
2.9775875883372653
30
0
10
10
20
3
30
0
0
ENDSEC
0
SECTION
2
OBJECTS
0
DICTIONARY
5
C
100
AcDbDictionary
3
ACAD_GROUP
350
D
3
ACAD_MLINESTYLE
350
17
0
DICTIONARY
5
D
100
AcDbDictionary
0
DICTIONARY
5
1A
330
C
100
AcDbDictionary
0
DICTIONARY
5
17
100
AcDbDictionary
0
ENDSEC
0
EOF
