0
SECTION
2
HEADER
9
$INSUNITS
70
4
9
$ACADVER
1
AC1014
9
$HANDSEED
5
FFFF
0
ENDSEC
0
SECTION
2
TABLES
0
TABLE
2
VPORT
5
8
100
AcDbSymbolTable
0
ENDTAB
0
TABLE
2
LTYPE
5
5
100
AcDbSymbolTable
0
LTYPE
5
14
100
AcDbSymbolTableRecord
100
AcDbLinetypeTableRecord
2
BYBLOCK
70
0
0
LTYPE
5
15
100
AcDbSymbolTableRecord
100
AcDbLinetypeTableRecord
2
BYLAYER
70
0
0
ENDTAB
0
TABLE
2
LAYER
5
2
100
AcDbSymbolTable
70
2
0
LAYER
5
50
100
AcDbSymbolTableRecord
100
AcDbLayerTableRecord
2
0
70
0
6
CONTINUOUS
0
ENDTAB
0
TABLE
2
STYLE
5
3
100
AcDbSymbolTable
70
1
0
STYLE
5
11
100
AcDbSymbolTableRecord
100
AcDbTextStyleTableRecord
2
STANDARD
70
0
0
ENDTAB
0
TABLE
2
VIEW
5
6
100
AcDbSymbolTable
70
0
0
ENDTAB
0
TABLE
2
UCS
5
7
100
AcDbSymbolTable
70
0
0
ENDTAB
0
TABLE
2
APPID
5
9
100
AcDbSymbolTable
70
2
0
APPID
5
12
100
AcDbSymbolTableRecord
100
AcDbRegAppTableRecord
2
ACAD
70
0
0
ENDTAB
0
TABLE
2
DIMSTYLE
5
A
100
AcDbSymbolTable
70
1
0
ENDTAB
0
TABLE
2
BLOCK_RECORD
5
1
100
AcDbSymbolTable
70
1
0
BLOCK_RECORD
5
1F
100
AcDbSymbolTableRecord
100
AcDbBlockTableRecord
2
*MODEL_SPACE
0
BLOCK_RECORD
5
1B
100
AcDbSymbolTableRecord
100
AcDbBlockTableRecord
2
*PAPER_SPACE
0
ENDTAB
0
ENDSEC
0
SECTION
2
BLOCKS
0
BLOCK
5
20
100
AcDbEntity
100
AcDbBlockBegin
2
*MODEL_SPACE
0
ENDBLK
5
21
100
AcDbEntity
100
AcDbBlockEnd
0
BLOCK
5
1C
100
AcDbEntity
100
AcDbBlockBegin
2
*PAPER_SPACE
0
ENDBLK
5
1D
100
AcDbEntity
100
AcDbBlockEnd
0
ENDSEC
0
SECTION
2
ENTITIES
0
SPLINE
5
100
100
AcDbEntity
8
0
100
AcDbSpline
70
4
71
5
72
16
73
10
74
0
42
0.000000001
43
0.0000000001
44
0.0000000001
40
0
40
0
40
0
40
0
40
0
40
0
40
0.20000000000000001
40
0.40000000000000002
40
0.60000000000000009
40
0.80000000000000004
40
1
40
1
40
1
40
1
40
1
40
1
41
1
41
1
41
1
41
1
41
1
41
1
41
1
41
1
41
1
41
1
10
0
20
0
30
0
10
0
20
0.12000000000003158
30
0
10
0
20
0.36000000000007704
30
0
10
0
20
0.72000000000009301
30
0
10
0
20
1.2000000000000313
30
0
10
0
20
1.7999999999999146
30
0
10
0
20
2.2799999999998684
30
0
10
0
20
2.6399999999999042
30
0
10
0
20
2.8799999999999617
30
0
10
0
20
3
30
0
0
SPLINE
5
101
100
AcDbEntity
8
0
100
AcDbSpline
70
4
71
5
72
16
73
10
74
0
42
0.000000001
43
0.0000000001
44
0.0000000001
40
0
40
0
40
0
40
0
40
0
40
0
40
0.20000000000000001
40
0.40000000000000002
40
0.60000000000000009
40
0.80000000000000004
40
1
40
1
40
1
40
1
40
1
40
1
41
1
41
1
41
1
41
1
41
1
41
1
41
1
41
1
41
1
41
1
10
10
20
0
30
0
10
9.9999999999997495
20
0.12000000000003158
30
0
10
9.9999999999993197
20
0.36000000000007704
30
0
10
9.9999999999989129
20
0.72000000000009301
30
0
10
9.9999999999987672
20
1.2000000000000313
30
0
10
9.9999999999990248
20
1.7999999999999146
30
0
10
9.9999999999993889
20
2.2799999999998684
30
0
10
9.9999999999996998
20
2.6399999999999042
30
0
10
9.9999999999999005
20
2.8799999999999617
30
0
10
10
20
3
30
0
0
SPLINE
5
102
100
AcDbEntity
8
0
100
AcDbSpline
70
4
71
5
72
16
73
10
74
0
42
0.000000001
43
0.0000000001
44
0.0000000001
40
0
40
0
40
0
40
0
40
0
40
0
40
0.20000000000000001
40
0.40000000000000002
40
0.60000000000000009
40
0.80000000000000004
40
1
40
1
40
1
40
1
40
1
40
1
41
1
41
1
41
1
41
1
41
1
41
1
41
1
41
1
41
1
41
1
10
0
20
1.5
30
0
10
0.40000000000047375
20
1.499999999999694
30
0
10
1.2000000000012774
20
1.4999999999991638
30
0
10
2.4000000000020547
20
1.4999999999986278
30
0
10
4.0000000000023546
20
1.4999999999983737
30
0
10
6.0000000000019584
20
1.4999999999985913
30
0
10
7.6000000000012928
20
1.4999999999990359
30
0
10
8.800000000000697
20
1.4999999999994786
30
0
10
9.6000000000002395
20
1.4999999999998188
30
0
10
10
20
1.5
30
0
0
SPLINE
5
103
100
AcDbEntity
8
0
100
AcDbSpline
70
4
71
5
72
111
73
105
74
0
42
0.000000001
43
0.0000000001
44
0.0000000001
40
0
40
0
40
0
40
0
40
0
40
0
40
0.01
40
0.02
40
0.029999999999999999
40
0.040000000000000001
40
0.050000000000000003
40
0.060000000000000005
40
0.070000000000000007
40
0.080000000000000002
40
0.089999999999999997
40
0.099999999999999992
40
0.10999999999999999
40
0.11999999999999998
40
0.12999999999999998
40
0.13999999999999999
40
0.14999999999999999
40
0.16
40
0.17000000000000001
40
0.18000000000000002
40
0.19000000000000003
40
0.20000000000000004
40
0.21000000000000005
40
0.22000000000000006
40
0.23000000000000007
40
0.24000000000000007
40
0.25000000000000006
40
0.26000000000000006
40
0.27000000000000007
40
0.28000000000000008
40
0.29000000000000009
40
0.3000000000000001
40
0.31000000000000011
40
0.32000000000000012
40
0.33000000000000013
40
0.34000000000000014
40
0.35000000000000014
40
0.36000000000000015
40
0.37000000000000016
40
0.38000000000000017
40
0.39000000000000018
40
0.40000000000000019
40
0.4100000000000002
40
0.42000000000000021
40
0.43000000000000022
40
0.44000000000000022
40
0.45000000000000023
40
0.46000000000000024
40
0.47000000000000025
40
0.48000000000000026
40
0.49000000000000027
40
0.50000000000000022
40
0.51000000000000023
40
0.52000000000000024
40
0.53000000000000025
40
0.54000000000000026
40
0.55000000000000027
40
0.56000000000000028
40
0.57000000000000028
40
0.58000000000000029
40
0.5900000000000003
40
0.60000000000000031
40
0.61000000000000032
40
0.62000000000000033
40
0.63000000000000034
40
0.64000000000000035
40
0.65000000000000036
40
0.66000000000000036
40
0.67000000000000037
40
0.68000000000000038
40
0.69000000000000039
40
0.7000000000000004
40
0.71000000000000041
40
0.72000000000000042
40
0.73000000000000043
40
0.74000000000000044
40
0.75000000000000044
40
0.76000000000000045
40
0.77000000000000046
40
0.78000000000000047
40
0.79000000000000048
40
0.80000000000000049
40
0.8100000000000005
40
0.82000000000000051
40
0.83000000000000052
40
0.84000000000000052
40
0.85000000000000053
40
0.86000000000000054
40
0.87000000000000055
40
0.88000000000000056
40
0.89000000000000057
40
0.90000000000000058
40
0.91000000000000059
40
0.9200000000000006
40
0.9300000000000006
40
0.94000000000000061
40
0.95000000000000062
40
0.96000000000000063
40
0.97000000000000064
40
0.98000000000000065
40
0.99000000000000066
40
1
40
1
40
1
40
1
40
1
40
1
41
1
41
1
41
1
41
1
41
1
41
1
41
1
41
1
41
1
41
1
41
1
41
1
41
1
41
1
41
1
41
1
41
1
41
1
41
1
41
1
41
1
41
1
41
1
41
1
41
1
41
1
41
1
41
1
41
1
41
1
41
1
41
1
41
1
41
1
41
1
41
1
41
1
41
1
41
1
41
1
41
1
41
1
41
1
41
1
41
1
41
1
41
1
41
1
41
1
41
1
41
1
41
1
41
1
41
1
41
1
41
1
41
1
41
1
41
1
41
1
41
1
41
1
41
1
41
1
41
1
41
1
41
1
41
1
41
1
41
1
41
1
41
1
41
1
41
1
41
1
41
1
41
1
41
1
41
1
41
1
41
1
41
1
41
1
41
1
41
1
41
1
41
1
41
1
41
1
41
1
41
1
41
1
41
1
41
1
41
1
41
1
41
1
41
1
41
1
41
1
41
1
41
1
41
1
41
1
41
1
10
0
20
0
30
0
10
0.01890275410994062
20
0.017402643651348748
30
0
10
0.056983671292766533
20
0.049538733588534598
30
0
10
0.11493128101830695
20
0.089735233679119425
30
0
10
0.19384743646836056
20
0.12731305981895441
30
0
10
0.29514690191665799
20
0.14828650733471141
30
0
10
0.3987961890684153
20
0.14538550187485041
30
0
10
0.50418623245263927
20
0.12286732714169836
30
0
10
0.61029542265068548
20
0.087873679406964778
30
0
10
0.71560135885642984
20
0.051062984477303994
30
0
10
0.8184638210196139
20
0.024337707505723366
30
0
10
0.91749780568568995
20
0.018642735500552392
30
0
10
1.0119369102186846
20
0.041801049750595745
30
0
10
1.1020325321804669
20
0.096182602025752739
30
0
10
1.18934656663423
20
0.17687615990911648
30
0
10
1.2761309722377847
20
0.27409465728007909
30
0
10
1.3648082025391051
20
0.37515743650299371
30
0
10
1.4573806078753193
20
0.46669108901892509
30
0
10
1.5549445151744878
20
0.53660157167918188
30
0
10
1.6569729675442992
20
0.5764813340556183
30
0
10
1.7615026937523359
20
0.58235702361839237
30
0
10
1.8659707689358627
20
0.55418242367303061
30
0
10
1.967894943134497
20
0.49574776645824836
30
0
10
2.0655450999880305
20
0.41431199700972932
30
0
10
2.1588028743511241
20
0.32062849362042184
30
0
10
2.2489854899723372
20
0.22740317152352421
30
0
10
2.3381609455336387
20
0.1470639119063582
30
0
10
2.4286099070091574
20
0.089663337802153284
30
0
10
2.5222596827778321
20
0.060907386247695081
30
0
10
2.6200517573897191
20
0.059692257263131397
30
0
10
2.7215813490184928
20
0.077200331881747589
30
0
10
2.8256541731323797
20
0.10097821746676075
30
0
10
2.9307015403596774
20
0.11832353357545247
30
0
10
3.0352212687354148
20
0.11963095066469642
30
0
10
3.1382782175945407
20
0.10250009568195301
30
0
10
3.2397440878891133
20
0.073052385675949155
30
0
10
3.3399811199316898
20
0.041523107319017358
30
0
10
3.4396372560989086
20
0.018901270777815126
30
0
10
3.5394120546195817
20
0.013507093395137629
30
0
10
3.6397988150688745
20
0.026740501261915559
30
0
10
3.7409647914003745
20
0.052174116493448323
30
0
10
3.8428632318797877
20
0.0798939521968689
30
0
10
3.9452913697839631
20
0.099786249843063654
30
0
10
4.0479672897181853
20
0.10484107907025916
30
0
10
4.1506055692286017
20
0.095440482027321846
30
0
10
4.2529668882427032
20
0.079491701246966043
30
0
10
4.3548695512294238
20
0.06780551290763237
30
0
10
4.4562136635506988
20
0.070499203089739532
30
0
10
4.5569949824808855
20
0.093467374004656559
30
0
10
4.6573360874067431
20
0.1336253933606858
30
0
10
4.7574552759810693
20
0.1798163229612007
30
0
10
4.857591833075964
20
0.2179757227339528
30
0
10
4.9579395902256405
20
0.23530106382135099
30
0
10
5.0585865991698133
20
0.2242868493242276
30
0
10
5.1594284842450309
20
0.18816895096888864
30
0
10
5.2601974832886942
20
0.13980178795619139
30
0
10
5.3605710314054935
20
0.095952266022411553
30
0
10
5.4602617237518603
20
0.072708991377268523
30
0
10
5.5591041048641863
20
0.080970209192727377
30
0
10
5.6571698769205314
20
0.12055728819892644
30
0
10
5.7547484711598678
20
0.18098790402855972
30
0
10
5.8522387344590019
20
0.24666020393416085
30
0
10
5.9500637452148961
20
0.30089087083386462
30
0
10
6.0485840186208595
20
0.33002750073708498
30
0
10
6.1479920045043048
20
0.32850414067117134
30
0
10
6.248290380300805
20
0.29968425465249365
30
0
10
6.3493582432357245
20
0.25229182695262287
30
0
10
6.450994827267361
20
0.19796223690054882
30
0
10
6.5529692623404046
20
0.14850935906132523
30
0
10
6.6550752676089591
20
0.11289416076403011
30
0
10
6.7571531191181569
20
0.096032095908934037
30
0
10
6.8590792076150562
20
0.099444072472977388
30
0
10
6.9607645072704418
20
0.12134590302791612
30
0
10
7.0621498707420018
20
0.15705911602788572
30
0
10
7.1632015691628919
20
0.19905015401267032
30
0
10
7.2639119290813001
20
0.23819425655457985
30
0
10
7.3643033175438175
20
0.26568334872563798
30
0
10
7.4644319460980357
20
0.27485718577907481
30
0
10
7.5643898920185704
20
0.26281047596204443
30
0
10
7.6643126221405122
20
0.23274171006850025
30
0
10
7.7643610142844333
20
0.19280505025553171
30
0
10
7.8646906033600565
20
0.15314632436053402
30
0
10
7.9654231486741045
20
0.12337918943230873
30
0
10
8.0666208769885905
20
0.11015758846006042
30
0
10
8.1682503459348048
20
0.11400438449933881
30
0
10
8.270197754388569
20
0.13004483998103453
30
0
10
8.3723095970264421
20
0.15068946052409626
30
0
10
8.4744265296355543
20
0.1677813687059202
30
0
10
8.5764173546646898
20
0.17478656757696409
30
0
10
8.6782198558602914
20
0.1694243707872464
30
0
10
8.7798339967428465
20
0.15313934069199392
30
0
10
8.8812997108434626
20
0.12954979624794247
30
0
10
8.9826795000685671
20
0.10320996311925931
30
0
10
9.0840398782833489
20
0.078310236282905399
30
0
10
9.1854311272045397
20
0.057225064739849223
30
0
10
9.2868873705797874
20
0.04072519886191197
30
0
10
9.3884307929487871
20
0.028523672420651628
30
0
10
9.4900744262650853
20
0.019709958922513926
30
0
10
9.5918254673378875
20
0.013217728810440621
30
0
10
9.6936885352325213
20
0.0083124696837996899
30
0
10
9.7956663957147487
20
0.0045605847189823566
30
0
10
9.8773415773795712
20
0.0023058950727611865
30
0
10
9.9386504002573037
20
0.0010023402229992883
30
0
10
9.9795462498975969
20
0.0003054244302937725
30
0
10
10
20
0
30
0
0
SPLINE
5
104
100
AcDbEntity
8
0
100
AcDbSpline
70
4
71
5
72
111
73
105
74
0
42
0.000000001
43
0.0000000001
44
0.0000000001
40
0
40
0
40
0
40
0
40
0
40
0
40
0.01
40
0.02
40
0.029999999999999999
40
0.040000000000000001
40
0.050000000000000003
40
0.060000000000000005
40
0.070000000000000007
40
0.080000000000000002
40
0.089999999999999997
40
0.099999999999999992
40
0.10999999999999999
40
0.11999999999999998
40
0.12999999999999998
40
0.13999999999999999
40
0.14999999999999999
40
0.16
40
0.17000000000000001
40
0.18000000000000002
40
0.19000000000000003
40
0.20000000000000004
40
0.21000000000000005
40
0.22000000000000006
40
0.23000000000000007
40
0.24000000000000007
40
0.25000000000000006
40
0.26000000000000006
40
0.27000000000000007
40
0.28000000000000008
40
0.29000000000000009
40
0.3000000000000001
40
0.31000000000000011
40
0.32000000000000012
40
0.33000000000000013
40
0.34000000000000014
40
0.35000000000000014
40
0.36000000000000015
40
0.37000000000000016
40
0.38000000000000017
40
0.39000000000000018
40
0.40000000000000019
40
0.4100000000000002
40
0.42000000000000021
40
0.43000000000000022
40
0.44000000000000022
40
0.45000000000000023
40
0.46000000000000024
40
0.47000000000000025
40
0.48000000000000026
40
0.49000000000000027
40
0.50000000000000022
40
0.51000000000000023
40
0.52000000000000024
40
0.53000000000000025
40
0.54000000000000026
40
0.55000000000000027
40
0.56000000000000028
40
0.57000000000000028
40
0.58000000000000029
40
0.5900000000000003
40
0.60000000000000031
40
0.61000000000000032
40
0.62000000000000033
40
0.63000000000000034
40
0.64000000000000035
40
0.65000000000000036
40
0.66000000000000036
40
0.67000000000000037
40
0.68000000000000038
40
0.69000000000000039
40
0.7000000000000004
40
0.71000000000000041
40
0.72000000000000042
40
0.73000000000000043
40
0.74000000000000044
40
0.75000000000000044
40
0.76000000000000045
40
0.77000000000000046
40
0.78000000000000047
40
0.79000000000000048
40
0.80000000000000049
40
0.8100000000000005
40
0.82000000000000051
40
0.83000000000000052
40
0.84000000000000052
40
0.85000000000000053
40
0.86000000000000054
40
0.87000000000000055
40
0.88000000000000056
40
0.89000000000000057
40
0.90000000000000058
40
0.91000000000000059
40
0.9200000000000006
40
0.9300000000000006
40
0.94000000000000061
40
0.95000000000000062
40
0.96000000000000063
40
0.97000000000000064
40
0.98000000000000065
40
0.99000000000000066
40
1
40
1
40
1
40
1
40
1
40
1
41
1
41
1
41
1
41
1
41
1
41
1
41
1
41
1
41
1
41
1
41
1
41
1
41
1
41
1
41
1
41
1
41
1
41
1
41
1
41
1
41
1
41
1
41
1
41
1
41
1
41
1
41
1
41
1
41
1
41
1
41
1
41
1
41
1
41
1
41
1
41
1
41
1
41
1
41
1
41
1
41
1
41
1
41
1
41
1
41
1
41
1
41
1
41
1
41
1
41
1
41
1
41
1
41
1
41
1
41
1
41
1
41
1
41
1
41
1
41
1
41
1
41
1
41
1
41
1
41
1
41
1
41
1
41
1
41
1
41
1
41
1
41
1
41
1
41
1
41
1
41
1
41
1
41
1
41
1
41
1
41
1
41
1
41
1
41
1
41
1
41
1
41
1
41
1
41
1
41
1
41
1
41
1
41
1
41
1
41
1
41
1
41
1
41
1
41
1
41
1
41
1
41
1
41
1
41
1
41
1
10
0
20
3
30
0
10
0.021084566004134293
20
3.0150618748226208
30
0
10
0.063141294741153695
20
3.0411403440607927
30
0
10
0.12588917995776111
20
3.0681219683618504
30
0
10
0.2088784846722691
20
3.0798234218913869
30
0
10
0.31148615117821621
20
3.0552044668408431
30
0
10
0.41295145768484098
20
2.9950513143658886
30
0
10
0.51324897988620488
20
2.9067508801070154
30
0
10
0.61233586563224729
20
2.8027940084275791
30
0
10
0.71015215025739087
20
2.701498655769802
30
0
10
0.80666313741645634
20
2.622567897800665
30
0
10
0.90189717041514839
20
2.5831965847071263
30
0
10
0.99598601127690167
20
2.5939085445475789
30
0
10
1.0892023295995075
20
2.6546380176901763
30
0
10
1.1820034711559275
20
2.7503405875234748
30
0
10
1.2749358038645004
20
2.8569795055091292
30
0
10
1.3685364350388052
20
2.94776990159456
30
0
10
1.4632296090636023
20
2.999666595395861
30
0
10
1.5592395860802237
20
2.9989767105578076
30
0
10
1.6564605133794812
20
2.9492922404374533
30
0
10
1.754513178505976
20
2.8692900274730748
30
0
10
1.8529095138441467
20
2.7846269686845337
30
0
10
1.9511919471195678
20
2.7213141535967607
30
0
10
2.049066126187379
20
2.6991930440092302
30
0
10
2.1465783007021031
20
2.7236185525650489
30
0
10
2.2441094134735819
20
2.7847904913548049
30
0
10
2.3421877348391824
20
2.8647621729093764
30
0
10
2.4413439706700304
20
2.9425599722601254
30
0
10
2.5419643591832126
20
2.9996172199833455
30
0
10
2.6441074592006504
20
3.0261758689465652
30
0
10
2.7474694789060394
20
3.0233150539747164
30
0
10
2.8515610488095913
20
2.9986020266236686
30
0
10
2.9558384487027882
20
2.9632092647917352
30
0
10
3.0598393234574988
20
2.9286689954833935
30
0
10
3.1633507874697173
20
2.9032201498482593
30
0
10
3.2664135193959973
20
2.8908095343335125
30
0
10
3.3692041432508408
20
2.8921689282291396
30
0
10
3.4719500946107766
20
2.9052643013291872
30
0
10
3.5748388094916619
20
2.9260267529236366
30
0
10
3.6779098122911789
20
2.9488984907435034
30
0
10
3.7810729323278833
20
2.9678291904958298
30
0
10
3.8841732021056274
20
2.9773765643214962
30
0
10
3.9870412137369877
20
2.9738096348680614
30
0
10
4.089547375300679
20
2.9561337532801342
30
0
10
4.1916602181290914
20
2.9273572116562629
30
0
10
4.2934366910044766
20
2.8932678689512743
30
0
10
4.3950025755869113
20
2.8608774572755751
30
0
10
4.4965366039735919
20
2.836977270581269
30
0
10
4.5982527833621409
20
2.8266638543926237
30
0
10
4.7003842962967584
20
2.8318313231317447
30
0
10
4.8031278569531288
20
2.8514262908568924
30
0
10
4.9065856164608688
20
2.881746245371728
30
0
10
5.0107104424252178
20
2.9167490541863188
30
0
10
5.1152438174986887
20
2.9482888238124252
30
0
10
5.2196735430476169
20
2.9665715932400945
30
0
10
5.3233695520857873
20
2.9624753988702821
30
0
10
5.425708440258882
20
2.9298257446395439
30
0
10
5.5261952059001098
20
2.8674677185357726
30
0
10
5.6246028999673792
20
2.7819501130807369
30
0
10
5.7210523029883511
20
2.6883074329480179
30
0
10
5.8159063124186305
20
2.605053924527942
30
0
10
5.9096968081279488
20
2.5501749709150618
30
0
10
6.0030391060130697
20
2.5367601953444656
30
0
10
6.0965511512942649
20
2.5687057512919189
30
0
10
6.1907724597637781
20
2.6366116513098783
30
0
10
6.286149929794334
20
2.7231399356266213
30
0
10
6.3830216037972214
20
2.8079930068724317
30
0
10
6.4816005335236868
20
2.873215785871754
30
0
10
6.5819599278733936
20
2.9079395788069955
30
0
10
6.6840139502466345
20
2.9144727667342312
30
0
10
6.7875320182146082
20
2.9043935698398249
30
0
10
6.8921600525376912
20
2.8926085924876448
30
0
10
6.9974391233844093
20
2.8920876596995901
30
0
10
7.102825371160705
20
2.9083804460029961
30
0
10
7.207708574015057
20
2.9340392229071641
30
0
10
7.311481457754744
20
2.9541855681556402
30
0
10
7.4136111385365631
20
2.9524502671165824
30
0
10
7.5137077247776496
20
2.916572536423109
30
0
10
7.6115990754559384
20
2.8446086529833741
30
0
10
7.7073888227360143
20
2.7495251620049781
30
0
10
7.8013966634235281
20
2.6523555638815308
30
0
10
7.8941106550706532
20
2.5766212609988468
30
0
10
7.9861353861111866
20
2.5420874635278712
30
0
10
8.0781411662869615
20
2.5592202946405984
30
0
10
8.1708149655137259
20
2.6222324108809429
30
0
10
8.2647926188575092
20
2.7135985673490182
30
0
10
8.3605907182386368
20
2.8102867926460409
30
0
10
8.4585329852339619
20
2.8896655816771903
30
0
10
8.5586914193796115
20
2.934914052827212
30
0
10
8.6607896030058065
20
2.942224387191696
30
0
10
8.7642622160293371
20
2.9201745467917659
30
0
10
8.8684183560869645
20
2.883781795927046
30
0
10
8.972579424595299
20
2.849969400441605
30
0
10
9.0762154586764652
20
2.832830475379891
30
0
10
9.1791128861887419
20
2.8380132845689374
30
0
10
9.2813384008341355
20
2.8634719394808439
30
0
10
9.3831318170892768
20
2.9024750286553029
30
0
10
9.4848208463441885
20
2.9459083996902713
30
0
10
9.5867306830381711
20
2.9847640739203731
30
0
10
9.6890855962516582
20
3.0128298127772664
30
0
10
9.7920175040432937
20
3.0264508189188124
30
0
10
9.8748778953447811
20
3.0243155729140936
30
0
10
9.9373225378419612
20
3.0151135229220429
30
0
10
9.9790853399080497
20
3.0056008219245212
30
0
10
10
20
3
30
0
0
ENDSEC
0
SECTION
2
OBJECTS
0
DICTIONARY
5
C
100
AcDbDictionary
3
ACAD_GROUP
350
D
3
ACAD_MLINESTYLE
350
17
0
DICTIONARY
5
D
100
AcDbDictionary
0
DICTIONARY
5
1A
330
C
100
AcDbDictionary
0
DICTIONARY
5
17
100
AcDbDictionary
0
ENDSEC
0
EOF
