0
SECTION
2
HEADER
9
$INSUNITS
70
4
9
$ACADVER
1
AC1014
9
$HANDSEED
5
FFFF
0
ENDSEC
0
SECTION
2
TABLES
0
TABLE
2
VPORT
5
8
100
AcDbSymbolTable
0
ENDTAB
0
TABLE
2
LTYPE
5
5
100
AcDbSymbolTable
0
LTYPE
5
14
100
AcDbSymbolTableRecord
100
AcDbLinetypeTableRecord
2
BYBLOCK
70
0
0
LTYPE
5
15
100
AcDbSymbolTableRecord
100
AcDbLinetypeTableRecord
2
BYLAYER
70
0
0
ENDTAB
0
TABLE
2
LAYER
5
2
100
AcDbSymbolTable
70
2
0
LAYER
5
50
100
AcDbSymbolTableRecord
100
AcDbLayerTableRecord
2
0
70
0
6
CONTINUOUS
0
ENDTAB
0
TABLE
2
STYLE
5
3
100
AcDbSymbolTable
70
1
0
STYLE
5
11
100
AcDbSymbolTableRecord
100
AcDbTextStyleTableRecord
2
STANDARD
70
0
0
ENDTAB
0
TABLE
2
VIEW
5
6
100
AcDbSymbolTable
70
0
0
ENDTAB
0
TABLE
2
UCS
5
7
100
AcDbSymbolTable
70
0
0
ENDTAB
0
TABLE
2
APPID
5
9
100
AcDbSymbolTable
70
2
0
APPID
5
12
100
AcDbSymbolTableRecord
100
AcDbRegAppTableRecord
2
ACAD
70
0
0
ENDTAB
0
TABLE
2
DIMSTYLE
5
A
100
AcDbSymbolTable
70
1
0
ENDTAB
0
TABLE
2
BLOCK_RECORD
5
1
100
AcDbSymbolTable
70
1
0
BLOCK_RECORD
5
1F
100
AcDbSymbolTableRecord
100
AcDbBlockTableRecord
2
*MODEL_SPACE
0
BLOCK_RECORD
5
1B
100
AcDbSymbolTableRecord
100
AcDbBlockTableRecord
2
*PAPER_SPACE
0
ENDTAB
0
ENDSEC
0
SECTION
2
BLOCKS
0
BLOCK
5
20
100
AcDbEntity
100
AcDbBlockBegin
2
*MODEL_SPACE
0
ENDBLK
5
21
100
AcDbEntity
100
AcDbBlockEnd
0
BLOCK
5
1C
100
AcDbEntity
100
AcDbBlockBegin
2
*PAPER_SPACE
0
ENDBLK
5
1D
100
AcDbEntity
100
AcDbBlockEnd
0
ENDSEC
0
SECTION
2
ENTITIES
0
SPLINE
5
100
100
AcDbEntity
8
0
100
AcDbSpline
70
4
71
5
72
16
73
10
74
0
42
0.000000001
43
0.0000000001
44
0.0000000001
40
0
40
0
40
0
40
0
40
0
40
0
40
0.20000000000000001
40
0.40000000000000002
40
0.60000000000000009
40
0.80000000000000004
40
1
40
1
40
1
40
1
40
1
40
1
41
1
41
1
41
1
41
1
41
1
41
1
41
1
41
1
41
1
41
1
10
0
20
0
30
0
10
0
20
0.12000000000003158
30
0
10
0
20
0.36000000000007704
30
0
10
0
20
0.72000000000009301
30
0
10
0
20
1.2000000000000313
30
0
10
0
20
1.7999999999999146
30
0
10
0
20
2.2799999999998684
30
0
10
0
20
2.6399999999999042
30
0
10
0
20
2.8799999999999617
30
0
10
0
20
3
30
0
0
SPLINE
5
101
100
AcDbEntity
8
0
100
AcDbSpline
70
4
71
5
72
16
73
10
74
0
42
0.000000001
43
0.0000000001
44
0.0000000001
40
0
40
0
40
0
40
0
40
0
40
0
40
0.20000000000000001
40
0.40000000000000002
40
0.60000000000000009
40
0.80000000000000004
40
1
40
1
40
1
40
1
40
1
40
1
41
1
41
1
41
1
41
1
41
1
41
1
41
1
41
1
41
1
41
1
10
10
20
0
30
0
10
9.9999999999997495
20
0.12000000000003158
30
0
10
9.9999999999993197
20
0.36000000000007704
30
0
10
9.9999999999989129
20
0.72000000000009301
30
0
10
9.9999999999987672
20
1.2000000000000313
30
0
10
9.9999999999990248
20
1.7999999999999146
30
0
10
9.9999999999993889
20
2.2799999999998684
30
0
10
9.9999999999996998
20
2.6399999999999042
30
0
10
9.9999999999999005
20
2.8799999999999617
30
0
10
10
20
3
30
0
0
SPLINE
5
102
100
AcDbEntity
8
0
100
AcDbSpline
70
4
71
5
72
16
73
10
74
0
42
0.000000001
43
0.0000000001
44
0.0000000001
40
0
40
0
40
0
40
0
40
0
40
0
40
0.20000000000000001
40
0.40000000000000002
40
0.60000000000000009
40
0.80000000000000004
40
1
40
1
40
1
40
1
40
1
40
1
41
1
41
1
41
1
41
1
41
1
41
1
41
1
41
1
41
1
41
1
10
0
20
1.5
30
0
10
0.40000000000047375
20
1.499999999999694
30
0
10
1.2000000000012774
20
1.4999999999991638
30
0
10
2.4000000000020547
20
1.4999999999986278
30
0
10
4.0000000000023546
20
1.4999999999983737
30
0
10
6.0000000000019584
20
1.4999999999985913
30
0
10
7.6000000000012928
20
1.4999999999990359
30
0
10
8.800000000000697
20
1.4999999999994786
30
0
10
9.6000000000002395
20
1.4999999999998188
30
0
10
10
20
1.5
30
0
0
SPLINE
5
103
100
AcDbEntity
8
0
100
AcDbSpline
70
4
71
5
72
61
73
55
74
0
42
0.000000001
43
0.0000000001
44
0.0000000001
40
0
40
0
40
0
40
0
40
0
40
0
40
0.02
40
0.040000000000000001
40
0.059999999999999998
40
0.080000000000000002
40
0.10000000000000001
40
0.12000000000000001
40
0.14000000000000001
40
0.16
40
0.17999999999999999
40
0.19999999999999998
40
0.21999999999999997
40
0.23999999999999996
40
0.25999999999999995
40
0.27999999999999997
40
0.29999999999999999
40
0.32000000000000001
40
0.34000000000000002
40
0.36000000000000004
40
0.38000000000000006
40
0.40000000000000008
40
0.4200000000000001
40
0.44000000000000011
40
0.46000000000000013
40
0.48000000000000015
40
0.50000000000000011
40
0.52000000000000013
40
0.54000000000000015
40
0.56000000000000016
40
0.58000000000000018
40
0.6000000000000002
40
0.62000000000000022
40
0.64000000000000024
40
0.66000000000000025
40
0.68000000000000027
40
0.70000000000000029
40
0.72000000000000031
40
0.74000000000000032
40
0.76000000000000034
40
0.78000000000000036
40
0.80000000000000038
40
0.8200000000000004
40
0.84000000000000041
40
0.86000000000000043
40
0.88000000000000045
40
0.90000000000000047
40
0.92000000000000048
40
0.9400000000000005
40
0.96000000000000052
40
0.98000000000000054
40
1
40
1
40
1
40
1
40
1
40
1
41
1
41
1
41
1
41
1
41
1
41
1
41
1
41
1
41
1
41
1
41
1
41
1
41
1
41
1
41
1
41
1
41
1
41
1
41
1
41
1
41
1
41
1
41
1
41
1
41
1
41
1
41
1
41
1
41
1
41
1
41
1
41
1
41
1
41
1
41
1
41
1
41
1
41
1
41
1
41
1
41
1
41
1
41
1
41
1
41
1
41
1
41
1
41
1
41
1
41
1
41
1
41
1
41
1
41
1
41
1
10
0
20
0
30
0
10
0.039966744485678378
20
0.013865351318608317
30
0
10
0.11991376474111344
20
0.040221697165270701
30
0
10
0.23987488894803843
20
0.075633146094154488
30
0
10
0.39990429531983623
20
0.11459689553981563
30
0
10
0.60007851945416602
20
0.14960739991375593
30
0
10
0.80039588086263569
20
0.17115283754690774
30
0
10
1.000867322937895
20
0.179732849168112
30
0
10
1.2015107624062629
20
0.17621780648814844
30
0
10
1.4023527295721585
20
0.16195081696941577
30
0
10
1.6034162520380455
20
0.13889787546437793
30
0
10
1.8047087041697805
20
0.10980257293697135
30
0
10
2.0062097865648121
20
0.078334836329288199
30
0
10
2.2078590168096386
20
0.049259817232546271
30
0
10
2.4095443223444497
20
0.028559844290492187
30
0
10
2.6111298479904188
20
0.021992159576436132
30
0
10
2.8124829043837662
20
0.033669484669002547
30
0
10
3.0135007409063137
20
0.064665317349859017
30
0
10
3.2141385878595257
20
0.11151537145113424
30
0
10
3.4144341066708184
20
0.16499377251136921
30
0
10
3.6144749850594198
20
0.21318080740925494
30
0
10
3.8143695412355645
20
0.2443122190790645
30
0
10
4.0142168243359801
20
0.24965661607288669
30
0
10
4.2140756589008754
20
0.22650995242468636
30
0
10
4.4139376703325901
20
0.18080649640899371
30
0
10
4.6137601976934608
20
0.12390242360258159
30
0
10
4.8134959356739646
20
0.069701740182044308
30
0
10
5.0131230485123748
20
0.031693248452503917
30
0
10
5.2126768334095495
20
0.019953845479949401
30
0
10
5.4122760465070741
20
0.03836571967589382
30
0
10
5.6120628017698113
20
0.085665673601241804
30
0
10
5.8121466132670125
20
0.15626413092077057
30
0
10
6.012548175134186
20
0.24114916977615358
30
0
10
6.2131399023268479
20
0.32871846539190486
30
0
10
6.4135963714895761
20
0.40570406369739265
30
0
10
6.6135136333953071
20
0.45938299203322924
30
0
10
6.8125202599850629
20
0.47974269972566008
30
0
10
7.0103898779192111
20
0.46163203222086668
30
0
10
7.2071572381199367
20
0.40701809139585221
30
0
10
7.4032225936885006
20
0.32697034659938234
30
0
10
7.5991934063747859
20
0.23767453668449509
30
0
10
7.7957384978265161
20
0.15673019546501449
30
0
10
7.9934368382093162
20
0.09932406162785104
30
0
10
8.1926306711400496
20
0.074508400850735831
30
0
10
8.3932702062081503
20
0.081266942327769515
30
0
10
8.5950218741524456
20
0.11128624758312161
30
0
10
8.7973835410894168
20
0.1519045327428496
30
0
10
8.9997966419963671
20
0.1889819069214615
30
0
10
9.2017592822802357
20
0.20979532940488388
30
0
10
9.4029391575755064
20
0.20592898074405874
30
0
10
9.6031389577218231
20
0.17239359670342502
30
0
10
9.7624371933334491
20
0.11987502320797462
30
0
10
9.8814123424802673
20
0.065688420618953317
30
0
10
9.9605076847819571
20
0.022991551216635056
30
0
10
10
20
0
30
0
0
SPLINE
5
104
100
AcDbEntity
8
0
100
AcDbSpline
70
4
71
5
72
61
73
55
74
0
42
0.000000001
43
0.0000000001
44
0.0000000001
40
0
40
0
40
0
40
0
40
0
40
0
40
0.02
40
0.040000000000000001
40
0.059999999999999998
40
0.080000000000000002
40
0.10000000000000001
40
0.12000000000000001
40
0.14000000000000001
40
0.16
40
0.17999999999999999
40
0.19999999999999998
40
0.21999999999999997
40
0.23999999999999996
40
0.25999999999999995
40
0.27999999999999997
40
0.29999999999999999
40
0.32000000000000001
40
0.34000000000000002
40
0.36000000000000004
40
0.38000000000000006
40
0.40000000000000008
40
0.4200000000000001
40
0.44000000000000011
40
0.46000000000000013
40
0.48000000000000015
40
0.50000000000000011
40
0.52000000000000013
40
0.54000000000000015
40
0.56000000000000016
40
0.58000000000000018
40
0.6000000000000002
40
0.62000000000000022
40
0.64000000000000024
40
0.66000000000000025
40
0.68000000000000027
40
0.70000000000000029
40
0.72000000000000031
40
0.74000000000000032
40
0.76000000000000034
40
0.78000000000000036
40
0.80000000000000038
40
0.8200000000000004
40
0.84000000000000041
40
0.86000000000000043
40
0.88000000000000045
40
0.90000000000000047
40
0.92000000000000048
40
0.9400000000000005
40
0.96000000000000052
40
0.98000000000000054
40
1
40
1
40
1
40
1
40
1
40
1
41
1
41
1
41
1
41
1
41
1
41
1
41
1
41
1
41
1
41
1
41
1
41
1
41
1
41
1
41
1
41
1
41
1
41
1
41
1
41
1
41
1
41
1
41
1
41
1
41
1
41
1
41
1
41
1
41
1
41
1
41
1
41
1
41
1
41
1
41
1
41
1
41
1
41
1
41
1
41
1
41
1
41
1
41
1
41
1
41
1
41
1
41
1
41
1
41
1
41
1
41
1
41
1
41
1
41
1
41
1
10
0
20
3
30
0
10
0.039676117468553922
20
2.9887783558524115
30
0
10
0.11916185880253297
20
2.9684706202120332
30
0
10
0.23879099288819805
20
2.9444157201586445
30
0
10
0.39909804614746353
20
2.9251638835495495
30
0
10
0.60076969934190028
20
2.9217448060248605
30
0
10
0.80357918108580118
20
2.9367090390006005
30
0
10
1.00722304028918
20
2.9654768478947124
30
0
10
1.2111895016403531
20
3.0003201058907667
30
0
10
1.4147113718569384
20
3.0296537170864268
30
0
10
1.6169498113204892
20
3.0409459498382185
30
0
10
1.8171727750514037
20
3.023546576661178
30
0
10
2.0149317657291728
20
2.9714864587414702
30
0
10
2.2102489635164471
20
2.8864460196159643
30
0
10
2.4037755195785713
20
2.7802560459774757
30
0
10
2.596523182855953
20
2.670487997859194
30
0
10
2.789624544418277
20
2.5765059568981412
30
0
10
2.9840789076106171
20
2.515288756676731
30
0
10
3.1805134726123829
20
2.4974913082652792
30
0
10
3.3789118821140738
20
2.5229978328032852
30
0
10
3.5788024039444561
20
2.5836165844962355
30
0
10
3.7794790029502616
20
2.6662935835535331
30
0
10
3.9802134914552205
20
2.7561618182949195
30
0
10
4.1804626375442346
20
2.8395637065369299
30
0
10
4.3801005867618423
20
2.9073207305318705
30
0
10
4.5793126404910041
20
2.9544841465287925
30
0
10
4.77845590207402
20
2.9797216770052097
30
0
10
4.977930070787826
20
2.9848574944611777
30
0
10
5.1780494400759647
20
2.9743298615334108
30
0
10
5.3789002401221584
20
2.9547650955549072
30
0
10
5.5803887564670518
20
2.9335747535964214
30
0
10
5.7823109660956549
20
2.9174668924915812
30
0
10
5.9844148057120483
20
2.910952681107748
30
0
10
6.1864637765801369
20
2.9149281083062206
30
0
10
6.3883041891596193
20
2.9250045571820187
30
0
10
6.5898536545465181
20
2.9337428854386034
30
0
10
6.7910833973553775
20
2.9331699225996397
30
0
10
6.9920029068603293
20
2.9172140846106092
30
0
10
7.1926438932180528
20
2.8841228775277599
30
0
10
7.3930441753238831
20
2.839050142153499
30
0
10
7.5932469651716348
20
2.7914739008338953
30
0
10
7.7933008289817831
20
2.752431412582697
30
0
10
7.9932594308578526
20
2.7318092572445423
30
0
10
8.1931813529616093
20
2.735651112238084
30
0
10
8.393129994299704
20
2.7633342339529197
30
0
10
8.5931697212267153
20
2.8093830751338951
30
0
10
8.7933619045138034
20
2.865418299965468
30
0
10
8.9937609656413322
20
2.9220552662282753
30
0
10
9.1944104584252013
20
2.9707986557474024
30
0
10
9.3953389414222634
20
3.005995665141914
30
0
10
9.5965630107432069
20
3.0242992179532453
30
0
10
9.7577850126553756
20
3.0241094335580998
30
0
10
9.8788390534497843
20
3.0153886641560055
30
0
10
9.9596028363226505
20
3.0057645898458603
30
0
10
10
20
3
30
0
0
ENDSEC
0
SECTION
2
OBJECTS
0
DICTIONARY
5
C
100
AcDbDictionary
3
ACAD_GROUP
350
D
3
ACAD_MLINESTYLE
350
17
0
DICTIONARY
5
D
100
AcDbDictionary
0
DICTIONARY
5
1A
330
C
100
AcDbDictionary
0
DICTIONARY
5
17
100
AcDbDictionary
0
ENDSEC
0
EOF
