0
SECTION
2
HEADER
9
$INSUNITS
70
4
9
$ACADVER
1
AC1014
9
$HANDSEED
5
FFFF
0
ENDSEC
0
SECTION
2
TABLES
0
TABLE
2
VPORT
5
8
100
AcDbSymbolTable
0
ENDTAB
0
TABLE
2
LTYPE
5
5
100
AcDbSymbolTable
0
LTYPE
5
14
100
AcDbSymbolTableRecord
100
AcDbLinetypeTableRecord
2
BYBLOCK
70
0
0
LTYPE
5
15
100
AcDbSymbolTableRecord
100
AcDbLinetypeTableRecord
2
BYLAYER
70
0
0
ENDTAB
0
TABLE
2
LAYER
5
2
100
AcDbSymbolTable
70
2
0
LAYER
5
50
100
AcDbSymbolTableRecord
100
AcDbLayerTableRecord
2
0
70
0
6
CONTINUOUS
0
ENDTAB
0
TABLE
2
STYLE
5
3
100
AcDbSymbolTable
70
1
0
STYLE
5
11
100
AcDbSymbolTableRecord
100
AcDbTextStyleTableRecord
2
STANDARD
70
0
0
ENDTAB
0
TABLE
2
VIEW
5
6
100
AcDbSymbolTable
70
0
0
ENDTAB
0
TABLE
2
UCS
5
7
100
AcDbSymbolTable
70
0
0
ENDTAB
0
TABLE
2
APPID
5
9
100
AcDbSymbolTable
70
2
0
APPID
5
12
100
AcDbSymbolTableRecord
100
AcDbRegAppTableRecord
2
ACAD
70
0
0
ENDTAB
0
TABLE
2
DIMSTYLE
5
A
100
AcDbSymbolTable
70
1
0
ENDTAB
0
TABLE
2
BLOCK_RECORD
5
1
100
AcDbSymbolTable
70
1
0
BLOCK_RECORD
5
1F
100
AcDbSymbolTableRecord
100
AcDbBlockTableRecord
2
*MODEL_SPACE
0
BLOCK_RECORD
5
1B
100
AcDbSymbolTableRecord
100
AcDbBlockTableRecord
2
*PAPER_SPACE
0
ENDTAB
0
ENDSEC
0
SECTION
2
BLOCKS
0
BLOCK
5
20
100
AcDbEntity
100
AcDbBlockBegin
2
*MODEL_SPACE
0
ENDBLK
5
21
100
AcDbEntity
100
AcDbBlockEnd
0
BLOCK
5
1C
100
AcDbEntity
100
AcDbBlockBegin
2
*PAPER_SPACE
0
ENDBLK
5
1D
100
AcDbEntity
100
AcDbBlockEnd
0
ENDSEC
0
SECTION
2
ENTITIES
0
SPLINE
5
100
100
AcDbEntity
8
0
100
AcDbSpline
70
4
71
5
72
16
73
10
74
0
42
0.000000001
43
0.0000000001
44
0.0000000001
40
0
40
0
40
0
40
0
40
0
40
0
40
0.20000000000000001
40
0.40000000000000002
40
0.60000000000000009
40
0.80000000000000004
40
1
40
1
40
1
40
1
40
1
40
1
41
1
41
1
41
1
41
1
41
1
41
1
41
1
41
1
41
1
41
1
10
0
20
0
30
0
10
0
20
0.12000000000003158
30
0
10
0
20
0.36000000000007704
30
0
10
0
20
0.72000000000009301
30
0
10
0
20
1.2000000000000313
30
0
10
0
20
1.7999999999999146
30
0
10
0
20
2.2799999999998684
30
0
10
0
20
2.6399999999999042
30
0
10
0
20
2.8799999999999617
30
0
10
0
20
3
30
0
0
SPLINE
5
101
100
AcDbEntity
8
0
100
AcDbSpline
70
4
71
5
72
16
73
10
74
0
42
0.000000001
43
0.0000000001
44
0.0000000001
40
0
40
0
40
0
40
0
40
0
40
0
40
0.20000000000000001
40
0.40000000000000002
40
0.60000000000000009
40
0.80000000000000004
40
1
40
1
40
1
40
1
40
1
40
1
41
1
41
1
41
1
41
1
41
1
41
1
41
1
41
1
41
1
41
1
10
10
20
0
30
0
10
9.9999999999997495
20
0.12000000000003158
30
0
10
9.9999999999993197
20
0.36000000000007704
30
0
10
9.9999999999989129
20
0.72000000000009301
30
0
10
9.9999999999987672
20
1.2000000000000313
30
0
10
9.9999999999990248
20
1.7999999999999146
30
0
10
9.9999999999993889
20
2.2799999999998684
30
0
10
9.9999999999996998
20
2.6399999999999042
30
0
10
9.9999999999999005
20
2.8799999999999617
30
0
10
10
20
3
30
0
0
SPLINE
5
102
100
AcDbEntity
8
0
100
AcDbSpline
70
4
71
5
72
16
73
10
74
0
42
0.000000001
43
0.0000000001
44
0.0000000001
40
0
40
0
40
0
40
0
40
0
40
0
40
0.20000000000000001
40
0.40000000000000002
40
0.60000000000000009
40
0.80000000000000004
40
1
40
1
40
1
40
1
40
1
40
1
41
1
41
1
41
1
41
1
41
1
41
1
41
1
41
1
41
1
41
1
10
0
20
1.5
30
0
10
0.40000000000047375
20
1.499999999999694
30
0
10
1.2000000000012774
20
1.4999999999991638
30
0
10
2.4000000000020547
20
1.4999999999986278
30
0
10
4.0000000000023546
20
1.4999999999983737
30
0
10
6.0000000000019584
20
1.4999999999985913
30
0
10
7.6000000000012928
20
1.4999999999990359
30
0
10
8.800000000000697
20
1.4999999999994786
30
0
10
9.6000000000002395
20
1.4999999999998188
30
0
10
10
20
1.5
30
0
0
SPLINE
5
103
100
AcDbEntity
8
0
100
AcDbSpline
70
4
71
5
72
61
73
55
74
0
42
0.000000001
43
0.0000000001
44
0.0000000001
40
0
40
0
40
0
40
0
40
0
40
0
40
0.02
40
0.040000000000000001
40
0.059999999999999998
40
0.080000000000000002
40
0.10000000000000001
40
0.12000000000000001
40
0.14000000000000001
40
0.16
40
0.17999999999999999
40
0.19999999999999998
40
0.21999999999999997
40
0.23999999999999996
40
0.25999999999999995
40
0.27999999999999997
40
0.29999999999999999
40
0.32000000000000001
40
0.34000000000000002
40
0.36000000000000004
40
0.38000000000000006
40
0.40000000000000008
40
0.4200000000000001
40
0.44000000000000011
40
0.46000000000000013
40
0.48000000000000015
40
0.50000000000000011
40
0.52000000000000013
40
0.54000000000000015
40
0.56000000000000016
40
0.58000000000000018
40
0.6000000000000002
40
0.62000000000000022
40
0.64000000000000024
40
0.66000000000000025
40
0.68000000000000027
40
0.70000000000000029
40
0.72000000000000031
40
0.74000000000000032
40
0.76000000000000034
40
0.78000000000000036
40
0.80000000000000038
40
0.8200000000000004
40
0.84000000000000041
40
0.86000000000000043
40
0.88000000000000045
40
0.90000000000000047
40
0.92000000000000048
40
0.9400000000000005
40
0.96000000000000052
40
0.98000000000000054
40
1
40
1
40
1
40
1
40
1
40
1
41
1
41
1
41
1
41
1
41
1
41
1
41
1
41
1
41
1
41
1
41
1
41
1
41
1
41
1
41
1
41
1
41
1
41
1
41
1
41
1
41
1
41
1
41
1
41
1
41
1
41
1
41
1
41
1
41
1
41
1
41
1
41
1
41
1
41
1
41
1
41
1
41
1
41
1
41
1
41
1
41
1
41
1
41
1
41
1
41
1
41
1
41
1
41
1
41
1
41
1
41
1
41
1
41
1
41
1
41
1
10
0
20
0
30
0
10
0.039916870272733544
20
0.011863353990963549
30
0
10
0.11981617729694956
20
0.034396888240848258
30
0
10
0.2398618382619066
20
0.064617658023971236
30
0
10
0.40031636815316163
20
0.09774838056469394
30
0
10
0.60152345986626898
20
0.12738736998473621
30
0
10
0.80331525337846765
20
0.1457958207360682
30
0
10
1.0055815226665434
20
0.15409502273803102
30
0
10
1.2081359491974171
20
0.15419463350062629
30
0
10
1.4106986613889338
20
0.14897599696989886
30
0
10
1.6129755663042267
20
0.14147369130152465
30
0
10
1.8147366225874417
20
0.13406573786641512
30
0
10
2.0158920055142637
20
0.12769141212399684
30
0
10
2.2165755772318771
20
0.12098016583215304
30
0
10
2.4172085858437251
20
0.10962170718449818
30
0
10
2.6183125167336279
20
0.088738970773509201
30
0
10
2.8203349631575976
20
0.055122015924624838
30
0
10
3.0234773104550214
20
0.0094052469978281941
30
0
10
3.227505201729965
20
-0.041460578643179605
30
0
10
3.4316112372238821
20
-0.082601333193239798
30
0
10
3.6347117431166716
20
-0.096654414363542981
30
0
10
3.8357083227473758
20
-0.068683122157081569
30
0
10
4.033751856947859
20
0.0089743891563370433
30
0
10
4.2285313083833183
20
0.1311835697684538
30
0
10
4.4204776626412521
20
0.27662174344714441
30
0
10
4.6104943188253973
20
0.41616074812537607
30
0
10
4.7997488927874468
20
0.51970967865971907
30
0
10
4.989440366298739
20
0.56374282617117988
30
0
10
5.1805811594604769
20
0.53832600879533188
30
0
10
5.3737612745962426
20
0.45499354569910722
30
0
10
5.5692079239498247
20
0.33921326449442468
30
0
10
5.7668588012331359
20
0.22223359162499617
30
0
10
5.9664295537121301
20
0.13293035187434263
30
0
10
6.1674829715779698
20
0.090216352989365117
30
0
10
6.3694969096125762
20
0.093712726518842757
30
0
10
6.571931258837199
20
0.12860690652684476
30
0
10
6.7742933860409114
20
0.17305409578590808
30
0
10
6.9762061790053291
20
0.20481215189081131
30
0
10
7.1774707324153244
20
0.20786708007952193
30
0
10
7.3781437908314036
20
0.17993602357853691
30
0
10
7.5784628085492125
20
0.12906522476656082
30
0
10
7.7787531522909727
20
0.068885163506862856
30
0
10
7.9793403998693009
20
0.014290758507159657
30
0
10
8.1804641010912391
20
-0.022884630308677524
30
0
10
8.3821813067491426
20
-0.038639506423675675
30
0
10
8.5844069758942538
20
-0.035169381187981311
30
0
10
8.7869685576623873
20
-0.018558965523136343
30
0
10
8.9896555828989833
20
0.0032869422110669774
30
0
10
9.1922703431826775
20
0.022770701108255163
30
0
10
9.3946804272004361
20
0.034799090792898731
30
0
10
9.5968074631362512
20
0.036358198260305744
30
0
10
9.7582515983176048
20
0.028034881203217635
30
0
10
9.879184265943584
20
0.0161934921805705
30
0
10
9.9597392250664303
20
0.00581231209334283
30
0
10
10
20
0
30
0
0
SPLINE
5
104
100
AcDbEntity
8
0
100
AcDbSpline
70
4
71
5
72
61
73
55
74
0
42
0.000000001
43
0.0000000001
44
0.0000000001
40
0
40
0
40
0
40
0
40
0
40
0
40
0.02
40
0.040000000000000001
40
0.059999999999999998
40
0.080000000000000002
40
0.10000000000000001
40
0.12000000000000001
40
0.14000000000000001
40
0.16
40
0.17999999999999999
40
0.19999999999999998
40
0.21999999999999997
40
0.23999999999999996
40
0.25999999999999995
40
0.27999999999999997
40
0.29999999999999999
40
0.32000000000000001
40
0.34000000000000002
40
0.36000000000000004
40
0.38000000000000006
40
0.40000000000000008
40
0.4200000000000001
40
0.44000000000000011
40
0.46000000000000013
40
0.48000000000000015
40
0.50000000000000011
40
0.52000000000000013
40
0.54000000000000015
40
0.56000000000000016
40
0.58000000000000018
40
0.6000000000000002
40
0.62000000000000022
40
0.64000000000000024
40
0.66000000000000025
40
0.68000000000000027
40
0.70000000000000029
40
0.72000000000000031
40
0.74000000000000032
40
0.76000000000000034
40
0.78000000000000036
40
0.80000000000000038
40
0.8200000000000004
40
0.84000000000000041
40
0.86000000000000043
40
0.88000000000000045
40
0.90000000000000047
40
0.92000000000000048
40
0.9400000000000005
40
0.96000000000000052
40
0.98000000000000054
40
1
40
1
40
1
40
1
40
1
40
1
41
1
41
1
41
1
41
1
41
1
41
1
41
1
41
1
41
1
41
1
41
1
41
1
41
1
41
1
41
1
41
1
41
1
41
1
41
1
41
1
41
1
41
1
41
1
41
1
41
1
41
1
41
1
41
1
41
1
41
1
41
1
41
1
41
1
41
1
41
1
41
1
41
1
41
1
41
1
41
1
41
1
41
1
41
1
41
1
41
1
41
1
41
1
41
1
41
1
41
1
41
1
41
1
41
1
41
1
41
1
10
0
20
3
30
0
10
0.040866780019731118
20
3.0062211418444496
30
0
10
0.12253856460864315
20
3.017038142048138
30
0
10
0.24486091455790587
20
3.0283877667305701
30
0
10
0.4075864908641757
20
3.0337627128984823
30
0
10
0.61038292610841283
20
3.0245149132979057
30
0
10
0.81259421094205431
20
3.0002591874246862
30
0
10
1.0142728332114384
20
2.9629556268141344
30
0
10
1.2155084051429463
20
2.9159345047351088
30
0
10
1.4164360591453129
20
2.8641946338634963
30
0
10
1.6172200534072514
20
2.8136511046826445
30
0
10
1.8180389569944297
20
2.7704452408411573
30
0
10
2.0190701583200821
20
2.7402342670113016
30
0
10
2.2204749798742744
20
2.7274836878105013
30
0
10
2.422382646078971
20
2.7347712363081018
30
0
10
2.6248662651089516
20
2.7623713182478387
30
0
10
2.8279182566538532
20
2.8077739161228497
30
0
10
3.0314278442965787
20
2.8652976447110188
30
0
10
3.2351525637298502
20
2.9254745962775415
30
0
10
3.4387061988046055
20
2.9750482725374554
30
0
10
3.6416423321347664
20
3.0004143013476163
30
0
10
3.8435280661356455
20
2.9907733892041111
30
0
10
4.0440185159007056
20
2.9411660802126525
30
0
10
4.2429382840936389
20
2.8561249787739769
30
0
10
4.4403385227486449
20
2.7513931933819
30
0
10
4.6364560624561859
20
2.6482229788761753
30
0
10
4.8316890651950857
20
2.5687622235489167
30
0
10
5.0265648626951211
20
2.5311715729451043
30
0
10
5.221715833652846
20
2.5444960071180351
30
0
10
5.4178396475040795
20
2.6046548286194766
30
0
10
5.6155635721062609
20
2.6987253834958285
30
0
10
5.8153162869898551
20
2.8083401205740315
30
0
10
6.0172009680272343
20
2.9133721796896399
30
0
10
6.2208562070873388
20
2.9955710897590904
30
0
10
6.4253515867665323
20
3.0419871945782999
30
0
10
6.6294830831315057
20
3.0451028253992751
30
0
10
6.8320448713601412
20
3.0032581989551055
30
0
10
7.0320989677173955
20
2.9209011822243172
30
0
10
7.2292718599332284
20
2.8091169766617736
30
0
10
7.4239652756717964
20
2.6855023584077231
30
0
10
7.6170587524730546
20
2.5703370812637867
30
0
10
7.8096735686875585
20
2.4831927916979835
30
0
10
8.0029145883342228
20
2.4393870653739436
30
0
10
8.1976199225925868
20
2.4464624158553065
30
0
10
8.3941116464247365
20
2.5007225220057427
30
0
10
8.5923316287572877
20
2.5906018350171185
30
0
10
8.7919697160846813
20
2.6999017743892528
30
0
10
8.9925946543386441
20
2.8110792761679515
30
0
10
9.1937818440386323
20
2.9084642542396444
30
0
10
9.3952464749499409
20
2.9816238658262737
30
0
10
9.5968185808787574
20
3.0243807333022792
30
0
10
9.7580941212377379
20
3.0318304922641959
30
0
10
9.8790481038159186
20
3.021933230855157
30
0
10
9.9596828997990059
20
3.0084573548883449
30
0
10
10
20
3
30
0
0
ENDSEC
0
SECTION
2
OBJECTS
0
DICTIONARY
5
C
100
AcDbDictionary
3
ACAD_GROUP
350
D
3
ACAD_MLINESTYLE
350
17
0
DICTIONARY
5
D
100
AcDbDictionary
0
DICTIONARY
5
1A
330
C
100
AcDbDictionary
0
DICTIONARY
5
17
100
AcDbDictionary
0
ENDSEC
0
EOF
