0
SECTION
2
HEADER
9
$INSUNITS
70
4
9
$ACADVER
1
AC1014
9
$HANDSEED
5
FFFF
0
ENDSEC
0
SECTION
2
TABLES
0
TABLE
2
VPORT
5
8
100
AcDbSymbolTable
0
ENDTAB
0
TABLE
2
LTYPE
5
5
100
AcDbSymbolTable
0
LTYPE
5
14
100
AcDbSymbolTableRecord
100
AcDbLinetypeTableRecord
2
BYBLOCK
70
0
0
LTYPE
5
15
100
AcDbSymbolTableRecord
100
AcDbLinetypeTableRecord
2
BYLAYER
70
0
0
ENDTAB
0
TABLE
2
LAYER
5
2
100
AcDbSymbolTable
70
2
0
LAYER
5
50
100
AcDbSymbolTableRecord
100
AcDbLayerTableRecord
2
0
70
0
6
CONTINUOUS
0
ENDTAB
0
TABLE
2
STYLE
5
3
100
AcDbSymbolTable
70
1
0
STYLE
5
11
100
AcDbSymbolTableRecord
100
AcDbTextStyleTableRecord
2
STANDARD
70
0
0
ENDTAB
0
TABLE
2
VIEW
5
6
100
AcDbSymbolTable
70
0
0
ENDTAB
0
TABLE
2
UCS
5
7
100
AcDbSymbolTable
70
0
0
ENDTAB
0
TABLE
2
APPID
5
9
100
AcDbSymbolTable
70
2
0
APPID
5
12
100
AcDbSymbolTableRecord
100
AcDbRegAppTableRecord
2
ACAD
70
0
0
ENDTAB
0
TABLE
2
DIMSTYLE
5
A
100
AcDbSymbolTable
70
1
0
ENDTAB
0
TABLE
2
BLOCK_RECORD
5
1
100
AcDbSymbolTable
70
1
0
BLOCK_RECORD
5
1F
100
AcDbSymbolTableRecord
100
AcDbBlockTableRecord
2
*MODEL_SPACE
0
BLOCK_RECORD
5
1B
100
AcDbSymbolTableRecord
100
AcDbBlockTableRecord
2
*PAPER_SPACE
0
ENDTAB
0
ENDSEC
0
SECTION
2
BLOCKS
0
BLOCK
5
20
100
AcDbEntity
100
AcDbBlockBegin
2
*MODEL_SPACE
0
ENDBLK
5
21
100
AcDbEntity
100
AcDbBlockEnd
0
BLOCK
5
1C
100
AcDbEntity
100
AcDbBlockBegin
2
*PAPER_SPACE
0
ENDBLK
5
1D
100
AcDbEntity
100
AcDbBlockEnd
0
ENDSEC
0
SECTION
2
ENTITIES
0
SPLINE
5
100
100
AcDbEntity
8
0
100
AcDbSpline
70
4
71
5
72
16
73
10
74
0
42
0.000000001
43
0.0000000001
44
0.0000000001
40
0
40
0
40
0
40
0
40
0
40
0
40
0.20000000000000001
40
0.40000000000000002
40
0.60000000000000009
40
0.80000000000000004
40
1
40
1
40
1
40
1
40
1
40
1
41
1
41
1
41
1
41
1
41
1
41
1
41
1
41
1
41
1
41
1
10
0
20
0
30
0
10
0
20
0.12000000000003158
30
0
10
0
20
0.36000000000007704
30
0
10
0
20
0.72000000000009301
30
0
10
0
20
1.2000000000000313
30
0
10
0
20
1.7999999999999146
30
0
10
0
20
2.2799999999998684
30
0
10
0
20
2.6399999999999042
30
0
10
0
20
2.8799999999999617
30
0
10
0
20
3
30
0
0
SPLINE
5
101
100
AcDbEntity
8
0
100
AcDbSpline
70
4
71
5
72
16
73
10
74
0
42
0.000000001
43
0.0000000001
44
0.0000000001
40
0
40
0
40
0
40
0
40
0
40
0
40
0.20000000000000001
40
0.40000000000000002
40
0.60000000000000009
40
0.80000000000000004
40
1
40
1
40
1
40
1
40
1
40
1
41
1
41
1
41
1
41
1
41
1
41
1
41
1
41
1
41
1
41
1
10
10
20
0
30
0
10
9.9999999999997495
20
0.12000000000003158
30
0
10
9.9999999999993197
20
0.36000000000007704
30
0
10
9.9999999999989129
20
0.72000000000009301
30
0
10
9.9999999999987672
20
1.2000000000000313
30
0
10
9.9999999999990248
20
1.7999999999999146
30
0
10
9.9999999999993889
20
2.2799999999998684
30
0
10
9.9999999999996998
20
2.6399999999999042
30
0
10
9.9999999999999005
20
2.8799999999999617
30
0
10
10
20
3
30
0
0
SPLINE
5
102
100
AcDbEntity
8
0
100
AcDbSpline
70
4
71
5
72
16
73
10
74
0
42
0.000000001
43
0.0000000001
44
0.0000000001
40
0
40
0
40
0
40
0
40
0
40
0
40
0.20000000000000001
40
0.40000000000000002
40
0.60000000000000009
40
0.80000000000000004
40
1
40
1
40
1
40
1
40
1
40
1
41
1
41
1
41
1
41
1
41
1
41
1
41
1
41
1
41
1
41
1
10
0
20
1.5
30
0
10
0.40000000000047375
20
1.499999999999694
30
0
10
1.2000000000012774
20
1.4999999999991638
30
0
10
2.4000000000020547
20
1.4999999999986278
30
0
10
4.0000000000023546
20
1.4999999999983737
30
0
10
6.0000000000019584
20
1.4999999999985913
30
0
10
7.6000000000012928
20
1.4999999999990359
30
0
10
8.800000000000697
20
1.4999999999994786
30
0
10
9.6000000000002395
20
1.4999999999998188
30
0
10
10
20
1.5
30
0
0
SPLINE
5
103
100
AcDbEntity
8
0
100
AcDbSpline
70
4
71
5
72
111
73
105
74
0
42
0.000000001
43
0.0000000001
44
0.0000000001
40
0
40
0
40
0
40
0
40
0
40
0
40
0.01
40
0.02
40
0.029999999999999999
40
0.040000000000000001
40
0.050000000000000003
40
0.060000000000000005
40
0.070000000000000007
40
0.080000000000000002
40
0.089999999999999997
40
0.099999999999999992
40
0.10999999999999999
40
0.11999999999999998
40
0.12999999999999998
40
0.13999999999999999
40
0.14999999999999999
40
0.16
40
0.17000000000000001
40
0.18000000000000002
40
0.19000000000000003
40
0.20000000000000004
40
0.21000000000000005
40
0.22000000000000006
40
0.23000000000000007
40
0.24000000000000007
40
0.25000000000000006
40
0.26000000000000006
40
0.27000000000000007
40
0.28000000000000008
40
0.29000000000000009
40
0.3000000000000001
40
0.31000000000000011
40
0.32000000000000012
40
0.33000000000000013
40
0.34000000000000014
40
0.35000000000000014
40
0.36000000000000015
40
0.37000000000000016
40
0.38000000000000017
40
0.39000000000000018
40
0.40000000000000019
40
0.4100000000000002
40
0.42000000000000021
40
0.43000000000000022
40
0.44000000000000022
40
0.45000000000000023
40
0.46000000000000024
40
0.47000000000000025
40
0.48000000000000026
40
0.49000000000000027
40
0.50000000000000022
40
0.51000000000000023
40
0.52000000000000024
40
0.53000000000000025
40
0.54000000000000026
40
0.55000000000000027
40
0.56000000000000028
40
0.57000000000000028
40
0.58000000000000029
40
0.5900000000000003
40
0.60000000000000031
40
0.61000000000000032
40
0.62000000000000033
40
0.63000000000000034
40
0.64000000000000035
40
0.65000000000000036
40
0.66000000000000036
40
0.67000000000000037
40
0.68000000000000038
40
0.69000000000000039
40
0.7000000000000004
40
0.71000000000000041
40
0.72000000000000042
40
0.73000000000000043
40
0.74000000000000044
40
0.75000000000000044
40
0.76000000000000045
40
0.77000000000000046
40
0.78000000000000047
40
0.79000000000000048
40
0.80000000000000049
40
0.8100000000000005
40
0.82000000000000051
40
0.83000000000000052
40
0.84000000000000052
40
0.85000000000000053
40
0.86000000000000054
40
0.87000000000000055
40
0.88000000000000056
40
0.89000000000000057
40
0.90000000000000058
40
0.91000000000000059
40
0.9200000000000006
40
0.9300000000000006
40
0.94000000000000061
40
0.95000000000000062
40
0.96000000000000063
40
0.97000000000000064
40
0.98000000000000065
40
0.99000000000000066
40
1
40
1
40
1
40
1
40
1
40
1
41
1
41
1
41
1
41
1
41
1
41
1
41
1
41
1
41
1
41
1
41
1
41
1
41
1
41
1
41
1
41
1
41
1
41
1
41
1
41
1
41
1
41
1
41
1
41
1
41
1
41
1
41
1
41
1
41
1
41
1
41
1
41
1
41
1
41
1
41
1
41
1
41
1
41
1
41
1
41
1
41
1
41
1
41
1
41
1
41
1
41
1
41
1
41
1
41
1
41
1
41
1
41
1
41
1
41
1
41
1
41
1
41
1
41
1
41
1
41
1
41
1
41
1
41
1
41
1
41
1
41
1
41
1
41
1
41
1
41
1
41
1
41
1
41
1
41
1
41
1
41
1
41
1
41
1
41
1
41
1
41
1
41
1
41
1
41
1
41
1
41
1
41
1
41
1
41
1
41
1
41
1
41
1
41
1
41
1
41
1
41
1
41
1
41
1
41
1
41
1
41
1
41
1
41
1
41
1
41
1
10
0
20
0
30
0
10
0.019339505574101294
20
0.023190788757854703
30
0
10
0.058113295552659865
20
0.066131041283817776
30
0
10
0.11655831438778569
20
0.12021750441313232
30
0
10
0.19505378927110059
20
0.17168108070946964
30
0
10
0.29408957496350696
20
0.20236799223829716
30
0
10
0.39394669474236255
20
0.20176767149392341
30
0
10
0.4944334443435292
20
0.17463405960659473
30
0
10
0.59523120490497083
20
0.12887905746068959
30
0
10
0.69585687442572741
20
0.076495981915136388
30
0
10
0.79577553843247029
20
0.031074070300961196
30
0
10
0.89451945685947276
20
0.0051664435279375961
30
0
10
0.99180777427758859
20
0.0076497451980304526
30
0
10
1.0876591744663109
20
0.041225787023423451
30
0
10
1.1825260430196836
20
0.099483344850096175
30
0
10
1.2771340721658002
20
0.17001621085631771
30
0
10
1.3723001797615169
20
0.23799592970926492
30
0
10
1.4687496311394745
20
0.28974085462258276
30
0
10
1.5669531968422288
20
0.31591879196039141
30
0
10
1.6669055423574828
20
0.31584270008333776
30
0
10
1.7681995421061172
20
0.29624154758563348
30
0
10
1.8702284933325195
20
0.26763108573033589
30
0
10
1.9723543384336
20
0.24134171918700886
30
0
10
2.0740742622921529
20
0.22652614460288961
30
0
10
2.1752281180808573
20
0.22653175507806328
30
0
10
2.275945318738795
20
0.23945541606714565
30
0
10
2.3764988450931521
20
0.26021682216874581
30
0
10
2.4771852844404756
20
0.28216764126521238
30
0
10
2.5782046362044069
20
0.29880469994453063
30
0
10
2.6795128459058359
20
0.30566665462578507
30
0
10
2.780878864208562
20
0.30052604468452415
30
0
10
2.8819977624065416
20
0.28307903203498735
30
0
10
2.9825880559237437
20
0.25481928676794097
30
0
10
3.0824882360536265
20
0.2188093576764446
30
0
10
3.1817730398702859
20
0.17956642500742928
30
0
10
3.2806935385386233
20
0.1423107271438612
30
0
10
3.3795828295486032
20
0.11211407485672149
30
0
10
3.4787708708512066
20
0.093048711998227118
30
0
10
3.5785020191869625
20
0.087411999899925374
30
0
10
3.6788344435214579
20
0.094719373780170923
30
0
10
3.7796730472661313
20
0.11226699171337684
30
0
10
3.8808360297358044
20
0.13608261230731605
30
0
10
3.982111397353651
20
0.16176351744866224
30
0
10
4.0833143001839014
20
0.18531594820391217
30
0
10
4.1843527874224131
20
0.20411248199324866
30
0
10
4.2852140094875395
20
0.21677194158038135
30
0
10
4.3859341499015629
20
0.22281953685513858
30
0
10
4.4865735500577859
20
0.22241835601455928
30
0
10
4.5871908170842204
20
0.21608429131649576
30
0
10
4.6878143489395923
20
0.20437431307564077
30
0
10
4.7884484364446882
20
0.18796015194650542
30
0
10
4.8890844549461532
20
0.16775663177749239
30
0
10
4.9897104139045743
20
0.14503794459306207
30
0
10
5.0903207872388663
20
0.12154268388335401
30
0
10
5.1909273119438923
20
0.099628087963385945
30
0
10
5.2915540858405175
20
0.08179208988820888
30
0
10
5.3922309719422676
20
0.070134536649571713
30
0
10
5.4929875677180862
20
0.065828060514542514
30
0
10
5.5938470505766009
20
0.068611658581481952
30
0
10
5.6948197662663071
20
0.076199954876933471
30
0
10
5.7959031593957411
20
0.085213169161686336
30
0
10
5.897082162218128
20
0.09220876179909368
30
0
10
5.998329391733237
20
0.094680427613329343
30
0
10
6.099605455359006
20
0.092061145267431907
30
0
10
6.2008591002178992
20
0.086753832742145182
30
0
10
6.3020362894350743
20
0.082756044257140379
30
0
10
6.4030894582784414
20
0.084239688494848697
30
0
10
6.5039866055797289
20
0.094163563202278741
30
0
10
6.6047206980632485
20
0.11283505279475663
30
0
10
6.7053183012679209
20
0.13659364470189128
30
0
10
6.8058275695960262
20
0.15966142322158333
30
0
10
6.9063068777742656
20
0.17590252070254234
30
0
10
7.0068133450830441
20
0.18058413231120024
30
0
10
7.1073911190649008
20
0.17221155645436903
30
0
10
7.2080605746587025
20
0.15412372652248621
30
0
10
7.3088222367324711
20
0.1324352526214819
30
0
10
7.4096598024965896
20
0.11416459474909919
30
0
10
7.510543594259885
20
0.10533826767544943
30
0
10
7.6114335837322766
20
0.10899917603188729
30
0
10
7.7122832589803272
20
0.12355925048022026
30
0
10
7.8130500088918122
20
0.14446871833345229
30
0
10
7.9137053320968453
20
0.16562127557860368
30
0
10
8.0142443994984411
20
0.18082659758222575
30
0
10
8.114697586162297
20
0.18532916150635739
30
0
10
8.2151362720583663
20
0.17708599300389383
30
0
10
8.3156422174401108
20
0.15631571922677129
30
0
10
8.4162801020332552
20
0.12524753281795889
30
0
10
8.5170704534422015
20
0.087776520799722466
30
0
10
8.6179586069650753
20
0.049201980032985079
30
0
10
8.7187965589463126
20
0.015807408250379882
30
0
10
8.8193927203612716
20
-0.006272759284166686
30
0
10
8.9195540248344471
20
-0.012128003659995225
30
0
10
9.0191290172050866
20
0.00089093575005099791
30
0
10
9.1180551827295275
20
0.031974932550105424
30
0
10
9.2163905056268653
20
0.076155702544600551
30
0
10
9.3142710599653462
20
0.12586711198427278
30
0
10
9.4118787032012126
20
0.17220151333250899
30
0
10
9.5094054307181466
20
0.20626128734801519
30
0
10
9.6070178593170539
20
0.22052186141376826
30
0
10
9.7048254134794636
20
0.2100398682060054
30
0
10
9.8028941046521396
20
0.1718422118219266
30
0
10
9.8815841221904872
20
0.11793740394791541
30
0
10
9.9407387505185891
20
0.064159226118461435
30
0
10
9.980236095648479
20
0.022375085069709651
30
0
10
10
20
0
30
0
0
SPLINE
5
104
100
AcDbEntity
8
0
100
AcDbSpline
70
4
71
5
72
111
73
105
74
0
42
0.000000001
43
0.0000000001
44
0.0000000001
40
0
40
0
40
0
40
0
40
0
40
0
40
0.01
40
0.02
40
0.029999999999999999
40
0.040000000000000001
40
0.050000000000000003
40
0.060000000000000005
40
0.070000000000000007
40
0.080000000000000002
40
0.089999999999999997
40
0.099999999999999992
40
0.10999999999999999
40
0.11999999999999998
40
0.12999999999999998
40
0.13999999999999999
40
0.14999999999999999
40
0.16
40
0.17000000000000001
40
0.18000000000000002
40
0.19000000000000003
40
0.20000000000000004
40
0.21000000000000005
40
0.22000000000000006
40
0.23000000000000007
40
0.24000000000000007
40
0.25000000000000006
40
0.26000000000000006
40
0.27000000000000007
40
0.28000000000000008
40
0.29000000000000009
40
0.3000000000000001
40
0.31000000000000011
40
0.32000000000000012
40
0.33000000000000013
40
0.34000000000000014
40
0.35000000000000014
40
0.36000000000000015
40
0.37000000000000016
40
0.38000000000000017
40
0.39000000000000018
40
0.40000000000000019
40
0.4100000000000002
40
0.42000000000000021
40
0.43000000000000022
40
0.44000000000000022
40
0.45000000000000023
40
0.46000000000000024
40
0.47000000000000025
40
0.48000000000000026
40
0.49000000000000027
40
0.50000000000000022
40
0.51000000000000023
40
0.52000000000000024
40
0.53000000000000025
40
0.54000000000000026
40
0.55000000000000027
40
0.56000000000000028
40
0.57000000000000028
40
0.58000000000000029
40
0.5900000000000003
40
0.60000000000000031
40
0.61000000000000032
40
0.62000000000000033
40
0.63000000000000034
40
0.64000000000000035
40
0.65000000000000036
40
0.66000000000000036
40
0.67000000000000037
40
0.68000000000000038
40
0.69000000000000039
40
0.7000000000000004
40
0.71000000000000041
40
0.72000000000000042
40
0.73000000000000043
40
0.74000000000000044
40
0.75000000000000044
40
0.76000000000000045
40
0.77000000000000046
40
0.78000000000000047
40
0.79000000000000048
40
0.80000000000000049
40
0.8100000000000005
40
0.82000000000000051
40
0.83000000000000052
40
0.84000000000000052
40
0.85000000000000053
40
0.86000000000000054
40
0.87000000000000055
40
0.88000000000000056
40
0.89000000000000057
40
0.90000000000000058
40
0.91000000000000059
40
0.9200000000000006
40
0.9300000000000006
40
0.94000000000000061
40
0.95000000000000062
40
0.96000000000000063
40
0.97000000000000064
40
0.98000000000000065
40
0.99000000000000066
40
1
40
1
40
1
40
1
40
1
40
1
41
1
41
1
41
1
41
1
41
1
41
1
41
1
41
1
41
1
41
1
41
1
41
1
41
1
41
1
41
1
41
1
41
1
41
1
41
1
41
1
41
1
41
1
41
1
41
1
41
1
41
1
41
1
41
1
41
1
41
1
41
1
41
1
41
1
41
1
41
1
41
1
41
1
41
1
41
1
41
1
41
1
41
1
41
1
41
1
41
1
41
1
41
1
41
1
41
1
41
1
41
1
41
1
41
1
41
1
41
1
41
1
41
1
41
1
41
1
41
1
41
1
41
1
41
1
41
1
41
1
41
1
41
1
41
1
41
1
41
1
41
1
41
1
41
1
41
1
41
1
41
1
41
1
41
1
41
1
41
1
41
1
41
1
41
1
41
1
41
1
41
1
41
1
41
1
41
1
41
1
41
1
41
1
41
1
41
1
41
1
41
1
41
1
41
1
41
1
41
1
41
1
41
1
41
1
41
1
41
1
10
0
20
3
30
0
10
0.02012018503200683
20
2.9942021564861863
30
0
10
0.060367205420851319
20
2.9833408034610489
30
0
10
0.12075768713665307
20
2.9692517982079103
30
0
10
0.20131823682003444
20
2.9548730309918629
30
0
10
0.3020820581594858
20
2.9439367454996033
30
0
10
0.40289878722915201
20
2.939105356976178
30
0
10
0.5037479620390749
20
2.9385147881691771
30
0
10
0.60459532684308215
20
2.9390386515849287
30
0
10
0.70538971400604855
20
2.9360198518078686
30
0
10
0.80607217845803936
20
2.9246813751480665
30
0
10
0.9065848175509611
20
2.901501791427715
30
0
10
1.0068795468369294
20
2.8655679248759087
30
0
10
1.1069272731604292
20
2.8200236399256209
30
0
10
1.2067258509475731
20
2.7732394571245962
30
0
10
1.3062895238813923
20
2.7357806762886989
30
0
10
1.405639348532786
20
2.7175951632857043
30
0
10
1.5047934095602258
20
2.7251574939705838
30
0
10
1.6037567614231241
20
2.7585385805046458
30
0
10
1.7025125047578216
20
2.8087607719093017
30
0
10
1.8010397877547715
20
2.8618767932510059
30
0
10
1.8993306086562924
20
2.9027567900236964
30
0
10
1.9974072494136108
20
2.9190086852636856
30
0
10
2.0953390591311969
20
2.904785673955641
30
0
10
2.193260629872956
20
2.8648021317939758
30
0
10
2.2913382278003809
20
2.8106852730339442
30
0
10
2.3897354396409383
20
2.7571828464002253
30
0
10
2.4885781865165519
20
2.7183482092092954
30
0
10
2.5879221029089554
20
2.7039141579940136
30
0
10
2.6877132289754129
20
2.7151075648589087
30
0
10
2.7878228176699862
20
2.7467510941831264
30
0
10
2.888090452785208
20
2.7900861037664177
30
0
10
2.9883650828109669
20
2.835384390309017
30
0
10
3.0885448754318117
20
2.8745373525090629
30
0
10
3.1886230657026622
20
2.9039487150337999
30
0
10
3.2886630393579819
20
2.9236281687936834
30
0
10
3.3887649657241798
20
2.9358229112842338
30
0
10
3.4890349825505429
20
2.9437973332351324
30
0
10
3.58955442983024
20
2.9505932872059573
30
0
10
3.6903460803226329
20
2.9576866453248538
30
0
10
3.791381413706409
20
2.9651881012363388
30
0
10
3.8925926426278856
20
2.9722242184069376
30
0
10
3.9938829493131256
20
2.9772527102647328
30
0
10
4.0951375896636337
20
2.9784057989000874
30
0
10
4.1962342461285687
20
2.973818953063291
30
0
10
4.2970617906084199
20
2.9620111407850298
30
0
10
4.3975393925235178
20
2.9422636193775786
30
0
10
4.497635694829845
20
2.9150040801051649
30
0
10
4.5973875971248299
20
2.8821795669315953
30
0
10
4.6969203288336772
20
2.847661599671591
30
0
10
4.7964091451757334
20
2.8162276119650769
30
0
10
4.8960398907359926
20
2.7925156568885772
30
0
10
4.995969650394553
20
2.7799788890968049
30
0
10
5.096288140812768
20
2.7798628303028607
30
0
10
5.1969765918771831
20
2.7901079617452189
30
0
10
5.297942597303555
20
2.8064947892715368
30
0
10
5.3990577800831261
20
2.8238718671820711
30
0
10
5.5001943771809882
20
2.8373521292650672
30
0
10
5.6012623163627095
20
2.8435236146326295
30
0
10
5.7022459880335195
20
2.841651924629466
30
0
10
5.8031778910837586
20
2.8329635939489335
30
0
10
5.9041121842479232
20
2.8199304298027168
30
0
10
6.0050986528911618
20
2.8055584778833929
30
0
10
6.1061556738184244
20
2.7926664203300424
30
0
10
6.2072459110711184
20
2.7831945144333305
30
0
10
6.3083062531901257
20
2.7781759607098078
30
0
10
6.4092759520430569
20
2.7776724927282777
30
0
10
6.5101243519985701
20
2.780736399798462
30
0
10
6.6108813198787217
20
2.785329063522068
30
0
10
6.7116593687724446
20
2.7883472924147554
30
0
10
6.8125963016245858
20
2.786618670720058
30
0
10
6.9138027953420664
20
2.7778484179297749
30
0
10
7.0153110698706831
20
2.7615265649997949
30
0
10
7.1170161032732357
20
2.7399896851135308
30
0
10
7.2186403887415729
20
2.7190167065139974
30
0
10
7.3198395837810164
20
2.705667856528148
30
0
10
7.4202945839856929
20
2.7063822510907132
30
0
10
7.5198034162907916
20
2.7250950067604069
30
0
10
7.6183859985373479
20
2.7610643989413974
30
0
10
7.7163449768074006
20
2.8076688499755971
30
0
10
7.8141326438671586
20
2.8554597107105701
30
0
10
7.9122442733611411
20
2.8946441532346605
30
0
10
8.0111041139270647
20
2.9177065989976541
30
0
10
8.1109476703509635
20
2.9221662643472284
30
0
10
8.2117252095208162
20
2.9127181295465006
30
0
10
8.3131991784157595
20
2.897924842342452
30
0
10
8.4150249524748038
20
2.8873453154444499
30
0
10
8.5168354714452814
20
2.8886241561902128
30
0
10
8.6183298431890201
20
2.9043000588676038
30
0
10
8.7193434447669134
20
2.9296135938334462
30
0
10
8.8198106524645006
20
2.9558635865250831
30
0
10
8.9197406824725238
20
2.9731339911019239
30
0
10
9.019189048496246
20
2.9731407894316177
30
0
10
9.1182294082218522
20
2.9523160739888072
30
0
10
9.2169298498594205
20
2.9139236620603071
30
0
10
9.3153537124094949
20
2.8656186174801728
30
0
10
9.4135568365634974
20
2.8176312568728634
30
0
10
9.5115862713017858
20
2.7807487876223922
30
0
10
9.6094782081831873
20
2.7642926627121254
30
0
10
9.70725666671337
20
2.7743627616511639
30
0
10
9.8049361331695213
20
2.8146383071841417
30
0
10
9.8830063184357737
20
2.8724745597692163
30
0
10
9.941518781085076
20
2.9305301598982751
30
0
10
9.9805092359440621
20
2.9757563075313449
30
0
10
10
20
3
30
0
0
ENDSEC
0
SECTION
2
OBJECTS
0
DICTIONARY
5
C
100
AcDbDictionary
3
ACAD_GROUP
350
D
3
ACAD_MLINESTYLE
350
17
0
DICTIONARY
5
D
100
AcDbDictionary
0
DICTIONARY
5
1A
330
C
100
AcDbDictionary
0
DICTIONARY
5
17
100
AcDbDictionary
0
ENDSEC
0
EOF
