0
SECTION
2
HEADER
9
$INSUNITS
70
4
9
$ACADVER
1
AC1014
9
$HANDSEED
5
FFFF
0
ENDSEC
0
SECTION
2
TABLES
0
TABLE
2
VPORT
5
8
100
AcDbSymbolTable
0
ENDTAB
0
TABLE
2
LTYPE
5
5
100
AcDbSymbolTable
0
LTYPE
5
14
100
AcDbSymbolTableRecord
100
AcDbLinetypeTableRecord
2
BYBLOCK
70
0
0
LTYPE
5
15
100
AcDbSymbolTableRecord
100
AcDbLinetypeTableRecord
2
BYLAYER
70
0
0
ENDTAB
0
TABLE
2
LAYER
5
2
100
AcDbSymbolTable
70
2
0
LAYER
5
50
100
AcDbSymbolTableRecord
100
AcDbLayerTableRecord
2
0
70
0
6
CONTINUOUS
0
ENDTAB
0
TABLE
2
STYLE
5
3
100
AcDbSymbolTable
70
1
0
STYLE
5
11
100
AcDbSymbolTableRecord
100
AcDbTextStyleTableRecord
2
STANDARD
70
0
0
ENDTAB
0
TABLE
2
VIEW
5
6
100
AcDbSymbolTable
70
0
0
ENDTAB
0
TABLE
2
UCS
5
7
100
AcDbSymbolTable
70
0
0
ENDTAB
0
TABLE
2
APPID
5
9
100
AcDbSymbolTable
70
2
0
APPID
5
12
100
AcDbSymbolTableRecord
100
AcDbRegAppTableRecord
2
ACAD
70
0
0
ENDTAB
0
TABLE
2
DIMSTYLE
5
A
100
AcDbSymbolTable
70
1
0
ENDTAB
0
TABLE
2
BLOCK_RECORD
5
1
100
AcDbSymbolTable
70
1
0
BLOCK_RECORD
5
1F
100
AcDbSymbolTableRecord
100
AcDbBlockTableRecord
2
*MODEL_SPACE
0
BLOCK_RECORD
5
1B
100
AcDbSymbolTableRecord
100
AcDbBlockTableRecord
2
*PAPER_SPACE
0
ENDTAB
0
ENDSEC
0
SECTION
2
BLOCKS
0
BLOCK
5
20
100
AcDbEntity
100
AcDbBlockBegin
2
*MODEL_SPACE
0
ENDBLK
5
21
100
AcDbEntity
100
AcDbBlockEnd
0
BLOCK
5
1C
100
AcDbEntity
100
AcDbBlockBegin
2
*PAPER_SPACE
0
ENDBLK
5
1D
100
AcDbEntity
100
AcDbBlockEnd
0
ENDSEC
0
SECTION
2
ENTITIES
0
SPLINE
5
100
100
AcDbEntity
8
0
100
AcDbSpline
70
4
71
5
72
16
73
10
74
0
42
0.000000001
43
0.0000000001
44
0.0000000001
40
0
40
0
40
0
40
0
40
0
40
0
40
0.20000000000000001
40
0.40000000000000002
40
0.60000000000000009
40
0.80000000000000004
40
1
40
1
40
1
40
1
40
1
40
1
41
1
41
1
41
1
41
1
41
1
41
1
41
1
41
1
41
1
41
1
10
0
20
0
30
0
10
0
20
0.12000000000003158
30
0
10
0
20
0.36000000000007704
30
0
10
0
20
0.72000000000009301
30
0
10
0
20
1.2000000000000313
30
0
10
0
20
1.7999999999999146
30
0
10
0
20
2.2799999999998684
30
0
10
0
20
2.6399999999999042
30
0
10
0
20
2.8799999999999617
30
0
10
0
20
3
30
0
0
SPLINE
5
101
100
AcDbEntity
8
0
100
AcDbSpline
70
4
71
5
72
16
73
10
74
0
42
0.000000001
43
0.0000000001
44
0.0000000001
40
0
40
0
40
0
40
0
40
0
40
0
40
0.20000000000000001
40
0.40000000000000002
40
0.60000000000000009
40
0.80000000000000004
40
1
40
1
40
1
40
1
40
1
40
1
41
1
41
1
41
1
41
1
41
1
41
1
41
1
41
1
41
1
41
1
10
10
20
0
30
0
10
9.9999999999997495
20
0.12000000000003158
30
0
10
9.9999999999993197
20
0.36000000000007704
30
0
10
9.9999999999989129
20
0.72000000000009301
30
0
10
9.9999999999987672
20
1.2000000000000313
30
0
10
9.9999999999990248
20
1.7999999999999146
30
0
10
9.9999999999993889
20
2.2799999999998684
30
0
10
9.9999999999996998
20
2.6399999999999042
30
0
10
9.9999999999999005
20
2.8799999999999617
30
0
10
10
20
3
30
0
0
SPLINE
5
102
100
AcDbEntity
8
0
100
AcDbSpline
70
4
71
5
72
16
73
10
74
0
42
0.000000001
43
0.0000000001
44
0.0000000001
40
0
40
0
40
0
40
0
40
0
40
0
40
0.20000000000000001
40
0.40000000000000002
40
0.60000000000000009
40
0.80000000000000004
40
1
40
1
40
1
40
1
40
1
40
1
41
1
41
1
41
1
41
1
41
1
41
1
41
1
41
1
41
1
41
1
10
0
20
1.5
30
0
10
0.40000000000047375
20
1.499999999999694
30
0
10
1.2000000000012774
20
1.4999999999991638
30
0
10
2.4000000000020547
20
1.4999999999986278
30
0
10
4.0000000000023546
20
1.4999999999983737
30
0
10
6.0000000000019584
20
1.4999999999985913
30
0
10
7.6000000000012928
20
1.4999999999990359
30
0
10
8.800000000000697
20
1.4999999999994786
30
0
10
9.6000000000002395
20
1.4999999999998188
30
0
10
10
20
1.5
30
0
0
SPLINE
5
103
100
AcDbEntity
8
0
100
AcDbSpline
70
4
71
5
72
111
73
105
74
0
42
0.000000001
43
0.0000000001
44
0.0000000001
40
0
40
0
40
0
40
0
40
0
40
0
40
0.01
40
0.02
40
0.029999999999999999
40
0.040000000000000001
40
0.050000000000000003
40
0.060000000000000005
40
0.070000000000000007
40
0.080000000000000002
40
0.089999999999999997
40
0.099999999999999992
40
0.10999999999999999
40
0.11999999999999998
40
0.12999999999999998
40
0.13999999999999999
40
0.14999999999999999
40
0.16
40
0.17000000000000001
40
0.18000000000000002
40
0.19000000000000003
40
0.20000000000000004
40
0.21000000000000005
40
0.22000000000000006
40
0.23000000000000007
40
0.24000000000000007
40
0.25000000000000006
40
0.26000000000000006
40
0.27000000000000007
40
0.28000000000000008
40
0.29000000000000009
40
0.3000000000000001
40
0.31000000000000011
40
0.32000000000000012
40
0.33000000000000013
40
0.34000000000000014
40
0.35000000000000014
40
0.36000000000000015
40
0.37000000000000016
40
0.38000000000000017
40
0.39000000000000018
40
0.40000000000000019
40
0.4100000000000002
40
0.42000000000000021
40
0.43000000000000022
40
0.44000000000000022
40
0.45000000000000023
40
0.46000000000000024
40
0.47000000000000025
40
0.48000000000000026
40
0.49000000000000027
40
0.50000000000000022
40
0.51000000000000023
40
0.52000000000000024
40
0.53000000000000025
40
0.54000000000000026
40
0.55000000000000027
40
0.56000000000000028
40
0.57000000000000028
40
0.58000000000000029
40
0.5900000000000003
40
0.60000000000000031
40
0.61000000000000032
40
0.62000000000000033
40
0.63000000000000034
40
0.64000000000000035
40
0.65000000000000036
40
0.66000000000000036
40
0.67000000000000037
40
0.68000000000000038
40
0.69000000000000039
40
0.7000000000000004
40
0.71000000000000041
40
0.72000000000000042
40
0.73000000000000043
40
0.74000000000000044
40
0.75000000000000044
40
0.76000000000000045
40
0.77000000000000046
40
0.78000000000000047
40
0.79000000000000048
40
0.80000000000000049
40
0.8100000000000005
40
0.82000000000000051
40
0.83000000000000052
40
0.84000000000000052
40
0.85000000000000053
40
0.86000000000000054
40
0.87000000000000055
40
0.88000000000000056
40
0.89000000000000057
40
0.90000000000000058
40
0.91000000000000059
40
0.9200000000000006
40
0.9300000000000006
40
0.94000000000000061
40
0.95000000000000062
40
0.96000000000000063
40
0.97000000000000064
40
0.98000000000000065
40
0.99000000000000066
40
1
40
1
40
1
40
1
40
1
40
1
41
1
41
1
41
1
41
1
41
1
41
1
41
1
41
1
41
1
41
1
41
1
41
1
41
1
41
1
41
1
41
1
41
1
41
1
41
1
41
1
41
1
41
1
41
1
41
1
41
1
41
1
41
1
41
1
41
1
41
1
41
1
41
1
41
1
41
1
41
1
41
1
41
1
41
1
41
1
41
1
41
1
41
1
41
1
41
1
41
1
41
1
41
1
41
1
41
1
41
1
41
1
41
1
41
1
41
1
41
1
41
1
41
1
41
1
41
1
41
1
41
1
41
1
41
1
41
1
41
1
41
1
41
1
41
1
41
1
41
1
41
1
41
1
41
1
41
1
41
1
41
1
41
1
41
1
41
1
41
1
41
1
41
1
41
1
41
1
41
1
41
1
41
1
41
1
41
1
41
1
41
1
41
1
41
1
41
1
41
1
41
1
41
1
41
1
41
1
41
1
41
1
41
1
41
1
41
1
41
1
10
0
20
0
30
0
10
0.020183873062325598
20
0.01019844253309676
30
0
10
0.060633438974499437
20
0.02894505490540791
30
0
10
0.12155325402440878
20
0.052114006073016021
30
0
10
0.20327062729007606
20
0.073103688022548241
30
0
10
0.30620568917635532
20
0.083423426659648858
30
0
10
0.40983744979502013
20
0.079625522694851597
30
0
10
0.5139839087076552
20
0.065279975964462333
30
0
10
0.6183368487303833
20
0.046442517306452609
30
0
10
0.72244594337892099
20
0.031933595269528485
30
0
10
0.82583284096817566
20
0.030812113778178159
30
0
10
0.92809646728058603
20
0.050017869469862829
30
0
10
1.029012112571448
20
0.092197874461992901
30
0
10
1.1286559932268174
20
0.15286230433479434
30
0
10
1.2274463438165781
20
0.21970760679471735
30
0
10
1.3259675361111918
20
0.27751718145359805
30
0
10
1.4248310098481074
20
0.3121610284699558
30
0
10
1.5245305977850641
20
0.31462999215596121
30
0
10
1.6252790241680453
20
0.28582123356119932
30
0
10
1.726918397421213
20
0.23863078294711559
30
0
10
1.8290746750010518
20
0.19140052181264644
30
0
10
1.9312737914071909
20
0.1626091661910305
30
0
10
2.0330655019496442
20
0.16556296516616503
30
0
10
2.1341613176215128
20
0.20192090740764598
30
0
10
2.2345089473454638
20
0.25954382767866591
30
0
10
2.334221544701701
20
0.31975836863097429
30
0
10
2.433537208699565
20
0.36290970222310837
30
0
10
2.5327665448561989
20
0.37408440174356633
30
0
10
2.6322452531624134
20
0.34998305162567123
30
0
10
2.7322852918631475
20
0.30126621890272021
30
0
10
2.8331318379755843
20
0.24527553576370548
30
0
10
2.9349152164903809
20
0.2005174379977662
30
0
10
3.0376123685318595
20
0.18100391850573821
30
0
10
3.1409859713249673
20
0.1893113018259038
30
0
10
3.2445949174275457
20
0.21475843761656244
30
0
10
3.347926307511393
20
0.24071110940211482
30
0
10
3.450505771213463
20
0.25014578955547062
30
0
10
3.5520045283287285
20
0.2312249881421867
30
0
10
3.6523771497513802
20
0.18454639750699153
30
0
10
3.7518693873681004
20
0.12300333166340668
30
0
10
3.8509002829670291
20
0.06460308687351711
30
0
10
3.9499773266339289
20
0.026902425203072251
30
0
10
4.0496018883942027
20
0.02150091536336584
30
0
10
4.1501696924913869
20
0.046747899281588165
30
0
10
4.2519100161229826
20
0.088103688015389453
30
0
10
4.3548709389239368
20
0.12614057572912746
30
0
10
4.4588869876426083
20
0.14284611130487149
30
0
10
4.5635644330256975
20
0.12778157718017136
30
0
10
4.6682325616360467
20
0.086390834913773806
30
0
10
4.772030662915852
20
0.037761676518326341
30
0
10
4.8740758752728626
20
0.0057783078981282973
30
0
10
4.9736128445804209
20
0.011927515926544669
30
0
10
5.0701573106401208
20
0.068197228437820279
30
0
10
5.1636772054275095
20
0.16795401879554164
30
0
10
5.2545494923594562
20
0.28949898001806257
30
0
10
5.3434336264212901
20
0.40430806653633794
30
0
10
5.4311716093552533
20
0.48390358089596214
30
0
10
5.5186792682976176
20
0.50690308896448788
30
0
10
5.60683619662358
20
0.4669323109049488
30
0
10
5.6963921127634753
20
0.37729402483574725
30
0
10
5.7879447676555138
20
0.26234228425641776
30
0
10
5.881907754996508
20
0.1510271226144726
30
0
10
5.9784798686732108
20
0.069324826273212389
30
0
10
6.0776189522301882
20
0.033763560180289316
30
0
10
6.1789998789454694
20
0.042859905734409259
30
0
10
6.2820814640318909
20
0.081408364545490913
30
0
10
6.3862009692407327
20
0.1279374654365634
30
0
10
6.4906597519814824
20
0.16120091193580305
30
0
10
6.5948111623326575
20
0.16681503242247611
30
0
10
6.6981512900706495
20
0.14452432935318535
30
0
10
6.8003486552170864
20
0.10431903930076084
30
0
10
6.9012681243045213
20
0.061492786653333326
30
0
10
7.0009968593287972
20
0.032094065690424362
30
0
10
7.0998699977614219
20
0.028198641286586452
30
0
10
7.1984954011813809
20
0.053296526452869745
30
0
10
7.2975759784282515
20
0.10418443680094691
30
0
10
7.3977335928881089
20
0.17282115586774577
30
0
10
7.4993322825111743
20
0.24819337694919313
30
0
10
7.6023017966944231
20
0.31817220903759824
30
0
10
7.7059601554052906
20
0.37137839164781528
30
0
10
7.8092920707213036
20
0.39848291719827927
30
0
10
7.9112321166438928
20
0.39353750636725715
30
0
10
8.0109390154224993
20
0.35523725707479198
30
0
10
8.1080901029597747
20
0.28835134000275531
30
0
10
8.2031202183013061
20
0.20469025103752145
30
0
10
8.296936434162884
20
0.11963697971394838
30
0
10
8.3906796423464254
20
0.049096466074123213
30
0
10
8.4854625649918241
20
0.0061924846255388185
30
0
10
8.5821313982476237
20
-0.0017132842427498738
30
0
10
8.6809813163949929
20
0.023285626344427931
30
0
10
8.7818566906797564
20
0.072043798559624006
30
0
10
8.884310704625344
20
0.13170153295616768
30
0
10
8.9877461018253033
20
0.18874966009240796
30
0
10
9.0915588653026198
20
0.23207714045283717
30
0
10
9.1952935420477431
20
0.25637498981825924
30
0
10
9.2986322286141956
20
0.26104780750720097
30
0
10
9.4013622217533257
20
0.24855715792379604
30
0
10
9.5033514574697762
20
0.22297674051530866
30
0
10
9.604520541032187
20
0.18844414206003268
30
0
10
9.7048168048912995
20
0.14770090463072438
30
0
10
9.8042090592654887
20
0.1023981337083833
30
0
10
9.8829874427884707
20
0.063167950567652481
30
0
10
9.9416554051442354
20
0.032189104426335345
30
0
10
9.9805825986102565
20
0.010844962798107791
30
0
10
10
20
0
30
0
0
SPLINE
5
104
100
AcDbEntity
8
0
100
AcDbSpline
70
4
71
5
72
111
73
105
74
0
42
0.000000001
43
0.0000000001
44
0.0000000001
40
0
40
0
40
0
40
0
40
0
40
0
40
0.01
40
0.02
40
0.029999999999999999
40
0.040000000000000001
40
0.050000000000000003
40
0.060000000000000005
40
0.070000000000000007
40
0.080000000000000002
40
0.089999999999999997
40
0.099999999999999992
40
0.10999999999999999
40
0.11999999999999998
40
0.12999999999999998
40
0.13999999999999999
40
0.14999999999999999
40
0.16
40
0.17000000000000001
40
0.18000000000000002
40
0.19000000000000003
40
0.20000000000000004
40
0.21000000000000005
40
0.22000000000000006
40
0.23000000000000007
40
0.24000000000000007
40
0.25000000000000006
40
0.26000000000000006
40
0.27000000000000007
40
0.28000000000000008
40
0.29000000000000009
40
0.3000000000000001
40
0.31000000000000011
40
0.32000000000000012
40
0.33000000000000013
40
0.34000000000000014
40
0.35000000000000014
40
0.36000000000000015
40
0.37000000000000016
40
0.38000000000000017
40
0.39000000000000018
40
0.40000000000000019
40
0.4100000000000002
40
0.42000000000000021
40
0.43000000000000022
40
0.44000000000000022
40
0.45000000000000023
40
0.46000000000000024
40
0.47000000000000025
40
0.48000000000000026
40
0.49000000000000027
40
0.50000000000000022
40
0.51000000000000023
40
0.52000000000000024
40
0.53000000000000025
40
0.54000000000000026
40
0.55000000000000027
40
0.56000000000000028
40
0.57000000000000028
40
0.58000000000000029
40
0.5900000000000003
40
0.60000000000000031
40
0.61000000000000032
40
0.62000000000000033
40
0.63000000000000034
40
0.64000000000000035
40
0.65000000000000036
40
0.66000000000000036
40
0.67000000000000037
40
0.68000000000000038
40
0.69000000000000039
40
0.7000000000000004
40
0.71000000000000041
40
0.72000000000000042
40
0.73000000000000043
40
0.74000000000000044
40
0.75000000000000044
40
0.76000000000000045
40
0.77000000000000046
40
0.78000000000000047
40
0.79000000000000048
40
0.80000000000000049
40
0.8100000000000005
40
0.82000000000000051
40
0.83000000000000052
40
0.84000000000000052
40
0.85000000000000053
40
0.86000000000000054
40
0.87000000000000055
40
0.88000000000000056
40
0.89000000000000057
40
0.90000000000000058
40
0.91000000000000059
40
0.9200000000000006
40
0.9300000000000006
40
0.94000000000000061
40
0.95000000000000062
40
0.96000000000000063
40
0.97000000000000064
40
0.98000000000000065
40
0.99000000000000066
40
1
40
1
40
1
40
1
40
1
40
1
41
1
41
1
41
1
41
1
41
1
41
1
41
1
41
1
41
1
41
1
41
1
41
1
41
1
41
1
41
1
41
1
41
1
41
1
41
1
41
1
41
1
41
1
41
1
41
1
41
1
41
1
41
1
41
1
41
1
41
1
41
1
41
1
41
1
41
1
41
1
41
1
41
1
41
1
41
1
41
1
41
1
41
1
41
1
41
1
41
1
41
1
41
1
41
1
41
1
41
1
41
1
41
1
41
1
41
1
41
1
41
1
41
1
41
1
41
1
41
1
41
1
41
1
41
1
41
1
41
1
41
1
41
1
41
1
41
1
41
1
41
1
41
1
41
1
41
1
41
1
41
1
41
1
41
1
41
1
41
1
41
1
41
1
41
1
41
1
41
1
41
1
41
1
41
1
41
1
41
1
41
1
41
1
41
1
41
1
41
1
41
1
41
1
41
1
41
1
41
1
41
1
41
1
41
1
41
1
41
1
10
0
20
3
30
0
10
0.018703962999475528
20
2.9781950961241259
30
0
10
0.056233008756507719
20
2.9369378526518046
30
0
10
0.11288993450198317
20
2.8821096143110596
30
0
10
0.18915935346207091
20
2.8231234204944489
30
0
10
0.28569573731572429
20
2.7725805964450267
30
0
10
0.38339546424196186
20
2.7441943006900402
30
0
10
0.48218447785858315
20
2.7358612324122951
30
0
10
0.58193984029989421
20
2.7440996783127676
30
0
10
0.68247285865058105
20
2.7635648215562365
30
0
10
0.78355579649793683
20
2.7878931902999486
30
0
10
0.88495680253401532
20
2.8107980456661608
30
0
10
0.98647296112042038
20
2.8271070199786057
30
0
10
1.0879619377730392
20
2.833758419411275
30
0
10
1.1893800938467611
20
2.8309914136969305
30
0
10
1.2907533859201823
20
2.8215166983368603
30
0
10
1.3921388515981856
20
2.8094012512285289
30
0
10
1.4935889270614979
20
2.7990454455168279
30
0
10
1.5951157715451658
20
2.7941441606990014
30
0
10
1.6966523374213729
20
2.7965938256931544
30
0
10
1.7980864166898383
20
2.8067662681851213
30
0
10
1.8992992856740887
20
2.8238697135171149
30
0
10
2.0002026489380471
20
2.8462770816981218
30
0
10
2.1007763472400525
20
2.871867447688393
30
0
10
2.2011056937291809
20
2.8983614127078292
30
0
10
2.3013415659844036
20
2.9235335851136606
30
0
10
2.4016604696009574
20
2.9454248580610454
30
0
10
2.5022248131830866
20
2.9625535641007299
30
0
10
2.6031426932742767
20
2.9741306315060747
30
0
10
2.7044289705834901
20
2.9802645028831005
30
0
10
2.8060280210116177
20
2.9816826598478761
30
0
10
2.9078352471253361
20
2.9794612941528738
30
0
10
3.0097189423025799
20
2.9747559882581873
30
0
10
3.1115421512984636
20
2.9685233638785928
30
0
10
3.2131840096290487
20
2.9612717683221352
30
0
10
3.3145531345052426
20
2.9531298712654905
30
0
10
3.4156023521925896
20
2.9438863705387037
30
0
10
3.5163415367815953
20
2.9330489186796687
30
0
10
3.6168545706312067
20
2.9198749885118009
30
0
10
3.7173049004377638
20
2.9034721420829834
30
0
10
3.8178803131025925
20
2.8832401744432512
30
0
10
3.9187434830188379
20
2.8592942873442522
30
0
10
4.0199835556385972
20
2.8328508074562238
30
0
10
4.1215595600817956
20
2.8067355332665924
30
0
10
4.2232704738841012
20
2.7855214763461662
30
0
10
4.3248400444181421
20
2.7741225804043426
30
0
10
4.4259872750295974
20
2.7765548364573238
30
0
10
4.5264980626994795
20
2.7947421092231899
30
0
10
4.6263068334393234
20
2.8270409590895906
30
0
10
4.7255409314554715
20
2.8677047804357332
30
0
10
4.8244513432291125
20
2.9091140169600109
30
0
10
4.9233635443855288
20
2.9435696836003009
30
0
10
5.022620900154406
20
2.9651414213677061
30
0
10
5.1225302087165883
20
2.9717706418114282
30
0
10
5.2233098144347387
20
2.9664116011412438
30
0
10
5.3250577633675364
20
2.9546761879135568
30
0
10
5.4277122499730135
20
2.9429773716993952
30
0
10
5.5310238798308564
20
2.9366141489120712
30
0
10
5.6345017080485738
20
2.9375572510951247
30
0
10
5.7374380566356384
20
2.9434109307388221
30
0
10
5.8391128887135837
20
2.9493047692487373
30
0
10
5.9389743278494915
20
2.9492455092332981
30
0
10
6.0368050468207404
20
2.9376022975334521
30
0
10
6.1329516465488734
20
2.9107276657372605
30
0
10
6.2283322695723351
20
2.8678547035258766
30
0
10
6.3240651968324304
20
2.8106439881729708
30
0
10
6.4211741618114804
20
2.7430598113119284
30
0
10
6.5202832047139561
20
2.6710767957044901
30
0
10
6.6212675406002148
20
2.6025518392776714
30
0
10
6.7230697133314532
20
2.5467497141577464
30
0
10
6.8242016288042029
20
2.5126242356542559
30
0
10
6.9231540419201281
20
2.5072351388434369
30
0
10
7.0188211576823525
20
2.5342059702274633
30
0
10
7.1109683543570519
20
2.5919392535799184
30
0
10
7.2005322569806136
20
2.6726089931211177
30
0
10
7.2891108668248421
20
2.764807291106985
30
0
10
7.3785763853537558
20
2.8556376750221721
30
0
10
7.4706212001103331
20
2.9331134014246114
30
0
10
7.5663766934819723
20
2.9882166816318376
30
0
10
7.6658873516649528
20
3.0176387893192471
30
0
10
7.7682818421438702
20
3.0232268148684627
30
0
10
7.8722217338849374
20
3.0101028926163047
30
0
10
7.9762737284534246
20
2.9851764019386291
30
0
10
8.0792839943012762
20
2.955576199453875
30
0
10
8.1808279157342163
20
2.9269061425768488
30
0
10
8.2811016282937473
20
2.9030444514750169
30
0
10
8.3806526927023643
20
2.8864104536574029
30
0
10
8.4801588786547057
20
2.8780675781728986
30
0
10
8.5802016237445571
20
2.8779036966089673
30
0
10
8.6810035831212335
20
2.8847522483659631
30
0
10
8.7824830797884275
20
2.8967338154722504
30
0
10
8.8843833405792552
20
2.9116358523449373
30
0
10
8.9863780082309148
20
2.9272875904731683
30
0
10
9.0881816115264478
20
2.9419186309017569
30
0
10
9.1896709481633359
20
2.9545729904509006
30
0
10
9.290857950036969
20
2.9649674079254424
30
0
10
9.3918403220150832
20
2.973270437738369
30
0
10
9.4927597256183276
20
2.9799079859271309
30
0
10
9.5937577956184992
20
2.985362192678906
30
0
10
9.6949304724658312
20
2.989961776837645
30
0
10
9.7963346725142504
20
2.9939018580019399
30
0
10
9.8776660929991493
20
2.9966051942643208
30
0
10
9.9387859008693997
20
2.998395003437218
30
0
10
9.9795863203039303
20
2.9994826029247785
30
0
10
10
20
3
30
0
0
ENDSEC
0
SECTION
2
OBJECTS
0
DICTIONARY
5
C
100
AcDbDictionary
3
ACAD_GROUP
350
D
3
ACAD_MLINESTYLE
350
17
0
DICTIONARY
5
D
100
AcDbDictionary
0
DICTIONARY
5
1A
330
C
100
AcDbDictionary
0
DICTIONARY
5
17
100
AcDbDictionary
0
ENDSEC
0
EOF
