0
SECTION
2
HEADER
9
$INSUNITS
70
4
9
$ACADVER
1
AC1014
9
$HANDSEED
5
FFFF
0
ENDSEC
0
SECTION
2
TABLES
0
TABLE
2
VPORT
5
8
100
AcDbSymbolTable
0
ENDTAB
0
TABLE
2
LTYPE
5
5
100
AcDbSymbolTable
0
LTYPE
5
14
100
AcDbSymbolTableRecord
100
AcDbLinetypeTableRecord
2
BYBLOCK
70
0
0
LTYPE
5
15
100
AcDbSymbolTableRecord
100
AcDbLinetypeTableRecord
2
BYLAYER
70
0
0
ENDTAB
0
TABLE
2
LAYER
5
2
100
AcDbSymbolTable
70
2
0
LAYER
5
50
100
AcDbSymbolTableRecord
100
AcDbLayerTableRecord
2
0
70
0
6
CONTINUOUS
0
ENDTAB
0
TABLE
2
STYLE
5
3
100
AcDbSymbolTable
70
1
0
STYLE
5
11
100
AcDbSymbolTableRecord
100
AcDbTextStyleTableRecord
2
STANDARD
70
0
0
ENDTAB
0
TABLE
2
VIEW
5
6
100
AcDbSymbolTable
70
0
0
ENDTAB
0
TABLE
2
UCS
5
7
100
AcDbSymbolTable
70
0
0
ENDTAB
0
TABLE
2
APPID
5
9
100
AcDbSymbolTable
70
2
0
APPID
5
12
100
AcDbSymbolTableRecord
100
AcDbRegAppTableRecord
2
ACAD
70
0
0
ENDTAB
0
TABLE
2
DIMSTYLE
5
A
100
AcDbSymbolTable
70
1
0
ENDTAB
0
TABLE
2
BLOCK_RECORD
5
1
100
AcDbSymbolTable
70
1
0
BLOCK_RECORD
5
1F
100
AcDbSymbolTableRecord
100
AcDbBlockTableRecord
2
*MODEL_SPACE
0
BLOCK_RECORD
5
1B
100
AcDbSymbolTableRecord
100
AcDbBlockTableRecord
2
*PAPER_SPACE
0
ENDTAB
0
ENDSEC
0
SECTION
2
BLOCKS
0
BLOCK
5
20
100
AcDbEntity
100
AcDbBlockBegin
2
*MODEL_SPACE
0
ENDBLK
5
21
100
AcDbEntity
100
AcDbBlockEnd
0
BLOCK
5
1C
100
AcDbEntity
100
AcDbBlockBegin
2
*PAPER_SPACE
0
ENDBLK
5
1D
100
AcDbEntity
100
AcDbBlockEnd
0
ENDSEC
0
SECTION
2
ENTITIES
0
SPLINE
5
100
100
AcDbEntity
8
0
100
AcDbSpline
70
4
71
5
72
16
73
10
74
0
42
0.000000001
43
0.0000000001
44
0.0000000001
40
0
40
0
40
0
40
0
40
0
40
0
40
0.20000000000000001
40
0.40000000000000002
40
0.60000000000000009
40
0.80000000000000004
40
1
40
1
40
1
40
1
40
1
40
1
41
1
41
1
41
1
41
1
41
1
41
1
41
1
41
1
41
1
41
1
10
0
20
0
30
0
10
0
20
0.12000000000003158
30
0
10
0
20
0.36000000000007704
30
0
10
0
20
0.72000000000009301
30
0
10
0
20
1.2000000000000313
30
0
10
0
20
1.7999999999999146
30
0
10
0
20
2.2799999999998684
30
0
10
0
20
2.6399999999999042
30
0
10
0
20
2.8799999999999617
30
0
10
0
20
3
30
0
0
SPLINE
5
101
100
AcDbEntity
8
0
100
AcDbSpline
70
4
71
5
72
16
73
10
74
0
42
0.000000001
43
0.0000000001
44
0.0000000001
40
0
40
0
40
0
40
0
40
0
40
0
40
0.20000000000000001
40
0.40000000000000002
40
0.60000000000000009
40
0.80000000000000004
40
1
40
1
40
1
40
1
40
1
40
1
41
1
41
1
41
1
41
1
41
1
41
1
41
1
41
1
41
1
41
1
10
10
20
0
30
0
10
9.9999999999997495
20
0.12000000000003158
30
0
10
9.9999999999993197
20
0.36000000000007704
30
0
10
9.9999999999989129
20
0.72000000000009301
30
0
10
9.9999999999987672
20
1.2000000000000313
30
0
10
9.9999999999990248
20
1.7999999999999146
30
0
10
9.9999999999993889
20
2.2799999999998684
30
0
10
9.9999999999996998
20
2.6399999999999042
30
0
10
9.9999999999999005
20
2.8799999999999617
30
0
10
10
20
3
30
0
0
SPLINE
5
102
100
AcDbEntity
8
0
100
AcDbSpline
70
4
71
5
72
16
73
10
74
0
42
0.000000001
43
0.0000000001
44
0.0000000001
40
0
40
0
40
0
40
0
40
0
40
0
40
0.20000000000000001
40
0.40000000000000002
40
0.60000000000000009
40
0.80000000000000004
40
1
40
1
40
1
40
1
40
1
40
1
41
1
41
1
41
1
41
1
41
1
41
1
41
1
41
1
41
1
41
1
10
0
20
1.5
30
0
10
0.40000000000047375
20
1.499999999999694
30
0
10
1.2000000000012774
20
1.4999999999991638
30
0
10
2.4000000000020547
20
1.4999999999986278
30
0
10
4.0000000000023546
20
1.4999999999983737
30
0
10
6.0000000000019584
20
1.4999999999985913
30
0
10
7.6000000000012928
20
1.4999999999990359
30
0
10
8.800000000000697
20
1.4999999999994786
30
0
10
9.6000000000002395
20
1.4999999999998188
30
0
10
10
20
1.5
30
0
0
SPLINE
5
103
100
AcDbEntity
8
0
100
AcDbSpline
70
4
71
5
72
61
73
55
74
0
42
0.000000001
43
0.0000000001
44
0.0000000001
40
0
40
0
40
0
40
0
40
0
40
0
40
0.02
40
0.040000000000000001
40
0.059999999999999998
40
0.080000000000000002
40
0.10000000000000001
40
0.12000000000000001
40
0.14000000000000001
40
0.16
40
0.17999999999999999
40
0.19999999999999998
40
0.21999999999999997
40
0.23999999999999996
40
0.25999999999999995
40
0.27999999999999997
40
0.29999999999999999
40
0.32000000000000001
40
0.34000000000000002
40
0.36000000000000004
40
0.38000000000000006
40
0.40000000000000008
40
0.4200000000000001
40
0.44000000000000011
40
0.46000000000000013
40
0.48000000000000015
40
0.50000000000000011
40
0.52000000000000013
40
0.54000000000000015
40
0.56000000000000016
40
0.58000000000000018
40
0.6000000000000002
40
0.62000000000000022
40
0.64000000000000024
40
0.66000000000000025
40
0.68000000000000027
40
0.70000000000000029
40
0.72000000000000031
40
0.74000000000000032
40
0.76000000000000034
40
0.78000000000000036
40
0.80000000000000038
40
0.8200000000000004
40
0.84000000000000041
40
0.86000000000000043
40
0.88000000000000045
40
0.90000000000000047
40
0.92000000000000048
40
0.9400000000000005
40
0.96000000000000052
40
0.98000000000000054
40
1
40
1
40
1
40
1
40
1
40
1
41
1
41
1
41
1
41
1
41
1
41
1
41
1
41
1
41
1
41
1
41
1
41
1
41
1
41
1
41
1
41
1
41
1
41
1
41
1
41
1
41
1
41
1
41
1
41
1
41
1
41
1
41
1
41
1
41
1
41
1
41
1
41
1
41
1
41
1
41
1
41
1
41
1
41
1
41
1
41
1
41
1
41
1
41
1
41
1
41
1
41
1
41
1
41
1
41
1
41
1
41
1
41
1
41
1
41
1
41
1
10
0
20
0
30
0
10
0.0396442337466495
20
0.033263940225932209
30
0
10
0.11891351411524662
20
0.095390358730744362
30
0
10
0.23775987399295911
20
0.175375653718471
30
0
10
0.39610648470843357
20
0.25559638233878912
30
0
10
0.59385695988126586
20
0.31249713174923355
30
0
10
0.79145295414561567
20
0.32819473907487773
30
0
10
0.98895190569258595
20
0.30718326024050091
30
0
10
1.1864497530064773
20
0.25704790987896581
30
0
10
1.3840922913929532
20
0.1893848546481203
30
0
10
1.5820473688044481
20
0.11776359104799143
30
0
10
1.7804753481539703
20
0.055557093485882718
30
0
10
1.979499531801844
20
0.013775933295766516
30
0
10
2.1791780261585423
20
-0.0010004581020487276
30
0
10
2.3794707706137026
20
0.010977636150619786
30
0
10
2.5802652715782886
20
0.044260067800304295
30
0
10
2.7814081840197846
20
0.090231822566130576
30
0
10
2.9827350183413026
20
0.13901028704875185
30
0
10
3.1840997450968751
20
0.18135481845591589
30
0
10
3.3854066817116757
20
0.2106793415168205
30
0
10
3.5866046426788212
20
0.22321294356851679
30
0
10
3.7876778234352724
20
0.21799323724648945
30
0
10
3.9886379891928763
20
0.19694165654209989
30
0
10
4.1895161491393766
20
0.1648816452985101
30
0
10
4.3903546487237985
20
0.12967345777909051
30
0
10
4.5911961258236058
20
0.1002965381978943
30
0
10
4.79207242053785
20
0.08483448513278935
30
0
10
4.9929933262765651
20
0.088473680631823079
30
0
10
5.1939357045186192
20
0.11153662843428393
30
0
10
5.3948314086266063
20
0.14735934258587099
30
0
10
5.5955923579721025
20
0.1852052104028864
30
0
10
5.7961367252735583
20
0.21333088560148497
30
0
10
5.9964148512565831
20
0.22200406367084385
30
0
10
6.1964350393224175
20
0.20651573194800185
30
0
10
6.3962903946184326
20
0.17028665671585785
30
0
10
6.5961239821166551
20
0.12212901298013314
30
0
10
6.7960930995540494
20
0.073423149215865097
30
0
10
6.9963338132629085
20
0.035326080019710437
30
0
10
7.1969256484539788
20
0.015988919852435286
30
0
10
7.3978552597649729
20
0.017707675178956519
30
0
10
7.5990419019172837
20
0.038339007745964035
30
0
10
7.8003638098653383
20
0.072779234891248226
30
0
10
8.0016840744631299
20
0.11440885208908887
30
0
10
8.2028767380650809
20
0.15654949496311857
30
0
10
8.4038525965823112
20
0.19390371884242463
30
0
10
8.6045523217715463
20
0.22237393854116788
30
0
10
8.8049398656498319
20
0.23889478412021847
30
0
10
9.0049958517232938
20
0.24126376229786251
30
0
10
9.2047109935380202
20
0.22797515386306688
30
0
10
9.4040796520426326
20
0.19805590700661246
30
0
10
9.6030990252961885
20
0.15095112870742997
30
0
10
9.7620343866002326
20
0.09931787032041893
30
0
10
9.8810784046611904
20
0.052719017870455014
30
0
10
9.9603711275235156
20
0.018155878837513531
30
0
10
10
20
0
30
0
0
SPLINE
5
104
100
AcDbEntity
8
0
100
AcDbSpline
70
4
71
5
72
61
73
55
74
0
42
0.000000001
43
0.0000000001
44
0.0000000001
40
0
40
0
40
0
40
0
40
0
40
0
40
0.02
40
0.040000000000000001
40
0.059999999999999998
40
0.080000000000000002
40
0.10000000000000001
40
0.12000000000000001
40
0.14000000000000001
40
0.16
40
0.17999999999999999
40
0.19999999999999998
40
0.21999999999999997
40
0.23999999999999996
40
0.25999999999999995
40
0.27999999999999997
40
0.29999999999999999
40
0.32000000000000001
40
0.34000000000000002
40
0.36000000000000004
40
0.38000000000000006
40
0.40000000000000008
40
0.4200000000000001
40
0.44000000000000011
40
0.46000000000000013
40
0.48000000000000015
40
0.50000000000000011
40
0.52000000000000013
40
0.54000000000000015
40
0.56000000000000016
40
0.58000000000000018
40
0.6000000000000002
40
0.62000000000000022
40
0.64000000000000024
40
0.66000000000000025
40
0.68000000000000027
40
0.70000000000000029
40
0.72000000000000031
40
0.74000000000000032
40
0.76000000000000034
40
0.78000000000000036
40
0.80000000000000038
40
0.8200000000000004
40
0.84000000000000041
40
0.86000000000000043
40
0.88000000000000045
40
0.90000000000000047
40
0.92000000000000048
40
0.9400000000000005
40
0.96000000000000052
40
0.98000000000000054
40
1
40
1
40
1
40
1
40
1
40
1
41
1
41
1
41
1
41
1
41
1
41
1
41
1
41
1
41
1
41
1
41
1
41
1
41
1
41
1
41
1
41
1
41
1
41
1
41
1
41
1
41
1
41
1
41
1
41
1
41
1
41
1
41
1
41
1
41
1
41
1
41
1
41
1
41
1
41
1
41
1
41
1
41
1
41
1
41
1
41
1
41
1
41
1
41
1
41
1
41
1
41
1
41
1
41
1
41
1
41
1
41
1
41
1
41
1
41
1
41
1
10
0
20
3
30
0
10
0.039853913554813131
20
2.9743817923138796
30
0
10
0.11958317014526125
20
2.9268331270969208
30
0
10
0.23924134345166753
20
2.8665733729294969
30
0
10
0.39891423532417392
20
2.8083679974588946
30
0
10
0.59871687028576592
20
2.7717443072429564
30
0
10
0.79872143671831275
20
2.7688024733266192
30
0
10
0.9989080960762855
20
2.79452392137914
30
0
10
1.1992431798275656
20
2.8404388280337205
30
0
10
1.399675526161253
20
2.8937172152345254
30
0
10
1.6001439107457336
20
2.9400661600856242
30
0
10
1.8005845103401732
20
2.9666441146880813
30
0
10
2.0009383373678666
20
2.9649668422586153
30
0
10
2.2011587014913712
20
2.9338360626776838
30
0
10
2.4012186696534354
20
2.8822520310709838
30
0
10
2.6011125992915796
20
2.8251167308227707
30
0
10
2.800857743028986
20
2.7789770205240307
30
0
10
3.0004958854015129
20
2.7577630535139286
30
0
10
3.2000950510776436
20
2.768519375740266
30
0
10
3.3997512190402981
20
2.8071379047595957
30
0
10
3.5995692284697944
20
2.862224162088705
30
0
10
3.7996437445144498
20
2.9189306035322882
30
0
10
4.0000401890016146
20
2.9627890673350503
30
0
10
4.200775604382458
20
2.9835426104552165
30
0
10
4.401799444324662
20
2.9789829311867511
30
0
10
4.6030161266378666
20
2.9527356205277808
30
0
10
4.8043075119152681
20
2.9120562063163051
30
0
10
5.0055552403543535
20
2.865643629545958
30
0
10
5.2066633069142174
20
2.8214306446561173
30
0
10
5.4075800156891196
20
2.7844453611898885
30
0
10
5.6082933751174924
20
2.7574893998539727
30
0
10
5.808827281110073
20
2.7417475064550931
30
0
10
6.0092373748884409
20
2.7374107665401253
30
0
10
6.2096074478088923
20
2.744306619831594
30
0
10
6.4100448281592524
20
2.7624789509400616
30
0
10
6.6106537508363958
20
2.7915905766201203
30
0
10
6.8115092763153466
20
2.8303621959996939
30
0
10
7.012631540702607
20
2.8760142134660835
30
0
10
7.2139583381496006
20
2.9236592754078625
30
0
10
7.4153221280219404
20
2.9658346233285537
30
0
10
7.6165009089329248
20
2.9943568014916515
30
0
10
7.8172655491691936
20
3.0020726445826691
30
0
10
8.0174274559731451
20
2.9846099053019155
30
0
10
8.2168883868445324
20
2.9422308041703467
30
0
10
8.415683262919945
20
2.8813788808037959
30
0
10
8.61393752792128
20
2.8125104721050782
30
0
10
8.8118306144373708
20
2.7481895169762898
30
0
10
9.009557571358922
20
2.7011058767704594
30
0
10
9.2072908736520045
20
2.6820904216040029
30
0
10
9.40514406239725
20
2.698233843919335
30
0
10
9.6031850875168683
20
2.7537333157947952
30
0
10
9.7617949667543176
20
2.8312403053935906
30
0
10
9.8808568737880886
20
2.9082737845101256
30
0
10
9.9602778893623363
20
2.9680252825461544
30
0
10
10
20
3
30
0
0
ENDSEC
0
SECTION
2
OBJECTS
0
DICTIONARY
5
C
100
AcDbDictionary
3
ACAD_GROUP
350
D
3
ACAD_MLINESTYLE
350
17
0
DICTIONARY
5
D
100
AcDbDictionary
0
DICTIONARY
5
1A
330
C
100
AcDbDictionary
0
DICTIONARY
5
17
100
AcDbDictionary
0
ENDSEC
0
EOF
