0
SECTION
2
HEADER
9
$INSUNITS
70
4
9
$ACADVER
1
AC1014
9
$HANDSEED
5
FFFF
0
ENDSEC
0
SECTION
2
TABLES
0
TABLE
2
VPORT
5
8
100
AcDbSymbolTable
0
ENDTAB
0
TABLE
2
LTYPE
5
5
100
AcDbSymbolTable
0
LTYPE
5
14
100
AcDbSymbolTableRecord
100
AcDbLinetypeTableRecord
2
BYBLOCK
70
0
0
LTYPE
5
15
100
AcDbSymbolTableRecord
100
AcDbLinetypeTableRecord
2
BYLAYER
70
0
0
ENDTAB
0
TABLE
2
LAYER
5
2
100
AcDbSymbolTable
70
2
0
LAYER
5
50
100
AcDbSymbolTableRecord
100
AcDbLayerTableRecord
2
0
70
0
6
CONTINUOUS
0
ENDTAB
0
TABLE
2
STYLE
5
3
100
AcDbSymbolTable
70
1
0
STYLE
5
11
100
AcDbSymbolTableRecord
100
AcDbTextStyleTableRecord
2
STANDARD
70
0
0
ENDTAB
0
TABLE
2
VIEW
5
6
100
AcDbSymbolTable
70
0
0
ENDTAB
0
TABLE
2
UCS
5
7
100
AcDbSymbolTable
70
0
0
ENDTAB
0
TABLE
2
APPID
5
9
100
AcDbSymbolTable
70
2
0
APPID
5
12
100
AcDbSymbolTableRecord
100
AcDbRegAppTableRecord
2
ACAD
70
0
0
ENDTAB
0
TABLE
2
DIMSTYLE
5
A
100
AcDbSymbolTable
70
1
0
ENDTAB
0
TABLE
2
BLOCK_RECORD
5
1
100
AcDbSymbolTable
70
1
0
BLOCK_RECORD
5
1F
100
AcDbSymbolTableRecord
100
AcDbBlockTableRecord
2
*MODEL_SPACE
0
BLOCK_RECORD
5
1B
100
AcDbSymbolTableRecord
100
AcDbBlockTableRecord
2
*PAPER_SPACE
0
ENDTAB
0
ENDSEC
0
SECTION
2
BLOCKS
0
BLOCK
5
20
100
AcDbEntity
100
AcDbBlockBegin
2
*MODEL_SPACE
0
ENDBLK
5
21
100
AcDbEntity
100
AcDbBlockEnd
0
BLOCK
5
1C
100
AcDbEntity
100
AcDbBlockBegin
2
*PAPER_SPACE
0
ENDBLK
5
1D
100
AcDbEntity
100
AcDbBlockEnd
0
ENDSEC
0
SECTION
2
ENTITIES
0
SPLINE
5
100
100
AcDbEntity
8
0
100
AcDbSpline
70
4
71
5
72
16
73
10
74
0
42
0.000000001
43
0.0000000001
44
0.0000000001
40
0
40
0
40
0
40
0
40
0
40
0
40
0.20000000000000001
40
0.40000000000000002
40
0.60000000000000009
40
0.80000000000000004
40
1
40
1
40
1
40
1
40
1
40
1
41
1
41
1
41
1
41
1
41
1
41
1
41
1
41
1
41
1
41
1
10
0
20
0
30
0
10
0
20
0.12000000000003158
30
0
10
0
20
0.36000000000007704
30
0
10
0
20
0.72000000000009301
30
0
10
0
20
1.2000000000000313
30
0
10
0
20
1.7999999999999146
30
0
10
0
20
2.2799999999998684
30
0
10
0
20
2.6399999999999042
30
0
10
0
20
2.8799999999999617
30
0
10
0
20
3
30
0
0
SPLINE
5
101
100
AcDbEntity
8
0
100
AcDbSpline
70
4
71
5
72
16
73
10
74
0
42
0.000000001
43
0.0000000001
44
0.0000000001
40
0
40
0
40
0
40
0
40
0
40
0
40
0.20000000000000001
40
0.40000000000000002
40
0.60000000000000009
40
0.80000000000000004
40
1
40
1
40
1
40
1
40
1
40
1
41
1
41
1
41
1
41
1
41
1
41
1
41
1
41
1
41
1
41
1
10
10
20
0
30
0
10
9.9999999999997495
20
0.12000000000003158
30
0
10
9.9999999999993197
20
0.36000000000007704
30
0
10
9.9999999999989129
20
0.72000000000009301
30
0
10
9.9999999999987672
20
1.2000000000000313
30
0
10
9.9999999999990248
20
1.7999999999999146
30
0
10
9.9999999999993889
20
2.2799999999998684
30
0
10
9.9999999999996998
20
2.6399999999999042
30
0
10
9.9999999999999005
20
2.8799999999999617
30
0
10
10
20
3
30
0
0
SPLINE
5
102
100
AcDbEntity
8
0
100
AcDbSpline
70
4
71
5
72
16
73
10
74
0
42
0.000000001
43
0.0000000001
44
0.0000000001
40
0
40
0
40
0
40
0
40
0
40
0
40
0.20000000000000001
40
0.40000000000000002
40
0.60000000000000009
40
0.80000000000000004
40
1
40
1
40
1
40
1
40
1
40
1
41
1
41
1
41
1
41
1
41
1
41
1
41
1
41
1
41
1
41
1
10
0
20
1.5
30
0
10
0.40000000000047375
20
1.499999999999694
30
0
10
1.2000000000012774
20
1.4999999999991638
30
0
10
2.4000000000020547
20
1.4999999999986278
30
0
10
4.0000000000023546
20
1.4999999999983737
30
0
10
6.0000000000019584
20
1.4999999999985913
30
0
10
7.6000000000012928
20
1.4999999999990359
30
0
10
8.800000000000697
20
1.4999999999994786
30
0
10
9.6000000000002395
20
1.4999999999998188
30
0
10
10
20
1.5
30
0
0
SPLINE
5
103
100
AcDbEntity
8
0
100
AcDbSpline
70
4
71
5
72
61
73
55
74
0
42
0.000000001
43
0.0000000001
44
0.0000000001
40
0
40
0
40
0
40
0
40
0
40
0
40
0.02
40
0.040000000000000001
40
0.059999999999999998
40
0.080000000000000002
40
0.10000000000000001
40
0.12000000000000001
40
0.14000000000000001
40
0.16
40
0.17999999999999999
40
0.19999999999999998
40
0.21999999999999997
40
0.23999999999999996
40
0.25999999999999995
40
0.27999999999999997
40
0.29999999999999999
40
0.32000000000000001
40
0.34000000000000002
40
0.36000000000000004
40
0.38000000000000006
40
0.40000000000000008
40
0.4200000000000001
40
0.44000000000000011
40
0.46000000000000013
40
0.48000000000000015
40
0.50000000000000011
40
0.52000000000000013
40
0.54000000000000015
40
0.56000000000000016
40
0.58000000000000018
40
0.6000000000000002
40
0.62000000000000022
40
0.64000000000000024
40
0.66000000000000025
40
0.68000000000000027
40
0.70000000000000029
40
0.72000000000000031
40
0.74000000000000032
40
0.76000000000000034
40
0.78000000000000036
40
0.80000000000000038
40
0.8200000000000004
40
0.84000000000000041
40
0.86000000000000043
40
0.88000000000000045
40
0.90000000000000047
40
0.92000000000000048
40
0.9400000000000005
40
0.96000000000000052
40
0.98000000000000054
40
1
40
1
40
1
40
1
40
1
40
1
41
1
41
1
41
1
41
1
41
1
41
1
41
1
41
1
41
1
41
1
41
1
41
1
41
1
41
1
41
1
41
1
41
1
41
1
41
1
41
1
41
1
41
1
41
1
41
1
41
1
41
1
41
1
41
1
41
1
41
1
41
1
41
1
41
1
41
1
41
1
41
1
41
1
41
1
41
1
41
1
41
1
41
1
41
1
41
1
41
1
41
1
41
1
41
1
41
1
41
1
41
1
41
1
41
1
41
1
41
1
10
0
20
0
30
0
10
0.040619162335798313
20
-0.0057408527157687354
30
0
10
0.12183656789741129
20
-0.015559876301682752
30
0
10
0.24359991860283034
20
-0.025300310670768024
30
0
10
0.4058254584925961
20
-0.028305334372299849
30
0
10
0.60840084564678631
20
-0.015906931145646862
30
0
10
0.81077893171123794
20
0.01112379512132403
30
0
10
1.0129787418777376
20
0.049705546156487659
30
0
10
1.21503277728724
20
0.094617222304042778
30
0
10
1.4169898494940831
20
0.13807138281628356
30
0
10
1.6189046487410932
20
0.17168577206145957
30
0
10
1.82082780404036
20
0.18836374258476318
30
0
10
2.0227962192968567
20
0.18413461322588354
30
0
10
2.2248221854817358
20
0.16019690534499309
30
0
10
2.4268860476275833
20
0.12437404228594109
30
0
10
2.6289582012291719
20
0.08758622837469679
30
0
10
2.8310192639737988
20
0.060692905897228505
30
0
10
3.0330792913425975
20
0.051362843378284478
30
0
10
3.235201355312689
20
0.060535612696039347
30
0
10
3.4375119132343772
20
0.080196946321883067
30
0
10
3.6401411829144994
20
0.09834391709478249
30
0
10
3.8431696095175356
20
0.10321469003434533
30
0
10
4.0465770222694388
20
0.087475922991730792
30
0
10
4.2501782855421482
20
0.053200796840348813
30
0
10
4.4536015138830596
20
0.01418387515272684
30
0
10
4.6564150107764766
20
-0.011193498481151313
30
0
10
4.8582352002315092
20
-0.0058358396474422801
30
0
10
5.0588316556492341
20
0.040258127449660522
30
0
10
5.2582584448026362
20
0.12281881413677828
30
0
10
5.4568954486163062
20
0.22094117440619337
30
0
10
5.6552619336306282
20
0.30693305921777447
30
0
10
5.8538688004020987
20
0.35409798040985363
30
0
10
6.0530672283127416
20
0.3446935831597433
30
0
10
6.2528709146395904
20
0.27935492902273507
30
0
10
6.4528761865665798
20
0.18112803666416633
30
0
10
6.652471191643289
20
0.083641918143027377
30
0
10
6.8509968498239591
20
0.021883036000189589
30
0
10
7.0479172540114057
20
0.022555878482476369
30
0
10
7.2430084540143191
20
0.093175450212491739
30
0
10
7.4364709294820237
20
0.21611178404885839
30
0
10
7.628775158123112
20
0.3597884981006253
30
0
10
7.8205521523970081
20
0.48702188131353985
30
0
10
8.0124681459190423
20
0.56434203924404747
30
0
10
8.2051032181771522
20
0.5711814704874848
30
0
10
8.3988367443745666
20
0.50834358845638583
30
0
10
8.5938937485528974
20
0.39148251181186722
30
0
10
8.7903814444489701
20
0.24549526090195312
30
0
10
8.9883293816111003
20
0.098548906841831457
30
0
10
9.1877272077734133
20
-0.023609550646282632
30
0
10
9.3885647974252819
20
-0.10377183298681536
30
0
10
9.5908340590008621
20
-0.13177299978262899
30
0
10
9.753789807072911
20
-0.10843673675445722
30
0
10
9.8766463014368995
20
-0.064494322569119744
30
0
10
9.9588347476314301
20
-0.023455418741255382
30
0
10
10
20
0
30
0
0
SPLINE
5
104
100
AcDbEntity
8
0
100
AcDbSpline
70
4
71
5
72
61
73
55
74
0
42
0.000000001
43
0.0000000001
44
0.0000000001
40
0
40
0
40
0
40
0
40
0
40
0
40
0.02
40
0.040000000000000001
40
0.059999999999999998
40
0.080000000000000002
40
0.10000000000000001
40
0.12000000000000001
40
0.14000000000000001
40
0.16
40
0.17999999999999999
40
0.19999999999999998
40
0.21999999999999997
40
0.23999999999999996
40
0.25999999999999995
40
0.27999999999999997
40
0.29999999999999999
40
0.32000000000000001
40
0.34000000000000002
40
0.36000000000000004
40
0.38000000000000006
40
0.40000000000000008
40
0.4200000000000001
40
0.44000000000000011
40
0.46000000000000013
40
0.48000000000000015
40
0.50000000000000011
40
0.52000000000000013
40
0.54000000000000015
40
0.56000000000000016
40
0.58000000000000018
40
0.6000000000000002
40
0.62000000000000022
40
0.64000000000000024
40
0.66000000000000025
40
0.68000000000000027
40
0.70000000000000029
40
0.72000000000000031
40
0.74000000000000032
40
0.76000000000000034
40
0.78000000000000036
40
0.80000000000000038
40
0.8200000000000004
40
0.84000000000000041
40
0.86000000000000043
40
0.88000000000000045
40
0.90000000000000047
40
0.92000000000000048
40
0.9400000000000005
40
0.96000000000000052
40
0.98000000000000054
40
1
40
1
40
1
40
1
40
1
40
1
41
1
41
1
41
1
41
1
41
1
41
1
41
1
41
1
41
1
41
1
41
1
41
1
41
1
41
1
41
1
41
1
41
1
41
1
41
1
41
1
41
1
41
1
41
1
41
1
41
1
41
1
41
1
41
1
41
1
41
1
41
1
41
1
41
1
41
1
41
1
41
1
41
1
41
1
41
1
41
1
41
1
41
1
41
1
41
1
41
1
41
1
41
1
41
1
41
1
41
1
41
1
41
1
41
1
41
1
41
1
10
0
20
3
30
0
10
0.041545341930640974
20
3.0239979280133249
30
0
10
0.12441941043219701
20
3.0662024420840157
30
0
10
0.24808066709571075
20
3.1121350629609061
30
0
10
0.41166180395476337
20
3.1386086928620696
30
0
10
0.61397716012416392
20
3.1151712769023447
30
0
10
0.81415948425315565
20
3.0397160128249272
30
0
10
1.0122713264959058
20
2.9214115364046158
30
0
10
1.2084228901073015
20
2.775791293130597
30
0
10
1.4027852165704715
20
2.6261121552984594
30
0
10
1.5956051907013988
20
2.4982126957753472
30
0
10
1.7872198029460238
20
2.4157767457342985
30
0
10
1.9780726463679654
20
2.3952948413666912
30
0
10
2.1687259264523782
20
2.4414739287249154
30
0
10
2.3598849455633557
20
2.5415297243225154
30
0
10
2.5522937357325555
20
2.6710039616628931
30
0
10
2.7466188864135233
20
2.8007781735018646
30
0
10
2.9433305820341191
20
2.9039510574354619
30
0
10
3.1425998194541909
20
2.9620777070290609
30
0
10
3.3441483248552157
20
2.9734773269952628
30
0
10
3.5473504437770291
20
2.9502230905831639
30
0
10
3.7514262751904157
20
2.9109871891869652
30
0
10
3.9556107449836899
20
2.8750301275112595
30
0
10
4.1593184625904698
20
2.8562409765073351
30
0
10
4.3623472218155497
20
2.8557999685839341
30
0
10
4.5648012961061744
20
2.8651544711228931
30
0
10
4.7669416959138591
20
2.8716886215256192
30
0
10
4.9690580481825029
20
2.8636184939285658
30
0
10
5.1713400334401101
20
2.8348563592696605
30
0
10
5.3737267083749867
20
2.7908298407559662
30
0
10
5.5759817808096432
20
2.7448136055052403
30
0
10
5.7778065208074505
20
2.7126948618172744
30
0
10
5.9789414834306385
20
2.7081903265140843
30
0
10
6.1792677842527679
20
2.7381196780807726
30
0
10
6.3789227147256273
20
2.7969763169553437
30
0
10
6.5782223441076777
20
2.8707484128465928
30
0
10
6.7775637163879505
20
2.9417105257428671
30
0
10
6.9773328891149813
20
2.9929460345719505
30
0
10
7.1778145866720378
20
3.0127712156117163
30
0
10
7.3790902132935967
20
2.9997726953021742
30
0
10
7.5810791061482838
20
2.9603744843239488
30
0
10
7.7835963162652391
20
2.905546946206754
30
0
10
7.9864046227408449
20
2.8478056083325578
30
0
10
8.1892676981572663
20
2.7981671167858191
30
0
10
8.3920056326221086
20
2.7629275903244448
30
0
10
8.5944887911060466
20
2.7445742486566398
30
0
10
8.7966274879593449
20
2.7429725680876889
30
0
10
8.9983633039856219
20
2.7564459150380332
30
0
10
9.1996598263294409
20
2.7828920654172355
30
0
10
9.4004936765425064
20
2.8208893765912135
30
0
10
9.6008516051616102
20
2.8695716388042336
30
0
10
9.760752494397595
20
2.9167067380883283
30
0
10
9.8804607434437699
20
2.9565915182471985
30
0
10
9.9601696756752141
20
2.9851949149687118
30
0
10
10
20
3
30
0
0
ENDSEC
0
SECTION
2
OBJECTS
0
DICTIONARY
5
C
100
AcDbDictionary
3
ACAD_GROUP
350
D
3
ACAD_MLINESTYLE
350
17
0
DICTIONARY
5
D
100
AcDbDictionary
0
DICTIONARY
5
1A
330
C
100
AcDbDictionary
0
DICTIONARY
5
17
100
AcDbDictionary
0
ENDSEC
0
EOF
