0
SECTION
2
HEADER
9
$INSUNITS
70
4
9
$ACADVER
1
AC1014
9
$HANDSEED
5
FFFF
0
ENDSEC
0
SECTION
2
TABLES
0
TABLE
2
VPORT
5
8
100
AcDbSymbolTable
0
ENDTAB
0
TABLE
2
LTYPE
5
5
100
AcDbSymbolTable
0
LTYPE
5
14
100
AcDbSymbolTableRecord
100
AcDbLinetypeTableRecord
2
BYBLOCK
70
0
0
LTYPE
5
15
100
AcDbSymbolTableRecord
100
AcDbLinetypeTableRecord
2
BYLAYER
70
0
0
ENDTAB
0
TABLE
2
LAYER
5
2
100
AcDbSymbolTable
70
2
0
LAYER
5
50
100
AcDbSymbolTableRecord
100
AcDbLayerTableRecord
2
0
70
0
6
CONTINUOUS
0
ENDTAB
0
TABLE
2
STYLE
5
3
100
AcDbSymbolTable
70
1
0
STYLE
5
11
100
AcDbSymbolTableRecord
100
AcDbTextStyleTableRecord
2
STANDARD
70
0
0
ENDTAB
0
TABLE
2
VIEW
5
6
100
AcDbSymbolTable
70
0
0
ENDTAB
0
TABLE
2
UCS
5
7
100
AcDbSymbolTable
70
0
0
ENDTAB
0
TABLE
2
APPID
5
9
100
AcDbSymbolTable
70
2
0
APPID
5
12
100
AcDbSymbolTableRecord
100
AcDbRegAppTableRecord
2
ACAD
70
0
0
ENDTAB
0
TABLE
2
DIMSTYLE
5
A
100
AcDbSymbolTable
70
1
0
ENDTAB
0
TABLE
2
BLOCK_RECORD
5
1
100
AcDbSymbolTable
70
1
0
BLOCK_RECORD
5
1F
100
AcDbSymbolTableRecord
100
AcDbBlockTableRecord
2
*MODEL_SPACE
0
BLOCK_RECORD
5
1B
100
AcDbSymbolTableRecord
100
AcDbBlockTableRecord
2
*PAPER_SPACE
0
ENDTAB
0
ENDSEC
0
SECTION
2
BLOCKS
0
BLOCK
5
20
100
AcDbEntity
100
AcDbBlockBegin
2
*MODEL_SPACE
0
ENDBLK
5
21
100
AcDbEntity
100
AcDbBlockEnd
0
BLOCK
5
1C
100
AcDbEntity
100
AcDbBlockBegin
2
*PAPER_SPACE
0
ENDBLK
5
1D
100
AcDbEntity
100
AcDbBlockEnd
0
ENDSEC
0
SECTION
2
ENTITIES
0
SPLINE
5
100
100
AcDbEntity
8
0
100
AcDbSpline
70
4
71
5
72
16
73
10
74
0
42
0.000000001
43
0.0000000001
44
0.0000000001
40
0
40
0
40
0
40
0
40
0
40
0
40
0.20000000000000001
40
0.40000000000000002
40
0.60000000000000009
40
0.80000000000000004
40
1
40
1
40
1
40
1
40
1
40
1
41
1
41
1
41
1
41
1
41
1
41
1
41
1
41
1
41
1
41
1
10
0
20
0
30
0
10
0
20
0.12000000000003158
30
0
10
0
20
0.36000000000007704
30
0
10
0
20
0.72000000000009301
30
0
10
0
20
1.2000000000000313
30
0
10
0
20
1.7999999999999146
30
0
10
0
20
2.2799999999998684
30
0
10
0
20
2.6399999999999042
30
0
10
0
20
2.8799999999999617
30
0
10
0
20
3
30
0
0
SPLINE
5
101
100
AcDbEntity
8
0
100
AcDbSpline
70
4
71
5
72
16
73
10
74
0
42
0.000000001
43
0.0000000001
44
0.0000000001
40
0
40
0
40
0
40
0
40
0
40
0
40
0.20000000000000001
40
0.40000000000000002
40
0.60000000000000009
40
0.80000000000000004
40
1
40
1
40
1
40
1
40
1
40
1
41
1
41
1
41
1
41
1
41
1
41
1
41
1
41
1
41
1
41
1
10
10
20
0
30
0
10
9.9999999999997495
20
0.12000000000003158
30
0
10
9.9999999999993197
20
0.36000000000007704
30
0
10
9.9999999999989129
20
0.72000000000009301
30
0
10
9.9999999999987672
20
1.2000000000000313
30
0
10
9.9999999999990248
20
1.7999999999999146
30
0
10
9.9999999999993889
20
2.2799999999998684
30
0
10
9.9999999999996998
20
2.6399999999999042
30
0
10
9.9999999999999005
20
2.8799999999999617
30
0
10
10
20
3
30
0
0
SPLINE
5
102
100
AcDbEntity
8
0
100
AcDbSpline
70
4
71
5
72
16
73
10
74
0
42
0.000000001
43
0.0000000001
44
0.0000000001
40
0
40
0
40
0
40
0
40
0
40
0
40
0.20000000000000001
40
0.40000000000000002
40
0.60000000000000009
40
0.80000000000000004
40
1
40
1
40
1
40
1
40
1
40
1
41
1
41
1
41
1
41
1
41
1
41
1
41
1
41
1
41
1
41
1
10
0
20
1.5
30
0
10
0.40000000000047375
20
1.499999999999694
30
0
10
1.2000000000012774
20
1.4999999999991638
30
0
10
2.4000000000020547
20
1.4999999999986278
30
0
10
4.0000000000023546
20
1.4999999999983737
30
0
10
6.0000000000019584
20
1.4999999999985913
30
0
10
7.6000000000012928
20
1.4999999999990359
30
0
10
8.800000000000697
20
1.4999999999994786
30
0
10
9.6000000000002395
20
1.4999999999998188
30
0
10
10
20
1.5
30
0
0
SPLINE
5
103
100
AcDbEntity
8
0
100
AcDbSpline
70
4
71
5
72
61
73
55
74
0
42
0.000000001
43
0.0000000001
44
0.0000000001
40
0
40
0
40
0
40
0
40
0
40
0
40
0.02
40
0.040000000000000001
40
0.059999999999999998
40
0.080000000000000002
40
0.10000000000000001
40
0.12000000000000001
40
0.14000000000000001
40
0.16
40
0.17999999999999999
40
0.19999999999999998
40
0.21999999999999997
40
0.23999999999999996
40
0.25999999999999995
40
0.27999999999999997
40
0.29999999999999999
40
0.32000000000000001
40
0.34000000000000002
40
0.36000000000000004
40
0.38000000000000006
40
0.40000000000000008
40
0.4200000000000001
40
0.44000000000000011
40
0.46000000000000013
40
0.48000000000000015
40
0.50000000000000011
40
0.52000000000000013
40
0.54000000000000015
40
0.56000000000000016
40
0.58000000000000018
40
0.6000000000000002
40
0.62000000000000022
40
0.64000000000000024
40
0.66000000000000025
40
0.68000000000000027
40
0.70000000000000029
40
0.72000000000000031
40
0.74000000000000032
40
0.76000000000000034
40
0.78000000000000036
40
0.80000000000000038
40
0.8200000000000004
40
0.84000000000000041
40
0.86000000000000043
40
0.88000000000000045
40
0.90000000000000047
40
0.92000000000000048
40
0.9400000000000005
40
0.96000000000000052
40
0.98000000000000054
40
1
40
1
40
1
40
1
40
1
40
1
41
1
41
1
41
1
41
1
41
1
41
1
41
1
41
1
41
1
41
1
41
1
41
1
41
1
41
1
41
1
41
1
41
1
41
1
41
1
41
1
41
1
41
1
41
1
41
1
41
1
41
1
41
1
41
1
41
1
41
1
41
1
41
1
41
1
41
1
41
1
41
1
41
1
41
1
41
1
41
1
41
1
41
1
41
1
41
1
41
1
41
1
41
1
41
1
41
1
41
1
41
1
41
1
41
1
41
1
41
1
10
0
20
0
30
0
10
0.040145143155455573
20
0.0040233996454458448
30
0
10
0.12042512842237546
20
0.012133940746568915
30
0
10
0.24081420311330873
20
0.024490976856146252
30
0
10
0.4012711233395595
20
0.041349731529314551
30
0
10
0.60174282073724084
20
0.063050574116338978
30
0
10
0.80212636146996275
20
0.085345110776463173
30
0
10
1.0024446439151034
20
0.1081636962263416
30
0
10
1.2027362054324262
20
0.1313889930952104
30
0
10
1.4030590708513115
20
0.15484147725946523
30
0
10
1.6034758347098521
20
0.17806662959722436
30
0
10
1.8040388975207091
20
0.20012145706881262
30
0
10
2.0047757395475672
20
0.21936458010265569
30
0
10
2.2056738561670755
20
0.23323277668550188
30
0
10
2.406666461515941
20
0.23804937275187471
30
0
10
2.6076558981552607
20
0.23024568994458469
30
0
10
2.8085363074584575
20
0.20756479849947757
30
0
10
3.009216301338105
20
0.17025184376333558
30
0
10
3.2096422019007083
20
0.12230955898371752
30
0
10
3.4098195975047725
20
0.072586780271628626
30
0
10
3.6097936599097755
20
0.031906452180719476
30
0
10
3.8096310749247015
20
0.010332799976459452
30
0
10
4.009401618535759
20
0.014425003190267663
30
0
10
4.2091595058470528
20
0.044398406125547143
30
0
10
4.4089259536586685
20
0.091562991470230809
30
0
10
4.608701643653256
20
0.14235557737909058
30
0
10
4.8084779774325916
20
0.18211542155400395
30
0
10
5.0082486510683033
20
0.19891078312809288
30
0
10
5.2080213275855947
20
0.18744027522350579
30
0
10
5.407828631395061
20
0.1526605254766647
30
0
10
5.6077189991130618
20
0.10571568422274186
30
0
10
5.8077482857031288
20
0.060137494092896704
30
0
10
6.0079711188184177
20
0.027989814012341081
30
0
10
6.2084323406102051
20
0.015951330840293095
30
0
10
6.4091584466467904
20
0.021649419771526766
30
0
10
6.6101516349335201
20
0.037250033672890939
30
0
10
6.8113835583587594
20
0.052809414373883812
30
0
10
7.0127893896559259
20
0.059654403873260965
30
0
10
7.2142609898278707
20
0.053872819089671488
30
0
10
7.4156422030827276
20
0.039423460673201738
30
0
10
7.6167585889780307
20
0.024787070806346422
30
0
10
7.8174455981187947
20
0.019943275566041099
30
0
10
8.0175767283309902
20
0.03328983818838846
30
0
10
8.2170932191656139
20
0.068446817875406324
30
0
10
8.4160291520458479
20
0.12149281878016499
30
0
10
8.6144814961341432
20
0.18348443900816785
30
0
10
8.812584108658271
20
0.24259604582670186
30
0
10
9.0104805953193114
20
0.28637487417020119
30
0
10
9.2082971789978689
20
0.30398878060872409
30
0
10
9.4061170616446894
20
0.28835225236177908
30
0
10
9.6039901817687117
20
0.23526508181742986
30
0
10
9.7623510539456344
20
0.16120974748167899
30
0
10
9.8811604658068539
20
0.087619237849018899
30
0
10
9.9603839530853087
20
0.030542486834269651
30
0
10
10
20
0
30
0
0
SPLINE
5
104
100
AcDbEntity
8
0
100
AcDbSpline
70
4
71
5
72
61
73
55
74
0
42
0.000000001
43
0.0000000001
44
0.0000000001
40
0
40
0
40
0
40
0
40
0
40
0
40
0.02
40
0.040000000000000001
40
0.059999999999999998
40
0.080000000000000002
40
0.10000000000000001
40
0.12000000000000001
40
0.14000000000000001
40
0.16
40
0.17999999999999999
40
0.19999999999999998
40
0.21999999999999997
40
0.23999999999999996
40
0.25999999999999995
40
0.27999999999999997
40
0.29999999999999999
40
0.32000000000000001
40
0.34000000000000002
40
0.36000000000000004
40
0.38000000000000006
40
0.40000000000000008
40
0.4200000000000001
40
0.44000000000000011
40
0.46000000000000013
40
0.48000000000000015
40
0.50000000000000011
40
0.52000000000000013
40
0.54000000000000015
40
0.56000000000000016
40
0.58000000000000018
40
0.6000000000000002
40
0.62000000000000022
40
0.64000000000000024
40
0.66000000000000025
40
0.68000000000000027
40
0.70000000000000029
40
0.72000000000000031
40
0.74000000000000032
40
0.76000000000000034
40
0.78000000000000036
40
0.80000000000000038
40
0.8200000000000004
40
0.84000000000000041
40
0.86000000000000043
40
0.88000000000000045
40
0.90000000000000047
40
0.92000000000000048
40
0.9400000000000005
40
0.96000000000000052
40
0.98000000000000054
40
1
40
1
40
1
40
1
40
1
40
1
41
1
41
1
41
1
41
1
41
1
41
1
41
1
41
1
41
1
41
1
41
1
41
1
41
1
41
1
41
1
41
1
41
1
41
1
41
1
41
1
41
1
41
1
41
1
41
1
41
1
41
1
41
1
41
1
41
1
41
1
41
1
41
1
41
1
41
1
41
1
41
1
41
1
41
1
41
1
41
1
41
1
41
1
41
1
41
1
41
1
41
1
41
1
41
1
41
1
41
1
41
1
41
1
41
1
41
1
41
1
10
0
20
3
30
0
10
0.040172414240473055
20
3.002769035151307
30
0
10
0.12050221769393075
20
3.0075999471541746
30
0
10
0.24095184781160339
20
3.0127248389239907
30
0
10
0.40146114561786272
20
3.0153123229063472
30
0
10
0.60194738538795434
20
3.0115481610303889
30
0
10
0.80228372796856329
20
3.0010466378034768
30
0
10
1.002471596740258
20
2.9843511937673703
30
0
10
1.2025137580267535
20
2.9623885342483831
30
0
10
1.4024147811288006
20
2.9365664439781192
30
0
10
1.6021857621494187
20
2.908514932493373
30
0
10
1.8018490290635953
20
2.8798314449120022
30
0
10
2.0014428609629857
20
2.8518253521936234
30
0
10
2.2010262981723248
20
2.8252607581774751
30
0
10
2.4006838224984648
20
2.8001026714928834
30
0
10
2.6005038426482279
20
2.7759696238703646
30
0
10
2.8005573376640562
20
2.7525813873304794
30
0
10
3.0008764429734089
20
2.7302075852611294
30
0
10
3.2014328809938903
20
2.7101190020749302
30
0
10
3.402116529703954
20
2.6950348077032373
30
0
10
3.6027749795359449
20
2.6881753869537208
30
0
10
3.8032528307524305
20
2.6923194965154815
30
0
10
4.0034308844266011
20
2.7088639732551028
30
0
10
4.2032658331868458
20
2.7368678022980375
30
0
10
4.4028288594916969
20
2.7721279856890249
30
0
10
4.6022625269597075
20
2.8086431050586791
30
0
10
4.8017389991454831
20
2.8400390663832158
30
0
10
5.001417941108711
20
2.8610042335214181
30
0
10
5.2014044096720102
20
2.8687284156342212
30
0
10
5.4017070310504645
20
2.8643297309480036
30
0
10
5.6022659852176568
20
2.8514657420425711
30
0
10
5.8029804032632608
20
2.8349663978101667
30
0
10
6.0037357745130624
20
2.8194686105690723
30
0
10
6.2044314500379798
20
2.8080384769944211
30
0
10
6.4050076544367682
20
2.8008300227596195
30
0
10
6.6054400188455684
20
2.7961047603793947
30
0
10
6.8057347450605556
20
2.7912114886135631
30
0
10
7.0059235810952059
20
2.7835718871751141
30
0
10
7.2060590527784214
20
2.7716764234616735
30
0
10
7.406209382045529
20
2.7560406312184926
30
0
10
7.6064424921583935
20
2.738565948483878
30
0
10
7.8068101999670816
20
2.7219429844787504
30
0
10
8.0073324766523175
20
2.7090452506011027
30
0
10
8.2079812044284122
20
2.7023192863729664
30
0
10
8.408665132988034
20
2.703199825624977
30
0
10
8.6092522369732887
20
2.712352687937027
30
0
10
8.8095908914198677
20
2.7298899478540339
30
0
10
9.0095312469144631
20
2.7555922942195399
30
0
10
9.2089469229012515
20
2.7891301541007314
30
0
10
9.4077554676361572
20
2.8302757275073747
30
0
10
9.6059084061772619
20
2.8788794496297783
30
0
10
9.763887766084089
20
2.9236608715658607
30
0
10
9.8820637788289183
20
2.9605476518809453
30
0
10
9.9607107636127594
20
2.9866048778309331
30
0
10
10
20
3
30
0
0
ENDSEC
0
SECTION
2
OBJECTS
0
DICTIONARY
5
C
100
AcDbDictionary
3
ACAD_GROUP
350
D
3
ACAD_MLINESTYLE
350
17
0
DICTIONARY
5
D
100
AcDbDictionary
0
DICTIONARY
5
1A
330
C
100
AcDbDictionary
0
DICTIONARY
5
17
100
AcDbDictionary
0
ENDSEC
0
EOF
