0
SECTION
2
HEADER
9
$INSUNITS
70
4
9
$ACADVER
1
AC1014
9
$HANDSEED
5
FFFF
0
ENDSEC
0
SECTION
2
TABLES
0
TABLE
2
VPORT
5
8
100
AcDbSymbolTable
0
ENDTAB
0
TABLE
2
LTYPE
5
5
100
AcDbSymbolTable
0
LTYPE
5
14
100
AcDbSymbolTableRecord
100
AcDbLinetypeTableRecord
2
BYBLOCK
70
0
0
LTYPE
5
15
100
AcDbSymbolTableRecord
100
AcDbLinetypeTableRecord
2
BYLAYER
70
0
0
ENDTAB
0
TABLE
2
LAYER
5
2
100
AcDbSymbolTable
70
2
0
LAYER
5
50
100
AcDbSymbolTableRecord
100
AcDbLayerTableRecord
2
0
70
0
6
CONTINUOUS
0
ENDTAB
0
TABLE
2
STYLE
5
3
100
AcDbSymbolTable
70
1
0
STYLE
5
11
100
AcDbSymbolTableRecord
100
AcDbTextStyleTableRecord
2
STANDARD
70
0
0
ENDTAB
0
TABLE
2
VIEW
5
6
100
AcDbSymbolTable
70
0
0
ENDTAB
0
TABLE
2
UCS
5
7
100
AcDbSymbolTable
70
0
0
ENDTAB
0
TABLE
2
APPID
5
9
100
AcDbSymbolTable
70
2
0
APPID
5
12
100
AcDbSymbolTableRecord
100
AcDbRegAppTableRecord
2
ACAD
70
0
0
ENDTAB
0
TABLE
2
DIMSTYLE
5
A
100
AcDbSymbolTable
70
1
0
ENDTAB
0
TABLE
2
BLOCK_RECORD
5
1
100
AcDbSymbolTable
70
1
0
BLOCK_RECORD
5
1F
100
AcDbSymbolTableRecord
100
AcDbBlockTableRecord
2
*MODEL_SPACE
0
BLOCK_RECORD
5
1B
100
AcDbSymbolTableRecord
100
AcDbBlockTableRecord
2
*PAPER_SPACE
0
ENDTAB
0
ENDSEC
0
SECTION
2
BLOCKS
0
BLOCK
5
20
100
AcDbEntity
100
AcDbBlockBegin
2
*MODEL_SPACE
0
ENDBLK
5
21
100
AcDbEntity
100
AcDbBlockEnd
0
BLOCK
5
1C
100
AcDbEntity
100
AcDbBlockBegin
2
*PAPER_SPACE
0
ENDBLK
5
1D
100
AcDbEntity
100
AcDbBlockEnd
0
ENDSEC
0
SECTION
2
ENTITIES
0
SPLINE
5
100
100
AcDbEntity
8
0
100
AcDbSpline
70
4
71
5
72
16
73
10
74
0
42
0.000000001
43
0.0000000001
44
0.0000000001
40
0
40
0
40
0
40
0
40
0
40
0
40
0.20000000000000001
40
0.40000000000000002
40
0.60000000000000009
40
0.80000000000000004
40
1
40
1
40
1
40
1
40
1
40
1
41
1
41
1
41
1
41
1
41
1
41
1
41
1
41
1
41
1
41
1
10
0
20
0
30
0
10
0
20
0.12000000000003158
30
0
10
0
20
0.36000000000007704
30
0
10
0
20
0.72000000000009301
30
0
10
0
20
1.2000000000000313
30
0
10
0
20
1.7999999999999146
30
0
10
0
20
2.2799999999998684
30
0
10
0
20
2.6399999999999042
30
0
10
0
20
2.8799999999999617
30
0
10
0
20
3
30
0
0
SPLINE
5
101
100
AcDbEntity
8
0
100
AcDbSpline
70
4
71
5
72
16
73
10
74
0
42
0.000000001
43
0.0000000001
44
0.0000000001
40
0
40
0
40
0
40
0
40
0
40
0
40
0.20000000000000001
40
0.40000000000000002
40
0.60000000000000009
40
0.80000000000000004
40
1
40
1
40
1
40
1
40
1
40
1
41
1
41
1
41
1
41
1
41
1
41
1
41
1
41
1
41
1
41
1
10
10
20
0
30
0
10
9.9999999999997495
20
0.12000000000003158
30
0
10
9.9999999999993197
20
0.36000000000007704
30
0
10
9.9999999999989129
20
0.72000000000009301
30
0
10
9.9999999999987672
20
1.2000000000000313
30
0
10
9.9999999999990248
20
1.7999999999999146
30
0
10
9.9999999999993889
20
2.2799999999998684
30
0
10
9.9999999999996998
20
2.6399999999999042
30
0
10
9.9999999999999005
20
2.8799999999999617
30
0
10
10
20
3
30
0
0
SPLINE
5
102
100
AcDbEntity
8
0
100
AcDbSpline
70
4
71
5
72
16
73
10
74
0
42
0.000000001
43
0.0000000001
44
0.0000000001
40
0
40
0
40
0
40
0
40
0
40
0
40
0.20000000000000001
40
0.40000000000000002
40
0.60000000000000009
40
0.80000000000000004
40
1
40
1
40
1
40
1
40
1
40
1
41
1
41
1
41
1
41
1
41
1
41
1
41
1
41
1
41
1
41
1
10
0
20
1.5
30
0
10
0.40000000000047375
20
1.499999999999694
30
0
10
1.2000000000012774
20
1.4999999999991638
30
0
10
2.4000000000020547
20
1.4999999999986278
30
0
10
4.0000000000023546
20
1.4999999999983737
30
0
10
6.0000000000019584
20
1.4999999999985913
30
0
10
7.6000000000012928
20
1.4999999999990359
30
0
10
8.800000000000697
20
1.4999999999994786
30
0
10
9.6000000000002395
20
1.4999999999998188
30
0
10
10
20
1.5
30
0
0
SPLINE
5
103
100
AcDbEntity
8
0
100
AcDbSpline
70
4
71
5
72
61
73
55
74
0
42
0.000000001
43
0.0000000001
44
0.0000000001
40
0
40
0
40
0
40
0
40
0
40
0
40
0.02
40
0.040000000000000001
40
0.059999999999999998
40
0.080000000000000002
40
0.10000000000000001
40
0.12000000000000001
40
0.14000000000000001
40
0.16
40
0.17999999999999999
40
0.19999999999999998
40
0.21999999999999997
40
0.23999999999999996
40
0.25999999999999995
40
0.27999999999999997
40
0.29999999999999999
40
0.32000000000000001
40
0.34000000000000002
40
0.36000000000000004
40
0.38000000000000006
40
0.40000000000000008
40
0.4200000000000001
40
0.44000000000000011
40
0.46000000000000013
40
0.48000000000000015
40
0.50000000000000011
40
0.52000000000000013
40
0.54000000000000015
40
0.56000000000000016
40
0.58000000000000018
40
0.6000000000000002
40
0.62000000000000022
40
0.64000000000000024
40
0.66000000000000025
40
0.68000000000000027
40
0.70000000000000029
40
0.72000000000000031
40
0.74000000000000032
40
0.76000000000000034
40
0.78000000000000036
40
0.80000000000000038
40
0.8200000000000004
40
0.84000000000000041
40
0.86000000000000043
40
0.88000000000000045
40
0.90000000000000047
40
0.92000000000000048
40
0.9400000000000005
40
0.96000000000000052
40
0.98000000000000054
40
1
40
1
40
1
40
1
40
1
40
1
41
1
41
1
41
1
41
1
41
1
41
1
41
1
41
1
41
1
41
1
41
1
41
1
41
1
41
1
41
1
41
1
41
1
41
1
41
1
41
1
41
1
41
1
41
1
41
1
41
1
41
1
41
1
41
1
41
1
41
1
41
1
41
1
41
1
41
1
41
1
41
1
41
1
41
1
41
1
41
1
41
1
41
1
41
1
41
1
41
1
41
1
41
1
41
1
41
1
41
1
41
1
41
1
41
1
41
1
41
1
10
0
20
0
30
0
10
0.040154953629431847
20
0.0026452554397530955
30
0
10
0.12046740484154078
20
0.0082936231991734659
30
0
10
0.24094371352482452
20
0.017839749528657616
30
0
10
0.40159406539572901
20
0.032716431693648934
30
0
10
0.60243229275902044
20
0.054750409053920951
30
0
10
0.80329520083322592
20
0.079779308882037853
30
0
10
1.0041815007952579
20
0.10690638585283996
30
0
10
1.2050889702275005
20
0.13462303319438121
30
0
10
1.4060142155829347
20
0.16066075579537972
30
0
10
1.6069532990213822
20
0.18242325263671841
30
0
10
1.8079023460912915
20
0.1974088928977942
30
0
10
2.0088581635151899
20
0.20363355983392176
30
0
10
2.2098188454262329
20
0.20006213671528278
30
0
10
2.4107844089463901
20
0.18701750288349389
30
0
10
2.6117577653894886
20
0.16597543569552023
30
0
10
2.8127457424937496
20
0.13938823936489694
30
0
10
3.0137599823992338
20
0.11049477228677539
30
0
10
3.2148181697263629
20
0.083152142913293176
30
0
10
3.4159443910718701
20
0.061622615365448767
30
0
10
3.6171574547827867
20
0.049753618254065907
30
0
10
3.818459562386169
20
0.050174948630712958
30
0
10
4.0198254528435502
20
0.063518930291210557
30
0
10
4.2211897808174372
20
0.087550453062477135
30
0
10
4.4224394195764516
20
0.11654355143234511
30
0
10
4.6234536605326513
20
0.14312960835450961
30
0
10
4.8241415828400882
20
0.15997075349511175
30
0
10
5.0244785815007074
20
0.16144893623408665
30
0
10
5.2245480215422671
20
0.14546797580430579
30
0
10
5.4245676294191023
20
0.11487816557840222
30
0
10
5.6247971873416205
20
0.075820677180265042
30
0
10
5.8254557506404421
20
0.036366006188523078
30
0
10
6.0266390900478362
20
0.005064758676051842
30
0
10
6.2282275889750283
20
-0.010505272617497292
30
0
10
6.4298244283313775
20
-0.0050634656257100103
30
0
10
6.630910581159811
20
0.02416061598922508
30
0
10
6.8309799358828318
20
0.077069359497275891
30
0
10
7.029676358016486
20
0.15043188950699257
30
0
10
7.226943454982111
20
0.23746532765463435
30
0
10
7.4231307092346448
20
0.32778099167940589
30
0
10
7.6188176228153912
20
0.40954990984550826
30
0
10
7.8146694450118561
20
0.47142998803522773
30
0
10
8.0112829174011537
20
0.50455689267396719
30
0
10
8.2090318969509948
20
0.50457900383752463
30
0
10
8.4079247108747079
20
0.4734998982645347
30
0
10
8.6077148321588464
20
0.4176862146373394
30
0
10
8.8079984698528335
20
0.34607102694454212
30
0
10
9.0083159458893558
20
0.26830445771693351
30
0
10
9.2082527118082798
20
0.19290249198967468
30
0
10
9.4075363287602549
20
0.12547458025891195
30
0
10
9.606004386026699
20
0.069372193035098631
30
0
10
9.7640627706381071
20
0.034870323261806266
30
0
10
9.8821923554120694
20
0.015072779333899094
30
0
10
9.9607614462718601
20
0.0045742791427199206
30
0
10
10
20
0
30
0
0
SPLINE
5
104
100
AcDbEntity
8
0
100
AcDbSpline
70
4
71
5
72
61
73
55
74
0
42
0.000000001
43
0.0000000001
44
0.0000000001
40
0
40
0
40
0
40
0
40
0
40
0
40
0.02
40
0.040000000000000001
40
0.059999999999999998
40
0.080000000000000002
40
0.10000000000000001
40
0.12000000000000001
40
0.14000000000000001
40
0.16
40
0.17999999999999999
40
0.19999999999999998
40
0.21999999999999997
40
0.23999999999999996
40
0.25999999999999995
40
0.27999999999999997
40
0.29999999999999999
40
0.32000000000000001
40
0.34000000000000002
40
0.36000000000000004
40
0.38000000000000006
40
0.40000000000000008
40
0.4200000000000001
40
0.44000000000000011
40
0.46000000000000013
40
0.48000000000000015
40
0.50000000000000011
40
0.52000000000000013
40
0.54000000000000015
40
0.56000000000000016
40
0.58000000000000018
40
0.6000000000000002
40
0.62000000000000022
40
0.64000000000000024
40
0.66000000000000025
40
0.68000000000000027
40
0.70000000000000029
40
0.72000000000000031
40
0.74000000000000032
40
0.76000000000000034
40
0.78000000000000036
40
0.80000000000000038
40
0.8200000000000004
40
0.84000000000000041
40
0.86000000000000043
40
0.88000000000000045
40
0.90000000000000047
40
0.92000000000000048
40
0.9400000000000005
40
0.96000000000000052
40
0.98000000000000054
40
1
40
1
40
1
40
1
40
1
40
1
41
1
41
1
41
1
41
1
41
1
41
1
41
1
41
1
41
1
41
1
41
1
41
1
41
1
41
1
41
1
41
1
41
1
41
1
41
1
41
1
41
1
41
1
41
1
41
1
41
1
41
1
41
1
41
1
41
1
41
1
41
1
41
1
41
1
41
1
41
1
41
1
41
1
41
1
41
1
41
1
41
1
41
1
41
1
41
1
41
1
41
1
41
1
41
1
41
1
41
1
41
1
41
1
41
1
41
1
41
1
10
0
20
3
30
0
10
0.041129584063177266
20
3.0097111820361198
30
0
10
0.1232262446724384
20
3.0266744294061398
30
0
10
0.24588371101191789
20
3.0447419199822061
30
0
10
0.40845133256244087
20
3.0540677961755671
30
0
10
0.61006524516365057
20
3.0416015346223197
30
0
10
0.81018181290034197
20
3.0065639717622377
30
0
10
1.0090020171975762
20
2.9521271399537037
30
0
10
1.2068668737135464
20
2.8836693890734866
30
0
10
1.4042892138029164
20
2.8092789938609326
30
0
10
1.6018469652013143
20
2.7381787291781863
30
0
10
1.8000818226689508
20
2.6792316463100283
30
0
10
1.9993958464536998
20
2.6394160968539957
30
0
10
2.199948682448265
20
2.6223104077082637
30
0
10
2.4015537168935315
20
2.6265621536402604
30
0
10
2.603805687256755
20
2.6475330812717779
30
0
10
2.8062086492449589
20
2.6789476574106521
30
0
10
3.0083023555841235
20
2.714520056754564
30
0
10
3.2097918427774403
20
2.7496213615373781
30
0
10
3.4106688578216793
20
2.782840753676707
30
0
10
3.6111151455296424
20
2.8147552119504544
30
0
10
3.8114131630291075
20
2.8467904963527935
30
0
10
4.0118554274635256
20
2.880070159997361
30
0
10
4.2126520739843452
20
2.9142255105078592
30
0
10
4.4138460272227631
20
2.9463436570856998
30
0
10
4.6153698107846521
20
2.9723903693665421
30
0
10
4.8170954838635263
20
2.9885275781079916
30
0
10
5.0188859122793463
20
2.9924269758572537
30
0
10
5.220647845626738
20
2.9846893116795621
30
0
10
5.4223772801804042
20
2.9699382733157771
30
0
10
5.6241186095985016
20
2.9544644280634351
30
0
10
5.8259299588106437
20
2.9440823282773598
30
0
10
6.0278472513926538
20
2.9420127921199848
30
0
10
6.2298463824787085
20
2.9465019288080825
30
0
10
6.4318131196449428
20
2.9492623147432351
30
0
10
6.6335693069648425
20
2.9394662142898338
30
0
10
6.8348926923027884
20
2.9072367397388006
30
0
10
7.0355394938776596
20
2.8471386087108215
30
0
10
7.2352647717354301
20
2.762133199635231
30
0
10
7.4338465834007987
20
2.6659968285235087
30
0
10
7.6311255915667795
20
2.5778588348770577
30
0
10
7.8270436624972675
20
2.5177250690959312
30
0
10
8.0216815088105839
20
2.5017425559275308
30
0
10
8.2153009249701832
20
2.537290779755859
30
0
10
8.4083745553302656
20
2.6189267716551736
30
0
10
8.6015018770171956
20
2.7326279682613084
30
0
10
8.7953357384988564
20
2.8592663846023347
30
0
10
8.9905044654983435
20
2.9783857771881488
30
0
10
9.1875372162043014
20
3.0717828566154877
30
0
10
9.3867839280390726
20
3.1273387319347541
30
0
10
9.5884495786300175
20
3.1378976882445486
30
0
10
9.7517963300459147
20
3.1075385512828952
30
0
10
9.8754526750499654
20
3.0624453093388562
30
0
10
9.9583993699426863
20
3.022467674167352
30
0
10
10
20
3
30
0
0
ENDSEC
0
SECTION
2
OBJECTS
0
DICTIONARY
5
C
100
AcDbDictionary
3
ACAD_GROUP
350
D
3
ACAD_MLINESTYLE
350
17
0
DICTIONARY
5
D
100
AcDbDictionary
0
DICTIONARY
5
1A
330
C
100
AcDbDictionary
0
DICTIONARY
5
17
100
AcDbDictionary
0
ENDSEC
0
EOF
