0
SECTION
2
HEADER
9
$INSUNITS
70
4
9
$ACADVER
1
AC1014
9
$HANDSEED
5
FFFF
0
ENDSEC
0
SECTION
2
TABLES
0
TABLE
2
VPORT
5
8
100
AcDbSymbolTable
0
ENDTAB
0
TABLE
2
LTYPE
5
5
100
AcDbSymbolTable
0
LTYPE
5
14
100
AcDbSymbolTableRecord
100
AcDbLinetypeTableRecord
2
BYBLOCK
70
0
0
LTYPE
5
15
100
AcDbSymbolTableRecord
100
AcDbLinetypeTableRecord
2
BYLAYER
70
0
0
ENDTAB
0
TABLE
2
LAYER
5
2
100
AcDbSymbolTable
70
2
0
LAYER
5
50
100
AcDbSymbolTableRecord
100
AcDbLayerTableRecord
2
0
70
0
6
CONTINUOUS
0
ENDTAB
0
TABLE
2
STYLE
5
3
100
AcDbSymbolTable
70
1
0
STYLE
5
11
100
AcDbSymbolTableRecord
100
AcDbTextStyleTableRecord
2
STANDARD
70
0
0
ENDTAB
0
TABLE
2
VIEW
5
6
100
AcDbSymbolTable
70
0
0
ENDTAB
0
TABLE
2
UCS
5
7
100
AcDbSymbolTable
70
0
0
ENDTAB
0
TABLE
2
APPID
5
9
100
AcDbSymbolTable
70
2
0
APPID
5
12
100
AcDbSymbolTableRecord
100
AcDbRegAppTableRecord
2
ACAD
70
0
0
ENDTAB
0
TABLE
2
DIMSTYLE
5
A
100
AcDbSymbolTable
70
1
0
ENDTAB
0
TABLE
2
BLOCK_RECORD
5
1
100
AcDbSymbolTable
70
1
0
BLOCK_RECORD
5
1F
100
AcDbSymbolTableRecord
100
AcDbBlockTableRecord
2
*MODEL_SPACE
0
BLOCK_RECORD
5
1B
100
AcDbSymbolTableRecord
100
AcDbBlockTableRecord
2
*PAPER_SPACE
0
ENDTAB
0
ENDSEC
0
SECTION
2
BLOCKS
0
BLOCK
5
20
100
AcDbEntity
100
AcDbBlockBegin
2
*MODEL_SPACE
0
ENDBLK
5
21
100
AcDbEntity
100
AcDbBlockEnd
0
BLOCK
5
1C
100
AcDbEntity
100
AcDbBlockBegin
2
*PAPER_SPACE
0
ENDBLK
5
1D
100
AcDbEntity
100
AcDbBlockEnd
0
ENDSEC
0
SECTION
2
ENTITIES
0
SPLINE
5
100
100
AcDbEntity
8
0
100
AcDbSpline
70
4
71
5
72
16
73
10
74
0
42
0.000000001
43
0.0000000001
44
0.0000000001
40
0
40
0
40
0
40
0
40
0
40
0
40
0.20000000000000001
40
0.40000000000000002
40
0.60000000000000009
40
0.80000000000000004
40
1
40
1
40
1
40
1
40
1
40
1
41
1
41
1
41
1
41
1
41
1
41
1
41
1
41
1
41
1
41
1
10
0
20
0
30
0
10
0
20
0.12000000000003158
30
0
10
0
20
0.36000000000007704
30
0
10
0
20
0.72000000000009301
30
0
10
0
20
1.2000000000000313
30
0
10
0
20
1.7999999999999146
30
0
10
0
20
2.2799999999998684
30
0
10
0
20
2.6399999999999042
30
0
10
0
20
2.8799999999999617
30
0
10
0
20
3
30
0
0
SPLINE
5
101
100
AcDbEntity
8
0
100
AcDbSpline
70
4
71
5
72
16
73
10
74
0
42
0.000000001
43
0.0000000001
44
0.0000000001
40
0
40
0
40
0
40
0
40
0
40
0
40
0.20000000000000001
40
0.40000000000000002
40
0.60000000000000009
40
0.80000000000000004
40
1
40
1
40
1
40
1
40
1
40
1
41
1
41
1
41
1
41
1
41
1
41
1
41
1
41
1
41
1
41
1
10
10
20
0
30
0
10
9.9999999999997495
20
0.12000000000003158
30
0
10
9.9999999999993197
20
0.36000000000007704
30
0
10
9.9999999999989129
20
0.72000000000009301
30
0
10
9.9999999999987672
20
1.2000000000000313
30
0
10
9.9999999999990248
20
1.7999999999999146
30
0
10
9.9999999999993889
20
2.2799999999998684
30
0
10
9.9999999999996998
20
2.6399999999999042
30
0
10
9.9999999999999005
20
2.8799999999999617
30
0
10
10
20
3
30
0
0
SPLINE
5
102
100
AcDbEntity
8
0
100
AcDbSpline
70
4
71
5
72
16
73
10
74
0
42
0.000000001
43
0.0000000001
44
0.0000000001
40
0
40
0
40
0
40
0
40
0
40
0
40
0.20000000000000001
40
0.40000000000000002
40
0.60000000000000009
40
0.80000000000000004
40
1
40
1
40
1
40
1
40
1
40
1
41
1
41
1
41
1
41
1
41
1
41
1
41
1
41
1
41
1
41
1
10
0
20
1.5
30
0
10
0.40000000000047375
20
1.499999999999694
30
0
10
1.2000000000012774
20
1.4999999999991638
30
0
10
2.4000000000020547
20
1.4999999999986278
30
0
10
4.0000000000023546
20
1.4999999999983737
30
0
10
6.0000000000019584
20
1.4999999999985913
30
0
10
7.6000000000012928
20
1.4999999999990359
30
0
10
8.800000000000697
20
1.4999999999994786
30
0
10
9.6000000000002395
20
1.4999999999998188
30
0
10
10
20
1.5
30
0
0
SPLINE
5
103
100
AcDbEntity
8
0
100
AcDbSpline
70
4
71
5
72
111
73
105
74
0
42
0.000000001
43
0.0000000001
44
0.0000000001
40
0
40
0
40
0
40
0
40
0
40
0
40
0.01
40
0.02
40
0.029999999999999999
40
0.040000000000000001
40
0.050000000000000003
40
0.060000000000000005
40
0.070000000000000007
40
0.080000000000000002
40
0.089999999999999997
40
0.099999999999999992
40
0.10999999999999999
40
0.11999999999999998
40
0.12999999999999998
40
0.13999999999999999
40
0.14999999999999999
40
0.16
40
0.17000000000000001
40
0.18000000000000002
40
0.19000000000000003
40
0.20000000000000004
40
0.21000000000000005
40
0.22000000000000006
40
0.23000000000000007
40
0.24000000000000007
40
0.25000000000000006
40
0.26000000000000006
40
0.27000000000000007
40
0.28000000000000008
40
0.29000000000000009
40
0.3000000000000001
40
0.31000000000000011
40
0.32000000000000012
40
0.33000000000000013
40
0.34000000000000014
40
0.35000000000000014
40
0.36000000000000015
40
0.37000000000000016
40
0.38000000000000017
40
0.39000000000000018
40
0.40000000000000019
40
0.4100000000000002
40
0.42000000000000021
40
0.43000000000000022
40
0.44000000000000022
40
0.45000000000000023
40
0.46000000000000024
40
0.47000000000000025
40
0.48000000000000026
40
0.49000000000000027
40
0.50000000000000022
40
0.51000000000000023
40
0.52000000000000024
40
0.53000000000000025
40
0.54000000000000026
40
0.55000000000000027
40
0.56000000000000028
40
0.57000000000000028
40
0.58000000000000029
40
0.5900000000000003
40
0.60000000000000031
40
0.61000000000000032
40
0.62000000000000033
40
0.63000000000000034
40
0.64000000000000035
40
0.65000000000000036
40
0.66000000000000036
40
0.67000000000000037
40
0.68000000000000038
40
0.69000000000000039
40
0.7000000000000004
40
0.71000000000000041
40
0.72000000000000042
40
0.73000000000000043
40
0.74000000000000044
40
0.75000000000000044
40
0.76000000000000045
40
0.77000000000000046
40
0.78000000000000047
40
0.79000000000000048
40
0.80000000000000049
40
0.8100000000000005
40
0.82000000000000051
40
0.83000000000000052
40
0.84000000000000052
40
0.85000000000000053
40
0.86000000000000054
40
0.87000000000000055
40
0.88000000000000056
40
0.89000000000000057
40
0.90000000000000058
40
0.91000000000000059
40
0.9200000000000006
40
0.9300000000000006
40
0.94000000000000061
40
0.95000000000000062
40
0.96000000000000063
40
0.97000000000000064
40
0.98000000000000065
40
0.99000000000000066
40
1
40
1
40
1
40
1
40
1
40
1
41
1
41
1
41
1
41
1
41
1
41
1
41
1
41
1
41
1
41
1
41
1
41
1
41
1
41
1
41
1
41
1
41
1
41
1
41
1
41
1
41
1
41
1
41
1
41
1
41
1
41
1
41
1
41
1
41
1
41
1
41
1
41
1
41
1
41
1
41
1
41
1
41
1
41
1
41
1
41
1
41
1
41
1
41
1
41
1
41
1
41
1
41
1
41
1
41
1
41
1
41
1
41
1
41
1
41
1
41
1
41
1
41
1
41
1
41
1
41
1
41
1
41
1
41
1
41
1
41
1
41
1
41
1
41
1
41
1
41
1
41
1
41
1
41
1
41
1
41
1
41
1
41
1
41
1
41
1
41
1
41
1
41
1
41
1
41
1
41
1
41
1
41
1
41
1
41
1
41
1
41
1
41
1
41
1
41
1
41
1
41
1
41
1
41
1
41
1
41
1
41
1
41
1
41
1
41
1
41
1
10
0
20
0
30
0
10
0.019373498884423152
20
0.028904218804234307
30
0
10
0.05809876280806478
20
0.08317583011664012
30
0
10
0.11612146114232377
20
0.15397285886354461
30
0
10
0.19335460801761167
20
0.22714387951088816
30
0
10
0.28969612361809827
20
0.28372015403910111
30
0
10
0.38588979937877022
20
0.30689170473941602
30
0
10
0.48204110772583464
20
0.29967653946540607
30
0
10
0.57832359992419757
20
0.26707406749517187
30
0
10
0.67500418168671161
20
0.21675274529571847
30
0
10
0.77239253617078563
20
0.15799795651287996
30
0
10
0.87077628154935527
20
0.10031816397917917
30
0
10
0.97035741307571954
20
0.052112884645823428
30
0
10
1.0711963298130558
20
0.019441061849116432
30
0
10
1.1731317206669054
20
0.0044219534470643067
30
0
10
1.2758301933712899
20
0.0056547757370161746
30
0
10
1.3788860003150809
20
0.019435992357983205
30
0
10
1.4819071156510333
20
0.040730440953170723
30
0
10
1.5846009830706325
20
0.064211114156641325
30
0
10
1.6868761402855934
20
0.085354849901759566
30
0
10
1.788801064194375
20
0.10076296593500061
30
0
10
1.8905340042878822
20
0.10830850568346333
30
0
10
1.9922621793876096
20
0.10735480765005231
30
0
10
2.0941388639219634
20
0.098922793257474731
30
0
10
2.1962165466551085
20
0.085941471811638775
30
0
10
2.2984719699729625
20
0.07233192309739786
30
0
10
2.4008385231798672
20
0.062001831358471995
30
0
10
2.5032357296002483
20
0.057881478381788427
30
0
10
2.6056003867179536
20
0.060920816401815417
30
0
10
2.7079157814731629
20
0.069159903626749272
30
0
10
2.8101944700737831
20
0.078974238243273029
30
0
10
2.9124618949249359
20
0.086283010392185777
30
0
10
3.0147404239857227
20
0.087726600812772101
30
0
10
3.1170315417504328
20
0.081959766427037742
30
0
10
3.2193036935800441
20
0.070596136372916687
30
0
10
3.3215150059709773
20
0.056942725404307545
30
0
10
3.4236332390781197
20
0.044949543481550794
30
0
10
3.5256545957213552
20
0.03813701457304685
30
0
10
3.6276282410547713
20
0.038391219512112225
30
0
10
3.7296622372137396
20
0.04525818891251554
30
0
10
3.8318734650443567
20
0.056849979109576412
30
0
10
3.9343442229846346
20
0.070484829836098079
30
0
10
4.0370823799904088
20
0.083403849587648099
30
0
10
4.1399651672882642
20
0.093521137636164264
30
0
10
4.242739904934747
20
0.099930170517641498
30
0
10
4.3451244642261209
20
0.10288314543308982
30
0
10
4.4468920080247205
20
0.10393460938093968
30
0
10
4.5479482567519982
20
0.10592376220525397
30
0
10
4.6484455320437954
20
0.11325973767826215
30
0
10
4.7487541938744489
20
0.13120050193650565
30
0
10
4.8492801135552845
20
0.16411505227847967
30
0
10
4.9503116664872566
20
0.21387972882184858
30
0
10
5.0518787173344704
20
0.27850520221484448
30
0
10
5.1535474138459945
20
0.34996085960681744
30
0
10
5.254476777241015
20
0.41513145156289655
30
0
10
5.3537200722977936
20
0.45967454980131112
30
0
10
5.4504723239270039
20
0.47124992486524742
30
0
10
5.5443101765521448
20
0.44263435024303255
30
0
10
5.6355077819662558
20
0.37579619410478388
30
0
10
5.7250444765166355
20
0.28210948107900213
30
0
10
5.8142519117720841
20
0.1780585078492985
30
0
10
5.9045564814458746
20
0.082133090564735153
30
0
10
5.9971817799236984
20
0.011228108498423848
30
0
10
6.0928710551425045
20
-0.0227153075289897
30
0
10
6.1915926387210956
20
-0.0162572456297818
30
0
10
6.2927516761412736
20
0.027120825443463462
30
0
10
6.3954102077844066
20
0.098679523231712529
30
0
10
6.4985044384886637
20
0.18605028457463199
30
0
10
6.6010620155578268
20
0.27487836478951611
30
0
10
6.7024221879313242
20
0.3504514303051775
30
0
10
6.8022103967379568
20
0.39969183542431092
30
0
10
6.900309161621526
20
0.41313834386169801
30
0
10
6.9968308372963008
20
0.38696421978642681
30
0
10
7.0920890177706566
20
0.32491393003985669
30
0
10
7.1865725975490715
20
0.24046635950545114
30
0
10
7.2808585812853588
20
0.15252794092170679
30
0
10
7.3755251932352683
20
0.081026285272881887
30
0
10
7.4710604435784624
20
0.042311336768758583
30
0
10
7.5677827025788975
20
0.045161199515349505
30
0
10
7.6657302298164218
20
0.085188080453186252
30
0
10
7.7647098032557693
20
0.14747885774888925
30
0
10
7.8644074205012267
20
0.21244135654670826
30
0
10
7.9644832016342573
20
0.26085355186023107
30
0
10
8.0646630987265429
20
0.27870112617561921
30
0
10
8.1648564529658376
20
0.26347197061175209
30
0
10
8.2651408614633262
20
0.22304574500362495
30
0
10
8.3656766860930443
20
0.17066322070918571
30
0
10
8.466640454962219
20
0.12094857584044945
30
0
10
8.5681573336259333
20
0.085880096953468849
30
0
10
8.6702166118077884
20
0.069814826438391125
30
0
10
8.7726860147954095
20
0.070021629998093832
30
0
10
8.8753731466571715
20
0.079849061778104774
30
0
10
8.9780734616793971
20
0.091126405303439906
30
0
10
9.0806202908458982
20
0.096714780789210586
30
0
10
9.1829431271948856
20
0.093426622130111964
30
0
10
9.2850549728454155
20
0.081590763954537612
30
0
10
9.3870208978197951
20
0.063720814195744699
30
0
10
9.4889326726524086
20
0.043476086439303924
30
0
10
9.5908817558281001
20
0.024537019526544086
30
0
10
9.6929306532617847
20
0.0094211387044411034
30
0
10
9.7951162942678067
20
-0.00038477243256778549
30
0
10
9.8769890746936788
20
-0.0033824747311501768
30
0
10
9.9384662926499558
20
-0.0027942700892886561
30
0
10
9.9794833844018029
20
-0.0011415195263018072
30
0
10
10
20
0
30
0
0
SPLINE
5
104
100
AcDbEntity
8
0
100
AcDbSpline
70
4
71
5
72
111
73
105
74
0
42
0.000000001
43
0.0000000001
44
0.0000000001
40
0
40
0
40
0
40
0
40
0
40
0
40
0.01
40
0.02
40
0.029999999999999999
40
0.040000000000000001
40
0.050000000000000003
40
0.060000000000000005
40
0.070000000000000007
40
0.080000000000000002
40
0.089999999999999997
40
0.099999999999999992
40
0.10999999999999999
40
0.11999999999999998
40
0.12999999999999998
40
0.13999999999999999
40
0.14999999999999999
40
0.16
40
0.17000000000000001
40
0.18000000000000002
40
0.19000000000000003
40
0.20000000000000004
40
0.21000000000000005
40
0.22000000000000006
40
0.23000000000000007
40
0.24000000000000007
40
0.25000000000000006
40
0.26000000000000006
40
0.27000000000000007
40
0.28000000000000008
40
0.29000000000000009
40
0.3000000000000001
40
0.31000000000000011
40
0.32000000000000012
40
0.33000000000000013
40
0.34000000000000014
40
0.35000000000000014
40
0.36000000000000015
40
0.37000000000000016
40
0.38000000000000017
40
0.39000000000000018
40
0.40000000000000019
40
0.4100000000000002
40
0.42000000000000021
40
0.43000000000000022
40
0.44000000000000022
40
0.45000000000000023
40
0.46000000000000024
40
0.47000000000000025
40
0.48000000000000026
40
0.49000000000000027
40
0.50000000000000022
40
0.51000000000000023
40
0.52000000000000024
40
0.53000000000000025
40
0.54000000000000026
40
0.55000000000000027
40
0.56000000000000028
40
0.57000000000000028
40
0.58000000000000029
40
0.5900000000000003
40
0.60000000000000031
40
0.61000000000000032
40
0.62000000000000033
40
0.63000000000000034
40
0.64000000000000035
40
0.65000000000000036
40
0.66000000000000036
40
0.67000000000000037
40
0.68000000000000038
40
0.69000000000000039
40
0.7000000000000004
40
0.71000000000000041
40
0.72000000000000042
40
0.73000000000000043
40
0.74000000000000044
40
0.75000000000000044
40
0.76000000000000045
40
0.77000000000000046
40
0.78000000000000047
40
0.79000000000000048
40
0.80000000000000049
40
0.8100000000000005
40
0.82000000000000051
40
0.83000000000000052
40
0.84000000000000052
40
0.85000000000000053
40
0.86000000000000054
40
0.87000000000000055
40
0.88000000000000056
40
0.89000000000000057
40
0.90000000000000058
40
0.91000000000000059
40
0.9200000000000006
40
0.9300000000000006
40
0.94000000000000061
40
0.95000000000000062
40
0.96000000000000063
40
0.97000000000000064
40
0.98000000000000065
40
0.99000000000000066
40
1
40
1
40
1
40
1
40
1
40
1
41
1
41
1
41
1
41
1
41
1
41
1
41
1
41
1
41
1
41
1
41
1
41
1
41
1
41
1
41
1
41
1
41
1
41
1
41
1
41
1
41
1
41
1
41
1
41
1
41
1
41
1
41
1
41
1
41
1
41
1
41
1
41
1
41
1
41
1
41
1
41
1
41
1
41
1
41
1
41
1
41
1
41
1
41
1
41
1
41
1
41
1
41
1
41
1
41
1
41
1
41
1
41
1
41
1
41
1
41
1
41
1
41
1
41
1
41
1
41
1
41
1
41
1
41
1
41
1
41
1
41
1
41
1
41
1
41
1
41
1
41
1
41
1
41
1
41
1
41
1
41
1
41
1
41
1
41
1
41
1
41
1
41
1
41
1
41
1
41
1
41
1
41
1
41
1
41
1
41
1
41
1
41
1
41
1
41
1
41
1
41
1
41
1
41
1
41
1
41
1
41
1
41
1
41
1
41
1
41
1
10
0
20
3
30
0
10
0.02072131457665596
20
3.0138856092753947
30
0
10
0.062064433509289134
20
3.0375012372475392
30
0
10
0.12378058263251197
20
3.060457824021829
30
0
10
0.20547161372650866
20
3.0661295589249833
30
0
10
0.30657539183675986
20
3.0328653328752249
30
0
10
0.40662570794194558
20
2.9629254854743041
30
0
10
0.50553676373123291
20
2.8636751812341634
30
0
10
0.60316530505589738
20
2.7474728499612402
30
0
10
0.69929955042504299
20
2.632735586772557
30
0
10
0.79373765621776571
20
2.539790348281159
30
0
10
0.88635973269293411
20
2.4870703330471291
30
0
10
0.97720717795756584
20
2.4869617220879752
30
0
10
1.0665479081054887
20
2.5422971526396139
30
0
10
1.1549763055469966
20
2.6412761779355005
30
0
10
1.2433174929471413
20
2.7612346536644417
30
0
10
1.3324688816732597
20
2.8752490727836424
30
0
10
1.4232595253677927
20
2.9579361883181448
30
0
10
1.5163087869046288
20
2.9912814971489925
30
0
10
1.6118690733453929
20
2.9711899733123119
30
0
10
1.7097235863467537
20
2.9115412377737107
30
0
10
1.8093592102505758
20
2.8358223851195947
30
0
10
1.9101040118336439
20
2.7703195652929997
30
0
10
2.0112755887297875
20
2.7369077709965262
30
0
10
2.1123312305604589
20
2.7455409541888462
30
0
10
2.2129985957489753
20
2.7882202161900178
30
0
10
2.3132134272305724
20
2.8466417758212552
30
0
10
2.4130748261652437
20
2.8987246336875936
30
0
10
2.5127937574375157
20
2.925347402514535
30
0
10
2.6126448722285485
20
2.9175012280187063
30
0
10
2.7129160242691244
20
2.8818013108882008
30
0
10
2.8138540221337798
20
2.833548934854714
30
0
10
2.9156084803553535
20
2.790912472649743
30
0
10
3.0181805861182069
20
2.7689653189195793
30
0
10
3.1213597816256606
20
2.7731187807787938
30
0
10
3.2246950026893173
20
2.7947941354777668
30
0
10
3.3276305670323802
20
2.8182950739211909
30
0
10
3.4296245724521972
20
2.8264149833759991
30
0
10
3.5302654941201164
20
2.806082703970854
30
0
10
3.6294099386041618
20
2.7550625260172614
30
0
10
3.7272456525179001
20
2.6847494368644171
30
0
10
3.824168231902179
20
2.6132192452245673
30
0
10
3.9206930919336367
20
2.5600634897854779
30
0
10
4.0173561390439971
20
2.5407795725069575
30
0
10
4.1146131334964204
20
2.560730049255302
30
0
10
4.2127581291655307
20
2.6111376746124093
30
0
10
4.3119487010681645
20
2.6755711807894764
30
0
10
4.4122164870683473
20
2.7351109480370219
30
0
10
4.5134836147171642
20
2.7738364821796537
30
0
10
4.6155759565545242
20
2.7846204273350788
30
0
10
4.7182393893797716
20
2.7735044819217611
30
0
10
4.821169693017584
20
2.7537812834666826
30
0
10
4.9240410603677525
20
2.7410015488475246
30
0
10
5.0265352924335192
20
2.7479570023812694
30
0
10
5.1283702838879712
20
2.7788956123504063
30
0
10
5.229329976139427
20
2.826502353576239
30
0
10
5.3292952689351702
20
2.8773706924866915
30
0
10
5.4282777708667629
20
2.916106076224207
30
0
10
5.5264463562191288
20
2.9296987076974546
30
0
10
5.6241714736436581
20
2.912418551927471
30
0
10
5.7220159795470993
20
2.8684733125792858
30
0
10
5.8205782613811632
20
2.8079815644246882
30
0
10
5.92035702322947
20
2.7441054927366433
30
0
10
6.0216178891296748
20
2.6898523268287615
30
0
10
6.1242345212507665
20
2.6547227892822396
30
0
10
6.2276153514526644
20
2.6423273757170933
30
0
10
6.3309577612023347
20
2.6520919649641339
30
0
10
6.4334611855618418
20
2.6803456808905359
30
0
10
6.5345370650026835
20
2.7216089176422749
30
0
10
6.6340659520206362
20
2.7698893801373052
30
0
10
6.7324820453282381
20
2.8196548972332218
30
0
10
6.8305079250165353
20
2.8660313348190023
30
0
10
6.9289575299517967
20
2.9051867236276303
30
0
10
7.0285260538514667
20
2.9346055065439867
30
0
10
7.129551789007186
20
2.9534957328434031
30
0
10
7.2318976861240998
20
2.9628674705394253
30
0
10
7.3351521696574329
20
2.9648224318137641
30
0
10
7.438774434889444
20
2.961970860557904
30
0
10
7.5422494757304923
20
2.9568444065798327
30
0
10
7.6452682827910214
20
2.9512004109058183
30
0
10
7.7477930714888013
20
2.9457647955609816
30
0
10
7.8499462110445322
20
2.9406367629664061
30
0
10
7.9519389153348738
20
2.9355434460089134
30
0
10
8.0539903286363863
20
2.9301336059237748
30
0
10
8.1562350504132848
20
2.9243067629049584
30
0
10
8.2586999415502689
20
2.9183124059143872
30
0
10
8.361345857913161
20
2.912629289963359
30
0
10
8.4640917666786848
20
2.9079085113968746
30
0
10
8.5668443007531341
20
2.9048876395225518
30
0
10
8.6695293897951018
20
2.90432449878121
30
0
10
8.7721006491820219
20
2.906887773412985
30
0
10
8.8745342734460611
20
2.9130339259650455
30
0
10
8.976828316902461
20
2.9228808059621443
30
0
10
9.0789999538113815
20
2.9360985056996531
30
0
10
9.1810841641690111
20
2.9517511318677423
30
0
10
9.2831280188403404
20
2.9684500205787367
30
0
10
9.3851840481640778
20
2.9845912666386596
30
0
10
9.4873037865538627
20
2.9985687575812165
30
0
10
9.5895315260430198
20
3.0089881105378584
30
0
10
9.6918972307474895
20
3.0149050032632467
30
0
10
9.7944186525584698
20
3.0157603837268736
30
0
10
9.8765674605906568
20
3.0121719197503993
30
0
10
9.938254427170941
20
3.0070363643859515
30
0
10
9.979412560882249
20
3.0025264828953957
30
0
10
10
20
3
30
0
0
ENDSEC
0
SECTION
2
OBJECTS
0
DICTIONARY
5
C
100
AcDbDictionary
3
ACAD_GROUP
350
D
3
ACAD_MLINESTYLE
350
17
0
DICTIONARY
5
D
100
AcDbDictionary
0
DICTIONARY
5
1A
330
C
100
AcDbDictionary
0
DICTIONARY
5
17
100
AcDbDictionary
0
ENDSEC
0
EOF
