0
SECTION
2
HEADER
9
$INSUNITS
70
4
9
$ACADVER
1
AC1014
9
$HANDSEED
5
FFFF
0
ENDSEC
0
SECTION
2
TABLES
0
TABLE
2
VPORT
5
8
100
AcDbSymbolTable
0
ENDTAB
0
TABLE
2
LTYPE
5
5
100
AcDbSymbolTable
0
LTYPE
5
14
100
AcDbSymbolTableRecord
100
AcDbLinetypeTableRecord
2
BYBLOCK
70
0
0
LTYPE
5
15
100
AcDbSymbolTableRecord
100
AcDbLinetypeTableRecord
2
BYLAYER
70
0
0
ENDTAB
0
TABLE
2
LAYER
5
2
100
AcDbSymbolTable
70
2
0
LAYER
5
50
100
AcDbSymbolTableRecord
100
AcDbLayerTableRecord
2
0
70
0
6
CONTINUOUS
0
ENDTAB
0
TABLE
2
STYLE
5
3
100
AcDbSymbolTable
70
1
0
STYLE
5
11
100
AcDbSymbolTableRecord
100
AcDbTextStyleTableRecord
2
STANDARD
70
0
0
ENDTAB
0
TABLE
2
VIEW
5
6
100
AcDbSymbolTable
70
0
0
ENDTAB
0
TABLE
2
UCS
5
7
100
AcDbSymbolTable
70
0
0
ENDTAB
0
TABLE
2
APPID
5
9
100
AcDbSymbolTable
70
2
0
APPID
5
12
100
AcDbSymbolTableRecord
100
AcDbRegAppTableRecord
2
ACAD
70
0
0
ENDTAB
0
TABLE
2
DIMSTYLE
5
A
100
AcDbSymbolTable
70
1
0
ENDTAB
0
TABLE
2
BLOCK_RECORD
5
1
100
AcDbSymbolTable
70
1
0
BLOCK_RECORD
5
1F
100
AcDbSymbolTableRecord
100
AcDbBlockTableRecord
2
*MODEL_SPACE
0
BLOCK_RECORD
5
1B
100
AcDbSymbolTableRecord
100
AcDbBlockTableRecord
2
*PAPER_SPACE
0
ENDTAB
0
ENDSEC
0
SECTION
2
BLOCKS
0
BLOCK
5
20
100
AcDbEntity
100
AcDbBlockBegin
2
*MODEL_SPACE
0
ENDBLK
5
21
100
AcDbEntity
100
AcDbBlockEnd
0
BLOCK
5
1C
100
AcDbEntity
100
AcDbBlockBegin
2
*PAPER_SPACE
0
ENDBLK
5
1D
100
AcDbEntity
100
AcDbBlockEnd
0
ENDSEC
0
SECTION
2
ENTITIES
0
SPLINE
5
100
100
AcDbEntity
8
0
100
AcDbSpline
70
4
71
5
72
16
73
10
74
0
42
0.000000001
43
0.0000000001
44
0.0000000001
40
0
40
0
40
0
40
0
40
0
40
0
40
0.20000000000000001
40
0.40000000000000002
40
0.60000000000000009
40
0.80000000000000004
40
1
40
1
40
1
40
1
40
1
40
1
41
1
41
1
41
1
41
1
41
1
41
1
41
1
41
1
41
1
41
1
10
0
20
0
30
0
10
0
20
0.12000000000003158
30
0
10
0
20
0.36000000000007704
30
0
10
0
20
0.72000000000009301
30
0
10
0
20
1.2000000000000313
30
0
10
0
20
1.7999999999999146
30
0
10
0
20
2.2799999999998684
30
0
10
0
20
2.6399999999999042
30
0
10
0
20
2.8799999999999617
30
0
10
0
20
3
30
0
0
SPLINE
5
101
100
AcDbEntity
8
0
100
AcDbSpline
70
4
71
5
72
16
73
10
74
0
42
0.000000001
43
0.0000000001
44
0.0000000001
40
0
40
0
40
0
40
0
40
0
40
0
40
0.20000000000000001
40
0.40000000000000002
40
0.60000000000000009
40
0.80000000000000004
40
1
40
1
40
1
40
1
40
1
40
1
41
1
41
1
41
1
41
1
41
1
41
1
41
1
41
1
41
1
41
1
10
10
20
0
30
0
10
9.9999999999997495
20
0.12000000000003158
30
0
10
9.9999999999993197
20
0.36000000000007704
30
0
10
9.9999999999989129
20
0.72000000000009301
30
0
10
9.9999999999987672
20
1.2000000000000313
30
0
10
9.9999999999990248
20
1.7999999999999146
30
0
10
9.9999999999993889
20
2.2799999999998684
30
0
10
9.9999999999996998
20
2.6399999999999042
30
0
10
9.9999999999999005
20
2.8799999999999617
30
0
10
10
20
3
30
0
0
SPLINE
5
102
100
AcDbEntity
8
0
100
AcDbSpline
70
4
71
5
72
16
73
10
74
0
42
0.000000001
43
0.0000000001
44
0.0000000001
40
0
40
0
40
0
40
0
40
0
40
0
40
0.20000000000000001
40
0.40000000000000002
40
0.60000000000000009
40
0.80000000000000004
40
1
40
1
40
1
40
1
40
1
40
1
41
1
41
1
41
1
41
1
41
1
41
1
41
1
41
1
41
1
41
1
10
0
20
1.5
30
0
10
0.40000000000047375
20
1.499999999999694
30
0
10
1.2000000000012774
20
1.4999999999991638
30
0
10
2.4000000000020547
20
1.4999999999986278
30
0
10
4.0000000000023546
20
1.4999999999983737
30
0
10
6.0000000000019584
20
1.4999999999985913
30
0
10
7.6000000000012928
20
1.4999999999990359
30
0
10
8.800000000000697
20
1.4999999999994786
30
0
10
9.6000000000002395
20
1.4999999999998188
30
0
10
10
20
1.5
30
0
0
SPLINE
5
103
100
AcDbEntity
8
0
100
AcDbSpline
70
4
71
5
72
111
73
105
74
0
42
0.000000001
43
0.0000000001
44
0.0000000001
40
0
40
0
40
0
40
0
40
0
40
0
40
0.01
40
0.02
40
0.029999999999999999
40
0.040000000000000001
40
0.050000000000000003
40
0.060000000000000005
40
0.070000000000000007
40
0.080000000000000002
40
0.089999999999999997
40
0.099999999999999992
40
0.10999999999999999
40
0.11999999999999998
40
0.12999999999999998
40
0.13999999999999999
40
0.14999999999999999
40
0.16
40
0.17000000000000001
40
0.18000000000000002
40
0.19000000000000003
40
0.20000000000000004
40
0.21000000000000005
40
0.22000000000000006
40
0.23000000000000007
40
0.24000000000000007
40
0.25000000000000006
40
0.26000000000000006
40
0.27000000000000007
40
0.28000000000000008
40
0.29000000000000009
40
0.3000000000000001
40
0.31000000000000011
40
0.32000000000000012
40
0.33000000000000013
40
0.34000000000000014
40
0.35000000000000014
40
0.36000000000000015
40
0.37000000000000016
40
0.38000000000000017
40
0.39000000000000018
40
0.40000000000000019
40
0.4100000000000002
40
0.42000000000000021
40
0.43000000000000022
40
0.44000000000000022
40
0.45000000000000023
40
0.46000000000000024
40
0.47000000000000025
40
0.48000000000000026
40
0.49000000000000027
40
0.50000000000000022
40
0.51000000000000023
40
0.52000000000000024
40
0.53000000000000025
40
0.54000000000000026
40
0.55000000000000027
40
0.56000000000000028
40
0.57000000000000028
40
0.58000000000000029
40
0.5900000000000003
40
0.60000000000000031
40
0.61000000000000032
40
0.62000000000000033
40
0.63000000000000034
40
0.64000000000000035
40
0.65000000000000036
40
0.66000000000000036
40
0.67000000000000037
40
0.68000000000000038
40
0.69000000000000039
40
0.7000000000000004
40
0.71000000000000041
40
0.72000000000000042
40
0.73000000000000043
40
0.74000000000000044
40
0.75000000000000044
40
0.76000000000000045
40
0.77000000000000046
40
0.78000000000000047
40
0.79000000000000048
40
0.80000000000000049
40
0.8100000000000005
40
0.82000000000000051
40
0.83000000000000052
40
0.84000000000000052
40
0.85000000000000053
40
0.86000000000000054
40
0.87000000000000055
40
0.88000000000000056
40
0.89000000000000057
40
0.90000000000000058
40
0.91000000000000059
40
0.9200000000000006
40
0.9300000000000006
40
0.94000000000000061
40
0.95000000000000062
40
0.96000000000000063
40
0.97000000000000064
40
0.98000000000000065
40
0.99000000000000066
40
1
40
1
40
1
40
1
40
1
40
1
41
1
41
1
41
1
41
1
41
1
41
1
41
1
41
1
41
1
41
1
41
1
41
1
41
1
41
1
41
1
41
1
41
1
41
1
41
1
41
1
41
1
41
1
41
1
41
1
41
1
41
1
41
1
41
1
41
1
41
1
41
1
41
1
41
1
41
1
41
1
41
1
41
1
41
1
41
1
41
1
41
1
41
1
41
1
41
1
41
1
41
1
41
1
41
1
41
1
41
1
41
1
41
1
41
1
41
1
41
1
41
1
41
1
41
1
41
1
41
1
41
1
41
1
41
1
41
1
41
1
41
1
41
1
41
1
41
1
41
1
41
1
41
1
41
1
41
1
41
1
41
1
41
1
41
1
41
1
41
1
41
1
41
1
41
1
41
1
41
1
41
1
41
1
41
1
41
1
41
1
41
1
41
1
41
1
41
1
41
1
41
1
41
1
41
1
41
1
41
1
41
1
41
1
41
1
41
1
41
1
10
0
20
0
30
0
10
0.020707702315207278
20
0.0036757644055321771
30
0
10
0.062030173228615537
20
0.011057633299209113
30
0
10
0.12373507588560621
20
0.022221436004491071
30
0
10
0.20545060341280511
20
0.037288715514892823
30
0
10
0.30668878565301
20
0.056544289603956195
30
0
10
0.40709177358780191
20
0.076577850107562531
30
0
10
0.50680162253939387
20
0.098096437165249878
30
0
10
0.60605736673787158
20
0.12229157919014005
30
0
10
0.70521367315171546
20
0.15091373773269035
30
0
10
0.80465088215488034
20
0.18547583337921211
30
0
10
0.90469030215093316
20
0.22649493447265304
30
0
10
1.0055091519820059
20
0.2727397288188621
30
0
10
1.1070517292219015
20
0.32042643545068994
30
0
10
1.2089528431343828
20
0.36256976295306464
30
0
10
1.3106890351075386
20
0.39112556888045963
30
0
10
1.411720863934804
20
0.39903780985299225
30
0
10
1.5116345285377828
20
0.38224693226307205
30
0
10
1.6102931212370821
20
0.34189057103130804
30
0
10
1.7079569597749318
20
0.28591958071220425
30
0
10
1.8051360897173137
20
0.2257010710496411
30
0
10
1.9024670504074892
20
0.1730707632298101
30
0
10
2.0005805792774427
20
0.1372234592898221
30
0
10
2.0999729173751467
20
0.12164987704961855
30
0
10
2.2008763003724985
20
0.12110741580824946
30
0
10
2.3032733148441107
20
0.12549569619782838
30
0
10
2.4069083953415222
20
0.12372782462191986
30
0
10
2.5113027115715312
20
0.107484730088808
30
0
10
2.6157617336723433
20
0.075292375872129988
30
0
10
2.7194021408956726
20
0.035680756304661138
30
0
10
2.8213398211655876
20
0.0023017841173645797
30
0
10
2.9208692114408201
20
-0.010354078525604654
30
0
10
3.0176355363438132
20
0.0087269091297094148
30
0
10
3.1118348481741407
20
0.062320965444949597
30
0
10
3.2043285889579676
20
0.14176709268245188
30
0
10
3.2963223969502522
20
0.23185061418336544
30
0
10
3.3891066900986289
20
0.31456352526753323
30
0
10
3.4837641302850901
20
0.37341513842421892
30
0
10
3.5809124320311758
20
0.3972395163640407
30
0
10
3.6803756700196137
20
0.38492938282848271
30
0
10
3.7814053597355417
20
0.34320412706148873
30
0
10
3.882995113989435
20
0.28318144270742762
30
0
10
3.9841711492643572
20
0.21729084552514891
30
0
10
4.0842734074721037
20
0.15621987421725861
30
0
10
4.1832919905124157
20
0.10538725969151572
30
0
10
4.2817001631301084
20
0.065929160063914277
30
0
10
4.380200842707894
20
0.036474674659762098
30
0
10
4.4794954796022415
20
0.014700836449207902
30
0
10
4.5800618176873353
20
-0.0011514773890009299
30
0
10
4.6818803203863588
20
-0.010405015086248861
30
0
10
4.7845498177200101
20
-0.010852845410118526
30
0
10
4.8874951962161051
20
-0.00031760410630677814
30
0
10
4.9901470789606641
20
0.021972071896652522
30
0
10
5.0921248992960333
20
0.054020958175820519
30
0
10
5.1934408345034662
20
0.089449288787998779
30
0
10
5.2943697535205878
20
0.11961825069911014
30
0
10
5.3952852400896409
20
0.13612673055323149
30
0
10
5.4965066817672659
20
0.13319584766612919
30
0
10
5.5981445468044013
20
0.1100529299276703
30
0
10
5.6999384973713196
20
0.073453344978607407
30
0
10
5.8014181417693749
20
0.034650522525018018
30
0
10
5.9020745089508981
20
0.0061847687071681506
30
0
10
6.0015270408296892
20
-0.0012518463411120547
30
0
10
6.0996936181176498
20
0.017998348011457214
30
0
10
6.1969564042735037
20
0.061442541407848016
30
0
10
6.2939738869725437
20
0.12099940165509222
30
0
10
6.3914985735555394
20
0.18548279442818114
30
0
10
6.4901891545740478
20
0.24314316359205718
30
0
10
6.590433099427492
20
0.28411178677297766
30
0
10
6.692142869195802
20
0.30307981672951495
30
0
10
6.7948930464233195
20
0.29896821805803281
30
0
10
6.8980902143753138
20
0.27431250324101975
30
0
10
7.0011306459449436
20
0.2347495513957949
30
0
10
7.1035638068777143
20
0.18846967719313595
30
0
10
7.2052514791861322
20
0.14566974284118533
30
0
10
7.3062744540923461
20
0.11645351557136287
30
0
10
7.40684045757778
20
0.10871951109731477
30
0
10
7.5071929969107245
20
0.12610926847237214
30
0
10
7.6075169620378666
20
0.16579544691881493
30
0
10
7.7078538299480339
20
0.21670847277598632
30
0
10
7.8081536762042392
20
0.26388922163630524
30
0
10
7.9083194370946135
20
0.29252387124019924
30
0
10
8.0082532224724918
20
0.29200362528743978
30
0
10
8.1079037051087983
20
0.26019596179697924
30
0
10
8.2073074837745601
20
0.20700230110222595
30
0
10
8.3065501563433202
20
0.14892053078479778
30
0
10
8.4057326574881923
20
0.10418857311778534
30
0
10
8.5049360766779341
20
0.087768494903439798
30
0
10
8.6041860337214082
20
0.10625986137998061
30
0
10
8.703420264114806
20
0.15322571302345056
30
0
10
8.802532093330468
20
0.21414041844949658
30
0
10
8.9014106053581248
20
0.27091848017149339
30
0
10
8.9999820644584716
20
0.30659947847261981
30
0
10
9.0982507862662452
20
0.30996350884300006
30
0
10
9.1963403853047403
20
0.28018747893260315
30
0
10
9.2944557035767712
20
0.22398672144680801
30
0
10
9.3928449955388711
20
0.15277603998171729
30
0
10
9.4917615796668535
20
0.07979421986131234
30
0
10
9.5914268107770226
20
0.017321075126261125
30
0
10
9.6919895543038201
20
-0.026347516938331171
30
0
10
9.7935381430453425
20
-0.046284199937367376
30
0
10
9.875600874638085
20
-0.04127392666193775
30
0
10
9.9376177522356279
20
-0.025362780727965478
30
0
10
9.9791711203928344
20
-0.0093544062450917551
30
0
10
10
20
0
30
0
0
SPLINE
5
104
100
AcDbEntity
8
0
100
AcDbSpline
70
4
71
5
72
111
73
105
74
0
42
0.000000001
43
0.0000000001
44
0.0000000001
40
0
40
0
40
0
40
0
40
0
40
0
40
0.01
40
0.02
40
0.029999999999999999
40
0.040000000000000001
40
0.050000000000000003
40
0.060000000000000005
40
0.070000000000000007
40
0.080000000000000002
40
0.089999999999999997
40
0.099999999999999992
40
0.10999999999999999
40
0.11999999999999998
40
0.12999999999999998
40
0.13999999999999999
40
0.14999999999999999
40
0.16
40
0.17000000000000001
40
0.18000000000000002
40
0.19000000000000003
40
0.20000000000000004
40
0.21000000000000005
40
0.22000000000000006
40
0.23000000000000007
40
0.24000000000000007
40
0.25000000000000006
40
0.26000000000000006
40
0.27000000000000007
40
0.28000000000000008
40
0.29000000000000009
40
0.3000000000000001
40
0.31000000000000011
40
0.32000000000000012
40
0.33000000000000013
40
0.34000000000000014
40
0.35000000000000014
40
0.36000000000000015
40
0.37000000000000016
40
0.38000000000000017
40
0.39000000000000018
40
0.40000000000000019
40
0.4100000000000002
40
0.42000000000000021
40
0.43000000000000022
40
0.44000000000000022
40
0.45000000000000023
40
0.46000000000000024
40
0.47000000000000025
40
0.48000000000000026
40
0.49000000000000027
40
0.50000000000000022
40
0.51000000000000023
40
0.52000000000000024
40
0.53000000000000025
40
0.54000000000000026
40
0.55000000000000027
40
0.56000000000000028
40
0.57000000000000028
40
0.58000000000000029
40
0.5900000000000003
40
0.60000000000000031
40
0.61000000000000032
40
0.62000000000000033
40
0.63000000000000034
40
0.64000000000000035
40
0.65000000000000036
40
0.66000000000000036
40
0.67000000000000037
40
0.68000000000000038
40
0.69000000000000039
40
0.7000000000000004
40
0.71000000000000041
40
0.72000000000000042
40
0.73000000000000043
40
0.74000000000000044
40
0.75000000000000044
40
0.76000000000000045
40
0.77000000000000046
40
0.78000000000000047
40
0.79000000000000048
40
0.80000000000000049
40
0.8100000000000005
40
0.82000000000000051
40
0.83000000000000052
40
0.84000000000000052
40
0.85000000000000053
40
0.86000000000000054
40
0.87000000000000055
40
0.88000000000000056
40
0.89000000000000057
40
0.90000000000000058
40
0.91000000000000059
40
0.9200000000000006
40
0.9300000000000006
40
0.94000000000000061
40
0.95000000000000062
40
0.96000000000000063
40
0.97000000000000064
40
0.98000000000000065
40
0.99000000000000066
40
1
40
1
40
1
40
1
40
1
40
1
41
1
41
1
41
1
41
1
41
1
41
1
41
1
41
1
41
1
41
1
41
1
41
1
41
1
41
1
41
1
41
1
41
1
41
1
41
1
41
1
41
1
41
1
41
1
41
1
41
1
41
1
41
1
41
1
41
1
41
1
41
1
41
1
41
1
41
1
41
1
41
1
41
1
41
1
41
1
41
1
41
1
41
1
41
1
41
1
41
1
41
1
41
1
41
1
41
1
41
1
41
1
41
1
41
1
41
1
41
1
41
1
41
1
41
1
41
1
41
1
41
1
41
1
41
1
41
1
41
1
41
1
41
1
41
1
41
1
41
1
41
1
41
1
41
1
41
1
41
1
41
1
41
1
41
1
41
1
41
1
41
1
41
1
41
1
41
1
41
1
41
1
41
1
41
1
41
1
41
1
41
1
41
1
41
1
41
1
41
1
41
1
41
1
41
1
41
1
41
1
41
1
41
1
41
1
41
1
41
1
10
0
20
3
30
0
10
0.020088297016263877
20
2.9935131390195662
30
0
10
0.060312978226255622
20
2.9818355112450448
30
0
10
0.12079426335083668
20
2.9682074204909719
30
0
10
0.20172453505531121
20
2.9578140087011229
30
0
10
0.30335034032583552
20
2.9572823561459289
30
0
10
0.40538445089397435
20
2.967680309007851
30
0
10
0.50771767102403675
20
2.9859560034331452
30
0
10
0.61016653062063875
20
3.0069704817498231
30
0
10
0.71245862229859491
20
3.0231264651474254
30
0
10
0.81428401759423497
20
3.0264468267581379
30
0
10
0.91534320624451149
20
3.0105516011059485
30
0
10
1.0153950295632899
20
2.9725712498671655
30
0
10
1.1143077307393316
20
2.9153290476761202
30
0
10
1.2120996198832281
20
2.8487020497665809
30
0
10
1.3089152885159923
20
2.7859728095221046
30
0
10
1.4050093409473314
20
2.7407573588714502
30
0
10
1.5007272890016936
20
2.7237164598227173
30
0
10
1.5964877529841108
20
2.739346089109012
30
0
10
1.6927640253023455
20
2.7827633977417028
30
0
10
1.7900021629198375
20
2.8430238033881339
30
0
10
1.888540991403068
20
2.9063491712713474
30
0
10
1.9885282408010148
20
2.959452568853723
30
0
10
2.0898453283156964
20
2.9926711412004976
30
0
10
2.192009271194824
20
3.0035846678624711
30
0
10
2.2943323145296164
20
2.9951671369878605
30
0
10
2.3961101308502504
20
2.9733229738297302
30
0
10
2.4968015399587635
20
2.9446276395674067
30
0
10
2.5962079035110852
20
2.9140222213817726
30
0
10
2.6946636453611887
20
2.8824208307673347
30
0
10
2.7928173577534325
20
2.8483582630472837
30
0
10
2.8914015450456216
20
2.8097567077200782
30
0
10
2.9910020102102601
20
2.7656890614383305
30
0
10
3.0918379720029772
20
2.7180492213434606
30
0
10
3.1935088450551135
20
2.6735183723310145
30
0
10
3.2952203020049664
20
2.6412648672438754
30
0
10
3.396050536541837
20
2.6302900941510603
30
0
10
3.4952049762839676
20
2.646866249666358
30
0
10
3.5922689359372333
20
2.6920158820383167
30
0
10
3.6874801592561974
20
2.7587496668078062
30
0
10
3.7815279558431829
20
2.8348328314462017
30
0
10
3.8753316812724101
20
2.9057811718110713
30
0
10
3.9698184926570153
20
2.9578894365164854
30
0
10
4.0657207334558709
20
2.9809768671954422
30
0
10
4.163315856808449
20
2.9719394705717534
30
0
10
4.2624586712218022
20
2.9342173030480212
30
0
10
4.3627398901904222
20
2.8754940698066105
30
0
10
4.4636076836705643
20
2.8059222096684926
30
0
10
4.5644963861450911
20
2.7362285193555662
30
0
10
4.664972475220476
20
2.6756278234483091
30
0
10
4.764772318858598
20
2.6310309288572937
30
0
10
4.8637766591798339
20
2.6070293219855034
30
0
10
4.9620062075877227
20
2.6055974270019759
30
0
10
5.0596056818319415
20
2.6259960984362869
30
0
10
5.1568401035825326
20
2.6643740761998158
30
0
10
5.2540527699496238
20
2.7144860510759616
30
0
10
5.3516027756046105
20
2.7690549120428365
30
0
10
5.4498055555129534
20
2.8209951050410402
30
0
10
5.548878981049354
20
2.8645709423880108
30
0
10
5.6488703257740402
20
2.8968830157242449
30
0
10
5.7496565842532448
20
2.9180430283110814
30
0
10
5.8510188540205661
20
2.9300053805522888
30
0
10
5.9526991466949921
20
2.9357323125614516
30
0
10
6.0544589398147766
20
2.9382901275315172
30
0
10
6.1561502500252496
20
2.9398116884166647
30
0
10
6.2577265919933804
20
2.9411939520634336
30
0
10
6.3592010415589604
20
2.9424675210768325
30
0
10
6.460617972858465
20
2.9429707608525697
30
0
10
6.5620221893962096
20
2.9416121773776553
30
0
10
6.6634217565062457
20
2.9370736968506872
30
0
10
6.7647881006196089
20
2.928130851133051
30
0
10
6.866079803027846
20
2.9140080772745298
30
0
10
6.9672601916261385
20
2.8947601957894471
30
0
10
7.0683152114604084
20
2.8715643308379852
30
0
10
7.1692769568082735
20
2.8472503765238577
30
0
10
7.2702142010777182
20
2.8256788966617998
30
0
10
7.3712077285830517
20
2.8106216233040509
30
0
10
7.4723295678081865
20
2.8047380807621787
30
0
10
7.5736227436710726
20
2.8086498133680604
30
0
10
7.6750753216254983
20
2.8196194309988876
30
0
10
7.776630051919021
20
2.8325241469767222
30
0
10
7.8782067678929204
20
2.8416237976199006
30
0
10
7.9797210793511244
20
2.8421319216567409
30
0
10
8.0811034464257521
20
2.8317232868176951
30
0
10
8.1823211086465122
20
2.8124490667635138
30
0
10
8.2833752216622099
20
2.7895324836615192
30
0
10
8.3842919471147539
20
2.7694439398923718
30
0
10
8.485115639912669
20
2.7581755732168043
30
0
10
8.5859011703079613
20
2.7595426086933701
30
0
10
8.6867066218240581
20
2.7731813226604141
30
0
10
8.7875860014213423
20
2.7956139661266781
30
0
10
8.8885821541601366
20
2.8218055439066707
30
0
10
8.9897193930368537
20
2.8465705827545102
30
0
10
9.0909966954022376
20
2.8659871405651698
30
0
10
9.1923794174112832
20
2.8789564635430294
30
0
10
9.2938089875259102
20
2.8865930945084162
30
0
10
9.3952144199365364
20
2.8913856160746092
30
0
10
9.4965232288210224
20
2.8964369592996491
30
0
10
9.5976724507337678
20
2.9046807417310871
30
0
10
9.6986200104999156
20
2.9180833385356708
30
0
10
9.799340835650586
20
2.9378167941288913
30
0
10
9.8797261319654712
20
2.9591362718345673
30
0
10
9.939905632020329
20
2.9783244282381371
30
0
10
9.9799766518057993
20
2.9925379138955281
30
0
10
10
20
3
30
0
0
ENDSEC
0
SECTION
2
OBJECTS
0
DICTIONARY
5
C
100
AcDbDictionary
3
ACAD_GROUP
350
D
3
ACAD_MLINESTYLE
350
17
0
DICTIONARY
5
D
100
AcDbDictionary
0
DICTIONARY
5
1A
330
C
100
AcDbDictionary
0
DICTIONARY
5
17
100
AcDbDictionary
0
ENDSEC
0
EOF
