0
SECTION
2
HEADER
9
$INSUNITS
70
4
9
$ACADVER
1
AC1014
9
$HANDSEED
5
FFFF
0
ENDSEC
0
SECTION
2
TABLES
0
TABLE
2
VPORT
5
8
100
AcDbSymbolTable
0
ENDTAB
0
TABLE
2
LTYPE
5
5
100
AcDbSymbolTable
0
LTYPE
5
14
100
AcDbSymbolTableRecord
100
AcDbLinetypeTableRecord
2
BYBLOCK
70
0
0
LTYPE
5
15
100
AcDbSymbolTableRecord
100
AcDbLinetypeTableRecord
2
BYLAYER
70
0
0
ENDTAB
0
TABLE
2
LAYER
5
2
100
AcDbSymbolTable
70
2
0
LAYER
5
50
100
AcDbSymbolTableRecord
100
AcDbLayerTableRecord
2
0
70
0
6
CONTINUOUS
0
ENDTAB
0
TABLE
2
STYLE
5
3
100
AcDbSymbolTable
70
1
0
STYLE
5
11
100
AcDbSymbolTableRecord
100
AcDbTextStyleTableRecord
2
STANDARD
70
0
0
ENDTAB
0
TABLE
2
VIEW
5
6
100
AcDbSymbolTable
70
0
0
ENDTAB
0
TABLE
2
UCS
5
7
100
AcDbSymbolTable
70
0
0
ENDTAB
0
TABLE
2
APPID
5
9
100
AcDbSymbolTable
70
2
0
APPID
5
12
100
AcDbSymbolTableRecord
100
AcDbRegAppTableRecord
2
ACAD
70
0
0
ENDTAB
0
TABLE
2
DIMSTYLE
5
A
100
AcDbSymbolTable
70
1
0
ENDTAB
0
TABLE
2
BLOCK_RECORD
5
1
100
AcDbSymbolTable
70
1
0
BLOCK_RECORD
5
1F
100
AcDbSymbolTableRecord
100
AcDbBlockTableRecord
2
*MODEL_SPACE
0
BLOCK_RECORD
5
1B
100
AcDbSymbolTableRecord
100
AcDbBlockTableRecord
2
*PAPER_SPACE
0
ENDTAB
0
ENDSEC
0
SECTION
2
BLOCKS
0
BLOCK
5
20
100
AcDbEntity
100
AcDbBlockBegin
2
*MODEL_SPACE
0
ENDBLK
5
21
100
AcDbEntity
100
AcDbBlockEnd
0
BLOCK
5
1C
100
AcDbEntity
100
AcDbBlockBegin
2
*PAPER_SPACE
0
ENDBLK
5
1D
100
AcDbEntity
100
AcDbBlockEnd
0
ENDSEC
0
SECTION
2
ENTITIES
0
SPLINE
5
100
100
AcDbEntity
8
0
100
AcDbSpline
70
4
71
5
72
16
73
10
74
0
42
0.000000001
43
0.0000000001
44
0.0000000001
40
0
40
0
40
0
40
0
40
0
40
0
40
0.20000000000000001
40
0.40000000000000002
40
0.60000000000000009
40
0.80000000000000004
40
1
40
1
40
1
40
1
40
1
40
1
41
1
41
1
41
1
41
1
41
1
41
1
41
1
41
1
41
1
41
1
10
0
20
0
30
0
10
0
20
0.12000000000003158
30
0
10
0
20
0.36000000000007704
30
0
10
0
20
0.72000000000009301
30
0
10
0
20
1.2000000000000313
30
0
10
0
20
1.7999999999999146
30
0
10
0
20
2.2799999999998684
30
0
10
0
20
2.6399999999999042
30
0
10
0
20
2.8799999999999617
30
0
10
0
20
3
30
0
0
SPLINE
5
101
100
AcDbEntity
8
0
100
AcDbSpline
70
4
71
5
72
16
73
10
74
0
42
0.000000001
43
0.0000000001
44
0.0000000001
40
0
40
0
40
0
40
0
40
0
40
0
40
0.20000000000000001
40
0.40000000000000002
40
0.60000000000000009
40
0.80000000000000004
40
1
40
1
40
1
40
1
40
1
40
1
41
1
41
1
41
1
41
1
41
1
41
1
41
1
41
1
41
1
41
1
10
10
20
0
30
0
10
9.9999999999997495
20
0.12000000000003158
30
0
10
9.9999999999993197
20
0.36000000000007704
30
0
10
9.9999999999989129
20
0.72000000000009301
30
0
10
9.9999999999987672
20
1.2000000000000313
30
0
10
9.9999999999990248
20
1.7999999999999146
30
0
10
9.9999999999993889
20
2.2799999999998684
30
0
10
9.9999999999996998
20
2.6399999999999042
30
0
10
9.9999999999999005
20
2.8799999999999617
30
0
10
10
20
3
30
0
0
SPLINE
5
102
100
AcDbEntity
8
0
100
AcDbSpline
70
4
71
5
72
16
73
10
74
0
42
0.000000001
43
0.0000000001
44
0.0000000001
40
0
40
0
40
0
40
0
40
0
40
0
40
0.20000000000000001
40
0.40000000000000002
40
0.60000000000000009
40
0.80000000000000004
40
1
40
1
40
1
40
1
40
1
40
1
41
1
41
1
41
1
41
1
41
1
41
1
41
1
41
1
41
1
41
1
10
0
20
1.5
30
0
10
0.40000000000047375
20
1.499999999999694
30
0
10
1.2000000000012774
20
1.4999999999991638
30
0
10
2.4000000000020547
20
1.4999999999986278
30
0
10
4.0000000000023546
20
1.4999999999983737
30
0
10
6.0000000000019584
20
1.4999999999985913
30
0
10
7.6000000000012928
20
1.4999999999990359
30
0
10
8.800000000000697
20
1.4999999999994786
30
0
10
9.6000000000002395
20
1.4999999999998188
30
0
10
10
20
1.5
30
0
0
SPLINE
5
103
100
AcDbEntity
8
0
100
AcDbSpline
70
4
71
5
72
111
73
105
74
0
42
0.000000001
43
0.0000000001
44
0.0000000001
40
0
40
0
40
0
40
0
40
0
40
0
40
0.01
40
0.02
40
0.029999999999999999
40
0.040000000000000001
40
0.050000000000000003
40
0.060000000000000005
40
0.070000000000000007
40
0.080000000000000002
40
0.089999999999999997
40
0.099999999999999992
40
0.10999999999999999
40
0.11999999999999998
40
0.12999999999999998
40
0.13999999999999999
40
0.14999999999999999
40
0.16
40
0.17000000000000001
40
0.18000000000000002
40
0.19000000000000003
40
0.20000000000000004
40
0.21000000000000005
40
0.22000000000000006
40
0.23000000000000007
40
0.24000000000000007
40
0.25000000000000006
40
0.26000000000000006
40
0.27000000000000007
40
0.28000000000000008
40
0.29000000000000009
40
0.3000000000000001
40
0.31000000000000011
40
0.32000000000000012
40
0.33000000000000013
40
0.34000000000000014
40
0.35000000000000014
40
0.36000000000000015
40
0.37000000000000016
40
0.38000000000000017
40
0.39000000000000018
40
0.40000000000000019
40
0.4100000000000002
40
0.42000000000000021
40
0.43000000000000022
40
0.44000000000000022
40
0.45000000000000023
40
0.46000000000000024
40
0.47000000000000025
40
0.48000000000000026
40
0.49000000000000027
40
0.50000000000000022
40
0.51000000000000023
40
0.52000000000000024
40
0.53000000000000025
40
0.54000000000000026
40
0.55000000000000027
40
0.56000000000000028
40
0.57000000000000028
40
0.58000000000000029
40
0.5900000000000003
40
0.60000000000000031
40
0.61000000000000032
40
0.62000000000000033
40
0.63000000000000034
40
0.64000000000000035
40
0.65000000000000036
40
0.66000000000000036
40
0.67000000000000037
40
0.68000000000000038
40
0.69000000000000039
40
0.7000000000000004
40
0.71000000000000041
40
0.72000000000000042
40
0.73000000000000043
40
0.74000000000000044
40
0.75000000000000044
40
0.76000000000000045
40
0.77000000000000046
40
0.78000000000000047
40
0.79000000000000048
40
0.80000000000000049
40
0.8100000000000005
40
0.82000000000000051
40
0.83000000000000052
40
0.84000000000000052
40
0.85000000000000053
40
0.86000000000000054
40
0.87000000000000055
40
0.88000000000000056
40
0.89000000000000057
40
0.90000000000000058
40
0.91000000000000059
40
0.9200000000000006
40
0.9300000000000006
40
0.94000000000000061
40
0.95000000000000062
40
0.96000000000000063
40
0.97000000000000064
40
0.98000000000000065
40
0.99000000000000066
40
1
40
1
40
1
40
1
40
1
40
1
41
1
41
1
41
1
41
1
41
1
41
1
41
1
41
1
41
1
41
1
41
1
41
1
41
1
41
1
41
1
41
1
41
1
41
1
41
1
41
1
41
1
41
1
41
1
41
1
41
1
41
1
41
1
41
1
41
1
41
1
41
1
41
1
41
1
41
1
41
1
41
1
41
1
41
1
41
1
41
1
41
1
41
1
41
1
41
1
41
1
41
1
41
1
41
1
41
1
41
1
41
1
41
1
41
1
41
1
41
1
41
1
41
1
41
1
41
1
41
1
41
1
41
1
41
1
41
1
41
1
41
1
41
1
41
1
41
1
41
1
41
1
41
1
41
1
41
1
41
1
41
1
41
1
41
1
41
1
41
1
41
1
41
1
41
1
41
1
41
1
41
1
41
1
41
1
41
1
41
1
41
1
41
1
41
1
41
1
41
1
41
1
41
1
41
1
41
1
41
1
41
1
41
1
41
1
41
1
41
1
10
0
20
0
30
0
10
0.019824048882035452
20
0.0088220575733563115
30
0
10
0.059529208591253754
20
0.025677114624417536
30
0
10
0.1192581345834625
20
0.048592524615132165
30
0
10
0.19923912604116314
20
0.074411293953242696
30
0
10
0.29977306145521809
20
0.098844882476307488
30
0
10
0.4008250035774647
20
0.11560248570995127
30
0
10
0.50231530324853713
20
0.12501738956790726
30
0
10
0.60411042932935721
20
0.12765122763801887
30
0
10
0.70601065902790694
20
0.12434942773681583
30
0
10
0.80780260202508503
20
0.11614922143279886
30
0
10
0.90931151217386719
20
0.10418876173585218
30
0
10
1.010451467124776
20
0.08961992557152694
30
0
10
1.1112816647088151
20
0.073510318408570807
30
0
10
1.2120454167285304
20
0.056776214154400637
30
0
10
1.3130508289834018
20
0.040386862304060328
30
0
10
1.4145613095117251
20
0.025557273329074301
30
0
10
1.5166887940877347
20
0.013923846556545992
30
0
10
1.6192706083807464
20
0.0077781543566324308
30
0
10
1.721797944627629
20
0.010126890534177597
30
0
10
1.8236227833261873
20
0.023839719291608618
30
0
10
1.9241363341268169
20
0.050878620996835849
30
0
10
2.022946480534983
20
0.091557704748929936
30
0
10
2.1200840572005211
20
0.14364191034209123
30
0
10
2.2161095799605555
20
0.20196785854837906
30
0
10
2.3118584520174696
20
0.25994198890074988
30
0
10
2.4082428843875121
20
0.31074514019079758
30
0
10
2.5060349582588763
20
0.34863387565306375
30
0
10
2.6056499355769951
20
0.37024326513715838
30
0
10
2.7069511432628151
20
0.37577066961424088
30
0
10
2.8094502452009857
20
0.36795942160131573
30
0
10
2.9124878663777443
20
0.35120340041235054
30
0
10
3.0154157945152695
20
0.3306159422893134
30
0
10
3.1177918433984204
20
0.31109373056681361
30
0
10
3.2195300331884842
20
0.29644630650094922
30
0
10
3.3207692921775083
20
0.28905281809201955
30
0
10
3.4217719587567896
20
0.28941658088082678
30
0
10
3.5228156551508363
20
0.29584103126954459
30
0
10
3.6240767873322262
20
0.30385739245596705
30
0
10
3.7255521626797359
20
0.3063527360522233
30
0
10
3.8271260199405694
20
0.29607302436420729
30
0
10
3.9286152719272844
20
0.26787475367345753
30
0
10
4.029820024261916
20
0.22081809358207721
30
0
10
4.1305794723097851
20
0.16094185402064726
30
0
10
4.2308009079278124
20
0.10178326210365291
30
0
10
4.3304184710707752
20
0.059330558939518649
30
0
10
4.4293635403002112
20
0.047882988561366427
30
0
10
4.5275348402680686
20
0.075903296095071293
30
0
10
4.6247583438601829
20
0.14103145572827763
30
0
10
4.7207845070225209
20
0.22813519364234033
30
0
10
4.8153896957071529
20
0.31582409712345721
30
0
10
4.9084581170396984
20
0.38138125844978282
30
0
10
5.0000717551381157
20
0.40632588960390459
30
0
10
5.0905965071495674
20
0.38169502818527151
30
0
10
5.1807713778864084
20
0.31348550101418071
30
0
10
5.27152734864978
20
0.21767298493514114
30
0
10
5.3638113903425388
20
0.11534872545481177
30
0
10
5.4583982239178965
20
0.027597718661563127
30
0
10
5.5557308025670125
20
-0.029016105079656351
30
0
10
5.6556894526216244
20
-0.048464159365991702
30
0
10
5.7576491308377751
20
-0.035193898433038447
30
0
10
5.8607390804947528
20
0.00025553370305115235
30
0
10
5.9640527804325778
20
0.044480783094576024
30
0
10
6.0668567219429059
20
0.084662655988400309
30
0
10
6.1688538914409232
20
0.11255469275761495
30
0
10
6.2701522211479883
20
0.12503699898173484
30
0
10
6.3710776828238043
20
0.12277382245145983
30
0
10
6.4720305570838939
20
0.10947964882695464
30
0
10
6.5733363341282169
20
0.090911652824058636
30
0
10
6.6750671041889111
20
0.074039783081845389
30
0
10
6.7770672390173932
20
0.065807917953366296
30
0
10
6.8790551935028921
20
0.071825003977339846
30
0
10
6.9807019556468886
20
0.095002826751915986
30
0
10
7.0817150317366977
20
0.13437990663651073
30
0
10
7.181930919932026
20
0.18343388596444232
30
0
10
7.2813156862316886
20
0.23204230062625364
30
0
10
7.3799433833450445
20
0.2692001789462834
30
0
10
7.4779829452502504
20
0.28558243458899435
30
0
10
7.5756799628437648
20
0.27593327694337338
30
0
10
7.6733448956416597
20
0.24214832051985377
30
0
10
7.7713099895316571
20
0.19173043770464662
30
0
10
7.8698796186356601
20
0.135010243947568
30
0
10
7.9692798968074658
20
0.082689546540863551
30
0
10
8.0696151055059957
20
0.043468132698616206
30
0
10
8.1708044924040237
20
0.021080916126368855
30
0
10
8.2726198171330179
20
0.014670335397036808
30
0
10
8.3747640720120451
20
0.020569572206424643
30
0
10
8.4769393389743399
20
0.033666952919580502
30
0
10
8.5789136847104341
20
0.04885725309519566
30
0
10
8.6806026017074469
20
0.062677878130439568
30
0
10
8.7820449084994081
20
0.073294638229664463
30
0
10
8.8833493036345885
20
0.080009075444444105
30
0
10
8.9846498764022478
20
0.082923753855811105
30
0
10
9.0860602261522789
20
0.082554584130200226
30
0
10
9.1876220350202331
20
0.079433037256549849
30
0
10
9.2893170137013783
20
0.074043911245328359
30
0
10
9.3910896891628752
20
0.066826419536314102
30
0
10
9.4928665383903326
20
0.058152377211357499
30
0
10
9.5945761963633043
20
0.048314626038769286
30
0
10
9.6961704066651944
20
0.03750934012874263
30
0
10
9.7976205299353012
20
0.025854297584057537
30
0
10
9.8786538801954968
20
0.015897841687776755
30
0
10
9.9393554846751506
20
0.0080837462607907286
30
0
10
9.9797905985589512
20
0.0027202631666519168
30
0
10
10
20
0
30
0
0
SPLINE
5
104
100
AcDbEntity
8
0
100
AcDbSpline
70
4
71
5
72
111
73
105
74
0
42
0.000000001
43
0.0000000001
44
0.0000000001
40
0
40
0
40
0
40
0
40
0
40
0
40
0.01
40
0.02
40
0.029999999999999999
40
0.040000000000000001
40
0.050000000000000003
40
0.060000000000000005
40
0.070000000000000007
40
0.080000000000000002
40
0.089999999999999997
40
0.099999999999999992
40
0.10999999999999999
40
0.11999999999999998
40
0.12999999999999998
40
0.13999999999999999
40
0.14999999999999999
40
0.16
40
0.17000000000000001
40
0.18000000000000002
40
0.19000000000000003
40
0.20000000000000004
40
0.21000000000000005
40
0.22000000000000006
40
0.23000000000000007
40
0.24000000000000007
40
0.25000000000000006
40
0.26000000000000006
40
0.27000000000000007
40
0.28000000000000008
40
0.29000000000000009
40
0.3000000000000001
40
0.31000000000000011
40
0.32000000000000012
40
0.33000000000000013
40
0.34000000000000014
40
0.35000000000000014
40
0.36000000000000015
40
0.37000000000000016
40
0.38000000000000017
40
0.39000000000000018
40
0.40000000000000019
40
0.4100000000000002
40
0.42000000000000021
40
0.43000000000000022
40
0.44000000000000022
40
0.45000000000000023
40
0.46000000000000024
40
0.47000000000000025
40
0.48000000000000026
40
0.49000000000000027
40
0.50000000000000022
40
0.51000000000000023
40
0.52000000000000024
40
0.53000000000000025
40
0.54000000000000026
40
0.55000000000000027
40
0.56000000000000028
40
0.57000000000000028
40
0.58000000000000029
40
0.5900000000000003
40
0.60000000000000031
40
0.61000000000000032
40
0.62000000000000033
40
0.63000000000000034
40
0.64000000000000035
40
0.65000000000000036
40
0.66000000000000036
40
0.67000000000000037
40
0.68000000000000038
40
0.69000000000000039
40
0.7000000000000004
40
0.71000000000000041
40
0.72000000000000042
40
0.73000000000000043
40
0.74000000000000044
40
0.75000000000000044
40
0.76000000000000045
40
0.77000000000000046
40
0.78000000000000047
40
0.79000000000000048
40
0.80000000000000049
40
0.8100000000000005
40
0.82000000000000051
40
0.83000000000000052
40
0.84000000000000052
40
0.85000000000000053
40
0.86000000000000054
40
0.87000000000000055
40
0.88000000000000056
40
0.89000000000000057
40
0.90000000000000058
40
0.91000000000000059
40
0.9200000000000006
40
0.9300000000000006
40
0.94000000000000061
40
0.95000000000000062
40
0.96000000000000063
40
0.97000000000000064
40
0.98000000000000065
40
0.99000000000000066
40
1
40
1
40
1
40
1
40
1
40
1
41
1
41
1
41
1
41
1
41
1
41
1
41
1
41
1
41
1
41
1
41
1
41
1
41
1
41
1
41
1
41
1
41
1
41
1
41
1
41
1
41
1
41
1
41
1
41
1
41
1
41
1
41
1
41
1
41
1
41
1
41
1
41
1
41
1
41
1
41
1
41
1
41
1
41
1
41
1
41
1
41
1
41
1
41
1
41
1
41
1
41
1
41
1
41
1
41
1
41
1
41
1
41
1
41
1
41
1
41
1
41
1
41
1
41
1
41
1
41
1
41
1
41
1
41
1
41
1
41
1
41
1
41
1
41
1
41
1
41
1
41
1
41
1
41
1
41
1
41
1
41
1
41
1
41
1
41
1
41
1
41
1
41
1
41
1
41
1
41
1
41
1
41
1
41
1
41
1
41
1
41
1
41
1
41
1
41
1
41
1
41
1
41
1
41
1
41
1
41
1
41
1
41
1
41
1
41
1
41
1
10
0
20
3
30
0
10
0.020874766430886371
20
3.0034271070495349
30
0
10
0.062480440337969456
20
3.0084376812459745
30
0
10
0.12445737285862625
20
3.0104225934779261
30
0
10
0.20622999845721235
20
3.0020056980797936
30
0
10
0.30703292248492686
20
2.9735355024049817
30
0
10
0.40650249511455511
20
2.9286092419946428
30
0
10
0.50479840618343974
20
2.8702188774438446
30
0
10
0.60218875128268645
20
2.8033829339746124
30
0
10
0.69907405880175244
20
2.7355906827758023
30
0
10
0.79591264068706691
20
2.6752928975053041
30
0
10
0.89315066728822035
20
2.6304845238386463
30
0
10
0.99114894889620719
20
2.6072255841706333
30
0
10
1.0901145737700437
20
2.6082497425090541
30
0
10
1.1900209720113126
20
2.6313653034884128
30
0
10
1.2906845144475225
20
2.6706737348812504
30
0
10
1.3918539808211112
20
2.7180296311413303
30
0
10
1.4932967910492869
20
2.7644186913224935
30
0
10
1.5948832845075462
20
2.8013544968362103
30
0
10
1.6966808620356533
20
2.8223072221331731
30
0
10
1.7988500382376451
20
2.8233011994927217
30
0
10
1.9015266263073507
20
2.8034686132949345
30
0
10
2.0047108733370327
20
2.7655989242570889
30
0
10
2.1081491987121872
20
2.7167439578072621
30
0
10
2.2112311933985884
20
2.6686590887225119
30
0
10
2.313200936250861
20
2.6346364058950651
30
0
10
2.4133591624284265
20
2.6264296919285082
30
0
10
2.5112625855404103
20
2.6512470689783347
30
0
10
2.6069391553402328
20
2.7084737037493096
30
0
10
2.7010543775623335
20
2.7871994849904187
30
0
10
2.7946338593342084
20
2.8710373336554018
30
0
10
2.888828463211695
20
2.9422295236205382
30
0
10
2.9846563092244431
20
2.9861651667485938
30
0
10
3.0827706716846084
20
2.9954003153188542
30
0
10
3.183174114694443
20
2.9747495570546829
30
0
10
3.2853741379827621
20
2.9375139590806687
30
0
10
3.3886102217905205
20
2.9002867289252428
30
0
10
3.4920583596228276
20
2.8781793617578924
30
0
10
3.5950389486935008
20
2.8800519477990387
30
0
10
3.6972394851365973
20
2.9032515573313287
30
0
10
3.7986378706384412
20
2.9373697724993209
30
0
10
3.8994016233612721
20
2.9687160350188591
30
0
10
3.9997959583030207
20
2.9845303254998221
30
0
10
4.1000882729767696
20
2.9773016632937703
30
0
10
4.2004540154935635
20
2.9490555125168534
30
0
10
4.3010003459637787
20
2.9079901163581265
30
0
10
4.4017904468672047
20
2.8650796618849235
30
0
10
4.5028672657004485
20
2.8307153519324895
30
0
10
4.6042781128828842
20
2.8112786236189651
30
0
10
4.7060971684795767
20
2.8058856102979233
30
0
10
4.8083838691816299
20
2.8091160646734332
30
0
10
4.9111413626589231
20
2.8136312971098576
30
0
10
5.0142779549646015
20
2.8127474146677671
30
0
10
5.1175601516612899
20
2.8032235753600716
30
0
10
5.2205897791645697
20
2.7873857650688523
30
0
10
5.3229342029372795
20
2.7708021645356462
30
0
10
5.4242454255340302
20
2.7603908459409929
30
0
10
5.5243728693359637
20
2.7624530117258432
30
0
10
5.6235039700862055
20
2.7805242992493255
30
0
10
5.7222154742230193
20
2.8139686787159506
30
0
10
5.8212326684418905
20
2.8591596898218596
30
0
10
5.9212305868723742
20
2.9102205513939006
30
0
10
6.0226330719710308
20
2.9599460424883359
30
0
10
6.1253787434591871
20
3.0006228566973459
30
0
10
6.2288048634128472
20
3.0249594684495285
30
0
10
6.3319625509967636
20
3.0271954455152841
30
0
10
6.4338737084713484
20
3.0042646912043418
30
0
10
6.5337891621529298
20
2.9567772209877914
30
0
10
6.6314978028183287
20
2.8904657942644429
30
0
10
6.7274427959427419
20
2.8161542895323621
30
0
10
6.8224324807016501
20
2.7467269313354032
30
0
10
6.9174341596099174
20
2.6946863802717989
30
0
10
7.013341693228119
20
2.669571415833575
30
0
10
7.1107382730544142
20
2.6752102975550045
30
0
10
7.2097081822600568
20
2.7076959951329767
30
0
10
7.3100093128469155
20
2.7583452999514431
30
0
10
7.4112070645067085
20
2.8161383658662471
30
0
10
7.5128197405996637
20
2.8702942177284498
30
0
10
7.6144666210887273
20
2.912933777057602
30
0
10
7.715992660407796
20
2.94128176574957
30
0
10
7.8173971404407707
20
2.9561351089247481
30
0
10
7.9187813600217147
20
2.9606911233248443
30
0
10
8.0202905235788702
20
2.9592686620072026
30
0
10
8.1220547403088226
20
2.9560066734704789
30
0
10
8.2241407730058285
20
2.9537841108570548
30
0
10
8.3265568680770361
20
2.9542359557140792
30
0
10
8.4292490032269427
20
2.9575813722944941
30
0
10
8.5321019779061977
20
2.9625785574280359
30
0
10
8.6349347756173067
20
2.9662961897974878
30
0
10
8.7375101009559959
20
2.964379149300473
30
0
10
8.8395734529915089
20
2.9523597954426006
30
0
10
8.9408878570345163
20
2.9268203130071195
30
0
10
9.041267067852143
20
2.8864882123915092
30
0
10
9.1406173014303409
20
2.8336663064797074
30
0
10
9.2389474083520611
20
2.7744365761001024
30
0
10
9.3363324220094377
20
2.7170607810854768
30
0
10
9.4328877576668102
20
2.6707853259631187
30
0
10
9.5287405146458983
20
2.6445524705864063
30
0
10
9.6239987540858056
20
2.6455873541924286
30
0
10
9.7187322869157082
20
2.6785708138027413
30
0
10
9.8129840159590316
20
2.7463384436330998
30
0
10
9.8880169817130632
20
2.8294899063864545
30
0
10
9.944087785919228
20
2.9083363029809322
30
0
10
9.9813776989058169
20
2.968224727989921
30
0
10
10
20
3
30
0
0
ENDSEC
0
SECTION
2
OBJECTS
0
DICTIONARY
5
C
100
AcDbDictionary
3
ACAD_GROUP
350
D
3
ACAD_MLINESTYLE
350
17
0
DICTIONARY
5
D
100
AcDbDictionary
0
DICTIONARY
5
1A
330
C
100
AcDbDictionary
0
DICTIONARY
5
17
100
AcDbDictionary
0
ENDSEC
0
EOF
