0
SECTION
2
HEADER
9
$INSUNITS
70
4
9
$ACADVER
1
AC1014
9
$HANDSEED
5
FFFF
0
ENDSEC
0
SECTION
2
TABLES
0
TABLE
2
VPORT
5
8
100
AcDbSymbolTable
0
ENDTAB
0
TABLE
2
LTYPE
5
5
100
AcDbSymbolTable
0
LTYPE
5
14
100
AcDbSymbolTableRecord
100
AcDbLinetypeTableRecord
2
BYBLOCK
70
0
0
LTYPE
5
15
100
AcDbSymbolTableRecord
100
AcDbLinetypeTableRecord
2
BYLAYER
70
0
0
ENDTAB
0
TABLE
2
LAYER
5
2
100
AcDbSymbolTable
70
2
0
LAYER
5
50
100
AcDbSymbolTableRecord
100
AcDbLayerTableRecord
2
0
70
0
6
CONTINUOUS
0
ENDTAB
0
TABLE
2
STYLE
5
3
100
AcDbSymbolTable
70
1
0
STYLE
5
11
100
AcDbSymbolTableRecord
100
AcDbTextStyleTableRecord
2
STANDARD
70
0
0
ENDTAB
0
TABLE
2
VIEW
5
6
100
AcDbSymbolTable
70
0
0
ENDTAB
0
TABLE
2
UCS
5
7
100
AcDbSymbolTable
70
0
0
ENDTAB
0
TABLE
2
APPID
5
9
100
AcDbSymbolTable
70
2
0
APPID
5
12
100
AcDbSymbolTableRecord
100
AcDbRegAppTableRecord
2
ACAD
70
0
0
ENDTAB
0
TABLE
2
DIMSTYLE
5
A
100
AcDbSymbolTable
70
1
0
ENDTAB
0
TABLE
2
BLOCK_RECORD
5
1
100
AcDbSymbolTable
70
1
0
BLOCK_RECORD
5
1F
100
AcDbSymbolTableRecord
100
AcDbBlockTableRecord
2
*MODEL_SPACE
0
BLOCK_RECORD
5
1B
100
AcDbSymbolTableRecord
100
AcDbBlockTableRecord
2
*PAPER_SPACE
0
ENDTAB
0
ENDSEC
0
SECTION
2
BLOCKS
0
BLOCK
5
20
100
AcDbEntity
100
AcDbBlockBegin
2
*MODEL_SPACE
0
ENDBLK
5
21
100
AcDbEntity
100
AcDbBlockEnd
0
BLOCK
5
1C
100
AcDbEntity
100
AcDbBlockBegin
2
*PAPER_SPACE
0
ENDBLK
5
1D
100
AcDbEntity
100
AcDbBlockEnd
0
ENDSEC
0
SECTION
2
ENTITIES
0
SPLINE
5
100
100
AcDbEntity
8
0
100
AcDbSpline
70
4
71
5
72
16
73
10
74
0
42
0.000000001
43
0.0000000001
44
0.0000000001
40
0
40
0
40
0
40
0
40
0
40
0
40
0.20000000000000001
40
0.40000000000000002
40
0.60000000000000009
40
0.80000000000000004
40
1
40
1
40
1
40
1
40
1
40
1
41
1
41
1
41
1
41
1
41
1
41
1
41
1
41
1
41
1
41
1
10
0
20
0
30
0
10
0
20
0.12000000000003158
30
0
10
0
20
0.36000000000007704
30
0
10
0
20
0.72000000000009301
30
0
10
0
20
1.2000000000000313
30
0
10
0
20
1.7999999999999146
30
0
10
0
20
2.2799999999998684
30
0
10
0
20
2.6399999999999042
30
0
10
0
20
2.8799999999999617
30
0
10
0
20
3
30
0
0
SPLINE
5
101
100
AcDbEntity
8
0
100
AcDbSpline
70
4
71
5
72
16
73
10
74
0
42
0.000000001
43
0.0000000001
44
0.0000000001
40
0
40
0
40
0
40
0
40
0
40
0
40
0.20000000000000001
40
0.40000000000000002
40
0.60000000000000009
40
0.80000000000000004
40
1
40
1
40
1
40
1
40
1
40
1
41
1
41
1
41
1
41
1
41
1
41
1
41
1
41
1
41
1
41
1
10
10
20
0
30
0
10
9.9999999999997495
20
0.12000000000003158
30
0
10
9.9999999999993197
20
0.36000000000007704
30
0
10
9.9999999999989129
20
0.72000000000009301
30
0
10
9.9999999999987672
20
1.2000000000000313
30
0
10
9.9999999999990248
20
1.7999999999999146
30
0
10
9.9999999999993889
20
2.2799999999998684
30
0
10
9.9999999999996998
20
2.6399999999999042
30
0
10
9.9999999999999005
20
2.8799999999999617
30
0
10
10
20
3
30
0
0
SPLINE
5
102
100
AcDbEntity
8
0
100
AcDbSpline
70
4
71
5
72
16
73
10
74
0
42
0.000000001
43
0.0000000001
44
0.0000000001
40
0
40
0
40
0
40
0
40
0
40
0
40
0.20000000000000001
40
0.40000000000000002
40
0.60000000000000009
40
0.80000000000000004
40
1
40
1
40
1
40
1
40
1
40
1
41
1
41
1
41
1
41
1
41
1
41
1
41
1
41
1
41
1
41
1
10
0
20
1.5
30
0
10
0.40000000000047375
20
1.499999999999694
30
0
10
1.2000000000012774
20
1.4999999999991638
30
0
10
2.4000000000020547
20
1.4999999999986278
30
0
10
4.0000000000023546
20
1.4999999999983737
30
0
10
6.0000000000019584
20
1.4999999999985913
30
0
10
7.6000000000012928
20
1.4999999999990359
30
0
10
8.800000000000697
20
1.4999999999994786
30
0
10
9.6000000000002395
20
1.4999999999998188
30
0
10
10
20
1.5
30
0
0
SPLINE
5
103
100
AcDbEntity
8
0
100
AcDbSpline
70
4
71
5
72
61
73
55
74
0
42
0.000000001
43
0.0000000001
44
0.0000000001
40
0
40
0
40
0
40
0
40
0
40
0
40
0.02
40
0.040000000000000001
40
0.059999999999999998
40
0.080000000000000002
40
0.10000000000000001
40
0.12000000000000001
40
0.14000000000000001
40
0.16
40
0.17999999999999999
40
0.19999999999999998
40
0.21999999999999997
40
0.23999999999999996
40
0.25999999999999995
40
0.27999999999999997
40
0.29999999999999999
40
0.32000000000000001
40
0.34000000000000002
40
0.36000000000000004
40
0.38000000000000006
40
0.40000000000000008
40
0.4200000000000001
40
0.44000000000000011
40
0.46000000000000013
40
0.48000000000000015
40
0.50000000000000011
40
0.52000000000000013
40
0.54000000000000015
40
0.56000000000000016
40
0.58000000000000018
40
0.6000000000000002
40
0.62000000000000022
40
0.64000000000000024
40
0.66000000000000025
40
0.68000000000000027
40
0.70000000000000029
40
0.72000000000000031
40
0.74000000000000032
40
0.76000000000000034
40
0.78000000000000036
40
0.80000000000000038
40
0.8200000000000004
40
0.84000000000000041
40
0.86000000000000043
40
0.88000000000000045
40
0.90000000000000047
40
0.92000000000000048
40
0.9400000000000005
40
0.96000000000000052
40
0.98000000000000054
40
1
40
1
40
1
40
1
40
1
40
1
41
1
41
1
41
1
41
1
41
1
41
1
41
1
41
1
41
1
41
1
41
1
41
1
41
1
41
1
41
1
41
1
41
1
41
1
41
1
41
1
41
1
41
1
41
1
41
1
41
1
41
1
41
1
41
1
41
1
41
1
41
1
41
1
41
1
41
1
41
1
41
1
41
1
41
1
41
1
41
1
41
1
41
1
41
1
41
1
41
1
41
1
41
1
41
1
41
1
41
1
41
1
41
1
41
1
41
1
41
1
10
0
20
0
30
0
10
0.04036654598219884
20
0.00057824640767271279
30
0
10
0.1210940289418725
20
0.0025528122418994807
30
0
10
0.24216842629678376
20
0.0079689039818234535
30
0
10
0.40356728061358454
20
0.020101837156078495
30
0
10
0.60526134504468632
20
0.043156911299997103
30
0
10
0.80690600821611502
20
0.073173607745374569
30
0
10
1.0085116310408622
20
0.10827805335612725
30
0
10
1.2100956981765145
20
0.14530635339950071
30
0
10
1.4116844931269379
20
0.17952632277058553
30
0
10
1.6133094678210067
20
0.20594099998533361
30
0
10
1.8150038570945286
20
0.22055503437368629
30
0
10
2.0167991234344269
20
0.22161609572695057
30
0
10
2.21872166471729
20
0.21096701711164176
30
0
10
2.4207888566967513
20
0.19509084532203147
30
0
10
2.6229987813697022
20
0.1824848543973441
30
0
10
2.8253198377914486
20
0.18123939826642413
30
0
10
3.0276813318095996
20
0.19664070256741062
30
0
10
3.2299611936522918
20
0.22852201208097511
30
0
10
3.4319816421437457
20
0.26939749001661989
30
0
10
3.6335575163707627
20
0.3080019960260475
30
0
10
3.8345402956477779
20
0.33231196836545579
30
0
10
4.0348613075558184
20
0.3326372914250661
30
0
10
4.2345814462939337
20
0.30497849239320357
30
0
10
4.4339206315556776
20
0.25341277649841709
30
0
10
4.6331821214966658
20
0.1872890346190613
30
0
10
4.8326896933635473
20
0.11909085092696595
30
0
10
5.0327217447433172
20
0.062083255349806826
30
0
10
5.2334423939575503
20
0.027979391689493052
30
0
10
5.4348462595471547
20
0.024826891698177957
30
0
10
5.6367861459579167
20
0.056490842004145995
30
0
10
5.8389890108495859
20
0.12185535695244167
30
0
10
6.041078350368779
20
0.21426331253070496
30
0
10
6.2425882743179608
20
0.32050390859814581
30
0
10
6.4429967449977976
20
0.42098928322072687
30
0
10
6.6418321555680384
20
0.49472587794182088
30
0
10
6.8387725250043445
20
0.52370212929049464
30
0
10
7.033741567093255
20
0.49726918235620154
30
0
10
7.2270217021007577
20
0.41710577775350965
30
0
10
7.41931603724022
20
0.30027995847764605
30
0
10
7.6115393150629114
20
0.1720932673006571
30
0
10
7.8046439399820553
20
0.060250455163867539
30
0
10
7.9994326339754647
20
-0.011473931673187426
30
0
10
8.1963765263471835
20
-0.029360017585613501
30
0
10
8.3954300434438487
20
0.0040175959318135245
30
0
10
8.5961787614704992
20
0.074502732782175479
30
0
10
8.7979860864493489
20
0.161031165629964
30
0
10
9.0001396398776095
20
0.24029658026529799
30
0
10
9.2019974167550167
20
0.29140948744565515
30
0
10
9.4031340552195388
20
0.30056059737166485
30
0
10
9.60329648215993
20
0.25956347675872016
30
0
10
9.7625472791488583
20
0.18344171140005866
30
0
10
9.8814728324833201
20
0.10141257495974527
30
0
10
9.9605288856713159
20
0.035650233565630948
30
0
10
10
20
0
30
0
0
SPLINE
5
104
100
AcDbEntity
8
0
100
AcDbSpline
70
4
71
5
72
61
73
55
74
0
42
0.000000001
43
0.0000000001
44
0.0000000001
40
0
40
0
40
0
40
0
40
0
40
0
40
0.02
40
0.040000000000000001
40
0.059999999999999998
40
0.080000000000000002
40
0.10000000000000001
40
0.12000000000000001
40
0.14000000000000001
40
0.16
40
0.17999999999999999
40
0.19999999999999998
40
0.21999999999999997
40
0.23999999999999996
40
0.25999999999999995
40
0.27999999999999997
40
0.29999999999999999
40
0.32000000000000001
40
0.34000000000000002
40
0.36000000000000004
40
0.38000000000000006
40
0.40000000000000008
40
0.4200000000000001
40
0.44000000000000011
40
0.46000000000000013
40
0.48000000000000015
40
0.50000000000000011
40
0.52000000000000013
40
0.54000000000000015
40
0.56000000000000016
40
0.58000000000000018
40
0.6000000000000002
40
0.62000000000000022
40
0.64000000000000024
40
0.66000000000000025
40
0.68000000000000027
40
0.70000000000000029
40
0.72000000000000031
40
0.74000000000000032
40
0.76000000000000034
40
0.78000000000000036
40
0.80000000000000038
40
0.8200000000000004
40
0.84000000000000041
40
0.86000000000000043
40
0.88000000000000045
40
0.90000000000000047
40
0.92000000000000048
40
0.9400000000000005
40
0.96000000000000052
40
0.98000000000000054
40
1
40
1
40
1
40
1
40
1
40
1
41
1
41
1
41
1
41
1
41
1
41
1
41
1
41
1
41
1
41
1
41
1
41
1
41
1
41
1
41
1
41
1
41
1
41
1
41
1
41
1
41
1
41
1
41
1
41
1
41
1
41
1
41
1
41
1
41
1
41
1
41
1
41
1
41
1
41
1
41
1
41
1
41
1
41
1
41
1
41
1
41
1
41
1
41
1
41
1
41
1
41
1
41
1
41
1
41
1
41
1
41
1
41
1
41
1
41
1
41
1
10
0
20
3
30
0
10
0.040405232545749431
20
3.0085297743541735
30
0
10
0.12119184429095221
20
3.0233713362087453
30
0
10
0.24230020201074437
20
3.0389796839976335
30
0
10
0.40363479807229552
20
3.0464744509633119
30
0
10
0.60506318791123126
20
3.0342416604014955
30
0
10
0.80624914112850687
20
3.0022796442726118
30
0
10
1.0071882382727912
20
2.9543921830955808
30
0
10
1.2078736572844828
20
2.8970079030577693
30
0
10
1.4082959958847441
20
2.8397805171456221
30
0
10
1.6084540280484134
20
2.7933379155739892
30
0
10
1.8083652516013984
20
2.7671069391864944
30
0
10
2.0080763564227051
20
2.7671351519700371
30
0
10
2.2076742852787694
20
2.7938429275738015
30
0
10
2.4072958085309475
20
2.8399670368069687
30
0
10
2.6070963561737721
20
2.8938888177393012
30
0
10
2.8072201356417734
20
2.9427808773411535
30
0
10
3.0077700872597428
20
2.9757856865967662
30
0
10
3.2087770427192557
20
2.9872538119202212
30
0
10
3.4101711861033572
20
2.979772212113347
30
0
10
3.6118204627660786
20
2.9610548541139918
30
0
10
3.8135668642163361
20
2.9410283348790545
30
0
10
4.0152628344567702
20
2.9289028447214975
30
0
10
4.2168089449105794
20
2.9301336710465868
30
0
10
4.4181873551146769
20
2.9437518433748928
30
0
10
4.6194360556002039
20
2.9648285562184573
30
0
10
4.8206268040233642
20
2.9866390262323113
30
0
10
5.0218420487583764
20
3.0028738088997549
30
0
10
5.2231516886187501
20
3.0099683639221606
30
0
10
5.4245917631849183
20
3.0089867494182676
30
0
10
5.6261633967118732
20
3.0033900026003453
30
0
10
5.8278296428439438
20
2.9971217647702355
30
0
10
6.0295135117068641
20
2.9926692432922062
30
0
10
6.2310942570974284
20
2.9889132871322315
30
0
10
6.4324075976077255
20
2.9797033363547594
30
0
10
6.633269905052769
20
2.9570674266910304
30
0
10
6.8334999109247256
20
2.9139702055204886
30
0
10
7.0329409401251883
20
2.8470992661454364
30
0
10
7.2314839929327848
20
2.7599917978748714
30
0
10
7.4290875929388527
20
2.6650102384547676
30
0
10
7.6257781710036268
20
2.5788295753328203
30
0
10
7.8216532271827344
20
2.5186987416150335
30
0
10
8.0168832309189035
20
2.4984833136818825
30
0
10
8.2117152171367778
20
2.5246151489911908
30
0
10
8.4064732063866483
20
2.592578094228879
30
0
10
8.6015219553884403
20
2.6904597347127384
30
0
10
8.7972334331293549
20
2.8019754712217733
30
0
10
8.9939521176742971
20
2.9096928829397735
30
0
10
9.1919611567504749
20
2.9981317578856825
30
0
10
9.3914468217082323
20
3.0570102558380619
30
0
10
9.5925178943079281
20
3.0802446385577156
30
0
10
9.7546846446098776
20
3.0679284287714923
30
0
10
9.8770533248061625
20
3.0408846091432737
30
0
10
9.9589627278392818
20
3.0149463699332872
30
0
10
10
20
3
30
0
0
ENDSEC
0
SECTION
2
OBJECTS
0
DICTIONARY
5
C
100
AcDbDictionary
3
ACAD_GROUP
350
D
3
ACAD_MLINESTYLE
350
17
0
DICTIONARY
5
D
100
AcDbDictionary
0
DICTIONARY
5
1A
330
C
100
AcDbDictionary
0
DICTIONARY
5
17
100
AcDbDictionary
0
ENDSEC
0
EOF
