0
SECTION
2
HEADER
9
$INSUNITS
70
4
9
$ACADVER
1
AC1014
9
$HANDSEED
5
FFFF
0
ENDSEC
0
SECTION
2
TABLES
0
TABLE
2
VPORT
5
8
100
AcDbSymbolTable
0
ENDTAB
0
TABLE
2
LTYPE
5
5
100
AcDbSymbolTable
0
LTYPE
5
14
100
AcDbSymbolTableRecord
100
AcDbLinetypeTableRecord
2
BYBLOCK
70
0
0
LTYPE
5
15
100
AcDbSymbolTableRecord
100
AcDbLinetypeTableRecord
2
BYLAYER
70
0
0
ENDTAB
0
TABLE
2
LAYER
5
2
100
AcDbSymbolTable
70
2
0
LAYER
5
50
100
AcDbSymbolTableRecord
100
AcDbLayerTableRecord
2
0
70
0
6
CONTINUOUS
0
ENDTAB
0
TABLE
2
STYLE
5
3
100
AcDbSymbolTable
70
1
0
STYLE
5
11
100
AcDbSymbolTableRecord
100
AcDbTextStyleTableRecord
2
STANDARD
70
0
0
ENDTAB
0
TABLE
2
VIEW
5
6
100
AcDbSymbolTable
70
0
0
ENDTAB
0
TABLE
2
UCS
5
7
100
AcDbSymbolTable
70
0
0
ENDTAB
0
TABLE
2
APPID
5
9
100
AcDbSymbolTable
70
2
0
APPID
5
12
100
AcDbSymbolTableRecord
100
AcDbRegAppTableRecord
2
ACAD
70
0
0
ENDTAB
0
TABLE
2
DIMSTYLE
5
A
100
AcDbSymbolTable
70
1
0
ENDTAB
0
TABLE
2
BLOCK_RECORD
5
1
100
AcDbSymbolTable
70
1
0
BLOCK_RECORD
5
1F
100
AcDbSymbolTableRecord
100
AcDbBlockTableRecord
2
*MODEL_SPACE
0
BLOCK_RECORD
5
1B
100
AcDbSymbolTableRecord
100
AcDbBlockTableRecord
2
*PAPER_SPACE
0
ENDTAB
0
ENDSEC
0
SECTION
2
BLOCKS
0
BLOCK
5
20
100
AcDbEntity
100
AcDbBlockBegin
2
*MODEL_SPACE
0
ENDBLK
5
21
100
AcDbEntity
100
AcDbBlockEnd
0
BLOCK
5
1C
100
AcDbEntity
100
AcDbBlockBegin
2
*PAPER_SPACE
0
ENDBLK
5
1D
100
AcDbEntity
100
AcDbBlockEnd
0
ENDSEC
0
SECTION
2
ENTITIES
0
SPLINE
5
100
100
AcDbEntity
8
0
100
AcDbSpline
70
4
71
5
72
16
73
10
74
0
42
0.000000001
43
0.0000000001
44
0.0000000001
40
0
40
0
40
0
40
0
40
0
40
0
40
0.20000000000000001
40
0.40000000000000002
40
0.60000000000000009
40
0.80000000000000004
40
1
40
1
40
1
40
1
40
1
40
1
41
1
41
1
41
1
41
1
41
1
41
1
41
1
41
1
41
1
41
1
10
0
20
0
30
0
10
0
20
0.12000000000003158
30
0
10
0
20
0.36000000000007704
30
0
10
0
20
0.72000000000009301
30
0
10
0
20
1.2000000000000313
30
0
10
0
20
1.7999999999999146
30
0
10
0
20
2.2799999999998684
30
0
10
0
20
2.6399999999999042
30
0
10
0
20
2.8799999999999617
30
0
10
0
20
3
30
0
0
SPLINE
5
101
100
AcDbEntity
8
0
100
AcDbSpline
70
4
71
5
72
16
73
10
74
0
42
0.000000001
43
0.0000000001
44
0.0000000001
40
0
40
0
40
0
40
0
40
0
40
0
40
0.20000000000000001
40
0.40000000000000002
40
0.60000000000000009
40
0.80000000000000004
40
1
40
1
40
1
40
1
40
1
40
1
41
1
41
1
41
1
41
1
41
1
41
1
41
1
41
1
41
1
41
1
10
10
20
0
30
0
10
9.9999999999997495
20
0.12000000000003158
30
0
10
9.9999999999993197
20
0.36000000000007704
30
0
10
9.9999999999989129
20
0.72000000000009301
30
0
10
9.9999999999987672
20
1.2000000000000313
30
0
10
9.9999999999990248
20
1.7999999999999146
30
0
10
9.9999999999993889
20
2.2799999999998684
30
0
10
9.9999999999996998
20
2.6399999999999042
30
0
10
9.9999999999999005
20
2.8799999999999617
30
0
10
10
20
3
30
0
0
SPLINE
5
102
100
AcDbEntity
8
0
100
AcDbSpline
70
4
71
5
72
16
73
10
74
0
42
0.000000001
43
0.0000000001
44
0.0000000001
40
0
40
0
40
0
40
0
40
0
40
0
40
0.20000000000000001
40
0.40000000000000002
40
0.60000000000000009
40
0.80000000000000004
40
1
40
1
40
1
40
1
40
1
40
1
41
1
41
1
41
1
41
1
41
1
41
1
41
1
41
1
41
1
41
1
10
0
20
1.5
30
0
10
0.40000000000047375
20
1.499999999999694
30
0
10
1.2000000000012774
20
1.4999999999991638
30
0
10
2.4000000000020547
20
1.4999999999986278
30
0
10
4.0000000000023546
20
1.4999999999983737
30
0
10
6.0000000000019584
20
1.4999999999985913
30
0
10
7.6000000000012928
20
1.4999999999990359
30
0
10
8.800000000000697
20
1.4999999999994786
30
0
10
9.6000000000002395
20
1.4999999999998188
30
0
10
10
20
1.5
30
0
0
SPLINE
5
103
100
AcDbEntity
8
0
100
AcDbSpline
70
4
71
5
72
111
73
105
74
0
42
0.000000001
43
0.0000000001
44
0.0000000001
40
0
40
0
40
0
40
0
40
0
40
0
40
0.01
40
0.02
40
0.029999999999999999
40
0.040000000000000001
40
0.050000000000000003
40
0.060000000000000005
40
0.070000000000000007
40
0.080000000000000002
40
0.089999999999999997
40
0.099999999999999992
40
0.10999999999999999
40
0.11999999999999998
40
0.12999999999999998
40
0.13999999999999999
40
0.14999999999999999
40
0.16
40
0.17000000000000001
40
0.18000000000000002
40
0.19000000000000003
40
0.20000000000000004
40
0.21000000000000005
40
0.22000000000000006
40
0.23000000000000007
40
0.24000000000000007
40
0.25000000000000006
40
0.26000000000000006
40
0.27000000000000007
40
0.28000000000000008
40
0.29000000000000009
40
0.3000000000000001
40
0.31000000000000011
40
0.32000000000000012
40
0.33000000000000013
40
0.34000000000000014
40
0.35000000000000014
40
0.36000000000000015
40
0.37000000000000016
40
0.38000000000000017
40
0.39000000000000018
40
0.40000000000000019
40
0.4100000000000002
40
0.42000000000000021
40
0.43000000000000022
40
0.44000000000000022
40
0.45000000000000023
40
0.46000000000000024
40
0.47000000000000025
40
0.48000000000000026
40
0.49000000000000027
40
0.50000000000000022
40
0.51000000000000023
40
0.52000000000000024
40
0.53000000000000025
40
0.54000000000000026
40
0.55000000000000027
40
0.56000000000000028
40
0.57000000000000028
40
0.58000000000000029
40
0.5900000000000003
40
0.60000000000000031
40
0.61000000000000032
40
0.62000000000000033
40
0.63000000000000034
40
0.64000000000000035
40
0.65000000000000036
40
0.66000000000000036
40
0.67000000000000037
40
0.68000000000000038
40
0.69000000000000039
40
0.7000000000000004
40
0.71000000000000041
40
0.72000000000000042
40
0.73000000000000043
40
0.74000000000000044
40
0.75000000000000044
40
0.76000000000000045
40
0.77000000000000046
40
0.78000000000000047
40
0.79000000000000048
40
0.80000000000000049
40
0.8100000000000005
40
0.82000000000000051
40
0.83000000000000052
40
0.84000000000000052
40
0.85000000000000053
40
0.86000000000000054
40
0.87000000000000055
40
0.88000000000000056
40
0.89000000000000057
40
0.90000000000000058
40
0.91000000000000059
40
0.9200000000000006
40
0.9300000000000006
40
0.94000000000000061
40
0.95000000000000062
40
0.96000000000000063
40
0.97000000000000064
40
0.98000000000000065
40
0.99000000000000066
40
1
40
1
40
1
40
1
40
1
40
1
41
1
41
1
41
1
41
1
41
1
41
1
41
1
41
1
41
1
41
1
41
1
41
1
41
1
41
1
41
1
41
1
41
1
41
1
41
1
41
1
41
1
41
1
41
1
41
1
41
1
41
1
41
1
41
1
41
1
41
1
41
1
41
1
41
1
41
1
41
1
41
1
41
1
41
1
41
1
41
1
41
1
41
1
41
1
41
1
41
1
41
1
41
1
41
1
41
1
41
1
41
1
41
1
41
1
41
1
41
1
41
1
41
1
41
1
41
1
41
1
41
1
41
1
41
1
41
1
41
1
41
1
41
1
41
1
41
1
41
1
41
1
41
1
41
1
41
1
41
1
41
1
41
1
41
1
41
1
41
1
41
1
41
1
41
1
41
1
41
1
41
1
41
1
41
1
41
1
41
1
41
1
41
1
41
1
41
1
41
1
41
1
41
1
41
1
41
1
41
1
41
1
41
1
41
1
41
1
41
1
10
0
20
0
30
0
10
0.019924720027093099
20
0.0079483412346063667
30
0
10
0.059788564665935864
20
0.023295640202483384
30
0
10
0.1196275453620978
20
0.044668437738373964
30
0
10
0.1994992946363664
20
0.069868666108613253
30
0
10
0.29948591493403864
20
0.095985571573001166
30
0
10
0.39962792473109571
20
0.11705862720042098
30
0
10
0.49994212934483812
20
0.1337709804603146
30
0
10
0.60045646184672552
20
0.14726543018690649
30
0
10
0.70121272902539611
20
0.15925971195025845
30
0
10
0.80224786986076269
20
0.17153302147880584
30
0
10
0.90357499929631724
20
0.185407002944801
30
0
10
1.005164930654979
20
0.20123938744469716
30
0
10
1.106926518404481
20
0.21788676515740629
30
0
10
1.2086901286853988
20
0.23224933725936897
30
0
10
1.3102526757888777
20
0.2404112441675535
30
0
10
1.4114205843299539
20
0.23873126825379951
30
0
10
1.5120523072918299
20
0.22491233847485087
30
0
10
1.6121039043803498
20
0.1991733896130195
30
0
10
1.7116650992852989
20
0.16511032609385962
30
0
10
1.810917012063088
20
0.12805092736095727
30
0
10
1.9100972152016973
20
0.093623841124112289
30
0
10
2.0094621178330678
20
0.066288254298552868
30
0
10
2.109250296722994
20
0.047781513188525457
30
0
10
2.2096460705950003
20
0.035881431342413915
30
0
10
2.3107542454465189
20
0.026463491345762154
30
0
10
2.4125725692712514
20
0.015345946466132646
30
0
10
2.5149676283600431
20
0.0001224221247575831
30
0
10
2.6176430565313846
20
-0.017782398384596419
30
0
10
2.720128903815842
20
-0.031786345806505766
30
0
10
2.8218982046090293
20
-0.033358158548409254
30
0
10
2.9224723933397816
20
-0.014809511170996983
30
0
10
3.0215247620387284
20
0.027942991334659328
30
0
10
3.1189995715812104
20
0.09215285663796377
30
0
10
3.2151794613537255
20
0.16658668327180851
30
0
10
3.3105478524125993
20
0.23610425532250578
30
0
10
3.4056826166274417
20
0.28528974686665592
30
0
10
3.5011378770783921
20
0.30244125602901528
30
0
10
3.597330217277527
20
0.28343790512681638
30
0
10
3.6944247713502616
20
0.23558353728075385
30
0
10
3.7924043108512318
20
0.17322689871134761
30
0
10
3.8911350755317646
20
0.11353880989967897
30
0
10
3.9904347821358432
20
0.072152822097849303
30
0
10
4.0901372865353487
20
0.059047413128376434
30
0
10
4.1901650308365843
20
0.073829414187239067
30
0
10
4.2905029510959629
20
0.10864783377514714
30
0
10
4.3911632614005116
20
0.15181574390619082
30
0
10
4.4921529029105676
20
0.19122135700405407
30
0
10
4.5934413020709277
20
0.21772174212625148
30
0
10
4.6949241261025421
20
0.22882866392909598
30
0
10
4.7964593880821775
20
0.22706678556026261
30
0
10
4.8979091382656001
20
0.21791878485883026
30
0
10
4.9991792181867245
20
0.20792004471489234
30
0
10
5.1002596439917784
20
0.2026970123486396
30
0
10
5.2012653692798043
20
0.20501384898164862
30
0
10
5.3023703274272629
20
0.21520527134390838
30
0
10
5.4037400076764914
20
0.23163004228507031
30
0
10
5.505465740036537
20
0.25111888273200944
30
0
10
5.6074955504968678
20
0.26941489676946101
30
0
10
5.709573882461382
20
0.281640226451838
30
0
10
5.8113441958812819
20
0.28322335318497638
30
0
10
5.912445603502352
20
0.27082540842569192
30
0
10
6.0126086305994626
20
0.24322716778571696
30
0
10
6.111758603571948
20
0.20232793784270262
30
0
10
6.2100948724100711
20
0.15382495763299317
30
0
10
6.3079814168376771
20
0.10544241917765049
30
0
10
6.4058554453656296
20
0.06539216187317913
30
0
10
6.5041299783801882
20
0.040759402744565798
30
0
10
6.6030970871252297
20
0.035889064657327892
30
0
10
6.7028361395495413
20
0.050857005549244445
30
0
10
6.8032742754618036
20
0.082435063693918287
30
0
10
6.9042412020946617
20
0.12495731162072646
30
0
10
7.0055254778002602
20
0.17122428315505919
30
0
10
7.1069314669832071
20
0.21338399441482681
30
0
10
7.2083322284559426
20
0.24383766620444941
30
0
10
7.3096400729769195
20
0.25636786383579646
30
0
10
7.4107803824170535
20
0.24728883413523253
30
0
10
7.5116654740995656
20
0.21652882995097522
30
0
10
7.6121655055212445
20
0.16888560099557676
30
0
10
7.7120891247272381
20
0.11479970344144837
30
0
10
7.81124654171398
20
0.067136158273086277
30
0
10
7.9095057705465308
20
0.038302545930175402
30
0
10
8.0068501606715863
20
0.037291889229214274
30
0
10
8.1034386035356185
20
0.0666317757472695
30
0
10
8.1996557013531586
20
0.11972321678880213
30
0
10
8.2960006421101458
20
0.18448323300823841
30
0
10
8.3929863950919561
20
0.2465925065194049
30
0
10
8.4910330767627542
20
0.29294733949888652
30
0
10
8.5903682403127242
20
0.31489402429834057
30
0
10
8.6909120173051839
20
0.31191074468680657
30
0
10
8.7923642886030606
20
0.28939328441181583
30
0
10
8.8943090862305461
20
0.25593798516441024
30
0
10
8.9963133374056188
20
0.22079154601582482
30
0
10
9.0980265327605352
20
0.19126848445922645
30
0
10
9.1992839331119196
20
0.17008063776305798
30
0
10
9.3000641048762915
20
0.15644058865505547
30
0
10
9.4004412088088216
20
0.14730187055912763
30
0
10
9.5005393295772613
20
0.13854606580736706
30
0
10
9.6004859108044389
20
0.12619341368449974
30
0
10
9.7003657960912282
20
0.10759754810588057
30
0
10
9.8002298905028535
20
0.081174040862492039
30
0
10
9.8801288782227221
20
0.053142300357676177
30
0
10
9.9400612699636746
20
0.028124221726165341
30
0
10
9.9800198196683283
20
0.0096705638833828426
30
0
10
10
20
0
30
0
0
SPLINE
5
104
100
AcDbEntity
8
0
100
AcDbSpline
70
4
71
5
72
111
73
105
74
0
42
0.000000001
43
0.0000000001
44
0.0000000001
40
0
40
0
40
0
40
0
40
0
40
0
40
0.01
40
0.02
40
0.029999999999999999
40
0.040000000000000001
40
0.050000000000000003
40
0.060000000000000005
40
0.070000000000000007
40
0.080000000000000002
40
0.089999999999999997
40
0.099999999999999992
40
0.10999999999999999
40
0.11999999999999998
40
0.12999999999999998
40
0.13999999999999999
40
0.14999999999999999
40
0.16
40
0.17000000000000001
40
0.18000000000000002
40
0.19000000000000003
40
0.20000000000000004
40
0.21000000000000005
40
0.22000000000000006
40
0.23000000000000007
40
0.24000000000000007
40
0.25000000000000006
40
0.26000000000000006
40
0.27000000000000007
40
0.28000000000000008
40
0.29000000000000009
40
0.3000000000000001
40
0.31000000000000011
40
0.32000000000000012
40
0.33000000000000013
40
0.34000000000000014
40
0.35000000000000014
40
0.36000000000000015
40
0.37000000000000016
40
0.38000000000000017
40
0.39000000000000018
40
0.40000000000000019
40
0.4100000000000002
40
0.42000000000000021
40
0.43000000000000022
40
0.44000000000000022
40
0.45000000000000023
40
0.46000000000000024
40
0.47000000000000025
40
0.48000000000000026
40
0.49000000000000027
40
0.50000000000000022
40
0.51000000000000023
40
0.52000000000000024
40
0.53000000000000025
40
0.54000000000000026
40
0.55000000000000027
40
0.56000000000000028
40
0.57000000000000028
40
0.58000000000000029
40
0.5900000000000003
40
0.60000000000000031
40
0.61000000000000032
40
0.62000000000000033
40
0.63000000000000034
40
0.64000000000000035
40
0.65000000000000036
40
0.66000000000000036
40
0.67000000000000037
40
0.68000000000000038
40
0.69000000000000039
40
0.7000000000000004
40
0.71000000000000041
40
0.72000000000000042
40
0.73000000000000043
40
0.74000000000000044
40
0.75000000000000044
40
0.76000000000000045
40
0.77000000000000046
40
0.78000000000000047
40
0.79000000000000048
40
0.80000000000000049
40
0.8100000000000005
40
0.82000000000000051
40
0.83000000000000052
40
0.84000000000000052
40
0.85000000000000053
40
0.86000000000000054
40
0.87000000000000055
40
0.88000000000000056
40
0.89000000000000057
40
0.90000000000000058
40
0.91000000000000059
40
0.9200000000000006
40
0.9300000000000006
40
0.94000000000000061
40
0.95000000000000062
40
0.96000000000000063
40
0.97000000000000064
40
0.98000000000000065
40
0.99000000000000066
40
1
40
1
40
1
40
1
40
1
40
1
41
1
41
1
41
1
41
1
41
1
41
1
41
1
41
1
41
1
41
1
41
1
41
1
41
1
41
1
41
1
41
1
41
1
41
1
41
1
41
1
41
1
41
1
41
1
41
1
41
1
41
1
41
1
41
1
41
1
41
1
41
1
41
1
41
1
41
1
41
1
41
1
41
1
41
1
41
1
41
1
41
1
41
1
41
1
41
1
41
1
41
1
41
1
41
1
41
1
41
1
41
1
41
1
41
1
41
1
41
1
41
1
41
1
41
1
41
1
41
1
41
1
41
1
41
1
41
1
41
1
41
1
41
1
41
1
41
1
41
1
41
1
41
1
41
1
41
1
41
1
41
1
41
1
41
1
41
1
41
1
41
1
41
1
41
1
41
1
41
1
41
1
41
1
41
1
41
1
41
1
41
1
41
1
41
1
41
1
41
1
41
1
41
1
41
1
41
1
41
1
41
1
41
1
41
1
41
1
41
1
10
0
20
3
30
0
10
0.019053942649100358
20
2.9852160845702791
30
0
10
0.057248490811043225
20
2.9567073139978204
30
0
10
0.11480030158993537
20
2.917121379219958
30
0
10
0.19205611149634583
20
2.8706952604759084
30
0
10
0.28948747511804473
20
2.8233637013459854
30
0
10
0.38776409131587564
20
2.7870440582646783
30
0
10
0.48685260216456056
20
2.7623617719640792
30
0
10
0.58669685870375898
20
2.7503279878566698
30
0
10
0.68721197398749867
20
2.7525188897960069
30
0
10
0.78828020679020927
20
2.7702112550336051
30
0
10
0.8897473335874152
20
2.8033922922766665
30
0
10
0.99141835986023952
20
2.849777373535372
30
0
10
1.0930545379279226
20
2.9039046156067054
30
0
10
1.1943669663697118
20
2.9559761181526012
30
0
10
1.29505839771038
20
2.9944177315393494
30
0
10
1.3948687486228346
20
3.0087265045780418
30
0
10
1.4936200080232416
20
2.9922690700012082
30
0
10
1.591259819288757
20
2.9449786660384136
30
0
10
1.6879100987646201
20
2.8764327910571055
30
0
10
1.7838241487980599
20
2.8021414413849532
30
0
10
1.879338146121706
20
2.7394759751585838
30
0
10
1.9748238643724094
20
2.7035512894392753
30
0
10
2.0706428940984809
20
2.7035344793359419
30
0
10
2.1670951197604698
20
2.7377224807709712
30
0
10
2.2644021575127375
20
2.7956607932670159
30
0
10
2.3627035405560299
20
2.8625535116547312
30
0
10
2.4620472264432633
20
2.9230856222409236
30
0
10
2.562385560871705
20
2.9651016066769698
30
0
10
2.6635609616117666
20
2.984318549223222
30
0
10
2.7653332333435738
20
2.9839684223808414
30
0
10
2.8674298880093518
20
2.9714444542338212
30
0
10
2.9695914432147319
20
2.9557739741485642
30
0
10
3.0716143424913804
20
2.9449587701706967
30
0
10
3.1734062182096472
20
2.9428443308773016
30
0
10
3.2749719478710748
20
2.9491885340718276
30
0
10
3.3763716476533601
20
2.9610877870236751
30
0
10
3.4776867402156397
20
2.9739709396196412
30
0
10
3.578985047979113
20
2.9827464625181852
30
0
10
3.6802801851041385
20
2.9829498257494249
30
0
10
3.7815375754497946
20
2.9713928663264495
30
0
10
3.8826933067575968
20
2.9466323557489127
30
0
10
3.9836687502816237
20
2.9095459622798052
30
0
10
4.0843865858465724
20
2.8637657787247783
30
0
10
4.1847871615303385
20
2.8164333460875817
30
0
10
4.2848357363203862
20
2.7764481472732552
30
0
10
4.384527675848866
20
2.7523111269109499
30
0
10
4.48389475359643
20
2.7500247192077691
30
0
10
4.5830101919110833
20
2.7711592611294926
30
0
10
4.6819964269608096
20
2.8103439956414231
30
0
10
4.781011440764849
20
2.8576129162368558
30
0
10
4.8802310493871568
20
2.9015714384119651
30
0
10
4.9798329708131552
20
2.9323977436635928
30
0
10
5.0799793365556152
20
2.9446369648906834
30
0
10
5.1808019549803621
20
2.940806596625908
30
0
10
5.2823709527186793
20
2.9290627769627813
30
0
10
5.3846607905186818
20
2.9195018391597802
30
0
10
5.4875148615523752
20
2.920841582209647
30
0
10
5.5906157010497228
20
2.9371457894468995
30
0
10
5.693439168983689
20
2.9639898721404863
30
0
10
5.7953778756799537
20
2.9913627184729661
30
0
10
5.8958848704374001
20
3.0074166459443297
30
0
10
5.9946124795622815
20
3.001961102280188
30
0
10
6.0915480011511409
20
2.9699561392245695
30
0
10
6.187165198796678
20
2.9153012478188405
30
0
10
6.2822487208610598
20
2.8478907672259233
30
0
10
6.3777032664759101
20
2.7803394177514202
30
0
10
6.4743611160004546
20
2.7246990659657215
30
0
10
6.5728069834610112
20
2.6894793782767006
30
0
10
6.6731525568204315
20
2.6757662166827823
30
0
10
6.775104102195904
20
2.6786085952301395
30
0
10
6.8781255695798817
20
2.6901054032039369
30
0
10
6.9815726482999327
20
2.7020091960983144
30
0
10
7.0848325739931717
20
2.7083442133324569
30
0
10
7.1874778718358368
20
2.7085066827945079
30
0
10
7.2892725092169535
20
2.7059796272153624
30
0
10
7.3901461048643355
20
2.7061461108802849
30
0
10
7.4901800115011072
20
2.7143816345976535
30
0
10
7.5895870834386407
20
2.734110379838615
30
0
10
7.6886980534100067
20
2.7646605043307542
30
0
10
7.78789245556022
20
2.8022907361348199
30
0
10
7.8875255183660737
20
2.8415431916462115
30
0
10
7.9878542666801575
20
2.8764966379406336
30
0
10
8.0889689274134309
20
2.9020171718350483
30
0
10
8.1907086139917382
20
2.9151273534277165
30
0
10
8.2927476768581254
20
2.9148789215332407
30
0
10
8.3947028332098697
20
2.9020341619956436
30
0
10
8.4962337196417383
20
2.8788182848986272
30
0
10
8.5971442575367227
20
2.8486393825082112
30
0
10
8.6974891055166133
20
2.8158328953554457
30
0
10
8.7974900127771427
20
2.7850627976767783
30
0
10
8.8974452127147945
20
2.7607144817509246
30
0
10
8.9976410753926128
20
2.7462873223518485
30
0
10
9.0982636695512138
20
2.7437940787560304
30
0
10
9.199307962876798
20
2.75313666996687
30
0
10
9.3006300487339857
20
2.7726894121826673
30
0
10
9.4020025050522378
20
2.7999081971132496
30
0
10
9.5031682698632185
20
2.831926515799073
30
0
10
9.6038957097566993
20
2.8661632812477826
30
0
10
9.7040315136825868
20
2.9009072092529737
30
0
10
9.8034837777638977
20
2.9351296725238987
30
0
10
9.8824622968598046
20
2.9616802930237935
30
0
10
9.9413613425955099
20
2.9810509803973422
30
0
10
9.9804785798155624
20
2.9937238196533196
30
0
10
10
20
3
30
0
0
ENDSEC
0
SECTION
2
OBJECTS
0
DICTIONARY
5
C
100
AcDbDictionary
3
ACAD_GROUP
350
D
3
ACAD_MLINESTYLE
350
17
0
DICTIONARY
5
D
100
AcDbDictionary
0
DICTIONARY
5
1A
330
C
100
AcDbDictionary
0
DICTIONARY
5
17
100
AcDbDictionary
0
ENDSEC
0
EOF
