0
SECTION
2
HEADER
9
$INSUNITS
70
4
9
$ACADVER
1
AC1014
9
$HANDSEED
5
FFFF
0
ENDSEC
0
SECTION
2
TABLES
0
TABLE
2
VPORT
5
8
100
AcDbSymbolTable
0
ENDTAB
0
TABLE
2
LTYPE
5
5
100
AcDbSymbolTable
0
LTYPE
5
14
100
AcDbSymbolTableRecord
100
AcDbLinetypeTableRecord
2
BYBLOCK
70
0
0
LTYPE
5
15
100
AcDbSymbolTableRecord
100
AcDbLinetypeTableRecord
2
BYLAYER
70
0
0
ENDTAB
0
TABLE
2
LAYER
5
2
100
AcDbSymbolTable
70
2
0
LAYER
5
50
100
AcDbSymbolTableRecord
100
AcDbLayerTableRecord
2
0
70
0
6
CONTINUOUS
0
ENDTAB
0
TABLE
2
STYLE
5
3
100
AcDbSymbolTable
70
1
0
STYLE
5
11
100
AcDbSymbolTableRecord
100
AcDbTextStyleTableRecord
2
STANDARD
70
0
0
ENDTAB
0
TABLE
2
VIEW
5
6
100
AcDbSymbolTable
70
0
0
ENDTAB
0
TABLE
2
UCS
5
7
100
AcDbSymbolTable
70
0
0
ENDTAB
0
TABLE
2
APPID
5
9
100
AcDbSymbolTable
70
2
0
APPID
5
12
100
AcDbSymbolTableRecord
100
AcDbRegAppTableRecord
2
ACAD
70
0
0
ENDTAB
0
TABLE
2
DIMSTYLE
5
A
100
AcDbSymbolTable
70
1
0
ENDTAB
0
TABLE
2
BLOCK_RECORD
5
1
100
AcDbSymbolTable
70
1
0
BLOCK_RECORD
5
1F
100
AcDbSymbolTableRecord
100
AcDbBlockTableRecord
2
*MODEL_SPACE
0
BLOCK_RECORD
5
1B
100
AcDbSymbolTableRecord
100
AcDbBlockTableRecord
2
*PAPER_SPACE
0
ENDTAB
0
ENDSEC
0
SECTION
2
BLOCKS
0
BLOCK
5
20
100
AcDbEntity
100
AcDbBlockBegin
2
*MODEL_SPACE
0
ENDBLK
5
21
100
AcDbEntity
100
AcDbBlockEnd
0
BLOCK
5
1C
100
AcDbEntity
100
AcDbBlockBegin
2
*PAPER_SPACE
0
ENDBLK
5
1D
100
AcDbEntity
100
AcDbBlockEnd
0
ENDSEC
0
SECTION
2
ENTITIES
0
SPLINE
5
100
100
AcDbEntity
8
0
100
AcDbSpline
70
4
71
5
72
16
73
10
74
0
42
0.000000001
43
0.0000000001
44
0.0000000001
40
0
40
0
40
0
40
0
40
0
40
0
40
0.20000000000000001
40
0.40000000000000002
40
0.60000000000000009
40
0.80000000000000004
40
1
40
1
40
1
40
1
40
1
40
1
41
1
41
1
41
1
41
1
41
1
41
1
41
1
41
1
41
1
41
1
10
0
20
0
30
0
10
0
20
0.12000000000003158
30
0
10
0
20
0.36000000000007704
30
0
10
0
20
0.72000000000009301
30
0
10
0
20
1.2000000000000313
30
0
10
0
20
1.7999999999999146
30
0
10
0
20
2.2799999999998684
30
0
10
0
20
2.6399999999999042
30
0
10
0
20
2.8799999999999617
30
0
10
0
20
3
30
0
0
SPLINE
5
101
100
AcDbEntity
8
0
100
AcDbSpline
70
4
71
5
72
16
73
10
74
0
42
0.000000001
43
0.0000000001
44
0.0000000001
40
0
40
0
40
0
40
0
40
0
40
0
40
0.20000000000000001
40
0.40000000000000002
40
0.60000000000000009
40
0.80000000000000004
40
1
40
1
40
1
40
1
40
1
40
1
41
1
41
1
41
1
41
1
41
1
41
1
41
1
41
1
41
1
41
1
10
10
20
0
30
0
10
9.9999999999997495
20
0.12000000000003158
30
0
10
9.9999999999993197
20
0.36000000000007704
30
0
10
9.9999999999989129
20
0.72000000000009301
30
0
10
9.9999999999987672
20
1.2000000000000313
30
0
10
9.9999999999990248
20
1.7999999999999146
30
0
10
9.9999999999993889
20
2.2799999999998684
30
0
10
9.9999999999996998
20
2.6399999999999042
30
0
10
9.9999999999999005
20
2.8799999999999617
30
0
10
10
20
3
30
0
0
SPLINE
5
102
100
AcDbEntity
8
0
100
AcDbSpline
70
4
71
5
72
16
73
10
74
0
42
0.000000001
43
0.0000000001
44
0.0000000001
40
0
40
0
40
0
40
0
40
0
40
0
40
0.20000000000000001
40
0.40000000000000002
40
0.60000000000000009
40
0.80000000000000004
40
1
40
1
40
1
40
1
40
1
40
1
41
1
41
1
41
1
41
1
41
1
41
1
41
1
41
1
41
1
41
1
10
0
20
1.5
30
0
10
0.40000000000047375
20
1.499999999999694
30
0
10
1.2000000000012774
20
1.4999999999991638
30
0
10
2.4000000000020547
20
1.4999999999986278
30
0
10
4.0000000000023546
20
1.4999999999983737
30
0
10
6.0000000000019584
20
1.4999999999985913
30
0
10
7.6000000000012928
20
1.4999999999990359
30
0
10
8.800000000000697
20
1.4999999999994786
30
0
10
9.6000000000002395
20
1.4999999999998188
30
0
10
10
20
1.5
30
0
0
SPLINE
5
103
100
AcDbEntity
8
0
100
AcDbSpline
70
4
71
5
72
61
73
55
74
0
42
0.000000001
43
0.0000000001
44
0.0000000001
40
0
40
0
40
0
40
0
40
0
40
0
40
0.02
40
0.040000000000000001
40
0.059999999999999998
40
0.080000000000000002
40
0.10000000000000001
40
0.12000000000000001
40
0.14000000000000001
40
0.16
40
0.17999999999999999
40
0.19999999999999998
40
0.21999999999999997
40
0.23999999999999996
40
0.25999999999999995
40
0.27999999999999997
40
0.29999999999999999
40
0.32000000000000001
40
0.34000000000000002
40
0.36000000000000004
40
0.38000000000000006
40
0.40000000000000008
40
0.4200000000000001
40
0.44000000000000011
40
0.46000000000000013
40
0.48000000000000015
40
0.50000000000000011
40
0.52000000000000013
40
0.54000000000000015
40
0.56000000000000016
40
0.58000000000000018
40
0.6000000000000002
40
0.62000000000000022
40
0.64000000000000024
40
0.66000000000000025
40
0.68000000000000027
40
0.70000000000000029
40
0.72000000000000031
40
0.74000000000000032
40
0.76000000000000034
40
0.78000000000000036
40
0.80000000000000038
40
0.8200000000000004
40
0.84000000000000041
40
0.86000000000000043
40
0.88000000000000045
40
0.90000000000000047
40
0.92000000000000048
40
0.9400000000000005
40
0.96000000000000052
40
0.98000000000000054
40
1
40
1
40
1
40
1
40
1
40
1
41
1
41
1
41
1
41
1
41
1
41
1
41
1
41
1
41
1
41
1
41
1
41
1
41
1
41
1
41
1
41
1
41
1
41
1
41
1
41
1
41
1
41
1
41
1
41
1
41
1
41
1
41
1
41
1
41
1
41
1
41
1
41
1
41
1
41
1
41
1
41
1
41
1
41
1
41
1
41
1
41
1
41
1
41
1
41
1
41
1
41
1
41
1
41
1
41
1
41
1
41
1
41
1
41
1
41
1
41
1
10
0
20
0
30
0
10
0.039110985660128002
20
0.022973794697115704
30
0
10
0.11740674095383008
20
0.066559832294203244
30
0
10
0.23507172520371852
20
0.12485425263714912
30
0
10
0.3924013671827481
20
0.18840147605966423
30
0
10
0.58979540149975307
20
0.24442136148410928
30
0
10
0.78789956591192323
20
0.27776820611193587
30
0
10
0.98666774969387361
20
0.29000128235233502
30
0
10
1.1860213982022396
20
0.28377421037733019
30
0
10
1.3858396059440758
20
0.26316577164705768
30
0
10
1.5859784498933123
20
0.2330847052772369
30
0
10
1.7862920142699077
20
0.19862086177368321
30
0
10
1.9866530675072844
20
0.16440817177220041
30
0
10
2.186973239286341
20
0.13400232522974709
30
0
10
2.3872253233963163
20
0.10919502944028173
30
0
10
2.587426791280711
20
0.090487207309465703
30
0
10
2.7876209137163825
20
0.077632077961607884
30
0
10
2.9878586710964989
20
0.070158334822948781
30
0
10
3.1881807406924039
20
0.06788219489082159
30
0
10
3.3885984258488566
20
0.071473870541003265
30
0
10
3.5890982642334066
20
0.081881769092389825
30
0
10
3.7896480288921235
20
0.099694321014245982
30
0
10
3.9902021409387025
20
0.12451334669197796
30
0
10
4.1907073426393913
20
0.15434415397817708
30
0
10
4.3911080850951762
20
0.18490918876317333
30
0
10
4.5913558447701464
20
0.2107973117028826
30
0
10
4.7914185367624942
20
0.22669115973874041
30
0
10
4.9912900955276553
20
0.22857839257783502
30
0
10
5.1909996855783263
20
0.21494291865064741
30
0
10
5.3906221663483533
20
0.18805170437942612
30
0
10
5.5902573920334593
20
0.15270990573444518
30
0
10
5.7900083876620476
20
0.11492044375114074
30
0
10
5.9899597120394841
20
0.080571233214905003
30
0
10
6.1901562750290235
20
0.054138516353392035
30
0
10
6.3905803180724998
20
0.037307328169318761
30
0
10
6.5911714202444038
20
0.029633424411605928
30
0
10
6.791848416280672
20
0.029298039730270467
30
0
10
6.9925306936676233
20
0.033828269432428296
30
0
10
7.193159382371654
20
0.040820181726898448
30
0
10
7.3937195884913587
20
0.048685190843629947
30
0
10
7.5942274742849811
20
0.056475064444455478
30
0
10
7.7947161638517946
20
0.063674780047693988
30
0
10
7.9952220795759024
20
0.07000780685250084
30
0
10
8.1957712500098161
20
0.075238622541998548
30
0
10
8.3963652494835976
20
0.078972173802190015
30
0
10
8.5969877634630958
20
0.080711679396478442
30
0
10
8.7976115849657521
20
0.079922348675652025
30
0
10
8.9982054259464146
20
0.076092902827856482
30
0
10
9.1987407680079052
20
0.068797876664320468
30
0
10
9.3991987588862074
20
0.05776049550881495
30
0
10
9.5995682653768224
20
0.042821421128256557
30
0
10
9.7597887444086222
20
0.027689842703367516
30
0
10
9.8799110892236861
20
0.014543540641796412
30
0
10
9.9599735472661575
20
0.0049809171977451584
30
0
10
10
20
0
30
0
0
SPLINE
5
104
100
AcDbEntity
8
0
100
AcDbSpline
70
4
71
5
72
61
73
55
74
0
42
0.000000001
43
0.0000000001
44
0.0000000001
40
0
40
0
40
0
40
0
40
0
40
0
40
0.02
40
0.040000000000000001
40
0.059999999999999998
40
0.080000000000000002
40
0.10000000000000001
40
0.12000000000000001
40
0.14000000000000001
40
0.16
40
0.17999999999999999
40
0.19999999999999998
40
0.21999999999999997
40
0.23999999999999996
40
0.25999999999999995
40
0.27999999999999997
40
0.29999999999999999
40
0.32000000000000001
40
0.34000000000000002
40
0.36000000000000004
40
0.38000000000000006
40
0.40000000000000008
40
0.4200000000000001
40
0.44000000000000011
40
0.46000000000000013
40
0.48000000000000015
40
0.50000000000000011
40
0.52000000000000013
40
0.54000000000000015
40
0.56000000000000016
40
0.58000000000000018
40
0.6000000000000002
40
0.62000000000000022
40
0.64000000000000024
40
0.66000000000000025
40
0.68000000000000027
40
0.70000000000000029
40
0.72000000000000031
40
0.74000000000000032
40
0.76000000000000034
40
0.78000000000000036
40
0.80000000000000038
40
0.8200000000000004
40
0.84000000000000041
40
0.86000000000000043
40
0.88000000000000045
40
0.90000000000000047
40
0.92000000000000048
40
0.9400000000000005
40
0.96000000000000052
40
0.98000000000000054
40
1
40
1
40
1
40
1
40
1
40
1
41
1
41
1
41
1
41
1
41
1
41
1
41
1
41
1
41
1
41
1
41
1
41
1
41
1
41
1
41
1
41
1
41
1
41
1
41
1
41
1
41
1
41
1
41
1
41
1
41
1
41
1
41
1
41
1
41
1
41
1
41
1
41
1
41
1
41
1
41
1
41
1
41
1
41
1
41
1
41
1
41
1
41
1
41
1
41
1
41
1
41
1
41
1
41
1
41
1
41
1
41
1
41
1
41
1
41
1
41
1
10
0
20
3
30
0
10
0.039422986555047342
20
2.9654951829350082
30
0
10
0.11829062759539737
20
2.9011775307964003
30
0
10
0.23665709276210872
20
2.8187769259405449
30
0
10
0.39460913981718571
20
2.7370801711670811
30
0
10
0.59226503200119118
20
2.6810934182695627
30
0
10
0.7901329658008277
20
2.6686154321119226
30
0
10
0.98820465446182548
20
2.6942302825469371
30
0
10
1.1864658008431892
20
2.7488185406582795
30
0
10
1.3848940708219939
20
2.8184391295536138
30
0
10
1.5834665217938184
20
2.887042929931531
30
0
10
1.7821674275424879
20
2.9393676616925313
30
0
10
1.9809962432832697
20
2.9638339320816263
30
0
10
2.1799749151189394
20
2.9552955292742982
30
0
10
2.3791572000884562
20
2.9182786066333346
30
0
10
2.578612413746908
20
2.8639288107284955
30
0
10
2.7784069541572531
20
2.8063919227707257
30
0
10
2.9785861646833234
20
2.7593427999866678
30
0
10
3.1791570437812355
20
2.7326039950268504
30
0
10
3.3800677106432953
20
2.7283166093757765
30
0
10
3.5812256718499169
20
2.742727907874658
30
0
10
3.7825201442405758
20
2.7685807031640142
30
0
10
3.9838431680216195
20
2.7973012838165574
30
0
10
4.1851105057491553
20
2.8212087778918016
30
0
10
4.386284587193872
20
2.835870889532901
30
0
10
4.5873631994720601
20
2.8396701332815555
30
0
10
4.7883655033759585
20
2.8331438409720393
30
0
10
4.9893189612810209
20
2.8184111514581467
30
0
10
5.1902462022671774
20
2.7985719831881872
30
0
10
5.391151138080529
20
2.7771118143564926
30
0
10
5.5920254304839094
20
2.7575614915141027
30
0
10
5.7928559882451864
20
2.7431741469107642
30
0
10
5.9936321238919756
20
2.7365936167987965
30
0
10
6.1943527321010938
20
2.7395284705150154
30
0
10
6.3950338200060139
20
2.7524113899974623
30
0
10
6.5957015152779688
20
2.7744796240050413
30
0
10
6.7963846578261826
20
2.8038659686956664
30
0
10
6.9971075380422452
20
2.8376813376126266
30
0
10
7.1978826124674447
20
2.8721007425063516
30
0
10
7.3987030740262707
20
2.9024367589871187
30
0
10
7.5995473042327788
20
2.9239904037983249
30
0
10
7.8003834591130978
20
2.9329128625929872
30
0
10
8.0011739713706014
20
2.9270636650442232
30
0
10
8.2018800745312408
20
2.9068779781544833
30
0
10
8.4024662944163158
20
2.876227873054007
30
0
10
8.6029009705541384
20
2.8412869542224293
30
0
10
8.8031568078234841
20
2.8094083812928972
30
0
10
9.0032114285341027
20
2.7880050458726719
30
0
10
9.2030479508022633
20
2.7834230048266742
30
0
10
9.4026555525918258
20
2.7998347214467278
30
0
10
9.6020281272405654
20
2.839703321483074
30
0
10
9.7613360090476746
20
2.8913173922953392
30
0
10
9.880709681400937
20
2.9412841525904367
30
0
10
9.9602444989210035
20
2.9795948036812137
30
0
10
10
20
3
30
0
0
ENDSEC
0
SECTION
2
OBJECTS
0
DICTIONARY
5
C
100
AcDbDictionary
3
ACAD_GROUP
350
D
3
ACAD_MLINESTYLE
350
17
0
DICTIONARY
5
D
100
AcDbDictionary
0
DICTIONARY
5
1A
330
C
100
AcDbDictionary
0
DICTIONARY
5
17
100
AcDbDictionary
0
ENDSEC
0
EOF
